<?xml version="1.0" encoding="UTF-8" standalone="no"?>
<!DOCTYPE svg PUBLIC "-//W3C//DTD SVG 1.1//EN"
 "http://www.w3.org/Graphics/SVG/1.1/DTD/svg11.dtd">
<!-- Generated by graphviz version 2.38.0 (20140413.2041)
 -->
<!-- Title: /home/travis/build/STORM&#45;IRIT/Radium&#45;Engine/src/Core/Containers/AdjacencyList.inl Pages: 1 -->
<svg width="607pt" height="408pt"
 viewBox="0.00 0.00 606.50 408.00" xmlns="http://www.w3.org/2000/svg" xmlns:xlink="http://www.w3.org/1999/xlink">
<g id="graph0" class="graph" transform="scale(1 1) rotate(0) translate(4 404)">
<title>/home/travis/build/STORM&#45;IRIT/Radium&#45;Engine/src/Core/Containers/AdjacencyList.inl</title>
<polygon fill="white" stroke="none" points="-4,4 -4,-404 602.5,-404 602.5,4 -4,4"/>
<!-- Node1 -->
<g id="node1" class="node"><title>Node1</title>
<polygon fill="#bfbfbf" stroke="black" points="307.5,-358.5 307.5,-399.5 503.5,-399.5 503.5,-358.5 307.5,-358.5"/>
<text text-anchor="start" x="315.5" y="-387.5" font-family="Helvetica,sans-Serif" font-size="10.00">/home/travis/build</text>
<text text-anchor="start" x="315.5" y="-376.5" font-family="Helvetica,sans-Serif" font-size="10.00">/STORM&#45;IRIT/Radium&#45;Engine</text>
<text text-anchor="middle" x="405.5" y="-365.5" font-family="Helvetica,sans-Serif" font-size="10.00">/src/Core/Containers/AdjacencyList.inl</text>
</g>
<!-- Node2 -->
<g id="node2" class="node"><title>Node2</title>
<g id="a_node2"><a xlink:href="AdjacencyList_8hpp.html" target="_top" xlink:title="Core/Containers/Adjacency\lList.hpp">
<polygon fill="white" stroke="black" points="332.5,-291.5 332.5,-321.5 478.5,-321.5 478.5,-291.5 332.5,-291.5"/>
<text text-anchor="start" x="340.5" y="-309.5" font-family="Helvetica,sans-Serif" font-size="10.00">Core/Containers/Adjacency</text>
<text text-anchor="middle" x="405.5" y="-298.5" font-family="Helvetica,sans-Serif" font-size="10.00">List.hpp</text>
</a>
</g>
</g>
<!-- Node1&#45;&gt;Node2 -->
<g id="edge1" class="edge"><title>Node1&#45;&gt;Node2</title>
<path fill="none" stroke="midnightblue" d="M399.377,-358.362C398.679,-350.226 398.564,-340.7 399.031,-332.105"/>
<polygon fill="midnightblue" stroke="midnightblue" points="402.54,-332.161 399.935,-321.892 395.567,-331.544 402.54,-332.161"/>
</g>
<!-- Node2&#45;&gt;Node1 -->
<g id="edge23" class="edge"><title>Node2&#45;&gt;Node1</title>
<path fill="none" stroke="midnightblue" d="M411.065,-321.892C412.056,-329.532 412.426,-339.214 412.173,-348.376"/>
<polygon fill="midnightblue" stroke="midnightblue" points="408.678,-348.185 411.623,-358.362 415.668,-348.569 408.678,-348.185"/>
</g>
<!-- Node3 -->
<g id="node3" class="node"><title>Node3</title>
<g id="a_node3"><a xlink:href="AlignedStdVector_8hpp.html" target="_top" xlink:title="Core/Containers/AlignedStd\lVector.hpp">
<polygon fill="white" stroke="black" points="60,-168.5 60,-198.5 209,-198.5 209,-168.5 60,-168.5"/>
<text text-anchor="start" x="68" y="-186.5" font-family="Helvetica,sans-Serif" font-size="10.00">Core/Containers/AlignedStd</text>
<text text-anchor="middle" x="134.5" y="-175.5" font-family="Helvetica,sans-Serif" font-size="10.00">Vector.hpp</text>
</a>
</g>
</g>
<!-- Node2&#45;&gt;Node3 -->
<g id="edge2" class="edge"><title>Node2&#45;&gt;Node3</title>
<path fill="none" stroke="midnightblue" d="M332.433,-303.547C284.809,-299.033 223.402,-286.777 178.5,-255 162.173,-243.446 150.626,-223.731 143.47,-208.082"/>
<polygon fill="midnightblue" stroke="midnightblue" points="146.533,-206.342 139.395,-198.512 140.093,-209.084 146.533,-206.342"/>
</g>
<!-- Node8 -->
<g id="node8" class="node"><title>Node8</title>
<polygon fill="white" stroke="#bfbfbf" points="489,-0.5 489,-19.5 548,-19.5 548,-0.5 489,-0.5"/>
<text text-anchor="middle" x="518.5" y="-7.5" font-family="Helvetica,sans-Serif" font-size="10.00">iostream</text>
</g>
<!-- Node2&#45;&gt;Node8 -->
<g id="edge22" class="edge"><title>Node2&#45;&gt;Node8</title>
<path fill="none" stroke="midnightblue" d="M475.723,-291.425C530.907,-275.792 598.5,-244.415 598.5,-184.5 598.5,-184.5 598.5,-184.5 598.5,-121 598.5,-80.6206 562.805,-45.1055 539.102,-25.9729"/>
<polygon fill="midnightblue" stroke="midnightblue" points="541.046,-23.0515 531,-19.6866 536.755,-28.582 541.046,-23.0515"/>
</g>
<!-- Node13 -->
<g id="node13" class="node"><title>Node13</title>
<g id="a_node13"><a xlink:href="VectorArray_8hpp.html" target="_top" xlink:title="Core/Containers/VectorArray.hpp">
<polygon fill="white" stroke="black" points="188,-235.5 188,-254.5 361,-254.5 361,-235.5 188,-235.5"/>
<text text-anchor="middle" x="274.5" y="-242.5" font-family="Helvetica,sans-Serif" font-size="10.00">Core/Containers/VectorArray.hpp</text>
</a>
</g>
</g>
<!-- Node2&#45;&gt;Node13 -->
<g id="edge12" class="edge"><title>Node2&#45;&gt;Node13</title>
<path fill="none" stroke="midnightblue" d="M374.455,-291.399C352.77,-281.55 324.041,-268.501 302.949,-258.922"/>
<polygon fill="midnightblue" stroke="midnightblue" points="304.114,-255.607 293.562,-254.658 301.219,-261.98 304.114,-255.607"/>
</g>
<!-- Node15 -->
<g id="node15" class="node"><title>Node15</title>
<polygon fill="white" stroke="#bfbfbf" points="502.5,-112.5 502.5,-131.5 570.5,-131.5 570.5,-112.5 502.5,-112.5"/>
<text text-anchor="middle" x="536.5" y="-119.5" font-family="Helvetica,sans-Serif" font-size="10.00">Eigen/Core</text>
</g>
<!-- Node2&#45;&gt;Node15 -->
<g id="edge21" class="edge"><title>Node2&#45;&gt;Node15</title>
<path fill="none" stroke="midnightblue" d="M415.562,-291.483C439.211,-258.536 498.277,-176.25 524.094,-140.283"/>
<polygon fill="midnightblue" stroke="midnightblue" points="527.182,-141.983 530.17,-131.819 521.495,-137.902 527.182,-141.983"/>
</g>
<!-- Node4 -->
<g id="node4" class="node"><title>Node4</title>
<g id="a_node4"><a xlink:href="RaCore_8hpp.html" target="_top" xlink:title="Core/RaCore.hpp">
<polygon fill="white" stroke="black" points="176.5,-112.5 176.5,-131.5 274.5,-131.5 274.5,-112.5 176.5,-112.5"/>
<text text-anchor="middle" x="225.5" y="-119.5" font-family="Helvetica,sans-Serif" font-size="10.00">Core/RaCore.hpp</text>
</a>
</g>
</g>
<!-- Node3&#45;&gt;Node4 -->
<g id="edge3" class="edge"><title>Node3&#45;&gt;Node4</title>
<path fill="none" stroke="midnightblue" d="M156.066,-168.399C170.38,-159.04 189.112,-146.792 203.511,-137.377"/>
<polygon fill="midnightblue" stroke="midnightblue" points="205.804,-140.06 212.259,-131.658 201.974,-134.201 205.804,-140.06"/>
</g>
<!-- Node11 -->
<g id="node11" class="node"><title>Node11</title>
<polygon fill="white" stroke="#bfbfbf" points="0,-112.5 0,-131.5 93,-131.5 93,-112.5 0,-112.5"/>
<text text-anchor="middle" x="46.5" y="-119.5" font-family="Helvetica,sans-Serif" font-size="10.00">Eigen/StdVector</text>
</g>
<!-- Node3&#45;&gt;Node11 -->
<g id="edge10" class="edge"><title>Node3&#45;&gt;Node11</title>
<path fill="none" stroke="midnightblue" d="M113.645,-168.399C99.8031,-159.04 81.6888,-146.792 67.7636,-137.377"/>
<polygon fill="midnightblue" stroke="midnightblue" points="69.5493,-134.36 59.3048,-131.658 65.6285,-140.158 69.5493,-134.36"/>
</g>
<!-- Node12 -->
<g id="node12" class="node"><title>Node12</title>
<polygon fill="white" stroke="#bfbfbf" points="111,-112.5 111,-131.5 158,-131.5 158,-112.5 111,-112.5"/>
<text text-anchor="middle" x="134.5" y="-119.5" font-family="Helvetica,sans-Serif" font-size="10.00">vector</text>
</g>
<!-- Node3&#45;&gt;Node12 -->
<g id="edge11" class="edge"><title>Node3&#45;&gt;Node12</title>
<path fill="none" stroke="midnightblue" d="M134.5,-168.399C134.5,-160.466 134.5,-150.458 134.5,-141.858"/>
<polygon fill="midnightblue" stroke="midnightblue" points="138,-141.658 134.5,-131.658 131,-141.658 138,-141.658"/>
</g>
<!-- Node5 -->
<g id="node5" class="node"><title>Node5</title>
<g id="a_node5"><a xlink:href="CoreMacros_8hpp.html" target="_top" xlink:title="Core/CoreMacros.hpp">
<polygon fill="white" stroke="black" points="222.5,-56.5 222.5,-75.5 342.5,-75.5 342.5,-56.5 222.5,-56.5"/>
<text text-anchor="middle" x="282.5" y="-63.5" font-family="Helvetica,sans-Serif" font-size="10.00">Core/CoreMacros.hpp</text>
</a>
</g>
</g>
<!-- Node4&#45;&gt;Node5 -->
<g id="edge4" class="edge"><title>Node4&#45;&gt;Node5</title>
<path fill="none" stroke="midnightblue" d="M234.658,-112.324C243.001,-104.42 255.532,-92.5482 265.677,-82.9377"/>
<polygon fill="midnightblue" stroke="midnightblue" points="268.323,-85.2522 273.175,-75.8339 263.509,-80.1705 268.323,-85.2522"/>
</g>
<!-- Node6 -->
<g id="node6" class="node"><title>Node6</title>
<polygon fill="white" stroke="#bfbfbf" points="223.5,-0.5 223.5,-19.5 275.5,-19.5 275.5,-0.5 223.5,-0.5"/>
<text text-anchor="middle" x="249.5" y="-7.5" font-family="Helvetica,sans-Serif" font-size="10.00">cassert</text>
</g>
<!-- Node5&#45;&gt;Node6 -->
<g id="edge5" class="edge"><title>Node5&#45;&gt;Node6</title>
<path fill="none" stroke="midnightblue" d="M277.051,-56.083C272.486,-48.6127 265.832,-37.7244 260.207,-28.5199"/>
<polygon fill="midnightblue" stroke="midnightblue" points="263.049,-26.4588 254.848,-19.7511 257.076,-30.109 263.049,-26.4588"/>
</g>
<!-- Node7 -->
<g id="node7" class="node"><title>Node7</title>
<polygon fill="white" stroke="#bfbfbf" points="294,-0.5 294,-19.5 339,-19.5 339,-0.5 294,-0.5"/>
<text text-anchor="middle" x="316.5" y="-7.5" font-family="Helvetica,sans-Serif" font-size="10.00">cstdio</text>
</g>
<!-- Node5&#45;&gt;Node7 -->
<g id="edge6" class="edge"><title>Node5&#45;&gt;Node7</title>
<path fill="none" stroke="midnightblue" d="M288.114,-56.083C292.867,-48.5341 299.818,-37.4948 305.652,-28.2298"/>
<polygon fill="midnightblue" stroke="midnightblue" points="308.624,-30.0783 310.99,-19.7511 302.7,-26.3486 308.624,-30.0783"/>
</g>
<!-- Node5&#45;&gt;Node8 -->
<g id="edge7" class="edge"><title>Node5&#45;&gt;Node8</title>
<path fill="none" stroke="midnightblue" d="M319.895,-56.4435C363.303,-46.5111 434.589,-30.2 478.912,-20.0584"/>
<polygon fill="midnightblue" stroke="midnightblue" points="479.785,-23.449 488.752,-17.8067 478.224,-16.6254 479.785,-23.449"/>
</g>
<!-- Node9 -->
<g id="node9" class="node"><title>Node9</title>
<polygon fill="white" stroke="#bfbfbf" points="357.5,-0.5 357.5,-19.5 413.5,-19.5 413.5,-0.5 357.5,-0.5"/>
<text text-anchor="middle" x="385.5" y="-7.5" font-family="Helvetica,sans-Serif" font-size="10.00">sstream</text>
</g>
<!-- Node5&#45;&gt;Node9 -->
<g id="edge8" class="edge"><title>Node5&#45;&gt;Node9</title>
<path fill="none" stroke="midnightblue" d="M299.049,-56.324C315.492,-47.7034 340.935,-34.3643 359.968,-24.3855"/>
<polygon fill="midnightblue" stroke="midnightblue" points="361.761,-27.3977 368.992,-19.6545 358.511,-21.198 361.761,-27.3977"/>
</g>
<!-- Node10 -->
<g id="node10" class="node"><title>Node10</title>
<polygon fill="white" stroke="#bfbfbf" points="157.5,-0.5 157.5,-19.5 205.5,-19.5 205.5,-0.5 157.5,-0.5"/>
<text text-anchor="middle" x="181.5" y="-7.5" font-family="Helvetica,sans-Serif" font-size="10.00">thread</text>
</g>
<!-- Node5&#45;&gt;Node10 -->
<g id="edge9" class="edge"><title>Node5&#45;&gt;Node10</title>
<path fill="none" stroke="midnightblue" d="M266.273,-56.324C250.149,-47.7034 225.2,-34.3643 206.536,-24.3855"/>
<polygon fill="midnightblue" stroke="midnightblue" points="208.156,-21.283 197.687,-19.6545 204.856,-27.456 208.156,-21.283"/>
</g>
<!-- Node13&#45;&gt;Node3 -->
<g id="edge13" class="edge"><title>Node13&#45;&gt;Node3</title>
<path fill="none" stroke="midnightblue" d="M254.441,-235.475C234.329,-226.927 202.738,-213.501 177.026,-202.573"/>
<polygon fill="midnightblue" stroke="midnightblue" points="178.068,-199.213 167.495,-198.523 175.33,-205.656 178.068,-199.213"/>
</g>
<!-- Node13&#45;&gt;Node4 -->
<g id="edge14" class="edge"><title>Node13&#45;&gt;Node4</title>
<path fill="none" stroke="midnightblue" d="M272.38,-235.363C268.734,-221.048 260.676,-191.639 250.5,-168 246.436,-158.56 240.979,-148.52 236.199,-140.325"/>
<polygon fill="midnightblue" stroke="midnightblue" points="239.17,-138.473 231.025,-131.697 233.167,-142.073 239.17,-138.473"/>
</g>
<!-- Node13&#45;&gt;Node12 -->
<g id="edge20" class="edge"><title>Node13&#45;&gt;Node12</title>
<path fill="none" stroke="midnightblue" d="M269.54,-235.05C260.71,-219.75 240.973,-188.26 217.5,-168 202.045,-154.66 181.981,-143.649 165.451,-135.858"/>
<polygon fill="midnightblue" stroke="midnightblue" points="166.741,-132.599 156.189,-131.649 163.845,-138.972 166.741,-132.599"/>
</g>
<!-- Node14 -->
<g id="node14" class="node"><title>Node14</title>
<g id="a_node14"><a xlink:href="Types_8hpp.html" target="_top" xlink:title="Core/Types.hpp">
<polygon fill="white" stroke="black" points="303,-174 303,-193 392,-193 392,-174 303,-174"/>
<text text-anchor="middle" x="347.5" y="-181" font-family="Helvetica,sans-Serif" font-size="10.00">Core/Types.hpp</text>
</a>
</g>
</g>
<!-- Node13&#45;&gt;Node14 -->
<g id="edge15" class="edge"><title>Node13&#45;&gt;Node14</title>
<path fill="none" stroke="midnightblue" d="M284.959,-235.475C296.451,-226.108 315.13,-210.884 329.087,-199.508"/>
<polygon fill="midnightblue" stroke="midnightblue" points="331.52,-202.04 337.06,-193.009 327.098,-196.614 331.52,-202.04"/>
</g>
<!-- Node14&#45;&gt;Node4 -->
<g id="edge16" class="edge"><title>Node14&#45;&gt;Node4</title>
<path fill="none" stroke="midnightblue" d="M330.02,-173.975C309.637,-164.034 275.725,-147.495 252.075,-135.961"/>
<polygon fill="midnightblue" stroke="midnightblue" points="253.469,-132.747 242.947,-131.509 250.401,-139.038 253.469,-132.747"/>
</g>
<!-- Node14&#45;&gt;Node15 -->
<g id="edge17" class="edge"><title>Node14&#45;&gt;Node15</title>
<path fill="none" stroke="midnightblue" d="M374.579,-173.975C407.42,-163.636 462.93,-146.161 499.648,-134.602"/>
<polygon fill="midnightblue" stroke="midnightblue" points="500.984,-137.85 509.471,-131.509 498.882,-131.174 500.984,-137.85"/>
</g>
<!-- Node16 -->
<g id="node16" class="node"><title>Node16</title>
<polygon fill="white" stroke="#bfbfbf" points="390.5,-112.5 390.5,-131.5 484.5,-131.5 484.5,-112.5 390.5,-112.5"/>
<text text-anchor="middle" x="437.5" y="-119.5" font-family="Helvetica,sans-Serif" font-size="10.00">Eigen/Geometry</text>
</g>
<!-- Node14&#45;&gt;Node16 -->
<g id="edge18" class="edge"><title>Node14&#45;&gt;Node16</title>
<path fill="none" stroke="midnightblue" d="M360.395,-173.975C374.964,-164.343 398.902,-148.517 416.245,-137.052"/>
<polygon fill="midnightblue" stroke="midnightblue" points="418.217,-139.944 424.629,-131.509 414.357,-134.104 418.217,-139.944"/>
</g>
<!-- Node17 -->
<g id="node17" class="node"><title>Node17</title>
<polygon fill="white" stroke="#bfbfbf" points="292.5,-112.5 292.5,-131.5 372.5,-131.5 372.5,-112.5 292.5,-112.5"/>
<text text-anchor="middle" x="332.5" y="-119.5" font-family="Helvetica,sans-Serif" font-size="10.00">Eigen/Sparse</text>
</g>
<!-- Node14&#45;&gt;Node17 -->
<g id="edge19" class="edge"><title>Node14&#45;&gt;Node17</title>
<path fill="none" stroke="midnightblue" d="M345.351,-173.975C343.212,-165.492 339.862,-152.204 337.119,-141.322"/>
<polygon fill="midnightblue" stroke="midnightblue" points="340.484,-140.35 334.645,-131.509 333.696,-142.061 340.484,-140.35"/>
</g>
</g>
</svg>
