<?xml version="1.0" encoding="UTF-8" standalone="no"?>
<!DOCTYPE svg PUBLIC "-//W3C//DTD SVG 1.1//EN"
 "http://www.w3.org/Graphics/SVG/1.1/DTD/svg11.dtd">
<!-- Generated by graphviz version 2.38.0 (20140413.2041)
 -->
<!-- Title: /home/travis/build/STORM&#45;IRIT/Radium&#45;Engine/src/Core/Containers/AdjacencyList.hpp Pages: 1 -->
<svg width="1525pt" height="473pt"
 viewBox="0.00 0.00 1524.50 473.00" xmlns="http://www.w3.org/2000/svg" xmlns:xlink="http://www.w3.org/1999/xlink">
<g id="graph0" class="graph" transform="scale(1 1) rotate(0) translate(4 469)">
<title>/home/travis/build/STORM&#45;IRIT/Radium&#45;Engine/src/Core/Containers/AdjacencyList.hpp</title>
<polygon fill="white" stroke="none" points="-4,4 -4,-469 1520.5,-469 1520.5,4 -4,4"/>
<!-- Node1 -->
<g id="node1" class="node"><title>Node1</title>
<polygon fill="#bfbfbf" stroke="black" points="840,-423.5 840,-464.5 1043,-464.5 1043,-423.5 840,-423.5"/>
<text text-anchor="start" x="848" y="-452.5" font-family="Helvetica,sans-Serif" font-size="10.00">/home/travis/build</text>
<text text-anchor="start" x="848" y="-441.5" font-family="Helvetica,sans-Serif" font-size="10.00">/STORM&#45;IRIT/Radium&#45;Engine</text>
<text text-anchor="middle" x="941.5" y="-430.5" font-family="Helvetica,sans-Serif" font-size="10.00">/src/Core/Containers/AdjacencyList.hpp</text>
</g>
<!-- Node2 -->
<g id="node2" class="node"><title>Node2</title>
<g id="a_node2"><a xlink:href="BulgeCorrection_8hpp.html" target="_top" xlink:title="/home/travis/build\l/STORM&#45;IRIT/Radium&#45;Engine\l/src/Core/Animation/BulgeCorrection.hpp">
<polygon fill="white" stroke="black" points="207.5,-345.5 207.5,-386.5 419.5,-386.5 419.5,-345.5 207.5,-345.5"/>
<text text-anchor="start" x="215.5" y="-374.5" font-family="Helvetica,sans-Serif" font-size="10.00">/home/travis/build</text>
<text text-anchor="start" x="215.5" y="-363.5" font-family="Helvetica,sans-Serif" font-size="10.00">/STORM&#45;IRIT/Radium&#45;Engine</text>
<text text-anchor="middle" x="313.5" y="-352.5" font-family="Helvetica,sans-Serif" font-size="10.00">/src/Core/Animation/BulgeCorrection.hpp</text>
</a>
</g>
</g>
<!-- Node1&#45;&gt;Node2 -->
<g id="edge1" class="edge"><title>Node1&#45;&gt;Node2</title>
<path fill="none" stroke="midnightblue" d="M829.926,-429.497C713.913,-415.458 533.644,-393.642 419.674,-379.849"/>
<polygon fill="midnightblue" stroke="midnightblue" points="829.555,-432.978 839.903,-430.705 830.396,-426.029 829.555,-432.978"/>
</g>
<!-- Node4 -->
<g id="node4" class="node"><title>Node4</title>
<g id="a_node4"><a xlink:href="Skeleton_8hpp.html" target="_top" xlink:title="/home/travis/build\l/STORM&#45;IRIT/Radium&#45;Engine\l/src/Core/Animation/Skeleton.hpp">
<polygon fill="white" stroke="black" points="645,-345.5 645,-386.5 822,-386.5 822,-345.5 645,-345.5"/>
<text text-anchor="start" x="653" y="-374.5" font-family="Helvetica,sans-Serif" font-size="10.00">/home/travis/build</text>
<text text-anchor="start" x="653" y="-363.5" font-family="Helvetica,sans-Serif" font-size="10.00">/STORM&#45;IRIT/Radium&#45;Engine</text>
<text text-anchor="middle" x="733.5" y="-352.5" font-family="Helvetica,sans-Serif" font-size="10.00">/src/Core/Animation/Skeleton.hpp</text>
</a>
</g>
</g>
<!-- Node1&#45;&gt;Node4 -->
<g id="edge3" class="edge"><title>Node1&#45;&gt;Node4</title>
<path fill="none" stroke="midnightblue" d="M878.244,-419.887C849.045,-409.219 814.757,-396.69 786.884,-386.506"/>
<polygon fill="midnightblue" stroke="midnightblue" points="877.341,-423.284 887.935,-423.428 879.743,-416.709 877.341,-423.284"/>
</g>
<!-- Node22 -->
<g id="node22" class="node"><title>Node22</title>
<g id="a_node22"><a xlink:href="AdjacencyList_8cpp.html" target="_top" xlink:title="/home/travis/build\l/STORM&#45;IRIT/Radium&#45;Engine\l/src/Core/Containers/AdjacencyList.cpp">
<polygon fill="white" stroke="black" points="840,-345.5 840,-386.5 1043,-386.5 1043,-345.5 840,-345.5"/>
<text text-anchor="start" x="848" y="-374.5" font-family="Helvetica,sans-Serif" font-size="10.00">/home/travis/build</text>
<text text-anchor="start" x="848" y="-363.5" font-family="Helvetica,sans-Serif" font-size="10.00">/STORM&#45;IRIT/Radium&#45;Engine</text>
<text text-anchor="middle" x="941.5" y="-352.5" font-family="Helvetica,sans-Serif" font-size="10.00">/src/Core/Containers/AdjacencyList.cpp</text>
</a>
</g>
</g>
<!-- Node1&#45;&gt;Node22 -->
<g id="edge27" class="edge"><title>Node1&#45;&gt;Node22</title>
<path fill="none" stroke="midnightblue" d="M941.5,-413.297C941.5,-404.301 941.5,-394.653 941.5,-386.506"/>
<polygon fill="midnightblue" stroke="midnightblue" points="938,-413.428 941.5,-423.428 945,-413.428 938,-413.428"/>
</g>
<!-- Node23 -->
<g id="node23" class="node"><title>Node23</title>
<g id="a_node23"><a xlink:href="AdjacencyList_8inl.html" target="_top" xlink:title="/home/travis/build\l/STORM&#45;IRIT/Radium&#45;Engine\l/src/Core/Containers/AdjacencyList.inl">
<polygon fill="white" stroke="black" points="1060.5,-345.5 1060.5,-386.5 1256.5,-386.5 1256.5,-345.5 1060.5,-345.5"/>
<text text-anchor="start" x="1068.5" y="-374.5" font-family="Helvetica,sans-Serif" font-size="10.00">/home/travis/build</text>
<text text-anchor="start" x="1068.5" y="-363.5" font-family="Helvetica,sans-Serif" font-size="10.00">/STORM&#45;IRIT/Radium&#45;Engine</text>
<text text-anchor="middle" x="1158.5" y="-352.5" font-family="Helvetica,sans-Serif" font-size="10.00">/src/Core/Containers/AdjacencyList.inl</text>
</a>
</g>
</g>
<!-- Node1&#45;&gt;Node23 -->
<g id="edge28" class="edge"><title>Node1&#45;&gt;Node23</title>
<path fill="none" stroke="midnightblue" d="M1000.84,-420.026C1030.65,-409.328 1066.7,-396.734 1096.82,-386.506"/>
<polygon fill="midnightblue" stroke="midnightblue" points="999.617,-416.746 991.395,-423.428 1001.99,-423.332 999.617,-416.746"/>
</g>
<!-- Node3 -->
<g id="node3" class="node"><title>Node3</title>
<g id="a_node3"><a xlink:href="BulgeCorrection_8cpp.html" target="_top" xlink:title="/home/travis/build\l/STORM&#45;IRIT/Radium&#45;Engine\l/src/Core/Animation/BulgeCorrection.cpp">
<polygon fill="white" stroke="black" points="0,-262 0,-303 211,-303 211,-262 0,-262"/>
<text text-anchor="start" x="8" y="-291" font-family="Helvetica,sans-Serif" font-size="10.00">/home/travis/build</text>
<text text-anchor="start" x="8" y="-280" font-family="Helvetica,sans-Serif" font-size="10.00">/STORM&#45;IRIT/Radium&#45;Engine</text>
<text text-anchor="middle" x="105.5" y="-269" font-family="Helvetica,sans-Serif" font-size="10.00">/src/Core/Animation/BulgeCorrection.cpp</text>
</a>
</g>
</g>
<!-- Node2&#45;&gt;Node3 -->
<g id="edge2" class="edge"><title>Node2&#45;&gt;Node3</title>
<path fill="none" stroke="midnightblue" d="M254.204,-341.766C222.932,-329.513 185.001,-314.651 155.275,-303.003"/>
<polygon fill="midnightblue" stroke="midnightblue" points="253.091,-345.089 263.679,-345.479 255.645,-338.572 253.091,-345.089"/>
</g>
<!-- Node5 -->
<g id="node5" class="node"><title>Node5</title>
<g id="a_node5"><a xlink:href="Skeleton_8cpp.html" target="_top" xlink:title="/home/travis/build\l/STORM&#45;IRIT/Radium&#45;Engine\l/src/Core/Animation/Skeleton.cpp">
<polygon fill="white" stroke="black" points="851.5,-262 851.5,-303 1027.5,-303 1027.5,-262 851.5,-262"/>
<text text-anchor="start" x="859.5" y="-291" font-family="Helvetica,sans-Serif" font-size="10.00">/home/travis/build</text>
<text text-anchor="start" x="859.5" y="-280" font-family="Helvetica,sans-Serif" font-size="10.00">/STORM&#45;IRIT/Radium&#45;Engine</text>
<text text-anchor="middle" x="939.5" y="-269" font-family="Helvetica,sans-Serif" font-size="10.00">/src/Core/Animation/Skeleton.cpp</text>
</a>
</g>
</g>
<!-- Node4&#45;&gt;Node5 -->
<g id="edge4" class="edge"><title>Node4&#45;&gt;Node5</title>
<path fill="none" stroke="midnightblue" d="M792.226,-341.766C823.197,-329.513 860.764,-314.651 890.204,-303.003"/>
<polygon fill="midnightblue" stroke="midnightblue" points="790.853,-338.545 782.842,-345.479 793.428,-345.054 790.853,-338.545"/>
</g>
<!-- Node6 -->
<g id="node6" class="node"><title>Node6</title>
<g id="a_node6"><a xlink:href="SkinningData_8hpp.html" target="_top" xlink:title="/home/travis/build\l/STORM&#45;IRIT/Radium&#45;Engine\l/src/Core/Animation/SkinningData.hpp">
<polygon fill="white" stroke="black" points="634,-262 634,-303 833,-303 833,-262 634,-262"/>
<text text-anchor="start" x="642" y="-291" font-family="Helvetica,sans-Serif" font-size="10.00">/home/travis/build</text>
<text text-anchor="start" x="642" y="-280" font-family="Helvetica,sans-Serif" font-size="10.00">/STORM&#45;IRIT/Radium&#45;Engine</text>
<text text-anchor="middle" x="733.5" y="-269" font-family="Helvetica,sans-Serif" font-size="10.00">/src/Core/Animation/SkinningData.hpp</text>
</a>
</g>
</g>
<!-- Node4&#45;&gt;Node6 -->
<g id="edge5" class="edge"><title>Node4&#45;&gt;Node6</title>
<path fill="none" stroke="midnightblue" d="M733.5,-335.065C733.5,-324.382 733.5,-312.63 733.5,-303.047"/>
<polygon fill="midnightblue" stroke="midnightblue" points="730,-335.271 733.5,-345.271 737,-335.271 730,-335.271"/>
</g>
<!-- Node14 -->
<g id="node14" class="node"><title>Node14</title>
<g id="a_node14"><a xlink:href="StretchableTwistableBoneSkinning_8hpp.html" target="_top" xlink:title="/home/travis/build\l/STORM&#45;IRIT/Radium&#45;Engine\l/src/Core/Animation/Stretchable\lTwistableBoneSkinning.hpp">
<polygon fill="white" stroke="black" points="445.5,-256.5 445.5,-308.5 615.5,-308.5 615.5,-256.5 445.5,-256.5"/>
<text text-anchor="start" x="453.5" y="-296.5" font-family="Helvetica,sans-Serif" font-size="10.00">/home/travis/build</text>
<text text-anchor="start" x="453.5" y="-285.5" font-family="Helvetica,sans-Serif" font-size="10.00">/STORM&#45;IRIT/Radium&#45;Engine</text>
<text text-anchor="start" x="453.5" y="-274.5" font-family="Helvetica,sans-Serif" font-size="10.00">/src/Core/Animation/Stretchable</text>
<text text-anchor="middle" x="530.5" y="-263.5" font-family="Helvetica,sans-Serif" font-size="10.00">TwistableBoneSkinning.hpp</text>
</a>
</g>
</g>
<!-- Node4&#45;&gt;Node14 -->
<g id="edge15" class="edge"><title>Node4&#45;&gt;Node14</title>
<path fill="none" stroke="midnightblue" d="M675.589,-341.75C649.765,-331.382 619.295,-319.149 592.96,-308.576"/>
<polygon fill="midnightblue" stroke="midnightblue" points="674.292,-345.001 684.876,-345.479 676.9,-338.505 674.292,-345.001"/>
</g>
<!-- Node16 -->
<g id="node16" class="node"><title>Node16</title>
<g id="a_node16"><a xlink:href="HandleToSkeleton_8cpp.html" target="_top" xlink:title="/home/travis/build\l/STORM&#45;IRIT/Radium&#45;Engine\l/src/Core/Asset/HandleToSkeleton.cpp">
<polygon fill="white" stroke="black" points="229.5,-262 229.5,-303 427.5,-303 427.5,-262 229.5,-262"/>
<text text-anchor="start" x="237.5" y="-291" font-family="Helvetica,sans-Serif" font-size="10.00">/home/travis/build</text>
<text text-anchor="start" x="237.5" y="-280" font-family="Helvetica,sans-Serif" font-size="10.00">/STORM&#45;IRIT/Radium&#45;Engine</text>
<text text-anchor="middle" x="328.5" y="-269" font-family="Helvetica,sans-Serif" font-size="10.00">/src/Core/Asset/HandleToSkeleton.cpp</text>
</a>
</g>
</g>
<!-- Node4&#45;&gt;Node16 -->
<g id="edge18" class="edge"><title>Node4&#45;&gt;Node16</title>
<path fill="none" stroke="midnightblue" d="M635.036,-347.595C577.103,-337.066 502.489,-323.004 436.5,-309 427.737,-307.14 418.594,-305.115 409.498,-303.045"/>
<polygon fill="midnightblue" stroke="midnightblue" points="634.455,-351.047 644.918,-349.387 635.703,-344.159 634.455,-351.047"/>
</g>
<!-- Node17 -->
<g id="node17" class="node"><title>Node17</title>
<g id="a_node17"><a xlink:href="AnimationComponent_8hpp.html" target="_top" xlink:title="/home/travis/build\l/STORM&#45;IRIT/Radium&#45;Engine\l/Plugins/Animation/src/Animation\lComponent.hpp">
<polygon fill="white" stroke="black" points="1045.5,-256.5 1045.5,-308.5 1219.5,-308.5 1219.5,-256.5 1045.5,-256.5"/>
<text text-anchor="start" x="1053.5" y="-296.5" font-family="Helvetica,sans-Serif" font-size="10.00">/home/travis/build</text>
<text text-anchor="start" x="1053.5" y="-285.5" font-family="Helvetica,sans-Serif" font-size="10.00">/STORM&#45;IRIT/Radium&#45;Engine</text>
<text text-anchor="start" x="1053.5" y="-274.5" font-family="Helvetica,sans-Serif" font-size="10.00">/Plugins/Animation/src/Animation</text>
<text text-anchor="middle" x="1132.5" y="-263.5" font-family="Helvetica,sans-Serif" font-size="10.00">Component.hpp</text>
</a>
</g>
</g>
<!-- Node4&#45;&gt;Node17 -->
<g id="edge19" class="edge"><title>Node4&#45;&gt;Node17</title>
<path fill="none" stroke="midnightblue" d="M832.167,-344.91C924.086,-327.803 949.247,-328.212 1036.5,-309 1039.45,-308.351 1042.44,-307.672 1045.46,-306.969"/>
<polygon fill="midnightblue" stroke="midnightblue" points="831.333,-341.506 822.152,-346.794 832.627,-348.385 831.333,-341.506"/>
</g>
<!-- Node20 -->
<g id="node20" class="node"><title>Node20</title>
<g id="a_node20"><a xlink:href="SkeletonBoneDrawable_8hpp.html" target="_top" xlink:title="/home/travis/build\l/STORM&#45;IRIT/Radium&#45;Engine\l/Plugins/Animation/src/Drawing\l/SkeletonBoneDrawable.hpp">
<polygon fill="white" stroke="black" points="1165.5,-167.5 1165.5,-219.5 1329.5,-219.5 1329.5,-167.5 1165.5,-167.5"/>
<text text-anchor="start" x="1173.5" y="-207.5" font-family="Helvetica,sans-Serif" font-size="10.00">/home/travis/build</text>
<text text-anchor="start" x="1173.5" y="-196.5" font-family="Helvetica,sans-Serif" font-size="10.00">/STORM&#45;IRIT/Radium&#45;Engine</text>
<text text-anchor="start" x="1173.5" y="-185.5" font-family="Helvetica,sans-Serif" font-size="10.00">/Plugins/Animation/src/Drawing</text>
<text text-anchor="middle" x="1247.5" y="-174.5" font-family="Helvetica,sans-Serif" font-size="10.00">/SkeletonBoneDrawable.hpp</text>
</a>
</g>
</g>
<!-- Node4&#45;&gt;Node20 -->
<g id="edge26" class="edge"><title>Node4&#45;&gt;Node20</title>
<path fill="none" stroke="midnightblue" d="M832.238,-345.198C935.178,-334.483 1165.74,-367.277 1228.5,-309 1252.72,-286.513 1253.7,-245.847 1251.28,-219.522"/>
<polygon fill="midnightblue" stroke="midnightblue" points="831.587,-341.752 822.096,-346.461 832.452,-348.698 831.587,-341.752"/>
</g>
<!-- Node7 -->
<g id="node7" class="node"><title>Node7</title>
<g id="a_node7"><a xlink:href="RotationCenterSkinning_8hpp.html" target="_top" xlink:title="/home/travis/build\l/STORM&#45;IRIT/Radium&#45;Engine\l/src/Core/Animation/RotationCenter\lSkinning.hpp">
<polygon fill="white" stroke="black" points="443,-167.5 443,-219.5 628,-219.5 628,-167.5 443,-167.5"/>
<text text-anchor="start" x="451" y="-207.5" font-family="Helvetica,sans-Serif" font-size="10.00">/home/travis/build</text>
<text text-anchor="start" x="451" y="-196.5" font-family="Helvetica,sans-Serif" font-size="10.00">/STORM&#45;IRIT/Radium&#45;Engine</text>
<text text-anchor="start" x="451" y="-185.5" font-family="Helvetica,sans-Serif" font-size="10.00">/src/Core/Animation/RotationCenter</text>
<text text-anchor="middle" x="535.5" y="-174.5" font-family="Helvetica,sans-Serif" font-size="10.00">Skinning.hpp</text>
</a>
</g>
</g>
<!-- Node6&#45;&gt;Node7 -->
<g id="edge6" class="edge"><title>Node6&#45;&gt;Node7</title>
<path fill="none" stroke="midnightblue" d="M679.771,-257.892C652.77,-246.028 620.043,-231.648 592.589,-219.585"/>
<polygon fill="midnightblue" stroke="midnightblue" points="678.502,-261.157 689.065,-261.976 681.318,-254.748 678.502,-261.157"/>
</g>
<!-- Node10 -->
<g id="node10" class="node"><title>Node10</title>
<g id="a_node10"><a xlink:href="SkinningDisplayComponent_8hpp.html" target="_top" xlink:title="/home/travis/build\l/STORM&#45;IRIT/Radium&#45;Engine\l/Plugins/Skinning/src/Display\l/SkinningDisplayComponent.hpp">
<polygon fill="white" stroke="black" points="899.5,-167.5 899.5,-219.5 1071.5,-219.5 1071.5,-167.5 899.5,-167.5"/>
<text text-anchor="start" x="907.5" y="-207.5" font-family="Helvetica,sans-Serif" font-size="10.00">/home/travis/build</text>
<text text-anchor="start" x="907.5" y="-196.5" font-family="Helvetica,sans-Serif" font-size="10.00">/STORM&#45;IRIT/Radium&#45;Engine</text>
<text text-anchor="start" x="907.5" y="-185.5" font-family="Helvetica,sans-Serif" font-size="10.00">/Plugins/Skinning/src/Display</text>
<text text-anchor="middle" x="985.5" y="-174.5" font-family="Helvetica,sans-Serif" font-size="10.00">/SkinningDisplayComponent.hpp</text>
</a>
</g>
</g>
<!-- Node6&#45;&gt;Node10 -->
<g id="edge9" class="edge"><title>Node6&#45;&gt;Node10</title>
<path fill="none" stroke="midnightblue" d="M799.642,-258.665C834.425,-246.657 877.137,-231.911 912.841,-219.585"/>
<polygon fill="midnightblue" stroke="midnightblue" points="798.364,-255.404 790.054,-261.976 800.648,-262.02 798.364,-255.404"/>
</g>
<!-- Node13 -->
<g id="node13" class="node"><title>Node13</title>
<g id="a_node13"><a xlink:href="SkinningComponent_8hpp.html" target="_top" xlink:title="/home/travis/build\l/STORM&#45;IRIT/Radium&#45;Engine\l/Plugins/Skinning/src/SkinningComponent.hpp">
<polygon fill="white" stroke="black" points="646,-173 646,-214 881,-214 881,-173 646,-173"/>
<text text-anchor="start" x="654" y="-202" font-family="Helvetica,sans-Serif" font-size="10.00">/home/travis/build</text>
<text text-anchor="start" x="654" y="-191" font-family="Helvetica,sans-Serif" font-size="10.00">/STORM&#45;IRIT/Radium&#45;Engine</text>
<text text-anchor="middle" x="763.5" y="-180" font-family="Helvetica,sans-Serif" font-size="10.00">/Plugins/Skinning/src/SkinningComponent.hpp</text>
</a>
</g>
</g>
<!-- Node6&#45;&gt;Node13 -->
<g id="edge12" class="edge"><title>Node6&#45;&gt;Node13</title>
<path fill="none" stroke="midnightblue" d="M743.608,-252.187C747.926,-239.666 752.85,-225.384 756.719,-214.164"/>
<polygon fill="midnightblue" stroke="midnightblue" points="740.259,-251.164 740.307,-261.758 746.876,-253.446 740.259,-251.164"/>
</g>
<!-- Node8 -->
<g id="node8" class="node"><title>Node8</title>
<g id="a_node8"><a xlink:href="RotationCenterSkinning_8cpp.html" target="_top" xlink:title="/home/travis/build\l/STORM&#45;IRIT/Radium&#45;Engine\l/src/Core/Animation/RotationCenter\lSkinning.cpp">
<polygon fill="white" stroke="black" points="231,-78.5 231,-130.5 416,-130.5 416,-78.5 231,-78.5"/>
<text text-anchor="start" x="239" y="-118.5" font-family="Helvetica,sans-Serif" font-size="10.00">/home/travis/build</text>
<text text-anchor="start" x="239" y="-107.5" font-family="Helvetica,sans-Serif" font-size="10.00">/STORM&#45;IRIT/Radium&#45;Engine</text>
<text text-anchor="start" x="239" y="-96.5" font-family="Helvetica,sans-Serif" font-size="10.00">/src/Core/Animation/RotationCenter</text>
<text text-anchor="middle" x="323.5" y="-85.5" font-family="Helvetica,sans-Serif" font-size="10.00">Skinning.cpp</text>
</a>
</g>
</g>
<!-- Node7&#45;&gt;Node8 -->
<g id="edge7" class="edge"><title>Node7&#45;&gt;Node8</title>
<path fill="none" stroke="midnightblue" d="M465.019,-163.576C438.946,-152.876 409.63,-140.846 384.471,-130.521"/>
<polygon fill="midnightblue" stroke="midnightblue" points="463.885,-166.894 474.465,-167.453 466.543,-160.418 463.885,-166.894"/>
</g>
<!-- Node9 -->
<g id="node9" class="node"><title>Node9</title>
<g id="a_node9"><a xlink:href="SkinningComponent_8cpp.html" target="_top" xlink:title="/home/travis/build\l/STORM&#45;IRIT/Radium&#45;Engine\l/Plugins/Skinning/src/SkinningComponent.cpp">
<polygon fill="white" stroke="black" points="434.5,-84 434.5,-125 668.5,-125 668.5,-84 434.5,-84"/>
<text text-anchor="start" x="442.5" y="-113" font-family="Helvetica,sans-Serif" font-size="10.00">/home/travis/build</text>
<text text-anchor="start" x="442.5" y="-102" font-family="Helvetica,sans-Serif" font-size="10.00">/STORM&#45;IRIT/Radium&#45;Engine</text>
<text text-anchor="middle" x="551.5" y="-91" font-family="Helvetica,sans-Serif" font-size="10.00">/Plugins/Skinning/src/SkinningComponent.cpp</text>
</a>
</g>
</g>
<!-- Node7&#45;&gt;Node9 -->
<g id="edge8" class="edge"><title>Node7&#45;&gt;Node9</title>
<path fill="none" stroke="midnightblue" d="M541.938,-157.494C543.969,-146.45 546.14,-134.647 547.899,-125.082"/>
<polygon fill="midnightblue" stroke="midnightblue" points="538.494,-156.868 540.128,-167.336 545.379,-158.134 538.494,-156.868"/>
</g>
<!-- Node11 -->
<g id="node11" class="node"><title>Node11</title>
<g id="a_node11"><a xlink:href="SkinningSystem_8hpp.html" target="_top" xlink:title="/home/travis/build\l/STORM&#45;IRIT/Radium&#45;Engine\l/Plugins/Skinning/src/SkinningSystem.hpp">
<polygon fill="white" stroke="black" points="719,-84 719,-125 934,-125 934,-84 719,-84"/>
<text text-anchor="start" x="727" y="-113" font-family="Helvetica,sans-Serif" font-size="10.00">/home/travis/build</text>
<text text-anchor="start" x="727" y="-102" font-family="Helvetica,sans-Serif" font-size="10.00">/STORM&#45;IRIT/Radium&#45;Engine</text>
<text text-anchor="middle" x="826.5" y="-91" font-family="Helvetica,sans-Serif" font-size="10.00">/Plugins/Skinning/src/SkinningSystem.hpp</text>
</a>
</g>
</g>
<!-- Node10&#45;&gt;Node11 -->
<g id="edge10" class="edge"><title>Node10&#45;&gt;Node11</title>
<path fill="none" stroke="midnightblue" d="M930.673,-162.501C908.039,-150.116 882.444,-136.111 862.288,-125.082"/>
<polygon fill="midnightblue" stroke="midnightblue" points="929.058,-165.606 939.511,-167.336 932.418,-159.465 929.058,-165.606"/>
</g>
<!-- Node12 -->
<g id="node12" class="node"><title>Node12</title>
<g id="a_node12"><a xlink:href="SkinningPlugin_8cpp.html" target="_top" xlink:title="/home/travis/build\l/STORM&#45;IRIT/Radium&#45;Engine\l/Plugins/Skinning/src/SkinningPlugin.cpp">
<polygon fill="white" stroke="black" points="723.5,-0.5 723.5,-41.5 929.5,-41.5 929.5,-0.5 723.5,-0.5"/>
<text text-anchor="start" x="731.5" y="-29.5" font-family="Helvetica,sans-Serif" font-size="10.00">/home/travis/build</text>
<text text-anchor="start" x="731.5" y="-18.5" font-family="Helvetica,sans-Serif" font-size="10.00">/STORM&#45;IRIT/Radium&#45;Engine</text>
<text text-anchor="middle" x="826.5" y="-7.5" font-family="Helvetica,sans-Serif" font-size="10.00">/Plugins/Skinning/src/SkinningPlugin.cpp</text>
</a>
</g>
</g>
<!-- Node11&#45;&gt;Node12 -->
<g id="edge11" class="edge"><title>Node11&#45;&gt;Node12</title>
<path fill="none" stroke="midnightblue" d="M826.5,-73.5646C826.5,-62.8819 826.5,-51.1303 826.5,-41.5472"/>
<polygon fill="midnightblue" stroke="midnightblue" points="823,-73.7711 826.5,-83.7711 830,-73.7712 823,-73.7711"/>
</g>
<!-- Node13&#45;&gt;Node9 -->
<g id="edge13" class="edge"><title>Node13&#45;&gt;Node9</title>
<path fill="none" stroke="midnightblue" d="M706.267,-169.013C672.782,-155.272 630.995,-138.123 599.284,-125.11"/>
<polygon fill="midnightblue" stroke="midnightblue" points="705.343,-172.417 715.923,-172.976 708.001,-165.941 705.343,-172.417"/>
</g>
<!-- Node13&#45;&gt;Node11 -->
<g id="edge14" class="edge"><title>Node13&#45;&gt;Node11</title>
<path fill="none" stroke="midnightblue" d="M783.923,-164.297C793.177,-151.517 803.894,-136.717 812.261,-125.164"/>
<polygon fill="midnightblue" stroke="midnightblue" points="780.826,-162.606 777.796,-172.758 786.496,-166.712 780.826,-162.606"/>
</g>
<!-- Node14&#45;&gt;Node9 -->
<g id="edge17" class="edge"><title>Node14&#45;&gt;Node9</title>
<path fill="none" stroke="midnightblue" d="M461.948,-250.651C450.53,-242.372 440.228,-232.231 433.5,-220 422.148,-199.361 421.285,-187.141 433.5,-167 445.12,-147.84 464.876,-134.37 484.933,-125.029"/>
<polygon fill="midnightblue" stroke="midnightblue" points="460.174,-253.676 470.425,-256.354 464.081,-247.868 460.174,-253.676"/>
</g>
<!-- Node15 -->
<g id="node15" class="node"><title>Node15</title>
<g id="a_node15"><a xlink:href="StretchableTwistableBoneSkinning_8cpp.html" target="_top" xlink:title="/home/travis/build\l/STORM&#45;IRIT/Radium&#45;Engine\l/src/Core/Animation/Stretchable\lTwistableBoneSkinning.cpp">
<polygon fill="white" stroke="black" points="217.5,-167.5 217.5,-219.5 387.5,-219.5 387.5,-167.5 217.5,-167.5"/>
<text text-anchor="start" x="225.5" y="-207.5" font-family="Helvetica,sans-Serif" font-size="10.00">/home/travis/build</text>
<text text-anchor="start" x="225.5" y="-196.5" font-family="Helvetica,sans-Serif" font-size="10.00">/STORM&#45;IRIT/Radium&#45;Engine</text>
<text text-anchor="start" x="225.5" y="-185.5" font-family="Helvetica,sans-Serif" font-size="10.00">/src/Core/Animation/Stretchable</text>
<text text-anchor="middle" x="302.5" y="-174.5" font-family="Helvetica,sans-Serif" font-size="10.00">TwistableBoneSkinning.cpp</text>
</a>
</g>
</g>
<!-- Node14&#45;&gt;Node15 -->
<g id="edge16" class="edge"><title>Node14&#45;&gt;Node15</title>
<path fill="none" stroke="midnightblue" d="M455.437,-252.858C427.212,-242.087 395.368,-229.936 368.073,-219.521"/>
<polygon fill="midnightblue" stroke="midnightblue" points="454.268,-256.158 464.859,-256.453 456.764,-249.618 454.268,-256.158"/>
</g>
<!-- Node18 -->
<g id="node18" class="node"><title>Node18</title>
<g id="a_node18"><a xlink:href="AnimationComponent_8cpp.html" target="_top" xlink:title="/home/travis/build\l/STORM&#45;IRIT/Radium&#45;Engine\l/Plugins/Animation/src/Animation\lComponent.cpp">
<polygon fill="white" stroke="black" points="1160.5,-78.5 1160.5,-130.5 1334.5,-130.5 1334.5,-78.5 1160.5,-78.5"/>
<text text-anchor="start" x="1168.5" y="-118.5" font-family="Helvetica,sans-Serif" font-size="10.00">/home/travis/build</text>
<text text-anchor="start" x="1168.5" y="-107.5" font-family="Helvetica,sans-Serif" font-size="10.00">/STORM&#45;IRIT/Radium&#45;Engine</text>
<text text-anchor="start" x="1168.5" y="-96.5" font-family="Helvetica,sans-Serif" font-size="10.00">/Plugins/Animation/src/Animation</text>
<text text-anchor="middle" x="1247.5" y="-85.5" font-family="Helvetica,sans-Serif" font-size="10.00">Component.cpp</text>
</a>
</g>
</g>
<!-- Node17&#45;&gt;Node18 -->
<g id="edge20" class="edge"><title>Node17&#45;&gt;Node18</title>
<path fill="none" stroke="midnightblue" d="M1133.11,-246.038C1135.08,-221.95 1140.81,-190.351 1156.5,-167 1166.39,-152.28 1181.1,-140.138 1195.83,-130.645"/>
<polygon fill="midnightblue" stroke="midnightblue" points="1129.61,-245.986 1132.47,-256.187 1136.6,-246.428 1129.61,-245.986"/>
</g>
<!-- Node19 -->
<g id="node19" class="node"><title>Node19</title>
<g id="a_node19"><a xlink:href="AnimationSystem_8cpp.html" target="_top" xlink:title="/home/travis/build\l/STORM&#45;IRIT/Radium&#45;Engine\l/Plugins/Animation/src/Animation\lSystem.cpp">
<polygon fill="white" stroke="black" points="968.5,-78.5 968.5,-130.5 1142.5,-130.5 1142.5,-78.5 968.5,-78.5"/>
<text text-anchor="start" x="976.5" y="-118.5" font-family="Helvetica,sans-Serif" font-size="10.00">/home/travis/build</text>
<text text-anchor="start" x="976.5" y="-107.5" font-family="Helvetica,sans-Serif" font-size="10.00">/STORM&#45;IRIT/Radium&#45;Engine</text>
<text text-anchor="start" x="976.5" y="-96.5" font-family="Helvetica,sans-Serif" font-size="10.00">/Plugins/Animation/src/Animation</text>
<text text-anchor="middle" x="1055.5" y="-85.5" font-family="Helvetica,sans-Serif" font-size="10.00">System.cpp</text>
</a>
</g>
</g>
<!-- Node17&#45;&gt;Node19 -->
<g id="edge21" class="edge"><title>Node17&#45;&gt;Node19</title>
<path fill="none" stroke="midnightblue" d="M1117.27,-246.69C1102.3,-212.478 1079.82,-161.1 1066.51,-130.67"/>
<polygon fill="midnightblue" stroke="midnightblue" points="1114.25,-248.525 1121.47,-256.283 1120.67,-245.719 1114.25,-248.525"/>
</g>
<!-- Node17&#45;&gt;Node20 -->
<g id="edge22" class="edge"><title>Node17&#45;&gt;Node20</title>
<path fill="none" stroke="midnightblue" d="M1173.85,-250.219C1187.14,-240.164 1201.68,-229.16 1214.31,-219.607"/>
<polygon fill="midnightblue" stroke="midnightblue" points="1171.63,-247.511 1165.76,-256.336 1175.85,-253.094 1171.63,-247.511"/>
</g>
<!-- Node20&#45;&gt;Node18 -->
<g id="edge23" class="edge"><title>Node20&#45;&gt;Node18</title>
<path fill="none" stroke="midnightblue" d="M1247.5,-157.191C1247.5,-148.282 1247.5,-138.899 1247.5,-130.607"/>
<polygon fill="midnightblue" stroke="midnightblue" points="1244,-157.336 1247.5,-167.336 1251,-157.336 1244,-157.336"/>
</g>
<!-- Node20&#45;&gt;Node19 -->
<g id="edge24" class="edge"><title>Node20&#45;&gt;Node19</title>
<path fill="none" stroke="midnightblue" d="M1183.05,-163.295C1159.59,-152.665 1133.3,-140.755 1110.72,-130.521"/>
<polygon fill="midnightblue" stroke="midnightblue" points="1181.67,-166.513 1192.22,-167.453 1184.56,-160.137 1181.67,-166.513"/>
</g>
<!-- Node21 -->
<g id="node21" class="node"><title>Node21</title>
<g id="a_node21"><a xlink:href="SkeletonBoneDrawable_8cpp.html" target="_top" xlink:title="/home/travis/build\l/STORM&#45;IRIT/Radium&#45;Engine\l/Plugins/Animation/src/Drawing\l/SkeletonBoneDrawable.cpp">
<polygon fill="white" stroke="black" points="1352.5,-78.5 1352.5,-130.5 1516.5,-130.5 1516.5,-78.5 1352.5,-78.5"/>
<text text-anchor="start" x="1360.5" y="-118.5" font-family="Helvetica,sans-Serif" font-size="10.00">/home/travis/build</text>
<text text-anchor="start" x="1360.5" y="-107.5" font-family="Helvetica,sans-Serif" font-size="10.00">/STORM&#45;IRIT/Radium&#45;Engine</text>
<text text-anchor="start" x="1360.5" y="-96.5" font-family="Helvetica,sans-Serif" font-size="10.00">/Plugins/Animation/src/Drawing</text>
<text text-anchor="middle" x="1434.5" y="-85.5" font-family="Helvetica,sans-Serif" font-size="10.00">/SkeletonBoneDrawable.cpp</text>
</a>
</g>
</g>
<!-- Node20&#45;&gt;Node21 -->
<g id="edge25" class="edge"><title>Node20&#45;&gt;Node21</title>
<path fill="none" stroke="midnightblue" d="M1310.58,-163.153C1333.35,-152.56 1358.82,-140.71 1380.72,-130.521"/>
<polygon fill="midnightblue" stroke="midnightblue" points="1308.93,-160.061 1301.34,-167.453 1311.88,-166.408 1308.93,-160.061"/>
</g>
<!-- Node23&#45;&gt;Node1 -->
<g id="edge29" class="edge"><title>Node23&#45;&gt;Node1</title>
<path fill="none" stroke="midnightblue" d="M1099.35,-389.904C1069.57,-400.595 1033.52,-413.189 1003.37,-423.428"/>
<polygon fill="midnightblue" stroke="midnightblue" points="1100.57,-393.188 1108.79,-386.506 1098.19,-386.602 1100.57,-393.188"/>
</g>
</g>
</svg>
