<?xml version="1.0" encoding="UTF-8" standalone="no"?>
<!DOCTYPE svg PUBLIC "-//W3C//DTD SVG 1.1//EN"
 "http://www.w3.org/Graphics/SVG/1.1/DTD/svg11.dtd">
<!-- Generated by graphviz version 2.38.0 (20140413.2041)
 -->
<!-- Title: /home/travis/build/STORM&#45;IRIT/Radium&#45;Engine/src/Core/Containers/AdjacencyList.hpp Pages: 1 -->
<svg width="781pt" height="352pt"
 viewBox="0.00 0.00 780.50 352.00" xmlns="http://www.w3.org/2000/svg" xmlns:xlink="http://www.w3.org/1999/xlink">
<g id="graph0" class="graph" transform="scale(1 1) rotate(0) translate(4 348)">
<title>/home/travis/build/STORM&#45;IRIT/Radium&#45;Engine/src/Core/Containers/AdjacencyList.hpp</title>
<polygon fill="white" stroke="none" points="-4,4 -4,-348 776.5,-348 776.5,4 -4,4"/>
<!-- Node1 -->
<g id="node1" class="node"><title>Node1</title>
<polygon fill="#bfbfbf" stroke="black" points="478,-302.5 478,-343.5 681,-343.5 681,-302.5 478,-302.5"/>
<text text-anchor="start" x="486" y="-331.5" font-family="Helvetica,sans-Serif" font-size="10.00">/home/travis/build</text>
<text text-anchor="start" x="486" y="-320.5" font-family="Helvetica,sans-Serif" font-size="10.00">/STORM&#45;IRIT/Radium&#45;Engine</text>
<text text-anchor="middle" x="579.5" y="-309.5" font-family="Helvetica,sans-Serif" font-size="10.00">/src/Core/Containers/AdjacencyList.hpp</text>
</g>
<!-- Node2 -->
<g id="node2" class="node"><title>Node2</title>
<g id="a_node2"><a xlink:href="AlignedStdVector_8hpp.html" target="_top" xlink:title="Core/Containers/AlignedStd\lVector.hpp">
<polygon fill="white" stroke="black" points="60,-168.5 60,-198.5 209,-198.5 209,-168.5 60,-168.5"/>
<text text-anchor="start" x="68" y="-186.5" font-family="Helvetica,sans-Serif" font-size="10.00">Core/Containers/AlignedStd</text>
<text text-anchor="middle" x="134.5" y="-175.5" font-family="Helvetica,sans-Serif" font-size="10.00">Vector.hpp</text>
</a>
</g>
</g>
<!-- Node1&#45;&gt;Node2 -->
<g id="edge1" class="edge"><title>Node1&#45;&gt;Node2</title>
<path fill="none" stroke="midnightblue" d="M477.814,-318.141C375.252,-312.454 225.547,-298.69 178.5,-266 158.891,-252.375 147.226,-227.133 140.887,-208.336"/>
<polygon fill="midnightblue" stroke="midnightblue" points="144.196,-207.19 137.896,-198.672 137.509,-209.259 144.196,-207.19"/>
</g>
<!-- Node7 -->
<g id="node7" class="node"><title>Node7</title>
<polygon fill="white" stroke="#bfbfbf" points="489,-0.5 489,-19.5 548,-19.5 548,-0.5 489,-0.5"/>
<text text-anchor="middle" x="518.5" y="-7.5" font-family="Helvetica,sans-Serif" font-size="10.00">iostream</text>
</g>
<!-- Node1&#45;&gt;Node7 -->
<g id="edge21" class="edge"><title>Node1&#45;&gt;Node7</title>
<path fill="none" stroke="midnightblue" d="M584.003,-302.08C589.621,-275.441 598.5,-226.672 598.5,-184.5 598.5,-184.5 598.5,-184.5 598.5,-121 598.5,-80.6206 562.805,-45.1055 539.102,-25.9729"/>
<polygon fill="midnightblue" stroke="midnightblue" points="541.046,-23.0515 531,-19.6866 536.755,-28.582 541.046,-23.0515"/>
</g>
<!-- Node12 -->
<g id="node12" class="node"><title>Node12</title>
<g id="a_node12"><a xlink:href="VectorArray_8hpp.html" target="_top" xlink:title="Core/Containers/VectorArray.hpp">
<polygon fill="white" stroke="black" points="188,-241 188,-260 361,-260 361,-241 188,-241"/>
<text text-anchor="middle" x="274.5" y="-248" font-family="Helvetica,sans-Serif" font-size="10.00">Core/Containers/VectorArray.hpp</text>
</a>
</g>
</g>
<!-- Node1&#45;&gt;Node12 -->
<g id="edge11" class="edge"><title>Node1&#45;&gt;Node12</title>
<path fill="none" stroke="midnightblue" d="M494.946,-302.455C438.892,-289.499 367.444,-272.984 321.338,-262.326"/>
<polygon fill="midnightblue" stroke="midnightblue" points="321.861,-258.855 311.329,-260.013 320.284,-265.675 321.861,-258.855"/>
</g>
<!-- Node14 -->
<g id="node14" class="node"><title>Node14</title>
<polygon fill="white" stroke="#bfbfbf" points="502.5,-112.5 502.5,-131.5 570.5,-131.5 570.5,-112.5 502.5,-112.5"/>
<text text-anchor="middle" x="536.5" y="-119.5" font-family="Helvetica,sans-Serif" font-size="10.00">Eigen/Core</text>
</g>
<!-- Node1&#45;&gt;Node14 -->
<g id="edge20" class="edge"><title>Node1&#45;&gt;Node14</title>
<path fill="none" stroke="midnightblue" d="M575.22,-302.192C566.903,-263.703 548.666,-179.304 540.543,-141.709"/>
<polygon fill="midnightblue" stroke="midnightblue" points="543.902,-140.682 538.368,-131.647 537.059,-142.16 543.902,-140.682"/>
</g>
<!-- Node17 -->
<g id="node17" class="node"><title>Node17</title>
<g id="a_node17"><a xlink:href="AdjacencyList_8inl.html" target="_top" xlink:title="Core/Containers/Adjacency\lList.inl">
<polygon fill="white" stroke="black" points="626.5,-235.5 626.5,-265.5 772.5,-265.5 772.5,-235.5 626.5,-235.5"/>
<text text-anchor="start" x="634.5" y="-253.5" font-family="Helvetica,sans-Serif" font-size="10.00">Core/Containers/Adjacency</text>
<text text-anchor="middle" x="699.5" y="-242.5" font-family="Helvetica,sans-Serif" font-size="10.00">List.inl</text>
</a>
</g>
</g>
<!-- Node1&#45;&gt;Node17 -->
<g id="edge22" class="edge"><title>Node1&#45;&gt;Node17</title>
<path fill="none" stroke="midnightblue" d="M606.803,-302.362C622.842,-292.439 643.268,-280.448 660.911,-270.601"/>
<polygon fill="midnightblue" stroke="midnightblue" points="662.781,-273.567 669.845,-265.67 659.399,-267.438 662.781,-273.567"/>
</g>
<!-- Node3 -->
<g id="node3" class="node"><title>Node3</title>
<g id="a_node3"><a xlink:href="RaCore_8hpp.html" target="_top" xlink:title="Core/RaCore.hpp">
<polygon fill="white" stroke="black" points="176.5,-112.5 176.5,-131.5 274.5,-131.5 274.5,-112.5 176.5,-112.5"/>
<text text-anchor="middle" x="225.5" y="-119.5" font-family="Helvetica,sans-Serif" font-size="10.00">Core/RaCore.hpp</text>
</a>
</g>
</g>
<!-- Node2&#45;&gt;Node3 -->
<g id="edge2" class="edge"><title>Node2&#45;&gt;Node3</title>
<path fill="none" stroke="midnightblue" d="M156.066,-168.399C170.38,-159.04 189.112,-146.792 203.511,-137.377"/>
<polygon fill="midnightblue" stroke="midnightblue" points="205.804,-140.06 212.259,-131.658 201.974,-134.201 205.804,-140.06"/>
</g>
<!-- Node10 -->
<g id="node10" class="node"><title>Node10</title>
<polygon fill="white" stroke="#bfbfbf" points="0,-112.5 0,-131.5 93,-131.5 93,-112.5 0,-112.5"/>
<text text-anchor="middle" x="46.5" y="-119.5" font-family="Helvetica,sans-Serif" font-size="10.00">Eigen/StdVector</text>
</g>
<!-- Node2&#45;&gt;Node10 -->
<g id="edge9" class="edge"><title>Node2&#45;&gt;Node10</title>
<path fill="none" stroke="midnightblue" d="M113.645,-168.399C99.8031,-159.04 81.6888,-146.792 67.7636,-137.377"/>
<polygon fill="midnightblue" stroke="midnightblue" points="69.5493,-134.36 59.3048,-131.658 65.6285,-140.158 69.5493,-134.36"/>
</g>
<!-- Node11 -->
<g id="node11" class="node"><title>Node11</title>
<polygon fill="white" stroke="#bfbfbf" points="111,-112.5 111,-131.5 158,-131.5 158,-112.5 111,-112.5"/>
<text text-anchor="middle" x="134.5" y="-119.5" font-family="Helvetica,sans-Serif" font-size="10.00">vector</text>
</g>
<!-- Node2&#45;&gt;Node11 -->
<g id="edge10" class="edge"><title>Node2&#45;&gt;Node11</title>
<path fill="none" stroke="midnightblue" d="M134.5,-168.399C134.5,-160.466 134.5,-150.458 134.5,-141.858"/>
<polygon fill="midnightblue" stroke="midnightblue" points="138,-141.658 134.5,-131.658 131,-141.658 138,-141.658"/>
</g>
<!-- Node4 -->
<g id="node4" class="node"><title>Node4</title>
<g id="a_node4"><a xlink:href="CoreMacros_8hpp.html" target="_top" xlink:title="Core/CoreMacros.hpp">
<polygon fill="white" stroke="black" points="222.5,-56.5 222.5,-75.5 342.5,-75.5 342.5,-56.5 222.5,-56.5"/>
<text text-anchor="middle" x="282.5" y="-63.5" font-family="Helvetica,sans-Serif" font-size="10.00">Core/CoreMacros.hpp</text>
</a>
</g>
</g>
<!-- Node3&#45;&gt;Node4 -->
<g id="edge3" class="edge"><title>Node3&#45;&gt;Node4</title>
<path fill="none" stroke="midnightblue" d="M234.658,-112.324C243.001,-104.42 255.532,-92.5482 265.677,-82.9377"/>
<polygon fill="midnightblue" stroke="midnightblue" points="268.323,-85.2522 273.175,-75.8339 263.509,-80.1705 268.323,-85.2522"/>
</g>
<!-- Node5 -->
<g id="node5" class="node"><title>Node5</title>
<polygon fill="white" stroke="#bfbfbf" points="223.5,-0.5 223.5,-19.5 275.5,-19.5 275.5,-0.5 223.5,-0.5"/>
<text text-anchor="middle" x="249.5" y="-7.5" font-family="Helvetica,sans-Serif" font-size="10.00">cassert</text>
</g>
<!-- Node4&#45;&gt;Node5 -->
<g id="edge4" class="edge"><title>Node4&#45;&gt;Node5</title>
<path fill="none" stroke="midnightblue" d="M277.051,-56.083C272.486,-48.6127 265.832,-37.7244 260.207,-28.5199"/>
<polygon fill="midnightblue" stroke="midnightblue" points="263.049,-26.4588 254.848,-19.7511 257.076,-30.109 263.049,-26.4588"/>
</g>
<!-- Node6 -->
<g id="node6" class="node"><title>Node6</title>
<polygon fill="white" stroke="#bfbfbf" points="294,-0.5 294,-19.5 339,-19.5 339,-0.5 294,-0.5"/>
<text text-anchor="middle" x="316.5" y="-7.5" font-family="Helvetica,sans-Serif" font-size="10.00">cstdio</text>
</g>
<!-- Node4&#45;&gt;Node6 -->
<g id="edge5" class="edge"><title>Node4&#45;&gt;Node6</title>
<path fill="none" stroke="midnightblue" d="M288.114,-56.083C292.867,-48.5341 299.818,-37.4948 305.652,-28.2298"/>
<polygon fill="midnightblue" stroke="midnightblue" points="308.624,-30.0783 310.99,-19.7511 302.7,-26.3486 308.624,-30.0783"/>
</g>
<!-- Node4&#45;&gt;Node7 -->
<g id="edge6" class="edge"><title>Node4&#45;&gt;Node7</title>
<path fill="none" stroke="midnightblue" d="M319.895,-56.4435C363.303,-46.5111 434.589,-30.2 478.912,-20.0584"/>
<polygon fill="midnightblue" stroke="midnightblue" points="479.785,-23.449 488.752,-17.8067 478.224,-16.6254 479.785,-23.449"/>
</g>
<!-- Node8 -->
<g id="node8" class="node"><title>Node8</title>
<polygon fill="white" stroke="#bfbfbf" points="357.5,-0.5 357.5,-19.5 413.5,-19.5 413.5,-0.5 357.5,-0.5"/>
<text text-anchor="middle" x="385.5" y="-7.5" font-family="Helvetica,sans-Serif" font-size="10.00">sstream</text>
</g>
<!-- Node4&#45;&gt;Node8 -->
<g id="edge7" class="edge"><title>Node4&#45;&gt;Node8</title>
<path fill="none" stroke="midnightblue" d="M299.049,-56.324C315.492,-47.7034 340.935,-34.3643 359.968,-24.3855"/>
<polygon fill="midnightblue" stroke="midnightblue" points="361.761,-27.3977 368.992,-19.6545 358.511,-21.198 361.761,-27.3977"/>
</g>
<!-- Node9 -->
<g id="node9" class="node"><title>Node9</title>
<polygon fill="white" stroke="#bfbfbf" points="157.5,-0.5 157.5,-19.5 205.5,-19.5 205.5,-0.5 157.5,-0.5"/>
<text text-anchor="middle" x="181.5" y="-7.5" font-family="Helvetica,sans-Serif" font-size="10.00">thread</text>
</g>
<!-- Node4&#45;&gt;Node9 -->
<g id="edge8" class="edge"><title>Node4&#45;&gt;Node9</title>
<path fill="none" stroke="midnightblue" d="M266.273,-56.324C250.149,-47.7034 225.2,-34.3643 206.536,-24.3855"/>
<polygon fill="midnightblue" stroke="midnightblue" points="208.156,-21.283 197.687,-19.6545 204.856,-27.456 208.156,-21.283"/>
</g>
<!-- Node12&#45;&gt;Node2 -->
<g id="edge12" class="edge"><title>Node12&#45;&gt;Node2</title>
<path fill="none" stroke="midnightblue" d="M255.909,-240.869C235.083,-231.199 200.728,-215.249 173.868,-202.778"/>
<polygon fill="midnightblue" stroke="midnightblue" points="175.258,-199.565 164.714,-198.528 172.31,-205.914 175.258,-199.565"/>
</g>
<!-- Node12&#45;&gt;Node3 -->
<g id="edge13" class="edge"><title>Node12&#45;&gt;Node3</title>
<path fill="none" stroke="midnightblue" d="M272.588,-240.717C269.136,-225.541 261.215,-193.576 250.5,-168 246.529,-158.521 241.08,-148.477 236.283,-140.289"/>
<polygon fill="midnightblue" stroke="midnightblue" points="239.246,-138.424 231.079,-131.674 233.254,-142.043 239.246,-138.424"/>
</g>
<!-- Node12&#45;&gt;Node11 -->
<g id="edge19" class="edge"><title>Node12&#45;&gt;Node11</title>
<path fill="none" stroke="midnightblue" d="M270.231,-240.905C261.929,-224.881 242.234,-190.074 217.5,-168 202.37,-154.497 182.479,-143.535 165.962,-135.812"/>
<polygon fill="midnightblue" stroke="midnightblue" points="167.245,-132.552 156.689,-131.645 164.375,-138.936 167.245,-132.552"/>
</g>
<!-- Node13 -->
<g id="node13" class="node"><title>Node13</title>
<g id="a_node13"><a xlink:href="Types_8hpp.html" target="_top" xlink:title="Core/Types.hpp">
<polygon fill="white" stroke="black" points="303,-174 303,-193 392,-193 392,-174 303,-174"/>
<text text-anchor="middle" x="347.5" y="-181" font-family="Helvetica,sans-Serif" font-size="10.00">Core/Types.hpp</text>
</a>
</g>
</g>
<!-- Node12&#45;&gt;Node13 -->
<g id="edge14" class="edge"><title>Node12&#45;&gt;Node13</title>
<path fill="none" stroke="midnightblue" d="M284.345,-240.734C296.057,-230.305 315.819,-212.709 330.122,-199.973"/>
<polygon fill="midnightblue" stroke="midnightblue" points="332.67,-202.391 337.811,-193.127 328.015,-197.163 332.67,-202.391"/>
</g>
<!-- Node13&#45;&gt;Node3 -->
<g id="edge15" class="edge"><title>Node13&#45;&gt;Node3</title>
<path fill="none" stroke="midnightblue" d="M330.02,-173.975C309.637,-164.034 275.725,-147.495 252.075,-135.961"/>
<polygon fill="midnightblue" stroke="midnightblue" points="253.469,-132.747 242.947,-131.509 250.401,-139.038 253.469,-132.747"/>
</g>
<!-- Node13&#45;&gt;Node14 -->
<g id="edge16" class="edge"><title>Node13&#45;&gt;Node14</title>
<path fill="none" stroke="midnightblue" d="M374.579,-173.975C407.42,-163.636 462.93,-146.161 499.648,-134.602"/>
<polygon fill="midnightblue" stroke="midnightblue" points="500.984,-137.85 509.471,-131.509 498.882,-131.174 500.984,-137.85"/>
</g>
<!-- Node15 -->
<g id="node15" class="node"><title>Node15</title>
<polygon fill="white" stroke="#bfbfbf" points="390.5,-112.5 390.5,-131.5 484.5,-131.5 484.5,-112.5 390.5,-112.5"/>
<text text-anchor="middle" x="437.5" y="-119.5" font-family="Helvetica,sans-Serif" font-size="10.00">Eigen/Geometry</text>
</g>
<!-- Node13&#45;&gt;Node15 -->
<g id="edge17" class="edge"><title>Node13&#45;&gt;Node15</title>
<path fill="none" stroke="midnightblue" d="M360.395,-173.975C374.964,-164.343 398.902,-148.517 416.245,-137.052"/>
<polygon fill="midnightblue" stroke="midnightblue" points="418.217,-139.944 424.629,-131.509 414.357,-134.104 418.217,-139.944"/>
</g>
<!-- Node16 -->
<g id="node16" class="node"><title>Node16</title>
<polygon fill="white" stroke="#bfbfbf" points="292.5,-112.5 292.5,-131.5 372.5,-131.5 372.5,-112.5 292.5,-112.5"/>
<text text-anchor="middle" x="332.5" y="-119.5" font-family="Helvetica,sans-Serif" font-size="10.00">Eigen/Sparse</text>
</g>
<!-- Node13&#45;&gt;Node16 -->
<g id="edge18" class="edge"><title>Node13&#45;&gt;Node16</title>
<path fill="none" stroke="midnightblue" d="M345.351,-173.975C343.212,-165.492 339.862,-152.204 337.119,-141.322"/>
<polygon fill="midnightblue" stroke="midnightblue" points="340.484,-140.35 334.645,-131.509 333.696,-142.061 340.484,-140.35"/>
</g>
<!-- Node17&#45;&gt;Node1 -->
<g id="edge23" class="edge"><title>Node17&#45;&gt;Node1</title>
<path fill="none" stroke="midnightblue" d="M680.917,-265.67C666.638,-274.764 646.432,-286.817 627.77,-297.44"/>
<polygon fill="midnightblue" stroke="midnightblue" points="626.038,-294.399 619.05,-302.362 629.479,-300.495 626.038,-294.399"/>
</g>
</g>
</svg>
