<?xml version="1.0" encoding="UTF-8" standalone="no"?>
<!DOCTYPE svg PUBLIC "-//W3C//DTD SVG 1.1//EN"
 "http://www.w3.org/Graphics/SVG/1.1/DTD/svg11.dtd">
<!-- Generated by graphviz version 2.38.0 (20140413.2041)
 -->
<!-- Title: /home/travis/build/STORM&#45;IRIT/Radium&#45;Engine/Plugins/Animation/src/AnimationSystem.hpp Pages: 1 -->
<svg width="970pt" height="397pt"
 viewBox="0.00 0.00 969.50 397.00" xmlns="http://www.w3.org/2000/svg" xmlns:xlink="http://www.w3.org/1999/xlink">
<g id="graph0" class="graph" transform="scale(1 1) rotate(0) translate(4 393)">
<title>/home/travis/build/STORM&#45;IRIT/Radium&#45;Engine/Plugins/Animation/src/AnimationSystem.hpp</title>
<polygon fill="white" stroke="none" points="-4,4 -4,-393 965.5,-393 965.5,4 -4,4"/>
<!-- Node1 -->
<g id="node1" class="node"><title>Node1</title>
<polygon fill="#bfbfbf" stroke="black" points="558,-336.5 558,-388.5 732,-388.5 732,-336.5 558,-336.5"/>
<text text-anchor="start" x="566" y="-376.5" font-family="Helvetica,sans-Serif" font-size="10.00">/home/travis/build</text>
<text text-anchor="start" x="566" y="-365.5" font-family="Helvetica,sans-Serif" font-size="10.00">/STORM&#45;IRIT/Radium&#45;Engine</text>
<text text-anchor="start" x="566" y="-354.5" font-family="Helvetica,sans-Serif" font-size="10.00">/Plugins/Animation/src/Animation</text>
<text text-anchor="middle" x="645" y="-343.5" font-family="Helvetica,sans-Serif" font-size="10.00">System.hpp</text>
</g>
<!-- Node2 -->
<g id="node2" class="node"><title>Node2</title>
<g id="a_node2"><a xlink:href="TimedSystem_8hpp.html" target="_top" xlink:title="Engine/System/TimedSystem.hpp">
<polygon fill="white" stroke="black" points="555.5,-280.5 555.5,-299.5 734.5,-299.5 734.5,-280.5 555.5,-280.5"/>
<text text-anchor="middle" x="645" y="-287.5" font-family="Helvetica,sans-Serif" font-size="10.00">Engine/System/TimedSystem.hpp</text>
</a>
</g>
</g>
<!-- Node1&#45;&gt;Node2 -->
<g id="edge1" class="edge"><title>Node1&#45;&gt;Node2</title>
<path fill="none" stroke="midnightblue" d="M645,-336.446C645,-327.73 645,-318.104 645,-309.964"/>
<polygon fill="midnightblue" stroke="midnightblue" points="648.5,-309.695 645,-299.695 641.5,-309.696 648.5,-309.695"/>
</g>
<!-- Node15 -->
<g id="node15" class="node"><title>Node15</title>
<g id="a_node15"><a xlink:href="AnimationPluginMacros_8hpp.html" target="_top" xlink:title="AnimationPluginMacros.hpp">
<polygon fill="white" stroke="black" points="812.5,-280.5 812.5,-299.5 961.5,-299.5 961.5,-280.5 812.5,-280.5"/>
<text text-anchor="middle" x="887" y="-287.5" font-family="Helvetica,sans-Serif" font-size="10.00">AnimationPluginMacros.hpp</text>
</a>
</g>
</g>
<!-- Node1&#45;&gt;Node15 -->
<g id="edge18" class="edge"><title>Node1&#45;&gt;Node15</title>
<path fill="none" stroke="midnightblue" d="M731.002,-336.446C770.965,-324.804 816.502,-311.538 848.016,-302.357"/>
<polygon fill="midnightblue" stroke="midnightblue" points="849.108,-305.684 857.73,-299.527 847.15,-298.964 849.108,-305.684"/>
</g>
<!-- Node16 -->
<g id="node16" class="node"><title>Node16</title>
<g id="a_node16"><a xlink:href="ItemEntry_8hpp.html" target="_top" xlink:title="Engine/ItemModel/ItemEntry.hpp">
<polygon fill="white" stroke="black" points="203.5,-224.5 203.5,-243.5 374.5,-243.5 374.5,-224.5 203.5,-224.5"/>
<text text-anchor="middle" x="289" y="-231.5" font-family="Helvetica,sans-Serif" font-size="10.00">Engine/ItemModel/ItemEntry.hpp</text>
</a>
</g>
</g>
<!-- Node1&#45;&gt;Node16 -->
<g id="edge20" class="edge"><title>Node1&#45;&gt;Node16</title>
<path fill="none" stroke="midnightblue" d="M574.24,-336.356C498.107,-309.304 380.245,-267.423 322.796,-247.009"/>
<polygon fill="midnightblue" stroke="midnightblue" points="323.718,-243.622 313.123,-243.572 321.374,-250.218 323.718,-243.622"/>
</g>
<!-- Node3 -->
<g id="node3" class="node"><title>Node3</title>
<g id="a_node3"><a xlink:href="RaEngine_8hpp.html" target="_top" xlink:title="Engine/RaEngine.hpp">
<polygon fill="white" stroke="black" points="661.5,-112.5 661.5,-131.5 778.5,-131.5 778.5,-112.5 661.5,-112.5"/>
<text text-anchor="middle" x="720" y="-119.5" font-family="Helvetica,sans-Serif" font-size="10.00">Engine/RaEngine.hpp</text>
</a>
</g>
</g>
<!-- Node2&#45;&gt;Node3 -->
<g id="edge2" class="edge"><title>Node2&#45;&gt;Node3</title>
<path fill="none" stroke="midnightblue" d="M680.921,-280.416C723.701,-268.054 793.231,-240.69 824,-188 839.44,-161.559 804.717,-144.313 771.315,-134.275"/>
<polygon fill="midnightblue" stroke="midnightblue" points="772.086,-130.857 761.512,-131.512 770.187,-137.594 772.086,-130.857"/>
</g>
<!-- Node10 -->
<g id="node10" class="node"><title>Node10</title>
<g id="a_node10"><a xlink:href="CouplingSystem_8hpp.html" target="_top" xlink:title="Engine/System/CouplingSystem.hpp">
<polygon fill="white" stroke="black" points="519.5,-224.5 519.5,-243.5 710.5,-243.5 710.5,-224.5 519.5,-224.5"/>
<text text-anchor="middle" x="615" y="-231.5" font-family="Helvetica,sans-Serif" font-size="10.00">Engine/System/CouplingSystem.hpp</text>
</a>
</g>
</g>
<!-- Node2&#45;&gt;Node10 -->
<g id="edge9" class="edge"><title>Node2&#45;&gt;Node10</title>
<path fill="none" stroke="midnightblue" d="M640.046,-280.083C635.896,-272.613 629.847,-261.724 624.733,-252.52"/>
<polygon fill="midnightblue" stroke="midnightblue" points="627.778,-250.793 619.862,-243.751 621.659,-254.192 627.778,-250.793"/>
</g>
<!-- Node4 -->
<g id="node4" class="node"><title>Node4</title>
<g id="a_node4"><a xlink:href="CoreMacros_8hpp.html" target="_top" xlink:title="Core/CoreMacros.hpp">
<polygon fill="white" stroke="black" points="660,-56.5 660,-75.5 780,-75.5 780,-56.5 660,-56.5"/>
<text text-anchor="middle" x="720" y="-63.5" font-family="Helvetica,sans-Serif" font-size="10.00">Core/CoreMacros.hpp</text>
</a>
</g>
</g>
<!-- Node3&#45;&gt;Node4 -->
<g id="edge3" class="edge"><title>Node3&#45;&gt;Node4</title>
<path fill="none" stroke="midnightblue" d="M720,-112.083C720,-105.006 720,-94.8611 720,-85.9865"/>
<polygon fill="midnightblue" stroke="midnightblue" points="723.5,-85.751 720,-75.7511 716.5,-85.7511 723.5,-85.751"/>
</g>
<!-- Node5 -->
<g id="node5" class="node"><title>Node5</title>
<polygon fill="white" stroke="#bfbfbf" points="557,-0.5 557,-19.5 609,-19.5 609,-0.5 557,-0.5"/>
<text text-anchor="middle" x="583" y="-7.5" font-family="Helvetica,sans-Serif" font-size="10.00">cassert</text>
</g>
<!-- Node4&#45;&gt;Node5 -->
<g id="edge4" class="edge"><title>Node4&#45;&gt;Node5</title>
<path fill="none" stroke="midnightblue" d="M698.292,-56.4435C675.645,-47.5171 639.928,-33.4387 614.248,-23.3168"/>
<polygon fill="midnightblue" stroke="midnightblue" points="615.193,-19.9273 604.606,-19.5164 612.626,-26.4397 615.193,-19.9273"/>
</g>
<!-- Node6 -->
<g id="node6" class="node"><title>Node6</title>
<polygon fill="white" stroke="#bfbfbf" points="627.5,-0.5 627.5,-19.5 672.5,-19.5 672.5,-0.5 627.5,-0.5"/>
<text text-anchor="middle" x="650" y="-7.5" font-family="Helvetica,sans-Serif" font-size="10.00">cstdio</text>
</g>
<!-- Node4&#45;&gt;Node6 -->
<g id="edge5" class="edge"><title>Node4&#45;&gt;Node6</title>
<path fill="none" stroke="midnightblue" d="M708.753,-56.324C698.203,-48.1849 682.199,-35.8395 669.558,-26.0874"/>
<polygon fill="midnightblue" stroke="midnightblue" points="671.507,-23.1707 661.451,-19.8339 667.231,-28.7132 671.507,-23.1707"/>
</g>
<!-- Node7 -->
<g id="node7" class="node"><title>Node7</title>
<polygon fill="white" stroke="#bfbfbf" points="690.5,-0.5 690.5,-19.5 749.5,-19.5 749.5,-0.5 690.5,-0.5"/>
<text text-anchor="middle" x="720" y="-7.5" font-family="Helvetica,sans-Serif" font-size="10.00">iostream</text>
</g>
<!-- Node4&#45;&gt;Node7 -->
<g id="edge6" class="edge"><title>Node4&#45;&gt;Node7</title>
<path fill="none" stroke="midnightblue" d="M720,-56.083C720,-49.0059 720,-38.8611 720,-29.9865"/>
<polygon fill="midnightblue" stroke="midnightblue" points="723.5,-29.751 720,-19.7511 716.5,-29.7511 723.5,-29.751"/>
</g>
<!-- Node8 -->
<g id="node8" class="node"><title>Node8</title>
<polygon fill="white" stroke="#bfbfbf" points="768,-0.5 768,-19.5 824,-19.5 824,-0.5 768,-0.5"/>
<text text-anchor="middle" x="796" y="-7.5" font-family="Helvetica,sans-Serif" font-size="10.00">sstream</text>
</g>
<!-- Node4&#45;&gt;Node8 -->
<g id="edge7" class="edge"><title>Node4&#45;&gt;Node8</title>
<path fill="none" stroke="midnightblue" d="M732.211,-56.324C743.776,-48.1066 761.375,-35.6017 775.161,-25.8069"/>
<polygon fill="midnightblue" stroke="midnightblue" points="777.443,-28.4791 783.567,-19.8339 773.388,-22.7729 777.443,-28.4791"/>
</g>
<!-- Node9 -->
<g id="node9" class="node"><title>Node9</title>
<polygon fill="white" stroke="#bfbfbf" points="842,-0.5 842,-19.5 890,-19.5 890,-0.5 842,-0.5"/>
<text text-anchor="middle" x="866" y="-7.5" font-family="Helvetica,sans-Serif" font-size="10.00">thread</text>
</g>
<!-- Node4&#45;&gt;Node9 -->
<g id="edge8" class="edge"><title>Node4&#45;&gt;Node9</title>
<path fill="none" stroke="midnightblue" d="M743.134,-56.4435C767.482,-47.4381 806.007,-33.1891 833.423,-23.049"/>
<polygon fill="midnightblue" stroke="midnightblue" points="834.809,-26.2681 842.974,-19.5164 832.381,-19.7028 834.809,-26.2681"/>
</g>
<!-- Node10&#45;&gt;Node3 -->
<g id="edge10" class="edge"><title>Node10&#45;&gt;Node3</title>
<path fill="none" stroke="midnightblue" d="M693.511,-224.481C740.036,-217.633 792.644,-206.11 807,-188 824.967,-165.335 790.164,-146.494 759.381,-135.032"/>
<polygon fill="midnightblue" stroke="midnightblue" points="760.194,-131.607 749.599,-131.574 757.861,-138.207 760.194,-131.607"/>
</g>
<!-- Node11 -->
<g id="node11" class="node"><title>Node11</title>
<g id="a_node11"><a xlink:href="System_8hpp.html" target="_top" xlink:title="Engine/System/System.hpp">
<polygon fill="white" stroke="black" points="525.5,-168.5 525.5,-187.5 674.5,-187.5 674.5,-168.5 525.5,-168.5"/>
<text text-anchor="middle" x="600" y="-175.5" font-family="Helvetica,sans-Serif" font-size="10.00">Engine/System/System.hpp</text>
</a>
</g>
</g>
<!-- Node10&#45;&gt;Node11 -->
<g id="edge11" class="edge"><title>Node10&#45;&gt;Node11</title>
<path fill="none" stroke="midnightblue" d="M612.523,-224.083C610.514,-216.849 607.614,-206.409 605.11,-197.397"/>
<polygon fill="midnightblue" stroke="midnightblue" points="608.48,-196.449 602.431,-187.751 601.735,-198.323 608.48,-196.449"/>
</g>
<!-- Node12 -->
<g id="node12" class="node"><title>Node12</title>
<polygon fill="white" stroke="#bfbfbf" points="553.5,-112.5 553.5,-131.5 610.5,-131.5 610.5,-112.5 553.5,-112.5"/>
<text text-anchor="middle" x="582" y="-119.5" font-family="Helvetica,sans-Serif" font-size="10.00">memory</text>
</g>
<!-- Node10&#45;&gt;Node12 -->
<g id="edge15" class="edge"><title>Node10&#45;&gt;Node12</title>
<path fill="none" stroke="midnightblue" d="M570.994,-224.441C550.598,-218.034 528.214,-206.969 516,-188 502.703,-167.349 528.762,-148.204 551.951,-136.118"/>
<polygon fill="midnightblue" stroke="midnightblue" points="553.512,-139.25 560.935,-131.691 550.418,-132.971 553.512,-139.25"/>
</g>
<!-- Node13 -->
<g id="node13" class="node"><title>Node13</title>
<polygon fill="white" stroke="#bfbfbf" points="436.5,-112.5 436.5,-131.5 483.5,-131.5 483.5,-112.5 436.5,-112.5"/>
<text text-anchor="middle" x="460" y="-119.5" font-family="Helvetica,sans-Serif" font-size="10.00">vector</text>
</g>
<!-- Node10&#45;&gt;Node13 -->
<g id="edge17" class="edge"><title>Node10&#45;&gt;Node13</title>
<path fill="none" stroke="midnightblue" d="M583.495,-224.422C561.115,-217.242 531.215,-205.354 509,-188 492.351,-174.994 478.436,-155.011 469.741,-140.636"/>
<polygon fill="midnightblue" stroke="midnightblue" points="472.626,-138.633 464.585,-131.734 466.568,-142.142 472.626,-138.633"/>
</g>
<!-- Node14 -->
<g id="node14" class="node"><title>Node14</title>
<polygon fill="white" stroke="#bfbfbf" points="730,-168.5 730,-187.5 798,-187.5 798,-168.5 730,-168.5"/>
<text text-anchor="middle" x="764" y="-175.5" font-family="Helvetica,sans-Serif" font-size="10.00">type_traits</text>
</g>
<!-- Node10&#45;&gt;Node14 -->
<g id="edge16" class="edge"><title>Node10&#45;&gt;Node14</title>
<path fill="none" stroke="midnightblue" d="M638.609,-224.444C663.458,-215.438 702.774,-201.189 730.754,-191.049"/>
<polygon fill="midnightblue" stroke="midnightblue" points="732.292,-194.214 740.501,-187.516 729.907,-187.633 732.292,-194.214"/>
</g>
<!-- Node11&#45;&gt;Node3 -->
<g id="edge12" class="edge"><title>Node11&#45;&gt;Node3</title>
<path fill="none" stroke="midnightblue" d="M619.014,-168.444C638.588,-159.636 669.308,-145.812 691.729,-135.722"/>
<polygon fill="midnightblue" stroke="midnightblue" points="693.392,-138.812 701.075,-131.516 690.519,-132.428 693.392,-138.812"/>
</g>
<!-- Node11&#45;&gt;Node12 -->
<g id="edge13" class="edge"><title>Node11&#45;&gt;Node12</title>
<path fill="none" stroke="midnightblue" d="M597.028,-168.083C594.616,-160.849 591.136,-150.409 588.132,-141.397"/>
<polygon fill="midnightblue" stroke="midnightblue" points="591.4,-140.131 584.917,-131.751 584.759,-142.345 591.4,-140.131"/>
</g>
<!-- Node11&#45;&gt;Node13 -->
<g id="edge14" class="edge"><title>Node11&#45;&gt;Node13</title>
<path fill="none" stroke="midnightblue" d="M577.817,-168.444C554.572,-159.478 517.851,-145.314 491.585,-135.183"/>
<polygon fill="midnightblue" stroke="midnightblue" points="492.669,-131.85 482.08,-131.516 490.15,-138.381 492.669,-131.85"/>
</g>
<!-- Node15&#45;&gt;Node4 -->
<g id="edge19" class="edge"><title>Node15&#45;&gt;Node4</title>
<path fill="none" stroke="midnightblue" d="M884.746,-280.273C879.165,-259.623 863.366,-206.605 839,-168 820.872,-139.278 812.825,-134.06 787,-112 773.409,-100.391 756.727,-89.1778 743.409,-80.8488"/>
<polygon fill="midnightblue" stroke="midnightblue" points="745.16,-77.817 734.805,-75.5738 741.501,-83.7846 745.16,-77.817"/>
</g>
<!-- Node16&#45;&gt;Node3 -->
<g id="edge21" class="edge"><title>Node16&#45;&gt;Node3</title>
<path fill="none" stroke="midnightblue" d="M374.823,-227.32C482.977,-219.53 657.863,-204.595 683,-188 699.219,-177.292 709.12,-156.887 714.547,-141.783"/>
<polygon fill="midnightblue" stroke="midnightblue" points="717.985,-142.529 717.735,-131.937 711.325,-140.373 717.985,-142.529"/>
</g>
<!-- Node16&#45;&gt;Node13 -->
<g id="edge28" class="edge"><title>Node16&#45;&gt;Node13</title>
<path fill="none" stroke="midnightblue" d="M257.267,-224.431C222.889,-213.619 175.628,-193.339 197,-168 225.998,-133.619 362.334,-125.504 426.479,-123.59"/>
<polygon fill="midnightblue" stroke="midnightblue" points="426.586,-127.089 436.49,-123.325 426.401,-120.091 426.586,-127.089"/>
</g>
<!-- Node17 -->
<g id="node17" class="node"><title>Node17</title>
<g id="a_node17"><a xlink:href="Index_8hpp.html" target="_top" xlink:title="Core/Utils/Index.hpp">
<polygon fill="white" stroke="black" points="36.5,-168.5 36.5,-187.5 149.5,-187.5 149.5,-168.5 36.5,-168.5"/>
<text text-anchor="middle" x="93" y="-175.5" font-family="Helvetica,sans-Serif" font-size="10.00">Core/Utils/Index.hpp</text>
</a>
</g>
</g>
<!-- Node16&#45;&gt;Node17 -->
<g id="edge22" class="edge"><title>Node16&#45;&gt;Node17</title>
<path fill="none" stroke="midnightblue" d="M257.943,-224.444C224.397,-215.201 170.803,-200.436 133.859,-190.257"/>
<polygon fill="midnightblue" stroke="midnightblue" points="134.482,-186.798 123.911,-187.516 132.623,-193.547 134.482,-186.798"/>
</g>
<!-- Node21 -->
<g id="node21" class="node"><title>Node21</title>
<polygon fill="white" stroke="#bfbfbf" points="206,-168.5 206,-187.5 250,-187.5 250,-168.5 206,-168.5"/>
<text text-anchor="middle" x="228" y="-175.5" font-family="Helvetica,sans-Serif" font-size="10.00">string</text>
</g>
<!-- Node16&#45;&gt;Node21 -->
<g id="edge27" class="edge"><title>Node16&#45;&gt;Node21</title>
<path fill="none" stroke="midnightblue" d="M279.199,-224.324C270.182,-216.341 256.594,-204.313 245.682,-194.653"/>
<polygon fill="midnightblue" stroke="midnightblue" points="247.787,-191.842 237.979,-187.834 243.147,-197.083 247.787,-191.842"/>
</g>
<!-- Node22 -->
<g id="node22" class="node"><title>Node22</title>
<g id="a_node22"><a xlink:href="ItemEntry_8inl.html" target="_top" xlink:title="Engine/ItemModel/ItemEntry.inl">
<polygon fill="white" stroke="black" points="268,-168.5 268,-187.5 432,-187.5 432,-168.5 268,-168.5"/>
<text text-anchor="middle" x="350" y="-175.5" font-family="Helvetica,sans-Serif" font-size="10.00">Engine/ItemModel/ItemEntry.inl</text>
</a>
</g>
</g>
<!-- Node16&#45;&gt;Node22 -->
<g id="edge29" class="edge"><title>Node16&#45;&gt;Node22</title>
<path fill="none" stroke="midnightblue" d="M298.801,-224.324C307.818,-216.341 321.406,-204.313 332.318,-194.653"/>
<polygon fill="midnightblue" stroke="midnightblue" points="334.853,-197.083 340.021,-187.834 330.213,-191.842 334.853,-197.083"/>
</g>
<!-- Node18 -->
<g id="node18" class="node"><title>Node18</title>
<g id="a_node18"><a xlink:href="RaCore_8hpp.html" target="_top" xlink:title="Core/RaCore.hpp">
<polygon fill="white" stroke="black" points="0,-112.5 0,-131.5 98,-131.5 98,-112.5 0,-112.5"/>
<text text-anchor="middle" x="49" y="-119.5" font-family="Helvetica,sans-Serif" font-size="10.00">Core/RaCore.hpp</text>
</a>
</g>
</g>
<!-- Node17&#45;&gt;Node18 -->
<g id="edge23" class="edge"><title>Node17&#45;&gt;Node18</title>
<path fill="none" stroke="midnightblue" d="M85.7343,-168.083C79.4552,-160.377 70.2124,-149.033 62.5692,-139.653"/>
<polygon fill="midnightblue" stroke="midnightblue" points="65.1606,-137.293 56.1305,-131.751 59.7339,-141.714 65.1606,-137.293"/>
</g>
<!-- Node19 -->
<g id="node19" class="node"><title>Node19</title>
<polygon fill="white" stroke="#bfbfbf" points="116,-112.5 116,-131.5 158,-131.5 158,-112.5 116,-112.5"/>
<text text-anchor="middle" x="137" y="-119.5" font-family="Helvetica,sans-Serif" font-size="10.00">limits</text>
</g>
<!-- Node17&#45;&gt;Node19 -->
<g id="edge25" class="edge"><title>Node17&#45;&gt;Node19</title>
<path fill="none" stroke="midnightblue" d="M100.266,-168.083C106.545,-160.377 115.788,-149.033 123.431,-139.653"/>
<polygon fill="midnightblue" stroke="midnightblue" points="126.266,-141.714 129.869,-131.751 120.839,-137.293 126.266,-141.714"/>
</g>
<!-- Node20 -->
<g id="node20" class="node"><title>Node20</title>
<g id="a_node20"><a xlink:href="Index_8inl.html" target="_top" xlink:title="Core/Utils/Index.inl">
<polygon fill="white" stroke="black" points="176.5,-112.5 176.5,-131.5 281.5,-131.5 281.5,-112.5 176.5,-112.5"/>
<text text-anchor="middle" x="229" y="-119.5" font-family="Helvetica,sans-Serif" font-size="10.00">Core/Utils/Index.inl</text>
</a>
</g>
</g>
<!-- Node17&#45;&gt;Node20 -->
<g id="edge26" class="edge"><title>Node17&#45;&gt;Node20</title>
<path fill="none" stroke="midnightblue" d="M114.55,-168.444C137.031,-159.517 172.488,-145.439 197.98,-135.317"/>
<polygon fill="midnightblue" stroke="midnightblue" points="199.549,-138.46 207.551,-131.516 196.965,-131.954 199.549,-138.46"/>
</g>
<!-- Node18&#45;&gt;Node4 -->
<g id="edge24" class="edge"><title>Node18&#45;&gt;Node4</title>
<path fill="none" stroke="midnightblue" d="M98.0102,-113.111C101.049,-112.71 104.064,-112.335 107,-112 303.055,-89.6296 535.721,-76.0974 649.811,-70.3073"/>
<polygon fill="midnightblue" stroke="midnightblue" points="650.001,-73.8023 659.812,-69.8042 649.649,-66.8111 650.001,-73.8023"/>
</g>
</g>
</svg>
