<?xml version="1.0" encoding="UTF-8" standalone="no"?>
<!DOCTYPE svg PUBLIC "-//W3C//DTD SVG 1.1//EN"
 "http://www.w3.org/Graphics/SVG/1.1/DTD/svg11.dtd">
<!-- Generated by graphviz version 2.38.0 (20140413.2041)
 -->
<!-- Title: /home/travis/build/STORM&#45;IRIT/Radium&#45;Engine/src/Core/Geometry/Area.cpp Pages: 1 -->
<svg width="1124pt" height="397pt"
 viewBox="0.00 0.00 1124.00 397.00" xmlns="http://www.w3.org/2000/svg" xmlns:xlink="http://www.w3.org/1999/xlink">
<g id="graph0" class="graph" transform="scale(1 1) rotate(0) translate(4 393)">
<title>/home/travis/build/STORM&#45;IRIT/Radium&#45;Engine/src/Core/Geometry/Area.cpp</title>
<polygon fill="white" stroke="none" points="-4,4 -4,-393 1120,-393 1120,4 -4,4"/>
<!-- Node1 -->
<g id="node1" class="node"><title>Node1</title>
<polygon fill="#bfbfbf" stroke="black" points="503.5,-347.5 503.5,-388.5 659.5,-388.5 659.5,-347.5 503.5,-347.5"/>
<text text-anchor="start" x="511.5" y="-376.5" font-family="Helvetica,sans-Serif" font-size="10.00">/home/travis/build</text>
<text text-anchor="start" x="511.5" y="-365.5" font-family="Helvetica,sans-Serif" font-size="10.00">/STORM&#45;IRIT/Radium&#45;Engine</text>
<text text-anchor="middle" x="581.5" y="-354.5" font-family="Helvetica,sans-Serif" font-size="10.00">/src/Core/Geometry/Area.cpp</text>
</g>
<!-- Node2 -->
<g id="node2" class="node"><title>Node2</title>
<g id="a_node2"><a xlink:href="Area_8hpp.html" target="_top" xlink:title="Core/Geometry/Area.hpp">
<polygon fill="white" stroke="black" points="225,-291.5 225,-310.5 362,-310.5 362,-291.5 225,-291.5"/>
<text text-anchor="middle" x="293.5" y="-298.5" font-family="Helvetica,sans-Serif" font-size="10.00">Core/Geometry/Area.hpp</text>
</a>
</g>
</g>
<!-- Node1&#45;&gt;Node2 -->
<g id="edge1" class="edge"><title>Node1&#45;&gt;Node2</title>
<path fill="none" stroke="midnightblue" d="M503.183,-349.324C451.416,-337.641 385.234,-322.704 341.212,-312.768"/>
<polygon fill="midnightblue" stroke="midnightblue" points="341.871,-309.329 331.346,-310.542 340.33,-316.157 341.871,-309.329"/>
</g>
<!-- Node18 -->
<g id="node18" class="node"><title>Node18</title>
<g id="a_node18"><a xlink:href="TriangleOperation_8hpp.html" target="_top" xlink:title="Core/Geometry/TriangleOperation.hpp">
<polygon fill="white" stroke="black" points="412,-291.5 412,-310.5 609,-310.5 609,-291.5 412,-291.5"/>
<text text-anchor="middle" x="510.5" y="-298.5" font-family="Helvetica,sans-Serif" font-size="10.00">Core/Geometry/TriangleOperation.hpp</text>
</a>
</g>
</g>
<!-- Node1&#45;&gt;Node18 -->
<g id="edge21" class="edge"><title>Node1&#45;&gt;Node18</title>
<path fill="none" stroke="midnightblue" d="M560.198,-347.498C549.731,-337.915 537.292,-326.528 527.478,-317.543"/>
<polygon fill="midnightblue" stroke="midnightblue" points="529.69,-314.824 519.951,-310.652 524.964,-319.987 529.69,-314.824"/>
</g>
<!-- Node19 -->
<g id="node19" class="node"><title>Node19</title>
<g id="a_node19"><a xlink:href="LinearAlgebra_8hpp.html" target="_top" xlink:title="Core/Math/LinearAlgebra.hpp">
<polygon fill="white" stroke="black" points="592.5,-235.5 592.5,-254.5 748.5,-254.5 748.5,-235.5 592.5,-235.5"/>
<text text-anchor="middle" x="670.5" y="-242.5" font-family="Helvetica,sans-Serif" font-size="10.00">Core/Math/LinearAlgebra.hpp</text>
</a>
</g>
</g>
<!-- Node1&#45;&gt;Node19 -->
<g id="edge23" class="edge"><title>Node1&#45;&gt;Node19</title>
<path fill="none" stroke="midnightblue" d="M595.997,-347.29C613.314,-323.747 641.977,-284.779 658.239,-262.669"/>
<polygon fill="midnightblue" stroke="midnightblue" points="661.087,-264.704 664.193,-254.575 655.448,-260.557 661.087,-264.704"/>
</g>
<!-- Node27 -->
<g id="node27" class="node"><title>Node27</title>
<g id="a_node27"><a xlink:href="CircularIndex_8hpp.html" target="_top" xlink:title="Core/Utils/CircularIndex.hpp">
<polygon fill="white" stroke="black" points="722,-291.5 722,-310.5 871,-310.5 871,-291.5 722,-291.5"/>
<text text-anchor="middle" x="796.5" y="-298.5" font-family="Helvetica,sans-Serif" font-size="10.00">Core/Utils/CircularIndex.hpp</text>
</a>
</g>
</g>
<!-- Node1&#45;&gt;Node27 -->
<g id="edge39" class="edge"><title>Node1&#45;&gt;Node27</title>
<path fill="none" stroke="midnightblue" d="M646.007,-347.498C682.727,-336.396 727.46,-322.872 758.569,-313.468"/>
<polygon fill="midnightblue" stroke="midnightblue" points="759.604,-316.811 768.163,-310.567 757.578,-310.111 759.604,-316.811"/>
</g>
<!-- Node3 -->
<g id="node3" class="node"><title>Node3</title>
<g id="a_node3"><a xlink:href="VectorArray_8hpp.html" target="_top" xlink:title="Core/Containers/VectorArray.hpp">
<polygon fill="white" stroke="black" points="92,-235.5 92,-254.5 265,-254.5 265,-235.5 92,-235.5"/>
<text text-anchor="middle" x="178.5" y="-242.5" font-family="Helvetica,sans-Serif" font-size="10.00">Core/Containers/VectorArray.hpp</text>
</a>
</g>
</g>
<!-- Node2&#45;&gt;Node3 -->
<g id="edge2" class="edge"><title>Node2&#45;&gt;Node3</title>
<path fill="none" stroke="midnightblue" d="M275.278,-291.444C256.604,-282.675 227.344,-268.935 205.883,-258.858"/>
<polygon fill="midnightblue" stroke="midnightblue" points="207.176,-255.599 196.637,-254.516 204.201,-261.935 207.176,-255.599"/>
</g>
<!-- Node14 -->
<g id="node14" class="node"><title>Node14</title>
<g id="a_node14"><a xlink:href="Types_8hpp.html" target="_top" xlink:title="Core/Types.hpp">
<polygon fill="white" stroke="black" points="287,-174 287,-193 376,-193 376,-174 287,-174"/>
<text text-anchor="middle" x="331.5" y="-181" font-family="Helvetica,sans-Serif" font-size="10.00">Core/Types.hpp</text>
</a>
</g>
</g>
<!-- Node2&#45;&gt;Node14 -->
<g id="edge20" class="edge"><title>Node2&#45;&gt;Node14</title>
<path fill="none" stroke="midnightblue" d="M296.356,-291.319C302.518,-272.59 317.173,-228.046 325.482,-202.792"/>
<polygon fill="midnightblue" stroke="midnightblue" points="328.81,-203.875 328.611,-193.282 322.161,-201.687 328.81,-203.875"/>
</g>
<!-- Node4 -->
<g id="node4" class="node"><title>Node4</title>
<g id="a_node4"><a xlink:href="AlignedStdVector_8hpp.html" target="_top" xlink:title="Core/Containers/AlignedStd\lVector.hpp">
<polygon fill="white" stroke="black" points="44,-168.5 44,-198.5 193,-198.5 193,-168.5 44,-168.5"/>
<text text-anchor="start" x="52" y="-186.5" font-family="Helvetica,sans-Serif" font-size="10.00">Core/Containers/AlignedStd</text>
<text text-anchor="middle" x="118.5" y="-175.5" font-family="Helvetica,sans-Serif" font-size="10.00">Vector.hpp</text>
</a>
</g>
</g>
<!-- Node3&#45;&gt;Node4 -->
<g id="edge3" class="edge"><title>Node3&#45;&gt;Node4</title>
<path fill="none" stroke="midnightblue" d="M169.903,-235.475C162.081,-227.718 150.208,-215.943 139.842,-205.665"/>
<polygon fill="midnightblue" stroke="midnightblue" points="142.206,-203.079 132.641,-198.523 137.277,-208.05 142.206,-203.079"/>
</g>
<!-- Node5 -->
<g id="node5" class="node"><title>Node5</title>
<g id="a_node5"><a xlink:href="RaCore_8hpp.html" target="_top" xlink:title="Core/RaCore.hpp">
<polygon fill="white" stroke="black" points="245.5,-112.5 245.5,-131.5 343.5,-131.5 343.5,-112.5 245.5,-112.5"/>
<text text-anchor="middle" x="294.5" y="-119.5" font-family="Helvetica,sans-Serif" font-size="10.00">Core/RaCore.hpp</text>
</a>
</g>
</g>
<!-- Node3&#45;&gt;Node5 -->
<g id="edge13" class="edge"><title>Node3&#45;&gt;Node5</title>
<path fill="none" stroke="midnightblue" d="M185.496,-235.261C197.202,-220.8 221.721,-191.187 244.5,-168 254.628,-157.691 266.648,-146.833 276.364,-138.366"/>
<polygon fill="midnightblue" stroke="midnightblue" points="278.91,-140.793 284.204,-131.615 274.343,-135.488 278.91,-140.793"/>
</g>
<!-- Node13 -->
<g id="node13" class="node"><title>Node13</title>
<polygon fill="white" stroke="#bfbfbf" points="0,-112.5 0,-131.5 47,-131.5 47,-112.5 0,-112.5"/>
<text text-anchor="middle" x="23.5" y="-119.5" font-family="Helvetica,sans-Serif" font-size="10.00">vector</text>
</g>
<!-- Node3&#45;&gt;Node13 -->
<g id="edge19" class="edge"><title>Node3&#45;&gt;Node13</title>
<path fill="none" stroke="midnightblue" d="M98.4249,-235.462C74.632,-229.017 50.6404,-217.938 34.5,-199 21.1498,-183.336 19.9006,-158.927 21.0126,-142.016"/>
<polygon fill="midnightblue" stroke="midnightblue" points="24.5311,-142.003 22.04,-131.706 17.5656,-141.309 24.5311,-142.003"/>
</g>
<!-- Node3&#45;&gt;Node14 -->
<g id="edge14" class="edge"><title>Node3&#45;&gt;Node14</title>
<path fill="none" stroke="midnightblue" d="M200.421,-235.475C226.552,-225.313 270.412,-208.256 300.13,-196.7"/>
<polygon fill="midnightblue" stroke="midnightblue" points="301.568,-199.896 309.619,-193.009 299.031,-193.372 301.568,-199.896"/>
</g>
<!-- Node4&#45;&gt;Node5 -->
<g id="edge4" class="edge"><title>Node4&#45;&gt;Node5</title>
<path fill="none" stroke="midnightblue" d="M160.21,-168.399C190.489,-158.163 230.991,-144.47 259.572,-134.808"/>
<polygon fill="midnightblue" stroke="midnightblue" points="260.795,-138.089 269.147,-131.571 258.553,-131.458 260.795,-138.089"/>
</g>
<!-- Node12 -->
<g id="node12" class="node"><title>Node12</title>
<polygon fill="white" stroke="#bfbfbf" points="72,-112.5 72,-131.5 165,-131.5 165,-112.5 72,-112.5"/>
<text text-anchor="middle" x="118.5" y="-119.5" font-family="Helvetica,sans-Serif" font-size="10.00">Eigen/StdVector</text>
</g>
<!-- Node4&#45;&gt;Node12 -->
<g id="edge11" class="edge"><title>Node4&#45;&gt;Node12</title>
<path fill="none" stroke="midnightblue" d="M118.5,-168.399C118.5,-160.466 118.5,-150.458 118.5,-141.858"/>
<polygon fill="midnightblue" stroke="midnightblue" points="122,-141.658 118.5,-131.658 115,-141.658 122,-141.658"/>
</g>
<!-- Node4&#45;&gt;Node13 -->
<g id="edge12" class="edge"><title>Node4&#45;&gt;Node13</title>
<path fill="none" stroke="midnightblue" d="M95.9863,-168.399C80.9009,-158.951 61.115,-146.559 46.0268,-137.109"/>
<polygon fill="midnightblue" stroke="midnightblue" points="47.6561,-134 37.3233,-131.658 43.9405,-139.932 47.6561,-134"/>
</g>
<!-- Node6 -->
<g id="node6" class="node"><title>Node6</title>
<g id="a_node6"><a xlink:href="CoreMacros_8hpp.html" target="_top" xlink:title="Core/CoreMacros.hpp">
<polygon fill="white" stroke="black" points="234.5,-56.5 234.5,-75.5 354.5,-75.5 354.5,-56.5 234.5,-56.5"/>
<text text-anchor="middle" x="294.5" y="-63.5" font-family="Helvetica,sans-Serif" font-size="10.00">Core/CoreMacros.hpp</text>
</a>
</g>
</g>
<!-- Node5&#45;&gt;Node6 -->
<g id="edge5" class="edge"><title>Node5&#45;&gt;Node6</title>
<path fill="none" stroke="midnightblue" d="M294.5,-112.083C294.5,-105.006 294.5,-94.8611 294.5,-85.9865"/>
<polygon fill="midnightblue" stroke="midnightblue" points="298,-85.751 294.5,-75.7511 291,-85.7511 298,-85.751"/>
</g>
<!-- Node7 -->
<g id="node7" class="node"><title>Node7</title>
<polygon fill="white" stroke="#bfbfbf" points="131.5,-0.5 131.5,-19.5 183.5,-19.5 183.5,-0.5 131.5,-0.5"/>
<text text-anchor="middle" x="157.5" y="-7.5" font-family="Helvetica,sans-Serif" font-size="10.00">cassert</text>
</g>
<!-- Node6&#45;&gt;Node7 -->
<g id="edge6" class="edge"><title>Node6&#45;&gt;Node7</title>
<path fill="none" stroke="midnightblue" d="M272.792,-56.4435C250.145,-47.5171 214.428,-33.4387 188.748,-23.3168"/>
<polygon fill="midnightblue" stroke="midnightblue" points="189.693,-19.9273 179.106,-19.5164 187.126,-26.4397 189.693,-19.9273"/>
</g>
<!-- Node8 -->
<g id="node8" class="node"><title>Node8</title>
<polygon fill="white" stroke="#bfbfbf" points="202,-0.5 202,-19.5 247,-19.5 247,-0.5 202,-0.5"/>
<text text-anchor="middle" x="224.5" y="-7.5" font-family="Helvetica,sans-Serif" font-size="10.00">cstdio</text>
</g>
<!-- Node6&#45;&gt;Node8 -->
<g id="edge7" class="edge"><title>Node6&#45;&gt;Node8</title>
<path fill="none" stroke="midnightblue" d="M283.253,-56.324C272.703,-48.1849 256.699,-35.8395 244.058,-26.0874"/>
<polygon fill="midnightblue" stroke="midnightblue" points="246.007,-23.1707 235.951,-19.8339 241.731,-28.7132 246.007,-23.1707"/>
</g>
<!-- Node9 -->
<g id="node9" class="node"><title>Node9</title>
<polygon fill="white" stroke="#bfbfbf" points="265,-0.5 265,-19.5 324,-19.5 324,-0.5 265,-0.5"/>
<text text-anchor="middle" x="294.5" y="-7.5" font-family="Helvetica,sans-Serif" font-size="10.00">iostream</text>
</g>
<!-- Node6&#45;&gt;Node9 -->
<g id="edge8" class="edge"><title>Node6&#45;&gt;Node9</title>
<path fill="none" stroke="midnightblue" d="M294.5,-56.083C294.5,-49.0059 294.5,-38.8611 294.5,-29.9865"/>
<polygon fill="midnightblue" stroke="midnightblue" points="298,-29.751 294.5,-19.7511 291,-29.7511 298,-29.751"/>
</g>
<!-- Node10 -->
<g id="node10" class="node"><title>Node10</title>
<polygon fill="white" stroke="#bfbfbf" points="342.5,-0.5 342.5,-19.5 398.5,-19.5 398.5,-0.5 342.5,-0.5"/>
<text text-anchor="middle" x="370.5" y="-7.5" font-family="Helvetica,sans-Serif" font-size="10.00">sstream</text>
</g>
<!-- Node6&#45;&gt;Node10 -->
<g id="edge9" class="edge"><title>Node6&#45;&gt;Node10</title>
<path fill="none" stroke="midnightblue" d="M306.711,-56.324C318.276,-48.1066 335.875,-35.6017 349.661,-25.8069"/>
<polygon fill="midnightblue" stroke="midnightblue" points="351.943,-28.4791 358.067,-19.8339 347.888,-22.7729 351.943,-28.4791"/>
</g>
<!-- Node11 -->
<g id="node11" class="node"><title>Node11</title>
<polygon fill="white" stroke="#bfbfbf" points="416.5,-0.5 416.5,-19.5 464.5,-19.5 464.5,-0.5 416.5,-0.5"/>
<text text-anchor="middle" x="440.5" y="-7.5" font-family="Helvetica,sans-Serif" font-size="10.00">thread</text>
</g>
<!-- Node6&#45;&gt;Node11 -->
<g id="edge10" class="edge"><title>Node6&#45;&gt;Node11</title>
<path fill="none" stroke="midnightblue" d="M317.634,-56.4435C341.982,-47.4381 380.507,-33.1891 407.923,-23.049"/>
<polygon fill="midnightblue" stroke="midnightblue" points="409.309,-26.2681 417.474,-19.5164 406.881,-19.7028 409.309,-26.2681"/>
</g>
<!-- Node14&#45;&gt;Node5 -->
<g id="edge15" class="edge"><title>Node14&#45;&gt;Node5</title>
<path fill="none" stroke="midnightblue" d="M326.199,-173.975C320.759,-165.227 312.141,-151.369 305.264,-140.309"/>
<polygon fill="midnightblue" stroke="midnightblue" points="308.044,-138.153 299.791,-131.509 302.1,-141.849 308.044,-138.153"/>
</g>
<!-- Node15 -->
<g id="node15" class="node"><title>Node15</title>
<polygon fill="white" stroke="#bfbfbf" points="397.5,-112.5 397.5,-131.5 465.5,-131.5 465.5,-112.5 397.5,-112.5"/>
<text text-anchor="middle" x="431.5" y="-119.5" font-family="Helvetica,sans-Serif" font-size="10.00">Eigen/Core</text>
</g>
<!-- Node14&#45;&gt;Node15 -->
<g id="edge16" class="edge"><title>Node14&#45;&gt;Node15</title>
<path fill="none" stroke="midnightblue" d="M345.828,-173.975C362.164,-164.255 389.102,-148.227 408.412,-136.737"/>
<polygon fill="midnightblue" stroke="midnightblue" points="410.395,-139.63 417.199,-131.509 406.815,-133.615 410.395,-139.63"/>
</g>
<!-- Node16 -->
<g id="node16" class="node"><title>Node16</title>
<polygon fill="white" stroke="#bfbfbf" points="580.5,-112.5 580.5,-131.5 674.5,-131.5 674.5,-112.5 580.5,-112.5"/>
<text text-anchor="middle" x="627.5" y="-119.5" font-family="Helvetica,sans-Serif" font-size="10.00">Eigen/Geometry</text>
</g>
<!-- Node14&#45;&gt;Node16 -->
<g id="edge17" class="edge"><title>Node14&#45;&gt;Node16</title>
<path fill="none" stroke="midnightblue" d="M373.91,-173.975C426.992,-163.305 517.888,-145.034 575.221,-133.509"/>
<polygon fill="midnightblue" stroke="midnightblue" points="576.055,-136.911 585.169,-131.509 574.675,-130.049 576.055,-136.911"/>
</g>
<!-- Node17 -->
<g id="node17" class="node"><title>Node17</title>
<polygon fill="white" stroke="#bfbfbf" points="741.5,-112.5 741.5,-131.5 821.5,-131.5 821.5,-112.5 741.5,-112.5"/>
<text text-anchor="middle" x="781.5" y="-119.5" font-family="Helvetica,sans-Serif" font-size="10.00">Eigen/Sparse</text>
</g>
<!-- Node14&#45;&gt;Node17 -->
<g id="edge18" class="edge"><title>Node14&#45;&gt;Node17</title>
<path fill="none" stroke="midnightblue" d="M376.38,-175.139C391.351,-172.76 408.131,-170.177 423.5,-168 533.082,-152.481 661.928,-136.949 731.252,-128.814"/>
<polygon fill="midnightblue" stroke="midnightblue" points="731.921,-132.259 741.447,-127.62 731.107,-125.307 731.921,-132.259"/>
</g>
<!-- Node18&#45;&gt;Node14 -->
<g id="edge22" class="edge"><title>Node18&#45;&gt;Node14</title>
<path fill="none" stroke="midnightblue" d="M497.046,-291.319C466.465,-271.586 391.475,-223.199 353.827,-198.907"/>
<polygon fill="midnightblue" stroke="midnightblue" points="355.411,-195.763 345.11,-193.282 351.615,-201.645 355.411,-195.763"/>
</g>
<!-- Node19&#45;&gt;Node5 -->
<g id="edge24" class="edge"><title>Node19&#45;&gt;Node5</title>
<path fill="none" stroke="midnightblue" d="M592.477,-239.58C542.358,-234.413 476.888,-223.221 423.5,-199 403.336,-189.852 403.17,-179.904 384.5,-168 365.112,-155.638 341.869,-144.092 323.86,-135.79"/>
<polygon fill="midnightblue" stroke="midnightblue" points="325.004,-132.467 314.451,-131.528 322.116,-138.843 325.004,-132.467"/>
</g>
<!-- Node19&#45;&gt;Node14 -->
<g id="edge36" class="edge"><title>Node19&#45;&gt;Node14</title>
<path fill="none" stroke="midnightblue" d="M608.236,-235.481C551.32,-227.341 464.928,-214.1 390.5,-199 385.138,-197.912 379.526,-196.67 373.986,-195.38"/>
<polygon fill="midnightblue" stroke="midnightblue" points="374.701,-191.952 364.161,-193.031 373.073,-198.76 374.701,-191.952"/>
</g>
<!-- Node19&#45;&gt;Node15 -->
<g id="edge25" class="edge"><title>Node19&#45;&gt;Node15</title>
<path fill="none" stroke="midnightblue" d="M702.685,-235.488C721.039,-228.801 742.516,-217.45 753.5,-199 760.548,-187.161 762.543,-178.395 753.5,-168 735.517,-147.33 559.603,-132.129 475.653,-125.991"/>
<polygon fill="midnightblue" stroke="midnightblue" points="475.872,-122.498 465.647,-125.271 475.369,-129.48 475.872,-122.498"/>
</g>
<!-- Node19&#45;&gt;Node16 -->
<g id="edge26" class="edge"><title>Node19&#45;&gt;Node16</title>
<path fill="none" stroke="midnightblue" d="M729.071,-235.483C750.825,-229.164 773.381,-218.16 786.5,-199 794.284,-187.632 794.811,-178.989 786.5,-168 774.017,-151.494 725.104,-139.3 684.788,-131.8"/>
<polygon fill="midnightblue" stroke="midnightblue" points="685.212,-128.321 674.75,-129.995 683.973,-135.21 685.212,-128.321"/>
</g>
<!-- Node19&#45;&gt;Node17 -->
<g id="edge27" class="edge"><title>Node19&#45;&gt;Node17</title>
<path fill="none" stroke="midnightblue" d="M740.598,-235.494C807.768,-226.625 900.537,-212.199 911.5,-199 938.712,-166.236 878.643,-144.395 831.36,-132.842"/>
<polygon fill="midnightblue" stroke="midnightblue" points="832.036,-129.406 821.501,-130.533 830.439,-136.221 832.036,-129.406"/>
</g>
<!-- Node20 -->
<g id="node20" class="node"><title>Node20</title>
<polygon fill="white" stroke="#bfbfbf" points="839,-174 839,-193 902,-193 902,-174 839,-174"/>
<text text-anchor="middle" x="870.5" y="-181" font-family="Helvetica,sans-Serif" font-size="10.00">functional</text>
</g>
<!-- Node19&#45;&gt;Node20 -->
<g id="edge28" class="edge"><title>Node19&#45;&gt;Node20</title>
<path fill="none" stroke="midnightblue" d="M700.366,-235.475C731.432,-226.56 781.456,-212.071 824.5,-199 827.625,-198.051 830.865,-197.055 834.113,-196.048"/>
<polygon fill="midnightblue" stroke="midnightblue" points="835.272,-199.352 843.773,-193.029 833.184,-192.671 835.272,-199.352"/>
</g>
<!-- Node21 -->
<g id="node21" class="node"><title>Node21</title>
<polygon fill="white" stroke="#bfbfbf" points="433,-168.5 433,-198.5 578,-198.5 578,-168.5 433,-168.5"/>
<text text-anchor="start" x="441" y="-186.5" font-family="Helvetica,sans-Serif" font-size="10.00">unsupported/Eigen/Aligned</text>
<text text-anchor="middle" x="505.5" y="-175.5" font-family="Helvetica,sans-Serif" font-size="10.00">Vector3</text>
</g>
<!-- Node19&#45;&gt;Node21 -->
<g id="edge29" class="edge"><title>Node19&#45;&gt;Node21</title>
<path fill="none" stroke="midnightblue" d="M646.86,-235.475C622.737,-226.776 584.607,-213.026 554.024,-201.998"/>
<polygon fill="midnightblue" stroke="midnightblue" points="554.982,-198.623 544.387,-198.523 552.607,-205.208 554.982,-198.623"/>
</g>
<!-- Node22 -->
<g id="node22" class="node"><title>Node22</title>
<g id="a_node22"><a xlink:href="Math_8hpp.html" target="_top" xlink:title="Core/Math/Math.hpp">
<polygon fill="white" stroke="black" points="958.5,-174 958.5,-193 1072.5,-193 1072.5,-174 958.5,-174"/>
<text text-anchor="middle" x="1015.5" y="-181" font-family="Helvetica,sans-Serif" font-size="10.00">Core/Math/Math.hpp</text>
</a>
</g>
</g>
<!-- Node19&#45;&gt;Node22 -->
<g id="edge30" class="edge"><title>Node19&#45;&gt;Node22</title>
<path fill="none" stroke="midnightblue" d="M726.236,-235.493C781.678,-226.879 869.119,-212.882 944.5,-199 951.15,-197.775 958.138,-196.426 965.028,-195.058"/>
<polygon fill="midnightblue" stroke="midnightblue" points="965.889,-198.455 975.003,-193.052 964.509,-191.592 965.889,-198.455"/>
</g>
<!-- Node26 -->
<g id="node26" class="node"><title>Node26</title>
<g id="a_node26"><a xlink:href="LinearAlgebra_8inl.html" target="_top" xlink:title="Core/Math/LinearAlgebra.inl">
<polygon fill="white" stroke="black" points="596,-174 596,-193 745,-193 745,-174 596,-174"/>
<text text-anchor="middle" x="670.5" y="-181" font-family="Helvetica,sans-Serif" font-size="10.00">Core/Math/LinearAlgebra.inl</text>
</a>
</g>
</g>
<!-- Node19&#45;&gt;Node26 -->
<g id="edge37" class="edge"><title>Node19&#45;&gt;Node26</title>
<path fill="none" stroke="midnightblue" d="M665.599,-235.475C663.768,-227.08 663.297,-213.981 664.185,-203.163"/>
<polygon fill="midnightblue" stroke="midnightblue" points="667.686,-203.397 665.603,-193.009 660.754,-202.429 667.686,-203.397"/>
</g>
<!-- Node22&#45;&gt;Node5 -->
<g id="edge31" class="edge"><title>Node22&#45;&gt;Node5</title>
<path fill="none" stroke="midnightblue" d="M959.725,-173.993C944.143,-171.816 927.185,-169.631 911.5,-168 679.755,-143.899 620.71,-151.105 388.5,-132 377.253,-131.075 365.258,-129.996 353.73,-128.914"/>
<polygon fill="midnightblue" stroke="midnightblue" points="354.037,-125.427 343.751,-127.966 353.375,-132.396 354.037,-125.427"/>
</g>
<!-- Node23 -->
<g id="node23" class="node"><title>Node23</title>
<polygon fill="white" stroke="#bfbfbf" points="863.5,-112.5 863.5,-131.5 925.5,-131.5 925.5,-112.5 863.5,-112.5"/>
<text text-anchor="middle" x="894.5" y="-119.5" font-family="Helvetica,sans-Serif" font-size="10.00">algorithm</text>
</g>
<!-- Node22&#45;&gt;Node23 -->
<g id="edge32" class="edge"><title>Node22&#45;&gt;Node23</title>
<path fill="none" stroke="midnightblue" d="M998.164,-173.975C977.947,-164.034 944.313,-147.495 920.858,-135.961"/>
<polygon fill="midnightblue" stroke="midnightblue" points="922.322,-132.781 911.804,-131.509 919.233,-139.063 922.322,-132.781"/>
</g>
<!-- Node24 -->
<g id="node24" class="node"><title>Node24</title>
<polygon fill="white" stroke="#bfbfbf" points="944,-112.5 944,-131.5 991,-131.5 991,-112.5 944,-112.5"/>
<text text-anchor="middle" x="967.5" y="-119.5" font-family="Helvetica,sans-Serif" font-size="10.00">cmath</text>
</g>
<!-- Node22&#45;&gt;Node24 -->
<g id="edge33" class="edge"><title>Node22&#45;&gt;Node24</title>
<path fill="none" stroke="midnightblue" d="M1008.62,-173.975C1001.35,-164.962 989.705,-150.525 980.659,-139.312"/>
<polygon fill="midnightblue" stroke="midnightblue" points="983.367,-137.095 974.364,-131.509 977.919,-141.49 983.367,-137.095"/>
</g>
<!-- Node25 -->
<g id="node25" class="node"><title>Node25</title>
<g id="a_node25"><a xlink:href="Math_8inl.html" target="_top" xlink:title="Core/Math/Math.inl">
<polygon fill="white" stroke="black" points="1009,-112.5 1009,-131.5 1116,-131.5 1116,-112.5 1009,-112.5"/>
<text text-anchor="middle" x="1062.5" y="-119.5" font-family="Helvetica,sans-Serif" font-size="10.00">Core/Math/Math.inl</text>
</a>
</g>
</g>
<!-- Node22&#45;&gt;Node25 -->
<g id="edge34" class="edge"><title>Node22&#45;&gt;Node25</title>
<path fill="none" stroke="midnightblue" d="M1017.33,-173.975C1022.54,-164.873 1033.71,-150.241 1043.81,-138.983"/>
<polygon fill="midnightblue" stroke="midnightblue" points="1046.55,-141.18 1050.88,-131.509 1041.47,-136.37 1046.55,-141.18"/>
</g>
<!-- Node25&#45;&gt;Node22 -->
<g id="edge35" class="edge"><title>Node25&#45;&gt;Node22</title>
<path fill="none" stroke="midnightblue" d="M1060.68,-131.509C1055.48,-140.604 1044.31,-155.236 1034.2,-166.497"/>
<polygon fill="midnightblue" stroke="midnightblue" points="1031.46,-164.304 1027.13,-173.975 1036.55,-169.113 1031.46,-164.304"/>
</g>
<!-- Node26&#45;&gt;Node19 -->
<g id="edge38" class="edge"><title>Node26&#45;&gt;Node19</title>
<path fill="none" stroke="midnightblue" d="M675.397,-193.009C677.23,-201.398 677.703,-214.496 676.817,-225.317"/>
<polygon fill="midnightblue" stroke="midnightblue" points="673.315,-225.088 675.401,-235.475 680.248,-226.054 673.315,-225.088"/>
</g>
<!-- Node27&#45;&gt;Node5 -->
<g id="edge40" class="edge"><title>Node27&#45;&gt;Node5</title>
<path fill="none" stroke="midnightblue" d="M721.857,-296.741C591.985,-289.334 332.962,-266.295 277.5,-199 263.842,-182.428 273.675,-157.165 283.108,-140.374"/>
<polygon fill="midnightblue" stroke="midnightblue" points="286.239,-141.962 288.435,-131.597 280.255,-138.33 286.239,-141.962"/>
</g>
<!-- Node28 -->
<g id="node28" class="node"><title>Node28</title>
<g id="a_node28"><a xlink:href="CircularIndex_8inl.html" target="_top" xlink:title="Core/Utils/CircularIndex.inl">
<polygon fill="white" stroke="black" points="767,-235.5 767,-254.5 908,-254.5 908,-235.5 767,-235.5"/>
<text text-anchor="middle" x="837.5" y="-242.5" font-family="Helvetica,sans-Serif" font-size="10.00">Core/Utils/CircularIndex.inl</text>
</a>
</g>
</g>
<!-- Node27&#45;&gt;Node28 -->
<g id="edge41" class="edge"><title>Node27&#45;&gt;Node28</title>
<path fill="none" stroke="midnightblue" d="M798.104,-291.083C802.372,-283.298 810.736,-271.801 818.812,-262.367"/>
<polygon fill="midnightblue" stroke="midnightblue" points="821.595,-264.508 825.725,-254.751 816.412,-259.803 821.595,-264.508"/>
</g>
<!-- Node28&#45;&gt;Node27 -->
<g id="edge42" class="edge"><title>Node28&#45;&gt;Node27</title>
<path fill="none" stroke="midnightblue" d="M835.987,-254.751C831.777,-262.483 823.44,-273.967 815.361,-283.431"/>
<polygon fill="midnightblue" stroke="midnightblue" points="812.551,-281.32 808.437,-291.083 817.742,-286.017 812.551,-281.32"/>
</g>
</g>
</svg>
