<?xml version="1.0" encoding="UTF-8" standalone="no"?>
<!DOCTYPE svg PUBLIC "-//W3C//DTD SVG 1.1//EN"
 "http://www.w3.org/Graphics/SVG/1.1/DTD/svg11.dtd">
<!-- Generated by graphviz version 2.38.0 (20140413.2041)
 -->
<!-- Title: /home/travis/build/STORM&#45;IRIT/Radium&#45;Engine/src/IO/AssimpLoader/AssimpHandleDataLoader.hpp Pages: 1 -->
<svg width="610pt" height="285pt"
 viewBox="0.00 0.00 609.62 285.00" xmlns="http://www.w3.org/2000/svg" xmlns:xlink="http://www.w3.org/1999/xlink">
<g id="graph0" class="graph" transform="scale(1 1) rotate(0) translate(4 281)">
<title>/home/travis/build/STORM&#45;IRIT/Radium&#45;Engine/src/IO/AssimpLoader/AssimpHandleDataLoader.hpp</title>
<polygon fill="white" stroke="none" points="-4,4 -4,-281 605.624,-281 605.624,4 -4,4"/>
<!-- Node1 -->
<g id="node1" class="node"><title>Node1</title>
<polygon fill="#bfbfbf" stroke="black" points="85,-224.5 85,-276.5 275,-276.5 275,-224.5 85,-224.5"/>
<text text-anchor="start" x="93" y="-264.5" font-family="Helvetica,sans-Serif" font-size="10.00">/home/travis/build</text>
<text text-anchor="start" x="93" y="-253.5" font-family="Helvetica,sans-Serif" font-size="10.00">/STORM&#45;IRIT/Radium&#45;Engine</text>
<text text-anchor="start" x="93" y="-242.5" font-family="Helvetica,sans-Serif" font-size="10.00">/src/IO/AssimpLoader/AssimpHandle</text>
<text text-anchor="middle" x="180" y="-231.5" font-family="Helvetica,sans-Serif" font-size="10.00">DataLoader.hpp</text>
</g>
<!-- Node2 -->
<g id="node2" class="node"><title>Node2</title>
<polygon fill="white" stroke="#bfbfbf" points="0,-168.5 0,-187.5 38,-187.5 38,-168.5 0,-168.5"/>
<text text-anchor="middle" x="19" y="-175.5" font-family="Helvetica,sans-Serif" font-size="10.00">map</text>
</g>
<!-- Node1&#45;&gt;Node2 -->
<g id="edge1" class="edge"><title>Node1&#45;&gt;Node2</title>
<path fill="none" stroke="midnightblue" d="M122.784,-224.446C97.1916,-213.239 68.1638,-200.528 47.3279,-191.404"/>
<polygon fill="midnightblue" stroke="midnightblue" points="48.6553,-188.165 38.0911,-187.36 45.8474,-194.577 48.6553,-188.165"/>
</g>
<!-- Node3 -->
<g id="node3" class="node"><title>Node3</title>
<polygon fill="white" stroke="#bfbfbf" points="56,-168.5 56,-187.5 88,-187.5 88,-168.5 56,-168.5"/>
<text text-anchor="middle" x="72" y="-175.5" font-family="Helvetica,sans-Serif" font-size="10.00">set</text>
</g>
<!-- Node1&#45;&gt;Node3 -->
<g id="edge2" class="edge"><title>Node1&#45;&gt;Node3</title>
<path fill="none" stroke="midnightblue" d="M141.619,-224.446C125.56,-213.963 107.484,-202.163 93.7763,-193.215"/>
<polygon fill="midnightblue" stroke="midnightblue" points="95.3496,-190.062 85.0626,-187.527 91.5232,-195.924 95.3496,-190.062"/>
</g>
<!-- Node4 -->
<g id="node4" class="node"><title>Node4</title>
<g id="a_node4"><a xlink:href="DataLoader_8hpp.html" target="_top" xlink:title="Core/Asset/DataLoader.hpp">
<polygon fill="white" stroke="black" points="105.5,-168.5 105.5,-187.5 254.5,-187.5 254.5,-168.5 105.5,-168.5"/>
<text text-anchor="middle" x="180" y="-175.5" font-family="Helvetica,sans-Serif" font-size="10.00">Core/Asset/DataLoader.hpp</text>
</a>
</g>
</g>
<!-- Node1&#45;&gt;Node4 -->
<g id="edge3" class="edge"><title>Node1&#45;&gt;Node4</title>
<path fill="none" stroke="midnightblue" d="M180,-224.446C180,-215.73 180,-206.104 180,-197.964"/>
<polygon fill="midnightblue" stroke="midnightblue" points="183.5,-197.695 180,-187.695 176.5,-197.696 183.5,-197.695"/>
</g>
<!-- Node7 -->
<g id="node7" class="node"><title>Node7</title>
<g id="a_node7"><a xlink:href="Types_8hpp.html" target="_top" xlink:title="Core/Types.hpp">
<polygon fill="white" stroke="black" points="299.5,-168.5 299.5,-187.5 388.5,-187.5 388.5,-168.5 299.5,-168.5"/>
<text text-anchor="middle" x="344" y="-175.5" font-family="Helvetica,sans-Serif" font-size="10.00">Core/Types.hpp</text>
</a>
</g>
</g>
<!-- Node1&#45;&gt;Node7 -->
<g id="edge6" class="edge"><title>Node1&#45;&gt;Node7</title>
<path fill="none" stroke="midnightblue" d="M238.282,-224.446C264.192,-213.308 293.56,-200.683 314.755,-191.572"/>
<polygon fill="midnightblue" stroke="midnightblue" points="316.359,-194.692 324.164,-187.527 313.595,-188.261 316.359,-194.692"/>
</g>
<!-- Node18 -->
<g id="node18" class="node"><title>Node18</title>
<g id="a_node18"><a xlink:href="RaIO_8hpp.html" target="_top" xlink:title="IO/RaIO.hpp">
<polygon fill="white" stroke="black" points="493.5,-168.5 493.5,-187.5 564.5,-187.5 564.5,-168.5 493.5,-168.5"/>
<text text-anchor="middle" x="529" y="-175.5" font-family="Helvetica,sans-Serif" font-size="10.00">IO/RaIO.hpp</text>
</a>
</g>
</g>
<!-- Node1&#45;&gt;Node18 -->
<g id="edge17" class="edge"><title>Node1&#45;&gt;Node18</title>
<path fill="none" stroke="midnightblue" d="M275.366,-230.236C342.913,-216.591 430.53,-198.891 483.115,-188.269"/>
<polygon fill="midnightblue" stroke="midnightblue" points="484.04,-191.653 493.149,-186.242 482.654,-184.792 484.04,-191.653"/>
</g>
<!-- Node5 -->
<g id="node5" class="node"><title>Node5</title>
<polygon fill="white" stroke="#bfbfbf" points="53.5,-112.5 53.5,-131.5 110.5,-131.5 110.5,-112.5 53.5,-112.5"/>
<text text-anchor="middle" x="82" y="-119.5" font-family="Helvetica,sans-Serif" font-size="10.00">memory</text>
</g>
<!-- Node4&#45;&gt;Node5 -->
<g id="edge4" class="edge"><title>Node4&#45;&gt;Node5</title>
<path fill="none" stroke="midnightblue" d="M164.255,-168.324C148.681,-159.743 124.623,-146.486 106.541,-136.522"/>
<polygon fill="midnightblue" stroke="midnightblue" points="108.154,-133.415 97.7063,-131.655 104.776,-139.546 108.154,-133.415"/>
</g>
<!-- Node6 -->
<g id="node6" class="node"><title>Node6</title>
<polygon fill="white" stroke="#bfbfbf" points="128.5,-112.5 128.5,-131.5 175.5,-131.5 175.5,-112.5 128.5,-112.5"/>
<text text-anchor="middle" x="152" y="-119.5" font-family="Helvetica,sans-Serif" font-size="10.00">vector</text>
</g>
<!-- Node4&#45;&gt;Node6 -->
<g id="edge5" class="edge"><title>Node4&#45;&gt;Node6</title>
<path fill="none" stroke="midnightblue" d="M175.376,-168.083C171.544,-160.691 165.976,-149.953 161.235,-140.811"/>
<polygon fill="midnightblue" stroke="midnightblue" points="164.248,-139.018 156.538,-131.751 158.034,-142.24 164.248,-139.018"/>
</g>
<!-- Node8 -->
<g id="node8" class="node"><title>Node8</title>
<g id="a_node8"><a xlink:href="RaCore_8hpp.html" target="_top" xlink:title="Core/RaCore.hpp">
<polygon fill="white" stroke="black" points="194,-112.5 194,-131.5 292,-131.5 292,-112.5 194,-112.5"/>
<text text-anchor="middle" x="243" y="-119.5" font-family="Helvetica,sans-Serif" font-size="10.00">Core/RaCore.hpp</text>
</a>
</g>
</g>
<!-- Node7&#45;&gt;Node8 -->
<g id="edge7" class="edge"><title>Node7&#45;&gt;Node8</title>
<path fill="none" stroke="midnightblue" d="M327.773,-168.324C311.649,-159.703 286.7,-146.364 268.036,-136.386"/>
<polygon fill="midnightblue" stroke="midnightblue" points="269.656,-133.283 259.187,-131.655 266.356,-139.456 269.656,-133.283"/>
</g>
<!-- Node15 -->
<g id="node15" class="node"><title>Node15</title>
<polygon fill="white" stroke="#bfbfbf" points="310,-112.5 310,-131.5 378,-131.5 378,-112.5 310,-112.5"/>
<text text-anchor="middle" x="344" y="-119.5" font-family="Helvetica,sans-Serif" font-size="10.00">Eigen/Core</text>
</g>
<!-- Node7&#45;&gt;Node15 -->
<g id="edge14" class="edge"><title>Node7&#45;&gt;Node15</title>
<path fill="none" stroke="midnightblue" d="M344,-168.083C344,-161.006 344,-150.861 344,-141.986"/>
<polygon fill="midnightblue" stroke="midnightblue" points="347.5,-141.751 344,-131.751 340.5,-141.751 347.5,-141.751"/>
</g>
<!-- Node16 -->
<g id="node16" class="node"><title>Node16</title>
<polygon fill="white" stroke="#bfbfbf" points="396,-112.5 396,-131.5 490,-131.5 490,-112.5 396,-112.5"/>
<text text-anchor="middle" x="443" y="-119.5" font-family="Helvetica,sans-Serif" font-size="10.00">Eigen/Geometry</text>
</g>
<!-- Node7&#45;&gt;Node16 -->
<g id="edge15" class="edge"><title>Node7&#45;&gt;Node16</title>
<path fill="none" stroke="midnightblue" d="M359.906,-168.324C375.638,-159.743 399.942,-146.486 418.209,-136.522"/>
<polygon fill="midnightblue" stroke="midnightblue" points="420.03,-139.516 427.133,-131.655 416.678,-133.37 420.03,-139.516"/>
</g>
<!-- Node17 -->
<g id="node17" class="node"><title>Node17</title>
<polygon fill="white" stroke="#bfbfbf" points="508,-112.5 508,-131.5 588,-131.5 588,-112.5 508,-112.5"/>
<text text-anchor="middle" x="548" y="-119.5" font-family="Helvetica,sans-Serif" font-size="10.00">Eigen/Sparse</text>
</g>
<!-- Node7&#45;&gt;Node17 -->
<g id="edge16" class="edge"><title>Node7&#45;&gt;Node17</title>
<path fill="none" stroke="midnightblue" d="M376.324,-168.444C411.389,-159.162 467.498,-144.309 505.965,-134.127"/>
<polygon fill="midnightblue" stroke="midnightblue" points="507.055,-137.459 515.827,-131.516 505.264,-130.692 507.055,-137.459"/>
</g>
<!-- Node9 -->
<g id="node9" class="node"><title>Node9</title>
<g id="a_node9"><a xlink:href="CoreMacros_8hpp.html" target="_top" xlink:title="Core/CoreMacros.hpp">
<polygon fill="white" stroke="black" points="369,-56.5 369,-75.5 489,-75.5 489,-56.5 369,-56.5"/>
<text text-anchor="middle" x="429" y="-63.5" font-family="Helvetica,sans-Serif" font-size="10.00">Core/CoreMacros.hpp</text>
</a>
</g>
</g>
<!-- Node8&#45;&gt;Node9 -->
<g id="edge8" class="edge"><title>Node8&#45;&gt;Node9</title>
<path fill="none" stroke="midnightblue" d="M272.472,-112.444C304.171,-103.241 354.732,-88.5617 389.775,-78.3879"/>
<polygon fill="midnightblue" stroke="midnightblue" points="391.038,-81.6658 399.666,-75.5164 389.086,-74.9434 391.038,-81.6658"/>
</g>
<!-- Node10 -->
<g id="node10" class="node"><title>Node10</title>
<polygon fill="white" stroke="#bfbfbf" points="266,-0.5 266,-19.5 318,-19.5 318,-0.5 266,-0.5"/>
<text text-anchor="middle" x="292" y="-7.5" font-family="Helvetica,sans-Serif" font-size="10.00">cassert</text>
</g>
<!-- Node9&#45;&gt;Node10 -->
<g id="edge9" class="edge"><title>Node9&#45;&gt;Node10</title>
<path fill="none" stroke="midnightblue" d="M407.292,-56.4435C384.645,-47.5171 348.928,-33.4387 323.248,-23.3168"/>
<polygon fill="midnightblue" stroke="midnightblue" points="324.193,-19.9273 313.606,-19.5164 321.626,-26.4397 324.193,-19.9273"/>
</g>
<!-- Node11 -->
<g id="node11" class="node"><title>Node11</title>
<polygon fill="white" stroke="#bfbfbf" points="336.5,-0.5 336.5,-19.5 381.5,-19.5 381.5,-0.5 336.5,-0.5"/>
<text text-anchor="middle" x="359" y="-7.5" font-family="Helvetica,sans-Serif" font-size="10.00">cstdio</text>
</g>
<!-- Node9&#45;&gt;Node11 -->
<g id="edge10" class="edge"><title>Node9&#45;&gt;Node11</title>
<path fill="none" stroke="midnightblue" d="M417.753,-56.324C407.203,-48.1849 391.199,-35.8395 378.558,-26.0874"/>
<polygon fill="midnightblue" stroke="midnightblue" points="380.507,-23.1707 370.451,-19.8339 376.231,-28.7132 380.507,-23.1707"/>
</g>
<!-- Node12 -->
<g id="node12" class="node"><title>Node12</title>
<polygon fill="white" stroke="#bfbfbf" points="399.5,-0.5 399.5,-19.5 458.5,-19.5 458.5,-0.5 399.5,-0.5"/>
<text text-anchor="middle" x="429" y="-7.5" font-family="Helvetica,sans-Serif" font-size="10.00">iostream</text>
</g>
<!-- Node9&#45;&gt;Node12 -->
<g id="edge11" class="edge"><title>Node9&#45;&gt;Node12</title>
<path fill="none" stroke="midnightblue" d="M429,-56.083C429,-49.0059 429,-38.8611 429,-29.9865"/>
<polygon fill="midnightblue" stroke="midnightblue" points="432.5,-29.751 429,-19.7511 425.5,-29.7511 432.5,-29.751"/>
</g>
<!-- Node13 -->
<g id="node13" class="node"><title>Node13</title>
<polygon fill="white" stroke="#bfbfbf" points="477,-0.5 477,-19.5 533,-19.5 533,-0.5 477,-0.5"/>
<text text-anchor="middle" x="505" y="-7.5" font-family="Helvetica,sans-Serif" font-size="10.00">sstream</text>
</g>
<!-- Node9&#45;&gt;Node13 -->
<g id="edge12" class="edge"><title>Node9&#45;&gt;Node13</title>
<path fill="none" stroke="midnightblue" d="M441.211,-56.324C452.776,-48.1066 470.375,-35.6017 484.161,-25.8069"/>
<polygon fill="midnightblue" stroke="midnightblue" points="486.443,-28.4791 492.567,-19.8339 482.388,-22.7729 486.443,-28.4791"/>
</g>
<!-- Node14 -->
<g id="node14" class="node"><title>Node14</title>
<polygon fill="white" stroke="#bfbfbf" points="551,-0.5 551,-19.5 599,-19.5 599,-0.5 551,-0.5"/>
<text text-anchor="middle" x="575" y="-7.5" font-family="Helvetica,sans-Serif" font-size="10.00">thread</text>
</g>
<!-- Node9&#45;&gt;Node14 -->
<g id="edge13" class="edge"><title>Node9&#45;&gt;Node14</title>
<path fill="none" stroke="midnightblue" d="M452.134,-56.4435C476.482,-47.4381 515.007,-33.1891 542.423,-23.049"/>
<polygon fill="midnightblue" stroke="midnightblue" points="543.809,-26.2681 551.974,-19.5164 541.381,-19.7028 543.809,-26.2681"/>
</g>
<!-- Node18&#45;&gt;Node9 -->
<g id="edge18" class="edge"><title>Node18&#45;&gt;Node9</title>
<path fill="none" stroke="midnightblue" d="M550.341,-168.406C576.234,-156.722 614.399,-134.673 597,-112 584.73,-96.0113 539.575,-84.4611 499.167,-77.0681"/>
<polygon fill="midnightblue" stroke="midnightblue" points="499.746,-73.6163 489.289,-75.324 498.528,-80.5096 499.746,-73.6163"/>
</g>
</g>
</svg>
