<?xml version="1.0" encoding="UTF-8" standalone="no"?>
<!DOCTYPE svg PUBLIC "-//W3C//DTD SVG 1.1//EN"
 "http://www.w3.org/Graphics/SVG/1.1/DTD/svg11.dtd">
<!-- Generated by graphviz version 2.38.0 (20140413.2041)
 -->
<!-- Title: /home/travis/build/STORM&#45;IRIT/Radium&#45;Engine/src/IO/AssimpLoader/AssimpGeometryDataLoader.cpp Pages: 1 -->
<svg width="2624pt" height="430pt"
 viewBox="0.00 0.00 2624.00 430.00" xmlns="http://www.w3.org/2000/svg" xmlns:xlink="http://www.w3.org/1999/xlink">
<g id="graph0" class="graph" transform="scale(1 1) rotate(0) translate(4 426)">
<title>/home/travis/build/STORM&#45;IRIT/Radium&#45;Engine/src/IO/AssimpLoader/AssimpGeometryDataLoader.cpp</title>
<polygon fill="white" stroke="none" points="-4,4 -4,-426 2620,-426 2620,4 -4,4"/>
<!-- Node1 -->
<g id="node1" class="node"><title>Node1</title>
<polygon fill="#bfbfbf" stroke="black" points="2033,-369.5 2033,-421.5 2237,-421.5 2237,-369.5 2033,-369.5"/>
<text text-anchor="start" x="2041" y="-409.5" font-family="Helvetica,sans-Serif" font-size="10.00">/home/travis/build</text>
<text text-anchor="start" x="2041" y="-398.5" font-family="Helvetica,sans-Serif" font-size="10.00">/STORM&#45;IRIT/Radium&#45;Engine</text>
<text text-anchor="start" x="2041" y="-387.5" font-family="Helvetica,sans-Serif" font-size="10.00">/src/IO/AssimpLoader/AssimpGeometry</text>
<text text-anchor="middle" x="2135" y="-376.5" font-family="Helvetica,sans-Serif" font-size="10.00">DataLoader.cpp</text>
</g>
<!-- Node2 -->
<g id="node2" class="node"><title>Node2</title>
<g id="a_node2"><a xlink:href="AssimpGeometryDataLoader_8hpp.html" target="_top" xlink:title="IO/AssimpLoader/AssimpGeometry\lDataLoader.hpp">
<polygon fill="white" stroke="black" points="48,-235.5 48,-265.5 232,-265.5 232,-235.5 48,-235.5"/>
<text text-anchor="start" x="56" y="-253.5" font-family="Helvetica,sans-Serif" font-size="10.00">IO/AssimpLoader/AssimpGeometry</text>
<text text-anchor="middle" x="140" y="-242.5" font-family="Helvetica,sans-Serif" font-size="10.00">DataLoader.hpp</text>
</a>
</g>
</g>
<!-- Node1&#45;&gt;Node2 -->
<g id="edge1" class="edge"><title>Node1&#45;&gt;Node2</title>
<path fill="none" stroke="midnightblue" d="M2032.81,-388.405C1753.29,-371.516 952.65,-321.668 288,-266 273.227,-264.763 257.635,-263.351 242.335,-261.905"/>
<polygon fill="midnightblue" stroke="midnightblue" points="242.621,-258.417 232.334,-260.952 241.956,-265.385 242.621,-258.417"/>
</g>
<!-- Node19 -->
<g id="node19" class="node"><title>Node19</title>
<polygon fill="white" stroke="#bfbfbf" points="2416,-308 2416,-327 2506,-327 2506,-308 2416,-308"/>
<text text-anchor="middle" x="2461" y="-315" font-family="Helvetica,sans-Serif" font-size="10.00">assimp/mesh.h</text>
</g>
<!-- Node1&#45;&gt;Node19 -->
<g id="edge20" class="edge"><title>Node1&#45;&gt;Node19</title>
<path fill="none" stroke="midnightblue" d="M2237.15,-371.34C2286.92,-359.961 2347.63,-345.943 2402,-333 2406.75,-331.869 2411.72,-330.672 2416.66,-329.471"/>
<polygon fill="midnightblue" stroke="midnightblue" points="2417.82,-332.791 2426.7,-327.019 2416.16,-325.991 2417.82,-332.791"/>
</g>
<!-- Node20 -->
<g id="node20" class="node"><title>Node20</title>
<polygon fill="white" stroke="#bfbfbf" points="2524,-308 2524,-327 2616,-327 2616,-308 2524,-308"/>
<text text-anchor="middle" x="2570" y="-315" font-family="Helvetica,sans-Serif" font-size="10.00">assimp/scene.h</text>
</g>
<!-- Node1&#45;&gt;Node20 -->
<g id="edge21" class="edge"><title>Node1&#45;&gt;Node20</title>
<path fill="none" stroke="midnightblue" d="M2237.11,-380.727C2313.9,-369.704 2421.51,-352.839 2515,-333 2519.82,-331.978 2524.85,-330.803 2529.82,-329.575"/>
<polygon fill="midnightblue" stroke="midnightblue" points="2531.04,-332.875 2539.87,-327.009 2529.31,-326.092 2531.04,-332.875"/>
</g>
<!-- Node21 -->
<g id="node21" class="node"><title>Node21</title>
<g id="a_node21"><a xlink:href="GeometryData_8hpp.html" target="_top" xlink:title="Core/Asset/GeometryData.hpp">
<polygon fill="white" stroke="black" points="1602,-308 1602,-327 1766,-327 1766,-308 1602,-308"/>
<text text-anchor="middle" x="1684" y="-315" font-family="Helvetica,sans-Serif" font-size="10.00">Core/Asset/GeometryData.hpp</text>
</a>
</g>
</g>
<!-- Node1&#45;&gt;Node21 -->
<g id="edge22" class="edge"><title>Node1&#45;&gt;Node21</title>
<path fill="none" stroke="midnightblue" d="M2032.94,-377.302C1944.1,-362.33 1818.3,-341.131 1744.52,-328.699"/>
<polygon fill="midnightblue" stroke="midnightblue" points="1744.91,-325.215 1734.47,-327.005 1743.75,-332.118 1744.91,-325.215"/>
</g>
<!-- Node35 -->
<g id="node35" class="node"><title>Node35</title>
<g id="a_node35"><a xlink:href="Log_8hpp.html" target="_top" xlink:title="Core/Utils/Log.hpp">
<polygon fill="white" stroke="black" points="2333,-174 2333,-193 2437,-193 2437,-174 2333,-174"/>
<text text-anchor="middle" x="2385" y="-181" font-family="Helvetica,sans-Serif" font-size="10.00">Core/Utils/Log.hpp</text>
</a>
</g>
</g>
<!-- Node1&#45;&gt;Node35 -->
<g id="edge64" class="edge"><title>Node1&#45;&gt;Node35</title>
<path fill="none" stroke="midnightblue" d="M2217.38,-369.479C2268.79,-349.606 2332.01,-316.606 2369,-266 2382.4,-247.666 2385.37,-221.042 2385.67,-203.269"/>
<polygon fill="midnightblue" stroke="midnightblue" points="2389.17,-203.007 2385.56,-193.044 2382.17,-203.079 2389.17,-203.007"/>
</g>
<!-- Node40 -->
<g id="node40" class="node"><title>Node40</title>
<g id="a_node40"><a xlink:href="BlinnPhongMaterialData_8hpp.html" target="_top" xlink:title="Core/Asset/BlinnPhongMaterial\lData.hpp">
<polygon fill="white" stroke="black" points="2053,-302.5 2053,-332.5 2217,-332.5 2217,-302.5 2053,-302.5"/>
<text text-anchor="start" x="2061" y="-320.5" font-family="Helvetica,sans-Serif" font-size="10.00">Core/Asset/BlinnPhongMaterial</text>
<text text-anchor="middle" x="2135" y="-309.5" font-family="Helvetica,sans-Serif" font-size="10.00">Data.hpp</text>
</a>
</g>
</g>
<!-- Node1&#45;&gt;Node40 -->
<g id="edge65" class="edge"><title>Node1&#45;&gt;Node40</title>
<path fill="none" stroke="midnightblue" d="M2135,-369.193C2135,-360.786 2135,-351.443 2135,-343.091"/>
<polygon fill="midnightblue" stroke="midnightblue" points="2138.5,-342.845 2135,-332.845 2131.5,-342.845 2138.5,-342.845"/>
</g>
<!-- Node42 -->
<g id="node42" class="node"><title>Node42</title>
<g id="a_node42"><a xlink:href="AssimpWrapper_8hpp.html" target="_top" xlink:title="IO/AssimpLoader/AssimpWrapper.hpp">
<polygon fill="white" stroke="black" points="1275.5,-241 1275.5,-260 1470.5,-260 1470.5,-241 1275.5,-241"/>
<text text-anchor="middle" x="1373" y="-248" font-family="Helvetica,sans-Serif" font-size="10.00">IO/AssimpLoader/AssimpWrapper.hpp</text>
</a>
</g>
</g>
<!-- Node1&#45;&gt;Node42 -->
<g id="edge71" class="edge"><title>Node1&#45;&gt;Node42</title>
<path fill="none" stroke="midnightblue" d="M2032.84,-390.269C1922.93,-384.018 1743.62,-368.884 1593,-333 1521.62,-315.995 1441.76,-282.565 1400.7,-264.247"/>
<polygon fill="midnightblue" stroke="midnightblue" points="1401.92,-260.956 1391.36,-260.042 1399.04,-267.339 1401.92,-260.956"/>
</g>
<!-- Node3 -->
<g id="node3" class="node"><title>Node3</title>
<g id="a_node3"><a xlink:href="DataLoader_8hpp.html" target="_top" xlink:title="Core/Asset/DataLoader.hpp">
<polygon fill="white" stroke="black" points="125.5,-174 125.5,-193 274.5,-193 274.5,-174 125.5,-174"/>
<text text-anchor="middle" x="200" y="-181" font-family="Helvetica,sans-Serif" font-size="10.00">Core/Asset/DataLoader.hpp</text>
</a>
</g>
</g>
<!-- Node2&#45;&gt;Node3 -->
<g id="edge2" class="edge"><title>Node2&#45;&gt;Node3</title>
<path fill="none" stroke="midnightblue" d="M153.019,-235.396C162.467,-225.161 175.265,-211.296 185.118,-200.622"/>
<polygon fill="midnightblue" stroke="midnightblue" points="187.763,-202.917 191.974,-193.195 182.62,-198.169 187.763,-202.917"/>
</g>
<!-- Node4 -->
<g id="node4" class="node"><title>Node4</title>
<polygon fill="white" stroke="#bfbfbf" points="171.5,-112.5 171.5,-131.5 228.5,-131.5 228.5,-112.5 171.5,-112.5"/>
<text text-anchor="middle" x="200" y="-119.5" font-family="Helvetica,sans-Serif" font-size="10.00">memory</text>
</g>
<!-- Node2&#45;&gt;Node4 -->
<g id="edge18" class="edge"><title>Node2&#45;&gt;Node4</title>
<path fill="none" stroke="midnightblue" d="M129.333,-235.371C117.929,-218.394 103.119,-189.514 116,-168 125.946,-151.388 144.354,-140.56 161.407,-133.699"/>
<polygon fill="midnightblue" stroke="midnightblue" points="163.033,-136.832 171.218,-130.105 160.624,-130.259 163.033,-136.832"/>
</g>
<!-- Node6 -->
<g id="node6" class="node"><title>Node6</title>
<g id="a_node6"><a xlink:href="Types_8hpp.html" target="_top" xlink:title="Core/Types.hpp">
<polygon fill="white" stroke="black" points="908.5,-174 908.5,-193 997.5,-193 997.5,-174 908.5,-174"/>
<text text-anchor="middle" x="953" y="-181" font-family="Helvetica,sans-Serif" font-size="10.00">Core/Types.hpp</text>
</a>
</g>
</g>
<!-- Node2&#45;&gt;Node6 -->
<g id="edge5" class="edge"><title>Node2&#45;&gt;Node6</title>
<path fill="none" stroke="midnightblue" d="M232.143,-242.517C357.327,-232.978 588.12,-215.203 785,-199 822.78,-195.891 865.322,-192.217 898.143,-189.346"/>
<polygon fill="midnightblue" stroke="midnightblue" points="898.784,-192.803 908.44,-188.443 898.172,-185.83 898.784,-192.803"/>
</g>
<!-- Node17 -->
<g id="node17" class="node"><title>Node17</title>
<g id="a_node17"><a xlink:href="RaIO_8hpp.html" target="_top" xlink:title="IO/RaIO.hpp">
<polygon fill="white" stroke="black" points="53.5,-112.5 53.5,-131.5 124.5,-131.5 124.5,-112.5 53.5,-112.5"/>
<text text-anchor="middle" x="89" y="-119.5" font-family="Helvetica,sans-Serif" font-size="10.00">IO/RaIO.hpp</text>
</a>
</g>
</g>
<!-- Node2&#45;&gt;Node17 -->
<g id="edge16" class="edge"><title>Node2&#45;&gt;Node17</title>
<path fill="none" stroke="midnightblue" d="M116.53,-235.318C104.374,-226.541 90.7035,-214.072 84,-199 75.8791,-180.741 79.0887,-157.555 83.0814,-141.621"/>
<polygon fill="midnightblue" stroke="midnightblue" points="86.4773,-142.475 85.841,-131.899 79.7433,-140.563 86.4773,-142.475"/>
</g>
<!-- Node18 -->
<g id="node18" class="node"><title>Node18</title>
<polygon fill="white" stroke="#bfbfbf" points="0,-174 0,-193 32,-193 32,-174 0,-174"/>
<text text-anchor="middle" x="16" y="-181" font-family="Helvetica,sans-Serif" font-size="10.00">set</text>
</g>
<!-- Node2&#45;&gt;Node18 -->
<g id="edge19" class="edge"><title>Node2&#45;&gt;Node18</title>
<path fill="none" stroke="midnightblue" d="M113.094,-235.396C91.7217,-224.193 62.054,-208.641 41.1535,-197.685"/>
<polygon fill="midnightblue" stroke="midnightblue" points="42.7106,-194.55 32.2287,-193.007 39.4607,-200.75 42.7106,-194.55"/>
</g>
<!-- Node3&#45;&gt;Node4 -->
<g id="edge3" class="edge"><title>Node3&#45;&gt;Node4</title>
<path fill="none" stroke="midnightblue" d="M200,-173.975C200,-165.58 200,-152.481 200,-141.663"/>
<polygon fill="midnightblue" stroke="midnightblue" points="203.5,-141.509 200,-131.509 196.5,-141.509 203.5,-141.509"/>
</g>
<!-- Node5 -->
<g id="node5" class="node"><title>Node5</title>
<polygon fill="white" stroke="#bfbfbf" points="538.5,-112.5 538.5,-131.5 585.5,-131.5 585.5,-112.5 538.5,-112.5"/>
<text text-anchor="middle" x="562" y="-119.5" font-family="Helvetica,sans-Serif" font-size="10.00">vector</text>
</g>
<!-- Node3&#45;&gt;Node5 -->
<g id="edge4" class="edge"><title>Node3&#45;&gt;Node5</title>
<path fill="none" stroke="midnightblue" d="M251.866,-173.975C327.238,-161.586 464.949,-138.952 528.38,-128.526"/>
<polygon fill="midnightblue" stroke="midnightblue" points="528.959,-131.978 538.259,-126.902 527.824,-125.07 528.959,-131.978"/>
</g>
<!-- Node7 -->
<g id="node7" class="node"><title>Node7</title>
<g id="a_node7"><a xlink:href="RaCore_8hpp.html" target="_top" xlink:title="Core/RaCore.hpp">
<polygon fill="white" stroke="black" points="868,-112.5 868,-131.5 966,-131.5 966,-112.5 868,-112.5"/>
<text text-anchor="middle" x="917" y="-119.5" font-family="Helvetica,sans-Serif" font-size="10.00">Core/RaCore.hpp</text>
</a>
</g>
</g>
<!-- Node6&#45;&gt;Node7 -->
<g id="edge6" class="edge"><title>Node6&#45;&gt;Node7</title>
<path fill="none" stroke="midnightblue" d="M947.842,-173.975C942.549,-165.227 934.165,-151.369 927.473,-140.309"/>
<polygon fill="midnightblue" stroke="midnightblue" points="930.32,-138.253 922.148,-131.509 924.33,-141.877 930.32,-138.253"/>
</g>
<!-- Node14 -->
<g id="node14" class="node"><title>Node14</title>
<polygon fill="white" stroke="#bfbfbf" points="1268,-112.5 1268,-131.5 1336,-131.5 1336,-112.5 1268,-112.5"/>
<text text-anchor="middle" x="1302" y="-119.5" font-family="Helvetica,sans-Serif" font-size="10.00">Eigen/Core</text>
</g>
<!-- Node6&#45;&gt;Node14 -->
<g id="edge13" class="edge"><title>Node6&#45;&gt;Node14</title>
<path fill="none" stroke="midnightblue" d="M982.566,-173.927C990.463,-171.811 999.02,-169.675 1007,-168 1095.07,-149.519 1199.43,-135.401 1257.43,-128.233"/>
<polygon fill="midnightblue" stroke="midnightblue" points="1258.21,-131.664 1267.71,-126.976 1257.36,-124.716 1258.21,-131.664"/>
</g>
<!-- Node15 -->
<g id="node15" class="node"><title>Node15</title>
<polygon fill="white" stroke="#bfbfbf" points="1577,-112.5 1577,-131.5 1671,-131.5 1671,-112.5 1577,-112.5"/>
<text text-anchor="middle" x="1624" y="-119.5" font-family="Helvetica,sans-Serif" font-size="10.00">Eigen/Geometry</text>
</g>
<!-- Node6&#45;&gt;Node15 -->
<g id="edge14" class="edge"><title>Node6&#45;&gt;Node15</title>
<path fill="none" stroke="midnightblue" d="M980.804,-173.954C989.154,-171.682 998.386,-169.457 1007,-168 1210.9,-133.51 1457.1,-125.446 1566.64,-123.567"/>
<polygon fill="midnightblue" stroke="midnightblue" points="1566.87,-127.064 1576.81,-123.403 1566.75,-120.064 1566.87,-127.064"/>
</g>
<!-- Node16 -->
<g id="node16" class="node"><title>Node16</title>
<polygon fill="white" stroke="#bfbfbf" points="984,-112.5 984,-131.5 1064,-131.5 1064,-112.5 984,-112.5"/>
<text text-anchor="middle" x="1024" y="-119.5" font-family="Helvetica,sans-Serif" font-size="10.00">Eigen/Sparse</text>
</g>
<!-- Node6&#45;&gt;Node16 -->
<g id="edge15" class="edge"><title>Node6&#45;&gt;Node16</title>
<path fill="none" stroke="midnightblue" d="M963.173,-173.975C974.35,-164.608 992.517,-149.384 1006.09,-138.008"/>
<polygon fill="midnightblue" stroke="midnightblue" points="1008.43,-140.615 1013.85,-131.509 1003.93,-135.25 1008.43,-140.615"/>
</g>
<!-- Node8 -->
<g id="node8" class="node"><title>Node8</title>
<g id="a_node8"><a xlink:href="CoreMacros_8hpp.html" target="_top" xlink:title="Core/CoreMacros.hpp">
<polygon fill="white" stroke="black" points="1370,-56.5 1370,-75.5 1490,-75.5 1490,-56.5 1370,-56.5"/>
<text text-anchor="middle" x="1430" y="-63.5" font-family="Helvetica,sans-Serif" font-size="10.00">Core/CoreMacros.hpp</text>
</a>
</g>
</g>
<!-- Node7&#45;&gt;Node8 -->
<g id="edge7" class="edge"><title>Node7&#45;&gt;Node8</title>
<path fill="none" stroke="midnightblue" d="M966.021,-113.198C969.057,-112.775 972.068,-112.372 975,-112 1110.92,-94.7472 1270.38,-80.3032 1359.87,-72.723"/>
<polygon fill="midnightblue" stroke="midnightblue" points="1360.22,-76.2054 1369.89,-71.8774 1359.63,-69.2301 1360.22,-76.2054"/>
</g>
<!-- Node9 -->
<g id="node9" class="node"><title>Node9</title>
<polygon fill="white" stroke="#bfbfbf" points="1508,-0.5 1508,-19.5 1560,-19.5 1560,-0.5 1508,-0.5"/>
<text text-anchor="middle" x="1534" y="-7.5" font-family="Helvetica,sans-Serif" font-size="10.00">cassert</text>
</g>
<!-- Node8&#45;&gt;Node9 -->
<g id="edge8" class="edge"><title>Node8&#45;&gt;Node9</title>
<path fill="none" stroke="midnightblue" d="M1446.71,-56.324C1463.31,-47.7034 1489,-34.3643 1508.22,-24.3855"/>
<polygon fill="midnightblue" stroke="midnightblue" points="1510.07,-27.3689 1517.33,-19.6545 1506.84,-21.1565 1510.07,-27.3689"/>
</g>
<!-- Node10 -->
<g id="node10" class="node"><title>Node10</title>
<polygon fill="white" stroke="#bfbfbf" points="1301.5,-0.5 1301.5,-19.5 1346.5,-19.5 1346.5,-0.5 1301.5,-0.5"/>
<text text-anchor="middle" x="1324" y="-7.5" font-family="Helvetica,sans-Serif" font-size="10.00">cstdio</text>
</g>
<!-- Node8&#45;&gt;Node10 -->
<g id="edge9" class="edge"><title>Node8&#45;&gt;Node10</title>
<path fill="none" stroke="midnightblue" d="M1412.97,-56.324C1395.97,-47.6641 1369.62,-34.2424 1350.01,-24.249"/>
<polygon fill="midnightblue" stroke="midnightblue" points="1351.49,-21.0752 1340.99,-19.6545 1348.31,-27.3125 1351.49,-21.0752"/>
</g>
<!-- Node11 -->
<g id="node11" class="node"><title>Node11</title>
<polygon fill="white" stroke="#bfbfbf" points="1364.5,-0.5 1364.5,-19.5 1423.5,-19.5 1423.5,-0.5 1364.5,-0.5"/>
<text text-anchor="middle" x="1394" y="-7.5" font-family="Helvetica,sans-Serif" font-size="10.00">iostream</text>
</g>
<!-- Node8&#45;&gt;Node11 -->
<g id="edge10" class="edge"><title>Node8&#45;&gt;Node11</title>
<path fill="none" stroke="midnightblue" d="M1424.06,-56.083C1419.02,-48.5341 1411.66,-37.4948 1405.49,-28.2298"/>
<polygon fill="midnightblue" stroke="midnightblue" points="1408.29,-26.1301 1399.83,-19.7511 1402.47,-30.0131 1408.29,-26.1301"/>
</g>
<!-- Node12 -->
<g id="node12" class="node"><title>Node12</title>
<polygon fill="white" stroke="#bfbfbf" points="1937,-0.5 1937,-19.5 1993,-19.5 1993,-0.5 1937,-0.5"/>
<text text-anchor="middle" x="1965" y="-7.5" font-family="Helvetica,sans-Serif" font-size="10.00">sstream</text>
</g>
<!-- Node8&#45;&gt;Node12 -->
<g id="edge11" class="edge"><title>Node8&#45;&gt;Node12</title>
<path fill="none" stroke="midnightblue" d="M1490.07,-58.9366C1600.99,-47.741 1834.99,-24.1228 1926.84,-14.8515"/>
<polygon fill="midnightblue" stroke="midnightblue" points="1927.21,-18.3317 1936.81,-13.8451 1926.51,-11.3671 1927.21,-18.3317"/>
</g>
<!-- Node13 -->
<g id="node13" class="node"><title>Node13</title>
<polygon fill="white" stroke="#bfbfbf" points="1442,-0.5 1442,-19.5 1490,-19.5 1490,-0.5 1442,-0.5"/>
<text text-anchor="middle" x="1466" y="-7.5" font-family="Helvetica,sans-Serif" font-size="10.00">thread</text>
</g>
<!-- Node8&#45;&gt;Node13 -->
<g id="edge12" class="edge"><title>Node8&#45;&gt;Node13</title>
<path fill="none" stroke="midnightblue" d="M1435.94,-56.083C1440.98,-48.5341 1448.34,-37.4948 1454.51,-28.2298"/>
<polygon fill="midnightblue" stroke="midnightblue" points="1457.53,-30.0131 1460.17,-19.7511 1451.71,-26.1301 1457.53,-30.0131"/>
</g>
<!-- Node17&#45;&gt;Node8 -->
<g id="edge17" class="edge"><title>Node17&#45;&gt;Node8</title>
<path fill="none" stroke="midnightblue" d="M124.581,-115.982C136.459,-114.476 149.78,-112.968 162,-112 617.502,-75.9076 1167.35,-68.7602 1359.59,-67.3473"/>
<polygon fill="midnightblue" stroke="midnightblue" points="1359.86,-70.8455 1369.83,-67.275 1359.81,-63.8457 1359.86,-70.8455"/>
</g>
<!-- Node21&#45;&gt;Node4 -->
<g id="edge23" class="edge"><title>Node21&#45;&gt;Node4</title>
<path fill="none" stroke="midnightblue" d="M1601.98,-314.903C1325.54,-309.311 442.025,-289.668 386,-266 327.793,-241.411 334.107,-205.159 283,-168 265.822,-155.51 244.771,-144.136 228.167,-135.947"/>
<polygon fill="midnightblue" stroke="midnightblue" points="229.496,-132.702 218.968,-131.51 226.454,-139.007 229.496,-132.702"/>
</g>
<!-- Node21&#45;&gt;Node5 -->
<g id="edge25" class="edge"><title>Node21&#45;&gt;Node5</title>
<path fill="none" stroke="midnightblue" d="M1601.85,-315.32C1347.45,-311.353 583.33,-296.971 476,-266 418.426,-249.387 389.053,-250.841 359,-199 321.916,-135.029 461.347,-124.486 528.177,-123.041"/>
<polygon fill="midnightblue" stroke="midnightblue" points="528.299,-126.539 538.242,-122.88 528.187,-119.54 528.299,-126.539"/>
</g>
<!-- Node21&#45;&gt;Node7 -->
<g id="edge34" class="edge"><title>Node21&#45;&gt;Node7</title>
<path fill="none" stroke="midnightblue" d="M1601.79,-317.286C1418.89,-317.077 987.479,-305.095 899,-199 885.207,-182.461 895.457,-157.19 905.227,-140.388"/>
<polygon fill="midnightblue" stroke="midnightblue" points="908.388,-141.936 910.737,-131.605 902.458,-138.215 908.388,-141.936"/>
</g>
<!-- Node22 -->
<g id="node22" class="node"><title>Node22</title>
<polygon fill="white" stroke="#bfbfbf" points="1800,-112.5 1800,-131.5 1844,-131.5 1844,-112.5 1800,-112.5"/>
<text text-anchor="middle" x="1822" y="-119.5" font-family="Helvetica,sans-Serif" font-size="10.00">string</text>
</g>
<!-- Node21&#45;&gt;Node22 -->
<g id="edge24" class="edge"><title>Node21&#45;&gt;Node22</title>
<path fill="none" stroke="midnightblue" d="M1690.11,-307.936C1711.21,-278.351 1781.29,-180.086 1809.79,-140.124"/>
<polygon fill="midnightblue" stroke="midnightblue" points="1812.69,-142.081 1815.65,-131.907 1806.99,-138.016 1812.69,-142.081"/>
</g>
<!-- Node23 -->
<g id="node23" class="node"><title>Node23</title>
<g id="a_node23"><a xlink:href="VectorArray_8hpp.html" target="_top" xlink:title="Core/Containers/VectorArray.hpp">
<polygon fill="white" stroke="black" points="678.5,-241 678.5,-260 851.5,-260 851.5,-241 678.5,-241"/>
<text text-anchor="middle" x="765" y="-248" font-family="Helvetica,sans-Serif" font-size="10.00">Core/Containers/VectorArray.hpp</text>
</a>
</g>
</g>
<!-- Node21&#45;&gt;Node23 -->
<g id="edge26" class="edge"><title>Node21&#45;&gt;Node23</title>
<path fill="none" stroke="midnightblue" d="M1601.97,-313.634C1454.41,-307.99 1134.58,-293.524 866,-266 853.954,-264.765 841.139,-263.156 828.825,-261.461"/>
<polygon fill="midnightblue" stroke="midnightblue" points="829.018,-257.953 818.627,-260.022 828.041,-264.885 829.018,-257.953"/>
</g>
<!-- Node26 -->
<g id="node26" class="node"><title>Node26</title>
<g id="a_node26"><a xlink:href="Index_8hpp.html" target="_top" xlink:title="Core/Utils/Index.hpp">
<polygon fill="white" stroke="black" points="485.5,-241 485.5,-260 598.5,-260 598.5,-241 485.5,-241"/>
<text text-anchor="middle" x="542" y="-248" font-family="Helvetica,sans-Serif" font-size="10.00">Core/Utils/Index.hpp</text>
</a>
</g>
</g>
<!-- Node21&#45;&gt;Node26 -->
<g id="edge35" class="edge"><title>Node21&#45;&gt;Node26</title>
<path fill="none" stroke="midnightblue" d="M1601.98,-314.199C1429.21,-308.961 1015.19,-294.346 669,-266 649.318,-264.388 627.973,-262.145 608.5,-259.904"/>
<polygon fill="midnightblue" stroke="midnightblue" points="608.845,-256.421 598.507,-258.736 608.032,-263.373 608.845,-256.421"/>
</g>
<!-- Node29 -->
<g id="node29" class="node"><title>Node29</title>
<g id="a_node29"><a xlink:href="AssetData_8hpp.html" target="_top" xlink:title="Core/Asset/AssetData.hpp">
<polygon fill="white" stroke="black" points="1612.5,-174 1612.5,-193 1755.5,-193 1755.5,-174 1612.5,-174"/>
<text text-anchor="middle" x="1684" y="-181" font-family="Helvetica,sans-Serif" font-size="10.00">Core/Asset/AssetData.hpp</text>
</a>
</g>
</g>
<!-- Node21&#45;&gt;Node29 -->
<g id="edge39" class="edge"><title>Node21&#45;&gt;Node29</title>
<path fill="none" stroke="midnightblue" d="M1684,-307.839C1684,-286.674 1684,-231.948 1684,-203.033"/>
<polygon fill="midnightblue" stroke="midnightblue" points="1687.5,-203.021 1684,-193.021 1680.5,-203.021 1687.5,-203.021"/>
</g>
<!-- Node30 -->
<g id="node30" class="node"><title>Node30</title>
<g id="a_node30"><a xlink:href="MaterialData_8hpp.html" target="_top" xlink:title="Core/Asset/MaterialData.hpp">
<polygon fill="white" stroke="black" points="1808.5,-241 1808.5,-260 1963.5,-260 1963.5,-241 1808.5,-241"/>
<text text-anchor="middle" x="1886" y="-248" font-family="Helvetica,sans-Serif" font-size="10.00">Core/Asset/MaterialData.hpp</text>
</a>
</g>
</g>
<!-- Node21&#45;&gt;Node30 -->
<g id="edge42" class="edge"><title>Node21&#45;&gt;Node30</title>
<path fill="none" stroke="midnightblue" d="M1710.82,-307.869C1746.54,-296.376 1809.84,-276.008 1849.77,-263.159"/>
<polygon fill="midnightblue" stroke="midnightblue" points="1850.94,-266.459 1859.39,-260.064 1848.8,-259.795 1850.94,-266.459"/>
</g>
<!-- Node32 -->
<g id="node32" class="node"><title>Node32</title>
<g id="a_node32"><a xlink:href="GeometryData_8inl.html" target="_top" xlink:title="Core/Asset/GeometryData.inl">
<polygon fill="white" stroke="black" points="2020.5,-241 2020.5,-260 2177.5,-260 2177.5,-241 2020.5,-241"/>
<text text-anchor="middle" x="2099" y="-248" font-family="Helvetica,sans-Serif" font-size="10.00">Core/Asset/GeometryData.inl</text>
</a>
</g>
</g>
<!-- Node21&#45;&gt;Node32 -->
<g id="edge49" class="edge"><title>Node21&#45;&gt;Node32</title>
<path fill="none" stroke="midnightblue" d="M1733.94,-307.936C1807.82,-295.96 1946.3,-274.256 2029.88,-261.537"/>
<polygon fill="midnightblue" stroke="midnightblue" points="2030.43,-264.994 2039.79,-260.032 2029.38,-258.073 2030.43,-264.994"/>
</g>
<!-- Node23&#45;&gt;Node5 -->
<g id="edge33" class="edge"><title>Node23&#45;&gt;Node5</title>
<path fill="none" stroke="midnightblue" d="M678.422,-242.439C645.815,-235.698 610.689,-222.938 586,-199 570.435,-183.909 564.933,-158.822 563.006,-141.628"/>
<polygon fill="midnightblue" stroke="midnightblue" points="566.494,-141.332 562.186,-131.653 559.517,-141.906 566.494,-141.332"/>
</g>
<!-- Node23&#45;&gt;Node6 -->
<g id="edge32" class="edge"><title>Node23&#45;&gt;Node6</title>
<path fill="none" stroke="midnightblue" d="M789.965,-240.869C822.924,-229.473 881.118,-209.353 918.33,-196.487"/>
<polygon fill="midnightblue" stroke="midnightblue" points="919.924,-199.639 928.231,-193.064 917.636,-193.024 919.924,-199.639"/>
</g>
<!-- Node23&#45;&gt;Node7 -->
<g id="edge31" class="edge"><title>Node23&#45;&gt;Node7</title>
<path fill="none" stroke="midnightblue" d="M775.448,-240.805C800.938,-219.591 866.576,-164.965 898.718,-138.215"/>
<polygon fill="midnightblue" stroke="midnightblue" points="901.032,-140.843 906.479,-131.756 896.554,-135.462 901.032,-140.843"/>
</g>
<!-- Node24 -->
<g id="node24" class="node"><title>Node24</title>
<g id="a_node24"><a xlink:href="AlignedStdVector_8hpp.html" target="_top" xlink:title="Core/Containers/AlignedStd\lVector.hpp">
<polygon fill="white" stroke="black" points="627.5,-168.5 627.5,-198.5 776.5,-198.5 776.5,-168.5 627.5,-168.5"/>
<text text-anchor="start" x="635.5" y="-186.5" font-family="Helvetica,sans-Serif" font-size="10.00">Core/Containers/AlignedStd</text>
<text text-anchor="middle" x="702" y="-175.5" font-family="Helvetica,sans-Serif" font-size="10.00">Vector.hpp</text>
</a>
</g>
</g>
<!-- Node23&#45;&gt;Node24 -->
<g id="edge27" class="edge"><title>Node23&#45;&gt;Node24</title>
<path fill="none" stroke="midnightblue" d="M756.504,-240.734C747.907,-231.865 734.286,-217.811 722.812,-205.972"/>
<polygon fill="midnightblue" stroke="midnightblue" points="725.129,-203.334 715.656,-198.589 720.102,-208.206 725.129,-203.334"/>
</g>
<!-- Node24&#45;&gt;Node5 -->
<g id="edge30" class="edge"><title>Node24&#45;&gt;Node5</title>
<path fill="none" stroke="midnightblue" d="M668.822,-168.399C645.437,-158.461 614.388,-145.265 591.794,-135.662"/>
<polygon fill="midnightblue" stroke="midnightblue" points="592.944,-132.348 582.371,-131.658 590.206,-138.79 592.944,-132.348"/>
</g>
<!-- Node24&#45;&gt;Node7 -->
<g id="edge28" class="edge"><title>Node24&#45;&gt;Node7</title>
<path fill="none" stroke="midnightblue" d="M752.68,-168.475C790.42,-158.03 841.271,-143.958 876.36,-134.247"/>
<polygon fill="midnightblue" stroke="midnightblue" points="877.558,-137.547 886.263,-131.506 875.691,-130.8 877.558,-137.547"/>
</g>
<!-- Node25 -->
<g id="node25" class="node"><title>Node25</title>
<polygon fill="white" stroke="#bfbfbf" points="655.5,-112.5 655.5,-131.5 748.5,-131.5 748.5,-112.5 655.5,-112.5"/>
<text text-anchor="middle" x="702" y="-119.5" font-family="Helvetica,sans-Serif" font-size="10.00">Eigen/StdVector</text>
</g>
<!-- Node24&#45;&gt;Node25 -->
<g id="edge29" class="edge"><title>Node24&#45;&gt;Node25</title>
<path fill="none" stroke="midnightblue" d="M702,-168.399C702,-160.466 702,-150.458 702,-141.858"/>
<polygon fill="midnightblue" stroke="midnightblue" points="705.5,-141.658 702,-131.658 698.5,-141.658 705.5,-141.658"/>
</g>
<!-- Node26&#45;&gt;Node7 -->
<g id="edge36" class="edge"><title>Node26&#45;&gt;Node7</title>
<path fill="none" stroke="midnightblue" d="M598.869,-245.194C649.675,-239.632 725.109,-227.068 785,-199 805.05,-189.604 805.253,-179.783 824,-168 844.044,-155.401 868.142,-143.832 886.785,-135.579"/>
<polygon fill="midnightblue" stroke="midnightblue" points="888.212,-138.775 895.986,-131.578 885.42,-132.356 888.212,-138.775"/>
</g>
<!-- Node27 -->
<g id="node27" class="node"><title>Node27</title>
<polygon fill="white" stroke="#bfbfbf" points="368,-174 368,-193 410,-193 410,-174 368,-174"/>
<text text-anchor="middle" x="389" y="-181" font-family="Helvetica,sans-Serif" font-size="10.00">limits</text>
</g>
<!-- Node26&#45;&gt;Node27 -->
<g id="edge37" class="edge"><title>Node26&#45;&gt;Node27</title>
<path fill="none" stroke="midnightblue" d="M520.056,-240.956C495.321,-231.218 453.99,-214.622 419,-199 417.841,-198.483 416.661,-197.947 415.471,-197.401"/>
<polygon fill="midnightblue" stroke="midnightblue" points="416.904,-194.208 406.366,-193.114 413.922,-200.541 416.904,-194.208"/>
</g>
<!-- Node28 -->
<g id="node28" class="node"><title>Node28</title>
<g id="a_node28"><a xlink:href="Index_8inl.html" target="_top" xlink:title="Core/Utils/Index.inl">
<polygon fill="white" stroke="black" points="428.5,-174 428.5,-193 533.5,-193 533.5,-174 428.5,-174"/>
<text text-anchor="middle" x="481" y="-181" font-family="Helvetica,sans-Serif" font-size="10.00">Core/Utils/Index.inl</text>
</a>
</g>
</g>
<!-- Node26&#45;&gt;Node28 -->
<g id="edge38" class="edge"><title>Node26&#45;&gt;Node28</title>
<path fill="none" stroke="midnightblue" d="M533.773,-240.734C524.17,-230.5 508.088,-213.364 496.196,-200.692"/>
<polygon fill="midnightblue" stroke="midnightblue" points="498.492,-198.024 489.096,-193.127 493.387,-202.814 498.492,-198.024"/>
</g>
<!-- Node29&#45;&gt;Node7 -->
<g id="edge40" class="edge"><title>Node29&#45;&gt;Node7</title>
<path fill="none" stroke="midnightblue" d="M1641.68,-173.937C1629.26,-171.692 1615.63,-169.487 1603,-168 1328.6,-135.693 1254.74,-160.864 976.006,-131.995"/>
<polygon fill="midnightblue" stroke="midnightblue" points="976.315,-128.508 966.004,-130.945 975.584,-135.47 976.315,-128.508"/>
</g>
<!-- Node29&#45;&gt;Node22 -->
<g id="edge41" class="edge"><title>Node29&#45;&gt;Node22</title>
<path fill="none" stroke="midnightblue" d="M1703.77,-173.975C1727.14,-163.901 1766.21,-147.053 1793,-135.502"/>
<polygon fill="midnightblue" stroke="midnightblue" points="1794.47,-138.682 1802.26,-131.509 1791.7,-132.254 1794.47,-138.682"/>
</g>
<!-- Node30&#45;&gt;Node5 -->
<g id="edge44" class="edge"><title>Node30&#45;&gt;Node5</title>
<path fill="none" stroke="midnightblue" d="M1808.09,-246.62C1533.19,-236.43 624.606,-202.505 618,-199 605.626,-192.435 584.811,-160.755 572.343,-140.425"/>
<polygon fill="midnightblue" stroke="midnightblue" points="575.279,-138.516 567.114,-131.765 569.286,-142.134 575.279,-138.516"/>
</g>
<!-- Node30&#45;&gt;Node7 -->
<g id="edge46" class="edge"><title>Node30&#45;&gt;Node7</title>
<path fill="none" stroke="midnightblue" d="M1876.94,-240.735C1858.02,-223.075 1812.14,-183.576 1765,-168 1601.15,-113.857 1165.97,-148.205 976.519,-131.973"/>
<polygon fill="midnightblue" stroke="midnightblue" points="976.595,-128.465 966.314,-131.024 975.948,-135.435 976.595,-128.465"/>
</g>
<!-- Node30&#45;&gt;Node22 -->
<g id="edge43" class="edge"><title>Node30&#45;&gt;Node22</title>
<path fill="none" stroke="midnightblue" d="M1881.6,-240.805C1871.23,-220.313 1845.09,-168.645 1831.13,-141.042"/>
<polygon fill="midnightblue" stroke="midnightblue" points="1834.07,-139.099 1826.43,-131.756 1827.82,-142.259 1834.07,-139.099"/>
</g>
<!-- Node30&#45;&gt;Node29 -->
<g id="edge45" class="edge"><title>Node30&#45;&gt;Node29</title>
<path fill="none" stroke="midnightblue" d="M1859.18,-240.869C1823.46,-229.376 1760.16,-209.008 1720.23,-196.159"/>
<polygon fill="midnightblue" stroke="midnightblue" points="1721.2,-192.795 1710.61,-193.064 1719.06,-199.459 1721.2,-192.795"/>
</g>
<!-- Node31 -->
<g id="node31" class="node"><title>Node31</title>
<g id="a_node31"><a xlink:href="MaterialData_8inl.html" target="_top" xlink:title="Core/Asset/MaterialData.inl">
<polygon fill="white" stroke="black" points="1888.5,-174 1888.5,-193 2035.5,-193 2035.5,-174 1888.5,-174"/>
<text text-anchor="middle" x="1962" y="-181" font-family="Helvetica,sans-Serif" font-size="10.00">Core/Asset/MaterialData.inl</text>
</a>
</g>
</g>
<!-- Node30&#45;&gt;Node31 -->
<g id="edge47" class="edge"><title>Node30&#45;&gt;Node31</title>
<path fill="none" stroke="midnightblue" d="M1891.46,-240.734C1901.65,-230.111 1922.44,-212.049 1938.97,-199.264"/>
<polygon fill="midnightblue" stroke="midnightblue" points="1941.26,-201.929 1947.15,-193.127 1937.05,-196.329 1941.26,-201.929"/>
</g>
<!-- Node31&#45;&gt;Node30 -->
<g id="edge48" class="edge"><title>Node31&#45;&gt;Node30</title>
<path fill="none" stroke="midnightblue" d="M1956.67,-193.127C1946.58,-203.685 1925.81,-221.738 1909.24,-234.568"/>
<polygon fill="midnightblue" stroke="midnightblue" points="1906.93,-231.928 1901.04,-240.734 1911.14,-237.524 1906.93,-231.928"/>
</g>
<!-- Node32&#45;&gt;Node21 -->
<g id="edge50" class="edge"><title>Node32&#45;&gt;Node21</title>
<path fill="none" stroke="midnightblue" d="M2049.27,-260.032C1975.5,-271.989 1837.03,-293.693 1753.35,-306.428"/>
<polygon fill="midnightblue" stroke="midnightblue" points="1752.79,-302.974 1743.43,-307.936 1753.84,-309.894 1752.79,-302.974"/>
</g>
<!-- Node33 -->
<g id="node33" class="node"><title>Node33</title>
<g id="a_node33"><a xlink:href="Color_8hpp.html" target="_top" xlink:title="Core/Utils/Color.hpp">
<polygon fill="white" stroke="black" points="2053.5,-174 2053.5,-193 2164.5,-193 2164.5,-174 2053.5,-174"/>
<text text-anchor="middle" x="2109" y="-181" font-family="Helvetica,sans-Serif" font-size="10.00">Core/Utils/Color.hpp</text>
</a>
</g>
</g>
<!-- Node32&#45;&gt;Node33 -->
<g id="edge51" class="edge"><title>Node32&#45;&gt;Node33</title>
<path fill="none" stroke="midnightblue" d="M2100.35,-240.734C2101.82,-231.183 2104.21,-215.618 2106.11,-203.283"/>
<polygon fill="midnightblue" stroke="midnightblue" points="2109.61,-203.543 2107.67,-193.127 2102.69,-202.479 2109.61,-203.543"/>
</g>
<!-- Node32&#45;&gt;Node35 -->
<g id="edge56" class="edge"><title>Node32&#45;&gt;Node35</title>
<path fill="none" stroke="midnightblue" d="M2137.65,-240.98C2182.5,-231.057 2258.66,-214.097 2324,-199 2329.04,-197.835 2334.31,-196.603 2339.56,-195.369"/>
<polygon fill="midnightblue" stroke="midnightblue" points="2340.61,-198.716 2349.54,-193.01 2339,-191.904 2340.61,-198.716"/>
</g>
<!-- Node38 -->
<g id="node38" class="node"><title>Node38</title>
<polygon fill="white" stroke="#bfbfbf" points="2253,-174 2253,-193 2315,-193 2315,-174 2253,-174"/>
<text text-anchor="middle" x="2284" y="-181" font-family="Helvetica,sans-Serif" font-size="10.00">algorithm</text>
</g>
<!-- Node32&#45;&gt;Node38 -->
<g id="edge62" class="edge"><title>Node32&#45;&gt;Node38</title>
<path fill="none" stroke="midnightblue" d="M2123.92,-240.927C2152.84,-230.957 2201.93,-213.951 2244,-199 2246.23,-198.207 2248.53,-197.385 2250.85,-196.554"/>
<polygon fill="midnightblue" stroke="midnightblue" points="2252.11,-199.821 2260.33,-193.137 2249.73,-193.235 2252.11,-199.821"/>
</g>
<!-- Node39 -->
<g id="node39" class="node"><title>Node39</title>
<polygon fill="white" stroke="#bfbfbf" points="2183,-174 2183,-193 2235,-193 2235,-174 2183,-174"/>
<text text-anchor="middle" x="2209" y="-181" font-family="Helvetica,sans-Serif" font-size="10.00">iterator</text>
</g>
<!-- Node32&#45;&gt;Node39 -->
<g id="edge63" class="edge"><title>Node32&#45;&gt;Node39</title>
<path fill="none" stroke="midnightblue" d="M2113.84,-240.734C2132.31,-229.818 2164.07,-211.049 2185.78,-198.221"/>
<polygon fill="midnightblue" stroke="midnightblue" points="2187.57,-201.228 2194.4,-193.127 2184.01,-195.201 2187.57,-201.228"/>
</g>
<!-- Node33&#45;&gt;Node8 -->
<g id="edge52" class="edge"><title>Node33&#45;&gt;Node8</title>
<path fill="none" stroke="midnightblue" d="M2083.53,-173.994C2037.87,-159.084 1938.83,-128.271 1853,-112 1730.11,-88.7024 1584.68,-76.5352 1500.32,-70.9683"/>
<polygon fill="midnightblue" stroke="midnightblue" points="1500.55,-67.4757 1490.34,-70.3218 1500.1,-74.4611 1500.55,-67.4757"/>
</g>
<!-- Node33&#45;&gt;Node14 -->
<g id="edge53" class="edge"><title>Node33&#45;&gt;Node14</title>
<path fill="none" stroke="midnightblue" d="M2075.97,-173.942C2066.07,-171.669 2055.15,-169.448 2045,-168 1908.78,-148.575 1485.06,-130.329 1346.41,-124.742"/>
<polygon fill="midnightblue" stroke="midnightblue" points="1346.29,-121.234 1336.16,-124.331 1346.01,-128.229 1346.29,-121.234"/>
</g>
<!-- Node33&#45;&gt;Node15 -->
<g id="edge54" class="edge"><title>Node33&#45;&gt;Node15</title>
<path fill="none" stroke="midnightblue" d="M2074.6,-173.934C2065.06,-171.769 2054.67,-169.606 2045,-168 1915.83,-146.539 1762.58,-133.157 1681.31,-127.001"/>
<polygon fill="midnightblue" stroke="midnightblue" points="1681.51,-123.507 1671.28,-126.251 1680.99,-130.487 1681.51,-123.507"/>
</g>
<!-- Node34 -->
<g id="node34" class="node"><title>Node34</title>
<polygon fill="white" stroke="#bfbfbf" points="2082,-112.5 2082,-131.5 2136,-131.5 2136,-112.5 2082,-112.5"/>
<text text-anchor="middle" x="2109" y="-119.5" font-family="Helvetica,sans-Serif" font-size="10.00">random</text>
</g>
<!-- Node33&#45;&gt;Node34 -->
<g id="edge55" class="edge"><title>Node33&#45;&gt;Node34</title>
<path fill="none" stroke="midnightblue" d="M2109,-173.975C2109,-165.58 2109,-152.481 2109,-141.663"/>
<polygon fill="midnightblue" stroke="midnightblue" points="2112.5,-141.509 2109,-131.509 2105.5,-141.509 2112.5,-141.509"/>
</g>
<!-- Node35&#45;&gt;Node7 -->
<g id="edge57" class="edge"><title>Node35&#45;&gt;Node7</title>
<path fill="none" stroke="midnightblue" d="M2354.51,-173.947C2344.83,-171.585 2334.04,-169.313 2324,-168 1732.63,-90.6701 1574.1,-185.022 976.475,-132.001"/>
<polygon fill="midnightblue" stroke="midnightblue" points="976.581,-128.496 966.308,-131.088 975.955,-135.468 976.581,-128.496"/>
</g>
<!-- Node35&#45;&gt;Node12 -->
<g id="edge59" class="edge"><title>Node35&#45;&gt;Node12</title>
<path fill="none" stroke="midnightblue" d="M2381.95,-173.638C2376.31,-158.599 2362.79,-128.147 2341,-112 2236.43,-34.5315 2076.48,-16.4599 2003.59,-12.2609"/>
<polygon fill="midnightblue" stroke="midnightblue" points="2003.66,-8.75956 1993.49,-11.7366 2003.29,-15.7502 2003.66,-8.75956"/>
</g>
<!-- Node35&#45;&gt;Node22 -->
<g id="edge61" class="edge"><title>Node35&#45;&gt;Node22</title>
<path fill="none" stroke="midnightblue" d="M2352.88,-173.951C2343.62,-171.734 2333.45,-169.539 2324,-168 2148.31,-139.396 1934.84,-127.836 1854.58,-124.295"/>
<polygon fill="midnightblue" stroke="midnightblue" points="1854.3,-120.78 1844.16,-123.847 1854,-127.773 1854.3,-120.78"/>
</g>
<!-- Node36 -->
<g id="node36" class="node"><title>Node36</title>
<polygon fill="white" stroke="#bfbfbf" points="2388,-112.5 2388,-131.5 2432,-131.5 2432,-112.5 2388,-112.5"/>
<text text-anchor="middle" x="2410" y="-119.5" font-family="Helvetica,sans-Serif" font-size="10.00">ctime</text>
</g>
<!-- Node35&#45;&gt;Node36 -->
<g id="edge58" class="edge"><title>Node35&#45;&gt;Node36</title>
<path fill="none" stroke="midnightblue" d="M2388.58,-173.975C2392.18,-165.404 2397.85,-151.927 2402.44,-140.983"/>
<polygon fill="midnightblue" stroke="midnightblue" points="2405.78,-142.084 2406.42,-131.509 2399.32,-139.373 2405.78,-142.084"/>
</g>
<!-- Node37 -->
<g id="node37" class="node"><title>Node37</title>
<polygon fill="white" stroke="#bfbfbf" points="2282.5,-112.5 2282.5,-131.5 2331.5,-131.5 2331.5,-112.5 2282.5,-112.5"/>
<text text-anchor="middle" x="2307" y="-119.5" font-family="Helvetica,sans-Serif" font-size="10.00">stdio.h</text>
</g>
<!-- Node35&#45;&gt;Node37 -->
<g id="edge60" class="edge"><title>Node35&#45;&gt;Node37</title>
<path fill="none" stroke="midnightblue" d="M2373.82,-173.975C2361.43,-164.52 2341.21,-149.096 2326.25,-137.687"/>
<polygon fill="midnightblue" stroke="midnightblue" points="2328.23,-134.791 2318.15,-131.509 2323.98,-140.357 2328.23,-134.791"/>
</g>
<!-- Node40&#45;&gt;Node30 -->
<g id="edge66" class="edge"><title>Node40&#45;&gt;Node30</title>
<path fill="none" stroke="midnightblue" d="M2081.28,-302.476C2035.48,-290.521 1970.56,-273.573 1928.36,-262.558"/>
<polygon fill="midnightblue" stroke="midnightblue" points="1929.23,-259.168 1918.67,-260.029 1927.46,-265.941 1929.23,-259.168"/>
</g>
<!-- Node40&#45;&gt;Node33 -->
<g id="edge67" class="edge"><title>Node40&#45;&gt;Node33</title>
<path fill="none" stroke="midnightblue" d="M2062.48,-302.474C2042.83,-294.998 2023.76,-283.544 2012,-266 2004.33,-254.556 2004.85,-246.779 2012,-235 2023.29,-216.393 2043.92,-204.325 2063.26,-196.669"/>
<polygon fill="midnightblue" stroke="midnightblue" points="2064.7,-199.869 2072.9,-193.157 2062.31,-193.291 2064.7,-199.869"/>
</g>
<!-- Node41 -->
<g id="node41" class="node"><title>Node41</title>
<g id="a_node41"><a xlink:href="BlinnPhongMaterialData_8inl.html" target="_top" xlink:title="Core/Asset/BlinnPhongMaterial\lData.inl">
<polygon fill="white" stroke="black" points="2196,-235.5 2196,-265.5 2360,-265.5 2360,-235.5 2196,-235.5"/>
<text text-anchor="start" x="2204" y="-253.5" font-family="Helvetica,sans-Serif" font-size="10.00">Core/Asset/BlinnPhongMaterial</text>
<text text-anchor="middle" x="2278" y="-242.5" font-family="Helvetica,sans-Serif" font-size="10.00">Data.inl</text>
</a>
</g>
</g>
<!-- Node40&#45;&gt;Node41 -->
<g id="edge68" class="edge"><title>Node40&#45;&gt;Node41</title>
<path fill="none" stroke="midnightblue" d="M2160.35,-302.396C2180.26,-292.771 2208.35,-279.936 2232.14,-269.564"/>
<polygon fill="midnightblue" stroke="midnightblue" points="2233.57,-272.759 2241.36,-265.577 2230.79,-266.335 2233.57,-272.759"/>
</g>
<!-- Node41&#45;&gt;Node35 -->
<g id="edge70" class="edge"><title>Node41&#45;&gt;Node35</title>
<path fill="none" stroke="midnightblue" d="M2301.22,-235.396C2319.33,-224.395 2344.34,-209.2 2362.31,-198.282"/>
<polygon fill="midnightblue" stroke="midnightblue" points="2364.27,-201.19 2371,-193.007 2360.63,-195.208 2364.27,-201.19"/>
</g>
<!-- Node41&#45;&gt;Node40 -->
<g id="edge69" class="edge"><title>Node41&#45;&gt;Node40</title>
<path fill="none" stroke="midnightblue" d="M2252.71,-265.577C2232.81,-275.195 2204.72,-288.029 2180.93,-298.407"/>
<polygon fill="midnightblue" stroke="midnightblue" points="2179.5,-295.213 2171.71,-302.396 2182.27,-301.637 2179.5,-295.213"/>
</g>
<!-- Node42&#45;&gt;Node6 -->
<g id="edge77" class="edge"><title>Node42&#45;&gt;Node6</title>
<path fill="none" stroke="midnightblue" d="M1289.28,-240.968C1214.77,-232.659 1103.03,-218.439 1007,-199 1002.2,-198.028 997.191,-196.876 992.246,-195.652"/>
<polygon fill="midnightblue" stroke="midnightblue" points="992.826,-192.187 982.269,-193.075 991.076,-198.965 992.826,-192.187"/>
</g>
<!-- Node42&#45;&gt;Node33 -->
<g id="edge78" class="edge"><title>Node42&#45;&gt;Node33</title>
<path fill="none" stroke="midnightblue" d="M1470.6,-246.686C1601.82,-241.873 1842.09,-229.44 2045,-199 2051.74,-197.989 2058.82,-196.66 2065.72,-195.215"/>
<polygon fill="midnightblue" stroke="midnightblue" points="2066.61,-198.602 2075.63,-193.041 2065.11,-191.765 2066.61,-198.602"/>
</g>
<!-- Node43 -->
<g id="node43" class="node"><title>Node43</title>
<polygon fill="white" stroke="#bfbfbf" points="1016,-174 1016,-193 1108,-193 1108,-174 1016,-174"/>
<text text-anchor="middle" x="1062" y="-181" font-family="Helvetica,sans-Serif" font-size="10.00">assimp/color4.h</text>
</g>
<!-- Node42&#45;&gt;Node43 -->
<g id="edge72" class="edge"><title>Node42&#45;&gt;Node43</title>
<path fill="none" stroke="midnightblue" d="M1325.16,-240.993C1273.58,-231.607 1189.18,-215.616 1117,-199 1112.37,-197.935 1107.54,-196.758 1102.75,-195.549"/>
<polygon fill="midnightblue" stroke="midnightblue" points="1103.6,-192.153 1093.04,-193.048 1101.85,-198.932 1103.6,-192.153"/>
</g>
<!-- Node44 -->
<g id="node44" class="node"><title>Node44</title>
<polygon fill="white" stroke="#bfbfbf" points="1126.5,-174 1126.5,-193 1237.5,-193 1237.5,-174 1126.5,-174"/>
<text text-anchor="middle" x="1182" y="-181" font-family="Helvetica,sans-Serif" font-size="10.00">assimp/matrix4x4.h</text>
</g>
<!-- Node42&#45;&gt;Node44 -->
<g id="edge73" class="edge"><title>Node42&#45;&gt;Node44</title>
<path fill="none" stroke="midnightblue" d="M1347.64,-240.869C1314.01,-229.424 1254.52,-209.181 1216.74,-196.322"/>
<polygon fill="midnightblue" stroke="midnightblue" points="1217.76,-192.972 1207.16,-193.064 1215.5,-199.599 1217.76,-192.972"/>
</g>
<!-- Node45 -->
<g id="node45" class="node"><title>Node45</title>
<polygon fill="white" stroke="#bfbfbf" points="1255.5,-174 1255.5,-193 1370.5,-193 1370.5,-174 1255.5,-174"/>
<text text-anchor="middle" x="1313" y="-181" font-family="Helvetica,sans-Serif" font-size="10.00">assimp/quaternion.h</text>
</g>
<!-- Node42&#45;&gt;Node45 -->
<g id="edge74" class="edge"><title>Node42&#45;&gt;Node45</title>
<path fill="none" stroke="midnightblue" d="M1364.91,-240.734C1355.46,-230.5 1339.64,-213.364 1327.95,-200.692"/>
<polygon fill="midnightblue" stroke="midnightblue" points="1330.32,-198.101 1320.96,-193.127 1325.17,-202.849 1330.32,-198.101"/>
</g>
<!-- Node46 -->
<g id="node46" class="node"><title>Node46</title>
<polygon fill="white" stroke="#bfbfbf" points="1388.5,-174 1388.5,-193 1477.5,-193 1477.5,-174 1388.5,-174"/>
<text text-anchor="middle" x="1433" y="-181" font-family="Helvetica,sans-Serif" font-size="10.00">assimp/types.h</text>
</g>
<!-- Node42&#45;&gt;Node46 -->
<g id="edge75" class="edge"><title>Node42&#45;&gt;Node46</title>
<path fill="none" stroke="midnightblue" d="M1381.09,-240.734C1390.54,-230.5 1406.36,-213.364 1418.05,-200.692"/>
<polygon fill="midnightblue" stroke="midnightblue" points="1420.83,-202.849 1425.04,-193.127 1415.68,-198.101 1420.83,-202.849"/>
</g>
<!-- Node47 -->
<g id="node47" class="node"><title>Node47</title>
<polygon fill="white" stroke="#bfbfbf" points="1495.5,-174 1495.5,-193 1594.5,-193 1594.5,-174 1495.5,-174"/>
<text text-anchor="middle" x="1545" y="-181" font-family="Helvetica,sans-Serif" font-size="10.00">assimp/vector3.h</text>
</g>
<!-- Node42&#45;&gt;Node47 -->
<g id="edge76" class="edge"><title>Node42&#45;&gt;Node47</title>
<path fill="none" stroke="midnightblue" d="M1395.84,-240.869C1425.87,-229.522 1478.78,-209.525 1512.84,-196.652"/>
<polygon fill="midnightblue" stroke="midnightblue" points="1514.22,-199.873 1522.34,-193.064 1511.75,-193.325 1514.22,-199.873"/>
</g>
</g>
</svg>
