<?xml version="1.0" encoding="UTF-8" standalone="no"?>
<!DOCTYPE svg PUBLIC "-//W3C//DTD SVG 1.1//EN"
 "http://www.w3.org/Graphics/SVG/1.1/DTD/svg11.dtd">
<!-- Generated by graphviz version 2.38.0 (20140413.2041)
 -->
<!-- Title: /home/travis/build/STORM&#45;IRIT/Radium&#45;Engine/src/Core/Utils/Attribs.hpp Pages: 1 -->
<svg width="765pt" height="341pt"
 viewBox="0.00 0.00 764.94 341.00" xmlns="http://www.w3.org/2000/svg" xmlns:xlink="http://www.w3.org/1999/xlink">
<g id="graph0" class="graph" transform="scale(1 1) rotate(0) translate(4 337)">
<title>/home/travis/build/STORM&#45;IRIT/Radium&#45;Engine/src/Core/Utils/Attribs.hpp</title>
<polygon fill="white" stroke="none" points="-4,4 -4,-337 760.941,-337 760.941,4 -4,4"/>
<!-- Node1 -->
<g id="node1" class="node"><title>Node1</title>
<polygon fill="#bfbfbf" stroke="black" points="474,-291.5 474,-332.5 622,-332.5 622,-291.5 474,-291.5"/>
<text text-anchor="start" x="482" y="-320.5" font-family="Helvetica,sans-Serif" font-size="10.00">/home/travis/build</text>
<text text-anchor="start" x="482" y="-309.5" font-family="Helvetica,sans-Serif" font-size="10.00">/STORM&#45;IRIT/Radium&#45;Engine</text>
<text text-anchor="middle" x="548" y="-298.5" font-family="Helvetica,sans-Serif" font-size="10.00">/src/Core/Utils/Attribs.hpp</text>
</g>
<!-- Node2 -->
<g id="node2" class="node"><title>Node2</title>
<g id="a_node2"><a xlink:href="VectorArray_8hpp.html" target="_top" xlink:title="Core/Containers/VectorArray.hpp">
<polygon fill="white" stroke="black" points="321.5,-235.5 321.5,-254.5 494.5,-254.5 494.5,-235.5 321.5,-235.5"/>
<text text-anchor="middle" x="408" y="-242.5" font-family="Helvetica,sans-Serif" font-size="10.00">Core/Containers/VectorArray.hpp</text>
</a>
</g>
</g>
<!-- Node1&#45;&gt;Node2 -->
<g id="edge1" class="edge"><title>Node1&#45;&gt;Node2</title>
<path fill="none" stroke="midnightblue" d="M505.995,-291.498C483.292,-280.957 455.886,-268.233 435.835,-258.923"/>
<polygon fill="midnightblue" stroke="midnightblue" points="437.18,-255.689 426.636,-254.652 434.232,-262.038 437.18,-255.689"/>
</g>
<!-- Node4 -->
<g id="node4" class="node"><title>Node4</title>
<g id="a_node4"><a xlink:href="RaCore_8hpp.html" target="_top" xlink:title="Core/RaCore.hpp">
<polygon fill="white" stroke="black" points="472,-112.5 472,-131.5 570,-131.5 570,-112.5 472,-112.5"/>
<text text-anchor="middle" x="521" y="-119.5" font-family="Helvetica,sans-Serif" font-size="10.00">Core/RaCore.hpp</text>
</a>
</g>
</g>
<!-- Node1&#45;&gt;Node4 -->
<g id="edge19" class="edge"><title>Node1&#45;&gt;Node4</title>
<path fill="none" stroke="midnightblue" d="M545.162,-291.236C539.933,-254.827 528.845,-177.623 523.712,-141.883"/>
<polygon fill="midnightblue" stroke="midnightblue" points="527.156,-141.242 522.27,-131.841 520.227,-142.237 527.156,-141.242"/>
</g>
<!-- Node17 -->
<g id="node17" class="node"><title>Node17</title>
<g id="a_node17"><a xlink:href="Index_8hpp.html" target="_top" xlink:title="Core/Utils/Index.hpp">
<polygon fill="white" stroke="black" points="620.5,-235.5 620.5,-254.5 733.5,-254.5 733.5,-235.5 620.5,-235.5"/>
<text text-anchor="middle" x="677" y="-242.5" font-family="Helvetica,sans-Serif" font-size="10.00">Core/Utils/Index.hpp</text>
</a>
</g>
</g>
<!-- Node1&#45;&gt;Node17 -->
<g id="edge20" class="edge"><title>Node1&#45;&gt;Node17</title>
<path fill="none" stroke="midnightblue" d="M586.704,-291.498C607.433,-281.053 632.418,-268.464 650.846,-259.178"/>
<polygon fill="midnightblue" stroke="midnightblue" points="652.473,-262.278 659.828,-254.652 649.323,-256.027 652.473,-262.278"/>
</g>
<!-- Node3 -->
<g id="node3" class="node"><title>Node3</title>
<g id="a_node3"><a xlink:href="AlignedStdVector_8hpp.html" target="_top" xlink:title="Core/Containers/AlignedStd\lVector.hpp">
<polygon fill="white" stroke="black" points="333.5,-168.5 333.5,-198.5 482.5,-198.5 482.5,-168.5 333.5,-168.5"/>
<text text-anchor="start" x="341.5" y="-186.5" font-family="Helvetica,sans-Serif" font-size="10.00">Core/Containers/AlignedStd</text>
<text text-anchor="middle" x="408" y="-175.5" font-family="Helvetica,sans-Serif" font-size="10.00">Vector.hpp</text>
</a>
</g>
</g>
<!-- Node2&#45;&gt;Node3 -->
<g id="edge2" class="edge"><title>Node2&#45;&gt;Node3</title>
<path fill="none" stroke="midnightblue" d="M408,-235.475C408,-228.471 408,-218.192 408,-208.696"/>
<polygon fill="midnightblue" stroke="midnightblue" points="411.5,-208.523 408,-198.523 404.5,-208.523 411.5,-208.523"/>
</g>
<!-- Node2&#45;&gt;Node4 -->
<g id="edge12" class="edge"><title>Node2&#45;&gt;Node4</title>
<path fill="none" stroke="midnightblue" d="M433.921,-235.389C452.052,-228.194 475.674,-216.3 491,-199 505.521,-182.609 513.438,-158.349 517.436,-141.672"/>
<polygon fill="midnightblue" stroke="midnightblue" points="520.936,-142.039 519.61,-131.527 514.092,-140.572 520.936,-142.039"/>
</g>
<!-- Node12 -->
<g id="node12" class="node"><title>Node12</title>
<polygon fill="white" stroke="#bfbfbf" points="296.5,-112.5 296.5,-131.5 343.5,-131.5 343.5,-112.5 296.5,-112.5"/>
<text text-anchor="middle" x="320" y="-119.5" font-family="Helvetica,sans-Serif" font-size="10.00">vector</text>
</g>
<!-- Node2&#45;&gt;Node12 -->
<g id="edge18" class="edge"><title>Node2&#45;&gt;Node12</title>
<path fill="none" stroke="midnightblue" d="M375.786,-235.377C357.342,-228.65 335.618,-217.296 324,-199 313.181,-181.963 313.849,-158.199 316.147,-141.802"/>
<polygon fill="midnightblue" stroke="midnightblue" points="319.622,-142.25 317.878,-131.8 312.724,-141.056 319.622,-142.25"/>
</g>
<!-- Node13 -->
<g id="node13" class="node"><title>Node13</title>
<g id="a_node13"><a xlink:href="Types_8hpp.html" target="_top" xlink:title="Core/Types.hpp">
<polygon fill="white" stroke="black" points="188.5,-174 188.5,-193 277.5,-193 277.5,-174 188.5,-174"/>
<text text-anchor="middle" x="233" y="-181" font-family="Helvetica,sans-Serif" font-size="10.00">Core/Types.hpp</text>
</a>
</g>
</g>
<!-- Node2&#45;&gt;Node13 -->
<g id="edge13" class="edge"><title>Node2&#45;&gt;Node13</title>
<path fill="none" stroke="midnightblue" d="M382.927,-235.475C352.648,-225.18 301.56,-207.81 267.559,-196.25"/>
<polygon fill="midnightblue" stroke="midnightblue" points="268.621,-192.914 258.027,-193.009 266.368,-199.542 268.621,-192.914"/>
</g>
<!-- Node3&#45;&gt;Node4 -->
<g id="edge3" class="edge"><title>Node3&#45;&gt;Node4</title>
<path fill="none" stroke="midnightblue" d="M434.779,-168.399C453.062,-158.773 477.148,-146.09 495.215,-136.577"/>
<polygon fill="midnightblue" stroke="midnightblue" points="497.34,-139.414 504.557,-131.658 494.078,-133.22 497.34,-139.414"/>
</g>
<!-- Node11 -->
<g id="node11" class="node"><title>Node11</title>
<polygon fill="white" stroke="#bfbfbf" points="361.5,-112.5 361.5,-131.5 454.5,-131.5 454.5,-112.5 361.5,-112.5"/>
<text text-anchor="middle" x="408" y="-119.5" font-family="Helvetica,sans-Serif" font-size="10.00">Eigen/StdVector</text>
</g>
<!-- Node3&#45;&gt;Node11 -->
<g id="edge10" class="edge"><title>Node3&#45;&gt;Node11</title>
<path fill="none" stroke="midnightblue" d="M408,-168.399C408,-160.466 408,-150.458 408,-141.858"/>
<polygon fill="midnightblue" stroke="midnightblue" points="411.5,-141.658 408,-131.658 404.5,-141.658 411.5,-141.658"/>
</g>
<!-- Node3&#45;&gt;Node12 -->
<g id="edge11" class="edge"><title>Node3&#45;&gt;Node12</title>
<path fill="none" stroke="midnightblue" d="M387.145,-168.399C373.303,-159.04 355.189,-146.792 341.264,-137.377"/>
<polygon fill="midnightblue" stroke="midnightblue" points="343.049,-134.36 332.805,-131.658 339.128,-140.158 343.049,-134.36"/>
</g>
<!-- Node5 -->
<g id="node5" class="node"><title>Node5</title>
<g id="a_node5"><a xlink:href="CoreMacros_8hpp.html" target="_top" xlink:title="Core/CoreMacros.hpp">
<polygon fill="white" stroke="black" points="461,-56.5 461,-75.5 581,-75.5 581,-56.5 461,-56.5"/>
<text text-anchor="middle" x="521" y="-63.5" font-family="Helvetica,sans-Serif" font-size="10.00">Core/CoreMacros.hpp</text>
</a>
</g>
</g>
<!-- Node4&#45;&gt;Node5 -->
<g id="edge4" class="edge"><title>Node4&#45;&gt;Node5</title>
<path fill="none" stroke="midnightblue" d="M521,-112.083C521,-105.006 521,-94.8611 521,-85.9865"/>
<polygon fill="midnightblue" stroke="midnightblue" points="524.5,-85.751 521,-75.7511 517.5,-85.7511 524.5,-85.751"/>
</g>
<!-- Node6 -->
<g id="node6" class="node"><title>Node6</title>
<polygon fill="white" stroke="#bfbfbf" points="358,-0.5 358,-19.5 410,-19.5 410,-0.5 358,-0.5"/>
<text text-anchor="middle" x="384" y="-7.5" font-family="Helvetica,sans-Serif" font-size="10.00">cassert</text>
</g>
<!-- Node5&#45;&gt;Node6 -->
<g id="edge5" class="edge"><title>Node5&#45;&gt;Node6</title>
<path fill="none" stroke="midnightblue" d="M499.292,-56.4435C476.645,-47.5171 440.928,-33.4387 415.248,-23.3168"/>
<polygon fill="midnightblue" stroke="midnightblue" points="416.193,-19.9273 405.606,-19.5164 413.626,-26.4397 416.193,-19.9273"/>
</g>
<!-- Node7 -->
<g id="node7" class="node"><title>Node7</title>
<polygon fill="white" stroke="#bfbfbf" points="428.5,-0.5 428.5,-19.5 473.5,-19.5 473.5,-0.5 428.5,-0.5"/>
<text text-anchor="middle" x="451" y="-7.5" font-family="Helvetica,sans-Serif" font-size="10.00">cstdio</text>
</g>
<!-- Node5&#45;&gt;Node7 -->
<g id="edge6" class="edge"><title>Node5&#45;&gt;Node7</title>
<path fill="none" stroke="midnightblue" d="M509.753,-56.324C499.203,-48.1849 483.199,-35.8395 470.558,-26.0874"/>
<polygon fill="midnightblue" stroke="midnightblue" points="472.507,-23.1707 462.451,-19.8339 468.231,-28.7132 472.507,-23.1707"/>
</g>
<!-- Node8 -->
<g id="node8" class="node"><title>Node8</title>
<polygon fill="white" stroke="#bfbfbf" points="491.5,-0.5 491.5,-19.5 550.5,-19.5 550.5,-0.5 491.5,-0.5"/>
<text text-anchor="middle" x="521" y="-7.5" font-family="Helvetica,sans-Serif" font-size="10.00">iostream</text>
</g>
<!-- Node5&#45;&gt;Node8 -->
<g id="edge7" class="edge"><title>Node5&#45;&gt;Node8</title>
<path fill="none" stroke="midnightblue" d="M521,-56.083C521,-49.0059 521,-38.8611 521,-29.9865"/>
<polygon fill="midnightblue" stroke="midnightblue" points="524.5,-29.751 521,-19.7511 517.5,-29.7511 524.5,-29.751"/>
</g>
<!-- Node9 -->
<g id="node9" class="node"><title>Node9</title>
<polygon fill="white" stroke="#bfbfbf" points="569,-0.5 569,-19.5 625,-19.5 625,-0.5 569,-0.5"/>
<text text-anchor="middle" x="597" y="-7.5" font-family="Helvetica,sans-Serif" font-size="10.00">sstream</text>
</g>
<!-- Node5&#45;&gt;Node9 -->
<g id="edge8" class="edge"><title>Node5&#45;&gt;Node9</title>
<path fill="none" stroke="midnightblue" d="M533.211,-56.324C544.776,-48.1066 562.375,-35.6017 576.161,-25.8069"/>
<polygon fill="midnightblue" stroke="midnightblue" points="578.443,-28.4791 584.567,-19.8339 574.388,-22.7729 578.443,-28.4791"/>
</g>
<!-- Node10 -->
<g id="node10" class="node"><title>Node10</title>
<polygon fill="white" stroke="#bfbfbf" points="643,-0.5 643,-19.5 691,-19.5 691,-0.5 643,-0.5"/>
<text text-anchor="middle" x="667" y="-7.5" font-family="Helvetica,sans-Serif" font-size="10.00">thread</text>
</g>
<!-- Node5&#45;&gt;Node10 -->
<g id="edge9" class="edge"><title>Node5&#45;&gt;Node10</title>
<path fill="none" stroke="midnightblue" d="M544.134,-56.4435C568.482,-47.4381 607.007,-33.1891 634.423,-23.049"/>
<polygon fill="midnightblue" stroke="midnightblue" points="635.809,-26.2681 643.974,-19.5164 633.381,-19.7028 635.809,-26.2681"/>
</g>
<!-- Node13&#45;&gt;Node4 -->
<g id="edge14" class="edge"><title>Node13&#45;&gt;Node4</title>
<path fill="none" stroke="midnightblue" d="M274.263,-173.975C325.804,-163.327 413.984,-145.109 469.787,-133.581"/>
<polygon fill="midnightblue" stroke="midnightblue" points="470.728,-136.96 479.813,-131.509 469.312,-130.105 470.728,-136.96"/>
</g>
<!-- Node14 -->
<g id="node14" class="node"><title>Node14</title>
<polygon fill="white" stroke="#bfbfbf" points="210,-112.5 210,-131.5 278,-131.5 278,-112.5 210,-112.5"/>
<text text-anchor="middle" x="244" y="-119.5" font-family="Helvetica,sans-Serif" font-size="10.00">Eigen/Core</text>
</g>
<!-- Node13&#45;&gt;Node14 -->
<g id="edge15" class="edge"><title>Node13&#45;&gt;Node14</title>
<path fill="none" stroke="midnightblue" d="M234.576,-173.975C236.128,-165.58 238.55,-152.481 240.55,-141.663"/>
<polygon fill="midnightblue" stroke="midnightblue" points="244.051,-141.979 242.427,-131.509 237.167,-140.706 244.051,-141.979"/>
</g>
<!-- Node15 -->
<g id="node15" class="node"><title>Node15</title>
<polygon fill="white" stroke="#bfbfbf" points="0,-112.5 0,-131.5 94,-131.5 94,-112.5 0,-112.5"/>
<text text-anchor="middle" x="47" y="-119.5" font-family="Helvetica,sans-Serif" font-size="10.00">Eigen/Geometry</text>
</g>
<!-- Node13&#45;&gt;Node15 -->
<g id="edge16" class="edge"><title>Node13&#45;&gt;Node15</title>
<path fill="none" stroke="midnightblue" d="M206.351,-173.975C174.031,-163.636 119.403,-146.161 83.2675,-134.602"/>
<polygon fill="midnightblue" stroke="midnightblue" points="84.1908,-131.222 73.5998,-131.509 82.058,-137.89 84.1908,-131.222"/>
</g>
<!-- Node16 -->
<g id="node16" class="node"><title>Node16</title>
<polygon fill="white" stroke="#bfbfbf" points="112,-112.5 112,-131.5 192,-131.5 192,-112.5 112,-112.5"/>
<text text-anchor="middle" x="152" y="-119.5" font-family="Helvetica,sans-Serif" font-size="10.00">Eigen/Sparse</text>
</g>
<!-- Node13&#45;&gt;Node16 -->
<g id="edge17" class="edge"><title>Node13&#45;&gt;Node16</title>
<path fill="none" stroke="midnightblue" d="M221.395,-173.975C208.523,-164.52 187.526,-149.096 171.994,-137.687"/>
<polygon fill="midnightblue" stroke="midnightblue" points="173.715,-134.608 163.584,-131.509 169.571,-140.25 173.715,-134.608"/>
</g>
<!-- Node17&#45;&gt;Node4 -->
<g id="edge21" class="edge"><title>Node17&#45;&gt;Node4</title>
<path fill="none" stroke="midnightblue" d="M703.929,-235.356C720.719,-228.411 740.978,-216.825 751,-199 757.753,-186.99 759.757,-178.637 751,-168 729.762,-142.204 641.098,-130.985 580.271,-126.257"/>
<polygon fill="midnightblue" stroke="midnightblue" points="580.243,-122.745 570.013,-125.5 579.728,-129.726 580.243,-122.745"/>
</g>
<!-- Node18 -->
<g id="node18" class="node"><title>Node18</title>
<polygon fill="white" stroke="#bfbfbf" points="700,-174 700,-193 742,-193 742,-174 700,-174"/>
<text text-anchor="middle" x="721" y="-181" font-family="Helvetica,sans-Serif" font-size="10.00">limits</text>
</g>
<!-- Node17&#45;&gt;Node18 -->
<g id="edge22" class="edge"><title>Node17&#45;&gt;Node18</title>
<path fill="none" stroke="midnightblue" d="M683.304,-235.475C689.904,-226.55 700.437,-212.307 708.693,-201.143"/>
<polygon fill="midnightblue" stroke="midnightblue" points="711.576,-203.131 714.708,-193.009 705.948,-198.968 711.576,-203.131"/>
</g>
<!-- Node19 -->
<g id="node19" class="node"><title>Node19</title>
<g id="a_node19"><a xlink:href="Index_8inl.html" target="_top" xlink:title="Core/Utils/Index.inl">
<polygon fill="white" stroke="black" points="576.5,-174 576.5,-193 681.5,-193 681.5,-174 576.5,-174"/>
<text text-anchor="middle" x="629" y="-181" font-family="Helvetica,sans-Serif" font-size="10.00">Core/Utils/Index.inl</text>
</a>
</g>
</g>
<!-- Node17&#45;&gt;Node19 -->
<g id="edge23" class="edge"><title>Node17&#45;&gt;Node19</title>
<path fill="none" stroke="midnightblue" d="M670.123,-235.475C662.851,-226.462 651.205,-212.025 642.159,-200.812"/>
<polygon fill="midnightblue" stroke="midnightblue" points="644.867,-198.595 635.864,-193.009 639.419,-202.99 644.867,-198.595"/>
</g>
</g>
</svg>
