<?xml version="1.0" encoding="UTF-8" standalone="no"?>
<!DOCTYPE svg PUBLIC "-//W3C//DTD SVG 1.1//EN"
 "http://www.w3.org/Graphics/SVG/1.1/DTD/svg11.dtd">
<!-- Generated by graphviz version 2.38.0 (20140413.2041)
 -->
<!-- Title: /home/travis/build/STORM&#45;IRIT/Radium&#45;Engine/src/Engine/Renderer/Material/BlinnPhongMaterial.hpp Pages: 1 -->
<svg width="979pt" height="374pt"
 viewBox="0.00 0.00 979.00 374.00" xmlns="http://www.w3.org/2000/svg" xmlns:xlink="http://www.w3.org/1999/xlink">
<g id="graph0" class="graph" transform="scale(1 1) rotate(0) translate(4 370)">
<title>/home/travis/build/STORM&#45;IRIT/Radium&#45;Engine/src/Engine/Renderer/Material/BlinnPhongMaterial.hpp</title>
<polygon fill="white" stroke="none" points="-4,4 -4,-370 975,-370 975,4 -4,4"/>
<!-- Node1 -->
<g id="node1" class="node"><title>Node1</title>
<polygon fill="#bfbfbf" stroke="black" points="350,-313.5 350,-365.5 506,-365.5 506,-313.5 350,-313.5"/>
<text text-anchor="start" x="358" y="-353.5" font-family="Helvetica,sans-Serif" font-size="10.00">/home/travis/build</text>
<text text-anchor="start" x="358" y="-342.5" font-family="Helvetica,sans-Serif" font-size="10.00">/STORM&#45;IRIT/Radium&#45;Engine</text>
<text text-anchor="start" x="358" y="-331.5" font-family="Helvetica,sans-Serif" font-size="10.00">/src/Engine/Renderer/Material</text>
<text text-anchor="middle" x="428" y="-320.5" font-family="Helvetica,sans-Serif" font-size="10.00">/BlinnPhongMaterial.hpp</text>
</g>
<!-- Node2 -->
<g id="node2" class="node"><title>Node2</title>
<g id="a_node2"><a xlink:href="RaEngine_8hpp.html" target="_top" xlink:title="Engine/RaEngine.hpp">
<polygon fill="white" stroke="black" points="507.5,-185 507.5,-204 624.5,-204 624.5,-185 507.5,-185"/>
<text text-anchor="middle" x="566" y="-192" font-family="Helvetica,sans-Serif" font-size="10.00">Engine/RaEngine.hpp</text>
</a>
</g>
</g>
<!-- Node1&#45;&gt;Node2 -->
<g id="edge1" class="edge"><title>Node1&#45;&gt;Node2</title>
<path fill="none" stroke="midnightblue" d="M439.565,-313.164C449.552,-293.24 465.444,-265.658 485,-246 500.339,-230.581 521.239,-217.699 537.967,-208.805"/>
<polygon fill="midnightblue" stroke="midnightblue" points="539.959,-211.717 547.261,-204.04 536.765,-205.488 539.959,-211.717"/>
</g>
<!-- Node9 -->
<g id="node9" class="node"><title>Node9</title>
<polygon fill="white" stroke="#bfbfbf" points="0,-185 0,-204 38,-204 38,-185 0,-185"/>
<text text-anchor="middle" x="19" y="-192" font-family="Helvetica,sans-Serif" font-size="10.00">map</text>
</g>
<!-- Node1&#45;&gt;Node9 -->
<g id="edge8" class="edge"><title>Node1&#45;&gt;Node9</title>
<path fill="none" stroke="midnightblue" d="M349.832,-323.142C301.332,-312.552 238.152,-296.821 184,-277 131.523,-257.792 73.7313,-226.787 42.3837,-209.071"/>
<polygon fill="midnightblue" stroke="midnightblue" points="43.9599,-205.941 33.5392,-204.027 40.4922,-212.021 43.9599,-205.941"/>
</g>
<!-- Node10 -->
<g id="node10" class="node"><title>Node10</title>
<polygon fill="white" stroke="#bfbfbf" points="317,-185 317,-204 361,-204 361,-185 317,-185"/>
<text text-anchor="middle" x="339" y="-192" font-family="Helvetica,sans-Serif" font-size="10.00">string</text>
</g>
<!-- Node1&#45;&gt;Node10 -->
<g id="edge9" class="edge"><title>Node1&#45;&gt;Node10</title>
<path fill="none" stroke="midnightblue" d="M412.293,-313.264C394.319,-284.384 365.361,-237.856 349.769,-212.803"/>
<polygon fill="midnightblue" stroke="midnightblue" points="352.579,-210.694 344.324,-204.053 346.636,-214.393 352.579,-210.694"/>
</g>
<!-- Node11 -->
<g id="node11" class="node"><title>Node11</title>
<g id="a_node11"><a xlink:href="Color_8hpp.html" target="_top" xlink:title="Core/Utils/Color.hpp">
<polygon fill="white" stroke="black" points="378.5,-185 378.5,-204 489.5,-204 489.5,-185 378.5,-185"/>
<text text-anchor="middle" x="434" y="-192" font-family="Helvetica,sans-Serif" font-size="10.00">Core/Utils/Color.hpp</text>
</a>
</g>
</g>
<!-- Node1&#45;&gt;Node11 -->
<g id="edge10" class="edge"><title>Node1&#45;&gt;Node11</title>
<path fill="none" stroke="midnightblue" d="M429.059,-313.264C430.249,-284.895 432.154,-239.498 433.217,-214.154"/>
<polygon fill="midnightblue" stroke="midnightblue" points="436.719,-214.191 433.641,-204.053 429.725,-213.898 436.719,-214.191"/>
</g>
<!-- Node15 -->
<g id="node15" class="node"><title>Node15</title>
<g id="a_node15"><a xlink:href="Material_8hpp.html" target="_top" xlink:title="Engine/Renderer/Material\l/Material.hpp">
<polygon fill="white" stroke="black" points="193,-246.5 193,-276.5 329,-276.5 329,-246.5 193,-246.5"/>
<text text-anchor="start" x="201" y="-264.5" font-family="Helvetica,sans-Serif" font-size="10.00">Engine/Renderer/Material</text>
<text text-anchor="middle" x="261" y="-253.5" font-family="Helvetica,sans-Serif" font-size="10.00">/Material.hpp</text>
</a>
</g>
</g>
<!-- Node1&#45;&gt;Node15 -->
<g id="edge15" class="edge"><title>Node1&#45;&gt;Node15</title>
<path fill="none" stroke="midnightblue" d="M372.855,-313.404C349.517,-302.783 322.825,-290.636 301.37,-280.872"/>
<polygon fill="midnightblue" stroke="midnightblue" points="302.769,-277.663 292.217,-276.707 299.869,-284.034 302.769,-277.663"/>
</g>
<!-- Node20 -->
<g id="node20" class="node"><title>Node20</title>
<g id="a_node20"><a xlink:href="Texture_8hpp.html" target="_top" xlink:title="Engine/Renderer/Texture\l/Texture.hpp">
<polygon fill="white" stroke="black" points="494,-246.5 494,-276.5 626,-276.5 626,-246.5 494,-246.5"/>
<text text-anchor="start" x="502" y="-264.5" font-family="Helvetica,sans-Serif" font-size="10.00">Engine/Renderer/Texture</text>
<text text-anchor="middle" x="560" y="-253.5" font-family="Helvetica,sans-Serif" font-size="10.00">/Texture.hpp</text>
</a>
</g>
</g>
<!-- Node1&#45;&gt;Node20 -->
<g id="edge26" class="edge"><title>Node1&#45;&gt;Node20</title>
<path fill="none" stroke="midnightblue" d="M471.588,-313.404C489.455,-303.117 509.81,-291.397 526.482,-281.798"/>
<polygon fill="midnightblue" stroke="midnightblue" points="528.406,-284.729 535.325,-276.707 524.913,-278.663 528.406,-284.729"/>
</g>
<!-- Node26 -->
<g id="node26" class="node"><title>Node26</title>
<g id="a_node26"><a xlink:href="BlinnPhongMaterial_8inl.html" target="_top" xlink:title="Engine/Renderer/Material\l/BlinnPhongMaterial.inl">
<polygon fill="white" stroke="black" points="644,-246.5 644,-276.5 780,-276.5 780,-246.5 644,-246.5"/>
<text text-anchor="start" x="652" y="-264.5" font-family="Helvetica,sans-Serif" font-size="10.00">Engine/Renderer/Material</text>
<text text-anchor="middle" x="712" y="-253.5" font-family="Helvetica,sans-Serif" font-size="10.00">/BlinnPhongMaterial.inl</text>
</a>
</g>
</g>
<!-- Node1&#45;&gt;Node26 -->
<g id="edge35" class="edge"><title>Node1&#45;&gt;Node26</title>
<path fill="none" stroke="midnightblue" d="M506.356,-317.531C551.5,-305.451 607.464,-290.475 649.607,-279.197"/>
<polygon fill="midnightblue" stroke="midnightblue" points="650.709,-282.525 659.464,-276.559 648.899,-275.763 650.709,-282.525"/>
</g>
<!-- Node3 -->
<g id="node3" class="node"><title>Node3</title>
<g id="a_node3"><a xlink:href="CoreMacros_8hpp.html" target="_top" xlink:title="Core/CoreMacros.hpp">
<polygon fill="white" stroke="black" points="385,-56.5 385,-75.5 505,-75.5 505,-56.5 385,-56.5"/>
<text text-anchor="middle" x="445" y="-63.5" font-family="Helvetica,sans-Serif" font-size="10.00">Core/CoreMacros.hpp</text>
</a>
</g>
</g>
<!-- Node2&#45;&gt;Node3 -->
<g id="edge2" class="edge"><title>Node2&#45;&gt;Node3</title>
<path fill="none" stroke="midnightblue" d="M564.941,-184.803C562.55,-168.609 555.351,-133.531 536,-112 522.481,-96.9581 502.798,-86.3595 485.193,-79.2432"/>
<polygon fill="midnightblue" stroke="midnightblue" points="486.27,-75.9086 475.678,-75.6419 483.792,-82.4553 486.27,-75.9086"/>
</g>
<!-- Node4 -->
<g id="node4" class="node"><title>Node4</title>
<polygon fill="white" stroke="#bfbfbf" points="282,-0.5 282,-19.5 334,-19.5 334,-0.5 282,-0.5"/>
<text text-anchor="middle" x="308" y="-7.5" font-family="Helvetica,sans-Serif" font-size="10.00">cassert</text>
</g>
<!-- Node3&#45;&gt;Node4 -->
<g id="edge3" class="edge"><title>Node3&#45;&gt;Node4</title>
<path fill="none" stroke="midnightblue" d="M423.292,-56.4435C400.645,-47.5171 364.928,-33.4387 339.248,-23.3168"/>
<polygon fill="midnightblue" stroke="midnightblue" points="340.193,-19.9273 329.606,-19.5164 337.626,-26.4397 340.193,-19.9273"/>
</g>
<!-- Node5 -->
<g id="node5" class="node"><title>Node5</title>
<polygon fill="white" stroke="#bfbfbf" points="352.5,-0.5 352.5,-19.5 397.5,-19.5 397.5,-0.5 352.5,-0.5"/>
<text text-anchor="middle" x="375" y="-7.5" font-family="Helvetica,sans-Serif" font-size="10.00">cstdio</text>
</g>
<!-- Node3&#45;&gt;Node5 -->
<g id="edge4" class="edge"><title>Node3&#45;&gt;Node5</title>
<path fill="none" stroke="midnightblue" d="M433.753,-56.324C423.203,-48.1849 407.199,-35.8395 394.558,-26.0874"/>
<polygon fill="midnightblue" stroke="midnightblue" points="396.507,-23.1707 386.451,-19.8339 392.231,-28.7132 396.507,-23.1707"/>
</g>
<!-- Node6 -->
<g id="node6" class="node"><title>Node6</title>
<polygon fill="white" stroke="#bfbfbf" points="415.5,-0.5 415.5,-19.5 474.5,-19.5 474.5,-0.5 415.5,-0.5"/>
<text text-anchor="middle" x="445" y="-7.5" font-family="Helvetica,sans-Serif" font-size="10.00">iostream</text>
</g>
<!-- Node3&#45;&gt;Node6 -->
<g id="edge5" class="edge"><title>Node3&#45;&gt;Node6</title>
<path fill="none" stroke="midnightblue" d="M445,-56.083C445,-49.0059 445,-38.8611 445,-29.9865"/>
<polygon fill="midnightblue" stroke="midnightblue" points="448.5,-29.751 445,-19.7511 441.5,-29.7511 448.5,-29.751"/>
</g>
<!-- Node7 -->
<g id="node7" class="node"><title>Node7</title>
<polygon fill="white" stroke="#bfbfbf" points="493,-0.5 493,-19.5 549,-19.5 549,-0.5 493,-0.5"/>
<text text-anchor="middle" x="521" y="-7.5" font-family="Helvetica,sans-Serif" font-size="10.00">sstream</text>
</g>
<!-- Node3&#45;&gt;Node7 -->
<g id="edge6" class="edge"><title>Node3&#45;&gt;Node7</title>
<path fill="none" stroke="midnightblue" d="M457.211,-56.324C468.776,-48.1066 486.375,-35.6017 500.161,-25.8069"/>
<polygon fill="midnightblue" stroke="midnightblue" points="502.443,-28.4791 508.567,-19.8339 498.388,-22.7729 502.443,-28.4791"/>
</g>
<!-- Node8 -->
<g id="node8" class="node"><title>Node8</title>
<polygon fill="white" stroke="#bfbfbf" points="567,-0.5 567,-19.5 615,-19.5 615,-0.5 567,-0.5"/>
<text text-anchor="middle" x="591" y="-7.5" font-family="Helvetica,sans-Serif" font-size="10.00">thread</text>
</g>
<!-- Node3&#45;&gt;Node8 -->
<g id="edge7" class="edge"><title>Node3&#45;&gt;Node8</title>
<path fill="none" stroke="midnightblue" d="M468.134,-56.4435C492.482,-47.4381 531.007,-33.1891 558.423,-23.049"/>
<polygon fill="midnightblue" stroke="midnightblue" points="559.809,-26.2681 567.974,-19.5164 557.381,-19.7028 559.809,-26.2681"/>
</g>
<!-- Node11&#45;&gt;Node3 -->
<g id="edge11" class="edge"><title>Node11&#45;&gt;Node3</title>
<path fill="none" stroke="midnightblue" d="M434.756,-184.805C436.522,-164.494 440.952,-113.553 443.367,-85.7768"/>
<polygon fill="midnightblue" stroke="midnightblue" points="446.859,-86.0213 444.239,-75.7557 439.885,-85.4149 446.859,-86.0213"/>
</g>
<!-- Node12 -->
<g id="node12" class="node"><title>Node12</title>
<polygon fill="white" stroke="#bfbfbf" points="237,-118 237,-137 305,-137 305,-118 237,-118"/>
<text text-anchor="middle" x="271" y="-125" font-family="Helvetica,sans-Serif" font-size="10.00">Eigen/Core</text>
</g>
<!-- Node11&#45;&gt;Node12 -->
<g id="edge12" class="edge"><title>Node11&#45;&gt;Node12</title>
<path fill="none" stroke="midnightblue" d="M412.355,-184.869C384.023,-173.571 334.184,-153.696 301.891,-140.818"/>
<polygon fill="midnightblue" stroke="midnightblue" points="303.06,-137.517 292.475,-137.064 300.467,-144.019 303.06,-137.517"/>
</g>
<!-- Node13 -->
<g id="node13" class="node"><title>Node13</title>
<polygon fill="white" stroke="#bfbfbf" points="323,-118 323,-137 417,-137 417,-118 323,-118"/>
<text text-anchor="middle" x="370" y="-125" font-family="Helvetica,sans-Serif" font-size="10.00">Eigen/Geometry</text>
</g>
<!-- Node11&#45;&gt;Node13 -->
<g id="edge13" class="edge"><title>Node11&#45;&gt;Node13</title>
<path fill="none" stroke="midnightblue" d="M425.369,-184.734C415.197,-174.403 398.098,-157.037 385.588,-144.332"/>
<polygon fill="midnightblue" stroke="midnightblue" points="388.005,-141.797 378.495,-137.127 383.017,-146.709 388.005,-141.797"/>
</g>
<!-- Node14 -->
<g id="node14" class="node"><title>Node14</title>
<polygon fill="white" stroke="#bfbfbf" points="473,-118 473,-137 527,-137 527,-118 473,-118"/>
<text text-anchor="middle" x="500" y="-125" font-family="Helvetica,sans-Serif" font-size="10.00">random</text>
</g>
<!-- Node11&#45;&gt;Node14 -->
<g id="edge14" class="edge"><title>Node11&#45;&gt;Node14</title>
<path fill="none" stroke="midnightblue" d="M442.901,-184.734C453.391,-174.403 471.024,-157.037 483.925,-144.332"/>
<polygon fill="midnightblue" stroke="midnightblue" points="486.571,-146.638 491.24,-137.127 481.659,-141.651 486.571,-146.638"/>
</g>
<!-- Node15&#45;&gt;Node2 -->
<g id="edge16" class="edge"><title>Node15&#45;&gt;Node2</title>
<path fill="none" stroke="midnightblue" d="M326.895,-246.462C374.449,-236.33 440.191,-222.322 498,-210 503.824,-208.759 509.928,-207.457 515.988,-206.165"/>
<polygon fill="midnightblue" stroke="midnightblue" points="517.038,-209.52 526.088,-204.012 515.578,-202.674 517.038,-209.52"/>
</g>
<!-- Node15&#45;&gt;Node9 -->
<g id="edge17" class="edge"><title>Node15&#45;&gt;Node9</title>
<path fill="none" stroke="midnightblue" d="M192.755,-248.849C150.09,-240.481 94.4295,-227.571 47,-210 45.7584,-209.54 44.5014,-209.038 43.2431,-208.505"/>
<polygon fill="midnightblue" stroke="midnightblue" points="44.3381,-205.15 33.803,-204.027 41.338,-211.475 44.3381,-205.15"/>
</g>
<!-- Node15&#45;&gt;Node10 -->
<g id="edge18" class="edge"><title>Node15&#45;&gt;Node10</title>
<path fill="none" stroke="midnightblue" d="M277.925,-246.396C290.568,-235.86 307.827,-221.477 320.774,-210.689"/>
<polygon fill="midnightblue" stroke="midnightblue" points="323.125,-213.285 328.567,-204.195 318.644,-207.908 323.125,-213.285"/>
</g>
<!-- Node16 -->
<g id="node16" class="node"><title>Node16</title>
<g id="a_node16"><a xlink:href="Types_8hpp.html" target="_top" xlink:title="Core/Types.hpp">
<polygon fill="white" stroke="black" points="210.5,-185 210.5,-204 299.5,-204 299.5,-185 210.5,-185"/>
<text text-anchor="middle" x="255" y="-192" font-family="Helvetica,sans-Serif" font-size="10.00">Core/Types.hpp</text>
</a>
</g>
</g>
<!-- Node15&#45;&gt;Node16 -->
<g id="edge19" class="edge"><title>Node15&#45;&gt;Node16</title>
<path fill="none" stroke="midnightblue" d="M259.698,-246.396C258.827,-236.963 257.672,-224.448 256.725,-214.189"/>
<polygon fill="midnightblue" stroke="midnightblue" points="260.207,-213.83 255.803,-204.195 253.237,-214.474 260.207,-213.83"/>
</g>
<!-- Node19 -->
<g id="node19" class="node"><title>Node19</title>
<g id="a_node19"><a xlink:href="Material_8inl.html" target="_top" xlink:title="Engine/Renderer/Material\l/Material.inl">
<polygon fill="white" stroke="black" points="56,-179.5 56,-209.5 192,-209.5 192,-179.5 56,-179.5"/>
<text text-anchor="start" x="64" y="-197.5" font-family="Helvetica,sans-Serif" font-size="10.00">Engine/Renderer/Material</text>
<text text-anchor="middle" x="124" y="-186.5" font-family="Helvetica,sans-Serif" font-size="10.00">/Material.inl</text>
</a>
</g>
</g>
<!-- Node15&#45;&gt;Node19 -->
<g id="edge25" class="edge"><title>Node15&#45;&gt;Node19</title>
<path fill="none" stroke="midnightblue" d="M231.273,-246.396C211.256,-236.899 184.652,-224.276 162.946,-213.978"/>
<polygon fill="midnightblue" stroke="midnightblue" points="164.204,-210.701 153.669,-209.577 161.203,-217.025 164.204,-210.701"/>
</g>
<!-- Node16&#45;&gt;Node12 -->
<g id="edge22" class="edge"><title>Node16&#45;&gt;Node12</title>
<path fill="none" stroke="midnightblue" d="M257.158,-184.734C259.533,-175.085 263.418,-159.3 266.469,-146.906"/>
<polygon fill="midnightblue" stroke="midnightblue" points="269.885,-147.674 268.876,-137.127 263.088,-146.001 269.885,-147.674"/>
</g>
<!-- Node16&#45;&gt;Node13 -->
<g id="edge23" class="edge"><title>Node16&#45;&gt;Node13</title>
<path fill="none" stroke="midnightblue" d="M270.509,-184.734C289.908,-173.769 323.326,-154.881 346.028,-142.049"/>
<polygon fill="midnightblue" stroke="midnightblue" points="347.753,-145.095 354.736,-137.127 344.308,-139.001 347.753,-145.095"/>
</g>
<!-- Node17 -->
<g id="node17" class="node"><title>Node17</title>
<g id="a_node17"><a xlink:href="RaCore_8hpp.html" target="_top" xlink:title="Core/RaCore.hpp">
<polygon fill="white" stroke="black" points="121,-118 121,-137 219,-137 219,-118 121,-118"/>
<text text-anchor="middle" x="170" y="-125" font-family="Helvetica,sans-Serif" font-size="10.00">Core/RaCore.hpp</text>
</a>
</g>
</g>
<!-- Node16&#45;&gt;Node17 -->
<g id="edge20" class="edge"><title>Node16&#45;&gt;Node17</title>
<path fill="none" stroke="midnightblue" d="M243.537,-184.734C229.645,-174.111 206.025,-156.049 189.307,-143.264"/>
<polygon fill="midnightblue" stroke="midnightblue" points="191.352,-140.422 181.282,-137.127 187.099,-145.982 191.352,-140.422"/>
</g>
<!-- Node18 -->
<g id="node18" class="node"><title>Node18</title>
<polygon fill="white" stroke="#bfbfbf" points="23,-118 23,-137 103,-137 103,-118 23,-118"/>
<text text-anchor="middle" x="63" y="-125" font-family="Helvetica,sans-Serif" font-size="10.00">Eigen/Sparse</text>
</g>
<!-- Node16&#45;&gt;Node18 -->
<g id="edge24" class="edge"><title>Node16&#45;&gt;Node18</title>
<path fill="none" stroke="midnightblue" d="M229.504,-184.869C195.7,-173.424 135.903,-153.181 97.9213,-140.322"/>
<polygon fill="midnightblue" stroke="midnightblue" points="98.89,-136.955 88.2958,-137.064 96.6454,-143.586 98.89,-136.955"/>
</g>
<!-- Node17&#45;&gt;Node3 -->
<g id="edge21" class="edge"><title>Node17&#45;&gt;Node3</title>
<path fill="none" stroke="midnightblue" d="M203.07,-117.987C211.206,-115.96 219.905,-113.85 228,-112 283.501,-99.313 347.343,-86.2578 391.339,-77.4989"/>
<polygon fill="midnightblue" stroke="midnightblue" points="392.118,-80.9126 401.245,-75.5325 390.755,-74.0465 392.118,-80.9126"/>
</g>
<!-- Node20&#45;&gt;Node2 -->
<g id="edge27" class="edge"><title>Node20&#45;&gt;Node2</title>
<path fill="none" stroke="midnightblue" d="M561.302,-246.396C562.173,-236.963 563.328,-224.448 564.275,-214.189"/>
<polygon fill="midnightblue" stroke="midnightblue" points="567.763,-214.474 565.197,-204.195 560.793,-213.83 567.763,-214.474"/>
</g>
<!-- Node20&#45;&gt;Node10 -->
<g id="edge29" class="edge"><title>Node20&#45;&gt;Node10</title>
<path fill="none" stroke="midnightblue" d="M494.502,-246.468C457.18,-237.661 409.854,-225.115 369,-210 367.576,-209.473 366.128,-208.902 364.677,-208.301"/>
<polygon fill="midnightblue" stroke="midnightblue" points="365.813,-204.974 355.258,-204.058 362.938,-211.356 365.813,-204.974"/>
</g>
<!-- Node20&#45;&gt;Node11 -->
<g id="edge34" class="edge"><title>Node20&#45;&gt;Node11</title>
<path fill="none" stroke="midnightblue" d="M532.66,-246.396C510.943,-235.193 480.797,-219.641 459.559,-208.685"/>
<polygon fill="midnightblue" stroke="midnightblue" points="460.982,-205.481 450.49,-204.007 457.773,-211.702 460.982,-205.481"/>
</g>
<!-- Node21 -->
<g id="node21" class="node"><title>Node21</title>
<polygon fill="white" stroke="#bfbfbf" points="797.5,-185 797.5,-204 854.5,-204 854.5,-185 797.5,-185"/>
<text text-anchor="middle" x="826" y="-192" font-family="Helvetica,sans-Serif" font-size="10.00">memory</text>
</g>
<!-- Node20&#45;&gt;Node21 -->
<g id="edge28" class="edge"><title>Node20&#45;&gt;Node21</title>
<path fill="none" stroke="midnightblue" d="M626.049,-246.993C682.159,-235.311 758.194,-218.935 788,-210 790.574,-209.228 793.223,-208.365 795.868,-207.456"/>
<polygon fill="midnightblue" stroke="midnightblue" points="797.08,-210.739 805.283,-204.034 794.689,-204.16 797.08,-210.739"/>
</g>
<!-- Node22 -->
<g id="node22" class="node"><title>Node22</title>
<g id="a_node22"><a xlink:href="OpenGL_8hpp.html" target="_top" xlink:title="Engine/Renderer/OpenGL\l/OpenGL.hpp">
<polygon fill="white" stroke="black" points="643,-179.5 643,-209.5 779,-209.5 779,-179.5 643,-179.5"/>
<text text-anchor="start" x="651" y="-197.5" font-family="Helvetica,sans-Serif" font-size="10.00">Engine/Renderer/OpenGL</text>
<text text-anchor="middle" x="711" y="-186.5" font-family="Helvetica,sans-Serif" font-size="10.00">/OpenGL.hpp</text>
</a>
</g>
</g>
<!-- Node20&#45;&gt;Node22 -->
<g id="edge30" class="edge"><title>Node20&#45;&gt;Node22</title>
<path fill="none" stroke="midnightblue" d="M592.765,-246.396C615.124,-236.771 644.94,-223.936 669.037,-213.564"/>
<polygon fill="midnightblue" stroke="midnightblue" points="670.498,-216.745 678.299,-209.577 667.73,-210.316 670.498,-216.745"/>
</g>
<!-- Node23 -->
<g id="node23" class="node"><title>Node23</title>
<polygon fill="white" stroke="#bfbfbf" points="847,-118 847,-137 971,-137 971,-118 847,-118"/>
<text text-anchor="middle" x="909" y="-125" font-family="Helvetica,sans-Serif" font-size="10.00">glbinding/gl45core/gl.h</text>
</g>
<!-- Node22&#45;&gt;Node23 -->
<g id="edge31" class="edge"><title>Node22&#45;&gt;Node23</title>
<path fill="none" stroke="midnightblue" d="M753.963,-179.396C789.627,-167.688 839.757,-151.231 873.258,-140.234"/>
<polygon fill="midnightblue" stroke="midnightblue" points="874.677,-143.452 883.086,-137.007 872.494,-136.801 874.677,-143.452"/>
</g>
<!-- Node24 -->
<g id="node24" class="node"><title>Node24</title>
<polygon fill="white" stroke="#bfbfbf" points="583,-118 583,-137 701,-137 701,-118 583,-118"/>
<text text-anchor="middle" x="642" y="-125" font-family="Helvetica,sans-Serif" font-size="10.00">glbinding/gl45ext/gl.h</text>
</g>
<!-- Node22&#45;&gt;Node24 -->
<g id="edge32" class="edge"><title>Node22&#45;&gt;Node24</title>
<path fill="none" stroke="midnightblue" d="M696.028,-179.396C685.056,-169.06 670.156,-155.024 658.782,-144.309"/>
<polygon fill="midnightblue" stroke="midnightblue" points="660.908,-141.504 651.23,-137.195 656.109,-146.599 660.908,-141.504"/>
</g>
<!-- Node25 -->
<g id="node25" class="node"><title>Node25</title>
<polygon fill="white" stroke="#bfbfbf" points="719,-112.5 719,-142.5 829,-142.5 829,-112.5 719,-112.5"/>
<text text-anchor="start" x="727" y="-130.5" font-family="Helvetica,sans-Serif" font-size="10.00">glbinding&#45;aux/types</text>
<text text-anchor="middle" x="774" y="-119.5" font-family="Helvetica,sans-Serif" font-size="10.00">_to_string.h</text>
</g>
<!-- Node22&#45;&gt;Node25 -->
<g id="edge33" class="edge"><title>Node22&#45;&gt;Node25</title>
<path fill="none" stroke="midnightblue" d="M724.67,-179.396C733.008,-170.793 743.832,-159.626 753.215,-149.945"/>
<polygon fill="midnightblue" stroke="midnightblue" points="755.91,-152.193 760.357,-142.577 750.884,-147.321 755.91,-152.193"/>
</g>
</g>
</svg>
