<?xml version="1.0" encoding="UTF-8" standalone="no"?>
<!DOCTYPE svg PUBLIC "-//W3C//DTD SVG 1.1//EN"
 "http://www.w3.org/Graphics/SVG/1.1/DTD/svg11.dtd">
<!-- Generated by graphviz version 2.38.0 (20140413.2041)
 -->
<!-- Title: /home/travis/build/STORM&#45;IRIT/Radium&#45;Engine/src/Core/Animation/BulgeCorrection.cpp Pages: 1 -->
<svg width="1466pt" height="531pt"
 viewBox="0.00 0.00 1466.48 531.00" xmlns="http://www.w3.org/2000/svg" xmlns:xlink="http://www.w3.org/1999/xlink">
<g id="graph0" class="graph" transform="scale(1 1) rotate(0) translate(4 527)">
<title>/home/travis/build/STORM&#45;IRIT/Radium&#45;Engine/src/Core/Animation/BulgeCorrection.cpp</title>
<polygon fill="white" stroke="none" points="-4,4 -4,-527 1462.48,-527 1462.48,4 -4,4"/>
<!-- Node1 -->
<g id="node1" class="node"><title>Node1</title>
<polygon fill="#bfbfbf" stroke="black" points="847.481,-481.5 847.481,-522.5 1058.48,-522.5 1058.48,-481.5 847.481,-481.5"/>
<text text-anchor="start" x="855.481" y="-510.5" font-family="Helvetica,sans-Serif" font-size="10.00">/home/travis/build</text>
<text text-anchor="start" x="855.481" y="-499.5" font-family="Helvetica,sans-Serif" font-size="10.00">/STORM&#45;IRIT/Radium&#45;Engine</text>
<text text-anchor="middle" x="952.981" y="-488.5" font-family="Helvetica,sans-Serif" font-size="10.00">/src/Core/Animation/BulgeCorrection.cpp</text>
</g>
<!-- Node2 -->
<g id="node2" class="node"><title>Node2</title>
<g id="a_node2"><a xlink:href="BulgeCorrection_8hpp.html" target="_top" xlink:title="Core/Animation/BulgeCorrection.hpp">
<polygon fill="white" stroke="black" points="417.481,-369.5 417.481,-388.5 608.481,-388.5 608.481,-369.5 417.481,-369.5"/>
<text text-anchor="middle" x="512.981" y="-376.5" font-family="Helvetica,sans-Serif" font-size="10.00">Core/Animation/BulgeCorrection.hpp</text>
</a>
</g>
</g>
<!-- Node1&#45;&gt;Node2 -->
<g id="edge1" class="edge"><title>Node1&#45;&gt;Node2</title>
<path fill="none" stroke="midnightblue" d="M881.798,-481.425C788.764,-455.84 628.888,-411.874 553.969,-391.272"/>
<polygon fill="midnightblue" stroke="midnightblue" points="554.548,-387.801 543.977,-388.524 552.691,-394.55 554.548,-387.801"/>
</g>
<!-- Node21 -->
<g id="node21" class="node"><title>Node21</title>
<g id="a_node21"><a xlink:href="DistanceQueries_8hpp.html" target="_top" xlink:title="Core/Geometry/DistanceQueries.hpp">
<polygon fill="white" stroke="black" points="1045.48,-425.5 1045.48,-444.5 1238.48,-444.5 1238.48,-425.5 1045.48,-425.5"/>
<text text-anchor="middle" x="1141.98" y="-432.5" font-family="Helvetica,sans-Serif" font-size="10.00">Core/Geometry/DistanceQueries.hpp</text>
</a>
</g>
</g>
<!-- Node1&#45;&gt;Node21 -->
<g id="edge30" class="edge"><title>Node1&#45;&gt;Node21</title>
<path fill="none" stroke="midnightblue" d="M1009.69,-481.498C1041.45,-470.574 1080.03,-457.304 1107.32,-447.922"/>
<polygon fill="midnightblue" stroke="midnightblue" points="1108.5,-451.214 1116.82,-444.652 1106.23,-444.595 1108.5,-451.214"/>
</g>
<!-- Node3 -->
<g id="node3" class="node"><title>Node3</title>
<g id="a_node3"><a xlink:href="Pose_8hpp.html" target="_top" xlink:title="Core/Animation/Pose.hpp">
<polygon fill="white" stroke="black" points="29.9811,-241 29.9811,-260 167.981,-260 167.981,-241 29.9811,-241"/>
<text text-anchor="middle" x="98.9811" y="-248" font-family="Helvetica,sans-Serif" font-size="10.00">Core/Animation/Pose.hpp</text>
</a>
</g>
</g>
<!-- Node2&#45;&gt;Node3 -->
<g id="edge2" class="edge"><title>Node2&#45;&gt;Node3</title>
<path fill="none" stroke="midnightblue" d="M417.442,-374.746C357.487,-370.022 279.576,-358.887 214.981,-333 175.652,-317.238 136.762,-285.821 115.505,-266.93"/>
<polygon fill="midnightblue" stroke="midnightblue" points="117.772,-264.261 108.013,-260.136 113.069,-269.446 117.772,-264.261"/>
</g>
<!-- Node14 -->
<g id="node14" class="node"><title>Node14</title>
<g id="a_node14"><a xlink:href="AdjacencyList_8hpp.html" target="_top" xlink:title="Core/Containers/Adjacency\lList.hpp">
<polygon fill="white" stroke="black" points="223.981,-302.5 223.981,-332.5 369.981,-332.5 369.981,-302.5 223.981,-302.5"/>
<text text-anchor="start" x="231.981" y="-320.5" font-family="Helvetica,sans-Serif" font-size="10.00">Core/Containers/Adjacency</text>
<text text-anchor="middle" x="296.981" y="-309.5" font-family="Helvetica,sans-Serif" font-size="10.00">List.hpp</text>
</a>
</g>
</g>
<!-- Node2&#45;&gt;Node14 -->
<g id="edge13" class="edge"><title>Node2&#45;&gt;Node14</title>
<path fill="none" stroke="midnightblue" d="M482.034,-369.475C449.704,-360.569 398.152,-346.369 357.661,-335.215"/>
<polygon fill="midnightblue" stroke="midnightblue" points="358.458,-331.804 347.888,-332.523 356.599,-338.553 358.458,-331.804"/>
</g>
<!-- Node15 -->
<g id="node15" class="node"><title>Node15</title>
<g id="a_node15"><a xlink:href="VectorArray_8hpp.html" target="_top" xlink:title="Core/Containers/VectorArray.hpp">
<polygon fill="white" stroke="black" points="426.481,-241 426.481,-260 599.481,-260 599.481,-241 426.481,-241"/>
<text text-anchor="middle" x="512.981" y="-248" font-family="Helvetica,sans-Serif" font-size="10.00">Core/Containers/VectorArray.hpp</text>
</a>
</g>
</g>
<!-- Node2&#45;&gt;Node15 -->
<g id="edge28" class="edge"><title>Node2&#45;&gt;Node15</title>
<path fill="none" stroke="midnightblue" d="M512.981,-369.305C512.981,-348.994 512.981,-298.053 512.981,-270.277"/>
<polygon fill="midnightblue" stroke="midnightblue" points="516.481,-270.256 512.981,-260.256 509.481,-270.256 516.481,-270.256"/>
</g>
<!-- Node16 -->
<g id="node16" class="node"><title>Node16</title>
<g id="a_node16"><a xlink:href="Types_8hpp.html" target="_top" xlink:title="Core/Types.hpp">
<polygon fill="white" stroke="black" points="659.481,-174 659.481,-193 748.481,-193 748.481,-174 659.481,-174"/>
<text text-anchor="middle" x="703.981" y="-181" font-family="Helvetica,sans-Serif" font-size="10.00">Core/Types.hpp</text>
</a>
</g>
</g>
<!-- Node2&#45;&gt;Node16 -->
<g id="edge29" class="edge"><title>Node2&#45;&gt;Node16</title>
<path fill="none" stroke="midnightblue" d="M521.356,-369.209C542.846,-346.691 601.782,-285.176 651.981,-235 663.78,-223.207 677.303,-210.086 687.6,-200.175"/>
<polygon fill="midnightblue" stroke="midnightblue" points="690.283,-202.451 695.073,-193.001 685.435,-197.402 690.283,-202.451"/>
</g>
<!-- Node4 -->
<g id="node4" class="node"><title>Node4</title>
<g id="a_node4"><a xlink:href="AlignedStdVector_8hpp.html" target="_top" xlink:title="Core/Containers/AlignedStd\lVector.hpp">
<polygon fill="white" stroke="black" points="183.481,-168.5 183.481,-198.5 332.481,-198.5 332.481,-168.5 183.481,-168.5"/>
<text text-anchor="start" x="191.481" y="-186.5" font-family="Helvetica,sans-Serif" font-size="10.00">Core/Containers/AlignedStd</text>
<text text-anchor="middle" x="257.981" y="-175.5" font-family="Helvetica,sans-Serif" font-size="10.00">Vector.hpp</text>
</a>
</g>
</g>
<!-- Node3&#45;&gt;Node4 -->
<g id="edge3" class="edge"><title>Node3&#45;&gt;Node4</title>
<path fill="none" stroke="midnightblue" d="M120.095,-240.869C143.954,-231.115 183.448,-214.97 214.068,-202.452"/>
<polygon fill="midnightblue" stroke="midnightblue" points="215.734,-205.552 223.666,-198.528 213.085,-199.072 215.734,-205.552"/>
</g>
<!-- Node5 -->
<g id="node5" class="node"><title>Node5</title>
<g id="a_node5"><a xlink:href="RaCore_8hpp.html" target="_top" xlink:title="Core/RaCore.hpp">
<polygon fill="white" stroke="black" points="831.981,-112.5 831.981,-131.5 929.981,-131.5 929.981,-112.5 831.981,-112.5"/>
<text text-anchor="middle" x="880.981" y="-119.5" font-family="Helvetica,sans-Serif" font-size="10.00">Core/RaCore.hpp</text>
</a>
</g>
</g>
<!-- Node4&#45;&gt;Node5 -->
<g id="edge4" class="edge"><title>Node4&#45;&gt;Node5</title>
<path fill="none" stroke="midnightblue" d="M332.591,-175.426C435.187,-165.691 625.588,-147.594 787.981,-132 798.86,-130.955 810.454,-129.837 821.634,-128.756"/>
<polygon fill="midnightblue" stroke="midnightblue" points="822.136,-132.224 831.752,-127.778 821.462,-125.257 822.136,-132.224"/>
</g>
<!-- Node12 -->
<g id="node12" class="node"><title>Node12</title>
<polygon fill="white" stroke="#bfbfbf" points="211.481,-112.5 211.481,-131.5 304.481,-131.5 304.481,-112.5 211.481,-112.5"/>
<text text-anchor="middle" x="257.981" y="-119.5" font-family="Helvetica,sans-Serif" font-size="10.00">Eigen/StdVector</text>
</g>
<!-- Node4&#45;&gt;Node12 -->
<g id="edge11" class="edge"><title>Node4&#45;&gt;Node12</title>
<path fill="none" stroke="midnightblue" d="M257.981,-168.399C257.981,-160.466 257.981,-150.458 257.981,-141.858"/>
<polygon fill="midnightblue" stroke="midnightblue" points="261.481,-141.658 257.981,-131.658 254.481,-141.658 261.481,-141.658"/>
</g>
<!-- Node13 -->
<g id="node13" class="node"><title>Node13</title>
<polygon fill="white" stroke="#bfbfbf" points="329.481,-112.5 329.481,-131.5 376.481,-131.5 376.481,-112.5 329.481,-112.5"/>
<text text-anchor="middle" x="352.981" y="-119.5" font-family="Helvetica,sans-Serif" font-size="10.00">vector</text>
</g>
<!-- Node4&#45;&gt;Node13 -->
<g id="edge12" class="edge"><title>Node4&#45;&gt;Node13</title>
<path fill="none" stroke="midnightblue" d="M280.495,-168.399C295.58,-158.951 315.366,-146.559 330.454,-137.109"/>
<polygon fill="midnightblue" stroke="midnightblue" points="332.541,-139.932 339.158,-131.658 328.825,-134 332.541,-139.932"/>
</g>
<!-- Node6 -->
<g id="node6" class="node"><title>Node6</title>
<g id="a_node6"><a xlink:href="CoreMacros_8hpp.html" target="_top" xlink:title="Core/CoreMacros.hpp">
<polygon fill="white" stroke="black" points="820.981,-56.5 820.981,-75.5 940.981,-75.5 940.981,-56.5 820.981,-56.5"/>
<text text-anchor="middle" x="880.981" y="-63.5" font-family="Helvetica,sans-Serif" font-size="10.00">Core/CoreMacros.hpp</text>
</a>
</g>
</g>
<!-- Node5&#45;&gt;Node6 -->
<g id="edge5" class="edge"><title>Node5&#45;&gt;Node6</title>
<path fill="none" stroke="midnightblue" d="M880.981,-112.083C880.981,-105.006 880.981,-94.8611 880.981,-85.9865"/>
<polygon fill="midnightblue" stroke="midnightblue" points="884.481,-85.751 880.981,-75.7511 877.481,-85.7511 884.481,-85.751"/>
</g>
<!-- Node7 -->
<g id="node7" class="node"><title>Node7</title>
<polygon fill="white" stroke="#bfbfbf" points="888.981,-0.5 888.981,-19.5 940.981,-19.5 940.981,-0.5 888.981,-0.5"/>
<text text-anchor="middle" x="914.981" y="-7.5" font-family="Helvetica,sans-Serif" font-size="10.00">cassert</text>
</g>
<!-- Node6&#45;&gt;Node7 -->
<g id="edge6" class="edge"><title>Node6&#45;&gt;Node7</title>
<path fill="none" stroke="midnightblue" d="M886.595,-56.083C891.348,-48.5341 898.299,-37.4948 904.133,-28.2298"/>
<polygon fill="midnightblue" stroke="midnightblue" points="907.105,-30.0783 909.471,-19.7511 901.181,-26.3486 907.105,-30.0783"/>
</g>
<!-- Node8 -->
<g id="node8" class="node"><title>Node8</title>
<polygon fill="white" stroke="#bfbfbf" points="959.481,-0.5 959.481,-19.5 1004.48,-19.5 1004.48,-0.5 959.481,-0.5"/>
<text text-anchor="middle" x="981.981" y="-7.5" font-family="Helvetica,sans-Serif" font-size="10.00">cstdio</text>
</g>
<!-- Node6&#45;&gt;Node8 -->
<g id="edge7" class="edge"><title>Node6&#45;&gt;Node8</title>
<path fill="none" stroke="midnightblue" d="M897.208,-56.324C913.332,-47.7034 938.281,-34.3643 956.945,-24.3855"/>
<polygon fill="midnightblue" stroke="midnightblue" points="958.625,-27.456 965.794,-19.6545 955.325,-21.283 958.625,-27.456"/>
</g>
<!-- Node9 -->
<g id="node9" class="node"><title>Node9</title>
<polygon fill="white" stroke="#bfbfbf" points="322.481,-0.5 322.481,-19.5 381.481,-19.5 381.481,-0.5 322.481,-0.5"/>
<text text-anchor="middle" x="351.981" y="-7.5" font-family="Helvetica,sans-Serif" font-size="10.00">iostream</text>
</g>
<!-- Node6&#45;&gt;Node9 -->
<g id="edge8" class="edge"><title>Node6&#45;&gt;Node9</title>
<path fill="none" stroke="midnightblue" d="M820.813,-58.8581C711.558,-47.7054 483.375,-24.4126 391.532,-15.0374"/>
<polygon fill="midnightblue" stroke="midnightblue" points="391.84,-11.5506 381.536,-14.0169 391.129,-18.5144 391.84,-11.5506"/>
</g>
<!-- Node10 -->
<g id="node10" class="node"><title>Node10</title>
<polygon fill="white" stroke="#bfbfbf" points="748.981,-0.5 748.981,-19.5 804.981,-19.5 804.981,-0.5 748.981,-0.5"/>
<text text-anchor="middle" x="776.981" y="-7.5" font-family="Helvetica,sans-Serif" font-size="10.00">sstream</text>
</g>
<!-- Node6&#45;&gt;Node10 -->
<g id="edge9" class="edge"><title>Node6&#45;&gt;Node10</title>
<path fill="none" stroke="midnightblue" d="M864.272,-56.324C847.669,-47.7034 821.979,-34.3643 802.761,-24.3855"/>
<polygon fill="midnightblue" stroke="midnightblue" points="804.137,-21.1565 793.649,-19.6545 800.911,-27.3689 804.137,-21.1565"/>
</g>
<!-- Node11 -->
<g id="node11" class="node"><title>Node11</title>
<polygon fill="white" stroke="#bfbfbf" points="822.981,-0.5 822.981,-19.5 870.981,-19.5 870.981,-0.5 822.981,-0.5"/>
<text text-anchor="middle" x="846.981" y="-7.5" font-family="Helvetica,sans-Serif" font-size="10.00">thread</text>
</g>
<!-- Node6&#45;&gt;Node11 -->
<g id="edge10" class="edge"><title>Node6&#45;&gt;Node11</title>
<path fill="none" stroke="midnightblue" d="M875.367,-56.083C870.614,-48.5341 863.663,-37.4948 857.829,-28.2298"/>
<polygon fill="midnightblue" stroke="midnightblue" points="860.781,-26.3486 852.491,-19.7511 854.857,-30.0783 860.781,-26.3486"/>
</g>
<!-- Node14&#45;&gt;Node4 -->
<g id="edge14" class="edge"><title>Node14&#45;&gt;Node4</title>
<path fill="none" stroke="midnightblue" d="M257.861,-302.483C241.553,-294.474 224.276,-282.64 214.981,-266 203.785,-245.956 218.656,-222.771 233.886,-206.267"/>
<polygon fill="midnightblue" stroke="midnightblue" points="236.766,-208.33 241.279,-198.745 231.773,-203.424 236.766,-208.33"/>
</g>
<!-- Node14&#45;&gt;Node9 -->
<g id="edge25" class="edge"><title>Node14&#45;&gt;Node9</title>
<path fill="none" stroke="midnightblue" d="M223.893,-312.057C152.164,-306.174 49.4996,-293.18 20.9811,-266 -5.94318,-240.34 1.98106,-221.694 1.98106,-184.5 1.98106,-184.5 1.98106,-184.5 1.98106,-121 1.98106,-56.5262 220.865,-25.2335 312.441,-14.9628"/>
<polygon fill="midnightblue" stroke="midnightblue" points="312.882,-18.4355 322.442,-13.8682 312.12,-11.477 312.882,-18.4355"/>
</g>
<!-- Node14&#45;&gt;Node15 -->
<g id="edge15" class="edge"><title>Node14&#45;&gt;Node15</title>
<path fill="none" stroke="midnightblue" d="M343.584,-302.476C382.807,-290.673 438.209,-274.001 474.836,-262.979"/>
<polygon fill="midnightblue" stroke="midnightblue" points="476.072,-266.262 484.64,-260.029 474.055,-259.559 476.072,-266.262"/>
</g>
<!-- Node17 -->
<g id="node17" class="node"><title>Node17</title>
<polygon fill="white" stroke="#bfbfbf" points="612.981,-112.5 612.981,-131.5 680.981,-131.5 680.981,-112.5 612.981,-112.5"/>
<text text-anchor="middle" x="646.981" y="-119.5" font-family="Helvetica,sans-Serif" font-size="10.00">Eigen/Core</text>
</g>
<!-- Node14&#45;&gt;Node17 -->
<g id="edge24" class="edge"><title>Node14&#45;&gt;Node17</title>
<path fill="none" stroke="midnightblue" d="M321.927,-302.3C338.466,-292.606 360.45,-279.177 378.981,-266 396.744,-253.369 398.616,-246.738 416.981,-235 484.268,-191.992 570.499,-154.147 615.868,-135.429"/>
<polygon fill="midnightblue" stroke="midnightblue" points="617.241,-138.649 625.171,-131.623 614.591,-132.17 617.241,-138.649"/>
</g>
<!-- Node20 -->
<g id="node20" class="node"><title>Node20</title>
<g id="a_node20"><a xlink:href="AdjacencyList_8inl.html" target="_top" xlink:title="Core/Containers/Adjacency\lList.inl">
<polygon fill="white" stroke="black" points="223.981,-235.5 223.981,-265.5 369.981,-265.5 369.981,-235.5 223.981,-235.5"/>
<text text-anchor="start" x="231.981" y="-253.5" font-family="Helvetica,sans-Serif" font-size="10.00">Core/Containers/Adjacency</text>
<text text-anchor="middle" x="296.981" y="-242.5" font-family="Helvetica,sans-Serif" font-size="10.00">List.inl</text>
</a>
</g>
</g>
<!-- Node14&#45;&gt;Node20 -->
<g id="edge26" class="edge"><title>Node14&#45;&gt;Node20</title>
<path fill="none" stroke="midnightblue" d="M291.303,-302.396C290.275,-294.56 289.986,-284.596 290.437,-275.565"/>
<polygon fill="midnightblue" stroke="midnightblue" points="293.926,-275.842 291.306,-265.577 286.953,-275.236 293.926,-275.842"/>
</g>
<!-- Node15&#45;&gt;Node4 -->
<g id="edge16" class="edge"><title>Node15&#45;&gt;Node4</title>
<path fill="none" stroke="midnightblue" d="M479.382,-240.936C439.697,-230.82 372.778,-213.762 322.876,-201.042"/>
<polygon fill="midnightblue" stroke="midnightblue" points="323.691,-197.638 313.136,-198.559 321.962,-204.421 323.691,-197.638"/>
</g>
<!-- Node15&#45;&gt;Node5 -->
<g id="edge17" class="edge"><title>Node15&#45;&gt;Node5</title>
<path fill="none" stroke="midnightblue" d="M524.369,-240.842C547.007,-224.075 599.819,-187.141 649.981,-168 706.172,-146.559 774.117,-134.897 821.722,-128.857"/>
<polygon fill="midnightblue" stroke="midnightblue" points="822.358,-132.305 831.859,-127.617 821.508,-125.357 822.358,-132.305"/>
</g>
<!-- Node15&#45;&gt;Node13 -->
<g id="edge23" class="edge"><title>Node15&#45;&gt;Node13</title>
<path fill="none" stroke="midnightblue" d="M501.984,-240.805C475.152,-219.591 406.059,-164.965 372.226,-138.215"/>
<polygon fill="midnightblue" stroke="midnightblue" points="374.071,-135.212 364.055,-131.756 369.729,-140.703 374.071,-135.212"/>
</g>
<!-- Node15&#45;&gt;Node16 -->
<g id="edge18" class="edge"><title>Node15&#45;&gt;Node16</title>
<path fill="none" stroke="midnightblue" d="M538.344,-240.869C571.972,-229.424 631.458,-209.181 669.242,-196.322"/>
<polygon fill="midnightblue" stroke="midnightblue" points="670.478,-199.599 678.817,-193.064 668.223,-192.972 670.478,-199.599"/>
</g>
<!-- Node16&#45;&gt;Node5 -->
<g id="edge19" class="edge"><title>Node16&#45;&gt;Node5</title>
<path fill="none" stroke="midnightblue" d="M729.341,-173.975C759.965,-163.68 811.638,-146.31 846.027,-134.75"/>
<polygon fill="midnightblue" stroke="midnightblue" points="847.305,-138.013 855.668,-131.509 845.074,-131.378 847.305,-138.013"/>
</g>
<!-- Node16&#45;&gt;Node17 -->
<g id="edge20" class="edge"><title>Node16&#45;&gt;Node17</title>
<path fill="none" stroke="midnightblue" d="M695.814,-173.975C687.095,-164.873 673.077,-150.241 662.292,-138.983"/>
<polygon fill="midnightblue" stroke="midnightblue" points="664.578,-136.309 655.133,-131.509 659.523,-141.151 664.578,-136.309"/>
</g>
<!-- Node18 -->
<g id="node18" class="node"><title>Node18</title>
<polygon fill="white" stroke="#bfbfbf" points="1022.98,-112.5 1022.98,-131.5 1116.98,-131.5 1116.98,-112.5 1022.98,-112.5"/>
<text text-anchor="middle" x="1069.98" y="-119.5" font-family="Helvetica,sans-Serif" font-size="10.00">Eigen/Geometry</text>
</g>
<!-- Node16&#45;&gt;Node18 -->
<g id="edge21" class="edge"><title>Node16&#45;&gt;Node18</title>
<path fill="none" stroke="midnightblue" d="M748.494,-175.264C814.905,-164.467 939.917,-144.144 1012.94,-132.272"/>
<polygon fill="midnightblue" stroke="midnightblue" points="1013.58,-135.715 1022.89,-130.655 1012.46,-128.805 1013.58,-135.715"/>
</g>
<!-- Node19 -->
<g id="node19" class="node"><title>Node19</title>
<polygon fill="white" stroke="#bfbfbf" points="698.981,-112.5 698.981,-131.5 778.981,-131.5 778.981,-112.5 698.981,-112.5"/>
<text text-anchor="middle" x="738.981" y="-119.5" font-family="Helvetica,sans-Serif" font-size="10.00">Eigen/Sparse</text>
</g>
<!-- Node16&#45;&gt;Node19 -->
<g id="edge22" class="edge"><title>Node16&#45;&gt;Node19</title>
<path fill="none" stroke="midnightblue" d="M708.996,-173.975C714.142,-165.227 722.293,-151.369 728.799,-140.309"/>
<polygon fill="midnightblue" stroke="midnightblue" points="731.922,-141.903 733.976,-131.509 725.889,-138.354 731.922,-141.903"/>
</g>
<!-- Node20&#45;&gt;Node14 -->
<g id="edge27" class="edge"><title>Node20&#45;&gt;Node14</title>
<path fill="none" stroke="midnightblue" d="M302.656,-265.577C303.685,-273.408 303.976,-283.37 303.526,-292.403"/>
<polygon fill="midnightblue" stroke="midnightblue" points="300.037,-292.131 302.659,-302.396 307.011,-292.736 300.037,-292.131"/>
</g>
<!-- Node21&#45;&gt;Node5 -->
<g id="edge52" class="edge"><title>Node21&#45;&gt;Node5</title>
<path fill="none" stroke="midnightblue" d="M1146.83,-425.313C1166.48,-388.831 1235.99,-246.288 1168.98,-168 1154.32,-150.867 1020.45,-135.777 940.487,-128.19"/>
<polygon fill="midnightblue" stroke="midnightblue" points="940.34,-124.662 930.058,-127.214 939.688,-131.631 940.34,-124.662"/>
</g>
<!-- Node21&#45;&gt;Node16 -->
<g id="edge53" class="edge"><title>Node21&#45;&gt;Node16</title>
<path fill="none" stroke="midnightblue" d="M1045.25,-427.616C923.458,-417.199 725.202,-391.505 684.981,-333 657.453,-292.957 680.266,-232.2 694.573,-202.34"/>
<polygon fill="midnightblue" stroke="midnightblue" points="697.827,-203.66 699.183,-193.152 691.57,-200.521 697.827,-203.66"/>
</g>
<!-- Node22 -->
<g id="node22" class="node"><title>Node22</title>
<g id="a_node22"><a xlink:href="TriangleMesh_8hpp.html" target="_top" xlink:title="Core/Geometry/TriangleMesh.hpp">
<polygon fill="white" stroke="black" points="839.981,-369.5 839.981,-388.5 1015.98,-388.5 1015.98,-369.5 839.981,-369.5"/>
<text text-anchor="middle" x="927.981" y="-376.5" font-family="Helvetica,sans-Serif" font-size="10.00">Core/Geometry/TriangleMesh.hpp</text>
</a>
</g>
</g>
<!-- Node21&#45;&gt;Node22 -->
<g id="edge31" class="edge"><title>Node21&#45;&gt;Node22</title>
<path fill="none" stroke="midnightblue" d="M1108.07,-425.444C1071.13,-416.122 1011.93,-401.183 971.563,-390.997"/>
<polygon fill="midnightblue" stroke="midnightblue" points="972.284,-387.57 961.731,-388.516 970.571,-394.357 972.284,-387.57"/>
</g>
<!-- Node26 -->
<g id="node26" class="node"><title>Node26</title>
<polygon fill="white" stroke="#bfbfbf" points="1099.98,-174 1099.98,-193 1141.98,-193 1141.98,-174 1099.98,-174"/>
<text text-anchor="middle" x="1120.98" y="-181" font-family="Helvetica,sans-Serif" font-size="10.00">limits</text>
</g>
<!-- Node21&#45;&gt;Node26 -->
<g id="edge54" class="edge"><title>Node21&#45;&gt;Node26</title>
<path fill="none" stroke="midnightblue" d="M1141.26,-425.412C1138.26,-389.798 1126.77,-253.252 1122.55,-203.109"/>
<polygon fill="midnightblue" stroke="midnightblue" points="1126.03,-202.723 1121.7,-193.052 1119.05,-203.311 1126.03,-202.723"/>
</g>
<!-- Node31 -->
<g id="node31" class="node"><title>Node31</title>
<g id="a_node31"><a xlink:href="DistanceQueries_8inl.html" target="_top" xlink:title="Core/Geometry/DistanceQueries.inl">
<polygon fill="white" stroke="black" points="1273.48,-369.5 1273.48,-388.5 1458.48,-388.5 1458.48,-369.5 1273.48,-369.5"/>
<text text-anchor="middle" x="1365.98" y="-376.5" font-family="Helvetica,sans-Serif" font-size="10.00">Core/Geometry/DistanceQueries.inl</text>
</a>
</g>
</g>
<!-- Node21&#45;&gt;Node31 -->
<g id="edge55" class="edge"><title>Node21&#45;&gt;Node31</title>
<path fill="none" stroke="midnightblue" d="M1172.39,-425.444C1209.24,-416.063 1271.61,-400.993 1315.64,-390.804"/>
<polygon fill="midnightblue" stroke="midnightblue" points="1316.61,-394.171 1325.57,-388.516 1315.04,-387.349 1316.61,-394.171"/>
</g>
<!-- Node22&#45;&gt;Node5 -->
<g id="edge36" class="edge"><title>Node22&#45;&gt;Node5</title>
<path fill="none" stroke="midnightblue" d="M1002.24,-369.44C1030.32,-363.111 1061.01,-352.111 1083.98,-333 1114.4,-307.688 1176.56,-198.196 1150.98,-168 1137.5,-152.091 1015.62,-136.847 940.292,-128.832"/>
<polygon fill="midnightblue" stroke="midnightblue" points="940.299,-125.313 929.988,-127.75 939.568,-132.275 940.299,-125.313"/>
</g>
<!-- Node22&#45;&gt;Node15 -->
<g id="edge32" class="edge"><title>Node22&#45;&gt;Node15</title>
<path fill="none" stroke="midnightblue" d="M854.723,-369.481C805.851,-362.577 740.602,-350.989 684.981,-333 629.467,-315.045 568.707,-283.087 536.348,-264.984"/>
<polygon fill="midnightblue" stroke="midnightblue" points="538.055,-261.928 527.627,-260.054 534.611,-268.022 538.055,-261.928"/>
</g>
<!-- Node22&#45;&gt;Node16 -->
<g id="edge37" class="edge"><title>Node22&#45;&gt;Node16</title>
<path fill="none" stroke="midnightblue" d="M924.032,-369.394C916.262,-353.466 897.418,-319.432 870.981,-302 814.466,-264.734 770.62,-314.097 722.981,-266 706.555,-249.416 703.263,-221.55 703.089,-203.093"/>
<polygon fill="midnightblue" stroke="midnightblue" points="706.59,-203.071 703.294,-193.002 699.592,-202.929 706.59,-203.071"/>
</g>
<!-- Node23 -->
<g id="node23" class="node"><title>Node23</title>
<g id="a_node23"><a xlink:href="AbstractGeometry_8hpp.html" target="_top" xlink:title="Core/Geometry/AbstractGeometry.hpp">
<polygon fill="white" stroke="black" points="732.481,-241 732.481,-260 933.481,-260 933.481,-241 732.481,-241"/>
<text text-anchor="middle" x="832.981" y="-248" font-family="Helvetica,sans-Serif" font-size="10.00">Core/Geometry/AbstractGeometry.hpp</text>
</a>
</g>
</g>
<!-- Node22&#45;&gt;Node23 -->
<g id="edge33" class="edge"><title>Node22&#45;&gt;Node23</title>
<path fill="none" stroke="midnightblue" d="M927.041,-369.213C925.057,-354.16 919.29,-323.031 903.981,-302 892.555,-286.302 874.737,-273.65 859.81,-264.936"/>
<polygon fill="midnightblue" stroke="midnightblue" points="861.414,-261.824 850.972,-260.028 858.015,-267.943 861.414,-261.824"/>
</g>
<!-- Node24 -->
<g id="node24" class="node"><title>Node24</title>
<g id="a_node24"><a xlink:href="Attribs_8hpp.html" target="_top" xlink:title="Core/Utils/Attribs.hpp">
<polygon fill="white" stroke="black" points="956.481,-308 956.481,-327 1075.48,-327 1075.48,-308 956.481,-308"/>
<text text-anchor="middle" x="1015.98" y="-315" font-family="Helvetica,sans-Serif" font-size="10.00">Core/Utils/Attribs.hpp</text>
</a>
</g>
</g>
<!-- Node22&#45;&gt;Node24 -->
<g id="edge38" class="edge"><title>Node22&#45;&gt;Node24</title>
<path fill="none" stroke="midnightblue" d="M940.589,-369.475C954.704,-359.931 977.812,-344.307 994.73,-332.868"/>
<polygon fill="midnightblue" stroke="midnightblue" points="997.072,-335.51 1003.4,-327.009 993.152,-329.711 997.072,-335.51"/>
</g>
<!-- Node28 -->
<g id="node28" class="node"><title>Node28</title>
<g id="a_node28"><a xlink:href="Color_8hpp.html" target="_top" xlink:title="Core/Utils/Color.hpp">
<polygon fill="white" stroke="black" points="1236.48,-174 1236.48,-193 1347.48,-193 1347.48,-174 1236.48,-174"/>
<text text-anchor="middle" x="1291.98" y="-181" font-family="Helvetica,sans-Serif" font-size="10.00">Core/Utils/Color.hpp</text>
</a>
</g>
</g>
<!-- Node22&#45;&gt;Node28 -->
<g id="edge45" class="edge"><title>Node22&#45;&gt;Node28</title>
<path fill="none" stroke="midnightblue" d="M998.436,-369.458C1035.48,-362.991 1080.8,-351.866 1117.98,-333 1186.29,-298.343 1250.43,-231.619 1277.92,-200.817"/>
<polygon fill="midnightblue" stroke="midnightblue" points="1280.69,-202.959 1284.67,-193.138 1275.44,-198.336 1280.69,-202.959"/>
</g>
<!-- Node30 -->
<g id="node30" class="node"><title>Node30</title>
<g id="a_node30"><a xlink:href="TriangleMesh_8inl.html" target="_top" xlink:title="Core/Geometry/TriangleMesh.inl">
<polygon fill="white" stroke="black" points="693.981,-308 693.981,-327 861.981,-327 861.981,-308 693.981,-308"/>
<text text-anchor="middle" x="777.981" y="-315" font-family="Helvetica,sans-Serif" font-size="10.00">Core/Geometry/TriangleMesh.inl</text>
</a>
</g>
</g>
<!-- Node22&#45;&gt;Node30 -->
<g id="edge50" class="edge"><title>Node22&#45;&gt;Node30</title>
<path fill="none" stroke="midnightblue" d="M901.589,-369.475C873.996,-359.401 831.28,-342.553 803.881,-331.002"/>
<polygon fill="midnightblue" stroke="midnightblue" points="805.106,-327.72 794.535,-327.009 802.356,-334.157 805.106,-327.72"/>
</g>
<!-- Node23&#45;&gt;Node5 -->
<g id="edge34" class="edge"><title>Node23&#45;&gt;Node5</title>
<path fill="none" stroke="midnightblue" d="M836.28,-240.805C844.022,-220.404 863.489,-169.1 873.996,-141.408"/>
<polygon fill="midnightblue" stroke="midnightblue" points="877.383,-142.347 877.659,-131.756 870.839,-139.864 877.383,-142.347"/>
</g>
<!-- Node23&#45;&gt;Node16 -->
<g id="edge35" class="edge"><title>Node23&#45;&gt;Node16</title>
<path fill="none" stroke="midnightblue" d="M815.851,-240.869C793.973,-229.845 755.89,-210.655 730.313,-197.768"/>
<polygon fill="midnightblue" stroke="midnightblue" points="731.687,-194.541 721.182,-193.167 728.538,-200.793 731.687,-194.541"/>
</g>
<!-- Node24&#45;&gt;Node5 -->
<g id="edge40" class="edge"><title>Node24&#45;&gt;Node5</title>
<path fill="none" stroke="midnightblue" d="M1008.96,-307.886C993.495,-288.765 955.578,-241.138 926.981,-199 913.766,-179.529 899.963,-156.27 890.968,-140.656"/>
<polygon fill="midnightblue" stroke="midnightblue" points="893.803,-138.563 885.805,-131.615 887.725,-142.035 893.803,-138.563"/>
</g>
<!-- Node24&#45;&gt;Node15 -->
<g id="edge39" class="edge"><title>Node24&#45;&gt;Node15</title>
<path fill="none" stroke="midnightblue" d="M956.305,-308.788C864.725,-296.954 689.599,-274.323 589.04,-261.329"/>
<polygon fill="midnightblue" stroke="midnightblue" points="589.316,-257.835 578.949,-260.025 588.418,-264.778 589.316,-257.835"/>
</g>
<!-- Node25 -->
<g id="node25" class="node"><title>Node25</title>
<g id="a_node25"><a xlink:href="Index_8hpp.html" target="_top" xlink:title="Core/Utils/Index.hpp">
<polygon fill="white" stroke="black" points="990.481,-241 990.481,-260 1103.48,-260 1103.48,-241 990.481,-241"/>
<text text-anchor="middle" x="1046.98" y="-248" font-family="Helvetica,sans-Serif" font-size="10.00">Core/Utils/Index.hpp</text>
</a>
</g>
</g>
<!-- Node24&#45;&gt;Node25 -->
<g id="edge41" class="edge"><title>Node24&#45;&gt;Node25</title>
<path fill="none" stroke="midnightblue" d="M1020.16,-307.734C1024.86,-297.89 1032.6,-281.66 1038.56,-269.159"/>
<polygon fill="midnightblue" stroke="midnightblue" points="1041.72,-270.66 1042.87,-260.127 1035.4,-267.647 1041.72,-270.66"/>
</g>
<!-- Node25&#45;&gt;Node5 -->
<g id="edge42" class="edge"><title>Node25&#45;&gt;Node5</title>
<path fill="none" stroke="midnightblue" d="M1031.76,-240.883C1015.3,-231.34 988.532,-215.16 966.981,-199 941.5,-179.893 914.311,-155.017 897.481,-139.025"/>
<polygon fill="midnightblue" stroke="midnightblue" points="899.745,-136.347 890.104,-131.952 894.9,-141.399 899.745,-136.347"/>
</g>
<!-- Node25&#45;&gt;Node26 -->
<g id="edge43" class="edge"><title>Node25&#45;&gt;Node26</title>
<path fill="none" stroke="midnightblue" d="M1056.96,-240.734C1068.83,-230.305 1088.87,-212.709 1103.37,-199.973"/>
<polygon fill="midnightblue" stroke="midnightblue" points="1105.96,-202.356 1111.16,-193.127 1101.34,-197.097 1105.96,-202.356"/>
</g>
<!-- Node27 -->
<g id="node27" class="node"><title>Node27</title>
<g id="a_node27"><a xlink:href="Index_8inl.html" target="_top" xlink:title="Core/Utils/Index.inl">
<polygon fill="white" stroke="black" points="976.481,-174 976.481,-193 1081.48,-193 1081.48,-174 976.481,-174"/>
<text text-anchor="middle" x="1028.98" y="-181" font-family="Helvetica,sans-Serif" font-size="10.00">Core/Utils/Index.inl</text>
</a>
</g>
</g>
<!-- Node25&#45;&gt;Node27 -->
<g id="edge44" class="edge"><title>Node25&#45;&gt;Node27</title>
<path fill="none" stroke="midnightblue" d="M1044.55,-240.734C1041.88,-231.085 1037.51,-215.3 1034.08,-202.906"/>
<polygon fill="midnightblue" stroke="midnightblue" points="1037.41,-201.831 1031.37,-193.127 1030.67,-203.699 1037.41,-201.831"/>
</g>
<!-- Node28&#45;&gt;Node6 -->
<g id="edge46" class="edge"><title>Node28&#45;&gt;Node6</title>
<path fill="none" stroke="midnightblue" d="M1292.48,-173.992C1292.86,-158.938 1291.23,-127.716 1272.98,-112 1249.13,-91.458 1057.42,-77.2146 951.207,-70.8157"/>
<polygon fill="midnightblue" stroke="midnightblue" points="951.395,-67.3208 941.205,-70.221 950.979,-74.3084 951.395,-67.3208"/>
</g>
<!-- Node28&#45;&gt;Node17 -->
<g id="edge47" class="edge"><title>Node28&#45;&gt;Node17</title>
<path fill="none" stroke="midnightblue" d="M1236.43,-176.469C1210.48,-173.734 1179.17,-170.549 1150.98,-168 949.602,-149.785 895.165,-160.744 691.315,-132.015"/>
<polygon fill="midnightblue" stroke="midnightblue" points="691.572,-128.516 681.178,-130.571 690.585,-135.446 691.572,-128.516"/>
</g>
<!-- Node28&#45;&gt;Node18 -->
<g id="edge48" class="edge"><title>Node28&#45;&gt;Node18</title>
<path fill="none" stroke="midnightblue" d="M1260.17,-173.975C1221.1,-163.504 1154.72,-145.712 1111.62,-134.16"/>
<polygon fill="midnightblue" stroke="midnightblue" points="1112.29,-130.717 1101.73,-131.509 1110.48,-137.479 1112.29,-130.717"/>
</g>
<!-- Node29 -->
<g id="node29" class="node"><title>Node29</title>
<polygon fill="white" stroke="#bfbfbf" points="1209.98,-112.5 1209.98,-131.5 1263.98,-131.5 1263.98,-112.5 1209.98,-112.5"/>
<text text-anchor="middle" x="1236.98" y="-119.5" font-family="Helvetica,sans-Serif" font-size="10.00">random</text>
</g>
<!-- Node28&#45;&gt;Node29 -->
<g id="edge49" class="edge"><title>Node28&#45;&gt;Node29</title>
<path fill="none" stroke="midnightblue" d="M1284.1,-173.975C1275.69,-164.873 1262.16,-150.241 1251.76,-138.983"/>
<polygon fill="midnightblue" stroke="midnightblue" points="1254.2,-136.477 1244.85,-131.509 1249.06,-141.228 1254.2,-136.477"/>
</g>
<!-- Node30&#45;&gt;Node22 -->
<g id="edge51" class="edge"><title>Node30&#45;&gt;Node22</title>
<path fill="none" stroke="midnightblue" d="M804.33,-327.009C831.907,-337.076 874.623,-353.924 902.038,-365.48"/>
<polygon fill="midnightblue" stroke="midnightblue" points="900.819,-368.765 911.39,-369.475 903.57,-362.328 900.819,-368.765"/>
</g>
<!-- Node31&#45;&gt;Node21 -->
<g id="edge56" class="edge"><title>Node31&#45;&gt;Node21</title>
<path fill="none" stroke="midnightblue" d="M1335.73,-388.516C1298.95,-397.881 1236.59,-412.95 1192.51,-423.153"/>
<polygon fill="midnightblue" stroke="midnightblue" points="1191.52,-419.789 1182.56,-425.444 1193.09,-426.61 1191.52,-419.789"/>
</g>
<!-- Node32 -->
<g id="node32" class="node"><title>Node32</title>
<polygon fill="white" stroke="#bfbfbf" points="1334.98,-308 1334.98,-327 1396.98,-327 1396.98,-308 1334.98,-308"/>
<text text-anchor="middle" x="1365.98" y="-315" font-family="Helvetica,sans-Serif" font-size="10.00">algorithm</text>
</g>
<!-- Node31&#45;&gt;Node32 -->
<g id="edge57" class="edge"><title>Node31&#45;&gt;Node32</title>
<path fill="none" stroke="midnightblue" d="M1365.98,-369.475C1365.98,-361.08 1365.98,-347.981 1365.98,-337.163"/>
<polygon fill="midnightblue" stroke="midnightblue" points="1369.48,-337.009 1365.98,-327.009 1362.48,-337.009 1369.48,-337.009"/>
</g>
</g>
</svg>
