<?xml version="1.0" encoding="UTF-8" standalone="no"?>
<!DOCTYPE svg PUBLIC "-//W3C//DTD SVG 1.1//EN"
 "http://www.w3.org/Graphics/SVG/1.1/DTD/svg11.dtd">
<!-- Generated by graphviz version 2.38.0 (20140413.2041)
 -->
<!-- Title: /home/travis/build/STORM&#45;IRIT/Radium&#45;Engine/src/Core/Animation/BulgeCorrection.hpp Pages: 1 -->
<svg width="607pt" height="419pt"
 viewBox="0.00 0.00 606.50 419.00" xmlns="http://www.w3.org/2000/svg" xmlns:xlink="http://www.w3.org/1999/xlink">
<g id="graph0" class="graph" transform="scale(1 1) rotate(0) translate(4 415)">
<title>/home/travis/build/STORM&#45;IRIT/Radium&#45;Engine/src/Core/Animation/BulgeCorrection.hpp</title>
<polygon fill="white" stroke="none" points="-4,4 -4,-415 602.5,-415 602.5,4 -4,4"/>
<!-- Node1 -->
<g id="node1" class="node"><title>Node1</title>
<polygon fill="#bfbfbf" stroke="black" points="185.5,-369.5 185.5,-410.5 397.5,-410.5 397.5,-369.5 185.5,-369.5"/>
<text text-anchor="start" x="193.5" y="-398.5" font-family="Helvetica,sans-Serif" font-size="10.00">/home/travis/build</text>
<text text-anchor="start" x="193.5" y="-387.5" font-family="Helvetica,sans-Serif" font-size="10.00">/STORM&#45;IRIT/Radium&#45;Engine</text>
<text text-anchor="middle" x="291.5" y="-376.5" font-family="Helvetica,sans-Serif" font-size="10.00">/src/Core/Animation/BulgeCorrection.hpp</text>
</g>
<!-- Node2 -->
<g id="node2" class="node"><title>Node2</title>
<g id="a_node2"><a xlink:href="Pose_8hpp.html" target="_top" xlink:title="Core/Animation/Pose.hpp">
<polygon fill="white" stroke="black" points="40.5,-308 40.5,-327 178.5,-327 178.5,-308 40.5,-308"/>
<text text-anchor="middle" x="109.5" y="-315" font-family="Helvetica,sans-Serif" font-size="10.00">Core/Animation/Pose.hpp</text>
</a>
</g>
</g>
<!-- Node1&#45;&gt;Node2 -->
<g id="edge1" class="edge"><title>Node1&#45;&gt;Node2</title>
<path fill="none" stroke="midnightblue" d="M240.803,-369.362C208.953,-357.024 168.849,-341.489 141.394,-330.855"/>
<polygon fill="midnightblue" stroke="midnightblue" points="142.48,-327.522 131.891,-327.173 139.951,-334.049 142.48,-327.522"/>
</g>
<!-- Node13 -->
<g id="node13" class="node"><title>Node13</title>
<g id="a_node13"><a xlink:href="AdjacencyList_8hpp.html" target="_top" xlink:title="Core/Containers/Adjacency\lList.hpp">
<polygon fill="white" stroke="black" points="272.5,-302.5 272.5,-332.5 418.5,-332.5 418.5,-302.5 272.5,-302.5"/>
<text text-anchor="start" x="280.5" y="-320.5" font-family="Helvetica,sans-Serif" font-size="10.00">Core/Containers/Adjacency</text>
<text text-anchor="middle" x="345.5" y="-309.5" font-family="Helvetica,sans-Serif" font-size="10.00">List.hpp</text>
</a>
</g>
</g>
<!-- Node1&#45;&gt;Node13 -->
<g id="edge12" class="edge"><title>Node1&#45;&gt;Node13</title>
<path fill="none" stroke="midnightblue" d="M306.542,-369.362C313.328,-360.503 321.376,-349.995 328.391,-340.837"/>
<polygon fill="midnightblue" stroke="midnightblue" points="331.174,-342.959 334.477,-332.892 325.617,-338.702 331.174,-342.959"/>
</g>
<!-- Node14 -->
<g id="node14" class="node"><title>Node14</title>
<g id="a_node14"><a xlink:href="VectorArray_8hpp.html" target="_top" xlink:title="Core/Containers/VectorArray.hpp">
<polygon fill="white" stroke="black" points="144,-241 144,-260 317,-260 317,-241 144,-241"/>
<text text-anchor="middle" x="230.5" y="-248" font-family="Helvetica,sans-Serif" font-size="10.00">Core/Containers/VectorArray.hpp</text>
</a>
</g>
</g>
<!-- Node1&#45;&gt;Node14 -->
<g id="edge27" class="edge"><title>Node1&#45;&gt;Node14</title>
<path fill="none" stroke="midnightblue" d="M281.269,-369.486C275.79,-358.807 269.048,-345.284 263.5,-333 253.811,-311.545 243.819,-286.363 237.406,-269.73"/>
<polygon fill="midnightblue" stroke="midnightblue" points="240.588,-268.251 233.748,-260.16 234.049,-270.751 240.588,-268.251"/>
</g>
<!-- Node15 -->
<g id="node15" class="node"><title>Node15</title>
<g id="a_node15"><a xlink:href="Types_8hpp.html" target="_top" xlink:title="Core/Types.hpp">
<polygon fill="white" stroke="black" points="374,-174 374,-193 463,-193 463,-174 374,-174"/>
<text text-anchor="middle" x="418.5" y="-181" font-family="Helvetica,sans-Serif" font-size="10.00">Core/Types.hpp</text>
</a>
</g>
</g>
<!-- Node1&#45;&gt;Node15 -->
<g id="edge28" class="edge"><title>Node1&#45;&gt;Node15</title>
<path fill="none" stroke="midnightblue" d="M380.455,-369.498C434.618,-352.333 498.907,-321.143 528.5,-266 535.015,-253.86 535.937,-246.598 528.5,-235 516.007,-215.519 493.905,-203.453 472.773,-196.028"/>
<polygon fill="midnightblue" stroke="midnightblue" points="473.762,-192.669 463.171,-192.933 471.615,-199.332 473.762,-192.669"/>
</g>
<!-- Node3 -->
<g id="node3" class="node"><title>Node3</title>
<g id="a_node3"><a xlink:href="AlignedStdVector_8hpp.html" target="_top" xlink:title="Core/Containers/AlignedStd\lVector.hpp">
<polygon fill="white" stroke="black" points="28,-168.5 28,-198.5 177,-198.5 177,-168.5 28,-168.5"/>
<text text-anchor="start" x="36" y="-186.5" font-family="Helvetica,sans-Serif" font-size="10.00">Core/Containers/AlignedStd</text>
<text text-anchor="middle" x="102.5" y="-175.5" font-family="Helvetica,sans-Serif" font-size="10.00">Vector.hpp</text>
</a>
</g>
</g>
<!-- Node2&#45;&gt;Node3 -->
<g id="edge2" class="edge"><title>Node2&#45;&gt;Node3</title>
<path fill="none" stroke="midnightblue" d="M107.729,-307.971C105.75,-297.969 102.67,-280.867 101.5,-266 99.9933,-246.859 100.365,-225.113 101.047,-208.9"/>
<polygon fill="midnightblue" stroke="midnightblue" points="104.555,-208.82 101.549,-198.66 97.5631,-208.477 104.555,-208.82"/>
</g>
<!-- Node4 -->
<g id="node4" class="node"><title>Node4</title>
<g id="a_node4"><a xlink:href="RaCore_8hpp.html" target="_top" xlink:title="Core/RaCore.hpp">
<polygon fill="white" stroke="black" points="176.5,-112.5 176.5,-131.5 274.5,-131.5 274.5,-112.5 176.5,-112.5"/>
<text text-anchor="middle" x="225.5" y="-119.5" font-family="Helvetica,sans-Serif" font-size="10.00">Core/RaCore.hpp</text>
</a>
</g>
</g>
<!-- Node3&#45;&gt;Node4 -->
<g id="edge3" class="edge"><title>Node3&#45;&gt;Node4</title>
<path fill="none" stroke="midnightblue" d="M131.649,-168.399C151.918,-158.595 178.741,-145.619 198.519,-136.052"/>
<polygon fill="midnightblue" stroke="midnightblue" points="200.124,-139.163 207.602,-131.658 197.076,-132.862 200.124,-139.163"/>
</g>
<!-- Node11 -->
<g id="node11" class="node"><title>Node11</title>
<polygon fill="white" stroke="#bfbfbf" points="0,-112.5 0,-131.5 93,-131.5 93,-112.5 0,-112.5"/>
<text text-anchor="middle" x="46.5" y="-119.5" font-family="Helvetica,sans-Serif" font-size="10.00">Eigen/StdVector</text>
</g>
<!-- Node3&#45;&gt;Node11 -->
<g id="edge10" class="edge"><title>Node3&#45;&gt;Node11</title>
<path fill="none" stroke="midnightblue" d="M89.2288,-168.399C80.9235,-159.575 70.2014,-148.183 61.5756,-139.018"/>
<polygon fill="midnightblue" stroke="midnightblue" points="64.0509,-136.541 54.6485,-131.658 58.9535,-141.339 64.0509,-136.541"/>
</g>
<!-- Node12 -->
<g id="node12" class="node"><title>Node12</title>
<polygon fill="white" stroke="#bfbfbf" points="111,-112.5 111,-131.5 158,-131.5 158,-112.5 111,-112.5"/>
<text text-anchor="middle" x="134.5" y="-119.5" font-family="Helvetica,sans-Serif" font-size="10.00">vector</text>
</g>
<!-- Node3&#45;&gt;Node12 -->
<g id="edge11" class="edge"><title>Node3&#45;&gt;Node12</title>
<path fill="none" stroke="midnightblue" d="M110.084,-168.399C114.542,-160.11 120.219,-149.554 124.977,-140.708"/>
<polygon fill="midnightblue" stroke="midnightblue" points="128.19,-142.123 129.844,-131.658 122.025,-138.807 128.19,-142.123"/>
</g>
<!-- Node5 -->
<g id="node5" class="node"><title>Node5</title>
<g id="a_node5"><a xlink:href="CoreMacros_8hpp.html" target="_top" xlink:title="Core/CoreMacros.hpp">
<polygon fill="white" stroke="black" points="222.5,-56.5 222.5,-75.5 342.5,-75.5 342.5,-56.5 222.5,-56.5"/>
<text text-anchor="middle" x="282.5" y="-63.5" font-family="Helvetica,sans-Serif" font-size="10.00">Core/CoreMacros.hpp</text>
</a>
</g>
</g>
<!-- Node4&#45;&gt;Node5 -->
<g id="edge4" class="edge"><title>Node4&#45;&gt;Node5</title>
<path fill="none" stroke="midnightblue" d="M234.658,-112.324C243.001,-104.42 255.532,-92.5482 265.677,-82.9377"/>
<polygon fill="midnightblue" stroke="midnightblue" points="268.323,-85.2522 273.175,-75.8339 263.509,-80.1705 268.323,-85.2522"/>
</g>
<!-- Node6 -->
<g id="node6" class="node"><title>Node6</title>
<polygon fill="white" stroke="#bfbfbf" points="223.5,-0.5 223.5,-19.5 275.5,-19.5 275.5,-0.5 223.5,-0.5"/>
<text text-anchor="middle" x="249.5" y="-7.5" font-family="Helvetica,sans-Serif" font-size="10.00">cassert</text>
</g>
<!-- Node5&#45;&gt;Node6 -->
<g id="edge5" class="edge"><title>Node5&#45;&gt;Node6</title>
<path fill="none" stroke="midnightblue" d="M277.051,-56.083C272.486,-48.6127 265.832,-37.7244 260.207,-28.5199"/>
<polygon fill="midnightblue" stroke="midnightblue" points="263.049,-26.4588 254.848,-19.7511 257.076,-30.109 263.049,-26.4588"/>
</g>
<!-- Node7 -->
<g id="node7" class="node"><title>Node7</title>
<polygon fill="white" stroke="#bfbfbf" points="294,-0.5 294,-19.5 339,-19.5 339,-0.5 294,-0.5"/>
<text text-anchor="middle" x="316.5" y="-7.5" font-family="Helvetica,sans-Serif" font-size="10.00">cstdio</text>
</g>
<!-- Node5&#45;&gt;Node7 -->
<g id="edge6" class="edge"><title>Node5&#45;&gt;Node7</title>
<path fill="none" stroke="midnightblue" d="M288.114,-56.083C292.867,-48.5341 299.818,-37.4948 305.652,-28.2298"/>
<polygon fill="midnightblue" stroke="midnightblue" points="308.624,-30.0783 310.99,-19.7511 302.7,-26.3486 308.624,-30.0783"/>
</g>
<!-- Node8 -->
<g id="node8" class="node"><title>Node8</title>
<polygon fill="white" stroke="#bfbfbf" points="489,-0.5 489,-19.5 548,-19.5 548,-0.5 489,-0.5"/>
<text text-anchor="middle" x="518.5" y="-7.5" font-family="Helvetica,sans-Serif" font-size="10.00">iostream</text>
</g>
<!-- Node5&#45;&gt;Node8 -->
<g id="edge7" class="edge"><title>Node5&#45;&gt;Node8</title>
<path fill="none" stroke="midnightblue" d="M319.895,-56.4435C363.303,-46.5111 434.589,-30.2 478.912,-20.0584"/>
<polygon fill="midnightblue" stroke="midnightblue" points="479.785,-23.449 488.752,-17.8067 478.224,-16.6254 479.785,-23.449"/>
</g>
<!-- Node9 -->
<g id="node9" class="node"><title>Node9</title>
<polygon fill="white" stroke="#bfbfbf" points="357.5,-0.5 357.5,-19.5 413.5,-19.5 413.5,-0.5 357.5,-0.5"/>
<text text-anchor="middle" x="385.5" y="-7.5" font-family="Helvetica,sans-Serif" font-size="10.00">sstream</text>
</g>
<!-- Node5&#45;&gt;Node9 -->
<g id="edge8" class="edge"><title>Node5&#45;&gt;Node9</title>
<path fill="none" stroke="midnightblue" d="M299.049,-56.324C315.492,-47.7034 340.935,-34.3643 359.968,-24.3855"/>
<polygon fill="midnightblue" stroke="midnightblue" points="361.761,-27.3977 368.992,-19.6545 358.511,-21.198 361.761,-27.3977"/>
</g>
<!-- Node10 -->
<g id="node10" class="node"><title>Node10</title>
<polygon fill="white" stroke="#bfbfbf" points="157.5,-0.5 157.5,-19.5 205.5,-19.5 205.5,-0.5 157.5,-0.5"/>
<text text-anchor="middle" x="181.5" y="-7.5" font-family="Helvetica,sans-Serif" font-size="10.00">thread</text>
</g>
<!-- Node5&#45;&gt;Node10 -->
<g id="edge9" class="edge"><title>Node5&#45;&gt;Node10</title>
<path fill="none" stroke="midnightblue" d="M266.273,-56.324C250.149,-47.7034 225.2,-34.3643 206.536,-24.3855"/>
<polygon fill="midnightblue" stroke="midnightblue" points="208.156,-21.283 197.687,-19.6545 204.856,-27.456 208.156,-21.283"/>
</g>
<!-- Node13&#45;&gt;Node3 -->
<g id="edge13" class="edge"><title>Node13&#45;&gt;Node3</title>
<path fill="none" stroke="midnightblue" d="M272.245,-306.313C219.838,-297.693 155.071,-283.889 134.5,-266 117.72,-251.408 109.668,-226.879 105.849,-208.536"/>
<polygon fill="midnightblue" stroke="midnightblue" points="109.271,-207.793 104.055,-198.572 102.382,-209.034 109.271,-207.793"/>
</g>
<!-- Node13&#45;&gt;Node8 -->
<g id="edge24" class="edge"><title>Node13&#45;&gt;Node8</title>
<path fill="none" stroke="midnightblue" d="M418.678,-309.308C493.399,-297.451 598.5,-266.245 598.5,-184.5 598.5,-184.5 598.5,-184.5 598.5,-121 598.5,-80.6206 562.805,-45.1055 539.102,-25.9729"/>
<polygon fill="midnightblue" stroke="midnightblue" points="541.046,-23.0515 531,-19.6866 536.755,-28.582 541.046,-23.0515"/>
</g>
<!-- Node13&#45;&gt;Node14 -->
<g id="edge14" class="edge"><title>Node13&#45;&gt;Node14</title>
<path fill="none" stroke="midnightblue" d="M320.547,-302.396C300.904,-291.294 273.707,-275.921 254.354,-264.983"/>
<polygon fill="midnightblue" stroke="midnightblue" points="255.979,-261.881 245.551,-260.007 252.534,-267.975 255.979,-261.881"/>
</g>
<!-- Node16 -->
<g id="node16" class="node"><title>Node16</title>
<polygon fill="white" stroke="#bfbfbf" points="292.5,-112.5 292.5,-131.5 360.5,-131.5 360.5,-112.5 292.5,-112.5"/>
<text text-anchor="middle" x="326.5" y="-119.5" font-family="Helvetica,sans-Serif" font-size="10.00">Eigen/Core</text>
</g>
<!-- Node13&#45;&gt;Node16 -->
<g id="edge23" class="edge"><title>Node13&#45;&gt;Node16</title>
<path fill="none" stroke="midnightblue" d="M344.103,-302.271C340.732,-267.944 332.152,-180.566 328.356,-141.9"/>
<polygon fill="midnightblue" stroke="midnightblue" points="331.803,-141.187 327.342,-131.577 324.836,-141.871 331.803,-141.187"/>
</g>
<!-- Node19 -->
<g id="node19" class="node"><title>Node19</title>
<g id="a_node19"><a xlink:href="AdjacencyList_8inl.html" target="_top" xlink:title="Core/Containers/Adjacency\lList.inl">
<polygon fill="white" stroke="black" points="373.5,-235.5 373.5,-265.5 519.5,-265.5 519.5,-235.5 373.5,-235.5"/>
<text text-anchor="start" x="381.5" y="-253.5" font-family="Helvetica,sans-Serif" font-size="10.00">Core/Containers/Adjacency</text>
<text text-anchor="middle" x="446.5" y="-242.5" font-family="Helvetica,sans-Serif" font-size="10.00">List.inl</text>
</a>
</g>
</g>
<!-- Node13&#45;&gt;Node19 -->
<g id="edge25" class="edge"><title>Node13&#45;&gt;Node19</title>
<path fill="none" stroke="midnightblue" d="M361.737,-302.396C374.825,-293.197 393.487,-281.066 410.029,-270.955"/>
<polygon fill="midnightblue" stroke="midnightblue" points="412.194,-273.736 418.952,-265.577 408.581,-267.741 412.194,-273.736"/>
</g>
<!-- Node14&#45;&gt;Node3 -->
<g id="edge15" class="edge"><title>Node14&#45;&gt;Node3</title>
<path fill="none" stroke="midnightblue" d="M213.503,-240.869C194.689,-231.315 163.797,-215.627 139.373,-203.225"/>
<polygon fill="midnightblue" stroke="midnightblue" points="140.869,-200.059 130.368,-198.652 137.699,-206.3 140.869,-200.059"/>
</g>
<!-- Node14&#45;&gt;Node4 -->
<g id="edge16" class="edge"><title>Node14&#45;&gt;Node4</title>
<path fill="none" stroke="midnightblue" d="M230.156,-240.805C229.354,-220.494 227.34,-169.553 226.242,-141.777"/>
<polygon fill="midnightblue" stroke="midnightblue" points="229.738,-141.61 225.846,-131.756 222.744,-141.886 229.738,-141.61"/>
</g>
<!-- Node14&#45;&gt;Node12 -->
<g id="edge22" class="edge"><title>Node14&#45;&gt;Node12</title>
<path fill="none" stroke="midnightblue" d="M226.901,-240.818C220.197,-225.244 204.718,-191.953 185.5,-168 176.494,-156.775 164.504,-146.039 154.413,-137.87"/>
<polygon fill="midnightblue" stroke="midnightblue" points="156.518,-135.074 146.489,-131.658 152.199,-140.582 156.518,-135.074"/>
</g>
<!-- Node14&#45;&gt;Node15 -->
<g id="edge17" class="edge"><title>Node14&#45;&gt;Node15</title>
<path fill="none" stroke="midnightblue" d="M255.465,-240.869C288.424,-229.473 346.618,-209.353 383.83,-196.487"/>
<polygon fill="midnightblue" stroke="midnightblue" points="385.424,-199.639 393.731,-193.064 383.136,-193.024 385.424,-199.639"/>
</g>
<!-- Node15&#45;&gt;Node4 -->
<g id="edge18" class="edge"><title>Node15&#45;&gt;Node4</title>
<path fill="none" stroke="midnightblue" d="M390.848,-173.975C357.312,-163.636 300.627,-146.161 263.132,-134.602"/>
<polygon fill="midnightblue" stroke="midnightblue" points="263.688,-131.111 253.101,-131.509 261.626,-137.8 263.688,-131.111"/>
</g>
<!-- Node15&#45;&gt;Node16 -->
<g id="edge19" class="edge"><title>Node15&#45;&gt;Node16</title>
<path fill="none" stroke="midnightblue" d="M405.319,-173.975C390.426,-164.343 365.956,-148.517 348.227,-137.052"/>
<polygon fill="midnightblue" stroke="midnightblue" points="349.955,-134.001 339.657,-131.509 346.153,-139.879 349.955,-134.001"/>
</g>
<!-- Node17 -->
<g id="node17" class="node"><title>Node17</title>
<polygon fill="white" stroke="#bfbfbf" points="476.5,-112.5 476.5,-131.5 570.5,-131.5 570.5,-112.5 476.5,-112.5"/>
<text text-anchor="middle" x="523.5" y="-119.5" font-family="Helvetica,sans-Serif" font-size="10.00">Eigen/Geometry</text>
</g>
<!-- Node15&#45;&gt;Node17 -->
<g id="edge20" class="edge"><title>Node15&#45;&gt;Node17</title>
<path fill="none" stroke="midnightblue" d="M433.544,-173.975C450.775,-164.211 479.24,-148.081 499.534,-136.581"/>
<polygon fill="midnightblue" stroke="midnightblue" points="501.509,-139.484 508.484,-131.509 498.058,-133.394 501.509,-139.484"/>
</g>
<!-- Node18 -->
<g id="node18" class="node"><title>Node18</title>
<polygon fill="white" stroke="#bfbfbf" points="378.5,-112.5 378.5,-131.5 458.5,-131.5 458.5,-112.5 378.5,-112.5"/>
<text text-anchor="middle" x="418.5" y="-119.5" font-family="Helvetica,sans-Serif" font-size="10.00">Eigen/Sparse</text>
</g>
<!-- Node15&#45;&gt;Node18 -->
<g id="edge21" class="edge"><title>Node15&#45;&gt;Node18</title>
<path fill="none" stroke="midnightblue" d="M418.5,-173.975C418.5,-165.58 418.5,-152.481 418.5,-141.663"/>
<polygon fill="midnightblue" stroke="midnightblue" points="422,-141.509 418.5,-131.509 415,-141.509 422,-141.509"/>
</g>
<!-- Node19&#45;&gt;Node13 -->
<g id="edge26" class="edge"><title>Node19&#45;&gt;Node13</title>
<path fill="none" stroke="midnightblue" d="M430.302,-265.577C417.226,-274.77 398.567,-286.9 382.02,-297.015"/>
<polygon fill="midnightblue" stroke="midnightblue" points="379.851,-294.236 373.094,-302.396 383.465,-300.231 379.851,-294.236"/>
</g>
</g>
</svg>
