<?xml version="1.0" encoding="UTF-8" standalone="no"?>
<!DOCTYPE svg PUBLIC "-//W3C//DTD SVG 1.1//EN"
 "http://www.w3.org/Graphics/SVG/1.1/DTD/svg11.dtd">
<!-- Generated by graphviz version 2.38.0 (20140413.2041)
 -->
<!-- Title: /home/travis/build/STORM&#45;IRIT/Radium&#45;Engine/src/Core/Animation/Cage.hpp Pages: 1 -->
<svg width="699pt" height="397pt"
 viewBox="0.00 0.00 699.00 397.00" xmlns="http://www.w3.org/2000/svg" xmlns:xlink="http://www.w3.org/1999/xlink">
<g id="graph0" class="graph" transform="scale(1 1) rotate(0) translate(4 393)">
<title>/home/travis/build/STORM&#45;IRIT/Radium&#45;Engine/src/Core/Animation/Cage.hpp</title>
<polygon fill="white" stroke="none" points="-4,4 -4,-393 695,-393 695,4 -4,4"/>
<!-- Node1 -->
<g id="node1" class="node"><title>Node1</title>
<polygon fill="#bfbfbf" stroke="black" points="339,-347.5 339,-388.5 499,-388.5 499,-347.5 339,-347.5"/>
<text text-anchor="start" x="347" y="-376.5" font-family="Helvetica,sans-Serif" font-size="10.00">/home/travis/build</text>
<text text-anchor="start" x="347" y="-365.5" font-family="Helvetica,sans-Serif" font-size="10.00">/STORM&#45;IRIT/Radium&#45;Engine</text>
<text text-anchor="middle" x="419" y="-354.5" font-family="Helvetica,sans-Serif" font-size="10.00">/src/Core/Animation/Cage.hpp</text>
</g>
<!-- Node2 -->
<g id="node2" class="node"><title>Node2</title>
<g id="a_node2"><a xlink:href="Handle_8hpp.html" target="_top" xlink:title="Core/Animation/Handle.hpp">
<polygon fill="white" stroke="black" points="344.5,-291.5 344.5,-310.5 493.5,-310.5 493.5,-291.5 344.5,-291.5"/>
<text text-anchor="middle" x="419" y="-298.5" font-family="Helvetica,sans-Serif" font-size="10.00">Core/Animation/Handle.hpp</text>
</a>
</g>
</g>
<!-- Node1&#45;&gt;Node2 -->
<g id="edge1" class="edge"><title>Node1&#45;&gt;Node2</title>
<path fill="none" stroke="midnightblue" d="M419,-347.498C419,-339.065 419,-329.235 419,-320.874"/>
<polygon fill="midnightblue" stroke="midnightblue" points="422.5,-320.652 419,-310.652 415.5,-320.653 422.5,-320.652"/>
</g>
<!-- Node5 -->
<g id="node5" class="node"><title>Node5</title>
<g id="a_node5"><a xlink:href="RaCore_8hpp.html" target="_top" xlink:title="Core/RaCore.hpp">
<polygon fill="white" stroke="black" points="472,-112.5 472,-131.5 570,-131.5 570,-112.5 472,-112.5"/>
<text text-anchor="middle" x="521" y="-119.5" font-family="Helvetica,sans-Serif" font-size="10.00">Core/RaCore.hpp</text>
</a>
</g>
</g>
<!-- Node1&#45;&gt;Node5 -->
<g id="edge26" class="edge"><title>Node1&#45;&gt;Node5</title>
<path fill="none" stroke="midnightblue" d="M499.016,-355.338C558.42,-342.033 635.535,-313.907 674,-255 690.939,-229.059 668.858,-188.999 647,-168 628.752,-150.469 603.219,-139.71 579.904,-133.133"/>
<polygon fill="midnightblue" stroke="midnightblue" points="580.636,-129.707 570.076,-130.563 578.865,-136.479 580.636,-129.707"/>
</g>
<!-- Node19 -->
<g id="node19" class="node"><title>Node19</title>
<g id="a_node19"><a xlink:href="VectorArray_8hpp.html" target="_top" xlink:title="Core/Containers/VectorArray.hpp">
<polygon fill="white" stroke="black" points="157.5,-235.5 157.5,-254.5 330.5,-254.5 330.5,-235.5 157.5,-235.5"/>
<text text-anchor="middle" x="244" y="-242.5" font-family="Helvetica,sans-Serif" font-size="10.00">Core/Containers/VectorArray.hpp</text>
</a>
</g>
</g>
<!-- Node1&#45;&gt;Node19 -->
<g id="edge21" class="edge"><title>Node1&#45;&gt;Node19</title>
<path fill="none" stroke="midnightblue" d="M388.907,-347.276C372.827,-336.652 352.742,-323.246 335,-311 310.283,-293.94 282.211,-273.765 263.863,-260.467"/>
<polygon fill="midnightblue" stroke="midnightblue" points="265.842,-257.579 255.694,-254.536 261.73,-263.244 265.842,-257.579"/>
</g>
<!-- Node3 -->
<g id="node3" class="node"><title>Node3</title>
<g id="a_node3"><a xlink:href="Pose_8hpp.html" target="_top" xlink:title="Core/Animation/Pose.hpp">
<polygon fill="white" stroke="black" points="508,-235.5 508,-254.5 646,-254.5 646,-235.5 508,-235.5"/>
<text text-anchor="middle" x="577" y="-242.5" font-family="Helvetica,sans-Serif" font-size="10.00">Core/Animation/Pose.hpp</text>
</a>
</g>
</g>
<!-- Node2&#45;&gt;Node3 -->
<g id="edge2" class="edge"><title>Node2&#45;&gt;Node3</title>
<path fill="none" stroke="midnightblue" d="M444.036,-291.444C470.616,-282.359 512.809,-267.939 542.523,-257.783"/>
<polygon fill="midnightblue" stroke="midnightblue" points="543.751,-261.062 552.082,-254.516 541.487,-254.439 543.751,-261.062"/>
</g>
<!-- Node2&#45;&gt;Node5 -->
<g id="edge13" class="edge"><title>Node2&#45;&gt;Node5</title>
<path fill="none" stroke="midnightblue" d="M493.593,-295.897C554.859,-290.783 634.726,-279.505 655,-255 694.405,-207.371 602.264,-158.004 551.575,-135.513"/>
<polygon fill="midnightblue" stroke="midnightblue" points="552.904,-132.275 542.337,-131.507 550.119,-138.697 552.904,-132.275"/>
</g>
<!-- Node14 -->
<g id="node14" class="node"><title>Node14</title>
<g id="a_node14"><a xlink:href="Types_8hpp.html" target="_top" xlink:title="Core/Types.hpp">
<polygon fill="white" stroke="black" points="136.5,-174 136.5,-193 225.5,-193 225.5,-174 136.5,-174"/>
<text text-anchor="middle" x="181" y="-181" font-family="Helvetica,sans-Serif" font-size="10.00">Core/Types.hpp</text>
</a>
</g>
</g>
<!-- Node2&#45;&gt;Node14 -->
<g id="edge14" class="edge"><title>Node2&#45;&gt;Node14</title>
<path fill="none" stroke="midnightblue" d="M344.329,-298.074C272.986,-294.471 172.748,-284.196 148,-255 134.159,-238.672 150.078,-215.561 164.229,-200.311"/>
<polygon fill="midnightblue" stroke="midnightblue" points="166.778,-202.711 171.302,-193.13 161.791,-197.799 166.778,-202.711"/>
</g>
<!-- Node18 -->
<g id="node18" class="node"><title>Node18</title>
<g id="a_node18"><a xlink:href="Handle_8inl.html" target="_top" xlink:title="Core/Animation/Handle.inl">
<polygon fill="white" stroke="black" points="348.5,-235.5 348.5,-254.5 489.5,-254.5 489.5,-235.5 348.5,-235.5"/>
<text text-anchor="middle" x="419" y="-242.5" font-family="Helvetica,sans-Serif" font-size="10.00">Core/Animation/Handle.inl</text>
</a>
</g>
</g>
<!-- Node2&#45;&gt;Node18 -->
<g id="edge19" class="edge"><title>Node2&#45;&gt;Node18</title>
<path fill="none" stroke="midnightblue" d="M413.834,-291.083C412.324,-283.927 411.894,-273.635 412.542,-264.691"/>
<polygon fill="midnightblue" stroke="midnightblue" points="416.015,-265.126 413.869,-254.751 409.077,-264.2 416.015,-265.126"/>
</g>
<!-- Node4 -->
<g id="node4" class="node"><title>Node4</title>
<g id="a_node4"><a xlink:href="AlignedStdVector_8hpp.html" target="_top" xlink:title="Core/Containers/AlignedStd\lVector.hpp">
<polygon fill="white" stroke="black" points="333.5,-168.5 333.5,-198.5 482.5,-198.5 482.5,-168.5 333.5,-168.5"/>
<text text-anchor="start" x="341.5" y="-186.5" font-family="Helvetica,sans-Serif" font-size="10.00">Core/Containers/AlignedStd</text>
<text text-anchor="middle" x="408" y="-175.5" font-family="Helvetica,sans-Serif" font-size="10.00">Vector.hpp</text>
</a>
</g>
</g>
<!-- Node3&#45;&gt;Node4 -->
<g id="edge3" class="edge"><title>Node3&#45;&gt;Node4</title>
<path fill="none" stroke="midnightblue" d="M552.786,-235.475C527.973,-226.739 488.686,-212.907 457.294,-201.855"/>
<polygon fill="midnightblue" stroke="midnightblue" points="458.425,-198.543 447.83,-198.523 456.1,-205.145 458.425,-198.543"/>
</g>
<!-- Node4&#45;&gt;Node5 -->
<g id="edge4" class="edge"><title>Node4&#45;&gt;Node5</title>
<path fill="none" stroke="midnightblue" d="M434.779,-168.399C453.062,-158.773 477.148,-146.09 495.215,-136.577"/>
<polygon fill="midnightblue" stroke="midnightblue" points="497.34,-139.414 504.557,-131.658 494.078,-133.22 497.34,-139.414"/>
</g>
<!-- Node12 -->
<g id="node12" class="node"><title>Node12</title>
<polygon fill="white" stroke="#bfbfbf" points="361.5,-112.5 361.5,-131.5 454.5,-131.5 454.5,-112.5 361.5,-112.5"/>
<text text-anchor="middle" x="408" y="-119.5" font-family="Helvetica,sans-Serif" font-size="10.00">Eigen/StdVector</text>
</g>
<!-- Node4&#45;&gt;Node12 -->
<g id="edge11" class="edge"><title>Node4&#45;&gt;Node12</title>
<path fill="none" stroke="midnightblue" d="M408,-168.399C408,-160.466 408,-150.458 408,-141.858"/>
<polygon fill="midnightblue" stroke="midnightblue" points="411.5,-141.658 408,-131.658 404.5,-141.658 411.5,-141.658"/>
</g>
<!-- Node13 -->
<g id="node13" class="node"><title>Node13</title>
<polygon fill="white" stroke="#bfbfbf" points="296.5,-112.5 296.5,-131.5 343.5,-131.5 343.5,-112.5 296.5,-112.5"/>
<text text-anchor="middle" x="320" y="-119.5" font-family="Helvetica,sans-Serif" font-size="10.00">vector</text>
</g>
<!-- Node4&#45;&gt;Node13 -->
<g id="edge12" class="edge"><title>Node4&#45;&gt;Node13</title>
<path fill="none" stroke="midnightblue" d="M387.145,-168.399C373.303,-159.04 355.189,-146.792 341.264,-137.377"/>
<polygon fill="midnightblue" stroke="midnightblue" points="343.049,-134.36 332.805,-131.658 339.128,-140.158 343.049,-134.36"/>
</g>
<!-- Node6 -->
<g id="node6" class="node"><title>Node6</title>
<g id="a_node6"><a xlink:href="CoreMacros_8hpp.html" target="_top" xlink:title="Core/CoreMacros.hpp">
<polygon fill="white" stroke="black" points="461,-56.5 461,-75.5 581,-75.5 581,-56.5 461,-56.5"/>
<text text-anchor="middle" x="521" y="-63.5" font-family="Helvetica,sans-Serif" font-size="10.00">Core/CoreMacros.hpp</text>
</a>
</g>
</g>
<!-- Node5&#45;&gt;Node6 -->
<g id="edge5" class="edge"><title>Node5&#45;&gt;Node6</title>
<path fill="none" stroke="midnightblue" d="M521,-112.083C521,-105.006 521,-94.8611 521,-85.9865"/>
<polygon fill="midnightblue" stroke="midnightblue" points="524.5,-85.751 521,-75.7511 517.5,-85.7511 524.5,-85.751"/>
</g>
<!-- Node7 -->
<g id="node7" class="node"><title>Node7</title>
<polygon fill="white" stroke="#bfbfbf" points="358,-0.5 358,-19.5 410,-19.5 410,-0.5 358,-0.5"/>
<text text-anchor="middle" x="384" y="-7.5" font-family="Helvetica,sans-Serif" font-size="10.00">cassert</text>
</g>
<!-- Node6&#45;&gt;Node7 -->
<g id="edge6" class="edge"><title>Node6&#45;&gt;Node7</title>
<path fill="none" stroke="midnightblue" d="M499.292,-56.4435C476.645,-47.5171 440.928,-33.4387 415.248,-23.3168"/>
<polygon fill="midnightblue" stroke="midnightblue" points="416.193,-19.9273 405.606,-19.5164 413.626,-26.4397 416.193,-19.9273"/>
</g>
<!-- Node8 -->
<g id="node8" class="node"><title>Node8</title>
<polygon fill="white" stroke="#bfbfbf" points="428.5,-0.5 428.5,-19.5 473.5,-19.5 473.5,-0.5 428.5,-0.5"/>
<text text-anchor="middle" x="451" y="-7.5" font-family="Helvetica,sans-Serif" font-size="10.00">cstdio</text>
</g>
<!-- Node6&#45;&gt;Node8 -->
<g id="edge7" class="edge"><title>Node6&#45;&gt;Node8</title>
<path fill="none" stroke="midnightblue" d="M509.753,-56.324C499.203,-48.1849 483.199,-35.8395 470.558,-26.0874"/>
<polygon fill="midnightblue" stroke="midnightblue" points="472.507,-23.1707 462.451,-19.8339 468.231,-28.7132 472.507,-23.1707"/>
</g>
<!-- Node9 -->
<g id="node9" class="node"><title>Node9</title>
<polygon fill="white" stroke="#bfbfbf" points="491.5,-0.5 491.5,-19.5 550.5,-19.5 550.5,-0.5 491.5,-0.5"/>
<text text-anchor="middle" x="521" y="-7.5" font-family="Helvetica,sans-Serif" font-size="10.00">iostream</text>
</g>
<!-- Node6&#45;&gt;Node9 -->
<g id="edge8" class="edge"><title>Node6&#45;&gt;Node9</title>
<path fill="none" stroke="midnightblue" d="M521,-56.083C521,-49.0059 521,-38.8611 521,-29.9865"/>
<polygon fill="midnightblue" stroke="midnightblue" points="524.5,-29.751 521,-19.7511 517.5,-29.7511 524.5,-29.751"/>
</g>
<!-- Node10 -->
<g id="node10" class="node"><title>Node10</title>
<polygon fill="white" stroke="#bfbfbf" points="569,-0.5 569,-19.5 625,-19.5 625,-0.5 569,-0.5"/>
<text text-anchor="middle" x="597" y="-7.5" font-family="Helvetica,sans-Serif" font-size="10.00">sstream</text>
</g>
<!-- Node6&#45;&gt;Node10 -->
<g id="edge9" class="edge"><title>Node6&#45;&gt;Node10</title>
<path fill="none" stroke="midnightblue" d="M533.211,-56.324C544.776,-48.1066 562.375,-35.6017 576.161,-25.8069"/>
<polygon fill="midnightblue" stroke="midnightblue" points="578.443,-28.4791 584.567,-19.8339 574.388,-22.7729 578.443,-28.4791"/>
</g>
<!-- Node11 -->
<g id="node11" class="node"><title>Node11</title>
<polygon fill="white" stroke="#bfbfbf" points="643,-0.5 643,-19.5 691,-19.5 691,-0.5 643,-0.5"/>
<text text-anchor="middle" x="667" y="-7.5" font-family="Helvetica,sans-Serif" font-size="10.00">thread</text>
</g>
<!-- Node6&#45;&gt;Node11 -->
<g id="edge10" class="edge"><title>Node6&#45;&gt;Node11</title>
<path fill="none" stroke="midnightblue" d="M544.134,-56.4435C568.482,-47.4381 607.007,-33.1891 634.423,-23.049"/>
<polygon fill="midnightblue" stroke="midnightblue" points="635.809,-26.2681 643.974,-19.5164 633.381,-19.7028 635.809,-26.2681"/>
</g>
<!-- Node14&#45;&gt;Node5 -->
<g id="edge15" class="edge"><title>Node14&#45;&gt;Node5</title>
<path fill="none" stroke="midnightblue" d="M225.799,-174.66C286.516,-164.035 395.046,-145.042 462.241,-133.283"/>
<polygon fill="midnightblue" stroke="midnightblue" points="463.004,-136.703 472.251,-131.531 461.797,-129.807 463.004,-136.703"/>
</g>
<!-- Node15 -->
<g id="node15" class="node"><title>Node15</title>
<polygon fill="white" stroke="#bfbfbf" points="98,-112.5 98,-131.5 166,-131.5 166,-112.5 98,-112.5"/>
<text text-anchor="middle" x="132" y="-119.5" font-family="Helvetica,sans-Serif" font-size="10.00">Eigen/Core</text>
</g>
<!-- Node14&#45;&gt;Node15 -->
<g id="edge16" class="edge"><title>Node14&#45;&gt;Node15</title>
<path fill="none" stroke="midnightblue" d="M173.979,-173.975C166.557,-164.962 154.667,-150.525 145.433,-139.312"/>
<polygon fill="midnightblue" stroke="midnightblue" points="148.066,-137.003 139.007,-131.509 142.663,-141.453 148.066,-137.003"/>
</g>
<!-- Node16 -->
<g id="node16" class="node"><title>Node16</title>
<polygon fill="white" stroke="#bfbfbf" points="184,-112.5 184,-131.5 278,-131.5 278,-112.5 184,-112.5"/>
<text text-anchor="middle" x="231" y="-119.5" font-family="Helvetica,sans-Serif" font-size="10.00">Eigen/Geometry</text>
</g>
<!-- Node14&#45;&gt;Node16 -->
<g id="edge17" class="edge"><title>Node14&#45;&gt;Node16</title>
<path fill="none" stroke="midnightblue" d="M188.164,-173.975C195.738,-164.962 207.87,-150.525 217.293,-139.312"/>
<polygon fill="midnightblue" stroke="midnightblue" points="220.096,-141.417 223.85,-131.509 214.737,-136.913 220.096,-141.417"/>
</g>
<!-- Node17 -->
<g id="node17" class="node"><title>Node17</title>
<polygon fill="white" stroke="#bfbfbf" points="0,-112.5 0,-131.5 80,-131.5 80,-112.5 0,-112.5"/>
<text text-anchor="middle" x="40" y="-119.5" font-family="Helvetica,sans-Serif" font-size="10.00">Eigen/Sparse</text>
</g>
<!-- Node14&#45;&gt;Node17 -->
<g id="edge18" class="edge"><title>Node14&#45;&gt;Node17</title>
<path fill="none" stroke="midnightblue" d="M160.798,-173.975C136.926,-163.901 96.9984,-147.053 69.6274,-135.502"/>
<polygon fill="midnightblue" stroke="midnightblue" points="70.7384,-132.172 60.1644,-131.509 68.0169,-138.622 70.7384,-132.172"/>
</g>
<!-- Node18&#45;&gt;Node2 -->
<g id="edge20" class="edge"><title>Node18&#45;&gt;Node2</title>
<path fill="none" stroke="midnightblue" d="M424.131,-254.751C425.657,-261.858 426.104,-272.136 425.472,-281.101"/>
<polygon fill="midnightblue" stroke="midnightblue" points="421.993,-280.713 424.166,-291.083 428.934,-281.622 421.993,-280.713"/>
</g>
<!-- Node19&#45;&gt;Node4 -->
<g id="edge22" class="edge"><title>Node19&#45;&gt;Node4</title>
<path fill="none" stroke="midnightblue" d="M267.497,-235.475C291.473,-226.776 329.373,-213.026 359.77,-201.998"/>
<polygon fill="midnightblue" stroke="midnightblue" points="361.142,-205.224 369.348,-198.523 358.754,-198.643 361.142,-205.224"/>
</g>
<!-- Node19&#45;&gt;Node5 -->
<g id="edge23" class="edge"><title>Node19&#45;&gt;Node5</title>
<path fill="none" stroke="midnightblue" d="M308.936,-235.482C377.314,-225.993 477.02,-210.48 491,-199 508.266,-184.821 515.642,-159.322 518.762,-141.799"/>
<polygon fill="midnightblue" stroke="midnightblue" points="522.265,-142.037 520.259,-131.634 515.339,-141.018 522.265,-142.037"/>
</g>
<!-- Node19&#45;&gt;Node13 -->
<g id="edge25" class="edge"><title>Node19&#45;&gt;Node13</title>
<path fill="none" stroke="midnightblue" d="M249.466,-235.298C261.955,-215.414 292.771,-166.352 309.23,-140.147"/>
<polygon fill="midnightblue" stroke="midnightblue" points="312.229,-141.953 314.584,-131.623 306.301,-138.23 312.229,-141.953"/>
</g>
<!-- Node19&#45;&gt;Node14 -->
<g id="edge24" class="edge"><title>Node19&#45;&gt;Node14</title>
<path fill="none" stroke="midnightblue" d="M234.974,-235.475C225.243,-226.285 209.542,-211.456 197.577,-200.156"/>
<polygon fill="midnightblue" stroke="midnightblue" points="199.683,-197.331 190.01,-193.009 194.877,-202.42 199.683,-197.331"/>
</g>
</g>
</svg>
