<?xml version="1.0" encoding="UTF-8" standalone="no"?>
<!DOCTYPE svg PUBLIC "-//W3C//DTD SVG 1.1//EN"
 "http://www.w3.org/Graphics/SVG/1.1/DTD/svg11.dtd">
<!-- Generated by graphviz version 2.38.0 (20140413.2041)
 -->
<!-- Title: /home/travis/build/STORM&#45;IRIT/Radium&#45;Engine/src/Engine/Renderer/Camera/Camera.hpp Pages: 1 -->
<svg width="3206pt" height="239pt"
 viewBox="0.00 0.00 3205.50 239.00" xmlns="http://www.w3.org/2000/svg" xmlns:xlink="http://www.w3.org/1999/xlink">
<g id="graph0" class="graph" transform="scale(1 1) rotate(0) translate(4 235)">
<title>/home/travis/build/STORM&#45;IRIT/Radium&#45;Engine/src/Engine/Renderer/Camera/Camera.hpp</title>
<polygon fill="white" stroke="none" points="-4,4 -4,-235 3201.5,-235 3201.5,4 -4,4"/>
<!-- Node1 -->
<g id="node1" class="node"><title>Node1</title>
<polygon fill="#bfbfbf" stroke="black" points="1528.5,-178.5 1528.5,-230.5 1684.5,-230.5 1684.5,-178.5 1528.5,-178.5"/>
<text text-anchor="start" x="1536.5" y="-218.5" font-family="Helvetica,sans-Serif" font-size="10.00">/home/travis/build</text>
<text text-anchor="start" x="1536.5" y="-207.5" font-family="Helvetica,sans-Serif" font-size="10.00">/STORM&#45;IRIT/Radium&#45;Engine</text>
<text text-anchor="start" x="1536.5" y="-196.5" font-family="Helvetica,sans-Serif" font-size="10.00">/src/Engine/Renderer/Camera</text>
<text text-anchor="middle" x="1606.5" y="-185.5" font-family="Helvetica,sans-Serif" font-size="10.00">/Camera.hpp</text>
</g>
<!-- Node2 -->
<g id="node2" class="node"><title>Node2</title>
<g id="a_node2"><a xlink:href="CameraManager_8cpp.html" target="_top" xlink:title="/home/travis/build\l/STORM&#45;IRIT/Radium&#45;Engine\l/src/Engine/Managers/CameraManager\l/CameraManager.cpp">
<polygon fill="white" stroke="black" points="-1.42109e-14,-89.5 -1.42109e-14,-141.5 203,-141.5 203,-89.5 -1.42109e-14,-89.5"/>
<text text-anchor="start" x="8" y="-129.5" font-family="Helvetica,sans-Serif" font-size="10.00">/home/travis/build</text>
<text text-anchor="start" x="8" y="-118.5" font-family="Helvetica,sans-Serif" font-size="10.00">/STORM&#45;IRIT/Radium&#45;Engine</text>
<text text-anchor="start" x="8" y="-107.5" font-family="Helvetica,sans-Serif" font-size="10.00">/src/Engine/Managers/CameraManager</text>
<text text-anchor="middle" x="101.5" y="-96.5" font-family="Helvetica,sans-Serif" font-size="10.00">/CameraManager.cpp</text>
</a>
</g>
</g>
<!-- Node1&#45;&gt;Node2 -->
<g id="edge1" class="edge"><title>Node1&#45;&gt;Node2</title>
<path fill="none" stroke="midnightblue" d="M1517.97,-201.699C1252.6,-195.969 466.408,-176.475 212.5,-142 209.463,-141.588 206.387,-141.132 203.288,-140.639"/>
<polygon fill="midnightblue" stroke="midnightblue" points="1518.26,-205.206 1528.33,-201.922 1518.41,-198.208 1518.26,-205.206"/>
</g>
<!-- Node3 -->
<g id="node3" class="node"><title>Node3</title>
<g id="a_node3"><a xlink:href="DefaultCameraManager_8hpp.html" target="_top" xlink:title="/home/travis/build\l/STORM&#45;IRIT/Radium&#45;Engine\l/src/Engine/Managers/CameraManager\l/DefaultCameraManager.hpp">
<polygon fill="white" stroke="black" points="221,-89.5 221,-141.5 424,-141.5 424,-89.5 221,-89.5"/>
<text text-anchor="start" x="229" y="-129.5" font-family="Helvetica,sans-Serif" font-size="10.00">/home/travis/build</text>
<text text-anchor="start" x="229" y="-118.5" font-family="Helvetica,sans-Serif" font-size="10.00">/STORM&#45;IRIT/Radium&#45;Engine</text>
<text text-anchor="start" x="229" y="-107.5" font-family="Helvetica,sans-Serif" font-size="10.00">/src/Engine/Managers/CameraManager</text>
<text text-anchor="middle" x="322.5" y="-96.5" font-family="Helvetica,sans-Serif" font-size="10.00">/DefaultCameraManager.hpp</text>
</a>
</g>
</g>
<!-- Node1&#45;&gt;Node3 -->
<g id="edge2" class="edge"><title>Node1&#45;&gt;Node3</title>
<path fill="none" stroke="midnightblue" d="M1517.9,-204.079C1321.58,-204.222 835.52,-198.283 433.5,-142 430.465,-141.575 427.39,-141.108 424.292,-140.606"/>
<polygon fill="midnightblue" stroke="midnightblue" points="1518.16,-207.579 1528.16,-204.066 1518.15,-200.579 1518.16,-207.579"/>
</g>
<!-- Node6 -->
<g id="node6" class="node"><title>Node6</title>
<g id="a_node6"><a xlink:href="Camera_8cpp.html" target="_top" xlink:title="/home/travis/build\l/STORM&#45;IRIT/Radium&#45;Engine\l/src/Engine/Renderer/Camera\l/Camera.cpp">
<polygon fill="white" stroke="black" points="442.5,-89.5 442.5,-141.5 598.5,-141.5 598.5,-89.5 442.5,-89.5"/>
<text text-anchor="start" x="450.5" y="-129.5" font-family="Helvetica,sans-Serif" font-size="10.00">/home/travis/build</text>
<text text-anchor="start" x="450.5" y="-118.5" font-family="Helvetica,sans-Serif" font-size="10.00">/STORM&#45;IRIT/Radium&#45;Engine</text>
<text text-anchor="start" x="450.5" y="-107.5" font-family="Helvetica,sans-Serif" font-size="10.00">/src/Engine/Renderer/Camera</text>
<text text-anchor="middle" x="520.5" y="-96.5" font-family="Helvetica,sans-Serif" font-size="10.00">/Camera.cpp</text>
</a>
</g>
</g>
<!-- Node1&#45;&gt;Node6 -->
<g id="edge5" class="edge"><title>Node1&#45;&gt;Node6</title>
<path fill="none" stroke="midnightblue" d="M1518.27,-200.599C1307.86,-193.274 781.273,-172.42 607.5,-142 604.554,-141.484 601.567,-140.905 598.559,-140.274"/>
<polygon fill="midnightblue" stroke="midnightblue" points="1518.23,-204.1 1528.35,-200.948 1518.47,-197.104 1518.23,-204.1"/>
</g>
<!-- Node7 -->
<g id="node7" class="node"><title>Node7</title>
<g id="a_node7"><a xlink:href="Camera_8inl.html" target="_top" xlink:title="/home/travis/build\l/STORM&#45;IRIT/Radium&#45;Engine\l/src/Engine/Renderer/Camera\l/Camera.inl">
<polygon fill="white" stroke="black" points="616.5,-89.5 616.5,-141.5 772.5,-141.5 772.5,-89.5 616.5,-89.5"/>
<text text-anchor="start" x="624.5" y="-129.5" font-family="Helvetica,sans-Serif" font-size="10.00">/home/travis/build</text>
<text text-anchor="start" x="624.5" y="-118.5" font-family="Helvetica,sans-Serif" font-size="10.00">/STORM&#45;IRIT/Radium&#45;Engine</text>
<text text-anchor="start" x="624.5" y="-107.5" font-family="Helvetica,sans-Serif" font-size="10.00">/src/Engine/Renderer/Camera</text>
<text text-anchor="middle" x="694.5" y="-96.5" font-family="Helvetica,sans-Serif" font-size="10.00">/Camera.inl</text>
</a>
</g>
</g>
<!-- Node1&#45;&gt;Node7 -->
<g id="edge6" class="edge"><title>Node1&#45;&gt;Node7</title>
<path fill="none" stroke="midnightblue" d="M1518.21,-203.07C1365,-201.023 1040.83,-190.763 772.5,-142 771.726,-141.859 770.948,-141.714 770.169,-141.565"/>
<polygon fill="midnightblue" stroke="midnightblue" points="1518.46,-206.573 1528.5,-203.199 1518.54,-199.574 1518.46,-206.573"/>
</g>
<!-- Node8 -->
<g id="node8" class="node"><title>Node8</title>
<g id="a_node8"><a xlink:href="Renderer_8cpp.html" target="_top" xlink:title="/home/travis/build\l/STORM&#45;IRIT/Radium&#45;Engine\l/src/Engine/Renderer/Renderer.cpp">
<polygon fill="white" stroke="black" points="790.5,-95 790.5,-136 970.5,-136 970.5,-95 790.5,-95"/>
<text text-anchor="start" x="798.5" y="-124" font-family="Helvetica,sans-Serif" font-size="10.00">/home/travis/build</text>
<text text-anchor="start" x="798.5" y="-113" font-family="Helvetica,sans-Serif" font-size="10.00">/STORM&#45;IRIT/Radium&#45;Engine</text>
<text text-anchor="middle" x="880.5" y="-102" font-family="Helvetica,sans-Serif" font-size="10.00">/src/Engine/Renderer/Renderer.cpp</text>
</a>
</g>
</g>
<!-- Node1&#45;&gt;Node8 -->
<g id="edge8" class="edge"><title>Node1&#45;&gt;Node8</title>
<path fill="none" stroke="midnightblue" d="M1518.23,-199.145C1396.33,-192.154 1169.91,-175.652 979.5,-142 970.149,-140.347 960.383,-138.272 950.784,-136.022"/>
<polygon fill="midnightblue" stroke="midnightblue" points="1518.08,-202.642 1528.26,-199.712 1518.48,-195.653 1518.08,-202.642"/>
</g>
<!-- Node9 -->
<g id="node9" class="node"><title>Node9</title>
<g id="a_node9"><a xlink:href="RenderObject_8cpp.html" target="_top" xlink:title="/home/travis/build\l/STORM&#45;IRIT/Radium&#45;Engine\l/src/Engine/Renderer/RenderObject\l/RenderObject.cpp">
<polygon fill="white" stroke="black" points="988.5,-89.5 988.5,-141.5 1170.5,-141.5 1170.5,-89.5 988.5,-89.5"/>
<text text-anchor="start" x="996.5" y="-129.5" font-family="Helvetica,sans-Serif" font-size="10.00">/home/travis/build</text>
<text text-anchor="start" x="996.5" y="-118.5" font-family="Helvetica,sans-Serif" font-size="10.00">/STORM&#45;IRIT/Radium&#45;Engine</text>
<text text-anchor="start" x="996.5" y="-107.5" font-family="Helvetica,sans-Serif" font-size="10.00">/src/Engine/Renderer/RenderObject</text>
<text text-anchor="middle" x="1079.5" y="-96.5" font-family="Helvetica,sans-Serif" font-size="10.00">/RenderObject.cpp</text>
</a>
</g>
</g>
<!-- Node1&#45;&gt;Node9 -->
<g id="edge9" class="edge"><title>Node1&#45;&gt;Node9</title>
<path fill="none" stroke="midnightblue" d="M1518.1,-193.559C1431.42,-183.157 1295.74,-165.122 1179.5,-142 1176.6,-141.423 1173.66,-140.815 1170.69,-140.181"/>
<polygon fill="midnightblue" stroke="midnightblue" points="1517.81,-197.05 1528.16,-194.759 1518.64,-190.099 1517.81,-197.05"/>
</g>
<!-- Node10 -->
<g id="node10" class="node"><title>Node10</title>
<g id="a_node10"><a xlink:href="BaseApplication_8cpp.html" target="_top" xlink:title="/home/travis/build\l/STORM&#45;IRIT/Radium&#45;Engine\l/src/GuiBase/BaseApplication.cpp">
<polygon fill="white" stroke="black" points="1188.5,-95 1188.5,-136 1364.5,-136 1364.5,-95 1188.5,-95"/>
<text text-anchor="start" x="1196.5" y="-124" font-family="Helvetica,sans-Serif" font-size="10.00">/home/travis/build</text>
<text text-anchor="start" x="1196.5" y="-113" font-family="Helvetica,sans-Serif" font-size="10.00">/STORM&#45;IRIT/Radium&#45;Engine</text>
<text text-anchor="middle" x="1276.5" y="-102" font-family="Helvetica,sans-Serif" font-size="10.00">/src/GuiBase/BaseApplication.cpp</text>
</a>
</g>
</g>
<!-- Node1&#45;&gt;Node10 -->
<g id="edge10" class="edge"><title>Node1&#45;&gt;Node10</title>
<path fill="none" stroke="midnightblue" d="M1518.35,-180.261C1466.02,-166.465 1400.42,-149.17 1350.74,-136.074"/>
<polygon fill="midnightblue" stroke="midnightblue" points="1517.73,-183.717 1528.29,-182.882 1519.52,-176.949 1517.73,-183.717"/>
</g>
<!-- Node11 -->
<g id="node11" class="node"><title>Node11</title>
<g id="a_node11"><a xlink:href="CameraManipulator_8cpp.html" target="_top" xlink:title="/home/travis/build\l/STORM&#45;IRIT/Radium&#45;Engine\l/src/GuiBase/Viewer/CameraManipulator.cpp">
<polygon fill="white" stroke="black" points="1382.5,-95 1382.5,-136 1610.5,-136 1610.5,-95 1382.5,-95"/>
<text text-anchor="start" x="1390.5" y="-124" font-family="Helvetica,sans-Serif" font-size="10.00">/home/travis/build</text>
<text text-anchor="start" x="1390.5" y="-113" font-family="Helvetica,sans-Serif" font-size="10.00">/STORM&#45;IRIT/Radium&#45;Engine</text>
<text text-anchor="middle" x="1496.5" y="-102" font-family="Helvetica,sans-Serif" font-size="10.00">/src/GuiBase/Viewer/CameraManipulator.cpp</text>
</a>
</g>
</g>
<!-- Node1&#45;&gt;Node11 -->
<g id="edge11" class="edge"><title>Node1&#45;&gt;Node11</title>
<path fill="none" stroke="midnightblue" d="M1566.48,-171.847C1551.35,-159.882 1534.59,-146.623 1521.26,-136.082"/>
<polygon fill="midnightblue" stroke="midnightblue" points="1564.67,-174.878 1574.68,-178.336 1569.01,-169.387 1564.67,-174.878"/>
</g>
<!-- Node12 -->
<g id="node12" class="node"><title>Node12</title>
<g id="a_node12"><a xlink:href="FlightCameraManipulator_8cpp.html" target="_top" xlink:title="/home/travis/build\l/STORM&#45;IRIT/Radium&#45;Engine\l/src/GuiBase/Viewer/FlightCamera\lManipulator.cpp">
<polygon fill="white" stroke="black" points="1628.5,-89.5 1628.5,-141.5 1806.5,-141.5 1806.5,-89.5 1628.5,-89.5"/>
<text text-anchor="start" x="1636.5" y="-129.5" font-family="Helvetica,sans-Serif" font-size="10.00">/home/travis/build</text>
<text text-anchor="start" x="1636.5" y="-118.5" font-family="Helvetica,sans-Serif" font-size="10.00">/STORM&#45;IRIT/Radium&#45;Engine</text>
<text text-anchor="start" x="1636.5" y="-107.5" font-family="Helvetica,sans-Serif" font-size="10.00">/src/GuiBase/Viewer/FlightCamera</text>
<text text-anchor="middle" x="1717.5" y="-96.5" font-family="Helvetica,sans-Serif" font-size="10.00">Manipulator.cpp</text>
</a>
</g>
</g>
<!-- Node1&#45;&gt;Node12 -->
<g id="edge12" class="edge"><title>Node1&#45;&gt;Node12</title>
<path fill="none" stroke="midnightblue" d="M1646.77,-171.934C1659.5,-161.956 1673.39,-151.07 1685.47,-141.607"/>
<polygon fill="midnightblue" stroke="midnightblue" points="1644.32,-169.412 1638.61,-178.336 1648.64,-174.922 1644.32,-169.412"/>
</g>
<!-- Node13 -->
<g id="node13" class="node"><title>Node13</title>
<g id="a_node13"><a xlink:href="Gizmo_8cpp.html" target="_top" xlink:title="/home/travis/build\l/STORM&#45;IRIT/Radium&#45;Engine\l/src/GuiBase/Viewer/Gizmo\l/Gizmo.cpp">
<polygon fill="white" stroke="black" points="1824.5,-89.5 1824.5,-141.5 1972.5,-141.5 1972.5,-89.5 1824.5,-89.5"/>
<text text-anchor="start" x="1832.5" y="-129.5" font-family="Helvetica,sans-Serif" font-size="10.00">/home/travis/build</text>
<text text-anchor="start" x="1832.5" y="-118.5" font-family="Helvetica,sans-Serif" font-size="10.00">/STORM&#45;IRIT/Radium&#45;Engine</text>
<text text-anchor="start" x="1832.5" y="-107.5" font-family="Helvetica,sans-Serif" font-size="10.00">/src/GuiBase/Viewer/Gizmo</text>
<text text-anchor="middle" x="1898.5" y="-96.5" font-family="Helvetica,sans-Serif" font-size="10.00">/Gizmo.cpp</text>
</a>
</g>
</g>
<!-- Node1&#45;&gt;Node13 -->
<g id="edge13" class="edge"><title>Node1&#45;&gt;Node13</title>
<path fill="none" stroke="midnightblue" d="M1694.8,-177.77C1732.08,-166.841 1775.93,-153.899 1815.5,-142 1818.39,-141.132 1821.33,-140.244 1824.3,-139.344"/>
<polygon fill="midnightblue" stroke="midnightblue" points="1693.58,-174.479 1684.97,-180.649 1695.55,-181.196 1693.58,-174.479"/>
</g>
<!-- Node14 -->
<g id="node14" class="node"><title>Node14</title>
<g id="a_node14"><a xlink:href="GizmoManager_8cpp.html" target="_top" xlink:title="/home/travis/build\l/STORM&#45;IRIT/Radium&#45;Engine\l/src/GuiBase/Viewer/Gizmo\l/GizmoManager.cpp">
<polygon fill="white" stroke="black" points="1990.5,-89.5 1990.5,-141.5 2138.5,-141.5 2138.5,-89.5 1990.5,-89.5"/>
<text text-anchor="start" x="1998.5" y="-129.5" font-family="Helvetica,sans-Serif" font-size="10.00">/home/travis/build</text>
<text text-anchor="start" x="1998.5" y="-118.5" font-family="Helvetica,sans-Serif" font-size="10.00">/STORM&#45;IRIT/Radium&#45;Engine</text>
<text text-anchor="start" x="1998.5" y="-107.5" font-family="Helvetica,sans-Serif" font-size="10.00">/src/GuiBase/Viewer/Gizmo</text>
<text text-anchor="middle" x="2064.5" y="-96.5" font-family="Helvetica,sans-Serif" font-size="10.00">/GizmoManager.cpp</text>
</a>
</g>
</g>
<!-- Node1&#45;&gt;Node14 -->
<g id="edge14" class="edge"><title>Node1&#45;&gt;Node14</title>
<path fill="none" stroke="midnightblue" d="M1694.74,-192.47C1771.15,-182.1 1884.37,-164.773 1981.5,-142 1984.44,-141.312 1987.42,-140.575 1990.42,-139.803"/>
<polygon fill="midnightblue" stroke="midnightblue" points="1694.12,-189.022 1684.67,-193.824 1695.05,-195.959 1694.12,-189.022"/>
</g>
<!-- Node15 -->
<g id="node15" class="node"><title>Node15</title>
<g id="a_node15"><a xlink:href="RotateGizmo_8cpp.html" target="_top" xlink:title="/home/travis/build\l/STORM&#45;IRIT/Radium&#45;Engine\l/src/GuiBase/Viewer/Gizmo\l/RotateGizmo.cpp">
<polygon fill="white" stroke="black" points="2156.5,-89.5 2156.5,-141.5 2304.5,-141.5 2304.5,-89.5 2156.5,-89.5"/>
<text text-anchor="start" x="2164.5" y="-129.5" font-family="Helvetica,sans-Serif" font-size="10.00">/home/travis/build</text>
<text text-anchor="start" x="2164.5" y="-118.5" font-family="Helvetica,sans-Serif" font-size="10.00">/STORM&#45;IRIT/Radium&#45;Engine</text>
<text text-anchor="start" x="2164.5" y="-107.5" font-family="Helvetica,sans-Serif" font-size="10.00">/src/GuiBase/Viewer/Gizmo</text>
<text text-anchor="middle" x="2230.5" y="-96.5" font-family="Helvetica,sans-Serif" font-size="10.00">/RotateGizmo.cpp</text>
</a>
</g>
</g>
<!-- Node1&#45;&gt;Node15 -->
<g id="edge15" class="edge"><title>Node1&#45;&gt;Node15</title>
<path fill="none" stroke="midnightblue" d="M1694.89,-198.484C1802.67,-191.216 1989.95,-174.862 2147.5,-142 2150.45,-141.384 2153.45,-140.709 2156.47,-139.988"/>
<polygon fill="midnightblue" stroke="midnightblue" points="1694.46,-195.005 1684.71,-199.159 1694.92,-201.989 1694.46,-195.005"/>
</g>
<!-- Node16 -->
<g id="node16" class="node"><title>Node16</title>
<g id="a_node16"><a xlink:href="ScaleGizmo_8cpp.html" target="_top" xlink:title="/home/travis/build\l/STORM&#45;IRIT/Radium&#45;Engine\l/src/GuiBase/Viewer/Gizmo\l/ScaleGizmo.cpp">
<polygon fill="white" stroke="black" points="2322.5,-89.5 2322.5,-141.5 2470.5,-141.5 2470.5,-89.5 2322.5,-89.5"/>
<text text-anchor="start" x="2330.5" y="-129.5" font-family="Helvetica,sans-Serif" font-size="10.00">/home/travis/build</text>
<text text-anchor="start" x="2330.5" y="-118.5" font-family="Helvetica,sans-Serif" font-size="10.00">/STORM&#45;IRIT/Radium&#45;Engine</text>
<text text-anchor="start" x="2330.5" y="-107.5" font-family="Helvetica,sans-Serif" font-size="10.00">/src/GuiBase/Viewer/Gizmo</text>
<text text-anchor="middle" x="2396.5" y="-96.5" font-family="Helvetica,sans-Serif" font-size="10.00">/ScaleGizmo.cpp</text>
</a>
</g>
</g>
<!-- Node1&#45;&gt;Node16 -->
<g id="edge16" class="edge"><title>Node1&#45;&gt;Node16</title>
<path fill="none" stroke="midnightblue" d="M1694.92,-201.789C1829.6,-197.842 2093.69,-184.827 2313.5,-142 2316.46,-141.423 2319.46,-140.781 2322.49,-140.087"/>
<polygon fill="midnightblue" stroke="midnightblue" points="1694.56,-198.297 1684.66,-202.079 1694.76,-205.295 1694.56,-198.297"/>
</g>
<!-- Node17 -->
<g id="node17" class="node"><title>Node17</title>
<g id="a_node17"><a xlink:href="TranslateGizmo_8cpp.html" target="_top" xlink:title="/home/travis/build\l/STORM&#45;IRIT/Radium&#45;Engine\l/src/GuiBase/Viewer/Gizmo\l/TranslateGizmo.cpp">
<polygon fill="white" stroke="black" points="2488.5,-89.5 2488.5,-141.5 2636.5,-141.5 2636.5,-89.5 2488.5,-89.5"/>
<text text-anchor="start" x="2496.5" y="-129.5" font-family="Helvetica,sans-Serif" font-size="10.00">/home/travis/build</text>
<text text-anchor="start" x="2496.5" y="-118.5" font-family="Helvetica,sans-Serif" font-size="10.00">/STORM&#45;IRIT/Radium&#45;Engine</text>
<text text-anchor="start" x="2496.5" y="-107.5" font-family="Helvetica,sans-Serif" font-size="10.00">/src/GuiBase/Viewer/Gizmo</text>
<text text-anchor="middle" x="2562.5" y="-96.5" font-family="Helvetica,sans-Serif" font-size="10.00">/TranslateGizmo.cpp</text>
</a>
</g>
</g>
<!-- Node1&#45;&gt;Node17 -->
<g id="edge17" class="edge"><title>Node1&#45;&gt;Node17</title>
<path fill="none" stroke="midnightblue" d="M1694.79,-203.885C1853.33,-203.116 2196.13,-194.795 2479.5,-142 2482.46,-141.448 2485.47,-140.826 2488.5,-140.149"/>
<polygon fill="midnightblue" stroke="midnightblue" points="1694.61,-200.385 1684.62,-203.925 1694.64,-207.385 1694.61,-200.385"/>
</g>
<!-- Node18 -->
<g id="node18" class="node"><title>Node18</title>
<g id="a_node18"><a xlink:href="TrackballCameraManipulator_8cpp.html" target="_top" xlink:title="/home/travis/build\l/STORM&#45;IRIT/Radium&#45;Engine\l/src/GuiBase/Viewer/TrackballCamera\lManipulator.cpp">
<polygon fill="white" stroke="black" points="2655,-89.5 2655,-141.5 2848,-141.5 2848,-89.5 2655,-89.5"/>
<text text-anchor="start" x="2663" y="-129.5" font-family="Helvetica,sans-Serif" font-size="10.00">/home/travis/build</text>
<text text-anchor="start" x="2663" y="-118.5" font-family="Helvetica,sans-Serif" font-size="10.00">/STORM&#45;IRIT/Radium&#45;Engine</text>
<text text-anchor="start" x="2663" y="-107.5" font-family="Helvetica,sans-Serif" font-size="10.00">/src/GuiBase/Viewer/TrackballCamera</text>
<text text-anchor="middle" x="2751.5" y="-96.5" font-family="Helvetica,sans-Serif" font-size="10.00">Manipulator.cpp</text>
</a>
</g>
</g>
<!-- Node1&#45;&gt;Node18 -->
<g id="edge18" class="edge"><title>Node1&#45;&gt;Node18</title>
<path fill="none" stroke="midnightblue" d="M1694.74,-203.523C1874.59,-202.419 2296.16,-193.941 2645.5,-142 2648.59,-141.541 2651.72,-141.035 2654.88,-140.49"/>
<polygon fill="midnightblue" stroke="midnightblue" points="1694.52,-200.024 1684.54,-203.579 1694.56,-207.024 1694.52,-200.024"/>
</g>
<!-- Node19 -->
<g id="node19" class="node"><title>Node19</title>
<g id="a_node19"><a xlink:href="Viewer_8cpp.html" target="_top" xlink:title="/home/travis/build\l/STORM&#45;IRIT/Radium&#45;Engine\l/src/GuiBase/Viewer/Viewer.cpp">
<polygon fill="white" stroke="black" points="2866,-95 2866,-136 3031,-136 3031,-95 2866,-95"/>
<text text-anchor="start" x="2874" y="-124" font-family="Helvetica,sans-Serif" font-size="10.00">/home/travis/build</text>
<text text-anchor="start" x="2874" y="-113" font-family="Helvetica,sans-Serif" font-size="10.00">/STORM&#45;IRIT/Radium&#45;Engine</text>
<text text-anchor="middle" x="2948.5" y="-102" font-family="Helvetica,sans-Serif" font-size="10.00">/src/GuiBase/Viewer/Viewer.cpp</text>
</a>
</g>
</g>
<!-- Node1&#45;&gt;Node19 -->
<g id="edge19" class="edge"><title>Node1&#45;&gt;Node19</title>
<path fill="none" stroke="midnightblue" d="M1694.84,-201.729C1941.34,-196.38 2633.21,-178.464 2857.5,-142 2866.73,-140.499 2876.36,-138.403 2885.76,-136.05"/>
<polygon fill="midnightblue" stroke="midnightblue" points="1694.42,-198.238 1684.5,-201.952 1694.57,-205.236 1694.42,-198.238"/>
</g>
<!-- Node20 -->
<g id="node20" class="node"><title>Node20</title>
<g id="a_node20"><a xlink:href="CameraManipPlugin_8cpp.html" target="_top" xlink:title="/home/travis/build\l/STORM&#45;IRIT/Radium&#45;Engine\l/Plugins/CameraManip/src\l/CameraManipPlugin.cpp">
<polygon fill="white" stroke="black" points="3049.5,-89.5 3049.5,-141.5 3197.5,-141.5 3197.5,-89.5 3049.5,-89.5"/>
<text text-anchor="start" x="3057.5" y="-129.5" font-family="Helvetica,sans-Serif" font-size="10.00">/home/travis/build</text>
<text text-anchor="start" x="3057.5" y="-118.5" font-family="Helvetica,sans-Serif" font-size="10.00">/STORM&#45;IRIT/Radium&#45;Engine</text>
<text text-anchor="start" x="3057.5" y="-107.5" font-family="Helvetica,sans-Serif" font-size="10.00">/Plugins/CameraManip/src</text>
<text text-anchor="middle" x="3123.5" y="-96.5" font-family="Helvetica,sans-Serif" font-size="10.00">/CameraManipPlugin.cpp</text>
</a>
</g>
</g>
<!-- Node1&#45;&gt;Node20 -->
<g id="edge20" class="edge"><title>Node1&#45;&gt;Node20</title>
<path fill="none" stroke="midnightblue" d="M1694.92,-202.657C1965.52,-199.612 2779.86,-186.867 3040.5,-142 3043.32,-141.514 3046.18,-140.96 3049.06,-140.35"/>
<polygon fill="midnightblue" stroke="midnightblue" points="1694.71,-199.159 1684.75,-202.77 1694.79,-206.159 1694.71,-199.159"/>
</g>
<!-- Node4 -->
<g id="node4" class="node"><title>Node4</title>
<g id="a_node4"><a xlink:href="DefaultCameraManager_8cpp.html" target="_top" xlink:title="/home/travis/build\l/STORM&#45;IRIT/Radium&#45;Engine\l/src/Engine/Managers/CameraManager\l/DefaultCameraManager.cpp">
<polygon fill="white" stroke="black" points="119,-0.5 119,-52.5 322,-52.5 322,-0.5 119,-0.5"/>
<text text-anchor="start" x="127" y="-40.5" font-family="Helvetica,sans-Serif" font-size="10.00">/home/travis/build</text>
<text text-anchor="start" x="127" y="-29.5" font-family="Helvetica,sans-Serif" font-size="10.00">/STORM&#45;IRIT/Radium&#45;Engine</text>
<text text-anchor="start" x="127" y="-18.5" font-family="Helvetica,sans-Serif" font-size="10.00">/src/Engine/Managers/CameraManager</text>
<text text-anchor="middle" x="220.5" y="-7.5" font-family="Helvetica,sans-Serif" font-size="10.00">/DefaultCameraManager.cpp</text>
</a>
</g>
</g>
<!-- Node3&#45;&gt;Node4 -->
<g id="edge3" class="edge"><title>Node3&#45;&gt;Node4</title>
<path fill="none" stroke="midnightblue" d="M285.157,-82.6489C273.551,-72.749 260.925,-61.9801 249.936,-52.6075"/>
<polygon fill="midnightblue" stroke="midnightblue" points="283.118,-85.5094 292.997,-89.336 287.66,-80.1836 283.118,-85.5094"/>
</g>
<!-- Node5 -->
<g id="node5" class="node"><title>Node5</title>
<g id="a_node5"><a xlink:href="ForwardRenderer_8cpp.html" target="_top" xlink:title="/home/travis/build\l/STORM&#45;IRIT/Radium&#45;Engine\l/src/Engine/Renderer/Renderers\l/ForwardRenderer.cpp">
<polygon fill="white" stroke="black" points="340.5,-0.5 340.5,-52.5 506.5,-52.5 506.5,-0.5 340.5,-0.5"/>
<text text-anchor="start" x="348.5" y="-40.5" font-family="Helvetica,sans-Serif" font-size="10.00">/home/travis/build</text>
<text text-anchor="start" x="348.5" y="-29.5" font-family="Helvetica,sans-Serif" font-size="10.00">/STORM&#45;IRIT/Radium&#45;Engine</text>
<text text-anchor="start" x="348.5" y="-18.5" font-family="Helvetica,sans-Serif" font-size="10.00">/src/Engine/Renderer/Renderers</text>
<text text-anchor="middle" x="423.5" y="-7.5" font-family="Helvetica,sans-Serif" font-size="10.00">/ForwardRenderer.cpp</text>
</a>
</g>
</g>
<!-- Node3&#45;&gt;Node5 -->
<g id="edge4" class="edge"><title>Node3&#45;&gt;Node5</title>
<path fill="none" stroke="midnightblue" d="M359.477,-82.6489C370.97,-72.749 383.471,-61.9801 394.352,-52.6075"/>
<polygon fill="midnightblue" stroke="midnightblue" points="357.006,-80.1577 351.713,-89.336 361.574,-85.4614 357.006,-80.1577"/>
</g>
<!-- Node7&#45;&gt;Node1 -->
<g id="edge7" class="edge"><title>Node7&#45;&gt;Node1</title>
<path fill="none" stroke="midnightblue" d="M782.899,-140.508C785.456,-141.045 787.993,-141.544 790.5,-142 1058.46,-190.695 1382.11,-200.994 1528.26,-203.062"/>
<polygon fill="midnightblue" stroke="midnightblue" points="783.491,-137.054 772.966,-138.27 781.953,-143.882 783.491,-137.054"/>
</g>
</g>
</svg>
