<?xml version="1.0" encoding="UTF-8" standalone="no"?>
<!DOCTYPE svg PUBLIC "-//W3C//DTD SVG 1.1//EN"
 "http://www.w3.org/Graphics/SVG/1.1/DTD/svg11.dtd">
<!-- Generated by graphviz version 2.38.0 (20140413.2041)
 -->
<!-- Title: /home/travis/build/STORM&#45;IRIT/Radium&#45;Engine/src/Engine/Renderer/Camera/Camera.inl Pages: 1 -->
<svg width="1274pt" height="408pt"
 viewBox="0.00 0.00 1273.50 408.00" xmlns="http://www.w3.org/2000/svg" xmlns:xlink="http://www.w3.org/1999/xlink">
<g id="graph0" class="graph" transform="scale(1 1) rotate(0) translate(4 404)">
<title>/home/travis/build/STORM&#45;IRIT/Radium&#45;Engine/src/Engine/Renderer/Camera/Camera.inl</title>
<polygon fill="white" stroke="none" points="-4,4 -4,-404 1269.5,-404 1269.5,4 -4,4"/>
<!-- Node1 -->
<g id="node1" class="node"><title>Node1</title>
<polygon fill="#bfbfbf" stroke="black" points="464.5,-347.5 464.5,-399.5 620.5,-399.5 620.5,-347.5 464.5,-347.5"/>
<text text-anchor="start" x="472.5" y="-387.5" font-family="Helvetica,sans-Serif" font-size="10.00">/home/travis/build</text>
<text text-anchor="start" x="472.5" y="-376.5" font-family="Helvetica,sans-Serif" font-size="10.00">/STORM&#45;IRIT/Radium&#45;Engine</text>
<text text-anchor="start" x="472.5" y="-365.5" font-family="Helvetica,sans-Serif" font-size="10.00">/src/Engine/Renderer/Camera</text>
<text text-anchor="middle" x="542.5" y="-354.5" font-family="Helvetica,sans-Serif" font-size="10.00">/Camera.inl</text>
</g>
<!-- Node2 -->
<g id="node2" class="node"><title>Node2</title>
<g id="a_node2"><a xlink:href="Entity_8hpp.html" target="_top" xlink:title="Engine/Entity/Entity.hpp">
<polygon fill="white" stroke="black" points="797.5,-286 797.5,-305 925.5,-305 925.5,-286 797.5,-286"/>
<text text-anchor="middle" x="861.5" y="-293" font-family="Helvetica,sans-Serif" font-size="10.00">Engine/Entity/Entity.hpp</text>
</a>
</g>
</g>
<!-- Node1&#45;&gt;Node2 -->
<g id="edge1" class="edge"><title>Node1&#45;&gt;Node2</title>
<path fill="none" stroke="midnightblue" d="M620.536,-353.908C681.751,-339.324 764.85,-319.526 815.743,-307.401"/>
<polygon fill="midnightblue" stroke="midnightblue" points="816.559,-310.805 825.476,-305.083 814.937,-303.995 816.559,-310.805"/>
</g>
<!-- Node23 -->
<g id="node23" class="node"><title>Node23</title>
<g id="a_node23"><a xlink:href="Camera_8hpp.html" target="_top" xlink:title="Engine/Renderer/Camera\l/Camera.hpp">
<polygon fill="white" stroke="black" points="474.5,-280.5 474.5,-310.5 610.5,-310.5 610.5,-280.5 474.5,-280.5"/>
<text text-anchor="start" x="482.5" y="-298.5" font-family="Helvetica,sans-Serif" font-size="10.00">Engine/Renderer/Camera</text>
<text text-anchor="middle" x="542.5" y="-287.5" font-family="Helvetica,sans-Serif" font-size="10.00">/Camera.hpp</text>
</a>
</g>
</g>
<!-- Node1&#45;&gt;Node23 -->
<g id="edge27" class="edge"><title>Node1&#45;&gt;Node23</title>
<path fill="none" stroke="midnightblue" d="M536.096,-347.193C535.616,-338.692 535.635,-329.233 536.155,-320.81"/>
<polygon fill="midnightblue" stroke="midnightblue" points="539.641,-321.126 537.082,-310.845 532.671,-320.478 539.641,-321.126"/>
</g>
<!-- Node3 -->
<g id="node3" class="node"><title>Node3</title>
<g id="a_node3"><a xlink:href="RaEngine_8hpp.html" target="_top" xlink:title="Engine/RaEngine.hpp">
<polygon fill="white" stroke="black" points="308,-168.5 308,-187.5 425,-187.5 425,-168.5 308,-168.5"/>
<text text-anchor="middle" x="366.5" y="-175.5" font-family="Helvetica,sans-Serif" font-size="10.00">Engine/RaEngine.hpp</text>
</a>
</g>
</g>
<!-- Node2&#45;&gt;Node3 -->
<g id="edge2" class="edge"><title>Node2&#45;&gt;Node3</title>
<path fill="none" stroke="midnightblue" d="M797.311,-291.516C695.442,-285.999 501.897,-272.112 439.5,-244 414.958,-232.943 392.802,-210.632 379.498,-195.259"/>
<polygon fill="midnightblue" stroke="midnightblue" points="382.155,-192.981 373.059,-187.548 376.782,-197.467 382.155,-192.981"/>
</g>
<!-- Node9 -->
<g id="node9" class="node"><title>Node9</title>
<polygon fill="white" stroke="#bfbfbf" points="1038.5,-0.5 1038.5,-19.5 1086.5,-19.5 1086.5,-0.5 1038.5,-0.5"/>
<text text-anchor="middle" x="1062.5" y="-7.5" font-family="Helvetica,sans-Serif" font-size="10.00">thread</text>
</g>
<!-- Node2&#45;&gt;Node9 -->
<g id="edge11" class="edge"><title>Node2&#45;&gt;Node9</title>
<path fill="none" stroke="midnightblue" d="M925.552,-293.526C1004.26,-288.541 1127.5,-266.728 1127.5,-179 1127.5,-179 1127.5,-179 1127.5,-121 1127.5,-83.1777 1098.66,-46.9402 1079.41,-26.9551"/>
<polygon fill="midnightblue" stroke="midnightblue" points="1081.64,-24.2429 1072.09,-19.6585 1076.7,-29.1988 1081.64,-24.2429"/>
</g>
<!-- Node10 -->
<g id="node10" class="node"><title>Node10</title>
<polygon fill="white" stroke="#bfbfbf" points="1156,-224.5 1156,-243.5 1203,-243.5 1203,-224.5 1156,-224.5"/>
<text text-anchor="middle" x="1179.5" y="-231.5" font-family="Helvetica,sans-Serif" font-size="10.00">mutex</text>
</g>
<!-- Node2&#45;&gt;Node10 -->
<g id="edge9" class="edge"><title>Node2&#45;&gt;Node10</title>
<path fill="none" stroke="midnightblue" d="M913.526,-285.983C969.87,-276.557 1062.32,-260.505 1141.5,-244 1142.95,-243.697 1144.43,-243.381 1145.93,-243.055"/>
<polygon fill="midnightblue" stroke="midnightblue" points="1146.85,-246.436 1155.83,-240.816 1145.3,-239.608 1146.85,-246.436"/>
</g>
<!-- Node11 -->
<g id="node11" class="node"><title>Node11</title>
<polygon fill="white" stroke="#bfbfbf" points="1221.5,-224.5 1221.5,-243.5 1265.5,-243.5 1265.5,-224.5 1221.5,-224.5"/>
<text text-anchor="middle" x="1243.5" y="-231.5" font-family="Helvetica,sans-Serif" font-size="10.00">string</text>
</g>
<!-- Node2&#45;&gt;Node11 -->
<g id="edge10" class="edge"><title>Node2&#45;&gt;Node11</title>
<path fill="none" stroke="midnightblue" d="M925.706,-287.988C994.31,-280.417 1106.32,-266.302 1211.42,-243.979"/>
<polygon fill="midnightblue" stroke="midnightblue" points="1212.2,-247.391 1221.24,-241.865 1210.73,-240.548 1212.2,-247.391"/>
</g>
<!-- Node12 -->
<g id="node12" class="node"><title>Node12</title>
<polygon fill="white" stroke="#bfbfbf" points="826,-168.5 826,-187.5 873,-187.5 873,-168.5 826,-168.5"/>
<text text-anchor="middle" x="849.5" y="-175.5" font-family="Helvetica,sans-Serif" font-size="10.00">vector</text>
</g>
<!-- Node2&#45;&gt;Node12 -->
<g id="edge12" class="edge"><title>Node2&#45;&gt;Node12</title>
<path fill="none" stroke="midnightblue" d="M861.117,-285.796C860.477,-272.462 859.008,-246.191 856.5,-224 855.511,-215.25 854.058,-205.596 852.731,-197.481"/>
<polygon fill="midnightblue" stroke="midnightblue" points="856.178,-196.873 851.056,-187.598 849.276,-198.042 856.178,-196.873"/>
</g>
<!-- Node13 -->
<g id="node13" class="node"><title>Node13</title>
<g id="a_node13"><a xlink:href="Types_8hpp.html" target="_top" xlink:title="Core/Types.hpp">
<polygon fill="white" stroke="black" points="719,-168.5 719,-187.5 808,-187.5 808,-168.5 719,-168.5"/>
<text text-anchor="middle" x="763.5" y="-175.5" font-family="Helvetica,sans-Serif" font-size="10.00">Core/Types.hpp</text>
</a>
</g>
</g>
<!-- Node2&#45;&gt;Node13 -->
<g id="edge13" class="edge"><title>Node2&#45;&gt;Node13</title>
<path fill="none" stroke="midnightblue" d="M858.161,-285.986C852.386,-271.986 839.503,-243.692 822.5,-224 812.168,-212.034 798.184,-201.2 786.423,-193.162"/>
<polygon fill="midnightblue" stroke="midnightblue" points="788.237,-190.165 777.96,-187.587 784.386,-196.011 788.237,-190.165"/>
</g>
<!-- Node18 -->
<g id="node18" class="node"><title>Node18</title>
<g id="a_node18"><a xlink:href="IndexedObject_8hpp.html" target="_top" xlink:title="Core/Utils/IndexedObject.hpp">
<polygon fill="white" stroke="black" points="909,-224.5 909,-243.5 1064,-243.5 1064,-224.5 909,-224.5"/>
<text text-anchor="middle" x="986.5" y="-231.5" font-family="Helvetica,sans-Serif" font-size="10.00">Core/Utils/IndexedObject.hpp</text>
</a>
</g>
</g>
<!-- Node2&#45;&gt;Node18 -->
<g id="edge19" class="edge"><title>Node2&#45;&gt;Node18</title>
<path fill="none" stroke="midnightblue" d="M879.409,-285.975C900.387,-275.99 935.35,-259.348 959.593,-247.807"/>
<polygon fill="midnightblue" stroke="midnightblue" points="961.099,-250.967 968.624,-243.509 958.09,-244.647 961.099,-250.967"/>
</g>
<!-- Node22 -->
<g id="node22" class="node"><title>Node22</title>
<g id="a_node22"><a xlink:href="Entity_8inl.html" target="_top" xlink:title="Engine/Entity/Entity.inl">
<polygon fill="white" stroke="black" points="693,-224.5 693,-243.5 814,-243.5 814,-224.5 693,-224.5"/>
<text text-anchor="middle" x="753.5" y="-231.5" font-family="Helvetica,sans-Serif" font-size="10.00">Engine/Entity/Entity.inl</text>
</a>
</g>
</g>
<!-- Node2&#45;&gt;Node22 -->
<g id="edge25" class="edge"><title>Node2&#45;&gt;Node22</title>
<path fill="none" stroke="midnightblue" d="M841.126,-285.975C821.362,-276.255 791.971,-260.227 772.642,-248.737"/>
<polygon fill="midnightblue" stroke="midnightblue" points="774.41,-245.716 764.048,-243.509 770.772,-251.696 774.41,-245.716"/>
</g>
<!-- Node4 -->
<g id="node4" class="node"><title>Node4</title>
<g id="a_node4"><a xlink:href="CoreMacros_8hpp.html" target="_top" xlink:title="Core/CoreMacros.hpp">
<polygon fill="white" stroke="black" points="806.5,-56.5 806.5,-75.5 926.5,-75.5 926.5,-56.5 806.5,-56.5"/>
<text text-anchor="middle" x="866.5" y="-63.5" font-family="Helvetica,sans-Serif" font-size="10.00">Core/CoreMacros.hpp</text>
</a>
</g>
</g>
<!-- Node3&#45;&gt;Node4 -->
<g id="edge3" class="edge"><title>Node3&#45;&gt;Node4</title>
<path fill="none" stroke="midnightblue" d="M381.712,-168.424C407.661,-154.215 462.532,-125.972 512.5,-112 608.464,-85.1672 723.58,-74.2883 795.902,-69.9081"/>
<polygon fill="midnightblue" stroke="midnightblue" points="796.474,-73.3809 806.255,-69.3079 796.069,-66.3927 796.474,-73.3809"/>
</g>
<!-- Node5 -->
<g id="node5" class="node"><title>Node5</title>
<polygon fill="white" stroke="#bfbfbf" points="876.5,-0.5 876.5,-19.5 928.5,-19.5 928.5,-0.5 876.5,-0.5"/>
<text text-anchor="middle" x="902.5" y="-7.5" font-family="Helvetica,sans-Serif" font-size="10.00">cassert</text>
</g>
<!-- Node4&#45;&gt;Node5 -->
<g id="edge4" class="edge"><title>Node4&#45;&gt;Node5</title>
<path fill="none" stroke="midnightblue" d="M872.445,-56.083C877.477,-48.5341 884.837,-37.4948 891.013,-28.2298"/>
<polygon fill="midnightblue" stroke="midnightblue" points="894.031,-30.0131 896.666,-19.7511 888.207,-26.1301 894.031,-30.0131"/>
</g>
<!-- Node6 -->
<g id="node6" class="node"><title>Node6</title>
<polygon fill="white" stroke="#bfbfbf" points="947,-0.5 947,-19.5 992,-19.5 992,-0.5 947,-0.5"/>
<text text-anchor="middle" x="969.5" y="-7.5" font-family="Helvetica,sans-Serif" font-size="10.00">cstdio</text>
</g>
<!-- Node4&#45;&gt;Node6 -->
<g id="edge5" class="edge"><title>Node4&#45;&gt;Node6</title>
<path fill="none" stroke="midnightblue" d="M883.049,-56.324C899.492,-47.7034 924.935,-34.3643 943.968,-24.3855"/>
<polygon fill="midnightblue" stroke="midnightblue" points="945.761,-27.3977 952.992,-19.6545 942.511,-21.198 945.761,-27.3977"/>
</g>
<!-- Node7 -->
<g id="node7" class="node"><title>Node7</title>
<polygon fill="white" stroke="#bfbfbf" points="725,-0.5 725,-19.5 784,-19.5 784,-0.5 725,-0.5"/>
<text text-anchor="middle" x="754.5" y="-7.5" font-family="Helvetica,sans-Serif" font-size="10.00">iostream</text>
</g>
<!-- Node4&#45;&gt;Node7 -->
<g id="edge6" class="edge"><title>Node4&#45;&gt;Node7</title>
<path fill="none" stroke="midnightblue" d="M848.505,-56.324C830.462,-47.6247 802.453,-34.1202 781.697,-24.113"/>
<polygon fill="midnightblue" stroke="midnightblue" points="782.978,-20.8449 772.45,-19.6545 779.938,-27.1502 782.978,-20.8449"/>
</g>
<!-- Node8 -->
<g id="node8" class="node"><title>Node8</title>
<polygon fill="white" stroke="#bfbfbf" points="802.5,-0.5 802.5,-19.5 858.5,-19.5 858.5,-0.5 802.5,-0.5"/>
<text text-anchor="middle" x="830.5" y="-7.5" font-family="Helvetica,sans-Serif" font-size="10.00">sstream</text>
</g>
<!-- Node4&#45;&gt;Node8 -->
<g id="edge7" class="edge"><title>Node4&#45;&gt;Node8</title>
<path fill="none" stroke="midnightblue" d="M860.555,-56.083C855.523,-48.5341 848.163,-37.4948 841.987,-28.2298"/>
<polygon fill="midnightblue" stroke="midnightblue" points="844.793,-26.1301 836.334,-19.7511 838.969,-30.0131 844.793,-26.1301"/>
</g>
<!-- Node4&#45;&gt;Node9 -->
<g id="edge8" class="edge"><title>Node4&#45;&gt;Node9</title>
<path fill="none" stroke="midnightblue" d="M897.557,-56.4435C933.274,-46.6031 991.716,-30.5016 1028.59,-20.3418"/>
<polygon fill="midnightblue" stroke="midnightblue" points="1029.67,-23.6744 1038.39,-17.6439 1027.81,-16.9258 1029.67,-23.6744"/>
</g>
<!-- Node14 -->
<g id="node14" class="node"><title>Node14</title>
<g id="a_node14"><a xlink:href="RaCore_8hpp.html" target="_top" xlink:title="Core/RaCore.hpp">
<polygon fill="white" stroke="black" points="817.5,-112.5 817.5,-131.5 915.5,-131.5 915.5,-112.5 817.5,-112.5"/>
<text text-anchor="middle" x="866.5" y="-119.5" font-family="Helvetica,sans-Serif" font-size="10.00">Core/RaCore.hpp</text>
</a>
</g>
</g>
<!-- Node13&#45;&gt;Node14 -->
<g id="edge14" class="edge"><title>Node13&#45;&gt;Node14</title>
<path fill="none" stroke="midnightblue" d="M780.049,-168.324C796.492,-159.703 821.935,-146.364 840.968,-136.386"/>
<polygon fill="midnightblue" stroke="midnightblue" points="842.761,-139.398 849.992,-131.655 839.511,-133.198 842.761,-139.398"/>
</g>
<!-- Node15 -->
<g id="node15" class="node"><title>Node15</title>
<polygon fill="white" stroke="#bfbfbf" points="521.5,-112.5 521.5,-131.5 589.5,-131.5 589.5,-112.5 521.5,-112.5"/>
<text text-anchor="middle" x="555.5" y="-119.5" font-family="Helvetica,sans-Serif" font-size="10.00">Eigen/Core</text>
</g>
<!-- Node13&#45;&gt;Node15 -->
<g id="edge16" class="edge"><title>Node13&#45;&gt;Node15</title>
<path fill="none" stroke="midnightblue" d="M730.542,-168.444C694.713,-159.142 637.337,-144.246 598.109,-134.062"/>
<polygon fill="midnightblue" stroke="midnightblue" points="598.863,-130.642 588.304,-131.516 597.104,-137.417 598.863,-130.642"/>
</g>
<!-- Node16 -->
<g id="node16" class="node"><title>Node16</title>
<polygon fill="white" stroke="#bfbfbf" points="607.5,-112.5 607.5,-131.5 701.5,-131.5 701.5,-112.5 607.5,-112.5"/>
<text text-anchor="middle" x="654.5" y="-119.5" font-family="Helvetica,sans-Serif" font-size="10.00">Eigen/Geometry</text>
</g>
<!-- Node13&#45;&gt;Node16 -->
<g id="edge17" class="edge"><title>Node13&#45;&gt;Node16</title>
<path fill="none" stroke="midnightblue" d="M745.987,-168.324C728.428,-159.625 701.169,-146.12 680.969,-136.113"/>
<polygon fill="midnightblue" stroke="midnightblue" points="682.484,-132.958 671.969,-131.655 679.376,-139.23 682.484,-132.958"/>
</g>
<!-- Node17 -->
<g id="node17" class="node"><title>Node17</title>
<polygon fill="white" stroke="#bfbfbf" points="719.5,-112.5 719.5,-131.5 799.5,-131.5 799.5,-112.5 719.5,-112.5"/>
<text text-anchor="middle" x="759.5" y="-119.5" font-family="Helvetica,sans-Serif" font-size="10.00">Eigen/Sparse</text>
</g>
<!-- Node13&#45;&gt;Node17 -->
<g id="edge18" class="edge"><title>Node13&#45;&gt;Node17</title>
<path fill="none" stroke="midnightblue" d="M762.839,-168.083C762.315,-161.006 761.564,-150.861 760.906,-141.986"/>
<polygon fill="midnightblue" stroke="midnightblue" points="764.377,-141.465 760.148,-131.751 757.397,-141.982 764.377,-141.465"/>
</g>
<!-- Node14&#45;&gt;Node4 -->
<g id="edge15" class="edge"><title>Node14&#45;&gt;Node4</title>
<path fill="none" stroke="midnightblue" d="M866.5,-112.083C866.5,-105.006 866.5,-94.8611 866.5,-85.9865"/>
<polygon fill="midnightblue" stroke="midnightblue" points="870,-85.751 866.5,-75.7511 863,-85.7511 870,-85.751"/>
</g>
<!-- Node18&#45;&gt;Node14 -->
<g id="edge20" class="edge"><title>Node18&#45;&gt;Node14</title>
<path fill="none" stroke="midnightblue" d="M971.482,-224.428C957.513,-216.082 936.506,-202.556 920.5,-188 904.296,-173.263 888.626,-153.608 878.378,-139.783"/>
<polygon fill="midnightblue" stroke="midnightblue" points="881.182,-137.688 872.476,-131.65 875.517,-141.8 881.182,-137.688"/>
</g>
<!-- Node19 -->
<g id="node19" class="node"><title>Node19</title>
<g id="a_node19"><a xlink:href="Index_8hpp.html" target="_top" xlink:title="Core/Utils/Index.hpp">
<polygon fill="white" stroke="black" points="930,-168.5 930,-187.5 1043,-187.5 1043,-168.5 930,-168.5"/>
<text text-anchor="middle" x="986.5" y="-175.5" font-family="Helvetica,sans-Serif" font-size="10.00">Core/Utils/Index.hpp</text>
</a>
</g>
</g>
<!-- Node18&#45;&gt;Node19 -->
<g id="edge21" class="edge"><title>Node18&#45;&gt;Node19</title>
<path fill="none" stroke="midnightblue" d="M986.5,-224.083C986.5,-217.006 986.5,-206.861 986.5,-197.986"/>
<polygon fill="midnightblue" stroke="midnightblue" points="990,-197.751 986.5,-187.751 983,-197.751 990,-197.751"/>
</g>
<!-- Node19&#45;&gt;Node14 -->
<g id="edge22" class="edge"><title>Node19&#45;&gt;Node14</title>
<path fill="none" stroke="midnightblue" d="M967.486,-168.444C947.912,-159.636 917.192,-145.812 894.771,-135.722"/>
<polygon fill="midnightblue" stroke="midnightblue" points="895.981,-132.428 885.425,-131.516 893.108,-138.812 895.981,-132.428"/>
</g>
<!-- Node20 -->
<g id="node20" class="node"><title>Node20</title>
<polygon fill="white" stroke="#bfbfbf" points="1057.5,-112.5 1057.5,-131.5 1099.5,-131.5 1099.5,-112.5 1057.5,-112.5"/>
<text text-anchor="middle" x="1078.5" y="-119.5" font-family="Helvetica,sans-Serif" font-size="10.00">limits</text>
</g>
<!-- Node19&#45;&gt;Node20 -->
<g id="edge23" class="edge"><title>Node19&#45;&gt;Node20</title>
<path fill="none" stroke="midnightblue" d="M1001.28,-168.324C1015.77,-159.822 1038.07,-146.729 1054.99,-136.797"/>
<polygon fill="midnightblue" stroke="midnightblue" points="1056.9,-139.735 1063.76,-131.655 1053.36,-133.698 1056.9,-139.735"/>
</g>
<!-- Node21 -->
<g id="node21" class="node"><title>Node21</title>
<g id="a_node21"><a xlink:href="Index_8inl.html" target="_top" xlink:title="Core/Utils/Index.inl">
<polygon fill="white" stroke="black" points="934,-112.5 934,-131.5 1039,-131.5 1039,-112.5 934,-112.5"/>
<text text-anchor="middle" x="986.5" y="-119.5" font-family="Helvetica,sans-Serif" font-size="10.00">Core/Utils/Index.inl</text>
</a>
</g>
</g>
<!-- Node19&#45;&gt;Node21 -->
<g id="edge24" class="edge"><title>Node19&#45;&gt;Node21</title>
<path fill="none" stroke="midnightblue" d="M986.5,-168.083C986.5,-161.006 986.5,-150.861 986.5,-141.986"/>
<polygon fill="midnightblue" stroke="midnightblue" points="990,-141.751 986.5,-131.751 983,-141.751 990,-141.751"/>
</g>
<!-- Node22&#45;&gt;Node2 -->
<g id="edge26" class="edge"><title>Node22&#45;&gt;Node2</title>
<path fill="none" stroke="midnightblue" d="M773.842,-243.509C793.595,-253.223 822.986,-269.25 842.326,-280.744"/>
<polygon fill="midnightblue" stroke="midnightblue" points="840.564,-283.769 850.927,-285.975 844.202,-277.788 840.564,-283.769"/>
</g>
<!-- Node23&#45;&gt;Node1 -->
<g id="edge45" class="edge"><title>Node23&#45;&gt;Node1</title>
<path fill="none" stroke="midnightblue" d="M547.918,-310.845C548.892,-318.278 549.332,-327.715 549.237,-336.958"/>
<polygon fill="midnightblue" stroke="midnightblue" points="545.732,-337.084 548.904,-347.193 552.728,-337.313 545.732,-337.084"/>
</g>
<!-- Node23&#45;&gt;Node3 -->
<g id="edge44" class="edge"><title>Node23&#45;&gt;Node3</title>
<path fill="none" stroke="midnightblue" d="M474.32,-280.552C449.638,-272.916 422.857,-261.342 402.5,-244 387.961,-231.614 378.197,-211.812 372.549,-197.316"/>
<polygon fill="midnightblue" stroke="midnightblue" points="375.832,-196.104 369.153,-187.88 369.246,-198.474 375.832,-196.104"/>
</g>
<!-- Node23&#45;&gt;Node13 -->
<g id="edge34" class="edge"><title>Node23&#45;&gt;Node13</title>
<path fill="none" stroke="midnightblue" d="M572.436,-280.287C593.092,-270.367 621.118,-256.683 645.5,-244 678.326,-226.924 715.644,-206.13 739.367,-192.734"/>
<polygon fill="midnightblue" stroke="midnightblue" points="741.373,-195.621 748.35,-187.648 737.924,-189.529 741.373,-195.621"/>
</g>
<!-- Node24 -->
<g id="node24" class="node"><title>Node24</title>
<g id="a_node24"><a xlink:href="Math_8hpp.html" target="_top" xlink:title="Core/Math/Math.hpp">
<polygon fill="white" stroke="black" points="112.5,-224.5 112.5,-243.5 226.5,-243.5 226.5,-224.5 112.5,-224.5"/>
<text text-anchor="middle" x="169.5" y="-231.5" font-family="Helvetica,sans-Serif" font-size="10.00">Core/Math/Math.hpp</text>
</a>
</g>
</g>
<!-- Node23&#45;&gt;Node24 -->
<g id="edge28" class="edge"><title>Node23&#45;&gt;Node24</title>
<path fill="none" stroke="midnightblue" d="M474.086,-283.587C405.27,-272.609 300.015,-255.819 233,-245.129"/>
<polygon fill="midnightblue" stroke="midnightblue" points="233.418,-241.652 222.991,-243.533 232.315,-248.564 233.418,-241.652"/>
</g>
<!-- Node28 -->
<g id="node28" class="node"><title>Node28</title>
<g id="a_node28"><a xlink:href="Component_8hpp.html" target="_top" xlink:title="Engine/Component/Component.hpp">
<polygon fill="white" stroke="black" points="448.5,-224.5 448.5,-243.5 636.5,-243.5 636.5,-224.5 448.5,-224.5"/>
<text text-anchor="middle" x="542.5" y="-231.5" font-family="Helvetica,sans-Serif" font-size="10.00">Engine/Component/Component.hpp</text>
</a>
</g>
</g>
<!-- Node23&#45;&gt;Node28 -->
<g id="edge35" class="edge"><title>Node23&#45;&gt;Node28</title>
<path fill="none" stroke="midnightblue" d="M542.5,-280.399C542.5,-272.466 542.5,-262.458 542.5,-253.858"/>
<polygon fill="midnightblue" stroke="midnightblue" points="546,-253.658 542.5,-243.658 539,-253.658 546,-253.658"/>
</g>
<!-- Node24&#45;&gt;Node14 -->
<g id="edge29" class="edge"><title>Node24&#45;&gt;Node14</title>
<path fill="none" stroke="midnightblue" d="M187.352,-224.337C205.749,-215.371 235.225,-200.898 260.5,-188 277.5,-179.325 280.145,-173.228 298.5,-168 513.838,-106.667 580.742,-155.954 807.281,-132.016"/>
<polygon fill="midnightblue" stroke="midnightblue" points="807.931,-135.466 817.491,-130.899 807.17,-128.507 807.931,-135.466"/>
</g>
<!-- Node25 -->
<g id="node25" class="node"><title>Node25</title>
<polygon fill="white" stroke="#bfbfbf" points="189.5,-168.5 189.5,-187.5 251.5,-187.5 251.5,-168.5 189.5,-168.5"/>
<text text-anchor="middle" x="220.5" y="-175.5" font-family="Helvetica,sans-Serif" font-size="10.00">algorithm</text>
</g>
<!-- Node24&#45;&gt;Node25 -->
<g id="edge30" class="edge"><title>Node24&#45;&gt;Node25</title>
<path fill="none" stroke="midnightblue" d="M177.922,-224.083C185.348,-216.22 196.352,-204.569 205.312,-195.081"/>
<polygon fill="midnightblue" stroke="midnightblue" points="207.913,-197.424 212.235,-187.751 202.824,-192.618 207.913,-197.424"/>
</g>
<!-- Node26 -->
<g id="node26" class="node"><title>Node26</title>
<polygon fill="white" stroke="#bfbfbf" points="0,-168.5 0,-187.5 47,-187.5 47,-168.5 0,-168.5"/>
<text text-anchor="middle" x="23.5" y="-175.5" font-family="Helvetica,sans-Serif" font-size="10.00">cmath</text>
</g>
<!-- Node24&#45;&gt;Node26 -->
<g id="edge31" class="edge"><title>Node24&#45;&gt;Node26</title>
<path fill="none" stroke="midnightblue" d="M146.366,-224.444C122.018,-215.438 83.4929,-201.189 56.077,-191.049"/>
<polygon fill="midnightblue" stroke="midnightblue" points="57.1191,-187.703 46.5259,-187.516 54.6908,-194.268 57.1191,-187.703"/>
</g>
<!-- Node27 -->
<g id="node27" class="node"><title>Node27</title>
<g id="a_node27"><a xlink:href="Math_8inl.html" target="_top" xlink:title="Core/Math/Math.inl">
<polygon fill="white" stroke="black" points="65,-168.5 65,-187.5 172,-187.5 172,-168.5 65,-168.5"/>
<text text-anchor="middle" x="118.5" y="-175.5" font-family="Helvetica,sans-Serif" font-size="10.00">Core/Math/Math.inl</text>
</a>
</g>
</g>
<!-- Node24&#45;&gt;Node27 -->
<g id="edge32" class="edge"><title>Node24&#45;&gt;Node27</title>
<path fill="none" stroke="midnightblue" d="M156.191,-224.324C147.287,-216.654 136.12,-205.25 128.064,-195.8"/>
<polygon fill="midnightblue" stroke="midnightblue" points="130.673,-193.458 121.694,-187.834 125.206,-197.83 130.673,-193.458"/>
</g>
<!-- Node27&#45;&gt;Node24 -->
<g id="edge33" class="edge"><title>Node27&#45;&gt;Node24</title>
<path fill="none" stroke="midnightblue" d="M131.896,-187.751C140.768,-195.405 151.862,-206.736 159.888,-216.144"/>
<polygon fill="midnightblue" stroke="midnightblue" points="157.262,-218.465 166.245,-224.083 162.726,-214.089 157.262,-218.465"/>
</g>
<!-- Node28&#45;&gt;Node3 -->
<g id="edge39" class="edge"><title>Node28&#45;&gt;Node3</title>
<path fill="none" stroke="midnightblue" d="M514.612,-224.444C484.746,-215.28 437.185,-200.688 404.044,-190.519"/>
<polygon fill="midnightblue" stroke="midnightblue" points="404.844,-187.104 394.257,-187.516 402.791,-193.796 404.844,-187.104"/>
</g>
<!-- Node28&#45;&gt;Node12 -->
<g id="edge40" class="edge"><title>Node28&#45;&gt;Node12</title>
<path fill="none" stroke="midnightblue" d="M605.973,-224.477C659.447,-216.863 738.129,-204.651 815.819,-187.952"/>
<polygon fill="midnightblue" stroke="midnightblue" points="816.752,-191.331 825.779,-185.785 815.264,-184.491 816.752,-191.331"/>
</g>
<!-- Node28&#45;&gt;Node13 -->
<g id="edge41" class="edge"><title>Node28&#45;&gt;Node13</title>
<path fill="none" stroke="midnightblue" d="M577.518,-224.444C615.748,-215.102 677.067,-200.119 718.757,-189.933"/>
<polygon fill="midnightblue" stroke="midnightblue" points="719.762,-193.29 728.646,-187.516 718.101,-186.49 719.762,-193.29"/>
</g>
<!-- Node28&#45;&gt;Node15 -->
<g id="edge37" class="edge"><title>Node28&#45;&gt;Node15</title>
<path fill="none" stroke="midnightblue" d="M579.602,-224.458C598.945,-217.918 620.928,-206.724 632.5,-188 646.425,-165.468 616.945,-146.852 590.531,-135.401"/>
<polygon fill="midnightblue" stroke="midnightblue" points="591.605,-132.059 581.024,-131.513 588.955,-138.538 591.605,-132.059"/>
</g>
<!-- Node28&#45;&gt;Node16 -->
<g id="edge38" class="edge"><title>Node28&#45;&gt;Node16</title>
<path fill="none" stroke="midnightblue" d="M589.571,-224.478C610.98,-218.102 634.588,-207.053 648.5,-188 658.203,-174.712 658.83,-155.589 657.555,-141.524"/>
<polygon fill="midnightblue" stroke="midnightblue" points="661.017,-141.004 656.261,-131.536 654.075,-141.903 661.017,-141.004"/>
</g>
<!-- Node28&#45;&gt;Node19 -->
<g id="edge36" class="edge"><title>Node28&#45;&gt;Node19</title>
<path fill="none" stroke="midnightblue" d="M612.853,-224.444C697.122,-214.195 837.233,-197.154 919.833,-187.108"/>
<polygon fill="midnightblue" stroke="midnightblue" points="920.356,-190.57 929.86,-185.889 919.511,-183.622 920.356,-190.57"/>
</g>
<!-- Node29 -->
<g id="node29" class="node"><title>Node29</title>
<g id="a_node29"><a xlink:href="Component_8inl.html" target="_top" xlink:title="Engine/Component/Component.inl">
<polygon fill="white" stroke="black" points="443,-168.5 443,-187.5 624,-187.5 624,-168.5 443,-168.5"/>
<text text-anchor="middle" x="533.5" y="-175.5" font-family="Helvetica,sans-Serif" font-size="10.00">Engine/Component/Component.inl</text>
</a>
</g>
</g>
<!-- Node28&#45;&gt;Node29 -->
<g id="edge42" class="edge"><title>Node28&#45;&gt;Node29</title>
<path fill="none" stroke="midnightblue" d="M535.848,-224.083C533.175,-217.006 531.047,-206.861 530.186,-197.986"/>
<polygon fill="midnightblue" stroke="midnightblue" points="533.675,-197.622 529.828,-187.751 526.68,-197.867 533.675,-197.622"/>
</g>
<!-- Node29&#45;&gt;Node28 -->
<g id="edge43" class="edge"><title>Node29&#45;&gt;Node28</title>
<path fill="none" stroke="midnightblue" d="M540.09,-187.751C542.77,-194.78 544.913,-204.91 545.794,-213.805"/>
<polygon fill="midnightblue" stroke="midnightblue" points="542.307,-214.222 546.18,-224.083 549.302,-213.958 542.307,-214.222"/>
</g>
</g>
</svg>
