<?xml version="1.0" encoding="UTF-8" standalone="no"?>
<!DOCTYPE svg PUBLIC "-//W3C//DTD SVG 1.1//EN"
 "http://www.w3.org/Graphics/SVG/1.1/DTD/svg11.dtd">
<!-- Generated by graphviz version 2.38.0 (20140413.2041)
 -->
<!-- Title: /home/travis/build/STORM&#45;IRIT/Radium&#45;Engine/src/Engine/Renderer/Camera/Camera.hpp Pages: 1 -->
<svg width="1204pt" height="464pt"
 viewBox="0.00 0.00 1204.12 464.00" xmlns="http://www.w3.org/2000/svg" xmlns:xlink="http://www.w3.org/1999/xlink">
<g id="graph0" class="graph" transform="scale(1 1) rotate(0) translate(4 460)">
<title>/home/travis/build/STORM&#45;IRIT/Radium&#45;Engine/src/Engine/Renderer/Camera/Camera.hpp</title>
<polygon fill="white" stroke="none" points="-4,4 -4,-460 1200.12,-460 1200.12,4 -4,4"/>
<!-- Node1 -->
<g id="node1" class="node"><title>Node1</title>
<polygon fill="#bfbfbf" stroke="black" points="456.224,-403.5 456.224,-455.5 612.224,-455.5 612.224,-403.5 456.224,-403.5"/>
<text text-anchor="start" x="464.224" y="-443.5" font-family="Helvetica,sans-Serif" font-size="10.00">/home/travis/build</text>
<text text-anchor="start" x="464.224" y="-432.5" font-family="Helvetica,sans-Serif" font-size="10.00">/STORM&#45;IRIT/Radium&#45;Engine</text>
<text text-anchor="start" x="464.224" y="-421.5" font-family="Helvetica,sans-Serif" font-size="10.00">/src/Engine/Renderer/Camera</text>
<text text-anchor="middle" x="534.224" y="-410.5" font-family="Helvetica,sans-Serif" font-size="10.00">/Camera.hpp</text>
</g>
<!-- Node2 -->
<g id="node2" class="node"><title>Node2</title>
<g id="a_node2"><a xlink:href="Math_8hpp.html" target="_top" xlink:title="Core/Math/Math.hpp">
<polygon fill="white" stroke="black" points="133.224,-342 133.224,-361 247.224,-361 247.224,-342 133.224,-342"/>
<text text-anchor="middle" x="190.224" y="-349" font-family="Helvetica,sans-Serif" font-size="10.00">Core/Math/Math.hpp</text>
</a>
</g>
</g>
<!-- Node1&#45;&gt;Node2 -->
<g id="edge1" class="edge"><title>Node1&#45;&gt;Node2</title>
<path fill="none" stroke="midnightblue" d="M456.165,-411.254C389.543,-396.536 295.797,-375.824 239.241,-363.329"/>
<polygon fill="midnightblue" stroke="midnightblue" points="239.648,-359.835 229.128,-361.095 238.138,-366.67 239.648,-359.835"/>
</g>
<!-- Node13 -->
<g id="node13" class="node"><title>Node13</title>
<g id="a_node13"><a xlink:href="Types_8hpp.html" target="_top" xlink:title="Core/Types.hpp">
<polygon fill="white" stroke="black" points="161.724,-224.5 161.724,-243.5 250.724,-243.5 250.724,-224.5 161.724,-224.5"/>
<text text-anchor="middle" x="206.224" y="-231.5" font-family="Helvetica,sans-Serif" font-size="10.00">Core/Types.hpp</text>
</a>
</g>
</g>
<!-- Node1&#45;&gt;Node13 -->
<g id="edge13" class="edge"><title>Node1&#45;&gt;Node13</title>
<path fill="none" stroke="midnightblue" d="M497.965,-403.38C452.858,-372.607 373.015,-319.678 301.224,-280 279.733,-268.122 254.591,-256.3 235.571,-247.755"/>
<polygon fill="midnightblue" stroke="midnightblue" points="236.795,-244.469 226.235,-243.603 233.95,-250.865 236.795,-244.469"/>
</g>
<!-- Node17 -->
<g id="node17" class="node"><title>Node17</title>
<g id="a_node17"><a xlink:href="Component_8hpp.html" target="_top" xlink:title="Engine/Component/Component.hpp">
<polygon fill="white" stroke="black" points="349.224,-280.5 349.224,-299.5 537.224,-299.5 537.224,-280.5 349.224,-280.5"/>
<text text-anchor="middle" x="443.224" y="-287.5" font-family="Helvetica,sans-Serif" font-size="10.00">Engine/Component/Component.hpp</text>
</a>
</g>
</g>
<!-- Node1&#45;&gt;Node17 -->
<g id="edge18" class="edge"><title>Node1&#45;&gt;Node17</title>
<path fill="none" stroke="midnightblue" d="M517.533,-403.28C499.233,-375.629 470.37,-332.018 454.541,-308.1"/>
<polygon fill="midnightblue" stroke="midnightblue" points="457.419,-306.106 448.981,-299.699 451.581,-309.97 457.419,-306.106"/>
</g>
<!-- Node21 -->
<g id="node21" class="node"><title>Node21</title>
<g id="a_node21"><a xlink:href="RaEngine_8hpp.html" target="_top" xlink:title="Engine/RaEngine.hpp">
<polygon fill="white" stroke="black" points="783.724,-224.5 783.724,-243.5 900.724,-243.5 900.724,-224.5 783.724,-224.5"/>
<text text-anchor="middle" x="842.224" y="-231.5" font-family="Helvetica,sans-Serif" font-size="10.00">Engine/RaEngine.hpp</text>
</a>
</g>
</g>
<!-- Node1&#45;&gt;Node21 -->
<g id="edge31" class="edge"><title>Node1&#45;&gt;Node21</title>
<path fill="none" stroke="midnightblue" d="M542.293,-403.387C550.073,-382.781 563.713,-354.142 584.224,-336 641.496,-285.343 727.115,-258.654 783.798,-245.699"/>
<polygon fill="midnightblue" stroke="midnightblue" points="784.675,-249.09 793.683,-243.512 783.163,-242.255 784.675,-249.09"/>
</g>
<!-- Node24 -->
<g id="node24" class="node"><title>Node24</title>
<g id="a_node24"><a xlink:href="Camera_8inl.html" target="_top" xlink:title="Engine/Renderer/Camera\l/Camera.inl">
<polygon fill="white" stroke="black" points="593.224,-336.5 593.224,-366.5 729.224,-366.5 729.224,-336.5 593.224,-336.5"/>
<text text-anchor="start" x="601.224" y="-354.5" font-family="Helvetica,sans-Serif" font-size="10.00">Engine/Renderer/Camera</text>
<text text-anchor="middle" x="661.224" y="-343.5" font-family="Helvetica,sans-Serif" font-size="10.00">/Camera.inl</text>
</a>
</g>
</g>
<!-- Node1&#45;&gt;Node24 -->
<g id="edge32" class="edge"><title>Node1&#45;&gt;Node24</title>
<path fill="none" stroke="midnightblue" d="M569.769,-403.404C586.367,-393.117 606.094,-381.397 623.012,-371.798"/>
<polygon fill="midnightblue" stroke="midnightblue" points="625.077,-374.653 632.084,-366.707 621.651,-368.549 625.077,-374.653"/>
</g>
<!-- Node3 -->
<g id="node3" class="node"><title>Node3</title>
<g id="a_node3"><a xlink:href="RaCore_8hpp.html" target="_top" xlink:title="Core/RaCore.hpp">
<polygon fill="white" stroke="black" points="434.224,-112.5 434.224,-131.5 532.224,-131.5 532.224,-112.5 434.224,-112.5"/>
<text text-anchor="middle" x="483.224" y="-119.5" font-family="Helvetica,sans-Serif" font-size="10.00">Core/RaCore.hpp</text>
</a>
</g>
</g>
<!-- Node2&#45;&gt;Node3 -->
<g id="edge2" class="edge"><title>Node2&#45;&gt;Node3</title>
<path fill="none" stroke="midnightblue" d="M133.106,-348.519C97.5835,-343.965 54.3966,-331.673 31.2239,-300 2.22466,-260.363 -37.3375,-254.132 75.2239,-168 128.518,-127.22 324.219,-122.087 423.949,-122.222"/>
<polygon fill="midnightblue" stroke="midnightblue" points="424.155,-125.723 434.166,-122.255 424.178,-118.723 424.155,-125.723"/>
</g>
<!-- Node10 -->
<g id="node10" class="node"><title>Node10</title>
<polygon fill="white" stroke="#bfbfbf" points="40.2239,-280.5 40.2239,-299.5 102.224,-299.5 102.224,-280.5 40.2239,-280.5"/>
<text text-anchor="middle" x="71.2239" y="-287.5" font-family="Helvetica,sans-Serif" font-size="10.00">algorithm</text>
</g>
<!-- Node2&#45;&gt;Node10 -->
<g id="edge9" class="edge"><title>Node2&#45;&gt;Node10</title>
<path fill="none" stroke="midnightblue" d="M173.174,-341.975C153.38,-332.078 120.507,-315.642 97.4541,-304.115"/>
<polygon fill="midnightblue" stroke="midnightblue" points="98.7516,-300.851 88.2421,-299.509 95.6211,-307.112 98.7516,-300.851"/>
</g>
<!-- Node11 -->
<g id="node11" class="node"><title>Node11</title>
<polygon fill="white" stroke="#bfbfbf" points="120.724,-280.5 120.724,-299.5 167.724,-299.5 167.724,-280.5 120.724,-280.5"/>
<text text-anchor="middle" x="144.224" y="-287.5" font-family="Helvetica,sans-Serif" font-size="10.00">cmath</text>
</g>
<!-- Node2&#45;&gt;Node11 -->
<g id="edge10" class="edge"><title>Node2&#45;&gt;Node11</title>
<path fill="none" stroke="midnightblue" d="M183.633,-341.975C176.733,-333.05 165.722,-318.807 157.09,-307.643"/>
<polygon fill="midnightblue" stroke="midnightblue" points="159.688,-305.28 150.802,-299.509 154.15,-309.561 159.688,-305.28"/>
</g>
<!-- Node12 -->
<g id="node12" class="node"><title>Node12</title>
<g id="a_node12"><a xlink:href="Math_8inl.html" target="_top" xlink:title="Core/Math/Math.inl">
<polygon fill="white" stroke="black" points="185.724,-280.5 185.724,-299.5 292.724,-299.5 292.724,-280.5 185.724,-280.5"/>
<text text-anchor="middle" x="239.224" y="-287.5" font-family="Helvetica,sans-Serif" font-size="10.00">Core/Math/Math.inl</text>
</a>
</g>
</g>
<!-- Node2&#45;&gt;Node12 -->
<g id="edge11" class="edge"><title>Node2&#45;&gt;Node12</title>
<path fill="none" stroke="midnightblue" d="M192.344,-341.975C197.908,-332.785 209.744,-317.956 220.305,-306.656"/>
<polygon fill="midnightblue" stroke="midnightblue" points="222.813,-309.098 227.319,-299.509 217.817,-304.194 222.813,-309.098"/>
</g>
<!-- Node4 -->
<g id="node4" class="node"><title>Node4</title>
<g id="a_node4"><a xlink:href="CoreMacros_8hpp.html" target="_top" xlink:title="Core/CoreMacros.hpp">
<polygon fill="white" stroke="black" points="782.224,-56.5 782.224,-75.5 902.224,-75.5 902.224,-56.5 782.224,-56.5"/>
<text text-anchor="middle" x="842.224" y="-63.5" font-family="Helvetica,sans-Serif" font-size="10.00">Core/CoreMacros.hpp</text>
</a>
</g>
</g>
<!-- Node3&#45;&gt;Node4 -->
<g id="edge3" class="edge"><title>Node3&#45;&gt;Node4</title>
<path fill="none" stroke="midnightblue" d="M532.269,-113.37C535.299,-112.905 538.303,-112.445 541.224,-112 621.382,-99.789 713.599,-86.0477 774.613,-76.9985"/>
<polygon fill="midnightblue" stroke="midnightblue" points="775.127,-80.4607 784.506,-75.5319 774.101,-73.5364 775.127,-80.4607"/>
</g>
<!-- Node5 -->
<g id="node5" class="node"><title>Node5</title>
<polygon fill="white" stroke="#bfbfbf" points="852.224,-0.5 852.224,-19.5 904.224,-19.5 904.224,-0.5 852.224,-0.5"/>
<text text-anchor="middle" x="878.224" y="-7.5" font-family="Helvetica,sans-Serif" font-size="10.00">cassert</text>
</g>
<!-- Node4&#45;&gt;Node5 -->
<g id="edge4" class="edge"><title>Node4&#45;&gt;Node5</title>
<path fill="none" stroke="midnightblue" d="M848.169,-56.083C853.201,-48.5341 860.561,-37.4948 866.737,-28.2298"/>
<polygon fill="midnightblue" stroke="midnightblue" points="869.755,-30.0131 872.39,-19.7511 863.931,-26.1301 869.755,-30.0131"/>
</g>
<!-- Node6 -->
<g id="node6" class="node"><title>Node6</title>
<polygon fill="white" stroke="#bfbfbf" points="922.724,-0.5 922.724,-19.5 967.724,-19.5 967.724,-0.5 922.724,-0.5"/>
<text text-anchor="middle" x="945.224" y="-7.5" font-family="Helvetica,sans-Serif" font-size="10.00">cstdio</text>
</g>
<!-- Node4&#45;&gt;Node6 -->
<g id="edge5" class="edge"><title>Node4&#45;&gt;Node6</title>
<path fill="none" stroke="midnightblue" d="M858.773,-56.324C875.216,-47.7034 900.659,-34.3643 919.692,-24.3855"/>
<polygon fill="midnightblue" stroke="midnightblue" points="921.485,-27.3977 928.716,-19.6545 918.234,-21.198 921.485,-27.3977"/>
</g>
<!-- Node7 -->
<g id="node7" class="node"><title>Node7</title>
<polygon fill="white" stroke="#bfbfbf" points="700.724,-0.5 700.724,-19.5 759.724,-19.5 759.724,-0.5 700.724,-0.5"/>
<text text-anchor="middle" x="730.224" y="-7.5" font-family="Helvetica,sans-Serif" font-size="10.00">iostream</text>
</g>
<!-- Node4&#45;&gt;Node7 -->
<g id="edge6" class="edge"><title>Node4&#45;&gt;Node7</title>
<path fill="none" stroke="midnightblue" d="M824.229,-56.324C806.186,-47.6247 778.177,-34.1202 757.421,-24.113"/>
<polygon fill="midnightblue" stroke="midnightblue" points="758.702,-20.8449 748.174,-19.6545 755.662,-27.1502 758.702,-20.8449"/>
</g>
<!-- Node8 -->
<g id="node8" class="node"><title>Node8</title>
<polygon fill="white" stroke="#bfbfbf" points="778.224,-0.5 778.224,-19.5 834.224,-19.5 834.224,-0.5 778.224,-0.5"/>
<text text-anchor="middle" x="806.224" y="-7.5" font-family="Helvetica,sans-Serif" font-size="10.00">sstream</text>
</g>
<!-- Node4&#45;&gt;Node8 -->
<g id="edge7" class="edge"><title>Node4&#45;&gt;Node8</title>
<path fill="none" stroke="midnightblue" d="M836.279,-56.083C831.247,-48.5341 823.887,-37.4948 817.71,-28.2298"/>
<polygon fill="midnightblue" stroke="midnightblue" points="820.517,-26.1301 812.058,-19.7511 814.693,-30.0131 820.517,-26.1301"/>
</g>
<!-- Node9 -->
<g id="node9" class="node"><title>Node9</title>
<polygon fill="white" stroke="#bfbfbf" points="1060.22,-0.5 1060.22,-19.5 1108.22,-19.5 1108.22,-0.5 1060.22,-0.5"/>
<text text-anchor="middle" x="1084.22" y="-7.5" font-family="Helvetica,sans-Serif" font-size="10.00">thread</text>
</g>
<!-- Node4&#45;&gt;Node9 -->
<g id="edge8" class="edge"><title>Node4&#45;&gt;Node9</title>
<path fill="none" stroke="midnightblue" d="M880.57,-56.4435C927.307,-46.0144 1005.56,-28.5529 1050.23,-18.585"/>
<polygon fill="midnightblue" stroke="midnightblue" points="1051.03,-21.9928 1060.03,-16.3989 1049.51,-15.1608 1051.03,-21.9928"/>
</g>
<!-- Node12&#45;&gt;Node2 -->
<g id="edge12" class="edge"><title>Node12&#45;&gt;Node2</title>
<path fill="none" stroke="midnightblue" d="M237.114,-299.509C231.557,-308.693 219.723,-323.52 209.161,-334.825"/>
<polygon fill="midnightblue" stroke="midnightblue" points="206.65,-332.386 202.145,-341.975 211.647,-337.288 206.65,-332.386"/>
</g>
<!-- Node13&#45;&gt;Node3 -->
<g id="edge14" class="edge"><title>Node13&#45;&gt;Node3</title>
<path fill="none" stroke="midnightblue" d="M206.052,-224.347C206.279,-210.284 208.922,-182.576 225.224,-168 253.877,-142.381 357.216,-130.973 424.092,-126.18"/>
<polygon fill="midnightblue" stroke="midnightblue" points="424.352,-129.671 434.088,-125.493 423.872,-122.687 424.352,-129.671"/>
</g>
<!-- Node14 -->
<g id="node14" class="node"><title>Node14</title>
<polygon fill="white" stroke="#bfbfbf" points="332.224,-168.5 332.224,-187.5 400.224,-187.5 400.224,-168.5 332.224,-168.5"/>
<text text-anchor="middle" x="366.224" y="-175.5" font-family="Helvetica,sans-Serif" font-size="10.00">Eigen/Core</text>
</g>
<!-- Node13&#45;&gt;Node14 -->
<g id="edge15" class="edge"><title>Node13&#45;&gt;Node14</title>
<path fill="none" stroke="midnightblue" d="M231.576,-224.444C258.493,-215.359 301.22,-200.939 331.311,-190.783"/>
<polygon fill="midnightblue" stroke="midnightblue" points="332.634,-194.031 340.99,-187.516 330.396,-187.398 332.634,-194.031"/>
</g>
<!-- Node15 -->
<g id="node15" class="node"><title>Node15</title>
<polygon fill="white" stroke="#bfbfbf" points="84.2239,-168.5 84.2239,-187.5 178.224,-187.5 178.224,-168.5 84.2239,-168.5"/>
<text text-anchor="middle" x="131.224" y="-175.5" font-family="Helvetica,sans-Serif" font-size="10.00">Eigen/Geometry</text>
</g>
<!-- Node13&#45;&gt;Node15 -->
<g id="edge16" class="edge"><title>Node13&#45;&gt;Node15</title>
<path fill="none" stroke="midnightblue" d="M194.174,-224.324C182.761,-216.107 165.393,-203.602 151.789,-193.807"/>
<polygon fill="midnightblue" stroke="midnightblue" points="153.654,-190.837 143.493,-187.834 149.564,-196.517 153.654,-190.837"/>
</g>
<!-- Node16 -->
<g id="node16" class="node"><title>Node16</title>
<polygon fill="white" stroke="#bfbfbf" points="234.224,-168.5 234.224,-187.5 314.224,-187.5 314.224,-168.5 234.224,-168.5"/>
<text text-anchor="middle" x="274.224" y="-175.5" font-family="Helvetica,sans-Serif" font-size="10.00">Eigen/Sparse</text>
</g>
<!-- Node13&#45;&gt;Node16 -->
<g id="edge17" class="edge"><title>Node13&#45;&gt;Node16</title>
<path fill="none" stroke="midnightblue" d="M217.149,-224.324C227.399,-216.185 242.945,-203.839 255.225,-194.087"/>
<polygon fill="midnightblue" stroke="midnightblue" points="257.445,-196.794 263.1,-187.834 253.092,-191.312 257.445,-196.794"/>
</g>
<!-- Node17&#45;&gt;Node13 -->
<g id="edge28" class="edge"><title>Node17&#45;&gt;Node13</title>
<path fill="none" stroke="midnightblue" d="M405.671,-280.444C364.413,-271.043 298.08,-255.929 253.358,-245.739"/>
<polygon fill="midnightblue" stroke="midnightblue" points="254.129,-242.326 243.602,-243.516 252.574,-249.151 254.129,-242.326"/>
</g>
<!-- Node17&#45;&gt;Node14 -->
<g id="edge23" class="edge"><title>Node17&#45;&gt;Node14</title>
<path fill="none" stroke="midnightblue" d="M355.621,-280.424C333.415,-273.828 311.982,-262.675 298.224,-244 283.279,-223.713 311.048,-204.269 335.474,-192.021"/>
<polygon fill="midnightblue" stroke="midnightblue" points="337.048,-195.148 344.575,-187.693 334.041,-188.827 337.048,-195.148"/>
</g>
<!-- Node17&#45;&gt;Node15 -->
<g id="edge24" class="edge"><title>Node17&#45;&gt;Node15</title>
<path fill="none" stroke="midnightblue" d="M358.84,-280.482C278.599,-271.66 167.859,-257.327 152.224,-244 138.847,-232.598 133.92,-212.61 132.143,-197.8"/>
<polygon fill="midnightblue" stroke="midnightblue" points="135.621,-197.391 131.31,-187.712 128.645,-197.967 135.621,-197.391"/>
</g>
<!-- Node18 -->
<g id="node18" class="node"><title>Node18</title>
<g id="a_node18"><a xlink:href="Index_8hpp.html" target="_top" xlink:title="Core/Utils/Index.hpp">
<polygon fill="white" stroke="black" points="546.724,-168.5 546.724,-187.5 659.724,-187.5 659.724,-168.5 546.724,-168.5"/>
<text text-anchor="middle" x="603.224" y="-175.5" font-family="Helvetica,sans-Serif" font-size="10.00">Core/Utils/Index.hpp</text>
</a>
</g>
</g>
<!-- Node17&#45;&gt;Node18 -->
<g id="edge19" class="edge"><title>Node17&#45;&gt;Node18</title>
<path fill="none" stroke="midnightblue" d="M455.509,-280.305C473.258,-267.768 507.137,-243.931 536.224,-224 551.438,-213.575 568.72,-201.974 581.92,-193.162"/>
<polygon fill="midnightblue" stroke="midnightblue" points="583.952,-196.015 590.332,-187.556 580.069,-190.19 583.952,-196.015"/>
</g>
<!-- Node17&#45;&gt;Node21 -->
<g id="edge25" class="edge"><title>Node17&#45;&gt;Node21</title>
<path fill="none" stroke="midnightblue" d="M506.447,-280.444C579.166,-270.602 698.16,-254.497 773.229,-244.338"/>
<polygon fill="midnightblue" stroke="midnightblue" points="774.08,-247.754 783.52,-242.945 773.141,-240.818 774.08,-247.754"/>
</g>
<!-- Node22 -->
<g id="node22" class="node"><title>Node22</title>
<polygon fill="white" stroke="#bfbfbf" points="545.724,-224.5 545.724,-243.5 592.724,-243.5 592.724,-224.5 545.724,-224.5"/>
<text text-anchor="middle" x="569.224" y="-231.5" font-family="Helvetica,sans-Serif" font-size="10.00">vector</text>
</g>
<!-- Node17&#45;&gt;Node22 -->
<g id="edge27" class="edge"><title>Node17&#45;&gt;Node22</title>
<path fill="none" stroke="midnightblue" d="M463.189,-280.444C483.833,-271.596 516.286,-257.687 539.856,-247.586"/>
<polygon fill="midnightblue" stroke="midnightblue" points="541.54,-250.673 549.352,-243.516 538.782,-244.239 541.54,-250.673"/>
</g>
<!-- Node23 -->
<g id="node23" class="node"><title>Node23</title>
<g id="a_node23"><a xlink:href="Component_8inl.html" target="_top" xlink:title="Engine/Component/Component.inl">
<polygon fill="white" stroke="black" points="307.724,-224.5 307.724,-243.5 488.724,-243.5 488.724,-224.5 307.724,-224.5"/>
<text text-anchor="middle" x="398.224" y="-231.5" font-family="Helvetica,sans-Serif" font-size="10.00">Engine/Component/Component.inl</text>
</a>
</g>
</g>
<!-- Node17&#45;&gt;Node23 -->
<g id="edge29" class="edge"><title>Node17&#45;&gt;Node23</title>
<path fill="none" stroke="midnightblue" d="M430.879,-280.324C422.909,-272.733 413.13,-261.482 406.137,-252.09"/>
<polygon fill="midnightblue" stroke="midnightblue" points="408.999,-250.074 400.437,-243.834 403.238,-254.052 408.999,-250.074"/>
</g>
<!-- Node18&#45;&gt;Node3 -->
<g id="edge20" class="edge"><title>Node18&#45;&gt;Node3</title>
<path fill="none" stroke="midnightblue" d="M584.21,-168.444C564.636,-159.636 533.916,-145.812 511.495,-135.722"/>
<polygon fill="midnightblue" stroke="midnightblue" points="512.705,-132.428 502.149,-131.516 509.832,-138.812 512.705,-132.428"/>
</g>
<!-- Node19 -->
<g id="node19" class="node"><title>Node19</title>
<polygon fill="white" stroke="#bfbfbf" points="674.224,-112.5 674.224,-131.5 716.224,-131.5 716.224,-112.5 674.224,-112.5"/>
<text text-anchor="middle" x="695.224" y="-119.5" font-family="Helvetica,sans-Serif" font-size="10.00">limits</text>
</g>
<!-- Node18&#45;&gt;Node19 -->
<g id="edge21" class="edge"><title>Node18&#45;&gt;Node19</title>
<path fill="none" stroke="midnightblue" d="M618.005,-168.324C632.491,-159.822 654.797,-146.729 671.717,-136.797"/>
<polygon fill="midnightblue" stroke="midnightblue" points="673.627,-139.735 680.479,-131.655 670.083,-133.698 673.627,-139.735"/>
</g>
<!-- Node20 -->
<g id="node20" class="node"><title>Node20</title>
<g id="a_node20"><a xlink:href="Index_8inl.html" target="_top" xlink:title="Core/Utils/Index.inl">
<polygon fill="white" stroke="black" points="550.724,-112.5 550.724,-131.5 655.724,-131.5 655.724,-112.5 550.724,-112.5"/>
<text text-anchor="middle" x="603.224" y="-119.5" font-family="Helvetica,sans-Serif" font-size="10.00">Core/Utils/Index.inl</text>
</a>
</g>
</g>
<!-- Node18&#45;&gt;Node20 -->
<g id="edge22" class="edge"><title>Node18&#45;&gt;Node20</title>
<path fill="none" stroke="midnightblue" d="M603.224,-168.083C603.224,-161.006 603.224,-150.861 603.224,-141.986"/>
<polygon fill="midnightblue" stroke="midnightblue" points="606.724,-141.751 603.224,-131.751 599.724,-141.751 606.724,-141.751"/>
</g>
<!-- Node21&#45;&gt;Node4 -->
<g id="edge26" class="edge"><title>Node21&#45;&gt;Node4</title>
<path fill="none" stroke="midnightblue" d="M842.224,-224.075C842.224,-197.945 842.224,-121.211 842.224,-85.577"/>
<polygon fill="midnightblue" stroke="midnightblue" points="845.724,-85.5681 842.224,-75.5681 838.724,-85.5681 845.724,-85.5681"/>
</g>
<!-- Node23&#45;&gt;Node17 -->
<g id="edge30" class="edge"><title>Node23&#45;&gt;Node17</title>
<path fill="none" stroke="midnightblue" d="M410.647,-243.751C418.587,-251.327 428.303,-262.505 435.27,-271.855"/>
<polygon fill="midnightblue" stroke="midnightblue" points="432.393,-273.849 440.959,-280.083 438.151,-269.867 432.393,-273.849"/>
</g>
<!-- Node24&#45;&gt;Node1 -->
<g id="edge45" class="edge"><title>Node24&#45;&gt;Node1</title>
<path fill="none" stroke="midnightblue" d="M642.884,-366.707C629.201,-375.599 609.888,-387.4 591.302,-398.306"/>
<polygon fill="midnightblue" stroke="midnightblue" points="589.43,-395.346 582.552,-403.404 592.954,-401.394 589.43,-395.346"/>
</g>
<!-- Node25 -->
<g id="node25" class="node"><title>Node25</title>
<g id="a_node25"><a xlink:href="Entity_8hpp.html" target="_top" xlink:title="Engine/Entity/Entity.hpp">
<polygon fill="white" stroke="black" points="828.224,-280.5 828.224,-299.5 956.224,-299.5 956.224,-280.5 828.224,-280.5"/>
<text text-anchor="middle" x="892.224" y="-287.5" font-family="Helvetica,sans-Serif" font-size="10.00">Engine/Entity/Entity.hpp</text>
</a>
</g>
</g>
<!-- Node24&#45;&gt;Node25 -->
<g id="edge33" class="edge"><title>Node24&#45;&gt;Node25</title>
<path fill="none" stroke="midnightblue" d="M715.675,-336.475C756.398,-325.986 811.328,-311.837 849.044,-302.122"/>
<polygon fill="midnightblue" stroke="midnightblue" points="850.388,-305.39 859.199,-299.506 848.642,-298.611 850.388,-305.39"/>
</g>
<!-- Node25&#45;&gt;Node9 -->
<g id="edge37" class="edge"><title>Node25&#45;&gt;Node9</title>
<path fill="none" stroke="midnightblue" d="M956.383,-286.651C1029.92,-282.649 1144.42,-271.995 1176.22,-244 1198.82,-224.114 1195.22,-209.098 1195.22,-179 1195.22,-179 1195.22,-179 1195.22,-121 1195.22,-74.8239 1146.16,-41.4259 1113.27,-24.2256"/>
<polygon fill="midnightblue" stroke="midnightblue" points="1114.58,-20.9641 1104.07,-19.6087 1111.44,-27.221 1114.58,-20.9641"/>
</g>
<!-- Node25&#45;&gt;Node13 -->
<g id="edge39" class="edge"><title>Node25&#45;&gt;Node13</title>
<path fill="none" stroke="midnightblue" d="M828.02,-284.599C719.036,-277.025 490.896,-260.72 298.224,-244 286.233,-242.959 273.371,-241.756 261.178,-240.575"/>
<polygon fill="midnightblue" stroke="midnightblue" points="261.421,-237.082 251.128,-239.591 260.739,-244.048 261.421,-237.082"/>
</g>
<!-- Node25&#45;&gt;Node21 -->
<g id="edge34" class="edge"><title>Node25&#45;&gt;Node21</title>
<path fill="none" stroke="midnightblue" d="M883.967,-280.083C876.759,-272.298 866.114,-260.801 857.378,-251.367"/>
<polygon fill="midnightblue" stroke="midnightblue" points="859.689,-248.711 850.327,-243.751 854.553,-253.467 859.689,-248.711"/>
</g>
<!-- Node25&#45;&gt;Node22 -->
<g id="edge38" class="edge"><title>Node25&#45;&gt;Node22</title>
<path fill="none" stroke="midnightblue" d="M827.95,-281.327C770.967,-274.01 685.357,-261.762 602.711,-244.126"/>
<polygon fill="midnightblue" stroke="midnightblue" points="603.424,-240.699 592.91,-242.005 601.943,-247.541 603.424,-240.699"/>
</g>
<!-- Node26 -->
<g id="node26" class="node"><title>Node26</title>
<polygon fill="white" stroke="#bfbfbf" points="918.724,-224.5 918.724,-243.5 965.724,-243.5 965.724,-224.5 918.724,-224.5"/>
<text text-anchor="middle" x="942.224" y="-231.5" font-family="Helvetica,sans-Serif" font-size="10.00">mutex</text>
</g>
<!-- Node25&#45;&gt;Node26 -->
<g id="edge35" class="edge"><title>Node25&#45;&gt;Node26</title>
<path fill="none" stroke="midnightblue" d="M900.48,-280.083C907.689,-272.298 918.334,-260.801 927.07,-251.367"/>
<polygon fill="midnightblue" stroke="midnightblue" points="929.895,-253.467 934.121,-243.751 924.759,-248.711 929.895,-253.467"/>
</g>
<!-- Node27 -->
<g id="node27" class="node"><title>Node27</title>
<polygon fill="white" stroke="#bfbfbf" points="984.224,-224.5 984.224,-243.5 1028.22,-243.5 1028.22,-224.5 984.224,-224.5"/>
<text text-anchor="middle" x="1006.22" y="-231.5" font-family="Helvetica,sans-Serif" font-size="10.00">string</text>
</g>
<!-- Node25&#45;&gt;Node27 -->
<g id="edge36" class="edge"><title>Node25&#45;&gt;Node27</title>
<path fill="none" stroke="midnightblue" d="M910.288,-280.444C928.799,-271.675 957.805,-257.935 979.079,-247.858"/>
<polygon fill="midnightblue" stroke="midnightblue" points="980.706,-250.96 988.245,-243.516 977.709,-244.634 980.706,-250.96"/>
</g>
<!-- Node28 -->
<g id="node28" class="node"><title>Node28</title>
<g id="a_node28"><a xlink:href="IndexedObject_8hpp.html" target="_top" xlink:title="Core/Utils/IndexedObject.hpp">
<polygon fill="white" stroke="black" points="610.724,-224.5 610.724,-243.5 765.724,-243.5 765.724,-224.5 610.724,-224.5"/>
<text text-anchor="middle" x="688.224" y="-231.5" font-family="Helvetica,sans-Serif" font-size="10.00">Core/Utils/IndexedObject.hpp</text>
</a>
</g>
</g>
<!-- Node25&#45;&gt;Node28 -->
<g id="edge40" class="edge"><title>Node25&#45;&gt;Node28</title>
<path fill="none" stroke="midnightblue" d="M859.9,-280.444C824.834,-271.162 768.726,-256.309 730.259,-246.127"/>
<polygon fill="midnightblue" stroke="midnightblue" points="730.96,-242.692 720.397,-243.516 729.169,-249.459 730.96,-242.692"/>
</g>
<!-- Node29 -->
<g id="node29" class="node"><title>Node29</title>
<g id="a_node29"><a xlink:href="Entity_8inl.html" target="_top" xlink:title="Engine/Entity/Entity.inl">
<polygon fill="white" stroke="black" points="1045.72,-224.5 1045.72,-243.5 1166.72,-243.5 1166.72,-224.5 1045.72,-224.5"/>
<text text-anchor="middle" x="1106.22" y="-231.5" font-family="Helvetica,sans-Serif" font-size="10.00">Engine/Entity/Entity.inl</text>
</a>
</g>
</g>
<!-- Node25&#45;&gt;Node29 -->
<g id="edge43" class="edge"><title>Node25&#45;&gt;Node29</title>
<path fill="none" stroke="midnightblue" d="M921.044,-280.444C956.088,-271.083 1015.49,-256.056 1057.62,-245.868"/>
<polygon fill="midnightblue" stroke="midnightblue" points="1058.49,-249.258 1067.39,-243.516 1056.85,-242.452 1058.49,-249.258"/>
</g>
<!-- Node28&#45;&gt;Node3 -->
<g id="edge41" class="edge"><title>Node28&#45;&gt;Node3</title>
<path fill="none" stroke="midnightblue" d="M632.124,-224.432C602.134,-217.923 565.644,-206.766 537.224,-188 518.544,-175.665 502.949,-154.944 493.397,-140.215"/>
<polygon fill="midnightblue" stroke="midnightblue" points="496.267,-138.202 488.021,-131.549 490.318,-141.892 496.267,-138.202"/>
</g>
<!-- Node28&#45;&gt;Node18 -->
<g id="edge42" class="edge"><title>Node28&#45;&gt;Node18</title>
<path fill="none" stroke="midnightblue" d="M674.567,-224.324C661.308,-215.9 640.956,-202.971 625.378,-193.074"/>
<polygon fill="midnightblue" stroke="midnightblue" points="627.164,-190.063 616.847,-187.655 623.411,-195.971 627.164,-190.063"/>
</g>
<!-- Node29&#45;&gt;Node25 -->
<g id="edge44" class="edge"><title>Node29&#45;&gt;Node25</title>
<path fill="none" stroke="midnightblue" d="M1077.55,-243.516C1042.58,-252.861 983.19,-267.887 941.012,-278.088"/>
<polygon fill="midnightblue" stroke="midnightblue" points="940.126,-274.702 931.222,-280.444 941.763,-281.508 940.126,-274.702"/>
</g>
</g>
</svg>
