<?xml version="1.0" encoding="UTF-8" standalone="no"?>
<!DOCTYPE svg PUBLIC "-//W3C//DTD SVG 1.1//EN"
 "http://www.w3.org/Graphics/SVG/1.1/DTD/svg11.dtd">
<!-- Generated by graphviz version 2.38.0 (20140413.2041)
 -->
<!-- Title: Ra::Gui::TrackballCameraManipulator::setCameraPosition Pages: 1 -->
<svg width="673pt" height="230pt"
 viewBox="0.00 0.00 673.00 230.00" xmlns="http://www.w3.org/2000/svg" xmlns:xlink="http://www.w3.org/1999/xlink">
<g id="graph0" class="graph" transform="scale(1 1) rotate(0) translate(4 226)">
<title>Ra::Gui::TrackballCameraManipulator::setCameraPosition</title>
<polygon fill="white" stroke="none" points="-4,4 -4,-226 669,-226 669,4 -4,4"/>
<!-- Node1 -->
<g id="node1" class="node"><title>Node1</title>
<polygon fill="#bfbfbf" stroke="black" points="0,-98.5 0,-128.5 170,-128.5 170,-98.5 0,-98.5"/>
<text text-anchor="start" x="8" y="-116.5" font-family="Helvetica,sans-Serif" font-size="10.00">Ra::Gui::TrackballCamera</text>
<text text-anchor="middle" x="85" y="-105.5" font-family="Helvetica,sans-Serif" font-size="10.00">Manipulator::setCameraPosition</text>
</g>
<!-- Node2 -->
<g id="node2" class="node"><title>Node2</title>
<g id="a_node2"><a xlink:href="classRa_1_1Engine_1_1Camera.html#ab8f9fdfba7355b4589c4d9cb39f0b527" target="_top" xlink:title="Set the position of the camera to &#39;position&#39;. ">
<polygon fill="white" stroke="black" points="206,-186.5 206,-216.5 317,-216.5 317,-186.5 206,-186.5"/>
<text text-anchor="start" x="214" y="-204.5" font-family="Helvetica,sans-Serif" font-size="10.00">Ra::Engine::Camera</text>
<text text-anchor="middle" x="261.5" y="-193.5" font-family="Helvetica,sans-Serif" font-size="10.00">::setPosition</text>
</a>
</g>
</g>
<!-- Node1&#45;&gt;Node2 -->
<g id="edge1" class="edge"><title>Node1&#45;&gt;Node2</title>
<path fill="none" stroke="midnightblue" d="M115.998,-128.628C145.177,-143.343 189.652,-165.771 221.55,-181.858"/>
<polygon fill="midnightblue" stroke="midnightblue" points="220.097,-185.045 230.602,-186.423 223.249,-178.795 220.097,-185.045"/>
</g>
<!-- Node4 -->
<g id="node4" class="node"><title>Node4</title>
<g id="a_node4"><a xlink:href="classRa_1_1Engine_1_1Camera.html#a724a052e94817af7e602129467c8696f" target="_top" xlink:title="Return the position. ">
<polygon fill="white" stroke="black" points="541,-142.5 541,-172.5 652,-172.5 652,-142.5 541,-142.5"/>
<text text-anchor="start" x="549" y="-160.5" font-family="Helvetica,sans-Serif" font-size="10.00">Ra::Engine::Camera</text>
<text text-anchor="middle" x="596.5" y="-149.5" font-family="Helvetica,sans-Serif" font-size="10.00">::getPosition</text>
</a>
</g>
</g>
<!-- Node1&#45;&gt;Node4 -->
<g id="edge8" class="edge"><title>Node1&#45;&gt;Node4</title>
<path fill="none" stroke="midnightblue" d="M148.899,-128.537C167.212,-132.389 187.318,-136.113 206,-138.5 319.598,-153.013 453.132,-156.642 530.658,-157.434"/>
<polygon fill="midnightblue" stroke="midnightblue" points="530.724,-160.935 540.755,-157.525 530.787,-153.935 530.724,-160.935"/>
</g>
<!-- Node6 -->
<g id="node6" class="node"><title>Node6</title>
<g id="a_node6"><a xlink:href="classRa_1_1Engine_1_1Camera.html#a23be7aa714c0e9c2a9429dfc9ef2c53a" target="_top" xlink:title="Return the direction the camera is looking at. ">
<polygon fill="white" stroke="black" points="206,-98.5 206,-128.5 317,-128.5 317,-98.5 206,-98.5"/>
<text text-anchor="start" x="214" y="-116.5" font-family="Helvetica,sans-Serif" font-size="10.00">Ra::Engine::Camera</text>
<text text-anchor="middle" x="261.5" y="-105.5" font-family="Helvetica,sans-Serif" font-size="10.00">::getDirection</text>
</a>
</g>
</g>
<!-- Node1&#45;&gt;Node6 -->
<g id="edge5" class="edge"><title>Node1&#45;&gt;Node6</title>
<path fill="none" stroke="midnightblue" d="M170.183,-113.5C178.64,-113.5 187.135,-113.5 195.35,-113.5"/>
<polygon fill="midnightblue" stroke="midnightblue" points="195.583,-117 205.583,-113.5 195.583,-110 195.583,-117"/>
</g>
<!-- Node7 -->
<g id="node7" class="node"><title>Node7</title>
<g id="a_node7"><a xlink:href="classRa_1_1Engine_1_1Light.html#a1bf2c510e62b2a99f0012a39ad218378" target="_top" xlink:title="Set the position of the light source. ">
<polygon fill="white" stroke="black" points="210.5,-49.5 210.5,-79.5 312.5,-79.5 312.5,-49.5 210.5,-49.5"/>
<text text-anchor="start" x="218.5" y="-67.5" font-family="Helvetica,sans-Serif" font-size="10.00">Ra::Engine::Light::</text>
<text text-anchor="middle" x="261.5" y="-56.5" font-family="Helvetica,sans-Serif" font-size="10.00">setPosition</text>
</a>
</g>
</g>
<!-- Node1&#45;&gt;Node7 -->
<g id="edge6" class="edge"><title>Node1&#45;&gt;Node7</title>
<path fill="none" stroke="midnightblue" d="M139.78,-98.3986C159.055,-92.986 180.899,-86.8522 200.656,-81.3043"/>
<polygon fill="midnightblue" stroke="midnightblue" points="201.787,-84.6221 210.469,-78.5489 199.895,-77.8827 201.787,-84.6221"/>
</g>
<!-- Node9 -->
<g id="node9" class="node"><title>Node9</title>
<g id="a_node9"><a xlink:href="classRa_1_1Engine_1_1Light.html#a24e11b300dfe4e2a785d87b6de74b036" target="_top" xlink:title="set the direction of lighting ">
<polygon fill="white" stroke="black" points="210.5,-0.5 210.5,-30.5 312.5,-30.5 312.5,-0.5 210.5,-0.5"/>
<text text-anchor="start" x="218.5" y="-18.5" font-family="Helvetica,sans-Serif" font-size="10.00">Ra::Engine::Light::</text>
<text text-anchor="middle" x="261.5" y="-7.5" font-family="Helvetica,sans-Serif" font-size="10.00">setDirection</text>
</a>
</g>
</g>
<!-- Node1&#45;&gt;Node9 -->
<g id="edge9" class="edge"><title>Node1&#45;&gt;Node9</title>
<path fill="none" stroke="midnightblue" d="M108.987,-98.4116C132.804,-83.0429 171.328,-58.9181 206,-40.5 209.519,-38.6305 213.205,-36.7611 216.928,-34.9336"/>
<polygon fill="midnightblue" stroke="midnightblue" points="218.679,-37.9758 226.188,-30.5009 215.656,-31.6619 218.679,-37.9758"/>
</g>
<!-- Node3 -->
<g id="node3" class="node"><title>Node3</title>
<g id="a_node3"><a xlink:href="classRa_1_1Engine_1_1Camera.html#a7a2c1c84e3063c6c3f09d490477abb0f" target="_top" xlink:title="Apply the local transformation &#39;T&#39; to the camera. ">
<polygon fill="white" stroke="black" points="367,-186.5 367,-216.5 478,-216.5 478,-186.5 367,-186.5"/>
<text text-anchor="start" x="375" y="-204.5" font-family="Helvetica,sans-Serif" font-size="10.00">Ra::Engine::Camera</text>
<text text-anchor="middle" x="422.5" y="-193.5" font-family="Helvetica,sans-Serif" font-size="10.00">::applyTransform</text>
</a>
</g>
</g>
<!-- Node2&#45;&gt;Node3 -->
<g id="edge2" class="edge"><title>Node2&#45;&gt;Node3</title>
<path fill="none" stroke="midnightblue" d="M317.219,-201.5C329.907,-201.5 343.53,-201.5 356.607,-201.5"/>
<polygon fill="midnightblue" stroke="midnightblue" points="356.95,-205 366.95,-201.5 356.95,-198 356.95,-205"/>
</g>
<!-- Node3&#45;&gt;Node4 -->
<g id="edge3" class="edge"><title>Node3&#45;&gt;Node4</title>
<path fill="none" stroke="midnightblue" d="M478.395,-187.457C495.078,-183.189 513.567,-178.46 530.831,-174.043"/>
<polygon fill="midnightblue" stroke="midnightblue" points="532.011,-177.354 540.832,-171.485 530.276,-170.573 532.011,-177.354"/>
</g>
<!-- Node5 -->
<g id="node5" class="node"><title>Node5</title>
<g id="a_node5"><a xlink:href="classRa_1_1Engine_1_1RenderObject.html#a2d6a1bc2b7646fe0912035a2ece24864" target="_top" xlink:title="Ra::Engine::RenderObject\l::setLocalTransform">
<polygon fill="white" stroke="black" points="528,-191.5 528,-221.5 665,-221.5 665,-191.5 528,-191.5"/>
<text text-anchor="start" x="536" y="-209.5" font-family="Helvetica,sans-Serif" font-size="10.00">Ra::Engine::RenderObject</text>
<text text-anchor="middle" x="596.5" y="-198.5" font-family="Helvetica,sans-Serif" font-size="10.00">::setLocalTransform</text>
</a>
</g>
</g>
<!-- Node3&#45;&gt;Node5 -->
<g id="edge4" class="edge"><title>Node3&#45;&gt;Node5</title>
<path fill="none" stroke="midnightblue" d="M478.395,-203.096C490.93,-203.46 504.484,-203.854 517.772,-204.24"/>
<polygon fill="midnightblue" stroke="midnightblue" points="517.763,-207.742 527.86,-204.534 517.966,-200.745 517.763,-207.742"/>
</g>
<!-- Node8 -->
<g id="node8" class="node"><title>Node8</title>
<g id="a_node8"><a xlink:href="classRa_1_1Core_1_1Utils_1_1ColorBase.html#a467dad42627c64495356c4fd21b3ac81" target="_top" xlink:title="Ra::Core::Utils::ColorBase\l\&lt; Scalar \&gt;::White">
<polygon fill="white" stroke="black" points="353,-49.5 353,-79.5 492,-79.5 492,-49.5 353,-49.5"/>
<text text-anchor="start" x="361" y="-67.5" font-family="Helvetica,sans-Serif" font-size="10.00">Ra::Core::Utils::ColorBase</text>
<text text-anchor="middle" x="422.5" y="-56.5" font-family="Helvetica,sans-Serif" font-size="10.00">&lt; Scalar &gt;::White</text>
</a>
</g>
</g>
<!-- Node7&#45;&gt;Node8 -->
<g id="edge7" class="edge"><title>Node7&#45;&gt;Node8</title>
<path fill="none" stroke="midnightblue" d="M312.809,-64.5C322.362,-64.5 332.568,-64.5 342.757,-64.5"/>
<polygon fill="midnightblue" stroke="midnightblue" points="342.916,-68.0001 352.916,-64.5 342.916,-61.0001 342.916,-68.0001"/>
</g>
</g>
</svg>
