<?xml version="1.0" encoding="UTF-8" standalone="no"?>
<!DOCTYPE svg PUBLIC "-//W3C//DTD SVG 1.1//EN"
 "http://www.w3.org/Graphics/SVG/1.1/DTD/svg11.dtd">
<!-- Generated by graphviz version 2.38.0 (20140413.2041)
 -->
<!-- Title: Ra::Engine::Mesh::getNumVertices Pages: 1 -->
<svg width="1009pt" height="39pt"
 viewBox="0.00 0.00 1009.00 39.00" xmlns="http://www.w3.org/2000/svg" xmlns:xlink="http://www.w3.org/1999/xlink">
<g id="graph0" class="graph" transform="scale(1 1) rotate(0) translate(4 35)">
<title>Ra::Engine::Mesh::getNumVertices</title>
<polygon fill="white" stroke="none" points="-4,4 -4,-35 1005,-35 1005,4 -4,4"/>
<!-- Node1 -->
<g id="node1" class="node"><title>Node1</title>
<polygon fill="#bfbfbf" stroke="black" points="0,-0.5 0,-30.5 143,-30.5 143,-0.5 0,-0.5"/>
<text text-anchor="start" x="8" y="-18.5" font-family="Helvetica,sans-Serif" font-size="10.00">Ra::Engine::Mesh::getNum</text>
<text text-anchor="middle" x="71.5" y="-7.5" font-family="Helvetica,sans-Serif" font-size="10.00">Vertices</text>
</g>
<!-- Node2 -->
<g id="node2" class="node"><title>Node2</title>
<g id="a_node2"><a xlink:href="namespaceRa_1_1Engine.html#a4674a5cd2b0ff5b978b40172d0c24654" target="_top" xlink:title="Ra::Engine::sendGLData">
<polygon fill="white" stroke="black" points="179,-6 179,-25 311,-25 311,-6 179,-6"/>
<text text-anchor="middle" x="245" y="-13" font-family="Helvetica,sans-Serif" font-size="10.00">Ra::Engine::sendGLData</text>
</a>
</g>
</g>
<!-- Node1&#45;&gt;Node2 -->
<g id="edge1" class="edge"><title>Node1&#45;&gt;Node2</title>
<path fill="none" stroke="midnightblue" d="M143.246,-15.5C151.642,-15.5 160.237,-15.5 168.694,-15.5"/>
<polygon fill="midnightblue" stroke="midnightblue" points="168.919,-19.0001 178.919,-15.5 168.919,-12.0001 168.919,-19.0001"/>
</g>
<!-- Node3 -->
<g id="node3" class="node"><title>Node3</title>
<g id="a_node3"><a xlink:href="namespaceRa_1_1Engine_1_1DrawPrimitives.html#ae5ee79fb923c94ae9382e98ce4516730" target="_top" xlink:title="Displays given vector shown as an arrow originating from &#39;start&#39;. ">
<polygon fill="white" stroke="black" points="347,-0.5 347,-30.5 490,-30.5 490,-0.5 347,-0.5"/>
<text text-anchor="start" x="355" y="-18.5" font-family="Helvetica,sans-Serif" font-size="10.00">Ra::Engine::DrawPrimitives</text>
<text text-anchor="middle" x="418.5" y="-7.5" font-family="Helvetica,sans-Serif" font-size="10.00">::Vector</text>
</a>
</g>
</g>
<!-- Node2&#45;&gt;Node3 -->
<g id="edge2" class="edge"><title>Node2&#45;&gt;Node3</title>
<path fill="none" stroke="midnightblue" d="M311.326,-15.5C319.695,-15.5 328.339,-15.5 336.914,-15.5"/>
<polygon fill="midnightblue" stroke="midnightblue" points="336.927,-19.0001 346.927,-15.5 336.927,-12.0001 336.927,-19.0001"/>
</g>
<!-- Node4 -->
<g id="node4" class="node"><title>Node4</title>
<g id="a_node4"><a xlink:href="namespaceRa_1_1Core_1_1Math.html#a5f25a31a29b0688e349dc35a353b9766" target="_top" xlink:title="Get two vectors orthogonal to a given vector. ">
<polygon fill="white" stroke="black" points="526,-0.5 526,-30.5 688,-30.5 688,-0.5 526,-0.5"/>
<text text-anchor="start" x="534" y="-18.5" font-family="Helvetica,sans-Serif" font-size="10.00">Ra::Core::Math::getOrthogonal</text>
<text text-anchor="middle" x="607" y="-7.5" font-family="Helvetica,sans-Serif" font-size="10.00">Vectors</text>
</a>
</g>
</g>
<!-- Node3&#45;&gt;Node4 -->
<g id="edge3" class="edge"><title>Node3&#45;&gt;Node4</title>
<path fill="none" stroke="midnightblue" d="M490.008,-15.5C498.385,-15.5 507.024,-15.5 515.63,-15.5"/>
<polygon fill="midnightblue" stroke="midnightblue" points="515.7,-19.0001 525.7,-15.5 515.7,-12.0001 515.7,-19.0001"/>
</g>
<!-- Node5 -->
<g id="node5" class="node"><title>Node5</title>
<g id="a_node5"><a xlink:href="namespaceRa_1_1Core_1_1Math.html#a90f0fe9079f5bb86c721ea4b61738470" target="_top" xlink:title="Returns the sign of any numeric type as { &#45;1, 0, 1}. ">
<polygon fill="white" stroke="black" points="724,-6 724,-25 837,-25 837,-6 724,-6"/>
<text text-anchor="middle" x="780.5" y="-13" font-family="Helvetica,sans-Serif" font-size="10.00">Ra::Core::Math::sign</text>
</a>
</g>
</g>
<!-- Node4&#45;&gt;Node5 -->
<g id="edge4" class="edge"><title>Node4&#45;&gt;Node5</title>
<path fill="none" stroke="midnightblue" d="M688.227,-15.5C696.779,-15.5 705.406,-15.5 713.764,-15.5"/>
<polygon fill="midnightblue" stroke="midnightblue" points="713.802,-19.0001 723.802,-15.5 713.802,-12.0001 713.802,-19.0001"/>
</g>
<!-- Node6 -->
<g id="node6" class="node"><title>Node6</title>
<g id="a_node6"><a xlink:href="namespaceRa_1_1Core_1_1Math.html#ae4e681e0738fe7e5bfd028c6270b597a" target="_top" xlink:title="Ra::Core::Math::signum">
<polygon fill="white" stroke="black" points="873,-6 873,-25 1001,-25 1001,-6 873,-6"/>
<text text-anchor="middle" x="937" y="-13" font-family="Helvetica,sans-Serif" font-size="10.00">Ra::Core::Math::signum</text>
</a>
</g>
</g>
<!-- Node5&#45;&gt;Node6 -->
<g id="edge5" class="edge"><title>Node5&#45;&gt;Node6</title>
<path fill="none" stroke="midnightblue" d="M837.278,-15.5C845.603,-15.5 854.289,-15.5 862.906,-15.5"/>
<polygon fill="midnightblue" stroke="midnightblue" points="862.964,-19.0001 872.964,-15.5 862.964,-12.0001 862.964,-19.0001"/>
</g>
</g>
</svg>
