<?xml version="1.0" encoding="UTF-8" standalone="no"?>
<!DOCTYPE svg PUBLIC "-//W3C//DTD SVG 1.1//EN"
 "http://www.w3.org/Graphics/SVG/1.1/DTD/svg11.dtd">
<!-- Generated by graphviz version 2.38.0 (20140413.2041)
 -->
<!-- Title: Ra::Gui::Viewer::grabFrame Pages: 1 -->
<svg width="484pt" height="225pt"
 viewBox="0.00 0.00 484.00 225.00" xmlns="http://www.w3.org/2000/svg" xmlns:xlink="http://www.w3.org/1999/xlink">
<g id="graph0" class="graph" transform="scale(1 1) rotate(0) translate(4 221)">
<title>Ra::Gui::Viewer::grabFrame</title>
<polygon fill="white" stroke="none" points="-4,4 -4,-221 480,-221 480,4 -4,4"/>
<!-- Node1 -->
<g id="node1" class="node"><title>Node1</title>
<polygon fill="#bfbfbf" stroke="black" points="0,-72 0,-91 146,-91 146,-72 0,-72"/>
<text text-anchor="middle" x="73" y="-79" font-family="Helvetica,sans-Serif" font-size="10.00">Ra::Gui::Viewer::grabFrame</text>
</g>
<!-- Node2 -->
<g id="node2" class="node"><title>Node2</title>
<g id="a_node2"><a xlink:href="classRa_1_1Gui_1_1WindowQt.html#a78476baacd2df24a260f604d02c8ddc4" target="_top" xlink:title="Make the OpenGL context associated with the viewer the current context. ">
<polygon fill="white" stroke="black" points="195.5,-137.5 195.5,-167.5 304.5,-167.5 304.5,-137.5 195.5,-137.5"/>
<text text-anchor="start" x="203.5" y="-155.5" font-family="Helvetica,sans-Serif" font-size="10.00">Ra::Gui::WindowQt::</text>
<text text-anchor="middle" x="250" y="-144.5" font-family="Helvetica,sans-Serif" font-size="10.00">makeCurrent</text>
</a>
</g>
</g>
<!-- Node1&#45;&gt;Node2 -->
<g id="edge1" class="edge"><title>Node1&#45;&gt;Node2</title>
<path fill="none" stroke="midnightblue" d="M95.8047,-91.1324C117.533,-100.649 151.906,-115.484 182,-127.5 187.189,-129.572 192.623,-131.688 198.057,-133.768"/>
<polygon fill="midnightblue" stroke="midnightblue" points="197.193,-137.184 207.784,-137.458 199.676,-130.639 197.193,-137.184"/>
</g>
<!-- Node3 -->
<g id="node3" class="node"><title>Node3</title>
<g id="a_node3"><a xlink:href="classRa_1_1Engine_1_1Renderer.html#a584cc744ee0f15884f5f853209c055cd" target="_top" xlink:title="Ra::Engine::Renderer\l::grabFrame">
<polygon fill="white" stroke="black" points="192,-88.5 192,-118.5 308,-118.5 308,-88.5 192,-88.5"/>
<text text-anchor="start" x="200" y="-106.5" font-family="Helvetica,sans-Serif" font-size="10.00">Ra::Engine::Renderer</text>
<text text-anchor="middle" x="250" y="-95.5" font-family="Helvetica,sans-Serif" font-size="10.00">::grabFrame</text>
</a>
</g>
</g>
<!-- Node1&#45;&gt;Node3 -->
<g id="edge2" class="edge"><title>Node1&#45;&gt;Node3</title>
<path fill="none" stroke="midnightblue" d="M146.19,-90.5753C157.986,-92.0583 170.167,-93.5895 181.836,-95.0565"/>
<polygon fill="midnightblue" stroke="midnightblue" points="181.578,-98.5516 191.937,-96.3263 182.452,-91.6063 181.578,-98.5516"/>
</g>
<!-- Node9 -->
<g id="node9" class="node"><title>Node9</title>
<g id="a_node9"><a xlink:href="namespaceRa_1_1Core_1_1Utils.html#aad2a7bedc49e227d0503794d76acbfea" target="_top" xlink:title="Ra::Core::Utils::getFileExt">
<polygon fill="white" stroke="black" points="182,-50 182,-69 318,-69 318,-50 182,-50"/>
<text text-anchor="middle" x="250" y="-57" font-family="Helvetica,sans-Serif" font-size="10.00">Ra::Core::Utils::getFileExt</text>
</a>
</g>
</g>
<!-- Node1&#45;&gt;Node9 -->
<g id="edge8" class="edge"><title>Node1&#45;&gt;Node9</title>
<path fill="none" stroke="midnightblue" d="M146.19,-72.4247C154.649,-71.3613 163.304,-70.2731 171.828,-69.2016"/>
<polygon fill="midnightblue" stroke="midnightblue" points="172.268,-72.674 181.753,-67.9539 171.394,-65.7287 172.268,-72.674"/>
</g>
<!-- Node10 -->
<g id="node10" class="node"><title>Node10</title>
<g id="a_node10"><a xlink:href="classRa_1_1Gui_1_1WindowQt.html#acd31b9e580f049491d13c16ef954d964" target="_top" xlink:title="Reset the current OpenGL context that is no more the one associated with the viewer. ">
<polygon fill="white" stroke="black" points="195.5,-0.5 195.5,-30.5 304.5,-30.5 304.5,-0.5 195.5,-0.5"/>
<text text-anchor="start" x="203.5" y="-18.5" font-family="Helvetica,sans-Serif" font-size="10.00">Ra::Gui::WindowQt::</text>
<text text-anchor="middle" x="250" y="-7.5" font-family="Helvetica,sans-Serif" font-size="10.00">doneCurrent</text>
</a>
</g>
</g>
<!-- Node1&#45;&gt;Node10 -->
<g id="edge9" class="edge"><title>Node1&#45;&gt;Node10</title>
<path fill="none" stroke="midnightblue" d="M99.2977,-71.8497C121.175,-63.5154 153.657,-51.1677 182,-40.5 187.508,-38.4268 193.274,-36.2641 199.013,-34.1162"/>
<polygon fill="midnightblue" stroke="midnightblue" points="200.455,-37.3138 208.596,-30.5337 198.004,-30.757 200.455,-37.3138"/>
</g>
<!-- Node4 -->
<g id="node4" class="node"><title>Node4</title>
<g id="a_node4"><a xlink:href="classRa_1_1Engine_1_1Renderer.html#a8a68ecdea83da2148ef303176bcffac8" target="_top" xlink:title="Get the currently displayed texture. ">
<polygon fill="white" stroke="black" points="357,-186.5 357,-216.5 473,-216.5 473,-186.5 357,-186.5"/>
<text text-anchor="start" x="365" y="-204.5" font-family="Helvetica,sans-Serif" font-size="10.00">Ra::Engine::Renderer</text>
<text text-anchor="middle" x="415" y="-193.5" font-family="Helvetica,sans-Serif" font-size="10.00">::getDisplayTexture</text>
</a>
</g>
</g>
<!-- Node3&#45;&gt;Node4 -->
<g id="edge3" class="edge"><title>Node3&#45;&gt;Node4</title>
<path fill="none" stroke="midnightblue" d="M301.364,-118.575C307.251,-121.394 312.948,-124.682 318,-128.5 339.56,-144.793 332.632,-160.956 354,-177.5 355.766,-178.867 357.62,-180.167 359.538,-181.401"/>
<polygon fill="midnightblue" stroke="midnightblue" points="357.861,-184.474 368.279,-186.402 361.337,-178.399 357.861,-184.474"/>
</g>
<!-- Node5 -->
<g id="node5" class="node"><title>Node5</title>
<g id="a_node5"><a xlink:href="classRa_1_1Engine_1_1Texture.html#a9ba7fb88d2b2b023ad5e68f2d4f3f1bb" target="_top" xlink:title="Bind the texture to enable its use in a shader. ">
<polygon fill="white" stroke="black" points="361.5,-137.5 361.5,-167.5 468.5,-167.5 468.5,-137.5 361.5,-137.5"/>
<text text-anchor="start" x="369.5" y="-155.5" font-family="Helvetica,sans-Serif" font-size="10.00">Ra::Engine::Texture</text>
<text text-anchor="middle" x="415" y="-144.5" font-family="Helvetica,sans-Serif" font-size="10.00">::bind</text>
</a>
</g>
</g>
<!-- Node3&#45;&gt;Node5 -->
<g id="edge4" class="edge"><title>Node3&#45;&gt;Node5</title>
<path fill="none" stroke="midnightblue" d="M301.235,-118.601C317.891,-123.608 336.6,-129.232 353.919,-134.439"/>
<polygon fill="midnightblue" stroke="midnightblue" points="353.346,-137.921 363.93,-137.448 355.361,-131.218 353.346,-137.921"/>
</g>
<!-- Node6 -->
<g id="node6" class="node"><title>Node6</title>
<g id="a_node6"><a xlink:href="classRa_1_1Engine_1_1Texture.html#a5fb64b92e7a9025f6ad315f84eba2dca" target="_top" xlink:title="Ra::Engine::Texture\l::width">
<polygon fill="white" stroke="black" points="361.5,-88.5 361.5,-118.5 468.5,-118.5 468.5,-88.5 361.5,-88.5"/>
<text text-anchor="start" x="369.5" y="-106.5" font-family="Helvetica,sans-Serif" font-size="10.00">Ra::Engine::Texture</text>
<text text-anchor="middle" x="415" y="-95.5" font-family="Helvetica,sans-Serif" font-size="10.00">::width</text>
</a>
</g>
</g>
<!-- Node3&#45;&gt;Node6 -->
<g id="edge5" class="edge"><title>Node3&#45;&gt;Node6</title>
<path fill="none" stroke="midnightblue" d="M308.009,-103.5C321.972,-103.5 336.991,-103.5 351.208,-103.5"/>
<polygon fill="midnightblue" stroke="midnightblue" points="351.392,-107 361.392,-103.5 351.392,-100 351.392,-107"/>
</g>
<!-- Node7 -->
<g id="node7" class="node"><title>Node7</title>
<g id="a_node7"><a xlink:href="classRa_1_1Engine_1_1Texture.html#a42c27099c6aa960f13485a4477517296" target="_top" xlink:title="Ra::Engine::Texture\l::height">
<polygon fill="white" stroke="black" points="361.5,-39.5 361.5,-69.5 468.5,-69.5 468.5,-39.5 361.5,-39.5"/>
<text text-anchor="start" x="369.5" y="-57.5" font-family="Helvetica,sans-Serif" font-size="10.00">Ra::Engine::Texture</text>
<text text-anchor="middle" x="415" y="-46.5" font-family="Helvetica,sans-Serif" font-size="10.00">::height</text>
</a>
</g>
</g>
<!-- Node3&#45;&gt;Node7 -->
<g id="edge6" class="edge"><title>Node3&#45;&gt;Node7</title>
<path fill="none" stroke="midnightblue" d="M301.235,-88.3986C317.891,-83.3917 336.6,-77.7676 353.919,-72.561"/>
<polygon fill="midnightblue" stroke="midnightblue" points="355.361,-75.7823 363.93,-69.5516 353.346,-69.0787 355.361,-75.7823"/>
</g>
<!-- Node8 -->
<g id="node8" class="node"><title>Node8</title>
<g id="a_node8"><a xlink:href="namespaceRa_1_1Core_1_1Math.html#acc9f6f3b880b60bf0ee7723afabaf180" target="_top" xlink:title="Component&#45;wise clamp() function on a floating&#45;point vector. ">
<polygon fill="white" stroke="black" points="354,-1 354,-20 476,-20 476,-1 354,-1"/>
<text text-anchor="middle" x="415" y="-8" font-family="Helvetica,sans-Serif" font-size="10.00">Ra::Core::Math::clamp</text>
</a>
</g>
</g>
<!-- Node3&#45;&gt;Node8 -->
<g id="edge7" class="edge"><title>Node3&#45;&gt;Node8</title>
<path fill="none" stroke="midnightblue" d="M301.364,-88.4253C307.251,-85.6062 312.948,-82.3175 318,-78.5 339.56,-62.2071 332.036,-45.2438 354,-29.5 356.709,-27.5585 359.623,-25.8098 362.657,-24.2358"/>
<polygon fill="midnightblue" stroke="midnightblue" points="364.344,-27.3148 372.026,-20.0187 361.47,-20.9316 364.344,-27.3148"/>
</g>
</g>
</svg>
