<?xml version="1.0" encoding="UTF-8" standalone="no"?>
<!DOCTYPE svg PUBLIC "-//W3C//DTD SVG 1.1//EN"
 "http://www.w3.org/Graphics/SVG/1.1/DTD/svg11.dtd">
<!-- Generated by graphviz version 2.38.0 (20140413.2041)
 -->
<!-- Title: Ra::Gui::FlightCameraManipulator::FlightCameraManipulator Pages: 1 -->
<svg width="396pt" height="127pt"
 viewBox="0.00 0.00 396.00 127.00" xmlns="http://www.w3.org/2000/svg" xmlns:xlink="http://www.w3.org/1999/xlink">
<g id="graph0" class="graph" transform="scale(1 1) rotate(0) translate(4 123)">
<title>Ra::Gui::FlightCameraManipulator::FlightCameraManipulator</title>
<polygon fill="white" stroke="none" points="-4,4 -4,-123 392,-123 392,4 -4,4"/>
<!-- Node1 -->
<g id="node1" class="node"><title>Node1</title>
<polygon fill="#bfbfbf" stroke="black" points="0,-44.5 0,-74.5 176,-74.5 176,-44.5 0,-44.5"/>
<text text-anchor="start" x="8" y="-62.5" font-family="Helvetica,sans-Serif" font-size="10.00">Ra::Gui::FlightCameraManipulator</text>
<text text-anchor="middle" x="88" y="-51.5" font-family="Helvetica,sans-Serif" font-size="10.00">::FlightCameraManipulator</text>
</g>
<!-- Node2 -->
<g id="node2" class="node"><title>Node2</title>
<g id="a_node2"><a xlink:href="classRa_1_1Engine_1_1Camera.html#a724a052e94817af7e602129467c8696f" target="_top" xlink:title="Return the position. ">
<polygon fill="white" stroke="black" points="244.5,-88.5 244.5,-118.5 355.5,-118.5 355.5,-88.5 244.5,-88.5"/>
<text text-anchor="start" x="252.5" y="-106.5" font-family="Helvetica,sans-Serif" font-size="10.00">Ra::Engine::Camera</text>
<text text-anchor="middle" x="300" y="-95.5" font-family="Helvetica,sans-Serif" font-size="10.00">::getPosition</text>
</a>
</g>
</g>
<!-- Node1&#45;&gt;Node2 -->
<g id="edge1" class="edge"><title>Node1&#45;&gt;Node2</title>
<path fill="none" stroke="midnightblue" d="M160.683,-74.5192C184.595,-79.5294 211.079,-85.0785 234.419,-89.9688"/>
<polygon fill="midnightblue" stroke="midnightblue" points="233.707,-93.3956 244.213,-92.0208 235.143,-86.5444 233.707,-93.3956"/>
</g>
<!-- Node3 -->
<g id="node3" class="node"><title>Node3</title>
<g id="a_node3"><a xlink:href="namespaceOpenMesh.html#a8205f789ce08919bc11c58383574596c" target="_top" xlink:title="OpenMesh::norm">
<polygon fill="white" stroke="black" points="250.5,-50 250.5,-69 349.5,-69 349.5,-50 250.5,-50"/>
<text text-anchor="middle" x="300" y="-57" font-family="Helvetica,sans-Serif" font-size="10.00">OpenMesh::norm</text>
</a>
</g>
</g>
<!-- Node1&#45;&gt;Node3 -->
<g id="edge2" class="edge"><title>Node1&#45;&gt;Node3</title>
<path fill="none" stroke="midnightblue" d="M176.235,-59.5C197.826,-59.5 220.45,-59.5 240.31,-59.5"/>
<polygon fill="midnightblue" stroke="midnightblue" points="240.423,-63.0001 250.423,-59.5 240.423,-56.0001 240.423,-63.0001"/>
</g>
<!-- Node4 -->
<g id="node4" class="node"><title>Node4</title>
<g id="a_node4"><a xlink:href="classRa_1_1Gui_1_1FlightCameraManipulator.html#a3165a5bd928799ddbffa57c4162693a8" target="_top" xlink:title="Ra::Gui::FlightCameraManipulator\l::~FlightCameraManipulator">
<polygon fill="white" stroke="black" points="212,-0.5 212,-30.5 388,-30.5 388,-0.5 212,-0.5"/>
<text text-anchor="start" x="220" y="-18.5" font-family="Helvetica,sans-Serif" font-size="10.00">Ra::Gui::FlightCameraManipulator</text>
<text text-anchor="middle" x="300" y="-7.5" font-family="Helvetica,sans-Serif" font-size="10.00">::~FlightCameraManipulator</text>
</a>
</g>
</g>
<!-- Node1&#45;&gt;Node4 -->
<g id="edge3" class="edge"><title>Node1&#45;&gt;Node4</title>
<path fill="none" stroke="midnightblue" d="M160.683,-44.4808C178.913,-40.6612 198.637,-36.5284 217.324,-32.6131"/>
<polygon fill="midnightblue" stroke="midnightblue" points="218.214,-36.0026 227.284,-30.5262 216.779,-29.1514 218.214,-36.0026"/>
</g>
</g>
</svg>
