<?xml version="1.0" encoding="UTF-8" standalone="no"?>
<!DOCTYPE svg PUBLIC "-//W3C//DTD SVG 1.1//EN"
 "http://www.w3.org/Graphics/SVG/1.1/DTD/svg11.dtd">
<!-- Generated by graphviz version 2.38.0 (20140413.2041)
 -->
<!-- Title: Ra::Engine::Renderer Pages: 1 -->
<svg width="1472pt" height="1439pt"
 viewBox="0.00 0.00 1471.50 1439.00" xmlns="http://www.w3.org/2000/svg" xmlns:xlink="http://www.w3.org/1999/xlink">
<g id="graph0" class="graph" transform="scale(1 1) rotate(0) translate(4 1435)">
<title>Ra::Engine::Renderer</title>
<polygon fill="white" stroke="none" points="-4,4 -4,-1435 1467.5,-1435 1467.5,4 -4,4"/>
<!-- Node1 -->
<g id="node1" class="node"><title>Node1</title>
<polygon fill="#bfbfbf" stroke="black" points="634.5,-0.5 634.5,-442.5 767.5,-442.5 767.5,-0.5 634.5,-0.5"/>
<text text-anchor="middle" x="701" y="-430.5" font-family="Helvetica,sans-Serif" font-size="10.00">Ra::Engine::Renderer</text>
<polyline fill="none" stroke="black" points="634.5,-423.5 767.5,-423.5 "/>
<text text-anchor="middle" x="701" y="-411.5" font-family="Helvetica,sans-Serif" font-size="10.00"> </text>
<polyline fill="none" stroke="black" points="634.5,-404.5 767.5,-404.5 "/>
<text text-anchor="start" x="642.5" y="-392.5" font-family="Helvetica,sans-Serif" font-size="10.00">+ Renderer()</text>
<text text-anchor="start" x="642.5" y="-381.5" font-family="Helvetica,sans-Serif" font-size="10.00">+ ~Renderer()</text>
<text text-anchor="start" x="642.5" y="-370.5" font-family="Helvetica,sans-Serif" font-size="10.00">+ getTimerData()</text>
<text text-anchor="start" x="642.5" y="-359.5" font-family="Helvetica,sans-Serif" font-size="10.00">+ getDisplayTexture()</text>
<text text-anchor="start" x="642.5" y="-348.5" font-family="Helvetica,sans-Serif" font-size="10.00">+ lockRendering()</text>
<text text-anchor="start" x="642.5" y="-337.5" font-family="Helvetica,sans-Serif" font-size="10.00">+ unlockRendering()</text>
<text text-anchor="start" x="642.5" y="-326.5" font-family="Helvetica,sans-Serif" font-size="10.00">+ toggleWireframe()</text>
<text text-anchor="start" x="642.5" y="-315.5" font-family="Helvetica,sans-Serif" font-size="10.00">+ enableWireframe()</text>
<text text-anchor="start" x="642.5" y="-304.5" font-family="Helvetica,sans-Serif" font-size="10.00">+ toggleDrawDebug()</text>
<text text-anchor="start" x="642.5" y="-293.5" font-family="Helvetica,sans-Serif" font-size="10.00">+ enableDebugDraw()</text>
<text text-anchor="start" x="642.5" y="-282.5" font-family="Helvetica,sans-Serif" font-size="10.00">+ enablePostProcess()</text>
<text text-anchor="start" x="642.5" y="-271.5" font-family="Helvetica,sans-Serif" font-size="10.00">+ render()</text>
<text text-anchor="start" x="642.5" y="-260.5" font-family="Helvetica,sans-Serif" font-size="10.00">+ initialize()</text>
<text text-anchor="start" x="642.5" y="-249.5" font-family="Helvetica,sans-Serif" font-size="10.00">+ resize()</text>
<text text-anchor="start" x="642.5" y="-238.5" font-family="Helvetica,sans-Serif" font-size="10.00">+ addPickingRequest()</text>
<text text-anchor="start" x="642.5" y="-227.5" font-family="Helvetica,sans-Serif" font-size="10.00">+ getPickingResults()</text>
<text text-anchor="start" x="642.5" y="-216.5" font-family="Helvetica,sans-Serif" font-size="10.00">+ getPickingQueries()</text>
<text text-anchor="start" x="642.5" y="-205.5" font-family="Helvetica,sans-Serif" font-size="10.00">+ setMousePosition()</text>
<text text-anchor="start" x="642.5" y="-194.5" font-family="Helvetica,sans-Serif" font-size="10.00">+ setBrushRadius()</text>
<text text-anchor="start" x="642.5" y="-183.5" font-family="Helvetica,sans-Serif" font-size="10.00">+ hasLight()</text>
<text text-anchor="start" x="642.5" y="-172.5" font-family="Helvetica,sans-Serif" font-size="10.00">+ setBackgroundColor()</text>
<text text-anchor="start" x="642.5" y="-161.5" font-family="Helvetica,sans-Serif" font-size="10.00">+ getBackgroundColor()</text>
<text text-anchor="start" x="642.5" y="-150.5" font-family="Helvetica,sans-Serif" font-size="10.00">+ addLight()</text>
<text text-anchor="start" x="642.5" y="-139.5" font-family="Helvetica,sans-Serif" font-size="10.00">+ reloadShaders()</text>
<text text-anchor="start" x="642.5" y="-128.5" font-family="Helvetica,sans-Serif" font-size="10.00">+ displayTexture()</text>
<text text-anchor="start" x="642.5" y="-117.5" font-family="Helvetica,sans-Serif" font-size="10.00">+ getAvailableTextures()</text>
<text text-anchor="start" x="642.5" y="-106.5" font-family="Helvetica,sans-Serif" font-size="10.00">+ getRendererName()</text>
<text text-anchor="start" x="642.5" y="-95.5" font-family="Helvetica,sans-Serif" font-size="10.00">+ grabFrame()</text>
<text text-anchor="start" x="642.5" y="-84.5" font-family="Helvetica,sans-Serif" font-size="10.00">+ doPickingNow()</text>
<text text-anchor="start" x="642.5" y="-73.5" font-family="Helvetica,sans-Serif" font-size="10.00"># initializeInternal()</text>
<text text-anchor="start" x="642.5" y="-62.5" font-family="Helvetica,sans-Serif" font-size="10.00"># resizeInternal()</text>
<text text-anchor="start" x="642.5" y="-51.5" font-family="Helvetica,sans-Serif" font-size="10.00"># updateStepInternal()</text>
<text text-anchor="start" x="642.5" y="-40.5" font-family="Helvetica,sans-Serif" font-size="10.00"># renderInternal()</text>
<text text-anchor="start" x="642.5" y="-29.5" font-family="Helvetica,sans-Serif" font-size="10.00"># postProcessInternal()</text>
<text text-anchor="start" x="642.5" y="-18.5" font-family="Helvetica,sans-Serif" font-size="10.00"># debugInternal()</text>
<text text-anchor="start" x="642.5" y="-7.5" font-family="Helvetica,sans-Serif" font-size="10.00"># uiInternal()</text>
</g>
<!-- Node2 -->
<g id="node2" class="node"><title>Node2</title>
<polygon fill="white" stroke="#bfbfbf" points="0,-584 0,-652 130,-652 130,-584 0,-584"/>
<text text-anchor="start" x="8" y="-640" font-family="Helvetica,sans-Serif" font-size="10.00">std::map&lt; std::string,</text>
<text text-anchor="middle" x="65" y="-629" font-family="Helvetica,sans-Serif" font-size="10.00"> Ra::Engine::Texture * &gt;</text>
<polyline fill="none" stroke="#bfbfbf" points="0,-622 130,-622 "/>
<text text-anchor="middle" x="65" y="-610" font-family="Helvetica,sans-Serif" font-size="10.00"> </text>
<polyline fill="none" stroke="#bfbfbf" points="0,-603 130,-603 "/>
<text text-anchor="middle" x="65" y="-591" font-family="Helvetica,sans-Serif" font-size="10.00"> </text>
</g>
<!-- Node2&#45;&gt;Node1 -->
<g id="edge1" class="edge"><title>Node2&#45;&gt;Node1</title>
<path fill="none" stroke="#404040" d="M66.0726,-583.711C68.9039,-549.048 78.3653,-495.138 109,-461 246.291,-308.009 495.488,-251.506 622.303,-231.99"/>
<polygon fill="none" stroke="#404040" points="622.317,-231.988 627.66,-227.146 634.185,-230.215 628.842,-235.058 622.317,-231.988"/>
<text text-anchor="middle" x="167" y="-480.5" font-family="Helvetica,sans-Serif" font-size="10.00"> #m_secondaryTextures</text>
</g>
<!-- Node3 -->
<g id="node3" class="node"><title>Node3</title>
<g id="a_node3"><a xlink:href="classRa_1_1Engine_1_1Texture.html" target="_top" xlink:title="Represent a Texture of the engine See TextureManager to informations about how unique texture are def...">
<polygon fill="white" stroke="black" points="173.5,-771.5 173.5,-1026.5 298.5,-1026.5 298.5,-771.5 173.5,-771.5"/>
<text text-anchor="middle" x="236" y="-1014.5" font-family="Helvetica,sans-Serif" font-size="10.00">Ra::Engine::Texture</text>
<polyline fill="none" stroke="black" points="173.5,-1007.5 298.5,-1007.5 "/>
<text text-anchor="middle" x="236" y="-995.5" font-family="Helvetica,sans-Serif" font-size="10.00"> </text>
<polyline fill="none" stroke="black" points="173.5,-988.5 298.5,-988.5 "/>
<text text-anchor="start" x="181.5" y="-976.5" font-family="Helvetica,sans-Serif" font-size="10.00">+ Texture()</text>
<text text-anchor="start" x="181.5" y="-965.5" font-family="Helvetica,sans-Serif" font-size="10.00">+ operator=()</text>
<text text-anchor="start" x="181.5" y="-954.5" font-family="Helvetica,sans-Serif" font-size="10.00">+ Texture()</text>
<text text-anchor="start" x="181.5" y="-943.5" font-family="Helvetica,sans-Serif" font-size="10.00">+ ~Texture()</text>
<text text-anchor="start" x="181.5" y="-932.5" font-family="Helvetica,sans-Serif" font-size="10.00">+ initializeGL()</text>
<text text-anchor="start" x="181.5" y="-921.5" font-family="Helvetica,sans-Serif" font-size="10.00">+ generateCube()</text>
<text text-anchor="start" x="181.5" y="-910.5" font-family="Helvetica,sans-Serif" font-size="10.00">+ bind()</text>
<text text-anchor="start" x="181.5" y="-899.5" font-family="Helvetica,sans-Serif" font-size="10.00">+ bindImageTexture()</text>
<text text-anchor="start" x="181.5" y="-888.5" font-family="Helvetica,sans-Serif" font-size="10.00">+ getName()</text>
<text text-anchor="start" x="181.5" y="-877.5" font-family="Helvetica,sans-Serif" font-size="10.00">+ updateData()</text>
<text text-anchor="start" x="181.5" y="-866.5" font-family="Helvetica,sans-Serif" font-size="10.00">+ updateParameters()</text>
<text text-anchor="start" x="181.5" y="-855.5" font-family="Helvetica,sans-Serif" font-size="10.00">+ linearize()</text>
<text text-anchor="start" x="181.5" y="-844.5" font-family="Helvetica,sans-Serif" font-size="10.00">+ format()</text>
<text text-anchor="start" x="181.5" y="-833.5" font-family="Helvetica,sans-Serif" font-size="10.00">+ width()</text>
<text text-anchor="start" x="181.5" y="-822.5" font-family="Helvetica,sans-Serif" font-size="10.00">+ height()</text>
<text text-anchor="start" x="181.5" y="-811.5" font-family="Helvetica,sans-Serif" font-size="10.00">+ depth()</text>
<text text-anchor="start" x="181.5" y="-800.5" font-family="Helvetica,sans-Serif" font-size="10.00">+ texels()</text>
<text text-anchor="start" x="181.5" y="-789.5" font-family="Helvetica,sans-Serif" font-size="10.00">+ texture()</text>
<text text-anchor="start" x="181.5" y="-778.5" font-family="Helvetica,sans-Serif" font-size="10.00">+ resize()</text>
</a>
</g>
</g>
<!-- Node3&#45;&gt;Node1 -->
<g id="edge17" class="edge"><title>Node3&#45;&gt;Node1</title>
<path fill="none" stroke="#404040" d="M227.862,-771.373C224.208,-679.473 224.967,-564.32 248,-523 329.69,-376.456 516.373,-288.531 622.836,-248.479"/>
<polygon fill="none" stroke="#404040" points="622.892,-248.458 627.13,-242.624 634.146,-244.291 629.908,-250.126 622.892,-248.458"/>
<text text-anchor="middle" x="301" y="-615.5" font-family="Helvetica,sans-Serif" font-size="10.00"> #m_displayedTexture</text>
</g>
<!-- Node3&#45;&gt;Node2 -->
<g id="edge2" class="edge"><title>Node3&#45;&gt;Node2</title>
<path fill="none" stroke="#404040" d="M173.371,-778.828C164.162,-762.576 154.552,-746.25 145,-731 130.284,-707.506 112.476,-682.304 97.4007,-661.767"/>
<polygon fill="none" stroke="#404040" points="97.3789,-661.738 90.5956,-659.291 90.2452,-652.088 97.0285,-654.535 97.3789,-661.738"/>
<text text-anchor="middle" x="184.5" y="-739.5" font-family="Helvetica,sans-Serif" font-size="10.00"> +elements</text>
</g>
<!-- Node21 -->
<g id="node21" class="node"><title>Node21</title>
<polygon fill="white" stroke="#bfbfbf" points="363,-584 363,-652 475,-652 475,-584 363,-584"/>
<text text-anchor="start" x="371" y="-640" font-family="Helvetica,sans-Serif" font-size="10.00">std::unique_ptr&lt; Ra</text>
<text text-anchor="middle" x="419" y="-629" font-family="Helvetica,sans-Serif" font-size="10.00">::Engine::Texture &gt;</text>
<polyline fill="none" stroke="#bfbfbf" points="363,-622 475,-622 "/>
<text text-anchor="middle" x="419" y="-610" font-family="Helvetica,sans-Serif" font-size="10.00"> </text>
<polyline fill="none" stroke="#bfbfbf" points="363,-603 475,-603 "/>
<text text-anchor="start" x="371" y="-591" font-family="Helvetica,sans-Serif" font-size="10.00">+ operator&#45;&gt;()</text>
</g>
<!-- Node3&#45;&gt;Node21 -->
<g id="edge25" class="edge"><title>Node3&#45;&gt;Node21</title>
<path fill="none" stroke="#404040" d="M298.722,-802.374C329.798,-754.996 365.806,-700.1 390.264,-662.81"/>
<polygon fill="none" stroke="#404040" points="390.572,-662.341 390.518,-655.13 397.154,-652.307 397.208,-659.517 390.572,-662.341"/>
<text text-anchor="middle" x="356.5" y="-739.5" font-family="Helvetica,sans-Serif" font-size="10.00"> +ptr</text>
</g>
<!-- Node4 -->
<g id="node4" class="node"><title>Node4</title>
<g id="a_node4"><a xlink:href="structRa_1_1Engine_1_1TextureParameters.html" target="_top" xlink:title="Describes the content and parameters of a texture. ">
<polygon fill="white" stroke="black" points="141.5,-1074.5 141.5,-1131.5 304.5,-1131.5 304.5,-1074.5 141.5,-1074.5"/>
<text text-anchor="middle" x="223" y="-1119.5" font-family="Helvetica,sans-Serif" font-size="10.00">Ra::Engine::TextureParameters</text>
<polyline fill="none" stroke="black" points="141.5,-1112.5 304.5,-1112.5 "/>
<text text-anchor="middle" x="223" y="-1100.5" font-family="Helvetica,sans-Serif" font-size="10.00"> </text>
<polyline fill="none" stroke="black" points="141.5,-1093.5 304.5,-1093.5 "/>
<text text-anchor="middle" x="223" y="-1081.5" font-family="Helvetica,sans-Serif" font-size="10.00"> </text>
</a>
</g>
</g>
<!-- Node4&#45;&gt;Node3 -->
<g id="edge3" class="edge"><title>Node4&#45;&gt;Node3</title>
<path fill="none" stroke="#404040" d="M224.78,-1074.34C225.425,-1064.33 226.203,-1052.23 227.046,-1039.13"/>
<polygon fill="none" stroke="#404040" points="227.065,-1038.83 223.459,-1032.58 227.836,-1026.85 231.443,-1033.1 227.065,-1038.83"/>
<text text-anchor="middle" x="285.5" y="-1048" font-family="Helvetica,sans-Serif" font-size="10.00"> +m_textureParameters</text>
</g>
<!-- Node5 -->
<g id="node5" class="node"><title>Node5</title>
<polygon fill="white" stroke="#bfbfbf" points="263.5,-1267.5 263.5,-1324.5 320.5,-1324.5 320.5,-1267.5 263.5,-1267.5"/>
<text text-anchor="middle" x="292" y="-1312.5" font-family="Helvetica,sans-Serif" font-size="10.00">GLenum</text>
<polyline fill="none" stroke="#bfbfbf" points="263.5,-1305.5 320.5,-1305.5 "/>
<text text-anchor="middle" x="292" y="-1293.5" font-family="Helvetica,sans-Serif" font-size="10.00"> </text>
<polyline fill="none" stroke="#bfbfbf" points="263.5,-1286.5 320.5,-1286.5 "/>
<text text-anchor="middle" x="292" y="-1274.5" font-family="Helvetica,sans-Serif" font-size="10.00"> </text>
</g>
<!-- Node5&#45;&gt;Node4 -->
<g id="edge4" class="edge"><title>Node5&#45;&gt;Node4</title>
<path fill="none" stroke="#404040" d="M291.962,-1267.33C290.875,-1236.99 285.974,-1187.64 267,-1150 265.512,-1147.05 263.771,-1144.16 261.857,-1141.36"/>
<polygon fill="none" stroke="#404040" points="261.671,-1141.12 254.831,-1138.83 254.308,-1131.64 261.148,-1133.93 261.671,-1141.12"/>
<text text-anchor="middle" x="330.5" y="-1241" font-family="Helvetica,sans-Serif" font-size="10.00"> +type</text>
<text text-anchor="middle" x="330.5" y="-1230" font-family="Helvetica,sans-Serif" font-size="10.00">+minFilter</text>
<text text-anchor="middle" x="330.5" y="-1219" font-family="Helvetica,sans-Serif" font-size="10.00">+wrapP</text>
<text text-anchor="middle" x="330.5" y="-1208" font-family="Helvetica,sans-Serif" font-size="10.00">+magFilter</text>
<text text-anchor="middle" x="330.5" y="-1197" font-family="Helvetica,sans-Serif" font-size="10.00">+target</text>
<text text-anchor="middle" x="330.5" y="-1186" font-family="Helvetica,sans-Serif" font-size="10.00">+internalFormat</text>
<text text-anchor="middle" x="330.5" y="-1175" font-family="Helvetica,sans-Serif" font-size="10.00">+wrapS</text>
<text text-anchor="middle" x="330.5" y="-1164" font-family="Helvetica,sans-Serif" font-size="10.00">+wrapT</text>
<text text-anchor="middle" x="330.5" y="-1153" font-family="Helvetica,sans-Serif" font-size="10.00">+format</text>
</g>
<!-- Node6 -->
<g id="node6" class="node"><title>Node6</title>
<polygon fill="white" stroke="#bfbfbf" points="138,-1267.5 138,-1324.5 182,-1324.5 182,-1267.5 138,-1267.5"/>
<text text-anchor="middle" x="160" y="-1312.5" font-family="Helvetica,sans-Serif" font-size="10.00">size_t</text>
<polyline fill="none" stroke="#bfbfbf" points="138,-1305.5 182,-1305.5 "/>
<text text-anchor="middle" x="160" y="-1293.5" font-family="Helvetica,sans-Serif" font-size="10.00"> </text>
<polyline fill="none" stroke="#bfbfbf" points="138,-1286.5 182,-1286.5 "/>
<text text-anchor="middle" x="160" y="-1274.5" font-family="Helvetica,sans-Serif" font-size="10.00"> </text>
</g>
<!-- Node6&#45;&gt;Node4 -->
<g id="edge5" class="edge"><title>Node6&#45;&gt;Node4</title>
<path fill="none" stroke="#404040" d="M158.635,-1267.38C158.24,-1237.1 160.902,-1187.78 179,-1150 180.428,-1147.02 182.123,-1144.11 184.002,-1141.29"/>
<polygon fill="none" stroke="#404040" points="184.177,-1141.06 184.649,-1133.87 191.473,-1131.53 191.001,-1138.73 184.177,-1141.06"/>
<text text-anchor="middle" x="199" y="-1208" font-family="Helvetica,sans-Serif" font-size="10.00"> +depth</text>
<text text-anchor="middle" x="199" y="-1197" font-family="Helvetica,sans-Serif" font-size="10.00">+height</text>
<text text-anchor="middle" x="199" y="-1186" font-family="Helvetica,sans-Serif" font-size="10.00">+width</text>
</g>
<!-- Node7 -->
<g id="node7" class="node"><title>Node7</title>
<g id="a_node7"><a xlink:title="STL class. ">
<polygon fill="white" stroke="#bfbfbf" points="20.5,-1267.5 20.5,-1324.5 85.5,-1324.5 85.5,-1267.5 20.5,-1267.5"/>
<text text-anchor="middle" x="53" y="-1312.5" font-family="Helvetica,sans-Serif" font-size="10.00">std::string</text>
<polyline fill="none" stroke="#bfbfbf" points="20.5,-1305.5 85.5,-1305.5 "/>
<text text-anchor="middle" x="53" y="-1293.5" font-family="Helvetica,sans-Serif" font-size="10.00"> </text>
<polyline fill="none" stroke="#bfbfbf" points="20.5,-1286.5 85.5,-1286.5 "/>
<text text-anchor="middle" x="53" y="-1274.5" font-family="Helvetica,sans-Serif" font-size="10.00"> </text>
</a>
</g>
</g>
<!-- Node7&#45;&gt;Node2 -->
<g id="edge9" class="edge"><title>Node7&#45;&gt;Node2</title>
<path fill="none" stroke="#404040" d="M49.9512,-1267.38C41.8174,-1189.28 21.3222,-960.249 38,-771 41.1949,-734.746 48.5972,-694.186 54.8444,-664.088"/>
<polygon fill="none" stroke="#404040" points="54.8585,-664.022 52.1896,-657.323 57.3468,-652.283 60.0157,-658.982 54.8585,-664.022"/>
<text text-anchor="middle" x="52" y="-1048" font-family="Helvetica,sans-Serif" font-size="10.00"> +keys</text>
</g>
<!-- Node7&#45;&gt;Node4 -->
<g id="edge6" class="edge"><title>Node7&#45;&gt;Node4</title>
<path fill="none" stroke="#404040" d="M58.2709,-1267.47C65.7268,-1235.41 82.2597,-1182.69 115,-1150 119.777,-1145.23 125.126,-1140.92 130.819,-1137.04"/>
<polygon fill="none" stroke="#404040" points="131.183,-1136.82 134.181,-1130.26 141.388,-1130.5 138.39,-1137.06 131.183,-1136.82"/>
<text text-anchor="middle" x="135" y="-1197" font-family="Helvetica,sans-Serif" font-size="10.00"> +name</text>
</g>
<!-- Node8 -->
<g id="node8" class="node"><title>Node8</title>
<g id="a_node8"><a xlink:title="STL class. ">
<polygon fill="white" stroke="#bfbfbf" points="1.5,-1362.5 1.5,-1430.5 104.5,-1430.5 104.5,-1362.5 1.5,-1362.5"/>
<text text-anchor="start" x="9.5" y="-1418.5" font-family="Helvetica,sans-Serif" font-size="10.00">std::basic_string&lt;</text>
<text text-anchor="middle" x="53" y="-1407.5" font-family="Helvetica,sans-Serif" font-size="10.00"> char &gt;</text>
<polyline fill="none" stroke="#bfbfbf" points="1.5,-1400.5 104.5,-1400.5 "/>
<text text-anchor="middle" x="53" y="-1388.5" font-family="Helvetica,sans-Serif" font-size="10.00"> </text>
<polyline fill="none" stroke="#bfbfbf" points="1.5,-1381.5 104.5,-1381.5 "/>
<text text-anchor="middle" x="53" y="-1369.5" font-family="Helvetica,sans-Serif" font-size="10.00"> </text>
</a>
</g>
</g>
<!-- Node8&#45;&gt;Node7 -->
<g id="edge7" class="edge"><title>Node8&#45;&gt;Node7</title>
<path fill="none" stroke="midnightblue" d="M53,-1352.38C53,-1342.94 53,-1333.2 53,-1324.57"/>
<polygon fill="none" stroke="midnightblue" points="49.5001,-1352.43 53,-1362.43 56.5001,-1352.43 49.5001,-1352.43"/>
</g>
<!-- Node9 -->
<g id="node9" class="node"><title>Node9</title>
<polygon fill="white" stroke="#bfbfbf" points="201,-1267.5 201,-1324.5 245,-1324.5 245,-1267.5 201,-1267.5"/>
<text text-anchor="middle" x="223" y="-1312.5" font-family="Helvetica,sans-Serif" font-size="10.00">void *</text>
<polyline fill="none" stroke="#bfbfbf" points="201,-1305.5 245,-1305.5 "/>
<text text-anchor="middle" x="223" y="-1293.5" font-family="Helvetica,sans-Serif" font-size="10.00"> </text>
<polyline fill="none" stroke="#bfbfbf" points="201,-1286.5 245,-1286.5 "/>
<text text-anchor="middle" x="223" y="-1274.5" font-family="Helvetica,sans-Serif" font-size="10.00"> </text>
</g>
<!-- Node9&#45;&gt;Node4 -->
<g id="edge8" class="edge"><title>Node9&#45;&gt;Node4</title>
<path fill="none" stroke="#404040" d="M223,-1267.23C223,-1234.83 223,-1181.02 223,-1144.1"/>
<polygon fill="none" stroke="#404040" points="223,-1143.81 219,-1137.81 223,-1131.81 227,-1137.81 223,-1143.81"/>
<text text-anchor="middle" x="243" y="-1197" font-family="Helvetica,sans-Serif" font-size="10.00"> +texels</text>
</g>
<!-- Node10 -->
<g id="node10" class="node"><title>Node10</title>
<g id="a_node10"><a xlink:title="STL class. ">
<polygon fill="white" stroke="#bfbfbf" points="47.5,-870.5 47.5,-927.5 146.5,-927.5 146.5,-870.5 47.5,-870.5"/>
<text text-anchor="middle" x="97" y="-915.5" font-family="Helvetica,sans-Serif" font-size="10.00">std::map&lt; K, T &gt;</text>
<polyline fill="none" stroke="#bfbfbf" points="47.5,-908.5 146.5,-908.5 "/>
<text text-anchor="middle" x="97" y="-896.5" font-family="Helvetica,sans-Serif" font-size="10.00"> </text>
<polyline fill="none" stroke="#bfbfbf" points="47.5,-889.5 146.5,-889.5 "/>
<text text-anchor="middle" x="97" y="-877.5" font-family="Helvetica,sans-Serif" font-size="10.00"> </text>
</a>
</g>
</g>
<!-- Node10&#45;&gt;Node2 -->
<g id="edge10" class="edge"><title>Node10&#45;&gt;Node2</title>
<path fill="none" stroke="orange" d="M81.968,-860.583C71.2201,-831.726 57.69,-790.532 52,-753 50.5344,-743.333 51.4354,-740.761 52,-731 53.5373,-704.422 57.1102,-674.474 60.1219,-652.237"/>
<polygon fill="orange" stroke="orange" points="78.816,-862.142 85.6363,-870.25 85.3606,-859.658 78.816,-862.142"/>
<text text-anchor="start" x="52" y="-745" font-family="Helvetica,sans-Serif" font-size="10.00"> &lt; std::string, Ra::</text>
<text text-anchor="middle" x="98.5" y="-734" font-family="Helvetica,sans-Serif" font-size="10.00">Engine::Texture * &gt;</text>
</g>
<!-- Node11 -->
<g id="node11" class="node"><title>Node11</title>
<polygon fill="white" stroke="#bfbfbf" points="82.5,-1074.5 82.5,-1131.5 111.5,-1131.5 111.5,-1074.5 82.5,-1074.5"/>
<text text-anchor="middle" x="97" y="-1119.5" font-family="Helvetica,sans-Serif" font-size="10.00">K</text>
<polyline fill="none" stroke="#bfbfbf" points="82.5,-1112.5 111.5,-1112.5 "/>
<text text-anchor="middle" x="97" y="-1100.5" font-family="Helvetica,sans-Serif" font-size="10.00"> </text>
<polyline fill="none" stroke="#bfbfbf" points="82.5,-1093.5 111.5,-1093.5 "/>
<text text-anchor="middle" x="97" y="-1081.5" font-family="Helvetica,sans-Serif" font-size="10.00"> </text>
</g>
<!-- Node11&#45;&gt;Node10 -->
<g id="edge11" class="edge"><title>Node11&#45;&gt;Node10</title>
<path fill="none" stroke="#404040" d="M97,-1074.34C97,-1039.53 97,-979.509 97,-939.781"/>
<polygon fill="none" stroke="#404040" points="97.0001,-939.653 93,-933.653 97,-927.653 101,-933.653 97.0001,-939.653"/>
<text text-anchor="middle" x="114" y="-1048" font-family="Helvetica,sans-Serif" font-size="10.00"> +keys</text>
</g>
<!-- Node12 -->
<g id="node12" class="node"><title>Node12</title>
<polygon fill="white" stroke="#bfbfbf" points="523.5,-1074.5 523.5,-1131.5 552.5,-1131.5 552.5,-1074.5 523.5,-1074.5"/>
<text text-anchor="middle" x="538" y="-1119.5" font-family="Helvetica,sans-Serif" font-size="10.00">T</text>
<polyline fill="none" stroke="#bfbfbf" points="523.5,-1112.5 552.5,-1112.5 "/>
<text text-anchor="middle" x="538" y="-1100.5" font-family="Helvetica,sans-Serif" font-size="10.00"> </text>
<polyline fill="none" stroke="#bfbfbf" points="523.5,-1093.5 552.5,-1093.5 "/>
<text text-anchor="middle" x="538" y="-1081.5" font-family="Helvetica,sans-Serif" font-size="10.00"> </text>
</g>
<!-- Node12&#45;&gt;Node10 -->
<g id="edge12" class="edge"><title>Node12&#45;&gt;Node10</title>
<path fill="none" stroke="#404040" d="M523.259,-1100.16C487.318,-1095.66 392.307,-1083.79 313,-1074 280.337,-1069.97 192.435,-1075.6 166,-1056 128.763,-1028.39 111.266,-976.21 103.29,-939.838"/>
<polygon fill="none" stroke="#404040" points="103.215,-939.463 98.1108,-934.369 100.85,-927.698 105.954,-932.792 103.215,-939.463"/>
<text text-anchor="middle" x="194.5" y="-1048" font-family="Helvetica,sans-Serif" font-size="10.00"> +elements</text>
</g>
<!-- Node15 -->
<g id="node15" class="node"><title>Node15</title>
<g id="a_node15"><a xlink:title="STL class. ">
<polygon fill="white" stroke="#bfbfbf" points="614.5,-870.5 614.5,-927.5 709.5,-927.5 709.5,-870.5 614.5,-870.5"/>
<text text-anchor="middle" x="662" y="-915.5" font-family="Helvetica,sans-Serif" font-size="10.00">std::vector&lt; T &gt;</text>
<polyline fill="none" stroke="#bfbfbf" points="614.5,-908.5 709.5,-908.5 "/>
<text text-anchor="middle" x="662" y="-896.5" font-family="Helvetica,sans-Serif" font-size="10.00"> </text>
<polyline fill="none" stroke="#bfbfbf" points="614.5,-889.5 709.5,-889.5 "/>
<text text-anchor="middle" x="662" y="-877.5" font-family="Helvetica,sans-Serif" font-size="10.00"> </text>
</a>
</g>
</g>
<!-- Node12&#45;&gt;Node15 -->
<g id="edge16" class="edge"><title>Node12&#45;&gt;Node15</title>
<path fill="none" stroke="#404040" d="M552.511,-1088.42C567.145,-1074.17 589.701,-1050.58 605,-1027 623.022,-999.221 638.081,-964.797 648.186,-938.799"/>
<polygon fill="none" stroke="#404040" points="648.215,-938.721 646.604,-931.692 652.473,-927.501 654.084,-934.53 648.215,-938.721"/>
<text text-anchor="middle" x="619.5" y="-1048" font-family="Helvetica,sans-Serif" font-size="10.00"> +elements</text>
</g>
<!-- Node22 -->
<g id="node22" class="node"><title>Node22</title>
<g id="a_node22"><a xlink:title="STL class. ">
<polygon fill="white" stroke="#bfbfbf" points="480,-870.5 480,-927.5 596,-927.5 596,-870.5 480,-870.5"/>
<text text-anchor="middle" x="538" y="-915.5" font-family="Helvetica,sans-Serif" font-size="10.00">std::unique_ptr&lt; T &gt;</text>
<polyline fill="none" stroke="#bfbfbf" points="480,-908.5 596,-908.5 "/>
<text text-anchor="middle" x="538" y="-896.5" font-family="Helvetica,sans-Serif" font-size="10.00"> </text>
<polyline fill="none" stroke="#bfbfbf" points="480,-889.5 596,-889.5 "/>
<text text-anchor="start" x="488" y="-877.5" font-family="Helvetica,sans-Serif" font-size="10.00">+ operator&#45;&gt;()</text>
</a>
</g>
</g>
<!-- Node12&#45;&gt;Node22 -->
<g id="edge27" class="edge"><title>Node12&#45;&gt;Node22</title>
<path fill="none" stroke="#404040" d="M538,-1074.34C538,-1039.53 538,-979.509 538,-939.781"/>
<polygon fill="none" stroke="#404040" points="538,-939.653 534,-933.653 538,-927.653 542,-933.653 538,-939.653"/>
<text text-anchor="middle" x="550.5" y="-1048" font-family="Helvetica,sans-Serif" font-size="10.00"> +ptr</text>
</g>
<!-- Node13 -->
<g id="node13" class="node"><title>Node13</title>
<polygon fill="white" stroke="#bfbfbf" points="493,-584 493,-652 657,-652 657,-584 493,-584"/>
<text text-anchor="start" x="501" y="-640" font-family="Helvetica,sans-Serif" font-size="10.00">std::vector&lt; Ra::Engine</text>
<text text-anchor="middle" x="575" y="-629" font-family="Helvetica,sans-Serif" font-size="10.00">::Ra::Engine::LightManager * &gt;</text>
<polyline fill="none" stroke="#bfbfbf" points="493,-622 657,-622 "/>
<text text-anchor="middle" x="575" y="-610" font-family="Helvetica,sans-Serif" font-size="10.00"> </text>
<polyline fill="none" stroke="#bfbfbf" points="493,-603 657,-603 "/>
<text text-anchor="middle" x="575" y="-591" font-family="Helvetica,sans-Serif" font-size="10.00"> </text>
</g>
<!-- Node13&#45;&gt;Node1 -->
<g id="edge13" class="edge"><title>Node13&#45;&gt;Node1</title>
<path fill="none" stroke="#404040" d="M565.026,-583.846C556.978,-551.857 548.695,-502.335 560,-461 573.686,-410.957 600.868,-360.747 627.745,-319.393"/>
<polygon fill="none" stroke="#404040" points="627.765,-319.362 627.735,-312.151 634.379,-309.349 634.41,-316.56 627.765,-319.362"/>
<text text-anchor="middle" x="608" y="-480.5" font-family="Helvetica,sans-Serif" font-size="10.00"> #m_lightmanagers</text>
</g>
<!-- Node14 -->
<g id="node14" class="node"><title>Node14</title>
<polygon fill="white" stroke="#bfbfbf" points="372,-870.5 372,-927.5 462,-927.5 462,-870.5 372,-870.5"/>
<text text-anchor="middle" x="417" y="-915.5" font-family="Helvetica,sans-Serif" font-size="10.00">LightManager *</text>
<polyline fill="none" stroke="#bfbfbf" points="372,-908.5 462,-908.5 "/>
<text text-anchor="middle" x="417" y="-896.5" font-family="Helvetica,sans-Serif" font-size="10.00"> </text>
<polyline fill="none" stroke="#bfbfbf" points="372,-889.5 462,-889.5 "/>
<text text-anchor="middle" x="417" y="-877.5" font-family="Helvetica,sans-Serif" font-size="10.00"> </text>
</g>
<!-- Node14&#45;&gt;Node13 -->
<g id="edge14" class="edge"><title>Node14&#45;&gt;Node13</title>
<path fill="none" stroke="#404040" d="M407.639,-870.207C397.398,-834.157 386.214,-771.148 417,-731 435.762,-706.532 457.428,-728.642 484,-713 506.336,-699.852 526.84,-679.749 542.708,-661.503"/>
<polygon fill="none" stroke="#404040" points="542.834,-661.353 543.643,-654.188 550.568,-652.178 549.759,-659.343 542.834,-661.353"/>
<text text-anchor="middle" x="445.5" y="-739.5" font-family="Helvetica,sans-Serif" font-size="10.00"> +elements</text>
</g>
<!-- Node15&#45;&gt;Node13 -->
<g id="edge15" class="edge"><title>Node15&#45;&gt;Node13</title>
<path fill="none" stroke="orange" d="M657.684,-860.166C653.083,-825.83 644.432,-774.13 630,-731 620.789,-703.472 606.151,-674.076 594.292,-652.31"/>
<polygon fill="orange" stroke="orange" points="654.232,-860.766 658.984,-870.235 661.175,-859.869 654.232,-860.766"/>
<text text-anchor="start" x="636" y="-745" font-family="Helvetica,sans-Serif" font-size="10.00"> &lt; Ra::Engine::Ra::Engine</text>
<text text-anchor="middle" x="696.5" y="-734" font-family="Helvetica,sans-Serif" font-size="10.00">::LightManager * &gt;</text>
</g>
<!-- Node16 -->
<g id="node16" class="node"><title>Node16</title>
<polygon fill="white" stroke="#bfbfbf" points="1093.5,-584 1093.5,-652 1236.5,-652 1236.5,-584 1093.5,-584"/>
<text text-anchor="start" x="1101.5" y="-640" font-family="Helvetica,sans-Serif" font-size="10.00">std::vector&lt; RenderObject</text>
<text text-anchor="middle" x="1165" y="-629" font-family="Helvetica,sans-Serif" font-size="10.00">Ptr &gt;</text>
<polyline fill="none" stroke="#bfbfbf" points="1093.5,-622 1236.5,-622 "/>
<text text-anchor="middle" x="1165" y="-610" font-family="Helvetica,sans-Serif" font-size="10.00"> </text>
<polyline fill="none" stroke="#bfbfbf" points="1093.5,-603 1236.5,-603 "/>
<text text-anchor="middle" x="1165" y="-591" font-family="Helvetica,sans-Serif" font-size="10.00"> </text>
</g>
<!-- Node15&#45;&gt;Node16 -->
<g id="edge20" class="edge"><title>Node15&#45;&gt;Node16</title>
<path fill="none" stroke="orange" d="M718.749,-865.439C771.397,-836.572 852.74,-795.328 928,-771 970.553,-757.245 985.737,-770.245 1027,-753 1041.28,-747.033 1072.53,-723.385 1084,-713 1104.44,-694.494 1124.69,-670.994 1139.83,-652.121"/>
<polygon fill="orange" stroke="orange" points="716.97,-862.423 709.906,-870.319 720.352,-868.552 716.97,-862.423"/>
<text text-anchor="middle" x="1112.5" y="-739.5" font-family="Helvetica,sans-Serif" font-size="10.00"> &lt; RenderObjectPtr &gt;</text>
</g>
<!-- Node16&#45;&gt;Node1 -->
<g id="edge18" class="edge"><title>Node16&#45;&gt;Node1</title>
<path fill="none" stroke="#404040" d="M1144.19,-583.827C1122.29,-550.48 1085.55,-498.744 1046,-461 963.03,-381.824 851.561,-309.794 778.068,-266.088"/>
<polygon fill="none" stroke="#404040" points="777.839,-265.952 770.638,-266.343 767.508,-259.847 774.708,-259.456 777.839,-265.952"/>
<text text-anchor="middle" x="1148.5" y="-497" font-family="Helvetica,sans-Serif" font-size="10.00"> #m_uiRenderObjects</text>
<text text-anchor="middle" x="1148.5" y="-486" font-family="Helvetica,sans-Serif" font-size="10.00">#m_debugRenderObjects</text>
<text text-anchor="middle" x="1148.5" y="-475" font-family="Helvetica,sans-Serif" font-size="10.00">#m_fancyRenderObjects</text>
<text text-anchor="middle" x="1148.5" y="-464" font-family="Helvetica,sans-Serif" font-size="10.00">#m_xrayRenderObjects</text>
</g>
<!-- Node17 -->
<g id="node17" class="node"><title>Node17</title>
<polygon fill="white" stroke="#bfbfbf" points="1128,-870.5 1128,-927.5 1222,-927.5 1222,-870.5 1128,-870.5"/>
<text text-anchor="middle" x="1175" y="-915.5" font-family="Helvetica,sans-Serif" font-size="10.00">RenderObjectPtr</text>
<polyline fill="none" stroke="#bfbfbf" points="1128,-908.5 1222,-908.5 "/>
<text text-anchor="middle" x="1175" y="-896.5" font-family="Helvetica,sans-Serif" font-size="10.00"> </text>
<polyline fill="none" stroke="#bfbfbf" points="1128,-889.5 1222,-889.5 "/>
<text text-anchor="middle" x="1175" y="-877.5" font-family="Helvetica,sans-Serif" font-size="10.00"> </text>
</g>
<!-- Node17&#45;&gt;Node16 -->
<g id="edge19" class="edge"><title>Node17&#45;&gt;Node16</title>
<path fill="none" stroke="#404040" d="M1174.01,-870.485C1172.29,-822.456 1168.72,-722.879 1166.63,-664.465"/>
<polygon fill="none" stroke="#404040" points="1166.62,-664.3 1162.41,-658.448 1166.19,-652.308 1170.41,-658.161 1166.62,-664.3"/>
<text text-anchor="middle" x="1198.5" y="-739.5" font-family="Helvetica,sans-Serif" font-size="10.00"> +elements</text>
</g>
<!-- Node18 -->
<g id="node18" class="node"><title>Node18</title>
<g id="a_node18"><a xlink:href="classint.html" target="_top" xlink:title="{int\n||}">
<polygon fill="white" stroke="black" points="675.5,-589.5 675.5,-646.5 704.5,-646.5 704.5,-589.5 675.5,-589.5"/>
<text text-anchor="middle" x="690" y="-634.5" font-family="Helvetica,sans-Serif" font-size="10.00">int</text>
<polyline fill="none" stroke="black" points="675.5,-627.5 704.5,-627.5 "/>
<text text-anchor="middle" x="690" y="-615.5" font-family="Helvetica,sans-Serif" font-size="10.00"> </text>
<polyline fill="none" stroke="black" points="675.5,-608.5 704.5,-608.5 "/>
<text text-anchor="middle" x="690" y="-596.5" font-family="Helvetica,sans-Serif" font-size="10.00"> </text>
</a>
</g>
</g>
<!-- Node18&#45;&gt;Node1 -->
<g id="edge21" class="edge"><title>Node18&#45;&gt;Node1</title>
<path fill="none" stroke="#404040" d="M682.891,-589.284C674.769,-557.513 662.522,-509.24 662,-505 659.992,-488.689 659.16,-471.858 659.234,-454.917"/>
<polygon fill="none" stroke="#404040" points="659.24,-454.566 655.342,-448.499 659.444,-442.568 663.341,-448.635 659.24,-454.566"/>
<text text-anchor="middle" x="690.5" y="-486" font-family="Helvetica,sans-Serif" font-size="10.00"> #m_height</text>
<text text-anchor="middle" x="690.5" y="-475" font-family="Helvetica,sans-Serif" font-size="10.00">#m_width</text>
</g>
<!-- Node19 -->
<g id="node19" class="node"><title>Node19</title>
<g id="a_node19"><a xlink:href="classbool.html" target="_top" xlink:title="{bool\n||}">
<polygon fill="white" stroke="black" points="722.5,-589.5 722.5,-646.5 759.5,-646.5 759.5,-589.5 722.5,-589.5"/>
<text text-anchor="middle" x="741" y="-634.5" font-family="Helvetica,sans-Serif" font-size="10.00">bool</text>
<polyline fill="none" stroke="black" points="722.5,-627.5 759.5,-627.5 "/>
<text text-anchor="middle" x="741" y="-615.5" font-family="Helvetica,sans-Serif" font-size="10.00"> </text>
<polyline fill="none" stroke="black" points="722.5,-608.5 759.5,-608.5 "/>
<text text-anchor="middle" x="741" y="-596.5" font-family="Helvetica,sans-Serif" font-size="10.00"> </text>
</a>
</g>
</g>
<!-- Node19&#45;&gt;Node1 -->
<g id="edge22" class="edge"><title>Node19&#45;&gt;Node1</title>
<path fill="none" stroke="#404040" d="M738.187,-589.26C735.164,-559.44 730.047,-508.98 724.562,-454.877"/>
<polygon fill="none" stroke="#404040" points="724.559,-454.855 719.975,-449.289 723.349,-442.916 727.934,-448.482 724.559,-454.855"/>
<text text-anchor="middle" x="801" y="-497" font-family="Helvetica,sans-Serif" font-size="10.00"> #m_renderQueuesUpToDate</text>
<text text-anchor="middle" x="801" y="-486" font-family="Helvetica,sans-Serif" font-size="10.00">#m_postProcessEnabled</text>
<text text-anchor="middle" x="801" y="-475" font-family="Helvetica,sans-Serif" font-size="10.00">#m_wireframe</text>
<text text-anchor="middle" x="801" y="-464" font-family="Helvetica,sans-Serif" font-size="10.00">#m_drawDebug</text>
</g>
<!-- Node20 -->
<g id="node20" class="node"><title>Node20</title>
<g id="a_node20"><a xlink:href="classRa_1_1Engine_1_1RenderObjectManager.html" target="_top" xlink:title="{Ra::Engine::RenderObject\lManager\n||+ RenderObjectManager()\l+ ~RenderObjectManager()\l+ addRenderObject()\l+ removeRenderObject()\l+ getRenderObjectsCount()\l+ getRenderObject()\l+ getRenderObjects()\l+ getRenderObjectsByType()\l+ exists()\l+ renderObjectExpired()\l+ getNumFaces()\l+ getNumVertices()\l}">
<polygon fill="white" stroke="black" points="777.5,-523.5 777.5,-712.5 930.5,-712.5 930.5,-523.5 777.5,-523.5"/>
<text text-anchor="start" x="785.5" y="-700.5" font-family="Helvetica,sans-Serif" font-size="10.00">Ra::Engine::RenderObject</text>
<text text-anchor="middle" x="854" y="-689.5" font-family="Helvetica,sans-Serif" font-size="10.00">Manager</text>
<polyline fill="none" stroke="black" points="777.5,-682.5 930.5,-682.5 "/>
<text text-anchor="middle" x="854" y="-670.5" font-family="Helvetica,sans-Serif" font-size="10.00"> </text>
<polyline fill="none" stroke="black" points="777.5,-663.5 930.5,-663.5 "/>
<text text-anchor="start" x="785.5" y="-651.5" font-family="Helvetica,sans-Serif" font-size="10.00">+ RenderObjectManager()</text>
<text text-anchor="start" x="785.5" y="-640.5" font-family="Helvetica,sans-Serif" font-size="10.00">+ ~RenderObjectManager()</text>
<text text-anchor="start" x="785.5" y="-629.5" font-family="Helvetica,sans-Serif" font-size="10.00">+ addRenderObject()</text>
<text text-anchor="start" x="785.5" y="-618.5" font-family="Helvetica,sans-Serif" font-size="10.00">+ removeRenderObject()</text>
<text text-anchor="start" x="785.5" y="-607.5" font-family="Helvetica,sans-Serif" font-size="10.00">+ getRenderObjectsCount()</text>
<text text-anchor="start" x="785.5" y="-596.5" font-family="Helvetica,sans-Serif" font-size="10.00">+ getRenderObject()</text>
<text text-anchor="start" x="785.5" y="-585.5" font-family="Helvetica,sans-Serif" font-size="10.00">+ getRenderObjects()</text>
<text text-anchor="start" x="785.5" y="-574.5" font-family="Helvetica,sans-Serif" font-size="10.00">+ getRenderObjectsByType()</text>
<text text-anchor="start" x="785.5" y="-563.5" font-family="Helvetica,sans-Serif" font-size="10.00">+ exists()</text>
<text text-anchor="start" x="785.5" y="-552.5" font-family="Helvetica,sans-Serif" font-size="10.00">+ renderObjectExpired()</text>
<text text-anchor="start" x="785.5" y="-541.5" font-family="Helvetica,sans-Serif" font-size="10.00">+ getNumFaces()</text>
<text text-anchor="start" x="785.5" y="-530.5" font-family="Helvetica,sans-Serif" font-size="10.00">+ getNumVertices()</text>
</a>
</g>
</g>
<!-- Node20&#45;&gt;Node1 -->
<g id="edge23" class="edge"><title>Node20&#45;&gt;Node1</title>
<path fill="none" stroke="#404040" d="M880.93,-523.383C883.159,-502.529 882.47,-480.754 876,-461 856.003,-399.943 813.759,-341.605 775.786,-297.91"/>
<polygon fill="none" stroke="#404040" points="775.698,-297.81 768.729,-295.958 767.758,-288.812 774.727,-290.664 775.698,-297.81"/>
<text text-anchor="middle" x="910.5" y="-480.5" font-family="Helvetica,sans-Serif" font-size="10.00"> #m_roMgr</text>
</g>
<!-- Node21&#45;&gt;Node1 -->
<g id="edge24" class="edge"><title>Node21&#45;&gt;Node1</title>
<path fill="none" stroke="#404040" d="M423.648,-583.733C429.351,-550.776 441.212,-499.756 464,-461 505.518,-390.389 572.73,-325.528 624.993,-281.329"/>
<polygon fill="none" stroke="#404040" points="625.033,-281.296 627.068,-274.377 634.236,-273.595 632.202,-280.513 625.033,-281.296"/>
<text text-anchor="middle" x="507.5" y="-486" font-family="Helvetica,sans-Serif" font-size="10.00"> #m_fancyTexture</text>
<text text-anchor="middle" x="507.5" y="-475" font-family="Helvetica,sans-Serif" font-size="10.00">#m_depthTexture</text>
</g>
<!-- Node22&#45;&gt;Node21 -->
<g id="edge26" class="edge"><title>Node22&#45;&gt;Node21</title>
<path fill="none" stroke="orange" d="M526.28,-860.753C515.12,-826.52 497.214,-774.624 478,-731 466.041,-703.848 450.287,-674.186 438.067,-652.213"/>
<polygon fill="orange" stroke="orange" points="522.976,-861.912 529.383,-870.35 529.637,-859.758 522.976,-861.912"/>
<text text-anchor="middle" x="544.5" y="-739.5" font-family="Helvetica,sans-Serif" font-size="10.00"> &lt; Ra::Engine::Texture &gt;</text>
</g>
<!-- Node23 -->
<g id="node23" class="node"><title>Node23</title>
<polygon fill="white" stroke="#bfbfbf" points="948.5,-584 948.5,-652 1075.5,-652 1075.5,-584 948.5,-584"/>
<text text-anchor="start" x="956.5" y="-640" font-family="Helvetica,sans-Serif" font-size="10.00">std::unique_ptr&lt; Ra</text>
<text text-anchor="middle" x="1012" y="-629" font-family="Helvetica,sans-Serif" font-size="10.00">::Engine::Displayable &gt;</text>
<polyline fill="none" stroke="#bfbfbf" points="948.5,-622 1075.5,-622 "/>
<text text-anchor="middle" x="1012" y="-610" font-family="Helvetica,sans-Serif" font-size="10.00"> </text>
<polyline fill="none" stroke="#bfbfbf" points="948.5,-603 1075.5,-603 "/>
<text text-anchor="start" x="956.5" y="-591" font-family="Helvetica,sans-Serif" font-size="10.00">+ operator&#45;&gt;()</text>
</g>
<!-- Node22&#45;&gt;Node23 -->
<g id="edge31" class="edge"><title>Node22&#45;&gt;Node23</title>
<path fill="none" stroke="orange" d="M547.446,-860.413C556.905,-831.051 574.543,-791.842 605,-771 633.799,-751.293 726.594,-758.834 761,-753 763.498,-752.576 936.861,-714.358 939,-713 962.548,-698.047 981.561,-672.724 994.273,-652.127"/>
<polygon fill="orange" stroke="orange" points="543.988,-859.757 544.434,-870.342 550.687,-861.789 543.988,-859.757"/>
<text text-anchor="middle" x="929.5" y="-739.5" font-family="Helvetica,sans-Serif" font-size="10.00"> &lt; Ra::Engine::Displayable &gt;</text>
</g>
<!-- Node23&#45;&gt;Node1 -->
<g id="edge28" class="edge"><title>Node23&#45;&gt;Node1</title>
<path fill="none" stroke="#404040" d="M1001.16,-583.799C989.511,-550.893 968.976,-499.911 942,-461 895.333,-393.686 828.197,-329.087 776.631,-284.138"/>
<polygon fill="none" stroke="#404040" points="776.595,-284.107 769.44,-283.208 767.519,-276.258 774.673,-277.157 776.595,-284.107"/>
<text text-anchor="middle" x="1004" y="-480.5" font-family="Helvetica,sans-Serif" font-size="10.00"> #m_quadMesh</text>
</g>
<!-- Node24 -->
<g id="node24" class="node"><title>Node24</title>
<g id="a_node24"><a xlink:href="classRa_1_1Engine_1_1Displayable.html" target="_top" xlink:title="Base class of any displayable object. ">
<polygon fill="white" stroke="black" points="937,-810 937,-988 1065,-988 1065,-810 937,-810"/>
<text text-anchor="middle" x="1001" y="-976" font-family="Helvetica,sans-Serif" font-size="10.00">Ra::Engine::Displayable</text>
<polyline fill="none" stroke="black" points="937,-969 1065,-969 "/>
<text text-anchor="middle" x="1001" y="-957" font-family="Helvetica,sans-Serif" font-size="10.00"> </text>
<polyline fill="none" stroke="black" points="937,-950 1065,-950 "/>
<text text-anchor="start" x="945" y="-938" font-family="Helvetica,sans-Serif" font-size="10.00">+ Displayable()</text>
<text text-anchor="start" x="945" y="-927" font-family="Helvetica,sans-Serif" font-size="10.00">+ Displayable()</text>
<text text-anchor="start" x="945" y="-916" font-family="Helvetica,sans-Serif" font-size="10.00">+ operator=()</text>
<text text-anchor="start" x="945" y="-905" font-family="Helvetica,sans-Serif" font-size="10.00">+ ~Displayable()</text>
<text text-anchor="start" x="945" y="-894" font-family="Helvetica,sans-Serif" font-size="10.00">+ pickingRenderMode()</text>
<text text-anchor="start" x="945" y="-883" font-family="Helvetica,sans-Serif" font-size="10.00">+ getName()</text>
<text text-anchor="start" x="945" y="-872" font-family="Helvetica,sans-Serif" font-size="10.00">+ getGeometry()</text>
<text text-anchor="start" x="945" y="-861" font-family="Helvetica,sans-Serif" font-size="10.00">+ getGeometry()</text>
<text text-anchor="start" x="945" y="-850" font-family="Helvetica,sans-Serif" font-size="10.00">+ updateGL()</text>
<text text-anchor="start" x="945" y="-839" font-family="Helvetica,sans-Serif" font-size="10.00">+ render()</text>
<text text-anchor="start" x="945" y="-828" font-family="Helvetica,sans-Serif" font-size="10.00">+ getNumFaces()</text>
<text text-anchor="start" x="945" y="-817" font-family="Helvetica,sans-Serif" font-size="10.00">+ getNumVertices()</text>
</a>
</g>
</g>
<!-- Node24&#45;&gt;Node23 -->
<g id="edge29" class="edge"><title>Node24&#45;&gt;Node23</title>
<path fill="none" stroke="#404040" d="M1000.16,-809.993C1000.29,-784.498 1000.78,-756.63 1002,-731 1003.04,-709.038 1005.11,-684.723 1007.09,-664.376"/>
<polygon fill="none" stroke="#404040" points="1007.1,-664.216 1003.72,-657.847 1008.3,-652.276 1011.68,-658.645 1007.1,-664.216"/>
<text text-anchor="middle" x="1014.5" y="-739.5" font-family="Helvetica,sans-Serif" font-size="10.00"> +ptr</text>
</g>
<!-- Node25 -->
<g id="node25" class="node"><title>Node25</title>
<polygon fill="white" stroke="#bfbfbf" points="946.5,-1074.5 946.5,-1131.5 1055.5,-1131.5 1055.5,-1074.5 946.5,-1074.5"/>
<text text-anchor="middle" x="1001" y="-1119.5" font-family="Helvetica,sans-Serif" font-size="10.00">PickingRenderMode</text>
<polyline fill="none" stroke="#bfbfbf" points="946.5,-1112.5 1055.5,-1112.5 "/>
<text text-anchor="middle" x="1001" y="-1100.5" font-family="Helvetica,sans-Serif" font-size="10.00"> </text>
<polyline fill="none" stroke="#bfbfbf" points="946.5,-1093.5 1055.5,-1093.5 "/>
<text text-anchor="middle" x="1001" y="-1081.5" font-family="Helvetica,sans-Serif" font-size="10.00"> </text>
</g>
<!-- Node25&#45;&gt;Node24 -->
<g id="edge30" class="edge"><title>Node25&#45;&gt;Node24</title>
<path fill="none" stroke="#404040" d="M1001,-1074.34C1001,-1054.85 1001,-1027.47 1001,-1000.17"/>
<polygon fill="none" stroke="#404040" points="1001,-1000.08 997,-994.078 1001,-988.078 1005,-994.078 1001,-1000.08"/>
<text text-anchor="middle" x="1060.5" y="-1048" font-family="Helvetica,sans-Serif" font-size="10.00"> #m_pickingRenderMode</text>
</g>
<!-- Node26 -->
<g id="node26" class="node"><title>Node26</title>
<g id="a_node26"><a xlink:href="classRa_1_1Engine_1_1ShaderProgramManager.html" target="_top" xlink:title="Manage the set of shaders used by Radium Engine for rendering. ">
<polygon fill="white" stroke="black" points="1254.5,-551 1254.5,-685 1463.5,-685 1463.5,-551 1254.5,-551"/>
<text text-anchor="start" x="1262.5" y="-673" font-family="Helvetica,sans-Serif" font-size="10.00">Ra::Engine::ShaderProgram</text>
<text text-anchor="middle" x="1359" y="-662" font-family="Helvetica,sans-Serif" font-size="10.00">Manager</text>
<polyline fill="none" stroke="black" points="1254.5,-655 1463.5,-655 "/>
<text text-anchor="middle" x="1359" y="-643" font-family="Helvetica,sans-Serif" font-size="10.00"> </text>
<polyline fill="none" stroke="black" points="1254.5,-636 1463.5,-636 "/>
<text text-anchor="start" x="1262.5" y="-624" font-family="Helvetica,sans-Serif" font-size="10.00">+ addShaderProgram()</text>
<text text-anchor="start" x="1262.5" y="-613" font-family="Helvetica,sans-Serif" font-size="10.00">+ getShaderProgram()</text>
<text text-anchor="start" x="1262.5" y="-602" font-family="Helvetica,sans-Serif" font-size="10.00">+ getShaderProgram()</text>
<text text-anchor="start" x="1262.5" y="-591" font-family="Helvetica,sans-Serif" font-size="10.00">+ reloadAllShaderPrograms()</text>
<text text-anchor="start" x="1262.5" y="-580" font-family="Helvetica,sans-Serif" font-size="10.00">+ reloadNotCompiledShaderPrograms()</text>
<text text-anchor="start" x="1262.5" y="-569" font-family="Helvetica,sans-Serif" font-size="10.00">+ addNamedString()</text>
<text text-anchor="start" x="1262.5" y="-558" font-family="Helvetica,sans-Serif" font-size="10.00">+ reloadNamedString()</text>
</a>
</g>
</g>
<!-- Node26&#45;&gt;Node1 -->
<g id="edge32" class="edge"><title>Node26&#45;&gt;Node1</title>
<path fill="none" stroke="#404040" d="M1307.46,-550.691C1281.72,-520.614 1248.69,-486.22 1214,-461 1074.25,-359.415 884.341,-284.827 779.187,-248.098"/>
<polygon fill="none" stroke="#404040" points="779.064,-248.056 772.085,-249.871 767.725,-244.128 774.704,-242.312 779.064,-248.056"/>
<text text-anchor="middle" x="1302" y="-480.5" font-family="Helvetica,sans-Serif" font-size="10.00"> #m_shaderMgr</text>
</g>
</g>
</svg>
