<?xml version="1.0" encoding="UTF-8" standalone="no"?>
<!DOCTYPE svg PUBLIC "-//W3C//DTD SVG 1.1//EN"
 "http://www.w3.org/Graphics/SVG/1.1/DTD/svg11.dtd">
<!-- Generated by graphviz version 2.38.0 (20140413.2041)
 -->
<!-- Title: Ra::Gui::GizmoManager Pages: 1 -->
<svg width="441pt" height="497pt"
 viewBox="0.00 0.00 440.50 497.00" xmlns="http://www.w3.org/2000/svg" xmlns:xlink="http://www.w3.org/1999/xlink">
<g id="graph0" class="graph" transform="scale(1 1) rotate(0) translate(4 493)">
<title>Ra::Gui::GizmoManager</title>
<polygon fill="white" stroke="none" points="-4,4 -4,-493 436.5,-493 436.5,4 -4,4"/>
<!-- Node1 -->
<g id="node1" class="node"><title>Node1</title>
<polygon fill="#bfbfbf" stroke="black" points="69,-0.5 69,-178.5 232,-178.5 232,-0.5 69,-0.5"/>
<text text-anchor="middle" x="150.5" y="-166.5" font-family="Helvetica,sans-Serif" font-size="10.00">Ra::Gui::GizmoManager</text>
<polyline fill="none" stroke="black" points="69,-159.5 232,-159.5 "/>
<text text-anchor="start" x="77" y="-147.5" font-family="Helvetica,sans-Serif" font-size="10.00">+ EIGEN_MAKE_ALIGNED</text>
<text text-anchor="start" x="77" y="-136.5" font-family="Helvetica,sans-Serif" font-size="10.00">_OPERATOR_NEW</text>
<polyline fill="none" stroke="black" points="69,-129.5 232,-129.5 "/>
<text text-anchor="start" x="77" y="-117.5" font-family="Helvetica,sans-Serif" font-size="10.00">+ GizmoManager()</text>
<text text-anchor="start" x="77" y="-106.5" font-family="Helvetica,sans-Serif" font-size="10.00">+ ~GizmoManager()</text>
<text text-anchor="start" x="77" y="-95.5" font-family="Helvetica,sans-Serif" font-size="10.00">+ handleMousePressEvent()</text>
<text text-anchor="start" x="77" y="-84.5" font-family="Helvetica,sans-Serif" font-size="10.00">+ handleMouseReleaseEvent()</text>
<text text-anchor="start" x="77" y="-73.5" font-family="Helvetica,sans-Serif" font-size="10.00">+ handleMouseMoveEvent()</text>
<text text-anchor="start" x="77" y="-62.5" font-family="Helvetica,sans-Serif" font-size="10.00">+ setEditable()</text>
<text text-anchor="start" x="77" y="-51.5" font-family="Helvetica,sans-Serif" font-size="10.00">+ cleanup()</text>
<text text-anchor="start" x="77" y="-40.5" font-family="Helvetica,sans-Serif" font-size="10.00">+ handlePickingResult()</text>
<text text-anchor="start" x="77" y="-29.5" font-family="Helvetica,sans-Serif" font-size="10.00">+ setLocal()</text>
<text text-anchor="start" x="77" y="-18.5" font-family="Helvetica,sans-Serif" font-size="10.00">+ changeGizmoType()</text>
<text text-anchor="start" x="77" y="-7.5" font-family="Helvetica,sans-Serif" font-size="10.00">+ updateValues()</text>
</g>
<!-- Node2 -->
<g id="node2" class="node"><title>Node2</title>
<g id="a_node2"><a xlink:href="classQObject.html" target="_top" xlink:title="{QObject\n||}">
<polygon fill="white" stroke="black" points="0,-260.5 0,-317.5 55,-317.5 55,-260.5 0,-260.5"/>
<text text-anchor="middle" x="27.5" y="-305.5" font-family="Helvetica,sans-Serif" font-size="10.00">QObject</text>
<polyline fill="none" stroke="black" points="0,-298.5 55,-298.5 "/>
<text text-anchor="middle" x="27.5" y="-286.5" font-family="Helvetica,sans-Serif" font-size="10.00"> </text>
<polyline fill="none" stroke="black" points="0,-279.5 55,-279.5 "/>
<text text-anchor="middle" x="27.5" y="-267.5" font-family="Helvetica,sans-Serif" font-size="10.00"> </text>
</a>
</g>
</g>
<!-- Node2&#45;&gt;Node1 -->
<g id="edge1" class="edge"><title>Node2&#45;&gt;Node1</title>
<path fill="none" stroke="midnightblue" d="M44.7896,-250.901C50.4266,-239.522 56.9324,-227.084 63.5,-216 70.7979,-203.684 78.888,-190.979 87.1114,-178.598"/>
<polygon fill="none" stroke="midnightblue" points="41.5129,-249.636 40.2766,-260.158 47.805,-252.703 41.5129,-249.636"/>
</g>
<!-- Node3 -->
<g id="node3" class="node"><title>Node3</title>
<g id="a_node3"><a xlink:href="classRa_1_1GuiBase_1_1TransformEditor.html" target="_top" xlink:title="{Ra::GuiBase::TransformEditor\n|# m_transform\l# m_currentEdit\l|+ TransformEditor()\l+ ~TransformEditor()\l+ setEditable()\l+ updateValues()\l# getTransform()\l# setTransform()\l# canEdit()\l# getWorldTransform()\l}">
<polygon fill="white" stroke="black" points="73,-216.5 73,-361.5 228,-361.5 228,-216.5 73,-216.5"/>
<text text-anchor="middle" x="150.5" y="-349.5" font-family="Helvetica,sans-Serif" font-size="10.00">Ra::GuiBase::TransformEditor</text>
<polyline fill="none" stroke="black" points="73,-342.5 228,-342.5 "/>
<text text-anchor="start" x="81" y="-330.5" font-family="Helvetica,sans-Serif" font-size="10.00"># m_transform</text>
<text text-anchor="start" x="81" y="-319.5" font-family="Helvetica,sans-Serif" font-size="10.00"># m_currentEdit</text>
<polyline fill="none" stroke="black" points="73,-312.5 228,-312.5 "/>
<text text-anchor="start" x="81" y="-300.5" font-family="Helvetica,sans-Serif" font-size="10.00">+ TransformEditor()</text>
<text text-anchor="start" x="81" y="-289.5" font-family="Helvetica,sans-Serif" font-size="10.00">+ ~TransformEditor()</text>
<text text-anchor="start" x="81" y="-278.5" font-family="Helvetica,sans-Serif" font-size="10.00">+ setEditable()</text>
<text text-anchor="start" x="81" y="-267.5" font-family="Helvetica,sans-Serif" font-size="10.00">+ updateValues()</text>
<text text-anchor="start" x="81" y="-256.5" font-family="Helvetica,sans-Serif" font-size="10.00"># getTransform()</text>
<text text-anchor="start" x="81" y="-245.5" font-family="Helvetica,sans-Serif" font-size="10.00"># setTransform()</text>
<text text-anchor="start" x="81" y="-234.5" font-family="Helvetica,sans-Serif" font-size="10.00"># canEdit()</text>
<text text-anchor="start" x="81" y="-223.5" font-family="Helvetica,sans-Serif" font-size="10.00"># getWorldTransform()</text>
</a>
</g>
</g>
<!-- Node3&#45;&gt;Node1 -->
<g id="edge2" class="edge"><title>Node3&#45;&gt;Node1</title>
<path fill="none" stroke="midnightblue" d="M150.5,-206.248C150.5,-197.15 150.5,-187.854 150.5,-178.681"/>
<polygon fill="none" stroke="midnightblue" points="147,-206.419 150.5,-216.419 154,-206.419 147,-206.419"/>
</g>
<!-- Node4 -->
<g id="node4" class="node"><title>Node4</title>
<g id="a_node4"><a xlink:href="classRa_1_1Gui_1_1KeyMappingManageable.html" target="_top" xlink:title="{Ra::Gui::KeyMappingManageable\l\&lt; GizmoManager \&gt;\n|# m_keyMappingContext\l|+ getContext()\l+ configureKeyMapping()\l# self()\l}">
<polygon fill="white" stroke="black" points="246.5,-244 246.5,-334 418.5,-334 418.5,-244 246.5,-244"/>
<text text-anchor="start" x="254.5" y="-322" font-family="Helvetica,sans-Serif" font-size="10.00">Ra::Gui::KeyMappingManageable</text>
<text text-anchor="middle" x="332.5" y="-311" font-family="Helvetica,sans-Serif" font-size="10.00">&lt; GizmoManager &gt;</text>
<polyline fill="none" stroke="black" points="246.5,-304 418.5,-304 "/>
<text text-anchor="start" x="254.5" y="-292" font-family="Helvetica,sans-Serif" font-size="10.00"># m_keyMappingContext</text>
<polyline fill="none" stroke="black" points="246.5,-285 418.5,-285 "/>
<text text-anchor="start" x="254.5" y="-273" font-family="Helvetica,sans-Serif" font-size="10.00">+ getContext()</text>
<text text-anchor="start" x="254.5" y="-262" font-family="Helvetica,sans-Serif" font-size="10.00">+ configureKeyMapping()</text>
<text text-anchor="start" x="254.5" y="-251" font-family="Helvetica,sans-Serif" font-size="10.00"># self()</text>
</a>
</g>
</g>
<!-- Node4&#45;&gt;Node1 -->
<g id="edge3" class="edge"><title>Node4&#45;&gt;Node1</title>
<path fill="none" stroke="midnightblue" d="M284.849,-236.291C268.605,-218.663 249.955,-198.425 231.824,-178.75"/>
<polygon fill="none" stroke="midnightblue" points="282.305,-238.695 291.656,-243.677 287.453,-233.952 282.305,-238.695"/>
</g>
<!-- Node5 -->
<g id="node5" class="node"><title>Node5</title>
<g id="a_node5"><a xlink:href="classRa_1_1Gui_1_1KeyMappingManageable.html" target="_top" xlink:title="KeyMappingManageable decorate, typical use as a CRTP : class MyClass : public KeyMappingManageable&lt;My...">
<polygon fill="white" stroke="black" points="232.5,-409.5 232.5,-488.5 432.5,-488.5 432.5,-409.5 232.5,-409.5"/>
<text text-anchor="middle" x="332.5" y="-476.5" font-family="Helvetica,sans-Serif" font-size="10.00">Ra::Gui::KeyMappingManageable&lt; T &gt;</text>
<polyline fill="none" stroke="black" points="232.5,-469.5 432.5,-469.5 "/>
<text text-anchor="start" x="240.5" y="-457.5" font-family="Helvetica,sans-Serif" font-size="10.00"># m_keyMappingContext</text>
<polyline fill="none" stroke="black" points="232.5,-450.5 432.5,-450.5 "/>
<text text-anchor="start" x="240.5" y="-438.5" font-family="Helvetica,sans-Serif" font-size="10.00">+ getContext()</text>
<text text-anchor="start" x="240.5" y="-427.5" font-family="Helvetica,sans-Serif" font-size="10.00">+ configureKeyMapping()</text>
<text text-anchor="start" x="240.5" y="-416.5" font-family="Helvetica,sans-Serif" font-size="10.00"># self()</text>
</a>
</g>
</g>
<!-- Node5&#45;&gt;Node4 -->
<g id="edge4" class="edge"><title>Node5&#45;&gt;Node4</title>
<path fill="none" stroke="orange" d="M332.5,-399.137C332.5,-378.37 332.5,-354.335 332.5,-334.114"/>
<polygon fill="orange" stroke="orange" points="329,-399.349 332.5,-409.349 336,-399.349 329,-399.349"/>
<text text-anchor="middle" x="382" y="-383" font-family="Helvetica,sans-Serif" font-size="10.00"> &lt; GizmoManager &gt;</text>
</g>
</g>
</svg>
