<?xml version="1.0" encoding="UTF-8" standalone="no"?>
<!DOCTYPE svg PUBLIC "-//W3C//DTD SVG 1.1//EN"
 "http://www.w3.org/Graphics/SVG/1.1/DTD/svg11.dtd">
<!-- Generated by graphviz version 2.38.0 (20140413.2041)
 -->
<!-- Title: Ra::Gui::Viewer::setupKeyMappingCallbacks Pages: 1 -->
<svg width="353pt" height="50pt"
 viewBox="0.00 0.00 353.00 50.00" xmlns="http://www.w3.org/2000/svg" xmlns:xlink="http://www.w3.org/1999/xlink">
<g id="graph0" class="graph" transform="scale(1 1) rotate(0) translate(4 46)">
<title>Ra::Gui::Viewer::setupKeyMappingCallbacks</title>
<polygon fill="white" stroke="none" points="-4,4 -4,-46 349,-46 349,4 -4,4"/>
<!-- Node1 -->
<g id="node1" class="node"><title>Node1</title>
<polygon fill="#bfbfbf" stroke="black" points="0,-6 0,-36 137,-36 137,-6 0,-6"/>
<text text-anchor="start" x="8" y="-24" font-family="Helvetica,sans-Serif" font-size="10.00">Ra::Gui::Viewer::setupKey</text>
<text text-anchor="middle" x="68.5" y="-13" font-family="Helvetica,sans-Serif" font-size="10.00">MappingCallbacks</text>
</g>
<!-- Node2 -->
<g id="node2" class="node"><title>Node2</title>
<g id="a_node2"><a xlink:href="classRa_1_1Gui_1_1KeyMappingManageable.html#a32756ab3dce798b29ccad350f7c815ec" target="_top" xlink:title="KeyManageable class should implement static configureKeyMapping_impl to get their keyMappingAction co...">
<polygon fill="white" stroke="black" points="173,-0.5 173,-41.5 345,-41.5 345,-0.5 173,-0.5"/>
<text text-anchor="start" x="181" y="-29.5" font-family="Helvetica,sans-Serif" font-size="10.00">Ra::Gui::KeyMappingManageable</text>
<text text-anchor="start" x="181" y="-18.5" font-family="Helvetica,sans-Serif" font-size="10.00">&lt; TrackballCameraManipulator</text>
<text text-anchor="middle" x="259" y="-7.5" font-family="Helvetica,sans-Serif" font-size="10.00"> &gt;::configureKeyMapping</text>
</a>
</g>
</g>
<!-- Node1&#45;&gt;Node2 -->
<g id="edge1" class="edge"><title>Node1&#45;&gt;Node2</title>
<path fill="none" stroke="midnightblue" d="M137.02,-14.4973C145.373,-14.3388 154.03,-14.2565 162.7,-14.2504"/>
<polygon fill="midnightblue" stroke="midnightblue" points="162.855,-17.7507 172.864,-14.2781 162.874,-10.7507 162.855,-17.7507"/>
</g>
<!-- Node1&#45;&gt;Node2 -->
<g id="edge2" class="edge"><title>Node1&#45;&gt;Node2</title>
<path fill="none" stroke="midnightblue" d="M137.02,-27.5027C145.373,-27.6612 154.03,-27.7435 162.7,-27.7496"/>
<polygon fill="midnightblue" stroke="midnightblue" points="162.874,-31.2493 172.864,-27.7219 162.855,-24.2493 162.874,-31.2493"/>
</g>
</g>
</svg>
