<?xml version="1.0" encoding="UTF-8" standalone="no"?>
<!DOCTYPE svg PUBLIC "-//W3C//DTD SVG 1.1//EN"
 "http://www.w3.org/Graphics/SVG/1.1/DTD/svg11.dtd">
<!-- Generated by graphviz version 2.38.0 (20140413.2041)
 -->
<!-- Title: Ra::Core::Geometry::TopologicalMesh::TopologicalMesh Pages: 1 -->
<svg width="558pt" height="276pt"
 viewBox="0.00 0.00 558.00 276.00" xmlns="http://www.w3.org/2000/svg" xmlns:xlink="http://www.w3.org/1999/xlink">
<g id="graph0" class="graph" transform="scale(1 1) rotate(0) translate(4 272)">
<title>Ra::Core::Geometry::TopologicalMesh::TopologicalMesh</title>
<polygon fill="white" stroke="none" points="-4,4 -4,-272 554,-272 554,4 -4,4"/>
<!-- Node1 -->
<g id="node1" class="node"><title>Node1</title>
<polygon fill="#bfbfbf" stroke="black" points="0,-71.5 0,-101.5 183,-101.5 183,-71.5 0,-71.5"/>
<text text-anchor="start" x="8" y="-89.5" font-family="Helvetica,sans-Serif" font-size="10.00">Ra::Core::Geometry</text>
<text text-anchor="middle" x="91.5" y="-78.5" font-family="Helvetica,sans-Serif" font-size="10.00">::TopologicalMesh::TopologicalMesh</text>
</g>
<!-- Node2 -->
<g id="node2" class="node"><title>Node2</title>
<g id="a_node2"><a xlink:href="namespaceRa_1_1Core_1_1Geometry.html#ac203cde4c478d1097bd622341cd381c8" target="_top" xlink:title="Ra::Core::Geometry\l::addAttribPairToTopo">
<polygon fill="white" stroke="black" points="225.5,-139.5 225.5,-169.5 341.5,-169.5 341.5,-139.5 225.5,-139.5"/>
<text text-anchor="start" x="233.5" y="-157.5" font-family="Helvetica,sans-Serif" font-size="10.00">Ra::Core::Geometry</text>
<text text-anchor="middle" x="283.5" y="-146.5" font-family="Helvetica,sans-Serif" font-size="10.00">::addAttribPairToTopo</text>
</a>
</g>
</g>
<!-- Node1&#45;&gt;Node2 -->
<g id="edge1" class="edge"><title>Node1&#45;&gt;Node2</title>
<path fill="none" stroke="midnightblue" d="M134.667,-101.591C163.079,-111.76 200.734,-125.236 230.93,-136.043"/>
<polygon fill="midnightblue" stroke="midnightblue" points="229.856,-139.376 240.451,-139.451 232.215,-132.786 229.856,-139.376"/>
</g>
<!-- Node6 -->
<g id="node6" class="node"><title>Node6</title>
<g id="a_node6"><a xlink:href="classRa_1_1Core_1_1Geometry_1_1TriangleMesh.html#a6ef9dbd18c0501f2ffd1316be6be56ce" target="_top" xlink:title="Access the vertices positions. ">
<polygon fill="white" stroke="black" points="403,-90.5 403,-120.5 531,-120.5 531,-90.5 403,-90.5"/>
<text text-anchor="start" x="411" y="-108.5" font-family="Helvetica,sans-Serif" font-size="10.00">Ra::Core::Geometry</text>
<text text-anchor="middle" x="467" y="-97.5" font-family="Helvetica,sans-Serif" font-size="10.00">::TriangleMesh::vertices</text>
</a>
</g>
</g>
<!-- Node1&#45;&gt;Node6 -->
<g id="edge6" class="edge"><title>Node1&#45;&gt;Node6</title>
<path fill="none" stroke="midnightblue" d="M183.391,-91.1236C247.689,-94.3945 332.789,-98.7235 392.745,-101.774"/>
<polygon fill="midnightblue" stroke="midnightblue" points="392.724,-105.277 402.889,-102.29 393.08,-98.2859 392.724,-105.277"/>
</g>
<!-- Node7 -->
<g id="node7" class="node"><title>Node7</title>
<g id="a_node7"><a xlink:href="classRa_1_1Core_1_1Geometry_1_1TriangleMesh.html#ad7d3f6272b902171740e50232ba56114" target="_top" xlink:title="Access the vertices normals. ">
<polygon fill="white" stroke="black" points="219,-49.5 219,-79.5 348,-79.5 348,-49.5 219,-49.5"/>
<text text-anchor="start" x="227" y="-67.5" font-family="Helvetica,sans-Serif" font-size="10.00">Ra::Core::Geometry</text>
<text text-anchor="middle" x="283.5" y="-56.5" font-family="Helvetica,sans-Serif" font-size="10.00">::TriangleMesh::normals</text>
</a>
</g>
</g>
<!-- Node1&#45;&gt;Node7 -->
<g id="edge7" class="edge"><title>Node1&#45;&gt;Node7</title>
<path fill="none" stroke="midnightblue" d="M183.048,-76.0155C191.678,-75.0162 200.357,-74.0113 208.799,-73.0338"/>
<polygon fill="midnightblue" stroke="midnightblue" points="209.429,-76.4843 218.96,-71.8572 208.624,-69.5307 209.429,-76.4843"/>
</g>
<!-- Node8 -->
<g id="node8" class="node"><title>Node8</title>
<g id="a_node8"><a xlink:href="namespaceRa_1_1Core_1_1Geometry.html#aa1d699281b3cdbd99edf8292e821e85b" target="_top" xlink:title="Ra::Core::Geometry\l::copyAttribToTopo">
<polygon fill="white" stroke="black" points="228,-0.5 228,-30.5 339,-30.5 339,-0.5 228,-0.5"/>
<text text-anchor="start" x="236" y="-18.5" font-family="Helvetica,sans-Serif" font-size="10.00">Ra::Core::Geometry</text>
<text text-anchor="middle" x="283.5" y="-7.5" font-family="Helvetica,sans-Serif" font-size="10.00">::copyAttribToTopo</text>
</a>
</g>
</g>
<!-- Node1&#45;&gt;Node8 -->
<g id="edge8" class="edge"><title>Node1&#45;&gt;Node8</title>
<path fill="none" stroke="midnightblue" d="M132.794,-71.4427C162.015,-60.5234 201.711,-45.6897 232.884,-34.0407"/>
<polygon fill="midnightblue" stroke="midnightblue" points="234.122,-37.3146 242.264,-30.5356 231.671,-30.7575 234.122,-37.3146"/>
</g>
<!-- Node3 -->
<g id="node3" class="node"><title>Node3</title>
<g id="a_node3"><a xlink:href="classRa_1_1Core_1_1Geometry_1_1TriangleMesh.html#a316e86eab4e624183f1bfe5c25f8592c" target="_top" xlink:title="Return the Handle to the attribute with the given name if it exists, an invalid handle otherwise...">
<polygon fill="white" stroke="black" points="384,-237.5 384,-267.5 550,-267.5 550,-237.5 384,-237.5"/>
<text text-anchor="start" x="392" y="-255.5" font-family="Helvetica,sans-Serif" font-size="10.00">Ra::Core::Geometry</text>
<text text-anchor="middle" x="467" y="-244.5" font-family="Helvetica,sans-Serif" font-size="10.00">::TriangleMesh::getAttribHandle</text>
</a>
</g>
</g>
<!-- Node2&#45;&gt;Node3 -->
<g id="edge2" class="edge"><title>Node2&#45;&gt;Node3</title>
<path fill="none" stroke="midnightblue" d="M300.886,-169.6C319.671,-186.183 352.012,-212.568 384,-228.5 387.809,-230.397 391.794,-232.17 395.868,-233.824"/>
<polygon fill="midnightblue" stroke="midnightblue" points="394.902,-237.201 405.493,-237.466 397.379,-230.654 394.902,-237.201"/>
</g>
<!-- Node4 -->
<g id="node4" class="node"><title>Node4</title>
<g id="a_node4"><a xlink:href="classRa_1_1Core_1_1Utils_1_1AttribBase.html#a199a249dfb217c274268c016504b46cc" target="_top" xlink:title="Return the attribute&#39;s name. ">
<polygon fill="white" stroke="black" points="397,-188.5 397,-218.5 537,-218.5 537,-188.5 397,-188.5"/>
<text text-anchor="start" x="405" y="-206.5" font-family="Helvetica,sans-Serif" font-size="10.00">Ra::Core::Utils::AttribBase</text>
<text text-anchor="middle" x="467" y="-195.5" font-family="Helvetica,sans-Serif" font-size="10.00">::getName</text>
</a>
</g>
</g>
<!-- Node2&#45;&gt;Node4 -->
<g id="edge3" class="edge"><title>Node2&#45;&gt;Node4</title>
<path fill="none" stroke="midnightblue" d="M340.437,-169.601C359.416,-174.725 380.79,-180.496 400.45,-185.803"/>
<polygon fill="midnightblue" stroke="midnightblue" points="399.681,-189.221 410.248,-188.448 401.506,-182.463 399.681,-189.221"/>
</g>
<!-- Node5 -->
<g id="node5" class="node"><title>Node5</title>
<g id="a_node5"><a xlink:href="classRa_1_1Core_1_1Utils_1_1AttribBase.html#ae94c4736816374aa285ebb42ef9bdc09" target="_top" xlink:title="Return the number of elements in the attribute content. ">
<polygon fill="white" stroke="black" points="397,-139.5 397,-169.5 537,-169.5 537,-139.5 397,-139.5"/>
<text text-anchor="start" x="405" y="-157.5" font-family="Helvetica,sans-Serif" font-size="10.00">Ra::Core::Utils::AttribBase</text>
<text text-anchor="middle" x="467" y="-146.5" font-family="Helvetica,sans-Serif" font-size="10.00">::getSize</text>
</a>
</g>
</g>
<!-- Node2&#45;&gt;Node5 -->
<g id="edge4" class="edge"><title>Node2&#45;&gt;Node5</title>
<path fill="none" stroke="midnightblue" d="M341.928,-154.5C356.104,-154.5 371.54,-154.5 386.556,-154.5"/>
<polygon fill="midnightblue" stroke="midnightblue" points="386.865,-158 396.865,-154.5 386.865,-151 386.865,-158"/>
</g>
<!-- Node2&#45;&gt;Node6 -->
<g id="edge5" class="edge"><title>Node2&#45;&gt;Node6</title>
<path fill="none" stroke="midnightblue" d="M340.437,-139.399C359.416,-134.275 380.79,-128.504 400.45,-123.197"/>
<polygon fill="midnightblue" stroke="midnightblue" points="401.506,-126.537 410.248,-120.552 399.681,-119.779 401.506,-126.537"/>
</g>
<!-- Node9 -->
<g id="node9" class="node"><title>Node9</title>
<g id="a_node9"><a xlink:href="classRa_1_1Core_1_1Geometry_1_1TriangleMesh.html#a209037ce5a11ec8539a9ada7ba763e8c" target="_top" xlink:title="Get attribute by handle. ">
<polygon fill="white" stroke="black" points="401,-0.5 401,-30.5 533,-30.5 533,-0.5 401,-0.5"/>
<text text-anchor="start" x="409" y="-18.5" font-family="Helvetica,sans-Serif" font-size="10.00">Ra::Core::Geometry</text>
<text text-anchor="middle" x="467" y="-7.5" font-family="Helvetica,sans-Serif" font-size="10.00">::TriangleMesh::getAttrib</text>
</a>
</g>
</g>
<!-- Node8&#45;&gt;Node9 -->
<g id="edge9" class="edge"><title>Node8&#45;&gt;Node9</title>
<path fill="none" stroke="midnightblue" d="M339.449,-15.5C355.584,-15.5 373.518,-15.5 390.691,-15.5"/>
<polygon fill="midnightblue" stroke="midnightblue" points="390.696,-19.0001 400.696,-15.5 390.696,-12.0001 390.696,-19.0001"/>
</g>
</g>
</svg>
