<?xml version="1.0" encoding="UTF-8" standalone="no"?>
<!DOCTYPE svg PUBLIC "-//W3C//DTD SVG 1.1//EN"
 "http://www.w3.org/Graphics/SVG/1.1/DTD/svg11.dtd">
<!-- Generated by graphviz version 2.38.0 (20140413.2041)
 -->
<!-- Title: Ra::Engine::BlinnPhongMaterial Pages: 1 -->
<svg width="749pt" height="1152pt"
 viewBox="0.00 0.00 749.00 1152.00" xmlns="http://www.w3.org/2000/svg" xmlns:xlink="http://www.w3.org/1999/xlink">
<g id="graph0" class="graph" transform="scale(1 1) rotate(0) translate(4 1148)">
<title>Ra::Engine::BlinnPhongMaterial</title>
<polygon fill="white" stroke="none" points="-4,4 -4,-1148 745,-1148 745,4 -4,4"/>
<!-- Node1 -->
<g id="node1" class="node"><title>Node1</title>
<polygon fill="#bfbfbf" stroke="black" points="311.5,-0.5 311.5,-156.5 475.5,-156.5 475.5,-0.5 311.5,-0.5"/>
<text text-anchor="middle" x="393.5" y="-144.5" font-family="Helvetica,sans-Serif" font-size="10.00">Ra::Engine::BlinnPhongMaterial</text>
<polyline fill="none" stroke="black" points="311.5,-137.5 475.5,-137.5 "/>
<text text-anchor="middle" x="393.5" y="-125.5" font-family="Helvetica,sans-Serif" font-size="10.00"> </text>
<polyline fill="none" stroke="black" points="311.5,-118.5 475.5,-118.5 "/>
<text text-anchor="start" x="319.5" y="-106.5" font-family="Helvetica,sans-Serif" font-size="10.00">+ BlinnPhongMaterial()</text>
<text text-anchor="start" x="319.5" y="-95.5" font-family="Helvetica,sans-Serif" font-size="10.00">+ ~BlinnPhongMaterial()</text>
<text text-anchor="start" x="319.5" y="-84.5" font-family="Helvetica,sans-Serif" font-size="10.00">+ updateGL()</text>
<text text-anchor="start" x="319.5" y="-73.5" font-family="Helvetica,sans-Serif" font-size="10.00">+ bind()</text>
<text text-anchor="start" x="319.5" y="-62.5" font-family="Helvetica,sans-Serif" font-size="10.00">+ isTransparent()</text>
<text text-anchor="start" x="319.5" y="-51.5" font-family="Helvetica,sans-Serif" font-size="10.00">+ addTexture()</text>
<text text-anchor="start" x="319.5" y="-40.5" font-family="Helvetica,sans-Serif" font-size="10.00">+ getTexture()</text>
<text text-anchor="start" x="319.5" y="-29.5" font-family="Helvetica,sans-Serif" font-size="10.00">+ addTexture()</text>
<text text-anchor="start" x="319.5" y="-18.5" font-family="Helvetica,sans-Serif" font-size="10.00">+ registerMaterial()</text>
<text text-anchor="start" x="319.5" y="-7.5" font-family="Helvetica,sans-Serif" font-size="10.00">+ unregisterMaterial()</text>
</g>
<!-- Node2 -->
<g id="node2" class="node"><title>Node2</title>
<g id="a_node2"><a xlink:href="classRa_1_1Engine_1_1Material.html" target="_top" xlink:title="Base class for materials/ Do not assume a given Material representation but only make the difference ...">
<polygon fill="white" stroke="black" points="138.5,-336.5 138.5,-481.5 260.5,-481.5 260.5,-336.5 138.5,-336.5"/>
<text text-anchor="middle" x="199.5" y="-469.5" font-family="Helvetica,sans-Serif" font-size="10.00">Ra::Engine::Material</text>
<polyline fill="none" stroke="black" points="138.5,-462.5 260.5,-462.5 "/>
<text text-anchor="middle" x="199.5" y="-450.5" font-family="Helvetica,sans-Serif" font-size="10.00"> </text>
<polyline fill="none" stroke="black" points="138.5,-443.5 260.5,-443.5 "/>
<text text-anchor="start" x="146.5" y="-431.5" font-family="Helvetica,sans-Serif" font-size="10.00">+ ~Material()</text>
<text text-anchor="start" x="146.5" y="-420.5" font-family="Helvetica,sans-Serif" font-size="10.00">+ updateGL()</text>
<text text-anchor="start" x="146.5" y="-409.5" font-family="Helvetica,sans-Serif" font-size="10.00">+ bind()</text>
<text text-anchor="start" x="146.5" y="-398.5" font-family="Helvetica,sans-Serif" font-size="10.00">+ getInstanceName()</text>
<text text-anchor="start" x="146.5" y="-387.5" font-family="Helvetica,sans-Serif" font-size="10.00">+ getMaterialName()</text>
<text text-anchor="start" x="146.5" y="-376.5" font-family="Helvetica,sans-Serif" font-size="10.00">+ setMaterialAspect()</text>
<text text-anchor="start" x="146.5" y="-365.5" font-family="Helvetica,sans-Serif" font-size="10.00">+ getMaterialAspect()</text>
<text text-anchor="start" x="146.5" y="-354.5" font-family="Helvetica,sans-Serif" font-size="10.00">+ isTransparent()</text>
<text text-anchor="start" x="146.5" y="-343.5" font-family="Helvetica,sans-Serif" font-size="10.00"># Material()</text>
</a>
</g>
</g>
<!-- Node2&#45;&gt;Node1 -->
<g id="edge1" class="edge"><title>Node2&#45;&gt;Node1</title>
<path fill="none" stroke="midnightblue" d="M232.183,-326.992C252.308,-280.858 280.206,-222.892 311.5,-175 315.505,-168.872 319.865,-162.712 324.42,-156.634"/>
<polygon fill="none" stroke="midnightblue" points="228.892,-325.784 228.135,-336.352 235.317,-328.563 228.892,-325.784"/>
</g>
<!-- Node3 -->
<g id="node3" class="node"><title>Node3</title>
<polygon fill="white" stroke="#bfbfbf" points="127.5,-815.5 127.5,-872.5 215.5,-872.5 215.5,-815.5 127.5,-815.5"/>
<text text-anchor="middle" x="171.5" y="-860.5" font-family="Helvetica,sans-Serif" font-size="10.00">MaterialAspect</text>
<polyline fill="none" stroke="#bfbfbf" points="127.5,-853.5 215.5,-853.5 "/>
<text text-anchor="middle" x="171.5" y="-841.5" font-family="Helvetica,sans-Serif" font-size="10.00"> </text>
<polyline fill="none" stroke="#bfbfbf" points="127.5,-834.5 215.5,-834.5 "/>
<text text-anchor="middle" x="171.5" y="-822.5" font-family="Helvetica,sans-Serif" font-size="10.00"> </text>
</g>
<!-- Node3&#45;&gt;Node2 -->
<g id="edge2" class="edge"><title>Node3&#45;&gt;Node2</title>
<path fill="none" stroke="#404040" d="M170.535,-815.274C169.317,-773.217 167.894,-690.802 172.5,-621 175.281,-578.845 180.968,-532.233 186.409,-493.564"/>
<polygon fill="none" stroke="#404040" points="186.425,-493.447 183.315,-486.942 188.124,-481.568 191.234,-488.074 186.425,-493.447"/>
<text text-anchor="middle" x="202" y="-624" font-family="Helvetica,sans-Serif" font-size="10.00"> #m_aspect</text>
</g>
<!-- Node4 -->
<g id="node4" class="node"><title>Node4</title>
<g id="a_node4"><a xlink:href="classbool.html" target="_top" xlink:title="{bool\n||}">
<polygon fill="white" stroke="black" points="271,-815.5 271,-872.5 308,-872.5 308,-815.5 271,-815.5"/>
<text text-anchor="middle" x="289.5" y="-860.5" font-family="Helvetica,sans-Serif" font-size="10.00">bool</text>
<polyline fill="none" stroke="black" points="271,-853.5 308,-853.5 "/>
<text text-anchor="middle" x="289.5" y="-841.5" font-family="Helvetica,sans-Serif" font-size="10.00"> </text>
<polyline fill="none" stroke="black" points="271,-834.5 308,-834.5 "/>
<text text-anchor="middle" x="289.5" y="-822.5" font-family="Helvetica,sans-Serif" font-size="10.00"> </text>
</a>
</g>
</g>
<!-- Node4&#45;&gt;Node1 -->
<g id="edge11" class="edge"><title>Node4&#45;&gt;Node1</title>
<path fill="none" stroke="#404040" d="M291.652,-815.355C294.777,-775.044 300.719,-697.77 305.5,-632 318.968,-446.708 290.33,-395.454 334.5,-215 338.292,-199.509 343.72,-183.553 349.767,-168.271"/>
<polygon fill="none" stroke="#404040" points="349.944,-167.838 348.519,-160.769 354.495,-156.734 355.921,-163.803 349.944,-167.838"/>
<text text-anchor="middle" x="384.5" y="-412" font-family="Helvetica,sans-Serif" font-size="10.00"> +m_renderAsSplat</text>
<text text-anchor="middle" x="384.5" y="-401" font-family="Helvetica,sans-Serif" font-size="10.00">+m_hasPerVertexKd</text>
</g>
<!-- Node4&#45;&gt;Node2 -->
<g id="edge3" class="edge"><title>Node4&#45;&gt;Node2</title>
<path fill="none" stroke="#404040" d="M283.733,-815.255C270.493,-751.556 237.481,-592.73 216.936,-493.887"/>
<polygon fill="none" stroke="#404040" points="216.875,-493.593 211.738,-488.532 214.433,-481.844 219.57,-486.904 216.875,-493.593"/>
<text text-anchor="middle" x="273" y="-624" font-family="Helvetica,sans-Serif" font-size="10.00"> #m_isDirty</text>
</g>
<!-- Node5 -->
<g id="node5" class="node"><title>Node5</title>
<g id="a_node5"><a xlink:title="STL class. ">
<polygon fill="white" stroke="#bfbfbf" points="19,-815.5 19,-872.5 84,-872.5 84,-815.5 19,-815.5"/>
<text text-anchor="middle" x="51.5" y="-860.5" font-family="Helvetica,sans-Serif" font-size="10.00">std::string</text>
<polyline fill="none" stroke="#bfbfbf" points="19,-853.5 84,-853.5 "/>
<text text-anchor="middle" x="51.5" y="-841.5" font-family="Helvetica,sans-Serif" font-size="10.00"> </text>
<polyline fill="none" stroke="#bfbfbf" points="19,-834.5 84,-834.5 "/>
<text text-anchor="middle" x="51.5" y="-822.5" font-family="Helvetica,sans-Serif" font-size="10.00"> </text>
</a>
</g>
</g>
<!-- Node5&#45;&gt;Node2 -->
<g id="edge4" class="edge"><title>Node5&#45;&gt;Node2</title>
<path fill="none" stroke="#404040" d="M50.0457,-815.2C48.6728,-772.349 49.4475,-688.092 71.5,-621 86.4805,-575.424 112.844,-529.35 137.767,-491.933"/>
<polygon fill="none" stroke="#404040" points="138.023,-491.555 138.073,-484.344 144.748,-481.617 144.698,-488.828 138.023,-491.555"/>
<text text-anchor="middle" x="120" y="-624" font-family="Helvetica,sans-Serif" font-size="10.00"> #m_instanceName</text>
</g>
<!-- Node6 -->
<g id="node6" class="node"><title>Node6</title>
<g id="a_node6"><a xlink:title="STL class. ">
<polygon fill="white" stroke="#bfbfbf" points="0,-1075.5 0,-1143.5 103,-1143.5 103,-1075.5 0,-1075.5"/>
<text text-anchor="start" x="8" y="-1131.5" font-family="Helvetica,sans-Serif" font-size="10.00">std::basic_string&lt;</text>
<text text-anchor="middle" x="51.5" y="-1120.5" font-family="Helvetica,sans-Serif" font-size="10.00"> char &gt;</text>
<polyline fill="none" stroke="#bfbfbf" points="0,-1113.5 103,-1113.5 "/>
<text text-anchor="middle" x="51.5" y="-1101.5" font-family="Helvetica,sans-Serif" font-size="10.00"> </text>
<polyline fill="none" stroke="#bfbfbf" points="0,-1094.5 103,-1094.5 "/>
<text text-anchor="middle" x="51.5" y="-1082.5" font-family="Helvetica,sans-Serif" font-size="10.00"> </text>
</a>
</g>
</g>
<!-- Node6&#45;&gt;Node5 -->
<g id="edge5" class="edge"><title>Node6&#45;&gt;Node5</title>
<path fill="none" stroke="midnightblue" d="M51.5,-1065.34C51.5,-1010.77 51.5,-918.444 51.5,-872.571"/>
<polygon fill="none" stroke="midnightblue" points="48.0001,-1065.39 51.5,-1075.39 55.0001,-1065.39 48.0001,-1065.39"/>
</g>
<!-- Node7 -->
<g id="node7" class="node"><title>Node7</title>
<polygon fill="white" stroke="#bfbfbf" points="443.5,-380.5 443.5,-437.5 481.5,-437.5 481.5,-380.5 443.5,-380.5"/>
<text text-anchor="middle" x="462.5" y="-425.5" font-family="Helvetica,sans-Serif" font-size="10.00">float</text>
<polyline fill="none" stroke="#bfbfbf" points="443.5,-418.5 481.5,-418.5 "/>
<text text-anchor="middle" x="462.5" y="-406.5" font-family="Helvetica,sans-Serif" font-size="10.00"> </text>
<polyline fill="none" stroke="#bfbfbf" points="443.5,-399.5 481.5,-399.5 "/>
<text text-anchor="middle" x="462.5" y="-387.5" font-family="Helvetica,sans-Serif" font-size="10.00"> </text>
</g>
<!-- Node7&#45;&gt;Node1 -->
<g id="edge6" class="edge"><title>Node7&#45;&gt;Node1</title>
<path fill="none" stroke="#404040" d="M458.577,-380.363C453.058,-342.758 442.236,-273.457 429.5,-215 426.197,-199.839 422.306,-183.826 418.326,-168.325"/>
<polygon fill="none" stroke="#404040" points="418.295,-168.208 412.913,-163.409 415.273,-156.595 420.655,-161.394 418.295,-168.208"/>
<text text-anchor="middle" x="450.5" y="-189" font-family="Helvetica,sans-Serif" font-size="10.00"> +m_ns</text>
<text text-anchor="middle" x="450.5" y="-178" font-family="Helvetica,sans-Serif" font-size="10.00">+m_alpha</text>
</g>
<!-- Node8 -->
<g id="node8" class="node"><title>Node8</title>
<g id="a_node8"><a xlink:href="classRa_1_1Core_1_1Utils_1_1ColorBase.html" target="_top" xlink:title="{Ra::Core::Utils::ColorBase\l\&lt; Scalar \&gt;\n||+ ColorBase()\l+ ColorBase()\l+ ColorBase()\l+ ColorBase()\l+ operator VectorType()\l+ rgb()\l+ rgb()\l+ alpha()\l+ alpha()\l+ toRGBA32()\l+ toARGB32()\l+ sRGBToLinearRGB()\l+ linearRGBTosRGB()\l+ fromRGB()\l+ Alpha()\l+ Black()\l+ Red()\l+ Green()\l+ Blue()\l+ Yellow()\l+ Magenta()\l+ Cyan()\l+ White()\l+ Grey()\l+ Skin()\l+ fromChars()\l+ fromRGBA32()\l+ fromARGB32()\l+ fromHSV()\l+ scatter()\l}">
<polygon fill="white" stroke="black" points="500,-215.5 500,-602.5 639,-602.5 639,-215.5 500,-215.5"/>
<text text-anchor="start" x="508" y="-590.5" font-family="Helvetica,sans-Serif" font-size="10.00">Ra::Core::Utils::ColorBase</text>
<text text-anchor="middle" x="569.5" y="-579.5" font-family="Helvetica,sans-Serif" font-size="10.00">&lt; Scalar &gt;</text>
<polyline fill="none" stroke="black" points="500,-572.5 639,-572.5 "/>
<text text-anchor="middle" x="569.5" y="-560.5" font-family="Helvetica,sans-Serif" font-size="10.00"> </text>
<polyline fill="none" stroke="black" points="500,-553.5 639,-553.5 "/>
<text text-anchor="start" x="508" y="-541.5" font-family="Helvetica,sans-Serif" font-size="10.00">+ ColorBase()</text>
<text text-anchor="start" x="508" y="-530.5" font-family="Helvetica,sans-Serif" font-size="10.00">+ ColorBase()</text>
<text text-anchor="start" x="508" y="-519.5" font-family="Helvetica,sans-Serif" font-size="10.00">+ ColorBase()</text>
<text text-anchor="start" x="508" y="-508.5" font-family="Helvetica,sans-Serif" font-size="10.00">+ ColorBase()</text>
<text text-anchor="start" x="508" y="-497.5" font-family="Helvetica,sans-Serif" font-size="10.00">+ operator VectorType()</text>
<text text-anchor="start" x="508" y="-486.5" font-family="Helvetica,sans-Serif" font-size="10.00">+ rgb()</text>
<text text-anchor="start" x="508" y="-475.5" font-family="Helvetica,sans-Serif" font-size="10.00">+ rgb()</text>
<text text-anchor="start" x="508" y="-464.5" font-family="Helvetica,sans-Serif" font-size="10.00">+ alpha()</text>
<text text-anchor="start" x="508" y="-453.5" font-family="Helvetica,sans-Serif" font-size="10.00">+ alpha()</text>
<text text-anchor="start" x="508" y="-442.5" font-family="Helvetica,sans-Serif" font-size="10.00">+ toRGBA32()</text>
<text text-anchor="start" x="508" y="-431.5" font-family="Helvetica,sans-Serif" font-size="10.00">+ toARGB32()</text>
<text text-anchor="start" x="508" y="-420.5" font-family="Helvetica,sans-Serif" font-size="10.00">+ sRGBToLinearRGB()</text>
<text text-anchor="start" x="508" y="-409.5" font-family="Helvetica,sans-Serif" font-size="10.00">+ linearRGBTosRGB()</text>
<text text-anchor="start" x="508" y="-398.5" font-family="Helvetica,sans-Serif" font-size="10.00">+ fromRGB()</text>
<text text-anchor="start" x="508" y="-387.5" font-family="Helvetica,sans-Serif" font-size="10.00">+ Alpha()</text>
<text text-anchor="start" x="508" y="-376.5" font-family="Helvetica,sans-Serif" font-size="10.00">+ Black()</text>
<text text-anchor="start" x="508" y="-365.5" font-family="Helvetica,sans-Serif" font-size="10.00">+ Red()</text>
<text text-anchor="start" x="508" y="-354.5" font-family="Helvetica,sans-Serif" font-size="10.00">+ Green()</text>
<text text-anchor="start" x="508" y="-343.5" font-family="Helvetica,sans-Serif" font-size="10.00">+ Blue()</text>
<text text-anchor="start" x="508" y="-332.5" font-family="Helvetica,sans-Serif" font-size="10.00">+ Yellow()</text>
<text text-anchor="start" x="508" y="-321.5" font-family="Helvetica,sans-Serif" font-size="10.00">+ Magenta()</text>
<text text-anchor="start" x="508" y="-310.5" font-family="Helvetica,sans-Serif" font-size="10.00">+ Cyan()</text>
<text text-anchor="start" x="508" y="-299.5" font-family="Helvetica,sans-Serif" font-size="10.00">+ White()</text>
<text text-anchor="start" x="508" y="-288.5" font-family="Helvetica,sans-Serif" font-size="10.00">+ Grey()</text>
<text text-anchor="start" x="508" y="-277.5" font-family="Helvetica,sans-Serif" font-size="10.00">+ Skin()</text>
<text text-anchor="start" x="508" y="-266.5" font-family="Helvetica,sans-Serif" font-size="10.00">+ fromChars()</text>
<text text-anchor="start" x="508" y="-255.5" font-family="Helvetica,sans-Serif" font-size="10.00">+ fromRGBA32()</text>
<text text-anchor="start" x="508" y="-244.5" font-family="Helvetica,sans-Serif" font-size="10.00">+ fromARGB32()</text>
<text text-anchor="start" x="508" y="-233.5" font-family="Helvetica,sans-Serif" font-size="10.00">+ fromHSV()</text>
<text text-anchor="start" x="508" y="-222.5" font-family="Helvetica,sans-Serif" font-size="10.00">+ scatter()</text>
</a>
</g>
</g>
<!-- Node8&#45;&gt;Node1 -->
<g id="edge7" class="edge"><title>Node8&#45;&gt;Node1</title>
<path fill="none" stroke="#404040" d="M501.699,-215.486C494.792,-201.487 487.387,-187.84 479.5,-175 477.78,-172.2 475.974,-169.407 474.096,-166.628"/>
<polygon fill="none" stroke="#404040" points="473.958,-166.433 467.224,-163.853 467.015,-156.645 473.749,-159.224 473.958,-166.433"/>
<text text-anchor="middle" x="509" y="-189" font-family="Helvetica,sans-Serif" font-size="10.00"> +m_ks</text>
<text text-anchor="middle" x="509" y="-178" font-family="Helvetica,sans-Serif" font-size="10.00">+m_kd</text>
</g>
<!-- Node9 -->
<g id="node9" class="node"><title>Node9</title>
<polygon fill="white" stroke="#bfbfbf" points="465,-810 465,-878 584,-878 584,-810 465,-810"/>
<text text-anchor="start" x="473" y="-866" font-family="Helvetica,sans-Serif" font-size="10.00">Eigen::Matrix&lt; Scalar</text>
<text text-anchor="middle" x="524.5" y="-855" font-family="Helvetica,sans-Serif" font-size="10.00"> , 4, 1 &gt;</text>
<polyline fill="none" stroke="#bfbfbf" points="465,-848 584,-848 "/>
<text text-anchor="middle" x="524.5" y="-836" font-family="Helvetica,sans-Serif" font-size="10.00"> </text>
<polyline fill="none" stroke="#bfbfbf" points="465,-829 584,-829 "/>
<text text-anchor="middle" x="524.5" y="-817" font-family="Helvetica,sans-Serif" font-size="10.00"> </text>
</g>
<!-- Node9&#45;&gt;Node8 -->
<g id="edge8" class="edge"><title>Node9&#45;&gt;Node8</title>
<path fill="none" stroke="midnightblue" d="M528.996,-799.736C533.827,-753.25 541.843,-676.119 549.475,-602.688"/>
<polygon fill="none" stroke="midnightblue" points="525.509,-799.434 527.956,-809.742 532.471,-800.158 525.509,-799.434"/>
</g>
<!-- Node10 -->
<g id="node10" class="node"><title>Node10</title>
<g id="a_node10"><a xlink:href="classRa_1_1Core_1_1Utils_1_1ColorBase.html" target="_top" xlink:title="{Ra::Core::Utils::ColorBase\l\&lt; _Scalar \&gt;\n||+ ColorBase()\l+ ColorBase()\l+ ColorBase()\l+ ColorBase()\l+ operator VectorType()\l+ rgb()\l+ rgb()\l+ alpha()\l+ alpha()\l+ toRGBA32()\l+ toARGB32()\l+ sRGBToLinearRGB()\l+ linearRGBTosRGB()\l+ fromRGB()\l+ Alpha()\l+ Black()\l+ Red()\l+ Green()\l+ Blue()\l+ Yellow()\l+ Magenta()\l+ Cyan()\l+ White()\l+ Grey()\l+ Skin()\l+ fromChars()\l+ fromRGBA32()\l+ fromARGB32()\l+ fromHSV()\l+ scatter()\l}">
<polygon fill="white" stroke="black" points="602,-650.5 602,-1037.5 741,-1037.5 741,-650.5 602,-650.5"/>
<text text-anchor="start" x="610" y="-1025.5" font-family="Helvetica,sans-Serif" font-size="10.00">Ra::Core::Utils::ColorBase</text>
<text text-anchor="middle" x="671.5" y="-1014.5" font-family="Helvetica,sans-Serif" font-size="10.00">&lt; _Scalar &gt;</text>
<polyline fill="none" stroke="black" points="602,-1007.5 741,-1007.5 "/>
<text text-anchor="middle" x="671.5" y="-995.5" font-family="Helvetica,sans-Serif" font-size="10.00"> </text>
<polyline fill="none" stroke="black" points="602,-988.5 741,-988.5 "/>
<text text-anchor="start" x="610" y="-976.5" font-family="Helvetica,sans-Serif" font-size="10.00">+ ColorBase()</text>
<text text-anchor="start" x="610" y="-965.5" font-family="Helvetica,sans-Serif" font-size="10.00">+ ColorBase()</text>
<text text-anchor="start" x="610" y="-954.5" font-family="Helvetica,sans-Serif" font-size="10.00">+ ColorBase()</text>
<text text-anchor="start" x="610" y="-943.5" font-family="Helvetica,sans-Serif" font-size="10.00">+ ColorBase()</text>
<text text-anchor="start" x="610" y="-932.5" font-family="Helvetica,sans-Serif" font-size="10.00">+ operator VectorType()</text>
<text text-anchor="start" x="610" y="-921.5" font-family="Helvetica,sans-Serif" font-size="10.00">+ rgb()</text>
<text text-anchor="start" x="610" y="-910.5" font-family="Helvetica,sans-Serif" font-size="10.00">+ rgb()</text>
<text text-anchor="start" x="610" y="-899.5" font-family="Helvetica,sans-Serif" font-size="10.00">+ alpha()</text>
<text text-anchor="start" x="610" y="-888.5" font-family="Helvetica,sans-Serif" font-size="10.00">+ alpha()</text>
<text text-anchor="start" x="610" y="-877.5" font-family="Helvetica,sans-Serif" font-size="10.00">+ toRGBA32()</text>
<text text-anchor="start" x="610" y="-866.5" font-family="Helvetica,sans-Serif" font-size="10.00">+ toARGB32()</text>
<text text-anchor="start" x="610" y="-855.5" font-family="Helvetica,sans-Serif" font-size="10.00">+ sRGBToLinearRGB()</text>
<text text-anchor="start" x="610" y="-844.5" font-family="Helvetica,sans-Serif" font-size="10.00">+ linearRGBTosRGB()</text>
<text text-anchor="start" x="610" y="-833.5" font-family="Helvetica,sans-Serif" font-size="10.00">+ fromRGB()</text>
<text text-anchor="start" x="610" y="-822.5" font-family="Helvetica,sans-Serif" font-size="10.00">+ Alpha()</text>
<text text-anchor="start" x="610" y="-811.5" font-family="Helvetica,sans-Serif" font-size="10.00">+ Black()</text>
<text text-anchor="start" x="610" y="-800.5" font-family="Helvetica,sans-Serif" font-size="10.00">+ Red()</text>
<text text-anchor="start" x="610" y="-789.5" font-family="Helvetica,sans-Serif" font-size="10.00">+ Green()</text>
<text text-anchor="start" x="610" y="-778.5" font-family="Helvetica,sans-Serif" font-size="10.00">+ Blue()</text>
<text text-anchor="start" x="610" y="-767.5" font-family="Helvetica,sans-Serif" font-size="10.00">+ Yellow()</text>
<text text-anchor="start" x="610" y="-756.5" font-family="Helvetica,sans-Serif" font-size="10.00">+ Magenta()</text>
<text text-anchor="start" x="610" y="-745.5" font-family="Helvetica,sans-Serif" font-size="10.00">+ Cyan()</text>
<text text-anchor="start" x="610" y="-734.5" font-family="Helvetica,sans-Serif" font-size="10.00">+ White()</text>
<text text-anchor="start" x="610" y="-723.5" font-family="Helvetica,sans-Serif" font-size="10.00">+ Grey()</text>
<text text-anchor="start" x="610" y="-712.5" font-family="Helvetica,sans-Serif" font-size="10.00">+ Skin()</text>
<text text-anchor="start" x="610" y="-701.5" font-family="Helvetica,sans-Serif" font-size="10.00">+ fromChars()</text>
<text text-anchor="start" x="610" y="-690.5" font-family="Helvetica,sans-Serif" font-size="10.00">+ fromRGBA32()</text>
<text text-anchor="start" x="610" y="-679.5" font-family="Helvetica,sans-Serif" font-size="10.00">+ fromARGB32()</text>
<text text-anchor="start" x="610" y="-668.5" font-family="Helvetica,sans-Serif" font-size="10.00">+ fromHSV()</text>
<text text-anchor="start" x="610" y="-657.5" font-family="Helvetica,sans-Serif" font-size="10.00">+ scatter()</text>
</a>
</g>
</g>
<!-- Node10&#45;&gt;Node8 -->
<g id="edge9" class="edge"><title>Node10&#45;&gt;Node8</title>
<path fill="none" stroke="orange" d="M623.733,-640.226C620.786,-627.715 617.825,-615.143 614.888,-602.677"/>
<polygon fill="orange" stroke="orange" points="620.393,-641.312 626.093,-650.243 627.207,-639.707 620.393,-641.312"/>
<text text-anchor="middle" x="648.5" y="-624" font-family="Helvetica,sans-Serif" font-size="10.00"> &lt; Scalar &gt;</text>
</g>
<!-- Node11 -->
<g id="node11" class="node"><title>Node11</title>
<polygon fill="white" stroke="#bfbfbf" points="607.5,-1075.5 607.5,-1143.5 735.5,-1143.5 735.5,-1075.5 607.5,-1075.5"/>
<text text-anchor="start" x="615.5" y="-1131.5" font-family="Helvetica,sans-Serif" font-size="10.00">Eigen::Matrix&lt; _Scalar,</text>
<text text-anchor="middle" x="671.5" y="-1120.5" font-family="Helvetica,sans-Serif" font-size="10.00"> 4, 1 &gt;</text>
<polyline fill="none" stroke="#bfbfbf" points="607.5,-1113.5 735.5,-1113.5 "/>
<text text-anchor="middle" x="671.5" y="-1101.5" font-family="Helvetica,sans-Serif" font-size="10.00"> </text>
<polyline fill="none" stroke="#bfbfbf" points="607.5,-1094.5 735.5,-1094.5 "/>
<text text-anchor="middle" x="671.5" y="-1082.5" font-family="Helvetica,sans-Serif" font-size="10.00"> </text>
</g>
<!-- Node11&#45;&gt;Node10 -->
<g id="edge10" class="edge"><title>Node11&#45;&gt;Node10</title>
<path fill="none" stroke="midnightblue" d="M671.5,-1065.27C671.5,-1056.88 671.5,-1047.6 671.5,-1037.74"/>
<polygon fill="none" stroke="midnightblue" points="668,-1065.39 671.5,-1075.39 675,-1065.39 668,-1065.39"/>
</g>
</g>
</svg>
