<?xml version="1.0" encoding="UTF-8" standalone="no"?>
<!DOCTYPE svg PUBLIC "-//W3C//DTD SVG 1.1//EN"
 "http://www.w3.org/Graphics/SVG/1.1/DTD/svg11.dtd">
<!-- Generated by graphviz version 2.38.0 (20140413.2041)
 -->
<!-- Title: Ra::Gui::CameraManipulator::CameraManipulator Pages: 1 -->
<svg width="933pt" height="480pt"
 viewBox="0.00 0.00 933.00 480.00" xmlns="http://www.w3.org/2000/svg" xmlns:xlink="http://www.w3.org/1999/xlink">
<g id="graph0" class="graph" transform="scale(1 1) rotate(0) translate(4 476)">
<title>Ra::Gui::CameraManipulator::CameraManipulator</title>
<polygon fill="white" stroke="none" points="-4,4 -4,-476 929,-476 929,4 -4,4"/>
<!-- Node1 -->
<g id="node1" class="node"><title>Node1</title>
<polygon fill="#bfbfbf" stroke="black" points="0,-98.5 0,-128.5 151,-128.5 151,-98.5 0,-98.5"/>
<text text-anchor="start" x="8" y="-116.5" font-family="Helvetica,sans-Serif" font-size="10.00">Ra::Gui::CameraManipulator</text>
<text text-anchor="middle" x="75.5" y="-105.5" font-family="Helvetica,sans-Serif" font-size="10.00">::CameraManipulator</text>
</g>
<!-- Node2 -->
<g id="node2" class="node"><title>Node2</title>
<g id="a_node2"><a xlink:href="classRa_1_1Engine_1_1Camera.html#abec46e062874d71bf9cfc9143c889a60" target="_top" xlink:title="Pure virtual method to be overridden by any component. ">
<polygon fill="white" stroke="black" points="207,-294.5 207,-324.5 318,-324.5 318,-294.5 207,-294.5"/>
<text text-anchor="start" x="215" y="-312.5" font-family="Helvetica,sans-Serif" font-size="10.00">Ra::Engine::Camera</text>
<text text-anchor="middle" x="262.5" y="-301.5" font-family="Helvetica,sans-Serif" font-size="10.00">::initialize</text>
</a>
</g>
</g>
<!-- Node1&#45;&gt;Node2 -->
<g id="edge1" class="edge"><title>Node1&#45;&gt;Node2</title>
<path fill="none" stroke="midnightblue" d="M90.7095,-128.554C122.993,-162.758 202.013,-246.476 240.179,-286.912"/>
<polygon fill="midnightblue" stroke="midnightblue" points="237.833,-289.525 247.242,-294.394 242.923,-284.72 237.833,-289.525"/>
</g>
<!-- Node13 -->
<g id="node13" class="node"><title>Node13</title>
<g id="a_node13"><a xlink:href="classRa_1_1Engine_1_1Camera.html#a4c2aac5ad419cef7720e2a18d93b3703" target="_top" xlink:title="Toggle on/off displaying the Camera. ">
<polygon fill="white" stroke="black" points="207,-147.5 207,-177.5 318,-177.5 318,-147.5 207,-147.5"/>
<text text-anchor="start" x="215" y="-165.5" font-family="Helvetica,sans-Serif" font-size="10.00">Ra::Engine::Camera</text>
<text text-anchor="middle" x="262.5" y="-154.5" font-family="Helvetica,sans-Serif" font-size="10.00">::show</text>
</a>
</g>
</g>
<!-- Node1&#45;&gt;Node13 -->
<g id="edge12" class="edge"><title>Node1&#45;&gt;Node13</title>
<path fill="none" stroke="midnightblue" d="M133.263,-128.535C153.436,-133.878 176.288,-139.93 197.055,-145.431"/>
<polygon fill="midnightblue" stroke="midnightblue" points="196.184,-148.821 206.747,-147.998 197.976,-142.054 196.184,-148.821"/>
</g>
<!-- Node15 -->
<g id="node15" class="node"><title>Node15</title>
<g id="a_node15"><a xlink:href="classRa_1_1Gui_1_1CameraManipulator.html#a628cdfc34f5c32874c59011795db317c" target="_top" xlink:title="Ra::Gui::CameraManipulator\l::setCameraFovInDegrees">
<polygon fill="white" stroke="black" points="187,-98.5 187,-128.5 338,-128.5 338,-98.5 187,-98.5"/>
<text text-anchor="start" x="195" y="-116.5" font-family="Helvetica,sans-Serif" font-size="10.00">Ra::Gui::CameraManipulator</text>
<text text-anchor="middle" x="262.5" y="-105.5" font-family="Helvetica,sans-Serif" font-size="10.00">::setCameraFovInDegrees</text>
</a>
</g>
</g>
<!-- Node1&#45;&gt;Node15 -->
<g id="edge14" class="edge"><title>Node1&#45;&gt;Node15</title>
<path fill="none" stroke="midnightblue" d="M151.213,-113.5C159.555,-113.5 168.097,-113.5 176.554,-113.5"/>
<polygon fill="midnightblue" stroke="midnightblue" points="176.809,-117 186.809,-113.5 176.809,-110 176.809,-117"/>
</g>
<!-- Node19 -->
<g id="node19" class="node"><title>Node19</title>
<g id="a_node19"><a xlink:href="classRa_1_1Gui_1_1CameraManipulator.html#a185e3ba5f2743f4b020afef74d7426ac" target="_top" xlink:title="Ra::Gui::CameraManipulator\l::setCameraZNear">
<polygon fill="white" stroke="black" points="187,-49.5 187,-79.5 338,-79.5 338,-49.5 187,-49.5"/>
<text text-anchor="start" x="195" y="-67.5" font-family="Helvetica,sans-Serif" font-size="10.00">Ra::Gui::CameraManipulator</text>
<text text-anchor="middle" x="262.5" y="-56.5" font-family="Helvetica,sans-Serif" font-size="10.00">::setCameraZNear</text>
</a>
</g>
</g>
<!-- Node1&#45;&gt;Node19 -->
<g id="edge18" class="edge"><title>Node1&#45;&gt;Node19</title>
<path fill="none" stroke="midnightblue" d="M133.263,-98.4654C152.797,-93.2917 174.843,-87.4525 195.076,-82.0934"/>
<polygon fill="midnightblue" stroke="midnightblue" points="196.073,-85.45 204.844,-79.5062 194.281,-78.6833 196.073,-85.45"/>
</g>
<!-- Node21 -->
<g id="node21" class="node"><title>Node21</title>
<g id="a_node21"><a xlink:href="classRa_1_1Gui_1_1CameraManipulator.html#ac77a7c75a992261fba709ff10a0835b8" target="_top" xlink:title="Ra::Gui::CameraManipulator\l::setCameraZFar">
<polygon fill="white" stroke="black" points="187,-0.5 187,-30.5 338,-30.5 338,-0.5 187,-0.5"/>
<text text-anchor="start" x="195" y="-18.5" font-family="Helvetica,sans-Serif" font-size="10.00">Ra::Gui::CameraManipulator</text>
<text text-anchor="middle" x="262.5" y="-7.5" font-family="Helvetica,sans-Serif" font-size="10.00">::setCameraZFar</text>
</a>
</g>
</g>
<!-- Node1&#45;&gt;Node21 -->
<g id="edge21" class="edge"><title>Node1&#45;&gt;Node21</title>
<path fill="none" stroke="midnightblue" d="M95.4631,-98.3889C116.719,-82.0429 152.711,-56.1002 187,-39.5 190.784,-37.6681 194.741,-35.9285 198.775,-34.2856"/>
<polygon fill="midnightblue" stroke="midnightblue" points="200.203,-37.4865 208.279,-30.6297 197.69,-30.9531 200.203,-37.4865"/>
</g>
<!-- Node3 -->
<g id="node3" class="node"><title>Node3</title>
<g id="a_node3"><a xlink:href="classRa_1_1Core_1_1Geometry_1_1TriangleMesh.html#a6ef9dbd18c0501f2ffd1316be6be56ce" target="_top" xlink:title="Access the vertices positions. ">
<polygon fill="white" stroke="black" points="395.5,-441.5 395.5,-471.5 523.5,-471.5 523.5,-441.5 395.5,-441.5"/>
<text text-anchor="start" x="403.5" y="-459.5" font-family="Helvetica,sans-Serif" font-size="10.00">Ra::Core::Geometry</text>
<text text-anchor="middle" x="459.5" y="-448.5" font-family="Helvetica,sans-Serif" font-size="10.00">::TriangleMesh::vertices</text>
</a>
</g>
</g>
<!-- Node2&#45;&gt;Node3 -->
<g id="edge2" class="edge"><title>Node2&#45;&gt;Node3</title>
<path fill="none" stroke="midnightblue" d="M273.056,-324.878C290.082,-350.989 328.213,-403.934 374,-432.5 377.815,-434.88 381.872,-437.03 386.065,-438.972"/>
<polygon fill="midnightblue" stroke="midnightblue" points="384.844,-442.255 395.419,-442.898 387.553,-435.801 384.844,-442.255"/>
</g>
<!-- Node4 -->
<g id="node4" class="node"><title>Node4</title>
<g id="a_node4"><a xlink:href="classRa_1_1Engine_1_1RenderObject.html#a5c19c3b781f875b033277849f22bc956" target="_top" xlink:title="Sort of factory method to easily create a render object. ">
<polygon fill="white" stroke="black" points="391,-392.5 391,-422.5 528,-422.5 528,-392.5 391,-392.5"/>
<text text-anchor="start" x="399" y="-410.5" font-family="Helvetica,sans-Serif" font-size="10.00">Ra::Engine::RenderObject</text>
<text text-anchor="middle" x="459.5" y="-399.5" font-family="Helvetica,sans-Serif" font-size="10.00">::createRenderObject</text>
</a>
</g>
</g>
<!-- Node2&#45;&gt;Node4 -->
<g id="edge3" class="edge"><title>Node2&#45;&gt;Node4</title>
<path fill="none" stroke="midnightblue" d="M281.972,-324.539C303.081,-341.068 339.217,-367.404 374,-383.5 378.273,-385.477 382.745,-387.327 387.305,-389.051"/>
<polygon fill="midnightblue" stroke="midnightblue" points="386.159,-392.358 396.753,-392.413 388.505,-385.763 386.159,-392.358"/>
</g>
<!-- Node7 -->
<g id="node7" class="node"><title>Node7</title>
<g id="a_node7"><a xlink:href="classRa_1_1Engine_1_1RenderObject.html#acc91aff99b91e06143b28940ec49d0e0" target="_top" xlink:title="Ra::Engine::RenderObject\l::getRenderTechnique">
<polygon fill="white" stroke="black" points="391,-343.5 391,-373.5 528,-373.5 528,-343.5 391,-343.5"/>
<text text-anchor="start" x="399" y="-361.5" font-family="Helvetica,sans-Serif" font-size="10.00">Ra::Engine::RenderObject</text>
<text text-anchor="middle" x="459.5" y="-350.5" font-family="Helvetica,sans-Serif" font-size="10.00">::getRenderTechnique</text>
</a>
</g>
</g>
<!-- Node2&#45;&gt;Node7 -->
<g id="edge6" class="edge"><title>Node2&#45;&gt;Node7</title>
<path fill="none" stroke="midnightblue" d="M318.078,-323.214C340.063,-328.739 365.686,-335.177 388.98,-341.031"/>
<polygon fill="midnightblue" stroke="midnightblue" points="388.252,-344.457 398.804,-343.499 389.958,-337.668 388.252,-344.457"/>
</g>
<!-- Node8 -->
<g id="node8" class="node"><title>Node8</title>
<g id="a_node8"><a xlink:href="namespaceRa_1_1Engine_1_1ShaderConfigurationFactory.html#a0bc60f21dbabd745961037f3d2f019c8" target="_top" xlink:title="Get a configuration from the factory. ">
<polygon fill="white" stroke="black" points="374,-294.5 374,-324.5 545,-324.5 545,-294.5 374,-294.5"/>
<text text-anchor="start" x="382" y="-312.5" font-family="Helvetica,sans-Serif" font-size="10.00">Ra::Engine::ShaderConfiguration</text>
<text text-anchor="middle" x="459.5" y="-301.5" font-family="Helvetica,sans-Serif" font-size="10.00">Factory::getConfiguration</text>
</a>
</g>
</g>
<!-- Node2&#45;&gt;Node8 -->
<g id="edge7" class="edge"><title>Node2&#45;&gt;Node8</title>
<path fill="none" stroke="midnightblue" d="M318.078,-309.5C332.311,-309.5 348.07,-309.5 363.734,-309.5"/>
<polygon fill="midnightblue" stroke="midnightblue" points="363.997,-313 373.997,-309.5 363.997,-306 363.997,-313"/>
</g>
<!-- Node10 -->
<g id="node10" class="node"><title>Node10</title>
<g id="a_node10"><a xlink:href="classRa_1_1Engine_1_1RenderObject.html#a2d6a1bc2b7646fe0912035a2ece24864" target="_top" xlink:title="Ra::Engine::RenderObject\l::setLocalTransform">
<polygon fill="white" stroke="black" points="391,-245.5 391,-275.5 528,-275.5 528,-245.5 391,-245.5"/>
<text text-anchor="start" x="399" y="-263.5" font-family="Helvetica,sans-Serif" font-size="10.00">Ra::Engine::RenderObject</text>
<text text-anchor="middle" x="459.5" y="-252.5" font-family="Helvetica,sans-Serif" font-size="10.00">::setLocalTransform</text>
</a>
</g>
</g>
<!-- Node2&#45;&gt;Node10 -->
<g id="edge9" class="edge"><title>Node2&#45;&gt;Node10</title>
<path fill="none" stroke="midnightblue" d="M318.078,-295.786C340.063,-290.261 365.686,-283.823 388.98,-277.969"/>
<polygon fill="midnightblue" stroke="midnightblue" points="389.958,-281.332 398.804,-275.501 388.252,-274.543 389.958,-281.332"/>
</g>
<!-- Node11 -->
<g id="node11" class="node"><title>Node11</title>
<g id="a_node11"><a xlink:href="classRa_1_1Engine_1_1Component.html#aea20d8186eb969b255cd83218a809178" target="_top" xlink:title="Add a new render object to the component. This adds the RO to the manager for drawing. ">
<polygon fill="white" stroke="black" points="395,-196.5 395,-226.5 524,-226.5 524,-196.5 395,-196.5"/>
<text text-anchor="start" x="403" y="-214.5" font-family="Helvetica,sans-Serif" font-size="10.00">Ra::Engine::Component</text>
<text text-anchor="middle" x="459.5" y="-203.5" font-family="Helvetica,sans-Serif" font-size="10.00">::addRenderObject</text>
</a>
</g>
</g>
<!-- Node2&#45;&gt;Node11 -->
<g id="edge10" class="edge"><title>Node2&#45;&gt;Node11</title>
<path fill="none" stroke="midnightblue" d="M282.424,-294.455C303.645,-278.21 339.607,-252.512 374,-236.5 379.028,-234.159 384.326,-231.98 389.717,-229.964"/>
<polygon fill="midnightblue" stroke="midnightblue" points="391.222,-233.144 399.483,-226.511 388.888,-226.544 391.222,-233.144"/>
</g>
<!-- Node5 -->
<g id="node5" class="node"><title>Node5</title>
<g id="a_node5"><a xlink:href="classRa_1_1Engine_1_1RenderObject.html#acf300c8fdb55fee54d27b3fb46a1e523" target="_top" xlink:title="A &#45;1 (or any other negative value) lifetime is considered infinite, 0 is an &quot;invalid value&quot; (would me...">
<polygon fill="white" stroke="black" points="598,-392.5 598,-422.5 735,-422.5 735,-392.5 598,-392.5"/>
<text text-anchor="start" x="606" y="-410.5" font-family="Helvetica,sans-Serif" font-size="10.00">Ra::Engine::RenderObject</text>
<text text-anchor="middle" x="666.5" y="-399.5" font-family="Helvetica,sans-Serif" font-size="10.00">::RenderObject</text>
</a>
</g>
</g>
<!-- Node4&#45;&gt;Node5 -->
<g id="edge4" class="edge"><title>Node4&#45;&gt;Node5</title>
<path fill="none" stroke="midnightblue" d="M528.193,-407.5C547.261,-407.5 568.153,-407.5 587.759,-407.5"/>
<polygon fill="midnightblue" stroke="midnightblue" points="587.878,-411 597.878,-407.5 587.878,-404 587.878,-411"/>
</g>
<!-- Node6 -->
<g id="node6" class="node"><title>Node6</title>
<g id="a_node6"><a xlink:href="classRa_1_1Engine_1_1RenderObject.html#a8ea17931e62bea93890d44815bf7fcf5" target="_top" xlink:title="Ra::Engine::RenderObject\l::~RenderObject">
<polygon fill="white" stroke="black" points="788,-392.5 788,-422.5 925,-422.5 925,-392.5 788,-392.5"/>
<text text-anchor="start" x="796" y="-410.5" font-family="Helvetica,sans-Serif" font-size="10.00">Ra::Engine::RenderObject</text>
<text text-anchor="middle" x="856.5" y="-399.5" font-family="Helvetica,sans-Serif" font-size="10.00">::~RenderObject</text>
</a>
</g>
</g>
<!-- Node5&#45;&gt;Node6 -->
<g id="edge5" class="edge"><title>Node5&#45;&gt;Node6</title>
<path fill="none" stroke="midnightblue" d="M735.107,-407.5C748.914,-407.5 763.549,-407.5 777.68,-407.5"/>
<polygon fill="midnightblue" stroke="midnightblue" points="777.862,-411 787.862,-407.5 777.862,-404 777.862,-411"/>
</g>
<!-- Node9 -->
<g id="node9" class="node"><title>Node9</title>
<g id="a_node9"><a xlink:href="classRa_1_1Engine_1_1ShaderConfiguration.html#a7e20a600c78e8627f0238b342f4b42f2" target="_top" xlink:title="Ra::Engine::ShaderConfiguration\l::getDefaultShaderConfig">
<polygon fill="white" stroke="black" points="581,-294.5 581,-324.5 752,-324.5 752,-294.5 581,-294.5"/>
<text text-anchor="start" x="589" y="-312.5" font-family="Helvetica,sans-Serif" font-size="10.00">Ra::Engine::ShaderConfiguration</text>
<text text-anchor="middle" x="666.5" y="-301.5" font-family="Helvetica,sans-Serif" font-size="10.00">::getDefaultShaderConfig</text>
</a>
</g>
</g>
<!-- Node8&#45;&gt;Node9 -->
<g id="edge8" class="edge"><title>Node8&#45;&gt;Node9</title>
<path fill="none" stroke="midnightblue" d="M545.065,-309.5C553.547,-309.5 562.198,-309.5 570.777,-309.5"/>
<polygon fill="midnightblue" stroke="midnightblue" points="570.799,-313 580.799,-309.5 570.799,-306 570.799,-313"/>
</g>
<!-- Node12 -->
<g id="node12" class="node"><title>Node12</title>
<g id="a_node12"><a xlink:href="classRa_1_1Engine_1_1Component.html#a10b0bc182b76165744ebea603ae32dfe" target="_top" xlink:title="Shortcut to access the render object manager. ">
<polygon fill="white" stroke="black" points="602,-196.5 602,-226.5 731,-226.5 731,-196.5 602,-196.5"/>
<text text-anchor="start" x="610" y="-214.5" font-family="Helvetica,sans-Serif" font-size="10.00">Ra::Engine::Component</text>
<text text-anchor="middle" x="666.5" y="-203.5" font-family="Helvetica,sans-Serif" font-size="10.00">::getRoMgr</text>
</a>
</g>
</g>
<!-- Node11&#45;&gt;Node12 -->
<g id="edge11" class="edge"><title>Node11&#45;&gt;Node12</title>
<path fill="none" stroke="midnightblue" d="M524.24,-211.5C545.644,-211.5 569.693,-211.5 591.797,-211.5"/>
<polygon fill="midnightblue" stroke="midnightblue" points="591.8,-215 601.8,-211.5 591.8,-208 591.8,-215"/>
</g>
<!-- Node14 -->
<g id="node14" class="node"><title>Node14</title>
<g id="a_node14"><a xlink:href="classRa_1_1Engine_1_1RenderObject.html#a62e0eb3a7de5a7d352b565a28260cc06" target="_top" xlink:title="Ra::Engine::RenderObject\l::setVisible">
<polygon fill="white" stroke="black" points="391,-147.5 391,-177.5 528,-177.5 528,-147.5 391,-147.5"/>
<text text-anchor="start" x="399" y="-165.5" font-family="Helvetica,sans-Serif" font-size="10.00">Ra::Engine::RenderObject</text>
<text text-anchor="middle" x="459.5" y="-154.5" font-family="Helvetica,sans-Serif" font-size="10.00">::setVisible</text>
</a>
</g>
</g>
<!-- Node13&#45;&gt;Node14 -->
<g id="edge13" class="edge"><title>Node13&#45;&gt;Node14</title>
<path fill="none" stroke="midnightblue" d="M318.078,-162.5C337.443,-162.5 359.631,-162.5 380.564,-162.5"/>
<polygon fill="midnightblue" stroke="midnightblue" points="380.722,-166 390.722,-162.5 380.722,-159 380.722,-166"/>
</g>
<!-- Node16 -->
<g id="node16" class="node"><title>Node16</title>
<g id="a_node16"><a xlink:href="classRa_1_1Engine_1_1Camera.html#a4b14dc7687e1796d7180b7d567809293" target="_top" xlink:title="Set the Field Of View to &#39;fov&#39;. ">
<polygon fill="white" stroke="black" points="404,-98.5 404,-128.5 515,-128.5 515,-98.5 404,-98.5"/>
<text text-anchor="start" x="412" y="-116.5" font-family="Helvetica,sans-Serif" font-size="10.00">Ra::Engine::Camera</text>
<text text-anchor="middle" x="459.5" y="-105.5" font-family="Helvetica,sans-Serif" font-size="10.00">::setFOV</text>
</a>
</g>
</g>
<!-- Node15&#45;&gt;Node16 -->
<g id="edge15" class="edge"><title>Node15&#45;&gt;Node16</title>
<path fill="none" stroke="midnightblue" d="M338.056,-113.5C356.477,-113.5 376.056,-113.5 393.956,-113.5"/>
<polygon fill="midnightblue" stroke="midnightblue" points="393.993,-117 403.993,-113.5 393.993,-110 393.993,-117"/>
</g>
<!-- Node17 -->
<g id="node17" class="node"><title>Node17</title>
<g id="a_node17"><a xlink:href="classRa_1_1Engine_1_1Camera.html#a2124136d939bd433f9630e23c403cdd6" target="_top" xlink:title="Update the projection matrix according to the current parameters. ">
<polygon fill="white" stroke="black" points="611,-49.5 611,-79.5 722,-79.5 722,-49.5 611,-49.5"/>
<text text-anchor="start" x="619" y="-67.5" font-family="Helvetica,sans-Serif" font-size="10.00">Ra::Engine::Camera</text>
<text text-anchor="middle" x="666.5" y="-56.5" font-family="Helvetica,sans-Serif" font-size="10.00">::updateProjMatrix</text>
</a>
</g>
</g>
<!-- Node16&#45;&gt;Node17 -->
<g id="edge16" class="edge"><title>Node16&#45;&gt;Node17</title>
<path fill="none" stroke="midnightblue" d="M515.167,-100.433C541.576,-94.1208 573.446,-86.503 601.034,-79.909"/>
<polygon fill="midnightblue" stroke="midnightblue" points="602.073,-83.2593 610.985,-77.5303 600.446,-76.451 602.073,-83.2593"/>
</g>
<!-- Node18 -->
<g id="node18" class="node"><title>Node18</title>
<g id="a_node18"><a xlink:href="namespaceRa_1_1Core_1_1Geometry.html#aa04e6052d8911b1df1bd881474debb45" target="_top" xlink:title="Ra::Core::Geometry::t">
<polygon fill="white" stroke="black" points="796.5,-55 796.5,-74 916.5,-74 916.5,-55 796.5,-55"/>
<text text-anchor="middle" x="856.5" y="-62" font-family="Helvetica,sans-Serif" font-size="10.00">Ra::Core::Geometry::t</text>
</a>
</g>
</g>
<!-- Node17&#45;&gt;Node18 -->
<g id="edge17" class="edge"><title>Node17&#45;&gt;Node18</title>
<path fill="none" stroke="midnightblue" d="M722.13,-64.5C742.161,-64.5 765.103,-64.5 786.247,-64.5"/>
<polygon fill="midnightblue" stroke="midnightblue" points="786.462,-68.0001 796.461,-64.5 786.461,-61.0001 786.462,-68.0001"/>
</g>
<!-- Node20 -->
<g id="node20" class="node"><title>Node20</title>
<g id="a_node20"><a xlink:href="classRa_1_1Engine_1_1Camera.html#a92a62d6c690e51b17c9345eaa7959c7e" target="_top" xlink:title="Set the Z Near plane distance to &#39;zNear&#39;. ">
<polygon fill="white" stroke="black" points="404,-49.5 404,-79.5 515,-79.5 515,-49.5 404,-49.5"/>
<text text-anchor="start" x="412" y="-67.5" font-family="Helvetica,sans-Serif" font-size="10.00">Ra::Engine::Camera</text>
<text text-anchor="middle" x="459.5" y="-56.5" font-family="Helvetica,sans-Serif" font-size="10.00">::setZNear</text>
</a>
</g>
</g>
<!-- Node19&#45;&gt;Node20 -->
<g id="edge19" class="edge"><title>Node19&#45;&gt;Node20</title>
<path fill="none" stroke="midnightblue" d="M338.056,-64.5C356.477,-64.5 376.056,-64.5 393.956,-64.5"/>
<polygon fill="midnightblue" stroke="midnightblue" points="393.993,-68.0001 403.993,-64.5 393.993,-61.0001 393.993,-68.0001"/>
</g>
<!-- Node20&#45;&gt;Node17 -->
<g id="edge20" class="edge"><title>Node20&#45;&gt;Node17</title>
<path fill="none" stroke="midnightblue" d="M515.167,-64.5C541.46,-64.5 573.167,-64.5 600.67,-64.5"/>
<polygon fill="midnightblue" stroke="midnightblue" points="600.985,-68.0001 610.985,-64.5 600.985,-61.0001 600.985,-68.0001"/>
</g>
<!-- Node22 -->
<g id="node22" class="node"><title>Node22</title>
<g id="a_node22"><a xlink:href="classRa_1_1Engine_1_1Camera.html#a6c0c48dc4842c871a0544977c79412a1" target="_top" xlink:title="Set the Z Far plane distance to &#39;zFar&#39;. ">
<polygon fill="white" stroke="black" points="404,-0.5 404,-30.5 515,-30.5 515,-0.5 404,-0.5"/>
<text text-anchor="start" x="412" y="-18.5" font-family="Helvetica,sans-Serif" font-size="10.00">Ra::Engine::Camera</text>
<text text-anchor="middle" x="459.5" y="-7.5" font-family="Helvetica,sans-Serif" font-size="10.00">::setZFar</text>
</a>
</g>
</g>
<!-- Node21&#45;&gt;Node22 -->
<g id="edge22" class="edge"><title>Node21&#45;&gt;Node22</title>
<path fill="none" stroke="midnightblue" d="M338.056,-15.5C356.477,-15.5 376.056,-15.5 393.956,-15.5"/>
<polygon fill="midnightblue" stroke="midnightblue" points="393.993,-19.0001 403.993,-15.5 393.993,-12.0001 393.993,-19.0001"/>
</g>
<!-- Node22&#45;&gt;Node17 -->
<g id="edge23" class="edge"><title>Node22&#45;&gt;Node17</title>
<path fill="none" stroke="midnightblue" d="M515.167,-28.5667C541.576,-34.8792 573.446,-42.497 601.034,-49.091"/>
<polygon fill="midnightblue" stroke="midnightblue" points="600.446,-52.549 610.985,-51.4697 602.073,-45.7407 600.446,-52.549"/>
</g>
</g>
</svg>
