<?xml version="1.0" encoding="UTF-8" standalone="no"?>
<!DOCTYPE svg PUBLIC "-//W3C//DTD SVG 1.1//EN"
 "http://www.w3.org/Graphics/SVG/1.1/DTD/svg11.dtd">
<!-- Generated by graphviz version 2.38.0 (20140413.2041)
 -->
<!-- Title: DummyPlugin::DummyOtherTask Pages: 1 -->
<svg width="183pt" height="215pt"
 viewBox="0.00 0.00 183.00 215.00" xmlns="http://www.w3.org/2000/svg" xmlns:xlink="http://www.w3.org/1999/xlink">
<g id="graph0" class="graph" transform="scale(1 1) rotate(0) translate(4 211)">
<title>DummyPlugin::DummyOtherTask</title>
<polygon fill="white" stroke="none" points="-4,4 -4,-211 179,-211 179,4 -4,4"/>
<!-- Node1 -->
<g id="node1" class="node"><title>Node1</title>
<polygon fill="#bfbfbf" stroke="black" points="0,-0.5 0,-90.5 175,-90.5 175,-0.5 0,-0.5"/>
<text text-anchor="middle" x="87.5" y="-78.5" font-family="Helvetica,sans-Serif" font-size="10.00">DummyPlugin::DummyOtherTask</text>
<polyline fill="none" stroke="black" points="0,-71.5 175,-71.5 "/>
<text text-anchor="middle" x="87.5" y="-59.5" font-family="Helvetica,sans-Serif" font-size="10.00"> </text>
<polyline fill="none" stroke="black" points="0,-52.5 175,-52.5 "/>
<text text-anchor="start" x="8" y="-40.5" font-family="Helvetica,sans-Serif" font-size="10.00">+ DummyOtherTask()</text>
<text text-anchor="start" x="8" y="-29.5" font-family="Helvetica,sans-Serif" font-size="10.00">+ getName()</text>
<text text-anchor="start" x="8" y="-18.5" font-family="Helvetica,sans-Serif" font-size="10.00">+ init()</text>
<text text-anchor="start" x="8" y="-7.5" font-family="Helvetica,sans-Serif" font-size="10.00">+ process()</text>
</g>
<!-- Node2 -->
<g id="node2" class="node"><title>Node2</title>
<g id="a_node2"><a xlink:href="classRa_1_1Core_1_1Task.html" target="_top" xlink:title="An interface class representing a basic task. ">
<polygon fill="white" stroke="black" points="46,-127.5 46,-206.5 129,-206.5 129,-127.5 46,-127.5"/>
<text text-anchor="middle" x="87.5" y="-194.5" font-family="Helvetica,sans-Serif" font-size="10.00">Ra::Core::Task</text>
<polyline fill="none" stroke="black" points="46,-187.5 129,-187.5 "/>
<text text-anchor="middle" x="87.5" y="-175.5" font-family="Helvetica,sans-Serif" font-size="10.00"> </text>
<polyline fill="none" stroke="black" points="46,-168.5 129,-168.5 "/>
<text text-anchor="start" x="54" y="-156.5" font-family="Helvetica,sans-Serif" font-size="10.00">+ ~Task()</text>
<text text-anchor="start" x="54" y="-145.5" font-family="Helvetica,sans-Serif" font-size="10.00">+ getName()</text>
<text text-anchor="start" x="54" y="-134.5" font-family="Helvetica,sans-Serif" font-size="10.00">+ process()</text>
</a>
</g>
</g>
<!-- Node2&#45;&gt;Node1 -->
<g id="edge1" class="edge"><title>Node2&#45;&gt;Node1</title>
<path fill="none" stroke="midnightblue" d="M87.5,-117.187C87.5,-108.491 87.5,-99.4758 87.5,-90.9111"/>
<polygon fill="none" stroke="midnightblue" points="84.0001,-117.202 87.5,-127.202 91.0001,-117.202 84.0001,-117.202"/>
</g>
</g>
</svg>
