<?xml version="1.0" encoding="UTF-8" standalone="no"?>
<!DOCTYPE svg PUBLIC "-//W3C//DTD SVG 1.1//EN"
 "http://www.w3.org/Graphics/SVG/1.1/DTD/svg11.dtd">
<!-- Generated by graphviz version 2.38.0 (20140413.2041)
 -->
<!-- Title: Ra::GuiBase::TreeItem Pages: 1 -->
<svg width="482pt" height="549pt"
 viewBox="0.00 0.00 482.00 549.00" xmlns="http://www.w3.org/2000/svg" xmlns:xlink="http://www.w3.org/1999/xlink">
<g id="graph0" class="graph" transform="scale(1 1) rotate(0) translate(4 545)">
<title>Ra::GuiBase::TreeItem</title>
<polygon fill="white" stroke="none" points="-4,4 -4,-545 478,-545 478,4 -4,4"/>
<!-- Node1 -->
<g id="node1" class="node"><title>Node1</title>
<polygon fill="#bfbfbf" stroke="black" points="0,-279.5 0,-435.5 122,-435.5 122,-279.5 0,-279.5"/>
<text text-anchor="middle" x="61" y="-423.5" font-family="Helvetica,sans-Serif" font-size="10.00">Ra::GuiBase::TreeItem</text>
<polyline fill="none" stroke="black" points="0,-416.5 122,-416.5 "/>
<text text-anchor="middle" x="61" y="-404.5" font-family="Helvetica,sans-Serif" font-size="10.00"> </text>
<polyline fill="none" stroke="black" points="0,-397.5 122,-397.5 "/>
<text text-anchor="start" x="8" y="-385.5" font-family="Helvetica,sans-Serif" font-size="10.00">+ TreeItem()</text>
<text text-anchor="start" x="8" y="-374.5" font-family="Helvetica,sans-Serif" font-size="10.00">+ ~TreeItem()</text>
<text text-anchor="start" x="8" y="-363.5" font-family="Helvetica,sans-Serif" font-size="10.00">+ TreeItem()</text>
<text text-anchor="start" x="8" y="-352.5" font-family="Helvetica,sans-Serif" font-size="10.00">+ operator=()</text>
<text text-anchor="start" x="8" y="-341.5" font-family="Helvetica,sans-Serif" font-size="10.00">+ getName()</text>
<text text-anchor="start" x="8" y="-330.5" font-family="Helvetica,sans-Serif" font-size="10.00">+ isValid()</text>
<text text-anchor="start" x="8" y="-319.5" font-family="Helvetica,sans-Serif" font-size="10.00">+ isSelectable()</text>
<text text-anchor="start" x="8" y="-308.5" font-family="Helvetica,sans-Serif" font-size="10.00">+ getIndexInParent()</text>
<text text-anchor="start" x="8" y="-297.5" font-family="Helvetica,sans-Serif" font-size="10.00">+ isChecked()</text>
<text text-anchor="start" x="8" y="-286.5" font-family="Helvetica,sans-Serif" font-size="10.00">+ setChecked()</text>
</g>
<!-- Node1&#45;&gt;Node1 -->
<g id="edge8" class="edge"><title>Node1&#45;&gt;Node1</title>
<path fill="none" stroke="#404040" d="M122.279,-375.354C132.747,-372.914 140,-366.963 140,-357.5 140,-352.029 137.576,-347.732 133.508,-344.609"/>
<polygon fill="none" stroke="#404040" points="133.255,-344.497 126.15,-345.73 122.279,-339.646 129.384,-338.413 133.255,-344.497"/>
<text text-anchor="middle" x="169" y="-355" font-family="Helvetica,sans-Serif" font-size="10.00"> +m_parent</text>
</g>
<!-- Node3 -->
<g id="node3" class="node"><title>Node3</title>
<polygon fill="white" stroke="#bfbfbf" points="136.5,-116.5 136.5,-184.5 257.5,-184.5 257.5,-116.5 136.5,-116.5"/>
<text text-anchor="start" x="144.5" y="-172.5" font-family="Helvetica,sans-Serif" font-size="10.00">std::unique_ptr&lt; Ra</text>
<text text-anchor="middle" x="197" y="-161.5" font-family="Helvetica,sans-Serif" font-size="10.00">::GuiBase::TreeItem &gt;</text>
<polyline fill="none" stroke="#bfbfbf" points="136.5,-154.5 257.5,-154.5 "/>
<text text-anchor="middle" x="197" y="-142.5" font-family="Helvetica,sans-Serif" font-size="10.00"> </text>
<polyline fill="none" stroke="#bfbfbf" points="136.5,-135.5 257.5,-135.5 "/>
<text text-anchor="start" x="144.5" y="-123.5" font-family="Helvetica,sans-Serif" font-size="10.00">+ operator&#45;&gt;()</text>
</g>
<!-- Node1&#45;&gt;Node3 -->
<g id="edge3" class="edge"><title>Node1&#45;&gt;Node3</title>
<path fill="none" stroke="#404040" d="M106.37,-279.224C121.548,-254.475 138.954,-227.219 156,-203 158.004,-200.152 160.112,-197.253 162.27,-194.355"/>
<polygon fill="none" stroke="#404040" points="162.449,-194.122 162.908,-186.925 169.727,-184.581 169.268,-191.778 162.449,-194.122"/>
<text text-anchor="middle" x="168.5" y="-229.5" font-family="Helvetica,sans-Serif" font-size="10.00"> +ptr</text>
</g>
<!-- Node2 -->
<g id="node2" class="node"><title>Node2</title>
<polygon fill="white" stroke="#bfbfbf" points="110,-0.5 110,-68.5 284,-68.5 284,-0.5 110,-0.5"/>
<text text-anchor="start" x="118" y="-56.5" font-family="Helvetica,sans-Serif" font-size="10.00">std::vector&lt; std::unique</text>
<text text-anchor="middle" x="197" y="-45.5" font-family="Helvetica,sans-Serif" font-size="10.00">_ptr&lt; Ra::GuiBase::TreeItem &gt; &gt;</text>
<polyline fill="none" stroke="#bfbfbf" points="110,-38.5 284,-38.5 "/>
<text text-anchor="middle" x="197" y="-26.5" font-family="Helvetica,sans-Serif" font-size="10.00"> </text>
<polyline fill="none" stroke="#bfbfbf" points="110,-19.5 284,-19.5 "/>
<text text-anchor="middle" x="197" y="-7.5" font-family="Helvetica,sans-Serif" font-size="10.00"> </text>
</g>
<!-- Node2&#45;&gt;Node1 -->
<g id="edge1" class="edge"><title>Node2&#45;&gt;Node1</title>
<path fill="none" stroke="#404040" d="M112.477,-68.6692C92.8419,-80.5507 74.3762,-96.0882 63,-116 37.1259,-161.288 36.0259,-219.64 41.6836,-267.525"/>
<polygon fill="none" stroke="#404040" points="41.6884,-267.563 46.4382,-272.988 43.2566,-279.46 38.5068,-274.034 41.6884,-267.563"/>
<text text-anchor="middle" x="95" y="-148" font-family="Helvetica,sans-Serif" font-size="10.00"> +m_children</text>
</g>
<!-- Node3&#45;&gt;Node2 -->
<g id="edge2" class="edge"><title>Node3&#45;&gt;Node2</title>
<path fill="none" stroke="#404040" d="M197,-116.22C197,-105.099 197,-92.5117 197,-80.6422"/>
<polygon fill="none" stroke="#404040" points="197,-80.6243 193,-74.6243 197,-68.6243 201,-74.6242 197,-80.6243"/>
<text text-anchor="middle" x="225.5" y="-90" font-family="Helvetica,sans-Serif" font-size="10.00"> +elements</text>
</g>
<!-- Node4 -->
<g id="node4" class="node"><title>Node4</title>
<g id="a_node4"><a xlink:title="STL class. ">
<polygon fill="white" stroke="#bfbfbf" points="219,-329 219,-386 335,-386 335,-329 219,-329"/>
<text text-anchor="middle" x="277" y="-374" font-family="Helvetica,sans-Serif" font-size="10.00">std::unique_ptr&lt; T &gt;</text>
<polyline fill="none" stroke="#bfbfbf" points="219,-367 335,-367 "/>
<text text-anchor="middle" x="277" y="-355" font-family="Helvetica,sans-Serif" font-size="10.00"> </text>
<polyline fill="none" stroke="#bfbfbf" points="219,-348 335,-348 "/>
<text text-anchor="start" x="227" y="-336" font-family="Helvetica,sans-Serif" font-size="10.00">+ operator&#45;&gt;()</text>
</a>
</g>
</g>
<!-- Node4&#45;&gt;Node3 -->
<g id="edge4" class="edge"><title>Node4&#45;&gt;Node3</title>
<path fill="none" stroke="orange" d="M245.25,-321.386C220.824,-294.35 191.188,-261.489 191,-261 181.652,-236.649 184.027,-207.002 188.256,-184.7"/>
<polygon fill="orange" stroke="orange" points="242.671,-323.753 251.973,-328.826 247.865,-319.06 242.671,-323.753"/>
<text text-anchor="middle" x="256.5" y="-229.5" font-family="Helvetica,sans-Serif" font-size="10.00"> &lt; Ra::GuiBase::TreeItem &gt;</text>
</g>
<!-- Node5 -->
<g id="node5" class="node"><title>Node5</title>
<polygon fill="white" stroke="#bfbfbf" points="316.5,-483.5 316.5,-540.5 345.5,-540.5 345.5,-483.5 316.5,-483.5"/>
<text text-anchor="middle" x="331" y="-528.5" font-family="Helvetica,sans-Serif" font-size="10.00">T</text>
<polyline fill="none" stroke="#bfbfbf" points="316.5,-521.5 345.5,-521.5 "/>
<text text-anchor="middle" x="331" y="-509.5" font-family="Helvetica,sans-Serif" font-size="10.00"> </text>
<polyline fill="none" stroke="#bfbfbf" points="316.5,-502.5 345.5,-502.5 "/>
<text text-anchor="middle" x="331" y="-490.5" font-family="Helvetica,sans-Serif" font-size="10.00"> </text>
</g>
<!-- Node5&#45;&gt;Node4 -->
<g id="edge5" class="edge"><title>Node5&#45;&gt;Node4</title>
<path fill="none" stroke="#404040" d="M321.221,-483.383C312.722,-459.383 300.317,-424.349 290.807,-397.492"/>
<polygon fill="none" stroke="#404040" points="290.803,-397.48 285.03,-393.159 286.797,-386.168 292.571,-390.489 290.803,-397.48"/>
<text text-anchor="middle" x="326.5" y="-457" font-family="Helvetica,sans-Serif" font-size="10.00"> +ptr</text>
</g>
<!-- Node6 -->
<g id="node6" class="node"><title>Node6</title>
<g id="a_node6"><a xlink:title="STL class. ">
<polygon fill="white" stroke="#bfbfbf" points="331.5,-203.5 331.5,-260.5 426.5,-260.5 426.5,-203.5 331.5,-203.5"/>
<text text-anchor="middle" x="379" y="-248.5" font-family="Helvetica,sans-Serif" font-size="10.00">std::vector&lt; T &gt;</text>
<polyline fill="none" stroke="#bfbfbf" points="331.5,-241.5 426.5,-241.5 "/>
<text text-anchor="middle" x="379" y="-229.5" font-family="Helvetica,sans-Serif" font-size="10.00"> </text>
<polyline fill="none" stroke="#bfbfbf" points="331.5,-222.5 426.5,-222.5 "/>
<text text-anchor="middle" x="379" y="-210.5" font-family="Helvetica,sans-Serif" font-size="10.00"> </text>
</a>
</g>
</g>
<!-- Node5&#45;&gt;Node6 -->
<g id="edge7" class="edge"><title>Node5&#45;&gt;Node6</title>
<path fill="none" stroke="#404040" d="M338.69,-483.376C340.233,-477.347 341.759,-470.98 343,-465 356.888,-398.059 368.031,-319.243 374.065,-272.85"/>
<polygon fill="none" stroke="#404040" points="374.102,-272.564 370.898,-266.104 375.629,-260.662 378.833,-267.122 374.102,-272.564"/>
<text text-anchor="middle" x="373.5" y="-457" font-family="Helvetica,sans-Serif" font-size="10.00"> +elements</text>
</g>
<!-- Node6&#45;&gt;Node2 -->
<g id="edge6" class="edge"><title>Node6&#45;&gt;Node2</title>
<path fill="none" stroke="orange" d="M351.693,-195.158C328.146,-165.1 292.573,-121.654 258,-87 251.833,-80.8186 245.007,-74.5606 238.22,-68.6382"/>
<polygon fill="orange" stroke="orange" points="349.099,-197.524 358.005,-203.263 354.622,-193.223 349.099,-197.524"/>
<text text-anchor="start" x="343" y="-153.5" font-family="Helvetica,sans-Serif" font-size="10.00"> &lt; std::unique_ptr&lt;</text>
<text text-anchor="middle" x="408.5" y="-142.5" font-family="Helvetica,sans-Serif" font-size="10.00"> Ra::GuiBase::TreeItem &gt; &gt;</text>
</g>
</g>
</svg>
