<?xml version="1.0" encoding="UTF-8" standalone="no"?>
<!DOCTYPE svg PUBLIC "-//W3C//DTD SVG 1.1//EN"
 "http://www.w3.org/Graphics/SVG/1.1/DTD/svg11.dtd">
<!-- Generated by graphviz version 2.38.0 (20140413.2041)
 -->
<!-- Title: Ra::Engine::DebugRender::addSphere Pages: 1 -->
<svg width="1003pt" height="244pt"
 viewBox="0.00 0.00 1003.00 243.93" xmlns="http://www.w3.org/2000/svg" xmlns:xlink="http://www.w3.org/1999/xlink">
<g id="graph0" class="graph" transform="scale(1 1) rotate(0) translate(4 239.926)">
<title>Ra::Engine::DebugRender::addSphere</title>
<polygon fill="white" stroke="none" points="-4,4 -4,-239.926 999,-239.926 999,4 -4,4"/>
<!-- Node1 -->
<g id="node1" class="node"><title>Node1</title>
<polygon fill="#bfbfbf" stroke="black" points="0,-44.4264 0,-74.4264 137,-74.4264 137,-44.4264 0,-44.4264"/>
<text text-anchor="start" x="8" y="-62.4264" font-family="Helvetica,sans-Serif" font-size="10.00">Ra::Engine::DebugRender</text>
<text text-anchor="middle" x="68.5" y="-51.4264" font-family="Helvetica,sans-Serif" font-size="10.00">::addSphere</text>
</g>
<!-- Node2 -->
<g id="node2" class="node"><title>Node2</title>
<g id="a_node2"><a xlink:href="namespaceRa_1_1Engine_1_1DrawPrimitives.html#a7170136c52f78d62597f431f79317664" target="_top" xlink:title="Displays sphere computed with given center and radius. ">
<polygon fill="white" stroke="black" points="173,-44.4264 173,-74.4264 316,-74.4264 316,-44.4264 173,-44.4264"/>
<text text-anchor="start" x="181" y="-62.4264" font-family="Helvetica,sans-Serif" font-size="10.00">Ra::Engine::DrawPrimitives</text>
<text text-anchor="middle" x="244.5" y="-51.4264" font-family="Helvetica,sans-Serif" font-size="10.00">::Sphere</text>
</a>
</g>
</g>
<!-- Node1&#45;&gt;Node2 -->
<g id="edge1" class="edge"><title>Node1&#45;&gt;Node2</title>
<path fill="none" stroke="midnightblue" d="M137.271,-59.4264C145.548,-59.4264 154.068,-59.4264 162.513,-59.4264"/>
<polygon fill="midnightblue" stroke="midnightblue" points="162.755,-62.9265 172.755,-59.4264 162.755,-55.9265 162.755,-62.9265"/>
</g>
<!-- Node3 -->
<g id="node3" class="node"><title>Node3</title>
<g id="a_node3"><a xlink:href="namespaceRa_1_1Core_1_1Geometry.html#a9f1b964d3d8b54b91ca8ba0f788c66e7" target="_top" xlink:title="Create a spherical mesh by subdivision of an icosahedron. ">
<polygon fill="white" stroke="black" points="352,-98.4264 352,-128.426 480,-128.426 480,-98.4264 352,-98.4264"/>
<text text-anchor="start" x="360" y="-116.426" font-family="Helvetica,sans-Serif" font-size="10.00">Ra::Core::Geometry</text>
<text text-anchor="middle" x="416" y="-105.426" font-family="Helvetica,sans-Serif" font-size="10.00">::makeGeodesicSphere</text>
</a>
</g>
</g>
<!-- Node2&#45;&gt;Node3 -->
<g id="edge2" class="edge"><title>Node2&#45;&gt;Node3</title>
<path fill="none" stroke="midnightblue" d="M292.715,-74.4684C313.017,-80.9364 336.921,-88.5517 358.183,-95.3255"/>
<polygon fill="midnightblue" stroke="midnightblue" points="357.154,-98.6708 367.744,-98.3715 359.279,-92.0011 357.154,-98.6708"/>
</g>
<!-- Node4 -->
<g id="node4" class="node"><title>Node4</title>
<g id="a_node4"><a xlink:href="classRa_1_1Core_1_1Geometry_1_1TriangleMesh.html#a6ef9dbd18c0501f2ffd1316be6be56ce" target="_top" xlink:title="Access the vertices positions. ">
<polygon fill="white" stroke="black" points="730,-68.4264 730,-98.4264 858,-98.4264 858,-68.4264 730,-68.4264"/>
<text text-anchor="start" x="738" y="-86.4264" font-family="Helvetica,sans-Serif" font-size="10.00">Ra::Core::Geometry</text>
<text text-anchor="middle" x="794" y="-75.4264" font-family="Helvetica,sans-Serif" font-size="10.00">::TriangleMesh::vertices</text>
</a>
</g>
</g>
<!-- Node2&#45;&gt;Node4 -->
<g id="edge16" class="edge"><title>Node2&#45;&gt;Node4</title>
<path fill="none" stroke="midnightblue" d="M287.908,-44.38C369.396,-17.9793 552.165,28.9671 692,-25.4264 712.229,-33.295 709.548,-46.9972 728,-58.4264 731.167,-60.3881 734.513,-62.2397 737.95,-63.9794"/>
<polygon fill="midnightblue" stroke="midnightblue" points="736.657,-67.2389 747.196,-68.3215 739.633,-60.9027 736.657,-67.2389"/>
</g>
<!-- Node3&#45;&gt;Node4 -->
<g id="edge3" class="edge"><title>Node3&#45;&gt;Node4</title>
<path fill="none" stroke="midnightblue" d="M480.173,-118.563C536.153,-121.896 619.949,-123.901 692,-113.426 708.789,-110.986 726.671,-106.376 742.649,-101.488"/>
<polygon fill="midnightblue" stroke="midnightblue" points="743.847,-104.78 752.325,-98.4266 741.735,-98.1066 743.847,-104.78"/>
</g>
<!-- Node5 -->
<g id="node5" class="node"><title>Node5</title>
<g id="a_node5"><a xlink:href="classRa_1_1Core_1_1Geometry_1_1TriangleMesh.html#ad7d3f6272b902171740e50232ba56114" target="_top" xlink:title="Access the vertices normals. ">
<polygon fill="white" stroke="black" points="729.5,-205.426 729.5,-235.426 858.5,-235.426 858.5,-205.426 729.5,-205.426"/>
<text text-anchor="start" x="737.5" y="-223.426" font-family="Helvetica,sans-Serif" font-size="10.00">Ra::Core::Geometry</text>
<text text-anchor="middle" x="794" y="-212.426" font-family="Helvetica,sans-Serif" font-size="10.00">::TriangleMesh::normals</text>
</a>
</g>
</g>
<!-- Node3&#45;&gt;Node5 -->
<g id="edge4" class="edge"><title>Node3&#45;&gt;Node5</title>
<path fill="none" stroke="midnightblue" d="M428.792,-128.699C445.617,-149.183 478.643,-184.785 516,-200.426 580.821,-227.567 661.619,-230.286 719.191,-227.595"/>
<polygon fill="midnightblue" stroke="midnightblue" points="719.502,-231.083 729.301,-227.056 719.129,-224.093 719.502,-231.083"/>
</g>
<!-- Node6 -->
<g id="node6" class="node"><title>Node6</title>
<g id="a_node6"><a xlink:href="namespaceRa_1_1Core_1_1Math.html#a4f441ac6a56092d52849a4f48e274aa8" target="_top" xlink:title="Get the cosine of the angle between two vectors. ">
<polygon fill="white" stroke="black" points="549,-84.9264 549,-103.926 659,-103.926 659,-84.9264 549,-84.9264"/>
<text text-anchor="middle" x="604" y="-91.9264" font-family="Helvetica,sans-Serif" font-size="10.00">Ra::Core::Math::cos</text>
</a>
</g>
</g>
<!-- Node3&#45;&gt;Node6 -->
<g id="edge5" class="edge"><title>Node3&#45;&gt;Node6</title>
<path fill="none" stroke="midnightblue" d="M480.231,-106.967C499.156,-105.034 519.921,-102.913 538.901,-100.974"/>
<polygon fill="midnightblue" stroke="midnightblue" points="539.349,-104.447 548.941,-99.9485 538.638,-97.4829 539.349,-104.447"/>
</g>
<!-- Node7 -->
<g id="node7" class="node"><title>Node7</title>
<g id="a_node7"><a xlink:href="classRa_1_1Core_1_1Geometry_1_1TriangleMesh.html#a51b5e7d49d82ffa036306e28a42cd92b" target="_top" xlink:title="Utility function colorzing the mesh with a given color. Add the color attribute if needed...">
<polygon fill="white" stroke="black" points="540.5,-35.4264 540.5,-65.4264 667.5,-65.4264 667.5,-35.4264 540.5,-35.4264"/>
<text text-anchor="start" x="548.5" y="-53.4264" font-family="Helvetica,sans-Serif" font-size="10.00">Ra::Core::Geometry</text>
<text text-anchor="middle" x="604" y="-42.4264" font-family="Helvetica,sans-Serif" font-size="10.00">::TriangleMesh::colorize</text>
</a>
</g>
</g>
<!-- Node3&#45;&gt;Node7 -->
<g id="edge6" class="edge"><title>Node3&#45;&gt;Node7</title>
<path fill="none" stroke="midnightblue" d="M453.864,-98.4032C472.373,-91.0838 495.226,-82.3836 516,-75.4264 523.149,-73.0321 530.675,-70.6571 538.184,-68.3784"/>
<polygon fill="midnightblue" stroke="midnightblue" points="539.432,-71.6585 548.013,-65.4447 537.43,-64.9509 539.432,-71.6585"/>
</g>
<!-- Node9 -->
<g id="node9" class="node"><title>Node9</title>
<g id="a_node9"><a xlink:href="classRa_1_1Core_1_1Geometry_1_1TriangleMesh.html#a0b294c697e094dcc62b3adb3c0ac16af" target="_top" xlink:title="Check that the mesh is well built, asserting when it is not. ">
<polygon fill="white" stroke="black" points="516,-161.426 516,-191.426 692,-191.426 692,-161.426 516,-161.426"/>
<text text-anchor="start" x="524" y="-179.426" font-family="Helvetica,sans-Serif" font-size="10.00">Ra::Core::Geometry</text>
<text text-anchor="middle" x="604" y="-168.426" font-family="Helvetica,sans-Serif" font-size="10.00">::TriangleMesh::checkConsistency</text>
</a>
</g>
</g>
<!-- Node3&#45;&gt;Node9 -->
<g id="edge9" class="edge"><title>Node3&#45;&gt;Node9</title>
<path fill="none" stroke="midnightblue" d="M461.552,-128.516C487.797,-137.406 521.186,-148.715 548.932,-158.113"/>
<polygon fill="midnightblue" stroke="midnightblue" points="547.896,-161.457 558.49,-161.35 550.141,-154.827 547.896,-161.457"/>
</g>
<!-- Node7&#45;&gt;Node4 -->
<g id="edge8" class="edge"><title>Node7&#45;&gt;Node4</title>
<path fill="none" stroke="midnightblue" d="M667.601,-61.4149C684.299,-64.3458 702.489,-67.5389 719.705,-70.5608"/>
<polygon fill="midnightblue" stroke="midnightblue" points="719.255,-74.0353 729.71,-72.317 720.466,-67.1407 719.255,-74.0353"/>
</g>
<!-- Node8 -->
<g id="node8" class="node"><title>Node8</title>
<g id="a_node8"><a xlink:href="classRa_1_1Core_1_1Geometry_1_1TriangleMesh.html#a209037ce5a11ec8539a9ada7ba763e8c" target="_top" xlink:title="Get attribute by handle. ">
<polygon fill="white" stroke="black" points="728,-19.4264 728,-49.4264 860,-49.4264 860,-19.4264 728,-19.4264"/>
<text text-anchor="start" x="736" y="-37.4264" font-family="Helvetica,sans-Serif" font-size="10.00">Ra::Core::Geometry</text>
<text text-anchor="middle" x="794" y="-26.4264" font-family="Helvetica,sans-Serif" font-size="10.00">::TriangleMesh::getAttrib</text>
</a>
</g>
</g>
<!-- Node7&#45;&gt;Node8 -->
<g id="edge7" class="edge"><title>Node7&#45;&gt;Node8</title>
<path fill="none" stroke="midnightblue" d="M667.601,-45.0986C683.612,-43.736 700.995,-42.2566 717.576,-40.8455"/>
<polygon fill="midnightblue" stroke="midnightblue" points="718.109,-44.3128 727.776,-39.9773 717.516,-37.338 718.109,-44.3128"/>
</g>
<!-- Node9&#45;&gt;Node4 -->
<g id="edge10" class="edge"><title>Node9&#45;&gt;Node4</title>
<path fill="none" stroke="midnightblue" d="M662.13,-161.266C672.503,-157.271 682.905,-152.369 692,-146.426 711.748,-133.524 708.393,-120.541 728,-107.426 730.265,-105.911 732.639,-104.476 735.084,-103.119"/>
<polygon fill="midnightblue" stroke="midnightblue" points="736.822,-106.163 744.182,-98.5414 733.676,-99.9094 736.822,-106.163"/>
</g>
<!-- Node9&#45;&gt;Node5 -->
<g id="edge15" class="edge"><title>Node9&#45;&gt;Node5</title>
<path fill="none" stroke="midnightblue" d="M669.173,-191.446C685.293,-195.218 702.719,-199.297 719.266,-203.169"/>
<polygon fill="midnightblue" stroke="midnightblue" points="718.9,-206.678 729.435,-205.549 720.495,-199.863 718.9,-206.678"/>
</g>
<!-- Node10 -->
<g id="node10" class="node"><title>Node10</title>
<g id="a_node10"><a xlink:href="namespaceRa_1_1Core_1_1Geometry.html#aa04e6052d8911b1df1bd881474debb45" target="_top" xlink:title="Ra::Core::Geometry::t">
<polygon fill="white" stroke="black" points="734,-166.926 734,-185.926 854,-185.926 854,-166.926 734,-166.926"/>
<text text-anchor="middle" x="794" y="-173.926" font-family="Helvetica,sans-Serif" font-size="10.00">Ra::Core::Geometry::t</text>
</a>
</g>
</g>
<!-- Node9&#45;&gt;Node10 -->
<g id="edge11" class="edge"><title>Node9&#45;&gt;Node10</title>
<path fill="none" stroke="midnightblue" d="M692.121,-176.426C702.71,-176.426 713.417,-176.426 723.699,-176.426"/>
<polygon fill="midnightblue" stroke="midnightblue" points="723.82,-179.927 733.82,-176.426 723.819,-172.927 723.82,-179.927"/>
</g>
<!-- Node11 -->
<g id="node11" class="node"><title>Node11</title>
<g id="a_node11"><a xlink:href="namespaceRa_1_1Core_1_1Geometry.html#a178f2b7309fe2ea5bc31a3abcb25368e" target="_top" xlink:title="Ra::Core::Geometry\l::triangleArea">
<polygon fill="white" stroke="black" points="738.5,-117.426 738.5,-147.426 849.5,-147.426 849.5,-117.426 738.5,-117.426"/>
<text text-anchor="start" x="746.5" y="-135.426" font-family="Helvetica,sans-Serif" font-size="10.00">Ra::Core::Geometry</text>
<text text-anchor="middle" x="794" y="-124.426" font-family="Helvetica,sans-Serif" font-size="10.00">::triangleArea</text>
</a>
</g>
</g>
<!-- Node9&#45;&gt;Node11 -->
<g id="edge12" class="edge"><title>Node9&#45;&gt;Node11</title>
<path fill="none" stroke="midnightblue" d="M669.173,-161.407C688.286,-156.934 709.234,-152.031 728.375,-147.551"/>
<polygon fill="midnightblue" stroke="midnightblue" points="729.262,-150.938 738.201,-145.252 727.667,-144.123 729.262,-150.938"/>
</g>
<!-- Node12 -->
<g id="node12" class="node"><title>Node12</title>
<g id="a_node12"><a xlink:href="namespaceOpenMesh.html#a71e7f1dd3eac016d2b8245ac408a291c" target="_top" xlink:title="OpenMesh::cross">
<polygon fill="white" stroke="black" points="896,-141.926 896,-160.926 995,-160.926 995,-141.926 896,-141.926"/>
<text text-anchor="middle" x="945.5" y="-148.926" font-family="Helvetica,sans-Serif" font-size="10.00">OpenMesh::cross</text>
</a>
</g>
</g>
<!-- Node11&#45;&gt;Node12 -->
<g id="edge13" class="edge"><title>Node11&#45;&gt;Node12</title>
<path fill="none" stroke="midnightblue" d="M849.819,-139.393C861.421,-140.868 873.714,-142.43 885.464,-143.924"/>
<polygon fill="midnightblue" stroke="midnightblue" points="885.258,-147.425 895.619,-145.214 886.14,-140.481 885.258,-147.425"/>
</g>
<!-- Node13 -->
<g id="node13" class="node"><title>Node13</title>
<g id="a_node13"><a xlink:href="namespaceOpenMesh.html#a8205f789ce08919bc11c58383574596c" target="_top" xlink:title="OpenMesh::norm">
<polygon fill="white" stroke="black" points="896,-103.926 896,-122.926 995,-122.926 995,-103.926 896,-103.926"/>
<text text-anchor="middle" x="945.5" y="-110.926" font-family="Helvetica,sans-Serif" font-size="10.00">OpenMesh::norm</text>
</a>
</g>
</g>
<!-- Node11&#45;&gt;Node13 -->
<g id="edge14" class="edge"><title>Node11&#45;&gt;Node13</title>
<path fill="none" stroke="midnightblue" d="M849.819,-125.459C861.421,-123.985 873.714,-122.423 885.464,-120.929"/>
<polygon fill="midnightblue" stroke="midnightblue" points="886.14,-124.372 895.619,-119.639 885.258,-117.427 886.14,-124.372"/>
</g>
</g>
</svg>
