<?xml version="1.0" encoding="UTF-8" standalone="no"?>
<!DOCTYPE svg PUBLIC "-//W3C//DTD SVG 1.1//EN"
 "http://www.w3.org/Graphics/SVG/1.1/DTD/svg11.dtd">
<!-- Generated by graphviz version 2.38.0 (20140413.2041)
 -->
<!-- Title: Ra::Gui::GizmoManager Pages: 1 -->
<svg width="1034pt" height="1825pt"
 viewBox="0.00 0.00 1034.14 1825.00" xmlns="http://www.w3.org/2000/svg" xmlns:xlink="http://www.w3.org/1999/xlink">
<g id="graph0" class="graph" transform="scale(1 1) rotate(0) translate(4 1821)">
<title>Ra::Gui::GizmoManager</title>
<polygon fill="white" stroke="none" points="-4,4 -4,-1821 1030.14,-1821 1030.14,4 -4,4"/>
<!-- Node1 -->
<g id="node1" class="node"><title>Node1</title>
<polygon fill="#bfbfbf" stroke="black" points="223.136,-0.5 223.136,-178.5 386.136,-178.5 386.136,-0.5 223.136,-0.5"/>
<text text-anchor="middle" x="304.636" y="-166.5" font-family="Helvetica,sans-Serif" font-size="10.00">Ra::Gui::GizmoManager</text>
<polyline fill="none" stroke="black" points="223.136,-159.5 386.136,-159.5 "/>
<text text-anchor="start" x="231.136" y="-147.5" font-family="Helvetica,sans-Serif" font-size="10.00">+ EIGEN_MAKE_ALIGNED</text>
<text text-anchor="start" x="231.136" y="-136.5" font-family="Helvetica,sans-Serif" font-size="10.00">_OPERATOR_NEW</text>
<polyline fill="none" stroke="black" points="223.136,-129.5 386.136,-129.5 "/>
<text text-anchor="start" x="231.136" y="-117.5" font-family="Helvetica,sans-Serif" font-size="10.00">+ GizmoManager()</text>
<text text-anchor="start" x="231.136" y="-106.5" font-family="Helvetica,sans-Serif" font-size="10.00">+ ~GizmoManager()</text>
<text text-anchor="start" x="231.136" y="-95.5" font-family="Helvetica,sans-Serif" font-size="10.00">+ handleMousePressEvent()</text>
<text text-anchor="start" x="231.136" y="-84.5" font-family="Helvetica,sans-Serif" font-size="10.00">+ handleMouseReleaseEvent()</text>
<text text-anchor="start" x="231.136" y="-73.5" font-family="Helvetica,sans-Serif" font-size="10.00">+ handleMouseMoveEvent()</text>
<text text-anchor="start" x="231.136" y="-62.5" font-family="Helvetica,sans-Serif" font-size="10.00">+ setEditable()</text>
<text text-anchor="start" x="231.136" y="-51.5" font-family="Helvetica,sans-Serif" font-size="10.00">+ cleanup()</text>
<text text-anchor="start" x="231.136" y="-40.5" font-family="Helvetica,sans-Serif" font-size="10.00">+ handlePickingResult()</text>
<text text-anchor="start" x="231.136" y="-29.5" font-family="Helvetica,sans-Serif" font-size="10.00">+ setLocal()</text>
<text text-anchor="start" x="231.136" y="-18.5" font-family="Helvetica,sans-Serif" font-size="10.00">+ changeGizmoType()</text>
<text text-anchor="start" x="231.136" y="-7.5" font-family="Helvetica,sans-Serif" font-size="10.00">+ updateValues()</text>
</g>
<!-- Node2 -->
<g id="node2" class="node"><title>Node2</title>
<g id="a_node2"><a xlink:href="classQObject.html" target="_top" xlink:title="{QObject\n||}">
<polygon fill="white" stroke="black" points="221.136,-255 221.136,-312 276.136,-312 276.136,-255 221.136,-255"/>
<text text-anchor="middle" x="248.636" y="-300" font-family="Helvetica,sans-Serif" font-size="10.00">QObject</text>
<polyline fill="none" stroke="black" points="221.136,-293 276.136,-293 "/>
<text text-anchor="middle" x="248.636" y="-281" font-family="Helvetica,sans-Serif" font-size="10.00"> </text>
<polyline fill="none" stroke="black" points="221.136,-274 276.136,-274 "/>
<text text-anchor="middle" x="248.636" y="-262" font-family="Helvetica,sans-Serif" font-size="10.00"> </text>
</a>
</g>
</g>
<!-- Node2&#45;&gt;Node1 -->
<g id="edge1" class="edge"><title>Node2&#45;&gt;Node1</title>
<path fill="none" stroke="midnightblue" d="M259.501,-245.247C265.052,-226.215 272.063,-202.178 278.893,-178.76"/>
<polygon fill="none" stroke="midnightblue" points="256.099,-244.411 256.659,-254.991 262.819,-246.371 256.099,-244.411"/>
</g>
<!-- Node3 -->
<g id="node3" class="node"><title>Node3</title>
<g id="a_node3"><a xlink:href="classRa_1_1GuiBase_1_1TransformEditor.html" target="_top" xlink:title="{Ra::GuiBase::TransformEditor\n||+ TransformEditor()\l+ ~TransformEditor()\l+ setEditable()\l+ updateValues()\l# getTransform()\l# setTransform()\l# canEdit()\l# getWorldTransform()\l}">
<polygon fill="white" stroke="black" points="423.136,-216.5 423.136,-350.5 578.136,-350.5 578.136,-216.5 423.136,-216.5"/>
<text text-anchor="middle" x="500.636" y="-338.5" font-family="Helvetica,sans-Serif" font-size="10.00">Ra::GuiBase::TransformEditor</text>
<polyline fill="none" stroke="black" points="423.136,-331.5 578.136,-331.5 "/>
<text text-anchor="middle" x="500.636" y="-319.5" font-family="Helvetica,sans-Serif" font-size="10.00"> </text>
<polyline fill="none" stroke="black" points="423.136,-312.5 578.136,-312.5 "/>
<text text-anchor="start" x="431.136" y="-300.5" font-family="Helvetica,sans-Serif" font-size="10.00">+ TransformEditor()</text>
<text text-anchor="start" x="431.136" y="-289.5" font-family="Helvetica,sans-Serif" font-size="10.00">+ ~TransformEditor()</text>
<text text-anchor="start" x="431.136" y="-278.5" font-family="Helvetica,sans-Serif" font-size="10.00">+ setEditable()</text>
<text text-anchor="start" x="431.136" y="-267.5" font-family="Helvetica,sans-Serif" font-size="10.00">+ updateValues()</text>
<text text-anchor="start" x="431.136" y="-256.5" font-family="Helvetica,sans-Serif" font-size="10.00"># getTransform()</text>
<text text-anchor="start" x="431.136" y="-245.5" font-family="Helvetica,sans-Serif" font-size="10.00"># setTransform()</text>
<text text-anchor="start" x="431.136" y="-234.5" font-family="Helvetica,sans-Serif" font-size="10.00"># canEdit()</text>
<text text-anchor="start" x="431.136" y="-223.5" font-family="Helvetica,sans-Serif" font-size="10.00"># getWorldTransform()</text>
</a>
</g>
</g>
<!-- Node3&#45;&gt;Node1 -->
<g id="edge2" class="edge"><title>Node3&#45;&gt;Node1</title>
<path fill="none" stroke="midnightblue" d="M425.692,-209.086C412.847,-196.502 399.441,-183.37 386.427,-170.622"/>
<polygon fill="none" stroke="midnightblue" points="423.591,-211.927 433.184,-216.424 428.49,-206.926 423.591,-211.927"/>
</g>
<!-- Node4 -->
<g id="node4" class="node"><title>Node4</title>
<g id="a_node4"><a xlink:href="structRa_1_1Engine_1_1ItemEntry.html" target="_top" xlink:title="This represent a handle for an entity, component or render object. ">
<polygon fill="white" stroke="black" points="438.136,-398.5 438.136,-543.5 563.136,-543.5 563.136,-398.5 438.136,-398.5"/>
<text text-anchor="middle" x="500.636" y="-531.5" font-family="Helvetica,sans-Serif" font-size="10.00">Ra::Engine::ItemEntry</text>
<polyline fill="none" stroke="black" points="438.136,-524.5 563.136,-524.5 "/>
<text text-anchor="middle" x="500.636" y="-512.5" font-family="Helvetica,sans-Serif" font-size="10.00"> </text>
<polyline fill="none" stroke="black" points="438.136,-505.5 563.136,-505.5 "/>
<text text-anchor="start" x="446.136" y="-493.5" font-family="Helvetica,sans-Serif" font-size="10.00">+ ItemEntry()</text>
<text text-anchor="start" x="446.136" y="-482.5" font-family="Helvetica,sans-Serif" font-size="10.00">+ ItemEntry()</text>
<text text-anchor="start" x="446.136" y="-471.5" font-family="Helvetica,sans-Serif" font-size="10.00">+ operator==()</text>
<text text-anchor="start" x="446.136" y="-460.5" font-family="Helvetica,sans-Serif" font-size="10.00">+ isValid()</text>
<text text-anchor="start" x="446.136" y="-449.5" font-family="Helvetica,sans-Serif" font-size="10.00">+ isSelectable()</text>
<text text-anchor="start" x="446.136" y="-438.5" font-family="Helvetica,sans-Serif" font-size="10.00">+ isEntityNode()</text>
<text text-anchor="start" x="446.136" y="-427.5" font-family="Helvetica,sans-Serif" font-size="10.00">+ isComponentNode()</text>
<text text-anchor="start" x="446.136" y="-416.5" font-family="Helvetica,sans-Serif" font-size="10.00">+ isRoNode()</text>
<text text-anchor="start" x="446.136" y="-405.5" font-family="Helvetica,sans-Serif" font-size="10.00">+ checkConsistency()</text>
</a>
</g>
</g>
<!-- Node4&#45;&gt;Node3 -->
<g id="edge3" class="edge"><title>Node4&#45;&gt;Node3</title>
<path fill="none" stroke="#404040" d="M500.636,-398.281C500.636,-386.628 500.636,-374.508 500.636,-362.709"/>
<polygon fill="none" stroke="#404040" points="500.636,-362.564 496.636,-356.564 500.636,-350.564 504.636,-356.564 500.636,-362.564"/>
<text text-anchor="middle" x="540.136" y="-372" font-family="Helvetica,sans-Serif" font-size="10.00"> #m_currentEdit</text>
</g>
<!-- Node5 -->
<g id="node5" class="node"><title>Node5</title>
<g id="a_node5"><a xlink:href="classRa_1_1Engine_1_1Component.html" target="_top" xlink:title="A component is an element that can be updated by a system. ">
<polygon fill="white" stroke="black" points="550.136,-591.5 550.136,-813.5 711.136,-813.5 711.136,-591.5 550.136,-591.5"/>
<text text-anchor="middle" x="630.636" y="-801.5" font-family="Helvetica,sans-Serif" font-size="10.00">Ra::Engine::Component</text>
<polyline fill="none" stroke="black" points="550.136,-794.5 711.136,-794.5 "/>
<text text-anchor="middle" x="630.636" y="-782.5" font-family="Helvetica,sans-Serif" font-size="10.00"> </text>
<polyline fill="none" stroke="black" points="550.136,-775.5 711.136,-775.5 "/>
<text text-anchor="start" x="558.136" y="-763.5" font-family="Helvetica,sans-Serif" font-size="10.00">+ Component()</text>
<text text-anchor="start" x="558.136" y="-752.5" font-family="Helvetica,sans-Serif" font-size="10.00">+ ~Component()</text>
<text text-anchor="start" x="558.136" y="-741.5" font-family="Helvetica,sans-Serif" font-size="10.00">+ initialize()</text>
<text text-anchor="start" x="558.136" y="-730.5" font-family="Helvetica,sans-Serif" font-size="10.00">+ setEntity()</text>
<text text-anchor="start" x="558.136" y="-719.5" font-family="Helvetica,sans-Serif" font-size="10.00">+ getEntity()</text>
<text text-anchor="start" x="558.136" y="-708.5" font-family="Helvetica,sans-Serif" font-size="10.00">+ getName()</text>
<text text-anchor="start" x="558.136" y="-697.5" font-family="Helvetica,sans-Serif" font-size="10.00">+ setSystem()</text>
<text text-anchor="start" x="558.136" y="-686.5" font-family="Helvetica,sans-Serif" font-size="10.00">+ getSystem()</text>
<text text-anchor="start" x="558.136" y="-675.5" font-family="Helvetica,sans-Serif" font-size="10.00">+ addRenderObject()</text>
<text text-anchor="start" x="558.136" y="-664.5" font-family="Helvetica,sans-Serif" font-size="10.00">+ removeRenderObject()</text>
<text text-anchor="start" x="558.136" y="-653.5" font-family="Helvetica,sans-Serif" font-size="10.00">+ canEdit()</text>
<text text-anchor="start" x="558.136" y="-642.5" font-family="Helvetica,sans-Serif" font-size="10.00">+ getTransform()</text>
<text text-anchor="start" x="558.136" y="-631.5" font-family="Helvetica,sans-Serif" font-size="10.00">+ setTransform()</text>
<text text-anchor="start" x="558.136" y="-620.5" font-family="Helvetica,sans-Serif" font-size="10.00">+ notifyRenderObjectExpired()</text>
<text text-anchor="start" x="558.136" y="-609.5" font-family="Helvetica,sans-Serif" font-size="10.00">+ computeAabb()</text>
<text text-anchor="start" x="558.136" y="-598.5" font-family="Helvetica,sans-Serif" font-size="10.00"># getRoMgr()</text>
</a>
</g>
</g>
<!-- Node5&#45;&gt;Node4 -->
<g id="edge4" class="edge"><title>Node5&#45;&gt;Node4</title>
<path fill="none" stroke="#404040" d="M568.301,-591.455C561.195,-578.91 554.046,-566.289 547.195,-554.195"/>
<polygon fill="none" stroke="#404040" points="547.174,-554.158 540.737,-550.909 541.26,-543.717 547.697,-546.966 547.174,-554.158"/>
<text text-anchor="middle" x="594.636" y="-565" font-family="Helvetica,sans-Serif" font-size="10.00"> +m_component</text>
</g>
<!-- Node6 -->
<g id="node6" class="node"><title>Node6</title>
<polygon fill="white" stroke="#bfbfbf" points="564.136,-1170 564.136,-1249 675.136,-1249 675.136,-1170 564.136,-1170"/>
<text text-anchor="start" x="572.136" y="-1237" font-family="Helvetica,sans-Serif" font-size="10.00">std::vector&lt; Core::</text>
<text text-anchor="start" x="572.136" y="-1226" font-family="Helvetica,sans-Serif" font-size="10.00">Utils::Ra::Core::Utils</text>
<text text-anchor="middle" x="619.636" y="-1215" font-family="Helvetica,sans-Serif" font-size="10.00">::Index &gt;</text>
<polyline fill="none" stroke="#bfbfbf" points="564.136,-1208 675.136,-1208 "/>
<text text-anchor="middle" x="619.636" y="-1196" font-family="Helvetica,sans-Serif" font-size="10.00"> </text>
<polyline fill="none" stroke="#bfbfbf" points="564.136,-1189 675.136,-1189 "/>
<text text-anchor="middle" x="619.636" y="-1177" font-family="Helvetica,sans-Serif" font-size="10.00"> </text>
</g>
<!-- Node6&#45;&gt;Node5 -->
<g id="edge5" class="edge"><title>Node6&#45;&gt;Node5</title>
<path fill="none" stroke="#404040" d="M620.481,-1169.71C622.063,-1097.07 625.534,-937.726 627.976,-825.628"/>
<polygon fill="none" stroke="#404040" points="627.977,-825.566 624.109,-819.48 628.238,-813.569 632.107,-819.655 627.977,-825.566"/>
<text text-anchor="middle" x="673.636" y="-981" font-family="Helvetica,sans-Serif" font-size="10.00"> +m_renderObjects</text>
</g>
<!-- Node7 -->
<g id="node7" class="node"><title>Node7</title>
<polygon fill="white" stroke="#bfbfbf" points="565.636,-1495 565.636,-1552 607.636,-1552 607.636,-1495 565.636,-1495"/>
<text text-anchor="middle" x="586.636" y="-1540" font-family="Helvetica,sans-Serif" font-size="10.00">Index</text>
<polyline fill="none" stroke="#bfbfbf" points="565.636,-1533 607.636,-1533 "/>
<text text-anchor="middle" x="586.636" y="-1521" font-family="Helvetica,sans-Serif" font-size="10.00"> </text>
<polyline fill="none" stroke="#bfbfbf" points="565.636,-1514 607.636,-1514 "/>
<text text-anchor="middle" x="586.636" y="-1502" font-family="Helvetica,sans-Serif" font-size="10.00"> </text>
</g>
<!-- Node7&#45;&gt;Node6 -->
<g id="edge6" class="edge"><title>Node7&#45;&gt;Node6</title>
<path fill="none" stroke="#404040" d="M583.184,-1494.94C578.364,-1450.13 571.862,-1358.96 587.636,-1284 589.273,-1276.22 591.772,-1268.26 594.667,-1260.57"/>
<polygon fill="none" stroke="#404040" points="594.776,-1260.31 593.336,-1253.24 599.304,-1249.19 600.744,-1256.26 594.776,-1260.31"/>
<text text-anchor="middle" x="616.136" y="-1298" font-family="Helvetica,sans-Serif" font-size="10.00"> +elements</text>
</g>
<!-- Node8 -->
<g id="node8" class="node"><title>Node8</title>
<g id="a_node8"><a xlink:title="STL class. ">
<polygon fill="white" stroke="#bfbfbf" points="680.136,-1495 680.136,-1552 775.136,-1552 775.136,-1495 680.136,-1495"/>
<text text-anchor="middle" x="727.636" y="-1540" font-family="Helvetica,sans-Serif" font-size="10.00">std::vector&lt; T &gt;</text>
<polyline fill="none" stroke="#bfbfbf" points="680.136,-1533 775.136,-1533 "/>
<text text-anchor="middle" x="727.636" y="-1521" font-family="Helvetica,sans-Serif" font-size="10.00"> </text>
<polyline fill="none" stroke="#bfbfbf" points="680.136,-1514 775.136,-1514 "/>
<text text-anchor="middle" x="727.636" y="-1502" font-family="Helvetica,sans-Serif" font-size="10.00"> </text>
</a>
</g>
</g>
<!-- Node8&#45;&gt;Node6 -->
<g id="edge7" class="edge"><title>Node8&#45;&gt;Node6</title>
<path fill="none" stroke="orange" d="M714.673,-1485.05C694.038,-1425.44 653.922,-1309.55 633.023,-1249.17"/>
<polygon fill="orange" stroke="orange" points="711.473,-1486.51 718.052,-1494.81 718.088,-1484.22 711.473,-1486.51"/>
<text text-anchor="start" x="653.636" y="-1303.5" font-family="Helvetica,sans-Serif" font-size="10.00"> &lt; Core::Utils::Ra::</text>
<text text-anchor="middle" x="700.136" y="-1292.5" font-family="Helvetica,sans-Serif" font-size="10.00">Core::Utils::Index &gt;</text>
</g>
<!-- Node11 -->
<g id="node11" class="node"><title>Node11</title>
<polygon fill="white" stroke="#bfbfbf" points="831.636,-1170 831.636,-1249 1005.64,-1249 1005.64,-1170 831.636,-1170"/>
<text text-anchor="start" x="839.636" y="-1237" font-family="Helvetica,sans-Serif" font-size="10.00">std::vector&lt; std::pair</text>
<text text-anchor="start" x="839.636" y="-1226" font-family="Helvetica,sans-Serif" font-size="10.00">&lt; const Ra::Engine::Entity</text>
<text text-anchor="middle" x="918.636" y="-1215" font-family="Helvetica,sans-Serif" font-size="10.00"> *, Ra::Engine::Component * &gt; &gt;</text>
<polyline fill="none" stroke="#bfbfbf" points="831.636,-1208 1005.64,-1208 "/>
<text text-anchor="middle" x="918.636" y="-1196" font-family="Helvetica,sans-Serif" font-size="10.00"> </text>
<polyline fill="none" stroke="#bfbfbf" points="831.636,-1189 1005.64,-1189 "/>
<text text-anchor="middle" x="918.636" y="-1177" font-family="Helvetica,sans-Serif" font-size="10.00"> </text>
</g>
<!-- Node8&#45;&gt;Node11 -->
<g id="edge12" class="edge"><title>Node8&#45;&gt;Node11</title>
<path fill="none" stroke="orange" d="M725.718,-1484.69C725.161,-1433.4 731.677,-1341.58 779.636,-1284 792.896,-1268.08 804.074,-1275.2 822.636,-1266 833.071,-1260.83 843.935,-1255 854.443,-1249.11"/>
<polygon fill="orange" stroke="orange" points="722.219,-1484.76 725.923,-1494.69 729.218,-1484.62 722.219,-1484.76"/>
<text text-anchor="start" x="779.636" y="-1309" font-family="Helvetica,sans-Serif" font-size="10.00"> &lt; std::pair&lt; const</text>
<text text-anchor="start" x="779.636" y="-1298" font-family="Helvetica,sans-Serif" font-size="10.00"> Ra::Engine::Entity</text>
<text text-anchor="middle" x="858.636" y="-1287" font-family="Helvetica,sans-Serif" font-size="10.00"> *, Ra::Engine::Component * &gt; &gt;</text>
</g>
<!-- Node9 -->
<g id="node9" class="node"><title>Node9</title>
<polygon fill="white" stroke="#bfbfbf" points="713.136,-1759.5 713.136,-1816.5 742.136,-1816.5 742.136,-1759.5 713.136,-1759.5"/>
<text text-anchor="middle" x="727.636" y="-1804.5" font-family="Helvetica,sans-Serif" font-size="10.00">T</text>
<polyline fill="none" stroke="#bfbfbf" points="713.136,-1797.5 742.136,-1797.5 "/>
<text text-anchor="middle" x="727.636" y="-1785.5" font-family="Helvetica,sans-Serif" font-size="10.00"> </text>
<polyline fill="none" stroke="#bfbfbf" points="713.136,-1778.5 742.136,-1778.5 "/>
<text text-anchor="middle" x="727.636" y="-1766.5" font-family="Helvetica,sans-Serif" font-size="10.00"> </text>
</g>
<!-- Node9&#45;&gt;Node8 -->
<g id="edge8" class="edge"><title>Node9&#45;&gt;Node8</title>
<path fill="none" stroke="#404040" d="M727.636,-1759.4C727.636,-1712.73 727.636,-1618.04 727.636,-1564.23"/>
<polygon fill="none" stroke="#404040" points="727.636,-1564.12 723.636,-1558.12 727.636,-1552.12 731.636,-1558.12 727.636,-1564.12"/>
<text text-anchor="middle" x="756.136" y="-1733" font-family="Helvetica,sans-Serif" font-size="10.00"> +elements</text>
</g>
<!-- Node10 -->
<g id="node10" class="node"><title>Node10</title>
<g id="a_node10"><a xlink:href="classRa_1_1Engine_1_1System.html" target="_top" xlink:title="Systems are responsible of updating a specific subset of the components of each entity. ">
<polygon fill="white" stroke="black" points="829.136,-916.5 829.136,-1050.5 986.136,-1050.5 986.136,-916.5 829.136,-916.5"/>
<text text-anchor="middle" x="907.636" y="-1038.5" font-family="Helvetica,sans-Serif" font-size="10.00">Ra::Engine::System</text>
<polyline fill="none" stroke="black" points="829.136,-1031.5 986.136,-1031.5 "/>
<text text-anchor="middle" x="907.636" y="-1019.5" font-family="Helvetica,sans-Serif" font-size="10.00"> </text>
<polyline fill="none" stroke="black" points="829.136,-1012.5 986.136,-1012.5 "/>
<text text-anchor="start" x="837.136" y="-1000.5" font-family="Helvetica,sans-Serif" font-size="10.00">+ System()</text>
<text text-anchor="start" x="837.136" y="-989.5" font-family="Helvetica,sans-Serif" font-size="10.00">+ ~System()</text>
<text text-anchor="start" x="837.136" y="-978.5" font-family="Helvetica,sans-Serif" font-size="10.00">+ handleAssetLoading()</text>
<text text-anchor="start" x="837.136" y="-967.5" font-family="Helvetica,sans-Serif" font-size="10.00">+ generateTasks()</text>
<text text-anchor="start" x="837.136" y="-956.5" font-family="Helvetica,sans-Serif" font-size="10.00">+ getEntityComponents()</text>
<text text-anchor="start" x="837.136" y="-945.5" font-family="Helvetica,sans-Serif" font-size="10.00"># registerComponent()</text>
<text text-anchor="start" x="837.136" y="-934.5" font-family="Helvetica,sans-Serif" font-size="10.00"># unregisterComponent()</text>
<text text-anchor="start" x="837.136" y="-923.5" font-family="Helvetica,sans-Serif" font-size="10.00"># unregisterAllComponents()</text>
</a>
</g>
</g>
<!-- Node10&#45;&gt;Node5 -->
<g id="edge9" class="edge"><title>Node10&#45;&gt;Node5</title>
<path fill="none" stroke="#404040" d="M855.62,-916.336C840.366,-897.939 823.295,-878.278 806.636,-861 779.799,-833.166 748.853,-804.468 720.467,-779.319"/>
<polygon fill="none" stroke="#404040" points="720.353,-779.218 713.206,-778.252 711.349,-771.284 718.496,-772.25 720.353,-779.218"/>
<text text-anchor="middle" x="819.636" y="-835" font-family="Helvetica,sans-Serif" font-size="10.00"> #m_system</text>
</g>
<!-- Node11&#45;&gt;Node10 -->
<g id="edge10" class="edge"><title>Node11&#45;&gt;Node10</title>
<path fill="none" stroke="#404040" d="M916.745,-1169.99C915.299,-1140.55 913.257,-1098.97 911.473,-1062.64"/>
<polygon fill="none" stroke="#404040" points="911.468,-1062.53 907.178,-1056.73 910.879,-1050.55 915.169,-1056.34 911.468,-1062.53"/>
<text text-anchor="middle" x="958.136" y="-1127" font-family="Helvetica,sans-Serif" font-size="10.00"> #m_components</text>
</g>
<!-- Node12 -->
<g id="node12" class="node"><title>Node12</title>
<polygon fill="white" stroke="#bfbfbf" points="901.136,-1484 901.136,-1563 1026.14,-1563 1026.14,-1484 901.136,-1484"/>
<text text-anchor="start" x="909.136" y="-1551" font-family="Helvetica,sans-Serif" font-size="10.00">pair&lt; const Ra::Engine</text>
<text text-anchor="start" x="909.136" y="-1540" font-family="Helvetica,sans-Serif" font-size="10.00">::Entity *, Ra::Engine</text>
<text text-anchor="middle" x="963.636" y="-1529" font-family="Helvetica,sans-Serif" font-size="10.00">::Component * &gt;</text>
<polyline fill="none" stroke="#bfbfbf" points="901.136,-1522 1026.14,-1522 "/>
<text text-anchor="middle" x="963.636" y="-1510" font-family="Helvetica,sans-Serif" font-size="10.00"> </text>
<polyline fill="none" stroke="#bfbfbf" points="901.136,-1503 1026.14,-1503 "/>
<text text-anchor="middle" x="963.636" y="-1491" font-family="Helvetica,sans-Serif" font-size="10.00"> </text>
</g>
<!-- Node12&#45;&gt;Node11 -->
<g id="edge11" class="edge"><title>Node12&#45;&gt;Node11</title>
<path fill="none" stroke="#404040" d="M962.571,-1483.72C960.693,-1436.23 955.556,-1353.52 941.636,-1284 940.102,-1276.34 938.07,-1268.35 935.847,-1260.57"/>
<polygon fill="none" stroke="#404040" points="935.826,-1260.5 930.266,-1255.91 932.366,-1249.01 937.926,-1253.6 935.826,-1260.5"/>
<text text-anchor="middle" x="975.136" y="-1298" font-family="Helvetica,sans-Serif" font-size="10.00"> +elements</text>
</g>
<!-- Node13 -->
<g id="node13" class="node"><title>Node13</title>
<g id="a_node13"><a xlink:href="classRa_1_1Engine_1_1Entity.html" target="_top" xlink:title="An entity is an scene element. It ties together components with a transform. ">
<polygon fill="white" stroke="black" points="345.636,-861.5 345.636,-1105.5 485.636,-1105.5 485.636,-861.5 345.636,-861.5"/>
<text text-anchor="middle" x="415.636" y="-1093.5" font-family="Helvetica,sans-Serif" font-size="10.00">Ra::Engine::Entity</text>
<polyline fill="none" stroke="black" points="345.636,-1086.5 485.636,-1086.5 "/>
<text text-anchor="middle" x="415.636" y="-1074.5" font-family="Helvetica,sans-Serif" font-size="10.00"> </text>
<polyline fill="none" stroke="black" points="345.636,-1067.5 485.636,-1067.5 "/>
<text text-anchor="start" x="353.636" y="-1055.5" font-family="Helvetica,sans-Serif" font-size="10.00">+ Entity()</text>
<text text-anchor="start" x="353.636" y="-1044.5" font-family="Helvetica,sans-Serif" font-size="10.00">+ Entity()</text>
<text text-anchor="start" x="353.636" y="-1033.5" font-family="Helvetica,sans-Serif" font-size="10.00">+ operator=()</text>
<text text-anchor="start" x="353.636" y="-1022.5" font-family="Helvetica,sans-Serif" font-size="10.00">+ ~Entity()</text>
<text text-anchor="start" x="353.636" y="-1011.5" font-family="Helvetica,sans-Serif" font-size="10.00">+ getName()</text>
<text text-anchor="start" x="353.636" y="-1000.5" font-family="Helvetica,sans-Serif" font-size="10.00">+ rename()</text>
<text text-anchor="start" x="353.636" y="-989.5" font-family="Helvetica,sans-Serif" font-size="10.00">+ setTransform()</text>
<text text-anchor="start" x="353.636" y="-978.5" font-family="Helvetica,sans-Serif" font-size="10.00">+ setTransform()</text>
<text text-anchor="start" x="353.636" y="-967.5" font-family="Helvetica,sans-Serif" font-size="10.00">+ getTransform()</text>
<text text-anchor="start" x="353.636" y="-956.5" font-family="Helvetica,sans-Serif" font-size="10.00">+ getTransformAsMatrix()</text>
<text text-anchor="start" x="353.636" y="-945.5" font-family="Helvetica,sans-Serif" font-size="10.00">+ swapTransformBuffers()</text>
<text text-anchor="start" x="353.636" y="-934.5" font-family="Helvetica,sans-Serif" font-size="10.00">+ addComponent()</text>
<text text-anchor="start" x="353.636" y="-923.5" font-family="Helvetica,sans-Serif" font-size="10.00">+ removeComponent()</text>
<text text-anchor="start" x="353.636" y="-912.5" font-family="Helvetica,sans-Serif" font-size="10.00">+ getComponent()</text>
<text text-anchor="start" x="353.636" y="-901.5" font-family="Helvetica,sans-Serif" font-size="10.00">+ getComponent()</text>
<text text-anchor="start" x="353.636" y="-890.5" font-family="Helvetica,sans-Serif" font-size="10.00">+ getComponents()</text>
<text text-anchor="start" x="353.636" y="-879.5" font-family="Helvetica,sans-Serif" font-size="10.00">+ getNumComponents()</text>
<text text-anchor="start" x="353.636" y="-868.5" font-family="Helvetica,sans-Serif" font-size="10.00">+ computeAabb()</text>
</a>
</g>
</g>
<!-- Node13&#45;&gt;Node4 -->
<g id="edge20" class="edge"><title>Node13&#45;&gt;Node4</title>
<path fill="none" stroke="#404040" d="M418.696,-861.115C422.793,-783.056 432.2,-679.96 453.636,-591 456.495,-579.136 460.291,-566.883 464.491,-554.954"/>
<polygon fill="none" stroke="#404040" points="464.507,-554.912 462.809,-547.904 468.625,-543.641 470.323,-550.649 464.507,-554.912"/>
<text text-anchor="middle" x="480.636" y="-700" font-family="Helvetica,sans-Serif" font-size="10.00"> +m_entity</text>
</g>
<!-- Node13&#45;&gt;Node5 -->
<g id="edge13" class="edge"><title>Node13&#45;&gt;Node5</title>
<path fill="none" stroke="#404040" d="M485.804,-879.618C490.426,-873.275 495.062,-867.025 499.636,-861 512.973,-843.433 527.536,-825.134 541.948,-807.489"/>
<polygon fill="none" stroke="#404040" points="542.318,-807.038 543.032,-799.863 549.93,-797.762 549.216,-804.938 542.318,-807.038"/>
<text text-anchor="middle" x="547.636" y="-835" font-family="Helvetica,sans-Serif" font-size="10.00"> #m_entity</text>
</g>
<!-- Node14 -->
<g id="node14" class="node"><title>Node14</title>
<g id="a_node14"><a xlink:href="classRa_1_1Core_1_1Utils_1_1IndexedObject.html" target="_top" xlink:title="{Ra::Core::Utils::Indexed\lObject\n||+ IndexedObject()\l+ IndexedObject()\l+ ~IndexedObject()\l+ setIndex()\l+ getIndex()\l}">
<polygon fill="white" stroke="black" points="364.636,-1153.5 364.636,-1265.5 492.636,-1265.5 492.636,-1153.5 364.636,-1153.5"/>
<text text-anchor="start" x="372.636" y="-1253.5" font-family="Helvetica,sans-Serif" font-size="10.00">Ra::Core::Utils::Indexed</text>
<text text-anchor="middle" x="428.636" y="-1242.5" font-family="Helvetica,sans-Serif" font-size="10.00">Object</text>
<polyline fill="none" stroke="black" points="364.636,-1235.5 492.636,-1235.5 "/>
<text text-anchor="middle" x="428.636" y="-1223.5" font-family="Helvetica,sans-Serif" font-size="10.00"> </text>
<polyline fill="none" stroke="black" points="364.636,-1216.5 492.636,-1216.5 "/>
<text text-anchor="start" x="372.636" y="-1204.5" font-family="Helvetica,sans-Serif" font-size="10.00">+ IndexedObject()</text>
<text text-anchor="start" x="372.636" y="-1193.5" font-family="Helvetica,sans-Serif" font-size="10.00">+ IndexedObject()</text>
<text text-anchor="start" x="372.636" y="-1182.5" font-family="Helvetica,sans-Serif" font-size="10.00">+ ~IndexedObject()</text>
<text text-anchor="start" x="372.636" y="-1171.5" font-family="Helvetica,sans-Serif" font-size="10.00">+ setIndex()</text>
<text text-anchor="start" x="372.636" y="-1160.5" font-family="Helvetica,sans-Serif" font-size="10.00">+ getIndex()</text>
</a>
</g>
</g>
<!-- Node14&#45;&gt;Node13 -->
<g id="edge14" class="edge"><title>Node14&#45;&gt;Node13</title>
<path fill="none" stroke="midnightblue" d="M424.847,-1143.21C424.157,-1131.33 423.418,-1118.6 422.67,-1105.7"/>
<polygon fill="none" stroke="midnightblue" points="421.366,-1143.64 425.439,-1153.42 428.354,-1143.23 421.366,-1143.64"/>
</g>
<!-- Node15 -->
<g id="node15" class="node"><title>Node15</title>
<g id="a_node15"><a xlink:href="classRa_1_1Core_1_1Utils_1_1Index.html" target="_top" xlink:title="{Ra::Core::Utils::Index\n||+ Index()\l+ Index()\l+ operator=()\l+ isValid()\l+ isInvalid()\l+ setInvalid()\l+ getValue()\l+ setValue()\l+ operator int()\l+ operator=()\l+ operator++()\l+ operator&#45;&#45;()\l+ operator+()\l+ operator+()\l+ operator&#45;()\l+ operator&#45;()\l+ operator==()\l+ operator==()\l+ operator!=()\l+ operator!=()\l+ operator\&lt;()\l+ operator\&lt;()\l+ operator\&lt;=()\l+ operator\&lt;=()\l+ operator\&gt;()\l+ operator\&gt;()\l+ operator\&gt;=()\l+ operator\&gt;=()\l+ Invalid()\l+ Max()\l}">
<polygon fill="white" stroke="black" points="279.636,-1335.5 279.636,-1711.5 395.636,-1711.5 395.636,-1335.5 279.636,-1335.5"/>
<text text-anchor="middle" x="337.636" y="-1699.5" font-family="Helvetica,sans-Serif" font-size="10.00">Ra::Core::Utils::Index</text>
<polyline fill="none" stroke="black" points="279.636,-1692.5 395.636,-1692.5 "/>
<text text-anchor="middle" x="337.636" y="-1680.5" font-family="Helvetica,sans-Serif" font-size="10.00"> </text>
<polyline fill="none" stroke="black" points="279.636,-1673.5 395.636,-1673.5 "/>
<text text-anchor="start" x="287.636" y="-1661.5" font-family="Helvetica,sans-Serif" font-size="10.00">+ Index()</text>
<text text-anchor="start" x="287.636" y="-1650.5" font-family="Helvetica,sans-Serif" font-size="10.00">+ Index()</text>
<text text-anchor="start" x="287.636" y="-1639.5" font-family="Helvetica,sans-Serif" font-size="10.00">+ operator=()</text>
<text text-anchor="start" x="287.636" y="-1628.5" font-family="Helvetica,sans-Serif" font-size="10.00">+ isValid()</text>
<text text-anchor="start" x="287.636" y="-1617.5" font-family="Helvetica,sans-Serif" font-size="10.00">+ isInvalid()</text>
<text text-anchor="start" x="287.636" y="-1606.5" font-family="Helvetica,sans-Serif" font-size="10.00">+ setInvalid()</text>
<text text-anchor="start" x="287.636" y="-1595.5" font-family="Helvetica,sans-Serif" font-size="10.00">+ getValue()</text>
<text text-anchor="start" x="287.636" y="-1584.5" font-family="Helvetica,sans-Serif" font-size="10.00">+ setValue()</text>
<text text-anchor="start" x="287.636" y="-1573.5" font-family="Helvetica,sans-Serif" font-size="10.00">+ operator int()</text>
<text text-anchor="start" x="287.636" y="-1562.5" font-family="Helvetica,sans-Serif" font-size="10.00">+ operator=()</text>
<text text-anchor="start" x="287.636" y="-1551.5" font-family="Helvetica,sans-Serif" font-size="10.00">+ operator++()</text>
<text text-anchor="start" x="287.636" y="-1540.5" font-family="Helvetica,sans-Serif" font-size="10.00">+ operator&#45;&#45;()</text>
<text text-anchor="start" x="287.636" y="-1529.5" font-family="Helvetica,sans-Serif" font-size="10.00">+ operator+()</text>
<text text-anchor="start" x="287.636" y="-1518.5" font-family="Helvetica,sans-Serif" font-size="10.00">+ operator+()</text>
<text text-anchor="start" x="287.636" y="-1507.5" font-family="Helvetica,sans-Serif" font-size="10.00">+ operator&#45;()</text>
<text text-anchor="start" x="287.636" y="-1496.5" font-family="Helvetica,sans-Serif" font-size="10.00">+ operator&#45;()</text>
<text text-anchor="start" x="287.636" y="-1485.5" font-family="Helvetica,sans-Serif" font-size="10.00">+ operator==()</text>
<text text-anchor="start" x="287.636" y="-1474.5" font-family="Helvetica,sans-Serif" font-size="10.00">+ operator==()</text>
<text text-anchor="start" x="287.636" y="-1463.5" font-family="Helvetica,sans-Serif" font-size="10.00">+ operator!=()</text>
<text text-anchor="start" x="287.636" y="-1452.5" font-family="Helvetica,sans-Serif" font-size="10.00">+ operator!=()</text>
<text text-anchor="start" x="287.636" y="-1441.5" font-family="Helvetica,sans-Serif" font-size="10.00">+ operator&lt;()</text>
<text text-anchor="start" x="287.636" y="-1430.5" font-family="Helvetica,sans-Serif" font-size="10.00">+ operator&lt;()</text>
<text text-anchor="start" x="287.636" y="-1419.5" font-family="Helvetica,sans-Serif" font-size="10.00">+ operator&lt;=()</text>
<text text-anchor="start" x="287.636" y="-1408.5" font-family="Helvetica,sans-Serif" font-size="10.00">+ operator&lt;=()</text>
<text text-anchor="start" x="287.636" y="-1397.5" font-family="Helvetica,sans-Serif" font-size="10.00">+ operator&gt;()</text>
<text text-anchor="start" x="287.636" y="-1386.5" font-family="Helvetica,sans-Serif" font-size="10.00">+ operator&gt;()</text>
<text text-anchor="start" x="287.636" y="-1375.5" font-family="Helvetica,sans-Serif" font-size="10.00">+ operator&gt;=()</text>
<text text-anchor="start" x="287.636" y="-1364.5" font-family="Helvetica,sans-Serif" font-size="10.00">+ operator&gt;=()</text>
<text text-anchor="start" x="287.636" y="-1353.5" font-family="Helvetica,sans-Serif" font-size="10.00">+ Invalid()</text>
<text text-anchor="start" x="287.636" y="-1342.5" font-family="Helvetica,sans-Serif" font-size="10.00">+ Max()</text>
</a>
</g>
</g>
<!-- Node15&#45;&gt;Node4 -->
<g id="edge19" class="edge"><title>Node15&#45;&gt;Node4</title>
<path fill="none" stroke="#404040" d="M395.855,-1466.23C449.761,-1407.84 521.636,-1311.12 521.636,-1210.5 521.636,-1210.5 521.636,-1210.5 521.636,-701.5 521.636,-653.042 516.936,-599.068 511.983,-555.643"/>
<polygon fill="none" stroke="#404040" points="511.978,-555.606 507.308,-550.112 510.582,-543.688 515.253,-549.182 511.978,-555.606"/>
<text text-anchor="middle" x="552.636" y="-981" font-family="Helvetica,sans-Serif" font-size="10.00"> +m_roIndex</text>
</g>
<!-- Node15&#45;&gt;Node14 -->
<g id="edge15" class="edge"><title>Node15&#45;&gt;Node14</title>
<path fill="none" stroke="#404040" d="M392.278,-1335.16C398.259,-1314.65 404.019,-1294.9 409.124,-1277.4"/>
<polygon fill="none" stroke="#404040" points="409.187,-1277.18 407.027,-1270.3 412.547,-1265.66 414.707,-1272.54 409.187,-1277.18"/>
<text text-anchor="middle" x="427.636" y="-1298" font-family="Helvetica,sans-Serif" font-size="10.00"> #m_idx</text>
</g>
<!-- Node20 -->
<g id="node20" class="node"><title>Node20</title>
<g id="a_node20"><a xlink:href="classRa_1_1Gui_1_1KeyMappingManageable.html" target="_top" xlink:title="{Ra::Gui::KeyMappingManageable\l\&lt; GizmoManager \&gt;\n||+ getContext()\l+ configureKeyMapping()\l# self()\l}">
<polygon fill="white" stroke="black" points="155.636,-938.5 155.636,-1028.5 327.636,-1028.5 327.636,-938.5 155.636,-938.5"/>
<text text-anchor="start" x="163.636" y="-1016.5" font-family="Helvetica,sans-Serif" font-size="10.00">Ra::Gui::KeyMappingManageable</text>
<text text-anchor="middle" x="241.636" y="-1005.5" font-family="Helvetica,sans-Serif" font-size="10.00">&lt; GizmoManager &gt;</text>
<polyline fill="none" stroke="black" points="155.636,-998.5 327.636,-998.5 "/>
<text text-anchor="middle" x="241.636" y="-986.5" font-family="Helvetica,sans-Serif" font-size="10.00"> </text>
<polyline fill="none" stroke="black" points="155.636,-979.5 327.636,-979.5 "/>
<text text-anchor="start" x="163.636" y="-967.5" font-family="Helvetica,sans-Serif" font-size="10.00">+ getContext()</text>
<text text-anchor="start" x="163.636" y="-956.5" font-family="Helvetica,sans-Serif" font-size="10.00">+ configureKeyMapping()</text>
<text text-anchor="start" x="163.636" y="-945.5" font-family="Helvetica,sans-Serif" font-size="10.00"># self()</text>
</a>
</g>
</g>
<!-- Node15&#45;&gt;Node20 -->
<g id="edge23" class="edge"><title>Node15&#45;&gt;Node20</title>
<path fill="none" stroke="#404040" d="M279.455,-1496.32C202.744,-1458.17 71.1327,-1379.3 16.636,-1266 -5.13265,-1220.74 -5.84008,-1197.91 16.636,-1153 43.6472,-1099.03 97.0731,-1057.88 145.087,-1029.76"/>
<polygon fill="none" stroke="#404040" points="145.136,-1029.73 148.362,-1023.28 155.556,-1023.78 152.33,-1030.23 145.136,-1029.73"/>
<text text-anchor="middle" x="77.136" y="-1207" font-family="Helvetica,sans-Serif" font-size="10.00"> #m_keyMappingContext</text>
</g>
<!-- Node21 -->
<g id="node21" class="node"><title>Node21</title>
<g id="a_node21"><a xlink:href="classRa_1_1Gui_1_1KeyMappingManageable.html" target="_top" xlink:title="KeyMappingManageable decorate, typical use as a CRTP : class MyClass : public KeyMappingManageable&lt;My...">
<polygon fill="white" stroke="black" points="146.636,-1170 146.636,-1249 346.636,-1249 346.636,-1170 146.636,-1170"/>
<text text-anchor="middle" x="246.636" y="-1237" font-family="Helvetica,sans-Serif" font-size="10.00">Ra::Gui::KeyMappingManageable&lt; T &gt;</text>
<polyline fill="none" stroke="black" points="146.636,-1230 346.636,-1230 "/>
<text text-anchor="middle" x="246.636" y="-1218" font-family="Helvetica,sans-Serif" font-size="10.00"> </text>
<polyline fill="none" stroke="black" points="146.636,-1211 346.636,-1211 "/>
<text text-anchor="start" x="154.636" y="-1199" font-family="Helvetica,sans-Serif" font-size="10.00">+ getContext()</text>
<text text-anchor="start" x="154.636" y="-1188" font-family="Helvetica,sans-Serif" font-size="10.00">+ configureKeyMapping()</text>
<text text-anchor="start" x="154.636" y="-1177" font-family="Helvetica,sans-Serif" font-size="10.00"># self()</text>
</a>
</g>
</g>
<!-- Node15&#45;&gt;Node21 -->
<g id="edge25" class="edge"><title>Node15&#45;&gt;Node21</title>
<path fill="none" stroke="#404040" d="M279.893,-1335.28C278.104,-1329.12 276.347,-1323.01 274.636,-1317 269.423,-1298.69 264.028,-1278.5 259.382,-1260.67"/>
<polygon fill="none" stroke="#404040" points="259.381,-1260.67 254.004,-1255.86 256.372,-1249.05 261.748,-1253.86 259.381,-1260.67"/>
<text text-anchor="middle" x="335.136" y="-1298" font-family="Helvetica,sans-Serif" font-size="10.00"> #m_keyMappingContext</text>
</g>
<!-- Node16 -->
<g id="node16" class="node"><title>Node16</title>
<g id="a_node16"><a xlink:href="classint.html" target="_top" xlink:title="{int\n||}">
<polygon fill="white" stroke="black" points="323.136,-1759.5 323.136,-1816.5 352.136,-1816.5 352.136,-1759.5 323.136,-1759.5"/>
<text text-anchor="middle" x="337.636" y="-1804.5" font-family="Helvetica,sans-Serif" font-size="10.00">int</text>
<polyline fill="none" stroke="black" points="323.136,-1797.5 352.136,-1797.5 "/>
<text text-anchor="middle" x="337.636" y="-1785.5" font-family="Helvetica,sans-Serif" font-size="10.00"> </text>
<polyline fill="none" stroke="black" points="323.136,-1778.5 352.136,-1778.5 "/>
<text text-anchor="middle" x="337.636" y="-1766.5" font-family="Helvetica,sans-Serif" font-size="10.00"> </text>
</a>
</g>
</g>
<!-- Node16&#45;&gt;Node15 -->
<g id="edge16" class="edge"><title>Node16&#45;&gt;Node15</title>
<path fill="none" stroke="#404040" d="M337.636,-1759.4C337.636,-1749.43 337.636,-1737.26 337.636,-1723.76"/>
<polygon fill="none" stroke="#404040" points="337.636,-1723.58 333.636,-1717.58 337.636,-1711.58 341.636,-1717.58 337.636,-1723.58"/>
<text text-anchor="middle" x="357.636" y="-1733" font-family="Helvetica,sans-Serif" font-size="10.00"> #m_idx</text>
</g>
<!-- Node17 -->
<g id="node17" class="node"><title>Node17</title>
<g id="a_node17"><a xlink:title="STL class. ">
<polygon fill="white" stroke="#bfbfbf" points="732.136,-955 732.136,-1012 797.136,-1012 797.136,-955 732.136,-955"/>
<text text-anchor="middle" x="764.636" y="-1000" font-family="Helvetica,sans-Serif" font-size="10.00">std::string</text>
<polyline fill="none" stroke="#bfbfbf" points="732.136,-993 797.136,-993 "/>
<text text-anchor="middle" x="764.636" y="-981" font-family="Helvetica,sans-Serif" font-size="10.00"> </text>
<polyline fill="none" stroke="#bfbfbf" points="732.136,-974 797.136,-974 "/>
<text text-anchor="middle" x="764.636" y="-962" font-family="Helvetica,sans-Serif" font-size="10.00"> </text>
</a>
</g>
</g>
<!-- Node17&#45;&gt;Node5 -->
<g id="edge17" class="edge"><title>Node17&#45;&gt;Node5</title>
<path fill="none" stroke="#404040" d="M755.044,-954.548C746.206,-929.629 732.278,-892.354 717.636,-861 712.013,-848.96 705.857,-836.572 699.5,-824.285"/>
<polygon fill="none" stroke="#404040" points="699.433,-824.157 693.107,-820.695 693.87,-813.524 700.196,-816.986 699.433,-824.157"/>
<text text-anchor="middle" x="734.136" y="-835" font-family="Helvetica,sans-Serif" font-size="10.00"> #m_name</text>
</g>
<!-- Node18 -->
<g id="node18" class="node"><title>Node18</title>
<g id="a_node18"><a xlink:title="STL class. ">
<polygon fill="white" stroke="#bfbfbf" points="710.136,-1175.5 710.136,-1243.5 813.136,-1243.5 813.136,-1175.5 710.136,-1175.5"/>
<text text-anchor="start" x="718.136" y="-1231.5" font-family="Helvetica,sans-Serif" font-size="10.00">std::basic_string&lt;</text>
<text text-anchor="middle" x="761.636" y="-1220.5" font-family="Helvetica,sans-Serif" font-size="10.00"> char &gt;</text>
<polyline fill="none" stroke="#bfbfbf" points="710.136,-1213.5 813.136,-1213.5 "/>
<text text-anchor="middle" x="761.636" y="-1201.5" font-family="Helvetica,sans-Serif" font-size="10.00"> </text>
<polyline fill="none" stroke="#bfbfbf" points="710.136,-1194.5 813.136,-1194.5 "/>
<text text-anchor="middle" x="761.636" y="-1182.5" font-family="Helvetica,sans-Serif" font-size="10.00"> </text>
</a>
</g>
</g>
<!-- Node18&#45;&gt;Node17 -->
<g id="edge18" class="edge"><title>Node18&#45;&gt;Node17</title>
<path fill="none" stroke="midnightblue" d="M762.214,-1165.35C762.82,-1120.09 763.754,-1050.34 764.267,-1012.04"/>
<polygon fill="none" stroke="midnightblue" points="758.713,-1165.4 762.079,-1175.45 765.712,-1165.5 758.713,-1165.4"/>
</g>
<!-- Node19 -->
<g id="node19" class="node"><title>Node19</title>
<polygon fill="white" stroke="#bfbfbf" points="581.636,-437 581.636,-505 689.636,-505 689.636,-437 581.636,-437"/>
<text text-anchor="start" x="589.636" y="-493" font-family="Helvetica,sans-Serif" font-size="10.00">Transform&lt; Scalar,</text>
<text text-anchor="middle" x="635.636" y="-482" font-family="Helvetica,sans-Serif" font-size="10.00"> 3, Eigen::Affine &gt;</text>
<polyline fill="none" stroke="#bfbfbf" points="581.636,-475 689.636,-475 "/>
<text text-anchor="middle" x="635.636" y="-463" font-family="Helvetica,sans-Serif" font-size="10.00"> </text>
<polyline fill="none" stroke="#bfbfbf" points="581.636,-456 689.636,-456 "/>
<text text-anchor="middle" x="635.636" y="-444" font-family="Helvetica,sans-Serif" font-size="10.00"> </text>
</g>
<!-- Node19&#45;&gt;Node3 -->
<g id="edge21" class="edge"><title>Node19&#45;&gt;Node3</title>
<path fill="none" stroke="#404040" d="M621.59,-436.716C612.237,-416.291 598.888,-390.098 583.636,-369 581.477,-366.013 579.213,-363.031 576.87,-360.066"/>
<polygon fill="none" stroke="#404040" points="576.771,-359.946 569.871,-357.853 569.149,-350.678 576.05,-352.771 576.771,-359.946"/>
<text text-anchor="middle" x="626.636" y="-372" font-family="Helvetica,sans-Serif" font-size="10.00"> #m_transform</text>
</g>
<!-- Node20&#45;&gt;Node1 -->
<g id="edge22" class="edge"><title>Node20&#45;&gt;Node1</title>
<path fill="none" stroke="midnightblue" d="M261.278,-928.618C279.767,-873.012 304.636,-783.37 304.636,-703.5 304.636,-703.5 304.636,-703.5 304.636,-282.5 304.636,-248.667 304.636,-211.48 304.636,-178.917"/>
<polygon fill="none" stroke="midnightblue" points="257.907,-927.662 258.024,-938.256 264.539,-929.902 257.907,-927.662"/>
</g>
<!-- Node21&#45;&gt;Node20 -->
<g id="edge24" class="edge"><title>Node21&#45;&gt;Node20</title>
<path fill="none" stroke="orange" d="M245.551,-1159.91C244.68,-1120.86 243.466,-1066.47 242.621,-1028.64"/>
<polygon fill="orange" stroke="orange" points="242.054,-1160.07 245.776,-1169.99 249.052,-1159.92 242.054,-1160.07"/>
<text text-anchor="middle" x="295.136" y="-1127" font-family="Helvetica,sans-Serif" font-size="10.00"> &lt; GizmoManager &gt;</text>
</g>
</g>
</svg>
