<?xml version="1.0" encoding="UTF-8" standalone="no"?>
<!DOCTYPE svg PUBLIC "-//W3C//DTD SVG 1.1//EN"
 "http://www.w3.org/Graphics/SVG/1.1/DTD/svg11.dtd">
<!-- Generated by graphviz version 2.38.0 (20140413.2041)
 -->
<!-- Title: Ra::GuiBase::BaseApplication::recordFrame Pages: 1 -->
<svg width="677pt" height="225pt"
 viewBox="0.00 0.00 677.00 225.00" xmlns="http://www.w3.org/2000/svg" xmlns:xlink="http://www.w3.org/1999/xlink">
<g id="graph0" class="graph" transform="scale(1 1) rotate(0) translate(4 221)">
<title>Ra::GuiBase::BaseApplication::recordFrame</title>
<polygon fill="white" stroke="none" points="-4,4 -4,-221 673,-221 673,4 -4,4"/>
<!-- Node1 -->
<g id="node1" class="node"><title>Node1</title>
<polygon fill="#bfbfbf" stroke="black" points="0,-66.5 0,-96.5 157,-96.5 157,-66.5 0,-66.5"/>
<text text-anchor="start" x="8" y="-84.5" font-family="Helvetica,sans-Serif" font-size="10.00">Ra::GuiBase::BaseApplication</text>
<text text-anchor="middle" x="78.5" y="-73.5" font-family="Helvetica,sans-Serif" font-size="10.00">::recordFrame</text>
</g>
<!-- Node2 -->
<g id="node2" class="node"><title>Node2</title>
<g id="a_node2"><a xlink:href="classRa_1_1Gui_1_1Viewer.html#ab3854bf1c656d1f6bf7e12e61251e9dc" target="_top" xlink:title="Write the current frame as an image. Supports either BMP or PNG file names. ">
<polygon fill="white" stroke="black" points="193,-72 193,-91 339,-91 339,-72 193,-72"/>
<text text-anchor="middle" x="266" y="-79" font-family="Helvetica,sans-Serif" font-size="10.00">Ra::Gui::Viewer::grabFrame</text>
</a>
</g>
</g>
<!-- Node1&#45;&gt;Node2 -->
<g id="edge1" class="edge"><title>Node1&#45;&gt;Node2</title>
<path fill="none" stroke="midnightblue" d="M157.094,-81.5C165.493,-81.5 174.063,-81.5 182.518,-81.5"/>
<polygon fill="midnightblue" stroke="midnightblue" points="182.754,-85.0001 192.754,-81.5 182.754,-78.0001 182.754,-85.0001"/>
</g>
<!-- Node3 -->
<g id="node3" class="node"><title>Node3</title>
<g id="a_node3"><a xlink:href="classRa_1_1Gui_1_1WindowQt.html#a78476baacd2df24a260f604d02c8ddc4" target="_top" xlink:title="Make the OpenGL context associated with the viewer the current context. ">
<polygon fill="white" stroke="black" points="388.5,-137.5 388.5,-167.5 497.5,-167.5 497.5,-137.5 388.5,-137.5"/>
<text text-anchor="start" x="396.5" y="-155.5" font-family="Helvetica,sans-Serif" font-size="10.00">Ra::Gui::WindowQt::</text>
<text text-anchor="middle" x="443" y="-144.5" font-family="Helvetica,sans-Serif" font-size="10.00">makeCurrent</text>
</a>
</g>
</g>
<!-- Node2&#45;&gt;Node3 -->
<g id="edge2" class="edge"><title>Node2&#45;&gt;Node3</title>
<path fill="none" stroke="midnightblue" d="M288.805,-91.1324C310.533,-100.649 344.906,-115.484 375,-127.5 380.189,-129.572 385.623,-131.688 391.057,-133.768"/>
<polygon fill="midnightblue" stroke="midnightblue" points="390.193,-137.184 400.784,-137.458 392.676,-130.639 390.193,-137.184"/>
</g>
<!-- Node4 -->
<g id="node4" class="node"><title>Node4</title>
<g id="a_node4"><a xlink:href="classRa_1_1Engine_1_1Renderer.html#a584cc744ee0f15884f5f853209c055cd" target="_top" xlink:title="Ra::Engine::Renderer\l::grabFrame">
<polygon fill="white" stroke="black" points="385,-88.5 385,-118.5 501,-118.5 501,-88.5 385,-88.5"/>
<text text-anchor="start" x="393" y="-106.5" font-family="Helvetica,sans-Serif" font-size="10.00">Ra::Engine::Renderer</text>
<text text-anchor="middle" x="443" y="-95.5" font-family="Helvetica,sans-Serif" font-size="10.00">::grabFrame</text>
</a>
</g>
</g>
<!-- Node2&#45;&gt;Node4 -->
<g id="edge3" class="edge"><title>Node2&#45;&gt;Node4</title>
<path fill="none" stroke="midnightblue" d="M339.19,-90.5753C350.986,-92.0583 363.167,-93.5895 374.836,-95.0565"/>
<polygon fill="midnightblue" stroke="midnightblue" points="374.578,-98.5516 384.937,-96.3263 375.452,-91.6063 374.578,-98.5516"/>
</g>
<!-- Node10 -->
<g id="node10" class="node"><title>Node10</title>
<g id="a_node10"><a xlink:href="namespaceRa_1_1Core_1_1Utils.html#aad2a7bedc49e227d0503794d76acbfea" target="_top" xlink:title="Ra::Core::Utils::getFileExt">
<polygon fill="white" stroke="black" points="375,-50 375,-69 511,-69 511,-50 375,-50"/>
<text text-anchor="middle" x="443" y="-57" font-family="Helvetica,sans-Serif" font-size="10.00">Ra::Core::Utils::getFileExt</text>
</a>
</g>
</g>
<!-- Node2&#45;&gt;Node10 -->
<g id="edge9" class="edge"><title>Node2&#45;&gt;Node10</title>
<path fill="none" stroke="midnightblue" d="M339.19,-72.4247C347.649,-71.3613 356.304,-70.2731 364.828,-69.2016"/>
<polygon fill="midnightblue" stroke="midnightblue" points="365.268,-72.674 374.753,-67.9539 364.394,-65.7287 365.268,-72.674"/>
</g>
<!-- Node11 -->
<g id="node11" class="node"><title>Node11</title>
<g id="a_node11"><a xlink:href="classRa_1_1Gui_1_1WindowQt.html#acd31b9e580f049491d13c16ef954d964" target="_top" xlink:title="Reset the current OpenGL context that is no more the one associated with the viewer. ">
<polygon fill="white" stroke="black" points="388.5,-0.5 388.5,-30.5 497.5,-30.5 497.5,-0.5 388.5,-0.5"/>
<text text-anchor="start" x="396.5" y="-18.5" font-family="Helvetica,sans-Serif" font-size="10.00">Ra::Gui::WindowQt::</text>
<text text-anchor="middle" x="443" y="-7.5" font-family="Helvetica,sans-Serif" font-size="10.00">doneCurrent</text>
</a>
</g>
</g>
<!-- Node2&#45;&gt;Node11 -->
<g id="edge10" class="edge"><title>Node2&#45;&gt;Node11</title>
<path fill="none" stroke="midnightblue" d="M292.298,-71.8497C314.175,-63.5154 346.657,-51.1677 375,-40.5 380.508,-38.4268 386.274,-36.2641 392.013,-34.1162"/>
<polygon fill="midnightblue" stroke="midnightblue" points="393.455,-37.3138 401.596,-30.5337 391.004,-30.757 393.455,-37.3138"/>
</g>
<!-- Node5 -->
<g id="node5" class="node"><title>Node5</title>
<g id="a_node5"><a xlink:href="classRa_1_1Engine_1_1Renderer.html#a8a68ecdea83da2148ef303176bcffac8" target="_top" xlink:title="Get the currently displayed texture. ">
<polygon fill="white" stroke="black" points="550,-186.5 550,-216.5 666,-216.5 666,-186.5 550,-186.5"/>
<text text-anchor="start" x="558" y="-204.5" font-family="Helvetica,sans-Serif" font-size="10.00">Ra::Engine::Renderer</text>
<text text-anchor="middle" x="608" y="-193.5" font-family="Helvetica,sans-Serif" font-size="10.00">::getDisplayTexture</text>
</a>
</g>
</g>
<!-- Node4&#45;&gt;Node5 -->
<g id="edge4" class="edge"><title>Node4&#45;&gt;Node5</title>
<path fill="none" stroke="midnightblue" d="M494.364,-118.575C500.251,-121.394 505.948,-124.682 511,-128.5 532.56,-144.793 525.632,-160.956 547,-177.5 548.766,-178.867 550.62,-180.167 552.538,-181.401"/>
<polygon fill="midnightblue" stroke="midnightblue" points="550.861,-184.474 561.279,-186.402 554.337,-178.399 550.861,-184.474"/>
</g>
<!-- Node6 -->
<g id="node6" class="node"><title>Node6</title>
<g id="a_node6"><a xlink:href="classRa_1_1Engine_1_1Texture.html#a9ba7fb88d2b2b023ad5e68f2d4f3f1bb" target="_top" xlink:title="Bind the texture to enable its use in a shader. ">
<polygon fill="white" stroke="black" points="554.5,-137.5 554.5,-167.5 661.5,-167.5 661.5,-137.5 554.5,-137.5"/>
<text text-anchor="start" x="562.5" y="-155.5" font-family="Helvetica,sans-Serif" font-size="10.00">Ra::Engine::Texture</text>
<text text-anchor="middle" x="608" y="-144.5" font-family="Helvetica,sans-Serif" font-size="10.00">::bind</text>
</a>
</g>
</g>
<!-- Node4&#45;&gt;Node6 -->
<g id="edge5" class="edge"><title>Node4&#45;&gt;Node6</title>
<path fill="none" stroke="midnightblue" d="M494.235,-118.601C510.891,-123.608 529.6,-129.232 546.919,-134.439"/>
<polygon fill="midnightblue" stroke="midnightblue" points="546.346,-137.921 556.93,-137.448 548.361,-131.218 546.346,-137.921"/>
</g>
<!-- Node7 -->
<g id="node7" class="node"><title>Node7</title>
<g id="a_node7"><a xlink:href="classRa_1_1Engine_1_1Texture.html#a5fb64b92e7a9025f6ad315f84eba2dca" target="_top" xlink:title="Ra::Engine::Texture\l::width">
<polygon fill="white" stroke="black" points="554.5,-88.5 554.5,-118.5 661.5,-118.5 661.5,-88.5 554.5,-88.5"/>
<text text-anchor="start" x="562.5" y="-106.5" font-family="Helvetica,sans-Serif" font-size="10.00">Ra::Engine::Texture</text>
<text text-anchor="middle" x="608" y="-95.5" font-family="Helvetica,sans-Serif" font-size="10.00">::width</text>
</a>
</g>
</g>
<!-- Node4&#45;&gt;Node7 -->
<g id="edge6" class="edge"><title>Node4&#45;&gt;Node7</title>
<path fill="none" stroke="midnightblue" d="M501.009,-103.5C514.972,-103.5 529.991,-103.5 544.208,-103.5"/>
<polygon fill="midnightblue" stroke="midnightblue" points="544.392,-107 554.392,-103.5 544.392,-100 544.392,-107"/>
</g>
<!-- Node8 -->
<g id="node8" class="node"><title>Node8</title>
<g id="a_node8"><a xlink:href="classRa_1_1Engine_1_1Texture.html#a42c27099c6aa960f13485a4477517296" target="_top" xlink:title="Ra::Engine::Texture\l::height">
<polygon fill="white" stroke="black" points="554.5,-39.5 554.5,-69.5 661.5,-69.5 661.5,-39.5 554.5,-39.5"/>
<text text-anchor="start" x="562.5" y="-57.5" font-family="Helvetica,sans-Serif" font-size="10.00">Ra::Engine::Texture</text>
<text text-anchor="middle" x="608" y="-46.5" font-family="Helvetica,sans-Serif" font-size="10.00">::height</text>
</a>
</g>
</g>
<!-- Node4&#45;&gt;Node8 -->
<g id="edge7" class="edge"><title>Node4&#45;&gt;Node8</title>
<path fill="none" stroke="midnightblue" d="M494.235,-88.3986C510.891,-83.3917 529.6,-77.7676 546.919,-72.561"/>
<polygon fill="midnightblue" stroke="midnightblue" points="548.361,-75.7823 556.93,-69.5516 546.346,-69.0787 548.361,-75.7823"/>
</g>
<!-- Node9 -->
<g id="node9" class="node"><title>Node9</title>
<g id="a_node9"><a xlink:href="namespaceRa_1_1Core_1_1Math.html#acc9f6f3b880b60bf0ee7723afabaf180" target="_top" xlink:title="Component&#45;wise clamp() function on a floating&#45;point vector. ">
<polygon fill="white" stroke="black" points="547,-1 547,-20 669,-20 669,-1 547,-1"/>
<text text-anchor="middle" x="608" y="-8" font-family="Helvetica,sans-Serif" font-size="10.00">Ra::Core::Math::clamp</text>
</a>
</g>
</g>
<!-- Node4&#45;&gt;Node9 -->
<g id="edge8" class="edge"><title>Node4&#45;&gt;Node9</title>
<path fill="none" stroke="midnightblue" d="M494.364,-88.4253C500.251,-85.6062 505.948,-82.3175 511,-78.5 532.56,-62.2071 525.036,-45.2438 547,-29.5 549.709,-27.5585 552.623,-25.8098 555.657,-24.2358"/>
<polygon fill="midnightblue" stroke="midnightblue" points="557.344,-27.3148 565.026,-20.0187 554.47,-20.9316 557.344,-27.3148"/>
</g>
</g>
</svg>
