<?xml version="1.0" encoding="UTF-8" standalone="no"?>
<!DOCTYPE svg PUBLIC "-//W3C//DTD SVG 1.1//EN"
 "http://www.w3.org/Graphics/SVG/1.1/DTD/svg11.dtd">
<!-- Generated by graphviz version 2.38.0 (20140413.2041)
 -->
<!-- Title: Ra::Gui::RotateGizmo::isSelected Pages: 1 -->
<svg width="917pt" height="345pt"
 viewBox="0.00 0.00 917.00 345.00" xmlns="http://www.w3.org/2000/svg" xmlns:xlink="http://www.w3.org/1999/xlink">
<g id="graph0" class="graph" transform="scale(1 1) rotate(0) translate(4 341)">
<title>Ra::Gui::RotateGizmo::isSelected</title>
<polygon fill="white" stroke="none" points="-4,4 -4,-341 913,-341 913,4 -4,4"/>
<!-- Node1 -->
<g id="node1" class="node"><title>Node1</title>
<polygon fill="#bfbfbf" stroke="black" points="0,-171.5 0,-201.5 118,-201.5 118,-171.5 0,-171.5"/>
<text text-anchor="start" x="8" y="-189.5" font-family="Helvetica,sans-Serif" font-size="10.00">Ra::Gui::RotateGizmo</text>
<text text-anchor="middle" x="59" y="-178.5" font-family="Helvetica,sans-Serif" font-size="10.00">::isSelected</text>
</g>
<!-- Node2 -->
<g id="node2" class="node"><title>Node2</title>
<g id="a_node2"><a xlink:href="classRa_1_1Gui_1_1RotateGizmo.html#afee12b0bbfe7986d1a569a6ed6fca8d9" target="_top" xlink:title="Called when the gizmo is first clicked, with the camera parameters and the initial pixel coordinates...">
<polygon fill="white" stroke="black" points="154,-196.5 154,-226.5 272,-226.5 272,-196.5 154,-196.5"/>
<text text-anchor="start" x="162" y="-214.5" font-family="Helvetica,sans-Serif" font-size="10.00">Ra::Gui::RotateGizmo</text>
<text text-anchor="middle" x="213" y="-203.5" font-family="Helvetica,sans-Serif" font-size="10.00">::setInitialState</text>
</a>
</g>
</g>
<!-- Node1&#45;&gt;Node2 -->
<g id="edge1" class="edge"><title>Node1&#45;&gt;Node2</title>
<path fill="none" stroke="midnightblue" d="M118.332,-196.094C126.697,-197.47 135.363,-198.895 143.895,-200.299"/>
<polygon fill="midnightblue" stroke="midnightblue" points="143.388,-203.762 153.824,-201.932 144.524,-196.855 143.388,-203.762"/>
</g>
<!-- Node3 -->
<g id="node3" class="node"><title>Node3</title>
<g id="a_node3"><a xlink:href="classRa_1_1Gui_1_1RotateGizmo.html#a72952ef57c154362f7aeffc21344497c" target="_top" xlink:title="Called when the mouse movement is recorder with the camera parameters and the current pixel coordinat...">
<polygon fill="white" stroke="black" points="154,-147.5 154,-177.5 272,-177.5 272,-147.5 154,-147.5"/>
<text text-anchor="start" x="162" y="-165.5" font-family="Helvetica,sans-Serif" font-size="10.00">Ra::Gui::RotateGizmo</text>
<text text-anchor="middle" x="213" y="-154.5" font-family="Helvetica,sans-Serif" font-size="10.00">::mouseMove</text>
</a>
</g>
</g>
<!-- Node1&#45;&gt;Node3 -->
<g id="edge2" class="edge"><title>Node1&#45;&gt;Node3</title>
<path fill="none" stroke="midnightblue" d="M118.332,-177.29C126.697,-175.969 135.363,-174.601 143.895,-173.253"/>
<polygon fill="midnightblue" stroke="midnightblue" points="144.492,-176.703 153.824,-171.686 143.4,-169.788 144.492,-176.703"/>
</g>
<!-- Node4 -->
<g id="node4" class="node"><title>Node4</title>
<g id="a_node4"><a xlink:href="classRa_1_1Gui_1_1Gizmo.html#a59f612603ee6c129a563ee6829abbc63" target="_top" xlink:title="Ra::Gui::Gizmo::findPoint\lOnPlane">
<polygon fill="white" stroke="black" points="312.5,-273.5 312.5,-303.5 446.5,-303.5 446.5,-273.5 312.5,-273.5"/>
<text text-anchor="start" x="320.5" y="-291.5" font-family="Helvetica,sans-Serif" font-size="10.00">Ra::Gui::Gizmo::findPoint</text>
<text text-anchor="middle" x="379.5" y="-280.5" font-family="Helvetica,sans-Serif" font-size="10.00">OnPlane</text>
</a>
</g>
</g>
<!-- Node3&#45;&gt;Node4 -->
<g id="edge3" class="edge"><title>Node3&#45;&gt;Node4</title>
<path fill="none" stroke="midnightblue" d="M258.564,-177.615C263.439,-180.419 268.055,-183.693 272,-187.5 298.892,-213.457 280.264,-238.448 308,-263.5 309.723,-265.056 311.548,-266.517 313.455,-267.887"/>
<polygon fill="midnightblue" stroke="midnightblue" points="311.912,-271.049 322.256,-273.342 315.599,-265.099 311.912,-271.049"/>
</g>
<!-- Node11 -->
<g id="node11" class="node"><title>Node11</title>
<g id="a_node11"><a xlink:href="namespaceRa_1_1Core_1_1Math.html#a5306cf8ea65c31d4bbe0560ec7bb6bb4" target="_top" xlink:title="Get the angle between two vectors. ">
<polygon fill="white" stroke="black" points="320,-235 320,-254 439,-254 439,-235 320,-235"/>
<text text-anchor="middle" x="379.5" y="-242" font-family="Helvetica,sans-Serif" font-size="10.00">Ra::Core::Math::angle</text>
</a>
</g>
</g>
<!-- Node3&#45;&gt;Node11 -->
<g id="edge10" class="edge"><title>Node3&#45;&gt;Node11</title>
<path fill="none" stroke="midnightblue" d="M254.756,-177.547C260.757,-180.471 266.696,-183.796 272,-187.5 291.073,-200.822 288.02,-213.582 308,-225.5 311.674,-227.692 315.605,-229.636 319.661,-231.359"/>
<polygon fill="midnightblue" stroke="midnightblue" points="318.698,-234.737 329.29,-234.994 321.17,-228.188 318.698,-234.737"/>
</g>
<!-- Node12 -->
<g id="node12" class="node"><title>Node12</title>
<g id="a_node12"><a xlink:href="namespaceRa_1_1Core_1_1Math.html#a90f0fe9079f5bb86c721ea4b61738470" target="_top" xlink:title="Returns the sign of any numeric type as { &#45;1, 0, 1}. ">
<polygon fill="white" stroke="black" points="323,-197 323,-216 436,-216 436,-197 323,-197"/>
<text text-anchor="middle" x="379.5" y="-204" font-family="Helvetica,sans-Serif" font-size="10.00">Ra::Core::Math::sign</text>
</a>
</g>
</g>
<!-- Node3&#45;&gt;Node12 -->
<g id="edge11" class="edge"><title>Node3&#45;&gt;Node12</title>
<path fill="none" stroke="midnightblue" d="M270.151,-177.519C290.6,-182.989 313.45,-189.101 332.875,-194.296"/>
<polygon fill="midnightblue" stroke="midnightblue" points="332.125,-197.719 342.69,-196.922 333.934,-190.957 332.125,-197.719"/>
</g>
<!-- Node14 -->
<g id="node14" class="node"><title>Node14</title>
<g id="a_node14"><a xlink:href="classRa_1_1Engine_1_1Camera.html#a50945b715a7bf5be440ce4bcfbc9c798" target="_top" xlink:title="Return the screen coordinates of the given point p (in world coordinates). ">
<polygon fill="white" stroke="black" points="324,-147.5 324,-177.5 435,-177.5 435,-147.5 324,-147.5"/>
<text text-anchor="start" x="332" y="-165.5" font-family="Helvetica,sans-Serif" font-size="10.00">Ra::Engine::Camera</text>
<text text-anchor="middle" x="379.5" y="-154.5" font-family="Helvetica,sans-Serif" font-size="10.00">::project</text>
</a>
</g>
</g>
<!-- Node3&#45;&gt;Node14 -->
<g id="edge13" class="edge"><title>Node3&#45;&gt;Node14</title>
<path fill="none" stroke="midnightblue" d="M272.46,-162.5C285.779,-162.5 300.01,-162.5 313.581,-162.5"/>
<polygon fill="midnightblue" stroke="midnightblue" points="313.804,-166 323.804,-162.5 313.804,-159 313.804,-166"/>
</g>
<!-- Node17 -->
<g id="node17" class="node"><title>Node17</title>
<g id="a_node17"><a xlink:href="classRa_1_1Engine_1_1Camera.html#acc1bb27e2afe38147548184324ceaa9e" target="_top" xlink:title="Return the width of the viewport. ">
<polygon fill="white" stroke="black" points="324,-98.5 324,-128.5 435,-128.5 435,-98.5 324,-98.5"/>
<text text-anchor="start" x="332" y="-116.5" font-family="Helvetica,sans-Serif" font-size="10.00">Ra::Engine::Camera</text>
<text text-anchor="middle" x="379.5" y="-105.5" font-family="Helvetica,sans-Serif" font-size="10.00">::getWidth</text>
</a>
</g>
</g>
<!-- Node3&#45;&gt;Node17 -->
<g id="edge17" class="edge"><title>Node3&#45;&gt;Node17</title>
<path fill="none" stroke="midnightblue" d="M264.698,-147.399C281.664,-142.345 300.741,-136.662 318.356,-131.415"/>
<polygon fill="midnightblue" stroke="midnightblue" points="319.385,-134.761 327.97,-128.552 317.387,-128.052 319.385,-134.761"/>
</g>
<!-- Node18 -->
<g id="node18" class="node"><title>Node18</title>
<g id="a_node18"><a xlink:href="classRa_1_1Engine_1_1Camera.html#af9756bbd9e75f5b762a42f3e9e275af8" target="_top" xlink:title="Return the height of the viewport. ">
<polygon fill="white" stroke="black" points="324,-49.5 324,-79.5 435,-79.5 435,-49.5 324,-49.5"/>
<text text-anchor="start" x="332" y="-67.5" font-family="Helvetica,sans-Serif" font-size="10.00">Ra::Engine::Camera</text>
<text text-anchor="middle" x="379.5" y="-56.5" font-family="Helvetica,sans-Serif" font-size="10.00">::getHeight</text>
</a>
</g>
</g>
<!-- Node3&#45;&gt;Node18 -->
<g id="edge18" class="edge"><title>Node3&#45;&gt;Node18</title>
<path fill="none" stroke="midnightblue" d="M230.176,-147.293C248.054,-131.148 278.27,-105.762 308,-89.5 311.886,-87.3743 315.988,-85.3711 320.18,-83.4958"/>
<polygon fill="midnightblue" stroke="midnightblue" points="321.589,-86.7 329.45,-79.5961 318.875,-80.2476 321.589,-86.7"/>
</g>
<!-- Node19 -->
<g id="node19" class="node"><title>Node19</title>
<g id="a_node19"><a xlink:href="namespaceRa_1_1Core_1_1Math.html#a46540d56930b4c1ff3b115872cde4893" target="_top" xlink:title="Compare two numbers such that |x&#45;y| &lt; espilon*epsilonBoostFactor. ">
<polygon fill="white" stroke="black" points="308,-0.5 308,-30.5 451,-30.5 451,-0.5 308,-0.5"/>
<text text-anchor="start" x="316" y="-18.5" font-family="Helvetica,sans-Serif" font-size="10.00">Ra::Core::Math::areApprox</text>
<text text-anchor="middle" x="379.5" y="-7.5" font-family="Helvetica,sans-Serif" font-size="10.00">Equal</text>
</a>
</g>
</g>
<!-- Node3&#45;&gt;Node19 -->
<g id="edge19" class="edge"><title>Node3&#45;&gt;Node19</title>
<path fill="none" stroke="midnightblue" d="M221.761,-147.497C235.688,-121.975 267.309,-70.0153 308,-40.5 310.628,-38.5937 313.415,-36.8214 316.305,-35.1749"/>
<polygon fill="midnightblue" stroke="midnightblue" points="317.922,-38.279 325.228,-30.6054 314.732,-32.0485 317.922,-38.279"/>
</g>
<!-- Node5 -->
<g id="node5" class="node"><title>Node5</title>
<g id="a_node5"><a xlink:href="classRa_1_1Engine_1_1Camera.html#a2b584b5db1c28d168d1d2c12eacbee1e" target="_top" xlink:title="Return a ray emanating from the camera, passing by the point given by screen coordinates x and y...">
<polygon fill="white" stroke="black" points="494.5,-284.5 494.5,-314.5 607.5,-314.5 607.5,-284.5 494.5,-284.5"/>
<text text-anchor="start" x="502.5" y="-302.5" font-family="Helvetica,sans-Serif" font-size="10.00">Ra::Engine::Camera</text>
<text text-anchor="middle" x="551" y="-291.5" font-family="Helvetica,sans-Serif" font-size="10.00">::getRayFromScreen</text>
</a>
</g>
</g>
<!-- Node4&#45;&gt;Node5 -->
<g id="edge4" class="edge"><title>Node4&#45;&gt;Node5</title>
<path fill="none" stroke="midnightblue" d="M446.518,-292.784C458.864,-293.586 471.768,-294.423 484.109,-295.224"/>
<polygon fill="midnightblue" stroke="midnightblue" points="484.114,-298.731 494.32,-295.887 484.567,-291.746 484.114,-298.731"/>
</g>
<!-- Node9 -->
<g id="node9" class="node"><title>Node9</title>
<g id="a_node9"><a xlink:href="namespaceRa_1_1Core_1_1Geometry.html#a8b8fe68d162f9a144a127573ca436286" target="_top" xlink:title="Intersect a ray with an infinite plane defined by point A and normal. ">
<polygon fill="white" stroke="black" points="495.5,-235.5 495.5,-265.5 606.5,-265.5 606.5,-235.5 495.5,-235.5"/>
<text text-anchor="start" x="503.5" y="-253.5" font-family="Helvetica,sans-Serif" font-size="10.00">Ra::Core::Geometry</text>
<text text-anchor="middle" x="551" y="-242.5" font-family="Helvetica,sans-Serif" font-size="10.00">::RayCastPlane</text>
</a>
</g>
</g>
<!-- Node4&#45;&gt;Node9 -->
<g id="edge8" class="edge"><title>Node4&#45;&gt;Node9</title>
<path fill="none" stroke="midnightblue" d="M446.518,-273.699C459.281,-270.838 472.64,-267.843 485.358,-264.992"/>
<polygon fill="midnightblue" stroke="midnightblue" points="486.404,-268.345 495.396,-262.742 484.872,-261.514 486.404,-268.345"/>
</g>
<!-- Node6 -->
<g id="node6" class="node"><title>Node6</title>
<g id="a_node6"><a xlink:href="classRa_1_1Engine_1_1Camera.html#a724a052e94817af7e602129467c8696f" target="_top" xlink:title="Return the position. ">
<polygon fill="white" stroke="black" points="651,-306.5 651,-336.5 762,-336.5 762,-306.5 651,-306.5"/>
<text text-anchor="start" x="659" y="-324.5" font-family="Helvetica,sans-Serif" font-size="10.00">Ra::Engine::Camera</text>
<text text-anchor="middle" x="706.5" y="-313.5" font-family="Helvetica,sans-Serif" font-size="10.00">::getPosition</text>
</a>
</g>
</g>
<!-- Node5&#45;&gt;Node6 -->
<g id="edge5" class="edge"><title>Node5&#45;&gt;Node6</title>
<path fill="none" stroke="midnightblue" d="M607.851,-307.505C618.615,-309.047 629.972,-310.675 640.984,-312.253"/>
<polygon fill="midnightblue" stroke="midnightblue" points="640.578,-315.731 650.973,-313.685 641.571,-308.802 640.578,-315.731"/>
</g>
<!-- Node7 -->
<g id="node7" class="node"><title>Node7</title>
<g id="a_node7"><a xlink:href="classRa_1_1Engine_1_1Camera.html#ad1d6eb41b5e8d52cd2ddecf47f1b2053" target="_top" xlink:title="Return the point on the screen plane (near plane) represented by screen coordinates pix...">
<polygon fill="white" stroke="black" points="651,-257.5 651,-287.5 762,-287.5 762,-257.5 651,-257.5"/>
<text text-anchor="start" x="659" y="-275.5" font-family="Helvetica,sans-Serif" font-size="10.00">Ra::Engine::Camera</text>
<text text-anchor="middle" x="706.5" y="-264.5" font-family="Helvetica,sans-Serif" font-size="10.00">::unProject</text>
</a>
</g>
</g>
<!-- Node5&#45;&gt;Node7 -->
<g id="edge6" class="edge"><title>Node5&#45;&gt;Node7</title>
<path fill="none" stroke="midnightblue" d="M607.851,-289.676C618.615,-287.783 629.972,-285.785 640.984,-283.848"/>
<polygon fill="midnightblue" stroke="midnightblue" points="641.731,-287.271 650.973,-282.091 640.518,-280.376 641.731,-287.271"/>
</g>
<!-- Node8 -->
<g id="node8" class="node"><title>Node8</title>
<g id="a_node8"><a xlink:href="classRa_1_1Engine_1_1Camera.html#adb545a4a1f889d63ce4fc9a41cdeef2a" target="_top" xlink:title="Return the projection matrix. ">
<polygon fill="white" stroke="black" points="798,-205.5 798,-235.5 909,-235.5 909,-205.5 798,-205.5"/>
<text text-anchor="start" x="806" y="-223.5" font-family="Helvetica,sans-Serif" font-size="10.00">Ra::Engine::Camera</text>
<text text-anchor="middle" x="853.5" y="-212.5" font-family="Helvetica,sans-Serif" font-size="10.00">::getProjMatrix</text>
</a>
</g>
</g>
<!-- Node7&#45;&gt;Node8 -->
<g id="edge7" class="edge"><title>Node7&#45;&gt;Node8</title>
<path fill="none" stroke="midnightblue" d="M749.44,-257.459C765.521,-251.692 784.058,-245.045 800.938,-238.991"/>
<polygon fill="midnightblue" stroke="midnightblue" points="802.423,-242.177 810.654,-235.507 800.06,-235.588 802.423,-242.177"/>
</g>
<!-- Node10 -->
<g id="node10" class="node"><title>Node10</title>
<g id="a_node10"><a xlink:href="namespaceOpenMesh.html#a575b338f0fc9ecb5393d23e977e6ac38" target="_top" xlink:title="OpenMesh::dot">
<polygon fill="white" stroke="black" points="662,-219 662,-238 751,-238 751,-219 662,-219"/>
<text text-anchor="middle" x="706.5" y="-226" font-family="Helvetica,sans-Serif" font-size="10.00">OpenMesh::dot</text>
</a>
</g>
</g>
<!-- Node9&#45;&gt;Node10 -->
<g id="edge9" class="edge"><title>Node9&#45;&gt;Node10</title>
<path fill="none" stroke="midnightblue" d="M606.551,-242.682C621.254,-240.574 637.146,-238.297 651.802,-236.196"/>
<polygon fill="midnightblue" stroke="midnightblue" points="652.319,-239.658 661.722,-234.774 651.326,-232.729 652.319,-239.658"/>
</g>
<!-- Node13 -->
<g id="node13" class="node"><title>Node13</title>
<g id="a_node13"><a xlink:href="namespaceRa_1_1Core_1_1Math.html#ae4e681e0738fe7e5bfd028c6270b597a" target="_top" xlink:title="Ra::Core::Math::signum">
<polygon fill="white" stroke="black" points="487,-197 487,-216 615,-216 615,-197 487,-197"/>
<text text-anchor="middle" x="551" y="-204" font-family="Helvetica,sans-Serif" font-size="10.00">Ra::Core::Math::signum</text>
</a>
</g>
</g>
<!-- Node12&#45;&gt;Node13 -->
<g id="edge12" class="edge"><title>Node12&#45;&gt;Node13</title>
<path fill="none" stroke="midnightblue" d="M436.001,-206.5C448.926,-206.5 462.886,-206.5 476.456,-206.5"/>
<polygon fill="midnightblue" stroke="midnightblue" points="476.734,-210 486.734,-206.5 476.734,-203 476.734,-210"/>
</g>
<!-- Node14&#45;&gt;Node8 -->
<g id="edge14" class="edge"><title>Node14&#45;&gt;Node8</title>
<path fill="none" stroke="midnightblue" d="M435.047,-167.819C482.61,-172.575 553.434,-179.943 615,-187.5 673.511,-194.682 739.962,-204.016 787.665,-210.924"/>
<polygon fill="midnightblue" stroke="midnightblue" points="787.453,-214.429 797.853,-212.403 788.459,-207.502 787.453,-214.429"/>
</g>
<!-- Node15 -->
<g id="node15" class="node"><title>Node15</title>
<g id="a_node15"><a xlink:href="classRa_1_1Engine_1_1Camera.html#a0940bfd2c92663f462aaf02138ec35f6" target="_top" xlink:title="Return the view matrix. ">
<polygon fill="white" stroke="black" points="495.5,-109.5 495.5,-139.5 606.5,-139.5 606.5,-109.5 495.5,-109.5"/>
<text text-anchor="start" x="503.5" y="-127.5" font-family="Helvetica,sans-Serif" font-size="10.00">Ra::Engine::Camera</text>
<text text-anchor="middle" x="551" y="-116.5" font-family="Helvetica,sans-Serif" font-size="10.00">::getViewMatrix</text>
</a>
</g>
</g>
<!-- Node14&#45;&gt;Node15 -->
<g id="edge15" class="edge"><title>Node14&#45;&gt;Node15</title>
<path fill="none" stroke="midnightblue" d="M435.064,-150.267C451.013,-146.692 468.602,-142.749 485.123,-139.045"/>
<polygon fill="midnightblue" stroke="midnightblue" points="486.256,-142.378 495.248,-136.775 484.725,-135.547 486.256,-142.378"/>
</g>
<!-- Node16 -->
<g id="node16" class="node"><title>Node16</title>
<g id="a_node16"><a xlink:href="classRa_1_1Engine_1_1Entity.html#adfcfb0c0eb4e1663cd66473e74d83aa3" target="_top" xlink:title="Ra::Engine::Entity\l::getTransform">
<polygon fill="white" stroke="black" points="656.5,-109.5 656.5,-139.5 756.5,-139.5 756.5,-109.5 656.5,-109.5"/>
<text text-anchor="start" x="664.5" y="-127.5" font-family="Helvetica,sans-Serif" font-size="10.00">Ra::Engine::Entity</text>
<text text-anchor="middle" x="706.5" y="-116.5" font-family="Helvetica,sans-Serif" font-size="10.00">::getTransform</text>
</a>
</g>
</g>
<!-- Node15&#45;&gt;Node16 -->
<g id="edge16" class="edge"><title>Node15&#45;&gt;Node16</title>
<path fill="none" stroke="midnightblue" d="M606.551,-124.5C619.402,-124.5 633.161,-124.5 646.21,-124.5"/>
<polygon fill="midnightblue" stroke="midnightblue" points="646.491,-128 656.491,-124.5 646.491,-121 646.491,-128"/>
</g>
</g>
</svg>
