<?xml version="1.0" encoding="UTF-8" standalone="no"?>
<!DOCTYPE svg PUBLIC "-//W3C//DTD SVG 1.1//EN"
 "http://www.w3.org/Graphics/SVG/1.1/DTD/svg11.dtd">
<!-- Generated by graphviz version 2.38.0 (20140413.2041)
 -->
<!-- Title: MeshFeatureTrackingPlugin::MeshFeatureTrackingComponent::getFeatureScale Pages: 1 -->
<svg width="734pt" height="214pt"
 viewBox="0.00 0.00 734.00 214.00" xmlns="http://www.w3.org/2000/svg" xmlns:xlink="http://www.w3.org/1999/xlink">
<g id="graph0" class="graph" transform="scale(1 1) rotate(0) translate(4 210)">
<title>MeshFeatureTrackingPlugin::MeshFeatureTrackingComponent::getFeatureScale</title>
<polygon fill="white" stroke="none" points="-4,4 -4,-210 730,-210 730,4 -4,4"/>
<!-- Node1 -->
<g id="node1" class="node"><title>Node1</title>
<polygon fill="#bfbfbf" stroke="black" points="0,-77 0,-118 179,-118 179,-77 0,-77"/>
<text text-anchor="start" x="8" y="-106" font-family="Helvetica,sans-Serif" font-size="10.00">MeshFeatureTrackingPlugin</text>
<text text-anchor="start" x="8" y="-95" font-family="Helvetica,sans-Serif" font-size="10.00">::MeshFeatureTrackingComponent</text>
<text text-anchor="middle" x="89.5" y="-84" font-family="Helvetica,sans-Serif" font-size="10.00">::getFeatureScale</text>
</g>
<!-- Node2 -->
<g id="node2" class="node"><title>Node2</title>
<g id="a_node2"><a xlink:href="classRa_1_1Engine_1_1Component.html#a10b0bc182b76165744ebea603ae32dfe" target="_top" xlink:title="Shortcut to access the render object manager. ">
<polygon fill="white" stroke="black" points="241.5,-175.5 241.5,-205.5 370.5,-205.5 370.5,-175.5 241.5,-175.5"/>
<text text-anchor="start" x="249.5" y="-193.5" font-family="Helvetica,sans-Serif" font-size="10.00">Ra::Engine::Component</text>
<text text-anchor="middle" x="306" y="-182.5" font-family="Helvetica,sans-Serif" font-size="10.00">::getRoMgr</text>
</a>
</g>
</g>
<!-- Node1&#45;&gt;Node2 -->
<g id="edge1" class="edge"><title>Node1&#45;&gt;Node2</title>
<path fill="none" stroke="midnightblue" d="M122.444,-118.08C146.975,-133.162 182.112,-153.237 215,-166.5 220.38,-168.67 226.02,-170.703 231.741,-172.595"/>
<polygon fill="midnightblue" stroke="midnightblue" points="230.824,-175.975 241.414,-175.645 232.929,-169.299 230.824,-175.975"/>
</g>
<!-- Node3 -->
<g id="node3" class="node"><title>Node3</title>
<g id="a_node3"><a xlink:href="classRa_1_1Engine_1_1RenderObjectManager.html#a13fc919e9fa01bfb36e67bc9011d325f" target="_top" xlink:title="Returns the render object corresponding to the given index. ">
<polygon fill="white" stroke="black" points="234,-126.5 234,-156.5 378,-156.5 378,-126.5 234,-126.5"/>
<text text-anchor="start" x="242" y="-144.5" font-family="Helvetica,sans-Serif" font-size="10.00">Ra::Engine::RenderObject</text>
<text text-anchor="middle" x="306" y="-133.5" font-family="Helvetica,sans-Serif" font-size="10.00">Manager::getRenderObject</text>
</a>
</g>
</g>
<!-- Node1&#45;&gt;Node3 -->
<g id="edge2" class="edge"><title>Node1&#45;&gt;Node3</title>
<path fill="none" stroke="midnightblue" d="M179.294,-115.714C194.09,-118.749 209.368,-121.883 223.958,-124.876"/>
<polygon fill="midnightblue" stroke="midnightblue" points="223.435,-128.341 233.934,-126.922 224.841,-121.484 223.435,-128.341"/>
</g>
<!-- Node6 -->
<g id="node6" class="node"><title>Node6</title>
<g id="a_node6"><a xlink:href="classRa_1_1Engine_1_1Mesh.html#a7dd9018e643becd20e714a54cf6664db" target="_top" xlink:title="Ra::Engine::Mesh::getRenderMode">
<polygon fill="white" stroke="black" points="216.5,-88 216.5,-107 395.5,-107 395.5,-88 216.5,-88"/>
<text text-anchor="middle" x="306" y="-95" font-family="Helvetica,sans-Serif" font-size="10.00">Ra::Engine::Mesh::getRenderMode</text>
</a>
</g>
</g>
<!-- Node1&#45;&gt;Node6 -->
<g id="edge5" class="edge"><title>Node1&#45;&gt;Node6</title>
<path fill="none" stroke="midnightblue" d="M179.294,-97.5C188.17,-97.5 197.22,-97.5 206.191,-97.5"/>
<polygon fill="midnightblue" stroke="midnightblue" points="206.273,-101 216.273,-97.5 206.273,-94.0001 206.273,-101"/>
</g>
<!-- Node9 -->
<g id="node9" class="node"><title>Node9</title>
<g id="a_node9"><a xlink:href="classRa_1_1Engine_1_1Mesh.html#aeb1eb176c4ac5a045a80b97a5e09e07e" target="_top" xlink:title="Returns the underlying TriangleMesh. ">
<polygon fill="white" stroke="black" points="215,-50 215,-69 397,-69 397,-50 215,-50"/>
<text text-anchor="middle" x="306" y="-57" font-family="Helvetica,sans-Serif" font-size="10.00">Ra::Engine::Mesh::getTriangleMesh</text>
</a>
</g>
</g>
<!-- Node1&#45;&gt;Node9 -->
<g id="edge8" class="edge"><title>Node1&#45;&gt;Node9</title>
<path fill="none" stroke="midnightblue" d="M179.294,-81.7696C200.101,-78.0835 221.863,-74.2282 241.321,-70.7812"/>
<polygon fill="midnightblue" stroke="midnightblue" points="242.032,-74.2097 251.268,-69.0189 240.811,-67.317 242.032,-74.2097"/>
</g>
<!-- Node10 -->
<g id="node10" class="node"><title>Node10</title>
<g id="a_node10"><a xlink:href="classRa_1_1Core_1_1Geometry_1_1TriangleMesh.html#a6ef9dbd18c0501f2ffd1316be6be56ce" target="_top" xlink:title="Access the vertices positions. ">
<polygon fill="white" stroke="black" points="242,-0.5 242,-30.5 370,-30.5 370,-0.5 242,-0.5"/>
<text text-anchor="start" x="250" y="-18.5" font-family="Helvetica,sans-Serif" font-size="10.00">Ra::Core::Geometry</text>
<text text-anchor="middle" x="306" y="-7.5" font-family="Helvetica,sans-Serif" font-size="10.00">::TriangleMesh::vertices</text>
</a>
</g>
</g>
<!-- Node1&#45;&gt;Node10 -->
<g id="edge9" class="edge"><title>Node1&#45;&gt;Node10</title>
<path fill="none" stroke="midnightblue" d="M131.033,-76.9648C155.05,-65.2994 186.306,-50.9788 215,-40.5 221.702,-38.0523 228.759,-35.7075 235.851,-33.5025"/>
<polygon fill="midnightblue" stroke="midnightblue" points="236.952,-36.8264 245.514,-30.5858 234.929,-30.1251 236.952,-36.8264"/>
</g>
<!-- Node4 -->
<g id="node4" class="node"><title>Node4</title>
<g id="a_node4"><a xlink:href="classRa_1_1Engine_1_1RenderObjectManager.html#a088feae4339349a81b7b6635b38aead1" target="_top" xlink:title="Returns true if the index points to a valid render object. ">
<polygon fill="white" stroke="black" points="433,-128.5 433,-158.5 570,-158.5 570,-128.5 433,-128.5"/>
<text text-anchor="start" x="441" y="-146.5" font-family="Helvetica,sans-Serif" font-size="10.00">Ra::Engine::RenderObject</text>
<text text-anchor="middle" x="501.5" y="-135.5" font-family="Helvetica,sans-Serif" font-size="10.00">Manager::exists</text>
</a>
</g>
</g>
<!-- Node3&#45;&gt;Node4 -->
<g id="edge3" class="edge"><title>Node3&#45;&gt;Node4</title>
<path fill="none" stroke="midnightblue" d="M378.228,-142.236C392.762,-142.386 408.124,-142.545 422.868,-142.698"/>
<polygon fill="midnightblue" stroke="midnightblue" points="422.924,-146.198 432.96,-142.802 422.997,-139.199 422.924,-146.198"/>
</g>
<!-- Node5 -->
<g id="node5" class="node"><title>Node5</title>
<g id="a_node5"><a xlink:href="classRa_1_1Core_1_1Utils_1_1Index.html#ac7a1b710e6b95834a562c27e2f6c0f4b" target="_top" xlink:title="DESTRUCTOR: Must not be defined, we need it trivial to be constexpr. ">
<polygon fill="white" stroke="black" points="608,-128.5 608,-158.5 724,-158.5 724,-128.5 608,-128.5"/>
<text text-anchor="start" x="616" y="-146.5" font-family="Helvetica,sans-Serif" font-size="10.00">Ra::Core::Utils::Index</text>
<text text-anchor="middle" x="666" y="-135.5" font-family="Helvetica,sans-Serif" font-size="10.00">::isValid</text>
</a>
</g>
</g>
<!-- Node4&#45;&gt;Node5 -->
<g id="edge4" class="edge"><title>Node4&#45;&gt;Node5</title>
<path fill="none" stroke="midnightblue" d="M570.003,-143.5C579.126,-143.5 588.488,-143.5 597.609,-143.5"/>
<polygon fill="midnightblue" stroke="midnightblue" points="597.78,-147 607.78,-143.5 597.78,-140 597.78,-147"/>
</g>
<!-- Node7 -->
<g id="node7" class="node"><title>Node7</title>
<g id="a_node7"><a xlink:href="namespaceRa_1_1Core_1_1Containers.html#a83257c42de08d550fe2081a5d8a13331" target="_top" xlink:title="Stores a 3&#45;dimensional hierarchy of meshes of arbitrary type. ">
<polygon fill="white" stroke="black" points="444,-79.5 444,-109.5 559,-109.5 559,-79.5 444,-79.5"/>
<text text-anchor="start" x="452" y="-97.5" font-family="Helvetica,sans-Serif" font-size="10.00">Ra::Core::Containers</text>
<text text-anchor="middle" x="501.5" y="-86.5" font-family="Helvetica,sans-Serif" font-size="10.00">::deprecated</text>
</a>
</g>
</g>
<!-- Node6&#45;&gt;Node7 -->
<g id="edge6" class="edge"><title>Node6&#45;&gt;Node7</title>
<path fill="none" stroke="midnightblue" d="M395.539,-96.1273C408.367,-95.9284 421.389,-95.7265 433.694,-95.5358"/>
<polygon fill="midnightblue" stroke="midnightblue" points="433.897,-99.0331 443.841,-95.3784 433.788,-92.034 433.897,-99.0331"/>
</g>
<!-- Node8 -->
<g id="node8" class="node"><title>Node8</title>
<g id="a_node8"><a xlink:href="namespaceRa_1_1Core_1_1Geometry.html#aa04e6052d8911b1df1bd881474debb45" target="_top" xlink:title="Ra::Core::Geometry::t">
<polygon fill="white" stroke="black" points="606,-85 606,-104 726,-104 726,-85 606,-85"/>
<text text-anchor="middle" x="666" y="-92" font-family="Helvetica,sans-Serif" font-size="10.00">Ra::Core::Geometry::t</text>
</a>
</g>
</g>
<!-- Node7&#45;&gt;Node8 -->
<g id="edge7" class="edge"><title>Node7&#45;&gt;Node8</title>
<path fill="none" stroke="midnightblue" d="M559.335,-94.5C571.133,-94.5 583.688,-94.5 595.871,-94.5"/>
<polygon fill="midnightblue" stroke="midnightblue" points="595.993,-98.0001 605.993,-94.5 595.993,-91.0001 595.993,-98.0001"/>
</g>
</g>
</svg>
