<?xml version="1.0" encoding="UTF-8" standalone="no"?>
<!DOCTYPE svg PUBLIC "-//W3C//DTD SVG 1.1//EN"
 "http://www.w3.org/Graphics/SVG/1.1/DTD/svg11.dtd">
<!-- Generated by graphviz version 2.38.0 (20140413.2041)
 -->
<!-- Title: Ra::Gui::TrackballCameraManipulator::setTrackballCenter Pages: 1 -->
<svg width="544pt" height="176pt"
 viewBox="0.00 0.00 544.00 176.00" xmlns="http://www.w3.org/2000/svg" xmlns:xlink="http://www.w3.org/1999/xlink">
<g id="graph0" class="graph" transform="scale(1 1) rotate(0) translate(4 172)">
<title>Ra::Gui::TrackballCameraManipulator::setTrackballCenter</title>
<polygon fill="white" stroke="none" points="-4,4 -4,-172 540,-172 540,4 -4,4"/>
<!-- Node1 -->
<g id="node1" class="node"><title>Node1</title>
<polygon fill="#bfbfbf" stroke="black" points="0,-96.5 0,-126.5 167,-126.5 167,-96.5 0,-96.5"/>
<text text-anchor="start" x="8" y="-114.5" font-family="Helvetica,sans-Serif" font-size="10.00">Ra::Gui::TrackballCamera</text>
<text text-anchor="middle" x="83.5" y="-103.5" font-family="Helvetica,sans-Serif" font-size="10.00">Manipulator::setTrackballCenter</text>
</g>
<!-- Node2 -->
<g id="node2" class="node"><title>Node2</title>
<g id="a_node2"><a xlink:href="classRa_1_1Engine_1_1Camera.html#a724a052e94817af7e602129467c8696f" target="_top" xlink:title="Return the position. ">
<polygon fill="white" stroke="black" points="409,-137.5 409,-167.5 520,-167.5 520,-137.5 409,-137.5"/>
<text text-anchor="start" x="417" y="-155.5" font-family="Helvetica,sans-Serif" font-size="10.00">Ra::Engine::Camera</text>
<text text-anchor="middle" x="464.5" y="-144.5" font-family="Helvetica,sans-Serif" font-size="10.00">::getPosition</text>
</a>
</g>
</g>
<!-- Node1&#45;&gt;Node2 -->
<g id="edge1" class="edge"><title>Node1&#45;&gt;Node2</title>
<path fill="none" stroke="midnightblue" d="M167.052,-120.58C179.109,-121.899 191.375,-123.238 203,-124.5 269.665,-131.739 345.937,-139.926 398.644,-145.569"/>
<polygon fill="midnightblue" stroke="midnightblue" points="398.546,-149.078 408.862,-146.662 399.291,-142.118 398.546,-149.078"/>
</g>
<!-- Node3 -->
<g id="node3" class="node"><title>Node3</title>
<g id="a_node3"><a xlink:href="namespaceOpenMesh.html#a8205f789ce08919bc11c58383574596c" target="_top" xlink:title="OpenMesh::norm">
<polygon fill="white" stroke="black" points="415,-99 415,-118 514,-118 514,-99 415,-99"/>
<text text-anchor="middle" x="464.5" y="-106" font-family="Helvetica,sans-Serif" font-size="10.00">OpenMesh::norm</text>
</a>
</g>
</g>
<!-- Node1&#45;&gt;Node3 -->
<g id="edge2" class="edge"><title>Node1&#45;&gt;Node3</title>
<path fill="none" stroke="midnightblue" d="M167.205,-110.845C238.901,-110.278 340.88,-109.471 404.567,-108.966"/>
<polygon fill="midnightblue" stroke="midnightblue" points="404.864,-112.464 414.836,-108.885 404.808,-105.465 404.864,-112.464"/>
</g>
<!-- Node4 -->
<g id="node4" class="node"><title>Node4</title>
<g id="a_node4"><a xlink:href="classRa_1_1Gui_1_1TrackballCameraManipulator.html#ad7880fb45a56841fd743fb3ad80c2592" target="_top" xlink:title="Update the polar coordinates of the Camera w.r.t. the trackball center. ">
<polygon fill="white" stroke="black" points="203,-52.5 203,-82.5 357,-82.5 357,-52.5 203,-52.5"/>
<text text-anchor="start" x="211" y="-70.5" font-family="Helvetica,sans-Serif" font-size="10.00">Ra::Gui::TrackballCamera</text>
<text text-anchor="middle" x="280" y="-59.5" font-family="Helvetica,sans-Serif" font-size="10.00">Manipulator::updatePhiTheta</text>
</a>
</g>
</g>
<!-- Node1&#45;&gt;Node4 -->
<g id="edge3" class="edge"><title>Node1&#45;&gt;Node4</title>
<path fill="none" stroke="midnightblue" d="M150.892,-96.4808C167.543,-92.714 185.54,-88.6426 202.634,-84.7756"/>
<polygon fill="midnightblue" stroke="midnightblue" points="203.596,-88.1465 212.577,-82.5262 202.052,-81.319 203.596,-88.1465"/>
</g>
<!-- Node4&#45;&gt;Node2 -->
<g id="edge6" class="edge"><title>Node4&#45;&gt;Node2</title>
<path fill="none" stroke="midnightblue" d="M306.694,-82.7034C329.043,-95.5761 362.536,-114.031 393,-127.5 397.974,-129.699 403.206,-131.847 408.481,-133.903"/>
<polygon fill="midnightblue" stroke="midnightblue" points="407.38,-137.229 417.972,-137.494 409.857,-130.682 407.38,-137.229"/>
</g>
<!-- Node4&#45;&gt;Node3 -->
<g id="edge7" class="edge"><title>Node4&#45;&gt;Node3</title>
<path fill="none" stroke="midnightblue" d="M347.92,-82.5341C368.711,-87.2049 391.32,-92.2842 410.982,-96.7015"/>
<polygon fill="midnightblue" stroke="midnightblue" points="410.447,-100.168 420.971,-98.9455 411.981,-93.3386 410.447,-100.168"/>
</g>
<!-- Node5 -->
<g id="node5" class="node"><title>Node5</title>
<g id="a_node5"><a xlink:href="namespaceRa_1_1Core_1_1Math.html#a46540d56930b4c1ff3b115872cde4893" target="_top" xlink:title="Compare two numbers such that |x&#45;y| &lt; espilon*epsilonBoostFactor. ">
<polygon fill="white" stroke="black" points="393,-49.5 393,-79.5 536,-79.5 536,-49.5 393,-49.5"/>
<text text-anchor="start" x="401" y="-67.5" font-family="Helvetica,sans-Serif" font-size="10.00">Ra::Core::Math::areApprox</text>
<text text-anchor="middle" x="464.5" y="-56.5" font-family="Helvetica,sans-Serif" font-size="10.00">Equal</text>
</a>
</g>
</g>
<!-- Node4&#45;&gt;Node5 -->
<g id="edge4" class="edge"><title>Node4&#45;&gt;Node5</title>
<path fill="none" stroke="midnightblue" d="M357.075,-66.2495C365.488,-66.1111 374.079,-65.9699 382.55,-65.8307"/>
<polygon fill="midnightblue" stroke="midnightblue" points="382.861,-69.3261 392.802,-65.6622 382.746,-62.3271 382.861,-69.3261"/>
</g>
<!-- Node6 -->
<g id="node6" class="node"><title>Node6</title>
<g id="a_node6"><a xlink:href="classRa_1_1Engine_1_1Camera.html#a23be7aa714c0e9c2a9429dfc9ef2c53a" target="_top" xlink:title="Return the direction the camera is looking at. ">
<polygon fill="white" stroke="black" points="409,-0.5 409,-30.5 520,-30.5 520,-0.5 409,-0.5"/>
<text text-anchor="start" x="417" y="-18.5" font-family="Helvetica,sans-Serif" font-size="10.00">Ra::Engine::Camera</text>
<text text-anchor="middle" x="464.5" y="-7.5" font-family="Helvetica,sans-Serif" font-size="10.00">::getDirection</text>
</a>
</g>
</g>
<!-- Node4&#45;&gt;Node6 -->
<g id="edge5" class="edge"><title>Node4&#45;&gt;Node6</title>
<path fill="none" stroke="midnightblue" d="M333.787,-52.4594C354.783,-46.4768 379.106,-39.5465 400.977,-33.3149"/>
<polygon fill="midnightblue" stroke="midnightblue" points="402.174,-36.6131 410.832,-30.5068 400.256,-29.881 402.174,-36.6131"/>
</g>
</g>
</svg>
