<?xml version="1.0" encoding="UTF-8" standalone="no"?>
<!DOCTYPE svg PUBLIC "-//W3C//DTD SVG 1.1//EN"
 "http://www.w3.org/Graphics/SVG/1.1/DTD/svg11.dtd">
<!-- Generated by graphviz version 2.38.0 (20140413.2041)
 -->
<!-- Title: Ra::Core::Utils::AttribManager::isValid Pages: 1 -->
<svg width="504pt" height="88pt"
 viewBox="0.00 0.00 504.00 88.00" xmlns="http://www.w3.org/2000/svg" xmlns:xlink="http://www.w3.org/1999/xlink">
<g id="graph0" class="graph" transform="scale(1 1) rotate(0) translate(4 84)">
<title>Ra::Core::Utils::AttribManager::isValid</title>
<polygon fill="white" stroke="none" points="-4,4 -4,-84 500,-84 500,4 -4,4"/>
<!-- Node1 -->
<g id="node1" class="node"><title>Node1</title>
<polygon fill="#bfbfbf" stroke="black" points="0,-24.5 0,-54.5 158,-54.5 158,-24.5 0,-24.5"/>
<text text-anchor="start" x="8" y="-42.5" font-family="Helvetica,sans-Serif" font-size="10.00">Ra::Core::Utils::AttribManager</text>
<text text-anchor="middle" x="79" y="-31.5" font-family="Helvetica,sans-Serif" font-size="10.00">::isValid</text>
</g>
<!-- Node2 -->
<g id="node2" class="node"><title>Node2</title>
<g id="a_node2"><a xlink:href="classRa_1_1Core_1_1Utils_1_1AttribHandle.html#ab1b136a123fc9f7a52ac6886526d2013" target="_top" xlink:title="Ra::Core::Utils::AttribHandle\l::attribName">
<polygon fill="white" stroke="black" points="194,-49.5 194,-79.5 344,-79.5 344,-49.5 194,-49.5"/>
<text text-anchor="start" x="202" y="-67.5" font-family="Helvetica,sans-Serif" font-size="10.00">Ra::Core::Utils::AttribHandle</text>
<text text-anchor="middle" x="269" y="-56.5" font-family="Helvetica,sans-Serif" font-size="10.00">::attribName</text>
</a>
</g>
</g>
<!-- Node1&#45;&gt;Node2 -->
<g id="edge1" class="edge"><title>Node1&#45;&gt;Node2</title>
<path fill="none" stroke="midnightblue" d="M158.096,-49.8851C166.579,-51.0132 175.241,-52.165 183.794,-53.3023"/>
<polygon fill="midnightblue" stroke="midnightblue" points="183.392,-56.7796 193.766,-54.6285 184.315,-49.8407 183.392,-56.7796"/>
</g>
<!-- Node3 -->
<g id="node3" class="node"><title>Node3</title>
<g id="a_node3"><a xlink:href="classRa_1_1Core_1_1Utils_1_1Index.html#a771f93efd49538950e3cb9e57e46fbaf" target="_top" xlink:title="Ra::Core::Utils::Index\l::Invalid">
<polygon fill="white" stroke="black" points="211,-0.5 211,-30.5 327,-30.5 327,-0.5 211,-0.5"/>
<text text-anchor="start" x="219" y="-18.5" font-family="Helvetica,sans-Serif" font-size="10.00">Ra::Core::Utils::Index</text>
<text text-anchor="middle" x="269" y="-7.5" font-family="Helvetica,sans-Serif" font-size="10.00">::Invalid</text>
</a>
</g>
</g>
<!-- Node1&#45;&gt;Node3 -->
<g id="edge2" class="edge"><title>Node1&#45;&gt;Node3</title>
<path fill="none" stroke="midnightblue" d="M158.096,-29.5303C172.302,-27.7167 187.008,-25.8394 200.864,-24.0706"/>
<polygon fill="midnightblue" stroke="midnightblue" points="201.307,-27.5425 210.783,-22.8043 200.42,-20.5989 201.307,-27.5425"/>
</g>
<!-- Node4 -->
<g id="node4" class="node"><title>Node4</title>
<g id="a_node4"><a xlink:href="classRa_1_1Core_1_1Utils_1_1Index.html#ab3ba134498a9c2f1f3f9ccadd984a8e8" target="_top" xlink:title="CONSTRUCTOR Default constructor that allow implicit conversion from integer to Index. ">
<polygon fill="white" stroke="black" points="380,-0.5 380,-30.5 496,-30.5 496,-0.5 380,-0.5"/>
<text text-anchor="start" x="388" y="-18.5" font-family="Helvetica,sans-Serif" font-size="10.00">Ra::Core::Utils::Index</text>
<text text-anchor="middle" x="438" y="-7.5" font-family="Helvetica,sans-Serif" font-size="10.00">::Index</text>
</a>
</g>
</g>
<!-- Node3&#45;&gt;Node4 -->
<g id="edge3" class="edge"><title>Node3&#45;&gt;Node4</title>
<path fill="none" stroke="midnightblue" d="M327.005,-15.5C340.767,-15.5 355.601,-15.5 369.782,-15.5"/>
<polygon fill="midnightblue" stroke="midnightblue" points="369.969,-19.0001 379.969,-15.5 369.969,-12.0001 369.969,-19.0001"/>
</g>
</g>
</svg>
