<?xml version="1.0" encoding="UTF-8" standalone="no"?>
<!DOCTYPE svg PUBLIC "-//W3C//DTD SVG 1.1//EN"
 "http://www.w3.org/Graphics/SVG/1.1/DTD/svg11.dtd">
<!-- Generated by graphviz version 2.38.0 (20140413.2041)
 -->
<!-- Title: Ra::Gui::TrackballCameraManipulator::setTrackballRadius Pages: 1 -->
<svg width="543pt" height="176pt"
 viewBox="0.00 0.00 543.00 175.50" xmlns="http://www.w3.org/2000/svg" xmlns:xlink="http://www.w3.org/1999/xlink">
<g id="graph0" class="graph" transform="scale(1 1) rotate(0) translate(4 171.5)">
<title>Ra::Gui::TrackballCameraManipulator::setTrackballRadius</title>
<polygon fill="white" stroke="none" points="-4,4 -4,-171.5 539,-171.5 539,4 -4,4"/>
<!-- Node1 -->
<g id="node1" class="node"><title>Node1</title>
<polygon fill="#bfbfbf" stroke="black" points="0,-93 0,-123 166,-123 166,-93 0,-93"/>
<text text-anchor="start" x="8" y="-111" font-family="Helvetica,sans-Serif" font-size="10.00">Ra::Gui::TrackballCamera</text>
<text text-anchor="middle" x="83" y="-100" font-family="Helvetica,sans-Serif" font-size="10.00">Manipulator::setTrackballRadius</text>
</g>
<!-- Node2 -->
<g id="node2" class="node"><title>Node2</title>
<g id="a_node2"><a xlink:href="classRa_1_1Engine_1_1Camera.html#a724a052e94817af7e602129467c8696f" target="_top" xlink:title="Return the position. ">
<polygon fill="white" stroke="black" points="408,-137 408,-167 519,-167 519,-137 408,-137"/>
<text text-anchor="start" x="416" y="-155" font-family="Helvetica,sans-Serif" font-size="10.00">Ra::Engine::Camera</text>
<text text-anchor="middle" x="463.5" y="-144" font-family="Helvetica,sans-Serif" font-size="10.00">::getPosition</text>
</a>
</g>
</g>
<!-- Node1&#45;&gt;Node2 -->
<g id="edge1" class="edge"><title>Node1&#45;&gt;Node2</title>
<path fill="none" stroke="midnightblue" d="M166.129,-117.547C235.679,-125.632 334.01,-137.063 398.01,-144.503"/>
<polygon fill="midnightblue" stroke="midnightblue" points="397.64,-147.984 407.977,-145.662 398.448,-141.03 397.64,-147.984"/>
</g>
<!-- Node3 -->
<g id="node3" class="node"><title>Node3</title>
<g id="a_node3"><a xlink:href="classRa_1_1Engine_1_1Camera.html#a23be7aa714c0e9c2a9429dfc9ef2c53a" target="_top" xlink:title="Return the direction the camera is looking at. ">
<polygon fill="white" stroke="black" points="408,-88 408,-118 519,-118 519,-88 408,-88"/>
<text text-anchor="start" x="416" y="-106" font-family="Helvetica,sans-Serif" font-size="10.00">Ra::Engine::Camera</text>
<text text-anchor="middle" x="463.5" y="-95" font-family="Helvetica,sans-Serif" font-size="10.00">::getDirection</text>
</a>
</g>
</g>
<!-- Node1&#45;&gt;Node3 -->
<g id="edge2" class="edge"><title>Node1&#45;&gt;Node3</title>
<path fill="none" stroke="midnightblue" d="M166.129,-106.915C235.536,-105.998 333.606,-104.703 397.615,-103.857"/>
<polygon fill="midnightblue" stroke="midnightblue" points="398.025,-107.352 407.977,-103.72 397.932,-100.353 398.025,-107.352"/>
</g>
<!-- Node4 -->
<g id="node4" class="node"><title>Node4</title>
<g id="a_node4"><a xlink:href="classRa_1_1Gui_1_1TrackballCameraManipulator.html#ad7880fb45a56841fd743fb3ad80c2592" target="_top" xlink:title="Update the polar coordinates of the Camera w.r.t. the trackball center. ">
<polygon fill="white" stroke="black" points="202,-49 202,-79 356,-79 356,-49 202,-49"/>
<text text-anchor="start" x="210" y="-67" font-family="Helvetica,sans-Serif" font-size="10.00">Ra::Gui::TrackballCamera</text>
<text text-anchor="middle" x="279" y="-56" font-family="Helvetica,sans-Serif" font-size="10.00">Manipulator::updatePhiTheta</text>
</a>
</g>
</g>
<!-- Node1&#45;&gt;Node4 -->
<g id="edge3" class="edge"><title>Node1&#45;&gt;Node4</title>
<path fill="none" stroke="midnightblue" d="M150.221,-92.9808C166.829,-89.214 184.78,-85.1426 201.83,-81.2756"/>
<polygon fill="midnightblue" stroke="midnightblue" points="202.77,-84.6515 211.748,-79.0262 201.222,-77.8248 202.77,-84.6515"/>
</g>
<!-- Node4&#45;&gt;Node2 -->
<g id="edge6" class="edge"><title>Node4&#45;&gt;Node2</title>
<path fill="none" stroke="midnightblue" d="M304.276,-79.2641C326.545,-92.8738 360.722,-112.785 392,-127 396.755,-129.161 401.756,-131.26 406.808,-133.263"/>
<polygon fill="midnightblue" stroke="midnightblue" points="405.946,-136.681 416.536,-136.989 408.449,-130.144 405.946,-136.681"/>
</g>
<!-- Node4&#45;&gt;Node3 -->
<g id="edge5" class="edge"><title>Node4&#45;&gt;Node3</title>
<path fill="none" stroke="midnightblue" d="M350.298,-79.0226C365.948,-82.3671 382.468,-85.8972 397.877,-89.1901"/>
<polygon fill="midnightblue" stroke="midnightblue" points="397.312,-92.6483 407.822,-91.3154 398.774,-85.8028 397.312,-92.6483"/>
</g>
<!-- Node5 -->
<g id="node5" class="node"><title>Node5</title>
<g id="a_node5"><a xlink:href="namespaceRa_1_1Core_1_1Math.html#a46540d56930b4c1ff3b115872cde4893" target="_top" xlink:title="Compare two numbers such that |x&#45;y| &lt; espilon*epsilonBoostFactor. ">
<polygon fill="white" stroke="black" points="392,-39 392,-69 535,-69 535,-39 392,-39"/>
<text text-anchor="start" x="400" y="-57" font-family="Helvetica,sans-Serif" font-size="10.00">Ra::Core::Math::areApprox</text>
<text text-anchor="middle" x="463.5" y="-46" font-family="Helvetica,sans-Serif" font-size="10.00">Equal</text>
</a>
</g>
</g>
<!-- Node4&#45;&gt;Node5 -->
<g id="edge4" class="edge"><title>Node4&#45;&gt;Node5</title>
<path fill="none" stroke="midnightblue" d="M356.075,-59.8315C364.488,-59.3705 373.079,-58.8998 381.55,-58.4356"/>
<polygon fill="midnightblue" stroke="midnightblue" points="382.009,-61.9158 391.802,-57.8738 381.626,-54.9263 382.009,-61.9158"/>
</g>
<!-- Node6 -->
<g id="node6" class="node"><title>Node6</title>
<g id="a_node6"><a xlink:href="namespaceOpenMesh.html#a8205f789ce08919bc11c58383574596c" target="_top" xlink:title="OpenMesh::norm">
<polygon fill="white" stroke="black" points="414,-0.5 414,-19.5 513,-19.5 513,-0.5 414,-0.5"/>
<text text-anchor="middle" x="463.5" y="-7.5" font-family="Helvetica,sans-Serif" font-size="10.00">OpenMesh::norm</text>
</a>
</g>
</g>
<!-- Node4&#45;&gt;Node6 -->
<g id="edge7" class="edge"><title>Node4&#45;&gt;Node6</title>
<path fill="none" stroke="midnightblue" d="M326.739,-48.9401C346.778,-42.6011 370.483,-35.2589 392,-29 399.788,-26.7346 408.087,-24.4147 416.155,-22.2091"/>
<polygon fill="midnightblue" stroke="midnightblue" points="417.096,-25.5806 425.832,-19.5867 415.265,-18.8242 417.096,-25.5806"/>
</g>
</g>
</svg>
