<?xml version="1.0" encoding="UTF-8" standalone="no"?>
<!DOCTYPE svg PUBLIC "-//W3C//DTD SVG 1.1//EN"
 "http://www.w3.org/Graphics/SVG/1.1/DTD/svg11.dtd">
<!-- Generated by graphviz version 2.38.0 (20140413.2041)
 -->
<!-- Title: SkinningPlugin::SkinningComponent::handleWeightsLoading Pages: 1 -->
<svg width="1095pt" height="694pt"
 viewBox="0.00 0.00 1095.00 693.50" xmlns="http://www.w3.org/2000/svg" xmlns:xlink="http://www.w3.org/1999/xlink">
<g id="graph0" class="graph" transform="scale(1 1) rotate(0) translate(4 689.5)">
<title>SkinningPlugin::SkinningComponent::handleWeightsLoading</title>
<polygon fill="white" stroke="none" points="-4,4 -4,-689.5 1091,-689.5 1091,4 -4,4"/>
<!-- Node1 -->
<g id="node1" class="node"><title>Node1</title>
<polygon fill="#bfbfbf" stroke="black" points="0,-351 0,-381 185,-381 185,-351 0,-351"/>
<text text-anchor="start" x="8" y="-369" font-family="Helvetica,sans-Serif" font-size="10.00">SkinningPlugin::Skinning</text>
<text text-anchor="middle" x="92.5" y="-358" font-family="Helvetica,sans-Serif" font-size="10.00">Component::handleWeightsLoading</text>
</g>
<!-- Node2 -->
<g id="node2" class="node"><title>Node2</title>
<g id="a_node2"><a xlink:href="classRa_1_1Core_1_1Asset_1_1AssetData.html#a3f4a6e18b60f2de4a23c8898a7341d21" target="_top" xlink:title="Acces to the name of the asset. ">
<polygon fill="white" stroke="black" points="224.5,-425 224.5,-455 370.5,-455 370.5,-425 224.5,-425"/>
<text text-anchor="start" x="232.5" y="-443" font-family="Helvetica,sans-Serif" font-size="10.00">Ra::Core::Asset::AssetData</text>
<text text-anchor="middle" x="297.5" y="-432" font-family="Helvetica,sans-Serif" font-size="10.00">::getName</text>
</a>
</g>
</g>
<!-- Node1&#45;&gt;Node2 -->
<g id="edge1" class="edge"><title>Node1&#45;&gt;Node2</title>
<path fill="none" stroke="midnightblue" d="M131.263,-381.05C156.546,-390.993 190.631,-404.143 221,-415 227.058,-417.166 233.412,-419.371 239.753,-421.53"/>
<polygon fill="midnightblue" stroke="midnightblue" points="239.069,-424.993 249.663,-424.873 241.306,-418.36 239.069,-424.993"/>
</g>
<!-- Node3 -->
<g id="node3" class="node"><title>Node3</title>
<g id="a_node3"><a xlink:href="classRa_1_1Core_1_1Asset_1_1HandleData.html#a456d73d7b367dbf29f03d037bedaeaba" target="_top" xlink:title="Return the list of HandleComponentData. ">
<polygon fill="white" stroke="black" points="221,-376 221,-406 374,-406 374,-376 221,-376"/>
<text text-anchor="start" x="229" y="-394" font-family="Helvetica,sans-Serif" font-size="10.00">Ra::Core::Asset::HandleData</text>
<text text-anchor="middle" x="297.5" y="-383" font-family="Helvetica,sans-Serif" font-size="10.00">::getComponentData</text>
</a>
</g>
</g>
<!-- Node1&#45;&gt;Node3 -->
<g id="edge2" class="edge"><title>Node1&#45;&gt;Node3</title>
<path fill="none" stroke="midnightblue" d="M185.201,-377.293C193.642,-378.333 202.174,-379.383 210.561,-380.416"/>
<polygon fill="midnightblue" stroke="midnightblue" points="210.351,-383.917 220.703,-381.665 211.206,-376.969 210.351,-383.917"/>
</g>
<!-- Node4 -->
<g id="node4" class="node"><title>Node4</title>
<g id="a_node4"><a xlink:href="namespaceRa_1_1Core_1_1Animation.html#a386a12a440bf79de7a806c397023c443" target="_top" xlink:title="Ra::Core::Animation\l::checkWeightMatrix">
<polygon fill="white" stroke="black" points="241.5,-327 241.5,-357 353.5,-357 353.5,-327 241.5,-327"/>
<text text-anchor="start" x="249.5" y="-345" font-family="Helvetica,sans-Serif" font-size="10.00">Ra::Core::Animation</text>
<text text-anchor="middle" x="297.5" y="-334" font-family="Helvetica,sans-Serif" font-size="10.00">::checkWeightMatrix</text>
</a>
</g>
</g>
<!-- Node1&#45;&gt;Node4 -->
<g id="edge3" class="edge"><title>Node1&#45;&gt;Node4</title>
<path fill="none" stroke="midnightblue" d="M185.201,-355.159C200.738,-353.322 216.585,-351.448 231.266,-349.712"/>
<polygon fill="midnightblue" stroke="midnightblue" points="231.705,-353.185 241.225,-348.535 230.883,-346.233 231.705,-353.185"/>
</g>
<!-- Node29 -->
<g id="node29" class="node"><title>Node29</title>
<g id="a_node29"><a xlink:href="namespaceRa_1_1Core_1_1Animation.html#a6a32b4881129c88ac07339fd783ebc49" target="_top" xlink:title="In&#45;place normalization of the weights, such that matrix.row( k ).sum() = 1;. ">
<polygon fill="white" stroke="black" points="241.5,-278 241.5,-308 353.5,-308 353.5,-278 241.5,-278"/>
<text text-anchor="start" x="249.5" y="-296" font-family="Helvetica,sans-Serif" font-size="10.00">Ra::Core::Animation</text>
<text text-anchor="middle" x="297.5" y="-285" font-family="Helvetica,sans-Serif" font-size="10.00">::normalizeWeights</text>
</a>
</g>
</g>
<!-- Node1&#45;&gt;Node29 -->
<g id="edge34" class="edge"><title>Node1&#45;&gt;Node29</title>
<path fill="none" stroke="midnightblue" d="M130.942,-350.94C156.235,-340.933 190.455,-327.714 221,-317 226.488,-315.075 232.222,-313.132 237.972,-311.228"/>
<polygon fill="midnightblue" stroke="midnightblue" points="239.206,-314.507 247.623,-308.072 237.03,-307.853 239.206,-314.507"/>
</g>
<!-- Node5 -->
<g id="node5" class="node"><title>Node5</title>
<g id="a_node5"><a xlink:href="namespaceRa_1_1Core_1_1Math.html#ae18c7b57c072ca801413a45e8944b15d" target="_top" xlink:title="Call std::isnormal on quaternion entries. ">
<polygon fill="white" stroke="black" points="410,-327 410,-357 561,-357 561,-327 410,-327"/>
<text text-anchor="start" x="418" y="-345" font-family="Helvetica,sans-Serif" font-size="10.00">Ra::Core::Math::checkInvalid</text>
<text text-anchor="middle" x="485.5" y="-334" font-family="Helvetica,sans-Serif" font-size="10.00">Numbers</text>
</a>
</g>
</g>
<!-- Node4&#45;&gt;Node5 -->
<g id="edge4" class="edge"><title>Node4&#45;&gt;Node5</title>
<path fill="none" stroke="midnightblue" d="M353.551,-342C368.05,-342 384.035,-342 399.707,-342"/>
<polygon fill="midnightblue" stroke="midnightblue" points="399.941,-345.5 409.941,-342 399.941,-338.5 399.941,-345.5"/>
</g>
<!-- Node28 -->
<g id="node28" class="node"><title>Node28</title>
<g id="a_node28"><a xlink:href="namespaceRa_1_1Core_1_1Animation.html#a5f77b87a09e5e7bd707190d70e4f4b64" target="_top" xlink:title="Ra::Core::Animation\l::checkNoWeightVertex">
<polygon fill="white" stroke="black" points="422.5,-376 422.5,-406 548.5,-406 548.5,-376 422.5,-376"/>
<text text-anchor="start" x="430.5" y="-394" font-family="Helvetica,sans-Serif" font-size="10.00">Ra::Core::Animation</text>
<text text-anchor="middle" x="485.5" y="-383" font-family="Helvetica,sans-Serif" font-size="10.00">::checkNoWeightVertex</text>
</a>
</g>
</g>
<!-- Node4&#45;&gt;Node28 -->
<g id="edge33" class="edge"><title>Node4&#45;&gt;Node28</title>
<path fill="none" stroke="midnightblue" d="M353.551,-356.503C373.619,-361.789 396.532,-367.826 417.521,-373.355"/>
<polygon fill="midnightblue" stroke="midnightblue" points="416.769,-376.776 427.33,-375.939 418.552,-370.007 416.769,-376.776"/>
</g>
<!-- Node6 -->
<g id="node6" class="node"><title>Node6</title>
<g id="a_node6"><a xlink:href="namespaceRa_1_1Core_1_1Math.html#a5f25a31a29b0688e349dc35a353b9766" target="_top" xlink:title="Get two vectors orthogonal to a given vector. ">
<polygon fill="white" stroke="black" points="597,-655 597,-685 759,-685 759,-655 597,-655"/>
<text text-anchor="start" x="605" y="-673" font-family="Helvetica,sans-Serif" font-size="10.00">Ra::Core::Math::getOrthogonal</text>
<text text-anchor="middle" x="678" y="-662" font-family="Helvetica,sans-Serif" font-size="10.00">Vectors</text>
</a>
</g>
</g>
<!-- Node5&#45;&gt;Node6 -->
<g id="edge5" class="edge"><title>Node5&#45;&gt;Node6</title>
<path fill="none" stroke="midnightblue" d="M551.078,-357.058C554.767,-359.595 558.133,-362.552 561,-366 640.945,-462.129 516.635,-549.222 597,-645 598.023,-646.219 599.105,-647.38 600.238,-648.485"/>
<polygon fill="midnightblue" stroke="midnightblue" points="598.397,-651.494 608.396,-654.997 602.764,-646.023 598.397,-651.494"/>
</g>
<!-- Node9 -->
<g id="node9" class="node"><title>Node9</title>
<g id="a_node9"><a xlink:href="namespaceRa_1_1Core_1_1Math.html#a5306cf8ea65c31d4bbe0560ec7bb6bb4" target="_top" xlink:title="Get the angle between two vectors. ">
<polygon fill="white" stroke="black" points="799.5,-553.5 799.5,-572.5 918.5,-572.5 918.5,-553.5 799.5,-553.5"/>
<text text-anchor="middle" x="859" y="-560.5" font-family="Helvetica,sans-Serif" font-size="10.00">Ra::Core::Math::angle</text>
</a>
</g>
</g>
<!-- Node5&#45;&gt;Node9 -->
<g id="edge8" class="edge"><title>Node5&#45;&gt;Node9</title>
<path fill="none" stroke="midnightblue" d="M550.892,-357.217C554.624,-359.716 558.051,-362.622 561,-366 620.977,-434.694 527.089,-509.447 597,-568 661.763,-622.242 770.587,-594.844 824.974,-575.936"/>
<polygon fill="midnightblue" stroke="midnightblue" points="826.243,-579.199 834.473,-572.526 823.878,-572.611 826.243,-579.199"/>
</g>
<!-- Node10 -->
<g id="node10" class="node"><title>Node10</title>
<g id="a_node10"><a xlink:href="namespaceRa_1_1Core_1_1Math.html#a5130d4a8434d4ccc82fa04bcba73d2f0" target="_top" xlink:title="Get the spherical linear interpolation between two unit non&#45;colinear vectors. ">
<polygon fill="white" stroke="black" points="620,-490.5 620,-509.5 736,-509.5 736,-490.5 620,-490.5"/>
<text text-anchor="middle" x="678" y="-497.5" font-family="Helvetica,sans-Serif" font-size="10.00">Ra::Core::Math::slerp</text>
</a>
</g>
</g>
<!-- Node5&#45;&gt;Node10 -->
<g id="edge9" class="edge"><title>Node5&#45;&gt;Node10</title>
<path fill="none" stroke="midnightblue" d="M549.313,-357.064C553.568,-359.594 557.533,-362.549 561,-366 597.458,-402.289 560.177,-440.08 597,-476 601.022,-479.924 605.66,-483.209 610.634,-485.96"/>
<polygon fill="midnightblue" stroke="midnightblue" points="609.357,-489.228 619.892,-490.357 612.36,-482.905 609.357,-489.228"/>
</g>
<!-- Node12 -->
<g id="node12" class="node"><title>Node12</title>
<g id="a_node12"><a xlink:href="namespaceRa_1_1Core_1_1Math.html#a4f441ac6a56092d52849a4f48e274aa8" target="_top" xlink:title="Get the cosine of the angle between two vectors. ">
<polygon fill="white" stroke="black" points="804,-458.5 804,-477.5 914,-477.5 914,-458.5 804,-458.5"/>
<text text-anchor="middle" x="859" y="-465.5" font-family="Helvetica,sans-Serif" font-size="10.00">Ra::Core::Math::cos</text>
</a>
</g>
</g>
<!-- Node5&#45;&gt;Node12 -->
<g id="edge17" class="edge"><title>Node5&#45;&gt;Node12</title>
<path fill="none" stroke="midnightblue" d="M548.136,-357.142C552.762,-359.655 557.127,-362.585 561,-366 589.338,-390.983 566.133,-421.22 597,-443 627.645,-464.623 726.987,-468.768 793.885,-468.976"/>
<polygon fill="midnightblue" stroke="midnightblue" points="793.916,-472.475 803.917,-468.978 793.918,-465.475 793.916,-472.475"/>
</g>
<!-- Node13 -->
<g id="node13" class="node"><title>Node13</title>
<g id="a_node13"><a xlink:href="namespaceRa_1_1Core_1_1Geometry.html#aa04e6052d8911b1df1bd881474debb45" target="_top" xlink:title="Ra::Core::Geometry::t">
<polygon fill="white" stroke="black" points="618,-414.5 618,-433.5 738,-433.5 738,-414.5 618,-414.5"/>
<text text-anchor="middle" x="678" y="-421.5" font-family="Helvetica,sans-Serif" font-size="10.00">Ra::Core::Geometry::t</text>
</a>
</g>
</g>
<!-- Node5&#45;&gt;Node13 -->
<g id="edge13" class="edge"><title>Node5&#45;&gt;Node13</title>
<path fill="none" stroke="midnightblue" d="M544.014,-357.16C549.953,-359.704 555.732,-362.635 561,-366 580.879,-378.7 576.639,-393.09 597,-405 600.847,-407.25 604.945,-409.234 609.176,-410.983"/>
<polygon fill="midnightblue" stroke="midnightblue" points="608.012,-414.284 618.605,-414.45 610.427,-407.714 608.012,-414.284"/>
</g>
<!-- Node14 -->
<g id="node14" class="node"><title>Node14</title>
<g id="a_node14"><a xlink:href="namespaceRa_1_1Core_1_1Math.html#ab5addcd796ee2477977a4e219145ea85" target="_top" xlink:title="Ra::Core::Math::projectOn\lPlane">
<polygon fill="white" stroke="black" points="608,-529 608,-559 748,-559 748,-529 608,-529"/>
<text text-anchor="start" x="616" y="-547" font-family="Helvetica,sans-Serif" font-size="10.00">Ra::Core::Math::projectOn</text>
<text text-anchor="middle" x="678" y="-536" font-family="Helvetica,sans-Serif" font-size="10.00">Plane</text>
</a>
</g>
</g>
<!-- Node5&#45;&gt;Node14 -->
<g id="edge14" class="edge"><title>Node5&#45;&gt;Node14</title>
<path fill="none" stroke="midnightblue" d="M550.339,-357.181C554.253,-359.687 557.867,-362.604 561,-366 608.367,-417.345 549.408,-467.863 597,-519 598.227,-520.318 599.522,-521.567 600.876,-522.751"/>
<polygon fill="midnightblue" stroke="midnightblue" points="599.069,-525.766 609.208,-528.84 603.199,-520.114 599.069,-525.766"/>
</g>
<!-- Node15 -->
<g id="node15" class="node"><title>Node15</title>
<g id="a_node15"><a xlink:href="namespaceRa_1_1Core_1_1Math.html#a8667e211f2182821346ba4bcfe07b053" target="_top" xlink:title="Get the cotangent of the angle between two vectors. ">
<polygon fill="white" stroke="black" points="618,-376.5 618,-395.5 738,-395.5 738,-376.5 618,-376.5"/>
<text text-anchor="middle" x="678" y="-383.5" font-family="Helvetica,sans-Serif" font-size="10.00">Ra::Core::Math::cotan</text>
</a>
</g>
</g>
<!-- Node5&#45;&gt;Node15 -->
<g id="edge16" class="edge"><title>Node5&#45;&gt;Node15</title>
<path fill="none" stroke="midnightblue" d="M551.526,-357.019C575.844,-362.636 603.095,-368.93 625.971,-374.214"/>
<polygon fill="midnightblue" stroke="midnightblue" points="625.284,-377.647 635.816,-376.488 626.86,-370.827 625.284,-377.647"/>
</g>
<!-- Node16 -->
<g id="node16" class="node"><title>Node16</title>
<g id="a_node16"><a xlink:href="namespaceRa_1_1Core_1_1Math.html#a19a397c8570c4f1df64d6c055d215659" target="_top" xlink:title="Normalize a vector and returns its norm before normalization. ">
<polygon fill="white" stroke="black" points="600.5,-327 600.5,-357 755.5,-357 755.5,-327 600.5,-327"/>
<text text-anchor="start" x="608.5" y="-345" font-family="Helvetica,sans-Serif" font-size="10.00">Ra::Core::Math::getNormAnd</text>
<text text-anchor="middle" x="678" y="-334" font-family="Helvetica,sans-Serif" font-size="10.00">Normalize</text>
</a>
</g>
</g>
<!-- Node5&#45;&gt;Node16 -->
<g id="edge18" class="edge"><title>Node5&#45;&gt;Node16</title>
<path fill="none" stroke="midnightblue" d="M561.244,-342C570.76,-342 580.562,-342 590.246,-342"/>
<polygon fill="midnightblue" stroke="midnightblue" points="590.279,-345.5 600.279,-342 590.279,-338.5 590.279,-345.5"/>
</g>
<!-- Node18 -->
<g id="node18" class="node"><title>Node18</title>
<g id="a_node18"><a xlink:href="namespaceRa_1_1Core_1_1Math.html#add677f0ab64a79b894bd36d7aa6987f1" target="_top" xlink:title="Normalize a vector and returns its norm before normalization. ">
<polygon fill="white" stroke="black" points="600.5,-278 600.5,-308 755.5,-308 755.5,-278 600.5,-278"/>
<text text-anchor="start" x="608.5" y="-296" font-family="Helvetica,sans-Serif" font-size="10.00">Ra::Core::Math::getNormAnd</text>
<text text-anchor="middle" x="678" y="-285" font-family="Helvetica,sans-Serif" font-size="10.00">NormalizeSafe</text>
</a>
</g>
</g>
<!-- Node5&#45;&gt;Node18 -->
<g id="edge20" class="edge"><title>Node5&#45;&gt;Node18</title>
<path fill="none" stroke="midnightblue" d="M544.951,-326.965C565.156,-321.768 587.973,-315.899 608.885,-310.52"/>
<polygon fill="midnightblue" stroke="midnightblue" points="609.847,-313.887 618.66,-308.006 608.103,-307.108 609.847,-313.887"/>
</g>
<!-- Node19 -->
<g id="node19" class="node"><title>Node19</title>
<g id="a_node19"><a xlink:href="namespaceRa_1_1Core_1_1Math.html#a15598e77958bb1790082f621851bddef" target="_top" xlink:title="Transform a ray, direction is only transformed by linear part of the transformation, while origin is fully transformed corresponds to t*r. ">
<polygon fill="white" stroke="black" points="599,-190.5 599,-209.5 757,-209.5 757,-190.5 599,-190.5"/>
<text text-anchor="middle" x="678" y="-197.5" font-family="Helvetica,sans-Serif" font-size="10.00">Ra::Core::Math::transformRay</text>
</a>
</g>
</g>
<!-- Node5&#45;&gt;Node19 -->
<g id="edge22" class="edge"><title>Node5&#45;&gt;Node19</title>
<path fill="none" stroke="midnightblue" d="M547.392,-326.969C552.352,-324.19 556.989,-320.899 561,-317 594.271,-284.657 562.298,-249.804 597,-219 598.735,-217.46 600.572,-216.039 602.491,-214.728"/>
<polygon fill="midnightblue" stroke="midnightblue" points="604.422,-217.656 611.369,-209.657 600.95,-211.577 604.422,-217.656"/>
</g>
<!-- Node20 -->
<g id="node20" class="node"><title>Node20</title>
<g id="a_node20"><a xlink:href="namespaceRa_1_1Core_1_1Math.html#ad79b708fb40ed130ff8031d709b78504" target="_top" xlink:title="Ra::Core::Math::lookAt">
<polygon fill="white" stroke="black" points="616.5,-152.5 616.5,-171.5 739.5,-171.5 739.5,-152.5 616.5,-152.5"/>
<text text-anchor="middle" x="678" y="-159.5" font-family="Helvetica,sans-Serif" font-size="10.00">Ra::Core::Math::lookAt</text>
</a>
</g>
</g>
<!-- Node5&#45;&gt;Node20 -->
<g id="edge23" class="edge"><title>Node5&#45;&gt;Node20</title>
<path fill="none" stroke="midnightblue" d="M548.498,-326.933C553.103,-324.162 557.362,-320.883 561,-317 603.753,-271.374 552.225,-224.643 597,-181 600.105,-177.973 603.6,-175.398 607.347,-173.208"/>
<polygon fill="midnightblue" stroke="midnightblue" points="609.021,-176.286 616.488,-168.77 605.963,-169.989 609.021,-176.286"/>
</g>
<!-- Node21 -->
<g id="node21" class="node"><title>Node21</title>
<g id="a_node21"><a xlink:href="namespaceRa_1_1Core_1_1Math.html#ab5436769ec59975b2a35b83a86defd2c" target="_top" xlink:title="Ra::Core::Math::perspective">
<polygon fill="white" stroke="black" points="603.5,-114.5 603.5,-133.5 752.5,-133.5 752.5,-114.5 603.5,-114.5"/>
<text text-anchor="middle" x="678" y="-121.5" font-family="Helvetica,sans-Serif" font-size="10.00">Ra::Core::Math::perspective</text>
</a>
</g>
</g>
<!-- Node5&#45;&gt;Node21 -->
<g id="edge24" class="edge"><title>Node5&#45;&gt;Node21</title>
<path fill="none" stroke="midnightblue" d="M549.079,-326.927C553.5,-324.157 557.56,-320.879 561,-317 613.4,-257.918 541.979,-199.649 597,-143 598.265,-141.698 599.602,-140.478 601,-139.335"/>
<polygon fill="midnightblue" stroke="midnightblue" points="603.224,-142.06 609.61,-133.606 599.346,-136.232 603.224,-142.06"/>
</g>
<!-- Node22 -->
<g id="node22" class="node"><title>Node22</title>
<g id="a_node22"><a xlink:href="namespaceRa_1_1Core_1_1Math.html#a8b773ee57d017ddd6a3d2612dd426f71" target="_top" xlink:title="Ra::Core::Math::orthographic">
<polygon fill="white" stroke="black" points="601,-76.5 601,-95.5 755,-95.5 755,-76.5 601,-76.5"/>
<text text-anchor="middle" x="678" y="-83.5" font-family="Helvetica,sans-Serif" font-size="10.00">Ra::Core::Math::orthographic</text>
</a>
</g>
</g>
<!-- Node5&#45;&gt;Node22 -->
<g id="edge25" class="edge"><title>Node5&#45;&gt;Node22</title>
<path fill="none" stroke="midnightblue" d="M549.577,-326.837C553.83,-324.085 557.719,-320.836 561,-317 623.124,-244.375 531.652,-174.738 597,-105 598.208,-103.711 599.486,-102.502 600.825,-101.369"/>
<polygon fill="midnightblue" stroke="midnightblue" points="602.842,-104.229 609.087,-95.6701 598.867,-98.4669 602.842,-104.229"/>
</g>
<!-- Node23 -->
<g id="node23" class="node"><title>Node23</title>
<g id="a_node23"><a xlink:href="namespaceRa_1_1Core_1_1Math.html#a941baf20065c77d494ca251e6e104f31" target="_top" xlink:title="Returns the quaternion q multipled by a scalar factor of k. ">
<polygon fill="white" stroke="black" points="619,-38.5 619,-57.5 737,-57.5 737,-38.5 619,-38.5"/>
<text text-anchor="middle" x="678" y="-45.5" font-family="Helvetica,sans-Serif" font-size="10.00">Ra::Core::Math::scale</text>
</a>
</g>
</g>
<!-- Node5&#45;&gt;Node23 -->
<g id="edge26" class="edge"><title>Node5&#45;&gt;Node23</title>
<path fill="none" stroke="midnightblue" d="M549.684,-326.927C553.913,-324.155 557.767,-320.877 561,-317 632.89,-230.782 521.28,-149.874 597,-67 600.579,-63.0825 604.806,-59.9022 609.416,-57.3274"/>
<polygon fill="midnightblue" stroke="midnightblue" points="611.048,-60.4299 618.686,-53.0878 608.136,-54.0641 611.048,-60.4299"/>
</g>
<!-- Node24 -->
<g id="node24" class="node"><title>Node24</title>
<g id="a_node24"><a xlink:href="namespaceRa_1_1Core_1_1Math.html#a0523a53d2d94a623e194830837863c4c" target="_top" xlink:title="Returns the sum of two quaternions. ">
<polygon fill="white" stroke="black" points="622.5,-0.5 622.5,-19.5 733.5,-19.5 733.5,-0.5 622.5,-0.5"/>
<text text-anchor="middle" x="678" y="-7.5" font-family="Helvetica,sans-Serif" font-size="10.00">Ra::Core::Math::add</text>
</a>
</g>
</g>
<!-- Node5&#45;&gt;Node24 -->
<g id="edge27" class="edge"><title>Node5&#45;&gt;Node24</title>
<path fill="none" stroke="midnightblue" d="M549.764,-326.993C553.975,-324.207 557.804,-320.907 561,-317 642.682,-217.16 510.882,-125.04 597,-29 601.378,-24.1177 606.761,-20.3758 612.647,-17.5222"/>
<polygon fill="midnightblue" stroke="midnightblue" points="614.224,-20.6625 622.238,-13.733 611.652,-14.1521 614.224,-20.6625"/>
</g>
<!-- Node25 -->
<g id="node25" class="node"><title>Node25</title>
<g id="a_node25"><a xlink:href="namespaceRa_1_1Core_1_1Math.html#aa5c9bddd5fdbbdbcdb661348982ff204" target="_top" xlink:title="Returns the sum of two quaternions, resolving antipodality by flipping the sign of q2 if q1...">
<polygon fill="white" stroke="black" points="609.5,-616.5 609.5,-635.5 746.5,-635.5 746.5,-616.5 609.5,-616.5"/>
<text text-anchor="middle" x="678" y="-623.5" font-family="Helvetica,sans-Serif" font-size="10.00">Ra::Core::Math::addQlerp</text>
</a>
</g>
</g>
<!-- Node5&#45;&gt;Node25 -->
<g id="edge28" class="edge"><title>Node5&#45;&gt;Node25</title>
<path fill="none" stroke="midnightblue" d="M550.988,-357.134C554.698,-359.653 558.093,-362.586 561,-366 629.779,-446.791 527.409,-521.908 597,-602 600.219,-605.704 603.985,-608.849 608.097,-611.517"/>
<polygon fill="midnightblue" stroke="midnightblue" points="606.504,-614.635 616.959,-616.35 609.856,-608.489 606.504,-614.635"/>
</g>
<!-- Node27 -->
<g id="node27" class="node"><title>Node27</title>
<g id="a_node27"><a xlink:href="namespaceRa_1_1Core_1_1Math.html#aa5414be6d83af5b67fb48c22e4f49679" target="_top" xlink:title="Decompose a given rotation Qin into a swing rotation and a twist rotation. ">
<polygon fill="white" stroke="black" points="609.5,-229 609.5,-259 746.5,-259 746.5,-229 609.5,-229"/>
<text text-anchor="start" x="617.5" y="-247" font-family="Helvetica,sans-Serif" font-size="10.00">Ra::Core::Math::getSwing</text>
<text text-anchor="middle" x="678" y="-236" font-family="Helvetica,sans-Serif" font-size="10.00">Twist</text>
</a>
</g>
</g>
<!-- Node5&#45;&gt;Node27 -->
<g id="edge31" class="edge"><title>Node5&#45;&gt;Node27</title>
<path fill="none" stroke="midnightblue" d="M543.649,-326.953C549.785,-324.152 555.71,-320.861 561,-317 582.828,-301.069 574.917,-283.576 597,-268 599.125,-266.501 601.346,-265.094 603.637,-263.774"/>
<polygon fill="midnightblue" stroke="midnightblue" points="605.469,-266.768 612.779,-259.099 602.282,-260.536 605.469,-266.768"/>
</g>
<!-- Node7 -->
<g id="node7" class="node"><title>Node7</title>
<g id="a_node7"><a xlink:href="namespaceRa_1_1Core_1_1Math.html#a90f0fe9079f5bb86c721ea4b61738470" target="_top" xlink:title="Returns the sign of any numeric type as { &#45;1, 0, 1}. ">
<polygon fill="white" stroke="black" points="802.5,-657.5 802.5,-676.5 915.5,-676.5 915.5,-657.5 802.5,-657.5"/>
<text text-anchor="middle" x="859" y="-664.5" font-family="Helvetica,sans-Serif" font-size="10.00">Ra::Core::Math::sign</text>
</a>
</g>
</g>
<!-- Node6&#45;&gt;Node7 -->
<g id="edge6" class="edge"><title>Node6&#45;&gt;Node7</title>
<path fill="none" stroke="midnightblue" d="M759.076,-668.658C770.151,-668.472 781.421,-668.283 792.196,-668.103"/>
<polygon fill="midnightblue" stroke="midnightblue" points="792.414,-671.6 802.354,-667.933 792.297,-664.601 792.414,-671.6"/>
</g>
<!-- Node8 -->
<g id="node8" class="node"><title>Node8</title>
<g id="a_node8"><a xlink:href="namespaceRa_1_1Core_1_1Math.html#ae4e681e0738fe7e5bfd028c6270b597a" target="_top" xlink:title="Ra::Core::Math::signum">
<polygon fill="white" stroke="black" points="959,-657.5 959,-676.5 1087,-676.5 1087,-657.5 959,-657.5"/>
<text text-anchor="middle" x="1023" y="-664.5" font-family="Helvetica,sans-Serif" font-size="10.00">Ra::Core::Math::signum</text>
</a>
</g>
</g>
<!-- Node7&#45;&gt;Node8 -->
<g id="edge7" class="edge"><title>Node7&#45;&gt;Node8</title>
<path fill="none" stroke="midnightblue" d="M915.751,-667C926.402,-667 937.701,-667 948.802,-667"/>
<polygon fill="midnightblue" stroke="midnightblue" points="948.917,-670.5 958.917,-667 948.917,-663.5 948.917,-670.5"/>
</g>
<!-- Node10&#45;&gt;Node9 -->
<g id="edge11" class="edge"><title>Node10&#45;&gt;Node9</title>
<path fill="none" stroke="midnightblue" d="M725.524,-509.514C736.607,-512.201 748.315,-515.392 759,-519 783.543,-527.289 810.333,-539.395 829.849,-548.811"/>
<polygon fill="midnightblue" stroke="midnightblue" points="828.55,-552.072 839.071,-553.322 831.626,-545.784 828.55,-552.072"/>
</g>
<!-- Node11 -->
<g id="node11" class="node"><title>Node11</title>
<g id="a_node11"><a xlink:href="namespaceOpenMesh.html#a575b338f0fc9ecb5393d23e977e6ac38" target="_top" xlink:title="OpenMesh::dot">
<polygon fill="white" stroke="black" points="814.5,-502.5 814.5,-521.5 903.5,-521.5 903.5,-502.5 814.5,-502.5"/>
<text text-anchor="middle" x="859" y="-509.5" font-family="Helvetica,sans-Serif" font-size="10.00">OpenMesh::dot</text>
</a>
</g>
</g>
<!-- Node10&#45;&gt;Node11 -->
<g id="edge10" class="edge"><title>Node10&#45;&gt;Node11</title>
<path fill="none" stroke="midnightblue" d="M736.129,-503.83C757.935,-505.292 782.704,-506.952 804.191,-508.393"/>
<polygon fill="midnightblue" stroke="midnightblue" points="804.236,-511.903 814.448,-509.08 804.704,-504.919 804.236,-511.903"/>
</g>
<!-- Node10&#45;&gt;Node12 -->
<g id="edge12" class="edge"><title>Node10&#45;&gt;Node12</title>
<path fill="none" stroke="midnightblue" d="M732.221,-490.486C751.882,-486.971 774.355,-482.953 794.814,-479.296"/>
<polygon fill="midnightblue" stroke="midnightblue" points="795.447,-482.738 804.675,-477.533 794.215,-475.848 795.447,-482.738"/>
</g>
<!-- Node14&#45;&gt;Node11 -->
<g id="edge15" class="edge"><title>Node14&#45;&gt;Node11</title>
<path fill="none" stroke="midnightblue" d="M748.206,-531.628C766.792,-528.305 786.611,-524.762 804.222,-521.614"/>
<polygon fill="midnightblue" stroke="midnightblue" points="805.082,-525.016 814.31,-519.81 803.85,-518.125 805.082,-525.016"/>
</g>
<!-- Node17 -->
<g id="node17" class="node"><title>Node17</title>
<g id="a_node17"><a xlink:href="namespaceOpenMesh.html#a8205f789ce08919bc11c58383574596c" target="_top" xlink:title="OpenMesh::norm">
<polygon fill="white" stroke="black" points="809.5,-283.5 809.5,-302.5 908.5,-302.5 908.5,-283.5 809.5,-283.5"/>
<text text-anchor="middle" x="859" y="-290.5" font-family="Helvetica,sans-Serif" font-size="10.00">OpenMesh::norm</text>
</a>
</g>
</g>
<!-- Node16&#45;&gt;Node17 -->
<g id="edge19" class="edge"><title>Node16&#45;&gt;Node17</title>
<path fill="none" stroke="midnightblue" d="M734.166,-326.899C759.603,-319.935 789.401,-311.778 813.392,-305.211"/>
<polygon fill="midnightblue" stroke="midnightblue" points="814.568,-308.518 823.289,-302.502 812.72,-301.766 814.568,-308.518"/>
</g>
<!-- Node18&#45;&gt;Node17 -->
<g id="edge21" class="edge"><title>Node18&#45;&gt;Node17</title>
<path fill="none" stroke="midnightblue" d="M755.691,-293C770.209,-293 785.187,-293 799.052,-293"/>
<polygon fill="midnightblue" stroke="midnightblue" points="799.413,-296.5 809.412,-293 799.412,-289.5 799.413,-296.5"/>
</g>
<!-- Node25&#45;&gt;Node7 -->
<g id="edge29" class="edge"><title>Node25&#45;&gt;Node7</title>
<path fill="none" stroke="midnightblue" d="M720.516,-635.509C746.179,-641.387 779.315,-648.977 806.626,-655.233"/>
<polygon fill="midnightblue" stroke="midnightblue" points="805.87,-658.65 816.399,-657.471 807.433,-651.827 805.87,-658.65"/>
</g>
<!-- Node26 -->
<g id="node26" class="node"><title>Node26</title>
<g id="a_node26"><a xlink:href="namespaceRa_1_1Core_1_1Math.html#a810d6d50b61cc01cda1d54527de864d0" target="_top" xlink:title="Returns the sign of any numeric type as { &#45;1, 1} Note: signNZ(0) returns 1 for any integral type but ...">
<polygon fill="white" stroke="black" points="795,-616.5 795,-635.5 923,-635.5 923,-616.5 795,-616.5"/>
<text text-anchor="middle" x="859" y="-623.5" font-family="Helvetica,sans-Serif" font-size="10.00">Ra::Core::Math::signNZ</text>
</a>
</g>
</g>
<!-- Node25&#45;&gt;Node26 -->
<g id="edge30" class="edge"><title>Node25&#45;&gt;Node26</title>
<path fill="none" stroke="midnightblue" d="M746.672,-626C759.171,-626 772.275,-626 784.926,-626"/>
<polygon fill="midnightblue" stroke="midnightblue" points="784.954,-629.5 794.954,-626 784.954,-622.5 784.954,-629.5"/>
</g>
<!-- Node27&#45;&gt;Node17 -->
<g id="edge32" class="edge"><title>Node27&#45;&gt;Node17</title>
<path fill="none" stroke="midnightblue" d="M734.166,-259.101C759.603,-266.065 789.401,-274.222 813.392,-280.789"/>
<polygon fill="midnightblue" stroke="midnightblue" points="812.72,-284.234 823.289,-283.498 814.568,-277.482 812.72,-284.234"/>
</g>
<!-- Node30 -->
<g id="node30" class="node"><title>Node30</title>
<g id="a_node30"><a xlink:href="namespaceRa_1_1Core_1_1Math.html#a46540d56930b4c1ff3b115872cde4893" target="_top" xlink:title="Compare two numbers such that |x&#45;y| &lt; espilon*epsilonBoostFactor. ">
<polygon fill="white" stroke="black" points="414,-278 414,-308 557,-308 557,-278 414,-278"/>
<text text-anchor="start" x="422" y="-296" font-family="Helvetica,sans-Serif" font-size="10.00">Ra::Core::Math::areApprox</text>
<text text-anchor="middle" x="485.5" y="-285" font-family="Helvetica,sans-Serif" font-size="10.00">Equal</text>
</a>
</g>
</g>
<!-- Node29&#45;&gt;Node30 -->
<g id="edge35" class="edge"><title>Node29&#45;&gt;Node30</title>
<path fill="none" stroke="midnightblue" d="M353.551,-293C369.164,-293 386.5,-293 403.312,-293"/>
<polygon fill="midnightblue" stroke="midnightblue" points="403.692,-296.5 413.692,-293 403.692,-289.5 403.692,-296.5"/>
</g>
</g>
</svg>
