<?xml version="1.0" encoding="UTF-8" standalone="no"?>
<!DOCTYPE svg PUBLIC "-//W3C//DTD SVG 1.1//EN"
 "http://www.w3.org/Graphics/SVG/1.1/DTD/svg11.dtd">
<!-- Generated by graphviz version 2.38.0 (20140413.2041)
 -->
<!-- Title: Ra::Gui::FlightCameraManipulator::resetCamera Pages: 1 -->
<svg width="679pt" height="274pt"
 viewBox="0.00 0.00 679.00 274.00" xmlns="http://www.w3.org/2000/svg" xmlns:xlink="http://www.w3.org/1999/xlink">
<g id="graph0" class="graph" transform="scale(1 1) rotate(0) translate(4 270)">
<title>Ra::Gui::FlightCameraManipulator::resetCamera</title>
<polygon fill="white" stroke="none" points="-4,4 -4,-270 675,-270 675,4 -4,4"/>
<!-- Node1 -->
<g id="node1" class="node"><title>Node1</title>
<polygon fill="#bfbfbf" stroke="black" points="0,-120.5 0,-150.5 176,-150.5 176,-120.5 0,-120.5"/>
<text text-anchor="start" x="8" y="-138.5" font-family="Helvetica,sans-Serif" font-size="10.00">Ra::Gui::FlightCameraManipulator</text>
<text text-anchor="middle" x="88" y="-127.5" font-family="Helvetica,sans-Serif" font-size="10.00">::resetCamera</text>
</g>
<!-- Node2 -->
<g id="node2" class="node"><title>Node2</title>
<g id="a_node2"><a xlink:href="classRa_1_1Engine_1_1Camera.html#afb2eb1eaed43dfbad89a89f90c067b4e" target="_top" xlink:title="Set the frame of the camera to &#39;frame&#39;. ">
<polygon fill="white" stroke="black" points="212,-235.5 212,-265.5 323,-265.5 323,-235.5 212,-235.5"/>
<text text-anchor="start" x="220" y="-253.5" font-family="Helvetica,sans-Serif" font-size="10.00">Ra::Engine::Camera</text>
<text text-anchor="middle" x="267.5" y="-242.5" font-family="Helvetica,sans-Serif" font-size="10.00">::setFrame</text>
</a>
</g>
</g>
<!-- Node1&#45;&gt;Node2 -->
<g id="edge1" class="edge"><title>Node1&#45;&gt;Node2</title>
<path fill="none" stroke="midnightblue" d="M106.871,-150.72C130.056,-169.984 172.255,-203.432 212,-226.5 214.642,-228.033 217.4,-229.533 220.212,-230.985"/>
<polygon fill="midnightblue" stroke="midnightblue" points="218.784,-234.183 229.303,-235.449 221.869,-227.899 218.784,-234.183"/>
</g>
<!-- Node3 -->
<g id="node3" class="node"><title>Node3</title>
<g id="a_node3"><a xlink:href="classRa_1_1Engine_1_1Camera.html#ab8f9fdfba7355b4589c4d9cb39f0b527" target="_top" xlink:title="Set the position of the camera to &#39;position&#39;. ">
<polygon fill="white" stroke="black" points="212,-186.5 212,-216.5 323,-216.5 323,-186.5 212,-186.5"/>
<text text-anchor="start" x="220" y="-204.5" font-family="Helvetica,sans-Serif" font-size="10.00">Ra::Engine::Camera</text>
<text text-anchor="middle" x="267.5" y="-193.5" font-family="Helvetica,sans-Serif" font-size="10.00">::setPosition</text>
</a>
</g>
</g>
<!-- Node1&#45;&gt;Node3 -->
<g id="edge2" class="edge"><title>Node1&#45;&gt;Node3</title>
<path fill="none" stroke="midnightblue" d="M129.722,-150.642C155.541,-160.242 189.121,-172.728 216.546,-182.926"/>
<polygon fill="midnightblue" stroke="midnightblue" points="215.375,-186.224 225.967,-186.429 217.814,-179.663 215.375,-186.224"/>
</g>
<!-- Node5 -->
<g id="node5" class="node"><title>Node5</title>
<g id="a_node5"><a xlink:href="classRa_1_1Engine_1_1Camera.html#a724a052e94817af7e602129467c8696f" target="_top" xlink:title="Return the position. ">
<polygon fill="white" stroke="black" points="547,-142.5 547,-172.5 658,-172.5 658,-142.5 547,-142.5"/>
<text text-anchor="start" x="555" y="-160.5" font-family="Helvetica,sans-Serif" font-size="10.00">Ra::Engine::Camera</text>
<text text-anchor="middle" x="602.5" y="-149.5" font-family="Helvetica,sans-Serif" font-size="10.00">::getPosition</text>
</a>
</g>
</g>
<!-- Node1&#45;&gt;Node5 -->
<g id="edge6" class="edge"><title>Node1&#45;&gt;Node5</title>
<path fill="none" stroke="midnightblue" d="M176.229,-139.244C278.441,-143.632 445.416,-150.8 536.767,-154.721"/>
<polygon fill="midnightblue" stroke="midnightblue" points="536.843,-158.228 546.984,-155.16 537.143,-151.234 536.843,-158.228"/>
</g>
<!-- Node7 -->
<g id="node7" class="node"><title>Node7</title>
<g id="a_node7"><a xlink:href="classRa_1_1Engine_1_1Camera.html#a23be7aa714c0e9c2a9429dfc9ef2c53a" target="_top" xlink:title="Return the direction the camera is looking at. ">
<polygon fill="white" stroke="black" points="212,-98.5 212,-128.5 323,-128.5 323,-98.5 212,-98.5"/>
<text text-anchor="start" x="220" y="-116.5" font-family="Helvetica,sans-Serif" font-size="10.00">Ra::Engine::Camera</text>
<text text-anchor="middle" x="267.5" y="-105.5" font-family="Helvetica,sans-Serif" font-size="10.00">::getDirection</text>
</a>
</g>
</g>
<!-- Node1&#45;&gt;Node7 -->
<g id="edge7" class="edge"><title>Node1&#45;&gt;Node7</title>
<path fill="none" stroke="midnightblue" d="M176.19,-124.693C184.792,-123.627 193.413,-122.559 201.73,-121.528"/>
<polygon fill="midnightblue" stroke="midnightblue" points="202.21,-124.995 211.703,-120.292 201.348,-118.048 202.21,-124.995"/>
</g>
<!-- Node8 -->
<g id="node8" class="node"><title>Node8</title>
<g id="a_node8"><a xlink:href="classRa_1_1Engine_1_1Light.html#a1bf2c510e62b2a99f0012a39ad218378" target="_top" xlink:title="Set the position of the light source. ">
<polygon fill="white" stroke="black" points="216.5,-49.5 216.5,-79.5 318.5,-79.5 318.5,-49.5 216.5,-49.5"/>
<text text-anchor="start" x="224.5" y="-67.5" font-family="Helvetica,sans-Serif" font-size="10.00">Ra::Engine::Light::</text>
<text text-anchor="middle" x="267.5" y="-56.5" font-family="Helvetica,sans-Serif" font-size="10.00">setPosition</text>
</a>
</g>
</g>
<!-- Node1&#45;&gt;Node8 -->
<g id="edge8" class="edge"><title>Node1&#45;&gt;Node8</title>
<path fill="none" stroke="midnightblue" d="M126.643,-120.443C153.706,-109.618 190.387,-94.9452 219.393,-83.3427"/>
<polygon fill="midnightblue" stroke="midnightblue" points="220.926,-86.4992 228.911,-79.5356 218.326,-79.9999 220.926,-86.4992"/>
</g>
<!-- Node10 -->
<g id="node10" class="node"><title>Node10</title>
<g id="a_node10"><a xlink:href="classRa_1_1Engine_1_1Light.html#a24e11b300dfe4e2a785d87b6de74b036" target="_top" xlink:title="set the direction of lighting ">
<polygon fill="white" stroke="black" points="216.5,-0.5 216.5,-30.5 318.5,-30.5 318.5,-0.5 216.5,-0.5"/>
<text text-anchor="start" x="224.5" y="-18.5" font-family="Helvetica,sans-Serif" font-size="10.00">Ra::Engine::Light::</text>
<text text-anchor="middle" x="267.5" y="-7.5" font-family="Helvetica,sans-Serif" font-size="10.00">setDirection</text>
</a>
</g>
</g>
<!-- Node1&#45;&gt;Node10 -->
<g id="edge10" class="edge"><title>Node1&#45;&gt;Node10</title>
<path fill="none" stroke="midnightblue" d="M106.014,-120.325C128.953,-100.355 171.595,-64.9331 212,-40.5 214.986,-38.6947 218.123,-36.9335 221.323,-35.236"/>
<polygon fill="midnightblue" stroke="midnightblue" points="223.079,-38.2701 230.426,-30.6363 219.922,-32.0224 223.079,-38.2701"/>
</g>
<!-- Node4 -->
<g id="node4" class="node"><title>Node4</title>
<g id="a_node4"><a xlink:href="classRa_1_1Engine_1_1Camera.html#a7a2c1c84e3063c6c3f09d490477abb0f" target="_top" xlink:title="Apply the local transformation &#39;T&#39; to the camera. ">
<polygon fill="white" stroke="black" points="373,-186.5 373,-216.5 484,-216.5 484,-186.5 373,-186.5"/>
<text text-anchor="start" x="381" y="-204.5" font-family="Helvetica,sans-Serif" font-size="10.00">Ra::Engine::Camera</text>
<text text-anchor="middle" x="428.5" y="-193.5" font-family="Helvetica,sans-Serif" font-size="10.00">::applyTransform</text>
</a>
</g>
</g>
<!-- Node3&#45;&gt;Node4 -->
<g id="edge3" class="edge"><title>Node3&#45;&gt;Node4</title>
<path fill="none" stroke="midnightblue" d="M323.219,-201.5C335.907,-201.5 349.53,-201.5 362.607,-201.5"/>
<polygon fill="midnightblue" stroke="midnightblue" points="362.95,-205 372.95,-201.5 362.95,-198 362.95,-205"/>
</g>
<!-- Node4&#45;&gt;Node5 -->
<g id="edge4" class="edge"><title>Node4&#45;&gt;Node5</title>
<path fill="none" stroke="midnightblue" d="M484.395,-187.457C501.078,-183.189 519.567,-178.46 536.831,-174.043"/>
<polygon fill="midnightblue" stroke="midnightblue" points="538.011,-177.354 546.832,-171.485 536.276,-170.573 538.011,-177.354"/>
</g>
<!-- Node6 -->
<g id="node6" class="node"><title>Node6</title>
<g id="a_node6"><a xlink:href="classRa_1_1Engine_1_1RenderObject.html#a2d6a1bc2b7646fe0912035a2ece24864" target="_top" xlink:title="Ra::Engine::RenderObject\l::setLocalTransform">
<polygon fill="white" stroke="black" points="534,-191.5 534,-221.5 671,-221.5 671,-191.5 534,-191.5"/>
<text text-anchor="start" x="542" y="-209.5" font-family="Helvetica,sans-Serif" font-size="10.00">Ra::Engine::RenderObject</text>
<text text-anchor="middle" x="602.5" y="-198.5" font-family="Helvetica,sans-Serif" font-size="10.00">::setLocalTransform</text>
</a>
</g>
</g>
<!-- Node4&#45;&gt;Node6 -->
<g id="edge5" class="edge"><title>Node4&#45;&gt;Node6</title>
<path fill="none" stroke="midnightblue" d="M484.395,-203.096C496.93,-203.46 510.484,-203.854 523.772,-204.24"/>
<polygon fill="midnightblue" stroke="midnightblue" points="523.763,-207.742 533.86,-204.534 523.966,-200.745 523.763,-207.742"/>
</g>
<!-- Node9 -->
<g id="node9" class="node"><title>Node9</title>
<g id="a_node9"><a xlink:href="classRa_1_1Core_1_1Utils_1_1ColorBase.html#a467dad42627c64495356c4fd21b3ac81" target="_top" xlink:title="Ra::Core::Utils::ColorBase\l\&lt; Scalar \&gt;::White">
<polygon fill="white" stroke="black" points="359,-49.5 359,-79.5 498,-79.5 498,-49.5 359,-49.5"/>
<text text-anchor="start" x="367" y="-67.5" font-family="Helvetica,sans-Serif" font-size="10.00">Ra::Core::Utils::ColorBase</text>
<text text-anchor="middle" x="428.5" y="-56.5" font-family="Helvetica,sans-Serif" font-size="10.00">&lt; Scalar &gt;::White</text>
</a>
</g>
</g>
<!-- Node8&#45;&gt;Node9 -->
<g id="edge9" class="edge"><title>Node8&#45;&gt;Node9</title>
<path fill="none" stroke="midnightblue" d="M318.809,-64.5C328.362,-64.5 338.568,-64.5 348.757,-64.5"/>
<polygon fill="midnightblue" stroke="midnightblue" points="348.916,-68.0001 358.916,-64.5 348.916,-61.0001 348.916,-68.0001"/>
</g>
</g>
</svg>
