<?xml version="1.0" encoding="UTF-8" standalone="no"?>
<!DOCTYPE svg PUBLIC "-//W3C//DTD SVG 1.1//EN"
 "http://www.w3.org/Graphics/SVG/1.1/DTD/svg11.dtd">
<!-- Generated by graphviz version 2.38.0 (20140413.2041)
 -->
<!-- Title: Ra::Gui::RotateGizmo Pages: 1 -->
<svg width="126pt" height="380pt"
 viewBox="0.00 0.00 126.00 380.00" xmlns="http://www.w3.org/2000/svg" xmlns:xlink="http://www.w3.org/1999/xlink">
<g id="graph0" class="graph" transform="scale(1 1) rotate(0) translate(4 376)">
<title>Ra::Gui::RotateGizmo</title>
<polygon fill="white" stroke="none" points="-4,4 -4,-376 122,-376 122,4 -4,4"/>
<!-- Node1 -->
<g id="node1" class="node"><title>Node1</title>
<polygon fill="#bfbfbf" stroke="black" points="0,-0.5 0,-112.5 118,-112.5 118,-0.5 0,-0.5"/>
<text text-anchor="middle" x="59" y="-100.5" font-family="Helvetica,sans-Serif" font-size="10.00">Ra::Gui::RotateGizmo</text>
<polyline fill="none" stroke="black" points="0,-93.5 118,-93.5 "/>
<text text-anchor="middle" x="59" y="-81.5" font-family="Helvetica,sans-Serif" font-size="10.00"> </text>
<polyline fill="none" stroke="black" points="0,-74.5 118,-74.5 "/>
<text text-anchor="start" x="8" y="-62.5" font-family="Helvetica,sans-Serif" font-size="10.00">+ RotateGizmo()</text>
<text text-anchor="start" x="8" y="-51.5" font-family="Helvetica,sans-Serif" font-size="10.00">+ updateTransform()</text>
<text text-anchor="start" x="8" y="-40.5" font-family="Helvetica,sans-Serif" font-size="10.00">+ selectConstraint()</text>
<text text-anchor="start" x="8" y="-29.5" font-family="Helvetica,sans-Serif" font-size="10.00">+ isSelected()</text>
<text text-anchor="start" x="8" y="-18.5" font-family="Helvetica,sans-Serif" font-size="10.00">+ setInitialState()</text>
<text text-anchor="start" x="8" y="-7.5" font-family="Helvetica,sans-Serif" font-size="10.00">+ mouseMove()</text>
</g>
<!-- Node2 -->
<g id="node2" class="node"><title>Node2</title>
<g id="a_node2"><a xlink:href="classRa_1_1Gui_1_1Gizmo.html" target="_top" xlink:title="Base class for gizmos, i.e. ">
<polygon fill="white" stroke="black" points="0.5,-149.5 0.5,-371.5 117.5,-371.5 117.5,-149.5 0.5,-149.5"/>
<text text-anchor="middle" x="59" y="-359.5" font-family="Helvetica,sans-Serif" font-size="10.00">Ra::Gui::Gizmo</text>
<polyline fill="none" stroke="black" points="0.5,-352.5 117.5,-352.5 "/>
<text text-anchor="start" x="8.5" y="-340.5" font-family="Helvetica,sans-Serif" font-size="10.00"># m_worldTo</text>
<text text-anchor="start" x="8.5" y="-329.5" font-family="Helvetica,sans-Serif" font-size="10.00"># m_transform</text>
<text text-anchor="start" x="8.5" y="-318.5" font-family="Helvetica,sans-Serif" font-size="10.00"># m_comp</text>
<text text-anchor="start" x="8.5" y="-307.5" font-family="Helvetica,sans-Serif" font-size="10.00"># m_mode</text>
<polyline fill="none" stroke="black" points="0.5,-300.5 117.5,-300.5 "/>
<text text-anchor="start" x="8.5" y="-288.5" font-family="Helvetica,sans-Serif" font-size="10.00">+ Gizmo()</text>
<text text-anchor="start" x="8.5" y="-277.5" font-family="Helvetica,sans-Serif" font-size="10.00">+ ~Gizmo()</text>
<text text-anchor="start" x="8.5" y="-266.5" font-family="Helvetica,sans-Serif" font-size="10.00">+ show()</text>
<text text-anchor="start" x="8.5" y="-255.5" font-family="Helvetica,sans-Serif" font-size="10.00">+ updateTransform()</text>
<text text-anchor="start" x="8.5" y="-244.5" font-family="Helvetica,sans-Serif" font-size="10.00">+ selectConstraint()</text>
<text text-anchor="start" x="8.5" y="-233.5" font-family="Helvetica,sans-Serif" font-size="10.00">+ isSelected()</text>
<text text-anchor="start" x="8.5" y="-222.5" font-family="Helvetica,sans-Serif" font-size="10.00">+ setInitialState()</text>
<text text-anchor="start" x="8.5" y="-211.5" font-family="Helvetica,sans-Serif" font-size="10.00">+ mouseMove()</text>
<text text-anchor="start" x="8.5" y="-200.5" font-family="Helvetica,sans-Serif" font-size="10.00"># roIds()</text>
<text text-anchor="start" x="8.5" y="-189.5" font-family="Helvetica,sans-Serif" font-size="10.00"># roMeshes()</text>
<text text-anchor="start" x="8.5" y="-178.5" font-family="Helvetica,sans-Serif" font-size="10.00"># addRenderObject()</text>
<text text-anchor="start" x="8.5" y="-167.5" font-family="Helvetica,sans-Serif" font-size="10.00"># findPointOnAxis()</text>
<text text-anchor="start" x="8.5" y="-156.5" font-family="Helvetica,sans-Serif" font-size="10.00"># findPointOnPlane()</text>
</a>
</g>
</g>
<!-- Node2&#45;&gt;Node1 -->
<g id="edge1" class="edge"><title>Node2&#45;&gt;Node1</title>
<path fill="none" stroke="midnightblue" d="M59,-139.243C59,-130.006 59,-120.992 59,-112.525"/>
<polygon fill="none" stroke="midnightblue" points="55.5001,-139.338 59,-149.338 62.5001,-139.338 55.5001,-139.338"/>
</g>
</g>
</svg>
