<?xml version="1.0" encoding="UTF-8" standalone="no"?>
<!DOCTYPE svg PUBLIC "-//W3C//DTD SVG 1.1//EN"
 "http://www.w3.org/Graphics/SVG/1.1/DTD/svg11.dtd">
<!-- Generated by graphviz version 2.38.0 (20140413.2041)
 -->
<!-- Title: SkinningPlugin::SkinningDisplayComponent::display Pages: 1 -->
<svg width="573pt" height="519pt"
 viewBox="0.00 0.00 573.00 519.00" xmlns="http://www.w3.org/2000/svg" xmlns:xlink="http://www.w3.org/1999/xlink">
<g id="graph0" class="graph" transform="scale(1 1) rotate(0) translate(4 515)">
<title>SkinningPlugin::SkinningDisplayComponent::display</title>
<polygon fill="white" stroke="none" points="-4,4 -4,-515 569,-515 569,4 -4,4"/>
<!-- Node1 -->
<g id="node1" class="node"><title>Node1</title>
<polygon fill="#bfbfbf" stroke="black" points="0,-235.5 0,-265.5 146,-265.5 146,-235.5 0,-235.5"/>
<text text-anchor="start" x="8" y="-253.5" font-family="Helvetica,sans-Serif" font-size="10.00">SkinningPlugin::Skinning</text>
<text text-anchor="middle" x="73" y="-242.5" font-family="Helvetica,sans-Serif" font-size="10.00">DisplayComponent::display</text>
</g>
<!-- Node2 -->
<g id="node2" class="node"><title>Node2</title>
<g id="a_node2"><a xlink:href="classRa_1_1Core_1_1Geometry_1_1TriangleMesh.html#a6ef9dbd18c0501f2ffd1316be6be56ce" target="_top" xlink:title="Access the vertices positions. ">
<polygon fill="white" stroke="black" points="206,-480.5 206,-510.5 334,-510.5 334,-480.5 206,-480.5"/>
<text text-anchor="start" x="214" y="-498.5" font-family="Helvetica,sans-Serif" font-size="10.00">Ra::Core::Geometry</text>
<text text-anchor="middle" x="270" y="-487.5" font-family="Helvetica,sans-Serif" font-size="10.00">::TriangleMesh::vertices</text>
</a>
</g>
</g>
<!-- Node1&#45;&gt;Node2 -->
<g id="edge1" class="edge"><title>Node1&#45;&gt;Node2</title>
<path fill="none" stroke="midnightblue" d="M76.9407,-265.776C85.485,-305.923 114.14,-415.184 182,-471.5 186.371,-475.127 191.248,-478.208 196.401,-480.826"/>
<polygon fill="midnightblue" stroke="midnightblue" points="195.364,-484.194 205.924,-485.053 198.204,-477.796 195.364,-484.194"/>
</g>
<!-- Node3 -->
<g id="node3" class="node"><title>Node3</title>
<g id="a_node3"><a xlink:href="classRa_1_1Core_1_1Utils_1_1ColorBase.html#ac863a693d5be518521734c6228e09e00" target="_top" xlink:title="Ra::Core::Utils::ColorBase\l\&lt; Scalar \&gt;::fromHSV">
<polygon fill="white" stroke="black" points="200.5,-431.5 200.5,-461.5 339.5,-461.5 339.5,-431.5 200.5,-431.5"/>
<text text-anchor="start" x="208.5" y="-449.5" font-family="Helvetica,sans-Serif" font-size="10.00">Ra::Core::Utils::ColorBase</text>
<text text-anchor="middle" x="270" y="-438.5" font-family="Helvetica,sans-Serif" font-size="10.00">&lt; Scalar &gt;::fromHSV</text>
</a>
</g>
</g>
<!-- Node1&#45;&gt;Node3 -->
<g id="edge2" class="edge"><title>Node1&#45;&gt;Node3</title>
<path fill="none" stroke="midnightblue" d="M79.1208,-265.548C91.3289,-299.104 125.421,-380.407 182,-422.5 184.852,-424.622 187.882,-426.556 191.036,-428.319"/>
<polygon fill="midnightblue" stroke="midnightblue" points="189.691,-431.559 200.206,-432.85 192.791,-425.283 189.691,-431.559"/>
</g>
<!-- Node4 -->
<g id="node4" class="node"><title>Node4</title>
<g id="a_node4"><a xlink:href="namespaceRa_1_1Core_1_1Geometry.html#af8455d2759023a6255c65ef19fccc059" target="_top" xlink:title="GLOBAL MATRIX ///. ">
<polygon fill="white" stroke="black" points="214.5,-382.5 214.5,-412.5 325.5,-412.5 325.5,-382.5 214.5,-382.5"/>
<text text-anchor="start" x="222.5" y="-400.5" font-family="Helvetica,sans-Serif" font-size="10.00">Ra::Core::Geometry</text>
<text text-anchor="middle" x="270" y="-389.5" font-family="Helvetica,sans-Serif" font-size="10.00">::uniformAdjacency</text>
</a>
</g>
</g>
<!-- Node1&#45;&gt;Node4 -->
<g id="edge3" class="edge"><title>Node1&#45;&gt;Node4</title>
<path fill="none" stroke="midnightblue" d="M82.9681,-265.505C99.3099,-291.531 136.486,-344.984 182,-373.5 188.891,-377.817 196.563,-381.371 204.417,-384.292"/>
<polygon fill="midnightblue" stroke="midnightblue" points="203.453,-387.661 214.047,-387.551 205.697,-381.03 203.453,-387.661"/>
</g>
<!-- Node6 -->
<g id="node6" class="node"><title>Node6</title>
<g id="a_node6"><a xlink:href="classRa_1_1Core_1_1Utils_1_1ColorBase.html#aaf67b196b10805750f12f3638ae81516" target="_top" xlink:title="Ra::Core::Utils::ColorBase\l\&lt; Scalar \&gt;::Black">
<polygon fill="white" stroke="black" points="200.5,-333.5 200.5,-363.5 339.5,-363.5 339.5,-333.5 200.5,-333.5"/>
<text text-anchor="start" x="208.5" y="-351.5" font-family="Helvetica,sans-Serif" font-size="10.00">Ra::Core::Utils::ColorBase</text>
<text text-anchor="middle" x="270" y="-340.5" font-family="Helvetica,sans-Serif" font-size="10.00">&lt; Scalar &gt;::Black</text>
</a>
</g>
</g>
<!-- Node1&#45;&gt;Node6 -->
<g id="edge5" class="edge"><title>Node1&#45;&gt;Node6</title>
<path fill="none" stroke="midnightblue" d="M91.9721,-265.613C112.53,-282.207 147.783,-308.602 182,-324.5 186.303,-326.499 190.805,-328.361 195.399,-330.091"/>
<polygon fill="midnightblue" stroke="midnightblue" points="194.329,-333.424 204.924,-333.455 196.661,-326.824 194.329,-333.424"/>
</g>
<!-- Node7 -->
<g id="node7" class="node"><title>Node7</title>
<g id="a_node7"><a xlink:href="namespaceRa_1_1Engine_1_1ShaderConfigurationFactory.html#a0bc60f21dbabd745961037f3d2f019c8" target="_top" xlink:title="Get a configuration from the factory. ">
<polygon fill="white" stroke="black" points="184.5,-284.5 184.5,-314.5 355.5,-314.5 355.5,-284.5 184.5,-284.5"/>
<text text-anchor="start" x="192.5" y="-302.5" font-family="Helvetica,sans-Serif" font-size="10.00">Ra::Engine::ShaderConfiguration</text>
<text text-anchor="middle" x="270" y="-291.5" font-family="Helvetica,sans-Serif" font-size="10.00">Factory::getConfiguration</text>
</a>
</g>
</g>
<!-- Node1&#45;&gt;Node7 -->
<g id="edge6" class="edge"><title>Node1&#45;&gt;Node7</title>
<path fill="none" stroke="midnightblue" d="M133.832,-265.535C154.608,-270.755 178.081,-276.654 199.567,-282.053"/>
<polygon fill="midnightblue" stroke="midnightblue" points="198.73,-285.451 209.282,-284.494 200.436,-278.662 198.73,-285.451"/>
</g>
<!-- Node9 -->
<g id="node9" class="node"><title>Node9</title>
<g id="a_node9"><a xlink:href="classRa_1_1Engine_1_1RenderObject.html#a62e0eb3a7de5a7d352b565a28260cc06" target="_top" xlink:title="Ra::Engine::RenderObject\l::setVisible">
<polygon fill="white" stroke="black" points="201.5,-235.5 201.5,-265.5 338.5,-265.5 338.5,-235.5 201.5,-235.5"/>
<text text-anchor="start" x="209.5" y="-253.5" font-family="Helvetica,sans-Serif" font-size="10.00">Ra::Engine::RenderObject</text>
<text text-anchor="middle" x="270" y="-242.5" font-family="Helvetica,sans-Serif" font-size="10.00">::setVisible</text>
</a>
</g>
</g>
<!-- Node1&#45;&gt;Node9 -->
<g id="edge8" class="edge"><title>Node1&#45;&gt;Node9</title>
<path fill="none" stroke="midnightblue" d="M146.057,-250.5C160.778,-250.5 176.331,-250.5 191.241,-250.5"/>
<polygon fill="midnightblue" stroke="midnightblue" points="191.443,-254 201.443,-250.5 191.443,-247 191.443,-254"/>
</g>
<!-- Node10 -->
<g id="node10" class="node"><title>Node10</title>
<g id="a_node10"><a xlink:href="classRa_1_1Engine_1_1RenderObject.html#ae1ea453e2b698cda9956586d11b9cfbd" target="_top" xlink:title="Ra::Engine::RenderObject\l::setRenderTechnique">
<polygon fill="white" stroke="black" points="201.5,-186.5 201.5,-216.5 338.5,-216.5 338.5,-186.5 201.5,-186.5"/>
<text text-anchor="start" x="209.5" y="-204.5" font-family="Helvetica,sans-Serif" font-size="10.00">Ra::Engine::RenderObject</text>
<text text-anchor="middle" x="270" y="-193.5" font-family="Helvetica,sans-Serif" font-size="10.00">::setRenderTechnique</text>
</a>
</g>
</g>
<!-- Node1&#45;&gt;Node10 -->
<g id="edge9" class="edge"><title>Node1&#45;&gt;Node10</title>
<path fill="none" stroke="midnightblue" d="M133.832,-235.465C154.608,-230.245 178.081,-224.346 199.567,-218.947"/>
<polygon fill="midnightblue" stroke="midnightblue" points="200.436,-222.338 209.282,-216.506 198.73,-215.549 200.436,-222.338"/>
</g>
<!-- Node11 -->
<g id="node11" class="node"><title>Node11</title>
<g id="a_node11"><a xlink:href="classRa_1_1Core_1_1Geometry_1_1TriangleMesh.html#a80e6c7e3b1dc8f1a6bd1913c5f7d1a05" target="_top" xlink:title="Add attribute with the given name. ">
<polygon fill="white" stroke="black" points="203,-137.5 203,-167.5 337,-167.5 337,-137.5 203,-137.5"/>
<text text-anchor="start" x="211" y="-155.5" font-family="Helvetica,sans-Serif" font-size="10.00">Ra::Core::Geometry</text>
<text text-anchor="middle" x="270" y="-144.5" font-family="Helvetica,sans-Serif" font-size="10.00">::TriangleMesh::addAttrib</text>
</a>
</g>
</g>
<!-- Node1&#45;&gt;Node11 -->
<g id="edge10" class="edge"><title>Node1&#45;&gt;Node11</title>
<path fill="none" stroke="midnightblue" d="M92.4136,-235.378C113.083,-219.064 148.169,-193.307 182,-177.5 186.983,-175.172 192.23,-173.013 197.575,-171.02"/>
<polygon fill="midnightblue" stroke="midnightblue" points="198.994,-174.231 207.267,-167.613 196.672,-167.628 198.994,-174.231"/>
</g>
<!-- Node12 -->
<g id="node12" class="node"><title>Node12</title>
<g id="a_node12"><a xlink:href="classRa_1_1Engine_1_1Mesh.html#ac6b2c0b356fedc903a39fc7b3393f7e4" target="_top" xlink:title="Get the name expected for a given attrib. ">
<polygon fill="white" stroke="black" points="182,-99 182,-118 358,-118 358,-99 182,-99"/>
<text text-anchor="middle" x="270" y="-106" font-family="Helvetica,sans-Serif" font-size="10.00">Ra::Engine::Mesh::getAttribName</text>
</a>
</g>
</g>
<!-- Node1&#45;&gt;Node12 -->
<g id="edge11" class="edge"><title>Node1&#45;&gt;Node12</title>
<path fill="none" stroke="midnightblue" d="M82.8757,-235.416C99.0746,-209.291 136.037,-155.807 182,-128.5 186.466,-125.847 191.253,-123.546 196.202,-121.55"/>
<polygon fill="midnightblue" stroke="midnightblue" points="197.647,-124.75 205.875,-118.075 195.28,-118.162 197.647,-124.75"/>
</g>
<!-- Node13 -->
<g id="node13" class="node"><title>Node13</title>
<g id="a_node13"><a xlink:href="classRa_1_1Core_1_1Geometry_1_1TriangleMesh.html#a209037ce5a11ec8539a9ada7ba763e8c" target="_top" xlink:title="Get attribute by handle. ">
<polygon fill="white" stroke="black" points="204,-49.5 204,-79.5 336,-79.5 336,-49.5 204,-49.5"/>
<text text-anchor="start" x="212" y="-67.5" font-family="Helvetica,sans-Serif" font-size="10.00">Ra::Core::Geometry</text>
<text text-anchor="middle" x="270" y="-56.5" font-family="Helvetica,sans-Serif" font-size="10.00">::TriangleMesh::getAttrib</text>
</a>
</g>
</g>
<!-- Node1&#45;&gt;Node13 -->
<g id="edge12" class="edge"><title>Node1&#45;&gt;Node13</title>
<path fill="none" stroke="midnightblue" d="M79.8261,-235.497C92.9913,-203.599 128.146,-128.755 182,-89.5 185.921,-86.6419 190.162,-84.1095 194.588,-81.8659"/>
<polygon fill="midnightblue" stroke="midnightblue" points="196.224,-84.9671 203.891,-77.6544 193.338,-78.5901 196.224,-84.9671"/>
</g>
<!-- Node14 -->
<g id="node14" class="node"><title>Node14</title>
<g id="a_node14"><a xlink:href="classRa_1_1Engine_1_1RenderObject.html#a509302aefbb1081540efecdfb1fbc9ea" target="_top" xlink:title="Ra::Engine::RenderObject\l::setMesh">
<polygon fill="white" stroke="black" points="201.5,-0.5 201.5,-30.5 338.5,-30.5 338.5,-0.5 201.5,-0.5"/>
<text text-anchor="start" x="209.5" y="-18.5" font-family="Helvetica,sans-Serif" font-size="10.00">Ra::Engine::RenderObject</text>
<text text-anchor="middle" x="270" y="-7.5" font-family="Helvetica,sans-Serif" font-size="10.00">::setMesh</text>
</a>
</g>
</g>
<!-- Node1&#45;&gt;Node14 -->
<g id="edge13" class="edge"><title>Node1&#45;&gt;Node14</title>
<path fill="none" stroke="midnightblue" d="M77.3507,-235.452C86.7248,-196.922 116.905,-93.9848 182,-40.5 185.121,-37.9357 188.492,-35.6342 192.032,-33.5688"/>
<polygon fill="midnightblue" stroke="midnightblue" points="193.829,-36.5809 201.132,-28.9053 190.636,-30.3513 193.829,-36.5809"/>
</g>
<!-- Node5 -->
<g id="node5" class="node"><title>Node5</title>
<g id="a_node5"><a xlink:href="namespaceRa_1_1Core_1_1Geometry.html#aa04e6052d8911b1df1bd881474debb45" target="_top" xlink:title="Ra::Core::Geometry::t">
<polygon fill="white" stroke="black" points="419.5,-388 419.5,-407 539.5,-407 539.5,-388 419.5,-388"/>
<text text-anchor="middle" x="479.5" y="-395" font-family="Helvetica,sans-Serif" font-size="10.00">Ra::Core::Geometry::t</text>
</a>
</g>
</g>
<!-- Node4&#45;&gt;Node5 -->
<g id="edge4" class="edge"><title>Node4&#45;&gt;Node5</title>
<path fill="none" stroke="midnightblue" d="M325.518,-397.5C351.072,-397.5 381.812,-397.5 409.014,-397.5"/>
<polygon fill="midnightblue" stroke="midnightblue" points="409.247,-401 419.247,-397.5 409.247,-394 409.247,-401"/>
</g>
<!-- Node8 -->
<g id="node8" class="node"><title>Node8</title>
<g id="a_node8"><a xlink:href="classRa_1_1Engine_1_1ShaderConfiguration.html#a7e20a600c78e8627f0238b342f4b42f2" target="_top" xlink:title="Ra::Engine::ShaderConfiguration\l::getDefaultShaderConfig">
<polygon fill="white" stroke="black" points="394,-284.5 394,-314.5 565,-314.5 565,-284.5 394,-284.5"/>
<text text-anchor="start" x="402" y="-302.5" font-family="Helvetica,sans-Serif" font-size="10.00">Ra::Engine::ShaderConfiguration</text>
<text text-anchor="middle" x="479.5" y="-291.5" font-family="Helvetica,sans-Serif" font-size="10.00">::getDefaultShaderConfig</text>
</a>
</g>
</g>
<!-- Node7&#45;&gt;Node8 -->
<g id="edge7" class="edge"><title>Node7&#45;&gt;Node8</title>
<path fill="none" stroke="midnightblue" d="M355.697,-299.5C364.915,-299.5 374.34,-299.5 383.668,-299.5"/>
<polygon fill="midnightblue" stroke="midnightblue" points="383.737,-303 393.737,-299.5 383.737,-296 383.737,-303"/>
</g>
</g>
</svg>
