<?xml version="1.0" encoding="UTF-8" standalone="no"?>
<!DOCTYPE svg PUBLIC "-//W3C//DTD SVG 1.1//EN"
 "http://www.w3.org/Graphics/SVG/1.1/DTD/svg11.dtd">
<!-- Generated by graphviz version 2.38.0 (20140413.2041)
 -->
<!-- Title: Ra::Gui::Viewer::update Pages: 1 -->
<svg width="1372pt" height="498pt"
 viewBox="0.00 0.00 1372.00 498.00" xmlns="http://www.w3.org/2000/svg" xmlns:xlink="http://www.w3.org/1999/xlink">
<g id="graph0" class="graph" transform="scale(1 1) rotate(0) translate(4 494)">
<title>Ra::Gui::Viewer::update</title>
<polygon fill="white" stroke="none" points="-4,4 -4,-494 1368,-494 1368,4 -4,4"/>
<!-- Node1 -->
<g id="node1" class="node"><title>Node1</title>
<polygon fill="#bfbfbf" stroke="black" points="0,-147 0,-166 128,-166 128,-147 0,-147"/>
<text text-anchor="middle" x="64" y="-154" font-family="Helvetica,sans-Serif" font-size="10.00">Ra::Gui::Viewer::update</text>
</g>
<!-- Node2 -->
<g id="node2" class="node"><title>Node2</title>
<g id="a_node2"><a xlink:href="classRa_1_1Gui_1_1GizmoManager.html#a2733d1f2a992c50e41b93790b5323fe1" target="_top" xlink:title="Retrieve the transform from the editable and update the gizmos. ">
<polygon fill="white" stroke="black" points="164,-141.5 164,-171.5 293,-171.5 293,-141.5 164,-141.5"/>
<text text-anchor="start" x="172" y="-159.5" font-family="Helvetica,sans-Serif" font-size="10.00">Ra::Gui::GizmoManager</text>
<text text-anchor="middle" x="228.5" y="-148.5" font-family="Helvetica,sans-Serif" font-size="10.00">::updateValues</text>
</a>
</g>
</g>
<!-- Node1&#45;&gt;Node2 -->
<g id="edge1" class="edge"><title>Node1&#45;&gt;Node2</title>
<path fill="none" stroke="midnightblue" d="M128.292,-156.5C136.592,-156.5 145.154,-156.5 153.61,-156.5"/>
<polygon fill="midnightblue" stroke="midnightblue" points="153.846,-160 163.846,-156.5 153.846,-153 153.846,-160"/>
</g>
<!-- Node3 -->
<g id="node3" class="node"><title>Node3</title>
<g id="a_node3"><a xlink:href="classRa_1_1GuiBase_1_1TransformEditor.html#ad21b8c46ad2d5c62e309eb16b104ee2f" target="_top" xlink:title="Ra::GuiBase::TransformEditor\l::canEdit">
<polygon fill="white" stroke="black" points="539,-312.5 539,-342.5 694,-342.5 694,-312.5 539,-312.5"/>
<text text-anchor="start" x="547" y="-330.5" font-family="Helvetica,sans-Serif" font-size="10.00">Ra::GuiBase::TransformEditor</text>
<text text-anchor="middle" x="616.5" y="-319.5" font-family="Helvetica,sans-Serif" font-size="10.00">::canEdit</text>
</a>
</g>
</g>
<!-- Node2&#45;&gt;Node3 -->
<g id="edge2" class="edge"><title>Node2&#45;&gt;Node3</title>
<path fill="none" stroke="midnightblue" d="M253.071,-171.607C272.891,-183.973 302.201,-201.486 329,-214.5 419.277,-258.34 445.618,-260.736 539,-297.5 548.259,-301.145 558.151,-305.031 567.645,-308.756"/>
<polygon fill="midnightblue" stroke="midnightblue" points="566.379,-312.019 576.967,-312.412 568.935,-305.502 566.379,-312.019"/>
</g>
<!-- Node19 -->
<g id="node19" class="node"><title>Node19</title>
<g id="a_node19"><a xlink:href="classRa_1_1GuiBase_1_1TransformEditor.html#aecdcc853ebf6b4ae1dab2c9ee56c96ef" target="_top" xlink:title="Ra::GuiBase::TransformEditor\l::getTransform">
<polygon fill="white" stroke="black" points="338.5,-175.5 338.5,-205.5 493.5,-205.5 493.5,-175.5 338.5,-175.5"/>
<text text-anchor="start" x="346.5" y="-193.5" font-family="Helvetica,sans-Serif" font-size="10.00">Ra::GuiBase::TransformEditor</text>
<text text-anchor="middle" x="416" y="-182.5" font-family="Helvetica,sans-Serif" font-size="10.00">::getTransform</text>
</a>
</g>
</g>
<!-- Node2&#45;&gt;Node19 -->
<g id="edge24" class="edge"><title>Node2&#45;&gt;Node19</title>
<path fill="none" stroke="midnightblue" d="M293.079,-168.153C304.468,-170.241 316.511,-172.448 328.418,-174.63"/>
<polygon fill="midnightblue" stroke="midnightblue" points="327.902,-178.094 338.37,-176.455 329.165,-171.209 327.902,-178.094"/>
</g>
<!-- Node23 -->
<g id="node23" class="node"><title>Node23</title>
<g id="a_node23"><a xlink:href="classRa_1_1Gui_1_1Gizmo.html#a2fc380738268508ca2d46ac856c2f98a" target="_top" xlink:title="Called every time the underlying transform may have changed. ">
<polygon fill="white" stroke="black" points="329,-69 329,-88 503,-88 503,-69 329,-69"/>
<text text-anchor="middle" x="416" y="-76" font-family="Helvetica,sans-Serif" font-size="10.00">Ra::Gui::Gizmo::updateTransform</text>
</a>
</g>
</g>
<!-- Node2&#45;&gt;Node23 -->
<g id="edge33" class="edge"><title>Node2&#45;&gt;Node23</title>
<path fill="none" stroke="midnightblue" d="M250.602,-141.278C270.072,-127.908 300.237,-108.866 329,-97.5 335.648,-94.8729 342.736,-92.5716 349.882,-90.5649"/>
<polygon fill="midnightblue" stroke="midnightblue" points="350.841,-93.9317 359.625,-88.008 349.064,-87.1609 350.841,-93.9317"/>
</g>
<!-- Node24 -->
<g id="node24" class="node"><title>Node24</title>
<g id="a_node24"><a xlink:href="classRa_1_1GuiBase_1_1TransformEditor.html#a6c8c6e18c8b92a92a53f6c035aa6c241" target="_top" xlink:title="Ra::GuiBase::TransformEditor\l::getWorldTransform">
<polygon fill="white" stroke="black" points="338.5,-107.5 338.5,-137.5 493.5,-137.5 493.5,-107.5 338.5,-107.5"/>
<text text-anchor="start" x="346.5" y="-125.5" font-family="Helvetica,sans-Serif" font-size="10.00">Ra::GuiBase::TransformEditor</text>
<text text-anchor="middle" x="416" y="-114.5" font-family="Helvetica,sans-Serif" font-size="10.00">::getWorldTransform</text>
</a>
</g>
</g>
<!-- Node2&#45;&gt;Node24 -->
<g id="edge34" class="edge"><title>Node2&#45;&gt;Node24</title>
<path fill="none" stroke="midnightblue" d="M293.079,-144.847C304.468,-142.759 316.511,-140.552 328.418,-138.37"/>
<polygon fill="midnightblue" stroke="midnightblue" points="329.165,-141.791 338.37,-136.545 327.902,-134.906 329.165,-141.791"/>
</g>
<!-- Node4 -->
<g id="node4" class="node"><title>Node4</title>
<g id="a_node4"><a xlink:href="structRa_1_1Engine_1_1ItemEntry.html#aceafc81a73631955b64999dd39a639da" target="_top" xlink:title="Returns true if the item represents any valid object. ">
<polygon fill="white" stroke="black" points="735,-224.5 735,-254.5 854,-254.5 854,-224.5 735,-224.5"/>
<text text-anchor="start" x="743" y="-242.5" font-family="Helvetica,sans-Serif" font-size="10.00">Ra::Engine::ItemEntry</text>
<text text-anchor="middle" x="794.5" y="-231.5" font-family="Helvetica,sans-Serif" font-size="10.00">::isValid</text>
</a>
</g>
</g>
<!-- Node3&#45;&gt;Node4 -->
<g id="edge3" class="edge"><title>Node3&#45;&gt;Node4</title>
<path fill="none" stroke="midnightblue" d="M647.755,-312.372C677.186,-297.657 722.043,-275.229 754.216,-259.142"/>
<polygon fill="midnightblue" stroke="midnightblue" points="755.966,-262.18 763.345,-254.577 752.836,-255.919 755.966,-262.18"/>
</g>
<!-- Node14 -->
<g id="node14" class="node"><title>Node14</title>
<g id="a_node14"><a xlink:href="structRa_1_1Engine_1_1ItemEntry.html#a09e294208d0896596a42a7a6c7e78f75" target="_top" xlink:title="Returns true if the item can be selected. ">
<polygon fill="white" stroke="black" points="735,-361.5 735,-391.5 854,-391.5 854,-361.5 735,-361.5"/>
<text text-anchor="start" x="743" y="-379.5" font-family="Helvetica,sans-Serif" font-size="10.00">Ra::Engine::ItemEntry</text>
<text text-anchor="middle" x="794.5" y="-368.5" font-family="Helvetica,sans-Serif" font-size="10.00">::isSelectable</text>
</a>
</g>
</g>
<!-- Node3&#45;&gt;Node14 -->
<g id="edge15" class="edge"><title>Node3&#45;&gt;Node14</title>
<path fill="none" stroke="midnightblue" d="M671.742,-342.601C690.062,-347.702 710.683,-353.443 729.675,-358.73"/>
<polygon fill="midnightblue" stroke="midnightblue" points="728.865,-362.138 739.437,-361.448 730.742,-355.395 728.865,-362.138"/>
</g>
<!-- Node17 -->
<g id="node17" class="node"><title>Node17</title>
<g id="a_node17"><a xlink:href="structRa_1_1Engine_1_1ItemEntry.html#a4823dfa3c113db71733979f1719f3b28" target="_top" xlink:title="Returns true if the item represents an entity. ">
<polygon fill="white" stroke="black" points="735,-175.5 735,-205.5 854,-205.5 854,-175.5 735,-175.5"/>
<text text-anchor="start" x="743" y="-193.5" font-family="Helvetica,sans-Serif" font-size="10.00">Ra::Engine::ItemEntry</text>
<text text-anchor="middle" x="794.5" y="-182.5" font-family="Helvetica,sans-Serif" font-size="10.00">::isEntityNode</text>
</a>
</g>
</g>
<!-- Node3&#45;&gt;Node17 -->
<g id="edge21" class="edge"><title>Node3&#45;&gt;Node17</title>
<path fill="none" stroke="midnightblue" d="M632.204,-312.395C661.386,-282.466 724.306,-218.186 730,-214.5 732.412,-212.939 734.94,-211.458 737.54,-210.055"/>
<polygon fill="midnightblue" stroke="midnightblue" points="739.177,-213.15 746.596,-205.587 736.08,-206.873 739.177,-213.15"/>
</g>
<!-- Node18 -->
<g id="node18" class="node"><title>Node18</title>
<g id="a_node18"><a xlink:href="classRa_1_1Engine_1_1Component.html#a2c33ddf042a2c56f81f39477d9b616d0" target="_top" xlink:title="Returns true if a transform can be edited with the render object index given as a key...">
<polygon fill="white" stroke="black" points="730,-312.5 730,-342.5 859,-342.5 859,-312.5 730,-312.5"/>
<text text-anchor="start" x="738" y="-330.5" font-family="Helvetica,sans-Serif" font-size="10.00">Ra::Engine::Component</text>
<text text-anchor="middle" x="794.5" y="-319.5" font-family="Helvetica,sans-Serif" font-size="10.00">::canEdit</text>
</a>
</g>
</g>
<!-- Node3&#45;&gt;Node18 -->
<g id="edge23" class="edge"><title>Node3&#45;&gt;Node18</title>
<path fill="none" stroke="midnightblue" d="M694.184,-327.5C702.68,-327.5 711.318,-327.5 719.776,-327.5"/>
<polygon fill="midnightblue" stroke="midnightblue" points="719.981,-331 729.981,-327.5 719.981,-324 719.981,-331"/>
</g>
<!-- Node5 -->
<g id="node5" class="node"><title>Node5</title>
<g id="a_node5"><a xlink:href="structRa_1_1Engine_1_1ItemEntry.html#a1fb9fdd74413a1fa5878f53c1cfcf8fd" target="_top" xlink:title="Debug checks. ">
<polygon fill="white" stroke="black" points="1084,-44.5 1084,-74.5 1203,-74.5 1203,-44.5 1084,-44.5"/>
<text text-anchor="start" x="1092" y="-62.5" font-family="Helvetica,sans-Serif" font-size="10.00">Ra::Engine::ItemEntry</text>
<text text-anchor="middle" x="1143.5" y="-51.5" font-family="Helvetica,sans-Serif" font-size="10.00">::checkConsistency</text>
</a>
</g>
</g>
<!-- Node4&#45;&gt;Node5 -->
<g id="edge4" class="edge"><title>Node4&#45;&gt;Node5</title>
<path fill="none" stroke="midnightblue" d="M846.209,-224.317C850.895,-221.558 855.274,-218.313 859,-214.5 891.431,-181.314 860.193,-147.185 895,-116.5 901.827,-110.481 1002.82,-88.5111 1073.66,-73.6722"/>
<polygon fill="midnightblue" stroke="midnightblue" points="1074.81,-77.0086 1083.88,-71.5374 1073.38,-70.1565 1074.81,-77.0086"/>
</g>
<!-- Node7 -->
<g id="node7" class="node"><title>Node7</title>
<g id="a_node7"><a xlink:href="classRa_1_1Engine_1_1RadiumEngine.html#a79f6626ce468268791bc5bdfe17b5586" target="_top" xlink:title="Get the entity manager attached to the engine. ">
<polygon fill="white" stroke="black" points="896.5,-175.5 896.5,-205.5 1037.5,-205.5 1037.5,-175.5 896.5,-175.5"/>
<text text-anchor="start" x="904.5" y="-193.5" font-family="Helvetica,sans-Serif" font-size="10.00">Ra::Engine::RadiumEngine</text>
<text text-anchor="middle" x="967" y="-182.5" font-family="Helvetica,sans-Serif" font-size="10.00">::getEntityManager</text>
</a>
</g>
</g>
<!-- Node4&#45;&gt;Node7 -->
<g id="edge6" class="edge"><title>Node4&#45;&gt;Node7</title>
<path fill="none" stroke="midnightblue" d="M848.047,-224.399C865.713,-219.321 885.587,-213.61 903.916,-208.342"/>
<polygon fill="midnightblue" stroke="midnightblue" points="904.982,-211.678 913.627,-205.552 903.049,-204.95 904.982,-211.678"/>
</g>
<!-- Node8 -->
<g id="node8" class="node"><title>Node8</title>
<g id="a_node8"><a xlink:href="classRa_1_1Engine_1_1EntityManager.html#a5115cccae6aaef614ad4bd08e64d8185" target="_top" xlink:title="Check wether an entity with a given name exists or not. ">
<polygon fill="white" stroke="black" points="896,-126.5 896,-156.5 1038,-156.5 1038,-126.5 896,-126.5"/>
<text text-anchor="start" x="904" y="-144.5" font-family="Helvetica,sans-Serif" font-size="10.00">Ra::Engine::EntityManager</text>
<text text-anchor="middle" x="967" y="-133.5" font-family="Helvetica,sans-Serif" font-size="10.00">::entityExists</text>
</a>
</g>
</g>
<!-- Node4&#45;&gt;Node8 -->
<g id="edge7" class="edge"><title>Node4&#45;&gt;Node8</title>
<path fill="none" stroke="midnightblue" d="M842.576,-224.497C848.387,-221.647 854.024,-218.331 859,-214.5 880.413,-198.015 873.189,-181.455 895,-165.5 896.877,-164.127 898.838,-162.828 900.863,-161.601"/>
<polygon fill="midnightblue" stroke="midnightblue" points="902.917,-164.471 910.078,-156.663 899.61,-158.301 902.917,-164.471"/>
</g>
<!-- Node9 -->
<g id="node9" class="node"><title>Node9</title>
<g id="a_node9"><a xlink:href="classRa_1_1Engine_1_1Entity.html#aaf256bea44bbc5bff6aa504aca05ca35" target="_top" xlink:title="Ra::Engine::Entity\l::getName">
<polygon fill="white" stroke="black" points="917,-224.5 917,-254.5 1017,-254.5 1017,-224.5 917,-224.5"/>
<text text-anchor="start" x="925" y="-242.5" font-family="Helvetica,sans-Serif" font-size="10.00">Ra::Engine::Entity</text>
<text text-anchor="middle" x="967" y="-231.5" font-family="Helvetica,sans-Serif" font-size="10.00">::getName</text>
</a>
</g>
</g>
<!-- Node4&#45;&gt;Node9 -->
<g id="edge8" class="edge"><title>Node4&#45;&gt;Node9</title>
<path fill="none" stroke="midnightblue" d="M854.176,-239.5C871.088,-239.5 889.55,-239.5 906.51,-239.5"/>
<polygon fill="midnightblue" stroke="midnightblue" points="906.849,-243 916.849,-239.5 906.849,-236 906.849,-243"/>
</g>
<!-- Node10 -->
<g id="node10" class="node"><title>Node10</title>
<g id="a_node10"><a xlink:href="structRa_1_1Engine_1_1ItemEntry.html#a898047549069e5b64d3a9a65c058af56" target="_top" xlink:title="Returns true if the item represents a render object. ">
<polygon fill="white" stroke="black" points="907.5,-273.5 907.5,-303.5 1026.5,-303.5 1026.5,-273.5 907.5,-273.5"/>
<text text-anchor="start" x="915.5" y="-291.5" font-family="Helvetica,sans-Serif" font-size="10.00">Ra::Engine::ItemEntry</text>
<text text-anchor="middle" x="967" y="-280.5" font-family="Helvetica,sans-Serif" font-size="10.00">::isRoNode</text>
</a>
</g>
</g>
<!-- Node4&#45;&gt;Node10 -->
<g id="edge9" class="edge"><title>Node4&#45;&gt;Node10</title>
<path fill="none" stroke="midnightblue" d="M848.047,-254.601C865.713,-259.679 885.587,-265.39 903.916,-270.658"/>
<polygon fill="midnightblue" stroke="midnightblue" points="903.049,-274.05 913.627,-273.448 904.982,-267.322 903.049,-274.05"/>
</g>
<!-- Node12 -->
<g id="node12" class="node"><title>Node12</title>
<g id="a_node12"><a xlink:href="classRa_1_1Engine_1_1RadiumEngine.html#a58b27bc600ea769f68b0e2938abc7862" target="_top" xlink:title="Manager getters. ">
<polygon fill="white" stroke="black" points="895,-361.5 895,-391.5 1039,-391.5 1039,-361.5 895,-361.5"/>
<text text-anchor="start" x="903" y="-379.5" font-family="Helvetica,sans-Serif" font-size="10.00">Ra::Engine::RadiumEngine</text>
<text text-anchor="middle" x="967" y="-368.5" font-family="Helvetica,sans-Serif" font-size="10.00">::getRenderObjectManager</text>
</a>
</g>
</g>
<!-- Node4&#45;&gt;Node12 -->
<g id="edge12" class="edge"><title>Node4&#45;&gt;Node12</title>
<path fill="none" stroke="midnightblue" d="M811.272,-254.663C824.354,-267.413 843.287,-286.266 859,-303.5 875.793,-321.919 874.96,-331.68 895,-346.5 900.349,-350.456 906.299,-354.007 912.414,-357.161"/>
<polygon fill="midnightblue" stroke="midnightblue" points="910.911,-360.322 921.44,-361.499 913.943,-354.013 910.911,-360.322"/>
</g>
<!-- Node13 -->
<g id="node13" class="node"><title>Node13</title>
<g id="a_node13"><a xlink:href="classRa_1_1Engine_1_1RenderObjectManager.html#a088feae4339349a81b7b6635b38aead1" target="_top" xlink:title="Returns true if the index points to a valid render object. ">
<polygon fill="white" stroke="black" points="1075,-317.5 1075,-347.5 1212,-347.5 1212,-317.5 1075,-317.5"/>
<text text-anchor="start" x="1083" y="-335.5" font-family="Helvetica,sans-Serif" font-size="10.00">Ra::Engine::RenderObject</text>
<text text-anchor="middle" x="1143.5" y="-324.5" font-family="Helvetica,sans-Serif" font-size="10.00">Manager::exists</text>
</a>
</g>
</g>
<!-- Node4&#45;&gt;Node13 -->
<g id="edge13" class="edge"><title>Node4&#45;&gt;Node13</title>
<path fill="none" stroke="midnightblue" d="M810.038,-254.6C828.093,-272.251 860.723,-300.675 895,-313.5 949.281,-333.81 1014.83,-338.025 1064.84,-337.45"/>
<polygon fill="midnightblue" stroke="midnightblue" points="1065.01,-340.947 1074.94,-337.266 1064.88,-333.948 1065.01,-340.947"/>
</g>
<!-- Node6 -->
<g id="node6" class="node"><title>Node6</title>
<g id="a_node6"><a xlink:href="classRa_1_1Core_1_1Utils_1_1Index.html#ac7d6c68387fe147f7a13668ac30a4533" target="_top" xlink:title="INVALID. ">
<polygon fill="white" stroke="black" points="1248,-22.5 1248,-52.5 1364,-52.5 1364,-22.5 1248,-22.5"/>
<text text-anchor="start" x="1256" y="-40.5" font-family="Helvetica,sans-Serif" font-size="10.00">Ra::Core::Utils::Index</text>
<text text-anchor="middle" x="1306" y="-29.5" font-family="Helvetica,sans-Serif" font-size="10.00">::isInvalid</text>
</a>
</g>
</g>
<!-- Node5&#45;&gt;Node6 -->
<g id="edge5" class="edge"><title>Node5&#45;&gt;Node6</title>
<path fill="none" stroke="midnightblue" d="M1203.35,-51.4329C1214.56,-49.8964 1226.37,-48.2775 1237.82,-46.7085"/>
<polygon fill="midnightblue" stroke="midnightblue" points="1238.33,-50.1716 1247.76,-45.3459 1237.38,-43.2365 1238.33,-50.1716"/>
</g>
<!-- Node10&#45;&gt;Node5 -->
<g id="edge10" class="edge"><title>Node10&#45;&gt;Node5</title>
<path fill="none" stroke="midnightblue" d="M1025.95,-273.359C1030.63,-270.842 1035.07,-267.911 1039,-264.5 1095.77,-215.244 1125.06,-127.36 1136.55,-84.4528"/>
<polygon fill="midnightblue" stroke="midnightblue" points="1139.99,-85.1209 1139.1,-74.5642 1133.21,-83.3764 1139.99,-85.1209"/>
</g>
<!-- Node11 -->
<g id="node11" class="node"><title>Node11</title>
<g id="a_node11"><a xlink:href="classRa_1_1Core_1_1Utils_1_1Index.html#ac7a1b710e6b95834a562c27e2f6c0f4b" target="_top" xlink:title="DESTRUCTOR: Must not be defined, we need it trivial to be constexpr. ">
<polygon fill="white" stroke="black" points="1248,-295.5 1248,-325.5 1364,-325.5 1364,-295.5 1248,-295.5"/>
<text text-anchor="start" x="1256" y="-313.5" font-family="Helvetica,sans-Serif" font-size="10.00">Ra::Core::Utils::Index</text>
<text text-anchor="middle" x="1306" y="-302.5" font-family="Helvetica,sans-Serif" font-size="10.00">::isValid</text>
</a>
</g>
</g>
<!-- Node10&#45;&gt;Node11 -->
<g id="edge11" class="edge"><title>Node10&#45;&gt;Node11</title>
<path fill="none" stroke="midnightblue" d="M1026.7,-292.332C1085.56,-296.175 1176.08,-302.084 1237.79,-306.112"/>
<polygon fill="midnightblue" stroke="midnightblue" points="1237.61,-309.608 1247.81,-306.767 1238.06,-302.623 1237.61,-309.608"/>
</g>
<!-- Node13&#45;&gt;Node11 -->
<g id="edge14" class="edge"><title>Node13&#45;&gt;Node11</title>
<path fill="none" stroke="midnightblue" d="M1212.1,-323.234C1220.66,-322.061 1229.42,-320.86 1237.97,-319.688"/>
<polygon fill="midnightblue" stroke="midnightblue" points="1238.45,-323.155 1247.88,-318.329 1237.5,-316.219 1238.45,-323.155"/>
</g>
<!-- Node14&#45;&gt;Node10 -->
<g id="edge17" class="edge"><title>Node14&#45;&gt;Node10</title>
<path fill="none" stroke="midnightblue" d="M838.635,-361.384C845.534,-358.628 852.527,-355.628 859,-352.5 885.432,-339.725 913.889,-322.523 934.807,-309.171"/>
<polygon fill="midnightblue" stroke="midnightblue" points="936.774,-312.067 943.283,-303.708 932.981,-306.184 936.774,-312.067"/>
</g>
<!-- Node14&#45;&gt;Node12 -->
<g id="edge18" class="edge"><title>Node14&#45;&gt;Node12</title>
<path fill="none" stroke="midnightblue" d="M854.176,-376.5C864.002,-376.5 874.35,-376.5 884.624,-376.5"/>
<polygon fill="midnightblue" stroke="midnightblue" points="884.85,-380 894.85,-376.5 884.85,-373 884.85,-380"/>
</g>
<!-- Node15 -->
<g id="node15" class="node"><title>Node15</title>
<g id="a_node15"><a xlink:href="classRa_1_1Core_1_1Utils_1_1IndexedObject.html#accf1e1447b2ed890b10080fb44a91e6c" target="_top" xlink:title="Ra::Core::Utils::Indexed\lObject::getIndex">
<polygon fill="white" stroke="black" points="903,-459.5 903,-489.5 1031,-489.5 1031,-459.5 903,-459.5"/>
<text text-anchor="start" x="911" y="-477.5" font-family="Helvetica,sans-Serif" font-size="10.00">Ra::Core::Utils::Indexed</text>
<text text-anchor="middle" x="967" y="-466.5" font-family="Helvetica,sans-Serif" font-size="10.00">Object::getIndex</text>
</a>
</g>
</g>
<!-- Node14&#45;&gt;Node15 -->
<g id="edge16" class="edge"><title>Node14&#45;&gt;Node15</title>
<path fill="none" stroke="midnightblue" d="M812.353,-391.653C831.298,-408.037 863.538,-434.011 895,-450.5 898.466,-452.317 902.098,-454.038 905.809,-455.661"/>
<polygon fill="midnightblue" stroke="midnightblue" points="904.566,-458.934 915.146,-459.491 907.223,-452.457 904.566,-458.934"/>
</g>
<!-- Node16 -->
<g id="node16" class="node"><title>Node16</title>
<g id="a_node16"><a xlink:href="classRa_1_1Engine_1_1RenderObjectManager.html#a13fc919e9fa01bfb36e67bc9011d325f" target="_top" xlink:title="Returns the render object corresponding to the given index. ">
<polygon fill="white" stroke="black" points="895,-410.5 895,-440.5 1039,-440.5 1039,-410.5 895,-410.5"/>
<text text-anchor="start" x="903" y="-428.5" font-family="Helvetica,sans-Serif" font-size="10.00">Ra::Engine::RenderObject</text>
<text text-anchor="middle" x="967" y="-417.5" font-family="Helvetica,sans-Serif" font-size="10.00">Manager::getRenderObject</text>
</a>
</g>
</g>
<!-- Node14&#45;&gt;Node16 -->
<g id="edge19" class="edge"><title>Node14&#45;&gt;Node16</title>
<path fill="none" stroke="midnightblue" d="M848.047,-391.601C865.713,-396.679 885.587,-402.39 903.916,-407.658"/>
<polygon fill="midnightblue" stroke="midnightblue" points="903.049,-411.05 913.627,-410.448 904.982,-404.322 903.049,-411.05"/>
</g>
<!-- Node16&#45;&gt;Node13 -->
<g id="edge20" class="edge"><title>Node16&#45;&gt;Node13</title>
<path fill="none" stroke="midnightblue" d="M1017.94,-410.472C1025.13,-407.778 1032.34,-404.773 1039,-401.5 1066.3,-388.076 1094.9,-368.532 1115.1,-353.668"/>
<polygon fill="midnightblue" stroke="midnightblue" points="1117.29,-356.4 1123.21,-347.616 1113.1,-350.789 1117.29,-356.4"/>
</g>
<!-- Node17&#45;&gt;Node5 -->
<g id="edge22" class="edge"><title>Node17&#45;&gt;Node5</title>
<path fill="none" stroke="midnightblue" d="M838.144,-175.405C845.713,-171.388 853.063,-166.461 859,-160.5 885.659,-133.733 864.145,-105.298 895,-83.5 946.673,-46.9937 1020.3,-44.42 1073.8,-48.8918"/>
<polygon fill="midnightblue" stroke="midnightblue" points="1073.6,-52.3883 1083.89,-49.837 1074.26,-45.4189 1073.6,-52.3883"/>
</g>
<!-- Node19&#45;&gt;Node3 -->
<g id="edge25" class="edge"><title>Node19&#45;&gt;Node3</title>
<path fill="none" stroke="midnightblue" d="M433.98,-205.526C466.816,-234.566 536.067,-295.715 539,-297.5 545.597,-301.516 552.826,-305.176 560.123,-308.449"/>
<polygon fill="midnightblue" stroke="midnightblue" points="558.79,-311.686 569.361,-312.388 561.535,-305.246 558.79,-311.686"/>
</g>
<!-- Node19&#45;&gt;Node10 -->
<g id="edge31" class="edge"><title>Node19&#45;&gt;Node10</title>
<path fill="none" stroke="midnightblue" d="M489.288,-205.624C493.976,-207.122 498.584,-208.745 503,-210.5 520.214,-217.341 521.597,-225.156 539,-231.5 659.863,-275.561 811.081,-286.145 897.298,-288.348"/>
<polygon fill="midnightblue" stroke="midnightblue" points="897.408,-291.851 907.484,-288.576 897.565,-284.853 897.408,-291.851"/>
</g>
<!-- Node19&#45;&gt;Node17 -->
<g id="edge26" class="edge"><title>Node19&#45;&gt;Node17</title>
<path fill="none" stroke="midnightblue" d="M481.236,-205.562C499.769,-209.246 520.093,-212.658 539,-214.5 607.564,-221.18 625.593,-222.633 694,-214.5 706.253,-213.043 719.179,-210.611 731.512,-207.84"/>
<polygon fill="midnightblue" stroke="midnightblue" points="732.314,-211.247 741.251,-205.557 730.716,-204.431 732.314,-211.247"/>
</g>
<!-- Node20 -->
<g id="node20" class="node"><title>Node20</title>
<g id="a_node20"><a xlink:href="classRa_1_1Engine_1_1Entity.html#adfcfb0c0eb4e1663cd66473e74d83aa3" target="_top" xlink:title="Ra::Engine::Entity\l::getTransform">
<polygon fill="white" stroke="black" points="566.5,-87.5 566.5,-117.5 666.5,-117.5 666.5,-87.5 566.5,-87.5"/>
<text text-anchor="start" x="574.5" y="-105.5" font-family="Helvetica,sans-Serif" font-size="10.00">Ra::Engine::Entity</text>
<text text-anchor="middle" x="616.5" y="-94.5" font-family="Helvetica,sans-Serif" font-size="10.00">::getTransform</text>
</a>
</g>
</g>
<!-- Node19&#45;&gt;Node20 -->
<g id="edge27" class="edge"><title>Node19&#45;&gt;Node20</title>
<path fill="none" stroke="midnightblue" d="M447.063,-175.485C471.593,-163.409 507.258,-146.249 539,-132.5 547.744,-128.712 557.133,-124.859 566.236,-121.232"/>
<polygon fill="midnightblue" stroke="midnightblue" points="567.561,-124.472 575.579,-117.546 564.992,-117.96 567.561,-124.472"/>
</g>
<!-- Node21 -->
<g id="node21" class="node"><title>Node21</title>
<g id="a_node21"><a xlink:href="structRa_1_1Engine_1_1ItemEntry.html#ac78e7430338c62ed664a16da7e3ea206" target="_top" xlink:title="Returns true if the item represents a component. ">
<polygon fill="white" stroke="black" points="907.5,-0.5 907.5,-30.5 1026.5,-30.5 1026.5,-0.5 907.5,-0.5"/>
<text text-anchor="start" x="915.5" y="-18.5" font-family="Helvetica,sans-Serif" font-size="10.00">Ra::Engine::ItemEntry</text>
<text text-anchor="middle" x="967" y="-7.5" font-family="Helvetica,sans-Serif" font-size="10.00">::isComponentNode</text>
</a>
</g>
</g>
<!-- Node19&#45;&gt;Node21 -->
<g id="edge28" class="edge"><title>Node19&#45;&gt;Node21</title>
<path fill="none" stroke="midnightblue" d="M488.133,-175.46C556.97,-160.653 656.271,-138.558 694,-126.5 786.063,-97.0773 805.375,-79.6745 895,-43.5 902.512,-40.4678 910.486,-37.2869 918.273,-34.2012"/>
<polygon fill="midnightblue" stroke="midnightblue" points="919.621,-37.432 927.634,-30.5009 917.047,-30.9221 919.621,-37.432"/>
</g>
<!-- Node22 -->
<g id="node22" class="node"><title>Node22</title>
<g id="a_node22"><a xlink:href="classRa_1_1Engine_1_1Component.html#ab99972b81a95e94e10b35bb2845782b2" target="_top" xlink:title="Get the transform associated with the given RO index key. ">
<polygon fill="white" stroke="black" points="552,-175.5 552,-205.5 681,-205.5 681,-175.5 552,-175.5"/>
<text text-anchor="start" x="560" y="-193.5" font-family="Helvetica,sans-Serif" font-size="10.00">Ra::Engine::Component</text>
<text text-anchor="middle" x="616.5" y="-182.5" font-family="Helvetica,sans-Serif" font-size="10.00">::getTransform</text>
</a>
</g>
</g>
<!-- Node19&#45;&gt;Node22 -->
<g id="edge32" class="edge"><title>Node19&#45;&gt;Node22</title>
<path fill="none" stroke="midnightblue" d="M493.745,-190.5C509.496,-190.5 526.045,-190.5 541.69,-190.5"/>
<polygon fill="midnightblue" stroke="midnightblue" points="541.823,-194 551.823,-190.5 541.823,-187 541.823,-194"/>
</g>
<!-- Node21&#45;&gt;Node5 -->
<g id="edge29" class="edge"><title>Node21&#45;&gt;Node5</title>
<path fill="none" stroke="midnightblue" d="M1026.59,-30.2738C1041.7,-34.083 1058.1,-38.2174 1073.67,-42.1448"/>
<polygon fill="midnightblue" stroke="midnightblue" points="1073.21,-45.6391 1083.77,-44.6903 1074.93,-38.8515 1073.21,-45.6391"/>
</g>
<!-- Node21&#45;&gt;Node6 -->
<g id="edge30" class="edge"><title>Node21&#45;&gt;Node6</title>
<path fill="none" stroke="midnightblue" d="M1026.7,-19.3321C1085.56,-23.1746 1176.08,-29.084 1237.79,-33.1122"/>
<polygon fill="midnightblue" stroke="midnightblue" points="1237.61,-36.6079 1247.81,-33.7668 1238.06,-29.6227 1237.61,-36.6079"/>
</g>
<!-- Node24&#45;&gt;Node17 -->
<g id="edge35" class="edge"><title>Node24&#45;&gt;Node17</title>
<path fill="none" stroke="midnightblue" d="M475.44,-107.435C484.78,-104.48 494.246,-101.15 503,-97.5 519.894,-90.4567 521.282,-82.0912 539,-77.5 605.686,-60.2198 631.223,-49.132 694,-77.5 734.059,-95.6021 764.426,-138.686 780.547,-166.117"/>
<polygon fill="midnightblue" stroke="midnightblue" points="777.666,-168.132 785.647,-175.1 783.753,-164.676 777.666,-168.132"/>
</g>
<!-- Node24&#45;&gt;Node20 -->
<g id="edge36" class="edge"><title>Node24&#45;&gt;Node20</title>
<path fill="none" stroke="midnightblue" d="M493.745,-114.767C514.556,-112.671 536.759,-110.434 556.43,-108.452"/>
<polygon fill="midnightblue" stroke="midnightblue" points="556.866,-111.926 566.464,-107.441 556.164,-104.961 556.866,-111.926"/>
</g>
</g>
</svg>
