<?xml version="1.0" encoding="UTF-8" standalone="no"?>
<!DOCTYPE svg PUBLIC "-//W3C//DTD SVG 1.1//EN"
 "http://www.w3.org/Graphics/SVG/1.1/DTD/svg11.dtd">
<!-- Generated by graphviz version 2.38.0 (20140413.2041)
 -->
<!-- Title: SkinningPlugin::SkinningComponent Pages: 1 -->
<svg width="739pt" height="1516pt"
 viewBox="0.00 0.00 739.00 1516.00" xmlns="http://www.w3.org/2000/svg" xmlns:xlink="http://www.w3.org/1999/xlink">
<g id="graph0" class="graph" transform="scale(1 1) rotate(0) translate(4 1512)">
<title>SkinningPlugin::SkinningComponent</title>
<polygon fill="white" stroke="none" points="-4,4 -4,-1512 735,-1512 735,4 -4,4"/>
<!-- Node1 -->
<g id="node1" class="node"><title>Node1</title>
<polygon fill="#bfbfbf" stroke="black" points="532,-0.5 532,-244.5 674,-244.5 674,-0.5 532,-0.5"/>
<text text-anchor="start" x="540" y="-232.5" font-family="Helvetica,sans-Serif" font-size="10.00">SkinningPlugin::Skinning</text>
<text text-anchor="middle" x="603" y="-221.5" font-family="Helvetica,sans-Serif" font-size="10.00">Component</text>
<polyline fill="none" stroke="black" points="532,-214.5 674,-214.5 "/>
<text text-anchor="middle" x="603" y="-202.5" font-family="Helvetica,sans-Serif" font-size="10.00"> </text>
<polyline fill="none" stroke="black" points="532,-195.5 674,-195.5 "/>
<text text-anchor="start" x="540" y="-183.5" font-family="Helvetica,sans-Serif" font-size="10.00">+ SkinningComponent()</text>
<text text-anchor="start" x="540" y="-172.5" font-family="Helvetica,sans-Serif" font-size="10.00">+ ~SkinningComponent()</text>
<text text-anchor="start" x="540" y="-161.5" font-family="Helvetica,sans-Serif" font-size="10.00">+ initialize()</text>
<text text-anchor="start" x="540" y="-150.5" font-family="Helvetica,sans-Serif" font-size="10.00">+ skin()</text>
<text text-anchor="start" x="540" y="-139.5" font-family="Helvetica,sans-Serif" font-size="10.00">+ endSkinning()</text>
<text text-anchor="start" x="540" y="-128.5" font-family="Helvetica,sans-Serif" font-size="10.00">+ setSkinningType()</text>
<text text-anchor="start" x="540" y="-117.5" font-family="Helvetica,sans-Serif" font-size="10.00">+ getSkinningType()</text>
<text text-anchor="start" x="540" y="-106.5" font-family="Helvetica,sans-Serif" font-size="10.00">+ handleWeightsLoading()</text>
<text text-anchor="start" x="540" y="-95.5" font-family="Helvetica,sans-Serif" font-size="10.00">+ getRefData()</text>
<text text-anchor="start" x="540" y="-84.5" font-family="Helvetica,sans-Serif" font-size="10.00">+ getFrameData()</text>
<text text-anchor="start" x="540" y="-73.5" font-family="Helvetica,sans-Serif" font-size="10.00">+ getDQ()</text>
<text text-anchor="start" x="540" y="-62.5" font-family="Helvetica,sans-Serif" font-size="10.00">+ showWeights()</text>
<text text-anchor="start" x="540" y="-51.5" font-family="Helvetica,sans-Serif" font-size="10.00">+ showWeightsType()</text>
<text text-anchor="start" x="540" y="-40.5" font-family="Helvetica,sans-Serif" font-size="10.00">+ setWeightBone()</text>
<text text-anchor="start" x="540" y="-29.5" font-family="Helvetica,sans-Serif" font-size="10.00">+ setupIO()</text>
<text text-anchor="start" x="540" y="-18.5" font-family="Helvetica,sans-Serif" font-size="10.00">+ setupSkinningType()</text>
<text text-anchor="start" x="540" y="-7.5" font-family="Helvetica,sans-Serif" font-size="10.00">+ setContentsName()</text>
</g>
<!-- Node2 -->
<g id="node2" class="node"><title>Node2</title>
<g id="a_node2"><a xlink:href="classRa_1_1Engine_1_1Component.html" target="_top" xlink:title="A component is an element that can be updated by a system. ">
<polygon fill="white" stroke="black" points="418.5,-282.5 418.5,-504.5 579.5,-504.5 579.5,-282.5 418.5,-282.5"/>
<text text-anchor="middle" x="499" y="-492.5" font-family="Helvetica,sans-Serif" font-size="10.00">Ra::Engine::Component</text>
<polyline fill="none" stroke="black" points="418.5,-485.5 579.5,-485.5 "/>
<text text-anchor="middle" x="499" y="-473.5" font-family="Helvetica,sans-Serif" font-size="10.00"> </text>
<polyline fill="none" stroke="black" points="418.5,-466.5 579.5,-466.5 "/>
<text text-anchor="start" x="426.5" y="-454.5" font-family="Helvetica,sans-Serif" font-size="10.00">+ Component()</text>
<text text-anchor="start" x="426.5" y="-443.5" font-family="Helvetica,sans-Serif" font-size="10.00">+ ~Component()</text>
<text text-anchor="start" x="426.5" y="-432.5" font-family="Helvetica,sans-Serif" font-size="10.00">+ initialize()</text>
<text text-anchor="start" x="426.5" y="-421.5" font-family="Helvetica,sans-Serif" font-size="10.00">+ setEntity()</text>
<text text-anchor="start" x="426.5" y="-410.5" font-family="Helvetica,sans-Serif" font-size="10.00">+ getEntity()</text>
<text text-anchor="start" x="426.5" y="-399.5" font-family="Helvetica,sans-Serif" font-size="10.00">+ getName()</text>
<text text-anchor="start" x="426.5" y="-388.5" font-family="Helvetica,sans-Serif" font-size="10.00">+ setSystem()</text>
<text text-anchor="start" x="426.5" y="-377.5" font-family="Helvetica,sans-Serif" font-size="10.00">+ getSystem()</text>
<text text-anchor="start" x="426.5" y="-366.5" font-family="Helvetica,sans-Serif" font-size="10.00">+ addRenderObject()</text>
<text text-anchor="start" x="426.5" y="-355.5" font-family="Helvetica,sans-Serif" font-size="10.00">+ removeRenderObject()</text>
<text text-anchor="start" x="426.5" y="-344.5" font-family="Helvetica,sans-Serif" font-size="10.00">+ canEdit()</text>
<text text-anchor="start" x="426.5" y="-333.5" font-family="Helvetica,sans-Serif" font-size="10.00">+ getTransform()</text>
<text text-anchor="start" x="426.5" y="-322.5" font-family="Helvetica,sans-Serif" font-size="10.00">+ setTransform()</text>
<text text-anchor="start" x="426.5" y="-311.5" font-family="Helvetica,sans-Serif" font-size="10.00">+ notifyRenderObjectExpired()</text>
<text text-anchor="start" x="426.5" y="-300.5" font-family="Helvetica,sans-Serif" font-size="10.00">+ computeAabb()</text>
<text text-anchor="start" x="426.5" y="-289.5" font-family="Helvetica,sans-Serif" font-size="10.00"># getRoMgr()</text>
</a>
</g>
</g>
<!-- Node2&#45;&gt;Node1 -->
<g id="edge1" class="edge"><title>Node2&#45;&gt;Node1</title>
<path fill="none" stroke="midnightblue" d="M545.308,-272.724C548.88,-263.484 552.488,-254.15 556.065,-244.9"/>
<polygon fill="none" stroke="midnightblue" points="541.942,-271.722 541.601,-282.311 548.471,-274.246 541.942,-271.722"/>
</g>
<!-- Node3 -->
<g id="node3" class="node"><title>Node3</title>
<polygon fill="white" stroke="#bfbfbf" points="45.5,-861 45.5,-940 156.5,-940 156.5,-861 45.5,-861"/>
<text text-anchor="start" x="53.5" y="-928" font-family="Helvetica,sans-Serif" font-size="10.00">std::vector&lt; Core::</text>
<text text-anchor="start" x="53.5" y="-917" font-family="Helvetica,sans-Serif" font-size="10.00">Utils::Ra::Core::Utils</text>
<text text-anchor="middle" x="101" y="-906" font-family="Helvetica,sans-Serif" font-size="10.00">::Index &gt;</text>
<polyline fill="none" stroke="#bfbfbf" points="45.5,-899 156.5,-899 "/>
<text text-anchor="middle" x="101" y="-887" font-family="Helvetica,sans-Serif" font-size="10.00"> </text>
<polyline fill="none" stroke="#bfbfbf" points="45.5,-880 156.5,-880 "/>
<text text-anchor="middle" x="101" y="-868" font-family="Helvetica,sans-Serif" font-size="10.00"> </text>
</g>
<!-- Node3&#45;&gt;Node2 -->
<g id="edge2" class="edge"><title>Node3&#45;&gt;Node2</title>
<path fill="none" stroke="#404040" d="M97.8321,-860.801C94.2504,-791.409 96.464,-644.446 168,-552 226.595,-476.278 330.642,-435.16 406.478,-414.127"/>
<polygon fill="none" stroke="#404040" points="406.808,-414.038 411.563,-408.617 418.396,-410.921 413.641,-416.343 406.808,-414.038"/>
<text text-anchor="middle" x="215" y="-672" font-family="Helvetica,sans-Serif" font-size="10.00"> +m_renderObjects</text>
</g>
<!-- Node4 -->
<g id="node4" class="node"><title>Node4</title>
<polygon fill="white" stroke="#bfbfbf" points="0,-1186 0,-1243 42,-1243 42,-1186 0,-1186"/>
<text text-anchor="middle" x="21" y="-1231" font-family="Helvetica,sans-Serif" font-size="10.00">Index</text>
<polyline fill="none" stroke="#bfbfbf" points="0,-1224 42,-1224 "/>
<text text-anchor="middle" x="21" y="-1212" font-family="Helvetica,sans-Serif" font-size="10.00"> </text>
<polyline fill="none" stroke="#bfbfbf" points="0,-1205 42,-1205 "/>
<text text-anchor="middle" x="21" y="-1193" font-family="Helvetica,sans-Serif" font-size="10.00"> </text>
</g>
<!-- Node4&#45;&gt;Node3 -->
<g id="edge3" class="edge"><title>Node4&#45;&gt;Node3</title>
<path fill="none" stroke="#404040" d="M17.7467,-1185.79C13.5166,-1140 9.7771,-1046.49 39,-975 42.5974,-966.199 47.6628,-957.676 53.365,-949.743"/>
<polygon fill="none" stroke="#404040" points="53.5295,-949.53 54.0321,-942.337 60.8657,-940.034 60.363,-947.228 53.5295,-949.53"/>
<text text-anchor="middle" x="67.5" y="-989" font-family="Helvetica,sans-Serif" font-size="10.00"> +elements</text>
</g>
<!-- Node5 -->
<g id="node5" class="node"><title>Node5</title>
<g id="a_node5"><a xlink:title="STL class. ">
<polygon fill="white" stroke="#bfbfbf" points="115.5,-1186 115.5,-1243 210.5,-1243 210.5,-1186 115.5,-1186"/>
<text text-anchor="middle" x="163" y="-1231" font-family="Helvetica,sans-Serif" font-size="10.00">std::vector&lt; T &gt;</text>
<polyline fill="none" stroke="#bfbfbf" points="115.5,-1224 210.5,-1224 "/>
<text text-anchor="middle" x="163" y="-1212" font-family="Helvetica,sans-Serif" font-size="10.00"> </text>
<polyline fill="none" stroke="#bfbfbf" points="115.5,-1205 210.5,-1205 "/>
<text text-anchor="middle" x="163" y="-1193" font-family="Helvetica,sans-Serif" font-size="10.00"> </text>
</a>
</g>
</g>
<!-- Node5&#45;&gt;Node3 -->
<g id="edge4" class="edge"><title>Node5&#45;&gt;Node3</title>
<path fill="none" stroke="orange" d="M148.532,-1176.33C133.54,-1135.7 111.058,-1068.35 102,-1008 98.6519,-985.692 98.2678,-960.458 98.7831,-940.155"/>
<polygon fill="orange" stroke="orange" points="145.297,-1177.67 152.076,-1185.81 151.854,-1175.22 145.297,-1177.67"/>
<text text-anchor="start" x="102" y="-994.5" font-family="Helvetica,sans-Serif" font-size="10.00"> &lt; Core::Utils::Ra::</text>
<text text-anchor="middle" x="148.5" y="-983.5" font-family="Helvetica,sans-Serif" font-size="10.00">Core::Utils::Index &gt;</text>
</g>
<!-- Node8 -->
<g id="node8" class="node"><title>Node8</title>
<polygon fill="white" stroke="#bfbfbf" points="262,-861 262,-940 436,-940 436,-861 262,-861"/>
<text text-anchor="start" x="270" y="-928" font-family="Helvetica,sans-Serif" font-size="10.00">std::vector&lt; std::pair</text>
<text text-anchor="start" x="270" y="-917" font-family="Helvetica,sans-Serif" font-size="10.00">&lt; const Ra::Engine::Entity</text>
<text text-anchor="middle" x="349" y="-906" font-family="Helvetica,sans-Serif" font-size="10.00"> *, Ra::Engine::Component * &gt; &gt;</text>
<polyline fill="none" stroke="#bfbfbf" points="262,-899 436,-899 "/>
<text text-anchor="middle" x="349" y="-887" font-family="Helvetica,sans-Serif" font-size="10.00"> </text>
<polyline fill="none" stroke="#bfbfbf" points="262,-880 436,-880 "/>
<text text-anchor="middle" x="349" y="-868" font-family="Helvetica,sans-Serif" font-size="10.00"> </text>
</g>
<!-- Node5&#45;&gt;Node8 -->
<g id="edge9" class="edge"><title>Node5&#45;&gt;Node8</title>
<path fill="none" stroke="orange" d="M167.197,-1175.78C174.385,-1116.84 190.577,-1006.36 214,-975 226.375,-958.429 243.63,-945.155 261.676,-934.701"/>
<polygon fill="orange" stroke="orange" points="163.709,-1175.47 166,-1185.82 170.66,-1176.3 163.709,-1175.47"/>
<text text-anchor="start" x="214" y="-1000" font-family="Helvetica,sans-Serif" font-size="10.00"> &lt; std::pair&lt; const</text>
<text text-anchor="start" x="214" y="-989" font-family="Helvetica,sans-Serif" font-size="10.00"> Ra::Engine::Entity</text>
<text text-anchor="middle" x="293" y="-978" font-family="Helvetica,sans-Serif" font-size="10.00"> *, Ra::Engine::Component * &gt; &gt;</text>
</g>
<!-- Node6 -->
<g id="node6" class="node"><title>Node6</title>
<polygon fill="white" stroke="#bfbfbf" points="148.5,-1450.5 148.5,-1507.5 177.5,-1507.5 177.5,-1450.5 148.5,-1450.5"/>
<text text-anchor="middle" x="163" y="-1495.5" font-family="Helvetica,sans-Serif" font-size="10.00">T</text>
<polyline fill="none" stroke="#bfbfbf" points="148.5,-1488.5 177.5,-1488.5 "/>
<text text-anchor="middle" x="163" y="-1476.5" font-family="Helvetica,sans-Serif" font-size="10.00"> </text>
<polyline fill="none" stroke="#bfbfbf" points="148.5,-1469.5 177.5,-1469.5 "/>
<text text-anchor="middle" x="163" y="-1457.5" font-family="Helvetica,sans-Serif" font-size="10.00"> </text>
</g>
<!-- Node6&#45;&gt;Node5 -->
<g id="edge5" class="edge"><title>Node6&#45;&gt;Node5</title>
<path fill="none" stroke="#404040" d="M163,-1450.4C163,-1403.73 163,-1309.04 163,-1255.23"/>
<polygon fill="none" stroke="#404040" points="163,-1255.12 159,-1249.12 163,-1243.12 167,-1249.12 163,-1255.12"/>
<text text-anchor="middle" x="191.5" y="-1424" font-family="Helvetica,sans-Serif" font-size="10.00"> +elements</text>
</g>
<!-- Node7 -->
<g id="node7" class="node"><title>Node7</title>
<g id="a_node7"><a xlink:href="classRa_1_1Engine_1_1System.html" target="_top" xlink:title="Systems are responsible of updating a specific subset of the components of each entity. ">
<polygon fill="white" stroke="black" points="271.5,-607.5 271.5,-741.5 428.5,-741.5 428.5,-607.5 271.5,-607.5"/>
<text text-anchor="middle" x="350" y="-729.5" font-family="Helvetica,sans-Serif" font-size="10.00">Ra::Engine::System</text>
<polyline fill="none" stroke="black" points="271.5,-722.5 428.5,-722.5 "/>
<text text-anchor="middle" x="350" y="-710.5" font-family="Helvetica,sans-Serif" font-size="10.00"> </text>
<polyline fill="none" stroke="black" points="271.5,-703.5 428.5,-703.5 "/>
<text text-anchor="start" x="279.5" y="-691.5" font-family="Helvetica,sans-Serif" font-size="10.00">+ System()</text>
<text text-anchor="start" x="279.5" y="-680.5" font-family="Helvetica,sans-Serif" font-size="10.00">+ ~System()</text>
<text text-anchor="start" x="279.5" y="-669.5" font-family="Helvetica,sans-Serif" font-size="10.00">+ handleAssetLoading()</text>
<text text-anchor="start" x="279.5" y="-658.5" font-family="Helvetica,sans-Serif" font-size="10.00">+ generateTasks()</text>
<text text-anchor="start" x="279.5" y="-647.5" font-family="Helvetica,sans-Serif" font-size="10.00">+ getEntityComponents()</text>
<text text-anchor="start" x="279.5" y="-636.5" font-family="Helvetica,sans-Serif" font-size="10.00"># registerComponent()</text>
<text text-anchor="start" x="279.5" y="-625.5" font-family="Helvetica,sans-Serif" font-size="10.00"># unregisterComponent()</text>
<text text-anchor="start" x="279.5" y="-614.5" font-family="Helvetica,sans-Serif" font-size="10.00"># unregisterAllComponents()</text>
</a>
</g>
</g>
<!-- Node7&#45;&gt;Node2 -->
<g id="edge6" class="edge"><title>Node7&#45;&gt;Node2</title>
<path fill="none" stroke="#404040" d="M385.311,-607.381C400.04,-579.801 417.626,-546.872 434.512,-515.252"/>
<polygon fill="none" stroke="#404040" points="434.554,-515.173 433.852,-507.996 440.207,-504.588 440.909,-511.765 434.554,-515.173"/>
<text text-anchor="middle" x="460" y="-526" font-family="Helvetica,sans-Serif" font-size="10.00"> #m_system</text>
</g>
<!-- Node8&#45;&gt;Node7 -->
<g id="edge7" class="edge"><title>Node8&#45;&gt;Node7</title>
<path fill="none" stroke="#404040" d="M349.172,-860.993C349.303,-831.549 349.489,-789.971 349.651,-753.64"/>
<polygon fill="none" stroke="#404040" points="349.651,-753.545 345.678,-747.527 349.705,-741.545 353.678,-747.563 349.651,-753.545"/>
<text text-anchor="middle" x="393.5" y="-818" font-family="Helvetica,sans-Serif" font-size="10.00"> #m_components</text>
</g>
<!-- Node9 -->
<g id="node9" class="node"><title>Node9</title>
<polygon fill="white" stroke="#bfbfbf" points="335.5,-1175 335.5,-1254 460.5,-1254 460.5,-1175 335.5,-1175"/>
<text text-anchor="start" x="343.5" y="-1242" font-family="Helvetica,sans-Serif" font-size="10.00">pair&lt; const Ra::Engine</text>
<text text-anchor="start" x="343.5" y="-1231" font-family="Helvetica,sans-Serif" font-size="10.00">::Entity *, Ra::Engine</text>
<text text-anchor="middle" x="398" y="-1220" font-family="Helvetica,sans-Serif" font-size="10.00">::Component * &gt;</text>
<polyline fill="none" stroke="#bfbfbf" points="335.5,-1213 460.5,-1213 "/>
<text text-anchor="middle" x="398" y="-1201" font-family="Helvetica,sans-Serif" font-size="10.00"> </text>
<polyline fill="none" stroke="#bfbfbf" points="335.5,-1194 460.5,-1194 "/>
<text text-anchor="middle" x="398" y="-1182" font-family="Helvetica,sans-Serif" font-size="10.00"> </text>
</g>
<!-- Node9&#45;&gt;Node8 -->
<g id="edge8" class="edge"><title>Node9&#45;&gt;Node8</title>
<path fill="none" stroke="#404040" d="M397.501,-1174.6C396.186,-1126.99 391.611,-1044.16 376,-975 374.271,-967.339 371.947,-959.392 369.385,-951.679"/>
<polygon fill="none" stroke="#404040" points="369.337,-951.542 363.574,-947.207 365.36,-940.22 371.122,-944.555 369.337,-951.542"/>
<text text-anchor="middle" x="411.5" y="-989" font-family="Helvetica,sans-Serif" font-size="10.00"> +elements</text>
</g>
<!-- Node10 -->
<g id="node10" class="node"><title>Node10</title>
<g id="a_node10"><a xlink:href="classRa_1_1Engine_1_1Entity.html" target="_top" xlink:title="An entity is an scene element. It ties together components with a transform. ">
<polygon fill="white" stroke="black" points="448,-552.5 448,-796.5 588,-796.5 588,-552.5 448,-552.5"/>
<text text-anchor="middle" x="518" y="-784.5" font-family="Helvetica,sans-Serif" font-size="10.00">Ra::Engine::Entity</text>
<polyline fill="none" stroke="black" points="448,-777.5 588,-777.5 "/>
<text text-anchor="middle" x="518" y="-765.5" font-family="Helvetica,sans-Serif" font-size="10.00"> </text>
<polyline fill="none" stroke="black" points="448,-758.5 588,-758.5 "/>
<text text-anchor="start" x="456" y="-746.5" font-family="Helvetica,sans-Serif" font-size="10.00">+ Entity()</text>
<text text-anchor="start" x="456" y="-735.5" font-family="Helvetica,sans-Serif" font-size="10.00">+ Entity()</text>
<text text-anchor="start" x="456" y="-724.5" font-family="Helvetica,sans-Serif" font-size="10.00">+ operator=()</text>
<text text-anchor="start" x="456" y="-713.5" font-family="Helvetica,sans-Serif" font-size="10.00">+ ~Entity()</text>
<text text-anchor="start" x="456" y="-702.5" font-family="Helvetica,sans-Serif" font-size="10.00">+ getName()</text>
<text text-anchor="start" x="456" y="-691.5" font-family="Helvetica,sans-Serif" font-size="10.00">+ rename()</text>
<text text-anchor="start" x="456" y="-680.5" font-family="Helvetica,sans-Serif" font-size="10.00">+ setTransform()</text>
<text text-anchor="start" x="456" y="-669.5" font-family="Helvetica,sans-Serif" font-size="10.00">+ setTransform()</text>
<text text-anchor="start" x="456" y="-658.5" font-family="Helvetica,sans-Serif" font-size="10.00">+ getTransform()</text>
<text text-anchor="start" x="456" y="-647.5" font-family="Helvetica,sans-Serif" font-size="10.00">+ getTransformAsMatrix()</text>
<text text-anchor="start" x="456" y="-636.5" font-family="Helvetica,sans-Serif" font-size="10.00">+ swapTransformBuffers()</text>
<text text-anchor="start" x="456" y="-625.5" font-family="Helvetica,sans-Serif" font-size="10.00">+ addComponent()</text>
<text text-anchor="start" x="456" y="-614.5" font-family="Helvetica,sans-Serif" font-size="10.00">+ removeComponent()</text>
<text text-anchor="start" x="456" y="-603.5" font-family="Helvetica,sans-Serif" font-size="10.00">+ getComponent()</text>
<text text-anchor="start" x="456" y="-592.5" font-family="Helvetica,sans-Serif" font-size="10.00">+ getComponent()</text>
<text text-anchor="start" x="456" y="-581.5" font-family="Helvetica,sans-Serif" font-size="10.00">+ getComponents()</text>
<text text-anchor="start" x="456" y="-570.5" font-family="Helvetica,sans-Serif" font-size="10.00">+ getNumComponents()</text>
<text text-anchor="start" x="456" y="-559.5" font-family="Helvetica,sans-Serif" font-size="10.00">+ computeAabb()</text>
</a>
</g>
</g>
<!-- Node10&#45;&gt;Node2 -->
<g id="edge10" class="edge"><title>Node10&#45;&gt;Node2</title>
<path fill="none" stroke="#404040" d="M501.457,-552.232C500.897,-546.073 500.405,-539.969 500,-534 499.615,-528.333 499.293,-522.533 499.024,-516.673"/>
<polygon fill="none" stroke="#404040" points="499.021,-516.573 494.787,-510.735 498.546,-504.582 502.78,-510.419 499.021,-516.573"/>
<text text-anchor="middle" x="527" y="-526" font-family="Helvetica,sans-Serif" font-size="10.00"> #m_entity</text>
</g>
<!-- Node11 -->
<g id="node11" class="node"><title>Node11</title>
<g id="a_node11"><a xlink:href="classRa_1_1Core_1_1Utils_1_1IndexedObject.html" target="_top" xlink:title="{Ra::Core::Utils::Indexed\lObject\n||+ IndexedObject()\l+ IndexedObject()\l+ ~IndexedObject()\l+ setIndex()\l+ getIndex()\l}">
<polygon fill="white" stroke="black" points="454,-844.5 454,-956.5 582,-956.5 582,-844.5 454,-844.5"/>
<text text-anchor="start" x="462" y="-944.5" font-family="Helvetica,sans-Serif" font-size="10.00">Ra::Core::Utils::Indexed</text>
<text text-anchor="middle" x="518" y="-933.5" font-family="Helvetica,sans-Serif" font-size="10.00">Object</text>
<polyline fill="none" stroke="black" points="454,-926.5 582,-926.5 "/>
<text text-anchor="middle" x="518" y="-914.5" font-family="Helvetica,sans-Serif" font-size="10.00"> </text>
<polyline fill="none" stroke="black" points="454,-907.5 582,-907.5 "/>
<text text-anchor="start" x="462" y="-895.5" font-family="Helvetica,sans-Serif" font-size="10.00">+ IndexedObject()</text>
<text text-anchor="start" x="462" y="-884.5" font-family="Helvetica,sans-Serif" font-size="10.00">+ IndexedObject()</text>
<text text-anchor="start" x="462" y="-873.5" font-family="Helvetica,sans-Serif" font-size="10.00">+ ~IndexedObject()</text>
<text text-anchor="start" x="462" y="-862.5" font-family="Helvetica,sans-Serif" font-size="10.00">+ setIndex()</text>
<text text-anchor="start" x="462" y="-851.5" font-family="Helvetica,sans-Serif" font-size="10.00">+ getIndex()</text>
</a>
</g>
</g>
<!-- Node11&#45;&gt;Node10 -->
<g id="edge11" class="edge"><title>Node11&#45;&gt;Node10</title>
<path fill="none" stroke="midnightblue" d="M518,-834.213C518,-822.331 518,-809.595 518,-796.696"/>
<polygon fill="none" stroke="midnightblue" points="514.5,-834.417 518,-844.417 521.5,-834.417 514.5,-834.417"/>
</g>
<!-- Node12 -->
<g id="node12" class="node"><title>Node12</title>
<g id="a_node12"><a xlink:href="classRa_1_1Core_1_1Utils_1_1Index.html" target="_top" xlink:title="{Ra::Core::Utils::Index\n||+ Index()\l+ Index()\l+ operator=()\l+ isValid()\l+ isInvalid()\l+ setInvalid()\l+ getValue()\l+ setValue()\l+ operator int()\l+ operator=()\l+ operator++()\l+ operator&#45;&#45;()\l+ operator+()\l+ operator+()\l+ operator&#45;()\l+ operator&#45;()\l+ operator==()\l+ operator==()\l+ operator!=()\l+ operator!=()\l+ operator\&lt;()\l+ operator\&lt;()\l+ operator\&lt;=()\l+ operator\&lt;=()\l+ operator\&gt;()\l+ operator\&gt;()\l+ operator\&gt;=()\l+ operator\&gt;=()\l+ Invalid()\l+ Max()\l}">
<polygon fill="white" stroke="black" points="479,-1026.5 479,-1402.5 595,-1402.5 595,-1026.5 479,-1026.5"/>
<text text-anchor="middle" x="537" y="-1390.5" font-family="Helvetica,sans-Serif" font-size="10.00">Ra::Core::Utils::Index</text>
<polyline fill="none" stroke="black" points="479,-1383.5 595,-1383.5 "/>
<text text-anchor="middle" x="537" y="-1371.5" font-family="Helvetica,sans-Serif" font-size="10.00"> </text>
<polyline fill="none" stroke="black" points="479,-1364.5 595,-1364.5 "/>
<text text-anchor="start" x="487" y="-1352.5" font-family="Helvetica,sans-Serif" font-size="10.00">+ Index()</text>
<text text-anchor="start" x="487" y="-1341.5" font-family="Helvetica,sans-Serif" font-size="10.00">+ Index()</text>
<text text-anchor="start" x="487" y="-1330.5" font-family="Helvetica,sans-Serif" font-size="10.00">+ operator=()</text>
<text text-anchor="start" x="487" y="-1319.5" font-family="Helvetica,sans-Serif" font-size="10.00">+ isValid()</text>
<text text-anchor="start" x="487" y="-1308.5" font-family="Helvetica,sans-Serif" font-size="10.00">+ isInvalid()</text>
<text text-anchor="start" x="487" y="-1297.5" font-family="Helvetica,sans-Serif" font-size="10.00">+ setInvalid()</text>
<text text-anchor="start" x="487" y="-1286.5" font-family="Helvetica,sans-Serif" font-size="10.00">+ getValue()</text>
<text text-anchor="start" x="487" y="-1275.5" font-family="Helvetica,sans-Serif" font-size="10.00">+ setValue()</text>
<text text-anchor="start" x="487" y="-1264.5" font-family="Helvetica,sans-Serif" font-size="10.00">+ operator int()</text>
<text text-anchor="start" x="487" y="-1253.5" font-family="Helvetica,sans-Serif" font-size="10.00">+ operator=()</text>
<text text-anchor="start" x="487" y="-1242.5" font-family="Helvetica,sans-Serif" font-size="10.00">+ operator++()</text>
<text text-anchor="start" x="487" y="-1231.5" font-family="Helvetica,sans-Serif" font-size="10.00">+ operator&#45;&#45;()</text>
<text text-anchor="start" x="487" y="-1220.5" font-family="Helvetica,sans-Serif" font-size="10.00">+ operator+()</text>
<text text-anchor="start" x="487" y="-1209.5" font-family="Helvetica,sans-Serif" font-size="10.00">+ operator+()</text>
<text text-anchor="start" x="487" y="-1198.5" font-family="Helvetica,sans-Serif" font-size="10.00">+ operator&#45;()</text>
<text text-anchor="start" x="487" y="-1187.5" font-family="Helvetica,sans-Serif" font-size="10.00">+ operator&#45;()</text>
<text text-anchor="start" x="487" y="-1176.5" font-family="Helvetica,sans-Serif" font-size="10.00">+ operator==()</text>
<text text-anchor="start" x="487" y="-1165.5" font-family="Helvetica,sans-Serif" font-size="10.00">+ operator==()</text>
<text text-anchor="start" x="487" y="-1154.5" font-family="Helvetica,sans-Serif" font-size="10.00">+ operator!=()</text>
<text text-anchor="start" x="487" y="-1143.5" font-family="Helvetica,sans-Serif" font-size="10.00">+ operator!=()</text>
<text text-anchor="start" x="487" y="-1132.5" font-family="Helvetica,sans-Serif" font-size="10.00">+ operator&lt;()</text>
<text text-anchor="start" x="487" y="-1121.5" font-family="Helvetica,sans-Serif" font-size="10.00">+ operator&lt;()</text>
<text text-anchor="start" x="487" y="-1110.5" font-family="Helvetica,sans-Serif" font-size="10.00">+ operator&lt;=()</text>
<text text-anchor="start" x="487" y="-1099.5" font-family="Helvetica,sans-Serif" font-size="10.00">+ operator&lt;=()</text>
<text text-anchor="start" x="487" y="-1088.5" font-family="Helvetica,sans-Serif" font-size="10.00">+ operator&gt;()</text>
<text text-anchor="start" x="487" y="-1077.5" font-family="Helvetica,sans-Serif" font-size="10.00">+ operator&gt;()</text>
<text text-anchor="start" x="487" y="-1066.5" font-family="Helvetica,sans-Serif" font-size="10.00">+ operator&gt;=()</text>
<text text-anchor="start" x="487" y="-1055.5" font-family="Helvetica,sans-Serif" font-size="10.00">+ operator&gt;=()</text>
<text text-anchor="start" x="487" y="-1044.5" font-family="Helvetica,sans-Serif" font-size="10.00">+ Invalid()</text>
<text text-anchor="start" x="487" y="-1033.5" font-family="Helvetica,sans-Serif" font-size="10.00">+ Max()</text>
</a>
</g>
</g>
<!-- Node12&#45;&gt;Node11 -->
<g id="edge12" class="edge"><title>Node12&#45;&gt;Node11</title>
<path fill="none" stroke="#404040" d="M525.591,-1026.16C524.349,-1005.75 523.151,-986.09 522.089,-968.652"/>
<polygon fill="none" stroke="#404040" points="522.089,-968.639 517.731,-962.893 521.359,-956.661 525.717,-962.407 522.089,-968.639"/>
<text text-anchor="middle" x="545" y="-989" font-family="Helvetica,sans-Serif" font-size="10.00"> #m_idx</text>
</g>
<!-- Node13 -->
<g id="node13" class="node"><title>Node13</title>
<g id="a_node13"><a xlink:href="classint.html" target="_top" xlink:title="{int\n||}">
<polygon fill="white" stroke="black" points="522.5,-1450.5 522.5,-1507.5 551.5,-1507.5 551.5,-1450.5 522.5,-1450.5"/>
<text text-anchor="middle" x="537" y="-1495.5" font-family="Helvetica,sans-Serif" font-size="10.00">int</text>
<polyline fill="none" stroke="black" points="522.5,-1488.5 551.5,-1488.5 "/>
<text text-anchor="middle" x="537" y="-1476.5" font-family="Helvetica,sans-Serif" font-size="10.00"> </text>
<polyline fill="none" stroke="black" points="522.5,-1469.5 551.5,-1469.5 "/>
<text text-anchor="middle" x="537" y="-1457.5" font-family="Helvetica,sans-Serif" font-size="10.00"> </text>
</a>
</g>
</g>
<!-- Node13&#45;&gt;Node12 -->
<g id="edge13" class="edge"><title>Node13&#45;&gt;Node12</title>
<path fill="none" stroke="#404040" d="M537,-1450.4C537,-1440.43 537,-1428.26 537,-1414.76"/>
<polygon fill="none" stroke="#404040" points="537,-1414.58 533,-1408.58 537,-1402.58 541,-1408.58 537,-1414.58"/>
<text text-anchor="middle" x="557" y="-1424" font-family="Helvetica,sans-Serif" font-size="10.00"> #m_idx</text>
</g>
<!-- Node14 -->
<g id="node14" class="node"><title>Node14</title>
<g id="a_node14"><a xlink:title="STL class. ">
<polygon fill="white" stroke="#bfbfbf" points="613.5,-646 613.5,-703 678.5,-703 678.5,-646 613.5,-646"/>
<text text-anchor="middle" x="646" y="-691" font-family="Helvetica,sans-Serif" font-size="10.00">std::string</text>
<polyline fill="none" stroke="#bfbfbf" points="613.5,-684 678.5,-684 "/>
<text text-anchor="middle" x="646" y="-672" font-family="Helvetica,sans-Serif" font-size="10.00"> </text>
<polyline fill="none" stroke="#bfbfbf" points="613.5,-665 678.5,-665 "/>
<text text-anchor="middle" x="646" y="-653" font-family="Helvetica,sans-Serif" font-size="10.00"> </text>
</a>
</g>
</g>
<!-- Node14&#45;&gt;Node1 -->
<g id="edge16" class="edge"><title>Node14&#45;&gt;Node1</title>
<path fill="none" stroke="#404040" d="M643.838,-645.848C638.351,-575.664 623.598,-386.964 613.414,-256.7"/>
<polygon fill="none" stroke="#404040" points="613.409,-256.64 608.954,-250.97 612.474,-244.677 616.929,-250.347 613.409,-256.64"/>
<text text-anchor="middle" x="682" y="-391" font-family="Helvetica,sans-Serif" font-size="10.00"> +m_contentsName</text>
</g>
<!-- Node14&#45;&gt;Node2 -->
<g id="edge14" class="edge"><title>Node14&#45;&gt;Node2</title>
<path fill="none" stroke="#404040" d="M638.724,-645.672C631.09,-619.828 617.345,-581.069 597,-552 590.143,-542.203 584.463,-543.344 577,-534 572.056,-527.809 567.244,-521.263 562.596,-514.519"/>
<polygon fill="none" stroke="#404040" points="562.578,-514.491 555.918,-511.726 555.909,-504.515 562.569,-507.28 562.578,-514.491"/>
<text text-anchor="middle" x="604.5" y="-526" font-family="Helvetica,sans-Serif" font-size="10.00"> #m_name</text>
</g>
<!-- Node15 -->
<g id="node15" class="node"><title>Node15</title>
<g id="a_node15"><a xlink:title="STL class. ">
<polygon fill="white" stroke="#bfbfbf" points="600.5,-866.5 600.5,-934.5 703.5,-934.5 703.5,-866.5 600.5,-866.5"/>
<text text-anchor="start" x="608.5" y="-922.5" font-family="Helvetica,sans-Serif" font-size="10.00">std::basic_string&lt;</text>
<text text-anchor="middle" x="652" y="-911.5" font-family="Helvetica,sans-Serif" font-size="10.00"> char &gt;</text>
<polyline fill="none" stroke="#bfbfbf" points="600.5,-904.5 703.5,-904.5 "/>
<text text-anchor="middle" x="652" y="-892.5" font-family="Helvetica,sans-Serif" font-size="10.00"> </text>
<polyline fill="none" stroke="#bfbfbf" points="600.5,-885.5 703.5,-885.5 "/>
<text text-anchor="middle" x="652" y="-873.5" font-family="Helvetica,sans-Serif" font-size="10.00"> </text>
</a>
</g>
</g>
<!-- Node15&#45;&gt;Node14 -->
<g id="edge15" class="edge"><title>Node15&#45;&gt;Node14</title>
<path fill="none" stroke="midnightblue" d="M650.844,-856.346C649.632,-811.093 647.764,-741.343 646.738,-703.037"/>
<polygon fill="none" stroke="midnightblue" points="647.348,-856.545 651.115,-866.448 654.346,-856.358 647.348,-856.545"/>
</g>
</g>
</svg>
