<?xml version="1.0" encoding="UTF-8" standalone="no"?>
<!DOCTYPE svg PUBLIC "-//W3C//DTD SVG 1.1//EN"
 "http://www.w3.org/Graphics/SVG/1.1/DTD/svg11.dtd">
<!-- Generated by graphviz version 2.38.0 (20140413.2041)
 -->
<!-- Title: Ra::Gui::TrackballCameraManipulator::updatePhiTheta Pages: 1 -->
<svg width="341pt" height="176pt"
 viewBox="0.00 0.00 341.00 175.50" xmlns="http://www.w3.org/2000/svg" xmlns:xlink="http://www.w3.org/1999/xlink">
<g id="graph0" class="graph" transform="scale(1 1) rotate(0) translate(4 171.5)">
<title>Ra::Gui::TrackballCameraManipulator::updatePhiTheta</title>
<polygon fill="white" stroke="none" points="-4,4 -4,-171.5 337,-171.5 337,4 -4,4"/>
<!-- Node1 -->
<g id="node1" class="node"><title>Node1</title>
<polygon fill="#bfbfbf" stroke="black" points="0,-63 0,-93 154,-93 154,-63 0,-63"/>
<text text-anchor="start" x="8" y="-81" font-family="Helvetica,sans-Serif" font-size="10.00">Ra::Gui::TrackballCamera</text>
<text text-anchor="middle" x="77" y="-70" font-family="Helvetica,sans-Serif" font-size="10.00">Manipulator::updatePhiTheta</text>
</g>
<!-- Node2 -->
<g id="node2" class="node"><title>Node2</title>
<g id="a_node2"><a xlink:href="namespaceRa_1_1Core_1_1Math.html#a46540d56930b4c1ff3b115872cde4893" target="_top" xlink:title="Compare two numbers such that |x&#45;y| &lt; espilon*epsilonBoostFactor. ">
<polygon fill="white" stroke="black" points="190,-137 190,-167 333,-167 333,-137 190,-137"/>
<text text-anchor="start" x="198" y="-155" font-family="Helvetica,sans-Serif" font-size="10.00">Ra::Core::Math::areApprox</text>
<text text-anchor="middle" x="261.5" y="-144" font-family="Helvetica,sans-Serif" font-size="10.00">Equal</text>
</a>
</g>
</g>
<!-- Node1&#45;&gt;Node2 -->
<g id="edge1" class="edge"><title>Node1&#45;&gt;Node2</title>
<path fill="none" stroke="midnightblue" d="M109.534,-93.0091C131.796,-103.375 162.447,-117.186 190,-128 194.767,-129.871 199.747,-131.738 204.759,-133.556"/>
<polygon fill="midnightblue" stroke="midnightblue" points="203.797,-136.929 214.391,-136.983 206.143,-130.334 203.797,-136.929"/>
</g>
<!-- Node3 -->
<g id="node3" class="node"><title>Node3</title>
<g id="a_node3"><a xlink:href="classRa_1_1Engine_1_1Camera.html#a23be7aa714c0e9c2a9429dfc9ef2c53a" target="_top" xlink:title="Return the direction the camera is looking at. ">
<polygon fill="white" stroke="black" points="206,-88 206,-118 317,-118 317,-88 206,-88"/>
<text text-anchor="start" x="214" y="-106" font-family="Helvetica,sans-Serif" font-size="10.00">Ra::Engine::Camera</text>
<text text-anchor="middle" x="261.5" y="-95" font-family="Helvetica,sans-Serif" font-size="10.00">::getDirection</text>
</a>
</g>
</g>
<!-- Node1&#45;&gt;Node3 -->
<g id="edge2" class="edge"><title>Node1&#45;&gt;Node3</title>
<path fill="none" stroke="midnightblue" d="M154.075,-88.4212C167.948,-90.3216 182.302,-92.288 195.807,-94.1379"/>
<polygon fill="midnightblue" stroke="midnightblue" points="195.563,-97.6372 205.946,-95.5268 196.513,-90.7019 195.563,-97.6372"/>
</g>
<!-- Node4 -->
<g id="node4" class="node"><title>Node4</title>
<g id="a_node4"><a xlink:href="classRa_1_1Engine_1_1Camera.html#a724a052e94817af7e602129467c8696f" target="_top" xlink:title="Return the position. ">
<polygon fill="white" stroke="black" points="206,-39 206,-69 317,-69 317,-39 206,-39"/>
<text text-anchor="start" x="214" y="-57" font-family="Helvetica,sans-Serif" font-size="10.00">Ra::Engine::Camera</text>
<text text-anchor="middle" x="261.5" y="-46" font-family="Helvetica,sans-Serif" font-size="10.00">::getPosition</text>
</a>
</g>
</g>
<!-- Node1&#45;&gt;Node4 -->
<g id="edge3" class="edge"><title>Node1&#45;&gt;Node4</title>
<path fill="none" stroke="midnightblue" d="M154.075,-67.9956C167.948,-66.1712 182.302,-64.2835 195.807,-62.5076"/>
<polygon fill="midnightblue" stroke="midnightblue" points="196.488,-65.9483 205.946,-61.1742 195.575,-59.0081 196.488,-65.9483"/>
</g>
<!-- Node5 -->
<g id="node5" class="node"><title>Node5</title>
<g id="a_node5"><a xlink:href="namespaceOpenMesh.html#a8205f789ce08919bc11c58383574596c" target="_top" xlink:title="OpenMesh::norm">
<polygon fill="white" stroke="black" points="212,-0.5 212,-19.5 311,-19.5 311,-0.5 212,-0.5"/>
<text text-anchor="middle" x="261.5" y="-7.5" font-family="Helvetica,sans-Serif" font-size="10.00">OpenMesh::norm</text>
</a>
</g>
</g>
<!-- Node1&#45;&gt;Node5 -->
<g id="edge4" class="edge"><title>Node1&#45;&gt;Node5</title>
<path fill="none" stroke="midnightblue" d="M110.396,-62.8041C132.528,-52.7492 162.683,-39.6832 190,-30 197.504,-27.34 205.552,-24.7854 213.43,-22.4435"/>
<polygon fill="midnightblue" stroke="midnightblue" points="214.63,-25.74 223.263,-19.5991 212.684,-19.0157 214.63,-25.74"/>
</g>
</g>
</svg>
