<?xml version="1.0" encoding="UTF-8" standalone="no"?>
<!DOCTYPE svg PUBLIC "-//W3C//DTD SVG 1.1//EN"
 "http://www.w3.org/Graphics/SVG/1.1/DTD/svg11.dtd">
<!-- Generated by graphviz version 2.38.0 (20140413.2041)
 -->
<!-- Title: SkinningPlugin::SkinningComponent::showWeights Pages: 1 -->
<svg width="360pt" height="225pt"
 viewBox="0.00 0.00 360.00 224.50" xmlns="http://www.w3.org/2000/svg" xmlns:xlink="http://www.w3.org/1999/xlink">
<g id="graph0" class="graph" transform="scale(1 1) rotate(0) translate(4 220.5)">
<title>SkinningPlugin::SkinningComponent::showWeights</title>
<polygon fill="white" stroke="none" points="-4,4 -4,-220.5 356,-220.5 356,4 -4,4"/>
<!-- Node1 -->
<g id="node1" class="node"><title>Node1</title>
<polygon fill="#bfbfbf" stroke="black" points="0,-98.5 0,-128.5 140,-128.5 140,-98.5 0,-98.5"/>
<text text-anchor="start" x="8" y="-116.5" font-family="Helvetica,sans-Serif" font-size="10.00">SkinningPlugin::Skinning</text>
<text text-anchor="middle" x="70" y="-105.5" font-family="Helvetica,sans-Serif" font-size="10.00">Component::showWeights</text>
</g>
<!-- Node2 -->
<g id="node2" class="node"><title>Node2</title>
<g id="a_node2"><a xlink:href="classRa_1_1Engine_1_1Mesh.html#ac6b2c0b356fedc903a39fc7b3393f7e4" target="_top" xlink:title="Get the name expected for a given attrib. ">
<polygon fill="white" stroke="black" points="176,-197 176,-216 352,-216 352,-197 176,-197"/>
<text text-anchor="middle" x="264" y="-204" font-family="Helvetica,sans-Serif" font-size="10.00">Ra::Engine::Mesh::getAttribName</text>
</a>
</g>
</g>
<!-- Node1&#45;&gt;Node2 -->
<g id="edge1" class="edge"><title>Node1&#45;&gt;Node2</title>
<path fill="none" stroke="midnightblue" d="M87.8875,-128.675C107.614,-145.581 141.91,-172.502 176,-187.5 181.758,-190.033 187.883,-192.241 194.113,-194.163"/>
<polygon fill="midnightblue" stroke="midnightblue" points="193.377,-197.592 203.953,-196.954 195.287,-190.858 193.377,-197.592"/>
</g>
<!-- Node3 -->
<g id="node3" class="node"><title>Node3</title>
<g id="a_node3"><a xlink:href="classRa_1_1Core_1_1Geometry_1_1TriangleMesh.html#a80e6c7e3b1dc8f1a6bd1913c5f7d1a05" target="_top" xlink:title="Add attribute with the given name. ">
<polygon fill="white" stroke="black" points="197,-147.5 197,-177.5 331,-177.5 331,-147.5 197,-147.5"/>
<text text-anchor="start" x="205" y="-165.5" font-family="Helvetica,sans-Serif" font-size="10.00">Ra::Core::Geometry</text>
<text text-anchor="middle" x="264" y="-154.5" font-family="Helvetica,sans-Serif" font-size="10.00">::TriangleMesh::addAttrib</text>
</a>
</g>
</g>
<!-- Node1&#45;&gt;Node3 -->
<g id="edge2" class="edge"><title>Node1&#45;&gt;Node3</title>
<path fill="none" stroke="midnightblue" d="M129.911,-128.535C150.276,-133.732 173.272,-139.601 194.349,-144.98"/>
<polygon fill="midnightblue" stroke="midnightblue" points="193.645,-148.412 204.2,-147.494 195.376,-141.63 193.645,-148.412"/>
</g>
<!-- Node4 -->
<g id="node4" class="node"><title>Node4</title>
<g id="a_node4"><a xlink:href="classRa_1_1Core_1_1Geometry_1_1TriangleMesh.html#a209037ce5a11ec8539a9ada7ba763e8c" target="_top" xlink:title="Get attribute by handle. ">
<polygon fill="white" stroke="black" points="198,-98.5 198,-128.5 330,-128.5 330,-98.5 198,-98.5"/>
<text text-anchor="start" x="206" y="-116.5" font-family="Helvetica,sans-Serif" font-size="10.00">Ra::Core::Geometry</text>
<text text-anchor="middle" x="264" y="-105.5" font-family="Helvetica,sans-Serif" font-size="10.00">::TriangleMesh::getAttrib</text>
</a>
</g>
</g>
<!-- Node1&#45;&gt;Node4 -->
<g id="edge3" class="edge"><title>Node1&#45;&gt;Node4</title>
<path fill="none" stroke="midnightblue" d="M140.045,-113.5C155.479,-113.5 171.923,-113.5 187.599,-113.5"/>
<polygon fill="midnightblue" stroke="midnightblue" points="187.771,-117 197.771,-113.5 187.771,-110 187.771,-117"/>
</g>
<!-- Node5 -->
<g id="node5" class="node"><title>Node5</title>
<g id="a_node5"><a xlink:href="classRa_1_1Core_1_1Geometry_1_1TriangleMesh.html#a316e86eab4e624183f1bfe5c25f8592c" target="_top" xlink:title="Return the Handle to the attribute with the given name if it exists, an invalid handle otherwise...">
<polygon fill="white" stroke="black" points="181,-49.5 181,-79.5 347,-79.5 347,-49.5 181,-49.5"/>
<text text-anchor="start" x="189" y="-67.5" font-family="Helvetica,sans-Serif" font-size="10.00">Ra::Core::Geometry</text>
<text text-anchor="middle" x="264" y="-56.5" font-family="Helvetica,sans-Serif" font-size="10.00">::TriangleMesh::getAttribHandle</text>
</a>
</g>
</g>
<!-- Node1&#45;&gt;Node5 -->
<g id="edge4" class="edge"><title>Node1&#45;&gt;Node5</title>
<path fill="none" stroke="midnightblue" d="M129.911,-98.4654C150.276,-93.2682 173.272,-87.3994 194.349,-82.0204"/>
<polygon fill="midnightblue" stroke="midnightblue" points="195.376,-85.3704 204.2,-79.5062 193.645,-78.5878 195.376,-85.3704"/>
</g>
<!-- Node6 -->
<g id="node6" class="node"><title>Node6</title>
<g id="a_node6"><a xlink:href="classRa_1_1Core_1_1Geometry_1_1TriangleMesh.html#a500ec734182d60422cfea1fb57f39462" target="_top" xlink:title="Remove attribute by handle. ">
<polygon fill="white" stroke="black" points="187.5,-0.5 187.5,-30.5 340.5,-30.5 340.5,-0.5 187.5,-0.5"/>
<text text-anchor="start" x="195.5" y="-18.5" font-family="Helvetica,sans-Serif" font-size="10.00">Ra::Core::Geometry</text>
<text text-anchor="middle" x="264" y="-7.5" font-family="Helvetica,sans-Serif" font-size="10.00">::TriangleMesh::removeAttrib</text>
</a>
</g>
</g>
<!-- Node1&#45;&gt;Node6 -->
<g id="edge5" class="edge"><title>Node1&#45;&gt;Node6</title>
<path fill="none" stroke="midnightblue" d="M88.8282,-98.3463C108.859,-82.0052 142.914,-56.225 176,-40.5 180.968,-38.1389 186.204,-35.9561 191.541,-33.9471"/>
<polygon fill="midnightblue" stroke="midnightblue" points="192.965,-37.1558 201.222,-30.5173 190.627,-30.5576 192.965,-37.1558"/>
</g>
</g>
</svg>
