<?xml version="1.0" encoding="UTF-8" standalone="no"?>
<!DOCTYPE svg PUBLIC "-//W3C//DTD SVG 1.1//EN"
 "http://www.w3.org/Graphics/SVG/1.1/DTD/svg11.dtd">
<!-- Generated by graphviz version 2.38.0 (20140413.2041)
 -->
<!-- Title: Ra::Core::Geometry::PolyLine::projectOnSegment Pages: 1 -->
<svg width="513pt" height="118pt"
 viewBox="0.00 0.00 513.00 117.50" xmlns="http://www.w3.org/2000/svg" xmlns:xlink="http://www.w3.org/1999/xlink">
<g id="graph0" class="graph" transform="scale(1 1) rotate(0) translate(4 113.5)">
<title>Ra::Core::Geometry::PolyLine::projectOnSegment</title>
<polygon fill="white" stroke="none" points="-4,4 -4,-113.5 509,-113.5 509,4 -4,4"/>
<!-- Node1 -->
<g id="node1" class="node"><title>Node1</title>
<polygon fill="#bfbfbf" stroke="black" points="0,-24.5 0,-54.5 158,-54.5 158,-24.5 0,-24.5"/>
<text text-anchor="start" x="8" y="-42.5" font-family="Helvetica,sans-Serif" font-size="10.00">Ra::Core::Geometry</text>
<text text-anchor="middle" x="79" y="-31.5" font-family="Helvetica,sans-Serif" font-size="10.00">::PolyLine::projectOnSegment</text>
</g>
<!-- Node2 -->
<g id="node2" class="node"><title>Node2</title>
<g id="a_node2"><a xlink:href="namespaceRa_1_1Core_1_1Geometry.html#a749ee9e81862ef200b0b7540cc1f16bc" target="_top" xlink:title="Project point Q on segment AB defined by point A and vector AB = (B &#45;A). ">
<polygon fill="white" stroke="black" points="214,-49.5 214,-79.5 327,-79.5 327,-49.5 214,-49.5"/>
<text text-anchor="start" x="222" y="-67.5" font-family="Helvetica,sans-Serif" font-size="10.00">Ra::Core::Geometry</text>
<text text-anchor="middle" x="270.5" y="-56.5" font-family="Helvetica,sans-Serif" font-size="10.00">::projectOnSegment</text>
</a>
</g>
</g>
<!-- Node1&#45;&gt;Node2 -->
<g id="edge1" class="edge"><title>Node1&#45;&gt;Node2</title>
<path fill="none" stroke="midnightblue" d="M158.171,-49.8128C173.33,-51.8127 189.074,-53.8897 203.784,-55.8303"/>
<polygon fill="midnightblue" stroke="midnightblue" points="203.411,-59.3113 213.782,-57.1494 204.326,-52.3715 203.411,-59.3113"/>
</g>
<!-- Node5 -->
<g id="node5" class="node"><title>Node5</title>
<g id="a_node5"><a xlink:href="classRa_1_1Core_1_1Geometry_1_1PolyLine.html#a0a39e8afbbe12da750ec49276a3f9269" target="_top" xlink:title="Given a point on one of the segments identified by parameter tSegment in [0,1] and segment number...">
<polygon fill="white" stroke="black" points="194,-0.5 194,-30.5 347,-30.5 347,-0.5 194,-0.5"/>
<text text-anchor="start" x="202" y="-18.5" font-family="Helvetica,sans-Serif" font-size="10.00">Ra::Core::Geometry</text>
<text text-anchor="middle" x="270.5" y="-7.5" font-family="Helvetica,sans-Serif" font-size="10.00">::PolyLine::getLineParameter</text>
</a>
</g>
</g>
<!-- Node1&#45;&gt;Node5 -->
<g id="edge4" class="edge"><title>Node1&#45;&gt;Node5</title>
<path fill="none" stroke="midnightblue" d="M158.171,-29.5997C166.671,-28.5232 175.355,-27.4233 183.938,-26.3364"/>
<polygon fill="midnightblue" stroke="midnightblue" points="184.468,-29.7972 193.949,-25.0684 183.589,-22.8527 184.468,-29.7972"/>
</g>
<!-- Node3 -->
<g id="node3" class="node"><title>Node3</title>
<g id="a_node3"><a xlink:href="namespaceRa_1_1Core_1_1Math.html#acc9f6f3b880b60bf0ee7723afabaf180" target="_top" xlink:title="Component&#45;wise clamp() function on a floating&#45;point vector. ">
<polygon fill="white" stroke="black" points="383,-90 383,-109 505,-109 505,-90 383,-90"/>
<text text-anchor="middle" x="444" y="-97" font-family="Helvetica,sans-Serif" font-size="10.00">Ra::Core::Math::clamp</text>
</a>
</g>
</g>
<!-- Node2&#45;&gt;Node3 -->
<g id="edge2" class="edge"><title>Node2&#45;&gt;Node3</title>
<path fill="none" stroke="midnightblue" d="M327.181,-75.8635C346.084,-79.7212 367.218,-84.0344 386.207,-87.9095"/>
<polygon fill="midnightblue" stroke="midnightblue" points="385.713,-91.3809 396.211,-89.9513 387.113,-84.5223 385.713,-91.3809"/>
</g>
<!-- Node4 -->
<g id="node4" class="node"><title>Node4</title>
<g id="a_node4"><a xlink:href="namespaceOpenMesh.html#a575b338f0fc9ecb5393d23e977e6ac38" target="_top" xlink:title="OpenMesh::dot">
<polygon fill="white" stroke="black" points="399.5,-52 399.5,-71 488.5,-71 488.5,-52 399.5,-52"/>
<text text-anchor="middle" x="444" y="-59" font-family="Helvetica,sans-Serif" font-size="10.00">OpenMesh::dot</text>
</a>
</g>
</g>
<!-- Node2&#45;&gt;Node4 -->
<g id="edge3" class="edge"><title>Node2&#45;&gt;Node4</title>
<path fill="none" stroke="midnightblue" d="M327.181,-63.526C347.087,-63.1778 369.468,-62.7863 389.211,-62.4409"/>
<polygon fill="midnightblue" stroke="midnightblue" points="389.331,-65.9394 399.268,-62.265 389.209,-58.9405 389.331,-65.9394"/>
</g>
<!-- Node6 -->
<g id="node6" class="node"><title>Node6</title>
<g id="a_node6"><a xlink:href="classRa_1_1Core_1_1Geometry_1_1PolyLine.html#a2902446ee56d44c7ac8003e7b9335652" target="_top" xlink:title="Get the total length of the line . ">
<polygon fill="white" stroke="black" points="388.5,-0.5 388.5,-30.5 499.5,-30.5 499.5,-0.5 388.5,-0.5"/>
<text text-anchor="start" x="396.5" y="-18.5" font-family="Helvetica,sans-Serif" font-size="10.00">Ra::Core::Geometry</text>
<text text-anchor="middle" x="444" y="-7.5" font-family="Helvetica,sans-Serif" font-size="10.00">::PolyLine::length</text>
</a>
</g>
</g>
<!-- Node5&#45;&gt;Node6 -->
<g id="edge5" class="edge"><title>Node5&#45;&gt;Node6</title>
<path fill="none" stroke="midnightblue" d="M347.222,-15.5C357.478,-15.5 367.928,-15.5 377.974,-15.5"/>
<polygon fill="midnightblue" stroke="midnightblue" points="378.272,-19.0001 388.272,-15.5 378.272,-12.0001 378.272,-19.0001"/>
</g>
</g>
</svg>
