<?xml version="1.0" encoding="UTF-8" standalone="no"?>
<!DOCTYPE svg PUBLIC "-//W3C//DTD SVG 1.1//EN"
 "http://www.w3.org/Graphics/SVG/1.1/DTD/svg11.dtd">
<!-- Generated by graphviz version 2.38.0 (20140413.2041)
 -->
<!-- Title: MeshFeatureTrackingPlugin::MeshFeatureTrackingComponent::initialize Pages: 1 -->
<svg width="911pt" height="467pt"
 viewBox="0.00 0.00 911.00 467.00" xmlns="http://www.w3.org/2000/svg" xmlns:xlink="http://www.w3.org/1999/xlink">
<g id="graph0" class="graph" transform="scale(1 1) rotate(0) translate(4 463)">
<title>MeshFeatureTrackingPlugin::MeshFeatureTrackingComponent::initialize</title>
<polygon fill="white" stroke="none" points="-4,4 -4,-463 907,-463 907,4 -4,4"/>
<!-- Node1 -->
<g id="node1" class="node"><title>Node1</title>
<polygon fill="#bfbfbf" stroke="black" points="0,-142 0,-183 179,-183 179,-142 0,-142"/>
<text text-anchor="start" x="8" y="-171" font-family="Helvetica,sans-Serif" font-size="10.00">MeshFeatureTrackingPlugin</text>
<text text-anchor="start" x="8" y="-160" font-family="Helvetica,sans-Serif" font-size="10.00">::MeshFeatureTrackingComponent</text>
<text text-anchor="middle" x="89.5" y="-149" font-family="Helvetica,sans-Serif" font-size="10.00">::initialize</text>
</g>
<!-- Node2 -->
<g id="node2" class="node"><title>Node2</title>
<g id="a_node2"><a xlink:href="namespaceRa_1_1Core_1_1Geometry.html#a3924dd04a97acc1a70488f1898879528" target="_top" xlink:title="Create a parametric spherical mesh of given radius. Template parameters set the resolution. ">
<polygon fill="white" stroke="black" points="231,-312.5 231,-342.5 367,-342.5 367,-312.5 231,-312.5"/>
<text text-anchor="start" x="239" y="-330.5" font-family="Helvetica,sans-Serif" font-size="10.00">Ra::Core::Geometry</text>
<text text-anchor="middle" x="299" y="-319.5" font-family="Helvetica,sans-Serif" font-size="10.00">::makeParametricSphere</text>
</a>
</g>
</g>
<!-- Node1&#45;&gt;Node2 -->
<g id="edge1" class="edge"><title>Node1&#45;&gt;Node2</title>
<path fill="none" stroke="midnightblue" d="M108.298,-183.427C131.13,-209.396 172.838,-253.976 215,-284.5 226.953,-293.154 240.886,-301.085 253.885,-307.715"/>
<polygon fill="midnightblue" stroke="midnightblue" points="252.629,-310.999 263.143,-312.305 255.738,-304.727 252.629,-310.999"/>
</g>
<!-- Node13 -->
<g id="node13" class="node"><title>Node13</title>
<g id="a_node13"><a xlink:href="classRa_1_1Core_1_1Utils_1_1ColorBase.html#a54193413c10301c1edf46fc41fb09dfb" target="_top" xlink:title="Ra::Core::Utils::ColorBase\l\&lt; Scalar \&gt;::Green">
<polygon fill="white" stroke="black" points="229.5,-245.5 229.5,-275.5 368.5,-275.5 368.5,-245.5 229.5,-245.5"/>
<text text-anchor="start" x="237.5" y="-263.5" font-family="Helvetica,sans-Serif" font-size="10.00">Ra::Core::Utils::ColorBase</text>
<text text-anchor="middle" x="299" y="-252.5" font-family="Helvetica,sans-Serif" font-size="10.00">&lt; Scalar &gt;::Green</text>
</a>
</g>
</g>
<!-- Node1&#45;&gt;Node13 -->
<g id="edge15" class="edge"><title>Node1&#45;&gt;Node13</title>
<path fill="none" stroke="midnightblue" d="M120.882,-183.084C145.446,-199.035 181.356,-220.82 215,-235.5 220.39,-237.852 226.069,-240.068 231.822,-242.136"/>
<polygon fill="midnightblue" stroke="midnightblue" points="230.943,-245.535 241.537,-245.472 233.217,-238.914 230.943,-245.535"/>
</g>
<!-- Node14 -->
<g id="node14" class="node"><title>Node14</title>
<g id="a_node14"><a xlink:href="classRa_1_1Engine_1_1RenderObject.html#a5c19c3b781f875b033277849f22bc956" target="_top" xlink:title="Sort of factory method to easily create a render object. ">
<polygon fill="white" stroke="black" points="230.5,-196.5 230.5,-226.5 367.5,-226.5 367.5,-196.5 230.5,-196.5"/>
<text text-anchor="start" x="238.5" y="-214.5" font-family="Helvetica,sans-Serif" font-size="10.00">Ra::Engine::RenderObject</text>
<text text-anchor="middle" x="299" y="-203.5" font-family="Helvetica,sans-Serif" font-size="10.00">::createRenderObject</text>
</a>
</g>
</g>
<!-- Node1&#45;&gt;Node14 -->
<g id="edge16" class="edge"><title>Node1&#45;&gt;Node14</title>
<path fill="none" stroke="midnightblue" d="M177.597,-183.067C193.245,-186.763 209.412,-190.581 224.624,-194.173"/>
<polygon fill="midnightblue" stroke="midnightblue" points="223.931,-197.605 234.468,-196.497 225.54,-190.793 223.931,-197.605"/>
</g>
<!-- Node17 -->
<g id="node17" class="node"><title>Node17</title>
<g id="a_node17"><a xlink:href="classRa_1_1Engine_1_1RenderTechnique.html#a7d0c94a20081423baa758dd6e5b3f954" target="_top" xlink:title="Ra::Engine::RenderTechnique\l::createDefaultRenderTechnique">
<polygon fill="white" stroke="black" points="215,-147.5 215,-177.5 383,-177.5 383,-147.5 215,-147.5"/>
<text text-anchor="start" x="223" y="-165.5" font-family="Helvetica,sans-Serif" font-size="10.00">Ra::Engine::RenderTechnique</text>
<text text-anchor="middle" x="299" y="-154.5" font-family="Helvetica,sans-Serif" font-size="10.00">::createDefaultRenderTechnique</text>
</a>
</g>
</g>
<!-- Node1&#45;&gt;Node17 -->
<g id="edge19" class="edge"><title>Node1&#45;&gt;Node17</title>
<path fill="none" stroke="midnightblue" d="M179.101,-162.5C187.651,-162.5 196.342,-162.5 204.934,-162.5"/>
<polygon fill="midnightblue" stroke="midnightblue" points="204.961,-166 214.961,-162.5 204.961,-159 204.961,-166"/>
</g>
<!-- Node20 -->
<g id="node20" class="node"><title>Node20</title>
<g id="a_node20"><a xlink:href="classRa_1_1Engine_1_1RenderObject.html#ab80fe6e6565273eac1984ec6e213c354" target="_top" xlink:title="Ra::Engine::RenderObject\l::setPickable">
<polygon fill="white" stroke="black" points="230.5,-98.5 230.5,-128.5 367.5,-128.5 367.5,-98.5 230.5,-98.5"/>
<text text-anchor="start" x="238.5" y="-116.5" font-family="Helvetica,sans-Serif" font-size="10.00">Ra::Engine::RenderObject</text>
<text text-anchor="middle" x="299" y="-105.5" font-family="Helvetica,sans-Serif" font-size="10.00">::setPickable</text>
</a>
</g>
</g>
<!-- Node1&#45;&gt;Node20 -->
<g id="edge22" class="edge"><title>Node1&#45;&gt;Node20</title>
<path fill="none" stroke="midnightblue" d="M177.597,-141.933C193.245,-138.237 209.412,-134.419 224.624,-130.827"/>
<polygon fill="midnightblue" stroke="midnightblue" points="225.54,-134.207 234.468,-128.503 223.931,-127.395 225.54,-134.207"/>
</g>
<!-- Node21 -->
<g id="node21" class="node"><title>Node21</title>
<g id="a_node21"><a xlink:href="classRa_1_1Engine_1_1RenderObject.html#a62e0eb3a7de5a7d352b565a28260cc06" target="_top" xlink:title="Ra::Engine::RenderObject\l::setVisible">
<polygon fill="white" stroke="black" points="230.5,-49.5 230.5,-79.5 367.5,-79.5 367.5,-49.5 230.5,-49.5"/>
<text text-anchor="start" x="238.5" y="-67.5" font-family="Helvetica,sans-Serif" font-size="10.00">Ra::Engine::RenderObject</text>
<text text-anchor="middle" x="299" y="-56.5" font-family="Helvetica,sans-Serif" font-size="10.00">::setVisible</text>
</a>
</g>
</g>
<!-- Node1&#45;&gt;Node21 -->
<g id="edge23" class="edge"><title>Node1&#45;&gt;Node21</title>
<path fill="none" stroke="midnightblue" d="M120.296,-141.836C144.823,-125.565 180.969,-103.245 215,-88.5 219.613,-86.5012 224.441,-84.6145 229.348,-82.8446"/>
<polygon fill="midnightblue" stroke="midnightblue" points="230.524,-86.1416 238.847,-79.5865 228.252,-79.5202 230.524,-86.1416"/>
</g>
<!-- Node22 -->
<g id="node22" class="node"><title>Node22</title>
<g id="a_node22"><a xlink:href="classRa_1_1Engine_1_1Component.html#aea20d8186eb969b255cd83218a809178" target="_top" xlink:title="Add a new render object to the component. This adds the RO to the manager for drawing. ">
<polygon fill="white" stroke="black" points="234.5,-0.5 234.5,-30.5 363.5,-30.5 363.5,-0.5 234.5,-0.5"/>
<text text-anchor="start" x="242.5" y="-18.5" font-family="Helvetica,sans-Serif" font-size="10.00">Ra::Engine::Component</text>
<text text-anchor="middle" x="299" y="-7.5" font-family="Helvetica,sans-Serif" font-size="10.00">::addRenderObject</text>
</a>
</g>
</g>
<!-- Node1&#45;&gt;Node22 -->
<g id="edge24" class="edge"><title>Node1&#45;&gt;Node22</title>
<path fill="none" stroke="midnightblue" d="M105.862,-141.898C127.324,-114.545 168.872,-66.5527 215,-39.5 218.162,-37.6456 221.477,-35.9266 224.886,-34.3339"/>
<polygon fill="midnightblue" stroke="midnightblue" points="226.267,-37.55 234.092,-30.4071 223.521,-31.1112 226.267,-37.55"/>
</g>
<!-- Node3 -->
<g id="node3" class="node"><title>Node3</title>
<g id="a_node3"><a xlink:href="classRa_1_1Core_1_1Geometry_1_1TriangleMesh.html#a6ef9dbd18c0501f2ffd1316be6be56ce" target="_top" xlink:title="Access the vertices positions. ">
<polygon fill="white" stroke="black" points="635.5,-291.5 635.5,-321.5 763.5,-321.5 763.5,-291.5 635.5,-291.5"/>
<text text-anchor="start" x="643.5" y="-309.5" font-family="Helvetica,sans-Serif" font-size="10.00">Ra::Core::Geometry</text>
<text text-anchor="middle" x="699.5" y="-298.5" font-family="Helvetica,sans-Serif" font-size="10.00">::TriangleMesh::vertices</text>
</a>
</g>
</g>
<!-- Node2&#45;&gt;Node3 -->
<g id="edge2" class="edge"><title>Node2&#45;&gt;Node3</title>
<path fill="none" stroke="midnightblue" d="M367.149,-323.961C438.649,-320.194 551.454,-314.249 625.215,-310.362"/>
<polygon fill="midnightblue" stroke="midnightblue" points="625.554,-313.849 635.356,-309.828 625.186,-306.859 625.554,-313.849"/>
</g>
<!-- Node4 -->
<g id="node4" class="node"><title>Node4</title>
<g id="a_node4"><a xlink:href="classRa_1_1Core_1_1Geometry_1_1TriangleMesh.html#ad7d3f6272b902171740e50232ba56114" target="_top" xlink:title="Access the vertices normals. ">
<polygon fill="white" stroke="black" points="635,-428.5 635,-458.5 764,-458.5 764,-428.5 635,-428.5"/>
<text text-anchor="start" x="643" y="-446.5" font-family="Helvetica,sans-Serif" font-size="10.00">Ra::Core::Geometry</text>
<text text-anchor="middle" x="699.5" y="-435.5" font-family="Helvetica,sans-Serif" font-size="10.00">::TriangleMesh::normals</text>
</a>
</g>
</g>
<!-- Node2&#45;&gt;Node4 -->
<g id="edge3" class="edge"><title>Node2&#45;&gt;Node4</title>
<path fill="none" stroke="midnightblue" d="M315.329,-342.738C336.576,-362.807 377.115,-397.429 419,-413.5 485.41,-438.98 566.798,-445.171 624.583,-445.778"/>
<polygon fill="midnightblue" stroke="midnightblue" points="624.71,-449.278 634.728,-445.829 624.746,-442.278 624.71,-449.278"/>
</g>
<!-- Node5 -->
<g id="node5" class="node"><title>Node5</title>
<g id="a_node5"><a xlink:href="namespaceRa_1_1Core_1_1Math.html#a4f441ac6a56092d52849a4f48e274aa8" target="_top" xlink:title="Get the cosine of the angle between two vectors. ">
<polygon fill="white" stroke="black" points="452,-335 452,-354 562,-354 562,-335 452,-335"/>
<text text-anchor="middle" x="507" y="-342" font-family="Helvetica,sans-Serif" font-size="10.00">Ra::Core::Math::cos</text>
</a>
</g>
</g>
<!-- Node2&#45;&gt;Node5 -->
<g id="edge4" class="edge"><title>Node2&#45;&gt;Node5</title>
<path fill="none" stroke="midnightblue" d="M367.167,-333.043C391.207,-335.027 418.222,-337.256 441.988,-339.217"/>
<polygon fill="midnightblue" stroke="midnightblue" points="441.703,-342.706 451.957,-340.04 442.279,-335.729 441.703,-342.706"/>
</g>
<!-- Node6 -->
<g id="node6" class="node"><title>Node6</title>
<g id="a_node6"><a xlink:href="classRa_1_1Core_1_1Geometry_1_1TriangleMesh.html#a51b5e7d49d82ffa036306e28a42cd92b" target="_top" xlink:title="Utility function colorzing the mesh with a given color. Add the color attribute if needed...">
<polygon fill="white" stroke="black" points="443.5,-247.5 443.5,-277.5 570.5,-277.5 570.5,-247.5 443.5,-247.5"/>
<text text-anchor="start" x="451.5" y="-265.5" font-family="Helvetica,sans-Serif" font-size="10.00">Ra::Core::Geometry</text>
<text text-anchor="middle" x="507" y="-254.5" font-family="Helvetica,sans-Serif" font-size="10.00">::TriangleMesh::colorize</text>
</a>
</g>
</g>
<!-- Node2&#45;&gt;Node6 -->
<g id="edge5" class="edge"><title>Node2&#45;&gt;Node6</title>
<path fill="none" stroke="midnightblue" d="M347.778,-312.424C377.83,-302.942 416.787,-290.65 448.524,-280.635"/>
<polygon fill="midnightblue" stroke="midnightblue" points="449.641,-283.953 458.124,-277.606 447.535,-277.278 449.641,-283.953"/>
</g>
<!-- Node8 -->
<g id="node8" class="node"><title>Node8</title>
<g id="a_node8"><a xlink:href="classRa_1_1Core_1_1Geometry_1_1TriangleMesh.html#a0b294c697e094dcc62b3adb3c0ac16af" target="_top" xlink:title="Check that the mesh is well built, asserting when it is not. ">
<polygon fill="white" stroke="black" points="419,-373.5 419,-403.5 595,-403.5 595,-373.5 419,-373.5"/>
<text text-anchor="start" x="427" y="-391.5" font-family="Helvetica,sans-Serif" font-size="10.00">Ra::Core::Geometry</text>
<text text-anchor="middle" x="507" y="-380.5" font-family="Helvetica,sans-Serif" font-size="10.00">::TriangleMesh::checkConsistency</text>
</a>
</g>
</g>
<!-- Node2&#45;&gt;Node8 -->
<g id="edge8" class="edge"><title>Node2&#45;&gt;Node8</title>
<path fill="none" stroke="midnightblue" d="M349.167,-342.542C370.595,-349.054 396.02,-356.723 419,-363.5 426.823,-365.807 435.05,-368.206 443.195,-370.565"/>
<polygon fill="midnightblue" stroke="midnightblue" points="442.479,-374.002 453.057,-373.414 444.421,-367.276 442.479,-374.002"/>
</g>
<!-- Node6&#45;&gt;Node3 -->
<g id="edge7" class="edge"><title>Node6&#45;&gt;Node3</title>
<path fill="none" stroke="midnightblue" d="M570.641,-276.968C588.209,-281.026 607.46,-285.472 625.57,-289.655"/>
<polygon fill="midnightblue" stroke="midnightblue" points="624.965,-293.108 635.496,-291.948 626.54,-286.287 624.965,-293.108"/>
</g>
<!-- Node7 -->
<g id="node7" class="node"><title>Node7</title>
<g id="a_node7"><a xlink:href="classRa_1_1Core_1_1Geometry_1_1TriangleMesh.html#a209037ce5a11ec8539a9ada7ba763e8c" target="_top" xlink:title="Get attribute by handle. ">
<polygon fill="white" stroke="black" points="633.5,-242.5 633.5,-272.5 765.5,-272.5 765.5,-242.5 633.5,-242.5"/>
<text text-anchor="start" x="641.5" y="-260.5" font-family="Helvetica,sans-Serif" font-size="10.00">Ra::Core::Geometry</text>
<text text-anchor="middle" x="699.5" y="-249.5" font-family="Helvetica,sans-Serif" font-size="10.00">::TriangleMesh::getAttrib</text>
</a>
</g>
</g>
<!-- Node6&#45;&gt;Node7 -->
<g id="edge6" class="edge"><title>Node6&#45;&gt;Node7</title>
<path fill="none" stroke="midnightblue" d="M570.641,-260.856C587.411,-260.416 605.716,-259.935 623.098,-259.479"/>
<polygon fill="midnightblue" stroke="midnightblue" points="623.302,-262.975 633.207,-259.214 623.118,-255.977 623.302,-262.975"/>
</g>
<!-- Node8&#45;&gt;Node3 -->
<g id="edge9" class="edge"><title>Node8&#45;&gt;Node3</title>
<path fill="none" stroke="midnightblue" d="M572.968,-373.35C580.603,-370.552 588.116,-367.289 595,-363.5 613.753,-353.176 612.646,-342.519 631,-331.5 634.398,-329.46 637.991,-327.541 641.677,-325.746"/>
<polygon fill="midnightblue" stroke="midnightblue" points="643.31,-328.849 650.977,-321.537 640.423,-322.472 643.31,-328.849"/>
</g>
<!-- Node8&#45;&gt;Node4 -->
<g id="edge14" class="edge"><title>Node8&#45;&gt;Node4</title>
<path fill="none" stroke="midnightblue" d="M560.055,-403.529C583.785,-410.38 612.053,-418.541 636.84,-425.698"/>
<polygon fill="midnightblue" stroke="midnightblue" points="635.93,-429.078 646.508,-428.489 637.871,-422.353 635.93,-429.078"/>
</g>
<!-- Node9 -->
<g id="node9" class="node"><title>Node9</title>
<g id="a_node9"><a xlink:href="namespaceRa_1_1Core_1_1Geometry.html#aa04e6052d8911b1df1bd881474debb45" target="_top" xlink:title="Ra::Core::Geometry::t">
<polygon fill="white" stroke="black" points="639.5,-341 639.5,-360 759.5,-360 759.5,-341 639.5,-341"/>
<text text-anchor="middle" x="699.5" y="-348" font-family="Helvetica,sans-Serif" font-size="10.00">Ra::Core::Geometry::t</text>
</a>
</g>
</g>
<!-- Node8&#45;&gt;Node9 -->
<g id="edge10" class="edge"><title>Node8&#45;&gt;Node9</title>
<path fill="none" stroke="midnightblue" d="M583.291,-373.481C602.508,-369.648 622.86,-365.588 641.025,-361.965"/>
<polygon fill="midnightblue" stroke="midnightblue" points="641.748,-365.39 650.87,-360.001 640.379,-358.525 641.748,-365.39"/>
</g>
<!-- Node10 -->
<g id="node10" class="node"><title>Node10</title>
<g id="a_node10"><a xlink:href="namespaceRa_1_1Core_1_1Geometry.html#a178f2b7309fe2ea5bc31a3abcb25368e" target="_top" xlink:title="Ra::Core::Geometry\l::triangleArea">
<polygon fill="white" stroke="black" points="644,-379.5 644,-409.5 755,-409.5 755,-379.5 644,-379.5"/>
<text text-anchor="start" x="652" y="-397.5" font-family="Helvetica,sans-Serif" font-size="10.00">Ra::Core::Geometry</text>
<text text-anchor="middle" x="699.5" y="-386.5" font-family="Helvetica,sans-Serif" font-size="10.00">::triangleArea</text>
</a>
</g>
</g>
<!-- Node8&#45;&gt;Node10 -->
<g id="edge11" class="edge"><title>Node8&#45;&gt;Node10</title>
<path fill="none" stroke="midnightblue" d="M595.166,-391.245C608.101,-391.653 621.237,-392.067 633.609,-392.456"/>
<polygon fill="midnightblue" stroke="midnightblue" points="633.696,-395.961 643.801,-392.777 633.916,-388.964 633.696,-395.961"/>
</g>
<!-- Node11 -->
<g id="node11" class="node"><title>Node11</title>
<g id="a_node11"><a xlink:href="namespaceOpenMesh.html#a71e7f1dd3eac016d2b8245ac408a291c" target="_top" xlink:title="OpenMesh::cross">
<polygon fill="white" stroke="black" points="804,-404 804,-423 903,-423 903,-404 804,-404"/>
<text text-anchor="middle" x="853.5" y="-411" font-family="Helvetica,sans-Serif" font-size="10.00">OpenMesh::cross</text>
</a>
</g>
</g>
<!-- Node10&#45;&gt;Node11 -->
<g id="edge12" class="edge"><title>Node10&#45;&gt;Node11</title>
<path fill="none" stroke="midnightblue" d="M755.375,-401.359C767.856,-402.919 781.162,-404.583 793.795,-406.162"/>
<polygon fill="midnightblue" stroke="midnightblue" points="793.396,-409.639 803.753,-407.407 794.264,-402.693 793.396,-409.639"/>
</g>
<!-- Node12 -->
<g id="node12" class="node"><title>Node12</title>
<g id="a_node12"><a xlink:href="namespaceOpenMesh.html#a8205f789ce08919bc11c58383574596c" target="_top" xlink:title="OpenMesh::norm">
<polygon fill="white" stroke="black" points="804,-366 804,-385 903,-385 903,-366 804,-366"/>
<text text-anchor="middle" x="853.5" y="-373" font-family="Helvetica,sans-Serif" font-size="10.00">OpenMesh::norm</text>
</a>
</g>
</g>
<!-- Node10&#45;&gt;Node12 -->
<g id="edge13" class="edge"><title>Node10&#45;&gt;Node12</title>
<path fill="none" stroke="midnightblue" d="M755.375,-387.641C767.856,-386.081 781.162,-384.417 793.795,-382.838"/>
<polygon fill="midnightblue" stroke="midnightblue" points="794.264,-386.307 803.753,-381.593 793.396,-379.361 794.264,-386.307"/>
</g>
<!-- Node15 -->
<g id="node15" class="node"><title>Node15</title>
<g id="a_node15"><a xlink:href="classRa_1_1Engine_1_1RenderObject.html#acf300c8fdb55fee54d27b3fb46a1e523" target="_top" xlink:title="A &#45;1 (or any other negative value) lifetime is considered infinite, 0 is an &quot;invalid value&quot; (would me...">
<polygon fill="white" stroke="black" points="438.5,-196.5 438.5,-226.5 575.5,-226.5 575.5,-196.5 438.5,-196.5"/>
<text text-anchor="start" x="446.5" y="-214.5" font-family="Helvetica,sans-Serif" font-size="10.00">Ra::Engine::RenderObject</text>
<text text-anchor="middle" x="507" y="-203.5" font-family="Helvetica,sans-Serif" font-size="10.00">::RenderObject</text>
</a>
</g>
</g>
<!-- Node14&#45;&gt;Node15 -->
<g id="edge17" class="edge"><title>Node14&#45;&gt;Node15</title>
<path fill="none" stroke="midnightblue" d="M367.737,-211.5C387.011,-211.5 408.157,-211.5 427.988,-211.5"/>
<polygon fill="midnightblue" stroke="midnightblue" points="428.222,-215 438.222,-211.5 428.222,-208 428.222,-215"/>
</g>
<!-- Node16 -->
<g id="node16" class="node"><title>Node16</title>
<g id="a_node16"><a xlink:href="classRa_1_1Engine_1_1RenderObject.html#a8ea17931e62bea93890d44815bf7fcf5" target="_top" xlink:title="Ra::Engine::RenderObject\l::~RenderObject">
<polygon fill="white" stroke="black" points="631,-193.5 631,-223.5 768,-223.5 768,-193.5 631,-193.5"/>
<text text-anchor="start" x="639" y="-211.5" font-family="Helvetica,sans-Serif" font-size="10.00">Ra::Engine::RenderObject</text>
<text text-anchor="middle" x="699.5" y="-200.5" font-family="Helvetica,sans-Serif" font-size="10.00">::~RenderObject</text>
</a>
</g>
</g>
<!-- Node15&#45;&gt;Node16 -->
<g id="edge18" class="edge"><title>Node15&#45;&gt;Node16</title>
<path fill="none" stroke="midnightblue" d="M575.7,-210.434C590.21,-210.205 605.655,-209.962 620.519,-209.728"/>
<polygon fill="midnightblue" stroke="midnightblue" points="620.754,-213.225 630.698,-209.568 620.644,-206.226 620.754,-213.225"/>
</g>
<!-- Node18 -->
<g id="node18" class="node"><title>Node18</title>
<g id="a_node18"><a xlink:href="classRa_1_1Engine_1_1RenderTechnique.html#a9bddcd20723ee582fd81c363b9148cf9" target="_top" xlink:title="Ra::Engine::RenderTechnique\l::setMaterial">
<polygon fill="white" stroke="black" points="430.5,-147.5 430.5,-177.5 583.5,-177.5 583.5,-147.5 430.5,-147.5"/>
<text text-anchor="start" x="438.5" y="-165.5" font-family="Helvetica,sans-Serif" font-size="10.00">Ra::Engine::RenderTechnique</text>
<text text-anchor="middle" x="507" y="-154.5" font-family="Helvetica,sans-Serif" font-size="10.00">::setMaterial</text>
</a>
</g>
</g>
<!-- Node17&#45;&gt;Node18 -->
<g id="edge20" class="edge"><title>Node17&#45;&gt;Node18</title>
<path fill="none" stroke="midnightblue" d="M383.194,-162.5C395.408,-162.5 408.007,-162.5 420.27,-162.5"/>
<polygon fill="midnightblue" stroke="midnightblue" points="420.477,-166 430.477,-162.5 420.477,-159 420.477,-166"/>
</g>
<!-- Node19 -->
<g id="node19" class="node"><title>Node19</title>
<g id="a_node19"><a xlink:href="namespaceRa_1_1Engine_1_1EngineRenderTechniques.html#a5e831d5088144082e9bd3828323aa57a" target="_top" xlink:title="Ra::Engine::EngineRender\lTechniques::getDefaultTechnique">
<polygon fill="white" stroke="black" points="420.5,-98.5 420.5,-128.5 593.5,-128.5 593.5,-98.5 420.5,-98.5"/>
<text text-anchor="start" x="428.5" y="-116.5" font-family="Helvetica,sans-Serif" font-size="10.00">Ra::Engine::EngineRender</text>
<text text-anchor="middle" x="507" y="-105.5" font-family="Helvetica,sans-Serif" font-size="10.00">Techniques::getDefaultTechnique</text>
</a>
</g>
</g>
<!-- Node17&#45;&gt;Node19 -->
<g id="edge21" class="edge"><title>Node17&#45;&gt;Node19</title>
<path fill="none" stroke="midnightblue" d="M363.207,-147.465C385.254,-142.221 410.176,-136.293 432.956,-130.874"/>
<polygon fill="midnightblue" stroke="midnightblue" points="433.994,-134.225 442.913,-128.506 432.374,-127.415 433.994,-134.225"/>
</g>
<!-- Node23 -->
<g id="node23" class="node"><title>Node23</title>
<g id="a_node23"><a xlink:href="classRa_1_1Engine_1_1Component.html#a10b0bc182b76165744ebea603ae32dfe" target="_top" xlink:title="Shortcut to access the render object manager. ">
<polygon fill="white" stroke="black" points="442.5,-0.5 442.5,-30.5 571.5,-30.5 571.5,-0.5 442.5,-0.5"/>
<text text-anchor="start" x="450.5" y="-18.5" font-family="Helvetica,sans-Serif" font-size="10.00">Ra::Engine::Component</text>
<text text-anchor="middle" x="507" y="-7.5" font-family="Helvetica,sans-Serif" font-size="10.00">::getRoMgr</text>
</a>
</g>
</g>
<!-- Node22&#45;&gt;Node23 -->
<g id="edge25" class="edge"><title>Node22&#45;&gt;Node23</title>
<path fill="none" stroke="midnightblue" d="M363.769,-15.5C385.39,-15.5 409.723,-15.5 432.068,-15.5"/>
<polygon fill="midnightblue" stroke="midnightblue" points="432.178,-19.0001 442.178,-15.5 432.178,-12.0001 432.178,-19.0001"/>
</g>
</g>
</svg>
