<?xml version="1.0" encoding="UTF-8" standalone="no"?>
<!DOCTYPE svg PUBLIC "-//W3C//DTD SVG 1.1//EN"
 "http://www.w3.org/Graphics/SVG/1.1/DTD/svg11.dtd">
<!-- Generated by graphviz version 2.38.0 (20140413.2041)
 -->
<!-- Title: CameraManipPlugin::CameraManipPluginC::saveCamera Pages: 1 -->
<svg width="320pt" height="137pt"
 viewBox="0.00 0.00 320.00 137.00" xmlns="http://www.w3.org/2000/svg" xmlns:xlink="http://www.w3.org/1999/xlink">
<g id="graph0" class="graph" transform="scale(1 1) rotate(0) translate(4 133)">
<title>CameraManipPlugin::CameraManipPluginC::saveCamera</title>
<polygon fill="white" stroke="none" points="-4,4 -4,-133 316,-133 316,4 -4,4"/>
<!-- Node1 -->
<g id="node1" class="node"><title>Node1</title>
<polygon fill="#bfbfbf" stroke="black" points="0,-44 0,-85 125,-85 125,-44 0,-44"/>
<text text-anchor="start" x="8" y="-73" font-family="Helvetica,sans-Serif" font-size="10.00">CameraManipPlugin::</text>
<text text-anchor="start" x="8" y="-62" font-family="Helvetica,sans-Serif" font-size="10.00">CameraManipPluginC::</text>
<text text-anchor="middle" x="62.5" y="-51" font-family="Helvetica,sans-Serif" font-size="10.00">saveCamera</text>
</g>
<!-- Node2 -->
<g id="node2" class="node"><title>Node2</title>
<g id="a_node2"><a xlink:href="classRa_1_1Gui_1_1Viewer.html#abd94acd8d3999771e1b7536c5e210f80" target="_top" xlink:title="Access to camera interface. ">
<polygon fill="white" stroke="black" points="162.5,-98.5 162.5,-128.5 310.5,-128.5 310.5,-98.5 162.5,-98.5"/>
<text text-anchor="start" x="170.5" y="-116.5" font-family="Helvetica,sans-Serif" font-size="10.00">Ra::Gui::Viewer::getCamera</text>
<text text-anchor="middle" x="236.5" y="-105.5" font-family="Helvetica,sans-Serif" font-size="10.00">Manipulator</text>
</a>
</g>
</g>
<!-- Node1&#45;&gt;Node2 -->
<g id="edge1" class="edge"><title>Node1&#45;&gt;Node2</title>
<path fill="none" stroke="midnightblue" d="M125.11,-82.0517C140.608,-86.4669 157.259,-91.2104 172.809,-95.6404"/>
<polygon fill="midnightblue" stroke="midnightblue" points="172.27,-99.126 182.846,-98.4998 174.188,-92.3938 172.27,-99.126"/>
</g>
<!-- Node3 -->
<g id="node3" class="node"><title>Node3</title>
<g id="a_node3"><a xlink:href="classRa_1_1Gui_1_1CameraManipulator.html#a1166d807b9d04c05aecf3b1de8c89150" target="_top" xlink:title="Pointer access to the camera. ">
<polygon fill="white" stroke="black" points="161,-49.5 161,-79.5 312,-79.5 312,-49.5 161,-49.5"/>
<text text-anchor="start" x="169" y="-67.5" font-family="Helvetica,sans-Serif" font-size="10.00">Ra::Gui::CameraManipulator</text>
<text text-anchor="middle" x="236.5" y="-56.5" font-family="Helvetica,sans-Serif" font-size="10.00">::getCamera</text>
</a>
</g>
</g>
<!-- Node1&#45;&gt;Node3 -->
<g id="edge2" class="edge"><title>Node1&#45;&gt;Node3</title>
<path fill="none" stroke="midnightblue" d="M125.11,-64.5C133.424,-64.5 142.07,-64.5 150.699,-64.5"/>
<polygon fill="midnightblue" stroke="midnightblue" points="150.801,-68.0001 160.801,-64.5 150.801,-61.0001 150.801,-68.0001"/>
</g>
<!-- Node4 -->
<g id="node4" class="node"><title>Node4</title>
<g id="a_node4"><a xlink:href="classRa_1_1Engine_1_1Camera.html#ab7995c83701d0186160eb02b176ecbac" target="_top" xlink:title="Return the projection type. ">
<polygon fill="white" stroke="black" points="181,-0.5 181,-30.5 292,-30.5 292,-0.5 181,-0.5"/>
<text text-anchor="start" x="189" y="-18.5" font-family="Helvetica,sans-Serif" font-size="10.00">Ra::Engine::Camera</text>
<text text-anchor="middle" x="236.5" y="-7.5" font-family="Helvetica,sans-Serif" font-size="10.00">::getType</text>
</a>
</g>
</g>
<!-- Node1&#45;&gt;Node4 -->
<g id="edge3" class="edge"><title>Node1&#45;&gt;Node4</title>
<path fill="none" stroke="midnightblue" d="M125.11,-46.9483C140.608,-42.5331 157.259,-37.7896 172.809,-33.3596"/>
<polygon fill="midnightblue" stroke="midnightblue" points="174.188,-36.6062 182.846,-30.5002 172.27,-29.874 174.188,-36.6062"/>
</g>
</g>
</svg>
