<?xml version="1.0" encoding="UTF-8" standalone="no"?>
<!DOCTYPE svg PUBLIC "-//W3C//DTD SVG 1.1//EN"
 "http://www.w3.org/Graphics/SVG/1.1/DTD/svg11.dtd">
<!-- Generated by graphviz version 2.38.0 (20140413.2041)
 -->
<!-- Title: MeshFeatureTrackingPlugin::MeshFeatureTrackingComponent::getMaxT Pages: 1 -->
<svg width="891pt" height="102pt"
 viewBox="0.00 0.00 891.00 101.50" xmlns="http://www.w3.org/2000/svg" xmlns:xlink="http://www.w3.org/1999/xlink">
<g id="graph0" class="graph" transform="scale(1 1) rotate(0) translate(4 97.5)">
<title>MeshFeatureTrackingPlugin::MeshFeatureTrackingComponent::getMaxT</title>
<polygon fill="white" stroke="none" points="-4,4 -4,-97.5 887,-97.5 887,4 -4,4"/>
<!-- Node1 -->
<g id="node1" class="node"><title>Node1</title>
<polygon fill="#bfbfbf" stroke="black" points="0,-32.5 0,-73.5 179,-73.5 179,-32.5 0,-32.5"/>
<text text-anchor="start" x="8" y="-61.5" font-family="Helvetica,sans-Serif" font-size="10.00">MeshFeatureTrackingPlugin</text>
<text text-anchor="start" x="8" y="-50.5" font-family="Helvetica,sans-Serif" font-size="10.00">::MeshFeatureTrackingComponent</text>
<text text-anchor="middle" x="89.5" y="-39.5" font-family="Helvetica,sans-Serif" font-size="10.00">::getMaxT</text>
</g>
<!-- Node2 -->
<g id="node2" class="node"><title>Node2</title>
<g id="a_node2"><a xlink:href="classRa_1_1Engine_1_1Component.html#a10b0bc182b76165744ebea603ae32dfe" target="_top" xlink:title="Shortcut to access the render object manager. ">
<polygon fill="white" stroke="black" points="222,-63 222,-93 351,-93 351,-63 222,-63"/>
<text text-anchor="start" x="230" y="-81" font-family="Helvetica,sans-Serif" font-size="10.00">Ra::Engine::Component</text>
<text text-anchor="middle" x="286.5" y="-70" font-family="Helvetica,sans-Serif" font-size="10.00">::getRoMgr</text>
</a>
</g>
</g>
<!-- Node1&#45;&gt;Node2 -->
<g id="edge1" class="edge"><title>Node1&#45;&gt;Node2</title>
<path fill="none" stroke="midnightblue" d="M179.156,-64.3661C190.059,-65.7639 201.11,-67.1808 211.759,-68.546"/>
<polygon fill="midnightblue" stroke="midnightblue" points="211.463,-72.0367 221.827,-69.8368 212.354,-65.0935 211.463,-72.0367"/>
</g>
<!-- Node3 -->
<g id="node3" class="node"><title>Node3</title>
<g id="a_node3"><a xlink:href="classRa_1_1Engine_1_1Mesh.html#a42d52db86eb855dda07e2349ad0dce41" target="_top" xlink:title="Ra::Engine::Mesh::getNum\lFaces">
<polygon fill="white" stroke="black" points="215,-14 215,-44 358,-44 358,-14 215,-14"/>
<text text-anchor="start" x="223" y="-32" font-family="Helvetica,sans-Serif" font-size="10.00">Ra::Engine::Mesh::getNum</text>
<text text-anchor="middle" x="286.5" y="-21" font-family="Helvetica,sans-Serif" font-size="10.00">Faces</text>
</a>
</g>
</g>
<!-- Node1&#45;&gt;Node3 -->
<g id="edge2" class="edge"><title>Node1&#45;&gt;Node3</title>
<path fill="none" stroke="midnightblue" d="M179.156,-42.0885C187.668,-41.0409 196.27,-39.9822 204.701,-38.9445"/>
<polygon fill="midnightblue" stroke="midnightblue" points="205.384,-42.3869 214.881,-37.6915 204.529,-35.4394 205.384,-42.3869"/>
</g>
<!-- Node4 -->
<g id="node4" class="node"><title>Node4</title>
<g id="a_node4"><a xlink:href="classRa_1_1Engine_1_1Mesh.html#a7dd9018e643becd20e714a54cf6664db" target="_top" xlink:title="Ra::Engine::Mesh::getRenderMode">
<polygon fill="white" stroke="black" points="395.5,-38.5 395.5,-57.5 574.5,-57.5 574.5,-38.5 395.5,-38.5"/>
<text text-anchor="middle" x="485" y="-45.5" font-family="Helvetica,sans-Serif" font-size="10.00">Ra::Engine::Mesh::getRenderMode</text>
</a>
</g>
</g>
<!-- Node3&#45;&gt;Node4 -->
<g id="edge3" class="edge"><title>Node3&#45;&gt;Node4</title>
<path fill="none" stroke="midnightblue" d="M358.163,-35.8326C367.052,-36.692 376.268,-37.5831 385.487,-38.4745"/>
<polygon fill="midnightblue" stroke="midnightblue" points="385.186,-41.9617 395.476,-39.4405 385.86,-34.9942 385.186,-41.9617"/>
</g>
<!-- Node7 -->
<g id="node7" class="node"><title>Node7</title>
<g id="a_node7"><a xlink:href="classRa_1_1Engine_1_1Mesh.html#aeb1eb176c4ac5a045a80b97a5e09e07e" target="_top" xlink:title="Returns the underlying TriangleMesh. ">
<polygon fill="white" stroke="black" points="394,-0.5 394,-19.5 576,-19.5 576,-0.5 394,-0.5"/>
<text text-anchor="middle" x="485" y="-7.5" font-family="Helvetica,sans-Serif" font-size="10.00">Ra::Engine::Mesh::getTriangleMesh</text>
</a>
</g>
</g>
<!-- Node3&#45;&gt;Node7 -->
<g id="edge6" class="edge"><title>Node3&#45;&gt;Node7</title>
<path fill="none" stroke="midnightblue" d="M358.163,-22.1674C366.467,-21.3645 375.057,-20.5339 383.668,-19.7013"/>
<polygon fill="midnightblue" stroke="midnightblue" points="384.154,-23.1707 393.771,-18.7245 383.48,-16.2032 384.154,-23.1707"/>
</g>
<!-- Node5 -->
<g id="node5" class="node"><title>Node5</title>
<g id="a_node5"><a xlink:href="namespaceRa_1_1Core_1_1Containers.html#a83257c42de08d550fe2081a5d8a13331" target="_top" xlink:title="Stores a 3&#45;dimensional hierarchy of meshes of arbitrary type. ">
<polygon fill="white" stroke="black" points="612,-33 612,-63 727,-63 727,-33 612,-33"/>
<text text-anchor="start" x="620" y="-51" font-family="Helvetica,sans-Serif" font-size="10.00">Ra::Core::Containers</text>
<text text-anchor="middle" x="669.5" y="-40" font-family="Helvetica,sans-Serif" font-size="10.00">::deprecated</text>
</a>
</g>
</g>
<!-- Node4&#45;&gt;Node5 -->
<g id="edge4" class="edge"><title>Node4&#45;&gt;Node5</title>
<path fill="none" stroke="midnightblue" d="M574.577,-48C583.715,-48 592.89,-48 601.733,-48"/>
<polygon fill="midnightblue" stroke="midnightblue" points="601.939,-51.5001 611.939,-48 601.939,-44.5001 601.939,-51.5001"/>
</g>
<!-- Node6 -->
<g id="node6" class="node"><title>Node6</title>
<g id="a_node6"><a xlink:href="namespaceRa_1_1Core_1_1Geometry.html#aa04e6052d8911b1df1bd881474debb45" target="_top" xlink:title="Ra::Core::Geometry::t">
<polygon fill="white" stroke="black" points="763,-38.5 763,-57.5 883,-57.5 883,-38.5 763,-38.5"/>
<text text-anchor="middle" x="823" y="-45.5" font-family="Helvetica,sans-Serif" font-size="10.00">Ra::Core::Geometry::t</text>
</a>
</g>
</g>
<!-- Node5&#45;&gt;Node6 -->
<g id="edge5" class="edge"><title>Node5&#45;&gt;Node6</title>
<path fill="none" stroke="midnightblue" d="M727.344,-48C735.582,-48 744.138,-48 752.588,-48"/>
<polygon fill="midnightblue" stroke="midnightblue" points="752.814,-51.5001 762.814,-48 752.814,-44.5001 752.814,-51.5001"/>
</g>
</g>
</svg>
