<?xml version="1.0" encoding="UTF-8" standalone="no"?>
<!DOCTYPE svg PUBLIC "-//W3C//DTD SVG 1.1//EN"
 "http://www.w3.org/Graphics/SVG/1.1/DTD/svg11.dtd">
<!-- Generated by graphviz version 2.38.0 (20140413.2041)
 -->
<!-- Title: SkinningPlugin::SkinningWidget::setCurrent Pages: 1 -->
<svg width="332pt" height="88pt"
 viewBox="0.00 0.00 332.00 88.00" xmlns="http://www.w3.org/2000/svg" xmlns:xlink="http://www.w3.org/1999/xlink">
<g id="graph0" class="graph" transform="scale(1 1) rotate(0) translate(4 84)">
<title>SkinningPlugin::SkinningWidget::setCurrent</title>
<polygon fill="white" stroke="none" points="-4,4 -4,-84 328,-84 328,4 -4,4"/>
<!-- Node1 -->
<g id="node1" class="node"><title>Node1</title>
<polygon fill="#bfbfbf" stroke="black" points="0,-24.5 0,-54.5 132,-54.5 132,-24.5 0,-24.5"/>
<text text-anchor="start" x="8" y="-42.5" font-family="Helvetica,sans-Serif" font-size="10.00">SkinningPlugin::Skinning</text>
<text text-anchor="middle" x="66" y="-31.5" font-family="Helvetica,sans-Serif" font-size="10.00">Widget::setCurrent</text>
</g>
<!-- Node2 -->
<g id="node2" class="node"><title>Node2</title>
<g id="a_node2"><a xlink:href="classSkinningPlugin_1_1SkinningComponent.html#a412042af255abac6143f258152167a44" target="_top" xlink:title="SkinningPlugin::Skinning\lComponent::getSkinningType">
<polygon fill="white" stroke="black" points="168,-49.5 168,-79.5 324,-79.5 324,-49.5 168,-49.5"/>
<text text-anchor="start" x="176" y="-67.5" font-family="Helvetica,sans-Serif" font-size="10.00">SkinningPlugin::Skinning</text>
<text text-anchor="middle" x="246" y="-56.5" font-family="Helvetica,sans-Serif" font-size="10.00">Component::getSkinningType</text>
</a>
</g>
</g>
<!-- Node1&#45;&gt;Node2 -->
<g id="edge1" class="edge"><title>Node1&#45;&gt;Node2</title>
<path fill="none" stroke="midnightblue" d="M132.018,-48.6317C140.369,-49.8047 149.025,-51.0204 157.66,-52.2332"/>
<polygon fill="midnightblue" stroke="midnightblue" points="157.379,-55.7279 167.768,-53.6529 158.352,-48.796 157.379,-55.7279"/>
</g>
<!-- Node3 -->
<g id="node3" class="node"><title>Node3</title>
<g id="a_node3"><a xlink:href="classSkinningPlugin_1_1SkinningComponent.html#a9da330b1356de267daf5ac3ba1400d22" target="_top" xlink:title="Sets the Skinning method to use. ">
<polygon fill="white" stroke="black" points="168.5,-0.5 168.5,-30.5 323.5,-30.5 323.5,-0.5 168.5,-0.5"/>
<text text-anchor="start" x="176.5" y="-18.5" font-family="Helvetica,sans-Serif" font-size="10.00">SkinningPlugin::Skinning</text>
<text text-anchor="middle" x="246" y="-7.5" font-family="Helvetica,sans-Serif" font-size="10.00">Component::setSkinningType</text>
</a>
</g>
</g>
<!-- Node1&#45;&gt;Node3 -->
<g id="edge2" class="edge"><title>Node1&#45;&gt;Node3</title>
<path fill="none" stroke="midnightblue" d="M132.018,-30.7336C140.604,-29.5758 149.513,-28.3747 158.39,-27.1778"/>
<polygon fill="midnightblue" stroke="midnightblue" points="158.937,-30.6358 168.38,-25.8309 158.001,-23.6985 158.937,-30.6358"/>
</g>
</g>
</svg>
