<?xml version="1.0" encoding="UTF-8" standalone="no"?>
<!DOCTYPE svg PUBLIC "-//W3C//DTD SVG 1.1//EN"
 "http://www.w3.org/Graphics/SVG/1.1/DTD/svg11.dtd">
<!-- Generated by graphviz version 2.38.0 (20140413.2041)
 -->
<!-- Title: SkinningPlugin::SkinningComponent::skin Pages: 1 -->
<svg width="974pt" height="400pt"
 viewBox="0.00 0.00 974.00 400.00" xmlns="http://www.w3.org/2000/svg" xmlns:xlink="http://www.w3.org/1999/xlink">
<g id="graph0" class="graph" transform="scale(1 1) rotate(0) translate(4 396)">
<title>SkinningPlugin::SkinningComponent::skin</title>
<polygon fill="white" stroke="none" points="-4,4 -4,-396 970,-396 970,4 -4,4"/>
<!-- Node1 -->
<g id="node1" class="node"><title>Node1</title>
<polygon fill="#bfbfbf" stroke="black" points="0,-175.5 0,-205.5 132,-205.5 132,-175.5 0,-175.5"/>
<text text-anchor="start" x="8" y="-193.5" font-family="Helvetica,sans-Serif" font-size="10.00">SkinningPlugin::Skinning</text>
<text text-anchor="middle" x="66" y="-182.5" font-family="Helvetica,sans-Serif" font-size="10.00">Component::skin</text>
</g>
<!-- Node2 -->
<g id="node2" class="node"><title>Node2</title>
<g id="a_node2"><a xlink:href="classRa_1_1Core_1_1Animation_1_1Skeleton.html#acb6381c3f288f580800589eb718c1759" target="_top" xlink:title="Ra::Core::Animation\l::Skeleton::getPose">
<polygon fill="white" stroke="black" points="183,-361.5 183,-391.5 295,-391.5 295,-361.5 183,-361.5"/>
<text text-anchor="start" x="191" y="-379.5" font-family="Helvetica,sans-Serif" font-size="10.00">Ra::Core::Animation</text>
<text text-anchor="middle" x="239" y="-368.5" font-family="Helvetica,sans-Serif" font-size="10.00">::Skeleton::getPose</text>
</a>
</g>
</g>
<!-- Node1&#45;&gt;Node2 -->
<g id="edge1" class="edge"><title>Node1&#45;&gt;Node2</title>
<path fill="none" stroke="midnightblue" d="M72.4779,-205.872C84.634,-237.836 116.896,-311.862 168,-352.5 169.838,-353.962 171.771,-355.337 173.775,-356.631"/>
<polygon fill="midnightblue" stroke="midnightblue" points="172.519,-359.941 182.95,-361.797 175.954,-353.841 172.519,-359.941"/>
</g>
<!-- Node3 -->
<g id="node3" class="node"><title>Node3</title>
<g id="a_node3"><a xlink:href="namespaceRa_1_1Core_1_1Animation.html#a11c1b81e9ee797fa8989a34dc2514d2f" target="_top" xlink:title="Ra::Core::Animation\l::areEqual">
<polygon fill="white" stroke="black" points="183,-263.5 183,-293.5 295,-293.5 295,-263.5 183,-263.5"/>
<text text-anchor="start" x="191" y="-281.5" font-family="Helvetica,sans-Serif" font-size="10.00">Ra::Core::Animation</text>
<text text-anchor="middle" x="239" y="-270.5" font-family="Helvetica,sans-Serif" font-size="10.00">::areEqual</text>
</a>
</g>
</g>
<!-- Node1&#45;&gt;Node3 -->
<g id="edge2" class="edge"><title>Node1&#45;&gt;Node3</title>
<path fill="none" stroke="midnightblue" d="M91.4647,-205.621C111.652,-217.835 141.226,-235.132 168,-248.5 175.401,-252.195 183.365,-255.876 191.175,-259.329"/>
<polygon fill="midnightblue" stroke="midnightblue" points="190.011,-262.639 200.577,-263.413 192.8,-256.218 190.011,-262.639"/>
</g>
<!-- Node5 -->
<g id="node5" class="node"><title>Node5</title>
<g id="a_node5"><a xlink:href="namespaceRa_1_1Core_1_1Animation.html#a03d7eb179bf339237a3e5b06d6d06100" target="_top" xlink:title="Ra::Core::Animation\l::relativePose">
<polygon fill="white" stroke="black" points="183,-312.5 183,-342.5 295,-342.5 295,-312.5 183,-312.5"/>
<text text-anchor="start" x="191" y="-330.5" font-family="Helvetica,sans-Serif" font-size="10.00">Ra::Core::Animation</text>
<text text-anchor="middle" x="239" y="-319.5" font-family="Helvetica,sans-Serif" font-size="10.00">::relativePose</text>
</a>
</g>
</g>
<!-- Node1&#45;&gt;Node5 -->
<g id="edge4" class="edge"><title>Node1&#45;&gt;Node5</title>
<path fill="none" stroke="midnightblue" d="M76.6377,-205.544C92.7564,-229.559 127.44,-276.586 168,-303.5 170.409,-305.098 172.935,-306.601 175.539,-308.013"/>
<polygon fill="midnightblue" stroke="midnightblue" points="174.116,-311.213 184.636,-312.468 177.194,-304.926 174.116,-311.213"/>
</g>
<!-- Node6 -->
<g id="node6" class="node"><title>Node6</title>
<g id="a_node6"><a xlink:href="namespaceRa_1_1Core_1_1Animation.html#a19bc7bcc26d8a3662f182f6d9a61764d" target="_top" xlink:title="Ra::Core::Animation\l::linearBlendSkinning">
<polygon fill="white" stroke="black" points="346,-211.5 346,-241.5 462,-241.5 462,-211.5 346,-211.5"/>
<text text-anchor="start" x="354" y="-229.5" font-family="Helvetica,sans-Serif" font-size="10.00">Ra::Core::Animation</text>
<text text-anchor="middle" x="404" y="-218.5" font-family="Helvetica,sans-Serif" font-size="10.00">::linearBlendSkinning</text>
</a>
</g>
</g>
<!-- Node1&#45;&gt;Node6 -->
<g id="edge6" class="edge"><title>Node1&#45;&gt;Node6</title>
<path fill="none" stroke="midnightblue" d="M119.295,-205.511C134.845,-209.412 152.002,-213.169 168,-215.5 224.104,-223.676 288.46,-226.22 335.624,-226.835"/>
<polygon fill="midnightblue" stroke="midnightblue" points="335.682,-230.336 345.718,-226.941 335.755,-223.336 335.682,-230.336"/>
</g>
<!-- Node7 -->
<g id="node7" class="node"><title>Node7</title>
<g id="a_node7"><a xlink:href="namespaceRa_1_1Core_1_1Animation.html#a18e75548900106987573622831f3aae5" target="_top" xlink:title="Ra::Core::Animation\l::computeDQ">
<polygon fill="white" stroke="black" points="348,-142.5 348,-172.5 460,-172.5 460,-142.5 348,-142.5"/>
<text text-anchor="start" x="356" y="-160.5" font-family="Helvetica,sans-Serif" font-size="10.00">Ra::Core::Animation</text>
<text text-anchor="middle" x="404" y="-149.5" font-family="Helvetica,sans-Serif" font-size="10.00">::computeDQ</text>
</a>
</g>
</g>
<!-- Node1&#45;&gt;Node7 -->
<g id="edge7" class="edge"><title>Node1&#45;&gt;Node7</title>
<path fill="none" stroke="midnightblue" d="M121.673,-175.457C136.588,-171.916 152.821,-168.574 168,-166.5 224.908,-158.725 290.236,-156.777 337.545,-156.6"/>
<polygon fill="midnightblue" stroke="midnightblue" points="337.661,-160.1 347.657,-156.588 337.653,-153.1 337.661,-160.1"/>
</g>
<!-- Node12 -->
<g id="node12" class="node"><title>Node12</title>
<g id="a_node12"><a xlink:href="namespaceRa_1_1Core_1_1Animation.html#ac00813d1e8a00ddb0c98dccfc91d4828" target="_top" xlink:title="Ra::Core::Animation\l::dualQuaternionSkinning">
<polygon fill="white" stroke="black" points="170.5,-0.5 170.5,-30.5 307.5,-30.5 307.5,-0.5 170.5,-0.5"/>
<text text-anchor="start" x="178.5" y="-18.5" font-family="Helvetica,sans-Serif" font-size="10.00">Ra::Core::Animation</text>
<text text-anchor="middle" x="239" y="-7.5" font-family="Helvetica,sans-Serif" font-size="10.00">::dualQuaternionSkinning</text>
</a>
</g>
</g>
<!-- Node1&#45;&gt;Node12 -->
<g id="edge12" class="edge"><title>Node1&#45;&gt;Node12</title>
<path fill="none" stroke="midnightblue" d="M73.2368,-175.407C86.361,-145.434 119.66,-78.0644 168,-40.5 170.293,-38.7184 172.723,-37.0569 175.249,-35.508"/>
<polygon fill="midnightblue" stroke="midnightblue" points="177.036,-38.5203 184.147,-30.6656 173.69,-32.3719 177.036,-38.5203"/>
</g>
<!-- Node13 -->
<g id="node13" class="node"><title>Node13</title>
<g id="a_node13"><a xlink:href="namespaceRa_1_1Core_1_1Animation.html#a6ed92a8ce349fc8e84c099d05ae0a35b" target="_top" xlink:title="Skin the vertices with the optimal centers of rotation. ">
<polygon fill="white" stroke="black" points="183,-175.5 183,-205.5 295,-205.5 295,-175.5 183,-175.5"/>
<text text-anchor="start" x="191" y="-193.5" font-family="Helvetica,sans-Serif" font-size="10.00">Ra::Core::Animation</text>
<text text-anchor="middle" x="239" y="-182.5" font-family="Helvetica,sans-Serif" font-size="10.00">::corSkinning</text>
</a>
</g>
</g>
<!-- Node1&#45;&gt;Node13 -->
<g id="edge13" class="edge"><title>Node1&#45;&gt;Node13</title>
<path fill="none" stroke="midnightblue" d="M132.136,-190.5C145.448,-190.5 159.46,-190.5 172.776,-190.5"/>
<polygon fill="midnightblue" stroke="midnightblue" points="172.799,-194 182.799,-190.5 172.799,-187 172.799,-194"/>
</g>
<!-- Node14 -->
<g id="node14" class="node"><title>Node14</title>
<g id="a_node14"><a xlink:href="namespaceRa_1_1Core_1_1Animation.html#a6146eab259e0cce29f436870c6b8fc74" target="_top" xlink:title="Apply the linear interpolation of transformations to the vertices of inMesh (STBS version)...">
<polygon fill="white" stroke="black" points="168,-49.5 168,-79.5 310,-79.5 310,-49.5 168,-49.5"/>
<text text-anchor="start" x="176" y="-67.5" font-family="Helvetica,sans-Serif" font-size="10.00">Ra::Core::Animation</text>
<text text-anchor="middle" x="239" y="-56.5" font-family="Helvetica,sans-Serif" font-size="10.00">::linearBlendSkinningSTBS</text>
</a>
</g>
</g>
<!-- Node1&#45;&gt;Node14 -->
<g id="edge16" class="edge"><title>Node1&#45;&gt;Node14</title>
<path fill="none" stroke="midnightblue" d="M79.7024,-175.445C97.6476,-154.929 132.241,-118.054 168,-94.5 173.787,-90.6885 180.137,-87.1803 186.579,-84.0109"/>
<polygon fill="midnightblue" stroke="midnightblue" points="188.437,-87.0067 196.027,-79.6141 185.484,-80.6603 188.437,-87.0067"/>
</g>
<!-- Node19 -->
<g id="node19" class="node"><title>Node19</title>
<g id="a_node19"><a xlink:href="namespaceRa_1_1Core_1_1Animation.html#a4e637369100a8526751be5b3a09f9fcd" target="_top" xlink:title="Computes the dual quaternions from the given pose, skeleton states and sets of skinning weights (STBS...">
<polygon fill="white" stroke="black" points="348,-93.5 348,-123.5 460,-123.5 460,-93.5 348,-93.5"/>
<text text-anchor="start" x="356" y="-111.5" font-family="Helvetica,sans-Serif" font-size="10.00">Ra::Core::Animation</text>
<text text-anchor="middle" x="404" y="-100.5" font-family="Helvetica,sans-Serif" font-size="10.00">::computeDQSTBS</text>
</a>
</g>
</g>
<!-- Node1&#45;&gt;Node19 -->
<g id="edge21" class="edge"><title>Node1&#45;&gt;Node19</title>
<path fill="none" stroke="midnightblue" d="M102.486,-175.409C121.624,-167.716 145.806,-158.701 168,-152.5 224.424,-136.734 290.065,-124.978 337.608,-117.602"/>
<polygon fill="midnightblue" stroke="midnightblue" points="338.414,-121.02 347.77,-116.05 337.356,-114.1 338.414,-121.02"/>
</g>
<!-- Node4 -->
<g id="node4" class="node"><title>Node4</title>
<g id="a_node4"><a xlink:href="namespaceRa_1_1Core_1_1Animation.html#a44a3a0320649edf2829268bf80555800" target="_top" xlink:title="Ra::Core::Animation\l::compatible">
<polygon fill="white" stroke="black" points="348,-271.5 348,-301.5 460,-301.5 460,-271.5 348,-271.5"/>
<text text-anchor="start" x="356" y="-289.5" font-family="Helvetica,sans-Serif" font-size="10.00">Ra::Core::Animation</text>
<text text-anchor="middle" x="404" y="-278.5" font-family="Helvetica,sans-Serif" font-size="10.00">::compatible</text>
</a>
</g>
</g>
<!-- Node3&#45;&gt;Node4 -->
<g id="edge3" class="edge"><title>Node3&#45;&gt;Node4</title>
<path fill="none" stroke="midnightblue" d="M295.184,-281.208C308.859,-281.88 323.641,-282.605 337.747,-283.297"/>
<polygon fill="midnightblue" stroke="midnightblue" points="337.713,-286.8 347.872,-283.794 338.056,-279.808 337.713,-286.8"/>
</g>
<!-- Node5&#45;&gt;Node4 -->
<g id="edge5" class="edge"><title>Node5&#45;&gt;Node4</title>
<path fill="none" stroke="midnightblue" d="M295.184,-313.619C308.992,-310.146 323.928,-306.389 338.157,-302.81"/>
<polygon fill="midnightblue" stroke="midnightblue" points="339.028,-306.2 347.872,-300.366 337.321,-299.412 339.028,-306.2"/>
</g>
<!-- Node8 -->
<g id="node8" class="node"><title>Node8</title>
<g id="a_node8"><a xlink:href="namespaceRa_1_1Core_1_1Math.html#a90f0fe9079f5bb86c721ea4b61738470" target="_top" xlink:title="Returns the sign of any numeric type as { &#45;1, 0, 1}. ">
<polygon fill="white" stroke="black" points="511.5,-175 511.5,-194 624.5,-194 624.5,-175 511.5,-175"/>
<text text-anchor="middle" x="568" y="-182" font-family="Helvetica,sans-Serif" font-size="10.00">Ra::Core::Math::sign</text>
</a>
</g>
</g>
<!-- Node7&#45;&gt;Node8 -->
<g id="edge8" class="edge"><title>Node7&#45;&gt;Node8</title>
<path fill="none" stroke="midnightblue" d="M460.298,-166.716C473.446,-168.908 487.601,-171.267 501.168,-173.528"/>
<polygon fill="midnightblue" stroke="midnightblue" points="500.962,-177.042 511.401,-175.234 502.113,-170.137 500.962,-177.042"/>
</g>
<!-- Node10 -->
<g id="node10" class="node"><title>Node10</title>
<g id="a_node10"><a xlink:href="namespaceRa_1_1Core_1_1Math.html#a810d6d50b61cc01cda1d54527de864d0" target="_top" xlink:title="Returns the sign of any numeric type as { &#45;1, 1} Note: signNZ(0) returns 1 for any integral type but ...">
<polygon fill="white" stroke="black" points="504,-137 504,-156 632,-156 632,-137 504,-137"/>
<text text-anchor="middle" x="568" y="-144" font-family="Helvetica,sans-Serif" font-size="10.00">Ra::Core::Math::signNZ</text>
</a>
</g>
</g>
<!-- Node7&#45;&gt;Node10 -->
<g id="edge10" class="edge"><title>Node7&#45;&gt;Node10</title>
<path fill="none" stroke="midnightblue" d="M460.298,-153.745C471.035,-153.016 482.445,-152.241 493.657,-151.48"/>
<polygon fill="midnightblue" stroke="midnightblue" points="494.133,-154.956 503.873,-150.786 493.659,-147.972 494.133,-154.956"/>
</g>
<!-- Node11 -->
<g id="node11" class="node"><title>Node11</title>
<g id="a_node11"><a xlink:href="namespaceOpenMesh.html#a575b338f0fc9ecb5393d23e977e6ac38" target="_top" xlink:title="OpenMesh::dot">
<polygon fill="white" stroke="black" points="523.5,-99 523.5,-118 612.5,-118 612.5,-99 523.5,-99"/>
<text text-anchor="middle" x="568" y="-106" font-family="Helvetica,sans-Serif" font-size="10.00">OpenMesh::dot</text>
</a>
</g>
</g>
<!-- Node7&#45;&gt;Node11 -->
<g id="edge11" class="edge"><title>Node7&#45;&gt;Node11</title>
<path fill="none" stroke="midnightblue" d="M450.287,-142.457C465.416,-137.547 482.395,-132.163 498,-127.5 505.534,-125.249 513.559,-122.95 521.372,-120.764"/>
<polygon fill="midnightblue" stroke="midnightblue" points="522.401,-124.111 531.103,-118.068 520.532,-117.365 522.401,-124.111"/>
</g>
<!-- Node9 -->
<g id="node9" class="node"><title>Node9</title>
<g id="a_node9"><a xlink:href="namespaceRa_1_1Core_1_1Math.html#ae4e681e0738fe7e5bfd028c6270b597a" target="_top" xlink:title="Ra::Core::Math::signum">
<polygon fill="white" stroke="black" points="674,-175 674,-194 802,-194 802,-175 674,-175"/>
<text text-anchor="middle" x="738" y="-182" font-family="Helvetica,sans-Serif" font-size="10.00">Ra::Core::Math::signum</text>
</a>
</g>
</g>
<!-- Node8&#45;&gt;Node9 -->
<g id="edge9" class="edge"><title>Node8&#45;&gt;Node9</title>
<path fill="none" stroke="midnightblue" d="M624.942,-184.5C637.294,-184.5 650.56,-184.5 663.49,-184.5"/>
<polygon fill="midnightblue" stroke="midnightblue" points="663.763,-188 673.763,-184.5 663.763,-181 663.763,-188"/>
</g>
<!-- Node13&#45;&gt;Node6 -->
<g id="edge15" class="edge"><title>Node13&#45;&gt;Node6</title>
<path fill="none" stroke="midnightblue" d="M295.184,-202.688C308.339,-205.593 322.518,-208.725 336.134,-211.732"/>
<polygon fill="midnightblue" stroke="midnightblue" points="335.407,-215.156 345.926,-213.895 336.916,-208.32 335.407,-215.156"/>
</g>
<!-- Node13&#45;&gt;Node7 -->
<g id="edge14" class="edge"><title>Node13&#45;&gt;Node7</title>
<path fill="none" stroke="midnightblue" d="M295.184,-179.328C308.859,-176.559 323.641,-173.566 337.747,-170.711"/>
<polygon fill="midnightblue" stroke="midnightblue" points="338.766,-174.076 347.872,-168.661 337.377,-167.215 338.766,-174.076"/>
</g>
<!-- Node15 -->
<g id="node15" class="node"><title>Node15</title>
<g id="a_node15"><a xlink:href="classRa_1_1Core_1_1Animation_1_1Skeleton.html#a2422e1bb4c3016f4b07f03696e6a8383" target="_top" xlink:title="Get the i&#45;th bone endpoints. ">
<polygon fill="white" stroke="black" points="498,-49.5 498,-79.5 638,-79.5 638,-49.5 498,-49.5"/>
<text text-anchor="start" x="506" y="-67.5" font-family="Helvetica,sans-Serif" font-size="10.00">Ra::Core::Animation</text>
<text text-anchor="middle" x="568" y="-56.5" font-family="Helvetica,sans-Serif" font-size="10.00">::Skeleton::getBonePoints</text>
</a>
</g>
</g>
<!-- Node14&#45;&gt;Node15 -->
<g id="edge17" class="edge"><title>Node14&#45;&gt;Node15</title>
<path fill="none" stroke="midnightblue" d="M310.15,-64.5C362.246,-64.5 433.359,-64.5 487.551,-64.5"/>
<polygon fill="midnightblue" stroke="midnightblue" points="487.809,-68.0001 497.809,-64.5 487.809,-61.0001 487.809,-68.0001"/>
</g>
<!-- Node16 -->
<g id="node16" class="node"><title>Node16</title>
<g id="a_node16"><a xlink:href="classRa_1_1Core_1_1AdjacencyList.html#a068632657bfda6ab9034a879372a45e8" target="_top" xlink:title="Return true if the node is a leaf node. ">
<polygon fill="white" stroke="black" points="674,-25.5 674,-55.5 802,-55.5 802,-25.5 674,-25.5"/>
<text text-anchor="start" x="682" y="-43.5" font-family="Helvetica,sans-Serif" font-size="10.00">Ra::Core::AdjacencyList</text>
<text text-anchor="middle" x="738" y="-32.5" font-family="Helvetica,sans-Serif" font-size="10.00">::isLeaf</text>
</a>
</g>
</g>
<!-- Node15&#45;&gt;Node16 -->
<g id="edge18" class="edge"><title>Node15&#45;&gt;Node16</title>
<path fill="none" stroke="midnightblue" d="M638.302,-54.5997C646.656,-53.4063 655.209,-52.1844 663.619,-50.983"/>
<polygon fill="midnightblue" stroke="midnightblue" points="664.377,-54.4103 673.782,-49.5312 663.387,-47.4806 664.377,-54.4103"/>
</g>
<!-- Node18 -->
<g id="node18" class="node"><title>Node18</title>
<g id="a_node18"><a xlink:href="classRa_1_1Core_1_1AdjacencyList.html#a23393ccd75883f2eb35196d7c82ee94f" target="_top" xlink:title="Ra::Core::AdjacencyList\l::children">
<polygon fill="white" stroke="black" points="674,-74.5 674,-104.5 802,-104.5 802,-74.5 674,-74.5"/>
<text text-anchor="start" x="682" y="-92.5" font-family="Helvetica,sans-Serif" font-size="10.00">Ra::Core::AdjacencyList</text>
<text text-anchor="middle" x="738" y="-81.5" font-family="Helvetica,sans-Serif" font-size="10.00">::children</text>
</a>
</g>
</g>
<!-- Node15&#45;&gt;Node18 -->
<g id="edge20" class="edge"><title>Node15&#45;&gt;Node18</title>
<path fill="none" stroke="midnightblue" d="M638.302,-74.8128C646.656,-76.0559 655.209,-77.3288 663.619,-78.5802"/>
<polygon fill="midnightblue" stroke="midnightblue" points="663.376,-82.0825 673.782,-80.0925 664.406,-75.1587 663.376,-82.0825"/>
</g>
<!-- Node17 -->
<g id="node17" class="node"><title>Node17</title>
<g id="a_node17"><a xlink:href="classRa_1_1Core_1_1AdjacencyList.html#a15e425543855966a22c3b9339aa27b4d" target="_top" xlink:title="Return the number of nodes in the graph. ">
<polygon fill="white" stroke="black" points="838,-25.5 838,-55.5 966,-55.5 966,-25.5 838,-25.5"/>
<text text-anchor="start" x="846" y="-43.5" font-family="Helvetica,sans-Serif" font-size="10.00">Ra::Core::AdjacencyList</text>
<text text-anchor="middle" x="902" y="-32.5" font-family="Helvetica,sans-Serif" font-size="10.00">::size</text>
</a>
</g>
</g>
<!-- Node16&#45;&gt;Node17 -->
<g id="edge19" class="edge"><title>Node16&#45;&gt;Node17</title>
<path fill="none" stroke="midnightblue" d="M802.097,-40.5C810.435,-40.5 819.038,-40.5 827.53,-40.5"/>
<polygon fill="midnightblue" stroke="midnightblue" points="827.808,-44.0001 837.808,-40.5 827.808,-37.0001 827.808,-44.0001"/>
</g>
<!-- Node19&#45;&gt;Node8 -->
<g id="edge23" class="edge"><title>Node19&#45;&gt;Node8</title>
<path fill="none" stroke="midnightblue" d="M443.872,-123.583C450.108,-126.554 456.36,-129.885 462,-133.5 480.023,-145.052 479.19,-155.281 498,-165.5 502.214,-167.789 506.725,-169.82 511.348,-171.618"/>
<polygon fill="midnightblue" stroke="midnightblue" points="510.342,-174.974 520.937,-174.991 512.665,-168.371 510.342,-174.974"/>
</g>
<!-- Node19&#45;&gt;Node10 -->
<g id="edge24" class="edge"><title>Node19&#45;&gt;Node10</title>
<path fill="none" stroke="midnightblue" d="M460.298,-121.471C478.381,-125.713 498.37,-130.402 516.112,-134.563"/>
<polygon fill="midnightblue" stroke="midnightblue" points="515.733,-138.069 526.268,-136.945 517.331,-131.254 515.733,-138.069"/>
</g>
<!-- Node19&#45;&gt;Node11 -->
<g id="edge25" class="edge"><title>Node19&#45;&gt;Node11</title>
<path fill="none" stroke="midnightblue" d="M460.298,-108.5C477.377,-108.5 496.157,-108.5 513.137,-108.5"/>
<polygon fill="midnightblue" stroke="midnightblue" points="513.446,-112 523.446,-108.5 513.446,-105 513.446,-112"/>
</g>
<!-- Node19&#45;&gt;Node15 -->
<g id="edge22" class="edge"><title>Node19&#45;&gt;Node15</title>
<path fill="none" stroke="midnightblue" d="M460.298,-93.4808C473.648,-89.8548 488.038,-85.9466 501.795,-82.2101"/>
<polygon fill="midnightblue" stroke="midnightblue" points="502.943,-85.525 511.676,-79.5262 501.108,-78.7697 502.943,-85.525"/>
</g>
</g>
</svg>
