<?xml version="1.0" encoding="UTF-8" standalone="no"?>
<!DOCTYPE svg PUBLIC "-//W3C//DTD SVG 1.1//EN"
 "http://www.w3.org/Graphics/SVG/1.1/DTD/svg11.dtd">
<!-- Generated by graphviz version 2.38.0 (20140413.2041)
 -->
<!-- Title: Ra::Gui::TranslateGizmo::isSelected Pages: 1 -->
<svg width="917pt" height="186pt"
 viewBox="0.00 0.00 917.00 186.00" xmlns="http://www.w3.org/2000/svg" xmlns:xlink="http://www.w3.org/1999/xlink">
<g id="graph0" class="graph" transform="scale(1 1) rotate(0) translate(4 182)">
<title>Ra::Gui::TranslateGizmo::isSelected</title>
<polygon fill="white" stroke="none" points="-4,4 -4,-182 913,-182 913,4 -4,4"/>
<!-- Node1 -->
<g id="node1" class="node"><title>Node1</title>
<polygon fill="#bfbfbf" stroke="black" points="0,-72.5 0,-102.5 130,-102.5 130,-72.5 0,-72.5"/>
<text text-anchor="start" x="8" y="-90.5" font-family="Helvetica,sans-Serif" font-size="10.00">Ra::Gui::TranslateGizmo</text>
<text text-anchor="middle" x="65" y="-79.5" font-family="Helvetica,sans-Serif" font-size="10.00">::isSelected</text>
</g>
<!-- Node2 -->
<g id="node2" class="node"><title>Node2</title>
<g id="a_node2"><a xlink:href="classRa_1_1Gui_1_1TranslateGizmo.html#a922da7a85899fd0f41d01ff3647ea52b" target="_top" xlink:title="Called when the gizmo is first clicked, with the camera parameters and the initial pixel coordinates...">
<polygon fill="white" stroke="black" points="166,-97.5 166,-127.5 296,-127.5 296,-97.5 166,-97.5"/>
<text text-anchor="start" x="174" y="-115.5" font-family="Helvetica,sans-Serif" font-size="10.00">Ra::Gui::TranslateGizmo</text>
<text text-anchor="middle" x="231" y="-104.5" font-family="Helvetica,sans-Serif" font-size="10.00">::setInitialState</text>
</a>
</g>
</g>
<!-- Node1&#45;&gt;Node2 -->
<g id="edge1" class="edge"><title>Node1&#45;&gt;Node2</title>
<path fill="none" stroke="midnightblue" d="M130.346,-97.3089C138.731,-98.5871 147.375,-99.9047 155.903,-101.205"/>
<polygon fill="midnightblue" stroke="midnightblue" points="155.426,-104.672 165.839,-102.719 156.481,-97.7523 155.426,-104.672"/>
</g>
<!-- Node3 -->
<g id="node3" class="node"><title>Node3</title>
<g id="a_node3"><a xlink:href="classRa_1_1Gui_1_1TranslateGizmo.html#ad24fbf9942a6e3e2dcab76e7a572c74d" target="_top" xlink:title="Called when the mouse movement is recorder with the camera parameters and the current pixel coordinat...">
<polygon fill="white" stroke="black" points="166,-48.5 166,-78.5 296,-78.5 296,-48.5 166,-48.5"/>
<text text-anchor="start" x="174" y="-66.5" font-family="Helvetica,sans-Serif" font-size="10.00">Ra::Gui::TranslateGizmo</text>
<text text-anchor="middle" x="231" y="-55.5" font-family="Helvetica,sans-Serif" font-size="10.00">::mouseMove</text>
</a>
</g>
</g>
<!-- Node1&#45;&gt;Node3 -->
<g id="edge2" class="edge"><title>Node1&#45;&gt;Node3</title>
<path fill="none" stroke="midnightblue" d="M130.346,-78.0834C138.731,-76.8564 147.375,-75.5915 155.903,-74.3435"/>
<polygon fill="midnightblue" stroke="midnightblue" points="156.451,-77.8006 165.839,-72.8894 155.438,-70.8744 156.451,-77.8006"/>
</g>
<!-- Node4 -->
<g id="node4" class="node"><title>Node4</title>
<g id="a_node4"><a xlink:href="classRa_1_1Gui_1_1Gizmo.html#a9f381cac5f535c0f66b04f02856f057d" target="_top" xlink:title="Ra::Gui::Gizmo::findPoint\lOnAxis">
<polygon fill="white" stroke="black" points="332,-73.5 332,-103.5 466,-103.5 466,-73.5 332,-73.5"/>
<text text-anchor="start" x="340" y="-91.5" font-family="Helvetica,sans-Serif" font-size="10.00">Ra::Gui::Gizmo::findPoint</text>
<text text-anchor="middle" x="399" y="-80.5" font-family="Helvetica,sans-Serif" font-size="10.00">OnAxis</text>
</a>
</g>
</g>
<!-- Node3&#45;&gt;Node4 -->
<g id="edge3" class="edge"><title>Node3&#45;&gt;Node4</title>
<path fill="none" stroke="midnightblue" d="M296.18,-73.1657C304.574,-74.4298 313.238,-75.7347 321.806,-77.0249"/>
<polygon fill="midnightblue" stroke="midnightblue" points="321.386,-80.5012 331.796,-78.5295 322.429,-73.5792 321.386,-80.5012"/>
</g>
<!-- Node13 -->
<g id="node13" class="node"><title>Node13</title>
<g id="a_node13"><a xlink:href="classRa_1_1Gui_1_1Gizmo.html#a59f612603ee6c129a563ee6829abbc63" target="_top" xlink:title="Ra::Gui::Gizmo::findPoint\lOnPlane">
<polygon fill="white" stroke="black" points="332,-24.5 332,-54.5 466,-54.5 466,-24.5 332,-24.5"/>
<text text-anchor="start" x="340" y="-42.5" font-family="Helvetica,sans-Serif" font-size="10.00">Ra::Gui::Gizmo::findPoint</text>
<text text-anchor="middle" x="399" y="-31.5" font-family="Helvetica,sans-Serif" font-size="10.00">OnPlane</text>
</a>
</g>
</g>
<!-- Node3&#45;&gt;Node13 -->
<g id="edge12" class="edge"><title>Node3&#45;&gt;Node13</title>
<path fill="none" stroke="midnightblue" d="M296.18,-54.221C304.574,-53.0074 313.238,-51.7547 321.806,-50.5161"/>
<polygon fill="midnightblue" stroke="midnightblue" points="322.4,-53.9666 331.796,-49.0716 321.398,-47.0387 322.4,-53.9666"/>
</g>
<!-- Node5 -->
<g id="node5" class="node"><title>Node5</title>
<g id="a_node5"><a xlink:href="classRa_1_1Engine_1_1Camera.html#a23be7aa714c0e9c2a9429dfc9ef2c53a" target="_top" xlink:title="Return the direction the camera is looking at. ">
<polygon fill="white" stroke="black" points="503,-147.5 503,-177.5 614,-177.5 614,-147.5 503,-147.5"/>
<text text-anchor="start" x="511" y="-165.5" font-family="Helvetica,sans-Serif" font-size="10.00">Ra::Engine::Camera</text>
<text text-anchor="middle" x="558.5" y="-154.5" font-family="Helvetica,sans-Serif" font-size="10.00">::getDirection</text>
</a>
</g>
</g>
<!-- Node4&#45;&gt;Node5 -->
<g id="edge4" class="edge"><title>Node4&#45;&gt;Node5</title>
<path fill="none" stroke="midnightblue" d="M429.724,-103.535C449.977,-113.664 477.463,-127.189 502,-138.5 505.393,-140.064 508.916,-141.658 512.466,-143.242"/>
<polygon fill="midnightblue" stroke="midnightblue" points="511.298,-146.551 521.859,-147.386 514.123,-140.147 511.298,-146.551"/>
</g>
<!-- Node6 -->
<g id="node6" class="node"><title>Node6</title>
<g id="a_node6"><a xlink:href="classRa_1_1Engine_1_1Camera.html#adfc7c573c5cedb70aadd8afd8274253b" target="_top" xlink:title="Return the up vector. ">
<polygon fill="white" stroke="black" points="503,-98.5 503,-128.5 614,-128.5 614,-98.5 503,-98.5"/>
<text text-anchor="start" x="511" y="-116.5" font-family="Helvetica,sans-Serif" font-size="10.00">Ra::Engine::Camera</text>
<text text-anchor="middle" x="558.5" y="-105.5" font-family="Helvetica,sans-Serif" font-size="10.00">::getUpVector</text>
</a>
</g>
</g>
<!-- Node4&#45;&gt;Node6 -->
<g id="edge5" class="edge"><title>Node4&#45;&gt;Node6</title>
<path fill="none" stroke="midnightblue" d="M466.338,-99.0298C475.039,-100.411 483.947,-101.825 492.624,-103.202"/>
<polygon fill="midnightblue" stroke="midnightblue" points="492.252,-106.687 502.677,-104.798 493.349,-99.7734 492.252,-106.687"/>
</g>
<!-- Node7 -->
<g id="node7" class="node"><title>Node7</title>
<g id="a_node7"><a xlink:href="classRa_1_1Engine_1_1Camera.html#a2b584b5db1c28d168d1d2c12eacbee1e" target="_top" xlink:title="Return a ray emanating from the camera, passing by the point given by screen coordinates x and y...">
<polygon fill="white" stroke="black" points="502,-49.5 502,-79.5 615,-79.5 615,-49.5 502,-49.5"/>
<text text-anchor="start" x="510" y="-67.5" font-family="Helvetica,sans-Serif" font-size="10.00">Ra::Engine::Camera</text>
<text text-anchor="middle" x="558.5" y="-56.5" font-family="Helvetica,sans-Serif" font-size="10.00">::getRayFromScreen</text>
</a>
</g>
</g>
<!-- Node4&#45;&gt;Node7 -->
<g id="edge6" class="edge"><title>Node4&#45;&gt;Node7</title>
<path fill="none" stroke="midnightblue" d="M466.338,-78.3914C474.705,-77.1163 483.265,-75.8121 491.625,-74.5381"/>
<polygon fill="midnightblue" stroke="midnightblue" points="492.339,-77.9698 501.698,-73.0032 491.285,-71.0496 492.339,-77.9698"/>
</g>
<!-- Node11 -->
<g id="node11" class="node"><title>Node11</title>
<g id="a_node11"><a xlink:href="namespaceRa_1_1Core_1_1Geometry.html#a8b8fe68d162f9a144a127573ca436286" target="_top" xlink:title="Intersect a ray with an infinite plane defined by point A and normal. ">
<polygon fill="white" stroke="black" points="503,-0.5 503,-30.5 614,-30.5 614,-0.5 503,-0.5"/>
<text text-anchor="start" x="511" y="-18.5" font-family="Helvetica,sans-Serif" font-size="10.00">Ra::Core::Geometry</text>
<text text-anchor="middle" x="558.5" y="-7.5" font-family="Helvetica,sans-Serif" font-size="10.00">::RayCastPlane</text>
</a>
</g>
</g>
<!-- Node4&#45;&gt;Node11 -->
<g id="edge10" class="edge"><title>Node4&#45;&gt;Node11</title>
<path fill="none" stroke="midnightblue" d="M443.92,-73.4588C451.415,-70.4425 459.027,-67.0867 466,-63.5 483.1,-54.7048 485.107,-48.6867 502,-39.5 504.859,-37.9453 507.839,-36.4152 510.87,-34.9266"/>
<polygon fill="midnightblue" stroke="midnightblue" points="512.488,-38.0329 520.04,-30.6017 509.503,-31.7017 512.488,-38.0329"/>
</g>
<!-- Node8 -->
<g id="node8" class="node"><title>Node8</title>
<g id="a_node8"><a xlink:href="classRa_1_1Engine_1_1Camera.html#a724a052e94817af7e602129467c8696f" target="_top" xlink:title="Return the position. ">
<polygon fill="white" stroke="black" points="651,-46.5 651,-76.5 762,-76.5 762,-46.5 651,-46.5"/>
<text text-anchor="start" x="659" y="-64.5" font-family="Helvetica,sans-Serif" font-size="10.00">Ra::Engine::Camera</text>
<text text-anchor="middle" x="706.5" y="-53.5" font-family="Helvetica,sans-Serif" font-size="10.00">::getPosition</text>
</a>
</g>
</g>
<!-- Node7&#45;&gt;Node8 -->
<g id="edge7" class="edge"><title>Node7&#45;&gt;Node8</title>
<path fill="none" stroke="midnightblue" d="M615.113,-63.3573C623.363,-63.1878 631.927,-63.0118 640.351,-62.8387"/>
<polygon fill="midnightblue" stroke="midnightblue" points="640.599,-66.3344 650.525,-62.6296 640.455,-59.3359 640.599,-66.3344"/>
</g>
<!-- Node9 -->
<g id="node9" class="node"><title>Node9</title>
<g id="a_node9"><a xlink:href="classRa_1_1Engine_1_1Camera.html#ad1d6eb41b5e8d52cd2ddecf47f1b2053" target="_top" xlink:title="Return the point on the screen plane (near plane) represented by screen coordinates pix...">
<polygon fill="white" stroke="black" points="651,-95.5 651,-125.5 762,-125.5 762,-95.5 651,-95.5"/>
<text text-anchor="start" x="659" y="-113.5" font-family="Helvetica,sans-Serif" font-size="10.00">Ra::Engine::Camera</text>
<text text-anchor="middle" x="706.5" y="-102.5" font-family="Helvetica,sans-Serif" font-size="10.00">::unProject</text>
</a>
</g>
</g>
<!-- Node7&#45;&gt;Node9 -->
<g id="edge8" class="edge"><title>Node7&#45;&gt;Node9</title>
<path fill="none" stroke="midnightblue" d="M607.306,-79.5621C620.288,-83.6525 634.483,-88.1247 647.943,-92.3656"/>
<polygon fill="midnightblue" stroke="midnightblue" points="646.997,-95.7371 657.587,-95.404 649.101,-89.0607 646.997,-95.7371"/>
</g>
<!-- Node10 -->
<g id="node10" class="node"><title>Node10</title>
<g id="a_node10"><a xlink:href="classRa_1_1Engine_1_1Camera.html#adb545a4a1f889d63ce4fc9a41cdeef2a" target="_top" xlink:title="Return the projection matrix. ">
<polygon fill="white" stroke="black" points="798,-95.5 798,-125.5 909,-125.5 909,-95.5 798,-95.5"/>
<text text-anchor="start" x="806" y="-113.5" font-family="Helvetica,sans-Serif" font-size="10.00">Ra::Engine::Camera</text>
<text text-anchor="middle" x="853.5" y="-102.5" font-family="Helvetica,sans-Serif" font-size="10.00">::getProjMatrix</text>
</a>
</g>
</g>
<!-- Node9&#45;&gt;Node10 -->
<g id="edge9" class="edge"><title>Node9&#45;&gt;Node10</title>
<path fill="none" stroke="midnightblue" d="M762.318,-110.5C770.529,-110.5 779.061,-110.5 787.459,-110.5"/>
<polygon fill="midnightblue" stroke="midnightblue" points="787.604,-114 797.604,-110.5 787.604,-107 787.604,-114"/>
</g>
<!-- Node12 -->
<g id="node12" class="node"><title>Node12</title>
<g id="a_node12"><a xlink:href="namespaceOpenMesh.html#a575b338f0fc9ecb5393d23e977e6ac38" target="_top" xlink:title="OpenMesh::dot">
<polygon fill="white" stroke="black" points="662,-6 662,-25 751,-25 751,-6 662,-6"/>
<text text-anchor="middle" x="706.5" y="-13" font-family="Helvetica,sans-Serif" font-size="10.00">OpenMesh::dot</text>
</a>
</g>
</g>
<!-- Node11&#45;&gt;Node12 -->
<g id="edge11" class="edge"><title>Node11&#45;&gt;Node12</title>
<path fill="none" stroke="midnightblue" d="M614.28,-15.5C626.544,-15.5 639.54,-15.5 651.761,-15.5"/>
<polygon fill="midnightblue" stroke="midnightblue" points="651.811,-19.0001 661.811,-15.5 651.811,-12.0001 651.811,-19.0001"/>
</g>
<!-- Node13&#45;&gt;Node7 -->
<g id="edge13" class="edge"><title>Node13&#45;&gt;Node7</title>
<path fill="none" stroke="midnightblue" d="M466.338,-50.0298C474.705,-51.358 483.265,-52.7166 491.625,-54.0436"/>
<polygon fill="midnightblue" stroke="midnightblue" points="491.273,-57.5315 501.698,-55.6425 492.37,-50.618 491.273,-57.5315"/>
</g>
<!-- Node13&#45;&gt;Node11 -->
<g id="edge14" class="edge"><title>Node13&#45;&gt;Node11</title>
<path fill="none" stroke="midnightblue" d="M466.338,-29.3914C475.039,-28.0655 483.947,-26.708 492.624,-25.3859"/>
<polygon fill="midnightblue" stroke="midnightblue" points="493.318,-28.8206 502.677,-23.854 492.264,-21.9005 493.318,-28.8206"/>
</g>
</g>
</svg>
