<?xml version="1.0" encoding="UTF-8" standalone="no"?>
<!DOCTYPE svg PUBLIC "-//W3C//DTD SVG 1.1//EN"
 "http://www.w3.org/Graphics/SVG/1.1/DTD/svg11.dtd">
<!-- Generated by graphviz version 2.38.0 (20140413.2041)
 -->
<!-- Title: Ra::Gui::TrackballCameraManipulator::handleCameraRotate Pages: 1 -->
<svg width="517pt" height="203pt"
 viewBox="0.00 0.00 517.00 202.50" xmlns="http://www.w3.org/2000/svg" xmlns:xlink="http://www.w3.org/1999/xlink">
<g id="graph0" class="graph" transform="scale(1 1) rotate(0) translate(4 198.5)">
<title>Ra::Gui::TrackballCameraManipulator::handleCameraRotate</title>
<polygon fill="white" stroke="none" points="-4,4 -4,-198.5 513,-198.5 513,4 -4,4"/>
<!-- Node1 -->
<g id="node1" class="node"><title>Node1</title>
<polygon fill="#bfbfbf" stroke="black" points="0,-93.5 0,-123.5 180,-123.5 180,-93.5 0,-93.5"/>
<text text-anchor="start" x="8" y="-111.5" font-family="Helvetica,sans-Serif" font-size="10.00">Ra::Gui::TrackballCamera</text>
<text text-anchor="middle" x="90" y="-100.5" font-family="Helvetica,sans-Serif" font-size="10.00">Manipulator::handleCameraRotate</text>
</g>
<!-- Node2 -->
<g id="node2" class="node"><title>Node2</title>
<g id="a_node2"><a xlink:href="namespaceRa_1_1Core_1_1Math.html#a4f441ac6a56092d52849a4f48e274aa8" target="_top" xlink:title="Get the cosine of the angle between two vectors. ">
<polygon fill="white" stroke="black" points="221,-175 221,-194 331,-194 331,-175 221,-175"/>
<text text-anchor="middle" x="276" y="-182" font-family="Helvetica,sans-Serif" font-size="10.00">Ra::Core::Math::cos</text>
</a>
</g>
</g>
<!-- Node1&#45;&gt;Node2 -->
<g id="edge1" class="edge"><title>Node1&#45;&gt;Node2</title>
<path fill="none" stroke="midnightblue" d="M121.396,-123.564C146.45,-135.687 183.085,-152.745 216,-165.5 221.528,-167.642 227.409,-169.742 233.236,-171.719"/>
<polygon fill="midnightblue" stroke="midnightblue" points="232.324,-175.104 242.918,-174.916 234.519,-168.457 232.324,-175.104"/>
</g>
<!-- Node3 -->
<g id="node3" class="node"><title>Node3</title>
<g id="a_node3"><a xlink:href="namespaceRa_1_1Core_1_1Geometry.html#aa04e6052d8911b1df1bd881474debb45" target="_top" xlink:title="Ra::Core::Geometry::t">
<polygon fill="white" stroke="black" points="216,-137 216,-156 336,-156 336,-137 216,-137"/>
<text text-anchor="middle" x="276" y="-144" font-family="Helvetica,sans-Serif" font-size="10.00">Ra::Core::Geometry::t</text>
</a>
</g>
</g>
<!-- Node1&#45;&gt;Node3 -->
<g id="edge2" class="edge"><title>Node1&#45;&gt;Node3</title>
<path fill="none" stroke="midnightblue" d="M163.722,-123.519C182.111,-127.316 201.577,-131.337 218.998,-134.934"/>
<polygon fill="midnightblue" stroke="midnightblue" points="218.494,-138.404 228.996,-136.999 219.91,-131.549 218.494,-138.404"/>
</g>
<!-- Node4 -->
<g id="node4" class="node"><title>Node4</title>
<g id="a_node4"><a xlink:href="classRa_1_1Engine_1_1Camera.html#a724a052e94817af7e602129467c8696f" target="_top" xlink:title="Return the position. ">
<polygon fill="white" stroke="black" points="385,-71.5 385,-101.5 496,-101.5 496,-71.5 385,-71.5"/>
<text text-anchor="start" x="393" y="-89.5" font-family="Helvetica,sans-Serif" font-size="10.00">Ra::Engine::Camera</text>
<text text-anchor="middle" x="440.5" y="-78.5" font-family="Helvetica,sans-Serif" font-size="10.00">::getPosition</text>
</a>
</g>
</g>
<!-- Node1&#45;&gt;Node4 -->
<g id="edge3" class="edge"><title>Node1&#45;&gt;Node4</title>
<path fill="none" stroke="midnightblue" d="M180.295,-102.863C241.017,-99.0298 319.962,-94.0461 374.698,-90.5908"/>
<polygon fill="midnightblue" stroke="midnightblue" points="375.208,-94.0656 384.968,-89.9425 374.767,-87.0795 375.208,-94.0656"/>
</g>
<!-- Node5 -->
<g id="node5" class="node"><title>Node5</title>
<g id="a_node5"><a xlink:href="classRa_1_1Engine_1_1Camera.html#af453374420a795f76a224bd795f8ff5e" target="_top" xlink:title="Ra::Engine::Camera\l::getRightVector">
<polygon fill="white" stroke="black" points="220.5,-49.5 220.5,-79.5 331.5,-79.5 331.5,-49.5 220.5,-49.5"/>
<text text-anchor="start" x="228.5" y="-67.5" font-family="Helvetica,sans-Serif" font-size="10.00">Ra::Engine::Camera</text>
<text text-anchor="middle" x="276" y="-56.5" font-family="Helvetica,sans-Serif" font-size="10.00">::getRightVector</text>
</a>
</g>
</g>
<!-- Node1&#45;&gt;Node5 -->
<g id="edge4" class="edge"><title>Node1&#45;&gt;Node5</title>
<path fill="none" stroke="midnightblue" d="M153.808,-93.4808C172.163,-89.0914 192.248,-84.2884 210.695,-79.8772"/>
<polygon fill="midnightblue" stroke="midnightblue" points="211.551,-83.2713 220.463,-77.5414 209.923,-76.4632 211.551,-83.2713"/>
</g>
<!-- Node6 -->
<g id="node6" class="node"><title>Node6</title>
<g id="a_node6"><a xlink:href="classRa_1_1Engine_1_1Camera.html#a7a2c1c84e3063c6c3f09d490477abb0f" target="_top" xlink:title="Apply the local transformation &#39;T&#39; to the camera. ">
<polygon fill="white" stroke="black" points="220.5,-0.5 220.5,-30.5 331.5,-30.5 331.5,-0.5 220.5,-0.5"/>
<text text-anchor="start" x="228.5" y="-18.5" font-family="Helvetica,sans-Serif" font-size="10.00">Ra::Engine::Camera</text>
<text text-anchor="middle" x="276" y="-7.5" font-family="Helvetica,sans-Serif" font-size="10.00">::applyTransform</text>
</a>
</g>
</g>
<!-- Node1&#45;&gt;Node6 -->
<g id="edge5" class="edge"><title>Node1&#45;&gt;Node6</title>
<path fill="none" stroke="midnightblue" d="M116.391,-93.3242C141.324,-78.7008 180.655,-56.3716 216,-39.5 219.393,-37.8804 222.925,-36.2676 226.5,-34.6885"/>
<polygon fill="midnightblue" stroke="midnightblue" points="228.192,-37.7709 235.997,-30.6053 225.427,-31.3402 228.192,-37.7709"/>
</g>
<!-- Node6&#45;&gt;Node4 -->
<g id="edge6" class="edge"><title>Node6&#45;&gt;Node4</title>
<path fill="none" stroke="midnightblue" d="M314.547,-30.5114C321.692,-33.4418 329.093,-36.5282 336,-39.5 356.471,-48.3072 379.02,-58.4895 397.831,-67.1201"/>
<polygon fill="midnightblue" stroke="midnightblue" points="396.47,-70.3466 407.018,-71.3476 399.397,-63.9876 396.47,-70.3466"/>
</g>
<!-- Node7 -->
<g id="node7" class="node"><title>Node7</title>
<g id="a_node7"><a xlink:href="classRa_1_1Engine_1_1RenderObject.html#a2d6a1bc2b7646fe0912035a2ece24864" target="_top" xlink:title="Ra::Engine::RenderObject\l::setLocalTransform">
<polygon fill="white" stroke="black" points="372,-0.5 372,-30.5 509,-30.5 509,-0.5 372,-0.5"/>
<text text-anchor="start" x="380" y="-18.5" font-family="Helvetica,sans-Serif" font-size="10.00">Ra::Engine::RenderObject</text>
<text text-anchor="middle" x="440.5" y="-7.5" font-family="Helvetica,sans-Serif" font-size="10.00">::setLocalTransform</text>
</a>
</g>
</g>
<!-- Node6&#45;&gt;Node7 -->
<g id="edge7" class="edge"><title>Node6&#45;&gt;Node7</title>
<path fill="none" stroke="midnightblue" d="M331.562,-15.5C341.244,-15.5 351.494,-15.5 361.672,-15.5"/>
<polygon fill="midnightblue" stroke="midnightblue" points="361.802,-19.0001 371.802,-15.5 361.802,-12.0001 361.802,-19.0001"/>
</g>
</g>
</svg>
