<?xml version="1.0" encoding="UTF-8" standalone="no"?>
<!DOCTYPE svg PUBLIC "-//W3C//DTD SVG 1.1//EN"
 "http://www.w3.org/Graphics/SVG/1.1/DTD/svg11.dtd">
<!-- Generated by graphviz version 2.38.0 (20140413.2041)
 -->
<!-- Title: MeshPaintPlugin::MeshPaintSystem::paintMesh Pages: 1 -->
<svg width="867pt" height="340pt"
 viewBox="0.00 0.00 867.00 339.50" xmlns="http://www.w3.org/2000/svg" xmlns:xlink="http://www.w3.org/1999/xlink">
<g id="graph0" class="graph" transform="scale(1 1) rotate(0) translate(4 335.5)">
<title>MeshPaintPlugin::MeshPaintSystem::paintMesh</title>
<polygon fill="white" stroke="none" points="-4,4 -4,-335.5 863,-335.5 863,4 -4,4"/>
<!-- Node1 -->
<g id="node1" class="node"><title>Node1</title>
<polygon fill="#bfbfbf" stroke="black" points="0,-151 0,-181 149,-181 149,-151 0,-151"/>
<text text-anchor="start" x="8" y="-169" font-family="Helvetica,sans-Serif" font-size="10.00">MeshPaintPlugin::MeshPaint</text>
<text text-anchor="middle" x="74.5" y="-158" font-family="Helvetica,sans-Serif" font-size="10.00">System::paintMesh</text>
</g>
<!-- Node2 -->
<g id="node2" class="node"><title>Node2</title>
<g id="a_node2"><a xlink:href="classMeshPaintPlugin_1_1MeshPaintComponent.html#ad9bb2078c1824760a5394105ad9866e8" target="_top" xlink:title="MeshPaintPlugin::MeshPaint\lComponent::paintMesh">
<polygon fill="white" stroke="black" points="185,-151 185,-181 334,-181 334,-151 185,-151"/>
<text text-anchor="start" x="193" y="-169" font-family="Helvetica,sans-Serif" font-size="10.00">MeshPaintPlugin::MeshPaint</text>
<text text-anchor="middle" x="259.5" y="-158" font-family="Helvetica,sans-Serif" font-size="10.00">Component::paintMesh</text>
</a>
</g>
</g>
<!-- Node1&#45;&gt;Node2 -->
<g id="edge1" class="edge"><title>Node1&#45;&gt;Node2</title>
<path fill="none" stroke="midnightblue" d="M149.142,-166C157.474,-166 166.011,-166 174.463,-166"/>
<polygon fill="midnightblue" stroke="midnightblue" points="174.711,-169.5 184.711,-166 174.711,-162.5 174.711,-169.5"/>
</g>
<!-- Node3 -->
<g id="node3" class="node"><title>Node3</title>
<g id="a_node3"><a xlink:href="classRa_1_1Engine_1_1Component.html#a10b0bc182b76165744ebea603ae32dfe" target="_top" xlink:title="Shortcut to access the render object manager. ">
<polygon fill="white" stroke="black" points="396.5,-301 396.5,-331 525.5,-331 525.5,-301 396.5,-301"/>
<text text-anchor="start" x="404.5" y="-319" font-family="Helvetica,sans-Serif" font-size="10.00">Ra::Engine::Component</text>
<text text-anchor="middle" x="461" y="-308" font-family="Helvetica,sans-Serif" font-size="10.00">::getRoMgr</text>
</a>
</g>
</g>
<!-- Node2&#45;&gt;Node3 -->
<g id="edge2" class="edge"><title>Node2&#45;&gt;Node3</title>
<path fill="none" stroke="midnightblue" d="M269.527,-181.415C285.994,-208.142 323.533,-262.999 370,-292 375.097,-295.181 380.611,-297.945 386.312,-300.345"/>
<polygon fill="midnightblue" stroke="midnightblue" points="385.454,-303.763 396.045,-304.05 387.945,-297.221 385.454,-303.763"/>
</g>
<!-- Node4 -->
<g id="node4" class="node"><title>Node4</title>
<g id="a_node4"><a xlink:href="classRa_1_1Engine_1_1Displayable.html#aae62e0fc9bcee75aa66bc49f66843f94" target="_top" xlink:title="Returns the picking rendermode advised by the object (default PickingRenderMode::NO_PICKING) ...">
<polygon fill="white" stroke="black" points="397,-252 397,-282 525,-282 525,-252 397,-252"/>
<text text-anchor="start" x="405" y="-270" font-family="Helvetica,sans-Serif" font-size="10.00">Ra::Engine::Displayable</text>
<text text-anchor="middle" x="461" y="-259" font-family="Helvetica,sans-Serif" font-size="10.00">::pickingRenderMode</text>
</a>
</g>
</g>
<!-- Node2&#45;&gt;Node4 -->
<g id="edge3" class="edge"><title>Node2&#45;&gt;Node4</title>
<path fill="none" stroke="midnightblue" d="M278.317,-181.217C299.078,-198.241 335.017,-225.58 370,-242 375.361,-244.516 381.023,-246.823 386.792,-248.929"/>
<polygon fill="midnightblue" stroke="midnightblue" points="385.973,-252.348 396.567,-252.286 388.246,-245.728 385.973,-252.348"/>
</g>
<!-- Node5 -->
<g id="node5" class="node"><title>Node5</title>
<g id="a_node5"><a xlink:href="classRa_1_1Engine_1_1Mesh.html#a7dd9018e643becd20e714a54cf6664db" target="_top" xlink:title="Ra::Engine::Mesh::getRenderMode">
<polygon fill="white" stroke="black" points="371.5,-213.5 371.5,-232.5 550.5,-232.5 550.5,-213.5 371.5,-213.5"/>
<text text-anchor="middle" x="461" y="-220.5" font-family="Helvetica,sans-Serif" font-size="10.00">Ra::Engine::Mesh::getRenderMode</text>
</a>
</g>
</g>
<!-- Node2&#45;&gt;Node5 -->
<g id="edge4" class="edge"><title>Node2&#45;&gt;Node5</title>
<path fill="none" stroke="midnightblue" d="M309.187,-181.038C328.13,-186.793 350.041,-193.333 370,-199 384.02,-202.981 399.323,-207.133 413.268,-210.843"/>
<polygon fill="midnightblue" stroke="midnightblue" points="412.582,-214.282 423.145,-213.458 414.373,-207.515 412.582,-214.282"/>
</g>
<!-- Node7 -->
<g id="node7" class="node"><title>Node7</title>
<g id="a_node7"><a xlink:href="namespaceRa_1_1Core_1_1Geometry.html#aa04e6052d8911b1df1bd881474debb45" target="_top" xlink:title="Ra::Core::Geometry::t">
<polygon fill="white" stroke="black" points="739,-197.5 739,-216.5 859,-216.5 859,-197.5 739,-197.5"/>
<text text-anchor="middle" x="799" y="-204.5" font-family="Helvetica,sans-Serif" font-size="10.00">Ra::Core::Geometry::t</text>
</a>
</g>
</g>
<!-- Node2&#45;&gt;Node7 -->
<g id="edge10" class="edge"><title>Node2&#45;&gt;Node7</title>
<path fill="none" stroke="midnightblue" d="M334.11,-171.615C438.209,-179.556 627.058,-193.961 728.737,-201.717"/>
<polygon fill="midnightblue" stroke="midnightblue" points="728.66,-205.221 738.897,-202.492 729.192,-198.241 728.66,-205.221"/>
</g>
<!-- Node8 -->
<g id="node8" class="node"><title>Node8</title>
<g id="a_node8"><a xlink:href="classRa_1_1Engine_1_1Mesh.html#aeb1eb176c4ac5a045a80b97a5e09e07e" target="_top" xlink:title="Returns the underlying TriangleMesh. ">
<polygon fill="white" stroke="black" points="370,-137.5 370,-156.5 552,-156.5 552,-137.5 370,-137.5"/>
<text text-anchor="middle" x="461" y="-144.5" font-family="Helvetica,sans-Serif" font-size="10.00">Ra::Engine::Mesh::getTriangleMesh</text>
</a>
</g>
</g>
<!-- Node2&#45;&gt;Node8 -->
<g id="edge7" class="edge"><title>Node2&#45;&gt;Node8</title>
<path fill="none" stroke="midnightblue" d="M334.22,-158.979C342.517,-158.189 351.072,-157.374 359.633,-156.559"/>
<polygon fill="midnightblue" stroke="midnightblue" points="360.048,-160.035 369.671,-155.603 359.384,-153.067 360.048,-160.035"/>
</g>
<!-- Node9 -->
<g id="node9" class="node"><title>Node9</title>
<g id="a_node9"><a xlink:href="classRa_1_1Core_1_1Geometry_1_1TriangleMesh.html#a316e86eab4e624183f1bfe5c25f8592c" target="_top" xlink:title="Return the Handle to the attribute with the given name if it exists, an invalid handle otherwise...">
<polygon fill="white" stroke="black" points="378,-88 378,-118 544,-118 544,-88 378,-88"/>
<text text-anchor="start" x="386" y="-106" font-family="Helvetica,sans-Serif" font-size="10.00">Ra::Core::Geometry</text>
<text text-anchor="middle" x="461" y="-95" font-family="Helvetica,sans-Serif" font-size="10.00">::TriangleMesh::getAttribHandle</text>
</a>
</g>
</g>
<!-- Node2&#45;&gt;Node9 -->
<g id="edge8" class="edge"><title>Node2&#45;&gt;Node9</title>
<path fill="none" stroke="midnightblue" d="M301.893,-150.944C322.298,-143.7 347.333,-135.073 370,-128 377.704,-125.596 385.814,-123.182 393.88,-120.852"/>
<polygon fill="midnightblue" stroke="midnightblue" points="395.013,-124.169 403.669,-118.059 393.092,-117.438 395.013,-124.169"/>
</g>
<!-- Node10 -->
<g id="node10" class="node"><title>Node10</title>
<g id="a_node10"><a xlink:href="classRa_1_1Core_1_1Geometry_1_1TriangleMesh.html#a209037ce5a11ec8539a9ada7ba763e8c" target="_top" xlink:title="Get attribute by handle. ">
<polygon fill="white" stroke="black" points="395,-39 395,-69 527,-69 527,-39 395,-39"/>
<text text-anchor="start" x="403" y="-57" font-family="Helvetica,sans-Serif" font-size="10.00">Ra::Core::Geometry</text>
<text text-anchor="middle" x="461" y="-46" font-family="Helvetica,sans-Serif" font-size="10.00">::TriangleMesh::getAttrib</text>
</a>
</g>
</g>
<!-- Node2&#45;&gt;Node10 -->
<g id="edge9" class="edge"><title>Node2&#45;&gt;Node10</title>
<path fill="none" stroke="midnightblue" d="M275.42,-150.843C295.298,-131.477 332.356,-98.1774 370,-79 374.877,-76.5156 380.032,-74.2518 385.307,-72.1935"/>
<polygon fill="midnightblue" stroke="midnightblue" points="386.696,-75.4129 394.899,-68.7074 384.305,-68.834 386.696,-75.4129"/>
</g>
<!-- Node11 -->
<g id="node11" class="node"><title>Node11</title>
<g id="a_node11"><a xlink:href="classRa_1_1Engine_1_1Mesh.html#a9a1dcadf7fb4ff851b18c87b3a98ac6b" target="_top" xlink:title="Mark one of the data types as dirty, forcing an update of the openGL buffer. ">
<polygon fill="white" stroke="black" points="390,-0.5 390,-19.5 532,-19.5 532,-0.5 390,-0.5"/>
<text text-anchor="middle" x="461" y="-7.5" font-family="Helvetica,sans-Serif" font-size="10.00">Ra::Engine::Mesh::setDirty</text>
</a>
</g>
</g>
<!-- Node2&#45;&gt;Node11 -->
<g id="edge11" class="edge"><title>Node2&#45;&gt;Node11</title>
<path fill="none" stroke="midnightblue" d="M268.101,-150.953C283.302,-122.492 320.302,-60.868 370,-30 374.117,-27.4427 378.52,-25.2105 383.082,-23.2624"/>
<polygon fill="midnightblue" stroke="midnightblue" points="384.518,-26.4614 392.633,-19.6493 382.041,-19.9143 384.518,-26.4614"/>
</g>
<!-- Node6 -->
<g id="node6" class="node"><title>Node6</title>
<g id="a_node6"><a xlink:href="namespaceRa_1_1Core_1_1Containers.html#a83257c42de08d550fe2081a5d8a13331" target="_top" xlink:title="Stores a 3&#45;dimensional hierarchy of meshes of arbitrary type. ">
<polygon fill="white" stroke="black" points="588,-214 588,-244 703,-244 703,-214 588,-214"/>
<text text-anchor="start" x="596" y="-232" font-family="Helvetica,sans-Serif" font-size="10.00">Ra::Core::Containers</text>
<text text-anchor="middle" x="645.5" y="-221" font-family="Helvetica,sans-Serif" font-size="10.00">::deprecated</text>
</a>
</g>
</g>
<!-- Node5&#45;&gt;Node6 -->
<g id="edge5" class="edge"><title>Node5&#45;&gt;Node6</title>
<path fill="none" stroke="midnightblue" d="M550.577,-225.912C559.715,-226.213 568.89,-226.514 577.733,-226.805"/>
<polygon fill="midnightblue" stroke="midnightblue" points="577.83,-230.31 587.939,-227.14 578.06,-223.314 577.83,-230.31"/>
</g>
<!-- Node6&#45;&gt;Node7 -->
<g id="edge6" class="edge"><title>Node6&#45;&gt;Node7</title>
<path fill="none" stroke="midnightblue" d="M703.344,-220.745C711.672,-219.536 720.326,-218.279 728.866,-217.039"/>
<polygon fill="midnightblue" stroke="midnightblue" points="729.421,-220.495 738.814,-215.595 728.415,-213.568 729.421,-220.495"/>
</g>
</g>
</svg>
