<?xml version="1.0" encoding="UTF-8" standalone="no"?>
<!DOCTYPE svg PUBLIC "-//W3C//DTD SVG 1.1//EN"
 "http://www.w3.org/Graphics/SVG/1.1/DTD/svg11.dtd">
<!-- Generated by graphviz version 2.38.0 (20140413.2041)
 -->
<!-- Title: Ra::GuiBase::ItemModel Pages: 1 -->
<svg width="642pt" height="841pt"
 viewBox="0.00 0.00 642.00 841.00" xmlns="http://www.w3.org/2000/svg" xmlns:xlink="http://www.w3.org/1999/xlink">
<g id="graph0" class="graph" transform="scale(1 1) rotate(0) translate(4 837)">
<title>Ra::GuiBase::ItemModel</title>
<polygon fill="white" stroke="none" points="-4,4 -4,-837 638,-837 638,4 -4,4"/>
<!-- Node1 -->
<g id="node1" class="node"><title>Node1</title>
<polygon fill="#bfbfbf" stroke="black" points="71.5,-17 71.5,-140 202.5,-140 202.5,-17 71.5,-17"/>
<text text-anchor="middle" x="137" y="-128" font-family="Helvetica,sans-Serif" font-size="10.00">Ra::GuiBase::ItemModel</text>
<polyline fill="none" stroke="black" points="71.5,-121 202.5,-121 "/>
<text text-anchor="middle" x="137" y="-109" font-family="Helvetica,sans-Serif" font-size="10.00"> </text>
<polyline fill="none" stroke="black" points="71.5,-102 202.5,-102 "/>
<text text-anchor="start" x="79.5" y="-90" font-family="Helvetica,sans-Serif" font-size="10.00">+ ItemModel()</text>
<text text-anchor="start" x="79.5" y="-79" font-family="Helvetica,sans-Serif" font-size="10.00">+ getEntry()</text>
<text text-anchor="start" x="79.5" y="-68" font-family="Helvetica,sans-Serif" font-size="10.00">+ findEntryIndex()</text>
<text text-anchor="start" x="79.5" y="-57" font-family="Helvetica,sans-Serif" font-size="10.00">+ addItem()</text>
<text text-anchor="start" x="79.5" y="-46" font-family="Helvetica,sans-Serif" font-size="10.00">+ removeItem()</text>
<text text-anchor="start" x="79.5" y="-35" font-family="Helvetica,sans-Serif" font-size="10.00"># buildModel()</text>
<text text-anchor="start" x="79.5" y="-24" font-family="Helvetica,sans-Serif" font-size="10.00"># getHeaderString()</text>
</g>
<!-- Node2 -->
<g id="node2" class="node"><title>Node2</title>
<g id="a_node2"><a xlink:href="classRa_1_1GuiBase_1_1TreeModel.html" target="_top" xlink:title="This class implement QAbstractItem model with the TreeItem as its model Derived class must use some k...">
<polygon fill="white" stroke="black" points="0,-226.5 0,-437.5 128,-437.5 128,-226.5 0,-226.5"/>
<text text-anchor="middle" x="64" y="-425.5" font-family="Helvetica,sans-Serif" font-size="10.00">Ra::GuiBase::TreeModel</text>
<polyline fill="none" stroke="black" points="0,-418.5 128,-418.5 "/>
<text text-anchor="middle" x="64" y="-406.5" font-family="Helvetica,sans-Serif" font-size="10.00"> </text>
<polyline fill="none" stroke="black" points="0,-399.5 128,-399.5 "/>
<text text-anchor="start" x="8" y="-387.5" font-family="Helvetica,sans-Serif" font-size="10.00">+ TreeModel()</text>
<text text-anchor="start" x="8" y="-376.5" font-family="Helvetica,sans-Serif" font-size="10.00">+ rowCount()</text>
<text text-anchor="start" x="8" y="-365.5" font-family="Helvetica,sans-Serif" font-size="10.00">+ columnCount()</text>
<text text-anchor="start" x="8" y="-354.5" font-family="Helvetica,sans-Serif" font-size="10.00">+ data()</text>
<text text-anchor="start" x="8" y="-343.5" font-family="Helvetica,sans-Serif" font-size="10.00">+ setData()</text>
<text text-anchor="start" x="8" y="-332.5" font-family="Helvetica,sans-Serif" font-size="10.00">+ headerData()</text>
<text text-anchor="start" x="8" y="-321.5" font-family="Helvetica,sans-Serif" font-size="10.00">+ index()</text>
<text text-anchor="start" x="8" y="-310.5" font-family="Helvetica,sans-Serif" font-size="10.00">+ parent()</text>
<text text-anchor="start" x="8" y="-299.5" font-family="Helvetica,sans-Serif" font-size="10.00">+ flags()</text>
<text text-anchor="start" x="8" y="-288.5" font-family="Helvetica,sans-Serif" font-size="10.00">+ rebuildModel()</text>
<text text-anchor="start" x="8" y="-277.5" font-family="Helvetica,sans-Serif" font-size="10.00"># getHeaderString()</text>
<text text-anchor="start" x="8" y="-266.5" font-family="Helvetica,sans-Serif" font-size="10.00"># buildModel()</text>
<text text-anchor="start" x="8" y="-255.5" font-family="Helvetica,sans-Serif" font-size="10.00"># getItem()</text>
<text text-anchor="start" x="8" y="-244.5" font-family="Helvetica,sans-Serif" font-size="10.00"># findInTree()</text>
<text text-anchor="start" x="8" y="-233.5" font-family="Helvetica,sans-Serif" font-size="10.00"># printModel()</text>
</a>
</g>
</g>
<!-- Node2&#45;&gt;Node1 -->
<g id="edge1" class="edge"><title>Node2&#45;&gt;Node1</title>
<path fill="none" stroke="midnightblue" d="M97.2292,-216.518C104.858,-190.237 112.678,-163.294 119.343,-140.33"/>
<polygon fill="none" stroke="midnightblue" points="93.8563,-215.583 94.43,-226.163 100.579,-217.535 93.8563,-215.583"/>
</g>
<!-- Node3 -->
<g id="node3" class="node"><title>Node3</title>
<g id="a_node3"><a xlink:href="classQAbstractItemModel.html" target="_top" xlink:title="{QAbstractItemModel\n||}">
<polygon fill="white" stroke="black" points="6.5,-513 6.5,-570 121.5,-570 121.5,-513 6.5,-513"/>
<text text-anchor="middle" x="64" y="-558" font-family="Helvetica,sans-Serif" font-size="10.00">QAbstractItemModel</text>
<polyline fill="none" stroke="black" points="6.5,-551 121.5,-551 "/>
<text text-anchor="middle" x="64" y="-539" font-family="Helvetica,sans-Serif" font-size="10.00"> </text>
<polyline fill="none" stroke="black" points="6.5,-532 121.5,-532 "/>
<text text-anchor="middle" x="64" y="-520" font-family="Helvetica,sans-Serif" font-size="10.00"> </text>
</a>
</g>
</g>
<!-- Node3&#45;&gt;Node2 -->
<g id="edge2" class="edge"><title>Node3&#45;&gt;Node2</title>
<path fill="none" stroke="midnightblue" d="M64,-502.927C64,-484.438 64,-461.138 64,-437.769"/>
<polygon fill="none" stroke="midnightblue" points="60.5001,-502.946 64,-512.946 67.5001,-502.946 60.5001,-502.946"/>
</g>
<!-- Node4 -->
<g id="node4" class="node"><title>Node4</title>
<polygon fill="white" stroke="#bfbfbf" points="272.5,-507.5 272.5,-575.5 393.5,-575.5 393.5,-507.5 272.5,-507.5"/>
<text text-anchor="start" x="280.5" y="-563.5" font-family="Helvetica,sans-Serif" font-size="10.00">std::unique_ptr&lt; Ra</text>
<text text-anchor="middle" x="333" y="-552.5" font-family="Helvetica,sans-Serif" font-size="10.00">::GuiBase::TreeItem &gt;</text>
<polyline fill="none" stroke="#bfbfbf" points="272.5,-545.5 393.5,-545.5 "/>
<text text-anchor="middle" x="333" y="-533.5" font-family="Helvetica,sans-Serif" font-size="10.00"> </text>
<polyline fill="none" stroke="#bfbfbf" points="272.5,-526.5 393.5,-526.5 "/>
<text text-anchor="start" x="280.5" y="-514.5" font-family="Helvetica,sans-Serif" font-size="10.00">+ operator&#45;&gt;()</text>
</g>
<!-- Node4&#45;&gt;Node2 -->
<g id="edge3" class="edge"><title>Node4&#45;&gt;Node2</title>
<path fill="none" stroke="#404040" d="M272.153,-526.668C230.332,-514.68 175.6,-493.814 137,-460 132.395,-455.966 128.011,-451.568 123.847,-446.91"/>
<polygon fill="none" stroke="#404040" points="123.809,-446.864 116.891,-444.828 116.11,-437.66 123.027,-439.696 123.809,-446.864"/>
<text text-anchor="middle" x="209" y="-481" font-family="Helvetica,sans-Serif" font-size="10.00"> #m_rootItem</text>
</g>
<!-- Node6 -->
<g id="node6" class="node"><title>Node6</title>
<polygon fill="white" stroke="#bfbfbf" points="383,-298 383,-366 557,-366 557,-298 383,-298"/>
<text text-anchor="start" x="391" y="-354" font-family="Helvetica,sans-Serif" font-size="10.00">std::vector&lt; std::unique</text>
<text text-anchor="middle" x="470" y="-343" font-family="Helvetica,sans-Serif" font-size="10.00">_ptr&lt; Ra::GuiBase::TreeItem &gt; &gt;</text>
<polyline fill="none" stroke="#bfbfbf" points="383,-336 557,-336 "/>
<text text-anchor="middle" x="470" y="-324" font-family="Helvetica,sans-Serif" font-size="10.00"> </text>
<polyline fill="none" stroke="#bfbfbf" points="383,-317 557,-317 "/>
<text text-anchor="middle" x="470" y="-305" font-family="Helvetica,sans-Serif" font-size="10.00"> </text>
</g>
<!-- Node4&#45;&gt;Node6 -->
<g id="edge6" class="edge"><title>Node4&#45;&gt;Node6</title>
<path fill="none" stroke="#404040" d="M355.011,-507.162C378.38,-471.767 415.416,-415.673 441.116,-376.748"/>
<polygon fill="none" stroke="#404040" points="441.431,-376.27 441.399,-369.059 448.043,-366.256 448.075,-373.467 441.431,-376.27"/>
<text text-anchor="middle" x="402.5" y="-481" font-family="Helvetica,sans-Serif" font-size="10.00"> +elements</text>
</g>
<!-- Node5 -->
<g id="node5" class="node"><title>Node5</title>
<g id="a_node5"><a xlink:href="classRa_1_1GuiBase_1_1TreeItem.html" target="_top" xlink:title="Base class for element of the tree representation. ">
<polygon fill="white" stroke="black" points="294,-0.5 294,-156.5 416,-156.5 416,-0.5 294,-0.5"/>
<text text-anchor="middle" x="355" y="-144.5" font-family="Helvetica,sans-Serif" font-size="10.00">Ra::GuiBase::TreeItem</text>
<polyline fill="none" stroke="black" points="294,-137.5 416,-137.5 "/>
<text text-anchor="middle" x="355" y="-125.5" font-family="Helvetica,sans-Serif" font-size="10.00"> </text>
<polyline fill="none" stroke="black" points="294,-118.5 416,-118.5 "/>
<text text-anchor="start" x="302" y="-106.5" font-family="Helvetica,sans-Serif" font-size="10.00">+ TreeItem()</text>
<text text-anchor="start" x="302" y="-95.5" font-family="Helvetica,sans-Serif" font-size="10.00">+ ~TreeItem()</text>
<text text-anchor="start" x="302" y="-84.5" font-family="Helvetica,sans-Serif" font-size="10.00">+ TreeItem()</text>
<text text-anchor="start" x="302" y="-73.5" font-family="Helvetica,sans-Serif" font-size="10.00">+ operator=()</text>
<text text-anchor="start" x="302" y="-62.5" font-family="Helvetica,sans-Serif" font-size="10.00">+ getName()</text>
<text text-anchor="start" x="302" y="-51.5" font-family="Helvetica,sans-Serif" font-size="10.00">+ isValid()</text>
<text text-anchor="start" x="302" y="-40.5" font-family="Helvetica,sans-Serif" font-size="10.00">+ isSelectable()</text>
<text text-anchor="start" x="302" y="-29.5" font-family="Helvetica,sans-Serif" font-size="10.00">+ getIndexInParent()</text>
<text text-anchor="start" x="302" y="-18.5" font-family="Helvetica,sans-Serif" font-size="10.00">+ isChecked()</text>
<text text-anchor="start" x="302" y="-7.5" font-family="Helvetica,sans-Serif" font-size="10.00">+ setChecked()</text>
</a>
</g>
</g>
<!-- Node5&#45;&gt;Node4 -->
<g id="edge4" class="edge"><title>Node5&#45;&gt;Node4</title>
<path fill="none" stroke="#404040" d="M351.28,-156.539C350.523,-172.243 349.735,-188.653 349,-204 344.019,-308.059 338.223,-430.222 335.158,-494.917"/>
<polygon fill="none" stroke="#404040" points="335.15,-495.08 338.862,-501.263 334.583,-507.067 330.871,-500.884 335.15,-495.08"/>
<text text-anchor="middle" x="361.5" y="-329.5" font-family="Helvetica,sans-Serif" font-size="10.00"> +ptr</text>
</g>
<!-- Node5&#45;&gt;Node5 -->
<g id="edge9" class="edge"><title>Node5&#45;&gt;Node5</title>
<path fill="none" stroke="#404040" d="M416.279,-96.3538C426.747,-93.9142 434,-87.9629 434,-78.5 434,-73.0293 431.576,-68.7322 427.508,-65.6088"/>
<polygon fill="none" stroke="#404040" points="427.255,-65.4971 420.15,-66.7302 416.279,-60.6462 423.384,-59.413 427.255,-65.4971"/>
<text text-anchor="middle" x="463" y="-76" font-family="Helvetica,sans-Serif" font-size="10.00"> +m_parent</text>
</g>
<!-- Node6&#45;&gt;Node5 -->
<g id="edge5" class="edge"><title>Node6&#45;&gt;Node5</title>
<path fill="none" stroke="#404040" d="M454.848,-297.862C439.747,-264.838 415.903,-212.691 395.302,-167.639"/>
<polygon fill="none" stroke="#404040" points="395.269,-167.567 389.137,-163.774 390.279,-156.654 396.412,-160.447 395.269,-167.567"/>
<text text-anchor="middle" x="435" y="-178" font-family="Helvetica,sans-Serif" font-size="10.00"> +m_children</text>
</g>
<!-- Node7 -->
<g id="node7" class="node"><title>Node7</title>
<g id="a_node7"><a xlink:title="STL class. ">
<polygon fill="white" stroke="#bfbfbf" points="462.5,-594.5 462.5,-651.5 557.5,-651.5 557.5,-594.5 462.5,-594.5"/>
<text text-anchor="middle" x="510" y="-639.5" font-family="Helvetica,sans-Serif" font-size="10.00">std::vector&lt; T &gt;</text>
<polyline fill="none" stroke="#bfbfbf" points="462.5,-632.5 557.5,-632.5 "/>
<text text-anchor="middle" x="510" y="-620.5" font-family="Helvetica,sans-Serif" font-size="10.00"> </text>
<polyline fill="none" stroke="#bfbfbf" points="462.5,-613.5 557.5,-613.5 "/>
<text text-anchor="middle" x="510" y="-601.5" font-family="Helvetica,sans-Serif" font-size="10.00"> </text>
</a>
</g>
</g>
<!-- Node7&#45;&gt;Node6 -->
<g id="edge7" class="edge"><title>Node7&#45;&gt;Node6</title>
<path fill="none" stroke="orange" d="M504.778,-584.272C496.904,-527.383 482.117,-420.545 474.616,-366.35"/>
<polygon fill="orange" stroke="orange" points="501.327,-584.864 506.165,-594.289 508.26,-583.904 501.327,-584.864"/>
<text text-anchor="start" x="503" y="-544.5" font-family="Helvetica,sans-Serif" font-size="10.00"> &lt; std::unique_ptr&lt;</text>
<text text-anchor="middle" x="568.5" y="-533.5" font-family="Helvetica,sans-Serif" font-size="10.00"> Ra::GuiBase::TreeItem &gt; &gt;</text>
</g>
<!-- Node8 -->
<g id="node8" class="node"><title>Node8</title>
<polygon fill="white" stroke="#bfbfbf" points="430.5,-775.5 430.5,-832.5 459.5,-832.5 459.5,-775.5 430.5,-775.5"/>
<text text-anchor="middle" x="445" y="-820.5" font-family="Helvetica,sans-Serif" font-size="10.00">T</text>
<polyline fill="none" stroke="#bfbfbf" points="430.5,-813.5 459.5,-813.5 "/>
<text text-anchor="middle" x="445" y="-801.5" font-family="Helvetica,sans-Serif" font-size="10.00"> </text>
<polyline fill="none" stroke="#bfbfbf" points="430.5,-794.5 459.5,-794.5 "/>
<text text-anchor="middle" x="445" y="-782.5" font-family="Helvetica,sans-Serif" font-size="10.00"> </text>
</g>
<!-- Node8&#45;&gt;Node7 -->
<g id="edge8" class="edge"><title>Node8&#45;&gt;Node7</title>
<path fill="none" stroke="#404040" d="M455.014,-775.424C465.94,-745.334 483.518,-696.928 495.851,-662.965"/>
<polygon fill="none" stroke="#404040" points="495.879,-662.887 494.167,-655.882 499.975,-651.608 501.687,-658.613 495.879,-662.887"/>
<text text-anchor="middle" x="493.5" y="-749" font-family="Helvetica,sans-Serif" font-size="10.00"> +elements</text>
</g>
<!-- Node9 -->
<g id="node9" class="node"><title>Node9</title>
<g id="a_node9"><a xlink:title="STL class. ">
<polygon fill="white" stroke="#bfbfbf" points="317,-670.5 317,-727.5 433,-727.5 433,-670.5 317,-670.5"/>
<text text-anchor="middle" x="375" y="-715.5" font-family="Helvetica,sans-Serif" font-size="10.00">std::unique_ptr&lt; T &gt;</text>
<polyline fill="none" stroke="#bfbfbf" points="317,-708.5 433,-708.5 "/>
<text text-anchor="middle" x="375" y="-696.5" font-family="Helvetica,sans-Serif" font-size="10.00"> </text>
<polyline fill="none" stroke="#bfbfbf" points="317,-689.5 433,-689.5 "/>
<text text-anchor="start" x="325" y="-677.5" font-family="Helvetica,sans-Serif" font-size="10.00">+ operator&#45;&gt;()</text>
</a>
</g>
</g>
<!-- Node8&#45;&gt;Node9 -->
<g id="edge11" class="edge"><title>Node8&#45;&gt;Node9</title>
<path fill="none" stroke="#404040" d="M430.496,-781.658C421.841,-768.923 410.604,-752.389 400.508,-737.533"/>
<polygon fill="none" stroke="#404040" points="400.491,-737.508 393.81,-734.794 393.746,-727.583 400.427,-730.297 400.491,-737.508"/>
<text text-anchor="middle" x="425.5" y="-749" font-family="Helvetica,sans-Serif" font-size="10.00"> +ptr</text>
</g>
<!-- Node9&#45;&gt;Node4 -->
<g id="edge10" class="edge"><title>Node9&#45;&gt;Node4</title>
<path fill="none" stroke="orange" d="M329.166,-662.458C326.756,-659.158 324.652,-655.666 323,-652 312.179,-627.981 315.931,-598.038 321.688,-575.538"/>
<polygon fill="orange" stroke="orange" points="326.6,-664.845 335.707,-670.259 331.964,-660.348 326.6,-664.845"/>
<text text-anchor="middle" x="388.5" y="-620.5" font-family="Helvetica,sans-Serif" font-size="10.00"> &lt; Ra::GuiBase::TreeItem &gt;</text>
</g>
<!-- Node10 -->
<g id="node10" class="node"><title>Node10</title>
<g id="a_node10"><a xlink:href="classRa_1_1Engine_1_1RadiumEngine.html" target="_top" xlink:title="Engine main class : Manage all the systems and managers that are used by the engine module...">
<polygon fill="white" stroke="black" points="146.5,-204.5 146.5,-459.5 303.5,-459.5 303.5,-204.5 146.5,-204.5"/>
<text text-anchor="middle" x="225" y="-447.5" font-family="Helvetica,sans-Serif" font-size="10.00">Ra::Engine::RadiumEngine</text>
<polyline fill="none" stroke="black" points="146.5,-440.5 303.5,-440.5 "/>
<text text-anchor="middle" x="225" y="-428.5" font-family="Helvetica,sans-Serif" font-size="10.00"> </text>
<polyline fill="none" stroke="black" points="146.5,-421.5 303.5,-421.5 "/>
<text text-anchor="start" x="154.5" y="-409.5" font-family="Helvetica,sans-Serif" font-size="10.00">+ RadiumEngine()</text>
<text text-anchor="start" x="154.5" y="-398.5" font-family="Helvetica,sans-Serif" font-size="10.00">+ ~RadiumEngine()</text>
<text text-anchor="start" x="154.5" y="-387.5" font-family="Helvetica,sans-Serif" font-size="10.00">+ initialize()</text>
<text text-anchor="start" x="154.5" y="-376.5" font-family="Helvetica,sans-Serif" font-size="10.00">+ registerDefaultPrograms()</text>
<text text-anchor="start" x="154.5" y="-365.5" font-family="Helvetica,sans-Serif" font-size="10.00">+ cleanup()</text>
<text text-anchor="start" x="154.5" y="-354.5" font-family="Helvetica,sans-Serif" font-size="10.00">+ getTasks()</text>
<text text-anchor="start" x="154.5" y="-343.5" font-family="Helvetica,sans-Serif" font-size="10.00">+ registerSystem()</text>
<text text-anchor="start" x="154.5" y="-332.5" font-family="Helvetica,sans-Serif" font-size="10.00">+ getSystem()</text>
<text text-anchor="start" x="154.5" y="-321.5" font-family="Helvetica,sans-Serif" font-size="10.00">+ getMesh()</text>
<text text-anchor="start" x="154.5" y="-310.5" font-family="Helvetica,sans-Serif" font-size="10.00">+ loadFile()</text>
<text text-anchor="start" x="154.5" y="-299.5" font-family="Helvetica,sans-Serif" font-size="10.00">+ getFileData()</text>
<text text-anchor="start" x="154.5" y="-288.5" font-family="Helvetica,sans-Serif" font-size="10.00">+ releaseFile()</text>
<text text-anchor="start" x="154.5" y="-277.5" font-family="Helvetica,sans-Serif" font-size="10.00">+ endFrameSync()</text>
<text text-anchor="start" x="154.5" y="-266.5" font-family="Helvetica,sans-Serif" font-size="10.00">+ getRenderObjectManager()</text>
<text text-anchor="start" x="154.5" y="-255.5" font-family="Helvetica,sans-Serif" font-size="10.00">+ getEntityManager()</text>
<text text-anchor="start" x="154.5" y="-244.5" font-family="Helvetica,sans-Serif" font-size="10.00">+ getSignalManager()</text>
<text text-anchor="start" x="154.5" y="-233.5" font-family="Helvetica,sans-Serif" font-size="10.00">+ registerFileLoader()</text>
<text text-anchor="start" x="154.5" y="-222.5" font-family="Helvetica,sans-Serif" font-size="10.00">+ getFileLoaders()</text>
<text text-anchor="start" x="154.5" y="-211.5" font-family="Helvetica,sans-Serif" font-size="10.00">+ computeSceneAabb()</text>
</a>
</g>
</g>
<!-- Node10&#45;&gt;Node1 -->
<g id="edge12" class="edge"><title>Node10&#45;&gt;Node1</title>
<path fill="none" stroke="#404040" d="M180.613,-204.145C174.323,-186.168 168.043,-168.221 162.289,-151.774"/>
<polygon fill="none" stroke="#404040" points="162.162,-151.41 156.404,-147.068 158.198,-140.084 163.955,-144.426 162.162,-151.41"/>
<text text-anchor="middle" x="203.5" y="-178" font-family="Helvetica,sans-Serif" font-size="10.00"> #m_engine</text>
</g>
</g>
</svg>
