<?xml version="1.0" encoding="UTF-8" standalone="no"?>
<!DOCTYPE svg PUBLIC "-//W3C//DTD SVG 1.1//EN"
 "http://www.w3.org/Graphics/SVG/1.1/DTD/svg11.dtd">
<!-- Generated by graphviz version 2.38.0 (20140413.2041)
 -->
<!-- Title: Ra::Engine::Mesh::getRenderMode Pages: 1 -->
<svg width="494pt" height="39pt"
 viewBox="0.00 0.00 494.00 39.00" xmlns="http://www.w3.org/2000/svg" xmlns:xlink="http://www.w3.org/1999/xlink">
<g id="graph0" class="graph" transform="scale(1 1) rotate(0) translate(4 35)">
<title>Ra::Engine::Mesh::getRenderMode</title>
<polygon fill="white" stroke="none" points="-4,4 -4,-35 490,-35 490,4 -4,4"/>
<!-- Node1 -->
<g id="node1" class="node"><title>Node1</title>
<polygon fill="#bfbfbf" stroke="black" points="0,-6 0,-25 179,-25 179,-6 0,-6"/>
<text text-anchor="middle" x="89.5" y="-13" font-family="Helvetica,sans-Serif" font-size="10.00">Ra::Engine::Mesh::getRenderMode</text>
</g>
<!-- Node2 -->
<g id="node2" class="node"><title>Node2</title>
<g id="a_node2"><a xlink:href="namespaceRa_1_1Core_1_1Containers.html#a83257c42de08d550fe2081a5d8a13331" target="_top" xlink:title="Stores a 3&#45;dimensional hierarchy of meshes of arbitrary type. ">
<polygon fill="white" stroke="black" points="215,-0.5 215,-30.5 330,-30.5 330,-0.5 215,-0.5"/>
<text text-anchor="start" x="223" y="-18.5" font-family="Helvetica,sans-Serif" font-size="10.00">Ra::Core::Containers</text>
<text text-anchor="middle" x="272.5" y="-7.5" font-family="Helvetica,sans-Serif" font-size="10.00">::deprecated</text>
</a>
</g>
</g>
<!-- Node1&#45;&gt;Node2 -->
<g id="edge1" class="edge"><title>Node1&#45;&gt;Node2</title>
<path fill="none" stroke="midnightblue" d="M179.144,-15.5C187.805,-15.5 196.488,-15.5 204.876,-15.5"/>
<polygon fill="midnightblue" stroke="midnightblue" points="204.94,-19.0001 214.94,-15.5 204.94,-12.0001 204.94,-19.0001"/>
</g>
<!-- Node3 -->
<g id="node3" class="node"><title>Node3</title>
<g id="a_node3"><a xlink:href="namespaceRa_1_1Core_1_1Geometry.html#aa04e6052d8911b1df1bd881474debb45" target="_top" xlink:title="Ra::Core::Geometry::t">
<polygon fill="white" stroke="black" points="366,-6 366,-25 486,-25 486,-6 366,-6"/>
<text text-anchor="middle" x="426" y="-13" font-family="Helvetica,sans-Serif" font-size="10.00">Ra::Core::Geometry::t</text>
</a>
</g>
</g>
<!-- Node2&#45;&gt;Node3 -->
<g id="edge2" class="edge"><title>Node2&#45;&gt;Node3</title>
<path fill="none" stroke="midnightblue" d="M330.344,-15.5C338.582,-15.5 347.138,-15.5 355.588,-15.5"/>
<polygon fill="midnightblue" stroke="midnightblue" points="355.814,-19.0001 365.814,-15.5 355.814,-12.0001 355.814,-19.0001"/>
</g>
</g>
</svg>
