<?xml version="1.0" encoding="UTF-8" standalone="no"?>
<!DOCTYPE svg PUBLIC "-//W3C//DTD SVG 1.1//EN"
 "http://www.w3.org/Graphics/SVG/1.1/DTD/svg11.dtd">
<!-- Generated by graphviz version 2.38.0 (20140413.2041)
 -->
<!-- Title: Ra::Gui::TrackballCameraManipulator::setCamera Pages: 1 -->
<svg width="668pt" height="410pt"
 viewBox="0.00 0.00 668.00 410.00" xmlns="http://www.w3.org/2000/svg" xmlns:xlink="http://www.w3.org/1999/xlink">
<g id="graph0" class="graph" transform="scale(1 1) rotate(0) translate(4 406)">
<title>Ra::Gui::TrackballCameraManipulator::setCamera</title>
<polygon fill="white" stroke="none" points="-4,4 -4,-406 664,-406 664,4 -4,4"/>
<!-- Node1 -->
<g id="node1" class="node"><title>Node1</title>
<polygon fill="#bfbfbf" stroke="black" points="0,-191.5 0,-221.5 135,-221.5 135,-191.5 0,-191.5"/>
<text text-anchor="start" x="8" y="-209.5" font-family="Helvetica,sans-Serif" font-size="10.00">Ra::Gui::TrackballCamera</text>
<text text-anchor="middle" x="67.5" y="-198.5" font-family="Helvetica,sans-Serif" font-size="10.00">Manipulator::setCamera</text>
</g>
<!-- Node2 -->
<g id="node2" class="node"><title>Node2</title>
<g id="a_node2"><a xlink:href="classRa_1_1Engine_1_1Camera.html#a2acbb1a258f8d0af86edcd978cfbf3e1" target="_top" xlink:title="Change the viewport size. ">
<polygon fill="white" stroke="black" points="192.5,-371.5 192.5,-401.5 303.5,-401.5 303.5,-371.5 192.5,-371.5"/>
<text text-anchor="start" x="200.5" y="-389.5" font-family="Helvetica,sans-Serif" font-size="10.00">Ra::Engine::Camera</text>
<text text-anchor="middle" x="248" y="-378.5" font-family="Helvetica,sans-Serif" font-size="10.00">::resize</text>
</a>
</g>
</g>
<!-- Node1&#45;&gt;Node2 -->
<g id="edge1" class="edge"><title>Node1&#45;&gt;Node2</title>
<path fill="none" stroke="midnightblue" d="M74.4047,-221.876C87.1725,-253.092 120.346,-324.178 171,-362.5 174.8,-365.375 178.953,-367.911 183.295,-370.146"/>
<polygon fill="midnightblue" stroke="midnightblue" points="181.872,-373.344 192.421,-374.327 184.787,-366.98 181.872,-373.344"/>
</g>
<!-- Node5 -->
<g id="node5" class="node"><title>Node5</title>
<g id="a_node5"><a xlink:href="classRa_1_1Engine_1_1Camera.html#acc1bb27e2afe38147548184324ceaa9e" target="_top" xlink:title="Return the width of the viewport. ">
<polygon fill="white" stroke="black" points="192.5,-322.5 192.5,-352.5 303.5,-352.5 303.5,-322.5 192.5,-322.5"/>
<text text-anchor="start" x="200.5" y="-340.5" font-family="Helvetica,sans-Serif" font-size="10.00">Ra::Engine::Camera</text>
<text text-anchor="middle" x="248" y="-329.5" font-family="Helvetica,sans-Serif" font-size="10.00">::getWidth</text>
</a>
</g>
</g>
<!-- Node1&#45;&gt;Node5 -->
<g id="edge4" class="edge"><title>Node1&#45;&gt;Node5</title>
<path fill="none" stroke="midnightblue" d="M79.3472,-221.747C96.3719,-244.617 131.525,-287.752 171,-312.5 174.81,-314.889 178.872,-317.073 183.061,-319.066"/>
<polygon fill="midnightblue" stroke="midnightblue" points="181.821,-322.344 192.386,-323.131 184.618,-315.927 181.821,-322.344"/>
</g>
<!-- Node6 -->
<g id="node6" class="node"><title>Node6</title>
<g id="a_node6"><a xlink:href="classRa_1_1Engine_1_1Camera.html#af9756bbd9e75f5b762a42f3e9e275af8" target="_top" xlink:title="Return the height of the viewport. ">
<polygon fill="white" stroke="black" points="192.5,-273.5 192.5,-303.5 303.5,-303.5 303.5,-273.5 192.5,-273.5"/>
<text text-anchor="start" x="200.5" y="-291.5" font-family="Helvetica,sans-Serif" font-size="10.00">Ra::Engine::Camera</text>
<text text-anchor="middle" x="248" y="-280.5" font-family="Helvetica,sans-Serif" font-size="10.00">::getHeight</text>
</a>
</g>
</g>
<!-- Node1&#45;&gt;Node6 -->
<g id="edge5" class="edge"><title>Node1&#45;&gt;Node6</title>
<path fill="none" stroke="midnightblue" d="M96.4356,-221.565C116.853,-232.355 145.341,-246.958 171,-258.5 179.455,-262.304 188.547,-266.12 197.399,-269.696"/>
<polygon fill="midnightblue" stroke="midnightblue" points="196.284,-273.019 206.869,-273.469 198.875,-266.516 196.284,-273.019"/>
</g>
<!-- Node7 -->
<g id="node7" class="node"><title>Node7</title>
<g id="a_node7"><a xlink:href="classRa_1_1Engine_1_1Camera.html#a724a052e94817af7e602129467c8696f" target="_top" xlink:title="Return the position. ">
<polygon fill="white" stroke="black" points="377,-240.5 377,-270.5 488,-270.5 488,-240.5 377,-240.5"/>
<text text-anchor="start" x="385" y="-258.5" font-family="Helvetica,sans-Serif" font-size="10.00">Ra::Engine::Camera</text>
<text text-anchor="middle" x="432.5" y="-247.5" font-family="Helvetica,sans-Serif" font-size="10.00">::getPosition</text>
</a>
</g>
</g>
<!-- Node1&#45;&gt;Node7 -->
<g id="edge6" class="edge"><title>Node1&#45;&gt;Node7</title>
<path fill="none" stroke="midnightblue" d="M135.212,-215.633C147.13,-217.259 159.431,-218.933 171,-220.5 237.663,-229.531 313.935,-239.767 366.643,-246.826"/>
<polygon fill="midnightblue" stroke="midnightblue" points="366.485,-250.336 376.861,-248.194 367.414,-243.398 366.485,-250.336"/>
</g>
<!-- Node8 -->
<g id="node8" class="node"><title>Node8</title>
<g id="a_node8"><a xlink:href="classRa_1_1Engine_1_1Camera.html#a23be7aa714c0e9c2a9429dfc9ef2c53a" target="_top" xlink:title="Return the direction the camera is looking at. ">
<polygon fill="white" stroke="black" points="377,-191.5 377,-221.5 488,-221.5 488,-191.5 377,-191.5"/>
<text text-anchor="start" x="385" y="-209.5" font-family="Helvetica,sans-Serif" font-size="10.00">Ra::Engine::Camera</text>
<text text-anchor="middle" x="432.5" y="-198.5" font-family="Helvetica,sans-Serif" font-size="10.00">::getDirection</text>
</a>
</g>
</g>
<!-- Node1&#45;&gt;Node8 -->
<g id="edge7" class="edge"><title>Node1&#45;&gt;Node8</title>
<path fill="none" stroke="midnightblue" d="M135.08,-206.5C201.039,-206.5 301.397,-206.5 366.722,-206.5"/>
<polygon fill="midnightblue" stroke="midnightblue" points="366.894,-210 376.894,-206.5 366.894,-203 366.894,-210"/>
</g>
<!-- Node9 -->
<g id="node9" class="node"><title>Node9</title>
<g id="a_node9"><a xlink:href="classRa_1_1Gui_1_1TrackballCameraManipulator.html#ad7880fb45a56841fd743fb3ad80c2592" target="_top" xlink:title="Update the polar coordinates of the Camera w.r.t. the trackball center. ">
<polygon fill="white" stroke="black" points="171,-147.5 171,-177.5 325,-177.5 325,-147.5 171,-147.5"/>
<text text-anchor="start" x="179" y="-165.5" font-family="Helvetica,sans-Serif" font-size="10.00">Ra::Gui::TrackballCamera</text>
<text text-anchor="middle" x="248" y="-154.5" font-family="Helvetica,sans-Serif" font-size="10.00">Manipulator::updatePhiTheta</text>
</a>
</g>
</g>
<!-- Node1&#45;&gt;Node9 -->
<g id="edge8" class="edge"><title>Node1&#45;&gt;Node9</title>
<path fill="none" stroke="midnightblue" d="M129.43,-191.481C144.426,-187.784 160.611,-183.795 176.036,-179.993"/>
<polygon fill="midnightblue" stroke="midnightblue" points="177.17,-183.318 186.041,-177.526 175.494,-176.521 177.17,-183.318"/>
</g>
<!-- Node12 -->
<g id="node12" class="node"><title>Node12</title>
<g id="a_node12"><a xlink:href="classRa_1_1Engine_1_1Camera.html#a4c2aac5ad419cef7720e2a18d93b3703" target="_top" xlink:title="Toggle on/off displaying the Camera. ">
<polygon fill="white" stroke="black" points="192.5,-98.5 192.5,-128.5 303.5,-128.5 303.5,-98.5 192.5,-98.5"/>
<text text-anchor="start" x="200.5" y="-116.5" font-family="Helvetica,sans-Serif" font-size="10.00">Ra::Engine::Camera</text>
<text text-anchor="middle" x="248" y="-105.5" font-family="Helvetica,sans-Serif" font-size="10.00">::show</text>
</a>
</g>
</g>
<!-- Node1&#45;&gt;Node12 -->
<g id="edge13" class="edge"><title>Node1&#45;&gt;Node12</title>
<path fill="none" stroke="midnightblue" d="M87.5169,-191.242C107.369,-175.922 139.889,-152.497 171,-137.5 174.856,-135.641 178.89,-133.881 183.003,-132.223"/>
<polygon fill="midnightblue" stroke="midnightblue" points="184.59,-135.364 192.695,-128.541 182.104,-128.821 184.59,-135.364"/>
</g>
<!-- Node14 -->
<g id="node14" class="node"><title>Node14</title>
<g id="a_node14"><a xlink:href="classRa_1_1Engine_1_1Light.html#a1bf2c510e62b2a99f0012a39ad218378" target="_top" xlink:title="Set the position of the light source. ">
<polygon fill="white" stroke="black" points="197,-49.5 197,-79.5 299,-79.5 299,-49.5 197,-49.5"/>
<text text-anchor="start" x="205" y="-67.5" font-family="Helvetica,sans-Serif" font-size="10.00">Ra::Engine::Light::</text>
<text text-anchor="middle" x="248" y="-56.5" font-family="Helvetica,sans-Serif" font-size="10.00">setPosition</text>
</a>
</g>
</g>
<!-- Node1&#45;&gt;Node14 -->
<g id="edge15" class="edge"><title>Node1&#45;&gt;Node14</title>
<path fill="none" stroke="midnightblue" d="M77.5788,-191.471C93.4378,-166.47 128.575,-116.34 171,-88.5 176.039,-85.1931 181.565,-82.3166 187.264,-79.8199"/>
<polygon fill="midnightblue" stroke="midnightblue" points="188.963,-82.9112 196.966,-75.9677 186.38,-76.4053 188.963,-82.9112"/>
</g>
<!-- Node16 -->
<g id="node16" class="node"><title>Node16</title>
<g id="a_node16"><a xlink:href="classRa_1_1Engine_1_1Light.html#a24e11b300dfe4e2a785d87b6de74b036" target="_top" xlink:title="set the direction of lighting ">
<polygon fill="white" stroke="black" points="197,-0.5 197,-30.5 299,-30.5 299,-0.5 197,-0.5"/>
<text text-anchor="start" x="205" y="-18.5" font-family="Helvetica,sans-Serif" font-size="10.00">Ra::Engine::Light::</text>
<text text-anchor="middle" x="248" y="-7.5" font-family="Helvetica,sans-Serif" font-size="10.00">setDirection</text>
</a>
</g>
</g>
<!-- Node1&#45;&gt;Node16 -->
<g id="edge17" class="edge"><title>Node1&#45;&gt;Node16</title>
<path fill="none" stroke="midnightblue" d="M73.7257,-191.052C85.6306,-158.188 117.917,-80.9621 171,-39.5 175.938,-35.6433 181.506,-32.4 187.328,-29.6739"/>
<polygon fill="midnightblue" stroke="midnightblue" points="188.744,-32.8757 196.632,-25.8017 186.054,-26.4131 188.744,-32.8757"/>
</g>
<!-- Node3 -->
<g id="node3" class="node"><title>Node3</title>
<g id="a_node3"><a xlink:href="classRa_1_1Engine_1_1Camera.html#a2124136d939bd433f9630e23c403cdd6" target="_top" xlink:title="Update the projection matrix according to the current parameters. ">
<polygon fill="white" stroke="black" points="377,-371.5 377,-401.5 488,-401.5 488,-371.5 377,-371.5"/>
<text text-anchor="start" x="385" y="-389.5" font-family="Helvetica,sans-Serif" font-size="10.00">Ra::Engine::Camera</text>
<text text-anchor="middle" x="432.5" y="-378.5" font-family="Helvetica,sans-Serif" font-size="10.00">::updateProjMatrix</text>
</a>
</g>
</g>
<!-- Node2&#45;&gt;Node3 -->
<g id="edge2" class="edge"><title>Node2&#45;&gt;Node3</title>
<path fill="none" stroke="midnightblue" d="M303.756,-386.5C323.516,-386.5 346.01,-386.5 366.557,-386.5"/>
<polygon fill="midnightblue" stroke="midnightblue" points="366.783,-390 376.783,-386.5 366.783,-383 366.783,-390"/>
</g>
<!-- Node4 -->
<g id="node4" class="node"><title>Node4</title>
<g id="a_node4"><a xlink:href="namespaceRa_1_1Core_1_1Geometry.html#aa04e6052d8911b1df1bd881474debb45" target="_top" xlink:title="Ra::Core::Geometry::t">
<polygon fill="white" stroke="black" points="540,-377 540,-396 660,-396 660,-377 540,-377"/>
<text text-anchor="middle" x="600" y="-384" font-family="Helvetica,sans-Serif" font-size="10.00">Ra::Core::Geometry::t</text>
</a>
</g>
</g>
<!-- Node3&#45;&gt;Node4 -->
<g id="edge3" class="edge"><title>Node3&#45;&gt;Node4</title>
<path fill="none" stroke="midnightblue" d="M488.15,-386.5C501.484,-386.5 515.923,-386.5 529.836,-386.5"/>
<polygon fill="midnightblue" stroke="midnightblue" points="529.85,-390 539.85,-386.5 529.849,-383 529.85,-390"/>
</g>
<!-- Node9&#45;&gt;Node7 -->
<g id="edge11" class="edge"><title>Node9&#45;&gt;Node7</title>
<path fill="none" stroke="midnightblue" d="M270.981,-177.709C293.034,-192.514 328.326,-214.989 361,-230.5 365.575,-232.672 370.393,-234.762 375.272,-236.746"/>
<polygon fill="midnightblue" stroke="midnightblue" points="374.098,-240.044 384.686,-240.421 376.644,-233.524 374.098,-240.044"/>
</g>
<!-- Node9&#45;&gt;Node8 -->
<g id="edge10" class="edge"><title>Node9&#45;&gt;Node8</title>
<path fill="none" stroke="midnightblue" d="M311.296,-177.519C329.243,-181.846 348.858,-186.575 366.94,-190.935"/>
<polygon fill="midnightblue" stroke="midnightblue" points="366.266,-194.373 376.808,-193.314 367.907,-187.568 366.266,-194.373"/>
</g>
<!-- Node10 -->
<g id="node10" class="node"><title>Node10</title>
<g id="a_node10"><a xlink:href="namespaceRa_1_1Core_1_1Math.html#a46540d56930b4c1ff3b115872cde4893" target="_top" xlink:title="Compare two numbers such that |x&#45;y| &lt; espilon*epsilonBoostFactor. ">
<polygon fill="white" stroke="black" points="361,-103.5 361,-133.5 504,-133.5 504,-103.5 361,-103.5"/>
<text text-anchor="start" x="369" y="-121.5" font-family="Helvetica,sans-Serif" font-size="10.00">Ra::Core::Math::areApprox</text>
<text text-anchor="middle" x="432.5" y="-110.5" font-family="Helvetica,sans-Serif" font-size="10.00">Equal</text>
</a>
</g>
</g>
<!-- Node9&#45;&gt;Node10 -->
<g id="edge9" class="edge"><title>Node9&#45;&gt;Node10</title>
<path fill="none" stroke="midnightblue" d="M311.296,-147.481C326.773,-143.749 343.491,-139.719 359.396,-135.884"/>
<polygon fill="midnightblue" stroke="midnightblue" points="360.274,-139.273 369.175,-133.526 358.634,-132.468 360.274,-139.273"/>
</g>
<!-- Node11 -->
<g id="node11" class="node"><title>Node11</title>
<g id="a_node11"><a xlink:href="namespaceOpenMesh.html#a8205f789ce08919bc11c58383574596c" target="_top" xlink:title="OpenMesh::norm">
<polygon fill="white" stroke="black" points="383,-153 383,-172 482,-172 482,-153 383,-153"/>
<text text-anchor="middle" x="432.5" y="-160" font-family="Helvetica,sans-Serif" font-size="10.00">OpenMesh::norm</text>
</a>
</g>
</g>
<!-- Node9&#45;&gt;Node11 -->
<g id="edge12" class="edge"><title>Node9&#45;&gt;Node11</title>
<path fill="none" stroke="midnightblue" d="M325.075,-162.5C340.968,-162.5 357.493,-162.5 372.648,-162.5"/>
<polygon fill="midnightblue" stroke="midnightblue" points="372.897,-166 382.897,-162.5 372.897,-159 372.897,-166"/>
</g>
<!-- Node13 -->
<g id="node13" class="node"><title>Node13</title>
<g id="a_node13"><a xlink:href="classRa_1_1Engine_1_1RenderObject.html#a62e0eb3a7de5a7d352b565a28260cc06" target="_top" xlink:title="Ra::Engine::RenderObject\l::setVisible">
<polygon fill="white" stroke="black" points="364,-54.5 364,-84.5 501,-84.5 501,-54.5 364,-54.5"/>
<text text-anchor="start" x="372" y="-72.5" font-family="Helvetica,sans-Serif" font-size="10.00">Ra::Engine::RenderObject</text>
<text text-anchor="middle" x="432.5" y="-61.5" font-family="Helvetica,sans-Serif" font-size="10.00">::setVisible</text>
</a>
</g>
</g>
<!-- Node12&#45;&gt;Node13 -->
<g id="edge14" class="edge"><title>Node12&#45;&gt;Node13</title>
<path fill="none" stroke="midnightblue" d="M303.756,-100.299C321.2,-96.093 340.774,-91.3738 359.258,-86.9172"/>
<polygon fill="midnightblue" stroke="midnightblue" points="360.2,-90.2906 369.101,-84.5442 358.559,-83.4856 360.2,-90.2906"/>
</g>
<!-- Node15 -->
<g id="node15" class="node"><title>Node15</title>
<g id="a_node15"><a xlink:href="classRa_1_1Core_1_1Utils_1_1ColorBase.html#a467dad42627c64495356c4fd21b3ac81" target="_top" xlink:title="Ra::Core::Utils::ColorBase\l\&lt; Scalar \&gt;::White">
<polygon fill="white" stroke="black" points="363,-5.5 363,-35.5 502,-35.5 502,-5.5 363,-5.5"/>
<text text-anchor="start" x="371" y="-23.5" font-family="Helvetica,sans-Serif" font-size="10.00">Ra::Core::Utils::ColorBase</text>
<text text-anchor="middle" x="432.5" y="-12.5" font-family="Helvetica,sans-Serif" font-size="10.00">&lt; Scalar &gt;::White</text>
</a>
</g>
</g>
<!-- Node14&#45;&gt;Node15 -->
<g id="edge16" class="edge"><title>Node14&#45;&gt;Node15</title>
<path fill="none" stroke="midnightblue" d="M299.352,-52.3603C317.939,-47.8791 339.381,-42.7096 359.512,-37.856"/>
<polygon fill="midnightblue" stroke="midnightblue" points="360.37,-41.2495 369.271,-35.5032 358.729,-34.4445 360.37,-41.2495"/>
</g>
</g>
</svg>
