<?xml version="1.0" encoding="UTF-8" standalone="no"?>
<!DOCTYPE svg PUBLIC "-//W3C//DTD SVG 1.1//EN"
 "http://www.w3.org/Graphics/SVG/1.1/DTD/svg11.dtd">
<!-- Generated by graphviz version 2.38.0 (20140413.2041)
 -->
<!-- Title: Ra::Gui::TrackballCameraManipulator::TrackballCameraManipulator Pages: 1 -->
<svg width="547pt" height="185pt"
 viewBox="0.00 0.00 547.00 184.50" xmlns="http://www.w3.org/2000/svg" xmlns:xlink="http://www.w3.org/1999/xlink">
<g id="graph0" class="graph" transform="scale(1 1) rotate(0) translate(4 180.5)">
<title>Ra::Gui::TrackballCameraManipulator::TrackballCameraManipulator</title>
<polygon fill="white" stroke="none" points="-4,4 -4,-180.5 543,-180.5 543,4 -4,4"/>
<!-- Node1 -->
<g id="node1" class="node"><title>Node1</title>
<polygon fill="#bfbfbf" stroke="black" points="0,-76.5 0,-117.5 158,-117.5 158,-76.5 0,-76.5"/>
<text text-anchor="start" x="8" y="-105.5" font-family="Helvetica,sans-Serif" font-size="10.00">Ra::Gui::TrackballCamera</text>
<text text-anchor="start" x="8" y="-94.5" font-family="Helvetica,sans-Serif" font-size="10.00">Manipulator::TrackballCamera</text>
<text text-anchor="middle" x="79" y="-83.5" font-family="Helvetica,sans-Serif" font-size="10.00">Manipulator</text>
</g>
<!-- Node2 -->
<g id="node2" class="node"><title>Node2</title>
<g id="a_node2"><a xlink:href="classRa_1_1Engine_1_1Camera.html#a724a052e94817af7e602129467c8696f" target="_top" xlink:title="Return the position. ">
<polygon fill="white" stroke="black" points="412,-146 412,-176 523,-176 523,-146 412,-146"/>
<text text-anchor="start" x="420" y="-164" font-family="Helvetica,sans-Serif" font-size="10.00">Ra::Engine::Camera</text>
<text text-anchor="middle" x="467.5" y="-153" font-family="Helvetica,sans-Serif" font-size="10.00">::getPosition</text>
</a>
</g>
</g>
<!-- Node1&#45;&gt;Node2 -->
<g id="edge1" class="edge"><title>Node1&#45;&gt;Node2</title>
<path fill="none" stroke="midnightblue" d="M158.064,-114.101C170.075,-116.539 182.352,-118.921 194,-121 264.792,-133.635 346.451,-145.229 401.778,-152.645"/>
<polygon fill="midnightblue" stroke="midnightblue" points="401.419,-156.128 411.794,-153.98 402.345,-149.19 401.419,-156.128"/>
</g>
<!-- Node3 -->
<g id="node3" class="node"><title>Node3</title>
<g id="a_node3"><a xlink:href="namespaceOpenMesh.html#a8205f789ce08919bc11c58383574596c" target="_top" xlink:title="OpenMesh::norm">
<polygon fill="white" stroke="black" points="418,-107.5 418,-126.5 517,-126.5 517,-107.5 418,-107.5"/>
<text text-anchor="middle" x="467.5" y="-114.5" font-family="Helvetica,sans-Serif" font-size="10.00">OpenMesh::norm</text>
</a>
</g>
</g>
<!-- Node1&#45;&gt;Node3 -->
<g id="edge2" class="edge"><title>Node1&#45;&gt;Node3</title>
<path fill="none" stroke="midnightblue" d="M158.214,-101.047C231.915,-104.861 340.713,-110.491 407.414,-113.942"/>
<polygon fill="midnightblue" stroke="midnightblue" points="407.578,-117.456 417.745,-114.477 407.94,-110.465 407.578,-117.456"/>
</g>
<!-- Node4 -->
<g id="node4" class="node"><title>Node4</title>
<g id="a_node4"><a xlink:href="classRa_1_1Gui_1_1TrackballCameraManipulator.html#ad7880fb45a56841fd743fb3ad80c2592" target="_top" xlink:title="Update the polar coordinates of the Camera w.r.t. the trackball center. ">
<polygon fill="white" stroke="black" points="200,-60 200,-90 354,-90 354,-60 200,-60"/>
<text text-anchor="start" x="208" y="-78" font-family="Helvetica,sans-Serif" font-size="10.00">Ra::Gui::TrackballCamera</text>
<text text-anchor="middle" x="277" y="-67" font-family="Helvetica,sans-Serif" font-size="10.00">Manipulator::updatePhiTheta</text>
</a>
</g>
</g>
<!-- Node1&#45;&gt;Node4 -->
<g id="edge3" class="edge"><title>Node1&#45;&gt;Node4</title>
<path fill="none" stroke="midnightblue" d="M158.028,-88.2418C168.464,-87.0704 179.215,-85.8636 189.781,-84.6776"/>
<polygon fill="midnightblue" stroke="midnightblue" points="190.292,-88.1424 199.839,-83.5487 189.511,-81.1861 190.292,-88.1424"/>
</g>
<!-- Node7 -->
<g id="node7" class="node"><title>Node7</title>
<g id="a_node7"><a xlink:href="classRa_1_1Gui_1_1TrackballCameraManipulator.html#a0a160af972e5593fbd69bb0622e26b29" target="_top" xlink:title="Destructor. ">
<polygon fill="white" stroke="black" points="194,-0.5 194,-41.5 360,-41.5 360,-0.5 194,-0.5"/>
<text text-anchor="start" x="202" y="-29.5" font-family="Helvetica,sans-Serif" font-size="10.00">Ra::Gui::TrackballCamera</text>
<text text-anchor="start" x="202" y="-18.5" font-family="Helvetica,sans-Serif" font-size="10.00">Manipulator::~TrackballCamera</text>
<text text-anchor="middle" x="277" y="-7.5" font-family="Helvetica,sans-Serif" font-size="10.00">Manipulator</text>
</a>
</g>
</g>
<!-- Node1&#45;&gt;Node7 -->
<g id="edge8" class="edge"><title>Node1&#45;&gt;Node7</title>
<path fill="none" stroke="midnightblue" d="M128.32,-76.4392C148.524,-68.0089 172.307,-58.3016 194,-50 198.24,-48.3776 202.614,-46.7363 207.034,-45.1029"/>
<polygon fill="midnightblue" stroke="midnightblue" points="208.557,-48.2727 216.746,-41.5502 206.152,-41.6987 208.557,-48.2727"/>
</g>
<!-- Node4&#45;&gt;Node2 -->
<g id="edge6" class="edge"><title>Node4&#45;&gt;Node2</title>
<path fill="none" stroke="midnightblue" d="M304.676,-90.1211C328.268,-103.17 363.837,-122.061 396,-136 400.99,-138.162 406.233,-140.286 411.514,-142.326"/>
<polygon fill="midnightblue" stroke="midnightblue" points="410.422,-145.655 421.014,-145.898 412.885,-139.103 410.422,-145.655"/>
</g>
<!-- Node4&#45;&gt;Node3 -->
<g id="edge7" class="edge"><title>Node4&#45;&gt;Node3</title>
<path fill="none" stroke="midnightblue" d="M345.52,-90.0443C368.046,-95.0634 392.793,-100.577 414.003,-105.303"/>
<polygon fill="midnightblue" stroke="midnightblue" points="413.27,-108.725 423.792,-107.484 414.792,-101.893 413.27,-108.725"/>
</g>
<!-- Node5 -->
<g id="node5" class="node"><title>Node5</title>
<g id="a_node5"><a xlink:href="namespaceRa_1_1Core_1_1Math.html#a46540d56930b4c1ff3b115872cde4893" target="_top" xlink:title="Compare two numbers such that |x&#45;y| &lt; espilon*epsilonBoostFactor. ">
<polygon fill="white" stroke="black" points="396,-58 396,-88 539,-88 539,-58 396,-58"/>
<text text-anchor="start" x="404" y="-76" font-family="Helvetica,sans-Serif" font-size="10.00">Ra::Core::Math::areApprox</text>
<text text-anchor="middle" x="467.5" y="-65" font-family="Helvetica,sans-Serif" font-size="10.00">Equal</text>
</a>
</g>
</g>
<!-- Node4&#45;&gt;Node5 -->
<g id="edge4" class="edge"><title>Node4&#45;&gt;Node5</title>
<path fill="none" stroke="midnightblue" d="M354.127,-74.1923C364.58,-74.0814 375.343,-73.9672 385.873,-73.8555"/>
<polygon fill="midnightblue" stroke="midnightblue" points="385.919,-77.3553 395.881,-73.7493 385.845,-70.3557 385.919,-77.3553"/>
</g>
<!-- Node6 -->
<g id="node6" class="node"><title>Node6</title>
<g id="a_node6"><a xlink:href="classRa_1_1Engine_1_1Camera.html#a23be7aa714c0e9c2a9429dfc9ef2c53a" target="_top" xlink:title="Return the direction the camera is looking at. ">
<polygon fill="white" stroke="black" points="412,-9 412,-39 523,-39 523,-9 412,-9"/>
<text text-anchor="start" x="420" y="-27" font-family="Helvetica,sans-Serif" font-size="10.00">Ra::Engine::Camera</text>
<text text-anchor="middle" x="467.5" y="-16" font-family="Helvetica,sans-Serif" font-size="10.00">::getDirection</text>
</a>
</g>
</g>
<!-- Node4&#45;&gt;Node6 -->
<g id="edge5" class="edge"><title>Node4&#45;&gt;Node6</title>
<path fill="none" stroke="midnightblue" d="M333.537,-59.9742C355.011,-54.1642 379.73,-47.4761 401.986,-41.4548"/>
<polygon fill="midnightblue" stroke="midnightblue" points="402.946,-44.8208 411.685,-38.8305 401.118,-38.0637 402.946,-44.8208"/>
</g>
</g>
</svg>
