<?xml version="1.0" encoding="UTF-8" standalone="no"?>
<!DOCTYPE svg PUBLIC "-//W3C//DTD SVG 1.1//EN"
 "http://www.w3.org/Graphics/SVG/1.1/DTD/svg11.dtd">
<!-- Generated by graphviz version 2.38.0 (20140413.2041)
 -->
<!-- Title: Ra::Gui::ScaleGizmo::ScaleGizmo Pages: 1 -->
<svg width="898pt" height="679pt"
 viewBox="0.00 0.00 898.00 679.00" xmlns="http://www.w3.org/2000/svg" xmlns:xlink="http://www.w3.org/1999/xlink">
<g id="graph0" class="graph" transform="scale(1 1) rotate(0) translate(4 675)">
<title>Ra::Gui::ScaleGizmo::ScaleGizmo</title>
<polygon fill="white" stroke="none" points="-4,4 -4,-675 894,-675 894,4 -4,4"/>
<!-- Node1 -->
<g id="node1" class="node"><title>Node1</title>
<polygon fill="#bfbfbf" stroke="black" points="0,-277.5 0,-307.5 113,-307.5 113,-277.5 0,-277.5"/>
<text text-anchor="start" x="8" y="-295.5" font-family="Helvetica,sans-Serif" font-size="10.00">Ra::Gui::ScaleGizmo</text>
<text text-anchor="middle" x="56.5" y="-284.5" font-family="Helvetica,sans-Serif" font-size="10.00">::ScaleGizmo</text>
</g>
<!-- Node2 -->
<g id="node2" class="node"><title>Node2</title>
<g id="a_node2"><a xlink:href="namespaceRa_1_1Engine_1_1ShaderConfigurationFactory.html#a0bc60f21dbabd745961037f3d2f019c8" target="_top" xlink:title="Get a configuration from the factory. ">
<polygon fill="white" stroke="black" points="149,-640.5 149,-670.5 320,-670.5 320,-640.5 149,-640.5"/>
<text text-anchor="start" x="157" y="-658.5" font-family="Helvetica,sans-Serif" font-size="10.00">Ra::Engine::ShaderConfiguration</text>
<text text-anchor="middle" x="234.5" y="-647.5" font-family="Helvetica,sans-Serif" font-size="10.00">Factory::getConfiguration</text>
</a>
</g>
</g>
<!-- Node1&#45;&gt;Node2 -->
<g id="edge1" class="edge"><title>Node1&#45;&gt;Node2</title>
<path fill="none" stroke="midnightblue" d="M59.6249,-307.895C68.1769,-367.717 101.896,-583.774 149,-631.5 149.934,-632.446 150.902,-633.356 151.902,-634.231"/>
<polygon fill="midnightblue" stroke="midnightblue" points="149.983,-637.164 160.113,-640.268 154.13,-631.525 149.983,-637.164"/>
</g>
<!-- Node4 -->
<g id="node4" class="node"><title>Node4</title>
<g id="a_node4"><a xlink:href="classRa_1_1Core_1_1Utils_1_1ColorBase.html#aaf67b196b10805750f12f3638ae81516" target="_top" xlink:title="Ra::Core::Utils::ColorBase\l\&lt; Scalar \&gt;::Black">
<polygon fill="white" stroke="black" points="165,-591.5 165,-621.5 304,-621.5 304,-591.5 165,-591.5"/>
<text text-anchor="start" x="173" y="-609.5" font-family="Helvetica,sans-Serif" font-size="10.00">Ra::Core::Utils::ColorBase</text>
<text text-anchor="middle" x="234.5" y="-598.5" font-family="Helvetica,sans-Serif" font-size="10.00">&lt; Scalar &gt;::Black</text>
</a>
</g>
</g>
<!-- Node1&#45;&gt;Node4 -->
<g id="edge3" class="edge"><title>Node1&#45;&gt;Node4</title>
<path fill="none" stroke="midnightblue" d="M57.9001,-307.802C59.9528,-354.652 72.4988,-497.711 149,-576.5 152.635,-580.243 156.766,-583.521 161.201,-586.39"/>
<polygon fill="midnightblue" stroke="midnightblue" points="159.632,-589.524 170.056,-591.42 163.09,-583.437 159.632,-589.524"/>
</g>
<!-- Node5 -->
<g id="node5" class="node"><title>Node5</title>
<g id="a_node5"><a xlink:href="namespaceRa_1_1Core_1_1Geometry.html#a7f8dd3d4b254dd2527e91255f385deb0" target="_top" xlink:title="Create a cylinder approximation (n&#45;faced prism) with base faces centered on A and B with given radius...">
<polygon fill="white" stroke="black" points="179,-383.5 179,-413.5 290,-413.5 290,-383.5 179,-383.5"/>
<text text-anchor="start" x="187" y="-401.5" font-family="Helvetica,sans-Serif" font-size="10.00">Ra::Core::Geometry</text>
<text text-anchor="middle" x="234.5" y="-390.5" font-family="Helvetica,sans-Serif" font-size="10.00">::makeCylinder</text>
</a>
</g>
</g>
<!-- Node1&#45;&gt;Node5 -->
<g id="edge4" class="edge"><title>Node1&#45;&gt;Node5</title>
<path fill="none" stroke="midnightblue" d="M73.2706,-307.559C90.6947,-323.579 120.125,-348.858 149,-365.5 158.099,-370.745 168.192,-375.496 178.143,-379.656"/>
<polygon fill="midnightblue" stroke="midnightblue" points="177.02,-382.976 187.604,-383.459 179.631,-376.481 177.02,-382.976"/>
</g>
<!-- Node7 -->
<g id="node7" class="node"><title>Node7</title>
<g id="a_node7"><a xlink:href="classRa_1_1Core_1_1Geometry_1_1TriangleMesh.html#ad7d3f6272b902171740e50232ba56114" target="_top" xlink:title="Access the vertices normals. ">
<polygon fill="white" stroke="black" points="582.5,-386.5 582.5,-416.5 711.5,-416.5 711.5,-386.5 582.5,-386.5"/>
<text text-anchor="start" x="590.5" y="-404.5" font-family="Helvetica,sans-Serif" font-size="10.00">Ra::Core::Geometry</text>
<text text-anchor="middle" x="647" y="-393.5" font-family="Helvetica,sans-Serif" font-size="10.00">::TriangleMesh::normals</text>
</a>
</g>
</g>
<!-- Node1&#45;&gt;Node7 -->
<g id="edge37" class="edge"><title>Node1&#45;&gt;Node7</title>
<path fill="none" stroke="midnightblue" d="M65.3516,-307.712C79.3579,-333.738 110.797,-387.39 149,-422.5 227.462,-494.609 253.141,-515.642 356,-543.5 431.502,-563.948 466.508,-586.273 532,-543.5 565.324,-521.736 543.459,-492.836 568,-461.5 579.976,-446.208 596.698,-432.666 611.589,-422.334"/>
<polygon fill="midnightblue" stroke="midnightblue" points="613.737,-425.108 620.095,-416.633 609.84,-419.293 613.737,-425.108"/>
</g>
<!-- Node19 -->
<g id="node19" class="node"><title>Node19</title>
<g id="a_node19"><a xlink:href="namespaceRa_1_1Core_1_1Geometry.html#a97444ae32c928b107e10c0a30dd4fb96" target="_top" xlink:title="Create an axis&#45;aligned cubic mesh with the given half extents, centered on the origin. ">
<polygon fill="white" stroke="black" points="179,-326.5 179,-356.5 290,-356.5 290,-326.5 179,-326.5"/>
<text text-anchor="start" x="187" y="-344.5" font-family="Helvetica,sans-Serif" font-size="10.00">Ra::Core::Geometry</text>
<text text-anchor="middle" x="234.5" y="-333.5" font-family="Helvetica,sans-Serif" font-size="10.00">::makeSharpBox</text>
</a>
</g>
</g>
<!-- Node1&#45;&gt;Node19 -->
<g id="edge21" class="edge"><title>Node1&#45;&gt;Node19</title>
<path fill="none" stroke="midnightblue" d="M111.742,-307.601C130.062,-312.702 150.683,-318.443 169.675,-323.73"/>
<polygon fill="midnightblue" stroke="midnightblue" points="168.865,-327.138 179.437,-326.448 170.742,-320.395 168.865,-327.138"/>
</g>
<!-- Node20 -->
<g id="node20" class="node"><title>Node20</title>
<g id="a_node20"><a xlink:href="classRa_1_1Core_1_1Geometry_1_1TriangleMesh.html#a13434325489bfb69f9fd972c0eee408e" target="_top" xlink:title="Appends another mesh to this one, but only if they have the same attributes. ">
<polygon fill="white" stroke="black" points="381,-126.5 381,-156.5 507,-156.5 507,-126.5 381,-126.5"/>
<text text-anchor="start" x="389" y="-144.5" font-family="Helvetica,sans-Serif" font-size="10.00">Ra::Core::Geometry</text>
<text text-anchor="middle" x="444" y="-133.5" font-family="Helvetica,sans-Serif" font-size="10.00">::TriangleMesh::append</text>
</a>
</g>
</g>
<!-- Node1&#45;&gt;Node20 -->
<g id="edge22" class="edge"><title>Node1&#45;&gt;Node20</title>
<path fill="none" stroke="midnightblue" d="M63.8244,-277.139C75.8812,-250.052 104.943,-194.322 149,-169.5 216.915,-131.236 307.858,-128.545 370.522,-132.671"/>
<polygon fill="midnightblue" stroke="midnightblue" points="370.487,-136.178 380.716,-133.418 370.999,-129.196 370.487,-136.178"/>
</g>
<!-- Node22 -->
<g id="node22" class="node"><title>Node22</title>
<g id="a_node22"><a xlink:href="classRa_1_1Engine_1_1RenderObject.html#ae1ea453e2b698cda9956586d11b9cfbd" target="_top" xlink:title="Ra::Engine::RenderObject\l::setRenderTechnique">
<polygon fill="white" stroke="black" points="166,-228.5 166,-258.5 303,-258.5 303,-228.5 166,-228.5"/>
<text text-anchor="start" x="174" y="-246.5" font-family="Helvetica,sans-Serif" font-size="10.00">Ra::Engine::RenderObject</text>
<text text-anchor="middle" x="234.5" y="-235.5" font-family="Helvetica,sans-Serif" font-size="10.00">::setRenderTechnique</text>
</a>
</g>
</g>
<!-- Node1&#45;&gt;Node22 -->
<g id="edge26" class="edge"><title>Node1&#45;&gt;Node22</title>
<path fill="none" stroke="midnightblue" d="M111.742,-277.399C130.062,-272.298 150.683,-266.557 169.675,-261.27"/>
<polygon fill="midnightblue" stroke="midnightblue" points="170.742,-264.605 179.437,-258.552 168.865,-257.862 170.742,-264.605"/>
</g>
<!-- Node23 -->
<g id="node23" class="node"><title>Node23</title>
<g id="a_node23"><a xlink:href="classRa_1_1Engine_1_1RenderObject.html#a509302aefbb1081540efecdfb1fbc9ea" target="_top" xlink:title="Ra::Engine::RenderObject\l::setMesh">
<polygon fill="white" stroke="black" points="166,-179.5 166,-209.5 303,-209.5 303,-179.5 166,-179.5"/>
<text text-anchor="start" x="174" y="-197.5" font-family="Helvetica,sans-Serif" font-size="10.00">Ra::Engine::RenderObject</text>
<text text-anchor="middle" x="234.5" y="-186.5" font-family="Helvetica,sans-Serif" font-size="10.00">::setMesh</text>
</a>
</g>
</g>
<!-- Node1&#45;&gt;Node23 -->
<g id="edge27" class="edge"><title>Node1&#45;&gt;Node23</title>
<path fill="none" stroke="midnightblue" d="M72.3122,-277.281C89.3579,-260.592 118.893,-234.113 149,-218.5 152.554,-216.657 156.267,-214.94 160.07,-213.342"/>
<polygon fill="midnightblue" stroke="midnightblue" points="161.615,-216.496 169.668,-209.611 159.079,-209.972 161.615,-216.496"/>
</g>
<!-- Node24 -->
<g id="node24" class="node"><title>Node24</title>
<g id="a_node24"><a xlink:href="classRa_1_1Gui_1_1Gizmo.html#a37dc94add5b00e8150bc888ab0f0b948" target="_top" xlink:title="add a render object to display the Gizmo ">
<polygon fill="white" stroke="black" points="162.5,-17.5 162.5,-47.5 306.5,-47.5 306.5,-17.5 162.5,-17.5"/>
<text text-anchor="start" x="170.5" y="-35.5" font-family="Helvetica,sans-Serif" font-size="10.00">Ra::Gui::Gizmo::addRender</text>
<text text-anchor="middle" x="234.5" y="-24.5" font-family="Helvetica,sans-Serif" font-size="10.00">Object</text>
</a>
</g>
</g>
<!-- Node1&#45;&gt;Node24 -->
<g id="edge28" class="edge"><title>Node1&#45;&gt;Node24</title>
<path fill="none" stroke="midnightblue" d="M59.9301,-277.378C66.8996,-238.541 90.3496,-134.034 149,-72.5 156.882,-64.2308 166.817,-57.4851 177.08,-52.0501"/>
<polygon fill="midnightblue" stroke="midnightblue" points="178.704,-55.1521 186.141,-47.606 175.621,-48.8673 178.704,-55.1521"/>
</g>
<!-- Node27 -->
<g id="node27" class="node"><title>Node27</title>
<g id="a_node27"><a xlink:href="namespaceRa_1_1Core_1_1Geometry.html#a9f66e13e9a53313225543f2f1abcda8e" target="_top" xlink:title="Create a 2D grid mesh with given number of row and columns. ">
<polygon fill="white" stroke="black" points="179,-277.5 179,-307.5 290,-307.5 290,-277.5 179,-277.5"/>
<text text-anchor="start" x="187" y="-295.5" font-family="Helvetica,sans-Serif" font-size="10.00">Ra::Core::Geometry</text>
<text text-anchor="middle" x="234.5" y="-284.5" font-family="Helvetica,sans-Serif" font-size="10.00">::makePlaneGrid</text>
</a>
</g>
</g>
<!-- Node1&#45;&gt;Node27 -->
<g id="edge31" class="edge"><title>Node1&#45;&gt;Node27</title>
<path fill="none" stroke="midnightblue" d="M113.188,-292.5C130.78,-292.5 150.373,-292.5 168.554,-292.5"/>
<polygon fill="midnightblue" stroke="midnightblue" points="168.777,-296 178.777,-292.5 168.777,-289 168.777,-296"/>
</g>
<!-- Node29 -->
<g id="node29" class="node"><title>Node29</title>
<g id="a_node29"><a xlink:href="classRa_1_1Gui_1_1ScaleGizmo.html#aa51b01edb58183c9b461be7400311d22" target="_top" xlink:title="Called every time the underlying transform may have changed. ">
<polygon fill="white" stroke="black" points="178,-82.5 178,-112.5 291,-112.5 291,-82.5 178,-82.5"/>
<text text-anchor="start" x="186" y="-100.5" font-family="Helvetica,sans-Serif" font-size="10.00">Ra::Gui::ScaleGizmo</text>
<text text-anchor="middle" x="234.5" y="-89.5" font-family="Helvetica,sans-Serif" font-size="10.00">::updateTransform</text>
</a>
</g>
</g>
<!-- Node1&#45;&gt;Node29 -->
<g id="edge38" class="edge"><title>Node1&#45;&gt;Node29</title>
<path fill="none" stroke="midnightblue" d="M62.2411,-277.428C72.8344,-246.053 101.312,-173.18 149,-131.5 155.575,-125.754 163.244,-120.905 171.231,-116.833"/>
<polygon fill="midnightblue" stroke="midnightblue" points="172.774,-119.975 180.341,-112.559 169.801,-113.637 172.774,-119.975"/>
</g>
<!-- Node3 -->
<g id="node3" class="node"><title>Node3</title>
<g id="a_node3"><a xlink:href="classRa_1_1Engine_1_1ShaderConfiguration.html#a7e20a600c78e8627f0238b342f4b42f2" target="_top" xlink:title="Ra::Engine::ShaderConfiguration\l::getDefaultShaderConfig">
<polygon fill="white" stroke="black" points="358.5,-640.5 358.5,-670.5 529.5,-670.5 529.5,-640.5 358.5,-640.5"/>
<text text-anchor="start" x="366.5" y="-658.5" font-family="Helvetica,sans-Serif" font-size="10.00">Ra::Engine::ShaderConfiguration</text>
<text text-anchor="middle" x="444" y="-647.5" font-family="Helvetica,sans-Serif" font-size="10.00">::getDefaultShaderConfig</text>
</a>
</g>
</g>
<!-- Node2&#45;&gt;Node3 -->
<g id="edge2" class="edge"><title>Node2&#45;&gt;Node3</title>
<path fill="none" stroke="midnightblue" d="M320.197,-655.5C329.415,-655.5 338.84,-655.5 348.168,-655.5"/>
<polygon fill="midnightblue" stroke="midnightblue" points="348.237,-659 358.237,-655.5 348.237,-652 348.237,-659"/>
</g>
<!-- Node6 -->
<g id="node6" class="node"><title>Node6</title>
<g id="a_node6"><a xlink:href="classRa_1_1Core_1_1Geometry_1_1TriangleMesh.html#a6ef9dbd18c0501f2ffd1316be6be56ce" target="_top" xlink:title="Access the vertices positions. ">
<polygon fill="white" stroke="black" points="583,-252.5 583,-282.5 711,-282.5 711,-252.5 583,-252.5"/>
<text text-anchor="start" x="591" y="-270.5" font-family="Helvetica,sans-Serif" font-size="10.00">Ra::Core::Geometry</text>
<text text-anchor="middle" x="647" y="-259.5" font-family="Helvetica,sans-Serif" font-size="10.00">::TriangleMesh::vertices</text>
</a>
</g>
</g>
<!-- Node5&#45;&gt;Node6 -->
<g id="edge5" class="edge"><title>Node5&#45;&gt;Node6</title>
<path fill="none" stroke="midnightblue" d="M290.14,-399.381C353.147,-397.923 457.584,-387.693 532,-340.5 554.821,-326.027 545.972,-307.154 568,-291.5 570.122,-289.992 572.341,-288.577 574.633,-287.249"/>
<polygon fill="midnightblue" stroke="midnightblue" points="576.485,-290.232 583.778,-282.548 573.284,-284.007 576.485,-290.232"/>
</g>
<!-- Node5&#45;&gt;Node7 -->
<g id="edge6" class="edge"><title>Node5&#45;&gt;Node7</title>
<path fill="none" stroke="midnightblue" d="M290.271,-406.218C310.838,-408.759 334.449,-411.252 356,-412.5 434.091,-417.021 453.868,-416.261 532,-412.5 545.057,-411.872 558.926,-410.84 572.328,-409.655"/>
<polygon fill="midnightblue" stroke="midnightblue" points="572.828,-413.124 582.466,-408.722 572.187,-406.153 572.828,-413.124"/>
</g>
<!-- Node8 -->
<g id="node8" class="node"><title>Node8</title>
<g id="a_node8"><a xlink:href="namespaceRa_1_1Core_1_1Math.html#a5f25a31a29b0688e349dc35a353b9766" target="_top" xlink:title="Get two vectors orthogonal to a given vector. ">
<polygon fill="white" stroke="black" points="363,-465.5 363,-495.5 525,-495.5 525,-465.5 363,-465.5"/>
<text text-anchor="start" x="371" y="-483.5" font-family="Helvetica,sans-Serif" font-size="10.00">Ra::Core::Math::getOrthogonal</text>
<text text-anchor="middle" x="444" y="-472.5" font-family="Helvetica,sans-Serif" font-size="10.00">Vectors</text>
</a>
</g>
</g>
<!-- Node5&#45;&gt;Node8 -->
<g id="edge7" class="edge"><title>Node5&#45;&gt;Node8</title>
<path fill="none" stroke="midnightblue" d="M268.468,-413.524C292.532,-424.295 326.044,-438.891 356,-450.5 366.151,-454.434 377.062,-458.399 387.609,-462.1"/>
<polygon fill="midnightblue" stroke="midnightblue" points="386.566,-465.443 397.161,-465.417 388.862,-458.83 386.566,-465.443"/>
</g>
<!-- Node11 -->
<g id="node11" class="node"><title>Node11</title>
<g id="a_node11"><a xlink:href="namespaceRa_1_1Core_1_1Math.html#a4f441ac6a56092d52849a4f48e274aa8" target="_top" xlink:title="Get the cosine of the angle between two vectors. ">
<polygon fill="white" stroke="black" points="389,-515 389,-534 499,-534 499,-515 389,-515"/>
<text text-anchor="middle" x="444" y="-522" font-family="Helvetica,sans-Serif" font-size="10.00">Ra::Core::Math::cos</text>
</a>
</g>
</g>
<!-- Node5&#45;&gt;Node11 -->
<g id="edge10" class="edge"><title>Node5&#45;&gt;Node11</title>
<path fill="none" stroke="midnightblue" d="M247.845,-413.592C267.94,-437.095 310.117,-482.16 356,-505.5 363.151,-509.138 370.979,-512.082 378.914,-514.463"/>
<polygon fill="midnightblue" stroke="midnightblue" points="378.041,-517.853 388.609,-517.098 379.877,-511.098 378.041,-517.853"/>
</g>
<!-- Node12 -->
<g id="node12" class="node"><title>Node12</title>
<g id="a_node12"><a xlink:href="classRa_1_1Core_1_1Geometry_1_1TriangleMesh.html#a51b5e7d49d82ffa036306e28a42cd92b" target="_top" xlink:title="Utility function colorzing the mesh with a given color. Add the color attribute if needed...">
<polygon fill="white" stroke="black" points="380.5,-301.5 380.5,-331.5 507.5,-331.5 507.5,-301.5 380.5,-301.5"/>
<text text-anchor="start" x="388.5" y="-319.5" font-family="Helvetica,sans-Serif" font-size="10.00">Ra::Core::Geometry</text>
<text text-anchor="middle" x="444" y="-308.5" font-family="Helvetica,sans-Serif" font-size="10.00">::TriangleMesh::colorize</text>
</a>
</g>
</g>
<!-- Node5&#45;&gt;Node12 -->
<g id="edge11" class="edge"><title>Node5&#45;&gt;Node12</title>
<path fill="none" stroke="midnightblue" d="M274.223,-383.441C288.606,-377.831 305.056,-371.394 320,-365.5 345.071,-355.611 372.979,-344.501 395.865,-335.364"/>
<polygon fill="midnightblue" stroke="midnightblue" points="397.355,-338.538 405.343,-331.578 394.759,-332.037 397.355,-338.538"/>
</g>
<!-- Node14 -->
<g id="node14" class="node"><title>Node14</title>
<g id="a_node14"><a xlink:href="classRa_1_1Core_1_1Geometry_1_1TriangleMesh.html#a0b294c697e094dcc62b3adb3c0ac16af" target="_top" xlink:title="Check that the mesh is well built, asserting when it is not. ">
<polygon fill="white" stroke="black" points="356,-252.5 356,-282.5 532,-282.5 532,-252.5 356,-252.5"/>
<text text-anchor="start" x="364" y="-270.5" font-family="Helvetica,sans-Serif" font-size="10.00">Ra::Core::Geometry</text>
<text text-anchor="middle" x="444" y="-259.5" font-family="Helvetica,sans-Serif" font-size="10.00">::TriangleMesh::checkConsistency</text>
</a>
</g>
</g>
<!-- Node5&#45;&gt;Node14 -->
<g id="edge14" class="edge"><title>Node5&#45;&gt;Node14</title>
<path fill="none" stroke="midnightblue" d="M290.352,-383.971C301.048,-379.329 311.55,-373.296 320,-365.5 346.881,-340.699 327.876,-314.882 356,-291.5 357.536,-290.223 359.135,-289.013 360.787,-287.868"/>
<polygon fill="midnightblue" stroke="midnightblue" points="362.676,-290.816 369.438,-282.659 359.066,-284.819 362.676,-290.816"/>
</g>
<!-- Node9 -->
<g id="node9" class="node"><title>Node9</title>
<g id="a_node9"><a xlink:href="namespaceRa_1_1Core_1_1Math.html#a90f0fe9079f5bb86c721ea4b61738470" target="_top" xlink:title="Returns the sign of any numeric type as { &#45;1, 0, 1}. ">
<polygon fill="white" stroke="black" points="590.5,-471 590.5,-490 703.5,-490 703.5,-471 590.5,-471"/>
<text text-anchor="middle" x="647" y="-478" font-family="Helvetica,sans-Serif" font-size="10.00">Ra::Core::Math::sign</text>
</a>
</g>
</g>
<!-- Node8&#45;&gt;Node9 -->
<g id="edge8" class="edge"><title>Node8&#45;&gt;Node9</title>
<path fill="none" stroke="midnightblue" d="M525.018,-480.5C543.321,-480.5 562.571,-480.5 580.198,-480.5"/>
<polygon fill="midnightblue" stroke="midnightblue" points="580.369,-484 590.369,-480.5 580.369,-477 580.369,-484"/>
</g>
<!-- Node10 -->
<g id="node10" class="node"><title>Node10</title>
<g id="a_node10"><a xlink:href="namespaceRa_1_1Core_1_1Math.html#ae4e681e0738fe7e5bfd028c6270b597a" target="_top" xlink:title="Ra::Core::Math::signum">
<polygon fill="white" stroke="black" points="762,-471 762,-490 890,-490 890,-471 762,-471"/>
<text text-anchor="middle" x="826" y="-478" font-family="Helvetica,sans-Serif" font-size="10.00">Ra::Core::Math::signum</text>
</a>
</g>
</g>
<!-- Node9&#45;&gt;Node10 -->
<g id="edge9" class="edge"><title>Node9&#45;&gt;Node10</title>
<path fill="none" stroke="midnightblue" d="M703.518,-480.5C718.738,-480.5 735.476,-480.5 751.533,-480.5"/>
<polygon fill="midnightblue" stroke="midnightblue" points="751.965,-484 761.965,-480.5 751.965,-477 751.965,-484"/>
</g>
<!-- Node12&#45;&gt;Node6 -->
<g id="edge13" class="edge"><title>Node12&#45;&gt;Node6</title>
<path fill="none" stroke="midnightblue" d="M506.673,-301.465C528.088,-296.245 552.284,-290.346 574.43,-284.947"/>
<polygon fill="midnightblue" stroke="midnightblue" points="575.558,-288.275 584.444,-282.506 573.9,-281.474 575.558,-288.275"/>
</g>
<!-- Node13 -->
<g id="node13" class="node"><title>Node13</title>
<g id="a_node13"><a xlink:href="classRa_1_1Core_1_1Geometry_1_1TriangleMesh.html#a209037ce5a11ec8539a9ada7ba763e8c" target="_top" xlink:title="Get attribute by handle. ">
<polygon fill="white" stroke="black" points="581,-301.5 581,-331.5 713,-331.5 713,-301.5 581,-301.5"/>
<text text-anchor="start" x="589" y="-319.5" font-family="Helvetica,sans-Serif" font-size="10.00">Ra::Core::Geometry</text>
<text text-anchor="middle" x="647" y="-308.5" font-family="Helvetica,sans-Serif" font-size="10.00">::TriangleMesh::getAttrib</text>
</a>
</g>
</g>
<!-- Node12&#45;&gt;Node13 -->
<g id="edge12" class="edge"><title>Node12&#45;&gt;Node13</title>
<path fill="none" stroke="midnightblue" d="M507.771,-316.5C527.767,-316.5 550.093,-316.5 570.872,-316.5"/>
<polygon fill="midnightblue" stroke="midnightblue" points="570.931,-320 580.931,-316.5 570.931,-313 570.931,-320"/>
</g>
<!-- Node14&#45;&gt;Node6 -->
<g id="edge15" class="edge"><title>Node14&#45;&gt;Node6</title>
<path fill="none" stroke="midnightblue" d="M532.285,-267.5C545.744,-267.5 559.525,-267.5 572.639,-267.5"/>
<polygon fill="midnightblue" stroke="midnightblue" points="572.995,-271 582.995,-267.5 572.995,-264 572.995,-271"/>
</g>
<!-- Node14&#45;&gt;Node7 -->
<g id="edge20" class="edge"><title>Node14&#45;&gt;Node7</title>
<path fill="none" stroke="midnightblue" d="M515.71,-282.527C521.449,-285.067 526.968,-288.034 532,-291.5 554.255,-306.829 549.181,-321.106 568,-340.5 582.211,-355.145 600.013,-369.324 615.021,-380.32"/>
<polygon fill="midnightblue" stroke="midnightblue" points="613.324,-383.41 623.486,-386.406 617.41,-377.727 613.324,-383.41"/>
</g>
<!-- Node15 -->
<g id="node15" class="node"><title>Node15</title>
<g id="a_node15"><a xlink:href="namespaceRa_1_1Core_1_1Geometry.html#aa04e6052d8911b1df1bd881474debb45" target="_top" xlink:title="Ra::Core::Geometry::t">
<polygon fill="white" stroke="black" points="587,-102 587,-121 707,-121 707,-102 587,-102"/>
<text text-anchor="middle" x="647" y="-109" font-family="Helvetica,sans-Serif" font-size="10.00">Ra::Core::Geometry::t</text>
</a>
</g>
</g>
<!-- Node14&#45;&gt;Node15 -->
<g id="edge16" class="edge"><title>Node14&#45;&gt;Node15</title>
<path fill="none" stroke="midnightblue" d="M518.736,-252.333C523.555,-249.577 528.05,-246.328 532,-242.5 569.544,-206.109 529.72,-166.116 568,-130.5 570.958,-127.748 574.245,-125.376 577.751,-123.333"/>
<polygon fill="midnightblue" stroke="midnightblue" points="579.39,-126.428 586.847,-118.902 576.324,-120.134 579.39,-126.428"/>
</g>
<!-- Node16 -->
<g id="node16" class="node"><title>Node16</title>
<g id="a_node16"><a xlink:href="namespaceRa_1_1Core_1_1Geometry.html#a178f2b7309fe2ea5bc31a3abcb25368e" target="_top" xlink:title="Ra::Core::Geometry\l::triangleArea">
<polygon fill="white" stroke="black" points="591.5,-203.5 591.5,-233.5 702.5,-233.5 702.5,-203.5 591.5,-203.5"/>
<text text-anchor="start" x="599.5" y="-221.5" font-family="Helvetica,sans-Serif" font-size="10.00">Ra::Core::Geometry</text>
<text text-anchor="middle" x="647" y="-210.5" font-family="Helvetica,sans-Serif" font-size="10.00">::triangleArea</text>
</a>
</g>
</g>
<!-- Node14&#45;&gt;Node16 -->
<g id="edge17" class="edge"><title>Node14&#45;&gt;Node16</title>
<path fill="none" stroke="midnightblue" d="M506.673,-252.465C530.406,-246.68 557.554,-240.062 581.543,-234.213"/>
<polygon fill="midnightblue" stroke="midnightblue" points="582.375,-237.613 591.262,-231.844 580.717,-230.812 582.375,-237.613"/>
</g>
<!-- Node17 -->
<g id="node17" class="node"><title>Node17</title>
<g id="a_node17"><a xlink:href="namespaceOpenMesh.html#a71e7f1dd3eac016d2b8245ac408a291c" target="_top" xlink:title="OpenMesh::cross">
<polygon fill="white" stroke="black" points="776.5,-190 776.5,-209 875.5,-209 875.5,-190 776.5,-190"/>
<text text-anchor="middle" x="826" y="-197" font-family="Helvetica,sans-Serif" font-size="10.00">OpenMesh::cross</text>
</a>
</g>
</g>
<!-- Node16&#45;&gt;Node17 -->
<g id="edge18" class="edge"><title>Node16&#45;&gt;Node17</title>
<path fill="none" stroke="midnightblue" d="M702.55,-212.644C722.71,-210.48 745.64,-208.019 766.163,-205.816"/>
<polygon fill="midnightblue" stroke="midnightblue" points="766.765,-209.271 776.334,-204.724 766.017,-202.311 766.765,-209.271"/>
</g>
<!-- Node18 -->
<g id="node18" class="node"><title>Node18</title>
<g id="a_node18"><a xlink:href="namespaceOpenMesh.html#a8205f789ce08919bc11c58383574596c" target="_top" xlink:title="OpenMesh::norm">
<polygon fill="white" stroke="black" points="776.5,-228 776.5,-247 875.5,-247 875.5,-228 776.5,-228"/>
<text text-anchor="middle" x="826" y="-235" font-family="Helvetica,sans-Serif" font-size="10.00">OpenMesh::norm</text>
</a>
</g>
</g>
<!-- Node16&#45;&gt;Node18 -->
<g id="edge19" class="edge"><title>Node16&#45;&gt;Node18</title>
<path fill="none" stroke="midnightblue" d="M702.55,-224.356C722.71,-226.52 745.64,-228.981 766.163,-231.184"/>
<polygon fill="midnightblue" stroke="midnightblue" points="766.017,-234.689 776.334,-232.276 766.765,-227.729 766.017,-234.689"/>
</g>
<!-- Node20&#45;&gt;Node6 -->
<g id="edge24" class="edge"><title>Node20&#45;&gt;Node6</title>
<path fill="none" stroke="midnightblue" d="M507.194,-156.254C516.154,-160.208 524.773,-165.202 532,-171.5 558.674,-194.744 541.074,-219.55 568,-242.5 569.989,-244.195 572.094,-245.775 574.288,-247.249"/>
<polygon fill="midnightblue" stroke="midnightblue" points="572.738,-250.397 583.138,-252.42 576.27,-244.353 572.738,-250.397"/>
</g>
<!-- Node20&#45;&gt;Node15 -->
<g id="edge25" class="edge"><title>Node20&#45;&gt;Node15</title>
<path fill="none" stroke="midnightblue" d="M507.221,-132.213C529.217,-128.93 554.09,-125.218 576.641,-121.852"/>
<polygon fill="midnightblue" stroke="midnightblue" points="577.447,-125.271 586.821,-120.333 576.414,-118.347 577.447,-125.271"/>
</g>
<!-- Node21 -->
<g id="node21" class="node"><title>Node21</title>
<g id="a_node21"><a xlink:href="classRa_1_1Core_1_1Utils_1_1AttribManager.html#a191ecf090eaf0b6d52ed390938e1e0c5" target="_top" xlink:title="Return true if *this and other have the same attributes, same amount and same names. ">
<polygon fill="white" stroke="black" points="568,-140.5 568,-170.5 726,-170.5 726,-140.5 568,-140.5"/>
<text text-anchor="start" x="576" y="-158.5" font-family="Helvetica,sans-Serif" font-size="10.00">Ra::Core::Utils::AttribManager</text>
<text text-anchor="middle" x="647" y="-147.5" font-family="Helvetica,sans-Serif" font-size="10.00">::hasSameAttribs</text>
</a>
</g>
</g>
<!-- Node20&#45;&gt;Node21 -->
<g id="edge23" class="edge"><title>Node20&#45;&gt;Node21</title>
<path fill="none" stroke="midnightblue" d="M507.221,-145.834C523.071,-146.938 540.414,-148.146 557.306,-149.322"/>
<polygon fill="midnightblue" stroke="midnightblue" points="557.528,-152.846 567.747,-150.05 558.015,-145.863 557.528,-152.846"/>
</g>
<!-- Node25 -->
<g id="node25" class="node"><title>Node25</title>
<g id="a_node25"><a xlink:href="classRa_1_1Engine_1_1Component.html#aea20d8186eb969b255cd83218a809178" target="_top" xlink:title="Add a new render object to the component. This adds the RO to the manager for drawing. ">
<polygon fill="white" stroke="black" points="379.5,-0.5 379.5,-30.5 508.5,-30.5 508.5,-0.5 379.5,-0.5"/>
<text text-anchor="start" x="387.5" y="-18.5" font-family="Helvetica,sans-Serif" font-size="10.00">Ra::Engine::Component</text>
<text text-anchor="middle" x="444" y="-7.5" font-family="Helvetica,sans-Serif" font-size="10.00">::addRenderObject</text>
</a>
</g>
</g>
<!-- Node24&#45;&gt;Node25 -->
<g id="edge29" class="edge"><title>Node24&#45;&gt;Node25</title>
<path fill="none" stroke="midnightblue" d="M306.619,-26.6733C326.792,-25.0206 348.797,-23.2178 369.129,-21.5521"/>
<polygon fill="midnightblue" stroke="midnightblue" points="369.593,-25.0259 379.274,-20.7209 369.021,-18.0493 369.593,-25.0259"/>
</g>
<!-- Node26 -->
<g id="node26" class="node"><title>Node26</title>
<g id="a_node26"><a xlink:href="classRa_1_1Engine_1_1Component.html#a10b0bc182b76165744ebea603ae32dfe" target="_top" xlink:title="Shortcut to access the render object manager. ">
<polygon fill="white" stroke="black" points="582.5,-0.5 582.5,-30.5 711.5,-30.5 711.5,-0.5 582.5,-0.5"/>
<text text-anchor="start" x="590.5" y="-18.5" font-family="Helvetica,sans-Serif" font-size="10.00">Ra::Engine::Component</text>
<text text-anchor="middle" x="647" y="-7.5" font-family="Helvetica,sans-Serif" font-size="10.00">::getRoMgr</text>
</a>
</g>
</g>
<!-- Node25&#45;&gt;Node26 -->
<g id="edge30" class="edge"><title>Node25&#45;&gt;Node26</title>
<path fill="none" stroke="midnightblue" d="M508.598,-15.5C528.86,-15.5 551.446,-15.5 572.358,-15.5"/>
<polygon fill="midnightblue" stroke="midnightblue" points="572.471,-19.0001 582.471,-15.5 572.471,-12.0001 572.471,-19.0001"/>
</g>
<!-- Node27&#45;&gt;Node6 -->
<g id="edge32" class="edge"><title>Node27&#45;&gt;Node6</title>
<path fill="none" stroke="midnightblue" d="M290.323,-282.917C300.901,-279.306 311.364,-274.337 320,-267.5 345.284,-247.483 328.107,-220.687 356,-204.5 423.655,-165.238 460.143,-173.592 532,-204.5 553.371,-213.692 548.305,-230.117 568,-242.5 571.198,-244.511 574.572,-246.373 578.051,-248.097"/>
<polygon fill="midnightblue" stroke="midnightblue" points="576.902,-251.418 587.457,-252.34 579.781,-245.037 576.902,-251.418"/>
</g>
<!-- Node27&#45;&gt;Node7 -->
<g id="edge33" class="edge"><title>Node27&#45;&gt;Node7</title>
<path fill="none" stroke="midnightblue" d="M290.047,-305.289C300.208,-308.424 310.584,-312.155 320,-316.5 337.46,-324.558 338.271,-333.053 356,-340.5 426.175,-369.976 512.092,-385.756 572.12,-393.825"/>
<polygon fill="midnightblue" stroke="midnightblue" points="571.902,-397.326 582.27,-395.15 572.807,-390.385 571.902,-397.326"/>
</g>
<!-- Node27&#45;&gt;Node12 -->
<g id="edge35" class="edge"><title>Node27&#45;&gt;Node12</title>
<path fill="none" stroke="midnightblue" d="M290.018,-298.806C314.613,-301.65 344.014,-305.051 370.439,-308.107"/>
<polygon fill="midnightblue" stroke="midnightblue" points="370.069,-311.588 380.405,-309.26 370.873,-304.634 370.069,-311.588"/>
</g>
<!-- Node27&#45;&gt;Node14 -->
<g id="edge36" class="edge"><title>Node27&#45;&gt;Node14</title>
<path fill="none" stroke="midnightblue" d="M290.018,-285.932C307.196,-283.862 326.719,-281.51 345.934,-279.195"/>
<polygon fill="midnightblue" stroke="midnightblue" points="346.431,-282.66 355.941,-277.989 345.594,-275.71 346.431,-282.66"/>
</g>
<!-- Node28 -->
<g id="node28" class="node"><title>Node28</title>
<g id="a_node28"><a xlink:href="classRa_1_1Core_1_1Grid.html#ae9c02e6ec89130899fd0645dbfa4ece7" target="_top" xlink:title="Access an element with a D&#45;dimensional index. ">
<polygon fill="white" stroke="black" points="395,-214 395,-233 493,-233 493,-214 395,-214"/>
<text text-anchor="middle" x="444" y="-221" font-family="Helvetica,sans-Serif" font-size="10.00">Ra::Core::Grid::at</text>
</a>
</g>
</g>
<!-- Node27&#45;&gt;Node28 -->
<g id="edge34" class="edge"><title>Node27&#45;&gt;Node28</title>
<path fill="none" stroke="midnightblue" d="M290.106,-279.135C300.262,-275.873 310.62,-272 320,-267.5 337.563,-259.074 338.143,-250.283 356,-242.5 365.141,-238.516 375.199,-235.333 385.131,-232.801"/>
<polygon fill="midnightblue" stroke="midnightblue" points="386.052,-236.18 394.983,-230.481 384.447,-229.367 386.052,-236.18"/>
</g>
<!-- Node29&#45;&gt;Node15 -->
<g id="edge39" class="edge"><title>Node29&#45;&gt;Node15</title>
<path fill="none" stroke="midnightblue" d="M291.289,-99.4027C365.393,-101.93 496.268,-106.393 576.646,-109.135"/>
<polygon fill="midnightblue" stroke="midnightblue" points="576.561,-112.634 586.674,-109.477 576.799,-105.638 576.561,-112.634"/>
</g>
<!-- Node30 -->
<g id="node30" class="node"><title>Node30</title>
<g id="a_node30"><a xlink:href="classRa_1_1Gui_1_1Gizmo.html#a54a7f30aa51625a9a54cf58a03d79e43" target="_top" xlink:title="read access to the gizmo render objects id ">
<polygon fill="white" stroke="black" points="386,-50 386,-69 502,-69 502,-50 386,-50"/>
<text text-anchor="middle" x="444" y="-57" font-family="Helvetica,sans-Serif" font-size="10.00">Ra::Gui::Gizmo::roIds</text>
</a>
</g>
</g>
<!-- Node29&#45;&gt;Node30 -->
<g id="edge40" class="edge"><title>Node29&#45;&gt;Node30</title>
<path fill="none" stroke="midnightblue" d="M291.106,-87.3167C318.812,-82.2429 352.403,-76.0913 380.944,-70.8645"/>
<polygon fill="midnightblue" stroke="midnightblue" points="381.605,-74.3018 390.811,-69.0576 380.344,-67.4163 381.605,-74.3018"/>
</g>
</g>
</svg>
