<?xml version="1.0" encoding="UTF-8" standalone="no"?>
<!DOCTYPE svg PUBLIC "-//W3C//DTD SVG 1.1//EN"
 "http://www.w3.org/Graphics/SVG/1.1/DTD/svg11.dtd">
<!-- Generated by graphviz version 2.38.0 (20140413.2041)
 -->
<!-- Title: Ra::Engine::ShaderProgramManager::reloadNotCompiledShaderPrograms Pages: 1 -->
<svg width="381pt" height="50pt"
 viewBox="0.00 0.00 381.00 50.00" xmlns="http://www.w3.org/2000/svg" xmlns:xlink="http://www.w3.org/1999/xlink">
<g id="graph0" class="graph" transform="scale(1 1) rotate(0) translate(4 46)">
<title>Ra::Engine::ShaderProgramManager::reloadNotCompiledShaderPrograms</title>
<polygon fill="white" stroke="none" points="-4,4 -4,-46 377,-46 377,4 -4,4"/>
<!-- Node1 -->
<g id="node1" class="node"><title>Node1</title>
<polygon fill="#bfbfbf" stroke="black" points="0,-0.5 0,-41.5 191,-41.5 191,-0.5 0,-0.5"/>
<text text-anchor="start" x="8" y="-29.5" font-family="Helvetica,sans-Serif" font-size="10.00">Ra::Engine::ShaderProgram</text>
<text text-anchor="start" x="8" y="-18.5" font-family="Helvetica,sans-Serif" font-size="10.00">Manager::reloadNotCompiledShader</text>
<text text-anchor="middle" x="95.5" y="-7.5" font-family="Helvetica,sans-Serif" font-size="10.00">Programs</text>
</g>
<!-- Node2 -->
<g id="node2" class="node"><title>Node2</title>
<g id="a_node2"><a xlink:href="namespaceRa_1_1Engine.html#a4d2c5e4a673763dfafc72cb74965b95f" target="_top" xlink:title="Ra::Engine::RA_SINGLETON\l_IMPLEMENTATION">
<polygon fill="white" stroke="black" points="227,-6 227,-36 373,-36 373,-6 227,-6"/>
<text text-anchor="start" x="235" y="-24" font-family="Helvetica,sans-Serif" font-size="10.00">Ra::Engine::RA_SINGLETON</text>
<text text-anchor="middle" x="300" y="-13" font-family="Helvetica,sans-Serif" font-size="10.00">_IMPLEMENTATION</text>
</a>
</g>
</g>
<!-- Node1&#45;&gt;Node2 -->
<g id="edge1" class="edge"><title>Node1&#45;&gt;Node2</title>
<path fill="none" stroke="midnightblue" d="M191.228,-21C199.717,-21 208.267,-21 216.639,-21"/>
<polygon fill="midnightblue" stroke="midnightblue" points="216.746,-24.5001 226.746,-21 216.746,-17.5001 216.746,-24.5001"/>
</g>
</g>
</svg>
