<?xml version="1.0" encoding="UTF-8" standalone="no"?>
<!DOCTYPE svg PUBLIC "-//W3C//DTD SVG 1.1//EN"
 "http://www.w3.org/Graphics/SVG/1.1/DTD/svg11.dtd">
<!-- Generated by graphviz version 2.38.0 (20140413.2041)
 -->
<!-- Title: Ra::Engine::ForwardRenderer::initializeInternal Pages: 1 -->
<svg width="562pt" height="88pt"
 viewBox="0.00 0.00 562.00 88.00" xmlns="http://www.w3.org/2000/svg" xmlns:xlink="http://www.w3.org/1999/xlink">
<g id="graph0" class="graph" transform="scale(1 1) rotate(0) translate(4 84)">
<title>Ra::Engine::ForwardRenderer::initializeInternal</title>
<polygon fill="white" stroke="none" points="-4,4 -4,-84 558,-84 558,4 -4,4"/>
<!-- Node1 -->
<g id="node1" class="node"><title>Node1</title>
<polygon fill="#bfbfbf" stroke="black" points="0,-24.5 0,-54.5 153,-54.5 153,-24.5 0,-24.5"/>
<text text-anchor="start" x="8" y="-42.5" font-family="Helvetica,sans-Serif" font-size="10.00">Ra::Engine::ForwardRenderer</text>
<text text-anchor="middle" x="76.5" y="-31.5" font-family="Helvetica,sans-Serif" font-size="10.00">::initializeInternal</text>
</g>
<!-- Node2 -->
<g id="node2" class="node"><title>Node2</title>
<g id="a_node2"><a xlink:href="namespaceRa_1_1Core_1_1Resources.html#a91355598fb65d39b0dd807304ba7250a" target="_top" xlink:title="Get the base prefix to access the Radium resources in a filesystem. ">
<polygon fill="white" stroke="black" points="212,-49.5 212,-79.5 324,-79.5 324,-49.5 212,-49.5"/>
<text text-anchor="start" x="220" y="-67.5" font-family="Helvetica,sans-Serif" font-size="10.00">Ra::Core::Resources</text>
<text text-anchor="middle" x="268" y="-56.5" font-family="Helvetica,sans-Serif" font-size="10.00">::getBaseDir</text>
</a>
</g>
</g>
<!-- Node1&#45;&gt;Node2 -->
<g id="edge1" class="edge"><title>Node1&#45;&gt;Node2</title>
<path fill="none" stroke="midnightblue" d="M153.212,-49.4884C169.28,-51.6082 186.11,-53.8285 201.749,-55.8917"/>
<polygon fill="midnightblue" stroke="midnightblue" points="201.462,-59.384 211.834,-57.2221 202.377,-52.4442 201.462,-59.384"/>
</g>
<!-- Node3 -->
<g id="node3" class="node"><title>Node3</title>
<g id="a_node3"><a xlink:href="classRa_1_1Engine_1_1ShaderProgramManager.html#a82a7361639c0fbd401447e2d253dc961" target="_top" xlink:title="Add a shader program to the program collection according to the given configuration. ">
<polygon fill="white" stroke="black" points="189,-0.5 189,-30.5 347,-30.5 347,-0.5 189,-0.5"/>
<text text-anchor="start" x="197" y="-18.5" font-family="Helvetica,sans-Serif" font-size="10.00">Ra::Engine::ShaderProgram</text>
<text text-anchor="middle" x="268" y="-7.5" font-family="Helvetica,sans-Serif" font-size="10.00">Manager::addShaderProgram</text>
</a>
</g>
</g>
<!-- Node1&#45;&gt;Node3 -->
<g id="edge2" class="edge"><title>Node1&#45;&gt;Node3</title>
<path fill="none" stroke="midnightblue" d="M153.212,-29.9111C161.659,-28.8413 170.317,-27.7448 178.902,-26.6576"/>
<polygon fill="midnightblue" stroke="midnightblue" points="179.448,-30.1165 188.928,-25.3877 178.568,-23.172 179.448,-30.1165"/>
</g>
<!-- Node4 -->
<g id="node4" class="node"><title>Node4</title>
<g id="a_node4"><a xlink:href="classRa_1_1Engine_1_1ShaderConfiguration.html#a164b0c07e18d6d833cfac76d4413352b" target="_top" xlink:title="Ra::Engine::ShaderConfiguration\l::getNamedStrings">
<polygon fill="white" stroke="black" points="383,-0.5 383,-30.5 554,-30.5 554,-0.5 383,-0.5"/>
<text text-anchor="start" x="391" y="-18.5" font-family="Helvetica,sans-Serif" font-size="10.00">Ra::Engine::ShaderConfiguration</text>
<text text-anchor="middle" x="468.5" y="-7.5" font-family="Helvetica,sans-Serif" font-size="10.00">::getNamedStrings</text>
</a>
</g>
</g>
<!-- Node3&#45;&gt;Node4 -->
<g id="edge3" class="edge"><title>Node3&#45;&gt;Node4</title>
<path fill="none" stroke="midnightblue" d="M347.168,-15.5C355.589,-15.5 364.223,-15.5 372.812,-15.5"/>
<polygon fill="midnightblue" stroke="midnightblue" points="372.857,-19.0001 382.857,-15.5 372.857,-12.0001 372.857,-19.0001"/>
</g>
</g>
</svg>
