<?xml version="1.0" encoding="UTF-8" standalone="no"?>
<!DOCTYPE svg PUBLIC "-//W3C//DTD SVG 1.1//EN"
 "http://www.w3.org/Graphics/SVG/1.1/DTD/svg11.dtd">
<!-- Generated by graphviz version 2.38.0 (20140413.2041)
 -->
<!-- Title: Ra::Engine::RadiumEngine::registerDefaultPrograms Pages: 1 -->
<svg width="796pt" height="349pt"
 viewBox="0.00 0.00 796.00 349.00" xmlns="http://www.w3.org/2000/svg" xmlns:xlink="http://www.w3.org/1999/xlink">
<g id="graph0" class="graph" transform="scale(1 1) rotate(0) translate(4 345)">
<title>Ra::Engine::RadiumEngine::registerDefaultPrograms</title>
<polygon fill="white" stroke="none" points="-4,4 -4,-345 792,-345 792,4 -4,4"/>
<!-- Node1 -->
<g id="node1" class="node"><title>Node1</title>
<polygon fill="#bfbfbf" stroke="black" points="0,-266.5 0,-296.5 141,-296.5 141,-266.5 0,-266.5"/>
<text text-anchor="start" x="8" y="-284.5" font-family="Helvetica,sans-Serif" font-size="10.00">Ra::Engine::RadiumEngine</text>
<text text-anchor="middle" x="70.5" y="-273.5" font-family="Helvetica,sans-Serif" font-size="10.00">::registerDefaultPrograms</text>
</g>
<!-- Node2 -->
<g id="node2" class="node"><title>Node2</title>
<g id="a_node2"><a xlink:href="classRa_1_1Engine_1_1ShaderConfiguration.html#a8ffa1714a9e63a320acaa7873fb99797" target="_top" xlink:title="Add a shader given its type. ">
<polygon fill="white" stroke="black" points="177,-310.5 177,-340.5 348,-340.5 348,-310.5 177,-310.5"/>
<text text-anchor="start" x="185" y="-328.5" font-family="Helvetica,sans-Serif" font-size="10.00">Ra::Engine::ShaderConfiguration</text>
<text text-anchor="middle" x="262.5" y="-317.5" font-family="Helvetica,sans-Serif" font-size="10.00">::addShader</text>
</a>
</g>
</g>
<!-- Node1&#45;&gt;Node2 -->
<g id="edge1" class="edge"><title>Node1&#45;&gt;Node2</title>
<path fill="none" stroke="midnightblue" d="M136.356,-296.519C152.47,-300.251 169.874,-304.281 186.433,-308.116"/>
<polygon fill="midnightblue" stroke="midnightblue" points="186.082,-311.627 196.614,-310.474 187.662,-304.808 186.082,-311.627"/>
</g>
<!-- Node3 -->
<g id="node3" class="node"><title>Node3</title>
<g id="a_node3"><a xlink:href="namespaceRa_1_1Engine_1_1ShaderConfigurationFactory.html#a36842535508a390108fb1205210a5c49" target="_top" xlink:title="Add a configuration to the factory. ">
<polygon fill="white" stroke="black" points="397,-294.5 397,-324.5 568,-324.5 568,-294.5 397,-294.5"/>
<text text-anchor="start" x="405" y="-312.5" font-family="Helvetica,sans-Serif" font-size="10.00">Ra::Engine::ShaderConfiguration</text>
<text text-anchor="middle" x="482.5" y="-301.5" font-family="Helvetica,sans-Serif" font-size="10.00">Factory::addConfiguration</text>
</a>
</g>
</g>
<!-- Node1&#45;&gt;Node3 -->
<g id="edge2" class="edge"><title>Node1&#45;&gt;Node3</title>
<path fill="none" stroke="midnightblue" d="M141.051,-286.25C208.476,-290.854 311.284,-297.876 386.284,-302.997"/>
<polygon fill="midnightblue" stroke="midnightblue" points="386.461,-306.518 396.676,-303.707 386.938,-299.534 386.461,-306.518"/>
</g>
<!-- Node4 -->
<g id="node4" class="node"><title>Node4</title>
<g id="a_node4"><a xlink:href="classRa_1_1Engine_1_1BlinnPhongMaterial.html#afddfa0302459dcc502e9a62441d7a87b" target="_top" xlink:title="Register the material in the material library. ">
<polygon fill="white" stroke="black" points="180.5,-171.5 180.5,-201.5 344.5,-201.5 344.5,-171.5 180.5,-171.5"/>
<text text-anchor="start" x="188.5" y="-189.5" font-family="Helvetica,sans-Serif" font-size="10.00">Ra::Engine::BlinnPhongMaterial</text>
<text text-anchor="middle" x="262.5" y="-178.5" font-family="Helvetica,sans-Serif" font-size="10.00">::registerMaterial</text>
</a>
</g>
</g>
<!-- Node1&#45;&gt;Node4 -->
<g id="edge3" class="edge"><title>Node1&#45;&gt;Node4</title>
<path fill="none" stroke="midnightblue" d="M101.606,-266.447C134.169,-250.166 186.216,-224.142 222.033,-206.233"/>
<polygon fill="midnightblue" stroke="midnightblue" points="223.842,-209.242 231.221,-201.64 220.711,-202.981 223.842,-209.242"/>
</g>
<!-- Node4&#45;&gt;Node3 -->
<g id="edge6" class="edge"><title>Node4&#45;&gt;Node3</title>
<path fill="none" stroke="midnightblue" d="M277.535,-201.722C298.557,-223.592 340.43,-263.665 384,-285.5 387.964,-287.487 392.104,-289.316 396.344,-290.998"/>
<polygon fill="midnightblue" stroke="midnightblue" points="395.165,-294.294 405.759,-294.453 397.577,-287.722 395.165,-294.294"/>
</g>
<!-- Node5 -->
<g id="node5" class="node"><title>Node5</title>
<g id="a_node5"><a xlink:href="namespaceRa_1_1Core_1_1Resources.html#a91355598fb65d39b0dd807304ba7250a" target="_top" xlink:title="Get the base prefix to access the Radium resources in a filesystem. ">
<polygon fill="white" stroke="black" points="426.5,-245.5 426.5,-275.5 538.5,-275.5 538.5,-245.5 426.5,-245.5"/>
<text text-anchor="start" x="434.5" y="-263.5" font-family="Helvetica,sans-Serif" font-size="10.00">Ra::Core::Resources</text>
<text text-anchor="middle" x="482.5" y="-252.5" font-family="Helvetica,sans-Serif" font-size="10.00">::getBaseDir</text>
</a>
</g>
</g>
<!-- Node4&#45;&gt;Node5 -->
<g id="edge4" class="edge"><title>Node4&#45;&gt;Node5</title>
<path fill="none" stroke="midnightblue" d="M295.98,-201.558C319.948,-212.278 353.551,-226.499 384,-236.5 394.398,-239.915 405.56,-243.098 416.485,-245.959"/>
<polygon fill="midnightblue" stroke="midnightblue" points="415.869,-249.413 426.424,-248.492 417.598,-242.63 415.869,-249.413"/>
</g>
<!-- Node6 -->
<g id="node6" class="node"><title>Node6</title>
<g id="a_node6"><a xlink:href="namespaceRa_1_1Engine_1_1EngineMaterialConverters.html#ac79f2e35d9ad3d13a9aa484bdfcf68fa" target="_top" xlink:title="register a new material converter ">
<polygon fill="white" stroke="black" points="384,-196.5 384,-226.5 581,-226.5 581,-196.5 384,-196.5"/>
<text text-anchor="start" x="392" y="-214.5" font-family="Helvetica,sans-Serif" font-size="10.00">Ra::Engine::EngineMaterial</text>
<text text-anchor="middle" x="482.5" y="-203.5" font-family="Helvetica,sans-Serif" font-size="10.00">Converters::registerMaterialConverter</text>
</a>
</g>
</g>
<!-- Node4&#45;&gt;Node6 -->
<g id="edge5" class="edge"><title>Node4&#45;&gt;Node6</title>
<path fill="none" stroke="midnightblue" d="M344.675,-195.809C354.109,-196.891 363.841,-198.007 373.561,-199.122"/>
<polygon fill="midnightblue" stroke="midnightblue" points="373.341,-202.619 383.674,-200.281 374.138,-195.665 373.341,-202.619"/>
</g>
<!-- Node7 -->
<g id="node7" class="node"><title>Node7</title>
<g id="a_node7"><a xlink:href="namespaceRa_1_1Engine_1_1EngineRenderTechniques.html#affc37bf84d5ff81342b5c09587eedc34" target="_top" xlink:title="register a new default builder for a technique ">
<polygon fill="white" stroke="black" points="385.5,-147.5 385.5,-177.5 579.5,-177.5 579.5,-147.5 385.5,-147.5"/>
<text text-anchor="start" x="393.5" y="-165.5" font-family="Helvetica,sans-Serif" font-size="10.00">Ra::Engine::EngineRender</text>
<text text-anchor="middle" x="482.5" y="-154.5" font-family="Helvetica,sans-Serif" font-size="10.00">Techniques::registerDefaultTechnique</text>
</a>
</g>
</g>
<!-- Node4&#45;&gt;Node7 -->
<g id="edge7" class="edge"><title>Node4&#45;&gt;Node7</title>
<path fill="none" stroke="midnightblue" d="M344.675,-177.563C354.571,-176.474 364.796,-175.348 374.991,-174.226"/>
<polygon fill="midnightblue" stroke="midnightblue" points="375.606,-177.679 385.163,-173.106 374.84,-170.721 375.606,-177.679"/>
</g>
<!-- Node8 -->
<g id="node8" class="node"><title>Node8</title>
<g id="a_node8"><a xlink:href="classRa_1_1Engine_1_1BlinnPhongMaterial.html#a1678c886bb86bbab2c951ec6228d0c75" target="_top" xlink:title="Test if material is transperent. ">
<polygon fill="white" stroke="black" points="400.5,-98.5 400.5,-128.5 564.5,-128.5 564.5,-98.5 400.5,-98.5"/>
<text text-anchor="start" x="408.5" y="-116.5" font-family="Helvetica,sans-Serif" font-size="10.00">Ra::Engine::BlinnPhongMaterial</text>
<text text-anchor="middle" x="482.5" y="-105.5" font-family="Helvetica,sans-Serif" font-size="10.00">::isTransparent</text>
</a>
</g>
</g>
<!-- Node4&#45;&gt;Node8 -->
<g id="edge8" class="edge"><title>Node4&#45;&gt;Node8</title>
<path fill="none" stroke="midnightblue" d="M297.871,-171.444C321.746,-161.325 354.453,-148.129 384,-138.5 391.822,-135.951 400.064,-133.494 408.308,-131.181"/>
<polygon fill="midnightblue" stroke="midnightblue" points="409.241,-134.555 417.961,-128.536 407.391,-127.804 409.241,-134.555"/>
</g>
<!-- Node10 -->
<g id="node10" class="node"><title>Node10</title>
<g id="a_node10"><a xlink:href="namespaceRa_1_1Engine_1_1ShaderConfigurationFactory.html#a0bc60f21dbabd745961037f3d2f019c8" target="_top" xlink:title="Get a configuration from the factory. ">
<polygon fill="white" stroke="black" points="397,-49.5 397,-79.5 568,-79.5 568,-49.5 397,-49.5"/>
<text text-anchor="start" x="405" y="-67.5" font-family="Helvetica,sans-Serif" font-size="10.00">Ra::Engine::ShaderConfiguration</text>
<text text-anchor="middle" x="482.5" y="-56.5" font-family="Helvetica,sans-Serif" font-size="10.00">Factory::getConfiguration</text>
</a>
</g>
</g>
<!-- Node4&#45;&gt;Node10 -->
<g id="edge10" class="edge"><title>Node4&#45;&gt;Node10</title>
<path fill="none" stroke="midnightblue" d="M277.567,-171.438C298.63,-149.797 340.553,-110.138 384,-88.5 387.969,-86.5232 392.112,-84.7022 396.356,-83.0257"/>
<polygon fill="midnightblue" stroke="midnightblue" points="397.586,-86.3026 405.776,-79.5818 395.182,-79.7281 397.586,-86.3026"/>
</g>
<!-- Node12 -->
<g id="node12" class="node"><title>Node12</title>
<g id="a_node12"><a xlink:href="classRa_1_1Engine_1_1RenderTechnique.html#aaf860d7c30aef24f7c24016952cd8f00" target="_top" xlink:title="Ra::Engine::RenderTechnique\l::setConfiguration">
<polygon fill="white" stroke="black" points="406,-0.5 406,-30.5 559,-30.5 559,-0.5 406,-0.5"/>
<text text-anchor="start" x="414" y="-18.5" font-family="Helvetica,sans-Serif" font-size="10.00">Ra::Engine::RenderTechnique</text>
<text text-anchor="middle" x="482.5" y="-7.5" font-family="Helvetica,sans-Serif" font-size="10.00">::setConfiguration</text>
</a>
</g>
</g>
<!-- Node4&#45;&gt;Node12 -->
<g id="edge12" class="edge"><title>Node4&#45;&gt;Node12</title>
<path fill="none" stroke="midnightblue" d="M271.494,-171.286C288.147,-141.153 329.574,-73.831 384,-39.5 387.878,-37.0536 391.989,-34.8565 396.244,-32.8834"/>
<polygon fill="midnightblue" stroke="midnightblue" points="397.874,-35.9955 405.753,-28.9117 395.176,-29.5363 397.874,-35.9955"/>
</g>
<!-- Node9 -->
<g id="node9" class="node"><title>Node9</title>
<g id="a_node9"><a xlink:href="classRa_1_1Engine_1_1Material.html#aaee4ad66930200c441f908fe45a9f2a0" target="_top" xlink:title="Test if material is transperent. ">
<polygon fill="white" stroke="black" points="647,-98.5 647,-128.5 758,-128.5 758,-98.5 647,-98.5"/>
<text text-anchor="start" x="655" y="-116.5" font-family="Helvetica,sans-Serif" font-size="10.00">Ra::Engine::Material</text>
<text text-anchor="middle" x="702.5" y="-105.5" font-family="Helvetica,sans-Serif" font-size="10.00">::isTransparent</text>
</a>
</g>
</g>
<!-- Node8&#45;&gt;Node9 -->
<g id="edge9" class="edge"><title>Node8&#45;&gt;Node9</title>
<path fill="none" stroke="midnightblue" d="M564.675,-113.5C588.4,-113.5 614.01,-113.5 636.586,-113.5"/>
<polygon fill="midnightblue" stroke="midnightblue" points="636.727,-117 646.727,-113.5 636.727,-110 636.727,-117"/>
</g>
<!-- Node11 -->
<g id="node11" class="node"><title>Node11</title>
<g id="a_node11"><a xlink:href="classRa_1_1Engine_1_1ShaderConfiguration.html#a7e20a600c78e8627f0238b342f4b42f2" target="_top" xlink:title="Ra::Engine::ShaderConfiguration\l::getDefaultShaderConfig">
<polygon fill="white" stroke="black" points="617,-49.5 617,-79.5 788,-79.5 788,-49.5 617,-49.5"/>
<text text-anchor="start" x="625" y="-67.5" font-family="Helvetica,sans-Serif" font-size="10.00">Ra::Engine::ShaderConfiguration</text>
<text text-anchor="middle" x="702.5" y="-56.5" font-family="Helvetica,sans-Serif" font-size="10.00">::getDefaultShaderConfig</text>
</a>
</g>
</g>
<!-- Node10&#45;&gt;Node11 -->
<g id="edge11" class="edge"><title>Node10&#45;&gt;Node11</title>
<path fill="none" stroke="midnightblue" d="M568.097,-64.5C580.751,-64.5 593.869,-64.5 606.718,-64.5"/>
<polygon fill="midnightblue" stroke="midnightblue" points="606.951,-68.0001 616.951,-64.5 606.951,-61.0001 606.951,-68.0001"/>
</g>
</g>
</svg>
