<?xml version="1.0" encoding="UTF-8" standalone="no"?>
<!DOCTYPE svg PUBLIC "-//W3C//DTD SVG 1.1//EN"
 "http://www.w3.org/Graphics/SVG/1.1/DTD/svg11.dtd">
<!-- Generated by graphviz version 2.38.0 (20140413.2041)
 -->
<!-- Title: Ra::Gui::Viewer::wheelEvent Pages: 1 -->
<svg width="364pt" height="127pt"
 viewBox="0.00 0.00 364.00 126.50" xmlns="http://www.w3.org/2000/svg" xmlns:xlink="http://www.w3.org/1999/xlink">
<g id="graph0" class="graph" transform="scale(1 1) rotate(0) translate(4 122.5)">
<title>Ra::Gui::Viewer::wheelEvent</title>
<polygon fill="white" stroke="none" points="-4,4 -4,-122.5 360,-122.5 360,4 -4,4"/>
<!-- Node1 -->
<g id="node1" class="node"><title>Node1</title>
<polygon fill="#bfbfbf" stroke="black" points="0,-55 0,-74 148,-74 148,-55 0,-55"/>
<text text-anchor="middle" x="74" y="-62" font-family="Helvetica,sans-Serif" font-size="10.00">Ra::Gui::Viewer::wheelEvent</text>
</g>
<!-- Node2 -->
<g id="node2" class="node"><title>Node2</title>
<g id="a_node2"><a xlink:href="namespaceRa_1_1Gui.html#a6a6b6c1b2092c0718698a298a8c4cf8b" target="_top" xlink:title="return the last, still pressed, key code, &#45;1 if no key currently pressed ">
<polygon fill="white" stroke="black" points="219.5,-99 219.5,-118 320.5,-118 320.5,-99 219.5,-99"/>
<text text-anchor="middle" x="270" y="-106" font-family="Helvetica,sans-Serif" font-size="10.00">Ra::Gui::activeKey</text>
</a>
</g>
</g>
<!-- Node1&#45;&gt;Node2 -->
<g id="edge1" class="edge"><title>Node1&#45;&gt;Node2</title>
<path fill="none" stroke="midnightblue" d="M116.395,-74.0511C136.752,-78.7335 161.656,-84.4404 184,-89.5 194.394,-91.8536 205.507,-94.3513 216.155,-96.7354"/>
<polygon fill="midnightblue" stroke="midnightblue" points="215.661,-100.211 226.184,-98.9779 217.189,-93.3799 215.661,-100.211"/>
</g>
<!-- Node3 -->
<g id="node3" class="node"><title>Node3</title>
<g id="a_node3"><a xlink:href="classRa_1_1Gui_1_1KeyMappingManageable.html#a22954323f435085f355701781f846cda" target="_top" xlink:title="Ra::Gui::KeyMappingManageable\l::getContext">
<polygon fill="white" stroke="black" points="184,-49.5 184,-79.5 356,-79.5 356,-49.5 184,-49.5"/>
<text text-anchor="start" x="192" y="-67.5" font-family="Helvetica,sans-Serif" font-size="10.00">Ra::Gui::KeyMappingManageable</text>
<text text-anchor="middle" x="270" y="-56.5" font-family="Helvetica,sans-Serif" font-size="10.00">::getContext</text>
</a>
</g>
</g>
<!-- Node1&#45;&gt;Node3 -->
<g id="edge2" class="edge"><title>Node1&#45;&gt;Node3</title>
<path fill="none" stroke="midnightblue" d="M148.067,-64.5C156.481,-64.5 165.153,-64.5 173.804,-64.5"/>
<polygon fill="midnightblue" stroke="midnightblue" points="173.936,-68.0001 183.936,-64.5 173.936,-61.0001 173.936,-68.0001"/>
</g>
<!-- Node4 -->
<g id="node4" class="node"><title>Node4</title>
<g id="a_node4"><a xlink:href="classRa_1_1Engine_1_1Renderer.html#a1165d48bd1c1d3e77579f326f978d59f" target="_top" xlink:title="Ra::Engine::Renderer\l::setBrushRadius">
<polygon fill="white" stroke="black" points="212,-0.5 212,-30.5 328,-30.5 328,-0.5 212,-0.5"/>
<text text-anchor="start" x="220" y="-18.5" font-family="Helvetica,sans-Serif" font-size="10.00">Ra::Engine::Renderer</text>
<text text-anchor="middle" x="270" y="-7.5" font-family="Helvetica,sans-Serif" font-size="10.00">::setBrushRadius</text>
</a>
</g>
</g>
<!-- Node1&#45;&gt;Node4 -->
<g id="edge3" class="edge"><title>Node1&#45;&gt;Node4</title>
<path fill="none" stroke="midnightblue" d="M112.866,-54.936C138.128,-48.5552 172.045,-39.9887 201.812,-32.4702"/>
<polygon fill="midnightblue" stroke="midnightblue" points="202.891,-35.8076 211.729,-29.9653 201.177,-29.0208 202.891,-35.8076"/>
</g>
</g>
</svg>
