<?xml version="1.0" encoding="UTF-8" standalone="no"?>
<!DOCTYPE svg PUBLIC "-//W3C//DTD SVG 1.1//EN"
 "http://www.w3.org/Graphics/SVG/1.1/DTD/svg11.dtd">
<!-- Generated by graphviz version 2.38.0 (20140413.2041)
 -->
<!-- Title: Ra::Gui::TranslateGizmo Pages: 1 -->
<svg width="712pt" height="1632pt"
 viewBox="0.00 0.00 711.50 1632.00" xmlns="http://www.w3.org/2000/svg" xmlns:xlink="http://www.w3.org/1999/xlink">
<g id="graph0" class="graph" transform="scale(1 1) rotate(0) translate(4 1628)">
<title>Ra::Gui::TranslateGizmo</title>
<polygon fill="white" stroke="none" points="-4,4 -4,-1628 707.5,-1628 707.5,4 -4,4"/>
<!-- Node1 -->
<g id="node1" class="node"><title>Node1</title>
<polygon fill="#bfbfbf" stroke="black" points="368,-0.5 368,-112.5 498,-112.5 498,-0.5 368,-0.5"/>
<text text-anchor="middle" x="433" y="-100.5" font-family="Helvetica,sans-Serif" font-size="10.00">Ra::Gui::TranslateGizmo</text>
<polyline fill="none" stroke="black" points="368,-93.5 498,-93.5 "/>
<text text-anchor="middle" x="433" y="-81.5" font-family="Helvetica,sans-Serif" font-size="10.00"> </text>
<polyline fill="none" stroke="black" points="368,-74.5 498,-74.5 "/>
<text text-anchor="start" x="376" y="-62.5" font-family="Helvetica,sans-Serif" font-size="10.00">+ TranslateGizmo()</text>
<text text-anchor="start" x="376" y="-51.5" font-family="Helvetica,sans-Serif" font-size="10.00">+ updateTransform()</text>
<text text-anchor="start" x="376" y="-40.5" font-family="Helvetica,sans-Serif" font-size="10.00">+ selectConstraint()</text>
<text text-anchor="start" x="376" y="-29.5" font-family="Helvetica,sans-Serif" font-size="10.00">+ isSelected()</text>
<text text-anchor="start" x="376" y="-18.5" font-family="Helvetica,sans-Serif" font-size="10.00">+ setInitialState()</text>
<text text-anchor="start" x="376" y="-7.5" font-family="Helvetica,sans-Serif" font-size="10.00">+ mouseMove()</text>
</g>
<!-- Node2 -->
<g id="node2" class="node"><title>Node2</title>
<g id="a_node2"><a xlink:href="classRa_1_1Gui_1_1Gizmo.html" target="_top" xlink:title="Base class for gizmos, i.e. ">
<polygon fill="white" stroke="black" points="374.5,-150.5 374.5,-339.5 491.5,-339.5 491.5,-150.5 374.5,-150.5"/>
<text text-anchor="middle" x="433" y="-327.5" font-family="Helvetica,sans-Serif" font-size="10.00">Ra::Gui::Gizmo</text>
<polyline fill="none" stroke="black" points="374.5,-320.5 491.5,-320.5 "/>
<text text-anchor="middle" x="433" y="-308.5" font-family="Helvetica,sans-Serif" font-size="10.00"> </text>
<polyline fill="none" stroke="black" points="374.5,-301.5 491.5,-301.5 "/>
<text text-anchor="start" x="382.5" y="-289.5" font-family="Helvetica,sans-Serif" font-size="10.00">+ Gizmo()</text>
<text text-anchor="start" x="382.5" y="-278.5" font-family="Helvetica,sans-Serif" font-size="10.00">+ ~Gizmo()</text>
<text text-anchor="start" x="382.5" y="-267.5" font-family="Helvetica,sans-Serif" font-size="10.00">+ show()</text>
<text text-anchor="start" x="382.5" y="-256.5" font-family="Helvetica,sans-Serif" font-size="10.00">+ updateTransform()</text>
<text text-anchor="start" x="382.5" y="-245.5" font-family="Helvetica,sans-Serif" font-size="10.00">+ selectConstraint()</text>
<text text-anchor="start" x="382.5" y="-234.5" font-family="Helvetica,sans-Serif" font-size="10.00">+ isSelected()</text>
<text text-anchor="start" x="382.5" y="-223.5" font-family="Helvetica,sans-Serif" font-size="10.00">+ setInitialState()</text>
<text text-anchor="start" x="382.5" y="-212.5" font-family="Helvetica,sans-Serif" font-size="10.00">+ mouseMove()</text>
<text text-anchor="start" x="382.5" y="-201.5" font-family="Helvetica,sans-Serif" font-size="10.00"># roIds()</text>
<text text-anchor="start" x="382.5" y="-190.5" font-family="Helvetica,sans-Serif" font-size="10.00"># roMeshes()</text>
<text text-anchor="start" x="382.5" y="-179.5" font-family="Helvetica,sans-Serif" font-size="10.00"># addRenderObject()</text>
<text text-anchor="start" x="382.5" y="-168.5" font-family="Helvetica,sans-Serif" font-size="10.00"># findPointOnAxis()</text>
<text text-anchor="start" x="382.5" y="-157.5" font-family="Helvetica,sans-Serif" font-size="10.00"># findPointOnPlane()</text>
</a>
</g>
</g>
<!-- Node2&#45;&gt;Node1 -->
<g id="edge1" class="edge"><title>Node2&#45;&gt;Node1</title>
<path fill="none" stroke="midnightblue" d="M433,-140.443C433,-130.85 433,-121.404 433,-112.518"/>
<polygon fill="none" stroke="midnightblue" points="429.5,-140.477 433,-150.477 436.5,-140.477 429.5,-140.477"/>
</g>
<!-- Node3 -->
<g id="node3" class="node"><title>Node3</title>
<polygon fill="white" stroke="#bfbfbf" points="291.5,-481 291.5,-538 334.5,-538 334.5,-481 291.5,-481"/>
<text text-anchor="middle" x="313" y="-526" font-family="Helvetica,sans-Serif" font-size="10.00">Mode</text>
<polyline fill="none" stroke="#bfbfbf" points="291.5,-519 334.5,-519 "/>
<text text-anchor="middle" x="313" y="-507" font-family="Helvetica,sans-Serif" font-size="10.00"> </text>
<polyline fill="none" stroke="#bfbfbf" points="291.5,-500 334.5,-500 "/>
<text text-anchor="middle" x="313" y="-488" font-family="Helvetica,sans-Serif" font-size="10.00"> </text>
</g>
<!-- Node3&#45;&gt;Node2 -->
<g id="edge2" class="edge"><title>Node3&#45;&gt;Node2</title>
<path fill="none" stroke="#404040" d="M318.398,-480.563C323.31,-457.797 331.547,-425.099 343,-398 350.198,-380.968 358.998,-363.527 368.245,-346.815"/>
<polygon fill="none" stroke="#404040" points="368.479,-346.402 367.943,-339.211 374.375,-335.95 374.911,-343.141 368.479,-346.402"/>
<text text-anchor="middle" x="389.5" y="-366.5" font-family="Helvetica,sans-Serif" font-size="10.00"> #m_mode</text>
</g>
<!-- Node4 -->
<g id="node4" class="node"><title>Node4</title>
<g id="a_node4"><a xlink:href="classRa_1_1Engine_1_1Component.html" target="_top" xlink:title="A component is an element that can be updated by a system. ">
<polygon fill="white" stroke="black" points="352.5,-398.5 352.5,-620.5 513.5,-620.5 513.5,-398.5 352.5,-398.5"/>
<text text-anchor="middle" x="433" y="-608.5" font-family="Helvetica,sans-Serif" font-size="10.00">Ra::Engine::Component</text>
<polyline fill="none" stroke="black" points="352.5,-601.5 513.5,-601.5 "/>
<text text-anchor="middle" x="433" y="-589.5" font-family="Helvetica,sans-Serif" font-size="10.00"> </text>
<polyline fill="none" stroke="black" points="352.5,-582.5 513.5,-582.5 "/>
<text text-anchor="start" x="360.5" y="-570.5" font-family="Helvetica,sans-Serif" font-size="10.00">+ Component()</text>
<text text-anchor="start" x="360.5" y="-559.5" font-family="Helvetica,sans-Serif" font-size="10.00">+ ~Component()</text>
<text text-anchor="start" x="360.5" y="-548.5" font-family="Helvetica,sans-Serif" font-size="10.00">+ initialize()</text>
<text text-anchor="start" x="360.5" y="-537.5" font-family="Helvetica,sans-Serif" font-size="10.00">+ setEntity()</text>
<text text-anchor="start" x="360.5" y="-526.5" font-family="Helvetica,sans-Serif" font-size="10.00">+ getEntity()</text>
<text text-anchor="start" x="360.5" y="-515.5" font-family="Helvetica,sans-Serif" font-size="10.00">+ getName()</text>
<text text-anchor="start" x="360.5" y="-504.5" font-family="Helvetica,sans-Serif" font-size="10.00">+ setSystem()</text>
<text text-anchor="start" x="360.5" y="-493.5" font-family="Helvetica,sans-Serif" font-size="10.00">+ getSystem()</text>
<text text-anchor="start" x="360.5" y="-482.5" font-family="Helvetica,sans-Serif" font-size="10.00">+ addRenderObject()</text>
<text text-anchor="start" x="360.5" y="-471.5" font-family="Helvetica,sans-Serif" font-size="10.00">+ removeRenderObject()</text>
<text text-anchor="start" x="360.5" y="-460.5" font-family="Helvetica,sans-Serif" font-size="10.00">+ canEdit()</text>
<text text-anchor="start" x="360.5" y="-449.5" font-family="Helvetica,sans-Serif" font-size="10.00">+ getTransform()</text>
<text text-anchor="start" x="360.5" y="-438.5" font-family="Helvetica,sans-Serif" font-size="10.00">+ setTransform()</text>
<text text-anchor="start" x="360.5" y="-427.5" font-family="Helvetica,sans-Serif" font-size="10.00">+ notifyRenderObjectExpired()</text>
<text text-anchor="start" x="360.5" y="-416.5" font-family="Helvetica,sans-Serif" font-size="10.00">+ computeAabb()</text>
<text text-anchor="start" x="360.5" y="-405.5" font-family="Helvetica,sans-Serif" font-size="10.00"># getRoMgr()</text>
</a>
</g>
</g>
<!-- Node4&#45;&gt;Node2 -->
<g id="edge3" class="edge"><title>Node4&#45;&gt;Node2</title>
<path fill="none" stroke="#404040" d="M433,-398.317C433,-382.929 433,-367.143 433,-351.838"/>
<polygon fill="none" stroke="#404040" points="433,-351.682 429,-345.682 433,-339.682 437,-345.682 433,-351.682"/>
<text text-anchor="middle" x="460" y="-366.5" font-family="Helvetica,sans-Serif" font-size="10.00"> #m_comp</text>
</g>
<!-- Node5 -->
<g id="node5" class="node"><title>Node5</title>
<polygon fill="white" stroke="#bfbfbf" points="45.5,-977 45.5,-1056 156.5,-1056 156.5,-977 45.5,-977"/>
<text text-anchor="start" x="53.5" y="-1044" font-family="Helvetica,sans-Serif" font-size="10.00">std::vector&lt; Core::</text>
<text text-anchor="start" x="53.5" y="-1033" font-family="Helvetica,sans-Serif" font-size="10.00">Utils::Ra::Core::Utils</text>
<text text-anchor="middle" x="101" y="-1022" font-family="Helvetica,sans-Serif" font-size="10.00">::Index &gt;</text>
<polyline fill="none" stroke="#bfbfbf" points="45.5,-1015 156.5,-1015 "/>
<text text-anchor="middle" x="101" y="-1003" font-family="Helvetica,sans-Serif" font-size="10.00"> </text>
<polyline fill="none" stroke="#bfbfbf" points="45.5,-996 156.5,-996 "/>
<text text-anchor="middle" x="101" y="-984" font-family="Helvetica,sans-Serif" font-size="10.00"> </text>
</g>
<!-- Node5&#45;&gt;Node4 -->
<g id="edge4" class="edge"><title>Node5&#45;&gt;Node4</title>
<path fill="none" stroke="#404040" d="M96.3519,-976.841C90.1188,-905.856 87.8467,-754.135 168,-668 220.291,-611.807 270.478,-659.812 341.794,-620.733"/>
<polygon fill="none" stroke="#404040" points="342.188,-620.497 345.269,-613.977 352.472,-614.313 349.391,-620.833 342.188,-620.497"/>
<text text-anchor="middle" x="215" y="-788" font-family="Helvetica,sans-Serif" font-size="10.00"> +m_renderObjects</text>
</g>
<!-- Node6 -->
<g id="node6" class="node"><title>Node6</title>
<polygon fill="white" stroke="#bfbfbf" points="0,-1302 0,-1359 42,-1359 42,-1302 0,-1302"/>
<text text-anchor="middle" x="21" y="-1347" font-family="Helvetica,sans-Serif" font-size="10.00">Index</text>
<polyline fill="none" stroke="#bfbfbf" points="0,-1340 42,-1340 "/>
<text text-anchor="middle" x="21" y="-1328" font-family="Helvetica,sans-Serif" font-size="10.00"> </text>
<polyline fill="none" stroke="#bfbfbf" points="0,-1321 42,-1321 "/>
<text text-anchor="middle" x="21" y="-1309" font-family="Helvetica,sans-Serif" font-size="10.00"> </text>
</g>
<!-- Node6&#45;&gt;Node5 -->
<g id="edge5" class="edge"><title>Node6&#45;&gt;Node5</title>
<path fill="none" stroke="#404040" d="M17.7467,-1301.79C13.5166,-1256 9.7771,-1162.49 39,-1091 42.5974,-1082.2 47.6628,-1073.68 53.365,-1065.74"/>
<polygon fill="none" stroke="#404040" points="53.5295,-1065.53 54.0321,-1058.34 60.8657,-1056.03 60.363,-1063.23 53.5295,-1065.53"/>
<text text-anchor="middle" x="67.5" y="-1105" font-family="Helvetica,sans-Serif" font-size="10.00"> +elements</text>
</g>
<!-- Node7 -->
<g id="node7" class="node"><title>Node7</title>
<g id="a_node7"><a xlink:title="STL class. ">
<polygon fill="white" stroke="#bfbfbf" points="115.5,-1302 115.5,-1359 210.5,-1359 210.5,-1302 115.5,-1302"/>
<text text-anchor="middle" x="163" y="-1347" font-family="Helvetica,sans-Serif" font-size="10.00">std::vector&lt; T &gt;</text>
<polyline fill="none" stroke="#bfbfbf" points="115.5,-1340 210.5,-1340 "/>
<text text-anchor="middle" x="163" y="-1328" font-family="Helvetica,sans-Serif" font-size="10.00"> </text>
<polyline fill="none" stroke="#bfbfbf" points="115.5,-1321 210.5,-1321 "/>
<text text-anchor="middle" x="163" y="-1309" font-family="Helvetica,sans-Serif" font-size="10.00"> </text>
</a>
</g>
</g>
<!-- Node7&#45;&gt;Node5 -->
<g id="edge6" class="edge"><title>Node7&#45;&gt;Node5</title>
<path fill="none" stroke="orange" d="M148.532,-1292.33C133.54,-1251.7 111.058,-1184.35 102,-1124 98.6519,-1101.69 98.2678,-1076.46 98.7831,-1056.15"/>
<polygon fill="orange" stroke="orange" points="145.297,-1293.67 152.076,-1301.81 151.854,-1291.22 145.297,-1293.67"/>
<text text-anchor="start" x="102" y="-1110.5" font-family="Helvetica,sans-Serif" font-size="10.00"> &lt; Core::Utils::Ra::</text>
<text text-anchor="middle" x="148.5" y="-1099.5" font-family="Helvetica,sans-Serif" font-size="10.00">Core::Utils::Index &gt;</text>
</g>
<!-- Node10 -->
<g id="node10" class="node"><title>Node10</title>
<polygon fill="white" stroke="#bfbfbf" points="262,-977 262,-1056 436,-1056 436,-977 262,-977"/>
<text text-anchor="start" x="270" y="-1044" font-family="Helvetica,sans-Serif" font-size="10.00">std::vector&lt; std::pair</text>
<text text-anchor="start" x="270" y="-1033" font-family="Helvetica,sans-Serif" font-size="10.00">&lt; const Ra::Engine::Entity</text>
<text text-anchor="middle" x="349" y="-1022" font-family="Helvetica,sans-Serif" font-size="10.00"> *, Ra::Engine::Component * &gt; &gt;</text>
<polyline fill="none" stroke="#bfbfbf" points="262,-1015 436,-1015 "/>
<text text-anchor="middle" x="349" y="-1003" font-family="Helvetica,sans-Serif" font-size="10.00"> </text>
<polyline fill="none" stroke="#bfbfbf" points="262,-996 436,-996 "/>
<text text-anchor="middle" x="349" y="-984" font-family="Helvetica,sans-Serif" font-size="10.00"> </text>
</g>
<!-- Node7&#45;&gt;Node10 -->
<g id="edge11" class="edge"><title>Node7&#45;&gt;Node10</title>
<path fill="none" stroke="orange" d="M167.197,-1291.78C174.385,-1232.84 190.577,-1122.36 214,-1091 226.375,-1074.43 243.63,-1061.16 261.676,-1050.7"/>
<polygon fill="orange" stroke="orange" points="163.709,-1291.47 166,-1301.82 170.66,-1292.3 163.709,-1291.47"/>
<text text-anchor="start" x="214" y="-1116" font-family="Helvetica,sans-Serif" font-size="10.00"> &lt; std::pair&lt; const</text>
<text text-anchor="start" x="214" y="-1105" font-family="Helvetica,sans-Serif" font-size="10.00"> Ra::Engine::Entity</text>
<text text-anchor="middle" x="293" y="-1094" font-family="Helvetica,sans-Serif" font-size="10.00"> *, Ra::Engine::Component * &gt; &gt;</text>
</g>
<!-- Node8 -->
<g id="node8" class="node"><title>Node8</title>
<polygon fill="white" stroke="#bfbfbf" points="148.5,-1566.5 148.5,-1623.5 177.5,-1623.5 177.5,-1566.5 148.5,-1566.5"/>
<text text-anchor="middle" x="163" y="-1611.5" font-family="Helvetica,sans-Serif" font-size="10.00">T</text>
<polyline fill="none" stroke="#bfbfbf" points="148.5,-1604.5 177.5,-1604.5 "/>
<text text-anchor="middle" x="163" y="-1592.5" font-family="Helvetica,sans-Serif" font-size="10.00"> </text>
<polyline fill="none" stroke="#bfbfbf" points="148.5,-1585.5 177.5,-1585.5 "/>
<text text-anchor="middle" x="163" y="-1573.5" font-family="Helvetica,sans-Serif" font-size="10.00"> </text>
</g>
<!-- Node8&#45;&gt;Node7 -->
<g id="edge7" class="edge"><title>Node8&#45;&gt;Node7</title>
<path fill="none" stroke="#404040" d="M163,-1566.4C163,-1519.73 163,-1425.04 163,-1371.23"/>
<polygon fill="none" stroke="#404040" points="163,-1371.12 159,-1365.12 163,-1359.12 167,-1365.12 163,-1371.12"/>
<text text-anchor="middle" x="191.5" y="-1540" font-family="Helvetica,sans-Serif" font-size="10.00"> +elements</text>
</g>
<!-- Node9 -->
<g id="node9" class="node"><title>Node9</title>
<g id="a_node9"><a xlink:href="classRa_1_1Engine_1_1System.html" target="_top" xlink:title="Systems are responsible of updating a specific subset of the components of each entity. ">
<polygon fill="white" stroke="black" points="271.5,-723.5 271.5,-857.5 428.5,-857.5 428.5,-723.5 271.5,-723.5"/>
<text text-anchor="middle" x="350" y="-845.5" font-family="Helvetica,sans-Serif" font-size="10.00">Ra::Engine::System</text>
<polyline fill="none" stroke="black" points="271.5,-838.5 428.5,-838.5 "/>
<text text-anchor="middle" x="350" y="-826.5" font-family="Helvetica,sans-Serif" font-size="10.00"> </text>
<polyline fill="none" stroke="black" points="271.5,-819.5 428.5,-819.5 "/>
<text text-anchor="start" x="279.5" y="-807.5" font-family="Helvetica,sans-Serif" font-size="10.00">+ System()</text>
<text text-anchor="start" x="279.5" y="-796.5" font-family="Helvetica,sans-Serif" font-size="10.00">+ ~System()</text>
<text text-anchor="start" x="279.5" y="-785.5" font-family="Helvetica,sans-Serif" font-size="10.00">+ handleAssetLoading()</text>
<text text-anchor="start" x="279.5" y="-774.5" font-family="Helvetica,sans-Serif" font-size="10.00">+ generateTasks()</text>
<text text-anchor="start" x="279.5" y="-763.5" font-family="Helvetica,sans-Serif" font-size="10.00">+ getEntityComponents()</text>
<text text-anchor="start" x="279.5" y="-752.5" font-family="Helvetica,sans-Serif" font-size="10.00"># registerComponent()</text>
<text text-anchor="start" x="279.5" y="-741.5" font-family="Helvetica,sans-Serif" font-size="10.00"># unregisterComponent()</text>
<text text-anchor="start" x="279.5" y="-730.5" font-family="Helvetica,sans-Serif" font-size="10.00"># unregisterAllComponents()</text>
</a>
</g>
</g>
<!-- Node9&#45;&gt;Node4 -->
<g id="edge8" class="edge"><title>Node9&#45;&gt;Node4</title>
<path fill="none" stroke="#404040" d="M369.67,-723.381C377.768,-696.161 387.415,-663.73 396.709,-632.49"/>
<polygon fill="none" stroke="#404040" points="396.828,-632.09 394.705,-625.199 400.25,-620.588 402.373,-627.48 396.828,-632.09"/>
<text text-anchor="middle" x="425" y="-642" font-family="Helvetica,sans-Serif" font-size="10.00"> #m_system</text>
</g>
<!-- Node10&#45;&gt;Node9 -->
<g id="edge9" class="edge"><title>Node10&#45;&gt;Node9</title>
<path fill="none" stroke="#404040" d="M349.172,-976.993C349.303,-947.549 349.489,-905.971 349.651,-869.64"/>
<polygon fill="none" stroke="#404040" points="349.651,-869.545 345.678,-863.527 349.705,-857.545 353.678,-863.563 349.651,-869.545"/>
<text text-anchor="middle" x="393.5" y="-934" font-family="Helvetica,sans-Serif" font-size="10.00"> #m_components</text>
</g>
<!-- Node11 -->
<g id="node11" class="node"><title>Node11</title>
<polygon fill="white" stroke="#bfbfbf" points="335.5,-1291 335.5,-1370 460.5,-1370 460.5,-1291 335.5,-1291"/>
<text text-anchor="start" x="343.5" y="-1358" font-family="Helvetica,sans-Serif" font-size="10.00">pair&lt; const Ra::Engine</text>
<text text-anchor="start" x="343.5" y="-1347" font-family="Helvetica,sans-Serif" font-size="10.00">::Entity *, Ra::Engine</text>
<text text-anchor="middle" x="398" y="-1336" font-family="Helvetica,sans-Serif" font-size="10.00">::Component * &gt;</text>
<polyline fill="none" stroke="#bfbfbf" points="335.5,-1329 460.5,-1329 "/>
<text text-anchor="middle" x="398" y="-1317" font-family="Helvetica,sans-Serif" font-size="10.00"> </text>
<polyline fill="none" stroke="#bfbfbf" points="335.5,-1310 460.5,-1310 "/>
<text text-anchor="middle" x="398" y="-1298" font-family="Helvetica,sans-Serif" font-size="10.00"> </text>
</g>
<!-- Node11&#45;&gt;Node10 -->
<g id="edge10" class="edge"><title>Node11&#45;&gt;Node10</title>
<path fill="none" stroke="#404040" d="M397.501,-1290.6C396.186,-1242.99 391.611,-1160.16 376,-1091 374.271,-1083.34 371.947,-1075.39 369.385,-1067.68"/>
<polygon fill="none" stroke="#404040" points="369.337,-1067.54 363.574,-1063.21 365.36,-1056.22 371.122,-1060.56 369.337,-1067.54"/>
<text text-anchor="middle" x="411.5" y="-1105" font-family="Helvetica,sans-Serif" font-size="10.00"> +elements</text>
</g>
<!-- Node12 -->
<g id="node12" class="node"><title>Node12</title>
<g id="a_node12"><a xlink:href="classRa_1_1Engine_1_1Entity.html" target="_top" xlink:title="An entity is an scene element. It ties together components with a transform. ">
<polygon fill="white" stroke="black" points="448,-668.5 448,-912.5 588,-912.5 588,-668.5 448,-668.5"/>
<text text-anchor="middle" x="518" y="-900.5" font-family="Helvetica,sans-Serif" font-size="10.00">Ra::Engine::Entity</text>
<polyline fill="none" stroke="black" points="448,-893.5 588,-893.5 "/>
<text text-anchor="middle" x="518" y="-881.5" font-family="Helvetica,sans-Serif" font-size="10.00"> </text>
<polyline fill="none" stroke="black" points="448,-874.5 588,-874.5 "/>
<text text-anchor="start" x="456" y="-862.5" font-family="Helvetica,sans-Serif" font-size="10.00">+ Entity()</text>
<text text-anchor="start" x="456" y="-851.5" font-family="Helvetica,sans-Serif" font-size="10.00">+ Entity()</text>
<text text-anchor="start" x="456" y="-840.5" font-family="Helvetica,sans-Serif" font-size="10.00">+ operator=()</text>
<text text-anchor="start" x="456" y="-829.5" font-family="Helvetica,sans-Serif" font-size="10.00">+ ~Entity()</text>
<text text-anchor="start" x="456" y="-818.5" font-family="Helvetica,sans-Serif" font-size="10.00">+ getName()</text>
<text text-anchor="start" x="456" y="-807.5" font-family="Helvetica,sans-Serif" font-size="10.00">+ rename()</text>
<text text-anchor="start" x="456" y="-796.5" font-family="Helvetica,sans-Serif" font-size="10.00">+ setTransform()</text>
<text text-anchor="start" x="456" y="-785.5" font-family="Helvetica,sans-Serif" font-size="10.00">+ setTransform()</text>
<text text-anchor="start" x="456" y="-774.5" font-family="Helvetica,sans-Serif" font-size="10.00">+ getTransform()</text>
<text text-anchor="start" x="456" y="-763.5" font-family="Helvetica,sans-Serif" font-size="10.00">+ getTransformAsMatrix()</text>
<text text-anchor="start" x="456" y="-752.5" font-family="Helvetica,sans-Serif" font-size="10.00">+ swapTransformBuffers()</text>
<text text-anchor="start" x="456" y="-741.5" font-family="Helvetica,sans-Serif" font-size="10.00">+ addComponent()</text>
<text text-anchor="start" x="456" y="-730.5" font-family="Helvetica,sans-Serif" font-size="10.00">+ removeComponent()</text>
<text text-anchor="start" x="456" y="-719.5" font-family="Helvetica,sans-Serif" font-size="10.00">+ getComponent()</text>
<text text-anchor="start" x="456" y="-708.5" font-family="Helvetica,sans-Serif" font-size="10.00">+ getComponent()</text>
<text text-anchor="start" x="456" y="-697.5" font-family="Helvetica,sans-Serif" font-size="10.00">+ getComponents()</text>
<text text-anchor="start" x="456" y="-686.5" font-family="Helvetica,sans-Serif" font-size="10.00">+ getNumComponents()</text>
<text text-anchor="start" x="456" y="-675.5" font-family="Helvetica,sans-Serif" font-size="10.00">+ computeAabb()</text>
</a>
</g>
</g>
<!-- Node12&#45;&gt;Node4 -->
<g id="edge12" class="edge"><title>Node12&#45;&gt;Node4</title>
<path fill="none" stroke="#404040" d="M481.089,-668.344C477.46,-656.432 473.775,-644.339 470.144,-632.419"/>
<polygon fill="none" stroke="#404040" points="470.031,-632.05 464.456,-627.476 466.534,-620.571 472.109,-625.145 470.031,-632.05"/>
<text text-anchor="middle" x="503" y="-642" font-family="Helvetica,sans-Serif" font-size="10.00"> #m_entity</text>
</g>
<!-- Node13 -->
<g id="node13" class="node"><title>Node13</title>
<g id="a_node13"><a xlink:href="classRa_1_1Core_1_1Utils_1_1IndexedObject.html" target="_top" xlink:title="{Ra::Core::Utils::Indexed\lObject\n||+ IndexedObject()\l+ IndexedObject()\l+ ~IndexedObject()\l+ setIndex()\l+ getIndex()\l}">
<polygon fill="white" stroke="black" points="454,-960.5 454,-1072.5 582,-1072.5 582,-960.5 454,-960.5"/>
<text text-anchor="start" x="462" y="-1060.5" font-family="Helvetica,sans-Serif" font-size="10.00">Ra::Core::Utils::Indexed</text>
<text text-anchor="middle" x="518" y="-1049.5" font-family="Helvetica,sans-Serif" font-size="10.00">Object</text>
<polyline fill="none" stroke="black" points="454,-1042.5 582,-1042.5 "/>
<text text-anchor="middle" x="518" y="-1030.5" font-family="Helvetica,sans-Serif" font-size="10.00"> </text>
<polyline fill="none" stroke="black" points="454,-1023.5 582,-1023.5 "/>
<text text-anchor="start" x="462" y="-1011.5" font-family="Helvetica,sans-Serif" font-size="10.00">+ IndexedObject()</text>
<text text-anchor="start" x="462" y="-1000.5" font-family="Helvetica,sans-Serif" font-size="10.00">+ IndexedObject()</text>
<text text-anchor="start" x="462" y="-989.5" font-family="Helvetica,sans-Serif" font-size="10.00">+ ~IndexedObject()</text>
<text text-anchor="start" x="462" y="-978.5" font-family="Helvetica,sans-Serif" font-size="10.00">+ setIndex()</text>
<text text-anchor="start" x="462" y="-967.5" font-family="Helvetica,sans-Serif" font-size="10.00">+ getIndex()</text>
</a>
</g>
</g>
<!-- Node13&#45;&gt;Node12 -->
<g id="edge13" class="edge"><title>Node13&#45;&gt;Node12</title>
<path fill="none" stroke="midnightblue" d="M518,-950.213C518,-938.331 518,-925.595 518,-912.696"/>
<polygon fill="none" stroke="midnightblue" points="514.5,-950.417 518,-960.417 521.5,-950.417 514.5,-950.417"/>
</g>
<!-- Node14 -->
<g id="node14" class="node"><title>Node14</title>
<g id="a_node14"><a xlink:href="classRa_1_1Core_1_1Utils_1_1Index.html" target="_top" xlink:title="{Ra::Core::Utils::Index\n||+ Index()\l+ Index()\l+ operator=()\l+ isValid()\l+ isInvalid()\l+ setInvalid()\l+ getValue()\l+ setValue()\l+ operator int()\l+ operator=()\l+ operator++()\l+ operator&#45;&#45;()\l+ operator+()\l+ operator+()\l+ operator&#45;()\l+ operator&#45;()\l+ operator==()\l+ operator==()\l+ operator!=()\l+ operator!=()\l+ operator\&lt;()\l+ operator\&lt;()\l+ operator\&lt;=()\l+ operator\&lt;=()\l+ operator\&gt;()\l+ operator\&gt;()\l+ operator\&gt;=()\l+ operator\&gt;=()\l+ Invalid()\l+ Max()\l}">
<polygon fill="white" stroke="black" points="479,-1142.5 479,-1518.5 595,-1518.5 595,-1142.5 479,-1142.5"/>
<text text-anchor="middle" x="537" y="-1506.5" font-family="Helvetica,sans-Serif" font-size="10.00">Ra::Core::Utils::Index</text>
<polyline fill="none" stroke="black" points="479,-1499.5 595,-1499.5 "/>
<text text-anchor="middle" x="537" y="-1487.5" font-family="Helvetica,sans-Serif" font-size="10.00"> </text>
<polyline fill="none" stroke="black" points="479,-1480.5 595,-1480.5 "/>
<text text-anchor="start" x="487" y="-1468.5" font-family="Helvetica,sans-Serif" font-size="10.00">+ Index()</text>
<text text-anchor="start" x="487" y="-1457.5" font-family="Helvetica,sans-Serif" font-size="10.00">+ Index()</text>
<text text-anchor="start" x="487" y="-1446.5" font-family="Helvetica,sans-Serif" font-size="10.00">+ operator=()</text>
<text text-anchor="start" x="487" y="-1435.5" font-family="Helvetica,sans-Serif" font-size="10.00">+ isValid()</text>
<text text-anchor="start" x="487" y="-1424.5" font-family="Helvetica,sans-Serif" font-size="10.00">+ isInvalid()</text>
<text text-anchor="start" x="487" y="-1413.5" font-family="Helvetica,sans-Serif" font-size="10.00">+ setInvalid()</text>
<text text-anchor="start" x="487" y="-1402.5" font-family="Helvetica,sans-Serif" font-size="10.00">+ getValue()</text>
<text text-anchor="start" x="487" y="-1391.5" font-family="Helvetica,sans-Serif" font-size="10.00">+ setValue()</text>
<text text-anchor="start" x="487" y="-1380.5" font-family="Helvetica,sans-Serif" font-size="10.00">+ operator int()</text>
<text text-anchor="start" x="487" y="-1369.5" font-family="Helvetica,sans-Serif" font-size="10.00">+ operator=()</text>
<text text-anchor="start" x="487" y="-1358.5" font-family="Helvetica,sans-Serif" font-size="10.00">+ operator++()</text>
<text text-anchor="start" x="487" y="-1347.5" font-family="Helvetica,sans-Serif" font-size="10.00">+ operator&#45;&#45;()</text>
<text text-anchor="start" x="487" y="-1336.5" font-family="Helvetica,sans-Serif" font-size="10.00">+ operator+()</text>
<text text-anchor="start" x="487" y="-1325.5" font-family="Helvetica,sans-Serif" font-size="10.00">+ operator+()</text>
<text text-anchor="start" x="487" y="-1314.5" font-family="Helvetica,sans-Serif" font-size="10.00">+ operator&#45;()</text>
<text text-anchor="start" x="487" y="-1303.5" font-family="Helvetica,sans-Serif" font-size="10.00">+ operator&#45;()</text>
<text text-anchor="start" x="487" y="-1292.5" font-family="Helvetica,sans-Serif" font-size="10.00">+ operator==()</text>
<text text-anchor="start" x="487" y="-1281.5" font-family="Helvetica,sans-Serif" font-size="10.00">+ operator==()</text>
<text text-anchor="start" x="487" y="-1270.5" font-family="Helvetica,sans-Serif" font-size="10.00">+ operator!=()</text>
<text text-anchor="start" x="487" y="-1259.5" font-family="Helvetica,sans-Serif" font-size="10.00">+ operator!=()</text>
<text text-anchor="start" x="487" y="-1248.5" font-family="Helvetica,sans-Serif" font-size="10.00">+ operator&lt;()</text>
<text text-anchor="start" x="487" y="-1237.5" font-family="Helvetica,sans-Serif" font-size="10.00">+ operator&lt;()</text>
<text text-anchor="start" x="487" y="-1226.5" font-family="Helvetica,sans-Serif" font-size="10.00">+ operator&lt;=()</text>
<text text-anchor="start" x="487" y="-1215.5" font-family="Helvetica,sans-Serif" font-size="10.00">+ operator&lt;=()</text>
<text text-anchor="start" x="487" y="-1204.5" font-family="Helvetica,sans-Serif" font-size="10.00">+ operator&gt;()</text>
<text text-anchor="start" x="487" y="-1193.5" font-family="Helvetica,sans-Serif" font-size="10.00">+ operator&gt;()</text>
<text text-anchor="start" x="487" y="-1182.5" font-family="Helvetica,sans-Serif" font-size="10.00">+ operator&gt;=()</text>
<text text-anchor="start" x="487" y="-1171.5" font-family="Helvetica,sans-Serif" font-size="10.00">+ operator&gt;=()</text>
<text text-anchor="start" x="487" y="-1160.5" font-family="Helvetica,sans-Serif" font-size="10.00">+ Invalid()</text>
<text text-anchor="start" x="487" y="-1149.5" font-family="Helvetica,sans-Serif" font-size="10.00">+ Max()</text>
</a>
</g>
</g>
<!-- Node14&#45;&gt;Node13 -->
<g id="edge14" class="edge"><title>Node14&#45;&gt;Node13</title>
<path fill="none" stroke="#404040" d="M525.591,-1142.16C524.349,-1121.75 523.151,-1102.09 522.089,-1084.65"/>
<polygon fill="none" stroke="#404040" points="522.089,-1084.64 517.731,-1078.89 521.359,-1072.66 525.717,-1078.41 522.089,-1084.64"/>
<text text-anchor="middle" x="545" y="-1105" font-family="Helvetica,sans-Serif" font-size="10.00"> #m_idx</text>
</g>
<!-- Node15 -->
<g id="node15" class="node"><title>Node15</title>
<g id="a_node15"><a xlink:href="classint.html" target="_top" xlink:title="{int\n||}">
<polygon fill="white" stroke="black" points="522.5,-1566.5 522.5,-1623.5 551.5,-1623.5 551.5,-1566.5 522.5,-1566.5"/>
<text text-anchor="middle" x="537" y="-1611.5" font-family="Helvetica,sans-Serif" font-size="10.00">int</text>
<polyline fill="none" stroke="black" points="522.5,-1604.5 551.5,-1604.5 "/>
<text text-anchor="middle" x="537" y="-1592.5" font-family="Helvetica,sans-Serif" font-size="10.00"> </text>
<polyline fill="none" stroke="black" points="522.5,-1585.5 551.5,-1585.5 "/>
<text text-anchor="middle" x="537" y="-1573.5" font-family="Helvetica,sans-Serif" font-size="10.00"> </text>
</a>
</g>
</g>
<!-- Node15&#45;&gt;Node14 -->
<g id="edge15" class="edge"><title>Node15&#45;&gt;Node14</title>
<path fill="none" stroke="#404040" d="M537,-1566.4C537,-1556.43 537,-1544.26 537,-1530.76"/>
<polygon fill="none" stroke="#404040" points="537,-1530.58 533,-1524.58 537,-1518.58 541,-1524.58 537,-1530.58"/>
<text text-anchor="middle" x="557" y="-1540" font-family="Helvetica,sans-Serif" font-size="10.00"> #m_idx</text>
</g>
<!-- Node16 -->
<g id="node16" class="node"><title>Node16</title>
<g id="a_node16"><a xlink:title="STL class. ">
<polygon fill="white" stroke="#bfbfbf" points="613.5,-762 613.5,-819 678.5,-819 678.5,-762 613.5,-762"/>
<text text-anchor="middle" x="646" y="-807" font-family="Helvetica,sans-Serif" font-size="10.00">std::string</text>
<polyline fill="none" stroke="#bfbfbf" points="613.5,-800 678.5,-800 "/>
<text text-anchor="middle" x="646" y="-788" font-family="Helvetica,sans-Serif" font-size="10.00"> </text>
<polyline fill="none" stroke="#bfbfbf" points="613.5,-781 678.5,-781 "/>
<text text-anchor="middle" x="646" y="-769" font-family="Helvetica,sans-Serif" font-size="10.00"> </text>
</a>
</g>
</g>
<!-- Node16&#45;&gt;Node4 -->
<g id="edge16" class="edge"><title>Node16&#45;&gt;Node4</title>
<path fill="none" stroke="#404040" d="M640.063,-761.859C633.266,-735.429 619.989,-695.621 597,-668 572.075,-638.054 552.122,-646.883 523,-621 522.902,-620.913 522.804,-620.825 522.705,-620.738"/>
<polygon fill="none" stroke="#404040" points="522.423,-620.475 515.306,-619.313 513.641,-612.297 520.758,-613.459 522.423,-620.475"/>
<text text-anchor="middle" x="603.5" y="-642" font-family="Helvetica,sans-Serif" font-size="10.00"> #m_name</text>
</g>
<!-- Node17 -->
<g id="node17" class="node"><title>Node17</title>
<g id="a_node17"><a xlink:title="STL class. ">
<polygon fill="white" stroke="#bfbfbf" points="600.5,-982.5 600.5,-1050.5 703.5,-1050.5 703.5,-982.5 600.5,-982.5"/>
<text text-anchor="start" x="608.5" y="-1038.5" font-family="Helvetica,sans-Serif" font-size="10.00">std::basic_string&lt;</text>
<text text-anchor="middle" x="652" y="-1027.5" font-family="Helvetica,sans-Serif" font-size="10.00"> char &gt;</text>
<polyline fill="none" stroke="#bfbfbf" points="600.5,-1020.5 703.5,-1020.5 "/>
<text text-anchor="middle" x="652" y="-1008.5" font-family="Helvetica,sans-Serif" font-size="10.00"> </text>
<polyline fill="none" stroke="#bfbfbf" points="600.5,-1001.5 703.5,-1001.5 "/>
<text text-anchor="middle" x="652" y="-989.5" font-family="Helvetica,sans-Serif" font-size="10.00"> </text>
</a>
</g>
</g>
<!-- Node17&#45;&gt;Node16 -->
<g id="edge17" class="edge"><title>Node17&#45;&gt;Node16</title>
<path fill="none" stroke="midnightblue" d="M650.844,-972.346C649.632,-927.093 647.764,-857.343 646.738,-819.037"/>
<polygon fill="none" stroke="midnightblue" points="647.348,-972.545 651.115,-982.448 654.346,-972.358 647.348,-972.545"/>
</g>
<!-- Node18 -->
<g id="node18" class="node"><title>Node18</title>
<polygon fill="white" stroke="#bfbfbf" points="532,-475.5 532,-543.5 640,-543.5 640,-475.5 532,-475.5"/>
<text text-anchor="start" x="540" y="-531.5" font-family="Helvetica,sans-Serif" font-size="10.00">Transform&lt; Scalar,</text>
<text text-anchor="middle" x="586" y="-520.5" font-family="Helvetica,sans-Serif" font-size="10.00"> 3, Eigen::Affine &gt;</text>
<polyline fill="none" stroke="#bfbfbf" points="532,-513.5 640,-513.5 "/>
<text text-anchor="middle" x="586" y="-501.5" font-family="Helvetica,sans-Serif" font-size="10.00"> </text>
<polyline fill="none" stroke="#bfbfbf" points="532,-494.5 640,-494.5 "/>
<text text-anchor="middle" x="586" y="-482.5" font-family="Helvetica,sans-Serif" font-size="10.00"> </text>
</g>
<!-- Node18&#45;&gt;Node2 -->
<g id="edge18" class="edge"><title>Node18&#45;&gt;Node2</title>
<path fill="none" stroke="#404040" d="M566.717,-475.111C554.035,-453.178 537.061,-423.863 522,-398 512.974,-382.501 503.412,-366.125 494.034,-350.088"/>
<polygon fill="none" stroke="#404040" points="493.964,-349.969 487.482,-346.809 487.905,-339.611 494.387,-342.77 493.964,-349.969"/>
<text text-anchor="middle" x="545.5" y="-372" font-family="Helvetica,sans-Serif" font-size="10.00"> #m_worldTo</text>
<text text-anchor="middle" x="545.5" y="-361" font-family="Helvetica,sans-Serif" font-size="10.00">#m_transform</text>
</g>
</g>
</svg>
