<?xml version="1.0" encoding="UTF-8" standalone="no"?>
<!DOCTYPE svg PUBLIC "-//W3C//DTD SVG 1.1//EN"
 "http://www.w3.org/Graphics/SVG/1.1/DTD/svg11.dtd">
<!-- Generated by graphviz version 2.38.0 (20140413.2041)
 -->
<!-- Title: Ra::Gui::GizmoManager::handleMouseMoveEvent Pages: 1 -->
<svg width="1406pt" height="498pt"
 viewBox="0.00 0.00 1406.00 498.00" xmlns="http://www.w3.org/2000/svg" xmlns:xlink="http://www.w3.org/1999/xlink">
<g id="graph0" class="graph" transform="scale(1 1) rotate(0) translate(4 494)">
<title>Ra::Gui::GizmoManager::handleMouseMoveEvent</title>
<polygon fill="white" stroke="none" points="-4,4 -4,-494 1402,-494 1402,4 -4,4"/>
<!-- Node1 -->
<g id="node1" class="node"><title>Node1</title>
<polygon fill="#bfbfbf" stroke="black" points="0,-205.5 0,-235.5 139,-235.5 139,-205.5 0,-205.5"/>
<text text-anchor="start" x="8" y="-223.5" font-family="Helvetica,sans-Serif" font-size="10.00">Ra::Gui::GizmoManager</text>
<text text-anchor="middle" x="69.5" y="-212.5" font-family="Helvetica,sans-Serif" font-size="10.00">::handleMouseMoveEvent</text>
</g>
<!-- Node2 -->
<g id="node2" class="node"><title>Node2</title>
<g id="a_node2"><a xlink:href="classRa_1_1GuiBase_1_1TransformEditor.html#ad21b8c46ad2d5c62e309eb16b104ee2f" target="_top" xlink:title="Ra::GuiBase::TransformEditor\l::canEdit">
<polygon fill="white" stroke="black" points="573,-312.5 573,-342.5 728,-342.5 728,-312.5 573,-312.5"/>
<text text-anchor="start" x="581" y="-330.5" font-family="Helvetica,sans-Serif" font-size="10.00">Ra::GuiBase::TransformEditor</text>
<text text-anchor="middle" x="650.5" y="-319.5" font-family="Helvetica,sans-Serif" font-size="10.00">::canEdit</text>
</a>
</g>
</g>
<!-- Node1&#45;&gt;Node2 -->
<g id="edge1" class="edge"><title>Node1&#45;&gt;Node2</title>
<path fill="none" stroke="midnightblue" d="M130.011,-235.563C144.671,-239.045 160.365,-242.581 175,-245.5 334.794,-277.368 376.825,-273.603 537,-303.5 548.236,-305.597 560.071,-307.956 571.676,-310.355"/>
<polygon fill="midnightblue" stroke="midnightblue" points="571.29,-313.85 581.794,-312.468 572.721,-306.998 571.29,-313.85"/>
</g>
<!-- Node18 -->
<g id="node18" class="node"><title>Node18</title>
<g id="a_node18"><a xlink:href="classRa_1_1Gui_1_1CameraManipulator.html#a7ded184bdfa9e586bf7357a40852dace" target="_top" xlink:title="Static method to get the Camera from the given viewer. ">
<polygon fill="white" stroke="black" points="175.5,-156.5 175.5,-186.5 326.5,-186.5 326.5,-156.5 175.5,-156.5"/>
<text text-anchor="start" x="183.5" y="-174.5" font-family="Helvetica,sans-Serif" font-size="10.00">Ra::Gui::CameraManipulator</text>
<text text-anchor="middle" x="251" y="-163.5" font-family="Helvetica,sans-Serif" font-size="10.00">::getCameraFromViewer</text>
</a>
</g>
</g>
<!-- Node1&#45;&gt;Node18 -->
<g id="edge23" class="edge"><title>Node1&#45;&gt;Node18</title>
<path fill="none" stroke="midnightblue" d="M125.821,-205.399C144.591,-200.275 165.729,-194.504 185.172,-189.197"/>
<polygon fill="midnightblue" stroke="midnightblue" points="186.137,-192.562 194.862,-186.552 184.293,-185.809 186.137,-192.562"/>
</g>
<!-- Node19 -->
<g id="node19" class="node"><title>Node19</title>
<g id="a_node19"><a xlink:href="classRa_1_1Gui_1_1Gizmo.html#ae17f5ca99626c9777b91c9f50f062872" target="_top" xlink:title="Called when the mouse movement is recorder with the camera parameters and the current pixel coordinat...">
<polygon fill="white" stroke="black" points="175,-118 175,-137 327,-137 327,-118 175,-118"/>
<text text-anchor="middle" x="251" y="-125" font-family="Helvetica,sans-Serif" font-size="10.00">Ra::Gui::Gizmo::mouseMove</text>
</a>
</g>
</g>
<!-- Node1&#45;&gt;Node19 -->
<g id="edge24" class="edge"><title>Node1&#45;&gt;Node19</title>
<path fill="none" stroke="midnightblue" d="M88.1738,-205.221C108.048,-188.77 141.888,-162.894 175,-147.5 181.076,-144.675 187.62,-142.194 194.222,-140.028"/>
<polygon fill="midnightblue" stroke="midnightblue" points="195.346,-143.345 203.889,-137.078 193.303,-136.649 195.346,-143.345"/>
</g>
<!-- Node20 -->
<g id="node20" class="node"><title>Node20</title>
<g id="a_node20"><a xlink:href="classRa_1_1GuiBase_1_1TransformEditor.html#a28fe7af7f62396a35765ce909f76485b" target="_top" xlink:title="Helper to set the transform to the editable. ">
<polygon fill="white" stroke="black" points="372.5,-312.5 372.5,-342.5 527.5,-342.5 527.5,-312.5 372.5,-312.5"/>
<text text-anchor="start" x="380.5" y="-330.5" font-family="Helvetica,sans-Serif" font-size="10.00">Ra::GuiBase::TransformEditor</text>
<text text-anchor="middle" x="450" y="-319.5" font-family="Helvetica,sans-Serif" font-size="10.00">::setTransform</text>
</a>
</g>
</g>
<!-- Node1&#45;&gt;Node20 -->
<g id="edge25" class="edge"><title>Node1&#45;&gt;Node20</title>
<path fill="none" stroke="midnightblue" d="M85.5382,-235.696C104.534,-253.842 139.101,-283.492 175,-297.5 234.699,-320.795 306.918,-327.928 362.222,-329.433"/>
<polygon fill="midnightblue" stroke="midnightblue" points="362.271,-332.935 372.344,-329.651 362.422,-325.937 362.271,-332.935"/>
</g>
<!-- Node23 -->
<g id="node23" class="node"><title>Node23</title>
<g id="a_node23"><a xlink:href="classRa_1_1Gui_1_1GizmoManager.html#a2733d1f2a992c50e41b93790b5323fe1" target="_top" xlink:title="Retrieve the transform from the editable and update the gizmos. ">
<polygon fill="white" stroke="black" points="186.5,-205.5 186.5,-235.5 315.5,-235.5 315.5,-205.5 186.5,-205.5"/>
<text text-anchor="start" x="194.5" y="-223.5" font-family="Helvetica,sans-Serif" font-size="10.00">Ra::Gui::GizmoManager</text>
<text text-anchor="middle" x="251" y="-212.5" font-family="Helvetica,sans-Serif" font-size="10.00">::updateValues</text>
</a>
</g>
</g>
<!-- Node1&#45;&gt;Node23 -->
<g id="edge30" class="edge"><title>Node1&#45;&gt;Node23</title>
<path fill="none" stroke="midnightblue" d="M139.13,-220.5C151.269,-220.5 163.955,-220.5 176.229,-220.5"/>
<polygon fill="midnightblue" stroke="midnightblue" points="176.421,-224 186.421,-220.5 176.421,-217 176.421,-224"/>
</g>
<!-- Node3 -->
<g id="node3" class="node"><title>Node3</title>
<g id="a_node3"><a xlink:href="structRa_1_1Engine_1_1ItemEntry.html#aceafc81a73631955b64999dd39a639da" target="_top" xlink:title="Returns true if the item represents any valid object. ">
<polygon fill="white" stroke="black" points="769,-224.5 769,-254.5 888,-254.5 888,-224.5 769,-224.5"/>
<text text-anchor="start" x="777" y="-242.5" font-family="Helvetica,sans-Serif" font-size="10.00">Ra::Engine::ItemEntry</text>
<text text-anchor="middle" x="828.5" y="-231.5" font-family="Helvetica,sans-Serif" font-size="10.00">::isValid</text>
</a>
</g>
</g>
<!-- Node2&#45;&gt;Node3 -->
<g id="edge2" class="edge"><title>Node2&#45;&gt;Node3</title>
<path fill="none" stroke="midnightblue" d="M681.755,-312.372C711.186,-297.657 756.043,-275.229 788.216,-259.142"/>
<polygon fill="midnightblue" stroke="midnightblue" points="789.966,-262.18 797.345,-254.577 786.836,-255.919 789.966,-262.18"/>
</g>
<!-- Node13 -->
<g id="node13" class="node"><title>Node13</title>
<g id="a_node13"><a xlink:href="structRa_1_1Engine_1_1ItemEntry.html#a09e294208d0896596a42a7a6c7e78f75" target="_top" xlink:title="Returns true if the item can be selected. ">
<polygon fill="white" stroke="black" points="769,-361.5 769,-391.5 888,-391.5 888,-361.5 769,-361.5"/>
<text text-anchor="start" x="777" y="-379.5" font-family="Helvetica,sans-Serif" font-size="10.00">Ra::Engine::ItemEntry</text>
<text text-anchor="middle" x="828.5" y="-368.5" font-family="Helvetica,sans-Serif" font-size="10.00">::isSelectable</text>
</a>
</g>
</g>
<!-- Node2&#45;&gt;Node13 -->
<g id="edge14" class="edge"><title>Node2&#45;&gt;Node13</title>
<path fill="none" stroke="midnightblue" d="M705.742,-342.601C724.062,-347.702 744.683,-353.443 763.675,-358.73"/>
<polygon fill="midnightblue" stroke="midnightblue" points="762.865,-362.138 773.437,-361.448 764.742,-355.395 762.865,-362.138"/>
</g>
<!-- Node16 -->
<g id="node16" class="node"><title>Node16</title>
<g id="a_node16"><a xlink:href="structRa_1_1Engine_1_1ItemEntry.html#a4823dfa3c113db71733979f1719f3b28" target="_top" xlink:title="Returns true if the item represents an entity. ">
<polygon fill="white" stroke="black" points="769,-148.5 769,-178.5 888,-178.5 888,-148.5 769,-148.5"/>
<text text-anchor="start" x="777" y="-166.5" font-family="Helvetica,sans-Serif" font-size="10.00">Ra::Engine::ItemEntry</text>
<text text-anchor="middle" x="828.5" y="-155.5" font-family="Helvetica,sans-Serif" font-size="10.00">::isEntityNode</text>
</a>
</g>
</g>
<!-- Node2&#45;&gt;Node16 -->
<g id="edge20" class="edge"><title>Node2&#45;&gt;Node16</title>
<path fill="none" stroke="midnightblue" d="M670.174,-312.335C686.142,-299.037 709.419,-278.857 728,-259.5 745.497,-241.272 746.137,-233.37 764,-215.5 774.781,-204.714 787.646,-193.859 798.968,-184.876"/>
<polygon fill="midnightblue" stroke="midnightblue" points="801.158,-187.607 806.888,-178.695 796.851,-182.089 801.158,-187.607"/>
</g>
<!-- Node17 -->
<g id="node17" class="node"><title>Node17</title>
<g id="a_node17"><a xlink:href="classRa_1_1Engine_1_1Component.html#a2c33ddf042a2c56f81f39477d9b616d0" target="_top" xlink:title="Returns true if a transform can be edited with the render object index given as a key...">
<polygon fill="white" stroke="black" points="764,-312.5 764,-342.5 893,-342.5 893,-312.5 764,-312.5"/>
<text text-anchor="start" x="772" y="-330.5" font-family="Helvetica,sans-Serif" font-size="10.00">Ra::Engine::Component</text>
<text text-anchor="middle" x="828.5" y="-319.5" font-family="Helvetica,sans-Serif" font-size="10.00">::canEdit</text>
</a>
</g>
</g>
<!-- Node2&#45;&gt;Node17 -->
<g id="edge22" class="edge"><title>Node2&#45;&gt;Node17</title>
<path fill="none" stroke="midnightblue" d="M728.184,-327.5C736.68,-327.5 745.318,-327.5 753.776,-327.5"/>
<polygon fill="midnightblue" stroke="midnightblue" points="753.981,-331 763.981,-327.5 753.981,-324 753.981,-331"/>
</g>
<!-- Node4 -->
<g id="node4" class="node"><title>Node4</title>
<g id="a_node4"><a xlink:href="structRa_1_1Engine_1_1ItemEntry.html#a1fb9fdd74413a1fa5878f53c1cfcf8fd" target="_top" xlink:title="Debug checks. ">
<polygon fill="white" stroke="black" points="1118,-44.5 1118,-74.5 1237,-74.5 1237,-44.5 1118,-44.5"/>
<text text-anchor="start" x="1126" y="-62.5" font-family="Helvetica,sans-Serif" font-size="10.00">Ra::Engine::ItemEntry</text>
<text text-anchor="middle" x="1177.5" y="-51.5" font-family="Helvetica,sans-Serif" font-size="10.00">::checkConsistency</text>
</a>
</g>
</g>
<!-- Node3&#45;&gt;Node4 -->
<g id="edge3" class="edge"><title>Node3&#45;&gt;Node4</title>
<path fill="none" stroke="midnightblue" d="M853.032,-224.347C866.008,-215.136 881.724,-202.476 893,-188.5 915.466,-160.656 900.885,-138.626 929,-116.5 932.599,-113.668 1035.82,-90.4927 1107.81,-74.5797"/>
<polygon fill="midnightblue" stroke="midnightblue" points="1108.74,-77.9594 1117.75,-72.3853 1107.23,-71.1241 1108.74,-77.9594"/>
</g>
<!-- Node6 -->
<g id="node6" class="node"><title>Node6</title>
<g id="a_node6"><a xlink:href="classRa_1_1Engine_1_1RadiumEngine.html#a79f6626ce468268791bc5bdfe17b5586" target="_top" xlink:title="Get the entity manager attached to the engine. ">
<polygon fill="white" stroke="black" points="930.5,-175.5 930.5,-205.5 1071.5,-205.5 1071.5,-175.5 930.5,-175.5"/>
<text text-anchor="start" x="938.5" y="-193.5" font-family="Helvetica,sans-Serif" font-size="10.00">Ra::Engine::RadiumEngine</text>
<text text-anchor="middle" x="1001" y="-182.5" font-family="Helvetica,sans-Serif" font-size="10.00">::getEntityManager</text>
</a>
</g>
</g>
<!-- Node3&#45;&gt;Node6 -->
<g id="edge5" class="edge"><title>Node3&#45;&gt;Node6</title>
<path fill="none" stroke="midnightblue" d="M882.047,-224.399C899.713,-219.321 919.587,-213.61 937.916,-208.342"/>
<polygon fill="midnightblue" stroke="midnightblue" points="938.982,-211.678 947.627,-205.552 937.049,-204.95 938.982,-211.678"/>
</g>
<!-- Node7 -->
<g id="node7" class="node"><title>Node7</title>
<g id="a_node7"><a xlink:href="classRa_1_1Engine_1_1EntityManager.html#a5115cccae6aaef614ad4bd08e64d8185" target="_top" xlink:title="Check wether an entity with a given name exists or not. ">
<polygon fill="white" stroke="black" points="930,-126.5 930,-156.5 1072,-156.5 1072,-126.5 930,-126.5"/>
<text text-anchor="start" x="938" y="-144.5" font-family="Helvetica,sans-Serif" font-size="10.00">Ra::Engine::EntityManager</text>
<text text-anchor="middle" x="1001" y="-133.5" font-family="Helvetica,sans-Serif" font-size="10.00">::entityExists</text>
</a>
</g>
</g>
<!-- Node3&#45;&gt;Node7 -->
<g id="edge6" class="edge"><title>Node3&#45;&gt;Node7</title>
<path fill="none" stroke="midnightblue" d="M846.776,-224.348C865.832,-208.25 897.928,-182.905 929,-166.5 933.009,-164.384 937.235,-162.382 941.545,-160.502"/>
<polygon fill="midnightblue" stroke="midnightblue" points="943.149,-163.627 951.066,-156.586 940.486,-157.153 943.149,-163.627"/>
</g>
<!-- Node8 -->
<g id="node8" class="node"><title>Node8</title>
<g id="a_node8"><a xlink:href="classRa_1_1Engine_1_1Entity.html#aaf256bea44bbc5bff6aa504aca05ca35" target="_top" xlink:title="Ra::Engine::Entity\l::getName">
<polygon fill="white" stroke="black" points="951,-224.5 951,-254.5 1051,-254.5 1051,-224.5 951,-224.5"/>
<text text-anchor="start" x="959" y="-242.5" font-family="Helvetica,sans-Serif" font-size="10.00">Ra::Engine::Entity</text>
<text text-anchor="middle" x="1001" y="-231.5" font-family="Helvetica,sans-Serif" font-size="10.00">::getName</text>
</a>
</g>
</g>
<!-- Node3&#45;&gt;Node8 -->
<g id="edge7" class="edge"><title>Node3&#45;&gt;Node8</title>
<path fill="none" stroke="midnightblue" d="M888.176,-239.5C905.088,-239.5 923.55,-239.5 940.51,-239.5"/>
<polygon fill="midnightblue" stroke="midnightblue" points="940.849,-243 950.849,-239.5 940.849,-236 940.849,-243"/>
</g>
<!-- Node9 -->
<g id="node9" class="node"><title>Node9</title>
<g id="a_node9"><a xlink:href="structRa_1_1Engine_1_1ItemEntry.html#a898047549069e5b64d3a9a65c058af56" target="_top" xlink:title="Returns true if the item represents a render object. ">
<polygon fill="white" stroke="black" points="941.5,-273.5 941.5,-303.5 1060.5,-303.5 1060.5,-273.5 941.5,-273.5"/>
<text text-anchor="start" x="949.5" y="-291.5" font-family="Helvetica,sans-Serif" font-size="10.00">Ra::Engine::ItemEntry</text>
<text text-anchor="middle" x="1001" y="-280.5" font-family="Helvetica,sans-Serif" font-size="10.00">::isRoNode</text>
</a>
</g>
</g>
<!-- Node3&#45;&gt;Node9 -->
<g id="edge8" class="edge"><title>Node3&#45;&gt;Node9</title>
<path fill="none" stroke="midnightblue" d="M882.047,-254.601C899.713,-259.679 919.587,-265.39 937.916,-270.658"/>
<polygon fill="midnightblue" stroke="midnightblue" points="937.049,-274.05 947.627,-273.448 938.982,-267.322 937.049,-274.05"/>
</g>
<!-- Node11 -->
<g id="node11" class="node"><title>Node11</title>
<g id="a_node11"><a xlink:href="classRa_1_1Engine_1_1RadiumEngine.html#a58b27bc600ea769f68b0e2938abc7862" target="_top" xlink:title="Manager getters. ">
<polygon fill="white" stroke="black" points="929,-361.5 929,-391.5 1073,-391.5 1073,-361.5 929,-361.5"/>
<text text-anchor="start" x="937" y="-379.5" font-family="Helvetica,sans-Serif" font-size="10.00">Ra::Engine::RadiumEngine</text>
<text text-anchor="middle" x="1001" y="-368.5" font-family="Helvetica,sans-Serif" font-size="10.00">::getRenderObjectManager</text>
</a>
</g>
</g>
<!-- Node3&#45;&gt;Node11 -->
<g id="edge11" class="edge"><title>Node3&#45;&gt;Node11</title>
<path fill="none" stroke="midnightblue" d="M845.272,-254.663C858.354,-267.413 877.287,-286.266 893,-303.5 909.793,-321.919 908.96,-331.68 929,-346.5 934.349,-350.456 940.299,-354.007 946.414,-357.161"/>
<polygon fill="midnightblue" stroke="midnightblue" points="944.911,-360.322 955.44,-361.499 947.943,-354.013 944.911,-360.322"/>
</g>
<!-- Node12 -->
<g id="node12" class="node"><title>Node12</title>
<g id="a_node12"><a xlink:href="classRa_1_1Engine_1_1RenderObjectManager.html#a088feae4339349a81b7b6635b38aead1" target="_top" xlink:title="Returns true if the index points to a valid render object. ">
<polygon fill="white" stroke="black" points="1109,-317.5 1109,-347.5 1246,-347.5 1246,-317.5 1109,-317.5"/>
<text text-anchor="start" x="1117" y="-335.5" font-family="Helvetica,sans-Serif" font-size="10.00">Ra::Engine::RenderObject</text>
<text text-anchor="middle" x="1177.5" y="-324.5" font-family="Helvetica,sans-Serif" font-size="10.00">Manager::exists</text>
</a>
</g>
</g>
<!-- Node3&#45;&gt;Node12 -->
<g id="edge12" class="edge"><title>Node3&#45;&gt;Node12</title>
<path fill="none" stroke="midnightblue" d="M844.038,-254.6C862.093,-272.251 894.723,-300.675 929,-313.5 983.281,-333.81 1048.83,-338.025 1098.84,-337.45"/>
<polygon fill="midnightblue" stroke="midnightblue" points="1099.01,-340.947 1108.94,-337.266 1098.88,-333.948 1099.01,-340.947"/>
</g>
<!-- Node5 -->
<g id="node5" class="node"><title>Node5</title>
<g id="a_node5"><a xlink:href="classRa_1_1Core_1_1Utils_1_1Index.html#ac7d6c68387fe147f7a13668ac30a4533" target="_top" xlink:title="INVALID. ">
<polygon fill="white" stroke="black" points="1282,-22.5 1282,-52.5 1398,-52.5 1398,-22.5 1282,-22.5"/>
<text text-anchor="start" x="1290" y="-40.5" font-family="Helvetica,sans-Serif" font-size="10.00">Ra::Core::Utils::Index</text>
<text text-anchor="middle" x="1340" y="-29.5" font-family="Helvetica,sans-Serif" font-size="10.00">::isInvalid</text>
</a>
</g>
</g>
<!-- Node4&#45;&gt;Node5 -->
<g id="edge4" class="edge"><title>Node4&#45;&gt;Node5</title>
<path fill="none" stroke="midnightblue" d="M1237.35,-51.4329C1248.56,-49.8964 1260.37,-48.2775 1271.82,-46.7085"/>
<polygon fill="midnightblue" stroke="midnightblue" points="1272.33,-50.1716 1281.76,-45.3459 1271.38,-43.2365 1272.33,-50.1716"/>
</g>
<!-- Node9&#45;&gt;Node4 -->
<g id="edge9" class="edge"><title>Node9&#45;&gt;Node4</title>
<path fill="none" stroke="midnightblue" d="M1059.95,-273.359C1064.63,-270.842 1069.07,-267.911 1073,-264.5 1129.77,-215.244 1159.06,-127.36 1170.55,-84.4528"/>
<polygon fill="midnightblue" stroke="midnightblue" points="1173.99,-85.1209 1173.1,-74.5642 1167.21,-83.3764 1173.99,-85.1209"/>
</g>
<!-- Node10 -->
<g id="node10" class="node"><title>Node10</title>
<g id="a_node10"><a xlink:href="classRa_1_1Core_1_1Utils_1_1Index.html#ac7a1b710e6b95834a562c27e2f6c0f4b" target="_top" xlink:title="DESTRUCTOR: Must not be defined, we need it trivial to be constexpr. ">
<polygon fill="white" stroke="black" points="1282,-295.5 1282,-325.5 1398,-325.5 1398,-295.5 1282,-295.5"/>
<text text-anchor="start" x="1290" y="-313.5" font-family="Helvetica,sans-Serif" font-size="10.00">Ra::Core::Utils::Index</text>
<text text-anchor="middle" x="1340" y="-302.5" font-family="Helvetica,sans-Serif" font-size="10.00">::isValid</text>
</a>
</g>
</g>
<!-- Node9&#45;&gt;Node10 -->
<g id="edge10" class="edge"><title>Node9&#45;&gt;Node10</title>
<path fill="none" stroke="midnightblue" d="M1060.7,-292.332C1119.56,-296.175 1210.08,-302.084 1271.79,-306.112"/>
<polygon fill="midnightblue" stroke="midnightblue" points="1271.61,-309.608 1281.81,-306.767 1272.06,-302.623 1271.61,-309.608"/>
</g>
<!-- Node12&#45;&gt;Node10 -->
<g id="edge13" class="edge"><title>Node12&#45;&gt;Node10</title>
<path fill="none" stroke="midnightblue" d="M1246.1,-323.234C1254.66,-322.061 1263.42,-320.86 1271.97,-319.688"/>
<polygon fill="midnightblue" stroke="midnightblue" points="1272.45,-323.155 1281.88,-318.329 1271.5,-316.219 1272.45,-323.155"/>
</g>
<!-- Node13&#45;&gt;Node9 -->
<g id="edge16" class="edge"><title>Node13&#45;&gt;Node9</title>
<path fill="none" stroke="midnightblue" d="M872.635,-361.384C879.534,-358.628 886.527,-355.628 893,-352.5 919.432,-339.725 947.889,-322.523 968.807,-309.171"/>
<polygon fill="midnightblue" stroke="midnightblue" points="970.774,-312.067 977.283,-303.708 966.981,-306.184 970.774,-312.067"/>
</g>
<!-- Node13&#45;&gt;Node11 -->
<g id="edge17" class="edge"><title>Node13&#45;&gt;Node11</title>
<path fill="none" stroke="midnightblue" d="M888.176,-376.5C898.002,-376.5 908.35,-376.5 918.624,-376.5"/>
<polygon fill="midnightblue" stroke="midnightblue" points="918.85,-380 928.85,-376.5 918.85,-373 918.85,-380"/>
</g>
<!-- Node14 -->
<g id="node14" class="node"><title>Node14</title>
<g id="a_node14"><a xlink:href="classRa_1_1Core_1_1Utils_1_1IndexedObject.html#accf1e1447b2ed890b10080fb44a91e6c" target="_top" xlink:title="Ra::Core::Utils::Indexed\lObject::getIndex">
<polygon fill="white" stroke="black" points="937,-459.5 937,-489.5 1065,-489.5 1065,-459.5 937,-459.5"/>
<text text-anchor="start" x="945" y="-477.5" font-family="Helvetica,sans-Serif" font-size="10.00">Ra::Core::Utils::Indexed</text>
<text text-anchor="middle" x="1001" y="-466.5" font-family="Helvetica,sans-Serif" font-size="10.00">Object::getIndex</text>
</a>
</g>
</g>
<!-- Node13&#45;&gt;Node14 -->
<g id="edge15" class="edge"><title>Node13&#45;&gt;Node14</title>
<path fill="none" stroke="midnightblue" d="M846.353,-391.653C865.298,-408.037 897.538,-434.011 929,-450.5 932.466,-452.317 936.098,-454.038 939.809,-455.661"/>
<polygon fill="midnightblue" stroke="midnightblue" points="938.566,-458.934 949.146,-459.491 941.223,-452.457 938.566,-458.934"/>
</g>
<!-- Node15 -->
<g id="node15" class="node"><title>Node15</title>
<g id="a_node15"><a xlink:href="classRa_1_1Engine_1_1RenderObjectManager.html#a13fc919e9fa01bfb36e67bc9011d325f" target="_top" xlink:title="Returns the render object corresponding to the given index. ">
<polygon fill="white" stroke="black" points="929,-410.5 929,-440.5 1073,-440.5 1073,-410.5 929,-410.5"/>
<text text-anchor="start" x="937" y="-428.5" font-family="Helvetica,sans-Serif" font-size="10.00">Ra::Engine::RenderObject</text>
<text text-anchor="middle" x="1001" y="-417.5" font-family="Helvetica,sans-Serif" font-size="10.00">Manager::getRenderObject</text>
</a>
</g>
</g>
<!-- Node13&#45;&gt;Node15 -->
<g id="edge18" class="edge"><title>Node13&#45;&gt;Node15</title>
<path fill="none" stroke="midnightblue" d="M882.047,-391.601C899.713,-396.679 919.587,-402.39 937.916,-407.658"/>
<polygon fill="midnightblue" stroke="midnightblue" points="937.049,-411.05 947.627,-410.448 938.982,-404.322 937.049,-411.05"/>
</g>
<!-- Node15&#45;&gt;Node12 -->
<g id="edge19" class="edge"><title>Node15&#45;&gt;Node12</title>
<path fill="none" stroke="midnightblue" d="M1051.94,-410.472C1059.13,-407.778 1066.34,-404.773 1073,-401.5 1100.3,-388.076 1128.9,-368.532 1149.1,-353.668"/>
<polygon fill="midnightblue" stroke="midnightblue" points="1151.29,-356.4 1157.21,-347.616 1147.1,-350.789 1151.29,-356.4"/>
</g>
<!-- Node16&#45;&gt;Node4 -->
<g id="edge21" class="edge"><title>Node16&#45;&gt;Node4</title>
<path fill="none" stroke="midnightblue" d="M869.302,-148.488C877.61,-144.346 885.971,-139.349 893,-133.5 914.048,-115.984 905.26,-97.1469 929,-83.5 983.211,-52.337 1055.31,-48.7548 1107.7,-51.5193"/>
<polygon fill="midnightblue" stroke="midnightblue" points="1107.7,-55.0263 1117.9,-52.1505 1108.14,-48.0396 1107.7,-55.0263"/>
</g>
<!-- Node20&#45;&gt;Node2 -->
<g id="edge26" class="edge"><title>Node20&#45;&gt;Node2</title>
<path fill="none" stroke="midnightblue" d="M527.745,-327.5C539.221,-327.5 551.12,-327.5 562.785,-327.5"/>
<polygon fill="midnightblue" stroke="midnightblue" points="562.959,-331 572.959,-327.5 562.959,-324 562.959,-331"/>
</g>
<!-- Node20&#45;&gt;Node16 -->
<g id="edge27" class="edge"><title>Node20&#45;&gt;Node16</title>
<path fill="none" stroke="midnightblue" d="M502.132,-312.495C558.764,-295.05 652.095,-263.828 728,-226.5 752.661,-214.372 778.856,-197.612 798.175,-184.427"/>
<polygon fill="midnightblue" stroke="midnightblue" points="800.299,-187.214 806.537,-178.65 796.32,-181.455 800.299,-187.214"/>
</g>
<!-- Node21 -->
<g id="node21" class="node"><title>Node21</title>
<g id="a_node21"><a xlink:href="classRa_1_1Engine_1_1Entity.html#a0555082e814666f1ec051e65b727930d" target="_top" xlink:title="Ra::Engine::Entity\l::setTransform">
<polygon fill="white" stroke="black" points="600.5,-361.5 600.5,-391.5 700.5,-391.5 700.5,-361.5 600.5,-361.5"/>
<text text-anchor="start" x="608.5" y="-379.5" font-family="Helvetica,sans-Serif" font-size="10.00">Ra::Engine::Entity</text>
<text text-anchor="middle" x="650.5" y="-368.5" font-family="Helvetica,sans-Serif" font-size="10.00">::setTransform</text>
</a>
</g>
</g>
<!-- Node20&#45;&gt;Node21 -->
<g id="edge28" class="edge"><title>Node20&#45;&gt;Node21</title>
<path fill="none" stroke="midnightblue" d="M511.906,-342.535C536.846,-348.691 565.605,-355.79 590.361,-361.901"/>
<polygon fill="midnightblue" stroke="midnightblue" points="589.797,-365.367 600.344,-364.366 591.475,-358.571 589.797,-365.367"/>
</g>
<!-- Node22 -->
<g id="node22" class="node"><title>Node22</title>
<g id="a_node22"><a xlink:href="classRa_1_1Engine_1_1Component.html#ad86983f76e15fa45a9e84b4d073b3094" target="_top" xlink:title="Set the new transform associated with the RO index key. ">
<polygon fill="white" stroke="black" points="586,-410.5 586,-440.5 715,-440.5 715,-410.5 586,-410.5"/>
<text text-anchor="start" x="594" y="-428.5" font-family="Helvetica,sans-Serif" font-size="10.00">Ra::Engine::Component</text>
<text text-anchor="middle" x="650.5" y="-417.5" font-family="Helvetica,sans-Serif" font-size="10.00">::setTransform</text>
</a>
</g>
</g>
<!-- Node20&#45;&gt;Node22 -->
<g id="edge29" class="edge"><title>Node20&#45;&gt;Node22</title>
<path fill="none" stroke="midnightblue" d="M472.169,-342.521C495.84,-358.787 535.755,-384.661 573,-401.5 577.293,-403.441 581.787,-405.288 586.355,-407.032"/>
<polygon fill="midnightblue" stroke="midnightblue" points="585.2,-410.336 595.794,-410.465 587.593,-403.758 585.2,-410.336"/>
</g>
<!-- Node23&#45;&gt;Node2 -->
<g id="edge31" class="edge"><title>Node23&#45;&gt;Node2</title>
<path fill="none" stroke="midnightblue" d="M315.689,-222.613C375.191,-226.598 465.349,-237.875 537,-269.5 555.544,-277.685 555.383,-287.474 573,-297.5 580.052,-301.513 587.746,-305.224 595.45,-308.568"/>
<polygon fill="midnightblue" stroke="midnightblue" points="594.231,-311.852 604.808,-312.462 596.92,-305.389 594.231,-311.852"/>
</g>
<!-- Node24 -->
<g id="node24" class="node"><title>Node24</title>
<g id="a_node24"><a xlink:href="classRa_1_1GuiBase_1_1TransformEditor.html#aecdcc853ebf6b4ae1dab2c9ee56c96ef" target="_top" xlink:title="Ra::GuiBase::TransformEditor\l::getTransform">
<polygon fill="white" stroke="black" points="372.5,-186.5 372.5,-216.5 527.5,-216.5 527.5,-186.5 372.5,-186.5"/>
<text text-anchor="start" x="380.5" y="-204.5" font-family="Helvetica,sans-Serif" font-size="10.00">Ra::GuiBase::TransformEditor</text>
<text text-anchor="middle" x="450" y="-193.5" font-family="Helvetica,sans-Serif" font-size="10.00">::getTransform</text>
</a>
</g>
</g>
<!-- Node23&#45;&gt;Node24 -->
<g id="edge32" class="edge"><title>Node23&#45;&gt;Node24</title>
<path fill="none" stroke="midnightblue" d="M315.688,-214.357C330.535,-212.926 346.592,-211.377 362.248,-209.867"/>
<polygon fill="midnightblue" stroke="midnightblue" points="362.844,-213.326 372.462,-208.882 362.172,-206.358 362.844,-213.326"/>
</g>
<!-- Node28 -->
<g id="node28" class="node"><title>Node28</title>
<g id="a_node28"><a xlink:href="classRa_1_1Gui_1_1Gizmo.html#a2fc380738268508ca2d46ac856c2f98a" target="_top" xlink:title="Called every time the underlying transform may have changed. ">
<polygon fill="white" stroke="black" points="363,-60 363,-79 537,-79 537,-60 363,-60"/>
<text text-anchor="middle" x="450" y="-67" font-family="Helvetica,sans-Serif" font-size="10.00">Ra::Gui::Gizmo::updateTransform</text>
</a>
</g>
</g>
<!-- Node23&#45;&gt;Node28 -->
<g id="edge41" class="edge"><title>Node23&#45;&gt;Node28</title>
<path fill="none" stroke="midnightblue" d="M315.211,-205.454C319.499,-202.92 323.499,-199.959 327,-196.5 362.992,-160.939 325.406,-122.363 363,-88.5 364.708,-86.9617 366.511,-85.5386 368.394,-84.2224"/>
<polygon fill="midnightblue" stroke="midnightblue" points="370.248,-87.1926 377.099,-79.1109 366.703,-81.1562 370.248,-87.1926"/>
</g>
<!-- Node29 -->
<g id="node29" class="node"><title>Node29</title>
<g id="a_node29"><a xlink:href="classRa_1_1GuiBase_1_1TransformEditor.html#a6c8c6e18c8b92a92a53f6c035aa6c241" target="_top" xlink:title="Ra::GuiBase::TransformEditor\l::getWorldTransform">
<polygon fill="white" stroke="black" points="372.5,-98.5 372.5,-128.5 527.5,-128.5 527.5,-98.5 372.5,-98.5"/>
<text text-anchor="start" x="380.5" y="-116.5" font-family="Helvetica,sans-Serif" font-size="10.00">Ra::GuiBase::TransformEditor</text>
<text text-anchor="middle" x="450" y="-105.5" font-family="Helvetica,sans-Serif" font-size="10.00">::getWorldTransform</text>
</a>
</g>
</g>
<!-- Node23&#45;&gt;Node29 -->
<g id="edge42" class="edge"><title>Node23&#45;&gt;Node29</title>
<path fill="none" stroke="midnightblue" d="M305.602,-205.44C312.924,-202.781 320.241,-199.795 327,-196.5 362.07,-179.405 398.591,-153.275 422.425,-134.91"/>
<polygon fill="midnightblue" stroke="midnightblue" points="424.875,-137.438 430.605,-128.526 420.568,-131.919 424.875,-137.438"/>
</g>
<!-- Node24&#45;&gt;Node2 -->
<g id="edge33" class="edge"><title>Node24&#45;&gt;Node2</title>
<path fill="none" stroke="midnightblue" d="M512.319,-216.535C521.197,-220.453 529.765,-225.362 537,-231.5 562.479,-253.116 547.937,-275.403 573,-297.5 577.387,-301.368 582.332,-304.767 587.542,-307.747"/>
<polygon fill="midnightblue" stroke="midnightblue" points="586.019,-310.9 596.51,-312.377 589.23,-304.679 586.019,-310.9"/>
</g>
<!-- Node24&#45;&gt;Node9 -->
<g id="edge39" class="edge"><title>Node24&#45;&gt;Node9</title>
<path fill="none" stroke="midnightblue" d="M523.885,-216.507C540.053,-219.816 557.105,-223.29 573,-226.5 657.84,-243.632 678.405,-251.663 764,-264.5 819.967,-272.894 883.85,-279.192 931.025,-283.225"/>
<polygon fill="midnightblue" stroke="midnightblue" points="930.871,-286.724 941.129,-284.076 931.459,-279.749 930.871,-286.724"/>
</g>
<!-- Node24&#45;&gt;Node16 -->
<g id="edge34" class="edge"><title>Node24&#45;&gt;Node16</title>
<path fill="none" stroke="midnightblue" d="M518.486,-186.483C536.148,-183.032 555.222,-179.727 573,-177.5 635.541,-169.667 707.274,-166.216 758.609,-164.696"/>
<polygon fill="midnightblue" stroke="midnightblue" points="759.02,-168.186 768.919,-164.409 758.825,-161.189 759.02,-168.186"/>
</g>
<!-- Node25 -->
<g id="node25" class="node"><title>Node25</title>
<g id="a_node25"><a xlink:href="classRa_1_1Engine_1_1Entity.html#adfcfb0c0eb4e1663cd66473e74d83aa3" target="_top" xlink:title="Ra::Engine::Entity\l::getTransform">
<polygon fill="white" stroke="black" points="600.5,-60.5 600.5,-90.5 700.5,-90.5 700.5,-60.5 600.5,-60.5"/>
<text text-anchor="start" x="608.5" y="-78.5" font-family="Helvetica,sans-Serif" font-size="10.00">Ra::Engine::Entity</text>
<text text-anchor="middle" x="650.5" y="-67.5" font-family="Helvetica,sans-Serif" font-size="10.00">::getTransform</text>
</a>
</g>
</g>
<!-- Node24&#45;&gt;Node25 -->
<g id="edge35" class="edge"><title>Node24&#45;&gt;Node25</title>
<path fill="none" stroke="midnightblue" d="M472.241,-186.479C489.888,-173.815 515.493,-155.006 537,-137.5 553.602,-123.986 554.752,-116.693 573,-105.5 579.584,-101.462 586.805,-97.7897 594.098,-94.5097"/>
<polygon fill="midnightblue" stroke="midnightblue" points="595.511,-97.7122 603.333,-90.5666 592.762,-91.2745 595.511,-97.7122"/>
</g>
<!-- Node26 -->
<g id="node26" class="node"><title>Node26</title>
<g id="a_node26"><a xlink:href="structRa_1_1Engine_1_1ItemEntry.html#ac78e7430338c62ed664a16da7e3ea206" target="_top" xlink:title="Returns true if the item represents a component. ">
<polygon fill="white" stroke="black" points="941.5,-0.5 941.5,-30.5 1060.5,-30.5 1060.5,-0.5 941.5,-0.5"/>
<text text-anchor="start" x="949.5" y="-18.5" font-family="Helvetica,sans-Serif" font-size="10.00">Ra::Engine::ItemEntry</text>
<text text-anchor="middle" x="1001" y="-7.5" font-family="Helvetica,sans-Serif" font-size="10.00">::isComponentNode</text>
</a>
</g>
</g>
<!-- Node24&#45;&gt;Node26 -->
<g id="edge36" class="edge"><title>Node24&#45;&gt;Node26</title>
<path fill="none" stroke="midnightblue" d="M495.462,-186.436C595.345,-152.596 837.234,-70.6448 945.743,-33.8823"/>
<polygon fill="midnightblue" stroke="midnightblue" points="947.159,-37.098 955.507,-30.5742 944.912,-30.4682 947.159,-37.098"/>
</g>
<!-- Node27 -->
<g id="node27" class="node"><title>Node27</title>
<g id="a_node27"><a xlink:href="classRa_1_1Engine_1_1Component.html#ab99972b81a95e94e10b35bb2845782b2" target="_top" xlink:title="Get the transform associated with the given RO index key. ">
<polygon fill="white" stroke="black" points="586,-186.5 586,-216.5 715,-216.5 715,-186.5 586,-186.5"/>
<text text-anchor="start" x="594" y="-204.5" font-family="Helvetica,sans-Serif" font-size="10.00">Ra::Engine::Component</text>
<text text-anchor="middle" x="650.5" y="-193.5" font-family="Helvetica,sans-Serif" font-size="10.00">::getTransform</text>
</a>
</g>
</g>
<!-- Node24&#45;&gt;Node27 -->
<g id="edge40" class="edge"><title>Node24&#45;&gt;Node27</title>
<path fill="none" stroke="midnightblue" d="M527.745,-201.5C543.496,-201.5 560.045,-201.5 575.69,-201.5"/>
<polygon fill="midnightblue" stroke="midnightblue" points="575.823,-205 585.823,-201.5 575.823,-198 575.823,-205"/>
</g>
<!-- Node26&#45;&gt;Node4 -->
<g id="edge37" class="edge"><title>Node26&#45;&gt;Node4</title>
<path fill="none" stroke="midnightblue" d="M1060.59,-30.2738C1075.7,-34.083 1092.1,-38.2174 1107.67,-42.1448"/>
<polygon fill="midnightblue" stroke="midnightblue" points="1107.21,-45.6391 1117.77,-44.6903 1108.93,-38.8515 1107.21,-45.6391"/>
</g>
<!-- Node26&#45;&gt;Node5 -->
<g id="edge38" class="edge"><title>Node26&#45;&gt;Node5</title>
<path fill="none" stroke="midnightblue" d="M1060.7,-19.3321C1119.56,-23.1746 1210.08,-29.084 1271.79,-33.1122"/>
<polygon fill="midnightblue" stroke="midnightblue" points="1271.61,-36.6079 1281.81,-33.7668 1272.06,-29.6227 1271.61,-36.6079"/>
</g>
<!-- Node29&#45;&gt;Node16 -->
<g id="edge43" class="edge"><title>Node29&#45;&gt;Node16</title>
<path fill="none" stroke="midnightblue" d="M516.893,-98.3272C523.914,-95.5557 530.761,-92.3051 537,-88.5 556.862,-76.3864 551.629,-59.6925 573,-50.5 636.283,-23.2799 665.223,-22.132 728,-50.5 768.059,-68.6021 798.426,-111.686 814.547,-139.117"/>
<polygon fill="midnightblue" stroke="midnightblue" points="811.666,-141.132 819.647,-148.1 817.753,-137.676 811.666,-141.132"/>
</g>
<!-- Node29&#45;&gt;Node25 -->
<g id="edge44" class="edge"><title>Node29&#45;&gt;Node25</title>
<path fill="none" stroke="midnightblue" d="M527.745,-98.8082C548.556,-94.8244 570.759,-90.5738 590.43,-86.8082"/>
<polygon fill="midnightblue" stroke="midnightblue" points="591.301,-90.205 600.464,-84.8872 589.985,-83.3299 591.301,-90.205"/>
</g>
</g>
</svg>
