<?xml version="1.0" encoding="UTF-8" standalone="no"?>
<!DOCTYPE svg PUBLIC "-//W3C//DTD SVG 1.1//EN"
 "http://www.w3.org/Graphics/SVG/1.1/DTD/svg11.dtd">
<!-- Generated by graphviz version 2.38.0 (20140413.2041)
 -->
<!-- Title: SkinningPlugin::SkinningComponent::endSkinning Pages: 1 -->
<svg width="636pt" height="127pt"
 viewBox="0.00 0.00 636.00 126.50" xmlns="http://www.w3.org/2000/svg" xmlns:xlink="http://www.w3.org/1999/xlink">
<g id="graph0" class="graph" transform="scale(1 1) rotate(0) translate(4 122.5)">
<title>SkinningPlugin::SkinningComponent::endSkinning</title>
<polygon fill="white" stroke="none" points="-4,4 -4,-122.5 632,-122.5 632,4 -4,4"/>
<!-- Node1 -->
<g id="node1" class="node"><title>Node1</title>
<polygon fill="#bfbfbf" stroke="black" points="0,-26.5 0,-56.5 137,-56.5 137,-26.5 0,-26.5"/>
<text text-anchor="start" x="8" y="-44.5" font-family="Helvetica,sans-Serif" font-size="10.00">SkinningPlugin::Skinning</text>
<text text-anchor="middle" x="68.5" y="-33.5" font-family="Helvetica,sans-Serif" font-size="10.00">Component::endSkinning</text>
</g>
<!-- Node2 -->
<g id="node2" class="node"><title>Node2</title>
<g id="a_node2"><a xlink:href="namespaceSkinningPlugin.html#a010dccff0e8dce4bd2dd6c633bbeec63" target="_top" xlink:title="SkinningPlugin::uniformNormal">
<polygon fill="white" stroke="black" points="173,-55 173,-74 337,-74 337,-55 173,-55"/>
<text text-anchor="middle" x="255" y="-62" font-family="Helvetica,sans-Serif" font-size="10.00">SkinningPlugin::uniformNormal</text>
</a>
</g>
</g>
<!-- Node1&#45;&gt;Node2 -->
<g id="edge1" class="edge"><title>Node1&#45;&gt;Node2</title>
<path fill="none" stroke="midnightblue" d="M137.153,-49.9338C147.026,-51.1645 157.305,-52.4459 167.49,-53.7155"/>
<polygon fill="midnightblue" stroke="midnightblue" points="167.269,-57.215 177.625,-54.979 168.135,-50.2688 167.269,-57.215"/>
</g>
<!-- Node6 -->
<g id="node6" class="node"><title>Node6</title>
<g id="a_node6"><a xlink:href="namespaceRa_1_1Core_1_1Animation.html#a03d7eb179bf339237a3e5b06d6d06100" target="_top" xlink:title="Ra::Core::Animation\l::relativePose">
<polygon fill="white" stroke="black" points="199,-3.5 199,-33.5 311,-33.5 311,-3.5 199,-3.5"/>
<text text-anchor="start" x="207" y="-21.5" font-family="Helvetica,sans-Serif" font-size="10.00">Ra::Core::Animation</text>
<text text-anchor="middle" x="255" y="-10.5" font-family="Helvetica,sans-Serif" font-size="10.00">::relativePose</text>
</a>
</g>
</g>
<!-- Node1&#45;&gt;Node6 -->
<g id="edge5" class="edge"><title>Node1&#45;&gt;Node6</title>
<path fill="none" stroke="midnightblue" d="M137.153,-33.0662C153.931,-30.9747 171.881,-28.7371 188.551,-26.659"/>
<polygon fill="midnightblue" stroke="midnightblue" points="189.253,-30.0986 198.744,-25.3883 188.387,-23.1523 189.253,-30.0986"/>
</g>
<!-- Node3 -->
<g id="node3" class="node"><title>Node3</title>
<g id="a_node3"><a xlink:href="namespaceRa_1_1Core_1_1Geometry.html#aa04e6052d8911b1df1bd881474debb45" target="_top" xlink:title="Ra::Core::Geometry::t">
<polygon fill="white" stroke="black" points="373,-99 373,-118 493,-118 493,-99 373,-99"/>
<text text-anchor="middle" x="433" y="-106" font-family="Helvetica,sans-Serif" font-size="10.00">Ra::Core::Geometry::t</text>
</a>
</g>
</g>
<!-- Node2&#45;&gt;Node3 -->
<g id="edge2" class="edge"><title>Node2&#45;&gt;Node3</title>
<path fill="none" stroke="midnightblue" d="M294.189,-74.0473C320.482,-80.6204 355.619,-89.4048 383.833,-96.4583"/>
<polygon fill="midnightblue" stroke="midnightblue" points="383.335,-99.9414 393.885,-98.9713 385.033,-93.1504 383.335,-99.9414"/>
</g>
<!-- Node4 -->
<g id="node4" class="node"><title>Node4</title>
<g id="a_node4"><a xlink:href="namespaceRa_1_1Core_1_1Geometry.html#a2ce97206423345716bf1b55f60c1c227" target="_top" xlink:title="Ra::Core::Geometry\l::triangleNormal">
<polygon fill="white" stroke="black" points="377.5,-49.5 377.5,-79.5 488.5,-79.5 488.5,-49.5 377.5,-49.5"/>
<text text-anchor="start" x="385.5" y="-67.5" font-family="Helvetica,sans-Serif" font-size="10.00">Ra::Core::Geometry</text>
<text text-anchor="middle" x="433" y="-56.5" font-family="Helvetica,sans-Serif" font-size="10.00">::triangleNormal</text>
</a>
</g>
</g>
<!-- Node2&#45;&gt;Node4 -->
<g id="edge3" class="edge"><title>Node2&#45;&gt;Node4</title>
<path fill="none" stroke="midnightblue" d="M337.046,-64.5C347.156,-64.5 357.39,-64.5 367.209,-64.5"/>
<polygon fill="midnightblue" stroke="midnightblue" points="367.268,-68.0001 377.268,-64.5 367.268,-61.0001 367.268,-68.0001"/>
</g>
<!-- Node5 -->
<g id="node5" class="node"><title>Node5</title>
<g id="a_node5"><a xlink:href="namespaceOpenMesh.html#a71e7f1dd3eac016d2b8245ac408a291c" target="_top" xlink:title="OpenMesh::cross">
<polygon fill="white" stroke="black" points="529,-55 529,-74 628,-74 628,-55 529,-55"/>
<text text-anchor="middle" x="578.5" y="-62" font-family="Helvetica,sans-Serif" font-size="10.00">OpenMesh::cross</text>
</a>
</g>
</g>
<!-- Node4&#45;&gt;Node5 -->
<g id="edge4" class="edge"><title>Node4&#45;&gt;Node5</title>
<path fill="none" stroke="midnightblue" d="M488.661,-64.5C498.419,-64.5 508.625,-64.5 518.498,-64.5"/>
<polygon fill="midnightblue" stroke="midnightblue" points="518.634,-68.0001 528.634,-64.5 518.634,-61.0001 518.634,-68.0001"/>
</g>
<!-- Node7 -->
<g id="node7" class="node"><title>Node7</title>
<g id="a_node7"><a xlink:href="namespaceRa_1_1Core_1_1Animation.html#a44a3a0320649edf2829268bf80555800" target="_top" xlink:title="Ra::Core::Animation\l::compatible">
<polygon fill="white" stroke="black" points="377,-0.5 377,-30.5 489,-30.5 489,-0.5 377,-0.5"/>
<text text-anchor="start" x="385" y="-18.5" font-family="Helvetica,sans-Serif" font-size="10.00">Ra::Core::Animation</text>
<text text-anchor="middle" x="433" y="-7.5" font-family="Helvetica,sans-Serif" font-size="10.00">::compatible</text>
</a>
</g>
</g>
<!-- Node6&#45;&gt;Node7 -->
<g id="edge6" class="edge"><title>Node6&#45;&gt;Node7</title>
<path fill="none" stroke="midnightblue" d="M311.205,-17.559C328.897,-17.2574 348.653,-16.9207 366.979,-16.6083"/>
<polygon fill="midnightblue" stroke="midnightblue" points="367.052,-20.1077 376.991,-16.4376 366.933,-13.1087 367.052,-20.1077"/>
</g>
</g>
</svg>
