<?xml version="1.0" encoding="UTF-8" standalone="no"?>
<!DOCTYPE svg PUBLIC "-//W3C//DTD SVG 1.1//EN"
 "http://www.w3.org/Graphics/SVG/1.1/DTD/svg11.dtd">
<!-- Generated by graphviz version 2.38.0 (20140413.2041)
 -->
<!-- Title: Ra::Gui::Viewer::changeRenderer Pages: 1 -->
<svg width="484pt" height="284pt"
 viewBox="0.00 0.00 484.00 284.00" xmlns="http://www.w3.org/2000/svg" xmlns:xlink="http://www.w3.org/1999/xlink">
<g id="graph0" class="graph" transform="scale(1 1) rotate(0) translate(4 280)">
<title>Ra::Gui::Viewer::changeRenderer</title>
<polygon fill="white" stroke="none" points="-4,4 -4,-280 480,-280 480,4 -4,4"/>
<!-- Node1 -->
<g id="node1" class="node"><title>Node1</title>
<polygon fill="#bfbfbf" stroke="black" points="0,-128 0,-147 172,-147 172,-128 0,-128"/>
<text text-anchor="middle" x="86" y="-135" font-family="Helvetica,sans-Serif" font-size="10.00">Ra::Gui::Viewer::changeRenderer</text>
</g>
<!-- Node2 -->
<g id="node2" class="node"><title>Node2</title>
<g id="a_node2"><a xlink:href="classRa_1_1Gui_1_1WindowQt.html#a78476baacd2df24a260f604d02c8ddc4" target="_top" xlink:title="Make the OpenGL context associated with the viewer the current context. ">
<polygon fill="white" stroke="black" points="211.5,-245.5 211.5,-275.5 320.5,-275.5 320.5,-245.5 211.5,-245.5"/>
<text text-anchor="start" x="219.5" y="-263.5" font-family="Helvetica,sans-Serif" font-size="10.00">Ra::Gui::WindowQt::</text>
<text text-anchor="middle" x="266" y="-252.5" font-family="Helvetica,sans-Serif" font-size="10.00">makeCurrent</text>
</a>
</g>
</g>
<!-- Node1&#45;&gt;Node2 -->
<g id="edge1" class="edge"><title>Node1&#45;&gt;Node2</title>
<path fill="none" stroke="midnightblue" d="M96.6137,-147.033C116.187,-166.045 162.662,-209.192 208,-236.5 210.501,-238.006 213.113,-239.463 215.785,-240.864"/>
<polygon fill="midnightblue" stroke="midnightblue" points="214.507,-244.136 225.025,-245.404 217.593,-237.853 214.507,-244.136"/>
</g>
<!-- Node3 -->
<g id="node3" class="node"><title>Node3</title>
<g id="a_node3"><a xlink:href="classRa_1_1Engine_1_1Renderer.html#a3166160850c466595fe48a74116bc116" target="_top" xlink:title="Lock rendering. ">
<polygon fill="white" stroke="black" points="208,-196.5 208,-226.5 324,-226.5 324,-196.5 208,-196.5"/>
<text text-anchor="start" x="216" y="-214.5" font-family="Helvetica,sans-Serif" font-size="10.00">Ra::Engine::Renderer</text>
<text text-anchor="middle" x="266" y="-203.5" font-family="Helvetica,sans-Serif" font-size="10.00">::lockRendering</text>
</a>
</g>
</g>
<!-- Node1&#45;&gt;Node3 -->
<g id="edge2" class="edge"><title>Node1&#45;&gt;Node3</title>
<path fill="none" stroke="midnightblue" d="M109.906,-147.023C137.371,-158.441 184.073,-177.856 219.069,-192.405"/>
<polygon fill="midnightblue" stroke="midnightblue" points="218.026,-195.762 228.603,-196.369 220.713,-189.298 218.026,-195.762"/>
</g>
<!-- Node4 -->
<g id="node4" class="node"><title>Node4</title>
<g id="a_node4"><a xlink:href="classRa_1_1Engine_1_1Renderer.html#a7343dbeb04c9699cc2abf2690c9941ee" target="_top" xlink:title="Resize the viewport and all the screen textures, fbos. ">
<polygon fill="white" stroke="black" points="208,-147.5 208,-177.5 324,-177.5 324,-147.5 208,-147.5"/>
<text text-anchor="start" x="216" y="-165.5" font-family="Helvetica,sans-Serif" font-size="10.00">Ra::Engine::Renderer</text>
<text text-anchor="middle" x="266" y="-154.5" font-family="Helvetica,sans-Serif" font-size="10.00">::resize</text>
</a>
</g>
</g>
<!-- Node1&#45;&gt;Node4 -->
<g id="edge3" class="edge"><title>Node1&#45;&gt;Node4</title>
<path fill="none" stroke="midnightblue" d="M154.802,-147.023C168.874,-148.999 183.698,-151.081 197.75,-153.055"/>
<polygon fill="midnightblue" stroke="midnightblue" points="197.435,-156.545 207.824,-154.47 198.409,-149.613 197.435,-156.545"/>
</g>
<!-- Node6 -->
<g id="node6" class="node"><title>Node6</title>
<g id="a_node6"><a xlink:href="classRa_1_1Engine_1_1Renderer.html#aa1773ee0f741df643e10d21d968fbcc3" target="_top" xlink:title="Unlock the rendering. ">
<polygon fill="white" stroke="black" points="208,-98.5 208,-128.5 324,-128.5 324,-98.5 208,-98.5"/>
<text text-anchor="start" x="216" y="-116.5" font-family="Helvetica,sans-Serif" font-size="10.00">Ra::Engine::Renderer</text>
<text text-anchor="middle" x="266" y="-105.5" font-family="Helvetica,sans-Serif" font-size="10.00">::unlockRendering</text>
</a>
</g>
</g>
<!-- Node1&#45;&gt;Node6 -->
<g id="edge5" class="edge"><title>Node1&#45;&gt;Node6</title>
<path fill="none" stroke="midnightblue" d="M157.606,-127.98C170.91,-126.186 184.787,-124.315 197.977,-122.537"/>
<polygon fill="midnightblue" stroke="midnightblue" points="198.466,-126.003 207.909,-121.198 197.531,-119.065 198.466,-126.003"/>
</g>
<!-- Node7 -->
<g id="node7" class="node"><title>Node7</title>
<g id="a_node7"><a xlink:href="classRa_1_1Engine_1_1Renderer.html#a56fec7b4244e68e76d80ce48cacb61eb" target="_top" xlink:title="Get the name of the renderer, e.g to be displayed in the UI. ">
<polygon fill="white" stroke="black" points="208,-49.5 208,-79.5 324,-79.5 324,-49.5 208,-49.5"/>
<text text-anchor="start" x="216" y="-67.5" font-family="Helvetica,sans-Serif" font-size="10.00">Ra::Engine::Renderer</text>
<text text-anchor="middle" x="266" y="-56.5" font-family="Helvetica,sans-Serif" font-size="10.00">::getRendererName</text>
</a>
</g>
</g>
<!-- Node1&#45;&gt;Node7 -->
<g id="edge6" class="edge"><title>Node1&#45;&gt;Node7</title>
<path fill="none" stroke="midnightblue" d="M110.27,-127.957C137.662,-116.723 183.822,-97.7919 218.612,-83.5242"/>
<polygon fill="midnightblue" stroke="midnightblue" points="220.174,-86.6667 228.098,-79.634 217.518,-80.1902 220.174,-86.6667"/>
</g>
<!-- Node8 -->
<g id="node8" class="node"><title>Node8</title>
<g id="a_node8"><a xlink:href="classRa_1_1Gui_1_1WindowQt.html#acd31b9e580f049491d13c16ef954d964" target="_top" xlink:title="Reset the current OpenGL context that is no more the one associated with the viewer. ">
<polygon fill="white" stroke="black" points="211.5,-0.5 211.5,-30.5 320.5,-30.5 320.5,-0.5 211.5,-0.5"/>
<text text-anchor="start" x="219.5" y="-18.5" font-family="Helvetica,sans-Serif" font-size="10.00">Ra::Gui::WindowQt::</text>
<text text-anchor="middle" x="266" y="-7.5" font-family="Helvetica,sans-Serif" font-size="10.00">doneCurrent</text>
</a>
</g>
</g>
<!-- Node1&#45;&gt;Node8 -->
<g id="edge7" class="edge"><title>Node1&#45;&gt;Node8</title>
<path fill="none" stroke="midnightblue" d="M96.9923,-127.948C116.871,-109.311 163.323,-67.5574 208,-40.5 211.143,-38.5968 214.456,-36.7581 217.839,-35.0005"/>
<polygon fill="midnightblue" stroke="midnightblue" points="219.461,-38.1033 226.889,-30.5483 216.371,-31.8223 219.461,-38.1033"/>
</g>
<!-- Node5 -->
<g id="node5" class="node"><title>Node5</title>
<g id="a_node5"><a xlink:href="classRa_1_1Engine_1_1Renderer.html#a18a293f1c7c6864e4f1de7f6b88b0f4a" target="_top" xlink:title="resize the renderer dependent resources ">
<polygon fill="white" stroke="black" points="360,-147.5 360,-177.5 476,-177.5 476,-147.5 360,-147.5"/>
<text text-anchor="start" x="368" y="-165.5" font-family="Helvetica,sans-Serif" font-size="10.00">Ra::Engine::Renderer</text>
<text text-anchor="middle" x="418" y="-154.5" font-family="Helvetica,sans-Serif" font-size="10.00">::resizeInternal</text>
</a>
</g>
</g>
<!-- Node4&#45;&gt;Node5 -->
<g id="edge4" class="edge"><title>Node4&#45;&gt;Node5</title>
<path fill="none" stroke="midnightblue" d="M324.136,-162.5C332.377,-162.5 340.923,-162.5 349.344,-162.5"/>
<polygon fill="midnightblue" stroke="midnightblue" points="349.526,-166 359.525,-162.5 349.525,-159 349.526,-166"/>
</g>
</g>
</svg>
