<?xml version="1.0" encoding="UTF-8" standalone="no"?>
<!DOCTYPE svg PUBLIC "-//W3C//DTD SVG 1.1//EN"
 "http://www.w3.org/Graphics/SVG/1.1/DTD/svg11.dtd">
<!-- Generated by graphviz version 2.38.0 (20140413.2041)
 -->
<!-- Title: AnimationPlugin::AnimationSystem::handleAssetLoading Pages: 1 -->
<svg width="1425pt" height="468pt"
 viewBox="0.00 0.00 1425.00 468.27" xmlns="http://www.w3.org/2000/svg" xmlns:xlink="http://www.w3.org/1999/xlink">
<g id="graph0" class="graph" transform="scale(1 1) rotate(0) translate(4 464.273)">
<title>AnimationPlugin::AnimationSystem::handleAssetLoading</title>
<polygon fill="white" stroke="none" points="-4,4 -4,-464.273 1421,-464.273 1421,4 -4,4"/>
<!-- Node1 -->
<g id="node1" class="node"><title>Node1</title>
<polygon fill="#bfbfbf" stroke="black" points="0,-309.773 0,-339.773 156,-339.773 156,-309.773 0,-309.773"/>
<text text-anchor="start" x="8" y="-327.773" font-family="Helvetica,sans-Serif" font-size="10.00">AnimationPlugin::Animation</text>
<text text-anchor="middle" x="78" y="-316.773" font-family="Helvetica,sans-Serif" font-size="10.00">System::handleAssetLoading</text>
</g>
<!-- Node2 -->
<g id="node2" class="node"><title>Node2</title>
<g id="a_node2"><a xlink:href="classRa_1_1Core_1_1Asset_1_1FileData.html#a46beb82e240cf24be6f3c2127e2b4c7a" target="_top" xlink:title="DATA. ">
<polygon fill="white" stroke="black" points="220.5,-407.773 220.5,-437.773 354.5,-437.773 354.5,-407.773 220.5,-407.773"/>
<text text-anchor="start" x="228.5" y="-425.773" font-family="Helvetica,sans-Serif" font-size="10.00">Ra::Core::Asset::FileData</text>
<text text-anchor="middle" x="287.5" y="-414.773" font-family="Helvetica,sans-Serif" font-size="10.00">::getGeometryData</text>
</a>
</g>
</g>
<!-- Node1&#45;&gt;Node2 -->
<g id="edge1" class="edge"><title>Node1&#45;&gt;Node2</title>
<path fill="none" stroke="midnightblue" d="M98.3224,-339.983C119.998,-356.373 156.751,-382.196 192,-397.773 197.857,-400.361 204.041,-402.73 210.328,-404.887"/>
<polygon fill="midnightblue" stroke="midnightblue" points="209.668,-408.352 220.26,-408.104 211.825,-401.693 209.668,-408.352"/>
</g>
<!-- Node3 -->
<g id="node3" class="node"><title>Node3</title>
<g id="a_node3"><a xlink:href="classRa_1_1Core_1_1Asset_1_1FileData.html#a36b5050f3bcc3f39c14e746edb8bb697" target="_top" xlink:title="Ra::Core::Asset::FileData\l::getHandleData">
<polygon fill="white" stroke="black" points="220.5,-358.773 220.5,-388.773 354.5,-388.773 354.5,-358.773 220.5,-358.773"/>
<text text-anchor="start" x="228.5" y="-376.773" font-family="Helvetica,sans-Serif" font-size="10.00">Ra::Core::Asset::FileData</text>
<text text-anchor="middle" x="287.5" y="-365.773" font-family="Helvetica,sans-Serif" font-size="10.00">::getHandleData</text>
</a>
</g>
</g>
<!-- Node1&#45;&gt;Node3 -->
<g id="edge2" class="edge"><title>Node1&#45;&gt;Node3</title>
<path fill="none" stroke="midnightblue" d="M142.667,-339.808C164.875,-345.052 189.978,-350.98 212.925,-356.398"/>
<polygon fill="midnightblue" stroke="midnightblue" points="212.417,-359.875 222.953,-358.767 214.025,-353.062 212.417,-359.875"/>
</g>
<!-- Node4 -->
<g id="node4" class="node"><title>Node4</title>
<g id="a_node4"><a xlink:href="classRa_1_1Core_1_1Asset_1_1FileData.html#a2c5bfe2652ced721270e7b5c34ca1fd8" target="_top" xlink:title="Ra::Core::Asset::FileData\l::getAnimationData">
<polygon fill="white" stroke="black" points="220.5,-309.773 220.5,-339.773 354.5,-339.773 354.5,-309.773 220.5,-309.773"/>
<text text-anchor="start" x="228.5" y="-327.773" font-family="Helvetica,sans-Serif" font-size="10.00">Ra::Core::Asset::FileData</text>
<text text-anchor="middle" x="287.5" y="-316.773" font-family="Helvetica,sans-Serif" font-size="10.00">::getAnimationData</text>
</a>
</g>
</g>
<!-- Node1&#45;&gt;Node4 -->
<g id="edge3" class="edge"><title>Node1&#45;&gt;Node4</title>
<path fill="none" stroke="midnightblue" d="M156.265,-324.773C173.892,-324.773 192.612,-324.773 210.198,-324.773"/>
<polygon fill="midnightblue" stroke="midnightblue" points="210.405,-328.273 220.405,-324.773 210.405,-321.273 210.405,-328.273"/>
</g>
<!-- Node5 -->
<g id="node5" class="node"><title>Node5</title>
<g id="a_node5"><a xlink:href="classAnimationPlugin_1_1AnimationComponent.html#a2f99bc244e66c81b07c3fdc908a1ca0a" target="_top" xlink:title="Create the skeleton from the given data. ">
<polygon fill="white" stroke="black" points="192,-260.773 192,-290.773 383,-290.773 383,-260.773 192,-260.773"/>
<text text-anchor="start" x="200" y="-278.773" font-family="Helvetica,sans-Serif" font-size="10.00">AnimationPlugin::Animation</text>
<text text-anchor="middle" x="287.5" y="-267.773" font-family="Helvetica,sans-Serif" font-size="10.00">Component::handleSkeletonLoading</text>
</a>
</g>
</g>
<!-- Node1&#45;&gt;Node5 -->
<g id="edge4" class="edge"><title>Node1&#45;&gt;Node5</title>
<path fill="none" stroke="midnightblue" d="M142.667,-309.738C164.875,-304.494 189.978,-298.566 212.925,-293.147"/>
<polygon fill="midnightblue" stroke="midnightblue" points="214.025,-296.484 222.953,-290.779 212.417,-289.671 214.025,-296.484"/>
</g>
<!-- Node28 -->
<g id="node28" class="node"><title>Node28</title>
<g id="a_node28"><a xlink:href="classRa_1_1Engine_1_1System.html#ad7b2a746c42f08a729b4df9b991293a8" target="_top" xlink:title="Registers a component belonging to an entity, making it active within the system. ...">
<polygon fill="white" stroke="black" points="229.5,-142.773 229.5,-172.773 345.5,-172.773 345.5,-142.773 229.5,-142.773"/>
<text text-anchor="start" x="237.5" y="-160.773" font-family="Helvetica,sans-Serif" font-size="10.00">Ra::Engine::System</text>
<text text-anchor="middle" x="287.5" y="-149.773" font-family="Helvetica,sans-Serif" font-size="10.00">::registerComponent</text>
</a>
</g>
</g>
<!-- Node1&#45;&gt;Node28 -->
<g id="edge34" class="edge"><title>Node1&#45;&gt;Node28</title>
<path fill="none" stroke="midnightblue" d="M97.7802,-309.658C134.723,-279.926 216.949,-213.749 259.629,-179.399"/>
<polygon fill="midnightblue" stroke="midnightblue" points="262.017,-181.97 267.613,-172.974 257.628,-176.517 262.017,-181.97"/>
</g>
<!-- Node6 -->
<g id="node6" class="node"><title>Node6</title>
<g id="a_node6"><a xlink:href="classRa_1_1Core_1_1Asset_1_1AssetData.html#a3f4a6e18b60f2de4a23c8898a7341d21" target="_top" xlink:title="Acces to the name of the asset. ">
<polygon fill="white" stroke="black" points="430.5,-353.773 430.5,-383.773 576.5,-383.773 576.5,-353.773 430.5,-353.773"/>
<text text-anchor="start" x="438.5" y="-371.773" font-family="Helvetica,sans-Serif" font-size="10.00">Ra::Core::Asset::AssetData</text>
<text text-anchor="middle" x="503.5" y="-360.773" font-family="Helvetica,sans-Serif" font-size="10.00">::getName</text>
</a>
</g>
</g>
<!-- Node5&#45;&gt;Node6 -->
<g id="edge5" class="edge"><title>Node5&#45;&gt;Node6</title>
<path fill="none" stroke="midnightblue" d="M365.567,-290.829C371.676,-293.361 377.574,-296.319 383,-299.773 404.315,-313.341 397.976,-329.758 419,-343.773 422.077,-345.824 425.327,-347.712 428.69,-349.448"/>
<polygon fill="midnightblue" stroke="midnightblue" points="427.269,-352.647 437.811,-353.699 430.226,-346.302 427.269,-352.647"/>
</g>
<!-- Node7 -->
<g id="node7" class="node"><title>Node7</title>
<g id="a_node7"><a xlink:href="classRa_1_1Core_1_1Animation_1_1Handle.html#ae8dab79a9d571d2a876ec9aaeb36959c" target="_top" xlink:title="Set the Handle&#39;s name. ">
<polygon fill="white" stroke="black" points="447.5,-304.773 447.5,-334.773 559.5,-334.773 559.5,-304.773 447.5,-304.773"/>
<text text-anchor="start" x="455.5" y="-322.773" font-family="Helvetica,sans-Serif" font-size="10.00">Ra::Core::Animation</text>
<text text-anchor="middle" x="503.5" y="-311.773" font-family="Helvetica,sans-Serif" font-size="10.00">::Handle::setName</text>
</a>
</g>
</g>
<!-- Node5&#45;&gt;Node7 -->
<g id="edge6" class="edge"><title>Node5&#45;&gt;Node7</title>
<path fill="none" stroke="midnightblue" d="M361.548,-290.792C386.128,-295.846 413.374,-301.448 437.309,-306.369"/>
<polygon fill="midnightblue" stroke="midnightblue" points="436.846,-309.847 447.346,-308.433 438.256,-302.991 436.846,-309.847"/>
</g>
<!-- Node8 -->
<g id="node8" class="node"><title>Node8</title>
<g id="a_node8"><a xlink:href="namespaceRa_1_1Core_1_1Asset.html#af3efc17e534a434b98a1a0bca354eff7" target="_top" xlink:title="Create a skeleton from a Handle Data extracted from a file. ">
<polygon fill="white" stroke="black" points="419,-266.273 419,-285.273 588,-285.273 588,-266.273 419,-266.273"/>
<text text-anchor="middle" x="503.5" y="-273.273" font-family="Helvetica,sans-Serif" font-size="10.00">Ra::Core::Asset::createSkeleton</text>
</a>
</g>
</g>
<!-- Node5&#45;&gt;Node8 -->
<g id="edge7" class="edge"><title>Node5&#45;&gt;Node8</title>
<path fill="none" stroke="midnightblue" d="M383.298,-275.773C391.723,-275.773 400.251,-275.773 408.668,-275.773"/>
<polygon fill="midnightblue" stroke="midnightblue" points="408.865,-279.273 418.865,-275.773 408.865,-272.273 408.865,-279.273"/>
</g>
<!-- Node27 -->
<g id="node27" class="node"><title>Node27</title>
<g id="a_node27"><a xlink:href="classRa_1_1Core_1_1Animation_1_1Skeleton.html#acb6381c3f288f580800589eb718c1759" target="_top" xlink:title="Ra::Core::Animation\l::Skeleton::getPose">
<polygon fill="white" stroke="black" points="447.5,-216.773 447.5,-246.773 559.5,-246.773 559.5,-216.773 447.5,-216.773"/>
<text text-anchor="start" x="455.5" y="-234.773" font-family="Helvetica,sans-Serif" font-size="10.00">Ra::Core::Animation</text>
<text text-anchor="middle" x="503.5" y="-223.773" font-family="Helvetica,sans-Serif" font-size="10.00">::Skeleton::getPose</text>
</a>
</g>
</g>
<!-- Node5&#45;&gt;Node27 -->
<g id="edge33" class="edge"><title>Node5&#45;&gt;Node27</title>
<path fill="none" stroke="midnightblue" d="M361.548,-260.754C386.128,-255.7 413.374,-250.098 437.309,-245.177"/>
<polygon fill="midnightblue" stroke="midnightblue" points="438.256,-248.555 447.346,-243.113 436.846,-241.699 438.256,-248.555"/>
</g>
<!-- Node9 -->
<g id="node9" class="node"><title>Node9</title>
<g id="a_node9"><a xlink:href="classRa_1_1Core_1_1Asset_1_1HandleData.html#a06a80ef7e42fd860557b93a1d035d283" target="_top" xlink:title="Return the number of Handles in the system. ">
<polygon fill="white" stroke="black" points="624,-429.773 624,-459.773 777,-459.773 777,-429.773 624,-429.773"/>
<text text-anchor="start" x="632" y="-447.773" font-family="Helvetica,sans-Serif" font-size="10.00">Ra::Core::Asset::HandleData</text>
<text text-anchor="middle" x="700.5" y="-436.773" font-family="Helvetica,sans-Serif" font-size="10.00">::getComponentDataSize</text>
</a>
</g>
</g>
<!-- Node8&#45;&gt;Node9 -->
<g id="edge8" class="edge"><title>Node8&#45;&gt;Node9</title>
<path fill="none" stroke="midnightblue" d="M574.493,-285.403C579.415,-287.912 584.002,-290.995 588,-294.773 630.022,-334.479 583.932,-378.096 624,-419.773 625.4,-421.229 626.886,-422.6 628.444,-423.891"/>
<polygon fill="midnightblue" stroke="midnightblue" points="626.565,-426.848 636.768,-429.704 630.573,-421.109 626.565,-426.848"/>
</g>
<!-- Node10 -->
<g id="node10" class="node"><title>Node10</title>
<g id="a_node10"><a xlink:href="classRa_1_1Core_1_1Asset_1_1HandleData.html#a456d73d7b367dbf29f03d037bedaeaba" target="_top" xlink:title="Return the list of HandleComponentData. ">
<polygon fill="white" stroke="black" points="624,-380.773 624,-410.773 777,-410.773 777,-380.773 624,-380.773"/>
<text text-anchor="start" x="632" y="-398.773" font-family="Helvetica,sans-Serif" font-size="10.00">Ra::Core::Asset::HandleData</text>
<text text-anchor="middle" x="700.5" y="-387.773" font-family="Helvetica,sans-Serif" font-size="10.00">::getComponentData</text>
</a>
</g>
</g>
<!-- Node8&#45;&gt;Node10 -->
<g id="edge9" class="edge"><title>Node8&#45;&gt;Node10</title>
<path fill="none" stroke="midnightblue" d="M572.2,-285.396C577.872,-287.879 583.245,-290.959 588,-294.773 617.154,-318.16 596.002,-346.013 624,-370.773 625.765,-372.334 627.63,-373.797 629.574,-375.17"/>
<polygon fill="midnightblue" stroke="midnightblue" points="628.175,-378.416 638.537,-380.624 631.814,-372.436 628.175,-378.416"/>
</g>
<!-- Node11 -->
<g id="node11" class="node"><title>Node11</title>
<g id="a_node11"><a xlink:href="classRa_1_1Core_1_1Asset_1_1HandleData.html#a2ce8dde1d1d3848bcc76693a40e389de" target="_top" xlink:title="Return the HandleSystem hierarchy, i.e. bones hierarchy. ">
<polygon fill="white" stroke="black" points="624,-331.773 624,-361.773 777,-361.773 777,-331.773 624,-331.773"/>
<text text-anchor="start" x="632" y="-349.773" font-family="Helvetica,sans-Serif" font-size="10.00">Ra::Core::Asset::HandleData</text>
<text text-anchor="middle" x="700.5" y="-338.773" font-family="Helvetica,sans-Serif" font-size="10.00">::getEdgeData</text>
</a>
</g>
</g>
<!-- Node8&#45;&gt;Node11 -->
<g id="edge10" class="edge"><title>Node8&#45;&gt;Node11</title>
<path fill="none" stroke="midnightblue" d="M561.269,-285.297C570.425,-287.789 579.635,-290.9 588,-294.773 606.149,-303.176 606.275,-312.508 624,-321.773 628.214,-323.976 632.661,-326.038 637.201,-327.958"/>
<polygon fill="midnightblue" stroke="midnightblue" points="636.022,-331.256 646.607,-331.699 638.608,-324.751 636.022,-331.256"/>
</g>
<!-- Node12 -->
<g id="node12" class="node"><title>Node12</title>
<g id="a_node12"><a xlink:href="classRa_1_1Core_1_1Asset_1_1HandleData.html#a4ed5fbf83aae37fac88c6fa69e226824" target="_top" xlink:title="Return true if the Handle system needs end bones. ">
<polygon fill="white" stroke="black" points="624,-282.773 624,-312.773 777,-312.773 777,-282.773 624,-282.773"/>
<text text-anchor="start" x="632" y="-300.773" font-family="Helvetica,sans-Serif" font-size="10.00">Ra::Core::Asset::HandleData</text>
<text text-anchor="middle" x="700.5" y="-289.773" font-family="Helvetica,sans-Serif" font-size="10.00">::needsEndNodes</text>
</a>
</g>
</g>
<!-- Node8&#45;&gt;Node12 -->
<g id="edge11" class="edge"><title>Node8&#45;&gt;Node12</title>
<path fill="none" stroke="midnightblue" d="M588.046,-285.199C596.59,-286.163 605.281,-287.143 613.847,-288.109"/>
<polygon fill="midnightblue" stroke="midnightblue" points="613.501,-291.593 623.83,-289.236 614.286,-284.637 613.501,-291.593"/>
</g>
<!-- Node13 -->
<g id="node13" class="node"><title>Node13</title>
<g id="a_node13"><a xlink:href="classRa_1_1Core_1_1Animation_1_1Skeleton.html#a5679e1beb544b515c4539ce48a2f2ba3" target="_top" xlink:title="Ra::Core::Animation\l::Skeleton::size">
<polygon fill="white" stroke="black" points="813,-175.773 813,-205.773 925,-205.773 925,-175.773 813,-175.773"/>
<text text-anchor="start" x="821" y="-193.773" font-family="Helvetica,sans-Serif" font-size="10.00">Ra::Core::Animation</text>
<text text-anchor="middle" x="869" y="-182.773" font-family="Helvetica,sans-Serif" font-size="10.00">::Skeleton::size</text>
</a>
</g>
</g>
<!-- Node8&#45;&gt;Node13 -->
<g id="edge12" class="edge"><title>Node8&#45;&gt;Node13</title>
<path fill="none" stroke="midnightblue" d="M550.869,-266.261C563.074,-263.325 576.141,-259.791 588,-255.773 604.583,-250.155 607.316,-245.084 624,-239.773 683.317,-220.89 753.15,-207.741 802.876,-199.853"/>
<polygon fill="midnightblue" stroke="midnightblue" points="803.515,-203.296 812.857,-198.298 802.437,-196.379 803.515,-203.296"/>
</g>
<!-- Node15 -->
<g id="node15" class="node"><title>Node15</title>
<g id="a_node15"><a xlink:href="classRa_1_1Core_1_1Animation_1_1Handle.html#af2c003e7a85469470d5591b019e8ab80" target="_top" xlink:title="Ra::Core::Animation\l::Handle::getLabel">
<polygon fill="white" stroke="black" points="1133,-322.773 1133,-352.773 1245,-352.773 1245,-322.773 1133,-322.773"/>
<text text-anchor="start" x="1141" y="-340.773" font-family="Helvetica,sans-Serif" font-size="10.00">Ra::Core::Animation</text>
<text text-anchor="middle" x="1189" y="-329.773" font-family="Helvetica,sans-Serif" font-size="10.00">::Handle::getLabel</text>
</a>
</g>
</g>
<!-- Node8&#45;&gt;Node15 -->
<g id="edge27" class="edge"><title>Node8&#45;&gt;Node15</title>
<path fill="none" stroke="midnightblue" d="M588.069,-273.408C600.124,-273.144 612.379,-272.919 624,-272.773 691.995,-271.92 709.209,-267.445 777,-272.773 900.108,-282.448 1042.06,-308.183 1122.8,-324.218"/>
<polygon fill="midnightblue" stroke="midnightblue" points="1122.33,-327.692 1132.82,-326.22 1123.7,-320.828 1122.33,-327.692"/>
</g>
<!-- Node24 -->
<g id="node24" class="node"><title>Node24</title>
<g id="a_node24"><a xlink:href="classRa_1_1Core_1_1Animation_1_1Skeleton.html#af7961b862664427a4875bed61e6ff10e" target="_top" xlink:title="Add a new joint transform to the skeleton. ">
<polygon fill="white" stroke="black" points="644,-156.773 644,-186.773 757,-186.773 757,-156.773 644,-156.773"/>
<text text-anchor="start" x="652" y="-174.773" font-family="Helvetica,sans-Serif" font-size="10.00">Ra::Core::Animation</text>
<text text-anchor="middle" x="700.5" y="-163.773" font-family="Helvetica,sans-Serif" font-size="10.00">::Skeleton::addBone</text>
</a>
</g>
</g>
<!-- Node8&#45;&gt;Node24 -->
<g id="edge28" class="edge"><title>Node8&#45;&gt;Node24</title>
<path fill="none" stroke="midnightblue" d="M567.382,-266.203C574.699,-263.531 581.764,-260.121 588,-255.773 611.66,-239.274 601.581,-219.921 624,-201.773 628.892,-197.813 634.373,-194.322 640.088,-191.256"/>
<polygon fill="midnightblue" stroke="midnightblue" points="641.774,-194.328 649.212,-186.784 638.692,-188.043 641.774,-194.328"/>
</g>
<!-- Node26 -->
<g id="node26" class="node"><title>Node26</title>
<g id="a_node26"><a xlink:href="classRa_1_1Core_1_1Asset_1_1HandleData.html#a2448e5bcca7e431128a76de2d7895431" target="_top" xlink:title="Return the transformation of the Handle system. ">
<polygon fill="white" stroke="black" points="624,-107.773 624,-137.773 777,-137.773 777,-107.773 624,-107.773"/>
<text text-anchor="start" x="632" y="-125.773" font-family="Helvetica,sans-Serif" font-size="10.00">Ra::Core::Asset::HandleData</text>
<text text-anchor="middle" x="700.5" y="-114.773" font-family="Helvetica,sans-Serif" font-size="10.00">::getFrame</text>
</a>
</g>
</g>
<!-- Node8&#45;&gt;Node26 -->
<g id="edge32" class="edge"><title>Node8&#45;&gt;Node26</title>
<path fill="none" stroke="midnightblue" d="M572.333,-266.095C578.047,-263.396 583.391,-260.01 588,-255.773 625.557,-221.242 587.723,-182.645 624,-146.773 624.963,-145.821 625.963,-144.907 626.997,-144.029"/>
<polygon fill="midnightblue" stroke="midnightblue" points="629.379,-146.629 635.501,-137.982 625.323,-140.924 629.379,-146.629"/>
</g>
<!-- Node14 -->
<g id="node14" class="node"><title>Node14</title>
<g id="a_node14"><a xlink:href="namespaceRa_1_1Core_1_1Animation.html#a93d6305ed74ab59961969dce601714c2" target="_top" xlink:title="Ra::Core::Animation\l::operator\&lt;\&lt;">
<polygon fill="white" stroke="black" points="969,-175.773 969,-205.773 1081,-205.773 1081,-175.773 969,-175.773"/>
<text text-anchor="start" x="977" y="-193.773" font-family="Helvetica,sans-Serif" font-size="10.00">Ra::Core::Animation</text>
<text text-anchor="middle" x="1025" y="-182.773" font-family="Helvetica,sans-Serif" font-size="10.00">::operator&lt;&lt;</text>
</a>
</g>
</g>
<!-- Node13&#45;&gt;Node14 -->
<g id="edge13" class="edge"><title>Node13&#45;&gt;Node14</title>
<path fill="none" stroke="midnightblue" d="M925.163,-184.27C936.065,-184.017 947.605,-183.958 958.804,-184.094"/>
<polygon fill="midnightblue" stroke="midnightblue" points="958.904,-187.596 968.964,-184.273 959.027,-180.597 958.904,-187.596"/>
</g>
<!-- Node14&#45;&gt;Node13 -->
<g id="edge14" class="edge"><title>Node14&#45;&gt;Node13</title>
<path fill="none" stroke="midnightblue" d="M968.964,-197.273C958.066,-197.527 946.527,-197.588 935.326,-197.453"/>
<polygon fill="midnightblue" stroke="midnightblue" points="935.222,-193.951 925.163,-197.276 935.1,-200.95 935.222,-193.951"/>
</g>
<!-- Node14&#45;&gt;Node15 -->
<g id="edge15" class="edge"><title>Node14&#45;&gt;Node15</title>
<path fill="none" stroke="midnightblue" d="M1050.32,-205.799C1063.02,-214.543 1078.14,-226.456 1089,-239.773 1111.86,-267.812 1098.41,-288.242 1125,-312.773 1126.69,-314.329 1128.48,-315.793 1130.36,-317.17"/>
<polygon fill="midnightblue" stroke="midnightblue" points="1128.71,-320.271 1139.04,-322.666 1132.46,-314.358 1128.71,-320.271"/>
</g>
<!-- Node17 -->
<g id="node17" class="node"><title>Node17</title>
<g id="a_node17"><a xlink:href="classRa_1_1Core_1_1AdjacencyList.html#a4e87e76f65f897cbe99d805b6cb35055" target="_top" xlink:title="Return true if a node is a root node. ">
<polygon fill="white" stroke="black" points="1125,-273.773 1125,-303.773 1253,-303.773 1253,-273.773 1125,-273.773"/>
<text text-anchor="start" x="1133" y="-291.773" font-family="Helvetica,sans-Serif" font-size="10.00">Ra::Core::AdjacencyList</text>
<text text-anchor="middle" x="1189" y="-280.773" font-family="Helvetica,sans-Serif" font-size="10.00">::isRoot</text>
</a>
</g>
</g>
<!-- Node14&#45;&gt;Node17 -->
<g id="edge17" class="edge"><title>Node14&#45;&gt;Node17</title>
<path fill="none" stroke="midnightblue" d="M1045.38,-205.992C1069.31,-224.624 1108.85,-254.811 1125,-263.773 1128.65,-265.796 1132.49,-267.738 1136.41,-269.583"/>
<polygon fill="midnightblue" stroke="midnightblue" points="1135.06,-272.816 1145.62,-273.703 1137.92,-266.426 1135.06,-272.816"/>
</g>
<!-- Node19 -->
<g id="node19" class="node"><title>Node19</title>
<g id="a_node19"><a xlink:href="classRa_1_1Core_1_1AdjacencyList.html#a37f39f4b1560b523a42ec3fb7187da2e" target="_top" xlink:title="Return true if the node is a joint node. ( |child| == 1 ) ">
<polygon fill="white" stroke="black" points="1125,-224.773 1125,-254.773 1253,-254.773 1253,-224.773 1125,-224.773"/>
<text text-anchor="start" x="1133" y="-242.773" font-family="Helvetica,sans-Serif" font-size="10.00">Ra::Core::AdjacencyList</text>
<text text-anchor="middle" x="1189" y="-231.773" font-family="Helvetica,sans-Serif" font-size="10.00">::isJoint</text>
</a>
</g>
</g>
<!-- Node14&#45;&gt;Node19 -->
<g id="edge19" class="edge"><title>Node14&#45;&gt;Node19</title>
<path fill="none" stroke="midnightblue" d="M1075.93,-205.874C1092.48,-210.881 1111.07,-216.505 1128.29,-221.712"/>
<polygon fill="midnightblue" stroke="midnightblue" points="1127.65,-225.176 1138.24,-224.721 1129.68,-218.476 1127.65,-225.176"/>
</g>
<!-- Node20 -->
<g id="node20" class="node"><title>Node20</title>
<g id="a_node20"><a xlink:href="classRa_1_1Core_1_1AdjacencyList.html#a4ed5a37c628d3a1375f14f40bcd219e6" target="_top" xlink:title="Return true if the node is a branch node. ( |child| &gt; 1 ) ">
<polygon fill="white" stroke="black" points="1125,-175.773 1125,-205.773 1253,-205.773 1253,-175.773 1125,-175.773"/>
<text text-anchor="start" x="1133" y="-193.773" font-family="Helvetica,sans-Serif" font-size="10.00">Ra::Core::AdjacencyList</text>
<text text-anchor="middle" x="1189" y="-182.773" font-family="Helvetica,sans-Serif" font-size="10.00">::isBranch</text>
</a>
</g>
</g>
<!-- Node14&#45;&gt;Node20 -->
<g id="edge21" class="edge"><title>Node14&#45;&gt;Node20</title>
<path fill="none" stroke="midnightblue" d="M1081.3,-190.773C1092.04,-190.773 1103.44,-190.773 1114.66,-190.773"/>
<polygon fill="midnightblue" stroke="midnightblue" points="1114.87,-194.273 1124.87,-190.773 1114.87,-187.273 1114.87,-194.273"/>
</g>
<!-- Node21 -->
<g id="node21" class="node"><title>Node21</title>
<g id="a_node21"><a xlink:href="classRa_1_1Core_1_1AdjacencyList.html#a068632657bfda6ab9034a879372a45e8" target="_top" xlink:title="Return true if the node is a leaf node. ">
<polygon fill="white" stroke="black" points="1125,-126.773 1125,-156.773 1253,-156.773 1253,-126.773 1125,-126.773"/>
<text text-anchor="start" x="1133" y="-144.773" font-family="Helvetica,sans-Serif" font-size="10.00">Ra::Core::AdjacencyList</text>
<text text-anchor="middle" x="1189" y="-133.773" font-family="Helvetica,sans-Serif" font-size="10.00">::isLeaf</text>
</a>
</g>
</g>
<!-- Node14&#45;&gt;Node21 -->
<g id="edge23" class="edge"><title>Node14&#45;&gt;Node21</title>
<path fill="none" stroke="midnightblue" d="M1075.93,-175.671C1092.48,-170.665 1111.07,-165.04 1128.29,-159.834"/>
<polygon fill="midnightblue" stroke="midnightblue" points="1129.68,-163.07 1138.24,-156.824 1127.65,-156.37 1129.68,-163.07"/>
</g>
<!-- Node22 -->
<g id="node22" class="node"><title>Node22</title>
<g id="a_node22"><a xlink:href="classRa_1_1Core_1_1AdjacencyList.html#a9c0e48ccbcfec3e3c35bebf6a45c7b12" target="_top" xlink:title="Ra::Core::AdjacencyList\l::parents">
<polygon fill="white" stroke="black" points="1125,-77.7729 1125,-107.773 1253,-107.773 1253,-77.7729 1125,-77.7729"/>
<text text-anchor="start" x="1133" y="-95.7729" font-family="Helvetica,sans-Serif" font-size="10.00">Ra::Core::AdjacencyList</text>
<text text-anchor="middle" x="1189" y="-84.7729" font-family="Helvetica,sans-Serif" font-size="10.00">::parents</text>
</a>
</g>
</g>
<!-- Node14&#45;&gt;Node22 -->
<g id="edge25" class="edge"><title>Node14&#45;&gt;Node22</title>
<path fill="none" stroke="midnightblue" d="M1043.22,-175.543C1062.21,-159.334 1094.17,-133.735 1125,-116.773 1128.01,-115.115 1131.17,-113.521 1134.39,-111.999"/>
<polygon fill="midnightblue" stroke="midnightblue" points="1135.87,-115.171 1143.58,-107.904 1133.02,-108.777 1135.87,-115.171"/>
</g>
<!-- Node23 -->
<g id="node23" class="node"><title>Node23</title>
<g id="a_node23"><a xlink:href="classRa_1_1Core_1_1AdjacencyList.html#a23393ccd75883f2eb35196d7c82ee94f" target="_top" xlink:title="Ra::Core::AdjacencyList\l::children">
<polygon fill="white" stroke="black" points="1125,-28.7729 1125,-58.7729 1253,-58.7729 1253,-28.7729 1125,-28.7729"/>
<text text-anchor="start" x="1133" y="-46.7729" font-family="Helvetica,sans-Serif" font-size="10.00">Ra::Core::AdjacencyList</text>
<text text-anchor="middle" x="1189" y="-35.7729" font-family="Helvetica,sans-Serif" font-size="10.00">::children</text>
</a>
</g>
</g>
<!-- Node14&#45;&gt;Node23 -->
<g id="edge26" class="edge"><title>Node14&#45;&gt;Node23</title>
<path fill="none" stroke="midnightblue" d="M1034.42,-175.762C1049.46,-150.205 1083.31,-98.073 1125,-67.7729 1126.88,-66.403 1128.86,-65.1011 1130.89,-63.8648"/>
<polygon fill="midnightblue" stroke="midnightblue" points="1133.01,-66.6968 1140.14,-58.8576 1129.68,-60.5411 1133.01,-66.6968"/>
</g>
<!-- Node16 -->
<g id="node16" class="node"><title>Node16</title>
<g id="a_node16"><a xlink:href="classRa_1_1Core_1_1Animation_1_1Handle.html#aba876355658e5f8953033d3bb8f18533" target="_top" xlink:title="Ra::Core::Animation\l::Handle::size">
<polygon fill="white" stroke="black" points="1297,-322.773 1297,-352.773 1409,-352.773 1409,-322.773 1297,-322.773"/>
<text text-anchor="start" x="1305" y="-340.773" font-family="Helvetica,sans-Serif" font-size="10.00">Ra::Core::Animation</text>
<text text-anchor="middle" x="1353" y="-329.773" font-family="Helvetica,sans-Serif" font-size="10.00">::Handle::size</text>
</a>
</g>
</g>
<!-- Node15&#45;&gt;Node16 -->
<g id="edge16" class="edge"><title>Node15&#45;&gt;Node16</title>
<path fill="none" stroke="midnightblue" d="M1245.3,-337.773C1258.59,-337.773 1272.92,-337.773 1286.62,-337.773"/>
<polygon fill="midnightblue" stroke="midnightblue" points="1286.95,-341.273 1296.95,-337.773 1286.95,-334.273 1286.95,-341.273"/>
</g>
<!-- Node18 -->
<g id="node18" class="node"><title>Node18</title>
<g id="a_node18"><a xlink:href="classRa_1_1Core_1_1AdjacencyList.html#a15e425543855966a22c3b9339aa27b4d" target="_top" xlink:title="Return the number of nodes in the graph. ">
<polygon fill="white" stroke="black" points="1289,-175.773 1289,-205.773 1417,-205.773 1417,-175.773 1289,-175.773"/>
<text text-anchor="start" x="1297" y="-193.773" font-family="Helvetica,sans-Serif" font-size="10.00">Ra::Core::AdjacencyList</text>
<text text-anchor="middle" x="1353" y="-182.773" font-family="Helvetica,sans-Serif" font-size="10.00">::size</text>
</a>
</g>
</g>
<!-- Node17&#45;&gt;Node18 -->
<g id="edge18" class="edge"><title>Node17&#45;&gt;Node18</title>
<path fill="none" stroke="midnightblue" d="M1232.38,-273.703C1239.41,-270.71 1246.52,-267.37 1253,-263.773 1279.63,-248.996 1307.32,-228.025 1326.62,-212.349"/>
<polygon fill="midnightblue" stroke="midnightblue" points="1328.85,-215.045 1334.35,-205.989 1324.4,-209.64 1328.85,-215.045"/>
</g>
<!-- Node19&#45;&gt;Node18 -->
<g id="edge20" class="edge"><title>Node19&#45;&gt;Node18</title>
<path fill="none" stroke="midnightblue" d="M1239.93,-224.671C1256.48,-219.665 1275.07,-214.04 1292.29,-208.834"/>
<polygon fill="midnightblue" stroke="midnightblue" points="1293.68,-212.07 1302.24,-205.824 1291.65,-205.37 1293.68,-212.07"/>
</g>
<!-- Node20&#45;&gt;Node18 -->
<g id="edge22" class="edge"><title>Node20&#45;&gt;Node18</title>
<path fill="none" stroke="midnightblue" d="M1253.1,-190.773C1261.43,-190.773 1270.04,-190.773 1278.53,-190.773"/>
<polygon fill="midnightblue" stroke="midnightblue" points="1278.81,-194.273 1288.81,-190.773 1278.81,-187.273 1278.81,-194.273"/>
</g>
<!-- Node21&#45;&gt;Node18 -->
<g id="edge24" class="edge"><title>Node21&#45;&gt;Node18</title>
<path fill="none" stroke="midnightblue" d="M1239.93,-156.874C1256.48,-161.881 1275.07,-167.505 1292.29,-172.712"/>
<polygon fill="midnightblue" stroke="midnightblue" points="1291.65,-176.176 1302.24,-175.721 1293.68,-169.476 1291.65,-176.176"/>
</g>
<!-- Node24&#45;&gt;Node13 -->
<g id="edge31" class="edge"><title>Node24&#45;&gt;Node13</title>
<path fill="none" stroke="midnightblue" d="M757.405,-178.152C771.913,-179.808 787.667,-181.606 802.614,-183.311"/>
<polygon fill="midnightblue" stroke="midnightblue" points="802.476,-186.818 812.808,-184.475 803.269,-179.863 802.476,-186.818"/>
</g>
<!-- Node25 -->
<g id="node25" class="node"><title>Node25</title>
<g id="a_node25"><a xlink:href="classRa_1_1Core_1_1AdjacencyList.html#a552db3ba7eb6500561da2141fbe333ea" target="_top" xlink:title="Return the index of the added leaf. Use &#45;1 to create the root node. ">
<polygon fill="white" stroke="black" points="961,-21.7729 961,-51.7729 1089,-51.7729 1089,-21.7729 961,-21.7729"/>
<text text-anchor="start" x="969" y="-39.7729" font-family="Helvetica,sans-Serif" font-size="10.00">Ra::Core::AdjacencyList</text>
<text text-anchor="middle" x="1025" y="-28.7729" font-family="Helvetica,sans-Serif" font-size="10.00">::addNode</text>
</a>
</g>
</g>
<!-- Node24&#45;&gt;Node25 -->
<g id="edge29" class="edge"><title>Node24&#45;&gt;Node25</title>
<path fill="none" stroke="midnightblue" d="M749.28,-156.748C758.535,-153.614 768.115,-150.212 777,-146.773 851.077,-118.095 935.146,-79.2668 983.63,-56.2379"/>
<polygon fill="midnightblue" stroke="midnightblue" points="985.317,-59.3114 992.839,-51.8504 982.306,-52.9919 985.317,-59.3114"/>
</g>
<!-- Node25&#45;&gt;Node18 -->
<g id="edge30" class="edge"><title>Node25&#45;&gt;Node18</title>
<path fill="none" stroke="midnightblue" d="M1063.03,-21.6721C1110.46,-4.91095 1193.62,15.5618 1253,-18.7729 1308.19,-50.6858 1335.32,-126.324 1346.12,-165.806"/>
<polygon fill="midnightblue" stroke="midnightblue" points="1342.78,-166.894 1348.69,-175.693 1349.56,-165.134 1342.78,-166.894"/>
</g>
<!-- Node29 -->
<g id="node29" class="node"><title>Node29</title>
<g id="a_node29"><a xlink:href="classRa_1_1Engine_1_1Component.html#a207c1dc2e97856c22e0767fb77162933" target="_top" xlink:title="Return the entity the component belongs to. ">
<polygon fill="white" stroke="black" points="439,-167.773 439,-197.773 568,-197.773 568,-167.773 439,-167.773"/>
<text text-anchor="start" x="447" y="-185.773" font-family="Helvetica,sans-Serif" font-size="10.00">Ra::Engine::Component</text>
<text text-anchor="middle" x="503.5" y="-174.773" font-family="Helvetica,sans-Serif" font-size="10.00">::getEntity</text>
</a>
</g>
</g>
<!-- Node28&#45;&gt;Node29 -->
<g id="edge35" class="edge"><title>Node28&#45;&gt;Node29</title>
<path fill="none" stroke="midnightblue" d="M345.567,-164.44C371.038,-167.415 401.376,-170.959 428.558,-174.135"/>
<polygon fill="midnightblue" stroke="midnightblue" points="428.466,-177.648 438.805,-175.332 429.278,-170.695 428.466,-177.648"/>
</g>
<!-- Node30 -->
<g id="node30" class="node"><title>Node30</title>
<g id="a_node30"><a xlink:href="classRa_1_1Engine_1_1Component.html#aa3e5cb90432a9a49e4362b673652ff76" target="_top" xlink:title="Return the component&#39;s name. ">
<polygon fill="white" stroke="black" points="439,-118.773 439,-148.773 568,-148.773 568,-118.773 439,-118.773"/>
<text text-anchor="start" x="447" y="-136.773" font-family="Helvetica,sans-Serif" font-size="10.00">Ra::Engine::Component</text>
<text text-anchor="middle" x="503.5" y="-125.773" font-family="Helvetica,sans-Serif" font-size="10.00">::getName</text>
</a>
</g>
</g>
<!-- Node28&#45;&gt;Node30 -->
<g id="edge36" class="edge"><title>Node28&#45;&gt;Node30</title>
<path fill="none" stroke="midnightblue" d="M345.567,-151.373C371.038,-148.516 401.376,-145.114 428.558,-142.065"/>
<polygon fill="midnightblue" stroke="midnightblue" points="429.257,-145.509 438.805,-140.916 428.477,-138.553 429.257,-145.509"/>
</g>
<!-- Node31 -->
<g id="node31" class="node"><title>Node31</title>
<g id="a_node31"><a xlink:href="classRa_1_1Engine_1_1Component.html#aa9416af3319ba92aa7b532952c75e477" target="_top" xlink:title="Set the system to which the component belongs. ">
<polygon fill="white" stroke="black" points="439,-69.7729 439,-99.7729 568,-99.7729 568,-69.7729 439,-69.7729"/>
<text text-anchor="start" x="447" y="-87.7729" font-family="Helvetica,sans-Serif" font-size="10.00">Ra::Engine::Component</text>
<text text-anchor="middle" x="503.5" y="-76.7729" font-family="Helvetica,sans-Serif" font-size="10.00">::setSystem</text>
</a>
</g>
</g>
<!-- Node28&#45;&gt;Node31 -->
<g id="edge37" class="edge"><title>Node28&#45;&gt;Node31</title>
<path fill="none" stroke="midnightblue" d="M326.192,-142.715C352.106,-132.586 387.408,-119.226 419,-108.773 425.254,-106.704 431.804,-104.642 438.367,-102.646"/>
<polygon fill="midnightblue" stroke="midnightblue" points="439.384,-105.995 447.96,-99.7738 437.376,-99.2888 439.384,-105.995"/>
</g>
</g>
</svg>
