<?xml version="1.0" encoding="UTF-8" standalone="no"?>
<!DOCTYPE svg PUBLIC "-//W3C//DTD SVG 1.1//EN"
 "http://www.w3.org/Graphics/SVG/1.1/DTD/svg11.dtd">
<!-- Generated by graphviz version 2.38.0 (20140413.2041)
 -->
<!-- Title: Ra::GuiBase::BaseApplication::initializeOpenGlPlugins Pages: 1 -->
<svg width="310pt" height="88pt"
 viewBox="0.00 0.00 310.00 88.00" xmlns="http://www.w3.org/2000/svg" xmlns:xlink="http://www.w3.org/1999/xlink">
<g id="graph0" class="graph" transform="scale(1 1) rotate(0) translate(4 84)">
<title>Ra::GuiBase::BaseApplication::initializeOpenGlPlugins</title>
<polygon fill="white" stroke="none" points="-4,4 -4,-84 306,-84 306,4 -4,4"/>
<!-- Node1 -->
<g id="node1" class="node"><title>Node1</title>
<polygon fill="#bfbfbf" stroke="black" points="0,-24.5 0,-54.5 157,-54.5 157,-24.5 0,-24.5"/>
<text text-anchor="start" x="8" y="-42.5" font-family="Helvetica,sans-Serif" font-size="10.00">Ra::GuiBase::BaseApplication</text>
<text text-anchor="middle" x="78.5" y="-31.5" font-family="Helvetica,sans-Serif" font-size="10.00">::initializeOpenGlPlugins</text>
</g>
<!-- Node2 -->
<g id="node2" class="node"><title>Node2</title>
<g id="a_node2"><a xlink:href="classRa_1_1Gui_1_1WindowQt.html#a78476baacd2df24a260f604d02c8ddc4" target="_top" xlink:title="Make the OpenGL context associated with the viewer the current context. ">
<polygon fill="white" stroke="black" points="193,-49.5 193,-79.5 302,-79.5 302,-49.5 193,-49.5"/>
<text text-anchor="start" x="201" y="-67.5" font-family="Helvetica,sans-Serif" font-size="10.00">Ra::Gui::WindowQt::</text>
<text text-anchor="middle" x="247.5" y="-56.5" font-family="Helvetica,sans-Serif" font-size="10.00">makeCurrent</text>
</a>
</g>
</g>
<!-- Node1&#45;&gt;Node2 -->
<g id="edge1" class="edge"><title>Node1&#45;&gt;Node2</title>
<path fill="none" stroke="midnightblue" d="M157.133,-51.1217C165.732,-52.409 174.415,-53.7088 182.813,-54.966"/>
<polygon fill="midnightblue" stroke="midnightblue" points="182.484,-58.4557 192.892,-56.4748 183.52,-51.5328 182.484,-58.4557"/>
</g>
<!-- Node3 -->
<g id="node3" class="node"><title>Node3</title>
<g id="a_node3"><a xlink:href="classRa_1_1Gui_1_1WindowQt.html#acd31b9e580f049491d13c16ef954d964" target="_top" xlink:title="Reset the current OpenGL context that is no more the one associated with the viewer. ">
<polygon fill="white" stroke="black" points="193,-0.5 193,-30.5 302,-30.5 302,-0.5 193,-0.5"/>
<text text-anchor="start" x="201" y="-18.5" font-family="Helvetica,sans-Serif" font-size="10.00">Ra::Gui::WindowQt::</text>
<text text-anchor="middle" x="247.5" y="-7.5" font-family="Helvetica,sans-Serif" font-size="10.00">doneCurrent</text>
</a>
</g>
</g>
<!-- Node1&#45;&gt;Node3 -->
<g id="edge2" class="edge"><title>Node1&#45;&gt;Node3</title>
<path fill="none" stroke="midnightblue" d="M157.133,-28.3431C165.732,-27.1074 174.415,-25.8596 182.813,-24.6526"/>
<polygon fill="midnightblue" stroke="midnightblue" points="183.492,-28.0911 192.892,-23.2041 182.496,-21.1623 183.492,-28.0911"/>
</g>
</g>
</svg>
