<?xml version="1.0" encoding="UTF-8" standalone="no"?>
<!DOCTYPE svg PUBLIC "-//W3C//DTD SVG 1.1//EN"
 "http://www.w3.org/Graphics/SVG/1.1/DTD/svg11.dtd">
<!-- Generated by graphviz version 2.38.0 (20140413.2041)
 -->
<!-- Title: Ra::Engine::GeometrySystem::handleAssetLoading Pages: 1 -->
<svg width="501pt" height="186pt"
 viewBox="0.00 0.00 501.00 186.00" xmlns="http://www.w3.org/2000/svg" xmlns:xlink="http://www.w3.org/1999/xlink">
<g id="graph0" class="graph" transform="scale(1 1) rotate(0) translate(4 182)">
<title>Ra::Engine::GeometrySystem::handleAssetLoading</title>
<polygon fill="white" stroke="none" points="-4,4 -4,-182 497,-182 497,4 -4,4"/>
<!-- Node1 -->
<g id="node1" class="node"><title>Node1</title>
<polygon fill="#bfbfbf" stroke="black" points="0,-98.5 0,-128.5 158,-128.5 158,-98.5 0,-98.5"/>
<text text-anchor="start" x="8" y="-116.5" font-family="Helvetica,sans-Serif" font-size="10.00">Ra::Engine::GeometrySystem</text>
<text text-anchor="middle" x="79" y="-105.5" font-family="Helvetica,sans-Serif" font-size="10.00">::handleAssetLoading</text>
</g>
<!-- Node2 -->
<g id="node2" class="node"><title>Node2</title>
<g id="a_node2"><a xlink:href="classRa_1_1Core_1_1Asset_1_1FileData.html#a46beb82e240cf24be6f3c2127e2b4c7a" target="_top" xlink:title="DATA. ">
<polygon fill="white" stroke="black" points="194,-147.5 194,-177.5 328,-177.5 328,-147.5 194,-147.5"/>
<text text-anchor="start" x="202" y="-165.5" font-family="Helvetica,sans-Serif" font-size="10.00">Ra::Core::Asset::FileData</text>
<text text-anchor="middle" x="261" y="-154.5" font-family="Helvetica,sans-Serif" font-size="10.00">::getGeometryData</text>
</a>
</g>
</g>
<!-- Node1&#45;&gt;Node2 -->
<g id="edge1" class="edge"><title>Node1&#45;&gt;Node2</title>
<path fill="none" stroke="midnightblue" d="M135.475,-128.601C154.297,-133.725 175.494,-139.496 194.991,-144.803"/>
<polygon fill="midnightblue" stroke="midnightblue" points="194.14,-148.199 204.708,-147.448 195.979,-141.445 194.14,-148.199"/>
</g>
<!-- Node3 -->
<g id="node3" class="node"><title>Node3</title>
<g id="a_node3"><a xlink:href="classRa_1_1Engine_1_1Entity.html#aaf256bea44bbc5bff6aa504aca05ca35" target="_top" xlink:title="Ra::Engine::Entity\l::getName">
<polygon fill="white" stroke="black" points="211,-98.5 211,-128.5 311,-128.5 311,-98.5 211,-98.5"/>
<text text-anchor="start" x="219" y="-116.5" font-family="Helvetica,sans-Serif" font-size="10.00">Ra::Engine::Entity</text>
<text text-anchor="middle" x="261" y="-105.5" font-family="Helvetica,sans-Serif" font-size="10.00">::getName</text>
</a>
</g>
</g>
<!-- Node1&#45;&gt;Node3 -->
<g id="edge2" class="edge"><title>Node1&#45;&gt;Node3</title>
<path fill="none" stroke="midnightblue" d="M158.165,-113.5C172.455,-113.5 187.149,-113.5 200.774,-113.5"/>
<polygon fill="midnightblue" stroke="midnightblue" points="200.96,-117 210.96,-113.5 200.96,-110 200.96,-117"/>
</g>
<!-- Node4 -->
<g id="node4" class="node"><title>Node4</title>
<g id="a_node4"><a xlink:href="classRa_1_1Engine_1_1System.html#ad7b2a746c42f08a729b4df9b991293a8" target="_top" xlink:title="Registers a component belonging to an entity, making it active within the system. ...">
<polygon fill="white" stroke="black" points="203,-49.5 203,-79.5 319,-79.5 319,-49.5 203,-49.5"/>
<text text-anchor="start" x="211" y="-67.5" font-family="Helvetica,sans-Serif" font-size="10.00">Ra::Engine::System</text>
<text text-anchor="middle" x="261" y="-56.5" font-family="Helvetica,sans-Serif" font-size="10.00">::registerComponent</text>
</a>
</g>
</g>
<!-- Node1&#45;&gt;Node4 -->
<g id="edge3" class="edge"><title>Node1&#45;&gt;Node4</title>
<path fill="none" stroke="midnightblue" d="M135.475,-98.3986C154.297,-93.2747 175.494,-87.5044 194.991,-82.1968"/>
<polygon fill="midnightblue" stroke="midnightblue" points="195.979,-85.5554 204.708,-79.5516 194.14,-78.8012 195.979,-85.5554"/>
</g>
<!-- Node5 -->
<g id="node5" class="node"><title>Node5</title>
<g id="a_node5"><a xlink:href="classRa_1_1Engine_1_1Component.html#a207c1dc2e97856c22e0767fb77162933" target="_top" xlink:title="Return the entity the component belongs to. ">
<polygon fill="white" stroke="black" points="364,-98.5 364,-128.5 493,-128.5 493,-98.5 364,-98.5"/>
<text text-anchor="start" x="372" y="-116.5" font-family="Helvetica,sans-Serif" font-size="10.00">Ra::Engine::Component</text>
<text text-anchor="middle" x="428.5" y="-105.5" font-family="Helvetica,sans-Serif" font-size="10.00">::getEntity</text>
</a>
</g>
</g>
<!-- Node4&#45;&gt;Node5 -->
<g id="edge4" class="edge"><title>Node4&#45;&gt;Node5</title>
<path fill="none" stroke="midnightblue" d="M313.006,-79.6014C330.075,-84.6551 349.268,-90.3376 366.991,-95.5848"/>
<polygon fill="midnightblue" stroke="midnightblue" points="366.08,-98.9654 376.663,-98.4484 368.068,-92.2534 366.08,-98.9654"/>
</g>
<!-- Node6 -->
<g id="node6" class="node"><title>Node6</title>
<g id="a_node6"><a xlink:href="classRa_1_1Engine_1_1Component.html#aa3e5cb90432a9a49e4362b673652ff76" target="_top" xlink:title="Return the component&#39;s name. ">
<polygon fill="white" stroke="black" points="364,-49.5 364,-79.5 493,-79.5 493,-49.5 364,-49.5"/>
<text text-anchor="start" x="372" y="-67.5" font-family="Helvetica,sans-Serif" font-size="10.00">Ra::Engine::Component</text>
<text text-anchor="middle" x="428.5" y="-56.5" font-family="Helvetica,sans-Serif" font-size="10.00">::getName</text>
</a>
</g>
</g>
<!-- Node4&#45;&gt;Node6 -->
<g id="edge5" class="edge"><title>Node4&#45;&gt;Node6</title>
<path fill="none" stroke="midnightblue" d="M319.419,-64.5C330.539,-64.5 342.335,-64.5 353.89,-64.5"/>
<polygon fill="midnightblue" stroke="midnightblue" points="353.959,-68.0001 363.959,-64.5 353.959,-61.0001 353.959,-68.0001"/>
</g>
<!-- Node7 -->
<g id="node7" class="node"><title>Node7</title>
<g id="a_node7"><a xlink:href="classRa_1_1Engine_1_1Component.html#aa9416af3319ba92aa7b532952c75e477" target="_top" xlink:title="Set the system to which the component belongs. ">
<polygon fill="white" stroke="black" points="364,-0.5 364,-30.5 493,-30.5 493,-0.5 364,-0.5"/>
<text text-anchor="start" x="372" y="-18.5" font-family="Helvetica,sans-Serif" font-size="10.00">Ra::Engine::Component</text>
<text text-anchor="middle" x="428.5" y="-7.5" font-family="Helvetica,sans-Serif" font-size="10.00">::setSystem</text>
</a>
</g>
</g>
<!-- Node4&#45;&gt;Node7 -->
<g id="edge6" class="edge"><title>Node4&#45;&gt;Node7</title>
<path fill="none" stroke="midnightblue" d="M313.006,-49.3986C330.075,-44.3449 349.268,-38.6624 366.991,-33.4152"/>
<polygon fill="midnightblue" stroke="midnightblue" points="368.068,-36.7466 376.663,-30.5516 366.08,-30.0346 368.068,-36.7466"/>
</g>
</g>
</svg>
