<?xml version="1.0" encoding="UTF-8" standalone="no"?>
<!DOCTYPE svg PUBLIC "-//W3C//DTD SVG 1.1//EN"
 "http://www.w3.org/Graphics/SVG/1.1/DTD/svg11.dtd">
<!-- Generated by graphviz version 2.38.0 (20140413.2041)
 -->
<!-- Title: Ra::Gui::RotateGizmo::selectConstraint Pages: 1 -->
<svg width="302pt" height="165pt"
 viewBox="0.00 0.00 302.00 165.00" xmlns="http://www.w3.org/2000/svg" xmlns:xlink="http://www.w3.org/1999/xlink">
<g id="graph0" class="graph" transform="scale(1 1) rotate(0) translate(4 161)">
<title>Ra::Gui::RotateGizmo::selectConstraint</title>
<polygon fill="white" stroke="none" points="-4,4 -4,-161 298,-161 298,4 -4,4"/>
<!-- Node1 -->
<g id="node1" class="node"><title>Node1</title>
<polygon fill="#bfbfbf" stroke="black" points="0,-63.5 0,-93.5 118,-93.5 118,-63.5 0,-63.5"/>
<text text-anchor="start" x="8" y="-81.5" font-family="Helvetica,sans-Serif" font-size="10.00">Ra::Gui::RotateGizmo</text>
<text text-anchor="middle" x="59" y="-70.5" font-family="Helvetica,sans-Serif" font-size="10.00">::selectConstraint</text>
</g>
<!-- Node2 -->
<g id="node2" class="node"><title>Node2</title>
<g id="a_node2"><a xlink:href="classRa_1_1Core_1_1Utils_1_1ColorBase.html#aaf67b196b10805750f12f3638ae81516" target="_top" xlink:title="Ra::Core::Utils::ColorBase\l\&lt; Scalar \&gt;::Black">
<polygon fill="white" stroke="black" points="154.5,-126.5 154.5,-156.5 293.5,-156.5 293.5,-126.5 154.5,-126.5"/>
<text text-anchor="start" x="162.5" y="-144.5" font-family="Helvetica,sans-Serif" font-size="10.00">Ra::Core::Utils::ColorBase</text>
<text text-anchor="middle" x="224" y="-133.5" font-family="Helvetica,sans-Serif" font-size="10.00">&lt; Scalar &gt;::Black</text>
</a>
</g>
</g>
<!-- Node1&#45;&gt;Node2 -->
<g id="edge1" class="edge"><title>Node1&#45;&gt;Node2</title>
<path fill="none" stroke="midnightblue" d="M96.4825,-93.6095C113.845,-100.707 134.933,-109.195 154,-116.5 159.488,-118.603 165.238,-120.759 170.978,-122.882"/>
<polygon fill="midnightblue" stroke="midnightblue" points="169.987,-126.246 180.58,-126.407 172.399,-119.675 169.987,-126.246"/>
</g>
<!-- Node3 -->
<g id="node3" class="node"><title>Node3</title>
<g id="a_node3"><a xlink:href="classRa_1_1Gui_1_1Gizmo.html#a3b27e68ee1608637f7197a35e1a916e2" target="_top" xlink:title="read access to the gizmo render objects Meshes ">
<polygon fill="white" stroke="black" points="154,-88 154,-107 294,-107 294,-88 154,-88"/>
<text text-anchor="middle" x="224" y="-95" font-family="Helvetica,sans-Serif" font-size="10.00">Ra::Gui::Gizmo::roMeshes</text>
</a>
</g>
</g>
<!-- Node1&#45;&gt;Node3 -->
<g id="edge2" class="edge"><title>Node1&#45;&gt;Node3</title>
<path fill="none" stroke="midnightblue" d="M118.386,-85.3058C126.659,-86.2701 135.278,-87.2748 143.863,-88.2754"/>
<polygon fill="midnightblue" stroke="midnightblue" points="143.563,-91.7641 153.901,-89.4455 144.374,-84.8112 143.563,-91.7641"/>
</g>
<!-- Node4 -->
<g id="node4" class="node"><title>Node4</title>
<g id="a_node4"><a xlink:href="classRa_1_1Gui_1_1Gizmo.html#a54a7f30aa51625a9a54cf58a03d79e43" target="_top" xlink:title="read access to the gizmo render objects id ">
<polygon fill="white" stroke="black" points="166,-50 166,-69 282,-69 282,-50 166,-50"/>
<text text-anchor="middle" x="224" y="-57" font-family="Helvetica,sans-Serif" font-size="10.00">Ra::Gui::Gizmo::roIds</text>
</a>
</g>
</g>
<!-- Node1&#45;&gt;Node4 -->
<g id="edge3" class="edge"><title>Node1&#45;&gt;Node4</title>
<path fill="none" stroke="midnightblue" d="M118.386,-71.6942C130.447,-70.2883 143.245,-68.7966 155.596,-67.3569"/>
<polygon fill="midnightblue" stroke="midnightblue" points="156.314,-70.797 165.841,-66.1627 155.503,-63.8441 156.314,-70.797"/>
</g>
<!-- Node5 -->
<g id="node5" class="node"><title>Node5</title>
<g id="a_node5"><a xlink:href="classRa_1_1Core_1_1Utils_1_1ColorBase.html#a983f43f3e20bc518a4c2c35fadd4cc7a" target="_top" xlink:title="Ra::Core::Utils::ColorBase\l\&lt; Scalar \&gt;::Yellow">
<polygon fill="white" stroke="black" points="154.5,-0.5 154.5,-30.5 293.5,-30.5 293.5,-0.5 154.5,-0.5"/>
<text text-anchor="start" x="162.5" y="-18.5" font-family="Helvetica,sans-Serif" font-size="10.00">Ra::Core::Utils::ColorBase</text>
<text text-anchor="middle" x="224" y="-7.5" font-family="Helvetica,sans-Serif" font-size="10.00">&lt; Scalar &gt;::Yellow</text>
</a>
</g>
</g>
<!-- Node1&#45;&gt;Node5 -->
<g id="edge4" class="edge"><title>Node1&#45;&gt;Node5</title>
<path fill="none" stroke="midnightblue" d="M96.4825,-63.3905C113.845,-56.2926 134.933,-47.8054 154,-40.5 159.488,-38.3974 165.238,-36.2409 170.978,-34.1181"/>
<polygon fill="midnightblue" stroke="midnightblue" points="172.399,-37.325 180.58,-30.5931 169.987,-30.7538 172.399,-37.325"/>
</g>
</g>
</svg>
