<?xml version="1.0" encoding="UTF-8" standalone="no"?>
<!DOCTYPE svg PUBLIC "-//W3C//DTD SVG 1.1//EN"
 "http://www.w3.org/Graphics/SVG/1.1/DTD/svg11.dtd">
<!-- Generated by graphviz version 2.38.0 (20140413.2041)
 -->
<!-- Title: Ra::Core::Asset::BlinnPhongMaterialData::displayInfo Pages: 1 -->
<svg width="375pt" height="470pt"
 viewBox="0.00 0.00 375.00 469.50" xmlns="http://www.w3.org/2000/svg" xmlns:xlink="http://www.w3.org/1999/xlink">
<g id="graph0" class="graph" transform="scale(1 1) rotate(0) translate(4 465.5)">
<title>Ra::Core::Asset::BlinnPhongMaterialData::displayInfo</title>
<polygon fill="white" stroke="none" points="-4,4 -4,-465.5 371,-465.5 371,4 -4,4"/>
<!-- Node1 -->
<g id="node1" class="node"><title>Node1</title>
<polygon fill="#bfbfbf" stroke="black" points="0,-220.5 0,-250.5 149,-250.5 149,-220.5 0,-220.5"/>
<text text-anchor="start" x="8" y="-238.5" font-family="Helvetica,sans-Serif" font-size="10.00">Ra::Core::Asset::BlinnPhong</text>
<text text-anchor="middle" x="74.5" y="-227.5" font-family="Helvetica,sans-Serif" font-size="10.00">MaterialData::displayInfo</text>
</g>
<!-- Node2 -->
<g id="node2" class="node"><title>Node2</title>
<g id="a_node2"><a xlink:href="namespaceRa_1_1Core_1_1Math.html#a3df3ff63b5fca7b3926d81cc087fd09d" target="_top" xlink:title="Ra::Core::Math::print">
<polygon fill="white" stroke="black" points="218.5,-442 218.5,-461 333.5,-461 333.5,-442 218.5,-442"/>
<text text-anchor="middle" x="276" y="-449" font-family="Helvetica,sans-Serif" font-size="10.00">Ra::Core::Math::print</text>
</a>
</g>
</g>
<!-- Node1&#45;&gt;Node2 -->
<g id="edge1" class="edge"><title>Node1&#45;&gt;Node2</title>
<path fill="none" stroke="midnightblue" d="M79.2683,-250.715C89.3738,-288.147 120.772,-385.1 185,-432.5 191.927,-437.612 199.927,-441.413 208.241,-444.229"/>
<polygon fill="midnightblue" stroke="midnightblue" points="207.52,-447.665 218.1,-447.102 209.479,-440.944 207.52,-447.665"/>
</g>
<!-- Node3 -->
<g id="node3" class="node"><title>Node3</title>
<g id="a_node3"><a xlink:href="classRa_1_1Core_1_1Asset_1_1BlinnPhongMaterialData.html#ac33763dab1ff7fa17783e2c60deb25b3" target="_top" xlink:title="QUERY. ">
<polygon fill="white" stroke="black" points="201.5,-392.5 201.5,-422.5 350.5,-422.5 350.5,-392.5 201.5,-392.5"/>
<text text-anchor="start" x="209.5" y="-410.5" font-family="Helvetica,sans-Serif" font-size="10.00">Ra::Core::Asset::BlinnPhong</text>
<text text-anchor="middle" x="276" y="-399.5" font-family="Helvetica,sans-Serif" font-size="10.00">MaterialData::hasDiffuse</text>
</a>
</g>
</g>
<!-- Node1&#45;&gt;Node3 -->
<g id="edge2" class="edge"><title>Node1&#45;&gt;Node3</title>
<path fill="none" stroke="midnightblue" d="M82.4099,-250.735C96.905,-280.925 133.461,-348.451 185,-383.5 187.382,-385.12 189.868,-386.63 192.432,-388.039"/>
<polygon fill="midnightblue" stroke="midnightblue" points="190.895,-391.184 201.415,-392.447 193.979,-384.899 190.895,-391.184"/>
</g>
<!-- Node4 -->
<g id="node4" class="node"><title>Node4</title>
<g id="a_node4"><a xlink:href="classRa_1_1Core_1_1Asset_1_1BlinnPhongMaterialData.html#a41b63f1d5925524fcc429b03a0c20337" target="_top" xlink:title="Ra::Core::Asset::BlinnPhong\lMaterialData::hasSpecular">
<polygon fill="white" stroke="black" points="201.5,-343.5 201.5,-373.5 350.5,-373.5 350.5,-343.5 201.5,-343.5"/>
<text text-anchor="start" x="209.5" y="-361.5" font-family="Helvetica,sans-Serif" font-size="10.00">Ra::Core::Asset::BlinnPhong</text>
<text text-anchor="middle" x="276" y="-350.5" font-family="Helvetica,sans-Serif" font-size="10.00">MaterialData::hasSpecular</text>
</a>
</g>
</g>
<!-- Node1&#45;&gt;Node4 -->
<g id="edge3" class="edge"><title>Node1&#45;&gt;Node4</title>
<path fill="none" stroke="midnightblue" d="M88.0055,-250.671C106.799,-272.476 144.469,-312.471 185,-334.5 188.321,-336.305 191.786,-337.981 195.341,-339.535"/>
<polygon fill="midnightblue" stroke="midnightblue" points="194.34,-342.904 204.924,-343.374 196.942,-336.406 194.34,-342.904"/>
</g>
<!-- Node5 -->
<g id="node5" class="node"><title>Node5</title>
<g id="a_node5"><a xlink:href="classRa_1_1Core_1_1Asset_1_1BlinnPhongMaterialData.html#a06080a0b2dff920c9aa6ce25b95f727d" target="_top" xlink:title="Ra::Core::Asset::BlinnPhong\lMaterialData::hasShininess">
<polygon fill="white" stroke="black" points="201.5,-294.5 201.5,-324.5 350.5,-324.5 350.5,-294.5 201.5,-294.5"/>
<text text-anchor="start" x="209.5" y="-312.5" font-family="Helvetica,sans-Serif" font-size="10.00">Ra::Core::Asset::BlinnPhong</text>
<text text-anchor="middle" x="276" y="-301.5" font-family="Helvetica,sans-Serif" font-size="10.00">MaterialData::hasShininess</text>
</a>
</g>
</g>
<!-- Node1&#45;&gt;Node5 -->
<g id="edge4" class="edge"><title>Node1&#45;&gt;Node5</title>
<path fill="none" stroke="midnightblue" d="M105.147,-250.68C126.863,-261.392 157.264,-275.549 185,-285.5 190.893,-287.614 197.063,-289.638 203.29,-291.551"/>
<polygon fill="midnightblue" stroke="midnightblue" points="202.509,-294.97 213.092,-294.461 204.502,-288.259 202.509,-294.97"/>
</g>
<!-- Node6 -->
<g id="node6" class="node"><title>Node6</title>
<g id="a_node6"><a xlink:href="classRa_1_1Core_1_1Asset_1_1BlinnPhongMaterialData.html#ae06bb26bc9eca185843f8255594f1a3c" target="_top" xlink:title="Ra::Core::Asset::BlinnPhong\lMaterialData::hasOpacity">
<polygon fill="white" stroke="black" points="201.5,-245.5 201.5,-275.5 350.5,-275.5 350.5,-245.5 201.5,-245.5"/>
<text text-anchor="start" x="209.5" y="-263.5" font-family="Helvetica,sans-Serif" font-size="10.00">Ra::Core::Asset::BlinnPhong</text>
<text text-anchor="middle" x="276" y="-252.5" font-family="Helvetica,sans-Serif" font-size="10.00">MaterialData::hasOpacity</text>
</a>
</g>
</g>
<!-- Node1&#45;&gt;Node6 -->
<g id="edge5" class="edge"><title>Node1&#45;&gt;Node6</title>
<path fill="none" stroke="midnightblue" d="M149.22,-244.738C162.885,-246.451 177.252,-248.251 191.192,-249.998"/>
<polygon fill="midnightblue" stroke="midnightblue" points="190.893,-253.488 201.251,-251.258 191.763,-246.542 190.893,-253.488"/>
</g>
<!-- Node7 -->
<g id="node7" class="node"><title>Node7</title>
<g id="a_node7"><a xlink:href="classRa_1_1Core_1_1Asset_1_1BlinnPhongMaterialData.html#a9408fb258d77f8de7667551febf5bf8c" target="_top" xlink:title="Ra::Core::Asset::BlinnPhong\lMaterialData::hasDiffuseTexture">
<polygon fill="white" stroke="black" points="191.5,-196.5 191.5,-226.5 360.5,-226.5 360.5,-196.5 191.5,-196.5"/>
<text text-anchor="start" x="199.5" y="-214.5" font-family="Helvetica,sans-Serif" font-size="10.00">Ra::Core::Asset::BlinnPhong</text>
<text text-anchor="middle" x="276" y="-203.5" font-family="Helvetica,sans-Serif" font-size="10.00">MaterialData::hasDiffuseTexture</text>
</a>
</g>
</g>
<!-- Node1&#45;&gt;Node7 -->
<g id="edge6" class="edge"><title>Node1&#45;&gt;Node7</title>
<path fill="none" stroke="midnightblue" d="M149.22,-226.631C159.65,-225.377 170.488,-224.073 181.234,-222.78"/>
<polygon fill="midnightblue" stroke="midnightblue" points="181.981,-226.216 191.491,-221.546 181.145,-219.266 181.981,-226.216"/>
</g>
<!-- Node8 -->
<g id="node8" class="node"><title>Node8</title>
<g id="a_node8"><a xlink:href="classRa_1_1Core_1_1Asset_1_1BlinnPhongMaterialData.html#a9b5f156e390267c38fd59354e6677ab4" target="_top" xlink:title="Ra::Core::Asset::BlinnPhong\lMaterialData::hasSpecularTexture">
<polygon fill="white" stroke="black" points="187,-147.5 187,-177.5 365,-177.5 365,-147.5 187,-147.5"/>
<text text-anchor="start" x="195" y="-165.5" font-family="Helvetica,sans-Serif" font-size="10.00">Ra::Core::Asset::BlinnPhong</text>
<text text-anchor="middle" x="276" y="-154.5" font-family="Helvetica,sans-Serif" font-size="10.00">MaterialData::hasSpecularTexture</text>
</a>
</g>
</g>
<!-- Node1&#45;&gt;Node8 -->
<g id="edge7" class="edge"><title>Node1&#45;&gt;Node8</title>
<path fill="none" stroke="midnightblue" d="M106.647,-220.431C128.304,-210.305 158.015,-197.107 185,-187.5 191.827,-185.069 199.013,-182.726 206.225,-180.512"/>
<polygon fill="midnightblue" stroke="midnightblue" points="207.463,-183.795 216.043,-177.579 205.46,-177.088 207.463,-183.795"/>
</g>
<!-- Node9 -->
<g id="node9" class="node"><title>Node9</title>
<g id="a_node9"><a xlink:href="classRa_1_1Core_1_1Asset_1_1BlinnPhongMaterialData.html#a30e541b5ef080e4f90725042bd2badd0" target="_top" xlink:title="Ra::Core::Asset::BlinnPhong\lMaterialData::hasShininessTexture">
<polygon fill="white" stroke="black" points="185,-98.5 185,-128.5 367,-128.5 367,-98.5 185,-98.5"/>
<text text-anchor="start" x="193" y="-116.5" font-family="Helvetica,sans-Serif" font-size="10.00">Ra::Core::Asset::BlinnPhong</text>
<text text-anchor="middle" x="276" y="-105.5" font-family="Helvetica,sans-Serif" font-size="10.00">MaterialData::hasShininessTexture</text>
</a>
</g>
</g>
<!-- Node1&#45;&gt;Node9 -->
<g id="edge8" class="edge"><title>Node1&#45;&gt;Node9</title>
<path fill="none" stroke="midnightblue" d="M88.4199,-220.345C107.438,-198.985 145.06,-160.213 185,-138.5 189.145,-136.247 193.51,-134.182 197.992,-132.294"/>
<polygon fill="midnightblue" stroke="midnightblue" points="199.276,-135.55 207.323,-128.659 196.735,-129.028 199.276,-135.55"/>
</g>
<!-- Node10 -->
<g id="node10" class="node"><title>Node10</title>
<g id="a_node10"><a xlink:href="classRa_1_1Core_1_1Asset_1_1BlinnPhongMaterialData.html#a146dba5b8011025549c0b3771b386ac4" target="_top" xlink:title="Ra::Core::Asset::BlinnPhong\lMaterialData::hasNormalTexture">
<polygon fill="white" stroke="black" points="190.5,-49.5 190.5,-79.5 361.5,-79.5 361.5,-49.5 190.5,-49.5"/>
<text text-anchor="start" x="198.5" y="-67.5" font-family="Helvetica,sans-Serif" font-size="10.00">Ra::Core::Asset::BlinnPhong</text>
<text text-anchor="middle" x="276" y="-56.5" font-family="Helvetica,sans-Serif" font-size="10.00">MaterialData::hasNormalTexture</text>
</a>
</g>
</g>
<!-- Node1&#45;&gt;Node10 -->
<g id="edge9" class="edge"><title>Node1&#45;&gt;Node10</title>
<path fill="none" stroke="midnightblue" d="M82.7249,-220.057C97.5288,-190.134 134.239,-124.162 185,-89.5 187.9,-87.5196 190.954,-85.6953 194.114,-84.015"/>
<polygon fill="midnightblue" stroke="midnightblue" points="195.745,-87.1147 203.264,-79.6503 192.731,-80.7967 195.745,-87.1147"/>
</g>
<!-- Node11 -->
<g id="node11" class="node"><title>Node11</title>
<g id="a_node11"><a xlink:href="classRa_1_1Core_1_1Asset_1_1BlinnPhongMaterialData.html#a2f0e63c332df6d02f9943db624b71d6d" target="_top" xlink:title="Ra::Core::Asset::BlinnPhong\lMaterialData::hasOpacityTexture">
<polygon fill="white" stroke="black" points="190,-0.5 190,-30.5 362,-30.5 362,-0.5 190,-0.5"/>
<text text-anchor="start" x="198" y="-18.5" font-family="Helvetica,sans-Serif" font-size="10.00">Ra::Core::Asset::BlinnPhong</text>
<text text-anchor="middle" x="276" y="-7.5" font-family="Helvetica,sans-Serif" font-size="10.00">MaterialData::hasOpacityTexture</text>
</a>
</g>
</g>
<!-- Node1&#45;&gt;Node11 -->
<g id="edge10" class="edge"><title>Node1&#45;&gt;Node11</title>
<path fill="none" stroke="midnightblue" d="M79.5823,-220.412C90.3059,-183.719 122.826,-89.2577 185,-40.5 187.333,-38.6706 189.791,-36.9749 192.346,-35.4033"/>
<polygon fill="midnightblue" stroke="midnightblue" points="194.231,-38.363 201.357,-30.5234 190.897,-32.2076 194.231,-38.363"/>
</g>
</g>
</svg>
