<?xml version="1.0" encoding="UTF-8" standalone="no"?>
<!DOCTYPE svg PUBLIC "-//W3C//DTD SVG 1.1//EN"
 "http://www.w3.org/Graphics/SVG/1.1/DTD/svg11.dtd">
<!-- Generated by graphviz version 2.38.0 (20140413.2041)
 -->
<!-- Title: Ra::Gui::CameraManipulator::resetToDefaultCamera Pages: 1 -->
<svg width="635pt" height="186pt"
 viewBox="0.00 0.00 635.00 186.00" xmlns="http://www.w3.org/2000/svg" xmlns:xlink="http://www.w3.org/1999/xlink">
<g id="graph0" class="graph" transform="scale(1 1) rotate(0) translate(4 182)">
<title>Ra::Gui::CameraManipulator::resetToDefaultCamera</title>
<polygon fill="white" stroke="none" points="-4,4 -4,-182 631,-182 631,4 -4,4"/>
<!-- Node1 -->
<g id="node1" class="node"><title>Node1</title>
<polygon fill="#bfbfbf" stroke="black" points="0,-73.5 0,-103.5 151,-103.5 151,-73.5 0,-73.5"/>
<text text-anchor="start" x="8" y="-91.5" font-family="Helvetica,sans-Serif" font-size="10.00">Ra::Gui::CameraManipulator</text>
<text text-anchor="middle" x="75.5" y="-80.5" font-family="Helvetica,sans-Serif" font-size="10.00">::resetToDefaultCamera</text>
</g>
<!-- Node2 -->
<g id="node2" class="node"><title>Node2</title>
<g id="a_node2"><a xlink:href="classRa_1_1Engine_1_1Camera.html#acc1bb27e2afe38147548184324ceaa9e" target="_top" xlink:title="Return the width of the viewport. ">
<polygon fill="white" stroke="black" points="187,-147.5 187,-177.5 298,-177.5 298,-147.5 187,-147.5"/>
<text text-anchor="start" x="195" y="-165.5" font-family="Helvetica,sans-Serif" font-size="10.00">Ra::Engine::Camera</text>
<text text-anchor="middle" x="242.5" y="-154.5" font-family="Helvetica,sans-Serif" font-size="10.00">::getWidth</text>
</a>
</g>
</g>
<!-- Node1&#45;&gt;Node2 -->
<g id="edge1" class="edge"><title>Node1&#45;&gt;Node2</title>
<path fill="none" stroke="midnightblue" d="M109.825,-103.685C131.733,-113.641 161.043,-126.912 187,-138.5 190.562,-140.09 194.259,-141.733 197.972,-143.379"/>
<polygon fill="midnightblue" stroke="midnightblue" points="196.61,-146.603 207.171,-147.446 199.44,-140.201 196.61,-146.603"/>
</g>
<!-- Node3 -->
<g id="node3" class="node"><title>Node3</title>
<g id="a_node3"><a xlink:href="classRa_1_1Engine_1_1Camera.html#af9756bbd9e75f5b762a42f3e9e275af8" target="_top" xlink:title="Return the height of the viewport. ">
<polygon fill="white" stroke="black" points="187,-98.5 187,-128.5 298,-128.5 298,-98.5 187,-98.5"/>
<text text-anchor="start" x="195" y="-116.5" font-family="Helvetica,sans-Serif" font-size="10.00">Ra::Engine::Camera</text>
<text text-anchor="middle" x="242.5" y="-105.5" font-family="Helvetica,sans-Serif" font-size="10.00">::getHeight</text>
</a>
</g>
</g>
<!-- Node1&#45;&gt;Node3 -->
<g id="edge2" class="edge"><title>Node1&#45;&gt;Node3</title>
<path fill="none" stroke="midnightblue" d="M151.276,-99.8297C159.762,-101.116 168.359,-102.418 176.702,-103.682"/>
<polygon fill="midnightblue" stroke="midnightblue" points="176.318,-107.164 186.729,-105.201 177.366,-100.243 176.318,-107.164"/>
</g>
<!-- Node4 -->
<g id="node4" class="node"><title>Node4</title>
<g id="a_node4"><a xlink:href="classRa_1_1Engine_1_1Camera.html#a2acbb1a258f8d0af86edcd978cfbf3e1" target="_top" xlink:title="Change the viewport size. ">
<polygon fill="white" stroke="black" points="187,-49.5 187,-79.5 298,-79.5 298,-49.5 187,-49.5"/>
<text text-anchor="start" x="195" y="-67.5" font-family="Helvetica,sans-Serif" font-size="10.00">Ra::Engine::Camera</text>
<text text-anchor="middle" x="242.5" y="-56.5" font-family="Helvetica,sans-Serif" font-size="10.00">::resize</text>
</a>
</g>
</g>
<!-- Node1&#45;&gt;Node4 -->
<g id="edge3" class="edge"><title>Node1&#45;&gt;Node4</title>
<path fill="none" stroke="midnightblue" d="M151.276,-77.6235C159.762,-76.3891 168.359,-75.1387 176.702,-73.9251"/>
<polygon fill="midnightblue" stroke="midnightblue" points="177.337,-77.3697 186.729,-72.4666 176.33,-70.4426 177.337,-77.3697"/>
</g>
<!-- Node7 -->
<g id="node7" class="node"><title>Node7</title>
<g id="a_node7"><a xlink:href="classRa_1_1Engine_1_1Camera.html#a4c2aac5ad419cef7720e2a18d93b3703" target="_top" xlink:title="Toggle on/off displaying the Camera. ">
<polygon fill="white" stroke="black" points="187,-0.5 187,-30.5 298,-30.5 298,-0.5 187,-0.5"/>
<text text-anchor="start" x="195" y="-18.5" font-family="Helvetica,sans-Serif" font-size="10.00">Ra::Engine::Camera</text>
<text text-anchor="middle" x="242.5" y="-7.5" font-family="Helvetica,sans-Serif" font-size="10.00">::show</text>
</a>
</g>
</g>
<!-- Node1&#45;&gt;Node7 -->
<g id="edge6" class="edge"><title>Node1&#45;&gt;Node7</title>
<path fill="none" stroke="midnightblue" d="M110.343,-73.4656C132.209,-63.7588 161.279,-50.8663 187,-39.5 190.568,-37.9231 194.269,-36.2897 197.985,-34.6506"/>
<polygon fill="midnightblue" stroke="midnightblue" points="199.45,-37.83 207.188,-30.5937 196.626,-31.4247 199.45,-37.83"/>
</g>
<!-- Node5 -->
<g id="node5" class="node"><title>Node5</title>
<g id="a_node5"><a xlink:href="classRa_1_1Engine_1_1Camera.html#a2124136d939bd433f9630e23c403cdd6" target="_top" xlink:title="Update the projection matrix according to the current parameters. ">
<polygon fill="white" stroke="black" points="347,-49.5 347,-79.5 458,-79.5 458,-49.5 347,-49.5"/>
<text text-anchor="start" x="355" y="-67.5" font-family="Helvetica,sans-Serif" font-size="10.00">Ra::Engine::Camera</text>
<text text-anchor="middle" x="402.5" y="-56.5" font-family="Helvetica,sans-Serif" font-size="10.00">::updateProjMatrix</text>
</a>
</g>
</g>
<!-- Node4&#45;&gt;Node5 -->
<g id="edge4" class="edge"><title>Node4&#45;&gt;Node5</title>
<path fill="none" stroke="midnightblue" d="M298.317,-64.5C310.695,-64.5 323.95,-64.5 336.694,-64.5"/>
<polygon fill="midnightblue" stroke="midnightblue" points="336.78,-68.0001 346.78,-64.5 336.78,-61.0001 336.78,-68.0001"/>
</g>
<!-- Node6 -->
<g id="node6" class="node"><title>Node6</title>
<g id="a_node6"><a xlink:href="namespaceRa_1_1Core_1_1Geometry.html#aa04e6052d8911b1df1bd881474debb45" target="_top" xlink:title="Ra::Core::Geometry::t">
<polygon fill="white" stroke="black" points="507,-55 507,-74 627,-74 627,-55 507,-55"/>
<text text-anchor="middle" x="567" y="-62" font-family="Helvetica,sans-Serif" font-size="10.00">Ra::Core::Geometry::t</text>
</a>
</g>
</g>
<!-- Node5&#45;&gt;Node6 -->
<g id="edge5" class="edge"><title>Node5&#45;&gt;Node6</title>
<path fill="none" stroke="midnightblue" d="M458.062,-64.5C470.43,-64.5 483.727,-64.5 496.616,-64.5"/>
<polygon fill="midnightblue" stroke="midnightblue" points="496.84,-68.0001 506.84,-64.5 496.84,-61.0001 496.84,-68.0001"/>
</g>
<!-- Node8 -->
<g id="node8" class="node"><title>Node8</title>
<g id="a_node8"><a xlink:href="classRa_1_1Engine_1_1RenderObject.html#a62e0eb3a7de5a7d352b565a28260cc06" target="_top" xlink:title="Ra::Engine::RenderObject\l::setVisible">
<polygon fill="white" stroke="black" points="334,-0.5 334,-30.5 471,-30.5 471,-0.5 334,-0.5"/>
<text text-anchor="start" x="342" y="-18.5" font-family="Helvetica,sans-Serif" font-size="10.00">Ra::Engine::RenderObject</text>
<text text-anchor="middle" x="402.5" y="-7.5" font-family="Helvetica,sans-Serif" font-size="10.00">::setVisible</text>
</a>
</g>
</g>
<!-- Node7&#45;&gt;Node8 -->
<g id="edge7" class="edge"><title>Node7&#45;&gt;Node8</title>
<path fill="none" stroke="midnightblue" d="M298.317,-15.5C306.581,-15.5 315.236,-15.5 323.869,-15.5"/>
<polygon fill="midnightblue" stroke="midnightblue" points="323.968,-19.0001 333.968,-15.5 323.968,-12.0001 323.968,-19.0001"/>
</g>
</g>
</svg>
