<?xml version="1.0" encoding="UTF-8" standalone="no"?>
<!DOCTYPE svg PUBLIC "-//W3C//DTD SVG 1.1//EN"
 "http://www.w3.org/Graphics/SVG/1.1/DTD/svg11.dtd">
<!-- Generated by graphviz version 2.38.0 (20140413.2041)
 -->
<!-- Title: Ra::Core::Geometry::PolyLine::project Pages: 1 -->
<svg width="466pt" height="179pt"
 viewBox="0.00 0.00 466.00 178.50" xmlns="http://www.w3.org/2000/svg" xmlns:xlink="http://www.w3.org/1999/xlink">
<g id="graph0" class="graph" transform="scale(1 1) rotate(0) translate(4 174.5)">
<title>Ra::Core::Geometry::PolyLine::project</title>
<polygon fill="white" stroke="none" points="-4,4 -4,-174.5 462,-174.5 462,4 -4,4"/>
<!-- Node1 -->
<g id="node1" class="node"><title>Node1</title>
<polygon fill="#bfbfbf" stroke="black" points="0,-63.5 0,-93.5 111,-93.5 111,-63.5 0,-63.5"/>
<text text-anchor="start" x="8" y="-81.5" font-family="Helvetica,sans-Serif" font-size="10.00">Ra::Core::Geometry</text>
<text text-anchor="middle" x="55.5" y="-70.5" font-family="Helvetica,sans-Serif" font-size="10.00">::PolyLine::project</text>
</g>
<!-- Node2 -->
<g id="node2" class="node"><title>Node2</title>
<g id="a_node2"><a xlink:href="namespaceRa_1_1Core_1_1Geometry.html#a749ee9e81862ef200b0b7540cc1f16bc" target="_top" xlink:title="Project point Q on segment AB defined by point A and vector AB = (B &#45;A). ">
<polygon fill="white" stroke="black" points="167,-126.5 167,-156.5 280,-156.5 280,-126.5 167,-126.5"/>
<text text-anchor="start" x="175" y="-144.5" font-family="Helvetica,sans-Serif" font-size="10.00">Ra::Core::Geometry</text>
<text text-anchor="middle" x="223.5" y="-133.5" font-family="Helvetica,sans-Serif" font-size="10.00">::projectOnSegment</text>
</a>
</g>
</g>
<!-- Node1&#45;&gt;Node2 -->
<g id="edge1" class="edge"><title>Node1&#45;&gt;Node2</title>
<path fill="none" stroke="midnightblue" d="M90.6279,-93.569C107.473,-100.817 128.171,-109.442 147,-116.5 152.939,-118.726 159.178,-120.959 165.418,-123.123"/>
<polygon fill="midnightblue" stroke="midnightblue" points="164.586,-126.538 175.181,-126.458 166.849,-119.914 164.586,-126.538"/>
</g>
<!-- Node5 -->
<g id="node5" class="node"><title>Node5</title>
<g id="a_node5"><a xlink:href="namespaceRa_1_1Core_1_1Geometry.html#aa04e6052d8911b1df1bd881474debb45" target="_top" xlink:title="Ra::Core::Geometry::t">
<polygon fill="white" stroke="black" points="163.5,-88 163.5,-107 283.5,-107 283.5,-88 163.5,-88"/>
<text text-anchor="middle" x="223.5" y="-95" font-family="Helvetica,sans-Serif" font-size="10.00">Ra::Core::Geometry::t</text>
</a>
</g>
</g>
<!-- Node1&#45;&gt;Node5 -->
<g id="edge4" class="edge"><title>Node1&#45;&gt;Node5</title>
<path fill="none" stroke="midnightblue" d="M111.315,-84.774C124.765,-86.3135 139.337,-87.9813 153.364,-89.5869"/>
<polygon fill="midnightblue" stroke="midnightblue" points="153.126,-93.0823 163.459,-90.7423 153.922,-86.1277 153.126,-93.0823"/>
</g>
<!-- Node6 -->
<g id="node6" class="node"><title>Node6</title>
<g id="a_node6"><a xlink:href="namespaceRa_1_1Core_1_1Math.html#a8667e211f2182821346ba4bcfe07b053" target="_top" xlink:title="Get the cotangent of the angle between two vectors. ">
<polygon fill="white" stroke="black" points="163.5,-50 163.5,-69 283.5,-69 283.5,-50 163.5,-50"/>
<text text-anchor="middle" x="223.5" y="-57" font-family="Helvetica,sans-Serif" font-size="10.00">Ra::Core::Math::cotan</text>
</a>
</g>
</g>
<!-- Node1&#45;&gt;Node6 -->
<g id="edge5" class="edge"><title>Node1&#45;&gt;Node6</title>
<path fill="none" stroke="midnightblue" d="M111.315,-72.226C124.765,-70.6865 139.337,-69.0187 153.364,-67.4131"/>
<polygon fill="midnightblue" stroke="midnightblue" points="153.922,-70.8723 163.459,-66.2577 153.126,-63.9177 153.922,-70.8723"/>
</g>
<!-- Node7 -->
<g id="node7" class="node"><title>Node7</title>
<g id="a_node7"><a xlink:href="classRa_1_1Core_1_1Geometry_1_1PolyLine.html#a0a39e8afbbe12da750ec49276a3f9269" target="_top" xlink:title="Given a point on one of the segments identified by parameter tSegment in [0,1] and segment number...">
<polygon fill="white" stroke="black" points="147,-0.5 147,-30.5 300,-30.5 300,-0.5 147,-0.5"/>
<text text-anchor="start" x="155" y="-18.5" font-family="Helvetica,sans-Serif" font-size="10.00">Ra::Core::Geometry</text>
<text text-anchor="middle" x="223.5" y="-7.5" font-family="Helvetica,sans-Serif" font-size="10.00">::PolyLine::getLineParameter</text>
</a>
</g>
</g>
<!-- Node1&#45;&gt;Node7 -->
<g id="edge6" class="edge"><title>Node1&#45;&gt;Node7</title>
<path fill="none" stroke="midnightblue" d="M90.6279,-63.431C107.473,-56.1831 128.171,-47.5581 147,-40.5 152.939,-38.2736 159.178,-36.0412 165.418,-33.8767"/>
<polygon fill="midnightblue" stroke="midnightblue" points="166.849,-37.0865 175.181,-30.5418 164.586,-30.4623 166.849,-37.0865"/>
</g>
<!-- Node3 -->
<g id="node3" class="node"><title>Node3</title>
<g id="a_node3"><a xlink:href="namespaceRa_1_1Core_1_1Math.html#acc9f6f3b880b60bf0ee7723afabaf180" target="_top" xlink:title="Component&#45;wise clamp() function on a floating&#45;point vector. ">
<polygon fill="white" stroke="black" points="336,-151 336,-170 458,-170 458,-151 336,-151"/>
<text text-anchor="middle" x="397" y="-158" font-family="Helvetica,sans-Serif" font-size="10.00">Ra::Core::Math::clamp</text>
</a>
</g>
</g>
<!-- Node2&#45;&gt;Node3 -->
<g id="edge2" class="edge"><title>Node2&#45;&gt;Node3</title>
<path fill="none" stroke="midnightblue" d="M280.181,-147.669C294.644,-149.271 310.414,-151.018 325.529,-152.693"/>
<polygon fill="midnightblue" stroke="midnightblue" points="325.541,-156.215 335.865,-153.838 326.311,-149.258 325.541,-156.215"/>
</g>
<!-- Node4 -->
<g id="node4" class="node"><title>Node4</title>
<g id="a_node4"><a xlink:href="namespaceOpenMesh.html#a575b338f0fc9ecb5393d23e977e6ac38" target="_top" xlink:title="OpenMesh::dot">
<polygon fill="white" stroke="black" points="352.5,-113 352.5,-132 441.5,-132 441.5,-113 352.5,-113"/>
<text text-anchor="middle" x="397" y="-120" font-family="Helvetica,sans-Serif" font-size="10.00">OpenMesh::dot</text>
</a>
</g>
</g>
<!-- Node2&#45;&gt;Node4 -->
<g id="edge3" class="edge"><title>Node2&#45;&gt;Node4</title>
<path fill="none" stroke="midnightblue" d="M280.181,-135.331C300.087,-133.126 322.468,-130.646 342.211,-128.459"/>
<polygon fill="midnightblue" stroke="midnightblue" points="342.715,-131.925 352.268,-127.345 341.944,-124.967 342.715,-131.925"/>
</g>
<!-- Node8 -->
<g id="node8" class="node"><title>Node8</title>
<g id="a_node8"><a xlink:href="classRa_1_1Core_1_1Geometry_1_1PolyLine.html#a2902446ee56d44c7ac8003e7b9335652" target="_top" xlink:title="Get the total length of the line . ">
<polygon fill="white" stroke="black" points="341.5,-0.5 341.5,-30.5 452.5,-30.5 452.5,-0.5 341.5,-0.5"/>
<text text-anchor="start" x="349.5" y="-18.5" font-family="Helvetica,sans-Serif" font-size="10.00">Ra::Core::Geometry</text>
<text text-anchor="middle" x="397" y="-7.5" font-family="Helvetica,sans-Serif" font-size="10.00">::PolyLine::length</text>
</a>
</g>
</g>
<!-- Node7&#45;&gt;Node8 -->
<g id="edge7" class="edge"><title>Node7&#45;&gt;Node8</title>
<path fill="none" stroke="midnightblue" d="M300.222,-15.5C310.478,-15.5 320.928,-15.5 330.974,-15.5"/>
<polygon fill="midnightblue" stroke="midnightblue" points="331.272,-19.0001 341.272,-15.5 331.272,-12.0001 331.272,-19.0001"/>
</g>
</g>
</svg>
