<?xml version="1.0" encoding="UTF-8" standalone="no"?>
<!DOCTYPE svg PUBLIC "-//W3C//DTD SVG 1.1//EN"
 "http://www.w3.org/Graphics/SVG/1.1/DTD/svg11.dtd">
<!-- Generated by graphviz version 2.38.0 (20140413.2041)
 -->
<!-- Title: Ra::Gui::FlightCameraManipulator::FlightCameraManipulator Pages: 1 -->
<svg width="891pt" height="274pt"
 viewBox="0.00 0.00 891.00 274.00" xmlns="http://www.w3.org/2000/svg" xmlns:xlink="http://www.w3.org/1999/xlink">
<g id="graph0" class="graph" transform="scale(1 1) rotate(0) translate(4 270)">
<title>Ra::Gui::FlightCameraManipulator::FlightCameraManipulator</title>
<polygon fill="white" stroke="none" points="-4,4 -4,-270 887,-270 887,4 -4,4"/>
<!-- Node1 -->
<g id="node1" class="node"><title>Node1</title>
<polygon fill="#bfbfbf" stroke="black" points="0,-120.5 0,-150.5 176,-150.5 176,-120.5 0,-120.5"/>
<text text-anchor="start" x="8" y="-138.5" font-family="Helvetica,sans-Serif" font-size="10.00">Ra::Gui::FlightCameraManipulator</text>
<text text-anchor="middle" x="88" y="-127.5" font-family="Helvetica,sans-Serif" font-size="10.00">::FlightCameraManipulator</text>
</g>
<!-- Node2 -->
<g id="node2" class="node"><title>Node2</title>
<g id="a_node2"><a xlink:href="classRa_1_1Gui_1_1FlightCameraManipulator.html#a17ab04bf806ecdf489d9302074a9c3f4" target="_top" xlink:title="Ra::Gui::FlightCameraManipulator\l::resetCamera">
<polygon fill="white" stroke="black" points="212,-120.5 212,-150.5 388,-150.5 388,-120.5 212,-120.5"/>
<text text-anchor="start" x="220" y="-138.5" font-family="Helvetica,sans-Serif" font-size="10.00">Ra::Gui::FlightCameraManipulator</text>
<text text-anchor="middle" x="300" y="-127.5" font-family="Helvetica,sans-Serif" font-size="10.00">::resetCamera</text>
</a>
</g>
</g>
<!-- Node1&#45;&gt;Node2 -->
<g id="edge1" class="edge"><title>Node1&#45;&gt;Node2</title>
<path fill="none" stroke="midnightblue" d="M176.235,-135.5C184.567,-135.5 193.052,-135.5 201.474,-135.5"/>
<polygon fill="midnightblue" stroke="midnightblue" points="201.699,-139 211.699,-135.5 201.699,-132 201.699,-139"/>
</g>
<!-- Node3 -->
<g id="node3" class="node"><title>Node3</title>
<g id="a_node3"><a xlink:href="classRa_1_1Engine_1_1Camera.html#afb2eb1eaed43dfbad89a89f90c067b4e" target="_top" xlink:title="Set the frame of the camera to &#39;frame&#39;. ">
<polygon fill="white" stroke="black" points="424,-235.5 424,-265.5 535,-265.5 535,-235.5 424,-235.5"/>
<text text-anchor="start" x="432" y="-253.5" font-family="Helvetica,sans-Serif" font-size="10.00">Ra::Engine::Camera</text>
<text text-anchor="middle" x="479.5" y="-242.5" font-family="Helvetica,sans-Serif" font-size="10.00">::setFrame</text>
</a>
</g>
</g>
<!-- Node2&#45;&gt;Node3 -->
<g id="edge2" class="edge"><title>Node2&#45;&gt;Node3</title>
<path fill="none" stroke="midnightblue" d="M318.871,-150.72C342.056,-169.984 384.255,-203.432 424,-226.5 426.642,-228.033 429.4,-229.533 432.212,-230.985"/>
<polygon fill="midnightblue" stroke="midnightblue" points="430.784,-234.183 441.303,-235.449 433.869,-227.899 430.784,-234.183"/>
</g>
<!-- Node4 -->
<g id="node4" class="node"><title>Node4</title>
<g id="a_node4"><a xlink:href="classRa_1_1Engine_1_1Camera.html#ab8f9fdfba7355b4589c4d9cb39f0b527" target="_top" xlink:title="Set the position of the camera to &#39;position&#39;. ">
<polygon fill="white" stroke="black" points="424,-186.5 424,-216.5 535,-216.5 535,-186.5 424,-186.5"/>
<text text-anchor="start" x="432" y="-204.5" font-family="Helvetica,sans-Serif" font-size="10.00">Ra::Engine::Camera</text>
<text text-anchor="middle" x="479.5" y="-193.5" font-family="Helvetica,sans-Serif" font-size="10.00">::setPosition</text>
</a>
</g>
</g>
<!-- Node2&#45;&gt;Node4 -->
<g id="edge3" class="edge"><title>Node2&#45;&gt;Node4</title>
<path fill="none" stroke="midnightblue" d="M341.722,-150.642C367.541,-160.242 401.121,-172.728 428.546,-182.926"/>
<polygon fill="midnightblue" stroke="midnightblue" points="427.375,-186.224 437.967,-186.429 429.814,-179.663 427.375,-186.224"/>
</g>
<!-- Node6 -->
<g id="node6" class="node"><title>Node6</title>
<g id="a_node6"><a xlink:href="classRa_1_1Engine_1_1Camera.html#a724a052e94817af7e602129467c8696f" target="_top" xlink:title="Return the position. ">
<polygon fill="white" stroke="black" points="759,-142.5 759,-172.5 870,-172.5 870,-142.5 759,-142.5"/>
<text text-anchor="start" x="767" y="-160.5" font-family="Helvetica,sans-Serif" font-size="10.00">Ra::Engine::Camera</text>
<text text-anchor="middle" x="814.5" y="-149.5" font-family="Helvetica,sans-Serif" font-size="10.00">::getPosition</text>
</a>
</g>
</g>
<!-- Node2&#45;&gt;Node6 -->
<g id="edge7" class="edge"><title>Node2&#45;&gt;Node6</title>
<path fill="none" stroke="midnightblue" d="M388.229,-139.244C490.441,-143.632 657.416,-150.8 748.767,-154.721"/>
<polygon fill="midnightblue" stroke="midnightblue" points="748.843,-158.228 758.984,-155.16 749.143,-151.234 748.843,-158.228"/>
</g>
<!-- Node8 -->
<g id="node8" class="node"><title>Node8</title>
<g id="a_node8"><a xlink:href="classRa_1_1Engine_1_1Camera.html#a23be7aa714c0e9c2a9429dfc9ef2c53a" target="_top" xlink:title="Return the direction the camera is looking at. ">
<polygon fill="white" stroke="black" points="424,-98.5 424,-128.5 535,-128.5 535,-98.5 424,-98.5"/>
<text text-anchor="start" x="432" y="-116.5" font-family="Helvetica,sans-Serif" font-size="10.00">Ra::Engine::Camera</text>
<text text-anchor="middle" x="479.5" y="-105.5" font-family="Helvetica,sans-Serif" font-size="10.00">::getDirection</text>
</a>
</g>
</g>
<!-- Node2&#45;&gt;Node8 -->
<g id="edge8" class="edge"><title>Node2&#45;&gt;Node8</title>
<path fill="none" stroke="midnightblue" d="M388.19,-124.693C396.792,-123.627 405.413,-122.559 413.73,-121.528"/>
<polygon fill="midnightblue" stroke="midnightblue" points="414.21,-124.995 423.703,-120.292 413.348,-118.048 414.21,-124.995"/>
</g>
<!-- Node9 -->
<g id="node9" class="node"><title>Node9</title>
<g id="a_node9"><a xlink:href="classRa_1_1Engine_1_1Light.html#a1bf2c510e62b2a99f0012a39ad218378" target="_top" xlink:title="Set the position of the light source. ">
<polygon fill="white" stroke="black" points="428.5,-49.5 428.5,-79.5 530.5,-79.5 530.5,-49.5 428.5,-49.5"/>
<text text-anchor="start" x="436.5" y="-67.5" font-family="Helvetica,sans-Serif" font-size="10.00">Ra::Engine::Light::</text>
<text text-anchor="middle" x="479.5" y="-56.5" font-family="Helvetica,sans-Serif" font-size="10.00">setPosition</text>
</a>
</g>
</g>
<!-- Node2&#45;&gt;Node9 -->
<g id="edge9" class="edge"><title>Node2&#45;&gt;Node9</title>
<path fill="none" stroke="midnightblue" d="M338.643,-120.443C365.706,-109.618 402.387,-94.9452 431.393,-83.3427"/>
<polygon fill="midnightblue" stroke="midnightblue" points="432.926,-86.4992 440.911,-79.5356 430.326,-79.9999 432.926,-86.4992"/>
</g>
<!-- Node11 -->
<g id="node11" class="node"><title>Node11</title>
<g id="a_node11"><a xlink:href="classRa_1_1Engine_1_1Light.html#a24e11b300dfe4e2a785d87b6de74b036" target="_top" xlink:title="set the direction of lighting ">
<polygon fill="white" stroke="black" points="428.5,-0.5 428.5,-30.5 530.5,-30.5 530.5,-0.5 428.5,-0.5"/>
<text text-anchor="start" x="436.5" y="-18.5" font-family="Helvetica,sans-Serif" font-size="10.00">Ra::Engine::Light::</text>
<text text-anchor="middle" x="479.5" y="-7.5" font-family="Helvetica,sans-Serif" font-size="10.00">setDirection</text>
</a>
</g>
</g>
<!-- Node2&#45;&gt;Node11 -->
<g id="edge11" class="edge"><title>Node2&#45;&gt;Node11</title>
<path fill="none" stroke="midnightblue" d="M318.014,-120.325C340.953,-100.355 383.595,-64.9331 424,-40.5 426.986,-38.6947 430.123,-36.9335 433.323,-35.236"/>
<polygon fill="midnightblue" stroke="midnightblue" points="435.079,-38.2701 442.426,-30.6363 431.922,-32.0224 435.079,-38.2701"/>
</g>
<!-- Node5 -->
<g id="node5" class="node"><title>Node5</title>
<g id="a_node5"><a xlink:href="classRa_1_1Engine_1_1Camera.html#a7a2c1c84e3063c6c3f09d490477abb0f" target="_top" xlink:title="Apply the local transformation &#39;T&#39; to the camera. ">
<polygon fill="white" stroke="black" points="585,-186.5 585,-216.5 696,-216.5 696,-186.5 585,-186.5"/>
<text text-anchor="start" x="593" y="-204.5" font-family="Helvetica,sans-Serif" font-size="10.00">Ra::Engine::Camera</text>
<text text-anchor="middle" x="640.5" y="-193.5" font-family="Helvetica,sans-Serif" font-size="10.00">::applyTransform</text>
</a>
</g>
</g>
<!-- Node4&#45;&gt;Node5 -->
<g id="edge4" class="edge"><title>Node4&#45;&gt;Node5</title>
<path fill="none" stroke="midnightblue" d="M535.219,-201.5C547.907,-201.5 561.53,-201.5 574.607,-201.5"/>
<polygon fill="midnightblue" stroke="midnightblue" points="574.95,-205 584.95,-201.5 574.95,-198 574.95,-205"/>
</g>
<!-- Node5&#45;&gt;Node6 -->
<g id="edge5" class="edge"><title>Node5&#45;&gt;Node6</title>
<path fill="none" stroke="midnightblue" d="M696.395,-187.457C713.078,-183.189 731.567,-178.46 748.831,-174.043"/>
<polygon fill="midnightblue" stroke="midnightblue" points="750.011,-177.354 758.832,-171.485 748.276,-170.573 750.011,-177.354"/>
</g>
<!-- Node7 -->
<g id="node7" class="node"><title>Node7</title>
<g id="a_node7"><a xlink:href="classRa_1_1Engine_1_1RenderObject.html#a2d6a1bc2b7646fe0912035a2ece24864" target="_top" xlink:title="Ra::Engine::RenderObject\l::setLocalTransform">
<polygon fill="white" stroke="black" points="746,-191.5 746,-221.5 883,-221.5 883,-191.5 746,-191.5"/>
<text text-anchor="start" x="754" y="-209.5" font-family="Helvetica,sans-Serif" font-size="10.00">Ra::Engine::RenderObject</text>
<text text-anchor="middle" x="814.5" y="-198.5" font-family="Helvetica,sans-Serif" font-size="10.00">::setLocalTransform</text>
</a>
</g>
</g>
<!-- Node5&#45;&gt;Node7 -->
<g id="edge6" class="edge"><title>Node5&#45;&gt;Node7</title>
<path fill="none" stroke="midnightblue" d="M696.395,-203.096C708.93,-203.46 722.484,-203.854 735.772,-204.24"/>
<polygon fill="midnightblue" stroke="midnightblue" points="735.763,-207.742 745.86,-204.534 735.966,-200.745 735.763,-207.742"/>
</g>
<!-- Node10 -->
<g id="node10" class="node"><title>Node10</title>
<g id="a_node10"><a xlink:href="classRa_1_1Core_1_1Utils_1_1ColorBase.html#a467dad42627c64495356c4fd21b3ac81" target="_top" xlink:title="Ra::Core::Utils::ColorBase\l\&lt; Scalar \&gt;::White">
<polygon fill="white" stroke="black" points="571,-49.5 571,-79.5 710,-79.5 710,-49.5 571,-49.5"/>
<text text-anchor="start" x="579" y="-67.5" font-family="Helvetica,sans-Serif" font-size="10.00">Ra::Core::Utils::ColorBase</text>
<text text-anchor="middle" x="640.5" y="-56.5" font-family="Helvetica,sans-Serif" font-size="10.00">&lt; Scalar &gt;::White</text>
</a>
</g>
</g>
<!-- Node9&#45;&gt;Node10 -->
<g id="edge10" class="edge"><title>Node9&#45;&gt;Node10</title>
<path fill="none" stroke="midnightblue" d="M530.809,-64.5C540.362,-64.5 550.568,-64.5 560.757,-64.5"/>
<polygon fill="midnightblue" stroke="midnightblue" points="560.916,-68.0001 570.916,-64.5 560.916,-61.0001 560.916,-68.0001"/>
</g>
</g>
</svg>
