<?xml version="1.0" encoding="UTF-8" standalone="no"?>
<!DOCTYPE svg PUBLIC "-//W3C//DTD SVG 1.1//EN"
 "http://www.w3.org/Graphics/SVG/1.1/DTD/svg11.dtd">
<!-- Generated by graphviz version 2.38.0 (20140413.2041)
 -->
<!-- Title: MeshPaintPlugin::MeshPaintSystem::startPaintMesh Pages: 1 -->
<svg width="728pt" height="489pt"
 viewBox="0.00 0.00 728.00 489.00" xmlns="http://www.w3.org/2000/svg" xmlns:xlink="http://www.w3.org/1999/xlink">
<g id="graph0" class="graph" transform="scale(1 1) rotate(0) translate(4 485)">
<title>MeshPaintPlugin::MeshPaintSystem::startPaintMesh</title>
<polygon fill="white" stroke="none" points="-4,4 -4,-485 724,-485 724,4 -4,4"/>
<!-- Node1 -->
<g id="node1" class="node"><title>Node1</title>
<polygon fill="#bfbfbf" stroke="black" points="0,-230.5 0,-260.5 149,-260.5 149,-230.5 0,-230.5"/>
<text text-anchor="start" x="8" y="-248.5" font-family="Helvetica,sans-Serif" font-size="10.00">MeshPaintPlugin::MeshPaint</text>
<text text-anchor="middle" x="74.5" y="-237.5" font-family="Helvetica,sans-Serif" font-size="10.00">System::startPaintMesh</text>
</g>
<!-- Node2 -->
<g id="node2" class="node"><title>Node2</title>
<g id="a_node2"><a xlink:href="classMeshPaintPlugin_1_1MeshPaintComponent.html#a0c13da0e237aef580f67ad5b900d1036" target="_top" xlink:title="Colors are reset to their original value when calling startPaint( false ) ">
<polygon fill="white" stroke="black" points="185,-230.5 185,-260.5 334,-260.5 334,-230.5 185,-230.5"/>
<text text-anchor="start" x="193" y="-248.5" font-family="Helvetica,sans-Serif" font-size="10.00">MeshPaintPlugin::MeshPaint</text>
<text text-anchor="middle" x="259.5" y="-237.5" font-family="Helvetica,sans-Serif" font-size="10.00">Component::startPaint</text>
</a>
</g>
</g>
<!-- Node1&#45;&gt;Node2 -->
<g id="edge1" class="edge"><title>Node1&#45;&gt;Node2</title>
<path fill="none" stroke="midnightblue" d="M149.142,-245.5C157.474,-245.5 166.011,-245.5 174.463,-245.5"/>
<polygon fill="midnightblue" stroke="midnightblue" points="174.711,-249 184.711,-245.5 174.711,-242 174.711,-249"/>
</g>
<!-- Node3 -->
<g id="node3" class="node"><title>Node3</title>
<g id="a_node3"><a xlink:href="classRa_1_1Engine_1_1Component.html#a10b0bc182b76165744ebea603ae32dfe" target="_top" xlink:title="Shortcut to access the render object manager. ">
<polygon fill="white" stroke="black" points="396.5,-450.5 396.5,-480.5 525.5,-480.5 525.5,-450.5 396.5,-450.5"/>
<text text-anchor="start" x="404.5" y="-468.5" font-family="Helvetica,sans-Serif" font-size="10.00">Ra::Engine::Component</text>
<text text-anchor="middle" x="461" y="-457.5" font-family="Helvetica,sans-Serif" font-size="10.00">::getRoMgr</text>
</a>
</g>
</g>
<!-- Node2&#45;&gt;Node3 -->
<g id="edge2" class="edge"><title>Node2&#45;&gt;Node3</title>
<path fill="none" stroke="midnightblue" d="M264.582,-260.588C275.306,-297.281 307.826,-391.742 370,-440.5 375.108,-444.506 380.82,-447.87 386.821,-450.696"/>
<polygon fill="midnightblue" stroke="midnightblue" points="385.867,-454.09 396.444,-454.707 388.56,-447.629 385.867,-454.09"/>
</g>
<!-- Node4 -->
<g id="node4" class="node"><title>Node4</title>
<g id="a_node4"><a xlink:href="classRa_1_1Engine_1_1Mesh.html#aeb1eb176c4ac5a045a80b97a5e09e07e" target="_top" xlink:title="Returns the underlying TriangleMesh. ">
<polygon fill="white" stroke="black" points="370,-412 370,-431 552,-431 552,-412 370,-412"/>
<text text-anchor="middle" x="461" y="-419" font-family="Helvetica,sans-Serif" font-size="10.00">Ra::Engine::Mesh::getTriangleMesh</text>
</a>
</g>
</g>
<!-- Node2&#45;&gt;Node4 -->
<g id="edge3" class="edge"><title>Node2&#45;&gt;Node4</title>
<path fill="none" stroke="midnightblue" d="M266.57,-260.914C279.997,-292.867 315.417,-366.354 370,-402.5 373.112,-404.561 376.407,-406.404 379.824,-408.052"/>
<polygon fill="midnightblue" stroke="midnightblue" points="378.541,-411.309 389.115,-411.973 381.263,-404.86 378.541,-411.309"/>
</g>
<!-- Node5 -->
<g id="node5" class="node"><title>Node5</title>
<g id="a_node5"><a xlink:href="classRa_1_1Core_1_1Geometry_1_1TriangleMesh.html#a316e86eab4e624183f1bfe5c25f8592c" target="_top" xlink:title="Return the Handle to the attribute with the given name if it exists, an invalid handle otherwise...">
<polygon fill="white" stroke="black" points="378,-362.5 378,-392.5 544,-392.5 544,-362.5 378,-362.5"/>
<text text-anchor="start" x="386" y="-380.5" font-family="Helvetica,sans-Serif" font-size="10.00">Ra::Core::Geometry</text>
<text text-anchor="middle" x="461" y="-369.5" font-family="Helvetica,sans-Serif" font-size="10.00">::TriangleMesh::getAttribHandle</text>
</a>
</g>
</g>
<!-- Node2&#45;&gt;Node5 -->
<g id="edge4" class="edge"><title>Node2&#45;&gt;Node5</title>
<path fill="none" stroke="midnightblue" d="M271.851,-260.719C290.005,-283.981 327.847,-328.23 370,-352.5 373.9,-354.745 378.012,-356.798 382.244,-358.672"/>
<polygon fill="midnightblue" stroke="midnightblue" points="381.083,-361.979 391.665,-362.499 383.718,-355.493 381.083,-361.979"/>
</g>
<!-- Node6 -->
<g id="node6" class="node"><title>Node6</title>
<g id="a_node6"><a xlink:href="classRa_1_1Core_1_1Utils_1_1AttribHandle.html#a4a424e15cc78e180173f5bf2c9c79612" target="_top" xlink:title="Ra::Core::Utils::AttribHandle::idx">
<polygon fill="white" stroke="black" points="376,-324 376,-343 546,-343 546,-324 376,-324"/>
<text text-anchor="middle" x="461" y="-331" font-family="Helvetica,sans-Serif" font-size="10.00">Ra::Core::Utils::AttribHandle::idx</text>
</a>
</g>
</g>
<!-- Node2&#45;&gt;Node6 -->
<g id="edge5" class="edge"><title>Node2&#45;&gt;Node6</title>
<path fill="none" stroke="midnightblue" d="M279.915,-260.754C300.946,-276.528 336.057,-300.739 370,-314.5 376.364,-317.08 383.129,-319.329 389.981,-321.286"/>
<polygon fill="midnightblue" stroke="midnightblue" points="389.483,-324.775 400.046,-323.949 391.273,-318.008 389.483,-324.775"/>
</g>
<!-- Node7 -->
<g id="node7" class="node"><title>Node7</title>
<g id="a_node7"><a xlink:href="classRa_1_1Core_1_1Utils_1_1Index.html#ac7d6c68387fe147f7a13668ac30a4533" target="_top" xlink:title="INVALID. ">
<polygon fill="white" stroke="black" points="403,-274.5 403,-304.5 519,-304.5 519,-274.5 403,-274.5"/>
<text text-anchor="start" x="411" y="-292.5" font-family="Helvetica,sans-Serif" font-size="10.00">Ra::Core::Utils::Index</text>
<text text-anchor="middle" x="461" y="-281.5" font-family="Helvetica,sans-Serif" font-size="10.00">::isInvalid</text>
</a>
</g>
</g>
<!-- Node2&#45;&gt;Node7 -->
<g id="edge6" class="edge"><title>Node2&#45;&gt;Node7</title>
<path fill="none" stroke="midnightblue" d="M328.599,-260.519C349.358,-265.098 372.157,-270.126 392.853,-274.691"/>
<polygon fill="midnightblue" stroke="midnightblue" points="392.306,-278.154 402.825,-276.89 393.814,-271.318 392.306,-278.154"/>
</g>
<!-- Node8 -->
<g id="node8" class="node"><title>Node8</title>
<g id="a_node8"><a xlink:href="classRa_1_1Core_1_1Geometry_1_1TriangleMesh.html#a51b5e7d49d82ffa036306e28a42cd92b" target="_top" xlink:title="Utility function colorzing the mesh with a given color. Add the color attribute if needed...">
<polygon fill="white" stroke="black" points="397.5,-186.5 397.5,-216.5 524.5,-216.5 524.5,-186.5 397.5,-186.5"/>
<text text-anchor="start" x="405.5" y="-204.5" font-family="Helvetica,sans-Serif" font-size="10.00">Ra::Core::Geometry</text>
<text text-anchor="middle" x="461" y="-193.5" font-family="Helvetica,sans-Serif" font-size="10.00">::TriangleMesh::colorize</text>
</a>
</g>
</g>
<!-- Node2&#45;&gt;Node8 -->
<g id="edge7" class="edge"><title>Node2&#45;&gt;Node8</title>
<path fill="none" stroke="midnightblue" d="M328.599,-230.481C347.535,-226.304 368.169,-221.754 387.355,-217.522"/>
<polygon fill="midnightblue" stroke="midnightblue" points="388.228,-220.914 397.24,-215.342 386.72,-214.078 388.228,-220.914"/>
</g>
<!-- Node9 -->
<g id="node9" class="node"><title>Node9</title>
<g id="a_node9"><a xlink:href="classRa_1_1Core_1_1Geometry_1_1TriangleMesh.html#a209037ce5a11ec8539a9ada7ba763e8c" target="_top" xlink:title="Get attribute by handle. ">
<polygon fill="white" stroke="black" points="588,-230.5 588,-260.5 720,-260.5 720,-230.5 588,-230.5"/>
<text text-anchor="start" x="596" y="-248.5" font-family="Helvetica,sans-Serif" font-size="10.00">Ra::Core::Geometry</text>
<text text-anchor="middle" x="654" y="-237.5" font-family="Helvetica,sans-Serif" font-size="10.00">::TriangleMesh::getAttrib</text>
</a>
</g>
</g>
<!-- Node2&#45;&gt;Node9 -->
<g id="edge12" class="edge"><title>Node2&#45;&gt;Node9</title>
<path fill="none" stroke="midnightblue" d="M334.326,-245.5C403.961,-245.5 507.835,-245.5 577.888,-245.5"/>
<polygon fill="midnightblue" stroke="midnightblue" points="577.97,-249 587.97,-245.5 577.97,-242 577.97,-249"/>
</g>
<!-- Node11 -->
<g id="node11" class="node"><title>Node11</title>
<g id="a_node11"><a xlink:href="classRa_1_1Core_1_1Utils_1_1ColorBase.html#a06951f0641b03be8d47e2762f75d1f6e" target="_top" xlink:title="Ra::Core::Utils::ColorBase\l\&lt; Scalar \&gt;::Skin">
<polygon fill="white" stroke="black" points="391.5,-137.5 391.5,-167.5 530.5,-167.5 530.5,-137.5 391.5,-137.5"/>
<text text-anchor="start" x="399.5" y="-155.5" font-family="Helvetica,sans-Serif" font-size="10.00">Ra::Core::Utils::ColorBase</text>
<text text-anchor="middle" x="461" y="-144.5" font-family="Helvetica,sans-Serif" font-size="10.00">&lt; Scalar &gt;::Skin</text>
</a>
</g>
</g>
<!-- Node2&#45;&gt;Node11 -->
<g id="edge10" class="edge"><title>Node2&#45;&gt;Node11</title>
<path fill="none" stroke="midnightblue" d="M280.915,-230.336C302.202,-215.136 337.006,-191.971 370,-177.5 375.423,-175.122 381.13,-172.913 386.93,-170.874"/>
<polygon fill="midnightblue" stroke="midnightblue" points="388.364,-174.086 396.744,-167.603 386.15,-167.445 388.364,-174.086"/>
</g>
<!-- Node12 -->
<g id="node12" class="node"><title>Node12</title>
<g id="a_node12"><a xlink:href="classRa_1_1Engine_1_1Mesh.html#a9a1dcadf7fb4ff851b18c87b3a98ac6b" target="_top" xlink:title="Mark one of the data types as dirty, forcing an update of the openGL buffer. ">
<polygon fill="white" stroke="black" points="390,-99 390,-118 532,-118 532,-99 390,-99"/>
<text text-anchor="middle" x="461" y="-106" font-family="Helvetica,sans-Serif" font-size="10.00">Ra::Engine::Mesh::setDirty</text>
</a>
</g>
</g>
<!-- Node2&#45;&gt;Node12 -->
<g id="edge11" class="edge"><title>Node2&#45;&gt;Node12</title>
<path fill="none" stroke="midnightblue" d="M270.229,-230.203C287.215,-204.83 324.815,-154.286 370,-128.5 374.779,-125.773 379.897,-123.418 385.177,-121.383"/>
<polygon fill="midnightblue" stroke="midnightblue" points="386.506,-124.627 394.818,-118.057 384.223,-118.01 386.506,-124.627"/>
</g>
<!-- Node13 -->
<g id="node13" class="node"><title>Node13</title>
<g id="a_node13"><a xlink:href="classRa_1_1Core_1_1Geometry_1_1TriangleMesh.html#a500ec734182d60422cfea1fb57f39462" target="_top" xlink:title="Remove attribute by handle. ">
<polygon fill="white" stroke="black" points="384.5,-49.5 384.5,-79.5 537.5,-79.5 537.5,-49.5 384.5,-49.5"/>
<text text-anchor="start" x="392.5" y="-67.5" font-family="Helvetica,sans-Serif" font-size="10.00">Ra::Core::Geometry</text>
<text text-anchor="middle" x="461" y="-56.5" font-family="Helvetica,sans-Serif" font-size="10.00">::TriangleMesh::removeAttrib</text>
</a>
</g>
</g>
<!-- Node2&#45;&gt;Node13 -->
<g id="edge13" class="edge"><title>Node2&#45;&gt;Node13</title>
<path fill="none" stroke="midnightblue" d="M266.783,-230.453C280.613,-199.212 316.753,-127.102 370,-89.5 372.716,-87.5823 375.573,-85.8115 378.533,-84.1762"/>
<polygon fill="midnightblue" stroke="midnightblue" points="380.258,-87.2282 387.678,-79.666 377.162,-80.9501 380.258,-87.2282"/>
</g>
<!-- Node14 -->
<g id="node14" class="node"><title>Node14</title>
<g id="a_node14"><a xlink:href="classRa_1_1Core_1_1Geometry_1_1TriangleMesh.html#adfb86f61e519e83e15d6f3bb32d76eb9" target="_top" xlink:title="Return true if h refers to an existing attribute in *this. ">
<polygon fill="white" stroke="black" points="401,-0.5 401,-30.5 521,-30.5 521,-0.5 401,-0.5"/>
<text text-anchor="start" x="409" y="-18.5" font-family="Helvetica,sans-Serif" font-size="10.00">Ra::Core::Geometry</text>
<text text-anchor="middle" x="461" y="-7.5" font-family="Helvetica,sans-Serif" font-size="10.00">::TriangleMesh::isValid</text>
</a>
</g>
</g>
<!-- Node2&#45;&gt;Node14 -->
<g id="edge14" class="edge"><title>Node2&#45;&gt;Node14</title>
<path fill="none" stroke="midnightblue" d="M264.066,-230.38C273.882,-192.178 304.992,-91.1525 370,-39.5 376.301,-34.4936 383.553,-30.5267 391.149,-27.3844"/>
<polygon fill="midnightblue" stroke="midnightblue" points="392.355,-30.6699 400.543,-23.9459 389.949,-24.0964 392.355,-30.6699"/>
</g>
<!-- Node8&#45;&gt;Node9 -->
<g id="edge8" class="edge"><title>Node8&#45;&gt;Node9</title>
<path fill="none" stroke="midnightblue" d="M524.541,-215.907C541.457,-219.804 559.945,-224.063 577.491,-228.105"/>
<polygon fill="midnightblue" stroke="midnightblue" points="577.164,-231.622 587.694,-230.456 578.735,-224.8 577.164,-231.622"/>
</g>
<!-- Node10 -->
<g id="node10" class="node"><title>Node10</title>
<g id="a_node10"><a xlink:href="classRa_1_1Core_1_1Geometry_1_1TriangleMesh.html#a6ef9dbd18c0501f2ffd1316be6be56ce" target="_top" xlink:title="Access the vertices positions. ">
<polygon fill="white" stroke="black" points="590,-181.5 590,-211.5 718,-211.5 718,-181.5 590,-181.5"/>
<text text-anchor="start" x="598" y="-199.5" font-family="Helvetica,sans-Serif" font-size="10.00">Ra::Core::Geometry</text>
<text text-anchor="middle" x="654" y="-188.5" font-family="Helvetica,sans-Serif" font-size="10.00">::TriangleMesh::vertices</text>
</a>
</g>
</g>
<!-- Node8&#45;&gt;Node10 -->
<g id="edge9" class="edge"><title>Node8&#45;&gt;Node10</title>
<path fill="none" stroke="midnightblue" d="M524.541,-199.863C542.257,-199.399 561.699,-198.89 579.976,-198.412"/>
<polygon fill="midnightblue" stroke="midnightblue" points="580.087,-201.91 589.992,-198.149 579.904,-194.912 580.087,-201.91"/>
</g>
</g>
</svg>
