<?xml version="1.0" encoding="UTF-8" standalone="no"?>
<!DOCTYPE svg PUBLIC "-//W3C//DTD SVG 1.1//EN"
 "http://www.w3.org/Graphics/SVG/1.1/DTD/svg11.dtd">
<!-- Generated by graphviz version 2.38.0 (20140413.2041)
 -->
<!-- Title: Ra::GuiBase::BaseApplication::loadPlugins Pages: 1 -->
<svg width="360pt" height="263pt"
 viewBox="0.00 0.00 360.00 262.50" xmlns="http://www.w3.org/2000/svg" xmlns:xlink="http://www.w3.org/1999/xlink">
<g id="graph0" class="graph" transform="scale(1 1) rotate(0) translate(4 258.5)">
<title>Ra::GuiBase::BaseApplication::loadPlugins</title>
<polygon fill="white" stroke="none" points="-4,4 -4,-258.5 356,-258.5 356,4 -4,4"/>
<!-- Node1 -->
<g id="node1" class="node"><title>Node1</title>
<polygon fill="#bfbfbf" stroke="black" points="0,-122.5 0,-152.5 157,-152.5 157,-122.5 0,-122.5"/>
<text text-anchor="start" x="8" y="-140.5" font-family="Helvetica,sans-Serif" font-size="10.00">Ra::GuiBase::BaseApplication</text>
<text text-anchor="middle" x="78.5" y="-129.5" font-family="Helvetica,sans-Serif" font-size="10.00">::loadPlugins</text>
</g>
<!-- Node2 -->
<g id="node2" class="node"><title>Node2</title>
<g id="a_node2"><a xlink:href="namespaceRa_1_1Core_1_1Utils.html#aad2a7bedc49e227d0503794d76acbfea" target="_top" xlink:title="Ra::Core::Utils::getFileExt">
<polygon fill="white" stroke="black" points="204.5,-235 204.5,-254 340.5,-254 340.5,-235 204.5,-235"/>
<text text-anchor="middle" x="272.5" y="-242" font-family="Helvetica,sans-Serif" font-size="10.00">Ra::Core::Utils::getFileExt</text>
</a>
</g>
</g>
<!-- Node1&#45;&gt;Node2 -->
<g id="edge1" class="edge"><title>Node1&#45;&gt;Node2</title>
<path fill="none" stroke="midnightblue" d="M94.589,-152.672C115.08,-172.405 153.681,-206.58 193,-225.5 197.975,-227.894 203.277,-230.001 208.687,-231.853"/>
<polygon fill="midnightblue" stroke="midnightblue" points="207.907,-235.276 218.496,-234.917 209.994,-228.594 207.907,-235.276"/>
</g>
<!-- Node3 -->
<g id="node3" class="node"><title>Node3</title>
<g id="a_node3"><a xlink:href="namespaceRa_1_1Core_1_1Utils.html#a99d916309a7c1727e74e630c93e6bdfa" target="_top" xlink:title="Ra::Core::Utils::getBaseName">
<polygon fill="white" stroke="black" points="193,-197 193,-216 352,-216 352,-197 193,-197"/>
<text text-anchor="middle" x="272.5" y="-204" font-family="Helvetica,sans-Serif" font-size="10.00">Ra::Core::Utils::getBaseName</text>
</a>
</g>
</g>
<!-- Node1&#45;&gt;Node3 -->
<g id="edge2" class="edge"><title>Node1&#45;&gt;Node3</title>
<path fill="none" stroke="midnightblue" d="M109.746,-152.586C132.283,-163.39 164.037,-177.702 193,-187.5 200.378,-189.996 208.25,-192.303 216.054,-194.386"/>
<polygon fill="midnightblue" stroke="midnightblue" points="215.305,-197.807 225.861,-196.902 217.045,-191.027 215.305,-197.807"/>
</g>
<!-- Node4 -->
<g id="node4" class="node"><title>Node4</title>
<g id="a_node4"><a xlink:href="classRa_1_1Plugins_1_1RadiumPluginInterface.html#a2110ad3a554613113b415cf3f7ee9db4" target="_top" xlink:title="Pass arguments for plugin initialization. ">
<polygon fill="white" stroke="black" points="203,-147.5 203,-177.5 342,-177.5 342,-147.5 203,-147.5"/>
<text text-anchor="start" x="211" y="-165.5" font-family="Helvetica,sans-Serif" font-size="10.00">Ra::Plugins::RadiumPlugin</text>
<text text-anchor="middle" x="272.5" y="-154.5" font-family="Helvetica,sans-Serif" font-size="10.00">Interface::registerPlugin</text>
</a>
</g>
</g>
<!-- Node1&#45;&gt;Node4 -->
<g id="edge3" class="edge"><title>Node1&#45;&gt;Node4</title>
<path fill="none" stroke="midnightblue" d="M157.04,-147.596C168.793,-149.127 180.929,-150.707 192.708,-152.241"/>
<polygon fill="midnightblue" stroke="midnightblue" points="192.58,-155.753 202.948,-153.574 193.484,-148.812 192.58,-155.753"/>
</g>
<!-- Node5 -->
<g id="node5" class="node"><title>Node5</title>
<g id="a_node5"><a xlink:href="classRa_1_1Gui_1_1WindowQt.html#a0ed0324e821d20360ada13db91fb7e30" target="_top" xlink:title="Ra::Gui::WindowQt::\lisOpenGlInitialized">
<polygon fill="white" stroke="black" points="218,-98.5 218,-128.5 327,-128.5 327,-98.5 218,-98.5"/>
<text text-anchor="start" x="226" y="-116.5" font-family="Helvetica,sans-Serif" font-size="10.00">Ra::Gui::WindowQt::</text>
<text text-anchor="middle" x="272.5" y="-105.5" font-family="Helvetica,sans-Serif" font-size="10.00">isOpenGlInitialized</text>
</a>
</g>
</g>
<!-- Node1&#45;&gt;Node5 -->
<g id="edge4" class="edge"><title>Node1&#45;&gt;Node5</title>
<path fill="none" stroke="midnightblue" d="M157.04,-127.807C173.933,-125.696 191.619,-123.485 207.896,-121.45"/>
<polygon fill="midnightblue" stroke="midnightblue" points="208.341,-124.922 217.83,-120.209 207.473,-117.976 208.341,-124.922"/>
</g>
<!-- Node6 -->
<g id="node6" class="node"><title>Node6</title>
<g id="a_node6"><a xlink:href="classRa_1_1Gui_1_1WindowQt.html#a78476baacd2df24a260f604d02c8ddc4" target="_top" xlink:title="Make the OpenGL context associated with the viewer the current context. ">
<polygon fill="white" stroke="black" points="218,-49.5 218,-79.5 327,-79.5 327,-49.5 218,-49.5"/>
<text text-anchor="start" x="226" y="-67.5" font-family="Helvetica,sans-Serif" font-size="10.00">Ra::Gui::WindowQt::</text>
<text text-anchor="middle" x="272.5" y="-56.5" font-family="Helvetica,sans-Serif" font-size="10.00">makeCurrent</text>
</a>
</g>
</g>
<!-- Node1&#45;&gt;Node6 -->
<g id="edge5" class="edge"><title>Node1&#45;&gt;Node6</title>
<path fill="none" stroke="midnightblue" d="M112.947,-122.4C135.383,-112.508 165.71,-99.592 193,-89.5 199.219,-87.2002 205.76,-84.9134 212.302,-82.7105"/>
<polygon fill="midnightblue" stroke="midnightblue" points="213.457,-86.0152 221.851,-79.5511 211.258,-79.3695 213.457,-86.0152"/>
</g>
<!-- Node7 -->
<g id="node7" class="node"><title>Node7</title>
<g id="a_node7"><a xlink:href="classRa_1_1Gui_1_1WindowQt.html#acd31b9e580f049491d13c16ef954d964" target="_top" xlink:title="Reset the current OpenGL context that is no more the one associated with the viewer. ">
<polygon fill="white" stroke="black" points="218,-0.5 218,-30.5 327,-30.5 327,-0.5 218,-0.5"/>
<text text-anchor="start" x="226" y="-18.5" font-family="Helvetica,sans-Serif" font-size="10.00">Ra::Gui::WindowQt::</text>
<text text-anchor="middle" x="272.5" y="-7.5" font-family="Helvetica,sans-Serif" font-size="10.00">doneCurrent</text>
</a>
</g>
</g>
<!-- Node1&#45;&gt;Node7 -->
<g id="edge6" class="edge"><title>Node1&#45;&gt;Node7</title>
<path fill="none" stroke="midnightblue" d="M93.4606,-122.22C113.559,-101.066 152.682,-62.933 193,-40.5 197.843,-37.8053 203.019,-35.3535 208.315,-33.1329"/>
<polygon fill="midnightblue" stroke="midnightblue" points="209.888,-36.2764 217.933,-29.383 207.345,-29.7546 209.888,-36.2764"/>
</g>
</g>
</svg>
