<?xml version="1.0" encoding="UTF-8" standalone="no"?>
<!DOCTYPE svg PUBLIC "-//W3C//DTD SVG 1.1//EN"
 "http://www.w3.org/Graphics/SVG/1.1/DTD/svg11.dtd">
<!-- Generated by graphviz version 2.38.0 (20140413.2041)
 -->
<!-- Title: Ra::Gui::Gizmo Pages: 1 -->
<svg width="408pt" height="380pt"
 viewBox="0.00 0.00 408.00 380.00" xmlns="http://www.w3.org/2000/svg" xmlns:xlink="http://www.w3.org/1999/xlink">
<g id="graph0" class="graph" transform="scale(1 1) rotate(0) translate(4 376)">
<title>Ra::Gui::Gizmo</title>
<polygon fill="white" stroke="none" points="-4,4 -4,-376 404,-376 404,4 -4,4"/>
<!-- Node1 -->
<g id="node1" class="node"><title>Node1</title>
<polygon fill="#bfbfbf" stroke="black" points="135.5,-149.5 135.5,-371.5 252.5,-371.5 252.5,-149.5 135.5,-149.5"/>
<text text-anchor="middle" x="194" y="-359.5" font-family="Helvetica,sans-Serif" font-size="10.00">Ra::Gui::Gizmo</text>
<polyline fill="none" stroke="black" points="135.5,-352.5 252.5,-352.5 "/>
<text text-anchor="start" x="143.5" y="-340.5" font-family="Helvetica,sans-Serif" font-size="10.00"># m_worldTo</text>
<text text-anchor="start" x="143.5" y="-329.5" font-family="Helvetica,sans-Serif" font-size="10.00"># m_transform</text>
<text text-anchor="start" x="143.5" y="-318.5" font-family="Helvetica,sans-Serif" font-size="10.00"># m_comp</text>
<text text-anchor="start" x="143.5" y="-307.5" font-family="Helvetica,sans-Serif" font-size="10.00"># m_mode</text>
<polyline fill="none" stroke="black" points="135.5,-300.5 252.5,-300.5 "/>
<text text-anchor="start" x="143.5" y="-288.5" font-family="Helvetica,sans-Serif" font-size="10.00">+ Gizmo()</text>
<text text-anchor="start" x="143.5" y="-277.5" font-family="Helvetica,sans-Serif" font-size="10.00">+ ~Gizmo()</text>
<text text-anchor="start" x="143.5" y="-266.5" font-family="Helvetica,sans-Serif" font-size="10.00">+ show()</text>
<text text-anchor="start" x="143.5" y="-255.5" font-family="Helvetica,sans-Serif" font-size="10.00">+ updateTransform()</text>
<text text-anchor="start" x="143.5" y="-244.5" font-family="Helvetica,sans-Serif" font-size="10.00">+ selectConstraint()</text>
<text text-anchor="start" x="143.5" y="-233.5" font-family="Helvetica,sans-Serif" font-size="10.00">+ isSelected()</text>
<text text-anchor="start" x="143.5" y="-222.5" font-family="Helvetica,sans-Serif" font-size="10.00">+ setInitialState()</text>
<text text-anchor="start" x="143.5" y="-211.5" font-family="Helvetica,sans-Serif" font-size="10.00">+ mouseMove()</text>
<text text-anchor="start" x="143.5" y="-200.5" font-family="Helvetica,sans-Serif" font-size="10.00"># roIds()</text>
<text text-anchor="start" x="143.5" y="-189.5" font-family="Helvetica,sans-Serif" font-size="10.00"># roMeshes()</text>
<text text-anchor="start" x="143.5" y="-178.5" font-family="Helvetica,sans-Serif" font-size="10.00"># addRenderObject()</text>
<text text-anchor="start" x="143.5" y="-167.5" font-family="Helvetica,sans-Serif" font-size="10.00"># findPointOnAxis()</text>
<text text-anchor="start" x="143.5" y="-156.5" font-family="Helvetica,sans-Serif" font-size="10.00"># findPointOnPlane()</text>
</g>
<!-- Node2 -->
<g id="node2" class="node"><title>Node2</title>
<g id="a_node2"><a xlink:href="classRa_1_1Gui_1_1RotateGizmo.html" target="_top" xlink:title="A RotateGizmo manipulates the rotational part of a transformation. ">
<polygon fill="white" stroke="black" points="0,-0.5 0,-112.5 118,-112.5 118,-0.5 0,-0.5"/>
<text text-anchor="middle" x="59" y="-100.5" font-family="Helvetica,sans-Serif" font-size="10.00">Ra::Gui::RotateGizmo</text>
<polyline fill="none" stroke="black" points="0,-93.5 118,-93.5 "/>
<text text-anchor="middle" x="59" y="-81.5" font-family="Helvetica,sans-Serif" font-size="10.00"> </text>
<polyline fill="none" stroke="black" points="0,-74.5 118,-74.5 "/>
<text text-anchor="start" x="8" y="-62.5" font-family="Helvetica,sans-Serif" font-size="10.00">+ RotateGizmo()</text>
<text text-anchor="start" x="8" y="-51.5" font-family="Helvetica,sans-Serif" font-size="10.00">+ updateTransform()</text>
<text text-anchor="start" x="8" y="-40.5" font-family="Helvetica,sans-Serif" font-size="10.00">+ selectConstraint()</text>
<text text-anchor="start" x="8" y="-29.5" font-family="Helvetica,sans-Serif" font-size="10.00">+ isSelected()</text>
<text text-anchor="start" x="8" y="-18.5" font-family="Helvetica,sans-Serif" font-size="10.00">+ setInitialState()</text>
<text text-anchor="start" x="8" y="-7.5" font-family="Helvetica,sans-Serif" font-size="10.00">+ mouseMove()</text>
</a>
</g>
</g>
<!-- Node1&#45;&gt;Node2 -->
<g id="edge1" class="edge"><title>Node1&#45;&gt;Node2</title>
<path fill="none" stroke="midnightblue" d="M129.68,-163.258C118.044,-145.847 106.282,-128.247 95.7803,-112.534"/>
<polygon fill="none" stroke="midnightblue" points="126.91,-165.412 135.376,-171.781 132.729,-161.522 126.91,-165.412"/>
</g>
<!-- Node3 -->
<g id="node3" class="node"><title>Node3</title>
<g id="a_node3"><a xlink:href="classRa_1_1Gui_1_1ScaleGizmo.html" target="_top" xlink:title="A ScaleGizmo manipulates the scaling part of a transformation. ">
<polygon fill="white" stroke="black" points="136,-0.5 136,-112.5 252,-112.5 252,-0.5 136,-0.5"/>
<text text-anchor="middle" x="194" y="-100.5" font-family="Helvetica,sans-Serif" font-size="10.00">Ra::Gui::ScaleGizmo</text>
<polyline fill="none" stroke="black" points="136,-93.5 252,-93.5 "/>
<text text-anchor="middle" x="194" y="-81.5" font-family="Helvetica,sans-Serif" font-size="10.00"> </text>
<polyline fill="none" stroke="black" points="136,-74.5 252,-74.5 "/>
<text text-anchor="start" x="144" y="-62.5" font-family="Helvetica,sans-Serif" font-size="10.00">+ ScaleGizmo()</text>
<text text-anchor="start" x="144" y="-51.5" font-family="Helvetica,sans-Serif" font-size="10.00">+ updateTransform()</text>
<text text-anchor="start" x="144" y="-40.5" font-family="Helvetica,sans-Serif" font-size="10.00">+ selectConstraint()</text>
<text text-anchor="start" x="144" y="-29.5" font-family="Helvetica,sans-Serif" font-size="10.00">+ isSelected()</text>
<text text-anchor="start" x="144" y="-18.5" font-family="Helvetica,sans-Serif" font-size="10.00">+ setInitialState()</text>
<text text-anchor="start" x="144" y="-7.5" font-family="Helvetica,sans-Serif" font-size="10.00">+ mouseMove()</text>
</a>
</g>
</g>
<!-- Node1&#45;&gt;Node3 -->
<g id="edge2" class="edge"><title>Node1&#45;&gt;Node3</title>
<path fill="none" stroke="midnightblue" d="M194,-139.243C194,-130.006 194,-120.992 194,-112.525"/>
<polygon fill="none" stroke="midnightblue" points="190.5,-139.338 194,-149.338 197.5,-139.338 190.5,-139.338"/>
</g>
<!-- Node4 -->
<g id="node4" class="node"><title>Node4</title>
<g id="a_node4"><a xlink:href="classRa_1_1Gui_1_1TranslateGizmo.html" target="_top" xlink:title="A TranslateGizmo manipulates the translational part of a transformation. ">
<polygon fill="white" stroke="black" points="270,-0.5 270,-112.5 400,-112.5 400,-0.5 270,-0.5"/>
<text text-anchor="middle" x="335" y="-100.5" font-family="Helvetica,sans-Serif" font-size="10.00">Ra::Gui::TranslateGizmo</text>
<polyline fill="none" stroke="black" points="270,-93.5 400,-93.5 "/>
<text text-anchor="middle" x="335" y="-81.5" font-family="Helvetica,sans-Serif" font-size="10.00"> </text>
<polyline fill="none" stroke="black" points="270,-74.5 400,-74.5 "/>
<text text-anchor="start" x="278" y="-62.5" font-family="Helvetica,sans-Serif" font-size="10.00">+ TranslateGizmo()</text>
<text text-anchor="start" x="278" y="-51.5" font-family="Helvetica,sans-Serif" font-size="10.00">+ updateTransform()</text>
<text text-anchor="start" x="278" y="-40.5" font-family="Helvetica,sans-Serif" font-size="10.00">+ selectConstraint()</text>
<text text-anchor="start" x="278" y="-29.5" font-family="Helvetica,sans-Serif" font-size="10.00">+ isSelected()</text>
<text text-anchor="start" x="278" y="-18.5" font-family="Helvetica,sans-Serif" font-size="10.00">+ setInitialState()</text>
<text text-anchor="start" x="278" y="-7.5" font-family="Helvetica,sans-Serif" font-size="10.00">+ mouseMove()</text>
</a>
</g>
</g>
<!-- Node1&#45;&gt;Node4 -->
<g id="edge3" class="edge"><title>Node1&#45;&gt;Node4</title>
<path fill="none" stroke="midnightblue" d="M258.337,-167.329C271.379,-148.645 284.704,-129.555 296.509,-112.643"/>
<polygon fill="none" stroke="midnightblue" points="255.426,-165.385 252.572,-175.589 261.165,-169.392 255.426,-165.385"/>
</g>
</g>
</svg>
