<?xml version="1.0" encoding="UTF-8" standalone="no"?>
<!DOCTYPE svg PUBLIC "-//W3C//DTD SVG 1.1//EN"
 "http://www.w3.org/Graphics/SVG/1.1/DTD/svg11.dtd">
<!-- Generated by graphviz version 2.38.0 (20140413.2041)
 -->
<!-- Title: Ra::Engine::Mesh::loadGeometry Pages: 1 -->
<svg width="396pt" height="166pt"
 viewBox="0.00 0.00 396.00 165.50" xmlns="http://www.w3.org/2000/svg" xmlns:xlink="http://www.w3.org/1999/xlink">
<g id="graph0" class="graph" transform="scale(1 1) rotate(0) translate(4 161.5)">
<title>Ra::Engine::Mesh::loadGeometry</title>
<polygon fill="white" stroke="none" points="-4,4 -4,-161.5 392,-161.5 392,4 -4,4"/>
<!-- Node1 -->
<g id="node1" class="node"><title>Node1</title>
<polygon fill="#bfbfbf" stroke="black" points="0,-66.5 0,-85.5 173,-85.5 173,-66.5 0,-66.5"/>
<text text-anchor="middle" x="86.5" y="-73.5" font-family="Helvetica,sans-Serif" font-size="10.00">Ra::Engine::Mesh::loadGeometry</text>
</g>
<!-- Node2 -->
<g id="node2" class="node"><title>Node2</title>
<g id="a_node2"><a xlink:href="classRa_1_1Core_1_1Geometry_1_1TriangleMesh.html#a6ef9dbd18c0501f2ffd1316be6be56ce" target="_top" xlink:title="Access the vertices positions. ">
<polygon fill="white" stroke="black" points="234.5,-127 234.5,-157 362.5,-157 362.5,-127 234.5,-127"/>
<text text-anchor="start" x="242.5" y="-145" font-family="Helvetica,sans-Serif" font-size="10.00">Ra::Core::Geometry</text>
<text text-anchor="middle" x="298.5" y="-134" font-family="Helvetica,sans-Serif" font-size="10.00">::TriangleMesh::vertices</text>
</a>
</g>
</g>
<!-- Node1&#45;&gt;Node2 -->
<g id="edge1" class="edge"><title>Node1&#45;&gt;Node2</title>
<path fill="none" stroke="midnightblue" d="M114.398,-85.5086C138.935,-94.0794 176.251,-106.856 209,-117 216.698,-119.385 224.801,-121.801 232.85,-124.143"/>
<polygon fill="midnightblue" stroke="midnightblue" points="232.032,-127.55 242.611,-126.957 233.972,-120.824 232.032,-127.55"/>
</g>
<!-- Node3 -->
<g id="node3" class="node"><title>Node3</title>
<g id="a_node3"><a xlink:href="classRa_1_1Engine_1_1Mesh.html#aead61d12e9949ae670abb9ce0ba81585" target="_top" xlink:title="GL_POINTS, GL_LINES, GL_TRIANGLES, GL_TRIANGLE_ADJACENCY, etc... ">
<polygon fill="white" stroke="black" points="209,-88.5 209,-107.5 388,-107.5 388,-88.5 209,-88.5"/>
<text text-anchor="middle" x="298.5" y="-95.5" font-family="Helvetica,sans-Serif" font-size="10.00">Ra::Engine::Mesh::setRenderMode</text>
</a>
</g>
</g>
<!-- Node1&#45;&gt;Node3 -->
<g id="edge2" class="edge"><title>Node1&#45;&gt;Node3</title>
<path fill="none" stroke="midnightblue" d="M173.218,-84.98C181.696,-85.8681 190.347,-86.7744 198.94,-87.6747"/>
<polygon fill="midnightblue" stroke="midnightblue" points="198.678,-91.1663 208.988,-88.7273 199.407,-84.2044 198.678,-91.1663"/>
</g>
<!-- Node4 -->
<g id="node4" class="node"><title>Node4</title>
<g id="a_node4"><a xlink:href="classRa_1_1Core_1_1Geometry_1_1TriangleMesh.html#a316e86eab4e624183f1bfe5c25f8592c" target="_top" xlink:title="Return the Handle to the attribute with the given name if it exists, an invalid handle otherwise...">
<polygon fill="white" stroke="black" points="215.5,-39 215.5,-69 381.5,-69 381.5,-39 215.5,-39"/>
<text text-anchor="start" x="223.5" y="-57" font-family="Helvetica,sans-Serif" font-size="10.00">Ra::Core::Geometry</text>
<text text-anchor="middle" x="298.5" y="-46" font-family="Helvetica,sans-Serif" font-size="10.00">::TriangleMesh::getAttribHandle</text>
</a>
</g>
</g>
<!-- Node1&#45;&gt;Node4 -->
<g id="edge3" class="edge"><title>Node1&#45;&gt;Node4</title>
<path fill="none" stroke="midnightblue" d="M173.218,-67.02C183.789,-65.9126 194.631,-64.7768 205.293,-63.6598"/>
<polygon fill="midnightblue" stroke="midnightblue" points="205.866,-67.119 215.447,-62.596 205.137,-60.1571 205.866,-67.119"/>
</g>
<!-- Node5 -->
<g id="node5" class="node"><title>Node5</title>
<g id="a_node5"><a xlink:href="classRa_1_1Engine_1_1Mesh.html#ac6b2c0b356fedc903a39fc7b3393f7e4" target="_top" xlink:title="Get the name expected for a given attrib. ">
<polygon fill="white" stroke="black" points="210.5,-0.5 210.5,-19.5 386.5,-19.5 386.5,-0.5 210.5,-0.5"/>
<text text-anchor="middle" x="298.5" y="-7.5" font-family="Helvetica,sans-Serif" font-size="10.00">Ra::Engine::Mesh::getAttribName</text>
</a>
</g>
</g>
<!-- Node1&#45;&gt;Node5 -->
<g id="edge4" class="edge"><title>Node1&#45;&gt;Node5</title>
<path fill="none" stroke="midnightblue" d="M110.015,-66.3899C134.162,-56.3406 173.793,-40.5865 209,-30 218.73,-27.0744 229.175,-24.3534 239.357,-21.9196"/>
<polygon fill="midnightblue" stroke="midnightblue" points="240.465,-25.2554 249.415,-19.5847 238.882,-18.4367 240.465,-25.2554"/>
</g>
</g>
</svg>
