<?xml version="1.0" encoding="UTF-8" standalone="no"?>
<!DOCTYPE svg PUBLIC "-//W3C//DTD SVG 1.1//EN"
 "http://www.w3.org/Graphics/SVG/1.1/DTD/svg11.dtd">
<!-- Generated by graphviz version 2.38.0 (20140413.2041)
 -->
<!-- Title: Ra::IO::AssimpHandleDataLoader::loadData Pages: 1 -->
<svg width="340pt" height="470pt"
 viewBox="0.00 0.00 340.00 469.50" xmlns="http://www.w3.org/2000/svg" xmlns:xlink="http://www.w3.org/1999/xlink">
<g id="graph0" class="graph" transform="scale(1 1) rotate(0) translate(4 465.5)">
<title>Ra::IO::AssimpHandleDataLoader::loadData</title>
<polygon fill="white" stroke="none" points="-4,4 -4,-465.5 336,-465.5 336,4 -4,4"/>
<!-- Node1 -->
<g id="node1" class="node"><title>Node1</title>
<polygon fill="#bfbfbf" stroke="black" points="0,-220.5 0,-250.5 143,-250.5 143,-220.5 0,-220.5"/>
<text text-anchor="start" x="8" y="-238.5" font-family="Helvetica,sans-Serif" font-size="10.00">Ra::IO::AssimpHandleData</text>
<text text-anchor="middle" x="71.5" y="-227.5" font-family="Helvetica,sans-Serif" font-size="10.00">Loader::loadData</text>
</g>
<!-- Node2 -->
<g id="node2" class="node"><title>Node2</title>
<g id="a_node2"><a xlink:href="namespaceRa_1_1IO.html#aef6c50424873964fcea0008be55d4a34" target="_top" xlink:title="Ra::IO::assimpToCore">
<polygon fill="white" stroke="black" points="197,-442 197,-461 314,-461 314,-442 197,-442"/>
<text text-anchor="middle" x="255.5" y="-449" font-family="Helvetica,sans-Serif" font-size="10.00">Ra::IO::assimpToCore</text>
</a>
</g>
</g>
<!-- Node1&#45;&gt;Node2 -->
<g id="edge1" class="edge"><title>Node1&#45;&gt;Node2</title>
<path fill="none" stroke="midnightblue" d="M76.1469,-250.557C85.934,-287.626 116.385,-383.817 179,-432.5 181.668,-434.574 184.534,-436.424 187.536,-438.074"/>
<polygon fill="midnightblue" stroke="midnightblue" points="186.339,-441.379 196.879,-442.449 189.307,-435.039 186.339,-441.379"/>
</g>
<!-- Node3 -->
<g id="node3" class="node"><title>Node3</title>
<g id="a_node3"><a xlink:href="classRa_1_1Core_1_1Asset_1_1HandleData.html#a9b6aadf86a2a5328c83fc9d17f09893c" target="_top" xlink:title="Set the type of the Handle system. ">
<polygon fill="white" stroke="black" points="179,-392.5 179,-422.5 332,-422.5 332,-392.5 179,-392.5"/>
<text text-anchor="start" x="187" y="-410.5" font-family="Helvetica,sans-Serif" font-size="10.00">Ra::Core::Asset::HandleData</text>
<text text-anchor="middle" x="255.5" y="-399.5" font-family="Helvetica,sans-Serif" font-size="10.00">::setType</text>
</a>
</g>
</g>
<!-- Node1&#45;&gt;Node3 -->
<g id="edge2" class="edge"><title>Node1&#45;&gt;Node3</title>
<path fill="none" stroke="midnightblue" d="M79.2469,-250.532C93.3922,-280.359 129.028,-347.262 179,-383.5 180.9,-384.878 182.882,-386.178 184.927,-387.406"/>
<polygon fill="midnightblue" stroke="midnightblue" points="183.758,-390.748 194.233,-392.335 187.034,-384.562 183.758,-390.748"/>
</g>
<!-- Node4 -->
<g id="node4" class="node"><title>Node4</title>
<g id="a_node4"><a xlink:href="classRa_1_1Core_1_1Asset_1_1HandleData.html#afd1b588bb09b7e6ff3ed39d702d4b042" target="_top" xlink:title="Set the name of the Handle system. ">
<polygon fill="white" stroke="black" points="179,-343.5 179,-373.5 332,-373.5 332,-343.5 179,-343.5"/>
<text text-anchor="start" x="187" y="-361.5" font-family="Helvetica,sans-Serif" font-size="10.00">Ra::Core::Asset::HandleData</text>
<text text-anchor="middle" x="255.5" y="-350.5" font-family="Helvetica,sans-Serif" font-size="10.00">::setName</text>
</a>
</g>
</g>
<!-- Node1&#45;&gt;Node4 -->
<g id="edge3" class="edge"><title>Node1&#45;&gt;Node4</title>
<path fill="none" stroke="midnightblue" d="M85.0171,-250.799C103.455,-272.395 139.974,-311.721 179,-334.5 182.001,-336.252 185.145,-337.892 188.375,-339.424"/>
<polygon fill="midnightblue" stroke="midnightblue" points="187.09,-342.682 197.656,-343.465 189.884,-336.264 187.09,-342.682"/>
</g>
<!-- Node5 -->
<g id="node5" class="node"><title>Node5</title>
<g id="a_node5"><a xlink:href="classRa_1_1Core_1_1Asset_1_1HandleData.html#a583661ca8646175c80bd0964f23abf07" target="_top" xlink:title="Set the transformation of the Handle system. ">
<polygon fill="white" stroke="black" points="179,-294.5 179,-324.5 332,-324.5 332,-294.5 179,-294.5"/>
<text text-anchor="start" x="187" y="-312.5" font-family="Helvetica,sans-Serif" font-size="10.00">Ra::Core::Asset::HandleData</text>
<text text-anchor="middle" x="255.5" y="-301.5" font-family="Helvetica,sans-Serif" font-size="10.00">::setFrame</text>
</a>
</g>
</g>
<!-- Node1&#45;&gt;Node5 -->
<g id="edge4" class="edge"><title>Node1&#45;&gt;Node5</title>
<path fill="none" stroke="midnightblue" d="M101.883,-250.57C123.019,-261.094 152.374,-275.07 179,-285.5 183.838,-287.395 188.893,-289.254 193.995,-291.046"/>
<polygon fill="midnightblue" stroke="midnightblue" points="193.225,-294.481 203.82,-294.4 195.487,-287.856 193.225,-294.481"/>
</g>
<!-- Node6 -->
<g id="node6" class="node"><title>Node6</title>
<g id="a_node6"><a xlink:href="classRa_1_1Core_1_1Asset_1_1HandleData.html#a1189e767e22ef4bb93527a724630cc56" target="_top" xlink:title="Set the map from Handle names to Handle storage index. ">
<polygon fill="white" stroke="black" points="179,-245.5 179,-275.5 332,-275.5 332,-245.5 179,-245.5"/>
<text text-anchor="start" x="187" y="-263.5" font-family="Helvetica,sans-Serif" font-size="10.00">Ra::Core::Asset::HandleData</text>
<text text-anchor="middle" x="255.5" y="-252.5" font-family="Helvetica,sans-Serif" font-size="10.00">::setNameTable</text>
</a>
</g>
</g>
<!-- Node1&#45;&gt;Node6 -->
<g id="edge5" class="edge"><title>Node1&#45;&gt;Node6</title>
<path fill="none" stroke="midnightblue" d="M143.126,-245.201C151.529,-246.356 160.176,-247.543 168.76,-248.723"/>
<polygon fill="midnightblue" stroke="midnightblue" points="168.407,-252.207 178.79,-250.1 169.36,-245.272 168.407,-252.207"/>
</g>
<!-- Node7 -->
<g id="node7" class="node"><title>Node7</title>
<g id="a_node7"><a xlink:href="classRa_1_1Core_1_1Asset_1_1HandleData.html#acbae173d72a5e07eaec8e930c9fffecf" target="_top" xlink:title="Set whether the Handle system needs end bones. ">
<polygon fill="white" stroke="black" points="179,-196.5 179,-226.5 332,-226.5 332,-196.5 179,-196.5"/>
<text text-anchor="start" x="187" y="-214.5" font-family="Helvetica,sans-Serif" font-size="10.00">Ra::Core::Asset::HandleData</text>
<text text-anchor="middle" x="255.5" y="-203.5" font-family="Helvetica,sans-Serif" font-size="10.00">::needEndNodes</text>
</a>
</g>
</g>
<!-- Node1&#45;&gt;Node7 -->
<g id="edge6" class="edge"><title>Node1&#45;&gt;Node7</title>
<path fill="none" stroke="midnightblue" d="M143.126,-226.187C151.529,-225.079 160.176,-223.938 168.76,-222.806"/>
<polygon fill="midnightblue" stroke="midnightblue" points="169.334,-226.261 178.79,-221.484 168.419,-219.321 169.334,-226.261"/>
</g>
<!-- Node8 -->
<g id="node8" class="node"><title>Node8</title>
<g id="a_node8"><a xlink:href="classRa_1_1Core_1_1Asset_1_1HandleData.html#a2418d9eca693c1ce84e66837faef6091" target="_top" xlink:title="Print stat info to the Debug output. ">
<polygon fill="white" stroke="black" points="179,-147.5 179,-177.5 332,-177.5 332,-147.5 179,-147.5"/>
<text text-anchor="start" x="187" y="-165.5" font-family="Helvetica,sans-Serif" font-size="10.00">Ra::Core::Asset::HandleData</text>
<text text-anchor="middle" x="255.5" y="-154.5" font-family="Helvetica,sans-Serif" font-size="10.00">::displayInfo</text>
</a>
</g>
</g>
<!-- Node1&#45;&gt;Node8 -->
<g id="edge7" class="edge"><title>Node1&#45;&gt;Node8</title>
<path fill="none" stroke="midnightblue" d="M103.824,-220.349C124.85,-210.436 153.301,-197.515 179,-187.5 184.741,-185.263 190.775,-183.046 196.825,-180.91"/>
<polygon fill="midnightblue" stroke="midnightblue" points="197.999,-184.207 206.305,-177.629 195.71,-177.592 197.999,-184.207"/>
</g>
<!-- Node9 -->
<g id="node9" class="node"><title>Node9</title>
<g id="a_node9"><a xlink:href="classRa_1_1Core_1_1Asset_1_1HandleData.html#a456d73d7b367dbf29f03d037bedaeaba" target="_top" xlink:title="Return the list of HandleComponentData. ">
<polygon fill="white" stroke="black" points="179,-98.5 179,-128.5 332,-128.5 332,-98.5 179,-98.5"/>
<text text-anchor="start" x="187" y="-116.5" font-family="Helvetica,sans-Serif" font-size="10.00">Ra::Core::Asset::HandleData</text>
<text text-anchor="middle" x="255.5" y="-105.5" font-family="Helvetica,sans-Serif" font-size="10.00">::getComponentData</text>
</a>
</g>
</g>
<!-- Node1&#45;&gt;Node9 -->
<g id="edge8" class="edge"><title>Node1&#45;&gt;Node9</title>
<path fill="none" stroke="midnightblue" d="M85.4341,-220.232C104.096,-199.092 140.574,-160.976 179,-138.5 182.62,-136.382 186.444,-134.415 190.373,-132.593"/>
<polygon fill="midnightblue" stroke="midnightblue" points="191.871,-135.759 199.682,-128.601 189.112,-129.325 191.871,-135.759"/>
</g>
<!-- Node10 -->
<g id="node10" class="node"><title>Node10</title>
<g id="a_node10"><a xlink:href="classRa_1_1Core_1_1Asset_1_1HandleData.html#ad517df66c4005d5768a68be7ccb29a1f" target="_top" xlink:title="Add name to the list of bound mesh names. ">
<polygon fill="white" stroke="black" points="179,-49.5 179,-79.5 332,-79.5 332,-49.5 179,-49.5"/>
<text text-anchor="start" x="187" y="-67.5" font-family="Helvetica,sans-Serif" font-size="10.00">Ra::Core::Asset::HandleData</text>
<text text-anchor="middle" x="255.5" y="-56.5" font-family="Helvetica,sans-Serif" font-size="10.00">::addBindMesh</text>
</a>
</g>
</g>
<!-- Node1&#45;&gt;Node10 -->
<g id="edge9" class="edge"><title>Node1&#45;&gt;Node10</title>
<path fill="none" stroke="midnightblue" d="M79.5613,-220.269C94.0199,-190.718 129.825,-125.367 179,-89.5 181.54,-87.6477 184.225,-85.9271 187.009,-84.3295"/>
<polygon fill="midnightblue" stroke="midnightblue" points="188.876,-87.3058 196.184,-79.6348 185.687,-81.0742 188.876,-87.3058"/>
</g>
<!-- Node11 -->
<g id="node11" class="node"><title>Node11</title>
<g id="a_node11"><a xlink:href="classRa_1_1Core_1_1Asset_1_1HandleData.html#a2ce8dde1d1d3848bcc76693a40e389de" target="_top" xlink:title="Return the HandleSystem hierarchy, i.e. bones hierarchy. ">
<polygon fill="white" stroke="black" points="179,-0.5 179,-30.5 332,-30.5 332,-0.5 179,-0.5"/>
<text text-anchor="start" x="187" y="-18.5" font-family="Helvetica,sans-Serif" font-size="10.00">Ra::Core::Asset::HandleData</text>
<text text-anchor="middle" x="255.5" y="-7.5" font-family="Helvetica,sans-Serif" font-size="10.00">::getEdgeData</text>
</a>
</g>
</g>
<!-- Node1&#45;&gt;Node11 -->
<g id="edge10" class="edge"><title>Node1&#45;&gt;Node11</title>
<path fill="none" stroke="midnightblue" d="M76.5729,-220.337C87.1369,-183.888 118.874,-90.666 179,-40.5 181.041,-38.7972 183.202,-37.2091 185.453,-35.7282"/>
<polygon fill="midnightblue" stroke="midnightblue" points="187.586,-38.5398 194.522,-30.5308 184.105,-32.4665 187.586,-38.5398"/>
</g>
</g>
</svg>
