<?xml version="1.0" encoding="UTF-8" standalone="no"?>
<!DOCTYPE svg PUBLIC "-//W3C//DTD SVG 1.1//EN"
 "http://www.w3.org/Graphics/SVG/1.1/DTD/svg11.dtd">
<!-- Generated by graphviz version 2.38.0 (20140413.2041)
 -->
<!-- Title: Ra::Gui::TrackballCameraManipulator::handleCameraZoom Pages: 1 -->
<svg width="674pt" height="388pt"
 viewBox="0.00 0.00 674.00 388.00" xmlns="http://www.w3.org/2000/svg" xmlns:xlink="http://www.w3.org/1999/xlink">
<g id="graph0" class="graph" transform="scale(1 1) rotate(0) translate(4 384)">
<title>Ra::Gui::TrackballCameraManipulator::handleCameraZoom</title>
<polygon fill="white" stroke="none" points="-4,4 -4,-384 670,-384 670,4 -4,4"/>
<!-- Node1 -->
<g id="node1" class="node"><title>Node1</title>
<polygon fill="#bfbfbf" stroke="black" points="0,-180.5 0,-210.5 179,-210.5 179,-180.5 0,-180.5"/>
<text text-anchor="start" x="8" y="-198.5" font-family="Helvetica,sans-Serif" font-size="10.00">Ra::Gui::TrackballCamera</text>
<text text-anchor="middle" x="89.5" y="-187.5" font-family="Helvetica,sans-Serif" font-size="10.00">Manipulator::handleCameraZoom</text>
</g>
<!-- Node2 -->
<g id="node2" class="node"><title>Node2</title>
<g id="a_node2"><a xlink:href="classRa_1_1Engine_1_1Camera.html#ada109d6d2ee179de1056af7531ba3c60" target="_top" xlink:title="Return the zoom factor. ">
<polygon fill="white" stroke="black" points="220.5,-349.5 220.5,-379.5 331.5,-379.5 331.5,-349.5 220.5,-349.5"/>
<text text-anchor="start" x="228.5" y="-367.5" font-family="Helvetica,sans-Serif" font-size="10.00">Ra::Engine::Camera</text>
<text text-anchor="middle" x="276" y="-356.5" font-family="Helvetica,sans-Serif" font-size="10.00">::getZoomFactor</text>
</a>
</g>
</g>
<!-- Node1&#45;&gt;Node2 -->
<g id="edge1" class="edge"><title>Node1&#45;&gt;Node2</title>
<path fill="none" stroke="midnightblue" d="M99.9458,-210.754C118.602,-239.749 162.916,-303.245 215,-340.5 216.891,-341.852 218.868,-343.143 220.906,-344.373"/>
<polygon fill="midnightblue" stroke="midnightblue" points="219.688,-347.694 230.148,-349.382 223.024,-341.54 219.688,-347.694"/>
</g>
<!-- Node3 -->
<g id="node3" class="node"><title>Node3</title>
<g id="a_node3"><a xlink:href="classRa_1_1Engine_1_1Camera.html#a6c6f55e7821123b64e4b84bdeacf12ea" target="_top" xlink:title="Set the zoom factor to &#39;zoomFactor&#39;. ">
<polygon fill="white" stroke="black" points="220.5,-300.5 220.5,-330.5 331.5,-330.5 331.5,-300.5 220.5,-300.5"/>
<text text-anchor="start" x="228.5" y="-318.5" font-family="Helvetica,sans-Serif" font-size="10.00">Ra::Engine::Camera</text>
<text text-anchor="middle" x="276" y="-307.5" font-family="Helvetica,sans-Serif" font-size="10.00">::setZoomFactor</text>
</a>
</g>
</g>
<!-- Node1&#45;&gt;Node3 -->
<g id="edge2" class="edge"><title>Node1&#45;&gt;Node3</title>
<path fill="none" stroke="midnightblue" d="M109.244,-210.532C133.052,-229.271 175.767,-261.727 215,-285.5 220.822,-289.028 227.114,-292.509 233.357,-295.78"/>
<polygon fill="midnightblue" stroke="midnightblue" points="231.911,-298.972 242.408,-300.405 235.095,-292.738 231.911,-298.972"/>
</g>
<!-- Node5 -->
<g id="node5" class="node"><title>Node5</title>
<g id="a_node5"><a xlink:href="namespaceRa_1_1Core_1_1Geometry.html#aa04e6052d8911b1df1bd881474debb45" target="_top" xlink:title="Ra::Core::Geometry::t">
<polygon fill="white" stroke="black" points="546,-284 546,-303 666,-303 666,-284 546,-284"/>
<text text-anchor="middle" x="606" y="-291" font-family="Helvetica,sans-Serif" font-size="10.00">Ra::Core::Geometry::t</text>
</a>
</g>
</g>
<!-- Node1&#45;&gt;Node5 -->
<g id="edge9" class="edge"><title>Node1&#45;&gt;Node5</title>
<path fill="none" stroke="midnightblue" d="M116.75,-210.576C141.315,-223.932 179.459,-242.777 215,-252.5 273.608,-268.534 440.089,-282.141 535.521,-288.91"/>
<polygon fill="midnightblue" stroke="midnightblue" points="535.44,-292.413 545.661,-289.623 535.931,-285.431 535.44,-292.413"/>
</g>
<!-- Node6 -->
<g id="node6" class="node"><title>Node6</title>
<g id="a_node6"><a xlink:href="namespaceRa_1_1Core_1_1Math.html#acc9f6f3b880b60bf0ee7723afabaf180" target="_top" xlink:title="Component&#45;wise clamp() function on a floating&#45;point vector. ">
<polygon fill="white" stroke="black" points="215,-224 215,-243 337,-243 337,-224 215,-224"/>
<text text-anchor="middle" x="276" y="-231" font-family="Helvetica,sans-Serif" font-size="10.00">Ra::Core::Math::clamp</text>
</a>
</g>
</g>
<!-- Node1&#45;&gt;Node6 -->
<g id="edge5" class="edge"><title>Node1&#45;&gt;Node6</title>
<path fill="none" stroke="midnightblue" d="M163.419,-210.519C181.859,-214.316 201.377,-218.337 218.846,-221.934"/>
<polygon fill="midnightblue" stroke="midnightblue" points="218.37,-225.41 228.871,-223.999 219.782,-218.554 218.37,-225.41"/>
</g>
<!-- Node7 -->
<g id="node7" class="node"><title>Node7</title>
<g id="a_node7"><a xlink:href="classRa_1_1Engine_1_1Camera.html#a724a052e94817af7e602129467c8696f" target="_top" xlink:title="Return the position. ">
<polygon fill="white" stroke="black" points="386,-115.5 386,-145.5 497,-145.5 497,-115.5 386,-115.5"/>
<text text-anchor="start" x="394" y="-133.5" font-family="Helvetica,sans-Serif" font-size="10.00">Ra::Engine::Camera</text>
<text text-anchor="middle" x="441.5" y="-122.5" font-family="Helvetica,sans-Serif" font-size="10.00">::getPosition</text>
</a>
</g>
</g>
<!-- Node1&#45;&gt;Node7 -->
<g id="edge6" class="edge"><title>Node1&#45;&gt;Node7</title>
<path fill="none" stroke="midnightblue" d="M179.233,-195.929C226.672,-194.349 285.712,-189.464 337,-176.5 360.264,-170.62 384.867,-159.893 404.246,-150.277"/>
<polygon fill="midnightblue" stroke="midnightblue" points="405.981,-153.321 413.311,-145.671 402.81,-147.08 405.981,-153.321"/>
</g>
<!-- Node8 -->
<g id="node8" class="node"><title>Node8</title>
<g id="a_node8"><a xlink:href="namespaceOpenMesh.html#a8205f789ce08919bc11c58383574596c" target="_top" xlink:title="OpenMesh::norm">
<polygon fill="white" stroke="black" points="226.5,-148 226.5,-167 325.5,-167 325.5,-148 226.5,-148"/>
<text text-anchor="middle" x="276" y="-155" font-family="Helvetica,sans-Serif" font-size="10.00">OpenMesh::norm</text>
</a>
</g>
</g>
<!-- Node1&#45;&gt;Node8 -->
<g id="edge7" class="edge"><title>Node1&#45;&gt;Node8</title>
<path fill="none" stroke="midnightblue" d="M163.419,-180.481C181.859,-176.684 201.377,-172.663 218.846,-169.066"/>
<polygon fill="midnightblue" stroke="midnightblue" points="219.782,-172.446 228.871,-167.001 218.37,-165.59 219.782,-172.446"/>
</g>
<!-- Node9 -->
<g id="node9" class="node"><title>Node9</title>
<g id="a_node9"><a xlink:href="classRa_1_1Engine_1_1Camera.html#aa11362078ab9307bb29c03f2295c39be" target="_top" xlink:title="Ra::Engine::Camera\l::getZNear">
<polygon fill="white" stroke="black" points="220.5,-98.5 220.5,-128.5 331.5,-128.5 331.5,-98.5 220.5,-98.5"/>
<text text-anchor="start" x="228.5" y="-116.5" font-family="Helvetica,sans-Serif" font-size="10.00">Ra::Engine::Camera</text>
<text text-anchor="middle" x="276" y="-105.5" font-family="Helvetica,sans-Serif" font-size="10.00">::getZNear</text>
</a>
</g>
</g>
<!-- Node1&#45;&gt;Node9 -->
<g id="edge8" class="edge"><title>Node1&#45;&gt;Node9</title>
<path fill="none" stroke="midnightblue" d="M122.608,-180.431C147.669,-168.758 183.416,-152.305 215,-138.5 219.482,-136.541 224.166,-134.529 228.855,-132.537"/>
<polygon fill="midnightblue" stroke="midnightblue" points="230.571,-135.613 238.426,-128.503 227.851,-129.162 230.571,-135.613"/>
</g>
<!-- Node10 -->
<g id="node10" class="node"><title>Node10</title>
<g id="a_node10"><a xlink:href="classRa_1_1Engine_1_1Camera.html#a23be7aa714c0e9c2a9429dfc9ef2c53a" target="_top" xlink:title="Return the direction the camera is looking at. ">
<polygon fill="white" stroke="black" points="220.5,-49.5 220.5,-79.5 331.5,-79.5 331.5,-49.5 220.5,-49.5"/>
<text text-anchor="start" x="228.5" y="-67.5" font-family="Helvetica,sans-Serif" font-size="10.00">Ra::Engine::Camera</text>
<text text-anchor="middle" x="276" y="-56.5" font-family="Helvetica,sans-Serif" font-size="10.00">::getDirection</text>
</a>
</g>
</g>
<!-- Node1&#45;&gt;Node10 -->
<g id="edge10" class="edge"><title>Node1&#45;&gt;Node10</title>
<path fill="none" stroke="midnightblue" d="M104.939,-180.218C126.92,-157.664 170.894,-115.253 215,-88.5 217.602,-86.9218 220.326,-85.4085 223.117,-83.9643"/>
<polygon fill="midnightblue" stroke="midnightblue" points="224.704,-87.085 232.193,-79.591 221.665,-80.779 224.704,-87.085"/>
</g>
<!-- Node11 -->
<g id="node11" class="node"><title>Node11</title>
<g id="a_node11"><a xlink:href="classRa_1_1Engine_1_1Camera.html#a7a2c1c84e3063c6c3f09d490477abb0f" target="_top" xlink:title="Apply the local transformation &#39;T&#39; to the camera. ">
<polygon fill="white" stroke="black" points="220.5,-0.5 220.5,-30.5 331.5,-30.5 331.5,-0.5 220.5,-0.5"/>
<text text-anchor="start" x="228.5" y="-18.5" font-family="Helvetica,sans-Serif" font-size="10.00">Ra::Engine::Camera</text>
<text text-anchor="middle" x="276" y="-7.5" font-family="Helvetica,sans-Serif" font-size="10.00">::applyTransform</text>
</a>
</g>
</g>
<!-- Node1&#45;&gt;Node11 -->
<g id="edge11" class="edge"><title>Node1&#45;&gt;Node11</title>
<path fill="none" stroke="midnightblue" d="M98.8264,-180.483C116.464,-149.928 160.479,-79.9975 215,-39.5 216.829,-38.1411 218.746,-36.8468 220.725,-35.6153"/>
<polygon fill="midnightblue" stroke="midnightblue" points="222.682,-38.5323 229.72,-30.6134 219.279,-32.4145 222.682,-38.5323"/>
</g>
<!-- Node4 -->
<g id="node4" class="node"><title>Node4</title>
<g id="a_node4"><a xlink:href="classRa_1_1Engine_1_1Camera.html#a2124136d939bd433f9630e23c403cdd6" target="_top" xlink:title="Update the projection matrix according to the current parameters. ">
<polygon fill="white" stroke="black" points="386,-300.5 386,-330.5 497,-330.5 497,-300.5 386,-300.5"/>
<text text-anchor="start" x="394" y="-318.5" font-family="Helvetica,sans-Serif" font-size="10.00">Ra::Engine::Camera</text>
<text text-anchor="middle" x="441.5" y="-307.5" font-family="Helvetica,sans-Serif" font-size="10.00">::updateProjMatrix</text>
</a>
</g>
</g>
<!-- Node3&#45;&gt;Node4 -->
<g id="edge3" class="edge"><title>Node3&#45;&gt;Node4</title>
<path fill="none" stroke="midnightblue" d="M331.898,-315.5C345.858,-315.5 360.993,-315.5 375.406,-315.5"/>
<polygon fill="midnightblue" stroke="midnightblue" points="375.747,-319 385.747,-315.5 375.747,-312 375.747,-319"/>
</g>
<!-- Node4&#45;&gt;Node5 -->
<g id="edge4" class="edge"><title>Node4&#45;&gt;Node5</title>
<path fill="none" stroke="midnightblue" d="M497.062,-308.113C509.43,-306.439 522.727,-304.639 535.616,-302.894"/>
<polygon fill="midnightblue" stroke="midnightblue" points="536.4,-306.319 545.84,-301.509 535.461,-299.383 536.4,-306.319"/>
</g>
<!-- Node11&#45;&gt;Node7 -->
<g id="edge12" class="edge"><title>Node11&#45;&gt;Node7</title>
<path fill="none" stroke="midnightblue" d="M319.841,-30.5357C325.764,-33.2133 331.647,-36.2115 337,-39.5 368.455,-58.8226 399.59,-87.9086 419.365,-107.971"/>
<polygon fill="midnightblue" stroke="midnightblue" points="416.887,-110.443 426.364,-115.179 421.908,-105.566 416.887,-110.443"/>
</g>
<!-- Node12 -->
<g id="node12" class="node"><title>Node12</title>
<g id="a_node12"><a xlink:href="classRa_1_1Engine_1_1RenderObject.html#a2d6a1bc2b7646fe0912035a2ece24864" target="_top" xlink:title="Ra::Engine::RenderObject\l::setLocalTransform">
<polygon fill="white" stroke="black" points="373,-0.5 373,-30.5 510,-30.5 510,-0.5 373,-0.5"/>
<text text-anchor="start" x="381" y="-18.5" font-family="Helvetica,sans-Serif" font-size="10.00">Ra::Engine::RenderObject</text>
<text text-anchor="middle" x="441.5" y="-7.5" font-family="Helvetica,sans-Serif" font-size="10.00">::setLocalTransform</text>
</a>
</g>
</g>
<!-- Node11&#45;&gt;Node12 -->
<g id="edge13" class="edge"><title>Node11&#45;&gt;Node12</title>
<path fill="none" stroke="midnightblue" d="M331.898,-15.5C341.881,-15.5 352.465,-15.5 362.956,-15.5"/>
<polygon fill="midnightblue" stroke="midnightblue" points="362.964,-19.0001 372.964,-15.5 362.964,-12.0001 362.964,-19.0001"/>
</g>
</g>
</svg>
