<?xml version="1.0" encoding="UTF-8" standalone="no"?>
<!DOCTYPE svg PUBLIC "-//W3C//DTD SVG 1.1//EN"
 "http://www.w3.org/Graphics/SVG/1.1/DTD/svg11.dtd">
<!-- Generated by graphviz version 2.38.0 (20140413.2041)
 -->
<!-- Title: Ra::GuiBase::TransformEditor Pages: 1 -->
<svg width="670pt" height="1609pt"
 viewBox="0.00 0.00 669.50 1609.00" xmlns="http://www.w3.org/2000/svg" xmlns:xlink="http://www.w3.org/1999/xlink">
<g id="graph0" class="graph" transform="scale(1 1) rotate(0) translate(4 1605)">
<title>Ra::GuiBase::TransformEditor</title>
<polygon fill="white" stroke="none" points="-4,4 -4,-1605 665.5,-1605 665.5,4 -4,4"/>
<!-- Node1 -->
<g id="node1" class="node"><title>Node1</title>
<polygon fill="#bfbfbf" stroke="black" points="128.5,-0.5 128.5,-134.5 283.5,-134.5 283.5,-0.5 128.5,-0.5"/>
<text text-anchor="middle" x="206" y="-122.5" font-family="Helvetica,sans-Serif" font-size="10.00">Ra::GuiBase::TransformEditor</text>
<polyline fill="none" stroke="black" points="128.5,-115.5 283.5,-115.5 "/>
<text text-anchor="middle" x="206" y="-103.5" font-family="Helvetica,sans-Serif" font-size="10.00"> </text>
<polyline fill="none" stroke="black" points="128.5,-96.5 283.5,-96.5 "/>
<text text-anchor="start" x="136.5" y="-84.5" font-family="Helvetica,sans-Serif" font-size="10.00">+ TransformEditor()</text>
<text text-anchor="start" x="136.5" y="-73.5" font-family="Helvetica,sans-Serif" font-size="10.00">+ ~TransformEditor()</text>
<text text-anchor="start" x="136.5" y="-62.5" font-family="Helvetica,sans-Serif" font-size="10.00">+ setEditable()</text>
<text text-anchor="start" x="136.5" y="-51.5" font-family="Helvetica,sans-Serif" font-size="10.00">+ updateValues()</text>
<text text-anchor="start" x="136.5" y="-40.5" font-family="Helvetica,sans-Serif" font-size="10.00"># getTransform()</text>
<text text-anchor="start" x="136.5" y="-29.5" font-family="Helvetica,sans-Serif" font-size="10.00"># setTransform()</text>
<text text-anchor="start" x="136.5" y="-18.5" font-family="Helvetica,sans-Serif" font-size="10.00"># canEdit()</text>
<text text-anchor="start" x="136.5" y="-7.5" font-family="Helvetica,sans-Serif" font-size="10.00"># getWorldTransform()</text>
</g>
<!-- Node2 -->
<g id="node2" class="node"><title>Node2</title>
<g id="a_node2"><a xlink:href="structRa_1_1Engine_1_1ItemEntry.html" target="_top" xlink:title="This represent a handle for an entity, component or render object. ">
<polygon fill="white" stroke="black" points="60.5,-182.5 60.5,-327.5 185.5,-327.5 185.5,-182.5 60.5,-182.5"/>
<text text-anchor="middle" x="123" y="-315.5" font-family="Helvetica,sans-Serif" font-size="10.00">Ra::Engine::ItemEntry</text>
<polyline fill="none" stroke="black" points="60.5,-308.5 185.5,-308.5 "/>
<text text-anchor="middle" x="123" y="-296.5" font-family="Helvetica,sans-Serif" font-size="10.00"> </text>
<polyline fill="none" stroke="black" points="60.5,-289.5 185.5,-289.5 "/>
<text text-anchor="start" x="68.5" y="-277.5" font-family="Helvetica,sans-Serif" font-size="10.00">+ ItemEntry()</text>
<text text-anchor="start" x="68.5" y="-266.5" font-family="Helvetica,sans-Serif" font-size="10.00">+ ItemEntry()</text>
<text text-anchor="start" x="68.5" y="-255.5" font-family="Helvetica,sans-Serif" font-size="10.00">+ operator==()</text>
<text text-anchor="start" x="68.5" y="-244.5" font-family="Helvetica,sans-Serif" font-size="10.00">+ isValid()</text>
<text text-anchor="start" x="68.5" y="-233.5" font-family="Helvetica,sans-Serif" font-size="10.00">+ isSelectable()</text>
<text text-anchor="start" x="68.5" y="-222.5" font-family="Helvetica,sans-Serif" font-size="10.00">+ isEntityNode()</text>
<text text-anchor="start" x="68.5" y="-211.5" font-family="Helvetica,sans-Serif" font-size="10.00">+ isComponentNode()</text>
<text text-anchor="start" x="68.5" y="-200.5" font-family="Helvetica,sans-Serif" font-size="10.00">+ isRoNode()</text>
<text text-anchor="start" x="68.5" y="-189.5" font-family="Helvetica,sans-Serif" font-size="10.00">+ checkConsistency()</text>
</a>
</g>
</g>
<!-- Node2&#45;&gt;Node1 -->
<g id="edge1" class="edge"><title>Node2&#45;&gt;Node1</title>
<path fill="none" stroke="#404040" d="M137.346,-182.281C140.329,-172.252 143.856,-162.228 148,-153 149.169,-150.398 150.418,-147.79 151.734,-145.188"/>
<polygon fill="none" stroke="#404040" points="151.778,-145.107 151.11,-137.927 157.48,-134.549 158.149,-141.729 151.778,-145.107"/>
<text text-anchor="middle" x="187.5" y="-156" font-family="Helvetica,sans-Serif" font-size="10.00"> #m_currentEdit</text>
</g>
<!-- Node3 -->
<g id="node3" class="node"><title>Node3</title>
<g id="a_node3"><a xlink:href="classRa_1_1Engine_1_1Component.html" target="_top" xlink:title="A component is an element that can be updated by a system. ">
<polygon fill="white" stroke="black" points="195.5,-375.5 195.5,-597.5 356.5,-597.5 356.5,-375.5 195.5,-375.5"/>
<text text-anchor="middle" x="276" y="-585.5" font-family="Helvetica,sans-Serif" font-size="10.00">Ra::Engine::Component</text>
<polyline fill="none" stroke="black" points="195.5,-578.5 356.5,-578.5 "/>
<text text-anchor="middle" x="276" y="-566.5" font-family="Helvetica,sans-Serif" font-size="10.00"> </text>
<polyline fill="none" stroke="black" points="195.5,-559.5 356.5,-559.5 "/>
<text text-anchor="start" x="203.5" y="-547.5" font-family="Helvetica,sans-Serif" font-size="10.00">+ Component()</text>
<text text-anchor="start" x="203.5" y="-536.5" font-family="Helvetica,sans-Serif" font-size="10.00">+ ~Component()</text>
<text text-anchor="start" x="203.5" y="-525.5" font-family="Helvetica,sans-Serif" font-size="10.00">+ initialize()</text>
<text text-anchor="start" x="203.5" y="-514.5" font-family="Helvetica,sans-Serif" font-size="10.00">+ setEntity()</text>
<text text-anchor="start" x="203.5" y="-503.5" font-family="Helvetica,sans-Serif" font-size="10.00">+ getEntity()</text>
<text text-anchor="start" x="203.5" y="-492.5" font-family="Helvetica,sans-Serif" font-size="10.00">+ getName()</text>
<text text-anchor="start" x="203.5" y="-481.5" font-family="Helvetica,sans-Serif" font-size="10.00">+ setSystem()</text>
<text text-anchor="start" x="203.5" y="-470.5" font-family="Helvetica,sans-Serif" font-size="10.00">+ getSystem()</text>
<text text-anchor="start" x="203.5" y="-459.5" font-family="Helvetica,sans-Serif" font-size="10.00">+ addRenderObject()</text>
<text text-anchor="start" x="203.5" y="-448.5" font-family="Helvetica,sans-Serif" font-size="10.00">+ removeRenderObject()</text>
<text text-anchor="start" x="203.5" y="-437.5" font-family="Helvetica,sans-Serif" font-size="10.00">+ canEdit()</text>
<text text-anchor="start" x="203.5" y="-426.5" font-family="Helvetica,sans-Serif" font-size="10.00">+ getTransform()</text>
<text text-anchor="start" x="203.5" y="-415.5" font-family="Helvetica,sans-Serif" font-size="10.00">+ setTransform()</text>
<text text-anchor="start" x="203.5" y="-404.5" font-family="Helvetica,sans-Serif" font-size="10.00">+ notifyRenderObjectExpired()</text>
<text text-anchor="start" x="203.5" y="-393.5" font-family="Helvetica,sans-Serif" font-size="10.00">+ computeAabb()</text>
<text text-anchor="start" x="203.5" y="-382.5" font-family="Helvetica,sans-Serif" font-size="10.00"># getRoMgr()</text>
</a>
</g>
</g>
<!-- Node3&#45;&gt;Node2 -->
<g id="edge2" class="edge"><title>Node3&#45;&gt;Node2</title>
<path fill="none" stroke="#404040" d="M202.637,-375.455C194.189,-362.783 185.69,-350.034 177.552,-337.828"/>
<polygon fill="none" stroke="#404040" points="177.468,-337.701 170.811,-334.928 170.811,-327.717 177.468,-330.49 177.468,-337.701"/>
<text text-anchor="middle" x="227" y="-349" font-family="Helvetica,sans-Serif" font-size="10.00"> +m_component</text>
</g>
<!-- Node4 -->
<g id="node4" class="node"><title>Node4</title>
<polygon fill="white" stroke="#bfbfbf" points="213.5,-954 213.5,-1033 324.5,-1033 324.5,-954 213.5,-954"/>
<text text-anchor="start" x="221.5" y="-1021" font-family="Helvetica,sans-Serif" font-size="10.00">std::vector&lt; Core::</text>
<text text-anchor="start" x="221.5" y="-1010" font-family="Helvetica,sans-Serif" font-size="10.00">Utils::Ra::Core::Utils</text>
<text text-anchor="middle" x="269" y="-999" font-family="Helvetica,sans-Serif" font-size="10.00">::Index &gt;</text>
<polyline fill="none" stroke="#bfbfbf" points="213.5,-992 324.5,-992 "/>
<text text-anchor="middle" x="269" y="-980" font-family="Helvetica,sans-Serif" font-size="10.00"> </text>
<polyline fill="none" stroke="#bfbfbf" points="213.5,-973 324.5,-973 "/>
<text text-anchor="middle" x="269" y="-961" font-family="Helvetica,sans-Serif" font-size="10.00"> </text>
</g>
<!-- Node4&#45;&gt;Node3 -->
<g id="edge3" class="edge"><title>Node4&#45;&gt;Node3</title>
<path fill="none" stroke="#404040" d="M269.538,-953.712C270.545,-881.066 272.753,-721.726 274.307,-609.628"/>
<polygon fill="none" stroke="#404040" points="274.308,-609.568 270.391,-603.513 274.474,-597.569 278.391,-603.624 274.308,-609.568"/>
<text text-anchor="middle" x="321" y="-765" font-family="Helvetica,sans-Serif" font-size="10.00"> +m_renderObjects</text>
</g>
<!-- Node5 -->
<g id="node5" class="node"><title>Node5</title>
<polygon fill="white" stroke="#bfbfbf" points="178,-1279 178,-1336 220,-1336 220,-1279 178,-1279"/>
<text text-anchor="middle" x="199" y="-1324" font-family="Helvetica,sans-Serif" font-size="10.00">Index</text>
<polyline fill="none" stroke="#bfbfbf" points="178,-1317 220,-1317 "/>
<text text-anchor="middle" x="199" y="-1305" font-family="Helvetica,sans-Serif" font-size="10.00"> </text>
<polyline fill="none" stroke="#bfbfbf" points="178,-1298 220,-1298 "/>
<text text-anchor="middle" x="199" y="-1286" font-family="Helvetica,sans-Serif" font-size="10.00"> </text>
</g>
<!-- Node5&#45;&gt;Node4 -->
<g id="edge4" class="edge"><title>Node5&#45;&gt;Node4</title>
<path fill="none" stroke="#404040" d="M192.792,-1278.8C183.888,-1233.03 171.504,-1139.55 200,-1068 203.591,-1058.98 208.864,-1050.42 214.922,-1042.55"/>
<polygon fill="none" stroke="#404040" points="214.954,-1042.51 215.725,-1035.34 222.639,-1033.29 221.869,-1040.46 214.954,-1042.51"/>
<text text-anchor="middle" x="228.5" y="-1082" font-family="Helvetica,sans-Serif" font-size="10.00"> +elements</text>
</g>
<!-- Node6 -->
<g id="node6" class="node"><title>Node6</title>
<g id="a_node6"><a xlink:title="STL class. ">
<polygon fill="white" stroke="#bfbfbf" points="292.5,-1279 292.5,-1336 387.5,-1336 387.5,-1279 292.5,-1279"/>
<text text-anchor="middle" x="340" y="-1324" font-family="Helvetica,sans-Serif" font-size="10.00">std::vector&lt; T &gt;</text>
<polyline fill="none" stroke="#bfbfbf" points="292.5,-1317 387.5,-1317 "/>
<text text-anchor="middle" x="340" y="-1305" font-family="Helvetica,sans-Serif" font-size="10.00"> </text>
<polyline fill="none" stroke="#bfbfbf" points="292.5,-1298 387.5,-1298 "/>
<text text-anchor="middle" x="340" y="-1286" font-family="Helvetica,sans-Serif" font-size="10.00"> </text>
</a>
</g>
</g>
<!-- Node6&#45;&gt;Node4 -->
<g id="edge5" class="edge"><title>Node6&#45;&gt;Node4</title>
<path fill="none" stroke="orange" d="M326.975,-1269.46C313.163,-1228.69 291.752,-1160.98 280,-1101 275.639,-1078.75 272.937,-1053.52 271.302,-1033.2"/>
<polygon fill="orange" stroke="orange" points="323.681,-1270.64 330.227,-1278.97 330.305,-1268.38 323.681,-1270.64"/>
<text text-anchor="start" x="280" y="-1087.5" font-family="Helvetica,sans-Serif" font-size="10.00"> &lt; Core::Utils::Ra::</text>
<text text-anchor="middle" x="326.5" y="-1076.5" font-family="Helvetica,sans-Serif" font-size="10.00">Core::Utils::Index &gt;</text>
</g>
<!-- Node9 -->
<g id="node9" class="node"><title>Node9</title>
<polygon fill="white" stroke="#bfbfbf" points="366,-954 366,-1033 540,-1033 540,-954 366,-954"/>
<text text-anchor="start" x="374" y="-1021" font-family="Helvetica,sans-Serif" font-size="10.00">std::vector&lt; std::pair</text>
<text text-anchor="start" x="374" y="-1010" font-family="Helvetica,sans-Serif" font-size="10.00">&lt; const Ra::Engine::Entity</text>
<text text-anchor="middle" x="453" y="-999" font-family="Helvetica,sans-Serif" font-size="10.00"> *, Ra::Engine::Component * &gt; &gt;</text>
<polyline fill="none" stroke="#bfbfbf" points="366,-992 540,-992 "/>
<text text-anchor="middle" x="453" y="-980" font-family="Helvetica,sans-Serif" font-size="10.00"> </text>
<polyline fill="none" stroke="#bfbfbf" points="366,-973 540,-973 "/>
<text text-anchor="middle" x="453" y="-961" font-family="Helvetica,sans-Serif" font-size="10.00"> </text>
</g>
<!-- Node6&#45;&gt;Node9 -->
<g id="edge10" class="edge"><title>Node6&#45;&gt;Node9</title>
<path fill="none" stroke="orange" d="M343.822,-1268.73C349.835,-1220.26 364.266,-1134.52 396,-1068 401.771,-1055.9 409.791,-1043.92 417.996,-1033.26"/>
<polygon fill="orange" stroke="orange" points="340.333,-1268.43 342.631,-1278.77 347.284,-1269.25 340.333,-1268.43"/>
<text text-anchor="start" x="396" y="-1093" font-family="Helvetica,sans-Serif" font-size="10.00"> &lt; std::pair&lt; const</text>
<text text-anchor="start" x="396" y="-1082" font-family="Helvetica,sans-Serif" font-size="10.00"> Ra::Engine::Entity</text>
<text text-anchor="middle" x="475" y="-1071" font-family="Helvetica,sans-Serif" font-size="10.00"> *, Ra::Engine::Component * &gt; &gt;</text>
</g>
<!-- Node7 -->
<g id="node7" class="node"><title>Node7</title>
<polygon fill="white" stroke="#bfbfbf" points="325.5,-1543.5 325.5,-1600.5 354.5,-1600.5 354.5,-1543.5 325.5,-1543.5"/>
<text text-anchor="middle" x="340" y="-1588.5" font-family="Helvetica,sans-Serif" font-size="10.00">T</text>
<polyline fill="none" stroke="#bfbfbf" points="325.5,-1581.5 354.5,-1581.5 "/>
<text text-anchor="middle" x="340" y="-1569.5" font-family="Helvetica,sans-Serif" font-size="10.00"> </text>
<polyline fill="none" stroke="#bfbfbf" points="325.5,-1562.5 354.5,-1562.5 "/>
<text text-anchor="middle" x="340" y="-1550.5" font-family="Helvetica,sans-Serif" font-size="10.00"> </text>
</g>
<!-- Node7&#45;&gt;Node6 -->
<g id="edge6" class="edge"><title>Node7&#45;&gt;Node6</title>
<path fill="none" stroke="#404040" d="M340,-1543.4C340,-1496.73 340,-1402.04 340,-1348.23"/>
<polygon fill="none" stroke="#404040" points="340,-1348.12 336,-1342.12 340,-1336.12 344,-1342.12 340,-1348.12"/>
<text text-anchor="middle" x="368.5" y="-1517" font-family="Helvetica,sans-Serif" font-size="10.00"> +elements</text>
</g>
<!-- Node8 -->
<g id="node8" class="node"><title>Node8</title>
<g id="a_node8"><a xlink:href="classRa_1_1Engine_1_1System.html" target="_top" xlink:title="Systems are responsible of updating a specific subset of the components of each entity. ">
<polygon fill="white" stroke="black" points="381.5,-700.5 381.5,-834.5 538.5,-834.5 538.5,-700.5 381.5,-700.5"/>
<text text-anchor="middle" x="460" y="-822.5" font-family="Helvetica,sans-Serif" font-size="10.00">Ra::Engine::System</text>
<polyline fill="none" stroke="black" points="381.5,-815.5 538.5,-815.5 "/>
<text text-anchor="middle" x="460" y="-803.5" font-family="Helvetica,sans-Serif" font-size="10.00"> </text>
<polyline fill="none" stroke="black" points="381.5,-796.5 538.5,-796.5 "/>
<text text-anchor="start" x="389.5" y="-784.5" font-family="Helvetica,sans-Serif" font-size="10.00">+ System()</text>
<text text-anchor="start" x="389.5" y="-773.5" font-family="Helvetica,sans-Serif" font-size="10.00">+ ~System()</text>
<text text-anchor="start" x="389.5" y="-762.5" font-family="Helvetica,sans-Serif" font-size="10.00">+ handleAssetLoading()</text>
<text text-anchor="start" x="389.5" y="-751.5" font-family="Helvetica,sans-Serif" font-size="10.00">+ generateTasks()</text>
<text text-anchor="start" x="389.5" y="-740.5" font-family="Helvetica,sans-Serif" font-size="10.00">+ getEntityComponents()</text>
<text text-anchor="start" x="389.5" y="-729.5" font-family="Helvetica,sans-Serif" font-size="10.00"># registerComponent()</text>
<text text-anchor="start" x="389.5" y="-718.5" font-family="Helvetica,sans-Serif" font-size="10.00"># unregisterComponent()</text>
<text text-anchor="start" x="389.5" y="-707.5" font-family="Helvetica,sans-Serif" font-size="10.00"># unregisterAllComponents()</text>
</a>
</g>
</g>
<!-- Node8&#45;&gt;Node3 -->
<g id="edge7" class="edge"><title>Node8&#45;&gt;Node3</title>
<path fill="none" stroke="#404040" d="M416.395,-700.381C398.127,-672.681 376.3,-639.586 355.364,-607.839"/>
<polygon fill="none" stroke="#404040" points="355.21,-607.606 348.567,-604.799 348.603,-597.588 355.246,-600.395 355.21,-607.606"/>
<text text-anchor="middle" x="399" y="-619" font-family="Helvetica,sans-Serif" font-size="10.00"> #m_system</text>
</g>
<!-- Node9&#45;&gt;Node8 -->
<g id="edge8" class="edge"><title>Node9&#45;&gt;Node8</title>
<path fill="none" stroke="#404040" d="M454.203,-953.993C455.123,-924.549 456.423,-882.971 457.558,-846.64"/>
<polygon fill="none" stroke="#404040" points="457.561,-846.54 453.751,-840.418 457.936,-834.545 461.747,-840.667 457.561,-846.54"/>
<text text-anchor="middle" x="499.5" y="-911" font-family="Helvetica,sans-Serif" font-size="10.00"> #m_components</text>
</g>
<!-- Node10 -->
<g id="node10" class="node"><title>Node10</title>
<polygon fill="white" stroke="#bfbfbf" points="513.5,-1268 513.5,-1347 638.5,-1347 638.5,-1268 513.5,-1268"/>
<text text-anchor="start" x="521.5" y="-1335" font-family="Helvetica,sans-Serif" font-size="10.00">pair&lt; const Ra::Engine</text>
<text text-anchor="start" x="521.5" y="-1324" font-family="Helvetica,sans-Serif" font-size="10.00">::Entity *, Ra::Engine</text>
<text text-anchor="middle" x="576" y="-1313" font-family="Helvetica,sans-Serif" font-size="10.00">::Component * &gt;</text>
<polyline fill="none" stroke="#bfbfbf" points="513.5,-1306 638.5,-1306 "/>
<text text-anchor="middle" x="576" y="-1294" font-family="Helvetica,sans-Serif" font-size="10.00"> </text>
<polyline fill="none" stroke="#bfbfbf" points="513.5,-1287 638.5,-1287 "/>
<text text-anchor="middle" x="576" y="-1275" font-family="Helvetica,sans-Serif" font-size="10.00"> </text>
</g>
<!-- Node10&#45;&gt;Node9 -->
<g id="edge9" class="edge"><title>Node10&#45;&gt;Node9</title>
<path fill="none" stroke="#404040" d="M581.725,-1267.7C587.082,-1217.97 589.65,-1130.72 554,-1068 548.353,-1058.06 540.752,-1049.11 532.239,-1041.14"/>
<polygon fill="none" stroke="#404040" points="532.15,-1041.06 524.996,-1040.16 523.083,-1033.2 530.236,-1034.11 532.15,-1041.06"/>
<text text-anchor="middle" x="595.5" y="-1082" font-family="Helvetica,sans-Serif" font-size="10.00"> +elements</text>
</g>
<!-- Node11 -->
<g id="node11" class="node"><title>Node11</title>
<g id="a_node11"><a xlink:href="classRa_1_1Engine_1_1Entity.html" target="_top" xlink:title="An entity is an scene element. It ties together components with a transform. ">
<polygon fill="white" stroke="black" points="93,-645.5 93,-889.5 233,-889.5 233,-645.5 93,-645.5"/>
<text text-anchor="middle" x="163" y="-877.5" font-family="Helvetica,sans-Serif" font-size="10.00">Ra::Engine::Entity</text>
<polyline fill="none" stroke="black" points="93,-870.5 233,-870.5 "/>
<text text-anchor="middle" x="163" y="-858.5" font-family="Helvetica,sans-Serif" font-size="10.00"> </text>
<polyline fill="none" stroke="black" points="93,-851.5 233,-851.5 "/>
<text text-anchor="start" x="101" y="-839.5" font-family="Helvetica,sans-Serif" font-size="10.00">+ Entity()</text>
<text text-anchor="start" x="101" y="-828.5" font-family="Helvetica,sans-Serif" font-size="10.00">+ Entity()</text>
<text text-anchor="start" x="101" y="-817.5" font-family="Helvetica,sans-Serif" font-size="10.00">+ operator=()</text>
<text text-anchor="start" x="101" y="-806.5" font-family="Helvetica,sans-Serif" font-size="10.00">+ ~Entity()</text>
<text text-anchor="start" x="101" y="-795.5" font-family="Helvetica,sans-Serif" font-size="10.00">+ getName()</text>
<text text-anchor="start" x="101" y="-784.5" font-family="Helvetica,sans-Serif" font-size="10.00">+ rename()</text>
<text text-anchor="start" x="101" y="-773.5" font-family="Helvetica,sans-Serif" font-size="10.00">+ setTransform()</text>
<text text-anchor="start" x="101" y="-762.5" font-family="Helvetica,sans-Serif" font-size="10.00">+ setTransform()</text>
<text text-anchor="start" x="101" y="-751.5" font-family="Helvetica,sans-Serif" font-size="10.00">+ getTransform()</text>
<text text-anchor="start" x="101" y="-740.5" font-family="Helvetica,sans-Serif" font-size="10.00">+ getTransformAsMatrix()</text>
<text text-anchor="start" x="101" y="-729.5" font-family="Helvetica,sans-Serif" font-size="10.00">+ swapTransformBuffers()</text>
<text text-anchor="start" x="101" y="-718.5" font-family="Helvetica,sans-Serif" font-size="10.00">+ addComponent()</text>
<text text-anchor="start" x="101" y="-707.5" font-family="Helvetica,sans-Serif" font-size="10.00">+ removeComponent()</text>
<text text-anchor="start" x="101" y="-696.5" font-family="Helvetica,sans-Serif" font-size="10.00">+ getComponent()</text>
<text text-anchor="start" x="101" y="-685.5" font-family="Helvetica,sans-Serif" font-size="10.00">+ getComponent()</text>
<text text-anchor="start" x="101" y="-674.5" font-family="Helvetica,sans-Serif" font-size="10.00">+ getComponents()</text>
<text text-anchor="start" x="101" y="-663.5" font-family="Helvetica,sans-Serif" font-size="10.00">+ getNumComponents()</text>
<text text-anchor="start" x="101" y="-652.5" font-family="Helvetica,sans-Serif" font-size="10.00">+ computeAabb()</text>
</a>
</g>
</g>
<!-- Node11&#45;&gt;Node2 -->
<g id="edge18" class="edge"><title>Node11&#45;&gt;Node2</title>
<path fill="none" stroke="#404040" d="M138.38,-645.338C135.841,-629.469 133.608,-613.383 132,-598 122.828,-510.229 121.271,-409.138 121.579,-339.754"/>
<polygon fill="none" stroke="#404040" points="121.58,-339.608 117.617,-333.584 121.653,-327.609 125.617,-333.633 121.58,-339.608"/>
<text text-anchor="middle" x="159" y="-484" font-family="Helvetica,sans-Serif" font-size="10.00"> +m_entity</text>
</g>
<!-- Node11&#45;&gt;Node3 -->
<g id="edge11" class="edge"><title>Node11&#45;&gt;Node3</title>
<path fill="none" stroke="#404040" d="M190.441,-645.187C193.661,-635.199 197.178,-625.355 201,-616 202.012,-613.523 203.065,-611.036 204.154,-608.543"/>
<polygon fill="none" stroke="#404040" points="204.165,-608.518 203.014,-601.399 209.143,-597.599 210.294,-604.717 204.165,-608.518"/>
<text text-anchor="middle" x="228" y="-619" font-family="Helvetica,sans-Serif" font-size="10.00"> #m_entity</text>
</g>
<!-- Node12 -->
<g id="node12" class="node"><title>Node12</title>
<g id="a_node12"><a xlink:href="classRa_1_1Core_1_1Utils_1_1IndexedObject.html" target="_top" xlink:title="{Ra::Core::Utils::Indexed\lObject\n||+ IndexedObject()\l+ IndexedObject()\l+ ~IndexedObject()\l+ setIndex()\l+ getIndex()\l}">
<polygon fill="white" stroke="black" points="65,-937.5 65,-1049.5 193,-1049.5 193,-937.5 65,-937.5"/>
<text text-anchor="start" x="73" y="-1037.5" font-family="Helvetica,sans-Serif" font-size="10.00">Ra::Core::Utils::Indexed</text>
<text text-anchor="middle" x="129" y="-1026.5" font-family="Helvetica,sans-Serif" font-size="10.00">Object</text>
<polyline fill="none" stroke="black" points="65,-1019.5 193,-1019.5 "/>
<text text-anchor="middle" x="129" y="-1007.5" font-family="Helvetica,sans-Serif" font-size="10.00"> </text>
<polyline fill="none" stroke="black" points="65,-1000.5 193,-1000.5 "/>
<text text-anchor="start" x="73" y="-988.5" font-family="Helvetica,sans-Serif" font-size="10.00">+ IndexedObject()</text>
<text text-anchor="start" x="73" y="-977.5" font-family="Helvetica,sans-Serif" font-size="10.00">+ IndexedObject()</text>
<text text-anchor="start" x="73" y="-966.5" font-family="Helvetica,sans-Serif" font-size="10.00">+ ~IndexedObject()</text>
<text text-anchor="start" x="73" y="-955.5" font-family="Helvetica,sans-Serif" font-size="10.00">+ setIndex()</text>
<text text-anchor="start" x="73" y="-944.5" font-family="Helvetica,sans-Serif" font-size="10.00">+ getIndex()</text>
</a>
</g>
</g>
<!-- Node12&#45;&gt;Node11 -->
<g id="edge12" class="edge"><title>Node12&#45;&gt;Node11</title>
<path fill="none" stroke="midnightblue" d="M138.91,-927.213C140.713,-915.331 142.646,-902.595 144.604,-889.696"/>
<polygon fill="none" stroke="midnightblue" points="135.401,-927.005 137.361,-937.417 142.322,-928.055 135.401,-927.005"/>
</g>
<!-- Node13 -->
<g id="node13" class="node"><title>Node13</title>
<g id="a_node13"><a xlink:href="classRa_1_1Core_1_1Utils_1_1Index.html" target="_top" xlink:title="{Ra::Core::Utils::Index\n||+ Index()\l+ Index()\l+ operator=()\l+ isValid()\l+ isInvalid()\l+ setInvalid()\l+ getValue()\l+ setValue()\l+ operator int()\l+ operator=()\l+ operator++()\l+ operator&#45;&#45;()\l+ operator+()\l+ operator+()\l+ operator&#45;()\l+ operator&#45;()\l+ operator==()\l+ operator==()\l+ operator!=()\l+ operator!=()\l+ operator\&lt;()\l+ operator\&lt;()\l+ operator\&lt;=()\l+ operator\&lt;=()\l+ operator\&gt;()\l+ operator\&gt;()\l+ operator\&gt;=()\l+ operator\&gt;=()\l+ Invalid()\l+ Max()\l}">
<polygon fill="white" stroke="black" points="0,-1119.5 0,-1495.5 116,-1495.5 116,-1119.5 0,-1119.5"/>
<text text-anchor="middle" x="58" y="-1483.5" font-family="Helvetica,sans-Serif" font-size="10.00">Ra::Core::Utils::Index</text>
<polyline fill="none" stroke="black" points="0,-1476.5 116,-1476.5 "/>
<text text-anchor="middle" x="58" y="-1464.5" font-family="Helvetica,sans-Serif" font-size="10.00"> </text>
<polyline fill="none" stroke="black" points="0,-1457.5 116,-1457.5 "/>
<text text-anchor="start" x="8" y="-1445.5" font-family="Helvetica,sans-Serif" font-size="10.00">+ Index()</text>
<text text-anchor="start" x="8" y="-1434.5" font-family="Helvetica,sans-Serif" font-size="10.00">+ Index()</text>
<text text-anchor="start" x="8" y="-1423.5" font-family="Helvetica,sans-Serif" font-size="10.00">+ operator=()</text>
<text text-anchor="start" x="8" y="-1412.5" font-family="Helvetica,sans-Serif" font-size="10.00">+ isValid()</text>
<text text-anchor="start" x="8" y="-1401.5" font-family="Helvetica,sans-Serif" font-size="10.00">+ isInvalid()</text>
<text text-anchor="start" x="8" y="-1390.5" font-family="Helvetica,sans-Serif" font-size="10.00">+ setInvalid()</text>
<text text-anchor="start" x="8" y="-1379.5" font-family="Helvetica,sans-Serif" font-size="10.00">+ getValue()</text>
<text text-anchor="start" x="8" y="-1368.5" font-family="Helvetica,sans-Serif" font-size="10.00">+ setValue()</text>
<text text-anchor="start" x="8" y="-1357.5" font-family="Helvetica,sans-Serif" font-size="10.00">+ operator int()</text>
<text text-anchor="start" x="8" y="-1346.5" font-family="Helvetica,sans-Serif" font-size="10.00">+ operator=()</text>
<text text-anchor="start" x="8" y="-1335.5" font-family="Helvetica,sans-Serif" font-size="10.00">+ operator++()</text>
<text text-anchor="start" x="8" y="-1324.5" font-family="Helvetica,sans-Serif" font-size="10.00">+ operator&#45;&#45;()</text>
<text text-anchor="start" x="8" y="-1313.5" font-family="Helvetica,sans-Serif" font-size="10.00">+ operator+()</text>
<text text-anchor="start" x="8" y="-1302.5" font-family="Helvetica,sans-Serif" font-size="10.00">+ operator+()</text>
<text text-anchor="start" x="8" y="-1291.5" font-family="Helvetica,sans-Serif" font-size="10.00">+ operator&#45;()</text>
<text text-anchor="start" x="8" y="-1280.5" font-family="Helvetica,sans-Serif" font-size="10.00">+ operator&#45;()</text>
<text text-anchor="start" x="8" y="-1269.5" font-family="Helvetica,sans-Serif" font-size="10.00">+ operator==()</text>
<text text-anchor="start" x="8" y="-1258.5" font-family="Helvetica,sans-Serif" font-size="10.00">+ operator==()</text>
<text text-anchor="start" x="8" y="-1247.5" font-family="Helvetica,sans-Serif" font-size="10.00">+ operator!=()</text>
<text text-anchor="start" x="8" y="-1236.5" font-family="Helvetica,sans-Serif" font-size="10.00">+ operator!=()</text>
<text text-anchor="start" x="8" y="-1225.5" font-family="Helvetica,sans-Serif" font-size="10.00">+ operator&lt;()</text>
<text text-anchor="start" x="8" y="-1214.5" font-family="Helvetica,sans-Serif" font-size="10.00">+ operator&lt;()</text>
<text text-anchor="start" x="8" y="-1203.5" font-family="Helvetica,sans-Serif" font-size="10.00">+ operator&lt;=()</text>
<text text-anchor="start" x="8" y="-1192.5" font-family="Helvetica,sans-Serif" font-size="10.00">+ operator&lt;=()</text>
<text text-anchor="start" x="8" y="-1181.5" font-family="Helvetica,sans-Serif" font-size="10.00">+ operator&gt;()</text>
<text text-anchor="start" x="8" y="-1170.5" font-family="Helvetica,sans-Serif" font-size="10.00">+ operator&gt;()</text>
<text text-anchor="start" x="8" y="-1159.5" font-family="Helvetica,sans-Serif" font-size="10.00">+ operator&gt;=()</text>
<text text-anchor="start" x="8" y="-1148.5" font-family="Helvetica,sans-Serif" font-size="10.00">+ operator&gt;=()</text>
<text text-anchor="start" x="8" y="-1137.5" font-family="Helvetica,sans-Serif" font-size="10.00">+ Invalid()</text>
<text text-anchor="start" x="8" y="-1126.5" font-family="Helvetica,sans-Serif" font-size="10.00">+ Max()</text>
</a>
</g>
</g>
<!-- Node13&#45;&gt;Node2 -->
<g id="edge17" class="edge"><title>Node13&#45;&gt;Node2</title>
<path fill="none" stroke="#404040" d="M22.1607,-1119.46C16.7855,-1078.44 13,-1035.13 13,-994.5 13,-994.5 13,-994.5 13,-485.5 13,-433.057 36.6457,-379.91 62.0109,-337.985"/>
<polygon fill="none" stroke="#404040" points="62.1471,-337.766 61.9183,-330.558 68.4834,-327.575 68.7122,-334.782 62.1471,-337.766"/>
<text text-anchor="middle" x="44" y="-765" font-family="Helvetica,sans-Serif" font-size="10.00"> +m_roIndex</text>
</g>
<!-- Node13&#45;&gt;Node12 -->
<g id="edge13" class="edge"><title>Node13&#45;&gt;Node12</title>
<path fill="none" stroke="#404040" d="M100.633,-1119.16C105.299,-1098.65 109.794,-1078.9 113.776,-1061.4"/>
<polygon fill="none" stroke="#404040" points="113.785,-1061.36 111.216,-1054.62 116.447,-1049.66 119.016,-1056.4 113.785,-1061.36"/>
<text text-anchor="middle" x="132" y="-1082" font-family="Helvetica,sans-Serif" font-size="10.00"> #m_idx</text>
</g>
<!-- Node14 -->
<g id="node14" class="node"><title>Node14</title>
<g id="a_node14"><a xlink:href="classint.html" target="_top" xlink:title="{int\n||}">
<polygon fill="white" stroke="black" points="43.5,-1543.5 43.5,-1600.5 72.5,-1600.5 72.5,-1543.5 43.5,-1543.5"/>
<text text-anchor="middle" x="58" y="-1588.5" font-family="Helvetica,sans-Serif" font-size="10.00">int</text>
<polyline fill="none" stroke="black" points="43.5,-1581.5 72.5,-1581.5 "/>
<text text-anchor="middle" x="58" y="-1569.5" font-family="Helvetica,sans-Serif" font-size="10.00"> </text>
<polyline fill="none" stroke="black" points="43.5,-1562.5 72.5,-1562.5 "/>
<text text-anchor="middle" x="58" y="-1550.5" font-family="Helvetica,sans-Serif" font-size="10.00"> </text>
</a>
</g>
</g>
<!-- Node14&#45;&gt;Node13 -->
<g id="edge14" class="edge"><title>Node14&#45;&gt;Node13</title>
<path fill="none" stroke="#404040" d="M58,-1543.4C58,-1533.43 58,-1521.26 58,-1507.76"/>
<polygon fill="none" stroke="#404040" points="58.0001,-1507.58 54,-1501.58 58,-1495.58 62,-1501.58 58.0001,-1507.58"/>
<text text-anchor="middle" x="78" y="-1517" font-family="Helvetica,sans-Serif" font-size="10.00"> #m_idx</text>
</g>
<!-- Node15 -->
<g id="node15" class="node"><title>Node15</title>
<g id="a_node15"><a xlink:title="STL class. ">
<polygon fill="white" stroke="#bfbfbf" points="570.5,-739 570.5,-796 635.5,-796 635.5,-739 570.5,-739"/>
<text text-anchor="middle" x="603" y="-784" font-family="Helvetica,sans-Serif" font-size="10.00">std::string</text>
<polyline fill="none" stroke="#bfbfbf" points="570.5,-777 635.5,-777 "/>
<text text-anchor="middle" x="603" y="-765" font-family="Helvetica,sans-Serif" font-size="10.00"> </text>
<polyline fill="none" stroke="#bfbfbf" points="570.5,-758 635.5,-758 "/>
<text text-anchor="middle" x="603" y="-746" font-family="Helvetica,sans-Serif" font-size="10.00"> </text>
</a>
</g>
</g>
<!-- Node15&#45;&gt;Node3 -->
<g id="edge15" class="edge"><title>Node15&#45;&gt;Node3</title>
<path fill="none" stroke="#404040" d="M595.858,-738.894C587.84,-712.304 572.624,-672.213 548,-645 498.556,-590.358 425.585,-549.537 367.669,-523.16"/>
<polygon fill="none" stroke="#404040" points="367.623,-523.14 360.513,-524.342 356.669,-518.241 363.779,-517.039 367.623,-523.14"/>
<text text-anchor="middle" x="558.5" y="-619" font-family="Helvetica,sans-Serif" font-size="10.00"> #m_name</text>
</g>
<!-- Node16 -->
<g id="node16" class="node"><title>Node16</title>
<g id="a_node16"><a xlink:title="STL class. ">
<polygon fill="white" stroke="#bfbfbf" points="558.5,-959.5 558.5,-1027.5 661.5,-1027.5 661.5,-959.5 558.5,-959.5"/>
<text text-anchor="start" x="566.5" y="-1015.5" font-family="Helvetica,sans-Serif" font-size="10.00">std::basic_string&lt;</text>
<text text-anchor="middle" x="610" y="-1004.5" font-family="Helvetica,sans-Serif" font-size="10.00"> char &gt;</text>
<polyline fill="none" stroke="#bfbfbf" points="558.5,-997.5 661.5,-997.5 "/>
<text text-anchor="middle" x="610" y="-985.5" font-family="Helvetica,sans-Serif" font-size="10.00"> </text>
<polyline fill="none" stroke="#bfbfbf" points="558.5,-978.5 661.5,-978.5 "/>
<text text-anchor="middle" x="610" y="-966.5" font-family="Helvetica,sans-Serif" font-size="10.00"> </text>
</a>
</g>
</g>
<!-- Node16&#45;&gt;Node15 -->
<g id="edge16" class="edge"><title>Node16&#45;&gt;Node15</title>
<path fill="none" stroke="midnightblue" d="M608.651,-949.346C607.237,-904.093 605.058,-834.343 603.861,-796.037"/>
<polygon fill="none" stroke="midnightblue" points="605.156,-949.562 608.967,-959.448 612.153,-949.344 605.156,-949.562"/>
</g>
<!-- Node17 -->
<g id="node17" class="node"><title>Node17</title>
<polygon fill="white" stroke="#bfbfbf" points="204,-221 204,-289 312,-289 312,-221 204,-221"/>
<text text-anchor="start" x="212" y="-277" font-family="Helvetica,sans-Serif" font-size="10.00">Transform&lt; Scalar,</text>
<text text-anchor="middle" x="258" y="-266" font-family="Helvetica,sans-Serif" font-size="10.00"> 3, Eigen::Affine &gt;</text>
<polyline fill="none" stroke="#bfbfbf" points="204,-259 312,-259 "/>
<text text-anchor="middle" x="258" y="-247" font-family="Helvetica,sans-Serif" font-size="10.00"> </text>
<polyline fill="none" stroke="#bfbfbf" points="204,-240 312,-240 "/>
<text text-anchor="middle" x="258" y="-228" font-family="Helvetica,sans-Serif" font-size="10.00"> </text>
</g>
<!-- Node17&#45;&gt;Node1 -->
<g id="edge19" class="edge"><title>Node17&#45;&gt;Node1</title>
<path fill="none" stroke="#404040" d="M248.703,-220.836C242.902,-200.141 235.177,-172.583 227.893,-146.598"/>
<polygon fill="none" stroke="#404040" points="227.825,-146.355 222.354,-141.658 224.586,-134.801 230.057,-139.498 227.825,-146.355"/>
<text text-anchor="middle" x="269" y="-156" font-family="Helvetica,sans-Serif" font-size="10.00"> #m_transform</text>
</g>
</g>
</svg>
