<?xml version="1.0" encoding="UTF-8" standalone="no"?>
<!DOCTYPE svg PUBLIC "-//W3C//DTD SVG 1.1//EN"
 "http://www.w3.org/Graphics/SVG/1.1/DTD/svg11.dtd">
<!-- Generated by graphviz version 2.38.0 (20140413.2041)
 -->
<!-- Title: Ra::Gui::FlightCameraManipulator::setCameraTarget Pages: 1 -->
<svg width="651pt" height="151pt"
 viewBox="0.00 0.00 651.00 151.00" xmlns="http://www.w3.org/2000/svg" xmlns:xlink="http://www.w3.org/1999/xlink">
<g id="graph0" class="graph" transform="scale(1 1) rotate(0) translate(4 147)">
<title>Ra::Gui::FlightCameraManipulator::setCameraTarget</title>
<polygon fill="white" stroke="none" points="-4,4 -4,-147 647,-147 647,4 -4,4"/>
<!-- Node1 -->
<g id="node1" class="node"><title>Node1</title>
<polygon fill="#bfbfbf" stroke="black" points="0,-71.5 0,-101.5 176,-101.5 176,-71.5 0,-71.5"/>
<text text-anchor="start" x="8" y="-89.5" font-family="Helvetica,sans-Serif" font-size="10.00">Ra::Gui::FlightCameraManipulator</text>
<text text-anchor="middle" x="88" y="-78.5" font-family="Helvetica,sans-Serif" font-size="10.00">::setCameraTarget</text>
</g>
<!-- Node2 -->
<g id="node2" class="node"><title>Node2</title>
<g id="a_node2"><a xlink:href="classRa_1_1Engine_1_1Camera.html#a724a052e94817af7e602129467c8696f" target="_top" xlink:title="Return the position. ">
<polygon fill="white" stroke="black" points="519,-112.5 519,-142.5 630,-142.5 630,-112.5 519,-112.5"/>
<text text-anchor="start" x="527" y="-130.5" font-family="Helvetica,sans-Serif" font-size="10.00">Ra::Engine::Camera</text>
<text text-anchor="middle" x="574.5" y="-119.5" font-family="Helvetica,sans-Serif" font-size="10.00">::getPosition</text>
</a>
</g>
</g>
<!-- Node1&#45;&gt;Node2 -->
<g id="edge1" class="edge"><title>Node1&#45;&gt;Node2</title>
<path fill="none" stroke="midnightblue" d="M162.371,-101.533C178.678,-104.674 195.901,-107.836 212,-110.5 277.051,-121.263 293.215,-126.045 359,-130.5 408.221,-133.833 420.672,-131.215 470,-130.5 482.552,-130.318 495.957,-130.012 508.817,-129.664"/>
<polygon fill="midnightblue" stroke="midnightblue" points="509.089,-133.157 518.986,-129.376 508.891,-126.16 509.089,-133.157"/>
</g>
<!-- Node3 -->
<g id="node3" class="node"><title>Node3</title>
<g id="a_node3"><a xlink:href="classRa_1_1Engine_1_1Camera.html#a2fd3ed37be68acb358df23c3f04b3d81" target="_top" xlink:title="Set the direction of the camera to &#39;direction&#39;. ">
<polygon fill="white" stroke="black" points="212,-49.5 212,-79.5 323,-79.5 323,-49.5 212,-49.5"/>
<text text-anchor="start" x="220" y="-67.5" font-family="Helvetica,sans-Serif" font-size="10.00">Ra::Engine::Camera</text>
<text text-anchor="middle" x="267.5" y="-56.5" font-family="Helvetica,sans-Serif" font-size="10.00">::setDirection</text>
</a>
</g>
</g>
<!-- Node1&#45;&gt;Node3 -->
<g id="edge2" class="edge"><title>Node1&#45;&gt;Node3</title>
<path fill="none" stroke="midnightblue" d="M176.19,-75.6934C184.792,-74.6272 193.413,-73.5587 201.73,-72.5278"/>
<polygon fill="midnightblue" stroke="midnightblue" points="202.21,-75.9953 211.703,-71.2917 201.348,-69.0484 202.21,-75.9953"/>
</g>
<!-- Node4 -->
<g id="node4" class="node"><title>Node4</title>
<g id="a_node4"><a xlink:href="classRa_1_1Engine_1_1Camera.html#a23be7aa714c0e9c2a9429dfc9ef2c53a" target="_top" xlink:title="Return the direction the camera is looking at. ">
<polygon fill="white" stroke="black" points="359,-90.5 359,-120.5 470,-120.5 470,-90.5 359,-90.5"/>
<text text-anchor="start" x="367" y="-108.5" font-family="Helvetica,sans-Serif" font-size="10.00">Ra::Engine::Camera</text>
<text text-anchor="middle" x="414.5" y="-97.5" font-family="Helvetica,sans-Serif" font-size="10.00">::getDirection</text>
</a>
</g>
</g>
<!-- Node1&#45;&gt;Node4 -->
<g id="edge8" class="edge"><title>Node1&#45;&gt;Node4</title>
<path fill="none" stroke="midnightblue" d="M176.387,-91.6166C230.54,-94.7874 298.944,-98.7926 348.348,-101.685"/>
<polygon fill="midnightblue" stroke="midnightblue" points="348.402,-105.194 358.59,-102.285 348.812,-98.2063 348.402,-105.194"/>
</g>
<!-- Node7 -->
<g id="node7" class="node"><title>Node7</title>
<g id="a_node7"><a xlink:href="classRa_1_1Engine_1_1Light.html#a24e11b300dfe4e2a785d87b6de74b036" target="_top" xlink:title="set the direction of lighting ">
<polygon fill="white" stroke="black" points="216.5,-0.5 216.5,-30.5 318.5,-30.5 318.5,-0.5 216.5,-0.5"/>
<text text-anchor="start" x="224.5" y="-18.5" font-family="Helvetica,sans-Serif" font-size="10.00">Ra::Engine::Light::</text>
<text text-anchor="middle" x="267.5" y="-7.5" font-family="Helvetica,sans-Serif" font-size="10.00">setDirection</text>
</a>
</g>
</g>
<!-- Node1&#45;&gt;Node7 -->
<g id="edge7" class="edge"><title>Node1&#45;&gt;Node7</title>
<path fill="none" stroke="midnightblue" d="M126.643,-71.4427C153.706,-60.6175 190.387,-45.9452 219.393,-34.3427"/>
<polygon fill="midnightblue" stroke="midnightblue" points="220.926,-37.4992 228.911,-30.5356 218.326,-30.9999 220.926,-37.4992"/>
</g>
<!-- Node3&#45;&gt;Node4 -->
<g id="edge3" class="edge"><title>Node3&#45;&gt;Node4</title>
<path fill="none" stroke="midnightblue" d="M321.669,-79.5341C331.027,-82.1802 340.849,-84.9573 350.446,-87.671"/>
<polygon fill="midnightblue" stroke="midnightblue" points="349.762,-91.1147 360.337,-90.4677 351.667,-84.3788 349.762,-91.1147"/>
</g>
<!-- Node5 -->
<g id="node5" class="node"><title>Node5</title>
<g id="a_node5"><a xlink:href="classRa_1_1Engine_1_1Camera.html#a7a2c1c84e3063c6c3f09d490477abb0f" target="_top" xlink:title="Apply the local transformation &#39;T&#39; to the camera. ">
<polygon fill="white" stroke="black" points="359,-41.5 359,-71.5 470,-71.5 470,-41.5 359,-41.5"/>
<text text-anchor="start" x="367" y="-59.5" font-family="Helvetica,sans-Serif" font-size="10.00">Ra::Engine::Camera</text>
<text text-anchor="middle" x="414.5" y="-48.5" font-family="Helvetica,sans-Serif" font-size="10.00">::applyTransform</text>
</a>
</g>
</g>
<!-- Node3&#45;&gt;Node5 -->
<g id="edge4" class="edge"><title>Node3&#45;&gt;Node5</title>
<path fill="none" stroke="midnightblue" d="M323.318,-61.4755C331.529,-61.0226 340.061,-60.5518 348.459,-60.0885"/>
<polygon fill="midnightblue" stroke="midnightblue" points="348.812,-63.5744 358.604,-59.5287 348.427,-56.585 348.812,-63.5744"/>
</g>
<!-- Node5&#45;&gt;Node2 -->
<g id="edge5" class="edge"><title>Node5&#45;&gt;Node2</title>
<path fill="none" stroke="midnightblue" d="M449.008,-71.5573C472.888,-82.2884 505.182,-96.8 530.893,-108.354"/>
<polygon fill="midnightblue" stroke="midnightblue" points="529.485,-111.558 540.041,-112.464 532.354,-105.173 529.485,-111.558"/>
</g>
<!-- Node6 -->
<g id="node6" class="node"><title>Node6</title>
<g id="a_node6"><a xlink:href="classRa_1_1Engine_1_1RenderObject.html#a2d6a1bc2b7646fe0912035a2ece24864" target="_top" xlink:title="Ra::Engine::RenderObject\l::setLocalTransform">
<polygon fill="white" stroke="black" points="506,-41.5 506,-71.5 643,-71.5 643,-41.5 506,-41.5"/>
<text text-anchor="start" x="514" y="-59.5" font-family="Helvetica,sans-Serif" font-size="10.00">Ra::Engine::RenderObject</text>
<text text-anchor="middle" x="574.5" y="-48.5" font-family="Helvetica,sans-Serif" font-size="10.00">::setLocalTransform</text>
</a>
</g>
</g>
<!-- Node5&#45;&gt;Node6 -->
<g id="edge6" class="edge"><title>Node5&#45;&gt;Node6</title>
<path fill="none" stroke="midnightblue" d="M470.317,-56.5C478.581,-56.5 487.236,-56.5 495.869,-56.5"/>
<polygon fill="midnightblue" stroke="midnightblue" points="495.968,-60.0001 505.968,-56.5 495.968,-53.0001 495.968,-60.0001"/>
</g>
</g>
</svg>
