<?xml version="1.0" encoding="UTF-8" standalone="no"?>
<!DOCTYPE svg PUBLIC "-//W3C//DTD SVG 1.1//EN"
 "http://www.w3.org/Graphics/SVG/1.1/DTD/svg11.dtd">
<!-- Generated by graphviz version 2.38.0 (20140413.2041)
 -->
<!-- Title: AnimationPlugin::AnimationComponent::handleAnimationLoading Pages: 1 -->
<svg width="866pt" height="333pt"
 viewBox="0.00 0.00 866.00 333.00" xmlns="http://www.w3.org/2000/svg" xmlns:xlink="http://www.w3.org/1999/xlink">
<g id="graph0" class="graph" transform="scale(1 1) rotate(0) translate(4 329)">
<title>AnimationPlugin::AnimationComponent::handleAnimationLoading</title>
<polygon fill="white" stroke="none" points="-4,4 -4,-329 862,-329 862,4 -4,4"/>
<!-- Node1 -->
<g id="node1" class="node"><title>Node1</title>
<polygon fill="#bfbfbf" stroke="black" points="0,-127.5 0,-157.5 197,-157.5 197,-127.5 0,-127.5"/>
<text text-anchor="start" x="8" y="-145.5" font-family="Helvetica,sans-Serif" font-size="10.00">AnimationPlugin::Animation</text>
<text text-anchor="middle" x="98.5" y="-134.5" font-family="Helvetica,sans-Serif" font-size="10.00">Component::handleAnimationLoading</text>
</g>
<!-- Node2 -->
<g id="node2" class="node"><title>Node2</title>
<g id="a_node2"><a xlink:href="classRa_1_1Core_1_1Animation_1_1Skeleton.html#a5679e1beb544b515c4539ce48a2f2ba3" target="_top" xlink:title="Ra::Core::Animation\l::Skeleton::size">
<polygon fill="white" stroke="black" points="251.5,-171.5 251.5,-201.5 363.5,-201.5 363.5,-171.5 251.5,-171.5"/>
<text text-anchor="start" x="259.5" y="-189.5" font-family="Helvetica,sans-Serif" font-size="10.00">Ra::Core::Animation</text>
<text text-anchor="middle" x="307.5" y="-178.5" font-family="Helvetica,sans-Serif" font-size="10.00">::Skeleton::size</text>
</a>
</g>
</g>
<!-- Node1&#45;&gt;Node2 -->
<g id="edge1" class="edge"><title>Node1&#45;&gt;Node2</title>
<path fill="none" stroke="midnightblue" d="M170.159,-157.519C193.216,-162.42 218.699,-167.837 241.334,-172.648"/>
<polygon fill="midnightblue" stroke="midnightblue" points="240.669,-176.085 251.179,-174.741 242.125,-169.238 240.669,-176.085"/>
</g>
<!-- Node4 -->
<g id="node4" class="node"><title>Node4</title>
<g id="a_node4"><a xlink:href="classRa_1_1Core_1_1Animation_1_1Handle.html#af2c003e7a85469470d5591b019e8ab80" target="_top" xlink:title="Ra::Core::Animation\l::Handle::getLabel">
<polygon fill="white" stroke="black" points="574,-294.5 574,-324.5 686,-324.5 686,-294.5 574,-294.5"/>
<text text-anchor="start" x="582" y="-312.5" font-family="Helvetica,sans-Serif" font-size="10.00">Ra::Core::Animation</text>
<text text-anchor="middle" x="630" y="-301.5" font-family="Helvetica,sans-Serif" font-size="10.00">::Handle::getLabel</text>
</a>
</g>
</g>
<!-- Node1&#45;&gt;Node4 -->
<g id="edge16" class="edge"><title>Node1&#45;&gt;Node4</title>
<path fill="none" stroke="midnightblue" d="M124.279,-157.558C150.489,-172.94 193.441,-196.618 233,-211.5 346.154,-254.068 484.474,-283.44 564.09,-298.288"/>
<polygon fill="midnightblue" stroke="midnightblue" points="563.507,-301.739 573.976,-300.113 564.778,-294.856 563.507,-301.739"/>
</g>
<!-- Node13 -->
<g id="node13" class="node"><title>Node13</title>
<g id="a_node13"><a xlink:href="namespaceRa_1_1Core_1_1Geometry.html#aa04e6052d8911b1df1bd881474debb45" target="_top" xlink:title="Ra::Core::Geometry::t">
<polygon fill="white" stroke="black" points="247.5,-133 247.5,-152 367.5,-152 367.5,-133 247.5,-133"/>
<text text-anchor="middle" x="307.5" y="-140" font-family="Helvetica,sans-Serif" font-size="10.00">Ra::Core::Geometry::t</text>
</a>
</g>
</g>
<!-- Node1&#45;&gt;Node13 -->
<g id="edge17" class="edge"><title>Node1&#45;&gt;Node13</title>
<path fill="none" stroke="midnightblue" d="M197.241,-142.5C210.788,-142.5 224.466,-142.5 237.344,-142.5"/>
<polygon fill="midnightblue" stroke="midnightblue" points="237.483,-146 247.483,-142.5 237.483,-139 237.483,-146"/>
</g>
<!-- Node14 -->
<g id="node14" class="node"><title>Node14</title>
<g id="a_node14"><a xlink:href="classRa_1_1Core_1_1Animation_1_1KeyFrame.html#a86175e67c429b471659603f8a2514eef" target="_top" xlink:title="Ra::Core::Animation\l::KeyFrame::insertKeyFrame">
<polygon fill="white" stroke="black" points="233,-83.5 233,-113.5 382,-113.5 382,-83.5 233,-83.5"/>
<text text-anchor="start" x="241" y="-101.5" font-family="Helvetica,sans-Serif" font-size="10.00">Ra::Core::Animation</text>
<text text-anchor="middle" x="307.5" y="-90.5" font-family="Helvetica,sans-Serif" font-size="10.00">::KeyFrame::insertKeyFrame</text>
</a>
</g>
</g>
<!-- Node1&#45;&gt;Node14 -->
<g id="edge18" class="edge"><title>Node1&#45;&gt;Node14</title>
<path fill="none" stroke="midnightblue" d="M170.159,-127.481C188.128,-123.661 207.571,-119.528 225.991,-115.613"/>
<polygon fill="midnightblue" stroke="midnightblue" points="226.755,-119.029 235.809,-113.526 225.299,-112.182 226.755,-119.029"/>
</g>
<!-- Node15 -->
<g id="node15" class="node"><title>Node15</title>
<g id="a_node15"><a xlink:href="classRa_1_1Engine_1_1Component.html#a207c1dc2e97856c22e0767fb77162933" target="_top" xlink:title="Return the entity the component belongs to. ">
<polygon fill="white" stroke="black" points="243,-34.5 243,-64.5 372,-64.5 372,-34.5 243,-34.5"/>
<text text-anchor="start" x="251" y="-52.5" font-family="Helvetica,sans-Serif" font-size="10.00">Ra::Engine::Component</text>
<text text-anchor="middle" x="307.5" y="-41.5" font-family="Helvetica,sans-Serif" font-size="10.00">::getEntity</text>
</a>
</g>
</g>
<!-- Node1&#45;&gt;Node15 -->
<g id="edge19" class="edge"><title>Node1&#45;&gt;Node15</title>
<path fill="none" stroke="midnightblue" d="M126.316,-127.4C152.894,-112.781 195.019,-90.5349 233,-74.5 238.33,-72.2499 243.938,-70.0515 249.583,-67.9508"/>
<polygon fill="midnightblue" stroke="midnightblue" points="250.86,-71.2106 259.072,-64.5158 248.478,-64.6285 250.86,-71.2106"/>
</g>
<!-- Node3 -->
<g id="node3" class="node"><title>Node3</title>
<g id="a_node3"><a xlink:href="namespaceRa_1_1Core_1_1Animation.html#a93d6305ed74ab59961969dce601714c2" target="_top" xlink:title="Ra::Core::Animation\l::operator\&lt;\&lt;">
<polygon fill="white" stroke="black" points="418,-171.5 418,-201.5 530,-201.5 530,-171.5 418,-171.5"/>
<text text-anchor="start" x="426" y="-189.5" font-family="Helvetica,sans-Serif" font-size="10.00">Ra::Core::Animation</text>
<text text-anchor="middle" x="474" y="-178.5" font-family="Helvetica,sans-Serif" font-size="10.00">::operator&lt;&lt;</text>
</a>
</g>
</g>
<!-- Node2&#45;&gt;Node3 -->
<g id="edge2" class="edge"><title>Node2&#45;&gt;Node3</title>
<path fill="none" stroke="midnightblue" d="M363.734,-180.085C377.779,-179.725 393.006,-179.655 407.508,-179.876"/>
<polygon fill="midnightblue" stroke="midnightblue" points="407.843,-183.384 417.912,-180.088 407.986,-176.385 407.843,-183.384"/>
</g>
<!-- Node3&#45;&gt;Node2 -->
<g id="edge3" class="edge"><title>Node3&#45;&gt;Node2</title>
<path fill="none" stroke="midnightblue" d="M417.912,-192.912C403.875,-193.274 388.649,-193.345 374.142,-193.126"/>
<polygon fill="midnightblue" stroke="midnightblue" points="373.803,-189.619 363.734,-192.915 373.661,-196.617 373.803,-189.619"/>
</g>
<!-- Node3&#45;&gt;Node4 -->
<g id="edge4" class="edge"><title>Node3&#45;&gt;Node4</title>
<path fill="none" stroke="midnightblue" d="M485.358,-201.618C500.702,-222.993 531.41,-262.052 566,-285.5 568.239,-287.018 570.587,-288.457 573.006,-289.82"/>
<polygon fill="midnightblue" stroke="midnightblue" points="571.513,-292.987 582.01,-294.421 574.698,-286.754 571.513,-292.987"/>
</g>
<!-- Node6 -->
<g id="node6" class="node"><title>Node6</title>
<g id="a_node6"><a xlink:href="classRa_1_1Core_1_1AdjacencyList.html#a4e87e76f65f897cbe99d805b6cb35055" target="_top" xlink:title="Return true if a node is a root node. ">
<polygon fill="white" stroke="black" points="566,-245.5 566,-275.5 694,-275.5 694,-245.5 566,-245.5"/>
<text text-anchor="start" x="574" y="-263.5" font-family="Helvetica,sans-Serif" font-size="10.00">Ra::Core::AdjacencyList</text>
<text text-anchor="middle" x="630" y="-252.5" font-family="Helvetica,sans-Serif" font-size="10.00">::isRoot</text>
</a>
</g>
</g>
<!-- Node3&#45;&gt;Node6 -->
<g id="edge6" class="edge"><title>Node3&#45;&gt;Node6</title>
<path fill="none" stroke="midnightblue" d="M500.398,-201.694C518.384,-212.145 543.258,-225.982 566,-236.5 569.765,-238.241 573.694,-239.96 577.671,-241.63"/>
<polygon fill="midnightblue" stroke="midnightblue" points="576.399,-244.891 586.98,-245.423 579.04,-238.408 576.399,-244.891"/>
</g>
<!-- Node8 -->
<g id="node8" class="node"><title>Node8</title>
<g id="a_node8"><a xlink:href="classRa_1_1Core_1_1AdjacencyList.html#a37f39f4b1560b523a42ec3fb7187da2e" target="_top" xlink:title="Return true if the node is a joint node. ( |child| == 1 ) ">
<polygon fill="white" stroke="black" points="566,-196.5 566,-226.5 694,-226.5 694,-196.5 566,-196.5"/>
<text text-anchor="start" x="574" y="-214.5" font-family="Helvetica,sans-Serif" font-size="10.00">Ra::Core::AdjacencyList</text>
<text text-anchor="middle" x="630" y="-203.5" font-family="Helvetica,sans-Serif" font-size="10.00">::isJoint</text>
</a>
</g>
</g>
<!-- Node3&#45;&gt;Node8 -->
<g id="edge8" class="edge"><title>Node3&#45;&gt;Node8</title>
<path fill="none" stroke="midnightblue" d="M530.163,-195.455C538.475,-196.804 547.157,-198.214 555.777,-199.613"/>
<polygon fill="midnightblue" stroke="midnightblue" points="555.408,-203.099 565.84,-201.247 556.53,-196.189 555.408,-203.099"/>
</g>
<!-- Node9 -->
<g id="node9" class="node"><title>Node9</title>
<g id="a_node9"><a xlink:href="classRa_1_1Core_1_1AdjacencyList.html#a4ed5a37c628d3a1375f14f40bcd219e6" target="_top" xlink:title="Return true if the node is a branch node. ( |child| &gt; 1 ) ">
<polygon fill="white" stroke="black" points="566,-147.5 566,-177.5 694,-177.5 694,-147.5 566,-147.5"/>
<text text-anchor="start" x="574" y="-165.5" font-family="Helvetica,sans-Serif" font-size="10.00">Ra::Core::AdjacencyList</text>
<text text-anchor="middle" x="630" y="-154.5" font-family="Helvetica,sans-Serif" font-size="10.00">::isBranch</text>
</a>
</g>
</g>
<!-- Node3&#45;&gt;Node9 -->
<g id="edge10" class="edge"><title>Node3&#45;&gt;Node9</title>
<path fill="none" stroke="midnightblue" d="M530.163,-177.903C538.475,-176.608 547.157,-175.255 555.777,-173.911"/>
<polygon fill="midnightblue" stroke="midnightblue" points="556.498,-177.341 565.84,-172.343 555.42,-170.425 556.498,-177.341"/>
</g>
<!-- Node10 -->
<g id="node10" class="node"><title>Node10</title>
<g id="a_node10"><a xlink:href="classRa_1_1Core_1_1AdjacencyList.html#a068632657bfda6ab9034a879372a45e8" target="_top" xlink:title="Return true if the node is a leaf node. ">
<polygon fill="white" stroke="black" points="566,-98.5 566,-128.5 694,-128.5 694,-98.5 566,-98.5"/>
<text text-anchor="start" x="574" y="-116.5" font-family="Helvetica,sans-Serif" font-size="10.00">Ra::Core::AdjacencyList</text>
<text text-anchor="middle" x="630" y="-105.5" font-family="Helvetica,sans-Serif" font-size="10.00">::isLeaf</text>
</a>
</g>
</g>
<!-- Node3&#45;&gt;Node10 -->
<g id="edge12" class="edge"><title>Node3&#45;&gt;Node10</title>
<path fill="none" stroke="midnightblue" d="M501.695,-171.445C519.632,-161.573 543.935,-148.661 566,-138.5 570.379,-136.483 574.97,-134.472 579.592,-132.516"/>
<polygon fill="midnightblue" stroke="midnightblue" points="581.167,-135.652 589.069,-128.594 578.49,-129.184 581.167,-135.652"/>
</g>
<!-- Node11 -->
<g id="node11" class="node"><title>Node11</title>
<g id="a_node11"><a xlink:href="classRa_1_1Core_1_1AdjacencyList.html#a9c0e48ccbcfec3e3c35bebf6a45c7b12" target="_top" xlink:title="Ra::Core::AdjacencyList\l::parents">
<polygon fill="white" stroke="black" points="566,-49.5 566,-79.5 694,-79.5 694,-49.5 566,-49.5"/>
<text text-anchor="start" x="574" y="-67.5" font-family="Helvetica,sans-Serif" font-size="10.00">Ra::Core::AdjacencyList</text>
<text text-anchor="middle" x="630" y="-56.5" font-family="Helvetica,sans-Serif" font-size="10.00">::parents</text>
</a>
</g>
</g>
<!-- Node3&#45;&gt;Node11 -->
<g id="edge14" class="edge"><title>Node3&#45;&gt;Node11</title>
<path fill="none" stroke="midnightblue" d="M485.732,-171.413C501.299,-150.487 532.02,-112.624 566,-89.5 568.724,-87.6463 571.606,-85.8991 574.578,-84.2571"/>
<polygon fill="midnightblue" stroke="midnightblue" points="576.355,-87.2809 583.7,-79.6461 573.197,-81.0337 576.355,-87.2809"/>
</g>
<!-- Node12 -->
<g id="node12" class="node"><title>Node12</title>
<g id="a_node12"><a xlink:href="classRa_1_1Core_1_1AdjacencyList.html#a23393ccd75883f2eb35196d7c82ee94f" target="_top" xlink:title="Ra::Core::AdjacencyList\l::children">
<polygon fill="white" stroke="black" points="566,-0.5 566,-30.5 694,-30.5 694,-0.5 566,-0.5"/>
<text text-anchor="start" x="574" y="-18.5" font-family="Helvetica,sans-Serif" font-size="10.00">Ra::Core::AdjacencyList</text>
<text text-anchor="middle" x="630" y="-7.5" font-family="Helvetica,sans-Serif" font-size="10.00">::children</text>
</a>
</g>
</g>
<!-- Node3&#45;&gt;Node12 -->
<g id="edge15" class="edge"><title>Node3&#45;&gt;Node12</title>
<path fill="none" stroke="midnightblue" d="M480.6,-171.491C492.195,-142.331 521.519,-77.6326 566,-40.5 568.016,-38.8174 570.158,-37.2382 572.391,-35.7572"/>
<polygon fill="midnightblue" stroke="midnightblue" points="574.494,-38.5825 581.368,-30.5202 570.966,-32.5363 574.494,-38.5825"/>
</g>
<!-- Node5 -->
<g id="node5" class="node"><title>Node5</title>
<g id="a_node5"><a xlink:href="classRa_1_1Core_1_1Animation_1_1Handle.html#aba876355658e5f8953033d3bb8f18533" target="_top" xlink:title="Ra::Core::Animation\l::Handle::size">
<polygon fill="white" stroke="black" points="738,-294.5 738,-324.5 850,-324.5 850,-294.5 738,-294.5"/>
<text text-anchor="start" x="746" y="-312.5" font-family="Helvetica,sans-Serif" font-size="10.00">Ra::Core::Animation</text>
<text text-anchor="middle" x="794" y="-301.5" font-family="Helvetica,sans-Serif" font-size="10.00">::Handle::size</text>
</a>
</g>
</g>
<!-- Node4&#45;&gt;Node5 -->
<g id="edge5" class="edge"><title>Node4&#45;&gt;Node5</title>
<path fill="none" stroke="midnightblue" d="M686.298,-309.5C699.592,-309.5 713.916,-309.5 727.62,-309.5"/>
<polygon fill="midnightblue" stroke="midnightblue" points="727.951,-313 737.951,-309.5 727.951,-306 727.951,-313"/>
</g>
<!-- Node7 -->
<g id="node7" class="node"><title>Node7</title>
<g id="a_node7"><a xlink:href="classRa_1_1Core_1_1AdjacencyList.html#a15e425543855966a22c3b9339aa27b4d" target="_top" xlink:title="Return the number of nodes in the graph. ">
<polygon fill="white" stroke="black" points="730,-171.5 730,-201.5 858,-201.5 858,-171.5 730,-171.5"/>
<text text-anchor="start" x="738" y="-189.5" font-family="Helvetica,sans-Serif" font-size="10.00">Ra::Core::AdjacencyList</text>
<text text-anchor="middle" x="794" y="-178.5" font-family="Helvetica,sans-Serif" font-size="10.00">::size</text>
</a>
</g>
</g>
<!-- Node6&#45;&gt;Node7 -->
<g id="edge7" class="edge"><title>Node6&#45;&gt;Node7</title>
<path fill="none" stroke="midnightblue" d="M672.256,-245.488C679.554,-242.633 687.041,-239.573 694,-236.5 714.945,-227.251 737.792,-215.807 756.255,-206.202"/>
<polygon fill="midnightblue" stroke="midnightblue" points="757.975,-209.252 765.208,-201.51 754.725,-203.052 757.975,-209.252"/>
</g>
<!-- Node8&#45;&gt;Node7 -->
<g id="edge9" class="edge"><title>Node8&#45;&gt;Node7</title>
<path fill="none" stroke="midnightblue" d="M694.097,-201.763C702.526,-200.462 711.227,-199.119 719.81,-197.795"/>
<polygon fill="midnightblue" stroke="midnightblue" points="720.459,-201.236 729.808,-196.252 719.392,-194.318 720.459,-201.236"/>
</g>
<!-- Node9&#45;&gt;Node7 -->
<g id="edge11" class="edge"><title>Node9&#45;&gt;Node7</title>
<path fill="none" stroke="midnightblue" d="M694.097,-171.848C702.526,-173.096 711.227,-174.386 719.81,-175.657"/>
<polygon fill="midnightblue" stroke="midnightblue" points="719.403,-179.135 729.808,-177.138 720.429,-172.21 719.403,-179.135"/>
</g>
<!-- Node10&#45;&gt;Node7 -->
<g id="edge13" class="edge"><title>Node10&#45;&gt;Node7</title>
<path fill="none" stroke="midnightblue" d="M670.17,-128.525C678.102,-131.713 686.353,-135.134 694,-138.5 714.098,-147.346 736.11,-157.927 754.264,-166.9"/>
<polygon fill="midnightblue" stroke="midnightblue" points="752.862,-170.112 763.375,-171.429 755.978,-163.844 752.862,-170.112"/>
</g>
</g>
</svg>
