<?xml version="1.0" encoding="UTF-8" standalone="no"?>
<!DOCTYPE svg PUBLIC "-//W3C//DTD SVG 1.1//EN"
 "http://www.w3.org/Graphics/SVG/1.1/DTD/svg11.dtd">
<!-- Generated by graphviz version 2.38.0 (20140413.2041)
 -->
<!-- Title: AnimationPlugin::AnimationComponent Pages: 1 -->
<svg width="712pt" height="1604pt"
 viewBox="0.00 0.00 711.50 1604.00" xmlns="http://www.w3.org/2000/svg" xmlns:xlink="http://www.w3.org/1999/xlink">
<g id="graph0" class="graph" transform="scale(1 1) rotate(0) translate(4 1600)">
<title>AnimationPlugin::AnimationComponent</title>
<polygon fill="white" stroke="none" points="-4,4 -4,-1600 707.5,-1600 707.5,4 -4,4"/>
<!-- Node1 -->
<g id="node1" class="node"><title>Node1</title>
<polygon fill="#bfbfbf" stroke="black" points="354,-0.5 354,-332.5 514,-332.5 514,-0.5 354,-0.5"/>
<text text-anchor="start" x="362" y="-320.5" font-family="Helvetica,sans-Serif" font-size="10.00">AnimationPlugin::Animation</text>
<text text-anchor="middle" x="434" y="-309.5" font-family="Helvetica,sans-Serif" font-size="10.00">Component</text>
<polyline fill="none" stroke="black" points="354,-302.5 514,-302.5 "/>
<text text-anchor="middle" x="434" y="-290.5" font-family="Helvetica,sans-Serif" font-size="10.00"> </text>
<polyline fill="none" stroke="black" points="354,-283.5 514,-283.5 "/>
<text text-anchor="start" x="362" y="-271.5" font-family="Helvetica,sans-Serif" font-size="10.00">+ AnimationComponent()</text>
<text text-anchor="start" x="362" y="-260.5" font-family="Helvetica,sans-Serif" font-size="10.00">+ ~AnimationComponent()</text>
<text text-anchor="start" x="362" y="-249.5" font-family="Helvetica,sans-Serif" font-size="10.00">+ AnimationComponent()</text>
<text text-anchor="start" x="362" y="-238.5" font-family="Helvetica,sans-Serif" font-size="10.00">+ operator=()</text>
<text text-anchor="start" x="362" y="-227.5" font-family="Helvetica,sans-Serif" font-size="10.00">+ initialize()</text>
<text text-anchor="start" x="362" y="-216.5" font-family="Helvetica,sans-Serif" font-size="10.00">+ handleSkeletonLoading()</text>
<text text-anchor="start" x="362" y="-205.5" font-family="Helvetica,sans-Serif" font-size="10.00">+ handleAnimationLoading()</text>
<text text-anchor="start" x="362" y="-194.5" font-family="Helvetica,sans-Serif" font-size="10.00">+ setSkeleton()</text>
<text text-anchor="start" x="362" y="-183.5" font-family="Helvetica,sans-Serif" font-size="10.00">+ getSkeleton()</text>
<text text-anchor="start" x="362" y="-172.5" font-family="Helvetica,sans-Serif" font-size="10.00">+ update()</text>
<text text-anchor="start" x="362" y="-161.5" font-family="Helvetica,sans-Serif" font-size="10.00">+ reset()</text>
<text text-anchor="start" x="362" y="-150.5" font-family="Helvetica,sans-Serif" font-size="10.00">+ cacheFrame()</text>
<text text-anchor="start" x="362" y="-139.5" font-family="Helvetica,sans-Serif" font-size="10.00">+ restoreFrame()</text>
<text text-anchor="start" x="362" y="-128.5" font-family="Helvetica,sans-Serif" font-size="10.00">+ toggleAnimationTimeStep()</text>
<text text-anchor="start" x="362" y="-117.5" font-family="Helvetica,sans-Serif" font-size="10.00">+ setSpeed()</text>
<text text-anchor="start" x="362" y="-106.5" font-family="Helvetica,sans-Serif" font-size="10.00">+ toggleSlowMotion()</text>
<text text-anchor="start" x="362" y="-95.5" font-family="Helvetica,sans-Serif" font-size="10.00">+ setAnimation()</text>
<text text-anchor="start" x="362" y="-84.5" font-family="Helvetica,sans-Serif" font-size="10.00">+ getTime()</text>
<text text-anchor="start" x="362" y="-73.5" font-family="Helvetica,sans-Serif" font-size="10.00">+ getDuration()</text>
<text text-anchor="start" x="362" y="-62.5" font-family="Helvetica,sans-Serif" font-size="10.00">+ getMaxFrame()</text>
<text text-anchor="start" x="362" y="-51.5" font-family="Helvetica,sans-Serif" font-size="10.00">+ setXray()</text>
<text text-anchor="start" x="362" y="-40.5" font-family="Helvetica,sans-Serif" font-size="10.00">+ toggleSkeleton()</text>
<text text-anchor="start" x="362" y="-29.5" font-family="Helvetica,sans-Serif" font-size="10.00">+ canEdit()</text>
<text text-anchor="start" x="362" y="-18.5" font-family="Helvetica,sans-Serif" font-size="10.00">+ getTransform()</text>
<text text-anchor="start" x="362" y="-7.5" font-family="Helvetica,sans-Serif" font-size="10.00">+ setTransform()</text>
</g>
<!-- Node2 -->
<g id="node2" class="node"><title>Node2</title>
<g id="a_node2"><a xlink:href="classRa_1_1Engine_1_1Component.html" target="_top" xlink:title="A component is an element that can be updated by a system. ">
<polygon fill="white" stroke="black" points="353.5,-370.5 353.5,-592.5 514.5,-592.5 514.5,-370.5 353.5,-370.5"/>
<text text-anchor="middle" x="434" y="-580.5" font-family="Helvetica,sans-Serif" font-size="10.00">Ra::Engine::Component</text>
<polyline fill="none" stroke="black" points="353.5,-573.5 514.5,-573.5 "/>
<text text-anchor="middle" x="434" y="-561.5" font-family="Helvetica,sans-Serif" font-size="10.00"> </text>
<polyline fill="none" stroke="black" points="353.5,-554.5 514.5,-554.5 "/>
<text text-anchor="start" x="361.5" y="-542.5" font-family="Helvetica,sans-Serif" font-size="10.00">+ Component()</text>
<text text-anchor="start" x="361.5" y="-531.5" font-family="Helvetica,sans-Serif" font-size="10.00">+ ~Component()</text>
<text text-anchor="start" x="361.5" y="-520.5" font-family="Helvetica,sans-Serif" font-size="10.00">+ initialize()</text>
<text text-anchor="start" x="361.5" y="-509.5" font-family="Helvetica,sans-Serif" font-size="10.00">+ setEntity()</text>
<text text-anchor="start" x="361.5" y="-498.5" font-family="Helvetica,sans-Serif" font-size="10.00">+ getEntity()</text>
<text text-anchor="start" x="361.5" y="-487.5" font-family="Helvetica,sans-Serif" font-size="10.00">+ getName()</text>
<text text-anchor="start" x="361.5" y="-476.5" font-family="Helvetica,sans-Serif" font-size="10.00">+ setSystem()</text>
<text text-anchor="start" x="361.5" y="-465.5" font-family="Helvetica,sans-Serif" font-size="10.00">+ getSystem()</text>
<text text-anchor="start" x="361.5" y="-454.5" font-family="Helvetica,sans-Serif" font-size="10.00">+ addRenderObject()</text>
<text text-anchor="start" x="361.5" y="-443.5" font-family="Helvetica,sans-Serif" font-size="10.00">+ removeRenderObject()</text>
<text text-anchor="start" x="361.5" y="-432.5" font-family="Helvetica,sans-Serif" font-size="10.00">+ canEdit()</text>
<text text-anchor="start" x="361.5" y="-421.5" font-family="Helvetica,sans-Serif" font-size="10.00">+ getTransform()</text>
<text text-anchor="start" x="361.5" y="-410.5" font-family="Helvetica,sans-Serif" font-size="10.00">+ setTransform()</text>
<text text-anchor="start" x="361.5" y="-399.5" font-family="Helvetica,sans-Serif" font-size="10.00">+ notifyRenderObjectExpired()</text>
<text text-anchor="start" x="361.5" y="-388.5" font-family="Helvetica,sans-Serif" font-size="10.00">+ computeAabb()</text>
<text text-anchor="start" x="361.5" y="-377.5" font-family="Helvetica,sans-Serif" font-size="10.00"># getRoMgr()</text>
</a>
</g>
</g>
<!-- Node2&#45;&gt;Node1 -->
<g id="edge1" class="edge"><title>Node2&#45;&gt;Node1</title>
<path fill="none" stroke="midnightblue" d="M434,-360.028C434,-350.994 434,-341.792 434,-332.549"/>
<polygon fill="none" stroke="midnightblue" points="430.5,-360.148 434,-370.148 437.5,-360.148 430.5,-360.148"/>
</g>
<!-- Node3 -->
<g id="node3" class="node"><title>Node3</title>
<polygon fill="white" stroke="#bfbfbf" points="45.5,-949 45.5,-1028 156.5,-1028 156.5,-949 45.5,-949"/>
<text text-anchor="start" x="53.5" y="-1016" font-family="Helvetica,sans-Serif" font-size="10.00">std::vector&lt; Core::</text>
<text text-anchor="start" x="53.5" y="-1005" font-family="Helvetica,sans-Serif" font-size="10.00">Utils::Ra::Core::Utils</text>
<text text-anchor="middle" x="101" y="-994" font-family="Helvetica,sans-Serif" font-size="10.00">::Index &gt;</text>
<polyline fill="none" stroke="#bfbfbf" points="45.5,-987 156.5,-987 "/>
<text text-anchor="middle" x="101" y="-975" font-family="Helvetica,sans-Serif" font-size="10.00"> </text>
<polyline fill="none" stroke="#bfbfbf" points="45.5,-968 156.5,-968 "/>
<text text-anchor="middle" x="101" y="-956" font-family="Helvetica,sans-Serif" font-size="10.00"> </text>
</g>
<!-- Node3&#45;&gt;Node2 -->
<g id="edge2" class="edge"><title>Node3&#45;&gt;Node2</title>
<path fill="none" stroke="#404040" d="M98.6563,-948.882C96.4582,-880.257 100.894,-735.335 168,-640 210.226,-580.011 283.195,-539.181 342.039,-514.153"/>
<polygon fill="none" stroke="#404040" points="342.145,-514.109 346.153,-508.115 353.228,-509.51 349.22,-515.504 342.145,-514.109"/>
<text text-anchor="middle" x="215" y="-760" font-family="Helvetica,sans-Serif" font-size="10.00"> +m_renderObjects</text>
</g>
<!-- Node4 -->
<g id="node4" class="node"><title>Node4</title>
<polygon fill="white" stroke="#bfbfbf" points="0,-1274 0,-1331 42,-1331 42,-1274 0,-1274"/>
<text text-anchor="middle" x="21" y="-1319" font-family="Helvetica,sans-Serif" font-size="10.00">Index</text>
<polyline fill="none" stroke="#bfbfbf" points="0,-1312 42,-1312 "/>
<text text-anchor="middle" x="21" y="-1300" font-family="Helvetica,sans-Serif" font-size="10.00"> </text>
<polyline fill="none" stroke="#bfbfbf" points="0,-1293 42,-1293 "/>
<text text-anchor="middle" x="21" y="-1281" font-family="Helvetica,sans-Serif" font-size="10.00"> </text>
</g>
<!-- Node4&#45;&gt;Node3 -->
<g id="edge3" class="edge"><title>Node4&#45;&gt;Node3</title>
<path fill="none" stroke="#404040" d="M17.7467,-1273.79C13.5166,-1228 9.7771,-1134.49 39,-1063 42.5974,-1054.2 47.6628,-1045.68 53.365,-1037.74"/>
<polygon fill="none" stroke="#404040" points="53.5295,-1037.53 54.0321,-1030.34 60.8657,-1028.03 60.363,-1035.23 53.5295,-1037.53"/>
<text text-anchor="middle" x="67.5" y="-1077" font-family="Helvetica,sans-Serif" font-size="10.00"> +elements</text>
</g>
<!-- Node5 -->
<g id="node5" class="node"><title>Node5</title>
<g id="a_node5"><a xlink:title="STL class. ">
<polygon fill="white" stroke="#bfbfbf" points="115.5,-1274 115.5,-1331 210.5,-1331 210.5,-1274 115.5,-1274"/>
<text text-anchor="middle" x="163" y="-1319" font-family="Helvetica,sans-Serif" font-size="10.00">std::vector&lt; T &gt;</text>
<polyline fill="none" stroke="#bfbfbf" points="115.5,-1312 210.5,-1312 "/>
<text text-anchor="middle" x="163" y="-1300" font-family="Helvetica,sans-Serif" font-size="10.00"> </text>
<polyline fill="none" stroke="#bfbfbf" points="115.5,-1293 210.5,-1293 "/>
<text text-anchor="middle" x="163" y="-1281" font-family="Helvetica,sans-Serif" font-size="10.00"> </text>
</a>
</g>
</g>
<!-- Node5&#45;&gt;Node3 -->
<g id="edge4" class="edge"><title>Node5&#45;&gt;Node3</title>
<path fill="none" stroke="orange" d="M148.532,-1264.33C133.54,-1223.7 111.058,-1156.35 102,-1096 98.6519,-1073.69 98.2678,-1048.46 98.7831,-1028.15"/>
<polygon fill="orange" stroke="orange" points="145.297,-1265.67 152.076,-1273.81 151.854,-1263.22 145.297,-1265.67"/>
<text text-anchor="start" x="102" y="-1082.5" font-family="Helvetica,sans-Serif" font-size="10.00"> &lt; Core::Utils::Ra::</text>
<text text-anchor="middle" x="148.5" y="-1071.5" font-family="Helvetica,sans-Serif" font-size="10.00">Core::Utils::Index &gt;</text>
</g>
<!-- Node8 -->
<g id="node8" class="node"><title>Node8</title>
<polygon fill="white" stroke="#bfbfbf" points="262,-949 262,-1028 436,-1028 436,-949 262,-949"/>
<text text-anchor="start" x="270" y="-1016" font-family="Helvetica,sans-Serif" font-size="10.00">std::vector&lt; std::pair</text>
<text text-anchor="start" x="270" y="-1005" font-family="Helvetica,sans-Serif" font-size="10.00">&lt; const Ra::Engine::Entity</text>
<text text-anchor="middle" x="349" y="-994" font-family="Helvetica,sans-Serif" font-size="10.00"> *, Ra::Engine::Component * &gt; &gt;</text>
<polyline fill="none" stroke="#bfbfbf" points="262,-987 436,-987 "/>
<text text-anchor="middle" x="349" y="-975" font-family="Helvetica,sans-Serif" font-size="10.00"> </text>
<polyline fill="none" stroke="#bfbfbf" points="262,-968 436,-968 "/>
<text text-anchor="middle" x="349" y="-956" font-family="Helvetica,sans-Serif" font-size="10.00"> </text>
</g>
<!-- Node5&#45;&gt;Node8 -->
<g id="edge9" class="edge"><title>Node5&#45;&gt;Node8</title>
<path fill="none" stroke="orange" d="M167.197,-1263.78C174.385,-1204.84 190.577,-1094.36 214,-1063 226.375,-1046.43 243.63,-1033.16 261.676,-1022.7"/>
<polygon fill="orange" stroke="orange" points="163.709,-1263.47 166,-1273.82 170.66,-1264.3 163.709,-1263.47"/>
<text text-anchor="start" x="214" y="-1088" font-family="Helvetica,sans-Serif" font-size="10.00"> &lt; std::pair&lt; const</text>
<text text-anchor="start" x="214" y="-1077" font-family="Helvetica,sans-Serif" font-size="10.00"> Ra::Engine::Entity</text>
<text text-anchor="middle" x="293" y="-1066" font-family="Helvetica,sans-Serif" font-size="10.00"> *, Ra::Engine::Component * &gt; &gt;</text>
</g>
<!-- Node6 -->
<g id="node6" class="node"><title>Node6</title>
<polygon fill="white" stroke="#bfbfbf" points="148.5,-1538.5 148.5,-1595.5 177.5,-1595.5 177.5,-1538.5 148.5,-1538.5"/>
<text text-anchor="middle" x="163" y="-1583.5" font-family="Helvetica,sans-Serif" font-size="10.00">T</text>
<polyline fill="none" stroke="#bfbfbf" points="148.5,-1576.5 177.5,-1576.5 "/>
<text text-anchor="middle" x="163" y="-1564.5" font-family="Helvetica,sans-Serif" font-size="10.00"> </text>
<polyline fill="none" stroke="#bfbfbf" points="148.5,-1557.5 177.5,-1557.5 "/>
<text text-anchor="middle" x="163" y="-1545.5" font-family="Helvetica,sans-Serif" font-size="10.00"> </text>
</g>
<!-- Node6&#45;&gt;Node5 -->
<g id="edge5" class="edge"><title>Node6&#45;&gt;Node5</title>
<path fill="none" stroke="#404040" d="M163,-1538.4C163,-1491.73 163,-1397.04 163,-1343.23"/>
<polygon fill="none" stroke="#404040" points="163,-1343.12 159,-1337.12 163,-1331.12 167,-1337.12 163,-1343.12"/>
<text text-anchor="middle" x="191.5" y="-1512" font-family="Helvetica,sans-Serif" font-size="10.00"> +elements</text>
</g>
<!-- Node7 -->
<g id="node7" class="node"><title>Node7</title>
<g id="a_node7"><a xlink:href="classRa_1_1Engine_1_1System.html" target="_top" xlink:title="Systems are responsible of updating a specific subset of the components of each entity. ">
<polygon fill="white" stroke="black" points="271.5,-695.5 271.5,-829.5 428.5,-829.5 428.5,-695.5 271.5,-695.5"/>
<text text-anchor="middle" x="350" y="-817.5" font-family="Helvetica,sans-Serif" font-size="10.00">Ra::Engine::System</text>
<polyline fill="none" stroke="black" points="271.5,-810.5 428.5,-810.5 "/>
<text text-anchor="middle" x="350" y="-798.5" font-family="Helvetica,sans-Serif" font-size="10.00"> </text>
<polyline fill="none" stroke="black" points="271.5,-791.5 428.5,-791.5 "/>
<text text-anchor="start" x="279.5" y="-779.5" font-family="Helvetica,sans-Serif" font-size="10.00">+ System()</text>
<text text-anchor="start" x="279.5" y="-768.5" font-family="Helvetica,sans-Serif" font-size="10.00">+ ~System()</text>
<text text-anchor="start" x="279.5" y="-757.5" font-family="Helvetica,sans-Serif" font-size="10.00">+ handleAssetLoading()</text>
<text text-anchor="start" x="279.5" y="-746.5" font-family="Helvetica,sans-Serif" font-size="10.00">+ generateTasks()</text>
<text text-anchor="start" x="279.5" y="-735.5" font-family="Helvetica,sans-Serif" font-size="10.00">+ getEntityComponents()</text>
<text text-anchor="start" x="279.5" y="-724.5" font-family="Helvetica,sans-Serif" font-size="10.00"># registerComponent()</text>
<text text-anchor="start" x="279.5" y="-713.5" font-family="Helvetica,sans-Serif" font-size="10.00"># unregisterComponent()</text>
<text text-anchor="start" x="279.5" y="-702.5" font-family="Helvetica,sans-Serif" font-size="10.00"># unregisterAllComponents()</text>
</a>
</g>
</g>
<!-- Node7&#45;&gt;Node2 -->
<g id="edge6" class="edge"><title>Node7&#45;&gt;Node2</title>
<path fill="none" stroke="#404040" d="M369.907,-695.381C378.102,-668.161 387.866,-635.73 397.272,-604.49"/>
<polygon fill="none" stroke="#404040" points="397.396,-604.079 395.295,-597.18 400.855,-592.588 402.956,-599.487 397.396,-604.079"/>
<text text-anchor="middle" x="426" y="-614" font-family="Helvetica,sans-Serif" font-size="10.00"> #m_system</text>
</g>
<!-- Node8&#45;&gt;Node7 -->
<g id="edge7" class="edge"><title>Node8&#45;&gt;Node7</title>
<path fill="none" stroke="#404040" d="M349.172,-948.993C349.303,-919.549 349.489,-877.971 349.651,-841.64"/>
<polygon fill="none" stroke="#404040" points="349.651,-841.545 345.678,-835.527 349.705,-829.545 353.678,-835.563 349.651,-841.545"/>
<text text-anchor="middle" x="393.5" y="-906" font-family="Helvetica,sans-Serif" font-size="10.00"> #m_components</text>
</g>
<!-- Node9 -->
<g id="node9" class="node"><title>Node9</title>
<polygon fill="white" stroke="#bfbfbf" points="335.5,-1263 335.5,-1342 460.5,-1342 460.5,-1263 335.5,-1263"/>
<text text-anchor="start" x="343.5" y="-1330" font-family="Helvetica,sans-Serif" font-size="10.00">pair&lt; const Ra::Engine</text>
<text text-anchor="start" x="343.5" y="-1319" font-family="Helvetica,sans-Serif" font-size="10.00">::Entity *, Ra::Engine</text>
<text text-anchor="middle" x="398" y="-1308" font-family="Helvetica,sans-Serif" font-size="10.00">::Component * &gt;</text>
<polyline fill="none" stroke="#bfbfbf" points="335.5,-1301 460.5,-1301 "/>
<text text-anchor="middle" x="398" y="-1289" font-family="Helvetica,sans-Serif" font-size="10.00"> </text>
<polyline fill="none" stroke="#bfbfbf" points="335.5,-1282 460.5,-1282 "/>
<text text-anchor="middle" x="398" y="-1270" font-family="Helvetica,sans-Serif" font-size="10.00"> </text>
</g>
<!-- Node9&#45;&gt;Node8 -->
<g id="edge8" class="edge"><title>Node9&#45;&gt;Node8</title>
<path fill="none" stroke="#404040" d="M397.501,-1262.6C396.186,-1214.99 391.611,-1132.16 376,-1063 374.271,-1055.34 371.947,-1047.39 369.385,-1039.68"/>
<polygon fill="none" stroke="#404040" points="369.337,-1039.54 363.574,-1035.21 365.36,-1028.22 371.122,-1032.56 369.337,-1039.54"/>
<text text-anchor="middle" x="411.5" y="-1077" font-family="Helvetica,sans-Serif" font-size="10.00"> +elements</text>
</g>
<!-- Node10 -->
<g id="node10" class="node"><title>Node10</title>
<g id="a_node10"><a xlink:href="classRa_1_1Engine_1_1Entity.html" target="_top" xlink:title="An entity is an scene element. It ties together components with a transform. ">
<polygon fill="white" stroke="black" points="448,-640.5 448,-884.5 588,-884.5 588,-640.5 448,-640.5"/>
<text text-anchor="middle" x="518" y="-872.5" font-family="Helvetica,sans-Serif" font-size="10.00">Ra::Engine::Entity</text>
<polyline fill="none" stroke="black" points="448,-865.5 588,-865.5 "/>
<text text-anchor="middle" x="518" y="-853.5" font-family="Helvetica,sans-Serif" font-size="10.00"> </text>
<polyline fill="none" stroke="black" points="448,-846.5 588,-846.5 "/>
<text text-anchor="start" x="456" y="-834.5" font-family="Helvetica,sans-Serif" font-size="10.00">+ Entity()</text>
<text text-anchor="start" x="456" y="-823.5" font-family="Helvetica,sans-Serif" font-size="10.00">+ Entity()</text>
<text text-anchor="start" x="456" y="-812.5" font-family="Helvetica,sans-Serif" font-size="10.00">+ operator=()</text>
<text text-anchor="start" x="456" y="-801.5" font-family="Helvetica,sans-Serif" font-size="10.00">+ ~Entity()</text>
<text text-anchor="start" x="456" y="-790.5" font-family="Helvetica,sans-Serif" font-size="10.00">+ getName()</text>
<text text-anchor="start" x="456" y="-779.5" font-family="Helvetica,sans-Serif" font-size="10.00">+ rename()</text>
<text text-anchor="start" x="456" y="-768.5" font-family="Helvetica,sans-Serif" font-size="10.00">+ setTransform()</text>
<text text-anchor="start" x="456" y="-757.5" font-family="Helvetica,sans-Serif" font-size="10.00">+ setTransform()</text>
<text text-anchor="start" x="456" y="-746.5" font-family="Helvetica,sans-Serif" font-size="10.00">+ getTransform()</text>
<text text-anchor="start" x="456" y="-735.5" font-family="Helvetica,sans-Serif" font-size="10.00">+ getTransformAsMatrix()</text>
<text text-anchor="start" x="456" y="-724.5" font-family="Helvetica,sans-Serif" font-size="10.00">+ swapTransformBuffers()</text>
<text text-anchor="start" x="456" y="-713.5" font-family="Helvetica,sans-Serif" font-size="10.00">+ addComponent()</text>
<text text-anchor="start" x="456" y="-702.5" font-family="Helvetica,sans-Serif" font-size="10.00">+ removeComponent()</text>
<text text-anchor="start" x="456" y="-691.5" font-family="Helvetica,sans-Serif" font-size="10.00">+ getComponent()</text>
<text text-anchor="start" x="456" y="-680.5" font-family="Helvetica,sans-Serif" font-size="10.00">+ getComponent()</text>
<text text-anchor="start" x="456" y="-669.5" font-family="Helvetica,sans-Serif" font-size="10.00">+ getComponents()</text>
<text text-anchor="start" x="456" y="-658.5" font-family="Helvetica,sans-Serif" font-size="10.00">+ getNumComponents()</text>
<text text-anchor="start" x="456" y="-647.5" font-family="Helvetica,sans-Serif" font-size="10.00">+ computeAabb()</text>
</a>
</g>
</g>
<!-- Node10&#45;&gt;Node2 -->
<g id="edge10" class="edge"><title>Node10&#45;&gt;Node2</title>
<path fill="none" stroke="#404040" d="M481.523,-640.344C477.937,-628.432 474.295,-616.339 470.707,-604.419"/>
<polygon fill="none" stroke="#404040" points="470.599,-604.062 465.039,-599.469 467.14,-592.571 472.7,-597.163 470.599,-604.062"/>
<text text-anchor="middle" x="503" y="-614" font-family="Helvetica,sans-Serif" font-size="10.00"> #m_entity</text>
</g>
<!-- Node11 -->
<g id="node11" class="node"><title>Node11</title>
<g id="a_node11"><a xlink:href="classRa_1_1Core_1_1Utils_1_1IndexedObject.html" target="_top" xlink:title="{Ra::Core::Utils::Indexed\lObject\n||+ IndexedObject()\l+ IndexedObject()\l+ ~IndexedObject()\l+ setIndex()\l+ getIndex()\l}">
<polygon fill="white" stroke="black" points="454,-932.5 454,-1044.5 582,-1044.5 582,-932.5 454,-932.5"/>
<text text-anchor="start" x="462" y="-1032.5" font-family="Helvetica,sans-Serif" font-size="10.00">Ra::Core::Utils::Indexed</text>
<text text-anchor="middle" x="518" y="-1021.5" font-family="Helvetica,sans-Serif" font-size="10.00">Object</text>
<polyline fill="none" stroke="black" points="454,-1014.5 582,-1014.5 "/>
<text text-anchor="middle" x="518" y="-1002.5" font-family="Helvetica,sans-Serif" font-size="10.00"> </text>
<polyline fill="none" stroke="black" points="454,-995.5 582,-995.5 "/>
<text text-anchor="start" x="462" y="-983.5" font-family="Helvetica,sans-Serif" font-size="10.00">+ IndexedObject()</text>
<text text-anchor="start" x="462" y="-972.5" font-family="Helvetica,sans-Serif" font-size="10.00">+ IndexedObject()</text>
<text text-anchor="start" x="462" y="-961.5" font-family="Helvetica,sans-Serif" font-size="10.00">+ ~IndexedObject()</text>
<text text-anchor="start" x="462" y="-950.5" font-family="Helvetica,sans-Serif" font-size="10.00">+ setIndex()</text>
<text text-anchor="start" x="462" y="-939.5" font-family="Helvetica,sans-Serif" font-size="10.00">+ getIndex()</text>
</a>
</g>
</g>
<!-- Node11&#45;&gt;Node10 -->
<g id="edge11" class="edge"><title>Node11&#45;&gt;Node10</title>
<path fill="none" stroke="midnightblue" d="M518,-922.213C518,-910.331 518,-897.595 518,-884.696"/>
<polygon fill="none" stroke="midnightblue" points="514.5,-922.417 518,-932.417 521.5,-922.417 514.5,-922.417"/>
</g>
<!-- Node12 -->
<g id="node12" class="node"><title>Node12</title>
<g id="a_node12"><a xlink:href="classRa_1_1Core_1_1Utils_1_1Index.html" target="_top" xlink:title="{Ra::Core::Utils::Index\n||+ Index()\l+ Index()\l+ operator=()\l+ isValid()\l+ isInvalid()\l+ setInvalid()\l+ getValue()\l+ setValue()\l+ operator int()\l+ operator=()\l+ operator++()\l+ operator&#45;&#45;()\l+ operator+()\l+ operator+()\l+ operator&#45;()\l+ operator&#45;()\l+ operator==()\l+ operator==()\l+ operator!=()\l+ operator!=()\l+ operator\&lt;()\l+ operator\&lt;()\l+ operator\&lt;=()\l+ operator\&lt;=()\l+ operator\&gt;()\l+ operator\&gt;()\l+ operator\&gt;=()\l+ operator\&gt;=()\l+ Invalid()\l+ Max()\l}">
<polygon fill="white" stroke="black" points="479,-1114.5 479,-1490.5 595,-1490.5 595,-1114.5 479,-1114.5"/>
<text text-anchor="middle" x="537" y="-1478.5" font-family="Helvetica,sans-Serif" font-size="10.00">Ra::Core::Utils::Index</text>
<polyline fill="none" stroke="black" points="479,-1471.5 595,-1471.5 "/>
<text text-anchor="middle" x="537" y="-1459.5" font-family="Helvetica,sans-Serif" font-size="10.00"> </text>
<polyline fill="none" stroke="black" points="479,-1452.5 595,-1452.5 "/>
<text text-anchor="start" x="487" y="-1440.5" font-family="Helvetica,sans-Serif" font-size="10.00">+ Index()</text>
<text text-anchor="start" x="487" y="-1429.5" font-family="Helvetica,sans-Serif" font-size="10.00">+ Index()</text>
<text text-anchor="start" x="487" y="-1418.5" font-family="Helvetica,sans-Serif" font-size="10.00">+ operator=()</text>
<text text-anchor="start" x="487" y="-1407.5" font-family="Helvetica,sans-Serif" font-size="10.00">+ isValid()</text>
<text text-anchor="start" x="487" y="-1396.5" font-family="Helvetica,sans-Serif" font-size="10.00">+ isInvalid()</text>
<text text-anchor="start" x="487" y="-1385.5" font-family="Helvetica,sans-Serif" font-size="10.00">+ setInvalid()</text>
<text text-anchor="start" x="487" y="-1374.5" font-family="Helvetica,sans-Serif" font-size="10.00">+ getValue()</text>
<text text-anchor="start" x="487" y="-1363.5" font-family="Helvetica,sans-Serif" font-size="10.00">+ setValue()</text>
<text text-anchor="start" x="487" y="-1352.5" font-family="Helvetica,sans-Serif" font-size="10.00">+ operator int()</text>
<text text-anchor="start" x="487" y="-1341.5" font-family="Helvetica,sans-Serif" font-size="10.00">+ operator=()</text>
<text text-anchor="start" x="487" y="-1330.5" font-family="Helvetica,sans-Serif" font-size="10.00">+ operator++()</text>
<text text-anchor="start" x="487" y="-1319.5" font-family="Helvetica,sans-Serif" font-size="10.00">+ operator&#45;&#45;()</text>
<text text-anchor="start" x="487" y="-1308.5" font-family="Helvetica,sans-Serif" font-size="10.00">+ operator+()</text>
<text text-anchor="start" x="487" y="-1297.5" font-family="Helvetica,sans-Serif" font-size="10.00">+ operator+()</text>
<text text-anchor="start" x="487" y="-1286.5" font-family="Helvetica,sans-Serif" font-size="10.00">+ operator&#45;()</text>
<text text-anchor="start" x="487" y="-1275.5" font-family="Helvetica,sans-Serif" font-size="10.00">+ operator&#45;()</text>
<text text-anchor="start" x="487" y="-1264.5" font-family="Helvetica,sans-Serif" font-size="10.00">+ operator==()</text>
<text text-anchor="start" x="487" y="-1253.5" font-family="Helvetica,sans-Serif" font-size="10.00">+ operator==()</text>
<text text-anchor="start" x="487" y="-1242.5" font-family="Helvetica,sans-Serif" font-size="10.00">+ operator!=()</text>
<text text-anchor="start" x="487" y="-1231.5" font-family="Helvetica,sans-Serif" font-size="10.00">+ operator!=()</text>
<text text-anchor="start" x="487" y="-1220.5" font-family="Helvetica,sans-Serif" font-size="10.00">+ operator&lt;()</text>
<text text-anchor="start" x="487" y="-1209.5" font-family="Helvetica,sans-Serif" font-size="10.00">+ operator&lt;()</text>
<text text-anchor="start" x="487" y="-1198.5" font-family="Helvetica,sans-Serif" font-size="10.00">+ operator&lt;=()</text>
<text text-anchor="start" x="487" y="-1187.5" font-family="Helvetica,sans-Serif" font-size="10.00">+ operator&lt;=()</text>
<text text-anchor="start" x="487" y="-1176.5" font-family="Helvetica,sans-Serif" font-size="10.00">+ operator&gt;()</text>
<text text-anchor="start" x="487" y="-1165.5" font-family="Helvetica,sans-Serif" font-size="10.00">+ operator&gt;()</text>
<text text-anchor="start" x="487" y="-1154.5" font-family="Helvetica,sans-Serif" font-size="10.00">+ operator&gt;=()</text>
<text text-anchor="start" x="487" y="-1143.5" font-family="Helvetica,sans-Serif" font-size="10.00">+ operator&gt;=()</text>
<text text-anchor="start" x="487" y="-1132.5" font-family="Helvetica,sans-Serif" font-size="10.00">+ Invalid()</text>
<text text-anchor="start" x="487" y="-1121.5" font-family="Helvetica,sans-Serif" font-size="10.00">+ Max()</text>
</a>
</g>
</g>
<!-- Node12&#45;&gt;Node11 -->
<g id="edge12" class="edge"><title>Node12&#45;&gt;Node11</title>
<path fill="none" stroke="#404040" d="M525.591,-1114.16C524.349,-1093.75 523.151,-1074.09 522.089,-1056.65"/>
<polygon fill="none" stroke="#404040" points="522.089,-1056.64 517.731,-1050.89 521.359,-1044.66 525.717,-1050.41 522.089,-1056.64"/>
<text text-anchor="middle" x="545" y="-1077" font-family="Helvetica,sans-Serif" font-size="10.00"> #m_idx</text>
</g>
<!-- Node13 -->
<g id="node13" class="node"><title>Node13</title>
<g id="a_node13"><a xlink:href="classint.html" target="_top" xlink:title="{int\n||}">
<polygon fill="white" stroke="black" points="522.5,-1538.5 522.5,-1595.5 551.5,-1595.5 551.5,-1538.5 522.5,-1538.5"/>
<text text-anchor="middle" x="537" y="-1583.5" font-family="Helvetica,sans-Serif" font-size="10.00">int</text>
<polyline fill="none" stroke="black" points="522.5,-1576.5 551.5,-1576.5 "/>
<text text-anchor="middle" x="537" y="-1564.5" font-family="Helvetica,sans-Serif" font-size="10.00"> </text>
<polyline fill="none" stroke="black" points="522.5,-1557.5 551.5,-1557.5 "/>
<text text-anchor="middle" x="537" y="-1545.5" font-family="Helvetica,sans-Serif" font-size="10.00"> </text>
</a>
</g>
</g>
<!-- Node13&#45;&gt;Node12 -->
<g id="edge13" class="edge"><title>Node13&#45;&gt;Node12</title>
<path fill="none" stroke="#404040" d="M537,-1538.4C537,-1528.43 537,-1516.26 537,-1502.76"/>
<polygon fill="none" stroke="#404040" points="537,-1502.58 533,-1496.58 537,-1490.58 541,-1496.58 537,-1502.58"/>
<text text-anchor="middle" x="557" y="-1512" font-family="Helvetica,sans-Serif" font-size="10.00"> #m_idx</text>
</g>
<!-- Node14 -->
<g id="node14" class="node"><title>Node14</title>
<g id="a_node14"><a xlink:title="STL class. ">
<polygon fill="white" stroke="#bfbfbf" points="613.5,-734 613.5,-791 678.5,-791 678.5,-734 613.5,-734"/>
<text text-anchor="middle" x="646" y="-779" font-family="Helvetica,sans-Serif" font-size="10.00">std::string</text>
<polyline fill="none" stroke="#bfbfbf" points="613.5,-772 678.5,-772 "/>
<text text-anchor="middle" x="646" y="-760" font-family="Helvetica,sans-Serif" font-size="10.00"> </text>
<polyline fill="none" stroke="#bfbfbf" points="613.5,-753 678.5,-753 "/>
<text text-anchor="middle" x="646" y="-741" font-family="Helvetica,sans-Serif" font-size="10.00"> </text>
</a>
</g>
</g>
<!-- Node14&#45;&gt;Node2 -->
<g id="edge14" class="edge"><title>Node14&#45;&gt;Node2</title>
<path fill="none" stroke="#404040" d="M638.487,-733.835C630.686,-708.106 616.827,-669.425 597,-640 576.651,-609.801 549.715,-580.855 523.612,-556.201"/>
<polygon fill="none" stroke="#404040" points="523.591,-556.181 516.473,-555.025 514.803,-548.009 521.921,-549.166 523.591,-556.181"/>
<text text-anchor="middle" x="610.5" y="-614" font-family="Helvetica,sans-Serif" font-size="10.00"> #m_name</text>
</g>
<!-- Node15 -->
<g id="node15" class="node"><title>Node15</title>
<g id="a_node15"><a xlink:title="STL class. ">
<polygon fill="white" stroke="#bfbfbf" points="600.5,-954.5 600.5,-1022.5 703.5,-1022.5 703.5,-954.5 600.5,-954.5"/>
<text text-anchor="start" x="608.5" y="-1010.5" font-family="Helvetica,sans-Serif" font-size="10.00">std::basic_string&lt;</text>
<text text-anchor="middle" x="652" y="-999.5" font-family="Helvetica,sans-Serif" font-size="10.00"> char &gt;</text>
<polyline fill="none" stroke="#bfbfbf" points="600.5,-992.5 703.5,-992.5 "/>
<text text-anchor="middle" x="652" y="-980.5" font-family="Helvetica,sans-Serif" font-size="10.00"> </text>
<polyline fill="none" stroke="#bfbfbf" points="600.5,-973.5 703.5,-973.5 "/>
<text text-anchor="middle" x="652" y="-961.5" font-family="Helvetica,sans-Serif" font-size="10.00"> </text>
</a>
</g>
</g>
<!-- Node15&#45;&gt;Node14 -->
<g id="edge15" class="edge"><title>Node15&#45;&gt;Node14</title>
<path fill="none" stroke="midnightblue" d="M650.844,-944.346C649.632,-899.093 647.764,-829.343 646.738,-791.037"/>
<polygon fill="none" stroke="midnightblue" points="647.348,-944.545 651.115,-954.448 654.346,-944.358 647.348,-944.545"/>
</g>
</g>
</svg>
