<?xml version="1.0" encoding="UTF-8" standalone="no"?>
<!DOCTYPE svg PUBLIC "-//W3C//DTD SVG 1.1//EN"
 "http://www.w3.org/Graphics/SVG/1.1/DTD/svg11.dtd">
<!-- Generated by graphviz version 2.38.0 (20140413.2041)
 -->
<!-- Title: Ra::Engine::Camera Pages: 1 -->
<svg width="1077pt" height="2343pt"
 viewBox="0.00 0.00 1076.50 2343.00" xmlns="http://www.w3.org/2000/svg" xmlns:xlink="http://www.w3.org/1999/xlink">
<g id="graph0" class="graph" transform="scale(1 1) rotate(0) translate(4 2339)">
<title>Ra::Engine::Camera</title>
<polygon fill="white" stroke="none" points="-4,4 -4,-2339 1072.5,-2339 1072.5,4 -4,4"/>
<!-- Node1 -->
<g id="node1" class="node"><title>Node1</title>
<polygon fill="#bfbfbf" stroke="black" points="688.5,-0.5 688.5,-530.5 814.5,-530.5 814.5,-0.5 688.5,-0.5"/>
<text text-anchor="middle" x="751.5" y="-518.5" font-family="Helvetica,sans-Serif" font-size="10.00">Ra::Engine::Camera</text>
<polyline fill="none" stroke="black" points="688.5,-511.5 814.5,-511.5 "/>
<text text-anchor="middle" x="751.5" y="-499.5" font-family="Helvetica,sans-Serif" font-size="10.00"> </text>
<polyline fill="none" stroke="black" points="688.5,-492.5 814.5,-492.5 "/>
<text text-anchor="start" x="696.5" y="-480.5" font-family="Helvetica,sans-Serif" font-size="10.00">+ Camera()</text>
<text text-anchor="start" x="696.5" y="-469.5" font-family="Helvetica,sans-Serif" font-size="10.00">+ ~Camera()</text>
<text text-anchor="start" x="696.5" y="-458.5" font-family="Helvetica,sans-Serif" font-size="10.00">+ initialize()</text>
<text text-anchor="start" x="696.5" y="-447.5" font-family="Helvetica,sans-Serif" font-size="10.00">+ show()</text>
<text text-anchor="start" x="696.5" y="-436.5" font-family="Helvetica,sans-Serif" font-size="10.00">+ getFrame()</text>
<text text-anchor="start" x="696.5" y="-425.5" font-family="Helvetica,sans-Serif" font-size="10.00">+ setFrame()</text>
<text text-anchor="start" x="696.5" y="-414.5" font-family="Helvetica,sans-Serif" font-size="10.00">+ getPosition()</text>
<text text-anchor="start" x="696.5" y="-403.5" font-family="Helvetica,sans-Serif" font-size="10.00">+ setPosition()</text>
<text text-anchor="start" x="696.5" y="-392.5" font-family="Helvetica,sans-Serif" font-size="10.00">+ getDirection()</text>
<text text-anchor="start" x="696.5" y="-381.5" font-family="Helvetica,sans-Serif" font-size="10.00">+ setDirection()</text>
<text text-anchor="start" x="696.5" y="-370.5" font-family="Helvetica,sans-Serif" font-size="10.00">+ getUpVector()</text>
<text text-anchor="start" x="696.5" y="-359.5" font-family="Helvetica,sans-Serif" font-size="10.00">+ setUpVector()</text>
<text text-anchor="start" x="696.5" y="-348.5" font-family="Helvetica,sans-Serif" font-size="10.00">+ getRightVector()</text>
<text text-anchor="start" x="696.5" y="-337.5" font-family="Helvetica,sans-Serif" font-size="10.00">+ applyTransform()</text>
<text text-anchor="start" x="696.5" y="-326.5" font-family="Helvetica,sans-Serif" font-size="10.00">+ getViewMatrix()</text>
<text text-anchor="start" x="696.5" y="-315.5" font-family="Helvetica,sans-Serif" font-size="10.00">+ getProjMatrix()</text>
<text text-anchor="start" x="696.5" y="-304.5" font-family="Helvetica,sans-Serif" font-size="10.00">+ updateProjMatrix()</text>
<text text-anchor="start" x="696.5" y="-293.5" font-family="Helvetica,sans-Serif" font-size="10.00">+ getRayFromScreen()</text>
<text text-anchor="start" x="696.5" y="-282.5" font-family="Helvetica,sans-Serif" font-size="10.00">+ project()</text>
<text text-anchor="start" x="696.5" y="-271.5" font-family="Helvetica,sans-Serif" font-size="10.00">+ unProject()</text>
<text text-anchor="start" x="696.5" y="-260.5" font-family="Helvetica,sans-Serif" font-size="10.00">+ getType()</text>
<text text-anchor="start" x="696.5" y="-249.5" font-family="Helvetica,sans-Serif" font-size="10.00">+ setType()</text>
<text text-anchor="start" x="696.5" y="-238.5" font-family="Helvetica,sans-Serif" font-size="10.00">+ getFOV()</text>
<text text-anchor="start" x="696.5" y="-227.5" font-family="Helvetica,sans-Serif" font-size="10.00">+ setFOV()</text>
<text text-anchor="start" x="696.5" y="-216.5" font-family="Helvetica,sans-Serif" font-size="10.00">+ getZoomFactor()</text>
<text text-anchor="start" x="696.5" y="-205.5" font-family="Helvetica,sans-Serif" font-size="10.00">+ setZoomFactor()</text>
<text text-anchor="start" x="696.5" y="-194.5" font-family="Helvetica,sans-Serif" font-size="10.00">+ duplicate()</text>
<text text-anchor="start" x="696.5" y="-183.5" font-family="Helvetica,sans-Serif" font-size="10.00">+ fitZRange()</text>
<text text-anchor="start" x="696.5" y="-172.5" font-family="Helvetica,sans-Serif" font-size="10.00">+ getZNear()</text>
<text text-anchor="start" x="696.5" y="-161.5" font-family="Helvetica,sans-Serif" font-size="10.00">+ setZNear()</text>
<text text-anchor="start" x="696.5" y="-150.5" font-family="Helvetica,sans-Serif" font-size="10.00">+ getZFar()</text>
<text text-anchor="start" x="696.5" y="-139.5" font-family="Helvetica,sans-Serif" font-size="10.00">+ setZFar()</text>
<text text-anchor="start" x="696.5" y="-128.5" font-family="Helvetica,sans-Serif" font-size="10.00">+ getWidth()</text>
<text text-anchor="start" x="696.5" y="-117.5" font-family="Helvetica,sans-Serif" font-size="10.00">+ getHeight()</text>
<text text-anchor="start" x="696.5" y="-106.5" font-family="Helvetica,sans-Serif" font-size="10.00">+ getAspect()</text>
<text text-anchor="start" x="696.5" y="-95.5" font-family="Helvetica,sans-Serif" font-size="10.00">+ resize()</text>
<text text-anchor="start" x="696.5" y="-84.5" font-family="Helvetica,sans-Serif" font-size="10.00">* getZNear()</text>
<text text-anchor="start" x="696.5" y="-73.5" font-family="Helvetica,sans-Serif" font-size="10.00">* setZNear()</text>
<text text-anchor="start" x="696.5" y="-62.5" font-family="Helvetica,sans-Serif" font-size="10.00">* getZFar()</text>
<text text-anchor="start" x="696.5" y="-51.5" font-family="Helvetica,sans-Serif" font-size="10.00">* setZFar()</text>
<text text-anchor="start" x="696.5" y="-40.5" font-family="Helvetica,sans-Serif" font-size="10.00">* getWidth()</text>
<text text-anchor="start" x="696.5" y="-29.5" font-family="Helvetica,sans-Serif" font-size="10.00">* getHeight()</text>
<text text-anchor="start" x="696.5" y="-18.5" font-family="Helvetica,sans-Serif" font-size="10.00">* getAspect()</text>
<text text-anchor="start" x="696.5" y="-7.5" font-family="Helvetica,sans-Serif" font-size="10.00">* resize()</text>
</g>
<!-- Node2 -->
<g id="node2" class="node"><title>Node2</title>
<g id="a_node2"><a xlink:href="classRa_1_1Engine_1_1Component.html" target="_top" xlink:title="A component is an element that can be updated by a system. ">
<polygon fill="white" stroke="black" points="378,-644.5 378,-866.5 539,-866.5 539,-644.5 378,-644.5"/>
<text text-anchor="middle" x="458.5" y="-854.5" font-family="Helvetica,sans-Serif" font-size="10.00">Ra::Engine::Component</text>
<polyline fill="none" stroke="black" points="378,-847.5 539,-847.5 "/>
<text text-anchor="middle" x="458.5" y="-835.5" font-family="Helvetica,sans-Serif" font-size="10.00"> </text>
<polyline fill="none" stroke="black" points="378,-828.5 539,-828.5 "/>
<text text-anchor="start" x="386" y="-816.5" font-family="Helvetica,sans-Serif" font-size="10.00">+ Component()</text>
<text text-anchor="start" x="386" y="-805.5" font-family="Helvetica,sans-Serif" font-size="10.00">+ ~Component()</text>
<text text-anchor="start" x="386" y="-794.5" font-family="Helvetica,sans-Serif" font-size="10.00">+ initialize()</text>
<text text-anchor="start" x="386" y="-783.5" font-family="Helvetica,sans-Serif" font-size="10.00">+ setEntity()</text>
<text text-anchor="start" x="386" y="-772.5" font-family="Helvetica,sans-Serif" font-size="10.00">+ getEntity()</text>
<text text-anchor="start" x="386" y="-761.5" font-family="Helvetica,sans-Serif" font-size="10.00">+ getName()</text>
<text text-anchor="start" x="386" y="-750.5" font-family="Helvetica,sans-Serif" font-size="10.00">+ setSystem()</text>
<text text-anchor="start" x="386" y="-739.5" font-family="Helvetica,sans-Serif" font-size="10.00">+ getSystem()</text>
<text text-anchor="start" x="386" y="-728.5" font-family="Helvetica,sans-Serif" font-size="10.00">+ addRenderObject()</text>
<text text-anchor="start" x="386" y="-717.5" font-family="Helvetica,sans-Serif" font-size="10.00">+ removeRenderObject()</text>
<text text-anchor="start" x="386" y="-706.5" font-family="Helvetica,sans-Serif" font-size="10.00">+ canEdit()</text>
<text text-anchor="start" x="386" y="-695.5" font-family="Helvetica,sans-Serif" font-size="10.00">+ getTransform()</text>
<text text-anchor="start" x="386" y="-684.5" font-family="Helvetica,sans-Serif" font-size="10.00">+ setTransform()</text>
<text text-anchor="start" x="386" y="-673.5" font-family="Helvetica,sans-Serif" font-size="10.00">+ notifyRenderObjectExpired()</text>
<text text-anchor="start" x="386" y="-662.5" font-family="Helvetica,sans-Serif" font-size="10.00">+ computeAabb()</text>
<text text-anchor="start" x="386" y="-651.5" font-family="Helvetica,sans-Serif" font-size="10.00"># getRoMgr()</text>
</a>
</g>
</g>
<!-- Node2&#45;&gt;Node1 -->
<g id="edge1" class="edge"><title>Node2&#45;&gt;Node1</title>
<path fill="none" stroke="midnightblue" d="M529.855,-635.657C578.3,-554.969 641.78,-449.242 688.383,-371.623"/>
<polygon fill="none" stroke="midnightblue" points="526.767,-634 524.62,-644.375 532.769,-637.603 526.767,-634"/>
</g>
<!-- Node3 -->
<g id="node3" class="node"><title>Node3</title>
<polygon fill="white" stroke="#bfbfbf" points="268,-1688 268,-1767 379,-1767 379,-1688 268,-1688"/>
<text text-anchor="start" x="276" y="-1755" font-family="Helvetica,sans-Serif" font-size="10.00">std::vector&lt; Core::</text>
<text text-anchor="start" x="276" y="-1744" font-family="Helvetica,sans-Serif" font-size="10.00">Utils::Ra::Core::Utils</text>
<text text-anchor="middle" x="323.5" y="-1733" font-family="Helvetica,sans-Serif" font-size="10.00">::Index &gt;</text>
<polyline fill="none" stroke="#bfbfbf" points="268,-1726 379,-1726 "/>
<text text-anchor="middle" x="323.5" y="-1714" font-family="Helvetica,sans-Serif" font-size="10.00"> </text>
<polyline fill="none" stroke="#bfbfbf" points="268,-1707 379,-1707 "/>
<text text-anchor="middle" x="323.5" y="-1695" font-family="Helvetica,sans-Serif" font-size="10.00"> </text>
</g>
<!-- Node3&#45;&gt;Node2 -->
<g id="edge2" class="edge"><title>Node3&#45;&gt;Node2</title>
<path fill="none" stroke="#404040" d="M320.615,-1687.79C316.441,-1623.46 310.455,-1490.57 322.5,-1379 341.538,-1202.67 390.073,-1003.04 423.69,-878.459"/>
<polygon fill="none" stroke="#404040" points="423.755,-878.222 421.465,-871.384 426.896,-866.64 429.186,-873.478 423.755,-878.222"/>
<text text-anchor="middle" x="369.5" y="-1499" font-family="Helvetica,sans-Serif" font-size="10.00"> +m_renderObjects</text>
</g>
<!-- Node4 -->
<g id="node4" class="node"><title>Node4</title>
<polygon fill="white" stroke="#bfbfbf" points="418.5,-2013 418.5,-2070 460.5,-2070 460.5,-2013 418.5,-2013"/>
<text text-anchor="middle" x="439.5" y="-2058" font-family="Helvetica,sans-Serif" font-size="10.00">Index</text>
<polyline fill="none" stroke="#bfbfbf" points="418.5,-2051 460.5,-2051 "/>
<text text-anchor="middle" x="439.5" y="-2039" font-family="Helvetica,sans-Serif" font-size="10.00"> </text>
<polyline fill="none" stroke="#bfbfbf" points="418.5,-2032 460.5,-2032 "/>
<text text-anchor="middle" x="439.5" y="-2020" font-family="Helvetica,sans-Serif" font-size="10.00"> </text>
</g>
<!-- Node4&#45;&gt;Node3 -->
<g id="edge3" class="edge"><title>Node4&#45;&gt;Node3</title>
<path fill="none" stroke="#404040" d="M441.456,-2012.89C443.514,-1966.44 442.364,-1870.98 405.5,-1802 400.459,-1792.57 393.705,-1783.75 386.227,-1775.72"/>
<polygon fill="none" stroke="#404040" points="386.008,-1775.5 378.938,-1774.08 377.53,-1767.01 384.6,-1768.43 386.008,-1775.5"/>
<text text-anchor="middle" x="448" y="-1816" font-family="Helvetica,sans-Serif" font-size="10.00"> +elements</text>
</g>
<!-- Node5 -->
<g id="node5" class="node"><title>Node5</title>
<g id="a_node5"><a xlink:title="STL class. ">
<polygon fill="white" stroke="#bfbfbf" points="210,-2013 210,-2070 305,-2070 305,-2013 210,-2013"/>
<text text-anchor="middle" x="257.5" y="-2058" font-family="Helvetica,sans-Serif" font-size="10.00">std::vector&lt; T &gt;</text>
<polyline fill="none" stroke="#bfbfbf" points="210,-2051 305,-2051 "/>
<text text-anchor="middle" x="257.5" y="-2039" font-family="Helvetica,sans-Serif" font-size="10.00"> </text>
<polyline fill="none" stroke="#bfbfbf" points="210,-2032 305,-2032 "/>
<text text-anchor="middle" x="257.5" y="-2020" font-family="Helvetica,sans-Serif" font-size="10.00"> </text>
</a>
</g>
</g>
<!-- Node5&#45;&gt;Node3 -->
<g id="edge4" class="edge"><title>Node5&#45;&gt;Node3</title>
<path fill="none" stroke="orange" d="M265.601,-2003.06C274.491,-1961.88 289.142,-1893.75 301.5,-1835 306.202,-1812.64 311.374,-1787.63 315.522,-1767.46"/>
<polygon fill="orange" stroke="orange" points="262.161,-2002.41 263.47,-2012.93 269.003,-2003.89 262.161,-2002.41"/>
<text text-anchor="start" x="308.5" y="-1821.5" font-family="Helvetica,sans-Serif" font-size="10.00"> &lt; Core::Utils::Ra::</text>
<text text-anchor="middle" x="355" y="-1810.5" font-family="Helvetica,sans-Serif" font-size="10.00">Core::Utils::Index &gt;</text>
</g>
<!-- Node8 -->
<g id="node8" class="node"><title>Node8</title>
<polygon fill="white" stroke="#bfbfbf" points="55.5,-1688 55.5,-1767 229.5,-1767 229.5,-1688 55.5,-1688"/>
<text text-anchor="start" x="63.5" y="-1755" font-family="Helvetica,sans-Serif" font-size="10.00">std::vector&lt; std::pair</text>
<text text-anchor="start" x="63.5" y="-1744" font-family="Helvetica,sans-Serif" font-size="10.00">&lt; const Ra::Engine::Entity</text>
<text text-anchor="middle" x="142.5" y="-1733" font-family="Helvetica,sans-Serif" font-size="10.00"> *, Ra::Engine::Component * &gt; &gt;</text>
<polyline fill="none" stroke="#bfbfbf" points="55.5,-1726 229.5,-1726 "/>
<text text-anchor="middle" x="142.5" y="-1714" font-family="Helvetica,sans-Serif" font-size="10.00"> </text>
<polyline fill="none" stroke="#bfbfbf" points="55.5,-1707 229.5,-1707 "/>
<text text-anchor="middle" x="142.5" y="-1695" font-family="Helvetica,sans-Serif" font-size="10.00"> </text>
</g>
<!-- Node5&#45;&gt;Node8 -->
<g id="edge9" class="edge"><title>Node5&#45;&gt;Node8</title>
<path fill="none" stroke="orange" d="M228.774,-2004.28C199.732,-1965.14 156.747,-1899.67 139.5,-1835 133.637,-1813.02 134.101,-1787.57 136.165,-1767.07"/>
<polygon fill="orange" stroke="orange" points="226.298,-2006.81 235.107,-2012.69 231.891,-2002.6 226.298,-2006.81"/>
<text text-anchor="start" x="139.5" y="-1827" font-family="Helvetica,sans-Serif" font-size="10.00"> &lt; std::pair&lt; const</text>
<text text-anchor="start" x="139.5" y="-1816" font-family="Helvetica,sans-Serif" font-size="10.00"> Ra::Engine::Entity</text>
<text text-anchor="middle" x="218.5" y="-1805" font-family="Helvetica,sans-Serif" font-size="10.00"> *, Ra::Engine::Component * &gt; &gt;</text>
</g>
<!-- Node6 -->
<g id="node6" class="node"><title>Node6</title>
<polygon fill="white" stroke="#bfbfbf" points="243,-2277.5 243,-2334.5 272,-2334.5 272,-2277.5 243,-2277.5"/>
<text text-anchor="middle" x="257.5" y="-2322.5" font-family="Helvetica,sans-Serif" font-size="10.00">T</text>
<polyline fill="none" stroke="#bfbfbf" points="243,-2315.5 272,-2315.5 "/>
<text text-anchor="middle" x="257.5" y="-2303.5" font-family="Helvetica,sans-Serif" font-size="10.00"> </text>
<polyline fill="none" stroke="#bfbfbf" points="243,-2296.5 272,-2296.5 "/>
<text text-anchor="middle" x="257.5" y="-2284.5" font-family="Helvetica,sans-Serif" font-size="10.00"> </text>
</g>
<!-- Node6&#45;&gt;Node5 -->
<g id="edge5" class="edge"><title>Node6&#45;&gt;Node5</title>
<path fill="none" stroke="#404040" d="M257.5,-2277.4C257.5,-2230.73 257.5,-2136.04 257.5,-2082.23"/>
<polygon fill="none" stroke="#404040" points="257.5,-2082.12 253.5,-2076.12 257.5,-2070.12 261.5,-2076.12 257.5,-2082.12"/>
<text text-anchor="middle" x="286" y="-2251" font-family="Helvetica,sans-Serif" font-size="10.00"> +elements</text>
</g>
<!-- Node7 -->
<g id="node7" class="node"><title>Node7</title>
<g id="a_node7"><a xlink:href="classRa_1_1Engine_1_1System.html" target="_top" xlink:title="Systems are responsible of updating a specific subset of the components of each entity. ">
<polygon fill="white" stroke="black" points="95,-1434.5 95,-1568.5 252,-1568.5 252,-1434.5 95,-1434.5"/>
<text text-anchor="middle" x="173.5" y="-1556.5" font-family="Helvetica,sans-Serif" font-size="10.00">Ra::Engine::System</text>
<polyline fill="none" stroke="black" points="95,-1549.5 252,-1549.5 "/>
<text text-anchor="middle" x="173.5" y="-1537.5" font-family="Helvetica,sans-Serif" font-size="10.00"> </text>
<polyline fill="none" stroke="black" points="95,-1530.5 252,-1530.5 "/>
<text text-anchor="start" x="103" y="-1518.5" font-family="Helvetica,sans-Serif" font-size="10.00">+ System()</text>
<text text-anchor="start" x="103" y="-1507.5" font-family="Helvetica,sans-Serif" font-size="10.00">+ ~System()</text>
<text text-anchor="start" x="103" y="-1496.5" font-family="Helvetica,sans-Serif" font-size="10.00">+ handleAssetLoading()</text>
<text text-anchor="start" x="103" y="-1485.5" font-family="Helvetica,sans-Serif" font-size="10.00">+ generateTasks()</text>
<text text-anchor="start" x="103" y="-1474.5" font-family="Helvetica,sans-Serif" font-size="10.00">+ getEntityComponents()</text>
<text text-anchor="start" x="103" y="-1463.5" font-family="Helvetica,sans-Serif" font-size="10.00"># registerComponent()</text>
<text text-anchor="start" x="103" y="-1452.5" font-family="Helvetica,sans-Serif" font-size="10.00"># unregisterComponent()</text>
<text text-anchor="start" x="103" y="-1441.5" font-family="Helvetica,sans-Serif" font-size="10.00"># unregisterAllComponents()</text>
</a>
</g>
</g>
<!-- Node7&#45;&gt;Node2 -->
<g id="edge6" class="edge"><title>Node7&#45;&gt;Node2</title>
<path fill="none" stroke="#404040" d="M162.171,-1434.47C145.254,-1314.46 126.247,-1057.1 237.5,-885 267.327,-838.859 319.986,-807.295 366.419,-786.999"/>
<polygon fill="none" stroke="#404040" points="366.708,-786.877 370.678,-780.857 377.762,-782.206 373.792,-788.226 366.708,-786.877"/>
<text text-anchor="middle" x="268.5" y="-1120.5" font-family="Helvetica,sans-Serif" font-size="10.00"> #m_system</text>
</g>
<!-- Node8&#45;&gt;Node7 -->
<g id="edge7" class="edge"><title>Node8&#45;&gt;Node7</title>
<path fill="none" stroke="#404040" d="M147.829,-1687.99C151.904,-1658.55 157.658,-1616.97 162.686,-1580.64"/>
<polygon fill="none" stroke="#404040" points="162.715,-1580.43 159.575,-1573.94 164.36,-1568.55 167.499,-1575.04 162.715,-1580.43"/>
<text text-anchor="middle" x="197" y="-1645" font-family="Helvetica,sans-Serif" font-size="10.00"> #m_components</text>
</g>
<!-- Node9 -->
<g id="node9" class="node"><title>Node9</title>
<polygon fill="white" stroke="#bfbfbf" points="0,-2002 0,-2081 125,-2081 125,-2002 0,-2002"/>
<text text-anchor="start" x="8" y="-2069" font-family="Helvetica,sans-Serif" font-size="10.00">pair&lt; const Ra::Engine</text>
<text text-anchor="start" x="8" y="-2058" font-family="Helvetica,sans-Serif" font-size="10.00">::Entity *, Ra::Engine</text>
<text text-anchor="middle" x="62.5" y="-2047" font-family="Helvetica,sans-Serif" font-size="10.00">::Component * &gt;</text>
<polyline fill="none" stroke="#bfbfbf" points="0,-2040 125,-2040 "/>
<text text-anchor="middle" x="62.5" y="-2028" font-family="Helvetica,sans-Serif" font-size="10.00"> </text>
<polyline fill="none" stroke="#bfbfbf" points="0,-2021 125,-2021 "/>
<text text-anchor="middle" x="62.5" y="-2009" font-family="Helvetica,sans-Serif" font-size="10.00"> </text>
</g>
<!-- Node9&#45;&gt;Node8 -->
<g id="edge8" class="edge"><title>Node9&#45;&gt;Node8</title>
<path fill="none" stroke="#404040" d="M53.6038,-2001.81C44.3525,-1952.97 34.8441,-1867.43 63.5,-1802 67.6055,-1792.63 73.5558,-1783.91 80.3768,-1775.99"/>
<polygon fill="none" stroke="#404040" points="80.5246,-1775.83 81.7049,-1768.72 88.7255,-1767.07 87.5452,-1774.18 80.5246,-1775.83"/>
<text text-anchor="middle" x="92" y="-1816" font-family="Helvetica,sans-Serif" font-size="10.00"> +elements</text>
</g>
<!-- Node10 -->
<g id="node10" class="node"><title>Node10</title>
<g id="a_node10"><a xlink:href="classRa_1_1Engine_1_1Entity.html" target="_top" xlink:title="An entity is an scene element. It ties together components with a transform. ">
<polygon fill="white" stroke="black" points="509.5,-1379.5 509.5,-1623.5 649.5,-1623.5 649.5,-1379.5 509.5,-1379.5"/>
<text text-anchor="middle" x="579.5" y="-1611.5" font-family="Helvetica,sans-Serif" font-size="10.00">Ra::Engine::Entity</text>
<polyline fill="none" stroke="black" points="509.5,-1604.5 649.5,-1604.5 "/>
<text text-anchor="middle" x="579.5" y="-1592.5" font-family="Helvetica,sans-Serif" font-size="10.00"> </text>
<polyline fill="none" stroke="black" points="509.5,-1585.5 649.5,-1585.5 "/>
<text text-anchor="start" x="517.5" y="-1573.5" font-family="Helvetica,sans-Serif" font-size="10.00">+ Entity()</text>
<text text-anchor="start" x="517.5" y="-1562.5" font-family="Helvetica,sans-Serif" font-size="10.00">+ Entity()</text>
<text text-anchor="start" x="517.5" y="-1551.5" font-family="Helvetica,sans-Serif" font-size="10.00">+ operator=()</text>
<text text-anchor="start" x="517.5" y="-1540.5" font-family="Helvetica,sans-Serif" font-size="10.00">+ ~Entity()</text>
<text text-anchor="start" x="517.5" y="-1529.5" font-family="Helvetica,sans-Serif" font-size="10.00">+ getName()</text>
<text text-anchor="start" x="517.5" y="-1518.5" font-family="Helvetica,sans-Serif" font-size="10.00">+ rename()</text>
<text text-anchor="start" x="517.5" y="-1507.5" font-family="Helvetica,sans-Serif" font-size="10.00">+ setTransform()</text>
<text text-anchor="start" x="517.5" y="-1496.5" font-family="Helvetica,sans-Serif" font-size="10.00">+ setTransform()</text>
<text text-anchor="start" x="517.5" y="-1485.5" font-family="Helvetica,sans-Serif" font-size="10.00">+ getTransform()</text>
<text text-anchor="start" x="517.5" y="-1474.5" font-family="Helvetica,sans-Serif" font-size="10.00">+ getTransformAsMatrix()</text>
<text text-anchor="start" x="517.5" y="-1463.5" font-family="Helvetica,sans-Serif" font-size="10.00">+ swapTransformBuffers()</text>
<text text-anchor="start" x="517.5" y="-1452.5" font-family="Helvetica,sans-Serif" font-size="10.00">+ addComponent()</text>
<text text-anchor="start" x="517.5" y="-1441.5" font-family="Helvetica,sans-Serif" font-size="10.00">+ removeComponent()</text>
<text text-anchor="start" x="517.5" y="-1430.5" font-family="Helvetica,sans-Serif" font-size="10.00">+ getComponent()</text>
<text text-anchor="start" x="517.5" y="-1419.5" font-family="Helvetica,sans-Serif" font-size="10.00">+ getComponent()</text>
<text text-anchor="start" x="517.5" y="-1408.5" font-family="Helvetica,sans-Serif" font-size="10.00">+ getComponents()</text>
<text text-anchor="start" x="517.5" y="-1397.5" font-family="Helvetica,sans-Serif" font-size="10.00">+ getNumComponents()</text>
<text text-anchor="start" x="517.5" y="-1386.5" font-family="Helvetica,sans-Serif" font-size="10.00">+ computeAabb()</text>
</a>
</g>
</g>
<!-- Node10&#45;&gt;Node2 -->
<g id="edge10" class="edge"><title>Node10&#45;&gt;Node2</title>
<path fill="none" stroke="#404040" d="M536.388,-1379.31C534.919,-1373.16 533.606,-1367.03 532.5,-1361 494.31,-1152.77 561.607,-1091.4 514.5,-885 514.004,-882.826 513.471,-880.643 512.906,-878.454"/>
<polygon fill="none" stroke="#404040" points="512.852,-878.262 507.37,-873.577 509.586,-866.715 515.068,-871.4 512.852,-878.262"/>
<text text-anchor="middle" x="559.5" y="-1120.5" font-family="Helvetica,sans-Serif" font-size="10.00"> #m_entity</text>
</g>
<!-- Node11 -->
<g id="node11" class="node"><title>Node11</title>
<g id="a_node11"><a xlink:href="classRa_1_1Core_1_1Utils_1_1IndexedObject.html" target="_top" xlink:title="{Ra::Core::Utils::Indexed\lObject\n||+ IndexedObject()\l+ IndexedObject()\l+ ~IndexedObject()\l+ setIndex()\l+ getIndex()\l}">
<polygon fill="white" stroke="black" points="570.5,-1671.5 570.5,-1783.5 698.5,-1783.5 698.5,-1671.5 570.5,-1671.5"/>
<text text-anchor="start" x="578.5" y="-1771.5" font-family="Helvetica,sans-Serif" font-size="10.00">Ra::Core::Utils::Indexed</text>
<text text-anchor="middle" x="634.5" y="-1760.5" font-family="Helvetica,sans-Serif" font-size="10.00">Object</text>
<polyline fill="none" stroke="black" points="570.5,-1753.5 698.5,-1753.5 "/>
<text text-anchor="middle" x="634.5" y="-1741.5" font-family="Helvetica,sans-Serif" font-size="10.00"> </text>
<polyline fill="none" stroke="black" points="570.5,-1734.5 698.5,-1734.5 "/>
<text text-anchor="start" x="578.5" y="-1722.5" font-family="Helvetica,sans-Serif" font-size="10.00">+ IndexedObject()</text>
<text text-anchor="start" x="578.5" y="-1711.5" font-family="Helvetica,sans-Serif" font-size="10.00">+ IndexedObject()</text>
<text text-anchor="start" x="578.5" y="-1700.5" font-family="Helvetica,sans-Serif" font-size="10.00">+ ~IndexedObject()</text>
<text text-anchor="start" x="578.5" y="-1689.5" font-family="Helvetica,sans-Serif" font-size="10.00">+ setIndex()</text>
<text text-anchor="start" x="578.5" y="-1678.5" font-family="Helvetica,sans-Serif" font-size="10.00">+ getIndex()</text>
</a>
</g>
</g>
<!-- Node11&#45;&gt;Node10 -->
<g id="edge11" class="edge"><title>Node11&#45;&gt;Node10</title>
<path fill="none" stroke="midnightblue" d="M618.558,-1661.57C615.615,-1649.59 612.457,-1636.73 609.258,-1623.7"/>
<polygon fill="none" stroke="midnightblue" points="615.191,-1662.54 620.975,-1671.42 621.989,-1660.87 615.191,-1662.54"/>
</g>
<!-- Node17 -->
<g id="node17" class="node"><title>Node17</title>
<g id="a_node17"><a xlink:href="classRa_1_1Engine_1_1RenderObject.html" target="_top" xlink:title="{Ra::Engine::RenderObject\n||+ RenderObject()\l+ ~RenderObject()\l+ updateGL()\l+ getName()\l+ getComponent()\l+ getComponent()\l+ getType()\l+ setType()\l+ setVisible()\l+ toggleVisible()\l+ isVisible()\l+ setPickable()\l+ togglePickable()\l+ isPickable()\l+ setXRay()\l+ toggleXRay()\l+ isXRay()\l+ setTransparent()\l+ toggleTransparent()\l+ isTransparent()\l+ isDirty()\l+ setRenderTechnique()\l+ getRenderTechnique()\l+ getRenderTechnique()\l+ setMesh()\l+ getMesh()\l+ getMesh()\l+ getTransform()\l+ getTransformAsMatrix()\l+ computeAabb()\l+ setLocalTransform()\l+ setLocalTransform()\l+ getLocalTransform()\l+ getLocalTransformAsMatrix()\l+ hasBeenRenderedOnce()\l+ hasExpired()\l+ render()\l+ render()\l+ createRenderObject()\l}">
<polygon fill="white" stroke="black" points="595.5,-885.5 595.5,-1360.5 759.5,-1360.5 759.5,-885.5 595.5,-885.5"/>
<text text-anchor="middle" x="677.5" y="-1348.5" font-family="Helvetica,sans-Serif" font-size="10.00">Ra::Engine::RenderObject</text>
<polyline fill="none" stroke="black" points="595.5,-1341.5 759.5,-1341.5 "/>
<text text-anchor="middle" x="677.5" y="-1329.5" font-family="Helvetica,sans-Serif" font-size="10.00"> </text>
<polyline fill="none" stroke="black" points="595.5,-1322.5 759.5,-1322.5 "/>
<text text-anchor="start" x="603.5" y="-1310.5" font-family="Helvetica,sans-Serif" font-size="10.00">+ RenderObject()</text>
<text text-anchor="start" x="603.5" y="-1299.5" font-family="Helvetica,sans-Serif" font-size="10.00">+ ~RenderObject()</text>
<text text-anchor="start" x="603.5" y="-1288.5" font-family="Helvetica,sans-Serif" font-size="10.00">+ updateGL()</text>
<text text-anchor="start" x="603.5" y="-1277.5" font-family="Helvetica,sans-Serif" font-size="10.00">+ getName()</text>
<text text-anchor="start" x="603.5" y="-1266.5" font-family="Helvetica,sans-Serif" font-size="10.00">+ getComponent()</text>
<text text-anchor="start" x="603.5" y="-1255.5" font-family="Helvetica,sans-Serif" font-size="10.00">+ getComponent()</text>
<text text-anchor="start" x="603.5" y="-1244.5" font-family="Helvetica,sans-Serif" font-size="10.00">+ getType()</text>
<text text-anchor="start" x="603.5" y="-1233.5" font-family="Helvetica,sans-Serif" font-size="10.00">+ setType()</text>
<text text-anchor="start" x="603.5" y="-1222.5" font-family="Helvetica,sans-Serif" font-size="10.00">+ setVisible()</text>
<text text-anchor="start" x="603.5" y="-1211.5" font-family="Helvetica,sans-Serif" font-size="10.00">+ toggleVisible()</text>
<text text-anchor="start" x="603.5" y="-1200.5" font-family="Helvetica,sans-Serif" font-size="10.00">+ isVisible()</text>
<text text-anchor="start" x="603.5" y="-1189.5" font-family="Helvetica,sans-Serif" font-size="10.00">+ setPickable()</text>
<text text-anchor="start" x="603.5" y="-1178.5" font-family="Helvetica,sans-Serif" font-size="10.00">+ togglePickable()</text>
<text text-anchor="start" x="603.5" y="-1167.5" font-family="Helvetica,sans-Serif" font-size="10.00">+ isPickable()</text>
<text text-anchor="start" x="603.5" y="-1156.5" font-family="Helvetica,sans-Serif" font-size="10.00">+ setXRay()</text>
<text text-anchor="start" x="603.5" y="-1145.5" font-family="Helvetica,sans-Serif" font-size="10.00">+ toggleXRay()</text>
<text text-anchor="start" x="603.5" y="-1134.5" font-family="Helvetica,sans-Serif" font-size="10.00">+ isXRay()</text>
<text text-anchor="start" x="603.5" y="-1123.5" font-family="Helvetica,sans-Serif" font-size="10.00">+ setTransparent()</text>
<text text-anchor="start" x="603.5" y="-1112.5" font-family="Helvetica,sans-Serif" font-size="10.00">+ toggleTransparent()</text>
<text text-anchor="start" x="603.5" y="-1101.5" font-family="Helvetica,sans-Serif" font-size="10.00">+ isTransparent()</text>
<text text-anchor="start" x="603.5" y="-1090.5" font-family="Helvetica,sans-Serif" font-size="10.00">+ isDirty()</text>
<text text-anchor="start" x="603.5" y="-1079.5" font-family="Helvetica,sans-Serif" font-size="10.00">+ setRenderTechnique()</text>
<text text-anchor="start" x="603.5" y="-1068.5" font-family="Helvetica,sans-Serif" font-size="10.00">+ getRenderTechnique()</text>
<text text-anchor="start" x="603.5" y="-1057.5" font-family="Helvetica,sans-Serif" font-size="10.00">+ getRenderTechnique()</text>
<text text-anchor="start" x="603.5" y="-1046.5" font-family="Helvetica,sans-Serif" font-size="10.00">+ setMesh()</text>
<text text-anchor="start" x="603.5" y="-1035.5" font-family="Helvetica,sans-Serif" font-size="10.00">+ getMesh()</text>
<text text-anchor="start" x="603.5" y="-1024.5" font-family="Helvetica,sans-Serif" font-size="10.00">+ getMesh()</text>
<text text-anchor="start" x="603.5" y="-1013.5" font-family="Helvetica,sans-Serif" font-size="10.00">+ getTransform()</text>
<text text-anchor="start" x="603.5" y="-1002.5" font-family="Helvetica,sans-Serif" font-size="10.00">+ getTransformAsMatrix()</text>
<text text-anchor="start" x="603.5" y="-991.5" font-family="Helvetica,sans-Serif" font-size="10.00">+ computeAabb()</text>
<text text-anchor="start" x="603.5" y="-980.5" font-family="Helvetica,sans-Serif" font-size="10.00">+ setLocalTransform()</text>
<text text-anchor="start" x="603.5" y="-969.5" font-family="Helvetica,sans-Serif" font-size="10.00">+ setLocalTransform()</text>
<text text-anchor="start" x="603.5" y="-958.5" font-family="Helvetica,sans-Serif" font-size="10.00">+ getLocalTransform()</text>
<text text-anchor="start" x="603.5" y="-947.5" font-family="Helvetica,sans-Serif" font-size="10.00">+ getLocalTransformAsMatrix()</text>
<text text-anchor="start" x="603.5" y="-936.5" font-family="Helvetica,sans-Serif" font-size="10.00">+ hasBeenRenderedOnce()</text>
<text text-anchor="start" x="603.5" y="-925.5" font-family="Helvetica,sans-Serif" font-size="10.00">+ hasExpired()</text>
<text text-anchor="start" x="603.5" y="-914.5" font-family="Helvetica,sans-Serif" font-size="10.00">+ render()</text>
<text text-anchor="start" x="603.5" y="-903.5" font-family="Helvetica,sans-Serif" font-size="10.00">+ render()</text>
<text text-anchor="start" x="603.5" y="-892.5" font-family="Helvetica,sans-Serif" font-size="10.00">+ createRenderObject()</text>
</a>
</g>
</g>
<!-- Node11&#45;&gt;Node17 -->
<g id="edge18" class="edge"><title>Node11&#45;&gt;Node17</title>
<path fill="none" stroke="midnightblue" d="M651.698,-1661.49C654.407,-1649.12 656.853,-1636.22 658.5,-1624 670.018,-1538.56 675.461,-1444.21 677.808,-1360.71"/>
<polygon fill="none" stroke="midnightblue" points="648.277,-1660.74 649.479,-1671.27 655.104,-1662.29 648.277,-1660.74"/>
</g>
<!-- Node12 -->
<g id="node12" class="node"><title>Node12</title>
<g id="a_node12"><a xlink:href="classRa_1_1Core_1_1Utils_1_1Index.html" target="_top" xlink:title="{Ra::Core::Utils::Index\n||+ Index()\l+ Index()\l+ operator=()\l+ isValid()\l+ isInvalid()\l+ setInvalid()\l+ getValue()\l+ setValue()\l+ operator int()\l+ operator=()\l+ operator++()\l+ operator&#45;&#45;()\l+ operator+()\l+ operator+()\l+ operator&#45;()\l+ operator&#45;()\l+ operator==()\l+ operator==()\l+ operator!=()\l+ operator!=()\l+ operator\&lt;()\l+ operator\&lt;()\l+ operator\&lt;=()\l+ operator\&lt;=()\l+ operator\&gt;()\l+ operator\&gt;()\l+ operator\&gt;=()\l+ operator\&gt;=()\l+ Invalid()\l+ Max()\l}">
<polygon fill="white" stroke="black" points="576.5,-1853.5 576.5,-2229.5 692.5,-2229.5 692.5,-1853.5 576.5,-1853.5"/>
<text text-anchor="middle" x="634.5" y="-2217.5" font-family="Helvetica,sans-Serif" font-size="10.00">Ra::Core::Utils::Index</text>
<polyline fill="none" stroke="black" points="576.5,-2210.5 692.5,-2210.5 "/>
<text text-anchor="middle" x="634.5" y="-2198.5" font-family="Helvetica,sans-Serif" font-size="10.00"> </text>
<polyline fill="none" stroke="black" points="576.5,-2191.5 692.5,-2191.5 "/>
<text text-anchor="start" x="584.5" y="-2179.5" font-family="Helvetica,sans-Serif" font-size="10.00">+ Index()</text>
<text text-anchor="start" x="584.5" y="-2168.5" font-family="Helvetica,sans-Serif" font-size="10.00">+ Index()</text>
<text text-anchor="start" x="584.5" y="-2157.5" font-family="Helvetica,sans-Serif" font-size="10.00">+ operator=()</text>
<text text-anchor="start" x="584.5" y="-2146.5" font-family="Helvetica,sans-Serif" font-size="10.00">+ isValid()</text>
<text text-anchor="start" x="584.5" y="-2135.5" font-family="Helvetica,sans-Serif" font-size="10.00">+ isInvalid()</text>
<text text-anchor="start" x="584.5" y="-2124.5" font-family="Helvetica,sans-Serif" font-size="10.00">+ setInvalid()</text>
<text text-anchor="start" x="584.5" y="-2113.5" font-family="Helvetica,sans-Serif" font-size="10.00">+ getValue()</text>
<text text-anchor="start" x="584.5" y="-2102.5" font-family="Helvetica,sans-Serif" font-size="10.00">+ setValue()</text>
<text text-anchor="start" x="584.5" y="-2091.5" font-family="Helvetica,sans-Serif" font-size="10.00">+ operator int()</text>
<text text-anchor="start" x="584.5" y="-2080.5" font-family="Helvetica,sans-Serif" font-size="10.00">+ operator=()</text>
<text text-anchor="start" x="584.5" y="-2069.5" font-family="Helvetica,sans-Serif" font-size="10.00">+ operator++()</text>
<text text-anchor="start" x="584.5" y="-2058.5" font-family="Helvetica,sans-Serif" font-size="10.00">+ operator&#45;&#45;()</text>
<text text-anchor="start" x="584.5" y="-2047.5" font-family="Helvetica,sans-Serif" font-size="10.00">+ operator+()</text>
<text text-anchor="start" x="584.5" y="-2036.5" font-family="Helvetica,sans-Serif" font-size="10.00">+ operator+()</text>
<text text-anchor="start" x="584.5" y="-2025.5" font-family="Helvetica,sans-Serif" font-size="10.00">+ operator&#45;()</text>
<text text-anchor="start" x="584.5" y="-2014.5" font-family="Helvetica,sans-Serif" font-size="10.00">+ operator&#45;()</text>
<text text-anchor="start" x="584.5" y="-2003.5" font-family="Helvetica,sans-Serif" font-size="10.00">+ operator==()</text>
<text text-anchor="start" x="584.5" y="-1992.5" font-family="Helvetica,sans-Serif" font-size="10.00">+ operator==()</text>
<text text-anchor="start" x="584.5" y="-1981.5" font-family="Helvetica,sans-Serif" font-size="10.00">+ operator!=()</text>
<text text-anchor="start" x="584.5" y="-1970.5" font-family="Helvetica,sans-Serif" font-size="10.00">+ operator!=()</text>
<text text-anchor="start" x="584.5" y="-1959.5" font-family="Helvetica,sans-Serif" font-size="10.00">+ operator&lt;()</text>
<text text-anchor="start" x="584.5" y="-1948.5" font-family="Helvetica,sans-Serif" font-size="10.00">+ operator&lt;()</text>
<text text-anchor="start" x="584.5" y="-1937.5" font-family="Helvetica,sans-Serif" font-size="10.00">+ operator&lt;=()</text>
<text text-anchor="start" x="584.5" y="-1926.5" font-family="Helvetica,sans-Serif" font-size="10.00">+ operator&lt;=()</text>
<text text-anchor="start" x="584.5" y="-1915.5" font-family="Helvetica,sans-Serif" font-size="10.00">+ operator&gt;()</text>
<text text-anchor="start" x="584.5" y="-1904.5" font-family="Helvetica,sans-Serif" font-size="10.00">+ operator&gt;()</text>
<text text-anchor="start" x="584.5" y="-1893.5" font-family="Helvetica,sans-Serif" font-size="10.00">+ operator&gt;=()</text>
<text text-anchor="start" x="584.5" y="-1882.5" font-family="Helvetica,sans-Serif" font-size="10.00">+ operator&gt;=()</text>
<text text-anchor="start" x="584.5" y="-1871.5" font-family="Helvetica,sans-Serif" font-size="10.00">+ Invalid()</text>
<text text-anchor="start" x="584.5" y="-1860.5" font-family="Helvetica,sans-Serif" font-size="10.00">+ Max()</text>
</a>
</g>
</g>
<!-- Node12&#45;&gt;Node11 -->
<g id="edge12" class="edge"><title>Node12&#45;&gt;Node11</title>
<path fill="none" stroke="#404040" d="M634.5,-1853.16C634.5,-1832.85 634.5,-1813.28 634.5,-1795.9"/>
<polygon fill="none" stroke="#404040" points="634.5,-1795.66 630.5,-1789.66 634.5,-1783.66 638.5,-1789.66 634.5,-1795.66"/>
<text text-anchor="middle" x="654.5" y="-1816" font-family="Helvetica,sans-Serif" font-size="10.00"> #m_idx</text>
</g>
<!-- Node13 -->
<g id="node13" class="node"><title>Node13</title>
<g id="a_node13"><a xlink:href="classint.html" target="_top" xlink:title="{int\n||}">
<polygon fill="white" stroke="black" points="620,-2277.5 620,-2334.5 649,-2334.5 649,-2277.5 620,-2277.5"/>
<text text-anchor="middle" x="634.5" y="-2322.5" font-family="Helvetica,sans-Serif" font-size="10.00">int</text>
<polyline fill="none" stroke="black" points="620,-2315.5 649,-2315.5 "/>
<text text-anchor="middle" x="634.5" y="-2303.5" font-family="Helvetica,sans-Serif" font-size="10.00"> </text>
<polyline fill="none" stroke="black" points="620,-2296.5 649,-2296.5 "/>
<text text-anchor="middle" x="634.5" y="-2284.5" font-family="Helvetica,sans-Serif" font-size="10.00"> </text>
</a>
</g>
</g>
<!-- Node13&#45;&gt;Node12 -->
<g id="edge13" class="edge"><title>Node13&#45;&gt;Node12</title>
<path fill="none" stroke="#404040" d="M634.5,-2277.4C634.5,-2267.43 634.5,-2255.26 634.5,-2241.76"/>
<polygon fill="none" stroke="#404040" points="634.5,-2241.58 630.5,-2235.58 634.5,-2229.58 638.5,-2235.58 634.5,-2241.58"/>
<text text-anchor="middle" x="654.5" y="-2251" font-family="Helvetica,sans-Serif" font-size="10.00"> #m_idx</text>
</g>
<!-- Node14 -->
<g id="node14" class="node"><title>Node14</title>
<g id="a_node14"><a xlink:title="STL class. ">
<polygon fill="white" stroke="#bfbfbf" points="426,-1473 426,-1530 491,-1530 491,-1473 426,-1473"/>
<text text-anchor="middle" x="458.5" y="-1518" font-family="Helvetica,sans-Serif" font-size="10.00">std::string</text>
<polyline fill="none" stroke="#bfbfbf" points="426,-1511 491,-1511 "/>
<text text-anchor="middle" x="458.5" y="-1499" font-family="Helvetica,sans-Serif" font-size="10.00"> </text>
<polyline fill="none" stroke="#bfbfbf" points="426,-1492 491,-1492 "/>
<text text-anchor="middle" x="458.5" y="-1480" font-family="Helvetica,sans-Serif" font-size="10.00"> </text>
</a>
</g>
</g>
<!-- Node14&#45;&gt;Node2 -->
<g id="edge14" class="edge"><title>Node14&#45;&gt;Node2</title>
<path fill="none" stroke="#404040" d="M458.5,-1472.69C458.5,-1376.89 458.5,-1056.68 458.5,-878.601"/>
<polygon fill="none" stroke="#404040" points="458.5,-878.556 454.5,-872.556 458.5,-866.556 462.5,-872.556 458.5,-878.556"/>
<text text-anchor="middle" x="486" y="-1120.5" font-family="Helvetica,sans-Serif" font-size="10.00"> #m_name</text>
</g>
<!-- Node15 -->
<g id="node15" class="node"><title>Node15</title>
<g id="a_node15"><a xlink:title="STL class. ">
<polygon fill="white" stroke="#bfbfbf" points="407,-1693.5 407,-1761.5 510,-1761.5 510,-1693.5 407,-1693.5"/>
<text text-anchor="start" x="415" y="-1749.5" font-family="Helvetica,sans-Serif" font-size="10.00">std::basic_string&lt;</text>
<text text-anchor="middle" x="458.5" y="-1738.5" font-family="Helvetica,sans-Serif" font-size="10.00"> char &gt;</text>
<polyline fill="none" stroke="#bfbfbf" points="407,-1731.5 510,-1731.5 "/>
<text text-anchor="middle" x="458.5" y="-1719.5" font-family="Helvetica,sans-Serif" font-size="10.00"> </text>
<polyline fill="none" stroke="#bfbfbf" points="407,-1712.5 510,-1712.5 "/>
<text text-anchor="middle" x="458.5" y="-1700.5" font-family="Helvetica,sans-Serif" font-size="10.00"> </text>
</a>
</g>
</g>
<!-- Node15&#45;&gt;Node14 -->
<g id="edge15" class="edge"><title>Node15&#45;&gt;Node14</title>
<path fill="none" stroke="midnightblue" d="M458.5,-1683.35C458.5,-1638.09 458.5,-1568.34 458.5,-1530.04"/>
<polygon fill="none" stroke="midnightblue" points="455,-1683.45 458.5,-1693.45 462,-1683.45 455,-1683.45"/>
</g>
<!-- Node16 -->
<g id="node16" class="node"><title>Node16</title>
<polygon fill="white" stroke="#bfbfbf" points="684.5,-727 684.5,-784 722.5,-784 722.5,-727 684.5,-727"/>
<text text-anchor="middle" x="703.5" y="-772" font-family="Helvetica,sans-Serif" font-size="10.00">float</text>
<polyline fill="none" stroke="#bfbfbf" points="684.5,-765 722.5,-765 "/>
<text text-anchor="middle" x="703.5" y="-753" font-family="Helvetica,sans-Serif" font-size="10.00"> </text>
<polyline fill="none" stroke="#bfbfbf" points="684.5,-746 722.5,-746 "/>
<text text-anchor="middle" x="703.5" y="-734" font-family="Helvetica,sans-Serif" font-size="10.00"> </text>
</g>
<!-- Node16&#45;&gt;Node1 -->
<g id="edge16" class="edge"><title>Node16&#45;&gt;Node1</title>
<path fill="none" stroke="#404040" d="M702.947,-726.928C702.454,-700.909 701.771,-660.805 701.5,-626 701.234,-591.779 698.506,-583.091 701.5,-549 701.683,-546.911 701.874,-544.814 702.073,-542.71"/>
<polygon fill="none" stroke="#404040" points="702.09,-542.531 698.707,-536.163 703.284,-530.591 706.667,-536.959 702.09,-542.531"/>
<text text-anchor="middle" x="741.5" y="-618" font-family="Helvetica,sans-Serif" font-size="10.00"> #m_zNear</text>
<text text-anchor="middle" x="741.5" y="-607" font-family="Helvetica,sans-Serif" font-size="10.00">#m_zFar</text>
<text text-anchor="middle" x="741.5" y="-596" font-family="Helvetica,sans-Serif" font-size="10.00">#m_fov</text>
<text text-anchor="middle" x="741.5" y="-585" font-family="Helvetica,sans-Serif" font-size="10.00">#m_zoomFactor</text>
<text text-anchor="middle" x="741.5" y="-574" font-family="Helvetica,sans-Serif" font-size="10.00">#m_height</text>
<text text-anchor="middle" x="741.5" y="-563" font-family="Helvetica,sans-Serif" font-size="10.00">#m_width</text>
<text text-anchor="middle" x="741.5" y="-552" font-family="Helvetica,sans-Serif" font-size="10.00">#m_aspect</text>
</g>
<!-- Node17&#45;&gt;Node1 -->
<g id="edge17" class="edge"><title>Node17&#45;&gt;Node1</title>
<path fill="none" stroke="#404040" d="M637.167,-885.304C636.552,-879.146 635.994,-873.037 635.5,-867 627.42,-768.219 620.781,-742.012 635.5,-644 645.445,-577.777 664.687,-507.136 684.684,-445.087"/>
<polygon fill="none" stroke="#404040" points="684.708,-445.014 682.763,-438.07 688.424,-433.604 690.369,-440.548 684.708,-445.014"/>
<text text-anchor="middle" x="655.5" y="-753" font-family="Helvetica,sans-Serif" font-size="10.00"> #m_RO</text>
</g>
<!-- Node18 -->
<g id="node18" class="node"><title>Node18</title>
<polygon fill="white" stroke="#bfbfbf" points="746.5,-721.5 746.5,-789.5 854.5,-789.5 854.5,-721.5 746.5,-721.5"/>
<text text-anchor="start" x="754.5" y="-777.5" font-family="Helvetica,sans-Serif" font-size="10.00">Transform&lt; Scalar,</text>
<text text-anchor="middle" x="800.5" y="-766.5" font-family="Helvetica,sans-Serif" font-size="10.00"> 3, Eigen::Affine &gt;</text>
<polyline fill="none" stroke="#bfbfbf" points="746.5,-759.5 854.5,-759.5 "/>
<text text-anchor="middle" x="800.5" y="-747.5" font-family="Helvetica,sans-Serif" font-size="10.00"> </text>
<polyline fill="none" stroke="#bfbfbf" points="746.5,-740.5 854.5,-740.5 "/>
<text text-anchor="middle" x="800.5" y="-728.5" font-family="Helvetica,sans-Serif" font-size="10.00"> </text>
</g>
<!-- Node18&#45;&gt;Node1 -->
<g id="edge19" class="edge"><title>Node18&#45;&gt;Node1</title>
<path fill="none" stroke="#404040" d="M797.578,-721.386C793.961,-680.761 787.538,-609.79 781.5,-549 781.295,-546.933 781.088,-544.858 780.88,-542.775"/>
<polygon fill="none" stroke="#404040" points="780.874,-542.71 776.295,-537.139 779.676,-530.77 784.255,-536.34 780.874,-542.71"/>
<text text-anchor="middle" x="817" y="-585" font-family="Helvetica,sans-Serif" font-size="10.00"> #m_frame</text>
</g>
<!-- Node19 -->
<g id="node19" class="node"><title>Node19</title>
<polygon fill="white" stroke="#bfbfbf" points="872.5,-727 872.5,-784 994.5,-784 994.5,-727 872.5,-727"/>
<text text-anchor="middle" x="933.5" y="-772" font-family="Helvetica,sans-Serif" font-size="10.00">Matrix&lt; Scalar, 4, 4 &gt;</text>
<polyline fill="none" stroke="#bfbfbf" points="872.5,-765 994.5,-765 "/>
<text text-anchor="middle" x="933.5" y="-753" font-family="Helvetica,sans-Serif" font-size="10.00"> </text>
<polyline fill="none" stroke="#bfbfbf" points="872.5,-746 994.5,-746 "/>
<text text-anchor="middle" x="933.5" y="-734" font-family="Helvetica,sans-Serif" font-size="10.00"> </text>
</g>
<!-- Node19&#45;&gt;Node1 -->
<g id="edge20" class="edge"><title>Node19&#45;&gt;Node1</title>
<path fill="none" stroke="#404040" d="M923.193,-726.865C903.241,-673.367 857.859,-551.682 818.762,-446.85"/>
<polygon fill="none" stroke="#404040" points="818.708,-446.705 812.863,-442.481 814.514,-435.462 820.359,-439.686 818.708,-446.705"/>
<text text-anchor="middle" x="922.5" y="-585" font-family="Helvetica,sans-Serif" font-size="10.00"> #m_projMatrix</text>
</g>
<!-- Node20 -->
<g id="node20" class="node"><title>Node20</title>
<polygon fill="white" stroke="#bfbfbf" points="1012.5,-727 1012.5,-784 1068.5,-784 1068.5,-727 1012.5,-727"/>
<text text-anchor="middle" x="1040.5" y="-772" font-family="Helvetica,sans-Serif" font-size="10.00">ProjType</text>
<polyline fill="none" stroke="#bfbfbf" points="1012.5,-765 1068.5,-765 "/>
<text text-anchor="middle" x="1040.5" y="-753" font-family="Helvetica,sans-Serif" font-size="10.00"> </text>
<polyline fill="none" stroke="#bfbfbf" points="1012.5,-746 1068.5,-746 "/>
<text text-anchor="middle" x="1040.5" y="-734" font-family="Helvetica,sans-Serif" font-size="10.00"> </text>
</g>
<!-- Node20&#45;&gt;Node1 -->
<g id="edge21" class="edge"><title>Node20&#45;&gt;Node1</title>
<path fill="none" stroke="#404040" d="M1031.8,-726.594C1024.64,-704.129 1014,-671.824 1003.5,-644 987.327,-601.138 986.309,-588.73 963.5,-549 922.675,-477.888 866.656,-403.987 822.455,-349.614"/>
<polygon fill="none" stroke="#404040" points="822.221,-349.327 815.327,-347.213 814.627,-340.036 821.521,-342.15 822.221,-349.327"/>
<text text-anchor="middle" x="1030.5" y="-585" font-family="Helvetica,sans-Serif" font-size="10.00"> #m_projType</text>
</g>
</g>
</svg>
