<?xml version="1.0" encoding="UTF-8" standalone="no"?>
<!DOCTYPE svg PUBLIC "-//W3C//DTD SVG 1.1//EN"
 "http://www.w3.org/Graphics/SVG/1.1/DTD/svg11.dtd">
<!-- Generated by graphviz version 2.38.0 (20140413.2041)
 -->
<!-- Title: Ra::Engine::TriangleMeshComponent::initialize Pages: 1 -->
<svg width="700pt" height="1548pt"
 viewBox="0.00 0.00 700.00 1548.00" xmlns="http://www.w3.org/2000/svg" xmlns:xlink="http://www.w3.org/1999/xlink">
<g id="graph0" class="graph" transform="scale(1 1) rotate(0) translate(4 1544)">
<title>Ra::Engine::TriangleMeshComponent::initialize</title>
<polygon fill="white" stroke="none" points="-4,4 -4,-1544 696,-1544 696,4 -4,4"/>
<!-- Node1 -->
<g id="node1" class="node"><title>Node1</title>
<polygon fill="#bfbfbf" stroke="black" points="0,-749.5 0,-779.5 134,-779.5 134,-749.5 0,-749.5"/>
<text text-anchor="start" x="8" y="-767.5" font-family="Helvetica,sans-Serif" font-size="10.00">Ra::Engine::TriangleMesh</text>
<text text-anchor="middle" x="67" y="-756.5" font-family="Helvetica,sans-Serif" font-size="10.00">Component::initialize</text>
</g>
<!-- Node2 -->
<g id="node2" class="node"><title>Node2</title>
<g id="a_node2"><a xlink:href="classRa_1_1Core_1_1Asset_1_1AssetData.html#a3f4a6e18b60f2de4a23c8898a7341d21" target="_top" xlink:title="Acces to the name of the asset. ">
<polygon fill="white" stroke="black" points="185,-1509.5 185,-1539.5 331,-1539.5 331,-1509.5 185,-1509.5"/>
<text text-anchor="start" x="193" y="-1527.5" font-family="Helvetica,sans-Serif" font-size="10.00">Ra::Core::Asset::AssetData</text>
<text text-anchor="middle" x="258" y="-1516.5" font-family="Helvetica,sans-Serif" font-size="10.00">::getName</text>
</a>
</g>
</g>
<!-- Node1&#45;&gt;Node2 -->
<g id="edge1" class="edge"><title>Node1&#45;&gt;Node2</title>
<path fill="none" stroke="midnightblue" d="M67.9207,-779.726C67.7349,-874.932 71.3676,-1387.97 170,-1500.5 171.985,-1502.76 174.162,-1504.82 176.491,-1506.7"/>
<polygon fill="midnightblue" stroke="midnightblue" points="174.687,-1509.7 184.94,-1512.37 178.59,-1503.89 174.687,-1509.7"/>
</g>
<!-- Node3 -->
<g id="node3" class="node"><title>Node3</title>
<g id="a_node3"><a xlink:href="classRa_1_1Core_1_1Asset_1_1GeometryData.html#a2e3e4ace10de6776f8e6eb0103bdf05b" target="_top" xlink:title="Return the Transform of the object. ">
<polygon fill="white" stroke="black" points="186,-1460.5 186,-1490.5 330,-1490.5 330,-1460.5 186,-1460.5"/>
<text text-anchor="start" x="194" y="-1478.5" font-family="Helvetica,sans-Serif" font-size="10.00">Ra::Core::Asset::Geometry</text>
<text text-anchor="middle" x="258" y="-1467.5" font-family="Helvetica,sans-Serif" font-size="10.00">Data::getFrame</text>
</a>
</g>
</g>
<!-- Node1&#45;&gt;Node3 -->
<g id="edge2" class="edge"><title>Node1&#45;&gt;Node3</title>
<path fill="none" stroke="midnightblue" d="M68.0848,-779.595C68.9024,-870.73 77.5975,-1347.1 170,-1451.5 172.233,-1454.02 174.704,-1456.29 177.358,-1458.33"/>
<polygon fill="midnightblue" stroke="midnightblue" points="175.512,-1461.3 185.813,-1463.78 179.306,-1455.42 175.512,-1461.3"/>
</g>
<!-- Node4 -->
<g id="node4" class="node"><title>Node4</title>
<g id="a_node4"><a xlink:href="classRa_1_1Core_1_1Asset_1_1GeometryData.html#a853558748a15cc6cb17180202e80591c" target="_top" xlink:title="Return the number of vertices. ">
<polygon fill="white" stroke="black" points="186,-1411.5 186,-1441.5 330,-1441.5 330,-1411.5 186,-1411.5"/>
<text text-anchor="start" x="194" y="-1429.5" font-family="Helvetica,sans-Serif" font-size="10.00">Ra::Core::Asset::Geometry</text>
<text text-anchor="middle" x="258" y="-1418.5" font-family="Helvetica,sans-Serif" font-size="10.00">Data::getVerticesSize</text>
</a>
</g>
</g>
<!-- Node1&#45;&gt;Node4 -->
<g id="edge3" class="edge"><title>Node1&#45;&gt;Node4</title>
<path fill="none" stroke="midnightblue" d="M68.2742,-779.646C70.1616,-867.035 83.8751,-1306.28 170,-1402.5 172.247,-1405.01 174.73,-1407.27 177.393,-1409.3"/>
<polygon fill="midnightblue" stroke="midnightblue" points="175.563,-1412.28 185.871,-1414.73 179.339,-1406.39 175.563,-1412.28"/>
</g>
<!-- Node5 -->
<g id="node5" class="node"><title>Node5</title>
<g id="a_node5"><a xlink:href="classRa_1_1Core_1_1Asset_1_1GeometryData.html#a72272b6e82f2ef8d55443b962df07344" target="_top" xlink:title="Return the list of vertices. ">
<polygon fill="white" stroke="black" points="186,-1362.5 186,-1392.5 330,-1392.5 330,-1362.5 186,-1362.5"/>
<text text-anchor="start" x="194" y="-1380.5" font-family="Helvetica,sans-Serif" font-size="10.00">Ra::Core::Asset::Geometry</text>
<text text-anchor="middle" x="258" y="-1369.5" font-family="Helvetica,sans-Serif" font-size="10.00">Data::getVertices</text>
</a>
</g>
</g>
<!-- Node1&#45;&gt;Node5 -->
<g id="edge4" class="edge"><title>Node1&#45;&gt;Node5</title>
<path fill="none" stroke="midnightblue" d="M68.4909,-779.563C71.5033,-862.745 90.0924,-1265.38 170,-1353.5 172.263,-1356 174.759,-1358.24 177.434,-1360.26"/>
<polygon fill="midnightblue" stroke="midnightblue" points="175.622,-1363.26 185.938,-1365.67 179.378,-1357.35 175.622,-1363.26"/>
</g>
<!-- Node6 -->
<g id="node6" class="node"><title>Node6</title>
<g id="a_node6"><a xlink:href="classRa_1_1Core_1_1Asset_1_1GeometryData.html#a03a070fa11189fb2c3af42869e5b0578" target="_top" xlink:title="Return true if the object has vertex normals. ">
<polygon fill="white" stroke="black" points="186,-1313.5 186,-1343.5 330,-1343.5 330,-1313.5 186,-1313.5"/>
<text text-anchor="start" x="194" y="-1331.5" font-family="Helvetica,sans-Serif" font-size="10.00">Ra::Core::Asset::Geometry</text>
<text text-anchor="middle" x="258" y="-1320.5" font-family="Helvetica,sans-Serif" font-size="10.00">Data::hasNormals</text>
</a>
</g>
</g>
<!-- Node1&#45;&gt;Node6 -->
<g id="edge5" class="edge"><title>Node1&#45;&gt;Node6</title>
<path fill="none" stroke="midnightblue" d="M68.7497,-779.595C72.9765,-858.662 96.3277,-1224.49 170,-1304.5 172.089,-1306.77 174.372,-1308.83 176.806,-1310.71"/>
<polygon fill="midnightblue" stroke="midnightblue" points="175.3,-1313.9 185.601,-1316.37 179.093,-1308.01 175.3,-1313.9"/>
</g>
<!-- Node7 -->
<g id="node7" class="node"><title>Node7</title>
<g id="a_node7"><a xlink:href="classRa_1_1Core_1_1Asset_1_1GeometryData.html#a73a3a087566bd60eea1c04e5626bda7f" target="_top" xlink:title="Return the list of vertex normals. ">
<polygon fill="white" stroke="black" points="186,-1264.5 186,-1294.5 330,-1294.5 330,-1264.5 186,-1264.5"/>
<text text-anchor="start" x="194" y="-1282.5" font-family="Helvetica,sans-Serif" font-size="10.00">Ra::Core::Asset::Geometry</text>
<text text-anchor="middle" x="258" y="-1271.5" font-family="Helvetica,sans-Serif" font-size="10.00">Data::getNormals</text>
</a>
</g>
</g>
<!-- Node1&#45;&gt;Node7 -->
<g id="edge6" class="edge"><title>Node1&#45;&gt;Node7</title>
<path fill="none" stroke="midnightblue" d="M69.0646,-779.692C74.6103,-854.563 102.559,-1183.57 170,-1255.5 172.11,-1257.75 174.41,-1259.8 176.858,-1261.66"/>
<polygon fill="midnightblue" stroke="midnightblue" points="175.379,-1264.86 185.693,-1267.29 179.143,-1258.96 175.379,-1264.86"/>
</g>
<!-- Node8 -->
<g id="node8" class="node"><title>Node8</title>
<g id="a_node8"><a xlink:href="classRa_1_1Core_1_1Asset_1_1GeometryData.html#a4683a5543ccaed63907eb19dd25b5a7e" target="_top" xlink:title="Return the list of faces. ">
<polygon fill="white" stroke="black" points="186,-1215.5 186,-1245.5 330,-1245.5 330,-1215.5 186,-1215.5"/>
<text text-anchor="start" x="194" y="-1233.5" font-family="Helvetica,sans-Serif" font-size="10.00">Ra::Core::Asset::Geometry</text>
<text text-anchor="middle" x="258" y="-1222.5" font-family="Helvetica,sans-Serif" font-size="10.00">Data::getFaces</text>
</a>
</g>
</g>
<!-- Node1&#45;&gt;Node8 -->
<g id="edge7" class="edge"><title>Node1&#45;&gt;Node8</title>
<path fill="none" stroke="midnightblue" d="M69.4279,-779.561C76.3598,-849.575 108.694,-1142.54 170,-1206.5 172.135,-1208.73 174.455,-1210.75 176.921,-1212.6"/>
<polygon fill="midnightblue" stroke="midnightblue" points="175.475,-1215.82 185.803,-1218.19 179.203,-1209.9 175.475,-1215.82"/>
</g>
<!-- Node9 -->
<g id="node9" class="node"><title>Node9</title>
<g id="a_node9"><a xlink:href="classRa_1_1Core_1_1Asset_1_1GeometryData.html#af277f6a3742105c2c1a690d230c387d2" target="_top" xlink:title="Return true if the object has vertex tangent vectors. ">
<polygon fill="white" stroke="black" points="186,-1166.5 186,-1196.5 330,-1196.5 330,-1166.5 186,-1166.5"/>
<text text-anchor="start" x="194" y="-1184.5" font-family="Helvetica,sans-Serif" font-size="10.00">Ra::Core::Asset::Geometry</text>
<text text-anchor="middle" x="258" y="-1173.5" font-family="Helvetica,sans-Serif" font-size="10.00">Data::hasTangents</text>
</a>
</g>
</g>
<!-- Node1&#45;&gt;Node9 -->
<g id="edge8" class="edge"><title>Node1&#45;&gt;Node9</title>
<path fill="none" stroke="midnightblue" d="M69.8985,-779.616C78.3833,-844.853 114.849,-1101.5 170,-1157.5 172.165,-1159.7 174.511,-1161.7 176.998,-1163.52"/>
<polygon fill="midnightblue" stroke="midnightblue" points="175.592,-1166.77 185.937,-1169.05 179.276,-1160.82 175.592,-1166.77"/>
</g>
<!-- Node10 -->
<g id="node10" class="node"><title>Node10</title>
<g id="a_node10"><a xlink:href="classRa_1_1Core_1_1Asset_1_1GeometryData.html#a748f0e0de9a8e7338adabf551e24852a" target="_top" xlink:title="Return the list of vertex tangent vectors. ">
<polygon fill="white" stroke="black" points="186,-1117.5 186,-1147.5 330,-1147.5 330,-1117.5 186,-1117.5"/>
<text text-anchor="start" x="194" y="-1135.5" font-family="Helvetica,sans-Serif" font-size="10.00">Ra::Core::Asset::Geometry</text>
<text text-anchor="middle" x="258" y="-1124.5" font-family="Helvetica,sans-Serif" font-size="10.00">Data::getTangents</text>
</a>
</g>
</g>
<!-- Node1&#45;&gt;Node10 -->
<g id="edge9" class="edge"><title>Node1&#45;&gt;Node10</title>
<path fill="none" stroke="midnightblue" d="M67.66,-779.796C67.3405,-833.32 73.7319,-1014.05 170,-1108.5 172.15,-1110.61 174.467,-1112.54 176.914,-1114.3"/>
<polygon fill="midnightblue" stroke="midnightblue" points="175.327,-1117.43 185.683,-1119.67 178.984,-1111.46 175.327,-1117.43"/>
</g>
<!-- Node11 -->
<g id="node11" class="node"><title>Node11</title>
<g id="a_node11"><a xlink:href="classRa_1_1Core_1_1Asset_1_1GeometryData.html#a4b49bc309288a182f63da6330c786dbb" target="_top" xlink:title="Return true if the object has vertex bitangent vectors. ">
<polygon fill="white" stroke="black" points="186,-1068.5 186,-1098.5 330,-1098.5 330,-1068.5 186,-1068.5"/>
<text text-anchor="start" x="194" y="-1086.5" font-family="Helvetica,sans-Serif" font-size="10.00">Ra::Core::Asset::Geometry</text>
<text text-anchor="middle" x="258" y="-1075.5" font-family="Helvetica,sans-Serif" font-size="10.00">Data::hasBiTangents</text>
</a>
</g>
</g>
<!-- Node1&#45;&gt;Node11 -->
<g id="edge10" class="edge"><title>Node1&#45;&gt;Node11</title>
<path fill="none" stroke="midnightblue" d="M68.5239,-779.647C71.041,-828.034 85.6256,-980.338 170,-1059.5 172.196,-1061.56 174.553,-1063.45 177.033,-1065.17"/>
<polygon fill="midnightblue" stroke="midnightblue" points="175.511,-1068.34 185.893,-1070.45 179.093,-1062.33 175.511,-1068.34"/>
</g>
<!-- Node12 -->
<g id="node12" class="node"><title>Node12</title>
<g id="a_node12"><a xlink:href="classRa_1_1Core_1_1Asset_1_1GeometryData.html#a29d034b5e11d7431047c5ebd1e39d0f7" target="_top" xlink:title="Return the list of vertex bitangent vectors. ">
<polygon fill="white" stroke="black" points="186,-1019.5 186,-1049.5 330,-1049.5 330,-1019.5 186,-1019.5"/>
<text text-anchor="start" x="194" y="-1037.5" font-family="Helvetica,sans-Serif" font-size="10.00">Ra::Core::Asset::Geometry</text>
<text text-anchor="middle" x="258" y="-1026.5" font-family="Helvetica,sans-Serif" font-size="10.00">Data::getBiTangents</text>
</a>
</g>
</g>
<!-- Node1&#45;&gt;Node12 -->
<g id="edge11" class="edge"><title>Node1&#45;&gt;Node12</title>
<path fill="none" stroke="midnightblue" d="M69.6875,-779.554C75.3154,-822.458 97.4008,-946.381 170,-1010.5 172.202,-1012.44 174.548,-1014.23 177.005,-1015.88"/>
<polygon fill="midnightblue" stroke="midnightblue" points="175.333,-1018.95 185.741,-1020.94 178.84,-1012.9 175.333,-1018.95"/>
</g>
<!-- Node13 -->
<g id="node13" class="node"><title>Node13</title>
<g id="a_node13"><a xlink:href="classRa_1_1Core_1_1Asset_1_1GeometryData.html#a8a91c9d0153cab67fc7c2a4c169237e9" target="_top" xlink:title="Return true if the object has vertex texture coordinates. ">
<polygon fill="white" stroke="black" points="180.5,-970.5 180.5,-1000.5 335.5,-1000.5 335.5,-970.5 180.5,-970.5"/>
<text text-anchor="start" x="188.5" y="-988.5" font-family="Helvetica,sans-Serif" font-size="10.00">Ra::Core::Asset::Geometry</text>
<text text-anchor="middle" x="258" y="-977.5" font-family="Helvetica,sans-Serif" font-size="10.00">Data::hasTextureCoordinates</text>
</a>
</g>
</g>
<!-- Node1&#45;&gt;Node13 -->
<g id="edge12" class="edge"><title>Node1&#45;&gt;Node13</title>
<path fill="none" stroke="midnightblue" d="M71.4276,-779.731C80.5723,-816.775 109.111,-912.151 170,-961.5 171.598,-962.795 173.26,-964.02 174.977,-965.179"/>
<polygon fill="midnightblue" stroke="midnightblue" points="173.562,-968.407 183.959,-970.443 177.101,-962.367 173.562,-968.407"/>
</g>
<!-- Node14 -->
<g id="node14" class="node"><title>Node14</title>
<g id="a_node14"><a xlink:href="classRa_1_1Core_1_1Asset_1_1GeometryData.html#a762ed62a1450a0cbeed4465cc62f9843" target="_top" xlink:title="Return the list of vertex texture coordinates. ">
<polygon fill="white" stroke="black" points="186,-921.5 186,-951.5 330,-951.5 330,-921.5 186,-921.5"/>
<text text-anchor="start" x="194" y="-939.5" font-family="Helvetica,sans-Serif" font-size="10.00">Ra::Core::Asset::Geometry</text>
<text text-anchor="middle" x="258" y="-928.5" font-family="Helvetica,sans-Serif" font-size="10.00">Data::getTexCoords</text>
</a>
</g>
</g>
<!-- Node1&#45;&gt;Node14 -->
<g id="edge13" class="edge"><title>Node1&#45;&gt;Node14</title>
<path fill="none" stroke="midnightblue" d="M74.1679,-779.697C87.1869,-809.819 120.413,-877.229 170,-912.5 172.123,-914.01 174.337,-915.425 176.621,-916.751"/>
<polygon fill="midnightblue" stroke="midnightblue" points="175.243,-919.978 185.737,-921.437 178.443,-913.752 175.243,-919.978"/>
</g>
<!-- Node15 -->
<g id="node15" class="node"><title>Node15</title>
<g id="a_node15"><a xlink:href="classRa_1_1Core_1_1Asset_1_1GeometryData.html#a2532784691e431bfda51f3eccd0ba902" target="_top" xlink:title="Return true if the object has vertex colors. ">
<polygon fill="white" stroke="black" points="186,-872.5 186,-902.5 330,-902.5 330,-872.5 186,-872.5"/>
<text text-anchor="start" x="194" y="-890.5" font-family="Helvetica,sans-Serif" font-size="10.00">Ra::Core::Asset::Geometry</text>
<text text-anchor="middle" x="258" y="-879.5" font-family="Helvetica,sans-Serif" font-size="10.00">Data::hasColors</text>
</a>
</g>
</g>
<!-- Node1&#45;&gt;Node15 -->
<g id="edge14" class="edge"><title>Node1&#45;&gt;Node15</title>
<path fill="none" stroke="midnightblue" d="M79.4381,-779.661C96.6822,-801.455 131.447,-841.435 170,-863.5 173.085,-865.266 176.307,-866.907 179.617,-868.432"/>
<polygon fill="midnightblue" stroke="midnightblue" points="178.562,-871.785 189.137,-872.429 181.271,-865.331 178.562,-871.785"/>
</g>
<!-- Node16 -->
<g id="node16" class="node"><title>Node16</title>
<g id="a_node16"><a xlink:href="classRa_1_1Core_1_1Asset_1_1GeometryData.html#aa3dd156b0cc006ba40882908e484ef43" target="_top" xlink:title="Return the list of vertex colors. ">
<polygon fill="white" stroke="black" points="186,-823.5 186,-853.5 330,-853.5 330,-823.5 186,-823.5"/>
<text text-anchor="start" x="194" y="-841.5" font-family="Helvetica,sans-Serif" font-size="10.00">Ra::Core::Asset::Geometry</text>
<text text-anchor="middle" x="258" y="-830.5" font-family="Helvetica,sans-Serif" font-size="10.00">Data::getColors</text>
</a>
</g>
</g>
<!-- Node1&#45;&gt;Node16 -->
<g id="edge15" class="edge"><title>Node1&#45;&gt;Node16</title>
<path fill="none" stroke="midnightblue" d="M95.0885,-779.507C115.296,-790.272 143.815,-804.57 170,-814.5 175.443,-816.564 181.14,-818.535 186.9,-820.396"/>
<polygon fill="midnightblue" stroke="midnightblue" points="186.035,-823.792 196.623,-823.42 188.114,-817.108 186.035,-823.792"/>
</g>
<!-- Node17 -->
<g id="node17" class="node"><title>Node17</title>
<g id="a_node17"><a xlink:href="classRa_1_1Core_1_1Asset_1_1GeometryData.html#a36dd93930e7b55d20162a57f7aa89157" target="_top" xlink:title="Return true if the object has MaterialData. ">
<polygon fill="white" stroke="black" points="186,-774.5 186,-804.5 330,-804.5 330,-774.5 186,-774.5"/>
<text text-anchor="start" x="194" y="-792.5" font-family="Helvetica,sans-Serif" font-size="10.00">Ra::Core::Asset::Geometry</text>
<text text-anchor="middle" x="258" y="-781.5" font-family="Helvetica,sans-Serif" font-size="10.00">Data::hasMaterial</text>
</a>
</g>
</g>
<!-- Node1&#45;&gt;Node17 -->
<g id="edge16" class="edge"><title>Node1&#45;&gt;Node17</title>
<path fill="none" stroke="midnightblue" d="M134.103,-773.244C147.551,-775.023 161.846,-776.913 175.75,-778.753"/>
<polygon fill="midnightblue" stroke="midnightblue" points="175.414,-782.239 185.787,-780.08 176.332,-775.299 175.414,-782.239"/>
</g>
<!-- Node18 -->
<g id="node18" class="node"><title>Node18</title>
<g id="a_node18"><a xlink:href="classRa_1_1Core_1_1Asset_1_1GeometryData.html#a67c18300edf7cd3c8c89851d260599a9" target="_top" xlink:title="Return the MaterialData associated to the objet. ">
<polygon fill="white" stroke="black" points="186,-725.5 186,-755.5 330,-755.5 330,-725.5 186,-725.5"/>
<text text-anchor="start" x="194" y="-743.5" font-family="Helvetica,sans-Serif" font-size="10.00">Ra::Core::Asset::Geometry</text>
<text text-anchor="middle" x="258" y="-732.5" font-family="Helvetica,sans-Serif" font-size="10.00">Data::getMaterial</text>
</a>
</g>
</g>
<!-- Node1&#45;&gt;Node18 -->
<g id="edge17" class="edge"><title>Node1&#45;&gt;Node18</title>
<path fill="none" stroke="midnightblue" d="M134.103,-756.106C147.551,-754.398 161.846,-752.583 175.75,-750.818"/>
<polygon fill="midnightblue" stroke="midnightblue" points="176.308,-754.275 185.787,-749.543 175.426,-747.331 176.308,-754.275"/>
</g>
<!-- Node19 -->
<g id="node19" class="node"><title>Node19</title>
<g id="a_node19"><a xlink:href="namespaceRa_1_1Engine_1_1EngineMaterialConverters.html#ad440019d5fdaa657b3a483a705dc3657" target="_top" xlink:title="Ra::Engine::EngineMaterial\lConverters::getMaterialConverter">
<polygon fill="white" stroke="black" points="170,-676.5 170,-706.5 346,-706.5 346,-676.5 170,-676.5"/>
<text text-anchor="start" x="178" y="-694.5" font-family="Helvetica,sans-Serif" font-size="10.00">Ra::Engine::EngineMaterial</text>
<text text-anchor="middle" x="258" y="-683.5" font-family="Helvetica,sans-Serif" font-size="10.00">Converters::getMaterialConverter</text>
</a>
</g>
</g>
<!-- Node1&#45;&gt;Node19 -->
<g id="edge18" class="edge"><title>Node1&#45;&gt;Node19</title>
<path fill="none" stroke="midnightblue" d="M96.9233,-749.368C117.056,-739.215 144.722,-726.01 170,-716.5 176.325,-714.121 182.98,-711.835 189.675,-709.679"/>
<polygon fill="midnightblue" stroke="midnightblue" points="190.977,-712.939 199.479,-706.617 188.891,-706.257 190.977,-712.939"/>
</g>
<!-- Node20 -->
<g id="node20" class="node"><title>Node20</title>
<g id="a_node20"><a xlink:href="classRa_1_1Core_1_1Asset_1_1MaterialData.html#af5d61bc4099f8c25c76d7919408a8d89" target="_top" xlink:title="TYPE. ">
<polygon fill="white" stroke="black" points="191,-627.5 191,-657.5 325,-657.5 325,-627.5 191,-627.5"/>
<text text-anchor="start" x="199" y="-645.5" font-family="Helvetica,sans-Serif" font-size="10.00">Ra::Core::Asset::Material</text>
<text text-anchor="middle" x="258" y="-634.5" font-family="Helvetica,sans-Serif" font-size="10.00">Data::getType</text>
</a>
</g>
</g>
<!-- Node1&#45;&gt;Node20 -->
<g id="edge19" class="edge"><title>Node1&#45;&gt;Node20</title>
<path fill="none" stroke="midnightblue" d="M79.8299,-749.352C97.2964,-728 132.04,-689.237 170,-667.5 173.863,-665.288 177.937,-663.259 182.127,-661.4"/>
<polygon fill="midnightblue" stroke="midnightblue" points="183.512,-664.615 191.449,-657.597 180.868,-658.134 183.512,-664.615"/>
</g>
<!-- Node21 -->
<g id="node21" class="node"><title>Node21</title>
<g id="a_node21"><a xlink:href="classRa_1_1Engine_1_1RenderTechnique.html#a9bddcd20723ee582fd81c363b9148cf9" target="_top" xlink:title="Ra::Engine::RenderTechnique\l::setMaterial">
<polygon fill="white" stroke="black" points="181.5,-578.5 181.5,-608.5 334.5,-608.5 334.5,-578.5 181.5,-578.5"/>
<text text-anchor="start" x="189.5" y="-596.5" font-family="Helvetica,sans-Serif" font-size="10.00">Ra::Engine::RenderTechnique</text>
<text text-anchor="middle" x="258" y="-585.5" font-family="Helvetica,sans-Serif" font-size="10.00">::setMaterial</text>
</a>
</g>
</g>
<!-- Node1&#45;&gt;Node21 -->
<g id="edge20" class="edge"><title>Node1&#45;&gt;Node21</title>
<path fill="none" stroke="midnightblue" d="M74.4622,-749.094C87.7827,-719.237 121.193,-653.373 170,-618.5 172.685,-616.581 175.515,-614.809 178.448,-613.173"/>
<polygon fill="midnightblue" stroke="midnightblue" points="180.124,-616.248 187.515,-608.658 177.004,-609.982 180.124,-616.248"/>
</g>
<!-- Node22 -->
<g id="node22" class="node"><title>Node22</title>
<g id="a_node22"><a xlink:href="namespaceRa_1_1Engine_1_1EngineRenderTechniques.html#a5e831d5088144082e9bd3828323aa57a" target="_top" xlink:title="Ra::Engine::EngineRender\lTechniques::getDefaultTechnique">
<polygon fill="white" stroke="black" points="171.5,-529.5 171.5,-559.5 344.5,-559.5 344.5,-529.5 171.5,-529.5"/>
<text text-anchor="start" x="179.5" y="-547.5" font-family="Helvetica,sans-Serif" font-size="10.00">Ra::Engine::EngineRender</text>
<text text-anchor="middle" x="258" y="-536.5" font-family="Helvetica,sans-Serif" font-size="10.00">Techniques::getDefaultTechnique</text>
</a>
</g>
</g>
<!-- Node1&#45;&gt;Node22 -->
<g id="edge21" class="edge"><title>Node1&#45;&gt;Node22</title>
<path fill="none" stroke="midnightblue" d="M71.509,-749.462C80.8371,-712.88 109.757,-618.65 170,-569.5 172.078,-567.805 174.265,-566.225 176.538,-564.752"/>
<polygon fill="midnightblue" stroke="midnightblue" points="178.696,-567.552 185.679,-559.584 175.251,-561.458 178.696,-567.552"/>
</g>
<!-- Node23 -->
<g id="node23" class="node"><title>Node23</title>
<g id="a_node23"><a xlink:href="classRa_1_1Core_1_1Utils_1_1ColorBase.html#a7f0a6768d3dff7343b503929b142fc22" target="_top" xlink:title="Ra::Core::Utils::ColorBase\l\&lt; Scalar \&gt;::Grey">
<polygon fill="white" stroke="black" points="188.5,-480.5 188.5,-510.5 327.5,-510.5 327.5,-480.5 188.5,-480.5"/>
<text text-anchor="start" x="196.5" y="-498.5" font-family="Helvetica,sans-Serif" font-size="10.00">Ra::Core::Utils::ColorBase</text>
<text text-anchor="middle" x="258" y="-487.5" font-family="Helvetica,sans-Serif" font-size="10.00">&lt; Scalar &gt;::Grey</text>
</a>
</g>
</g>
<!-- Node1&#45;&gt;Node23 -->
<g id="edge22" class="edge"><title>Node1&#45;&gt;Node23</title>
<path fill="none" stroke="midnightblue" d="M69.8038,-749.298C75.6962,-706.558 98.323,-584.301 170,-520.5 172.869,-517.947 175.982,-515.653 179.268,-513.592"/>
<polygon fill="midnightblue" stroke="midnightblue" points="181.209,-516.521 188.318,-508.666 177.862,-510.373 181.209,-516.521"/>
</g>
<!-- Node24 -->
<g id="node24" class="node"><title>Node24</title>
<g id="a_node24"><a xlink:href="classRa_1_1Core_1_1Utils_1_1ColorBase.html#a467dad42627c64495356c4fd21b3ac81" target="_top" xlink:title="Ra::Core::Utils::ColorBase\l\&lt; Scalar \&gt;::White">
<polygon fill="white" stroke="black" points="188.5,-431.5 188.5,-461.5 327.5,-461.5 327.5,-431.5 188.5,-431.5"/>
<text text-anchor="start" x="196.5" y="-449.5" font-family="Helvetica,sans-Serif" font-size="10.00">Ra::Core::Utils::ColorBase</text>
<text text-anchor="middle" x="258" y="-438.5" font-family="Helvetica,sans-Serif" font-size="10.00">&lt; Scalar &gt;::White</text>
</a>
</g>
</g>
<!-- Node1&#45;&gt;Node24 -->
<g id="edge23" class="edge"><title>Node1&#45;&gt;Node24</title>
<path fill="none" stroke="midnightblue" d="M68.594,-749.49C71.3224,-701.534 86.4732,-550.54 170,-471.5 172.934,-468.724 176.156,-466.253 179.578,-464.054"/>
<polygon fill="midnightblue" stroke="midnightblue" points="181.404,-467.044 188.448,-459.13 178.006,-460.924 181.404,-467.044"/>
</g>
<!-- Node25 -->
<g id="node25" class="node"><title>Node25</title>
<g id="a_node25"><a xlink:href="classRa_1_1Engine_1_1Mesh.html#ac6b2c0b356fedc903a39fc7b3393f7e4" target="_top" xlink:title="Get the name expected for a given attrib. ">
<polygon fill="white" stroke="black" points="170,-393 170,-412 346,-412 346,-393 170,-393"/>
<text text-anchor="middle" x="258" y="-400" font-family="Helvetica,sans-Serif" font-size="10.00">Ra::Engine::Mesh::getAttribName</text>
</a>
</g>
</g>
<!-- Node1&#45;&gt;Node25 -->
<g id="edge24" class="edge"><title>Node1&#45;&gt;Node25</title>
<path fill="none" stroke="midnightblue" d="M67.5482,-749.141C66.8573,-695.424 72.1661,-514.275 170,-422.5 171.978,-420.644 174.092,-418.949 176.315,-417.401"/>
<polygon fill="midnightblue" stroke="midnightblue" points="178.485,-420.187 185.365,-412.129 174.962,-414.138 178.485,-420.187"/>
</g>
<!-- Node26 -->
<g id="node26" class="node"><title>Node26</title>
<g id="a_node26"><a xlink:href="classRa_1_1Engine_1_1RenderTechnique.html#afaa0d1af67d70dd6e778c1f0880456a1" target="_top" xlink:title="Ra::Engine::RenderTechnique\l::hasConfiguration">
<polygon fill="white" stroke="black" points="181.5,-343.5 181.5,-373.5 334.5,-373.5 334.5,-343.5 181.5,-343.5"/>
<text text-anchor="start" x="189.5" y="-361.5" font-family="Helvetica,sans-Serif" font-size="10.00">Ra::Engine::RenderTechnique</text>
<text text-anchor="middle" x="258" y="-350.5" font-family="Helvetica,sans-Serif" font-size="10.00">::hasConfiguration</text>
</a>
</g>
</g>
<!-- Node1&#45;&gt;Node26 -->
<g id="edge25" class="edge"><title>Node1&#45;&gt;Node26</title>
<path fill="none" stroke="midnightblue" d="M70.041,-749.427C78.9799,-685.535 116.627,-437.855 170,-383.5 171.404,-382.07 172.884,-380.721 174.428,-379.448"/>
<polygon fill="midnightblue" stroke="midnightblue" points="176.46,-382.298 182.642,-373.693 172.444,-376.565 176.46,-382.298"/>
</g>
<!-- Node27 -->
<g id="node27" class="node"><title>Node27</title>
<g id="a_node27"><a xlink:href="classRa_1_1Engine_1_1RenderTechnique.html#a9e6f1055d0d570ac52e2e484fd4051c2" target="_top" xlink:title="Ra::Engine::RenderTechnique\l::getConfiguration">
<polygon fill="white" stroke="black" points="181.5,-294.5 181.5,-324.5 334.5,-324.5 334.5,-294.5 181.5,-294.5"/>
<text text-anchor="start" x="189.5" y="-312.5" font-family="Helvetica,sans-Serif" font-size="10.00">Ra::Engine::RenderTechnique</text>
<text text-anchor="middle" x="258" y="-301.5" font-family="Helvetica,sans-Serif" font-size="10.00">::getConfiguration</text>
</a>
</g>
</g>
<!-- Node1&#45;&gt;Node27 -->
<g id="edge26" class="edge"><title>Node1&#45;&gt;Node27</title>
<path fill="none" stroke="midnightblue" d="M69.5525,-749.401C76.9262,-680.524 110.547,-396.81 170,-334.5 171.383,-333.05 172.844,-331.683 174.373,-330.394"/>
<polygon fill="midnightblue" stroke="midnightblue" points="176.417,-333.235 182.518,-324.573 172.347,-327.539 176.417,-333.235"/>
</g>
<!-- Node28 -->
<g id="node28" class="node"><title>Node28</title>
<g id="a_node28"><a xlink:href="classRa_1_1Engine_1_1ShaderConfiguration.html#a8ffa1714a9e63a320acaa7873fb99797" target="_top" xlink:title="Add a shader given its type. ">
<polygon fill="white" stroke="black" points="172.5,-245.5 172.5,-275.5 343.5,-275.5 343.5,-245.5 172.5,-245.5"/>
<text text-anchor="start" x="180.5" y="-263.5" font-family="Helvetica,sans-Serif" font-size="10.00">Ra::Engine::ShaderConfiguration</text>
<text text-anchor="middle" x="258" y="-252.5" font-family="Helvetica,sans-Serif" font-size="10.00">::addShader</text>
</a>
</g>
</g>
<!-- Node1&#45;&gt;Node28 -->
<g id="edge27" class="edge"><title>Node1&#45;&gt;Node28</title>
<path fill="none" stroke="midnightblue" d="M69.1747,-749.203C75.1498,-675.283 104.482,-355.773 170,-285.5 171.216,-284.196 172.494,-282.959 173.828,-281.784"/>
<polygon fill="midnightblue" stroke="midnightblue" points="176.059,-284.488 182.015,-275.726 171.895,-278.861 176.059,-284.488"/>
</g>
<!-- Node29 -->
<g id="node29" class="node"><title>Node29</title>
<g id="a_node29"><a xlink:href="namespaceRa_1_1Core_1_1Resources.html#a91355598fb65d39b0dd807304ba7250a" target="_top" xlink:title="Get the base prefix to access the Radium resources in a filesystem. ">
<polygon fill="white" stroke="black" points="202,-196.5 202,-226.5 314,-226.5 314,-196.5 202,-196.5"/>
<text text-anchor="start" x="210" y="-214.5" font-family="Helvetica,sans-Serif" font-size="10.00">Ra::Core::Resources</text>
<text text-anchor="middle" x="258" y="-203.5" font-family="Helvetica,sans-Serif" font-size="10.00">::getBaseDir</text>
</a>
</g>
</g>
<!-- Node1&#45;&gt;Node29 -->
<g id="edge28" class="edge"><title>Node1&#45;&gt;Node29</title>
<path fill="none" stroke="midnightblue" d="M68.8307,-749.496C73.4324,-671.712 98.2418,-314.946 170,-236.5 176.088,-229.844 183.82,-224.916 192.152,-221.276"/>
<polygon fill="midnightblue" stroke="midnightblue" points="193.615,-224.466 201.759,-217.69 191.167,-217.908 193.615,-224.466"/>
</g>
<!-- Node30 -->
<g id="node30" class="node"><title>Node30</title>
<g id="a_node30"><a xlink:href="classRa_1_1Engine_1_1RenderTechnique.html#aaf860d7c30aef24f7c24016952cd8f00" target="_top" xlink:title="Ra::Engine::RenderTechnique\l::setConfiguration">
<polygon fill="white" stroke="black" points="181.5,-147.5 181.5,-177.5 334.5,-177.5 334.5,-147.5 181.5,-147.5"/>
<text text-anchor="start" x="189.5" y="-165.5" font-family="Helvetica,sans-Serif" font-size="10.00">Ra::Engine::RenderTechnique</text>
<text text-anchor="middle" x="258" y="-154.5" font-family="Helvetica,sans-Serif" font-size="10.00">::setConfiguration</text>
</a>
</g>
</g>
<!-- Node1&#45;&gt;Node30 -->
<g id="edge29" class="edge"><title>Node1&#45;&gt;Node30</title>
<path fill="none" stroke="midnightblue" d="M68.5638,-749.488C71.942,-667.467 92.0671,-274.064 170,-187.5 171.193,-186.175 172.451,-184.919 173.766,-183.727"/>
<polygon fill="midnightblue" stroke="midnightblue" points="176.009,-186.418 181.863,-177.587 171.78,-180.84 176.009,-186.418"/>
</g>
<!-- Node31 -->
<g id="node31" class="node"><title>Node31</title>
<g id="a_node31"><a xlink:href="classRa_1_1Engine_1_1RenderObject.html#a5c19c3b781f875b033277849f22bc956" target="_top" xlink:title="Sort of factory method to easily create a render object. ">
<polygon fill="white" stroke="black" points="189.5,-98.5 189.5,-128.5 326.5,-128.5 326.5,-98.5 189.5,-98.5"/>
<text text-anchor="start" x="197.5" y="-116.5" font-family="Helvetica,sans-Serif" font-size="10.00">Ra::Engine::RenderObject</text>
<text text-anchor="middle" x="258" y="-105.5" font-family="Helvetica,sans-Serif" font-size="10.00">::createRenderObject</text>
</a>
</g>
</g>
<!-- Node1&#45;&gt;Node31 -->
<g id="edge30" class="edge"><title>Node1&#45;&gt;Node31</title>
<path fill="none" stroke="midnightblue" d="M68.3405,-749.37C70.5855,-663.032 85.9082,-233.178 170,-138.5 173.077,-135.036 176.599,-132.038 180.423,-129.445"/>
<polygon fill="midnightblue" stroke="midnightblue" points="182.294,-132.407 189.222,-124.391 178.807,-126.337 182.294,-132.407"/>
</g>
<!-- Node34 -->
<g id="node34" class="node"><title>Node34</title>
<g id="a_node34"><a xlink:href="classRa_1_1Engine_1_1TriangleMeshComponent.html#a6d35bc61b1eb9aa95f512407879aa133" target="_top" xlink:title="Ra::Engine::TriangleMesh\lComponent::setupIO">
<polygon fill="white" stroke="black" points="191,-49.5 191,-79.5 325,-79.5 325,-49.5 191,-49.5"/>
<text text-anchor="start" x="199" y="-67.5" font-family="Helvetica,sans-Serif" font-size="10.00">Ra::Engine::TriangleMesh</text>
<text text-anchor="middle" x="258" y="-56.5" font-family="Helvetica,sans-Serif" font-size="10.00">Component::setupIO</text>
</a>
</g>
</g>
<!-- Node1&#45;&gt;Node34 -->
<g id="edge33" class="edge"><title>Node1&#45;&gt;Node34</title>
<path fill="none" stroke="midnightblue" d="M68.1254,-749.352C69.18,-658.944 79.022,-191.046 170,-88.5 173.485,-84.5718 177.549,-81.2608 181.98,-78.4727"/>
<polygon fill="midnightblue" stroke="midnightblue" points="183.712,-81.5157 190.899,-73.7308 180.426,-75.335 183.712,-81.5157"/>
</g>
<!-- Node36 -->
<g id="node36" class="node"><title>Node36</title>
<g id="a_node36"><a xlink:href="classRa_1_1Engine_1_1Component.html#aea20d8186eb969b255cd83218a809178" target="_top" xlink:title="Add a new render object to the component. This adds the RO to the manager for drawing. ">
<polygon fill="white" stroke="black" points="193.5,-0.5 193.5,-30.5 322.5,-30.5 322.5,-0.5 193.5,-0.5"/>
<text text-anchor="start" x="201.5" y="-18.5" font-family="Helvetica,sans-Serif" font-size="10.00">Ra::Engine::Component</text>
<text text-anchor="middle" x="258" y="-7.5" font-family="Helvetica,sans-Serif" font-size="10.00">::addRenderObject</text>
</a>
</g>
</g>
<!-- Node1&#45;&gt;Node36 -->
<g id="edge35" class="edge"><title>Node1&#45;&gt;Node36</title>
<path fill="none" stroke="midnightblue" d="M67.9558,-749.5C67.9847,-655.706 72.6995,-150.282 170,-39.5 174.041,-34.8996 178.875,-31.1445 184.166,-28.0837"/>
<polygon fill="midnightblue" stroke="midnightblue" points="185.988,-31.0894 193.444,-23.5616 182.921,-24.797 185.988,-31.0894"/>
</g>
<!-- Node32 -->
<g id="node32" class="node"><title>Node32</title>
<g id="a_node32"><a xlink:href="classRa_1_1Engine_1_1RenderObject.html#acf300c8fdb55fee54d27b3fb46a1e523" target="_top" xlink:title="A &#45;1 (or any other negative value) lifetime is considered infinite, 0 is an &quot;invalid value&quot; (would me...">
<polygon fill="white" stroke="black" points="382,-98.5 382,-128.5 519,-128.5 519,-98.5 382,-98.5"/>
<text text-anchor="start" x="390" y="-116.5" font-family="Helvetica,sans-Serif" font-size="10.00">Ra::Engine::RenderObject</text>
<text text-anchor="middle" x="450.5" y="-105.5" font-family="Helvetica,sans-Serif" font-size="10.00">::RenderObject</text>
</a>
</g>
</g>
<!-- Node31&#45;&gt;Node32 -->
<g id="edge31" class="edge"><title>Node31&#45;&gt;Node32</title>
<path fill="none" stroke="midnightblue" d="M326.7,-113.5C341.21,-113.5 356.655,-113.5 371.519,-113.5"/>
<polygon fill="midnightblue" stroke="midnightblue" points="371.698,-117 381.698,-113.5 371.698,-110 371.698,-117"/>
</g>
<!-- Node33 -->
<g id="node33" class="node"><title>Node33</title>
<g id="a_node33"><a xlink:href="classRa_1_1Engine_1_1RenderObject.html#a8ea17931e62bea93890d44815bf7fcf5" target="_top" xlink:title="Ra::Engine::RenderObject\l::~RenderObject">
<polygon fill="white" stroke="black" points="555,-98.5 555,-128.5 692,-128.5 692,-98.5 555,-98.5"/>
<text text-anchor="start" x="563" y="-116.5" font-family="Helvetica,sans-Serif" font-size="10.00">Ra::Engine::RenderObject</text>
<text text-anchor="middle" x="623.5" y="-105.5" font-family="Helvetica,sans-Serif" font-size="10.00">::~RenderObject</text>
</a>
</g>
</g>
<!-- Node32&#45;&gt;Node33 -->
<g id="edge32" class="edge"><title>Node32&#45;&gt;Node33</title>
<path fill="none" stroke="midnightblue" d="M519.084,-113.5C527.538,-113.5 536.237,-113.5 544.83,-113.5"/>
<polygon fill="midnightblue" stroke="midnightblue" points="544.847,-117 554.847,-113.5 544.847,-110 544.847,-117"/>
</g>
<!-- Node35 -->
<g id="node35" class="node"><title>Node35</title>
<g id="a_node35"><a xlink:href="classRa_1_1Engine_1_1Component.html#a207c1dc2e97856c22e0767fb77162933" target="_top" xlink:title="Return the entity the component belongs to. ">
<polygon fill="white" stroke="black" points="386,-49.5 386,-79.5 515,-79.5 515,-49.5 386,-49.5"/>
<text text-anchor="start" x="394" y="-67.5" font-family="Helvetica,sans-Serif" font-size="10.00">Ra::Engine::Component</text>
<text text-anchor="middle" x="450.5" y="-56.5" font-family="Helvetica,sans-Serif" font-size="10.00">::getEntity</text>
</a>
</g>
</g>
<!-- Node34&#45;&gt;Node35 -->
<g id="edge34" class="edge"><title>Node34&#45;&gt;Node35</title>
<path fill="none" stroke="midnightblue" d="M325.093,-64.5C341.379,-64.5 358.923,-64.5 375.554,-64.5"/>
<polygon fill="midnightblue" stroke="midnightblue" points="375.771,-68.0001 385.771,-64.5 375.771,-61.0001 375.771,-68.0001"/>
</g>
<!-- Node37 -->
<g id="node37" class="node"><title>Node37</title>
<g id="a_node37"><a xlink:href="classRa_1_1Engine_1_1Component.html#a10b0bc182b76165744ebea603ae32dfe" target="_top" xlink:title="Shortcut to access the render object manager. ">
<polygon fill="white" stroke="black" points="386,-0.5 386,-30.5 515,-30.5 515,-0.5 386,-0.5"/>
<text text-anchor="start" x="394" y="-18.5" font-family="Helvetica,sans-Serif" font-size="10.00">Ra::Engine::Component</text>
<text text-anchor="middle" x="450.5" y="-7.5" font-family="Helvetica,sans-Serif" font-size="10.00">::getRoMgr</text>
</a>
</g>
</g>
<!-- Node36&#45;&gt;Node37 -->
<g id="edge36" class="edge"><title>Node36&#45;&gt;Node37</title>
<path fill="none" stroke="midnightblue" d="M322.699,-15.5C339.697,-15.5 358.207,-15.5 375.699,-15.5"/>
<polygon fill="midnightblue" stroke="midnightblue" points="375.861,-19.0001 385.861,-15.5 375.861,-12.0001 375.861,-19.0001"/>
</g>
</g>
</svg>
