<?xml version="1.0" encoding="UTF-8" standalone="no"?>
<!DOCTYPE svg PUBLIC "-//W3C//DTD SVG 1.1//EN"
 "http://www.w3.org/Graphics/SVG/1.1/DTD/svg11.dtd">
<!-- Generated by graphviz version 2.38.0 (20140413.2041)
 -->
<!-- Title: MeshFeatureTrackingPlugin::MeshFeatureTrackingComponent::setTriangleIdx Pages: 1 -->
<svg width="712pt" height="154pt"
 viewBox="0.00 0.00 712.00 153.50" xmlns="http://www.w3.org/2000/svg" xmlns:xlink="http://www.w3.org/1999/xlink">
<g id="graph0" class="graph" transform="scale(1 1) rotate(0) translate(4 149.5)">
<title>MeshFeatureTrackingPlugin::MeshFeatureTrackingComponent::setTriangleIdx</title>
<polygon fill="white" stroke="none" points="-4,4 -4,-149.5 708,-149.5 708,4 -4,4"/>
<!-- Node1 -->
<g id="node1" class="node"><title>Node1</title>
<polygon fill="#bfbfbf" stroke="black" points="0,-46.5 0,-87.5 179,-87.5 179,-46.5 0,-46.5"/>
<text text-anchor="start" x="8" y="-75.5" font-family="Helvetica,sans-Serif" font-size="10.00">MeshFeatureTrackingPlugin</text>
<text text-anchor="start" x="8" y="-64.5" font-family="Helvetica,sans-Serif" font-size="10.00">::MeshFeatureTrackingComponent</text>
<text text-anchor="middle" x="89.5" y="-53.5" font-family="Helvetica,sans-Serif" font-size="10.00">::setTriangleIdx</text>
</g>
<!-- Node2 -->
<g id="node2" class="node"><title>Node2</title>
<g id="a_node2"><a xlink:href="classRa_1_1Engine_1_1Component.html#a10b0bc182b76165744ebea603ae32dfe" target="_top" xlink:title="Shortcut to access the render object manager. ">
<polygon fill="white" stroke="black" points="241.5,-115 241.5,-145 370.5,-145 370.5,-115 241.5,-115"/>
<text text-anchor="start" x="249.5" y="-133" font-family="Helvetica,sans-Serif" font-size="10.00">Ra::Engine::Component</text>
<text text-anchor="middle" x="306" y="-122" font-family="Helvetica,sans-Serif" font-size="10.00">::getRoMgr</text>
</a>
</g>
</g>
<!-- Node1&#45;&gt;Node2 -->
<g id="edge1" class="edge"><title>Node1&#45;&gt;Node2</title>
<path fill="none" stroke="midnightblue" d="M156.635,-87.5255C175.464,-93.2771 196.016,-99.4671 215,-105 223.057,-107.348 231.534,-109.769 239.933,-112.136"/>
<polygon fill="midnightblue" stroke="midnightblue" points="239.152,-115.552 249.726,-114.883 241.043,-108.812 239.152,-115.552"/>
</g>
<!-- Node3 -->
<g id="node3" class="node"><title>Node3</title>
<g id="a_node3"><a xlink:href="classRa_1_1Engine_1_1Mesh.html#a7dd9018e643becd20e714a54cf6664db" target="_top" xlink:title="Ra::Engine::Mesh::getRenderMode">
<polygon fill="white" stroke="black" points="216.5,-76.5 216.5,-95.5 395.5,-95.5 395.5,-76.5 216.5,-76.5"/>
<text text-anchor="middle" x="306" y="-83.5" font-family="Helvetica,sans-Serif" font-size="10.00">Ra::Engine::Mesh::getRenderMode</text>
</a>
</g>
</g>
<!-- Node1&#45;&gt;Node3 -->
<g id="edge2" class="edge"><title>Node1&#45;&gt;Node3</title>
<path fill="none" stroke="midnightblue" d="M179.294,-74.8652C188.17,-75.6514 197.22,-76.4531 206.191,-77.2477"/>
<polygon fill="midnightblue" stroke="midnightblue" points="206.003,-80.7447 216.273,-78.1407 206.621,-73.772 206.003,-80.7447"/>
</g>
<!-- Node5 -->
<g id="node5" class="node"><title>Node5</title>
<g id="a_node5"><a xlink:href="namespaceRa_1_1Core_1_1Geometry.html#aa04e6052d8911b1df1bd881474debb45" target="_top" xlink:title="Ra::Core::Geometry::t">
<polygon fill="white" stroke="black" points="584,-60.5 584,-79.5 704,-79.5 704,-60.5 584,-60.5"/>
<text text-anchor="middle" x="644" y="-67.5" font-family="Helvetica,sans-Serif" font-size="10.00">Ra::Core::Geometry::t</text>
</a>
</g>
</g>
<!-- Node1&#45;&gt;Node5 -->
<g id="edge5" class="edge"><title>Node1&#45;&gt;Node5</title>
<path fill="none" stroke="midnightblue" d="M179.067,-66.1723C271.231,-65.5053 419.741,-64.9754 548,-67 556.36,-67.132 565.133,-67.3292 573.828,-67.5608"/>
<polygon fill="midnightblue" stroke="midnightblue" points="573.874,-71.0634 583.969,-67.8465 574.071,-64.0662 573.874,-71.0634"/>
</g>
<!-- Node6 -->
<g id="node6" class="node"><title>Node6</title>
<g id="a_node6"><a xlink:href="classRa_1_1Engine_1_1Mesh.html#aeb1eb176c4ac5a045a80b97a5e09e07e" target="_top" xlink:title="Returns the underlying TriangleMesh. ">
<polygon fill="white" stroke="black" points="215,-0.5 215,-19.5 397,-19.5 397,-0.5 215,-0.5"/>
<text text-anchor="middle" x="306" y="-7.5" font-family="Helvetica,sans-Serif" font-size="10.00">Ra::Engine::Mesh::getTriangleMesh</text>
</a>
</g>
</g>
<!-- Node1&#45;&gt;Node6 -->
<g id="edge6" class="edge"><title>Node1&#45;&gt;Node6</title>
<path fill="none" stroke="midnightblue" d="M167.939,-46.4217C198.585,-38.2781 232.758,-29.1972 259.315,-22.14"/>
<polygon fill="midnightblue" stroke="midnightblue" points="260.332,-25.4914 269.098,-19.5405 258.534,-18.7262 260.332,-25.4914"/>
</g>
<!-- Node4 -->
<g id="node4" class="node"><title>Node4</title>
<g id="a_node4"><a xlink:href="namespaceRa_1_1Core_1_1Containers.html#a83257c42de08d550fe2081a5d8a13331" target="_top" xlink:title="Stores a 3&#45;dimensional hierarchy of meshes of arbitrary type. ">
<polygon fill="white" stroke="black" points="433,-77 433,-107 548,-107 548,-77 433,-77"/>
<text text-anchor="start" x="441" y="-95" font-family="Helvetica,sans-Serif" font-size="10.00">Ra::Core::Containers</text>
<text text-anchor="middle" x="490.5" y="-84" font-family="Helvetica,sans-Serif" font-size="10.00">::deprecated</text>
</a>
</g>
</g>
<!-- Node3&#45;&gt;Node4 -->
<g id="edge3" class="edge"><title>Node3&#45;&gt;Node4</title>
<path fill="none" stroke="midnightblue" d="M395.577,-88.9121C404.715,-89.2126 413.89,-89.5142 422.733,-89.8049"/>
<polygon fill="midnightblue" stroke="midnightblue" points="422.83,-93.3099 432.939,-90.1405 423.06,-86.3137 422.83,-93.3099"/>
</g>
<!-- Node4&#45;&gt;Node5 -->
<g id="edge4" class="edge"><title>Node4&#45;&gt;Node5</title>
<path fill="none" stroke="midnightblue" d="M548.344,-83.7454C556.672,-82.5361 565.326,-81.2794 573.866,-80.0392"/>
<polygon fill="midnightblue" stroke="midnightblue" points="574.421,-83.4955 583.814,-78.5946 573.415,-76.5681 574.421,-83.4955"/>
</g>
</g>
</svg>
