<?xml version="1.0" encoding="UTF-8" standalone="no"?>
<!DOCTYPE svg PUBLIC "-//W3C//DTD SVG 1.1//EN"
 "http://www.w3.org/Graphics/SVG/1.1/DTD/svg11.dtd">
<!-- Generated by graphviz version 2.38.0 (20140413.2041)
 -->
<!-- Title: MeshPaintPlugin::MeshPaintComponent::paintMesh Pages: 1 -->
<svg width="682pt" height="340pt"
 viewBox="0.00 0.00 682.00 339.50" xmlns="http://www.w3.org/2000/svg" xmlns:xlink="http://www.w3.org/1999/xlink">
<g id="graph0" class="graph" transform="scale(1 1) rotate(0) translate(4 335.5)">
<title>MeshPaintPlugin::MeshPaintComponent::paintMesh</title>
<polygon fill="white" stroke="none" points="-4,4 -4,-335.5 678,-335.5 678,4 -4,4"/>
<!-- Node1 -->
<g id="node1" class="node"><title>Node1</title>
<polygon fill="#bfbfbf" stroke="black" points="0,-151 0,-181 149,-181 149,-151 0,-151"/>
<text text-anchor="start" x="8" y="-169" font-family="Helvetica,sans-Serif" font-size="10.00">MeshPaintPlugin::MeshPaint</text>
<text text-anchor="middle" x="74.5" y="-158" font-family="Helvetica,sans-Serif" font-size="10.00">Component::paintMesh</text>
</g>
<!-- Node2 -->
<g id="node2" class="node"><title>Node2</title>
<g id="a_node2"><a xlink:href="classRa_1_1Engine_1_1Component.html#a10b0bc182b76165744ebea603ae32dfe" target="_top" xlink:title="Shortcut to access the render object manager. ">
<polygon fill="white" stroke="black" points="211.5,-301 211.5,-331 340.5,-331 340.5,-301 211.5,-301"/>
<text text-anchor="start" x="219.5" y="-319" font-family="Helvetica,sans-Serif" font-size="10.00">Ra::Engine::Component</text>
<text text-anchor="middle" x="276" y="-308" font-family="Helvetica,sans-Serif" font-size="10.00">::getRoMgr</text>
</a>
</g>
</g>
<!-- Node1&#45;&gt;Node2 -->
<g id="edge1" class="edge"><title>Node1&#45;&gt;Node2</title>
<path fill="none" stroke="midnightblue" d="M84.5267,-181.415C100.994,-208.142 138.533,-262.999 185,-292 190.097,-295.181 195.611,-297.945 201.312,-300.345"/>
<polygon fill="midnightblue" stroke="midnightblue" points="200.454,-303.763 211.045,-304.05 202.945,-297.221 200.454,-303.763"/>
</g>
<!-- Node3 -->
<g id="node3" class="node"><title>Node3</title>
<g id="a_node3"><a xlink:href="classRa_1_1Engine_1_1Displayable.html#aae62e0fc9bcee75aa66bc49f66843f94" target="_top" xlink:title="Returns the picking rendermode advised by the object (default PickingRenderMode::NO_PICKING) ...">
<polygon fill="white" stroke="black" points="212,-252 212,-282 340,-282 340,-252 212,-252"/>
<text text-anchor="start" x="220" y="-270" font-family="Helvetica,sans-Serif" font-size="10.00">Ra::Engine::Displayable</text>
<text text-anchor="middle" x="276" y="-259" font-family="Helvetica,sans-Serif" font-size="10.00">::pickingRenderMode</text>
</a>
</g>
</g>
<!-- Node1&#45;&gt;Node3 -->
<g id="edge2" class="edge"><title>Node1&#45;&gt;Node3</title>
<path fill="none" stroke="midnightblue" d="M93.3172,-181.217C114.078,-198.241 150.017,-225.58 185,-242 190.361,-244.516 196.023,-246.823 201.792,-248.929"/>
<polygon fill="midnightblue" stroke="midnightblue" points="200.973,-252.348 211.567,-252.286 203.246,-245.728 200.973,-252.348"/>
</g>
<!-- Node4 -->
<g id="node4" class="node"><title>Node4</title>
<g id="a_node4"><a xlink:href="classRa_1_1Engine_1_1Mesh.html#a7dd9018e643becd20e714a54cf6664db" target="_top" xlink:title="Ra::Engine::Mesh::getRenderMode">
<polygon fill="white" stroke="black" points="186.5,-213.5 186.5,-232.5 365.5,-232.5 365.5,-213.5 186.5,-213.5"/>
<text text-anchor="middle" x="276" y="-220.5" font-family="Helvetica,sans-Serif" font-size="10.00">Ra::Engine::Mesh::getRenderMode</text>
</a>
</g>
</g>
<!-- Node1&#45;&gt;Node4 -->
<g id="edge3" class="edge"><title>Node1&#45;&gt;Node4</title>
<path fill="none" stroke="midnightblue" d="M124.187,-181.038C143.13,-186.793 165.041,-193.333 185,-199 199.02,-202.981 214.323,-207.133 228.268,-210.843"/>
<polygon fill="midnightblue" stroke="midnightblue" points="227.582,-214.282 238.145,-213.458 229.373,-207.515 227.582,-214.282"/>
</g>
<!-- Node6 -->
<g id="node6" class="node"><title>Node6</title>
<g id="a_node6"><a xlink:href="namespaceRa_1_1Core_1_1Geometry.html#aa04e6052d8911b1df1bd881474debb45" target="_top" xlink:title="Ra::Core::Geometry::t">
<polygon fill="white" stroke="black" points="554,-197.5 554,-216.5 674,-216.5 674,-197.5 554,-197.5"/>
<text text-anchor="middle" x="614" y="-204.5" font-family="Helvetica,sans-Serif" font-size="10.00">Ra::Core::Geometry::t</text>
</a>
</g>
</g>
<!-- Node1&#45;&gt;Node6 -->
<g id="edge9" class="edge"><title>Node1&#45;&gt;Node6</title>
<path fill="none" stroke="midnightblue" d="M149.11,-171.615C253.209,-179.556 442.058,-193.961 543.737,-201.717"/>
<polygon fill="midnightblue" stroke="midnightblue" points="543.66,-205.221 553.897,-202.492 544.192,-198.241 543.66,-205.221"/>
</g>
<!-- Node7 -->
<g id="node7" class="node"><title>Node7</title>
<g id="a_node7"><a xlink:href="classRa_1_1Engine_1_1Mesh.html#aeb1eb176c4ac5a045a80b97a5e09e07e" target="_top" xlink:title="Returns the underlying TriangleMesh. ">
<polygon fill="white" stroke="black" points="185,-137.5 185,-156.5 367,-156.5 367,-137.5 185,-137.5"/>
<text text-anchor="middle" x="276" y="-144.5" font-family="Helvetica,sans-Serif" font-size="10.00">Ra::Engine::Mesh::getTriangleMesh</text>
</a>
</g>
</g>
<!-- Node1&#45;&gt;Node7 -->
<g id="edge6" class="edge"><title>Node1&#45;&gt;Node7</title>
<path fill="none" stroke="midnightblue" d="M149.22,-158.979C157.517,-158.189 166.072,-157.374 174.633,-156.559"/>
<polygon fill="midnightblue" stroke="midnightblue" points="175.048,-160.035 184.671,-155.603 174.384,-153.067 175.048,-160.035"/>
</g>
<!-- Node8 -->
<g id="node8" class="node"><title>Node8</title>
<g id="a_node8"><a xlink:href="classRa_1_1Core_1_1Geometry_1_1TriangleMesh.html#a316e86eab4e624183f1bfe5c25f8592c" target="_top" xlink:title="Return the Handle to the attribute with the given name if it exists, an invalid handle otherwise...">
<polygon fill="white" stroke="black" points="193,-88 193,-118 359,-118 359,-88 193,-88"/>
<text text-anchor="start" x="201" y="-106" font-family="Helvetica,sans-Serif" font-size="10.00">Ra::Core::Geometry</text>
<text text-anchor="middle" x="276" y="-95" font-family="Helvetica,sans-Serif" font-size="10.00">::TriangleMesh::getAttribHandle</text>
</a>
</g>
</g>
<!-- Node1&#45;&gt;Node8 -->
<g id="edge7" class="edge"><title>Node1&#45;&gt;Node8</title>
<path fill="none" stroke="midnightblue" d="M116.893,-150.944C137.298,-143.7 162.333,-135.073 185,-128 192.704,-125.596 200.814,-123.182 208.88,-120.852"/>
<polygon fill="midnightblue" stroke="midnightblue" points="210.013,-124.169 218.669,-118.059 208.092,-117.438 210.013,-124.169"/>
</g>
<!-- Node9 -->
<g id="node9" class="node"><title>Node9</title>
<g id="a_node9"><a xlink:href="classRa_1_1Core_1_1Geometry_1_1TriangleMesh.html#a209037ce5a11ec8539a9ada7ba763e8c" target="_top" xlink:title="Get attribute by handle. ">
<polygon fill="white" stroke="black" points="210,-39 210,-69 342,-69 342,-39 210,-39"/>
<text text-anchor="start" x="218" y="-57" font-family="Helvetica,sans-Serif" font-size="10.00">Ra::Core::Geometry</text>
<text text-anchor="middle" x="276" y="-46" font-family="Helvetica,sans-Serif" font-size="10.00">::TriangleMesh::getAttrib</text>
</a>
</g>
</g>
<!-- Node1&#45;&gt;Node9 -->
<g id="edge8" class="edge"><title>Node1&#45;&gt;Node9</title>
<path fill="none" stroke="midnightblue" d="M90.42,-150.843C110.298,-131.477 147.356,-98.1774 185,-79 189.877,-76.5156 195.032,-74.2518 200.307,-72.1935"/>
<polygon fill="midnightblue" stroke="midnightblue" points="201.696,-75.4129 209.899,-68.7074 199.305,-68.834 201.696,-75.4129"/>
</g>
<!-- Node10 -->
<g id="node10" class="node"><title>Node10</title>
<g id="a_node10"><a xlink:href="classRa_1_1Engine_1_1Mesh.html#a9a1dcadf7fb4ff851b18c87b3a98ac6b" target="_top" xlink:title="Mark one of the data types as dirty, forcing an update of the openGL buffer. ">
<polygon fill="white" stroke="black" points="205,-0.5 205,-19.5 347,-19.5 347,-0.5 205,-0.5"/>
<text text-anchor="middle" x="276" y="-7.5" font-family="Helvetica,sans-Serif" font-size="10.00">Ra::Engine::Mesh::setDirty</text>
</a>
</g>
</g>
<!-- Node1&#45;&gt;Node10 -->
<g id="edge10" class="edge"><title>Node1&#45;&gt;Node10</title>
<path fill="none" stroke="midnightblue" d="M83.1012,-150.953C98.3022,-122.492 135.302,-60.868 185,-30 189.117,-27.4427 193.52,-25.2105 198.082,-23.2624"/>
<polygon fill="midnightblue" stroke="midnightblue" points="199.518,-26.4614 207.633,-19.6493 197.041,-19.9143 199.518,-26.4614"/>
</g>
<!-- Node5 -->
<g id="node5" class="node"><title>Node5</title>
<g id="a_node5"><a xlink:href="namespaceRa_1_1Core_1_1Containers.html#a83257c42de08d550fe2081a5d8a13331" target="_top" xlink:title="Stores a 3&#45;dimensional hierarchy of meshes of arbitrary type. ">
<polygon fill="white" stroke="black" points="403,-214 403,-244 518,-244 518,-214 403,-214"/>
<text text-anchor="start" x="411" y="-232" font-family="Helvetica,sans-Serif" font-size="10.00">Ra::Core::Containers</text>
<text text-anchor="middle" x="460.5" y="-221" font-family="Helvetica,sans-Serif" font-size="10.00">::deprecated</text>
</a>
</g>
</g>
<!-- Node4&#45;&gt;Node5 -->
<g id="edge4" class="edge"><title>Node4&#45;&gt;Node5</title>
<path fill="none" stroke="midnightblue" d="M365.577,-225.912C374.715,-226.213 383.89,-226.514 392.733,-226.805"/>
<polygon fill="midnightblue" stroke="midnightblue" points="392.83,-230.31 402.939,-227.14 393.06,-223.314 392.83,-230.31"/>
</g>
<!-- Node5&#45;&gt;Node6 -->
<g id="edge5" class="edge"><title>Node5&#45;&gt;Node6</title>
<path fill="none" stroke="midnightblue" d="M518.344,-220.745C526.672,-219.536 535.326,-218.279 543.866,-217.039"/>
<polygon fill="midnightblue" stroke="midnightblue" points="544.421,-220.495 553.814,-215.595 543.415,-213.568 544.421,-220.495"/>
</g>
</g>
</svg>
