<?xml version="1.0" encoding="UTF-8" standalone="no"?>
<!DOCTYPE svg PUBLIC "-//W3C//DTD SVG 1.1//EN"
 "http://www.w3.org/Graphics/SVG/1.1/DTD/svg11.dtd">
<!-- Generated by graphviz version 2.38.0 (20140413.2041)
 -->
<!-- Title: Ra::Core::Utils::AttribHandle&lt; T &gt; Pages: 1 -->
<svg width="326pt" height="226pt"
 viewBox="0.00 0.00 326.00 226.00" xmlns="http://www.w3.org/2000/svg" xmlns:xlink="http://www.w3.org/1999/xlink">
<g id="graph0" class="graph" transform="scale(1 1) rotate(0) translate(4 222)">
<title>Ra::Core::Utils::AttribHandle&lt; T &gt;</title>
<polygon fill="white" stroke="none" points="-4,4 -4,-222 322,-222 322,4 -4,4"/>
<!-- Node1 -->
<g id="node1" class="node"><title>Node1</title>
<polygon fill="#bfbfbf" stroke="black" points="70,-138.5 70,-217.5 248,-217.5 248,-138.5 70,-138.5"/>
<text text-anchor="middle" x="159" y="-205.5" font-family="Helvetica,sans-Serif" font-size="10.00">Ra::Core::Utils::AttribHandle&lt; T &gt;</text>
<polyline fill="none" stroke="black" points="70,-198.5 248,-198.5 "/>
<text text-anchor="middle" x="159" y="-186.5" font-family="Helvetica,sans-Serif" font-size="10.00"> </text>
<polyline fill="none" stroke="black" points="70,-179.5 248,-179.5 "/>
<text text-anchor="start" x="78" y="-167.5" font-family="Helvetica,sans-Serif" font-size="10.00">+ operator==()</text>
<text text-anchor="start" x="78" y="-156.5" font-family="Helvetica,sans-Serif" font-size="10.00">+ idx()</text>
<text text-anchor="start" x="78" y="-145.5" font-family="Helvetica,sans-Serif" font-size="10.00">+ attribName()</text>
</g>
<!-- Node2 -->
<g id="node2" class="node"><title>Node2</title>
<g id="a_node2"><a xlink:href="classRa_1_1Core_1_1Utils_1_1AttribHandle.html" target="_top" xlink:title="{Ra::Core::Utils::AttribHandle\l\&lt; Vector3 \&gt;\n||+ operator==()\l+ idx()\l+ attribName()\l}">
<polygon fill="white" stroke="black" points="0,-0.5 0,-90.5 150,-90.5 150,-0.5 0,-0.5"/>
<text text-anchor="start" x="8" y="-78.5" font-family="Helvetica,sans-Serif" font-size="10.00">Ra::Core::Utils::AttribHandle</text>
<text text-anchor="middle" x="75" y="-67.5" font-family="Helvetica,sans-Serif" font-size="10.00">&lt; Vector3 &gt;</text>
<polyline fill="none" stroke="black" points="0,-60.5 150,-60.5 "/>
<text text-anchor="middle" x="75" y="-48.5" font-family="Helvetica,sans-Serif" font-size="10.00"> </text>
<polyline fill="none" stroke="black" points="0,-41.5 150,-41.5 "/>
<text text-anchor="start" x="8" y="-29.5" font-family="Helvetica,sans-Serif" font-size="10.00">+ operator==()</text>
<text text-anchor="start" x="8" y="-18.5" font-family="Helvetica,sans-Serif" font-size="10.00">+ idx()</text>
<text text-anchor="start" x="8" y="-7.5" font-family="Helvetica,sans-Serif" font-size="10.00">+ attribName()</text>
</a>
</g>
</g>
<!-- Node1&#45;&gt;Node2 -->
<g id="edge1" class="edge"><title>Node1&#45;&gt;Node2</title>
<path fill="none" stroke="orange" d="M128.505,-129.624C120.364,-116.977 111.599,-103.359 103.566,-90.8791"/>
<polygon fill="orange" stroke="orange" points="125.669,-131.685 134.025,-138.199 131.555,-127.896 125.669,-131.685"/>
<text text-anchor="middle" x="154.5" y="-112" font-family="Helvetica,sans-Serif" font-size="10.00"> &lt; Vector3 &gt;</text>
</g>
<!-- Node3 -->
<g id="node3" class="node"><title>Node3</title>
<g id="a_node3"><a xlink:href="classRa_1_1Core_1_1Utils_1_1AttribHandle.html" target="_top" xlink:title="{Ra::Core::Utils::AttribHandle\l\&lt; Ra::Core::Vector4 \&gt;\n||+ operator==()\l+ idx()\l+ attribName()\l}">
<polygon fill="white" stroke="black" points="168,-0.5 168,-90.5 318,-90.5 318,-0.5 168,-0.5"/>
<text text-anchor="start" x="176" y="-78.5" font-family="Helvetica,sans-Serif" font-size="10.00">Ra::Core::Utils::AttribHandle</text>
<text text-anchor="middle" x="243" y="-67.5" font-family="Helvetica,sans-Serif" font-size="10.00">&lt; Ra::Core::Vector4 &gt;</text>
<polyline fill="none" stroke="black" points="168,-60.5 318,-60.5 "/>
<text text-anchor="middle" x="243" y="-48.5" font-family="Helvetica,sans-Serif" font-size="10.00"> </text>
<polyline fill="none" stroke="black" points="168,-41.5 318,-41.5 "/>
<text text-anchor="start" x="176" y="-29.5" font-family="Helvetica,sans-Serif" font-size="10.00">+ operator==()</text>
<text text-anchor="start" x="176" y="-18.5" font-family="Helvetica,sans-Serif" font-size="10.00">+ idx()</text>
<text text-anchor="start" x="176" y="-7.5" font-family="Helvetica,sans-Serif" font-size="10.00">+ attribName()</text>
</a>
</g>
</g>
<!-- Node1&#45;&gt;Node3 -->
<g id="edge2" class="edge"><title>Node1&#45;&gt;Node3</title>
<path fill="none" stroke="orange" d="M189.495,-129.624C197.636,-116.977 206.401,-103.359 214.434,-90.8791"/>
<polygon fill="orange" stroke="orange" points="186.445,-127.896 183.975,-138.199 192.331,-131.685 186.445,-127.896"/>
<text text-anchor="middle" x="255.5" y="-112" font-family="Helvetica,sans-Serif" font-size="10.00"> &lt; Ra::Core::Vector4 &gt;</text>
</g>
</g>
</svg>
