<?xml version="1.0" encoding="UTF-8" standalone="no"?>
<!DOCTYPE svg PUBLIC "-//W3C//DTD SVG 1.1//EN"
 "http://www.w3.org/Graphics/SVG/1.1/DTD/svg11.dtd">
<!-- Generated by graphviz version 2.38.0 (20140413.2041)
 -->
<!-- Title: Ra::Engine::Mesh::updateGL Pages: 1 -->
<svg width="681pt" height="230pt"
 viewBox="0.00 0.00 681.00 230.00" xmlns="http://www.w3.org/2000/svg" xmlns:xlink="http://www.w3.org/1999/xlink">
<g id="graph0" class="graph" transform="scale(1 1) rotate(0) translate(4 226)">
<title>Ra::Engine::Mesh::updateGL</title>
<polygon fill="white" stroke="none" points="-4,4 -4,-226 677,-226 677,4 -4,4"/>
<!-- Node1 -->
<g id="node1" class="node"><title>Node1</title>
<polygon fill="#bfbfbf" stroke="black" points="0,-99 0,-118 151,-118 151,-99 0,-99"/>
<text text-anchor="middle" x="75.5" y="-106" font-family="Helvetica,sans-Serif" font-size="10.00">Ra::Engine::Mesh::updateGL</text>
</g>
<!-- Node2 -->
<g id="node2" class="node"><title>Node2</title>
<g id="a_node2"><a xlink:href="classRa_1_1Core_1_1Geometry_1_1TriangleMesh.html#a6ef9dbd18c0501f2ffd1316be6be56ce" target="_top" xlink:title="Access the vertices positions. ">
<polygon fill="white" stroke="black" points="212.5,-191.5 212.5,-221.5 340.5,-221.5 340.5,-191.5 212.5,-191.5"/>
<text text-anchor="start" x="220.5" y="-209.5" font-family="Helvetica,sans-Serif" font-size="10.00">Ra::Core::Geometry</text>
<text text-anchor="middle" x="276.5" y="-198.5" font-family="Helvetica,sans-Serif" font-size="10.00">::TriangleMesh::vertices</text>
</a>
</g>
</g>
<!-- Node1&#45;&gt;Node2 -->
<g id="edge1" class="edge"><title>Node1&#45;&gt;Node2</title>
<path fill="none" stroke="midnightblue" d="M88.0015,-118.079C107.296,-133.7 147.919,-164.697 187,-182.5 191.98,-184.769 197.218,-186.861 202.556,-188.783"/>
<polygon fill="midnightblue" stroke="midnightblue" points="201.641,-192.168 212.236,-192.06 203.886,-185.538 201.641,-192.168"/>
</g>
<!-- Node3 -->
<g id="node3" class="node"><title>Node3</title>
<g id="a_node3"><a xlink:href="classRa_1_1Core_1_1Geometry_1_1TriangleMesh.html#ad7d3f6272b902171740e50232ba56114" target="_top" xlink:title="Access the vertices normals. ">
<polygon fill="white" stroke="black" points="212,-142.5 212,-172.5 341,-172.5 341,-142.5 212,-142.5"/>
<text text-anchor="start" x="220" y="-160.5" font-family="Helvetica,sans-Serif" font-size="10.00">Ra::Core::Geometry</text>
<text text-anchor="middle" x="276.5" y="-149.5" font-family="Helvetica,sans-Serif" font-size="10.00">::TriangleMesh::normals</text>
</a>
</g>
</g>
<!-- Node1&#45;&gt;Node3 -->
<g id="edge2" class="edge"><title>Node1&#45;&gt;Node3</title>
<path fill="none" stroke="midnightblue" d="M115.342,-118.064C140.646,-124.295 174.414,-132.609 204.418,-139.997"/>
<polygon fill="midnightblue" stroke="midnightblue" points="203.885,-143.471 214.432,-142.463 205.558,-136.674 203.885,-143.471"/>
</g>
<!-- Node4 -->
<g id="node4" class="node"><title>Node4</title>
<g id="a_node4"><a xlink:href="classRa_1_1Core_1_1Geometry_1_1TriangleMesh.html#adfb86f61e519e83e15d6f3bb32d76eb9" target="_top" xlink:title="Return true if h refers to an existing attribute in *this. ">
<polygon fill="white" stroke="black" points="216.5,-93.5 216.5,-123.5 336.5,-123.5 336.5,-93.5 216.5,-93.5"/>
<text text-anchor="start" x="224.5" y="-111.5" font-family="Helvetica,sans-Serif" font-size="10.00">Ra::Core::Geometry</text>
<text text-anchor="middle" x="276.5" y="-100.5" font-family="Helvetica,sans-Serif" font-size="10.00">::TriangleMesh::isValid</text>
</a>
</g>
</g>
<!-- Node1&#45;&gt;Node4 -->
<g id="edge3" class="edge"><title>Node1&#45;&gt;Node4</title>
<path fill="none" stroke="midnightblue" d="M151.166,-108.5C169.144,-108.5 188.277,-108.5 206.008,-108.5"/>
<polygon fill="midnightblue" stroke="midnightblue" points="206.266,-112 216.266,-108.5 206.266,-105 206.266,-112"/>
</g>
<!-- Node5 -->
<g id="node5" class="node"><title>Node5</title>
<g id="a_node5"><a xlink:href="classRa_1_1Core_1_1Geometry_1_1TriangleMesh.html#a209037ce5a11ec8539a9ada7ba763e8c" target="_top" xlink:title="Get attribute by handle. ">
<polygon fill="white" stroke="black" points="210.5,-44.5 210.5,-74.5 342.5,-74.5 342.5,-44.5 210.5,-44.5"/>
<text text-anchor="start" x="218.5" y="-62.5" font-family="Helvetica,sans-Serif" font-size="10.00">Ra::Core::Geometry</text>
<text text-anchor="middle" x="276.5" y="-51.5" font-family="Helvetica,sans-Serif" font-size="10.00">::TriangleMesh::getAttrib</text>
</a>
</g>
</g>
<!-- Node1&#45;&gt;Node5 -->
<g id="edge4" class="edge"><title>Node1&#45;&gt;Node5</title>
<path fill="none" stroke="midnightblue" d="M115.342,-98.936C140.646,-92.7053 174.414,-84.3906 204.418,-77.0026"/>
<polygon fill="midnightblue" stroke="midnightblue" points="205.558,-80.3264 214.432,-74.537 203.885,-73.5294 205.558,-80.3264"/>
</g>
<!-- Node6 -->
<g id="node6" class="node"><title>Node6</title>
<g id="a_node6"><a xlink:href="classRa_1_1Engine_1_1Mesh.html#a7dd9018e643becd20e714a54cf6664db" target="_top" xlink:title="Ra::Engine::Mesh::getRenderMode">
<polygon fill="white" stroke="black" points="187,-6 187,-25 366,-25 366,-6 187,-6"/>
<text text-anchor="middle" x="276.5" y="-13" font-family="Helvetica,sans-Serif" font-size="10.00">Ra::Engine::Mesh::getRenderMode</text>
</a>
</g>
</g>
<!-- Node1&#45;&gt;Node6 -->
<g id="edge5" class="edge"><title>Node1&#45;&gt;Node6</title>
<path fill="none" stroke="midnightblue" d="M87.9435,-98.873C107.154,-83.2091 147.661,-52.2732 187,-35.5 193.952,-32.5359 201.406,-29.9804 208.931,-27.7844"/>
<polygon fill="midnightblue" stroke="midnightblue" points="210.091,-31.0962 218.826,-25.1005 208.259,-24.3402 210.091,-31.0962"/>
</g>
<!-- Node7 -->
<g id="node7" class="node"><title>Node7</title>
<g id="a_node7"><a xlink:href="namespaceRa_1_1Core_1_1Containers.html#a83257c42de08d550fe2081a5d8a13331" target="_top" xlink:title="Stores a 3&#45;dimensional hierarchy of meshes of arbitrary type. ">
<polygon fill="white" stroke="black" points="402,-0.5 402,-30.5 517,-30.5 517,-0.5 402,-0.5"/>
<text text-anchor="start" x="410" y="-18.5" font-family="Helvetica,sans-Serif" font-size="10.00">Ra::Core::Containers</text>
<text text-anchor="middle" x="459.5" y="-7.5" font-family="Helvetica,sans-Serif" font-size="10.00">::deprecated</text>
</a>
</g>
</g>
<!-- Node6&#45;&gt;Node7 -->
<g id="edge6" class="edge"><title>Node6&#45;&gt;Node7</title>
<path fill="none" stroke="midnightblue" d="M366.144,-15.5C374.805,-15.5 383.488,-15.5 391.876,-15.5"/>
<polygon fill="midnightblue" stroke="midnightblue" points="391.94,-19.0001 401.94,-15.5 391.94,-12.0001 391.94,-19.0001"/>
</g>
<!-- Node8 -->
<g id="node8" class="node"><title>Node8</title>
<g id="a_node8"><a xlink:href="namespaceRa_1_1Core_1_1Geometry.html#aa04e6052d8911b1df1bd881474debb45" target="_top" xlink:title="Ra::Core::Geometry::t">
<polygon fill="white" stroke="black" points="553,-6 553,-25 673,-25 673,-6 553,-6"/>
<text text-anchor="middle" x="613" y="-13" font-family="Helvetica,sans-Serif" font-size="10.00">Ra::Core::Geometry::t</text>
</a>
</g>
</g>
<!-- Node7&#45;&gt;Node8 -->
<g id="edge7" class="edge"><title>Node7&#45;&gt;Node8</title>
<path fill="none" stroke="midnightblue" d="M517.344,-15.5C525.582,-15.5 534.138,-15.5 542.588,-15.5"/>
<polygon fill="midnightblue" stroke="midnightblue" points="542.814,-19.0001 552.814,-15.5 542.814,-12.0001 542.814,-19.0001"/>
</g>
</g>
</svg>
