<?xml version="1.0" encoding="UTF-8" standalone="no"?>
<!DOCTYPE svg PUBLIC "-//W3C//DTD SVG 1.1//EN"
 "http://www.w3.org/Graphics/SVG/1.1/DTD/svg11.dtd">
<!-- Generated by graphviz version 2.38.0 (20140413.2041)
 -->
<!-- Title: Ra::IO::AssimpHandleDataLoader Pages: 1 -->
<svg width="238pt" height="409pt"
 viewBox="0.00 0.00 237.50 409.00" xmlns="http://www.w3.org/2000/svg" xmlns:xlink="http://www.w3.org/1999/xlink">
<g id="graph0" class="graph" transform="scale(1 1) rotate(0) translate(4 405)">
<title>Ra::IO::AssimpHandleDataLoader</title>
<polygon fill="white" stroke="none" points="-4,4 -4,-405 233.5,-405 233.5,4 -4,4"/>
<!-- Node1 -->
<g id="node1" class="node"><title>Node1</title>
<polygon fill="#bfbfbf" stroke="black" points="-1.42109e-14,-0.5 -1.42109e-14,-90.5 169,-90.5 169,-0.5 -1.42109e-14,-0.5"/>
<text text-anchor="start" x="8" y="-78.5" font-family="Helvetica,sans-Serif" font-size="10.00">Ra::IO::AssimpHandleData</text>
<text text-anchor="middle" x="84.5" y="-67.5" font-family="Helvetica,sans-Serif" font-size="10.00">Loader</text>
<polyline fill="none" stroke="black" points="-1.42109e-14,-60.5 169,-60.5 "/>
<text text-anchor="middle" x="84.5" y="-48.5" font-family="Helvetica,sans-Serif" font-size="10.00"> </text>
<polyline fill="none" stroke="black" points="-1.42109e-14,-41.5 169,-41.5 "/>
<text text-anchor="start" x="8" y="-29.5" font-family="Helvetica,sans-Serif" font-size="10.00">+ AssimpHandleDataLoader()</text>
<text text-anchor="start" x="8" y="-18.5" font-family="Helvetica,sans-Serif" font-size="10.00">+ ~AssimpHandleDataLoader()</text>
<text text-anchor="start" x="8" y="-7.5" font-family="Helvetica,sans-Serif" font-size="10.00">+ loadData()</text>
</g>
<!-- Node2 -->
<g id="node2" class="node"><title>Node2</title>
<g id="a_node2"><a xlink:href="classRa_1_1Core_1_1Asset_1_1DataLoader.html" target="_top" xlink:title="{Ra::Core::Asset::DataLoader\l\&lt; Core::Asset::HandleData \&gt;\n|# m_verbose\l|+ DataLoader()\l+ ~DataLoader()\l+ loadData()\l+ isVerbose()\l+ setVerbose()\l}">
<polygon fill="white" stroke="black" points="5.5,-128.5 5.5,-240.5 163.5,-240.5 163.5,-128.5 5.5,-128.5"/>
<text text-anchor="start" x="13.5" y="-228.5" font-family="Helvetica,sans-Serif" font-size="10.00">Ra::Core::Asset::DataLoader</text>
<text text-anchor="middle" x="84.5" y="-217.5" font-family="Helvetica,sans-Serif" font-size="10.00">&lt; Core::Asset::HandleData &gt;</text>
<polyline fill="none" stroke="black" points="5.5,-210.5 163.5,-210.5 "/>
<text text-anchor="start" x="13.5" y="-198.5" font-family="Helvetica,sans-Serif" font-size="10.00"># m_verbose</text>
<polyline fill="none" stroke="black" points="5.5,-191.5 163.5,-191.5 "/>
<text text-anchor="start" x="13.5" y="-179.5" font-family="Helvetica,sans-Serif" font-size="10.00">+ DataLoader()</text>
<text text-anchor="start" x="13.5" y="-168.5" font-family="Helvetica,sans-Serif" font-size="10.00">+ ~DataLoader()</text>
<text text-anchor="start" x="13.5" y="-157.5" font-family="Helvetica,sans-Serif" font-size="10.00">+ loadData()</text>
<text text-anchor="start" x="13.5" y="-146.5" font-family="Helvetica,sans-Serif" font-size="10.00">+ isVerbose()</text>
<text text-anchor="start" x="13.5" y="-135.5" font-family="Helvetica,sans-Serif" font-size="10.00">+ setVerbose()</text>
</a>
</g>
</g>
<!-- Node2&#45;&gt;Node1 -->
<g id="edge1" class="edge"><title>Node2&#45;&gt;Node1</title>
<path fill="none" stroke="midnightblue" d="M84.5,-118.134C84.5,-108.826 84.5,-99.4403 84.5,-90.6667"/>
<polygon fill="none" stroke="midnightblue" points="81.0001,-118.172 84.5,-128.172 88.0001,-118.172 81.0001,-118.172"/>
</g>
<!-- Node3 -->
<g id="node3" class="node"><title>Node3</title>
<g id="a_node3"><a xlink:href="classRa_1_1Core_1_1Asset_1_1DataLoader.html" target="_top" xlink:title="{Ra::Core::Asset::DataLoader\l\&lt; DATA \&gt;\n|# m_verbose\l|+ DataLoader()\l+ ~DataLoader()\l+ loadData()\l+ isVerbose()\l+ setVerbose()\l}">
<polygon fill="white" stroke="black" points="8.5,-288.5 8.5,-400.5 160.5,-400.5 160.5,-288.5 8.5,-288.5"/>
<text text-anchor="start" x="16.5" y="-388.5" font-family="Helvetica,sans-Serif" font-size="10.00">Ra::Core::Asset::DataLoader</text>
<text text-anchor="middle" x="84.5" y="-377.5" font-family="Helvetica,sans-Serif" font-size="10.00">&lt; DATA &gt;</text>
<polyline fill="none" stroke="black" points="8.5,-370.5 160.5,-370.5 "/>
<text text-anchor="start" x="16.5" y="-358.5" font-family="Helvetica,sans-Serif" font-size="10.00"># m_verbose</text>
<polyline fill="none" stroke="black" points="8.5,-351.5 160.5,-351.5 "/>
<text text-anchor="start" x="16.5" y="-339.5" font-family="Helvetica,sans-Serif" font-size="10.00">+ DataLoader()</text>
<text text-anchor="start" x="16.5" y="-328.5" font-family="Helvetica,sans-Serif" font-size="10.00">+ ~DataLoader()</text>
<text text-anchor="start" x="16.5" y="-317.5" font-family="Helvetica,sans-Serif" font-size="10.00">+ loadData()</text>
<text text-anchor="start" x="16.5" y="-306.5" font-family="Helvetica,sans-Serif" font-size="10.00">+ isVerbose()</text>
<text text-anchor="start" x="16.5" y="-295.5" font-family="Helvetica,sans-Serif" font-size="10.00">+ setVerbose()</text>
</a>
</g>
</g>
<!-- Node3&#45;&gt;Node2 -->
<g id="edge2" class="edge"><title>Node3&#45;&gt;Node2</title>
<path fill="none" stroke="orange" d="M84.5,-277.974C84.5,-265.592 84.5,-252.756 84.5,-240.73"/>
<polygon fill="orange" stroke="orange" points="81.0001,-278.239 84.5,-288.239 88.0001,-278.239 81.0001,-278.239"/>
<text text-anchor="middle" x="157" y="-262" font-family="Helvetica,sans-Serif" font-size="10.00"> &lt; Core::Asset::HandleData &gt;</text>
</g>
</g>
</svg>
