<?xml version="1.0" encoding="UTF-8" standalone="no"?>
<!DOCTYPE svg PUBLIC "-//W3C//DTD SVG 1.1//EN"
 "http://www.w3.org/Graphics/SVG/1.1/DTD/svg11.dtd">
<!-- Generated by graphviz version 2.38.0 (20140413.2041)
 -->
<!-- Title: SkinningPlugin::SkinningSystem::handleAssetLoading Pages: 1 -->
<svg width="1287pt" height="694pt"
 viewBox="0.00 0.00 1287.00 693.50" xmlns="http://www.w3.org/2000/svg" xmlns:xlink="http://www.w3.org/1999/xlink">
<g id="graph0" class="graph" transform="scale(1 1) rotate(0) translate(4 689.5)">
<title>SkinningPlugin::SkinningSystem::handleAssetLoading</title>
<polygon fill="white" stroke="none" points="-4,4 -4,-689.5 1283,-689.5 1283,4 -4,4"/>
<!-- Node1 -->
<g id="node1" class="node"><title>Node1</title>
<polygon fill="#bfbfbf" stroke="black" points="0,-400 0,-430 156,-430 156,-400 0,-400"/>
<text text-anchor="start" x="8" y="-418" font-family="Helvetica,sans-Serif" font-size="10.00">SkinningPlugin::Skinning</text>
<text text-anchor="middle" x="78" y="-407" font-family="Helvetica,sans-Serif" font-size="10.00">System::handleAssetLoading</text>
</g>
<!-- Node2 -->
<g id="node2" class="node"><title>Node2</title>
<g id="a_node2"><a xlink:href="classRa_1_1Core_1_1Asset_1_1FileData.html#a46beb82e240cf24be6f3c2127e2b4c7a" target="_top" xlink:title="DATA. ">
<polygon fill="white" stroke="black" points="217.5,-449 217.5,-479 351.5,-479 351.5,-449 217.5,-449"/>
<text text-anchor="start" x="225.5" y="-467" font-family="Helvetica,sans-Serif" font-size="10.00">Ra::Core::Asset::FileData</text>
<text text-anchor="middle" x="284.5" y="-456" font-family="Helvetica,sans-Serif" font-size="10.00">::getGeometryData</text>
</a>
</g>
</g>
<!-- Node1&#45;&gt;Node2 -->
<g id="edge1" class="edge"><title>Node1&#45;&gt;Node2</title>
<path fill="none" stroke="midnightblue" d="M141.747,-430.035C163.633,-435.279 188.374,-441.207 210.988,-446.626"/>
<polygon fill="midnightblue" stroke="midnightblue" points="210.332,-450.067 220.872,-448.994 211.963,-443.26 210.332,-450.067"/>
</g>
<!-- Node3 -->
<g id="node3" class="node"><title>Node3</title>
<g id="a_node3"><a xlink:href="classRa_1_1Core_1_1Asset_1_1FileData.html#a36b5050f3bcc3f39c14e746edb8bb697" target="_top" xlink:title="Ra::Core::Asset::FileData\l::getHandleData">
<polygon fill="white" stroke="black" points="217.5,-400 217.5,-430 351.5,-430 351.5,-400 217.5,-400"/>
<text text-anchor="start" x="225.5" y="-418" font-family="Helvetica,sans-Serif" font-size="10.00">Ra::Core::Asset::FileData</text>
<text text-anchor="middle" x="284.5" y="-407" font-family="Helvetica,sans-Serif" font-size="10.00">::getHandleData</text>
</a>
</g>
</g>
<!-- Node1&#45;&gt;Node3 -->
<g id="edge2" class="edge"><title>Node1&#45;&gt;Node3</title>
<path fill="none" stroke="midnightblue" d="M156.021,-415C172.711,-415 190.357,-415 207.025,-415"/>
<polygon fill="midnightblue" stroke="midnightblue" points="207.26,-418.5 217.26,-415 207.26,-411.5 207.26,-418.5"/>
</g>
<!-- Node4 -->
<g id="node4" class="node"><title>Node4</title>
<g id="a_node4"><a xlink:href="classSkinningPlugin_1_1SkinningComponent.html#a50a3d95f4b8725aa74b725ccd968e335" target="_top" xlink:title="Loads the skinning weights from the given Handledata. ">
<polygon fill="white" stroke="black" points="192,-351 192,-381 377,-381 377,-351 192,-351"/>
<text text-anchor="start" x="200" y="-369" font-family="Helvetica,sans-Serif" font-size="10.00">SkinningPlugin::Skinning</text>
<text text-anchor="middle" x="284.5" y="-358" font-family="Helvetica,sans-Serif" font-size="10.00">Component::handleWeightsLoading</text>
</a>
</g>
</g>
<!-- Node1&#45;&gt;Node4 -->
<g id="edge3" class="edge"><title>Node1&#45;&gt;Node4</title>
<path fill="none" stroke="midnightblue" d="M141.747,-399.965C163.633,-394.721 188.374,-388.793 210.988,-383.374"/>
<polygon fill="midnightblue" stroke="midnightblue" points="211.963,-386.74 220.872,-381.006 210.332,-379.933 211.963,-386.74"/>
</g>
<!-- Node5 -->
<g id="node5" class="node"><title>Node5</title>
<g id="a_node5"><a xlink:href="classRa_1_1Core_1_1Asset_1_1AssetData.html#a3f4a6e18b60f2de4a23c8898a7341d21" target="_top" xlink:title="Acces to the name of the asset. ">
<polygon fill="white" stroke="black" points="416.5,-425 416.5,-455 562.5,-455 562.5,-425 416.5,-425"/>
<text text-anchor="start" x="424.5" y="-443" font-family="Helvetica,sans-Serif" font-size="10.00">Ra::Core::Asset::AssetData</text>
<text text-anchor="middle" x="489.5" y="-432" font-family="Helvetica,sans-Serif" font-size="10.00">::getName</text>
</a>
</g>
</g>
<!-- Node4&#45;&gt;Node5 -->
<g id="edge4" class="edge"><title>Node4&#45;&gt;Node5</title>
<path fill="none" stroke="midnightblue" d="M353.891,-381.094C361.828,-383.675 369.691,-386.633 377,-390 394.692,-398.152 395.574,-406.293 413,-415 417.516,-417.256 422.282,-419.378 427.135,-421.358"/>
<polygon fill="midnightblue" stroke="midnightblue" points="425.941,-424.649 436.53,-424.988 428.464,-418.119 425.941,-424.649"/>
</g>
<!-- Node6 -->
<g id="node6" class="node"><title>Node6</title>
<g id="a_node6"><a xlink:href="classRa_1_1Core_1_1Asset_1_1HandleData.html#a456d73d7b367dbf29f03d037bedaeaba" target="_top" xlink:title="Return the list of HandleComponentData. ">
<polygon fill="white" stroke="black" points="413,-376 413,-406 566,-406 566,-376 413,-376"/>
<text text-anchor="start" x="421" y="-394" font-family="Helvetica,sans-Serif" font-size="10.00">Ra::Core::Asset::HandleData</text>
<text text-anchor="middle" x="489.5" y="-383" font-family="Helvetica,sans-Serif" font-size="10.00">::getComponentData</text>
</a>
</g>
</g>
<!-- Node4&#45;&gt;Node6 -->
<g id="edge5" class="edge"><title>Node4&#45;&gt;Node6</title>
<path fill="none" stroke="midnightblue" d="M377.201,-377.293C385.642,-378.333 394.174,-379.383 402.561,-380.416"/>
<polygon fill="midnightblue" stroke="midnightblue" points="402.351,-383.917 412.703,-381.665 403.206,-376.969 402.351,-383.917"/>
</g>
<!-- Node7 -->
<g id="node7" class="node"><title>Node7</title>
<g id="a_node7"><a xlink:href="namespaceRa_1_1Core_1_1Animation.html#a386a12a440bf79de7a806c397023c443" target="_top" xlink:title="Ra::Core::Animation\l::checkWeightMatrix">
<polygon fill="white" stroke="black" points="433.5,-327 433.5,-357 545.5,-357 545.5,-327 433.5,-327"/>
<text text-anchor="start" x="441.5" y="-345" font-family="Helvetica,sans-Serif" font-size="10.00">Ra::Core::Animation</text>
<text text-anchor="middle" x="489.5" y="-334" font-family="Helvetica,sans-Serif" font-size="10.00">::checkWeightMatrix</text>
</a>
</g>
</g>
<!-- Node4&#45;&gt;Node7 -->
<g id="edge6" class="edge"><title>Node4&#45;&gt;Node7</title>
<path fill="none" stroke="midnightblue" d="M377.201,-355.159C392.738,-353.322 408.585,-351.448 423.266,-349.712"/>
<polygon fill="midnightblue" stroke="midnightblue" points="423.705,-353.185 433.225,-348.535 422.883,-346.233 423.705,-353.185"/>
</g>
<!-- Node32 -->
<g id="node32" class="node"><title>Node32</title>
<g id="a_node32"><a xlink:href="namespaceRa_1_1Core_1_1Animation.html#a6a32b4881129c88ac07339fd783ebc49" target="_top" xlink:title="In&#45;place normalization of the weights, such that matrix.row( k ).sum() = 1;. ">
<polygon fill="white" stroke="black" points="433.5,-278 433.5,-308 545.5,-308 545.5,-278 433.5,-278"/>
<text text-anchor="start" x="441.5" y="-296" font-family="Helvetica,sans-Serif" font-size="10.00">Ra::Core::Animation</text>
<text text-anchor="middle" x="489.5" y="-285" font-family="Helvetica,sans-Serif" font-size="10.00">::normalizeWeights</text>
</a>
</g>
</g>
<!-- Node4&#45;&gt;Node32 -->
<g id="edge37" class="edge"><title>Node4&#45;&gt;Node32</title>
<path fill="none" stroke="midnightblue" d="M322.942,-350.94C348.235,-340.933 382.455,-327.714 413,-317 418.488,-315.075 424.222,-313.132 429.972,-311.228"/>
<polygon fill="midnightblue" stroke="midnightblue" points="431.206,-314.507 439.623,-308.072 429.03,-307.853 431.206,-314.507"/>
</g>
<!-- Node8 -->
<g id="node8" class="node"><title>Node8</title>
<g id="a_node8"><a xlink:href="namespaceRa_1_1Core_1_1Math.html#ae18c7b57c072ca801413a45e8944b15d" target="_top" xlink:title="Call std::isnormal on quaternion entries. ">
<polygon fill="white" stroke="black" points="602,-327 602,-357 753,-357 753,-327 602,-327"/>
<text text-anchor="start" x="610" y="-345" font-family="Helvetica,sans-Serif" font-size="10.00">Ra::Core::Math::checkInvalid</text>
<text text-anchor="middle" x="677.5" y="-334" font-family="Helvetica,sans-Serif" font-size="10.00">Numbers</text>
</a>
</g>
</g>
<!-- Node7&#45;&gt;Node8 -->
<g id="edge7" class="edge"><title>Node7&#45;&gt;Node8</title>
<path fill="none" stroke="midnightblue" d="M545.551,-342C560.05,-342 576.035,-342 591.707,-342"/>
<polygon fill="midnightblue" stroke="midnightblue" points="591.941,-345.5 601.941,-342 591.941,-338.5 591.941,-345.5"/>
</g>
<!-- Node31 -->
<g id="node31" class="node"><title>Node31</title>
<g id="a_node31"><a xlink:href="namespaceRa_1_1Core_1_1Animation.html#a5f77b87a09e5e7bd707190d70e4f4b64" target="_top" xlink:title="Ra::Core::Animation\l::checkNoWeightVertex">
<polygon fill="white" stroke="black" points="614.5,-376 614.5,-406 740.5,-406 740.5,-376 614.5,-376"/>
<text text-anchor="start" x="622.5" y="-394" font-family="Helvetica,sans-Serif" font-size="10.00">Ra::Core::Animation</text>
<text text-anchor="middle" x="677.5" y="-383" font-family="Helvetica,sans-Serif" font-size="10.00">::checkNoWeightVertex</text>
</a>
</g>
</g>
<!-- Node7&#45;&gt;Node31 -->
<g id="edge36" class="edge"><title>Node7&#45;&gt;Node31</title>
<path fill="none" stroke="midnightblue" d="M545.551,-356.503C565.619,-361.789 588.532,-367.826 609.521,-373.355"/>
<polygon fill="midnightblue" stroke="midnightblue" points="608.769,-376.776 619.33,-375.939 610.552,-370.007 608.769,-376.776"/>
</g>
<!-- Node9 -->
<g id="node9" class="node"><title>Node9</title>
<g id="a_node9"><a xlink:href="namespaceRa_1_1Core_1_1Math.html#a5f25a31a29b0688e349dc35a353b9766" target="_top" xlink:title="Get two vectors orthogonal to a given vector. ">
<polygon fill="white" stroke="black" points="789,-655 789,-685 951,-685 951,-655 789,-655"/>
<text text-anchor="start" x="797" y="-673" font-family="Helvetica,sans-Serif" font-size="10.00">Ra::Core::Math::getOrthogonal</text>
<text text-anchor="middle" x="870" y="-662" font-family="Helvetica,sans-Serif" font-size="10.00">Vectors</text>
</a>
</g>
</g>
<!-- Node8&#45;&gt;Node9 -->
<g id="edge8" class="edge"><title>Node8&#45;&gt;Node9</title>
<path fill="none" stroke="midnightblue" d="M743.078,-357.058C746.767,-359.595 750.133,-362.552 753,-366 832.945,-462.129 708.635,-549.222 789,-645 790.023,-646.219 791.105,-647.38 792.238,-648.485"/>
<polygon fill="midnightblue" stroke="midnightblue" points="790.397,-651.494 800.396,-654.997 794.764,-646.023 790.397,-651.494"/>
</g>
<!-- Node12 -->
<g id="node12" class="node"><title>Node12</title>
<g id="a_node12"><a xlink:href="namespaceRa_1_1Core_1_1Math.html#a5306cf8ea65c31d4bbe0560ec7bb6bb4" target="_top" xlink:title="Get the angle between two vectors. ">
<polygon fill="white" stroke="black" points="991.5,-553.5 991.5,-572.5 1110.5,-572.5 1110.5,-553.5 991.5,-553.5"/>
<text text-anchor="middle" x="1051" y="-560.5" font-family="Helvetica,sans-Serif" font-size="10.00">Ra::Core::Math::angle</text>
</a>
</g>
</g>
<!-- Node8&#45;&gt;Node12 -->
<g id="edge11" class="edge"><title>Node8&#45;&gt;Node12</title>
<path fill="none" stroke="midnightblue" d="M742.892,-357.217C746.624,-359.716 750.051,-362.622 753,-366 812.977,-434.694 719.089,-509.447 789,-568 853.763,-622.242 962.587,-594.844 1016.97,-575.936"/>
<polygon fill="midnightblue" stroke="midnightblue" points="1018.24,-579.199 1026.47,-572.526 1015.88,-572.611 1018.24,-579.199"/>
</g>
<!-- Node13 -->
<g id="node13" class="node"><title>Node13</title>
<g id="a_node13"><a xlink:href="namespaceRa_1_1Core_1_1Math.html#a5130d4a8434d4ccc82fa04bcba73d2f0" target="_top" xlink:title="Get the spherical linear interpolation between two unit non&#45;colinear vectors. ">
<polygon fill="white" stroke="black" points="812,-490.5 812,-509.5 928,-509.5 928,-490.5 812,-490.5"/>
<text text-anchor="middle" x="870" y="-497.5" font-family="Helvetica,sans-Serif" font-size="10.00">Ra::Core::Math::slerp</text>
</a>
</g>
</g>
<!-- Node8&#45;&gt;Node13 -->
<g id="edge12" class="edge"><title>Node8&#45;&gt;Node13</title>
<path fill="none" stroke="midnightblue" d="M741.313,-357.064C745.568,-359.594 749.533,-362.549 753,-366 789.458,-402.289 752.177,-440.08 789,-476 793.022,-479.924 797.66,-483.209 802.634,-485.96"/>
<polygon fill="midnightblue" stroke="midnightblue" points="801.357,-489.228 811.892,-490.357 804.36,-482.905 801.357,-489.228"/>
</g>
<!-- Node15 -->
<g id="node15" class="node"><title>Node15</title>
<g id="a_node15"><a xlink:href="namespaceRa_1_1Core_1_1Math.html#a4f441ac6a56092d52849a4f48e274aa8" target="_top" xlink:title="Get the cosine of the angle between two vectors. ">
<polygon fill="white" stroke="black" points="996,-458.5 996,-477.5 1106,-477.5 1106,-458.5 996,-458.5"/>
<text text-anchor="middle" x="1051" y="-465.5" font-family="Helvetica,sans-Serif" font-size="10.00">Ra::Core::Math::cos</text>
</a>
</g>
</g>
<!-- Node8&#45;&gt;Node15 -->
<g id="edge20" class="edge"><title>Node8&#45;&gt;Node15</title>
<path fill="none" stroke="midnightblue" d="M740.136,-357.142C744.762,-359.655 749.127,-362.585 753,-366 781.338,-390.983 758.133,-421.22 789,-443 819.645,-464.623 918.987,-468.768 985.885,-468.976"/>
<polygon fill="midnightblue" stroke="midnightblue" points="985.916,-472.475 995.917,-468.978 985.918,-465.475 985.916,-472.475"/>
</g>
<!-- Node16 -->
<g id="node16" class="node"><title>Node16</title>
<g id="a_node16"><a xlink:href="namespaceRa_1_1Core_1_1Geometry.html#aa04e6052d8911b1df1bd881474debb45" target="_top" xlink:title="Ra::Core::Geometry::t">
<polygon fill="white" stroke="black" points="810,-414.5 810,-433.5 930,-433.5 930,-414.5 810,-414.5"/>
<text text-anchor="middle" x="870" y="-421.5" font-family="Helvetica,sans-Serif" font-size="10.00">Ra::Core::Geometry::t</text>
</a>
</g>
</g>
<!-- Node8&#45;&gt;Node16 -->
<g id="edge16" class="edge"><title>Node8&#45;&gt;Node16</title>
<path fill="none" stroke="midnightblue" d="M736.014,-357.16C741.953,-359.704 747.732,-362.635 753,-366 772.879,-378.7 768.639,-393.09 789,-405 792.847,-407.25 796.945,-409.234 801.176,-410.983"/>
<polygon fill="midnightblue" stroke="midnightblue" points="800.012,-414.284 810.605,-414.45 802.427,-407.714 800.012,-414.284"/>
</g>
<!-- Node17 -->
<g id="node17" class="node"><title>Node17</title>
<g id="a_node17"><a xlink:href="namespaceRa_1_1Core_1_1Math.html#ab5addcd796ee2477977a4e219145ea85" target="_top" xlink:title="Ra::Core::Math::projectOn\lPlane">
<polygon fill="white" stroke="black" points="800,-529 800,-559 940,-559 940,-529 800,-529"/>
<text text-anchor="start" x="808" y="-547" font-family="Helvetica,sans-Serif" font-size="10.00">Ra::Core::Math::projectOn</text>
<text text-anchor="middle" x="870" y="-536" font-family="Helvetica,sans-Serif" font-size="10.00">Plane</text>
</a>
</g>
</g>
<!-- Node8&#45;&gt;Node17 -->
<g id="edge17" class="edge"><title>Node8&#45;&gt;Node17</title>
<path fill="none" stroke="midnightblue" d="M742.339,-357.181C746.253,-359.687 749.867,-362.604 753,-366 800.367,-417.345 741.408,-467.863 789,-519 790.227,-520.318 791.522,-521.567 792.876,-522.751"/>
<polygon fill="midnightblue" stroke="midnightblue" points="791.069,-525.766 801.208,-528.84 795.199,-520.114 791.069,-525.766"/>
</g>
<!-- Node18 -->
<g id="node18" class="node"><title>Node18</title>
<g id="a_node18"><a xlink:href="namespaceRa_1_1Core_1_1Math.html#a8667e211f2182821346ba4bcfe07b053" target="_top" xlink:title="Get the cotangent of the angle between two vectors. ">
<polygon fill="white" stroke="black" points="810,-376.5 810,-395.5 930,-395.5 930,-376.5 810,-376.5"/>
<text text-anchor="middle" x="870" y="-383.5" font-family="Helvetica,sans-Serif" font-size="10.00">Ra::Core::Math::cotan</text>
</a>
</g>
</g>
<!-- Node8&#45;&gt;Node18 -->
<g id="edge19" class="edge"><title>Node8&#45;&gt;Node18</title>
<path fill="none" stroke="midnightblue" d="M743.526,-357.019C767.844,-362.636 795.095,-368.93 817.971,-374.214"/>
<polygon fill="midnightblue" stroke="midnightblue" points="817.284,-377.647 827.816,-376.488 818.86,-370.827 817.284,-377.647"/>
</g>
<!-- Node19 -->
<g id="node19" class="node"><title>Node19</title>
<g id="a_node19"><a xlink:href="namespaceRa_1_1Core_1_1Math.html#a19a397c8570c4f1df64d6c055d215659" target="_top" xlink:title="Normalize a vector and returns its norm before normalization. ">
<polygon fill="white" stroke="black" points="792.5,-327 792.5,-357 947.5,-357 947.5,-327 792.5,-327"/>
<text text-anchor="start" x="800.5" y="-345" font-family="Helvetica,sans-Serif" font-size="10.00">Ra::Core::Math::getNormAnd</text>
<text text-anchor="middle" x="870" y="-334" font-family="Helvetica,sans-Serif" font-size="10.00">Normalize</text>
</a>
</g>
</g>
<!-- Node8&#45;&gt;Node19 -->
<g id="edge21" class="edge"><title>Node8&#45;&gt;Node19</title>
<path fill="none" stroke="midnightblue" d="M753.244,-342C762.76,-342 772.562,-342 782.246,-342"/>
<polygon fill="midnightblue" stroke="midnightblue" points="782.279,-345.5 792.279,-342 782.279,-338.5 782.279,-345.5"/>
</g>
<!-- Node21 -->
<g id="node21" class="node"><title>Node21</title>
<g id="a_node21"><a xlink:href="namespaceRa_1_1Core_1_1Math.html#add677f0ab64a79b894bd36d7aa6987f1" target="_top" xlink:title="Normalize a vector and returns its norm before normalization. ">
<polygon fill="white" stroke="black" points="792.5,-278 792.5,-308 947.5,-308 947.5,-278 792.5,-278"/>
<text text-anchor="start" x="800.5" y="-296" font-family="Helvetica,sans-Serif" font-size="10.00">Ra::Core::Math::getNormAnd</text>
<text text-anchor="middle" x="870" y="-285" font-family="Helvetica,sans-Serif" font-size="10.00">NormalizeSafe</text>
</a>
</g>
</g>
<!-- Node8&#45;&gt;Node21 -->
<g id="edge23" class="edge"><title>Node8&#45;&gt;Node21</title>
<path fill="none" stroke="midnightblue" d="M736.951,-326.965C757.156,-321.768 779.973,-315.899 800.885,-310.52"/>
<polygon fill="midnightblue" stroke="midnightblue" points="801.847,-313.887 810.66,-308.006 800.103,-307.108 801.847,-313.887"/>
</g>
<!-- Node22 -->
<g id="node22" class="node"><title>Node22</title>
<g id="a_node22"><a xlink:href="namespaceRa_1_1Core_1_1Math.html#a15598e77958bb1790082f621851bddef" target="_top" xlink:title="Transform a ray, direction is only transformed by linear part of the transformation, while origin is fully transformed corresponds to t*r. ">
<polygon fill="white" stroke="black" points="791,-190.5 791,-209.5 949,-209.5 949,-190.5 791,-190.5"/>
<text text-anchor="middle" x="870" y="-197.5" font-family="Helvetica,sans-Serif" font-size="10.00">Ra::Core::Math::transformRay</text>
</a>
</g>
</g>
<!-- Node8&#45;&gt;Node22 -->
<g id="edge25" class="edge"><title>Node8&#45;&gt;Node22</title>
<path fill="none" stroke="midnightblue" d="M739.392,-326.969C744.352,-324.19 748.989,-320.899 753,-317 786.271,-284.657 754.298,-249.804 789,-219 790.735,-217.46 792.572,-216.039 794.491,-214.728"/>
<polygon fill="midnightblue" stroke="midnightblue" points="796.422,-217.656 803.369,-209.657 792.95,-211.577 796.422,-217.656"/>
</g>
<!-- Node23 -->
<g id="node23" class="node"><title>Node23</title>
<g id="a_node23"><a xlink:href="namespaceRa_1_1Core_1_1Math.html#ad79b708fb40ed130ff8031d709b78504" target="_top" xlink:title="Ra::Core::Math::lookAt">
<polygon fill="white" stroke="black" points="808.5,-152.5 808.5,-171.5 931.5,-171.5 931.5,-152.5 808.5,-152.5"/>
<text text-anchor="middle" x="870" y="-159.5" font-family="Helvetica,sans-Serif" font-size="10.00">Ra::Core::Math::lookAt</text>
</a>
</g>
</g>
<!-- Node8&#45;&gt;Node23 -->
<g id="edge26" class="edge"><title>Node8&#45;&gt;Node23</title>
<path fill="none" stroke="midnightblue" d="M740.498,-326.933C745.103,-324.162 749.362,-320.883 753,-317 795.753,-271.374 744.225,-224.643 789,-181 792.105,-177.973 795.6,-175.398 799.347,-173.208"/>
<polygon fill="midnightblue" stroke="midnightblue" points="801.021,-176.286 808.488,-168.77 797.963,-169.989 801.021,-176.286"/>
</g>
<!-- Node24 -->
<g id="node24" class="node"><title>Node24</title>
<g id="a_node24"><a xlink:href="namespaceRa_1_1Core_1_1Math.html#ab5436769ec59975b2a35b83a86defd2c" target="_top" xlink:title="Ra::Core::Math::perspective">
<polygon fill="white" stroke="black" points="795.5,-114.5 795.5,-133.5 944.5,-133.5 944.5,-114.5 795.5,-114.5"/>
<text text-anchor="middle" x="870" y="-121.5" font-family="Helvetica,sans-Serif" font-size="10.00">Ra::Core::Math::perspective</text>
</a>
</g>
</g>
<!-- Node8&#45;&gt;Node24 -->
<g id="edge27" class="edge"><title>Node8&#45;&gt;Node24</title>
<path fill="none" stroke="midnightblue" d="M741.079,-326.927C745.5,-324.157 749.56,-320.879 753,-317 805.4,-257.918 733.979,-199.649 789,-143 790.265,-141.698 791.602,-140.478 793,-139.335"/>
<polygon fill="midnightblue" stroke="midnightblue" points="795.224,-142.06 801.61,-133.606 791.346,-136.232 795.224,-142.06"/>
</g>
<!-- Node25 -->
<g id="node25" class="node"><title>Node25</title>
<g id="a_node25"><a xlink:href="namespaceRa_1_1Core_1_1Math.html#a8b773ee57d017ddd6a3d2612dd426f71" target="_top" xlink:title="Ra::Core::Math::orthographic">
<polygon fill="white" stroke="black" points="793,-76.5 793,-95.5 947,-95.5 947,-76.5 793,-76.5"/>
<text text-anchor="middle" x="870" y="-83.5" font-family="Helvetica,sans-Serif" font-size="10.00">Ra::Core::Math::orthographic</text>
</a>
</g>
</g>
<!-- Node8&#45;&gt;Node25 -->
<g id="edge28" class="edge"><title>Node8&#45;&gt;Node25</title>
<path fill="none" stroke="midnightblue" d="M741.577,-326.837C745.83,-324.085 749.719,-320.836 753,-317 815.124,-244.375 723.652,-174.738 789,-105 790.208,-103.711 791.486,-102.502 792.825,-101.369"/>
<polygon fill="midnightblue" stroke="midnightblue" points="794.842,-104.229 801.087,-95.6701 790.867,-98.4669 794.842,-104.229"/>
</g>
<!-- Node26 -->
<g id="node26" class="node"><title>Node26</title>
<g id="a_node26"><a xlink:href="namespaceRa_1_1Core_1_1Math.html#a941baf20065c77d494ca251e6e104f31" target="_top" xlink:title="Returns the quaternion q multipled by a scalar factor of k. ">
<polygon fill="white" stroke="black" points="811,-38.5 811,-57.5 929,-57.5 929,-38.5 811,-38.5"/>
<text text-anchor="middle" x="870" y="-45.5" font-family="Helvetica,sans-Serif" font-size="10.00">Ra::Core::Math::scale</text>
</a>
</g>
</g>
<!-- Node8&#45;&gt;Node26 -->
<g id="edge29" class="edge"><title>Node8&#45;&gt;Node26</title>
<path fill="none" stroke="midnightblue" d="M741.684,-326.927C745.913,-324.155 749.767,-320.877 753,-317 824.89,-230.782 713.28,-149.874 789,-67 792.579,-63.0825 796.806,-59.9022 801.416,-57.3274"/>
<polygon fill="midnightblue" stroke="midnightblue" points="803.048,-60.4299 810.686,-53.0878 800.136,-54.0641 803.048,-60.4299"/>
</g>
<!-- Node27 -->
<g id="node27" class="node"><title>Node27</title>
<g id="a_node27"><a xlink:href="namespaceRa_1_1Core_1_1Math.html#a0523a53d2d94a623e194830837863c4c" target="_top" xlink:title="Returns the sum of two quaternions. ">
<polygon fill="white" stroke="black" points="814.5,-0.5 814.5,-19.5 925.5,-19.5 925.5,-0.5 814.5,-0.5"/>
<text text-anchor="middle" x="870" y="-7.5" font-family="Helvetica,sans-Serif" font-size="10.00">Ra::Core::Math::add</text>
</a>
</g>
</g>
<!-- Node8&#45;&gt;Node27 -->
<g id="edge30" class="edge"><title>Node8&#45;&gt;Node27</title>
<path fill="none" stroke="midnightblue" d="M741.764,-326.993C745.975,-324.207 749.804,-320.907 753,-317 834.682,-217.16 702.882,-125.04 789,-29 793.378,-24.1177 798.761,-20.3758 804.647,-17.5222"/>
<polygon fill="midnightblue" stroke="midnightblue" points="806.224,-20.6625 814.238,-13.733 803.652,-14.1521 806.224,-20.6625"/>
</g>
<!-- Node28 -->
<g id="node28" class="node"><title>Node28</title>
<g id="a_node28"><a xlink:href="namespaceRa_1_1Core_1_1Math.html#aa5c9bddd5fdbbdbcdb661348982ff204" target="_top" xlink:title="Returns the sum of two quaternions, resolving antipodality by flipping the sign of q2 if q1...">
<polygon fill="white" stroke="black" points="801.5,-616.5 801.5,-635.5 938.5,-635.5 938.5,-616.5 801.5,-616.5"/>
<text text-anchor="middle" x="870" y="-623.5" font-family="Helvetica,sans-Serif" font-size="10.00">Ra::Core::Math::addQlerp</text>
</a>
</g>
</g>
<!-- Node8&#45;&gt;Node28 -->
<g id="edge31" class="edge"><title>Node8&#45;&gt;Node28</title>
<path fill="none" stroke="midnightblue" d="M742.988,-357.134C746.698,-359.653 750.093,-362.586 753,-366 821.779,-446.791 719.409,-521.908 789,-602 792.219,-605.704 795.985,-608.849 800.097,-611.517"/>
<polygon fill="midnightblue" stroke="midnightblue" points="798.504,-614.635 808.959,-616.35 801.856,-608.489 798.504,-614.635"/>
</g>
<!-- Node30 -->
<g id="node30" class="node"><title>Node30</title>
<g id="a_node30"><a xlink:href="namespaceRa_1_1Core_1_1Math.html#aa5414be6d83af5b67fb48c22e4f49679" target="_top" xlink:title="Decompose a given rotation Qin into a swing rotation and a twist rotation. ">
<polygon fill="white" stroke="black" points="801.5,-229 801.5,-259 938.5,-259 938.5,-229 801.5,-229"/>
<text text-anchor="start" x="809.5" y="-247" font-family="Helvetica,sans-Serif" font-size="10.00">Ra::Core::Math::getSwing</text>
<text text-anchor="middle" x="870" y="-236" font-family="Helvetica,sans-Serif" font-size="10.00">Twist</text>
</a>
</g>
</g>
<!-- Node8&#45;&gt;Node30 -->
<g id="edge34" class="edge"><title>Node8&#45;&gt;Node30</title>
<path fill="none" stroke="midnightblue" d="M735.649,-326.953C741.785,-324.152 747.71,-320.861 753,-317 774.828,-301.069 766.917,-283.576 789,-268 791.125,-266.501 793.346,-265.094 795.637,-263.774"/>
<polygon fill="midnightblue" stroke="midnightblue" points="797.469,-266.768 804.779,-259.099 794.282,-260.536 797.469,-266.768"/>
</g>
<!-- Node10 -->
<g id="node10" class="node"><title>Node10</title>
<g id="a_node10"><a xlink:href="namespaceRa_1_1Core_1_1Math.html#a90f0fe9079f5bb86c721ea4b61738470" target="_top" xlink:title="Returns the sign of any numeric type as { &#45;1, 0, 1}. ">
<polygon fill="white" stroke="black" points="994.5,-657.5 994.5,-676.5 1107.5,-676.5 1107.5,-657.5 994.5,-657.5"/>
<text text-anchor="middle" x="1051" y="-664.5" font-family="Helvetica,sans-Serif" font-size="10.00">Ra::Core::Math::sign</text>
</a>
</g>
</g>
<!-- Node9&#45;&gt;Node10 -->
<g id="edge9" class="edge"><title>Node9&#45;&gt;Node10</title>
<path fill="none" stroke="midnightblue" d="M951.076,-668.658C962.151,-668.472 973.421,-668.283 984.196,-668.103"/>
<polygon fill="midnightblue" stroke="midnightblue" points="984.414,-671.6 994.354,-667.933 984.297,-664.601 984.414,-671.6"/>
</g>
<!-- Node11 -->
<g id="node11" class="node"><title>Node11</title>
<g id="a_node11"><a xlink:href="namespaceRa_1_1Core_1_1Math.html#ae4e681e0738fe7e5bfd028c6270b597a" target="_top" xlink:title="Ra::Core::Math::signum">
<polygon fill="white" stroke="black" points="1151,-657.5 1151,-676.5 1279,-676.5 1279,-657.5 1151,-657.5"/>
<text text-anchor="middle" x="1215" y="-664.5" font-family="Helvetica,sans-Serif" font-size="10.00">Ra::Core::Math::signum</text>
</a>
</g>
</g>
<!-- Node10&#45;&gt;Node11 -->
<g id="edge10" class="edge"><title>Node10&#45;&gt;Node11</title>
<path fill="none" stroke="midnightblue" d="M1107.75,-667C1118.4,-667 1129.7,-667 1140.8,-667"/>
<polygon fill="midnightblue" stroke="midnightblue" points="1140.92,-670.5 1150.92,-667 1140.92,-663.5 1140.92,-670.5"/>
</g>
<!-- Node13&#45;&gt;Node12 -->
<g id="edge14" class="edge"><title>Node13&#45;&gt;Node12</title>
<path fill="none" stroke="midnightblue" d="M917.524,-509.514C928.607,-512.201 940.315,-515.392 951,-519 975.543,-527.289 1002.33,-539.395 1021.85,-548.811"/>
<polygon fill="midnightblue" stroke="midnightblue" points="1020.55,-552.072 1031.07,-553.322 1023.63,-545.784 1020.55,-552.072"/>
</g>
<!-- Node14 -->
<g id="node14" class="node"><title>Node14</title>
<g id="a_node14"><a xlink:href="namespaceOpenMesh.html#a575b338f0fc9ecb5393d23e977e6ac38" target="_top" xlink:title="OpenMesh::dot">
<polygon fill="white" stroke="black" points="1006.5,-502.5 1006.5,-521.5 1095.5,-521.5 1095.5,-502.5 1006.5,-502.5"/>
<text text-anchor="middle" x="1051" y="-509.5" font-family="Helvetica,sans-Serif" font-size="10.00">OpenMesh::dot</text>
</a>
</g>
</g>
<!-- Node13&#45;&gt;Node14 -->
<g id="edge13" class="edge"><title>Node13&#45;&gt;Node14</title>
<path fill="none" stroke="midnightblue" d="M928.129,-503.83C949.935,-505.292 974.704,-506.952 996.191,-508.393"/>
<polygon fill="midnightblue" stroke="midnightblue" points="996.236,-511.903 1006.45,-509.08 996.704,-504.919 996.236,-511.903"/>
</g>
<!-- Node13&#45;&gt;Node15 -->
<g id="edge15" class="edge"><title>Node13&#45;&gt;Node15</title>
<path fill="none" stroke="midnightblue" d="M924.221,-490.486C943.882,-486.971 966.355,-482.953 986.814,-479.296"/>
<polygon fill="midnightblue" stroke="midnightblue" points="987.447,-482.738 996.675,-477.533 986.215,-475.848 987.447,-482.738"/>
</g>
<!-- Node17&#45;&gt;Node14 -->
<g id="edge18" class="edge"><title>Node17&#45;&gt;Node14</title>
<path fill="none" stroke="midnightblue" d="M940.206,-531.628C958.792,-528.305 978.611,-524.762 996.222,-521.614"/>
<polygon fill="midnightblue" stroke="midnightblue" points="997.082,-525.016 1006.31,-519.81 995.85,-518.125 997.082,-525.016"/>
</g>
<!-- Node20 -->
<g id="node20" class="node"><title>Node20</title>
<g id="a_node20"><a xlink:href="namespaceOpenMesh.html#a8205f789ce08919bc11c58383574596c" target="_top" xlink:title="OpenMesh::norm">
<polygon fill="white" stroke="black" points="1001.5,-283.5 1001.5,-302.5 1100.5,-302.5 1100.5,-283.5 1001.5,-283.5"/>
<text text-anchor="middle" x="1051" y="-290.5" font-family="Helvetica,sans-Serif" font-size="10.00">OpenMesh::norm</text>
</a>
</g>
</g>
<!-- Node19&#45;&gt;Node20 -->
<g id="edge22" class="edge"><title>Node19&#45;&gt;Node20</title>
<path fill="none" stroke="midnightblue" d="M926.166,-326.899C951.603,-319.935 981.401,-311.778 1005.39,-305.211"/>
<polygon fill="midnightblue" stroke="midnightblue" points="1006.57,-308.518 1015.29,-302.502 1004.72,-301.766 1006.57,-308.518"/>
</g>
<!-- Node21&#45;&gt;Node20 -->
<g id="edge24" class="edge"><title>Node21&#45;&gt;Node20</title>
<path fill="none" stroke="midnightblue" d="M947.691,-293C962.209,-293 977.187,-293 991.052,-293"/>
<polygon fill="midnightblue" stroke="midnightblue" points="991.413,-296.5 1001.41,-293 991.412,-289.5 991.413,-296.5"/>
</g>
<!-- Node28&#45;&gt;Node10 -->
<g id="edge32" class="edge"><title>Node28&#45;&gt;Node10</title>
<path fill="none" stroke="midnightblue" d="M912.516,-635.509C938.179,-641.387 971.315,-648.977 998.626,-655.233"/>
<polygon fill="midnightblue" stroke="midnightblue" points="997.87,-658.65 1008.4,-657.471 999.433,-651.827 997.87,-658.65"/>
</g>
<!-- Node29 -->
<g id="node29" class="node"><title>Node29</title>
<g id="a_node29"><a xlink:href="namespaceRa_1_1Core_1_1Math.html#a810d6d50b61cc01cda1d54527de864d0" target="_top" xlink:title="Returns the sign of any numeric type as { &#45;1, 1} Note: signNZ(0) returns 1 for any integral type but ...">
<polygon fill="white" stroke="black" points="987,-616.5 987,-635.5 1115,-635.5 1115,-616.5 987,-616.5"/>
<text text-anchor="middle" x="1051" y="-623.5" font-family="Helvetica,sans-Serif" font-size="10.00">Ra::Core::Math::signNZ</text>
</a>
</g>
</g>
<!-- Node28&#45;&gt;Node29 -->
<g id="edge33" class="edge"><title>Node28&#45;&gt;Node29</title>
<path fill="none" stroke="midnightblue" d="M938.672,-626C951.171,-626 964.275,-626 976.926,-626"/>
<polygon fill="midnightblue" stroke="midnightblue" points="976.954,-629.5 986.954,-626 976.954,-622.5 976.954,-629.5"/>
</g>
<!-- Node30&#45;&gt;Node20 -->
<g id="edge35" class="edge"><title>Node30&#45;&gt;Node20</title>
<path fill="none" stroke="midnightblue" d="M926.166,-259.101C951.603,-266.065 981.401,-274.222 1005.39,-280.789"/>
<polygon fill="midnightblue" stroke="midnightblue" points="1004.72,-284.234 1015.29,-283.498 1006.57,-277.482 1004.72,-284.234"/>
</g>
<!-- Node33 -->
<g id="node33" class="node"><title>Node33</title>
<g id="a_node33"><a xlink:href="namespaceRa_1_1Core_1_1Math.html#a46540d56930b4c1ff3b115872cde4893" target="_top" xlink:title="Compare two numbers such that |x&#45;y| &lt; espilon*epsilonBoostFactor. ">
<polygon fill="white" stroke="black" points="606,-278 606,-308 749,-308 749,-278 606,-278"/>
<text text-anchor="start" x="614" y="-296" font-family="Helvetica,sans-Serif" font-size="10.00">Ra::Core::Math::areApprox</text>
<text text-anchor="middle" x="677.5" y="-285" font-family="Helvetica,sans-Serif" font-size="10.00">Equal</text>
</a>
</g>
</g>
<!-- Node32&#45;&gt;Node33 -->
<g id="edge38" class="edge"><title>Node32&#45;&gt;Node33</title>
<path fill="none" stroke="midnightblue" d="M545.551,-293C561.164,-293 578.5,-293 595.312,-293"/>
<polygon fill="midnightblue" stroke="midnightblue" points="595.692,-296.5 605.692,-293 595.692,-289.5 595.692,-296.5"/>
</g>
</g>
</svg>
