<?xml version="1.0" encoding="UTF-8" standalone="no"?>
<!DOCTYPE svg PUBLIC "-//W3C//DTD SVG 1.1//EN"
 "http://www.w3.org/Graphics/SVG/1.1/DTD/svg11.dtd">
<!-- Generated by graphviz version 2.38.0 (20140413.2041)
 -->
<!-- Title: Ra::Gui::TrackballCameraManipulator::handleWheelEvent Pages: 1 -->
<svg width="729pt" height="235pt"
 viewBox="0.00 0.00 729.00 235.00" xmlns="http://www.w3.org/2000/svg" xmlns:xlink="http://www.w3.org/1999/xlink">
<g id="graph0" class="graph" transform="scale(1 1) rotate(0) translate(4 231)">
<title>Ra::Gui::TrackballCameraManipulator::handleWheelEvent</title>
<polygon fill="white" stroke="none" points="-4,4 -4,-231 725,-231 725,4 -4,4"/>
<!-- Node1 -->
<g id="node1" class="node"><title>Node1</title>
<polygon fill="#bfbfbf" stroke="black" points="0,-98.5 0,-128.5 167,-128.5 167,-98.5 0,-98.5"/>
<text text-anchor="start" x="8" y="-116.5" font-family="Helvetica,sans-Serif" font-size="10.00">Ra::Gui::TrackballCamera</text>
<text text-anchor="middle" x="83.5" y="-105.5" font-family="Helvetica,sans-Serif" font-size="10.00">Manipulator::handleWheelEvent</text>
</g>
<!-- Node2 -->
<g id="node2" class="node"><title>Node2</title>
<g id="a_node2"><a xlink:href="classRa_1_1Gui_1_1TrackballCameraManipulator.html#acd8502e9842b5f79c47a6288c3f7fecd" target="_top" xlink:title="Ra::Gui::TrackballCamera\lManipulator::handleCameraZoom">
<polygon fill="white" stroke="black" points="203,-196.5 203,-226.5 382,-226.5 382,-196.5 203,-196.5"/>
<text text-anchor="start" x="211" y="-214.5" font-family="Helvetica,sans-Serif" font-size="10.00">Ra::Gui::TrackballCamera</text>
<text text-anchor="middle" x="292.5" y="-203.5" font-family="Helvetica,sans-Serif" font-size="10.00">Manipulator::handleCameraZoom</text>
</a>
</g>
</g>
<!-- Node1&#45;&gt;Node2 -->
<g id="edge1" class="edge"><title>Node1&#45;&gt;Node2</title>
<path fill="none" stroke="midnightblue" d="M104.458,-128.536C127.228,-145.061 166.098,-171.395 203,-187.5 207.623,-189.518 212.458,-191.404 217.381,-193.16"/>
<polygon fill="midnightblue" stroke="midnightblue" points="216.33,-196.499 226.925,-196.376 218.566,-189.866 216.33,-196.499"/>
</g>
<!-- Node5 -->
<g id="node5" class="node"><title>Node5</title>
<g id="a_node5"><a xlink:href="classRa_1_1Engine_1_1Light.html#a1bf2c510e62b2a99f0012a39ad218378" target="_top" xlink:title="Set the position of the light source. ">
<polygon fill="white" stroke="black" points="241.5,-147.5 241.5,-177.5 343.5,-177.5 343.5,-147.5 241.5,-147.5"/>
<text text-anchor="start" x="249.5" y="-165.5" font-family="Helvetica,sans-Serif" font-size="10.00">Ra::Engine::Light::</text>
<text text-anchor="middle" x="292.5" y="-154.5" font-family="Helvetica,sans-Serif" font-size="10.00">setPosition</text>
</a>
</g>
</g>
<!-- Node1&#45;&gt;Node5 -->
<g id="edge4" class="edge"><title>Node1&#45;&gt;Node5</title>
<path fill="none" stroke="midnightblue" d="M148.014,-128.535C174.57,-134.821 205.276,-142.09 231.452,-148.286"/>
<polygon fill="midnightblue" stroke="midnightblue" points="230.707,-151.706 241.245,-150.604 232.32,-144.894 230.707,-151.706"/>
</g>
<!-- Node7 -->
<g id="node7" class="node"><title>Node7</title>
<g id="a_node7"><a xlink:href="classRa_1_1Engine_1_1Camera.html#a724a052e94817af7e602129467c8696f" target="_top" xlink:title="Return the position. ">
<polygon fill="white" stroke="black" points="237,-98.5 237,-128.5 348,-128.5 348,-98.5 237,-98.5"/>
<text text-anchor="start" x="245" y="-116.5" font-family="Helvetica,sans-Serif" font-size="10.00">Ra::Engine::Camera</text>
<text text-anchor="middle" x="292.5" y="-105.5" font-family="Helvetica,sans-Serif" font-size="10.00">::getPosition</text>
</a>
</g>
</g>
<!-- Node1&#45;&gt;Node7 -->
<g id="edge6" class="edge"><title>Node1&#45;&gt;Node7</title>
<path fill="none" stroke="midnightblue" d="M167.204,-113.5C186.968,-113.5 207.786,-113.5 226.615,-113.5"/>
<polygon fill="midnightblue" stroke="midnightblue" points="226.851,-117 236.851,-113.5 226.851,-110 226.851,-117"/>
</g>
<!-- Node8 -->
<g id="node8" class="node"><title>Node8</title>
<g id="a_node8"><a xlink:href="classRa_1_1Engine_1_1Light.html#a24e11b300dfe4e2a785d87b6de74b036" target="_top" xlink:title="set the direction of lighting ">
<polygon fill="white" stroke="black" points="241.5,-49.5 241.5,-79.5 343.5,-79.5 343.5,-49.5 241.5,-49.5"/>
<text text-anchor="start" x="249.5" y="-67.5" font-family="Helvetica,sans-Serif" font-size="10.00">Ra::Engine::Light::</text>
<text text-anchor="middle" x="292.5" y="-56.5" font-family="Helvetica,sans-Serif" font-size="10.00">setDirection</text>
</a>
</g>
</g>
<!-- Node1&#45;&gt;Node8 -->
<g id="edge7" class="edge"><title>Node1&#45;&gt;Node8</title>
<path fill="none" stroke="midnightblue" d="M148.014,-98.4654C174.57,-92.1791 205.276,-84.9104 231.452,-78.7142"/>
<polygon fill="midnightblue" stroke="midnightblue" points="232.32,-82.1057 241.245,-76.3962 230.707,-75.2939 232.32,-82.1057"/>
</g>
<!-- Node9 -->
<g id="node9" class="node"><title>Node9</title>
<g id="a_node9"><a xlink:href="classRa_1_1Engine_1_1Camera.html#a23be7aa714c0e9c2a9429dfc9ef2c53a" target="_top" xlink:title="Return the direction the camera is looking at. ">
<polygon fill="white" stroke="black" points="237,-0.5 237,-30.5 348,-30.5 348,-0.5 237,-0.5"/>
<text text-anchor="start" x="245" y="-18.5" font-family="Helvetica,sans-Serif" font-size="10.00">Ra::Engine::Camera</text>
<text text-anchor="middle" x="292.5" y="-7.5" font-family="Helvetica,sans-Serif" font-size="10.00">::getDirection</text>
</a>
</g>
</g>
<!-- Node1&#45;&gt;Node9 -->
<g id="edge8" class="edge"><title>Node1&#45;&gt;Node9</title>
<path fill="none" stroke="midnightblue" d="M104.937,-98.4613C127.819,-82.2208 166.494,-56.5282 203,-40.5 210.67,-37.1323 218.914,-34.0948 227.174,-31.3938"/>
<polygon fill="midnightblue" stroke="midnightblue" points="228.34,-34.6965 236.845,-28.3778 226.256,-28.0139 228.34,-34.6965"/>
</g>
<!-- Node3 -->
<g id="node3" class="node"><title>Node3</title>
<g id="a_node3"><a xlink:href="namespaceRa_1_1Core_1_1Math.html#a90f0fe9079f5bb86c721ea4b61738470" target="_top" xlink:title="Returns the sign of any numeric type as { &#45;1, 0, 1}. ">
<polygon fill="white" stroke="black" points="431,-202 431,-221 544,-221 544,-202 431,-202"/>
<text text-anchor="middle" x="487.5" y="-209" font-family="Helvetica,sans-Serif" font-size="10.00">Ra::Core::Math::sign</text>
</a>
</g>
</g>
<!-- Node2&#45;&gt;Node3 -->
<g id="edge2" class="edge"><title>Node2&#45;&gt;Node3</title>
<path fill="none" stroke="midnightblue" d="M382.092,-211.5C395.098,-211.5 408.297,-211.5 420.735,-211.5"/>
<polygon fill="midnightblue" stroke="midnightblue" points="420.984,-215 430.984,-211.5 420.984,-208 420.984,-215"/>
</g>
<!-- Node4 -->
<g id="node4" class="node"><title>Node4</title>
<g id="a_node4"><a xlink:href="namespaceRa_1_1Core_1_1Math.html#ae4e681e0738fe7e5bfd028c6270b597a" target="_top" xlink:title="Ra::Core::Math::signum">
<polygon fill="white" stroke="black" points="593,-202 593,-221 721,-221 721,-202 593,-202"/>
<text text-anchor="middle" x="657" y="-209" font-family="Helvetica,sans-Serif" font-size="10.00">Ra::Core::Math::signum</text>
</a>
</g>
</g>
<!-- Node3&#45;&gt;Node4 -->
<g id="edge3" class="edge"><title>Node3&#45;&gt;Node4</title>
<path fill="none" stroke="midnightblue" d="M544.275,-211.5C556.59,-211.5 569.817,-211.5 582.709,-211.5"/>
<polygon fill="midnightblue" stroke="midnightblue" points="582.951,-215 592.951,-211.5 582.951,-208 582.951,-215"/>
</g>
<!-- Node6 -->
<g id="node6" class="node"><title>Node6</title>
<g id="a_node6"><a xlink:href="classRa_1_1Core_1_1Utils_1_1ColorBase.html#a467dad42627c64495356c4fd21b3ac81" target="_top" xlink:title="Ra::Core::Utils::ColorBase\l\&lt; Scalar \&gt;::White">
<polygon fill="white" stroke="black" points="418,-147.5 418,-177.5 557,-177.5 557,-147.5 418,-147.5"/>
<text text-anchor="start" x="426" y="-165.5" font-family="Helvetica,sans-Serif" font-size="10.00">Ra::Core::Utils::ColorBase</text>
<text text-anchor="middle" x="487.5" y="-154.5" font-family="Helvetica,sans-Serif" font-size="10.00">&lt; Scalar &gt;::White</text>
</a>
</g>
</g>
<!-- Node5&#45;&gt;Node6 -->
<g id="edge5" class="edge"><title>Node5&#45;&gt;Node6</title>
<path fill="none" stroke="midnightblue" d="M343.705,-162.5C363.181,-162.5 385.956,-162.5 407.522,-162.5"/>
<polygon fill="midnightblue" stroke="midnightblue" points="407.659,-166 417.659,-162.5 407.659,-159 407.659,-166"/>
</g>
</g>
</svg>
