<?xml version="1.0" encoding="UTF-8" standalone="no"?>
<!DOCTYPE svg PUBLIC "-//W3C//DTD SVG 1.1//EN"
 "http://www.w3.org/Graphics/SVG/1.1/DTD/svg11.dtd">
<!-- Generated by graphviz version 2.38.0 (20140413.2041)
 -->
<!-- Title: Ra::Gui::ScaleGizmo::mouseMove Pages: 1 -->
<svg width="740pt" height="396pt"
 viewBox="0.00 0.00 740.00 395.50" xmlns="http://www.w3.org/2000/svg" xmlns:xlink="http://www.w3.org/1999/xlink">
<g id="graph0" class="graph" transform="scale(1 1) rotate(0) translate(4 391.5)">
<title>Ra::Gui::ScaleGizmo::mouseMove</title>
<polygon fill="white" stroke="none" points="-4,4 -4,-391.5 736,-391.5 736,4 -4,4"/>
<!-- Node1 -->
<g id="node1" class="node"><title>Node1</title>
<polygon fill="#bfbfbf" stroke="black" points="0,-195.5 0,-225.5 113,-225.5 113,-195.5 0,-195.5"/>
<text text-anchor="start" x="8" y="-213.5" font-family="Helvetica,sans-Serif" font-size="10.00">Ra::Gui::ScaleGizmo</text>
<text text-anchor="middle" x="56.5" y="-202.5" font-family="Helvetica,sans-Serif" font-size="10.00">::mouseMove</text>
</g>
<!-- Node2 -->
<g id="node2" class="node"><title>Node2</title>
<g id="a_node2"><a xlink:href="classRa_1_1Gui_1_1Gizmo.html#a3b27e68ee1608637f7197a35e1a916e2" target="_top" xlink:title="read access to the gizmo render objects Meshes ">
<polygon fill="white" stroke="black" points="149,-368 149,-387 289,-387 289,-368 149,-368"/>
<text text-anchor="middle" x="219" y="-375" font-family="Helvetica,sans-Serif" font-size="10.00">Ra::Gui::Gizmo::roMeshes</text>
</a>
</g>
</g>
<!-- Node1&#45;&gt;Node2 -->
<g id="edge1" class="edge"><title>Node1&#45;&gt;Node2</title>
<path fill="none" stroke="midnightblue" d="M62.579,-225.689C73.4418,-255.798 101.853,-323.185 149,-358.5 151.505,-360.376 154.185,-362.067 156.981,-363.591"/>
<polygon fill="midnightblue" stroke="midnightblue" points="155.694,-366.853 166.235,-367.912 158.655,-360.51 155.694,-366.853"/>
</g>
<!-- Node3 -->
<g id="node3" class="node"><title>Node3</title>
<g id="a_node3"><a xlink:href="classRa_1_1Core_1_1Utils_1_1ColorBase.html#a983f43f3e20bc518a4c2c35fadd4cc7a" target="_top" xlink:title="Ra::Core::Utils::ColorBase\l\&lt; Scalar \&gt;::Yellow">
<polygon fill="white" stroke="black" points="149.5,-318.5 149.5,-348.5 288.5,-348.5 288.5,-318.5 149.5,-318.5"/>
<text text-anchor="start" x="157.5" y="-336.5" font-family="Helvetica,sans-Serif" font-size="10.00">Ra::Core::Utils::ColorBase</text>
<text text-anchor="middle" x="219" y="-325.5" font-family="Helvetica,sans-Serif" font-size="10.00">&lt; Scalar &gt;::Yellow</text>
</a>
</g>
</g>
<!-- Node1&#45;&gt;Node3 -->
<g id="edge2" class="edge"><title>Node1&#45;&gt;Node3</title>
<path fill="none" stroke="midnightblue" d="M67.8418,-225.753C83.1813,-247.293 113.952,-286.55 149,-309.5 151.437,-311.096 153.992,-312.599 156.625,-314.012"/>
<polygon fill="midnightblue" stroke="midnightblue" points="155.29,-317.255 165.814,-318.479 158.351,-310.959 155.29,-317.255"/>
</g>
<!-- Node4 -->
<g id="node4" class="node"><title>Node4</title>
<g id="a_node4"><a xlink:href="classRa_1_1Core_1_1Utils_1_1ColorBase.html#a1b7a2d694cf0fe9382aa80868253f0d1" target="_top" xlink:title="Ra::Core::Utils::ColorBase\l\&lt; Scalar \&gt;::Red">
<polygon fill="white" stroke="black" points="149.5,-269.5 149.5,-299.5 288.5,-299.5 288.5,-269.5 149.5,-269.5"/>
<text text-anchor="start" x="157.5" y="-287.5" font-family="Helvetica,sans-Serif" font-size="10.00">Ra::Core::Utils::ColorBase</text>
<text text-anchor="middle" x="219" y="-276.5" font-family="Helvetica,sans-Serif" font-size="10.00">&lt; Scalar &gt;::Red</text>
</a>
</g>
</g>
<!-- Node1&#45;&gt;Node4 -->
<g id="edge3" class="edge"><title>Node1&#45;&gt;Node4</title>
<path fill="none" stroke="midnightblue" d="M82.5649,-225.666C100.639,-236.235 125.833,-250.226 149,-260.5 153.089,-262.313 157.36,-264.082 161.687,-265.785"/>
<polygon fill="midnightblue" stroke="midnightblue" points="160.605,-269.118 171.197,-269.398 163.092,-262.575 160.605,-269.118"/>
</g>
<!-- Node5 -->
<g id="node5" class="node"><title>Node5</title>
<g id="a_node5"><a xlink:href="classRa_1_1Core_1_1Utils_1_1ColorBase.html#a54193413c10301c1edf46fc41fb09dfb" target="_top" xlink:title="Ra::Core::Utils::ColorBase\l\&lt; Scalar \&gt;::Green">
<polygon fill="white" stroke="black" points="149.5,-220.5 149.5,-250.5 288.5,-250.5 288.5,-220.5 149.5,-220.5"/>
<text text-anchor="start" x="157.5" y="-238.5" font-family="Helvetica,sans-Serif" font-size="10.00">Ra::Core::Utils::ColorBase</text>
<text text-anchor="middle" x="219" y="-227.5" font-family="Helvetica,sans-Serif" font-size="10.00">&lt; Scalar &gt;::Green</text>
</a>
</g>
</g>
<!-- Node1&#45;&gt;Node5 -->
<g id="edge4" class="edge"><title>Node1&#45;&gt;Node5</title>
<path fill="none" stroke="midnightblue" d="M113.185,-219.174C121.671,-220.495 130.562,-221.88 139.426,-223.261"/>
<polygon fill="midnightblue" stroke="midnightblue" points="138.98,-226.734 149.4,-224.815 140.058,-219.817 138.98,-226.734"/>
</g>
<!-- Node6 -->
<g id="node6" class="node"><title>Node6</title>
<g id="a_node6"><a xlink:href="classRa_1_1Core_1_1Utils_1_1ColorBase.html#aed9cce82f3b09c3ec32a9fdc898d3b7f" target="_top" xlink:title="Ra::Core::Utils::ColorBase\l\&lt; Scalar \&gt;::Blue">
<polygon fill="white" stroke="black" points="149.5,-171.5 149.5,-201.5 288.5,-201.5 288.5,-171.5 149.5,-171.5"/>
<text text-anchor="start" x="157.5" y="-189.5" font-family="Helvetica,sans-Serif" font-size="10.00">Ra::Core::Utils::ColorBase</text>
<text text-anchor="middle" x="219" y="-178.5" font-family="Helvetica,sans-Serif" font-size="10.00">&lt; Scalar &gt;::Blue</text>
</a>
</g>
</g>
<!-- Node1&#45;&gt;Node6 -->
<g id="edge5" class="edge"><title>Node1&#45;&gt;Node6</title>
<path fill="none" stroke="midnightblue" d="M113.185,-202.173C121.671,-200.904 130.562,-199.575 139.426,-198.249"/>
<polygon fill="midnightblue" stroke="midnightblue" points="140.027,-201.698 149.4,-196.758 138.992,-194.775 140.027,-201.698"/>
</g>
<!-- Node7 -->
<g id="node7" class="node"><title>Node7</title>
<g id="a_node7"><a xlink:href="classRa_1_1Gui_1_1Gizmo.html#a59f612603ee6c129a563ee6829abbc63" target="_top" xlink:title="Ra::Gui::Gizmo::findPoint\lOnPlane">
<polygon fill="white" stroke="black" points="152,-122.5 152,-152.5 286,-152.5 286,-122.5 152,-122.5"/>
<text text-anchor="start" x="160" y="-140.5" font-family="Helvetica,sans-Serif" font-size="10.00">Ra::Gui::Gizmo::findPoint</text>
<text text-anchor="middle" x="219" y="-129.5" font-family="Helvetica,sans-Serif" font-size="10.00">OnPlane</text>
</a>
</g>
</g>
<!-- Node1&#45;&gt;Node7 -->
<g id="edge6" class="edge"><title>Node1&#45;&gt;Node7</title>
<path fill="none" stroke="midnightblue" d="M83.8564,-195.456C101.89,-185.466 126.514,-172.417 149,-162.5 153.76,-160.401 158.756,-158.335 163.793,-156.346"/>
<polygon fill="midnightblue" stroke="midnightblue" points="165.397,-159.48 173.477,-152.626 162.887,-152.945 165.397,-159.48"/>
</g>
<!-- Node14 -->
<g id="node14" class="node"><title>Node14</title>
<g id="a_node14"><a xlink:href="classRa_1_1Gui_1_1Gizmo.html#a9f381cac5f535c0f66b04f02856f057d" target="_top" xlink:title="Ra::Gui::Gizmo::findPoint\lOnAxis">
<polygon fill="white" stroke="black" points="152,-73.5 152,-103.5 286,-103.5 286,-73.5 152,-73.5"/>
<text text-anchor="start" x="160" y="-91.5" font-family="Helvetica,sans-Serif" font-size="10.00">Ra::Gui::Gizmo::findPoint</text>
<text text-anchor="middle" x="219" y="-80.5" font-family="Helvetica,sans-Serif" font-size="10.00">OnAxis</text>
</a>
</g>
</g>
<!-- Node1&#45;&gt;Node14 -->
<g id="edge13" class="edge"><title>Node1&#45;&gt;Node14</title>
<path fill="none" stroke="midnightblue" d="M68.214,-195.272C83.7741,-174.18 114.556,-136.12 149,-113.5 151.965,-111.553 155.102,-109.733 158.337,-108.037"/>
<polygon fill="midnightblue" stroke="midnightblue" points="160.147,-111.051 167.657,-103.578 157.126,-104.736 160.147,-111.051"/>
</g>
<!-- Node17 -->
<g id="node17" class="node"><title>Node17</title>
<g id="a_node17"><a xlink:href="namespaceRa_1_1Core_1_1Math.html#a941baf20065c77d494ca251e6e104f31" target="_top" xlink:title="Returns the quaternion q multipled by a scalar factor of k. ">
<polygon fill="white" stroke="black" points="160,-35 160,-54 278,-54 278,-35 160,-35"/>
<text text-anchor="middle" x="219" y="-42" font-family="Helvetica,sans-Serif" font-size="10.00">Ra::Core::Math::scale</text>
</a>
</g>
</g>
<!-- Node1&#45;&gt;Node17 -->
<g id="edge18" class="edge"><title>Node1&#45;&gt;Node17</title>
<path fill="none" stroke="midnightblue" d="M62.6091,-195.412C73.5262,-165.505 102.03,-98.5712 149,-63.5 151.508,-61.6276 154.19,-59.9397 156.988,-58.4182"/>
<polygon fill="midnightblue" stroke="midnightblue" points="158.662,-61.4997 166.247,-54.1026 155.704,-55.155 158.662,-61.4997"/>
</g>
<!-- Node8 -->
<g id="node8" class="node"><title>Node8</title>
<g id="a_node8"><a xlink:href="classRa_1_1Engine_1_1Camera.html#a2b584b5db1c28d168d1d2c12eacbee1e" target="_top" xlink:title="Return a ray emanating from the camera, passing by the point given by screen coordinates x and y...">
<polygon fill="white" stroke="black" points="325,-147.5 325,-177.5 438,-177.5 438,-147.5 325,-147.5"/>
<text text-anchor="start" x="333" y="-165.5" font-family="Helvetica,sans-Serif" font-size="10.00">Ra::Engine::Camera</text>
<text text-anchor="middle" x="381.5" y="-154.5" font-family="Helvetica,sans-Serif" font-size="10.00">::getRayFromScreen</text>
</a>
</g>
</g>
<!-- Node7&#45;&gt;Node8 -->
<g id="edge7" class="edge"><title>Node7&#45;&gt;Node8</title>
<path fill="none" stroke="midnightblue" d="M286.208,-147.813C295.657,-149.285 305.373,-150.798 314.812,-152.268"/>
<polygon fill="midnightblue" stroke="midnightblue" points="314.499,-155.762 324.919,-153.843 315.577,-148.845 314.499,-155.762"/>
</g>
<!-- Node12 -->
<g id="node12" class="node"><title>Node12</title>
<g id="a_node12"><a xlink:href="namespaceRa_1_1Core_1_1Geometry.html#a8b8fe68d162f9a144a127573ca436286" target="_top" xlink:title="Intersect a ray with an infinite plane defined by point A and normal. ">
<polygon fill="white" stroke="black" points="326,-98.5 326,-128.5 437,-128.5 437,-98.5 326,-98.5"/>
<text text-anchor="start" x="334" y="-116.5" font-family="Helvetica,sans-Serif" font-size="10.00">Ra::Core::Geometry</text>
<text text-anchor="middle" x="381.5" y="-105.5" font-family="Helvetica,sans-Serif" font-size="10.00">::RayCastPlane</text>
</a>
</g>
</g>
<!-- Node7&#45;&gt;Node12 -->
<g id="edge11" class="edge"><title>Node7&#45;&gt;Node12</title>
<path fill="none" stroke="midnightblue" d="M286.208,-127.6C295.95,-126.143 305.976,-124.644 315.689,-123.191"/>
<polygon fill="midnightblue" stroke="midnightblue" points="316.299,-126.639 325.672,-121.699 315.264,-119.716 316.299,-126.639"/>
</g>
<!-- Node9 -->
<g id="node9" class="node"><title>Node9</title>
<g id="a_node9"><a xlink:href="classRa_1_1Engine_1_1Camera.html#a724a052e94817af7e602129467c8696f" target="_top" xlink:title="Return the position. ">
<polygon fill="white" stroke="black" points="474,-144.5 474,-174.5 585,-174.5 585,-144.5 474,-144.5"/>
<text text-anchor="start" x="482" y="-162.5" font-family="Helvetica,sans-Serif" font-size="10.00">Ra::Engine::Camera</text>
<text text-anchor="middle" x="529.5" y="-151.5" font-family="Helvetica,sans-Serif" font-size="10.00">::getPosition</text>
</a>
</g>
</g>
<!-- Node8&#45;&gt;Node9 -->
<g id="edge8" class="edge"><title>Node8&#45;&gt;Node9</title>
<path fill="none" stroke="midnightblue" d="M438.113,-161.357C446.363,-161.188 454.927,-161.012 463.351,-160.839"/>
<polygon fill="midnightblue" stroke="midnightblue" points="463.599,-164.334 473.525,-160.63 463.455,-157.336 463.599,-164.334"/>
</g>
<!-- Node10 -->
<g id="node10" class="node"><title>Node10</title>
<g id="a_node10"><a xlink:href="classRa_1_1Engine_1_1Camera.html#ad1d6eb41b5e8d52cd2ddecf47f1b2053" target="_top" xlink:title="Return the point on the screen plane (near plane) represented by screen coordinates pix...">
<polygon fill="white" stroke="black" points="474,-193.5 474,-223.5 585,-223.5 585,-193.5 474,-193.5"/>
<text text-anchor="start" x="482" y="-211.5" font-family="Helvetica,sans-Serif" font-size="10.00">Ra::Engine::Camera</text>
<text text-anchor="middle" x="529.5" y="-200.5" font-family="Helvetica,sans-Serif" font-size="10.00">::unProject</text>
</a>
</g>
</g>
<!-- Node8&#45;&gt;Node10 -->
<g id="edge9" class="edge"><title>Node8&#45;&gt;Node10</title>
<path fill="none" stroke="midnightblue" d="M430.306,-177.562C443.288,-181.653 457.483,-186.125 470.943,-190.366"/>
<polygon fill="midnightblue" stroke="midnightblue" points="469.997,-193.737 480.587,-193.404 472.101,-187.061 469.997,-193.737"/>
</g>
<!-- Node11 -->
<g id="node11" class="node"><title>Node11</title>
<g id="a_node11"><a xlink:href="classRa_1_1Engine_1_1Camera.html#adb545a4a1f889d63ce4fc9a41cdeef2a" target="_top" xlink:title="Return the projection matrix. ">
<polygon fill="white" stroke="black" points="621,-193.5 621,-223.5 732,-223.5 732,-193.5 621,-193.5"/>
<text text-anchor="start" x="629" y="-211.5" font-family="Helvetica,sans-Serif" font-size="10.00">Ra::Engine::Camera</text>
<text text-anchor="middle" x="676.5" y="-200.5" font-family="Helvetica,sans-Serif" font-size="10.00">::getProjMatrix</text>
</a>
</g>
</g>
<!-- Node10&#45;&gt;Node11 -->
<g id="edge10" class="edge"><title>Node10&#45;&gt;Node11</title>
<path fill="none" stroke="midnightblue" d="M585.318,-208.5C593.529,-208.5 602.061,-208.5 610.459,-208.5"/>
<polygon fill="midnightblue" stroke="midnightblue" points="610.604,-212 620.604,-208.5 610.604,-205 610.604,-212"/>
</g>
<!-- Node13 -->
<g id="node13" class="node"><title>Node13</title>
<g id="a_node13"><a xlink:href="namespaceOpenMesh.html#a575b338f0fc9ecb5393d23e977e6ac38" target="_top" xlink:title="OpenMesh::dot">
<polygon fill="white" stroke="black" points="485,-104 485,-123 574,-123 574,-104 485,-104"/>
<text text-anchor="middle" x="529.5" y="-111" font-family="Helvetica,sans-Serif" font-size="10.00">OpenMesh::dot</text>
</a>
</g>
</g>
<!-- Node12&#45;&gt;Node13 -->
<g id="edge12" class="edge"><title>Node12&#45;&gt;Node13</title>
<path fill="none" stroke="midnightblue" d="M437.28,-113.5C449.544,-113.5 462.54,-113.5 474.761,-113.5"/>
<polygon fill="midnightblue" stroke="midnightblue" points="474.811,-117 484.811,-113.5 474.811,-110 474.811,-117"/>
</g>
<!-- Node14&#45;&gt;Node8 -->
<g id="edge16" class="edge"><title>Node14&#45;&gt;Node8</title>
<path fill="none" stroke="midnightblue" d="M266.73,-103.559C274.318,-106.534 281.983,-109.871 289,-113.5 306.303,-122.449 307.976,-129.032 325,-138.5 327.844,-140.082 330.813,-141.632 333.835,-143.136"/>
<polygon fill="midnightblue" stroke="midnightblue" points="332.455,-146.355 342.989,-147.492 335.463,-140.034 332.455,-146.355"/>
</g>
<!-- Node14&#45;&gt;Node12 -->
<g id="edge17" class="edge"><title>Node14&#45;&gt;Node12</title>
<path fill="none" stroke="midnightblue" d="M286.208,-98.8128C295.95,-100.33 305.976,-101.892 315.689,-103.405"/>
<polygon fill="midnightblue" stroke="midnightblue" points="315.252,-106.879 325.672,-104.96 316.33,-99.9623 315.252,-106.879"/>
</g>
<!-- Node15 -->
<g id="node15" class="node"><title>Node15</title>
<g id="a_node15"><a xlink:href="classRa_1_1Engine_1_1Camera.html#a23be7aa714c0e9c2a9429dfc9ef2c53a" target="_top" xlink:title="Return the direction the camera is looking at. ">
<polygon fill="white" stroke="black" points="326,-49.5 326,-79.5 437,-79.5 437,-49.5 326,-49.5"/>
<text text-anchor="start" x="334" y="-67.5" font-family="Helvetica,sans-Serif" font-size="10.00">Ra::Engine::Camera</text>
<text text-anchor="middle" x="381.5" y="-56.5" font-family="Helvetica,sans-Serif" font-size="10.00">::getDirection</text>
</a>
</g>
</g>
<!-- Node14&#45;&gt;Node15 -->
<g id="edge14" class="edge"><title>Node14&#45;&gt;Node15</title>
<path fill="none" stroke="midnightblue" d="M286.208,-78.5997C295.95,-77.1431 305.976,-75.6438 315.689,-74.1914"/>
<polygon fill="midnightblue" stroke="midnightblue" points="316.299,-77.6391 325.672,-72.6986 315.264,-70.7161 316.299,-77.6391"/>
</g>
<!-- Node16 -->
<g id="node16" class="node"><title>Node16</title>
<g id="a_node16"><a xlink:href="classRa_1_1Engine_1_1Camera.html#adfc7c573c5cedb70aadd8afd8274253b" target="_top" xlink:title="Return the up vector. ">
<polygon fill="white" stroke="black" points="326,-0.5 326,-30.5 437,-30.5 437,-0.5 326,-0.5"/>
<text text-anchor="start" x="334" y="-18.5" font-family="Helvetica,sans-Serif" font-size="10.00">Ra::Engine::Camera</text>
<text text-anchor="middle" x="381.5" y="-7.5" font-family="Helvetica,sans-Serif" font-size="10.00">::getUpVector</text>
</a>
</g>
</g>
<!-- Node14&#45;&gt;Node16 -->
<g id="edge15" class="edge"><title>Node14&#45;&gt;Node16</title>
<path fill="none" stroke="midnightblue" d="M266.304,-73.4688C274.018,-70.4717 281.835,-67.1196 289,-63.5 306.164,-54.8288 308.107,-48.6867 325,-39.5 327.859,-37.9453 330.839,-36.4152 333.87,-34.9266"/>
<polygon fill="midnightblue" stroke="midnightblue" points="335.488,-38.0329 343.04,-30.6017 332.503,-31.7017 335.488,-38.0329"/>
</g>
</g>
</svg>
