<?xml version="1.0" encoding="UTF-8" standalone="no"?>
<!DOCTYPE svg PUBLIC "-//W3C//DTD SVG 1.1//EN"
 "http://www.w3.org/Graphics/SVG/1.1/DTD/svg11.dtd">
<!-- Generated by graphviz version 2.38.0 (20140413.2041)
 -->
<!-- Title: Ra::Core::Animation::Animation::getPose Pages: 1 -->
<svg width="576pt" height="61pt"
 viewBox="0.00 0.00 576.00 61.00" xmlns="http://www.w3.org/2000/svg" xmlns:xlink="http://www.w3.org/1999/xlink">
<g id="graph0" class="graph" transform="scale(1 1) rotate(0) translate(4 57)">
<title>Ra::Core::Animation::Animation::getPose</title>
<polygon fill="white" stroke="none" points="-4,4 -4,-57 572,-57 572,4 -4,4"/>
<!-- Node1 -->
<g id="node1" class="node"><title>Node1</title>
<polygon fill="#bfbfbf" stroke="black" points="0,-22.5 0,-52.5 116,-52.5 116,-22.5 0,-22.5"/>
<text text-anchor="start" x="8" y="-40.5" font-family="Helvetica,sans-Serif" font-size="10.00">Ra::Core::Animation</text>
<text text-anchor="middle" x="58" y="-29.5" font-family="Helvetica,sans-Serif" font-size="10.00">::Animation::getPose</text>
</g>
<!-- Node2 -->
<g id="node2" class="node"><title>Node2</title>
<g id="a_node2"><a xlink:href="namespaceRa_1_1Core_1_1Geometry.html#aa04e6052d8911b1df1bd881474debb45" target="_top" xlink:title="Ra::Core::Geometry::t">
<polygon fill="white" stroke="black" points="448,-28 448,-47 568,-47 568,-28 448,-28"/>
<text text-anchor="middle" x="508" y="-35" font-family="Helvetica,sans-Serif" font-size="10.00">Ra::Core::Geometry::t</text>
</a>
</g>
</g>
<!-- Node1&#45;&gt;Node2 -->
<g id="edge1" class="edge"><title>Node1&#45;&gt;Node2</title>
<path fill="none" stroke="midnightblue" d="M116.049,-38.9206C127.93,-39.1621 140.373,-39.375 152,-39.5 267.549,-40.7423 296.451,-40.7162 412,-39.5 420.359,-39.412 429.13,-39.2805 437.824,-39.1262"/>
<polygon fill="midnightblue" stroke="midnightblue" points="438.032,-42.623 447.965,-38.9357 437.901,-35.6242 438.032,-42.623"/>
</g>
<!-- Node3 -->
<g id="node3" class="node"><title>Node3</title>
<g id="a_node3"><a xlink:href="namespaceRa_1_1Core_1_1Animation.html#aa5e2e11d79318fd2777aaa259f8210db" target="_top" xlink:title="Ra::Core::Animation\l::interpolatePoses">
<polygon fill="white" stroke="black" points="152,-0.5 152,-30.5 264,-30.5 264,-0.5 152,-0.5"/>
<text text-anchor="start" x="160" y="-18.5" font-family="Helvetica,sans-Serif" font-size="10.00">Ra::Core::Animation</text>
<text text-anchor="middle" x="208" y="-7.5" font-family="Helvetica,sans-Serif" font-size="10.00">::interpolatePoses</text>
</a>
</g>
</g>
<!-- Node1&#45;&gt;Node3 -->
<g id="edge2" class="edge"><title>Node1&#45;&gt;Node3</title>
<path fill="none" stroke="midnightblue" d="M116.221,-28.9942C124.64,-27.7428 133.364,-26.4458 141.927,-25.173"/>
<polygon fill="midnightblue" stroke="midnightblue" points="142.5,-28.6263 151.877,-23.6939 141.471,-21.7024 142.5,-28.6263"/>
</g>
<!-- Node4 -->
<g id="node4" class="node"><title>Node4</title>
<g id="a_node4"><a xlink:href="namespaceRa_1_1Core_1_1Animation.html#a6951de94ba127cd79685e704d658808b" target="_top" xlink:title="Ra::Core::Animation\l::interpolate">
<polygon fill="white" stroke="black" points="300,-0.5 300,-30.5 412,-30.5 412,-0.5 300,-0.5"/>
<text text-anchor="start" x="308" y="-18.5" font-family="Helvetica,sans-Serif" font-size="10.00">Ra::Core::Animation</text>
<text text-anchor="middle" x="356" y="-7.5" font-family="Helvetica,sans-Serif" font-size="10.00">::interpolate</text>
</a>
</g>
</g>
<!-- Node3&#45;&gt;Node4 -->
<g id="edge3" class="edge"><title>Node3&#45;&gt;Node4</title>
<path fill="none" stroke="midnightblue" d="M264.196,-15.5C272.463,-15.5 281.055,-15.5 289.51,-15.5"/>
<polygon fill="midnightblue" stroke="midnightblue" points="289.726,-19.0001 299.726,-15.5 289.726,-12.0001 289.726,-19.0001"/>
</g>
<!-- Node4&#45;&gt;Node2 -->
<g id="edge4" class="edge"><title>Node4&#45;&gt;Node2</title>
<path fill="none" stroke="midnightblue" d="M412.003,-23.5671C420.416,-24.8011 429.192,-26.0882 437.863,-27.3599"/>
<polygon fill="midnightblue" stroke="midnightblue" points="437.563,-30.8533 447.965,-28.8415 438.579,-23.9274 437.563,-30.8533"/>
</g>
</g>
</svg>
