<?xml version="1.0" encoding="UTF-8" standalone="no"?>
<!DOCTYPE svg PUBLIC "-//W3C//DTD SVG 1.1//EN"
 "http://www.w3.org/Graphics/SVG/1.1/DTD/svg11.dtd">
<!-- Generated by graphviz version 2.38.0 (20140413.2041)
 -->
<!-- Title: MeshFeatureTrackingPlugin::MeshFeatureTrackingComponent::update Pages: 1 -->
<svg width="949pt" height="322pt"
 viewBox="0.00 0.00 949.00 322.00" xmlns="http://www.w3.org/2000/svg" xmlns:xlink="http://www.w3.org/1999/xlink">
<g id="graph0" class="graph" transform="scale(1 1) rotate(0) translate(4 318)">
<title>MeshFeatureTrackingPlugin::MeshFeatureTrackingComponent::update</title>
<polygon fill="white" stroke="none" points="-4,4 -4,-318 945,-318 945,4 -4,4"/>
<!-- Node1 -->
<g id="node1" class="node"><title>Node1</title>
<polygon fill="#bfbfbf" stroke="black" points="0,-139 0,-180 179,-180 179,-139 0,-139"/>
<text text-anchor="start" x="8" y="-168" font-family="Helvetica,sans-Serif" font-size="10.00">MeshFeatureTrackingPlugin</text>
<text text-anchor="start" x="8" y="-157" font-family="Helvetica,sans-Serif" font-size="10.00">::MeshFeatureTrackingComponent</text>
<text text-anchor="middle" x="89.5" y="-146" font-family="Helvetica,sans-Serif" font-size="10.00">::update</text>
</g>
<!-- Node2 -->
<g id="node2" class="node"><title>Node2</title>
<g id="a_node2"><a xlink:href="classRa_1_1Engine_1_1Component.html#a10b0bc182b76165744ebea603ae32dfe" target="_top" xlink:title="Shortcut to access the render object manager. ">
<polygon fill="white" stroke="black" points="456.5,-283.5 456.5,-313.5 585.5,-313.5 585.5,-283.5 456.5,-283.5"/>
<text text-anchor="start" x="464.5" y="-301.5" font-family="Helvetica,sans-Serif" font-size="10.00">Ra::Engine::Component</text>
<text text-anchor="middle" x="521" y="-290.5" font-family="Helvetica,sans-Serif" font-size="10.00">::getRoMgr</text>
</a>
</g>
</g>
<!-- Node1&#45;&gt;Node2 -->
<g id="edge1" class="edge"><title>Node1&#45;&gt;Node2</title>
<path fill="none" stroke="midnightblue" d="M104.509,-180.137C125.006,-208.368 166.091,-257.974 215,-279.5 288.749,-311.958 382.341,-312.591 446.275,-307.736"/>
<polygon fill="midnightblue" stroke="midnightblue" points="446.594,-311.222 456.273,-306.914 446.02,-304.246 446.594,-311.222"/>
</g>
<!-- Node3 -->
<g id="node3" class="node"><title>Node3</title>
<g id="a_node3"><a xlink:href="classMeshFeatureTrackingPlugin_1_1MeshFeatureTrackingComponent.html#ae7f3f822c5cd05548c11d92b3ef98931" target="_top" xlink:title="Registers the new center for the sphere. ">
<polygon fill="white" stroke="black" points="215,-109 215,-150 394,-150 394,-109 215,-109"/>
<text text-anchor="start" x="223" y="-138" font-family="Helvetica,sans-Serif" font-size="10.00">MeshFeatureTrackingPlugin</text>
<text text-anchor="start" x="223" y="-127" font-family="Helvetica,sans-Serif" font-size="10.00">::MeshFeatureTrackingComponent</text>
<text text-anchor="middle" x="304.5" y="-116" font-family="Helvetica,sans-Serif" font-size="10.00">::setPosition</text>
</a>
</g>
</g>
<!-- Node1&#45;&gt;Node3 -->
<g id="edge2" class="edge"><title>Node1&#45;&gt;Node3</title>
<path fill="none" stroke="midnightblue" d="M179.289,-146.995C187.739,-145.804 196.343,-144.593 204.879,-143.39"/>
<polygon fill="midnightblue" stroke="midnightblue" points="205.441,-146.846 214.855,-141.985 204.465,-139.914 205.441,-146.846"/>
</g>
<!-- Node5 -->
<g id="node5" class="node"><title>Node5</title>
<g id="a_node5"><a xlink:href="classMeshFeatureTrackingPlugin_1_1MeshFeatureTrackingComponent.html#a070c4cf514a05514998983ef9ea8333c" target="_top" xlink:title="MeshFeatureTrackingPlugin\l::MeshFeatureTrackingComponent\l::getFeaturePosition">
<polygon fill="white" stroke="black" points="215,-229 215,-270 394,-270 394,-229 215,-229"/>
<text text-anchor="start" x="223" y="-258" font-family="Helvetica,sans-Serif" font-size="10.00">MeshFeatureTrackingPlugin</text>
<text text-anchor="start" x="223" y="-247" font-family="Helvetica,sans-Serif" font-size="10.00">::MeshFeatureTrackingComponent</text>
<text text-anchor="middle" x="304.5" y="-236" font-family="Helvetica,sans-Serif" font-size="10.00">::getFeaturePosition</text>
</a>
</g>
</g>
<!-- Node1&#45;&gt;Node5 -->
<g id="edge4" class="edge"><title>Node1&#45;&gt;Node5</title>
<path fill="none" stroke="midnightblue" d="M130.029,-180.081C154.229,-192.295 186.015,-207.655 215,-219.5 219.975,-221.533 225.144,-223.542 230.373,-225.5"/>
<polygon fill="midnightblue" stroke="midnightblue" points="229.23,-228.808 239.824,-228.961 231.638,-222.235 229.23,-228.808"/>
</g>
<!-- Node11 -->
<g id="node11" class="node"><title>Node11</title>
<g id="a_node11"><a xlink:href="classMeshFeatureTrackingPlugin_1_1MeshFeatureTrackingComponent.html#a66ff6e44bfadaa9cb0b5a3f2c09e205e" target="_top" xlink:title="Registers the new scale for the sphere. ">
<polygon fill="white" stroke="black" points="215,-49 215,-90 394,-90 394,-49 215,-49"/>
<text text-anchor="start" x="223" y="-78" font-family="Helvetica,sans-Serif" font-size="10.00">MeshFeatureTrackingPlugin</text>
<text text-anchor="start" x="223" y="-67" font-family="Helvetica,sans-Serif" font-size="10.00">::MeshFeatureTrackingComponent</text>
<text text-anchor="middle" x="304.5" y="-56" font-family="Helvetica,sans-Serif" font-size="10.00">::setScale</text>
</a>
</g>
</g>
<!-- Node1&#45;&gt;Node11 -->
<g id="edge11" class="edge"><title>Node1&#45;&gt;Node11</title>
<path fill="none" stroke="midnightblue" d="M130.029,-138.919C154.229,-126.705 186.015,-111.345 215,-99.5 219.975,-97.467 225.144,-95.4579 230.373,-93.5004"/>
<polygon fill="midnightblue" stroke="midnightblue" points="231.638,-96.7648 239.824,-90.0389 229.23,-90.1919 231.638,-96.7648"/>
</g>
<!-- Node13 -->
<g id="node13" class="node"><title>Node13</title>
<g id="a_node13"><a xlink:href="classMeshFeatureTrackingPlugin_1_1MeshFeatureTrackingComponent.html#ab8cb3c199c646746382ee3b5f9a76565" target="_top" xlink:title="MeshFeatureTrackingPlugin\l::MeshFeatureTrackingComponent\l::getFeatureScale">
<polygon fill="white" stroke="black" points="215,-169 215,-210 394,-210 394,-169 215,-169"/>
<text text-anchor="start" x="223" y="-198" font-family="Helvetica,sans-Serif" font-size="10.00">MeshFeatureTrackingPlugin</text>
<text text-anchor="start" x="223" y="-187" font-family="Helvetica,sans-Serif" font-size="10.00">::MeshFeatureTrackingComponent</text>
<text text-anchor="middle" x="304.5" y="-176" font-family="Helvetica,sans-Serif" font-size="10.00">::getFeatureScale</text>
</a>
</g>
</g>
<!-- Node1&#45;&gt;Node13 -->
<g id="edge14" class="edge"><title>Node1&#45;&gt;Node13</title>
<path fill="none" stroke="midnightblue" d="M179.289,-172.005C187.739,-173.196 196.343,-174.407 204.879,-175.61"/>
<polygon fill="midnightblue" stroke="midnightblue" points="204.465,-179.086 214.855,-177.015 205.441,-172.154 204.465,-179.086"/>
</g>
<!-- Node17 -->
<g id="node17" class="node"><title>Node17</title>
<g id="a_node17"><a xlink:href="classRa_1_1Engine_1_1RenderObject.html#a62e0eb3a7de5a7d352b565a28260cc06" target="_top" xlink:title="Ra::Engine::RenderObject\l::setVisible">
<polygon fill="white" stroke="black" points="236,-0.5 236,-30.5 373,-30.5 373,-0.5 236,-0.5"/>
<text text-anchor="start" x="244" y="-18.5" font-family="Helvetica,sans-Serif" font-size="10.00">Ra::Engine::RenderObject</text>
<text text-anchor="middle" x="304.5" y="-7.5" font-family="Helvetica,sans-Serif" font-size="10.00">::setVisible</text>
</a>
</g>
</g>
<!-- Node1&#45;&gt;Node17 -->
<g id="edge22" class="edge"><title>Node1&#45;&gt;Node17</title>
<path fill="none" stroke="midnightblue" d="M106.28,-138.846C127.903,-111.977 169.302,-65.417 215,-39.5 218.661,-37.4237 222.51,-35.5204 226.468,-33.7763"/>
<polygon fill="midnightblue" stroke="midnightblue" points="227.9,-36.9729 235.868,-29.9895 225.284,-30.48 227.9,-36.9729"/>
</g>
<!-- Node4 -->
<g id="node4" class="node"><title>Node4</title>
<g id="a_node4"><a xlink:href="classRa_1_1Engine_1_1RenderObject.html#a2d6a1bc2b7646fe0912035a2ece24864" target="_top" xlink:title="Ra::Engine::RenderObject\l::setLocalTransform">
<polygon fill="white" stroke="black" points="452.5,-58.5 452.5,-88.5 589.5,-88.5 589.5,-58.5 452.5,-58.5"/>
<text text-anchor="start" x="460.5" y="-76.5" font-family="Helvetica,sans-Serif" font-size="10.00">Ra::Engine::RenderObject</text>
<text text-anchor="middle" x="521" y="-65.5" font-family="Helvetica,sans-Serif" font-size="10.00">::setLocalTransform</text>
</a>
</g>
</g>
<!-- Node3&#45;&gt;Node4 -->
<g id="edge3" class="edge"><title>Node3&#45;&gt;Node4</title>
<path fill="none" stroke="midnightblue" d="M384.154,-108.966C406.654,-103.092 430.965,-96.7445 452.717,-91.0656"/>
<polygon fill="midnightblue" stroke="midnightblue" points="453.724,-94.4202 462.516,-88.5075 451.956,-87.6472 453.724,-94.4202"/>
</g>
<!-- Node5&#45;&gt;Node2 -->
<g id="edge5" class="edge"><title>Node5&#45;&gt;Node2</title>
<path fill="none" stroke="midnightblue" d="M394.294,-269.784C411.732,-273.768 429.842,-277.904 446.703,-281.756"/>
<polygon fill="midnightblue" stroke="midnightblue" points="445.944,-285.173 456.472,-283.988 447.503,-278.349 445.944,-285.173"/>
</g>
<!-- Node6 -->
<g id="node6" class="node"><title>Node6</title>
<g id="a_node6"><a xlink:href="classRa_1_1Engine_1_1Mesh.html#aeb1eb176c4ac5a045a80b97a5e09e07e" target="_top" xlink:title="Returns the underlying TriangleMesh. ">
<polygon fill="white" stroke="black" points="430,-245 430,-264 612,-264 612,-245 430,-245"/>
<text text-anchor="middle" x="521" y="-252" font-family="Helvetica,sans-Serif" font-size="10.00">Ra::Engine::Mesh::getTriangleMesh</text>
</a>
</g>
</g>
<!-- Node5&#45;&gt;Node6 -->
<g id="edge6" class="edge"><title>Node5&#45;&gt;Node6</title>
<path fill="none" stroke="midnightblue" d="M394.294,-251.57C402.651,-251.765 411.163,-251.963 419.618,-252.16"/>
<polygon fill="midnightblue" stroke="midnightblue" points="419.81,-255.665 429.889,-252.4 419.973,-248.667 419.81,-255.665"/>
</g>
<!-- Node7 -->
<g id="node7" class="node"><title>Node7</title>
<g id="a_node7"><a xlink:href="classRa_1_1Core_1_1Geometry_1_1TriangleMesh.html#a6ef9dbd18c0501f2ffd1316be6be56ce" target="_top" xlink:title="Access the vertices positions. ">
<polygon fill="white" stroke="black" points="457,-195.5 457,-225.5 585,-225.5 585,-195.5 457,-195.5"/>
<text text-anchor="start" x="465" y="-213.5" font-family="Helvetica,sans-Serif" font-size="10.00">Ra::Core::Geometry</text>
<text text-anchor="middle" x="521" y="-202.5" font-family="Helvetica,sans-Serif" font-size="10.00">::TriangleMesh::vertices</text>
</a>
</g>
</g>
<!-- Node5&#45;&gt;Node7 -->
<g id="edge7" class="edge"><title>Node5&#45;&gt;Node7</title>
<path fill="none" stroke="midnightblue" d="M394.294,-233.356C411.665,-230.197 429.702,-226.918 446.507,-223.862"/>
<polygon fill="midnightblue" stroke="midnightblue" points="447.583,-227.224 456.795,-221.992 446.33,-220.337 447.583,-227.224"/>
</g>
<!-- Node8 -->
<g id="node8" class="node"><title>Node8</title>
<g id="a_node8"><a xlink:href="classRa_1_1Engine_1_1RenderObjectManager.html#a13fc919e9fa01bfb36e67bc9011d325f" target="_top" xlink:title="Returns the render object corresponding to the given index. ">
<polygon fill="white" stroke="black" points="449,-146.5 449,-176.5 593,-176.5 593,-146.5 449,-146.5"/>
<text text-anchor="start" x="457" y="-164.5" font-family="Helvetica,sans-Serif" font-size="10.00">Ra::Engine::RenderObject</text>
<text text-anchor="middle" x="521" y="-153.5" font-family="Helvetica,sans-Serif" font-size="10.00">Manager::getRenderObject</text>
</a>
</g>
</g>
<!-- Node5&#45;&gt;Node8 -->
<g id="edge8" class="edge"><title>Node5&#45;&gt;Node8</title>
<path fill="none" stroke="midnightblue" d="M375.343,-228.933C381.814,-226.11 388.136,-222.97 394,-219.5 412.679,-208.445 411.019,-197.029 430,-186.5 434.126,-184.211 438.476,-182.12 442.947,-180.211"/>
<polygon fill="midnightblue" stroke="midnightblue" points="444.238,-183.464 452.259,-176.542 441.672,-176.951 444.238,-183.464"/>
</g>
<!-- Node9 -->
<g id="node9" class="node"><title>Node9</title>
<g id="a_node9"><a xlink:href="classRa_1_1Engine_1_1RenderObjectManager.html#a088feae4339349a81b7b6635b38aead1" target="_top" xlink:title="Returns true if the index points to a valid render object. ">
<polygon fill="white" stroke="black" points="648,-149.5 648,-179.5 785,-179.5 785,-149.5 648,-149.5"/>
<text text-anchor="start" x="656" y="-167.5" font-family="Helvetica,sans-Serif" font-size="10.00">Ra::Engine::RenderObject</text>
<text text-anchor="middle" x="716.5" y="-156.5" font-family="Helvetica,sans-Serif" font-size="10.00">Manager::exists</text>
</a>
</g>
</g>
<!-- Node8&#45;&gt;Node9 -->
<g id="edge9" class="edge"><title>Node8&#45;&gt;Node9</title>
<path fill="none" stroke="midnightblue" d="M593.228,-162.604C607.762,-162.83 623.124,-163.068 637.868,-163.296"/>
<polygon fill="midnightblue" stroke="midnightblue" points="637.907,-166.797 647.96,-163.453 638.015,-159.798 637.907,-166.797"/>
</g>
<!-- Node10 -->
<g id="node10" class="node"><title>Node10</title>
<g id="a_node10"><a xlink:href="classRa_1_1Core_1_1Utils_1_1Index.html#ac7a1b710e6b95834a562c27e2f6c0f4b" target="_top" xlink:title="DESTRUCTOR: Must not be defined, we need it trivial to be constexpr. ">
<polygon fill="white" stroke="black" points="823,-149.5 823,-179.5 939,-179.5 939,-149.5 823,-149.5"/>
<text text-anchor="start" x="831" y="-167.5" font-family="Helvetica,sans-Serif" font-size="10.00">Ra::Core::Utils::Index</text>
<text text-anchor="middle" x="881" y="-156.5" font-family="Helvetica,sans-Serif" font-size="10.00">::isValid</text>
</a>
</g>
</g>
<!-- Node9&#45;&gt;Node10 -->
<g id="edge10" class="edge"><title>Node9&#45;&gt;Node10</title>
<path fill="none" stroke="midnightblue" d="M785.003,-164.5C794.126,-164.5 803.488,-164.5 812.609,-164.5"/>
<polygon fill="midnightblue" stroke="midnightblue" points="812.78,-168 822.78,-164.5 812.78,-161 812.78,-168"/>
</g>
<!-- Node11&#45;&gt;Node4 -->
<g id="edge13" class="edge"><title>Node11&#45;&gt;Node4</title>
<path fill="none" stroke="midnightblue" d="M394.294,-71.1558C410.177,-71.452 426.618,-71.7586 442.164,-72.0485"/>
<polygon fill="midnightblue" stroke="midnightblue" points="442.173,-75.5492 452.237,-72.2363 442.304,-68.5504 442.173,-75.5492"/>
</g>
<!-- Node12 -->
<g id="node12" class="node"><title>Node12</title>
<g id="a_node12"><a xlink:href="classRa_1_1Engine_1_1RenderObject.html#af6b3614bed03854e25328b143343fe1e" target="_top" xlink:title="Ra::Engine::RenderObject\l::getLocalTransform">
<polygon fill="white" stroke="black" points="452.5,-9.5 452.5,-39.5 589.5,-39.5 589.5,-9.5 452.5,-9.5"/>
<text text-anchor="start" x="460.5" y="-27.5" font-family="Helvetica,sans-Serif" font-size="10.00">Ra::Engine::RenderObject</text>
<text text-anchor="middle" x="521" y="-16.5" font-family="Helvetica,sans-Serif" font-size="10.00">::getLocalTransform</text>
</a>
</g>
</g>
<!-- Node11&#45;&gt;Node12 -->
<g id="edge12" class="edge"><title>Node11&#45;&gt;Node12</title>
<path fill="none" stroke="midnightblue" d="M394.294,-50.8719C410.177,-47.5397 426.618,-44.0907 442.164,-40.8292"/>
<polygon fill="midnightblue" stroke="midnightblue" points="443.168,-44.1948 452.237,-38.7161 441.731,-37.3439 443.168,-44.1948"/>
</g>
<!-- Node13&#45;&gt;Node2 -->
<g id="edge15" class="edge"><title>Node13&#45;&gt;Node2</title>
<path fill="none" stroke="midnightblue" d="M378.978,-210.007C384.288,-212.793 389.368,-215.943 394,-219.5 416.878,-237.066 406.64,-256.579 430,-273.5 435.171,-277.246 440.881,-280.431 446.841,-283.139"/>
<polygon fill="midnightblue" stroke="midnightblue" points="445.79,-286.489 456.371,-287.013 448.426,-280.005 445.79,-286.489"/>
</g>
<!-- Node13&#45;&gt;Node6 -->
<g id="edge20" class="edge"><title>Node13&#45;&gt;Node6</title>
<path fill="none" stroke="midnightblue" d="M368.607,-210.103C377.185,-213.133 385.84,-216.311 394,-219.5 410.308,-225.873 413.342,-230.106 430,-235.5 438.279,-238.181 447.111,-240.581 455.886,-242.699"/>
<polygon fill="midnightblue" stroke="midnightblue" points="455.206,-246.134 465.736,-244.97 456.778,-239.313 455.206,-246.134"/>
</g>
<!-- Node13&#45;&gt;Node7 -->
<g id="edge21" class="edge"><title>Node13&#45;&gt;Node7</title>
<path fill="none" stroke="midnightblue" d="M394.294,-198.193C411.665,-199.894 429.702,-201.66 446.507,-203.305"/>
<polygon fill="midnightblue" stroke="midnightblue" points="446.502,-206.821 456.795,-204.312 447.184,-199.854 446.502,-206.821"/>
</g>
<!-- Node13&#45;&gt;Node8 -->
<g id="edge16" class="edge"><title>Node13&#45;&gt;Node8</title>
<path fill="none" stroke="midnightblue" d="M394.294,-177.909C409.09,-175.978 424.368,-173.983 438.958,-172.079"/>
<polygon fill="midnightblue" stroke="midnightblue" points="439.471,-175.542 448.934,-170.777 438.565,-168.601 439.471,-175.542"/>
</g>
<!-- Node14 -->
<g id="node14" class="node"><title>Node14</title>
<g id="a_node14"><a xlink:href="classRa_1_1Engine_1_1Mesh.html#a7dd9018e643becd20e714a54cf6664db" target="_top" xlink:title="Ra::Engine::Mesh::getRenderMode">
<polygon fill="white" stroke="black" points="431.5,-108 431.5,-127 610.5,-127 610.5,-108 431.5,-108"/>
<text text-anchor="middle" x="521" y="-115" font-family="Helvetica,sans-Serif" font-size="10.00">Ra::Engine::Mesh::getRenderMode</text>
</a>
</g>
</g>
<!-- Node13&#45;&gt;Node14 -->
<g id="edge17" class="edge"><title>Node13&#45;&gt;Node14</title>
<path fill="none" stroke="midnightblue" d="M371.391,-168.985C379.114,-166.048 386.8,-162.869 394,-159.5 410.984,-151.552 412.612,-144.518 430,-137.5 437.492,-134.476 445.529,-131.867 453.604,-129.627"/>
<polygon fill="midnightblue" stroke="midnightblue" points="454.639,-132.975 463.439,-127.074 452.88,-126.199 454.639,-132.975"/>
</g>
<!-- Node15 -->
<g id="node15" class="node"><title>Node15</title>
<g id="a_node15"><a xlink:href="namespaceRa_1_1Core_1_1Containers.html#a83257c42de08d550fe2081a5d8a13331" target="_top" xlink:title="Stores a 3&#45;dimensional hierarchy of meshes of arbitrary type. ">
<polygon fill="white" stroke="black" points="659,-100.5 659,-130.5 774,-130.5 774,-100.5 659,-100.5"/>
<text text-anchor="start" x="667" y="-118.5" font-family="Helvetica,sans-Serif" font-size="10.00">Ra::Core::Containers</text>
<text text-anchor="middle" x="716.5" y="-107.5" font-family="Helvetica,sans-Serif" font-size="10.00">::deprecated</text>
</a>
</g>
</g>
<!-- Node14&#45;&gt;Node15 -->
<g id="edge18" class="edge"><title>Node14&#45;&gt;Node15</title>
<path fill="none" stroke="midnightblue" d="M610.539,-116.585C623.367,-116.452 636.389,-116.318 648.694,-116.191"/>
<polygon fill="midnightblue" stroke="midnightblue" points="648.878,-119.689 658.841,-116.086 648.805,-112.689 648.878,-119.689"/>
</g>
<!-- Node16 -->
<g id="node16" class="node"><title>Node16</title>
<g id="a_node16"><a xlink:href="namespaceRa_1_1Core_1_1Geometry.html#aa04e6052d8911b1df1bd881474debb45" target="_top" xlink:title="Ra::Core::Geometry::t">
<polygon fill="white" stroke="black" points="821,-106 821,-125 941,-125 941,-106 821,-106"/>
<text text-anchor="middle" x="881" y="-113" font-family="Helvetica,sans-Serif" font-size="10.00">Ra::Core::Geometry::t</text>
</a>
</g>
</g>
<!-- Node15&#45;&gt;Node16 -->
<g id="edge19" class="edge"><title>Node15&#45;&gt;Node16</title>
<path fill="none" stroke="midnightblue" d="M774.335,-115.5C786.133,-115.5 798.688,-115.5 810.871,-115.5"/>
<polygon fill="midnightblue" stroke="midnightblue" points="810.993,-119 820.993,-115.5 810.993,-112 810.993,-119"/>
</g>
</g>
</svg>
