<?xml version="1.0" encoding="UTF-8" standalone="no"?>
<!DOCTYPE svg PUBLIC "-//W3C//DTD SVG 1.1//EN"
 "http://www.w3.org/Graphics/SVG/1.1/DTD/svg11.dtd">
<!-- Generated by graphviz version 2.38.0 (20140413.2041)
 -->
<!-- Title: /home/travis/build/STORM&#45;IRIT/Radium&#45;Engine/src/Engine/Managers/ComponentMessenger/ComponentMessenger.inl Pages: 1 -->
<svg width="1023pt" height="397pt"
 viewBox="0.00 0.00 1023.10 397.00" xmlns="http://www.w3.org/2000/svg" xmlns:xlink="http://www.w3.org/1999/xlink">
<g id="graph0" class="graph" transform="scale(1 1) rotate(0) translate(4 393)">
<title>/home/travis/build/STORM&#45;IRIT/Radium&#45;Engine/src/Engine/Managers/ComponentMessenger/ComponentMessenger.inl</title>
<polygon fill="white" stroke="none" points="-4,4 -4,-393 1019.1,-393 1019.1,4 -4,4"/>
<!-- Node1 -->
<g id="node1" class="node"><title>Node1</title>
<polygon fill="#bfbfbf" stroke="black" points="529,-336.5 529,-388.5 760,-388.5 760,-336.5 529,-336.5"/>
<text text-anchor="start" x="537" y="-376.5" font-family="Helvetica,sans-Serif" font-size="10.00">/home/travis/build</text>
<text text-anchor="start" x="537" y="-365.5" font-family="Helvetica,sans-Serif" font-size="10.00">/STORM&#45;IRIT/Radium&#45;Engine</text>
<text text-anchor="start" x="537" y="-354.5" font-family="Helvetica,sans-Serif" font-size="10.00">/src/Engine/Managers/ComponentMessenger</text>
<text text-anchor="middle" x="644.5" y="-343.5" font-family="Helvetica,sans-Serif" font-size="10.00">/ComponentMessenger.inl</text>
</g>
<!-- Node2 -->
<g id="node2" class="node"><title>Node2</title>
<g id="a_node2"><a xlink:href="ComponentMessenger_8hpp.html" target="_top" xlink:title="ComponentMessenger.hpp">
<polygon fill="white" stroke="black" points="571.5,-280.5 571.5,-299.5 717.5,-299.5 717.5,-280.5 571.5,-280.5"/>
<text text-anchor="middle" x="644.5" y="-287.5" font-family="Helvetica,sans-Serif" font-size="10.00">ComponentMessenger.hpp</text>
</a>
</g>
</g>
<!-- Node1&#45;&gt;Node2 -->
<g id="edge1" class="edge"><title>Node1&#45;&gt;Node2</title>
<path fill="none" stroke="midnightblue" d="M638.007,-336.446C637.55,-327.63 637.702,-317.883 638.462,-309.684"/>
<polygon fill="midnightblue" stroke="midnightblue" points="641.939,-310.087 639.875,-299.695 635.008,-309.106 641.939,-310.087"/>
</g>
<!-- Node26 -->
<g id="node26" class="node"><title>Node26</title>
<g id="a_node26"><a xlink:href="StdUtils_8hpp.html" target="_top" xlink:title="Core/Utils/StdUtils.hpp">
<polygon fill="white" stroke="black" points="817,-280.5 817,-299.5 942,-299.5 942,-280.5 817,-280.5"/>
<text text-anchor="middle" x="879.5" y="-287.5" font-family="Helvetica,sans-Serif" font-size="10.00">Core/Utils/StdUtils.hpp</text>
</a>
</g>
</g>
<!-- Node1&#45;&gt;Node26 -->
<g id="edge35" class="edge"><title>Node1&#45;&gt;Node26</title>
<path fill="none" stroke="midnightblue" d="M728.014,-336.446C766.654,-324.854 810.658,-311.653 841.245,-302.476"/>
<polygon fill="midnightblue" stroke="midnightblue" points="842.504,-305.753 851.077,-299.527 840.493,-299.048 842.504,-305.753"/>
</g>
<!-- Node2&#45;&gt;Node1 -->
<g id="edge34" class="edge"><title>Node2&#45;&gt;Node1</title>
<path fill="none" stroke="midnightblue" d="M649.125,-299.695C650.542,-306.475 651.251,-316.371 651.25,-326.266"/>
<polygon fill="midnightblue" stroke="midnightblue" points="647.747,-326.36 650.993,-336.446 654.744,-326.538 647.747,-326.36"/>
</g>
<!-- Node3 -->
<g id="node3" class="node"><title>Node3</title>
<g id="a_node3"><a xlink:href="RaEngine_8hpp.html" target="_top" xlink:title="Engine/RaEngine.hpp">
<polygon fill="white" stroke="black" points="150,-168.5 150,-187.5 267,-187.5 267,-168.5 150,-168.5"/>
<text text-anchor="middle" x="208.5" y="-175.5" font-family="Helvetica,sans-Serif" font-size="10.00">Engine/RaEngine.hpp</text>
</a>
</g>
</g>
<!-- Node2&#45;&gt;Node3 -->
<g id="edge2" class="edge"><title>Node2&#45;&gt;Node3</title>
<path fill="none" stroke="midnightblue" d="M584.809,-280.453C535.083,-272.747 462.617,-260.153 400.5,-244 342.816,-229 277.421,-205.397 239.765,-191.14"/>
<polygon fill="midnightblue" stroke="midnightblue" points="240.951,-187.847 230.36,-187.555 238.457,-194.388 240.951,-187.847"/>
</g>
<!-- Node7 -->
<g id="node7" class="node"><title>Node7</title>
<polygon fill="white" stroke="#bfbfbf" points="92,-0.5 92,-19.5 151,-19.5 151,-0.5 92,-0.5"/>
<text text-anchor="middle" x="121.5" y="-7.5" font-family="Helvetica,sans-Serif" font-size="10.00">iostream</text>
</g>
<!-- Node2&#45;&gt;Node7 -->
<g id="edge10" class="edge"><title>Node2&#45;&gt;Node7</title>
<path fill="none" stroke="midnightblue" d="M571.228,-288.68C427.291,-286.062 121.5,-269.814 121.5,-179 121.5,-179 121.5,-179 121.5,-121 121.5,-88.948 121.5,-51.6426 121.5,-29.7489"/>
<polygon fill="midnightblue" stroke="midnightblue" points="125,-29.5577 121.5,-19.5578 118,-29.5578 125,-29.5577"/>
</g>
<!-- Node10 -->
<g id="node10" class="node"><title>Node10</title>
<polygon fill="white" stroke="#bfbfbf" points="848,-224.5 848,-243.5 911,-243.5 911,-224.5 848,-224.5"/>
<text text-anchor="middle" x="879.5" y="-231.5" font-family="Helvetica,sans-Serif" font-size="10.00">functional</text>
</g>
<!-- Node2&#45;&gt;Node10 -->
<g id="edge9" class="edge"><title>Node2&#45;&gt;Node10</title>
<path fill="none" stroke="midnightblue" d="M681.736,-280.444C724.241,-270.677 793.586,-254.742 837.851,-244.571"/>
<polygon fill="midnightblue" stroke="midnightblue" points="838.751,-247.955 847.713,-242.304 837.183,-241.133 838.751,-247.955"/>
</g>
<!-- Node11 -->
<g id="node11" class="node"><title>Node11</title>
<polygon fill="white" stroke="#bfbfbf" points="692,-224.5 692,-243.5 749,-243.5 749,-224.5 692,-224.5"/>
<text text-anchor="middle" x="720.5" y="-231.5" font-family="Helvetica,sans-Serif" font-size="10.00">memory</text>
</g>
<!-- Node2&#45;&gt;Node11 -->
<g id="edge11" class="edge"><title>Node2&#45;&gt;Node11</title>
<path fill="none" stroke="midnightblue" d="M656.711,-280.324C668.276,-272.107 685.875,-259.602 699.661,-249.807"/>
<polygon fill="midnightblue" stroke="midnightblue" points="701.943,-252.479 708.067,-243.834 697.888,-246.773 701.943,-252.479"/>
</g>
<!-- Node12 -->
<g id="node12" class="node"><title>Node12</title>
<polygon fill="white" stroke="#bfbfbf" points="767,-224.5 767,-243.5 830,-243.5 830,-224.5 767,-224.5"/>
<text text-anchor="middle" x="798.5" y="-231.5" font-family="Helvetica,sans-Serif" font-size="10.00">typeindex</text>
</g>
<!-- Node2&#45;&gt;Node12 -->
<g id="edge12" class="edge"><title>Node2&#45;&gt;Node12</title>
<path fill="none" stroke="midnightblue" d="M668.902,-280.444C694.697,-271.399 735.577,-257.064 764.518,-246.916"/>
<polygon fill="midnightblue" stroke="midnightblue" points="765.934,-250.128 774.212,-243.516 763.618,-243.523 765.934,-250.128"/>
</g>
<!-- Node13 -->
<g id="node13" class="node"><title>Node13</title>
<polygon fill="white" stroke="#bfbfbf" points="0,-224.5 0,-243.5 93,-243.5 93,-224.5 0,-224.5"/>
<text text-anchor="middle" x="46.5" y="-231.5" font-family="Helvetica,sans-Serif" font-size="10.00">unordered_map</text>
</g>
<!-- Node2&#45;&gt;Node13 -->
<g id="edge13" class="edge"><title>Node2&#45;&gt;Node13</title>
<path fill="none" stroke="midnightblue" d="M571.395,-284.337C467.926,-277.404 272.929,-263.116 107.5,-244 106.038,-243.831 104.557,-243.654 103.063,-243.471"/>
<polygon fill="midnightblue" stroke="midnightblue" points="103.453,-239.992 93.0869,-242.181 102.556,-246.935 103.453,-239.992"/>
</g>
<!-- Node14 -->
<g id="node14" class="node"><title>Node14</title>
<polygon fill="white" stroke="#bfbfbf" points="800,-168.5 800,-187.5 847,-187.5 847,-168.5 800,-168.5"/>
<text text-anchor="middle" x="823.5" y="-175.5" font-family="Helvetica,sans-Serif" font-size="10.00">vector</text>
</g>
<!-- Node2&#45;&gt;Node14 -->
<g id="edge14" class="edge"><title>Node2&#45;&gt;Node14</title>
<path fill="none" stroke="midnightblue" d="M642.285,-280.251C639.381,-266.548 636.103,-239.944 649.5,-224 689.156,-176.803 724.5,-201.869 789.855,-187.894"/>
<polygon fill="midnightblue" stroke="midnightblue" points="790.807,-191.265 799.719,-185.535 789.18,-184.457 790.807,-191.265"/>
</g>
<!-- Node15 -->
<g id="node15" class="node"><title>Node15</title>
<g id="a_node15"><a xlink:href="Singleton_8hpp.html" target="_top" xlink:title="Core/Utils/Singleton.hpp">
<polygon fill="white" stroke="black" points="865.5,-168.5 865.5,-187.5 997.5,-187.5 997.5,-168.5 865.5,-168.5"/>
<text text-anchor="middle" x="931.5" y="-175.5" font-family="Helvetica,sans-Serif" font-size="10.00">Core/Utils/Singleton.hpp</text>
</a>
</g>
</g>
<!-- Node2&#45;&gt;Node15 -->
<g id="edge15" class="edge"><title>Node2&#45;&gt;Node15</title>
<path fill="none" stroke="midnightblue" d="M647.001,-280.203C651.544,-265.933 662.576,-237.934 682.5,-224 696.903,-213.927 790.606,-198.863 858.834,-188.983"/>
<polygon fill="midnightblue" stroke="midnightblue" points="859.726,-192.391 869.126,-187.504 858.73,-185.463 859.726,-192.391"/>
</g>
<!-- Node17 -->
<g id="node17" class="node"><title>Node17</title>
<g id="a_node17"><a xlink:href="Component_8hpp.html" target="_top" xlink:title="Engine/Component/Component.hpp">
<polygon fill="white" stroke="black" points="409.5,-224.5 409.5,-243.5 597.5,-243.5 597.5,-224.5 409.5,-224.5"/>
<text text-anchor="middle" x="503.5" y="-231.5" font-family="Helvetica,sans-Serif" font-size="10.00">Engine/Component/Component.hpp</text>
</a>
</g>
</g>
<!-- Node2&#45;&gt;Node17 -->
<g id="edge18" class="edge"><title>Node2&#45;&gt;Node17</title>
<path fill="none" stroke="midnightblue" d="M622.158,-280.444C598.747,-271.478 561.764,-257.314 535.31,-247.183"/>
<polygon fill="midnightblue" stroke="midnightblue" points="536.328,-243.824 525.737,-243.516 533.824,-250.361 536.328,-243.824"/>
</g>
<!-- Node4 -->
<g id="node4" class="node"><title>Node4</title>
<g id="a_node4"><a xlink:href="CoreMacros_8hpp.html" target="_top" xlink:title="Core/CoreMacros.hpp">
<polygon fill="white" stroke="black" points="201.5,-56.5 201.5,-75.5 321.5,-75.5 321.5,-56.5 201.5,-56.5"/>
<text text-anchor="middle" x="261.5" y="-63.5" font-family="Helvetica,sans-Serif" font-size="10.00">Core/CoreMacros.hpp</text>
</a>
</g>
</g>
<!-- Node3&#45;&gt;Node4 -->
<g id="edge3" class="edge"><title>Node3&#45;&gt;Node4</title>
<path fill="none" stroke="midnightblue" d="M211.238,-168.366C215.382,-155.703 223.802,-131.483 233.5,-112 238.267,-102.424 244.478,-92.2659 249.839,-84.0286"/>
<polygon fill="midnightblue" stroke="midnightblue" points="252.772,-85.9397 255.408,-75.6782 246.948,-82.0557 252.772,-85.9397"/>
</g>
<!-- Node5 -->
<g id="node5" class="node"><title>Node5</title>
<polygon fill="white" stroke="#bfbfbf" points="235.5,-0.5 235.5,-19.5 287.5,-19.5 287.5,-0.5 235.5,-0.5"/>
<text text-anchor="middle" x="261.5" y="-7.5" font-family="Helvetica,sans-Serif" font-size="10.00">cassert</text>
</g>
<!-- Node4&#45;&gt;Node5 -->
<g id="edge4" class="edge"><title>Node4&#45;&gt;Node5</title>
<path fill="none" stroke="midnightblue" d="M261.5,-56.083C261.5,-49.0059 261.5,-38.8611 261.5,-29.9865"/>
<polygon fill="midnightblue" stroke="midnightblue" points="265,-29.751 261.5,-19.7511 258,-29.7511 265,-29.751"/>
</g>
<!-- Node6 -->
<g id="node6" class="node"><title>Node6</title>
<polygon fill="white" stroke="#bfbfbf" points="306,-0.5 306,-19.5 351,-19.5 351,-0.5 306,-0.5"/>
<text text-anchor="middle" x="328.5" y="-7.5" font-family="Helvetica,sans-Serif" font-size="10.00">cstdio</text>
</g>
<!-- Node4&#45;&gt;Node6 -->
<g id="edge5" class="edge"><title>Node4&#45;&gt;Node6</title>
<path fill="none" stroke="midnightblue" d="M272.265,-56.324C282.266,-48.2631 297.387,-36.0765 309.43,-26.3695"/>
<polygon fill="midnightblue" stroke="midnightblue" points="311.95,-28.8343 317.539,-19.8339 307.557,-23.3841 311.95,-28.8343"/>
</g>
<!-- Node4&#45;&gt;Node7 -->
<g id="edge6" class="edge"><title>Node4&#45;&gt;Node7</title>
<path fill="none" stroke="midnightblue" d="M239.317,-56.4435C216.072,-47.4776 179.351,-33.314 153.085,-23.1827"/>
<polygon fill="midnightblue" stroke="midnightblue" points="154.169,-19.8497 143.58,-19.5164 151.65,-26.3807 154.169,-19.8497"/>
</g>
<!-- Node8 -->
<g id="node8" class="node"><title>Node8</title>
<polygon fill="white" stroke="#bfbfbf" points="369.5,-0.5 369.5,-19.5 425.5,-19.5 425.5,-0.5 369.5,-0.5"/>
<text text-anchor="middle" x="397.5" y="-7.5" font-family="Helvetica,sans-Serif" font-size="10.00">sstream</text>
</g>
<!-- Node4&#45;&gt;Node8 -->
<g id="edge7" class="edge"><title>Node4&#45;&gt;Node8</title>
<path fill="none" stroke="midnightblue" d="M283.05,-56.4435C305.531,-47.5171 340.988,-33.4387 366.48,-23.3168"/>
<polygon fill="midnightblue" stroke="midnightblue" points="368.049,-26.4598 376.051,-19.5164 365.465,-19.9539 368.049,-26.4598"/>
</g>
<!-- Node9 -->
<g id="node9" class="node"><title>Node9</title>
<polygon fill="white" stroke="#bfbfbf" points="169.5,-0.5 169.5,-19.5 217.5,-19.5 217.5,-0.5 169.5,-0.5"/>
<text text-anchor="middle" x="193.5" y="-7.5" font-family="Helvetica,sans-Serif" font-size="10.00">thread</text>
</g>
<!-- Node4&#45;&gt;Node9 -->
<g id="edge8" class="edge"><title>Node4&#45;&gt;Node9</title>
<path fill="none" stroke="midnightblue" d="M250.575,-56.324C240.325,-48.1849 224.779,-35.8395 212.499,-26.0874"/>
<polygon fill="midnightblue" stroke="midnightblue" points="214.632,-23.3119 204.624,-19.8339 210.279,-28.7937 214.632,-23.3119"/>
</g>
<!-- Node16 -->
<g id="node16" class="node"><title>Node16</title>
<g id="a_node16"><a xlink:href="RaCore_8hpp.html" target="_top" xlink:title="Core/RaCore.hpp">
<polygon fill="white" stroke="black" points="796.5,-112.5 796.5,-131.5 894.5,-131.5 894.5,-112.5 796.5,-112.5"/>
<text text-anchor="middle" x="845.5" y="-119.5" font-family="Helvetica,sans-Serif" font-size="10.00">Core/RaCore.hpp</text>
</a>
</g>
</g>
<!-- Node15&#45;&gt;Node16 -->
<g id="edge16" class="edge"><title>Node15&#45;&gt;Node16</title>
<path fill="none" stroke="midnightblue" d="M917.683,-168.324C904.267,-159.9 883.676,-146.971 867.914,-137.074"/>
<polygon fill="midnightblue" stroke="midnightblue" points="869.613,-134.008 859.283,-131.655 865.891,-139.936 869.613,-134.008"/>
</g>
<!-- Node16&#45;&gt;Node4 -->
<g id="edge17" class="edge"><title>Node16&#45;&gt;Node4</title>
<path fill="none" stroke="midnightblue" d="M796.278,-113.244C792.972,-112.799 789.69,-112.38 786.5,-112 624.247,-92.6923 432.832,-78.4208 331.936,-71.557"/>
<polygon fill="midnightblue" stroke="midnightblue" points="332.079,-68.0588 321.865,-70.8761 331.606,-75.0428 332.079,-68.0588"/>
</g>
<!-- Node17&#45;&gt;Node3 -->
<g id="edge25" class="edge"><title>Node17&#45;&gt;Node3</title>
<path fill="none" stroke="midnightblue" d="M456.756,-224.444C404.755,-214.925 320.749,-199.547 265.076,-189.356"/>
<polygon fill="midnightblue" stroke="midnightblue" points="265.492,-185.874 255.025,-187.516 264.231,-192.76 265.492,-185.874"/>
</g>
<!-- Node17&#45;&gt;Node14 -->
<g id="edge26" class="edge"><title>Node17&#45;&gt;Node14</title>
<path fill="none" stroke="midnightblue" d="M571.736,-224.467C627.851,-216.954 709.589,-204.879 789.988,-187.9"/>
<polygon fill="midnightblue" stroke="midnightblue" points="790.737,-191.319 799.784,-185.805 789.273,-184.474 790.737,-191.319"/>
</g>
<!-- Node18 -->
<g id="node18" class="node"><title>Node18</title>
<g id="a_node18"><a xlink:href="Index_8hpp.html" target="_top" xlink:title="Core/Utils/Index.hpp">
<polygon fill="white" stroke="black" points="669,-168.5 669,-187.5 782,-187.5 782,-168.5 669,-168.5"/>
<text text-anchor="middle" x="725.5" y="-175.5" font-family="Helvetica,sans-Serif" font-size="10.00">Core/Utils/Index.hpp</text>
</a>
</g>
</g>
<!-- Node17&#45;&gt;Node18 -->
<g id="edge19" class="edge"><title>Node17&#45;&gt;Node18</title>
<path fill="none" stroke="midnightblue" d="M538.677,-224.444C577.079,-215.102 638.676,-200.119 680.555,-189.933"/>
<polygon fill="midnightblue" stroke="midnightblue" points="681.599,-193.281 690.488,-187.516 679.944,-186.479 681.599,-193.281"/>
</g>
<!-- Node21 -->
<g id="node21" class="node"><title>Node21</title>
<polygon fill="white" stroke="#bfbfbf" points="242.5,-112.5 242.5,-131.5 310.5,-131.5 310.5,-112.5 242.5,-112.5"/>
<text text-anchor="middle" x="276.5" y="-119.5" font-family="Helvetica,sans-Serif" font-size="10.00">Eigen/Core</text>
</g>
<!-- Node17&#45;&gt;Node21 -->
<g id="edge23" class="edge"><title>Node17&#45;&gt;Node21</title>
<path fill="none" stroke="midnightblue" d="M409.161,-225.701C376.715,-219.454 341.735,-208.183 314.5,-188 298.781,-176.351 288.453,-156.105 282.586,-141.296"/>
<polygon fill="midnightblue" stroke="midnightblue" points="285.794,-139.878 279.088,-131.675 279.215,-142.269 285.794,-139.878"/>
</g>
<!-- Node22 -->
<g id="node22" class="node"><title>Node22</title>
<polygon fill="white" stroke="#bfbfbf" points="426.5,-112.5 426.5,-131.5 520.5,-131.5 520.5,-112.5 426.5,-112.5"/>
<text text-anchor="middle" x="473.5" y="-119.5" font-family="Helvetica,sans-Serif" font-size="10.00">Eigen/Geometry</text>
</g>
<!-- Node17&#45;&gt;Node22 -->
<g id="edge24" class="edge"><title>Node17&#45;&gt;Node22</title>
<path fill="none" stroke="midnightblue" d="M491.003,-224.302C480.626,-216.251 466.613,-203.245 460.5,-188 454.417,-172.829 459.085,-154.484 464.448,-141.157"/>
<polygon fill="midnightblue" stroke="midnightblue" points="467.791,-142.257 468.705,-131.701 461.408,-139.383 467.791,-142.257"/>
</g>
<!-- Node23 -->
<g id="node23" class="node"><title>Node23</title>
<g id="a_node23"><a xlink:href="Types_8hpp.html" target="_top" xlink:title="Core/Types.hpp">
<polygon fill="white" stroke="black" points="324,-168.5 324,-187.5 413,-187.5 413,-168.5 324,-168.5"/>
<text text-anchor="middle" x="368.5" y="-175.5" font-family="Helvetica,sans-Serif" font-size="10.00">Core/Types.hpp</text>
</a>
</g>
</g>
<!-- Node17&#45;&gt;Node23 -->
<g id="edge27" class="edge"><title>Node17&#45;&gt;Node23</title>
<path fill="none" stroke="midnightblue" d="M482.109,-224.444C459.793,-215.517 424.597,-201.439 399.292,-191.317"/>
<polygon fill="midnightblue" stroke="midnightblue" points="400.376,-187.981 389.791,-187.516 397.776,-194.48 400.376,-187.981"/>
</g>
<!-- Node25 -->
<g id="node25" class="node"><title>Node25</title>
<g id="a_node25"><a xlink:href="Component_8inl.html" target="_top" xlink:title="Engine/Component/Component.inl">
<polygon fill="white" stroke="black" points="470,-168.5 470,-187.5 651,-187.5 651,-168.5 470,-168.5"/>
<text text-anchor="middle" x="560.5" y="-175.5" font-family="Helvetica,sans-Serif" font-size="10.00">Engine/Component/Component.inl</text>
</a>
</g>
</g>
<!-- Node17&#45;&gt;Node25 -->
<g id="edge32" class="edge"><title>Node17&#45;&gt;Node25</title>
<path fill="none" stroke="midnightblue" d="M507.746,-224.083C514.587,-215.984 527.051,-203.866 538.276,-194.233"/>
<polygon fill="midnightblue" stroke="midnightblue" points="540.646,-196.815 546.132,-187.751 536.191,-191.416 540.646,-196.815"/>
</g>
<!-- Node18&#45;&gt;Node16 -->
<g id="edge20" class="edge"><title>Node18&#45;&gt;Node16</title>
<path fill="none" stroke="midnightblue" d="M744.514,-168.444C764.088,-159.636 794.808,-145.812 817.229,-135.722"/>
<polygon fill="midnightblue" stroke="midnightblue" points="818.892,-138.812 826.575,-131.516 816.019,-132.428 818.892,-138.812"/>
</g>
<!-- Node19 -->
<g id="node19" class="node"><title>Node19</title>
<polygon fill="white" stroke="#bfbfbf" points="612.5,-112.5 612.5,-131.5 654.5,-131.5 654.5,-112.5 612.5,-112.5"/>
<text text-anchor="middle" x="633.5" y="-119.5" font-family="Helvetica,sans-Serif" font-size="10.00">limits</text>
</g>
<!-- Node18&#45;&gt;Node19 -->
<g id="edge21" class="edge"><title>Node18&#45;&gt;Node19</title>
<path fill="none" stroke="midnightblue" d="M710.719,-168.324C696.233,-159.822 673.927,-146.729 657.007,-136.797"/>
<polygon fill="midnightblue" stroke="midnightblue" points="658.641,-133.698 648.245,-131.655 655.097,-139.735 658.641,-133.698"/>
</g>
<!-- Node20 -->
<g id="node20" class="node"><title>Node20</title>
<g id="a_node20"><a xlink:href="Index_8inl.html" target="_top" xlink:title="Core/Utils/Index.inl">
<polygon fill="white" stroke="black" points="673,-112.5 673,-131.5 778,-131.5 778,-112.5 673,-112.5"/>
<text text-anchor="middle" x="725.5" y="-119.5" font-family="Helvetica,sans-Serif" font-size="10.00">Core/Utils/Index.inl</text>
</a>
</g>
</g>
<!-- Node18&#45;&gt;Node20 -->
<g id="edge22" class="edge"><title>Node18&#45;&gt;Node20</title>
<path fill="none" stroke="midnightblue" d="M725.5,-168.083C725.5,-161.006 725.5,-150.861 725.5,-141.986"/>
<polygon fill="midnightblue" stroke="midnightblue" points="729,-141.751 725.5,-131.751 722,-141.751 729,-141.751"/>
</g>
<!-- Node23&#45;&gt;Node16 -->
<g id="edge28" class="edge"><title>Node23&#45;&gt;Node16</title>
<path fill="none" stroke="midnightblue" d="M413.161,-172.444C501.967,-163.346 698.924,-142.959 786.185,-131.968"/>
<polygon fill="midnightblue" stroke="midnightblue" points="786.794,-135.419 796.268,-130.676 785.904,-128.476 786.794,-135.419"/>
</g>
<!-- Node23&#45;&gt;Node21 -->
<g id="edge29" class="edge"><title>Node23&#45;&gt;Node21</title>
<path fill="none" stroke="midnightblue" d="M353.719,-168.324C339.233,-159.822 316.927,-146.729 300.007,-136.797"/>
<polygon fill="midnightblue" stroke="midnightblue" points="301.641,-133.698 291.245,-131.655 298.097,-139.735 301.641,-133.698"/>
</g>
<!-- Node23&#45;&gt;Node22 -->
<g id="edge30" class="edge"><title>Node23&#45;&gt;Node22</title>
<path fill="none" stroke="midnightblue" d="M385.37,-168.324C402.209,-159.664 428.307,-146.242 447.738,-136.249"/>
<polygon fill="midnightblue" stroke="midnightblue" points="449.38,-139.341 456.672,-131.655 446.178,-133.116 449.38,-139.341"/>
</g>
<!-- Node24 -->
<g id="node24" class="node"><title>Node24</title>
<polygon fill="white" stroke="#bfbfbf" points="328.5,-112.5 328.5,-131.5 408.5,-131.5 408.5,-112.5 328.5,-112.5"/>
<text text-anchor="middle" x="368.5" y="-119.5" font-family="Helvetica,sans-Serif" font-size="10.00">Eigen/Sparse</text>
</g>
<!-- Node23&#45;&gt;Node24 -->
<g id="edge31" class="edge"><title>Node23&#45;&gt;Node24</title>
<path fill="none" stroke="midnightblue" d="M368.5,-168.083C368.5,-161.006 368.5,-150.861 368.5,-141.986"/>
<polygon fill="midnightblue" stroke="midnightblue" points="372,-141.751 368.5,-131.751 365,-141.751 372,-141.751"/>
</g>
<!-- Node25&#45;&gt;Node17 -->
<g id="edge33" class="edge"><title>Node25&#45;&gt;Node17</title>
<path fill="none" stroke="midnightblue" d="M556.324,-187.834C549.486,-195.948 536.941,-208.145 525.662,-217.82"/>
<polygon fill="midnightblue" stroke="midnightblue" points="523.262,-215.262 517.773,-224.324 527.715,-220.663 523.262,-215.262"/>
</g>
<!-- Node26&#45;&gt;Node10 -->
<g id="edge37" class="edge"><title>Node26&#45;&gt;Node10</title>
<path fill="none" stroke="midnightblue" d="M879.5,-280.083C879.5,-273.006 879.5,-262.861 879.5,-253.986"/>
<polygon fill="midnightblue" stroke="midnightblue" points="883,-253.751 879.5,-243.751 876,-253.751 883,-253.751"/>
</g>
<!-- Node26&#45;&gt;Node16 -->
<g id="edge36" class="edge"><title>Node26&#45;&gt;Node16</title>
<path fill="none" stroke="midnightblue" d="M902.06,-280.438C947.528,-261.916 1042.86,-215.913 1006.5,-168 993.939,-151.447 945.058,-139.333 904.418,-131.87"/>
<polygon fill="midnightblue" stroke="midnightblue" points="905.016,-128.422 894.558,-130.119 903.792,-135.314 905.016,-128.422"/>
</g>
</g>
</svg>
