<?xml version="1.0" encoding="UTF-8" standalone="no"?>
<!DOCTYPE svg PUBLIC "-//W3C//DTD SVG 1.1//EN"
 "http://www.w3.org/Graphics/SVG/1.1/DTD/svg11.dtd">
<!-- Generated by graphviz version 2.38.0 (20140413.2041)
 -->
<!-- Title: /home/travis/build/STORM&#45;IRIT/Radium&#45;Engine/src/Engine/Managers/ComponentMessenger/ComponentMessenger.cpp Pages: 1 -->
<svg width="1128pt" height="419pt"
 viewBox="0.00 0.00 1127.50 419.00" xmlns="http://www.w3.org/2000/svg" xmlns:xlink="http://www.w3.org/1999/xlink">
<g id="graph0" class="graph" transform="scale(1 1) rotate(0) translate(4 415)">
<title>/home/travis/build/STORM&#45;IRIT/Radium&#45;Engine/src/Engine/Managers/ComponentMessenger/ComponentMessenger.cpp</title>
<polygon fill="white" stroke="none" points="-4,4 -4,-415 1123.5,-415 1123.5,4 -4,4"/>
<!-- Node1 -->
<g id="node1" class="node"><title>Node1</title>
<polygon fill="#bfbfbf" stroke="black" points="269.5,-358.5 269.5,-410.5 500.5,-410.5 500.5,-358.5 269.5,-358.5"/>
<text text-anchor="start" x="277.5" y="-398.5" font-family="Helvetica,sans-Serif" font-size="10.00">/home/travis/build</text>
<text text-anchor="start" x="277.5" y="-387.5" font-family="Helvetica,sans-Serif" font-size="10.00">/STORM&#45;IRIT/Radium&#45;Engine</text>
<text text-anchor="start" x="277.5" y="-376.5" font-family="Helvetica,sans-Serif" font-size="10.00">/src/Engine/Managers/ComponentMessenger</text>
<text text-anchor="middle" x="385" y="-365.5" font-family="Helvetica,sans-Serif" font-size="10.00">/ComponentMessenger.cpp</text>
</g>
<!-- Node2 -->
<g id="node2" class="node"><title>Node2</title>
<g id="a_node2"><a xlink:href="ComponentMessenger_8hpp.html" target="_top" xlink:title="Engine/Managers/Component\lMessenger/ComponentMessenger.hpp">
<polygon fill="white" stroke="black" points="284.5,-291.5 284.5,-321.5 485.5,-321.5 485.5,-291.5 284.5,-291.5"/>
<text text-anchor="start" x="292.5" y="-309.5" font-family="Helvetica,sans-Serif" font-size="10.00">Engine/Managers/Component</text>
<text text-anchor="middle" x="385" y="-298.5" font-family="Helvetica,sans-Serif" font-size="10.00">Messenger/ComponentMessenger.hpp</text>
</a>
</g>
</g>
<!-- Node1&#45;&gt;Node2 -->
<g id="edge1" class="edge"><title>Node1&#45;&gt;Node2</title>
<path fill="none" stroke="midnightblue" d="M385,-358.193C385,-349.786 385,-340.443 385,-332.091"/>
<polygon fill="midnightblue" stroke="midnightblue" points="388.5,-331.845 385,-321.845 381.5,-331.845 388.5,-331.845"/>
</g>
<!-- Node3 -->
<g id="node3" class="node"><title>Node3</title>
<g id="a_node3"><a xlink:href="RaEngine_8hpp.html" target="_top" xlink:title="Engine/RaEngine.hpp">
<polygon fill="white" stroke="black" points="1002.5,-168.5 1002.5,-187.5 1119.5,-187.5 1119.5,-168.5 1002.5,-168.5"/>
<text text-anchor="middle" x="1061" y="-175.5" font-family="Helvetica,sans-Serif" font-size="10.00">Engine/RaEngine.hpp</text>
</a>
</g>
</g>
<!-- Node2&#45;&gt;Node3 -->
<g id="edge2" class="edge"><title>Node2&#45;&gt;Node3</title>
<path fill="none" stroke="midnightblue" d="M485.694,-301.411C620.155,-295.055 850.727,-280.769 931,-255 973.787,-241.264 1017.73,-211.71 1041.98,-193.773"/>
<polygon fill="midnightblue" stroke="midnightblue" points="1044.1,-196.554 1049.98,-187.741 1039.89,-190.963 1044.1,-196.554"/>
</g>
<!-- Node7 -->
<g id="node7" class="node"><title>Node7</title>
<polygon fill="white" stroke="#bfbfbf" points="88.5,-0.5 88.5,-19.5 147.5,-19.5 147.5,-0.5 88.5,-0.5"/>
<text text-anchor="middle" x="118" y="-7.5" font-family="Helvetica,sans-Serif" font-size="10.00">iostream</text>
</g>
<!-- Node2&#45;&gt;Node7 -->
<g id="edge10" class="edge"><title>Node2&#45;&gt;Node7</title>
<path fill="none" stroke="midnightblue" d="M284.376,-300.348C197.885,-294.191 81.2334,-281.227 43,-255 10.9967,-233.046 0,-217.809 0,-179 0,-179 0,-179 0,-121 0,-73.5119 51.7657,-40.6741 86.7242,-23.9123"/>
<polygon fill="midnightblue" stroke="midnightblue" points="88.4567,-26.9681 96.0816,-19.6121 85.5337,-20.6075 88.4567,-26.9681"/>
</g>
<!-- Node10 -->
<g id="node10" class="node"><title>Node10</title>
<polygon fill="white" stroke="#bfbfbf" points="80.5,-112.5 80.5,-131.5 143.5,-131.5 143.5,-112.5 80.5,-112.5"/>
<text text-anchor="middle" x="112" y="-119.5" font-family="Helvetica,sans-Serif" font-size="10.00">functional</text>
</g>
<!-- Node2&#45;&gt;Node10 -->
<g id="edge9" class="edge"><title>Node2&#45;&gt;Node10</title>
<path fill="none" stroke="midnightblue" d="M284.453,-303.893C199.08,-300.144 85.9316,-288.727 57,-255 26.8236,-219.822 69.9085,-165.753 95.4513,-139.053"/>
<polygon fill="midnightblue" stroke="midnightblue" points="98.1792,-141.272 102.715,-131.697 93.1981,-136.354 98.1792,-141.272"/>
</g>
<!-- Node11 -->
<g id="node11" class="node"><title>Node11</title>
<polygon fill="white" stroke="#bfbfbf" points="278.5,-230 278.5,-249 335.5,-249 335.5,-230 278.5,-230"/>
<text text-anchor="middle" x="307" y="-237" font-family="Helvetica,sans-Serif" font-size="10.00">memory</text>
</g>
<!-- Node2&#45;&gt;Node11 -->
<g id="edge11" class="edge"><title>Node2&#45;&gt;Node11</title>
<path fill="none" stroke="midnightblue" d="M368.075,-291.396C355.432,-280.86 338.173,-266.477 325.226,-255.689"/>
<polygon fill="midnightblue" stroke="midnightblue" points="327.356,-252.908 317.433,-249.195 322.875,-258.285 327.356,-252.908"/>
</g>
<!-- Node12 -->
<g id="node12" class="node"><title>Node12</title>
<polygon fill="white" stroke="#bfbfbf" points="353.5,-230 353.5,-249 416.5,-249 416.5,-230 353.5,-230"/>
<text text-anchor="middle" x="385" y="-237" font-family="Helvetica,sans-Serif" font-size="10.00">typeindex</text>
</g>
<!-- Node2&#45;&gt;Node12 -->
<g id="edge12" class="edge"><title>Node2&#45;&gt;Node12</title>
<path fill="none" stroke="midnightblue" d="M385,-291.396C385,-282.064 385,-269.714 385,-259.517"/>
<polygon fill="midnightblue" stroke="midnightblue" points="388.5,-259.195 385,-249.195 381.5,-259.195 388.5,-259.195"/>
</g>
<!-- Node13 -->
<g id="node13" class="node"><title>Node13</title>
<polygon fill="white" stroke="#bfbfbf" points="434.5,-230 434.5,-249 527.5,-249 527.5,-230 434.5,-230"/>
<text text-anchor="middle" x="481" y="-237" font-family="Helvetica,sans-Serif" font-size="10.00">unordered_map</text>
</g>
<!-- Node2&#45;&gt;Node13 -->
<g id="edge13" class="edge"><title>Node2&#45;&gt;Node13</title>
<path fill="none" stroke="midnightblue" d="M405.831,-291.396C421.78,-280.597 443.698,-265.756 459.751,-254.887"/>
<polygon fill="midnightblue" stroke="midnightblue" points="462.118,-257.512 468.436,-249.007 458.193,-251.715 462.118,-257.512"/>
</g>
<!-- Node14 -->
<g id="node14" class="node"><title>Node14</title>
<polygon fill="white" stroke="#bfbfbf" points="422.5,-168.5 422.5,-187.5 469.5,-187.5 469.5,-168.5 422.5,-168.5"/>
<text text-anchor="middle" x="446" y="-175.5" font-family="Helvetica,sans-Serif" font-size="10.00">vector</text>
</g>
<!-- Node2&#45;&gt;Node14 -->
<g id="edge14" class="edge"><title>Node2&#45;&gt;Node14</title>
<path fill="none" stroke="midnightblue" d="M485.762,-302.249C563.302,-297.373 661.41,-285.225 687,-255 695.903,-244.485 695.877,-234.537 687,-224 658.355,-189.999 538.668,-197.361 479.64,-187.865"/>
<polygon fill="midnightblue" stroke="midnightblue" points="480.176,-184.404 469.696,-185.96 478.858,-191.279 480.176,-184.404"/>
</g>
<!-- Node15 -->
<g id="node15" class="node"><title>Node15</title>
<g id="a_node15"><a xlink:href="Singleton_8hpp.html" target="_top" xlink:title="Core/Utils/Singleton.hpp">
<polygon fill="white" stroke="black" points="546,-230 546,-249 678,-249 678,-230 546,-230"/>
<text text-anchor="middle" x="612" y="-237" font-family="Helvetica,sans-Serif" font-size="10.00">Core/Utils/Singleton.hpp</text>
</a>
</g>
</g>
<!-- Node2&#45;&gt;Node15 -->
<g id="edge15" class="edge"><title>Node2&#45;&gt;Node15</title>
<path fill="none" stroke="midnightblue" d="M433.976,-291.476C475.373,-279.622 533.918,-262.858 572.405,-251.838"/>
<polygon fill="midnightblue" stroke="midnightblue" points="573.565,-255.146 582.215,-249.029 571.638,-248.417 573.565,-255.146"/>
</g>
<!-- Node17 -->
<g id="node17" class="node"><title>Node17</title>
<g id="a_node17"><a xlink:href="Component_8hpp.html" target="_top" xlink:title="Engine/Component/Component.hpp">
<polygon fill="white" stroke="black" points="734,-230 734,-249 922,-249 922,-230 734,-230"/>
<text text-anchor="middle" x="828" y="-237" font-family="Helvetica,sans-Serif" font-size="10.00">Engine/Component/Component.hpp</text>
</a>
</g>
</g>
<!-- Node2&#45;&gt;Node17 -->
<g id="edge18" class="edge"><title>Node2&#45;&gt;Node17</title>
<path fill="none" stroke="midnightblue" d="M480.579,-291.476C564.632,-279.143 684.912,-261.495 759.64,-250.53"/>
<polygon fill="midnightblue" stroke="midnightblue" points="760.488,-253.943 769.874,-249.029 759.472,-247.018 760.488,-253.943"/>
</g>
<!-- Node26 -->
<g id="node26" class="node"><title>Node26</title>
<g id="a_node26"><a xlink:href="ComponentMessenger_8inl.html" target="_top" xlink:title="Engine/Managers/Component\lMessenger/ComponentMessenger.inl">
<polygon fill="white" stroke="black" points="66,-224.5 66,-254.5 260,-254.5 260,-224.5 66,-224.5"/>
<text text-anchor="start" x="74" y="-242.5" font-family="Helvetica,sans-Serif" font-size="10.00">Engine/Managers/Component</text>
<text text-anchor="middle" x="163" y="-231.5" font-family="Helvetica,sans-Serif" font-size="10.00">Messenger/ComponentMessenger.inl</text>
</a>
</g>
</g>
<!-- Node2&#45;&gt;Node26 -->
<g id="edge34" class="edge"><title>Node2&#45;&gt;Node26</title>
<path fill="none" stroke="midnightblue" d="M331.435,-291.476C296.098,-281.515 250.118,-268.086 215.087,-257.512"/>
<polygon fill="midnightblue" stroke="midnightblue" points="216.1,-254.162 205.515,-254.611 214.07,-260.861 216.1,-254.162"/>
</g>
<!-- Node4 -->
<g id="node4" class="node"><title>Node4</title>
<g id="a_node4"><a xlink:href="CoreMacros_8hpp.html" target="_top" xlink:title="Core/CoreMacros.hpp">
<polygon fill="white" stroke="black" points="349,-56.5 349,-75.5 469,-75.5 469,-56.5 349,-56.5"/>
<text text-anchor="middle" x="409" y="-63.5" font-family="Helvetica,sans-Serif" font-size="10.00">Core/CoreMacros.hpp</text>
</a>
</g>
</g>
<!-- Node3&#45;&gt;Node4 -->
<g id="edge3" class="edge"><title>Node3&#45;&gt;Node4</title>
<path fill="none" stroke="midnightblue" d="M1061.33,-168.157C1061.34,-153.821 1059.02,-125.728 1042,-112 999.036,-77.3496 635.454,-69.373 479.537,-67.5426"/>
<polygon fill="midnightblue" stroke="midnightblue" points="479.164,-64.0383 469.125,-67.4259 479.085,-71.0378 479.164,-64.0383"/>
</g>
<!-- Node5 -->
<g id="node5" class="node"><title>Node5</title>
<polygon fill="white" stroke="#bfbfbf" points="349,-0.5 349,-19.5 401,-19.5 401,-0.5 349,-0.5"/>
<text text-anchor="middle" x="375" y="-7.5" font-family="Helvetica,sans-Serif" font-size="10.00">cassert</text>
</g>
<!-- Node4&#45;&gt;Node5 -->
<g id="edge4" class="edge"><title>Node4&#45;&gt;Node5</title>
<path fill="none" stroke="midnightblue" d="M403.386,-56.083C398.633,-48.5341 391.682,-37.4948 385.848,-28.2298"/>
<polygon fill="midnightblue" stroke="midnightblue" points="388.8,-26.3486 380.51,-19.7511 382.876,-30.0783 388.8,-26.3486"/>
</g>
<!-- Node6 -->
<g id="node6" class="node"><title>Node6</title>
<polygon fill="white" stroke="#bfbfbf" points="419.5,-0.5 419.5,-19.5 464.5,-19.5 464.5,-0.5 419.5,-0.5"/>
<text text-anchor="middle" x="442" y="-7.5" font-family="Helvetica,sans-Serif" font-size="10.00">cstdio</text>
</g>
<!-- Node4&#45;&gt;Node6 -->
<g id="edge5" class="edge"><title>Node4&#45;&gt;Node6</title>
<path fill="none" stroke="midnightblue" d="M414.449,-56.083C419.014,-48.6127 425.668,-37.7244 431.293,-28.5199"/>
<polygon fill="midnightblue" stroke="midnightblue" points="434.424,-30.109 436.652,-19.7511 428.451,-26.4588 434.424,-30.109"/>
</g>
<!-- Node4&#45;&gt;Node7 -->
<g id="edge6" class="edge"><title>Node4&#45;&gt;Node7</title>
<path fill="none" stroke="midnightblue" d="M362.89,-56.4435C306.398,-45.9604 211.615,-28.3718 158.043,-18.4307"/>
<polygon fill="midnightblue" stroke="midnightblue" points="158.372,-14.9321 147.902,-16.5488 157.095,-21.8146 158.372,-14.9321"/>
</g>
<!-- Node8 -->
<g id="node8" class="node"><title>Node8</title>
<polygon fill="white" stroke="#bfbfbf" points="483,-0.5 483,-19.5 539,-19.5 539,-0.5 483,-0.5"/>
<text text-anchor="middle" x="511" y="-7.5" font-family="Helvetica,sans-Serif" font-size="10.00">sstream</text>
</g>
<!-- Node4&#45;&gt;Node8 -->
<g id="edge7" class="edge"><title>Node4&#45;&gt;Node8</title>
<path fill="none" stroke="midnightblue" d="M425.388,-56.324C441.671,-47.7034 466.867,-34.3643 485.716,-24.3855"/>
<polygon fill="midnightblue" stroke="midnightblue" points="487.452,-27.4267 494.653,-19.6545 484.177,-21.2402 487.452,-27.4267"/>
</g>
<!-- Node9 -->
<g id="node9" class="node"><title>Node9</title>
<polygon fill="white" stroke="#bfbfbf" points="283,-0.5 283,-19.5 331,-19.5 331,-0.5 283,-0.5"/>
<text text-anchor="middle" x="307" y="-7.5" font-family="Helvetica,sans-Serif" font-size="10.00">thread</text>
</g>
<!-- Node4&#45;&gt;Node9 -->
<g id="edge8" class="edge"><title>Node4&#45;&gt;Node9</title>
<path fill="none" stroke="midnightblue" d="M392.612,-56.324C376.329,-47.7034 351.133,-34.3643 332.284,-24.3855"/>
<polygon fill="midnightblue" stroke="midnightblue" points="333.823,-21.2402 323.347,-19.6545 330.548,-27.4267 333.823,-21.2402"/>
</g>
<!-- Node16 -->
<g id="node16" class="node"><title>Node16</title>
<g id="a_node16"><a xlink:href="RaCore_8hpp.html" target="_top" xlink:title="Core/RaCore.hpp">
<polygon fill="white" stroke="black" points="360,-112.5 360,-131.5 458,-131.5 458,-112.5 360,-112.5"/>
<text text-anchor="middle" x="409" y="-119.5" font-family="Helvetica,sans-Serif" font-size="10.00">Core/RaCore.hpp</text>
</a>
</g>
</g>
<!-- Node15&#45;&gt;Node16 -->
<g id="edge16" class="edge"><title>Node15&#45;&gt;Node16</title>
<path fill="none" stroke="midnightblue" d="M566.872,-229.95C511.27,-218.979 422.892,-199.94 413,-188 402.528,-175.36 402.647,-156.15 404.713,-141.888"/>
<polygon fill="midnightblue" stroke="midnightblue" points="408.215,-142.206 406.622,-131.731 401.335,-140.913 408.215,-142.206"/>
</g>
<!-- Node16&#45;&gt;Node4 -->
<g id="edge17" class="edge"><title>Node16&#45;&gt;Node4</title>
<path fill="none" stroke="midnightblue" d="M409,-112.083C409,-105.006 409,-94.8611 409,-85.9865"/>
<polygon fill="midnightblue" stroke="midnightblue" points="412.5,-85.751 409,-75.7511 405.5,-85.7511 412.5,-85.751"/>
</g>
<!-- Node17&#45;&gt;Node3 -->
<g id="edge25" class="edge"><title>Node17&#45;&gt;Node3</title>
<path fill="none" stroke="midnightblue" d="M861.383,-229.975C902.562,-219.459 972.65,-201.562 1017.87,-190.014"/>
<polygon fill="midnightblue" stroke="midnightblue" points="1018.86,-193.375 1027.68,-187.509 1017.12,-186.592 1018.86,-193.375"/>
</g>
<!-- Node17&#45;&gt;Node14 -->
<g id="edge26" class="edge"><title>Node17&#45;&gt;Node14</title>
<path fill="none" stroke="midnightblue" d="M765.935,-229.995C679.877,-218.139 529.963,-197.238 479.75,-188.015"/>
<polygon fill="midnightblue" stroke="midnightblue" points="480.168,-184.53 469.68,-186.033 478.815,-191.398 480.168,-184.53"/>
</g>
<!-- Node18 -->
<g id="node18" class="node"><title>Node18</title>
<g id="a_node18"><a xlink:href="Index_8hpp.html" target="_top" xlink:title="Core/Utils/Index.hpp">
<polygon fill="white" stroke="black" points="487.5,-168.5 487.5,-187.5 600.5,-187.5 600.5,-168.5 487.5,-168.5"/>
<text text-anchor="middle" x="544" y="-175.5" font-family="Helvetica,sans-Serif" font-size="10.00">Core/Utils/Index.hpp</text>
</a>
</g>
</g>
<!-- Node17&#45;&gt;Node18 -->
<g id="edge19" class="edge"><title>Node17&#45;&gt;Node18</title>
<path fill="none" stroke="midnightblue" d="M787.31,-229.975C736.485,-219.327 649.529,-201.109 594.502,-189.581"/>
<polygon fill="midnightblue" stroke="midnightblue" points="595.12,-186.134 584.615,-187.509 593.685,-192.985 595.12,-186.134"/>
</g>
<!-- Node21 -->
<g id="node21" class="node"><title>Node21</title>
<polygon fill="white" stroke="#bfbfbf" points="755,-112.5 755,-131.5 823,-131.5 823,-112.5 755,-112.5"/>
<text text-anchor="middle" x="789" y="-119.5" font-family="Helvetica,sans-Serif" font-size="10.00">Eigen/Core</text>
</g>
<!-- Node17&#45;&gt;Node21 -->
<g id="edge23" class="edge"><title>Node17&#45;&gt;Node21</title>
<path fill="none" stroke="midnightblue" d="M825.877,-229.709C822.547,-216.262 815.678,-189.845 808,-168 804.797,-158.887 800.683,-148.974 797.102,-140.778"/>
<polygon fill="midnightblue" stroke="midnightblue" points="800.234,-139.208 792.961,-131.504 793.842,-142.062 800.234,-139.208"/>
</g>
<!-- Node22 -->
<g id="node22" class="node"><title>Node22</title>
<polygon fill="white" stroke="#bfbfbf" points="939,-112.5 939,-131.5 1033,-131.5 1033,-112.5 939,-112.5"/>
<text text-anchor="middle" x="986" y="-119.5" font-family="Helvetica,sans-Serif" font-size="10.00">Eigen/Geometry</text>
</g>
<!-- Node17&#45;&gt;Node22 -->
<g id="edge24" class="edge"><title>Node17&#45;&gt;Node22</title>
<path fill="none" stroke="midnightblue" d="M869.604,-229.973C896.398,-222.673 930.489,-209.782 954,-188 967.529,-175.466 976.058,-155.967 980.876,-141.593"/>
<polygon fill="midnightblue" stroke="midnightblue" points="984.293,-142.386 983.859,-131.8 977.597,-140.346 984.293,-142.386"/>
</g>
<!-- Node23 -->
<g id="node23" class="node"><title>Node23</title>
<g id="a_node23"><a xlink:href="Types_8hpp.html" target="_top" xlink:title="Core/Types.hpp">
<polygon fill="white" stroke="black" points="856.5,-168.5 856.5,-187.5 945.5,-187.5 945.5,-168.5 856.5,-168.5"/>
<text text-anchor="middle" x="901" y="-175.5" font-family="Helvetica,sans-Serif" font-size="10.00">Core/Types.hpp</text>
</a>
</g>
</g>
<!-- Node17&#45;&gt;Node23 -->
<g id="edge27" class="edge"><title>Node17&#45;&gt;Node23</title>
<path fill="none" stroke="midnightblue" d="M838.459,-229.975C849.951,-220.608 868.63,-205.384 882.587,-194.008"/>
<polygon fill="midnightblue" stroke="midnightblue" points="885.02,-196.54 890.56,-187.509 880.598,-191.114 885.02,-196.54"/>
</g>
<!-- Node25 -->
<g id="node25" class="node"><title>Node25</title>
<g id="a_node25"><a xlink:href="Component_8inl.html" target="_top" xlink:title="Engine/Component/Component.inl">
<polygon fill="white" stroke="black" points="618.5,-168.5 618.5,-187.5 799.5,-187.5 799.5,-168.5 618.5,-168.5"/>
<text text-anchor="middle" x="709" y="-175.5" font-family="Helvetica,sans-Serif" font-size="10.00">Engine/Component/Component.inl</text>
</a>
</g>
</g>
<!-- Node17&#45;&gt;Node25 -->
<g id="edge32" class="edge"><title>Node17&#45;&gt;Node25</title>
<path fill="none" stroke="midnightblue" d="M806.05,-229.975C784.293,-220.166 751.546,-203.935 730.1,-192.425"/>
<polygon fill="midnightblue" stroke="midnightblue" points="731.573,-189.242 721.121,-187.509 728.212,-195.382 731.573,-189.242"/>
</g>
<!-- Node18&#45;&gt;Node16 -->
<g id="edge20" class="edge"><title>Node18&#45;&gt;Node16</title>
<path fill="none" stroke="midnightblue" d="M522.609,-168.444C500.293,-159.517 465.097,-145.439 439.792,-135.317"/>
<polygon fill="midnightblue" stroke="midnightblue" points="440.876,-131.981 430.291,-131.516 438.276,-138.48 440.876,-131.981"/>
</g>
<!-- Node19 -->
<g id="node19" class="node"><title>Node19</title>
<polygon fill="white" stroke="#bfbfbf" points="492,-112.5 492,-131.5 534,-131.5 534,-112.5 492,-112.5"/>
<text text-anchor="middle" x="513" y="-119.5" font-family="Helvetica,sans-Serif" font-size="10.00">limits</text>
</g>
<!-- Node18&#45;&gt;Node19 -->
<g id="edge21" class="edge"><title>Node18&#45;&gt;Node19</title>
<path fill="none" stroke="midnightblue" d="M538.881,-168.083C534.592,-160.613 528.342,-149.724 523.058,-140.52"/>
<polygon fill="midnightblue" stroke="midnightblue" points="526.038,-138.681 518.024,-131.751 519.967,-142.166 526.038,-138.681"/>
</g>
<!-- Node20 -->
<g id="node20" class="node"><title>Node20</title>
<g id="a_node20"><a xlink:href="Index_8inl.html" target="_top" xlink:title="Core/Utils/Index.inl">
<polygon fill="white" stroke="black" points="552.5,-112.5 552.5,-131.5 657.5,-131.5 657.5,-112.5 552.5,-112.5"/>
<text text-anchor="middle" x="605" y="-119.5" font-family="Helvetica,sans-Serif" font-size="10.00">Core/Utils/Index.inl</text>
</a>
</g>
</g>
<!-- Node18&#45;&gt;Node20 -->
<g id="edge22" class="edge"><title>Node18&#45;&gt;Node20</title>
<path fill="none" stroke="midnightblue" d="M553.801,-168.324C562.818,-160.341 576.406,-148.313 587.318,-138.653"/>
<polygon fill="midnightblue" stroke="midnightblue" points="589.853,-141.083 595.021,-131.834 585.213,-135.842 589.853,-141.083"/>
</g>
<!-- Node23&#45;&gt;Node16 -->
<g id="edge28" class="edge"><title>Node23&#45;&gt;Node16</title>
<path fill="none" stroke="midnightblue" d="M856.436,-172.406C779.994,-164.481 618.964,-147.586 483,-132 478.267,-131.457 473.365,-130.885 468.44,-130.302"/>
<polygon fill="midnightblue" stroke="midnightblue" points="468.691,-126.807 458.347,-129.098 467.862,-133.758 468.691,-126.807"/>
</g>
<!-- Node23&#45;&gt;Node21 -->
<g id="edge29" class="edge"><title>Node23&#45;&gt;Node21</title>
<path fill="none" stroke="midnightblue" d="M883.005,-168.324C864.962,-159.625 836.953,-146.12 816.197,-136.113"/>
<polygon fill="midnightblue" stroke="midnightblue" points="817.478,-132.845 806.95,-131.655 814.438,-139.15 817.478,-132.845"/>
</g>
<!-- Node23&#45;&gt;Node22 -->
<g id="edge30" class="edge"><title>Node23&#45;&gt;Node22</title>
<path fill="none" stroke="midnightblue" d="M914.657,-168.324C927.916,-159.9 948.268,-146.971 963.846,-137.074"/>
<polygon fill="midnightblue" stroke="midnightblue" points="965.813,-139.971 972.377,-131.655 962.06,-134.063 965.813,-139.971"/>
</g>
<!-- Node24 -->
<g id="node24" class="node"><title>Node24</title>
<polygon fill="white" stroke="#bfbfbf" points="841,-112.5 841,-131.5 921,-131.5 921,-112.5 841,-112.5"/>
<text text-anchor="middle" x="881" y="-119.5" font-family="Helvetica,sans-Serif" font-size="10.00">Eigen/Sparse</text>
</g>
<!-- Node23&#45;&gt;Node24 -->
<g id="edge31" class="edge"><title>Node23&#45;&gt;Node24</title>
<path fill="none" stroke="midnightblue" d="M897.697,-168.083C895.018,-160.849 891.151,-150.409 887.814,-141.397"/>
<polygon fill="midnightblue" stroke="midnightblue" points="890.996,-139.913 884.241,-131.751 884.432,-142.344 890.996,-139.913"/>
</g>
<!-- Node25&#45;&gt;Node17 -->
<g id="edge33" class="edge"><title>Node25&#45;&gt;Node17</title>
<path fill="none" stroke="midnightblue" d="M730.915,-187.509C752.66,-197.311 785.407,-213.542 806.866,-225.056"/>
<polygon fill="midnightblue" stroke="midnightblue" points="805.398,-228.243 815.851,-229.975 808.76,-222.103 805.398,-228.243"/>
</g>
<!-- Node26&#45;&gt;Node2 -->
<g id="edge35" class="edge"><title>Node26&#45;&gt;Node2</title>
<path fill="none" stroke="midnightblue" d="M216.874,-254.611C252.12,-264.549 297.858,-277.908 332.769,-288.444"/>
<polygon fill="midnightblue" stroke="midnightblue" points="332.185,-291.924 342.771,-291.476 334.216,-285.225 332.185,-291.924"/>
</g>
<!-- Node27 -->
<g id="node27" class="node"><title>Node27</title>
<g id="a_node27"><a xlink:href="StdUtils_8hpp.html" target="_top" xlink:title="Core/Utils/StdUtils.hpp">
<polygon fill="white" stroke="black" points="100.5,-168.5 100.5,-187.5 225.5,-187.5 225.5,-168.5 100.5,-168.5"/>
<text text-anchor="middle" x="163" y="-175.5" font-family="Helvetica,sans-Serif" font-size="10.00">Core/Utils/StdUtils.hpp</text>
</a>
</g>
</g>
<!-- Node26&#45;&gt;Node27 -->
<g id="edge36" class="edge"><title>Node26&#45;&gt;Node27</title>
<path fill="none" stroke="midnightblue" d="M163,-224.399C163,-216.466 163,-206.458 163,-197.858"/>
<polygon fill="midnightblue" stroke="midnightblue" points="166.5,-197.658 163,-187.658 159.5,-197.658 166.5,-197.658"/>
</g>
<!-- Node27&#45;&gt;Node10 -->
<g id="edge38" class="edge"><title>Node27&#45;&gt;Node10</title>
<path fill="none" stroke="midnightblue" d="M154.578,-168.083C147.152,-160.22 136.148,-148.569 127.188,-139.081"/>
<polygon fill="midnightblue" stroke="midnightblue" points="129.676,-136.618 120.265,-131.751 124.587,-141.424 129.676,-136.618"/>
</g>
<!-- Node27&#45;&gt;Node16 -->
<g id="edge37" class="edge"><title>Node27&#45;&gt;Node16</title>
<path fill="none" stroke="midnightblue" d="M201.979,-168.444C244.894,-159.023 313.946,-143.866 360.369,-133.675"/>
<polygon fill="midnightblue" stroke="midnightblue" points="361.186,-137.079 370.203,-131.516 359.685,-130.242 361.186,-137.079"/>
</g>
</g>
</svg>
