<?xml version="1.0" encoding="UTF-8" standalone="no"?>
<!DOCTYPE svg PUBLIC "-//W3C//DTD SVG 1.1//EN"
 "http://www.w3.org/Graphics/SVG/1.1/DTD/svg11.dtd">
<!-- Generated by graphviz version 2.38.0 (20140413.2041)
 -->
<!-- Title: /home/travis/build/STORM&#45;IRIT/Radium&#45;Engine/src/Core/Geometry/Curve2D.hpp Pages: 1 -->
<svg width="856pt" height="397pt"
 viewBox="0.00 0.00 856.00 397.00" xmlns="http://www.w3.org/2000/svg" xmlns:xlink="http://www.w3.org/1999/xlink">
<g id="graph0" class="graph" transform="scale(1 1) rotate(0) translate(4 393)">
<title>/home/travis/build/STORM&#45;IRIT/Radium&#45;Engine/src/Core/Geometry/Curve2D.hpp</title>
<polygon fill="white" stroke="none" points="-4,4 -4,-393 852,-393 852,4 -4,4"/>
<!-- Node1 -->
<g id="node1" class="node"><title>Node1</title>
<polygon fill="#bfbfbf" stroke="black" points="492,-347.5 492,-388.5 668,-388.5 668,-347.5 492,-347.5"/>
<text text-anchor="start" x="500" y="-376.5" font-family="Helvetica,sans-Serif" font-size="10.00">/home/travis/build</text>
<text text-anchor="start" x="500" y="-365.5" font-family="Helvetica,sans-Serif" font-size="10.00">/STORM&#45;IRIT/Radium&#45;Engine</text>
<text text-anchor="middle" x="580" y="-354.5" font-family="Helvetica,sans-Serif" font-size="10.00">/src/Core/Geometry/Curve2D.hpp</text>
</g>
<!-- Node2 -->
<g id="node2" class="node"><title>Node2</title>
<g id="a_node2"><a xlink:href="VectorArray_8hpp.html" target="_top" xlink:title="Core/Containers/VectorArray.hpp">
<polygon fill="white" stroke="black" points="302.5,-235.5 302.5,-254.5 475.5,-254.5 475.5,-235.5 302.5,-235.5"/>
<text text-anchor="middle" x="389" y="-242.5" font-family="Helvetica,sans-Serif" font-size="10.00">Core/Containers/VectorArray.hpp</text>
</a>
</g>
</g>
<!-- Node1&#45;&gt;Node2 -->
<g id="edge1" class="edge"><title>Node1&#45;&gt;Node2</title>
<path fill="none" stroke="midnightblue" d="M519.841,-347.425C496.56,-338.319 470.419,-326.12 449,-311 429.882,-297.505 412.266,-277.046 401.137,-262.695"/>
<polygon fill="midnightblue" stroke="midnightblue" points="403.902,-260.548 395.09,-254.666 398.31,-264.759 403.902,-260.548"/>
</g>
<!-- Node4 -->
<g id="node4" class="node"><title>Node4</title>
<g id="a_node4"><a xlink:href="RaCore_8hpp.html" target="_top" xlink:title="Core/RaCore.hpp">
<polygon fill="white" stroke="black" points="296,-112.5 296,-131.5 394,-131.5 394,-112.5 296,-112.5"/>
<text text-anchor="middle" x="345" y="-119.5" font-family="Helvetica,sans-Serif" font-size="10.00">Core/RaCore.hpp</text>
</a>
</g>
</g>
<!-- Node1&#45;&gt;Node4 -->
<g id="edge32" class="edge"><title>Node1&#45;&gt;Node4</title>
<path fill="none" stroke="midnightblue" d="M491.723,-359.098C424.437,-347.859 336.221,-320.679 293,-255 267.954,-216.94 306.254,-164.963 329.432,-139.053"/>
<polygon fill="midnightblue" stroke="midnightblue" points="332.1,-141.323 336.326,-131.607 326.964,-136.567 332.1,-141.323"/>
</g>
<!-- Node12 -->
<g id="node12" class="node"><title>Node12</title>
<polygon fill="white" stroke="#bfbfbf" points="531.5,-112.5 531.5,-131.5 578.5,-131.5 578.5,-112.5 531.5,-112.5"/>
<text text-anchor="middle" x="555" y="-119.5" font-family="Helvetica,sans-Serif" font-size="10.00">vector</text>
</g>
<!-- Node1&#45;&gt;Node12 -->
<g id="edge33" class="edge"><title>Node1&#45;&gt;Node12</title>
<path fill="none" stroke="midnightblue" d="M593.676,-347.247C599.985,-336.944 606.778,-323.837 610,-311 612.164,-302.379 611.327,-299.789 610,-291 601.477,-234.537 576.289,-171.404 563.163,-141.123"/>
<polygon fill="midnightblue" stroke="midnightblue" points="566.31,-139.583 559.071,-131.847 559.905,-142.409 566.31,-139.583"/>
</g>
<!-- Node17 -->
<g id="node17" class="node"><title>Node17</title>
<g id="a_node17"><a xlink:href="Spline_8hpp.html" target="_top" xlink:title="Core/Geometry/Spline.hpp">
<polygon fill="white" stroke="black" points="458.5,-291.5 458.5,-310.5 601.5,-310.5 601.5,-291.5 458.5,-291.5"/>
<text text-anchor="middle" x="530" y="-298.5" font-family="Helvetica,sans-Serif" font-size="10.00">Core/Geometry/Spline.hpp</text>
</a>
</g>
</g>
<!-- Node1&#45;&gt;Node17 -->
<g id="edge19" class="edge"><title>Node1&#45;&gt;Node17</title>
<path fill="none" stroke="midnightblue" d="M564.998,-347.498C557.922,-338.299 549.566,-327.436 542.794,-318.632"/>
<polygon fill="midnightblue" stroke="midnightblue" points="545.527,-316.445 536.656,-310.652 539.979,-320.713 545.527,-316.445"/>
</g>
<!-- Node23 -->
<g id="node23" class="node"><title>Node23</title>
<g id="a_node23"><a xlink:href="Curve2D_8inl.html" target="_top" xlink:title="Core/Geometry/Curve2D.inl">
<polygon fill="white" stroke="black" points="658,-291.5 658,-310.5 806,-310.5 806,-291.5 658,-291.5"/>
<text text-anchor="middle" x="732" y="-298.5" font-family="Helvetica,sans-Serif" font-size="10.00">Core/Geometry/Curve2D.inl</text>
</a>
</g>
</g>
<!-- Node1&#45;&gt;Node23 -->
<g id="edge34" class="edge"><title>Node1&#45;&gt;Node23</title>
<path fill="none" stroke="midnightblue" d="M619.36,-347.498C643.578,-336.766 674.238,-323.769 697.517,-314.419"/>
<polygon fill="midnightblue" stroke="midnightblue" points="699,-317.596 707.002,-310.652 696.416,-311.091 699,-317.596"/>
</g>
<!-- Node3 -->
<g id="node3" class="node"><title>Node3</title>
<g id="a_node3"><a xlink:href="AlignedStdVector_8hpp.html" target="_top" xlink:title="Core/Containers/AlignedStd\lVector.hpp">
<polygon fill="white" stroke="black" points="377.5,-168.5 377.5,-198.5 526.5,-198.5 526.5,-168.5 377.5,-168.5"/>
<text text-anchor="start" x="385.5" y="-186.5" font-family="Helvetica,sans-Serif" font-size="10.00">Core/Containers/AlignedStd</text>
<text text-anchor="middle" x="452" y="-175.5" font-family="Helvetica,sans-Serif" font-size="10.00">Vector.hpp</text>
</a>
</g>
</g>
<!-- Node2&#45;&gt;Node3 -->
<g id="edge2" class="edge"><title>Node2&#45;&gt;Node3</title>
<path fill="none" stroke="midnightblue" d="M398.026,-235.475C406.24,-227.718 418.707,-215.943 429.591,-205.665"/>
<polygon fill="midnightblue" stroke="midnightblue" points="432.285,-207.934 437.152,-198.523 427.479,-202.845 432.285,-207.934"/>
</g>
<!-- Node2&#45;&gt;Node4 -->
<g id="edge12" class="edge"><title>Node2&#45;&gt;Node4</title>
<path fill="none" stroke="midnightblue" d="M372.666,-235.387C360.045,-227.72 343.503,-215.213 336,-199 327.567,-180.777 332.227,-157.584 337.46,-141.639"/>
<polygon fill="midnightblue" stroke="midnightblue" points="340.871,-142.503 341.021,-131.909 334.298,-140.097 340.871,-142.503"/>
</g>
<!-- Node2&#45;&gt;Node12 -->
<g id="edge18" class="edge"><title>Node2&#45;&gt;Node12</title>
<path fill="none" stroke="midnightblue" d="M465.496,-235.463C490.608,-229.085 516.731,-218.046 535,-199 549.657,-183.72 553.893,-159.037 554.957,-141.966"/>
<polygon fill="midnightblue" stroke="midnightblue" points="558.467,-141.676 555.275,-131.573 551.471,-141.461 558.467,-141.676"/>
</g>
<!-- Node13 -->
<g id="node13" class="node"><title>Node13</title>
<g id="a_node13"><a xlink:href="Types_8hpp.html" target="_top" xlink:title="Core/Types.hpp">
<polygon fill="white" stroke="black" points="156.5,-174 156.5,-193 245.5,-193 245.5,-174 156.5,-174"/>
<text text-anchor="middle" x="201" y="-181" font-family="Helvetica,sans-Serif" font-size="10.00">Core/Types.hpp</text>
</a>
</g>
</g>
<!-- Node2&#45;&gt;Node13 -->
<g id="edge13" class="edge"><title>Node2&#45;&gt;Node13</title>
<path fill="none" stroke="midnightblue" d="M362.064,-235.475C329.397,-225.136 274.181,-207.661 237.657,-196.102"/>
<polygon fill="midnightblue" stroke="midnightblue" points="238.476,-192.69 227.886,-193.009 236.364,-199.363 238.476,-192.69"/>
</g>
<!-- Node3&#45;&gt;Node4 -->
<g id="edge3" class="edge"><title>Node3&#45;&gt;Node4</title>
<path fill="none" stroke="midnightblue" d="M426.642,-168.399C409.331,-158.773 386.524,-146.09 369.416,-136.577"/>
<polygon fill="midnightblue" stroke="midnightblue" points="371.01,-133.459 360.569,-131.658 367.608,-139.577 371.01,-133.459"/>
</g>
<!-- Node11 -->
<g id="node11" class="node"><title>Node11</title>
<polygon fill="white" stroke="#bfbfbf" points="411.5,-112.5 411.5,-131.5 504.5,-131.5 504.5,-112.5 411.5,-112.5"/>
<text text-anchor="middle" x="458" y="-119.5" font-family="Helvetica,sans-Serif" font-size="10.00">Eigen/StdVector</text>
</g>
<!-- Node3&#45;&gt;Node11 -->
<g id="edge10" class="edge"><title>Node3&#45;&gt;Node11</title>
<path fill="none" stroke="midnightblue" d="M453.422,-168.399C454.222,-160.466 455.231,-150.458 456.098,-141.858"/>
<polygon fill="midnightblue" stroke="midnightblue" points="459.606,-141.959 457.127,-131.658 452.641,-141.256 459.606,-141.959"/>
</g>
<!-- Node3&#45;&gt;Node12 -->
<g id="edge11" class="edge"><title>Node3&#45;&gt;Node12</title>
<path fill="none" stroke="midnightblue" d="M476.41,-168.399C492.92,-158.862 514.623,-146.325 531.038,-136.842"/>
<polygon fill="midnightblue" stroke="midnightblue" points="533.104,-139.691 540.013,-131.658 529.603,-133.629 533.104,-139.691"/>
</g>
<!-- Node5 -->
<g id="node5" class="node"><title>Node5</title>
<g id="a_node5"><a xlink:href="CoreMacros_8hpp.html" target="_top" xlink:title="Core/CoreMacros.hpp">
<polygon fill="white" stroke="black" points="285,-56.5 285,-75.5 405,-75.5 405,-56.5 285,-56.5"/>
<text text-anchor="middle" x="345" y="-63.5" font-family="Helvetica,sans-Serif" font-size="10.00">Core/CoreMacros.hpp</text>
</a>
</g>
</g>
<!-- Node4&#45;&gt;Node5 -->
<g id="edge4" class="edge"><title>Node4&#45;&gt;Node5</title>
<path fill="none" stroke="midnightblue" d="M345,-112.083C345,-105.006 345,-94.8611 345,-85.9865"/>
<polygon fill="midnightblue" stroke="midnightblue" points="348.5,-85.751 345,-75.7511 341.5,-85.7511 348.5,-85.751"/>
</g>
<!-- Node6 -->
<g id="node6" class="node"><title>Node6</title>
<polygon fill="white" stroke="#bfbfbf" points="182,-0.5 182,-19.5 234,-19.5 234,-0.5 182,-0.5"/>
<text text-anchor="middle" x="208" y="-7.5" font-family="Helvetica,sans-Serif" font-size="10.00">cassert</text>
</g>
<!-- Node5&#45;&gt;Node6 -->
<g id="edge5" class="edge"><title>Node5&#45;&gt;Node6</title>
<path fill="none" stroke="midnightblue" d="M323.292,-56.4435C300.645,-47.5171 264.928,-33.4387 239.248,-23.3168"/>
<polygon fill="midnightblue" stroke="midnightblue" points="240.193,-19.9273 229.606,-19.5164 237.626,-26.4397 240.193,-19.9273"/>
</g>
<!-- Node7 -->
<g id="node7" class="node"><title>Node7</title>
<polygon fill="white" stroke="#bfbfbf" points="252.5,-0.5 252.5,-19.5 297.5,-19.5 297.5,-0.5 252.5,-0.5"/>
<text text-anchor="middle" x="275" y="-7.5" font-family="Helvetica,sans-Serif" font-size="10.00">cstdio</text>
</g>
<!-- Node5&#45;&gt;Node7 -->
<g id="edge6" class="edge"><title>Node5&#45;&gt;Node7</title>
<path fill="none" stroke="midnightblue" d="M333.753,-56.324C323.203,-48.1849 307.199,-35.8395 294.558,-26.0874"/>
<polygon fill="midnightblue" stroke="midnightblue" points="296.507,-23.1707 286.451,-19.8339 292.231,-28.7132 296.507,-23.1707"/>
</g>
<!-- Node8 -->
<g id="node8" class="node"><title>Node8</title>
<polygon fill="white" stroke="#bfbfbf" points="315.5,-0.5 315.5,-19.5 374.5,-19.5 374.5,-0.5 315.5,-0.5"/>
<text text-anchor="middle" x="345" y="-7.5" font-family="Helvetica,sans-Serif" font-size="10.00">iostream</text>
</g>
<!-- Node5&#45;&gt;Node8 -->
<g id="edge7" class="edge"><title>Node5&#45;&gt;Node8</title>
<path fill="none" stroke="midnightblue" d="M345,-56.083C345,-49.0059 345,-38.8611 345,-29.9865"/>
<polygon fill="midnightblue" stroke="midnightblue" points="348.5,-29.751 345,-19.7511 341.5,-29.7511 348.5,-29.751"/>
</g>
<!-- Node9 -->
<g id="node9" class="node"><title>Node9</title>
<polygon fill="white" stroke="#bfbfbf" points="393,-0.5 393,-19.5 449,-19.5 449,-0.5 393,-0.5"/>
<text text-anchor="middle" x="421" y="-7.5" font-family="Helvetica,sans-Serif" font-size="10.00">sstream</text>
</g>
<!-- Node5&#45;&gt;Node9 -->
<g id="edge8" class="edge"><title>Node5&#45;&gt;Node9</title>
<path fill="none" stroke="midnightblue" d="M357.211,-56.324C368.776,-48.1066 386.375,-35.6017 400.161,-25.8069"/>
<polygon fill="midnightblue" stroke="midnightblue" points="402.443,-28.4791 408.567,-19.8339 398.388,-22.7729 402.443,-28.4791"/>
</g>
<!-- Node10 -->
<g id="node10" class="node"><title>Node10</title>
<polygon fill="white" stroke="#bfbfbf" points="467,-0.5 467,-19.5 515,-19.5 515,-0.5 467,-0.5"/>
<text text-anchor="middle" x="491" y="-7.5" font-family="Helvetica,sans-Serif" font-size="10.00">thread</text>
</g>
<!-- Node5&#45;&gt;Node10 -->
<g id="edge9" class="edge"><title>Node5&#45;&gt;Node10</title>
<path fill="none" stroke="midnightblue" d="M368.134,-56.4435C392.482,-47.4381 431.007,-33.1891 458.423,-23.049"/>
<polygon fill="midnightblue" stroke="midnightblue" points="459.809,-26.2681 467.974,-19.5164 457.381,-19.7028 459.809,-26.2681"/>
</g>
<!-- Node13&#45;&gt;Node4 -->
<g id="edge14" class="edge"><title>Node13&#45;&gt;Node4</title>
<path fill="none" stroke="midnightblue" d="M221.632,-173.975C246.119,-163.857 287.147,-146.905 315.109,-135.351"/>
<polygon fill="midnightblue" stroke="midnightblue" points="316.501,-138.563 324.407,-131.509 313.828,-132.093 316.501,-138.563"/>
</g>
<!-- Node14 -->
<g id="node14" class="node"><title>Node14</title>
<polygon fill="white" stroke="#bfbfbf" points="0,-112.5 0,-131.5 68,-131.5 68,-112.5 0,-112.5"/>
<text text-anchor="middle" x="34" y="-119.5" font-family="Helvetica,sans-Serif" font-size="10.00">Eigen/Core</text>
</g>
<!-- Node13&#45;&gt;Node14 -->
<g id="edge15" class="edge"><title>Node13&#45;&gt;Node14</title>
<path fill="none" stroke="midnightblue" d="M177.073,-173.975C148.303,-163.725 99.8436,-146.459 67.3983,-134.899"/>
<polygon fill="midnightblue" stroke="midnightblue" points="68.4773,-131.568 57.8826,-131.509 66.1279,-138.162 68.4773,-131.568"/>
</g>
<!-- Node15 -->
<g id="node15" class="node"><title>Node15</title>
<polygon fill="white" stroke="#bfbfbf" points="86,-112.5 86,-131.5 180,-131.5 180,-112.5 86,-112.5"/>
<text text-anchor="middle" x="133" y="-119.5" font-family="Helvetica,sans-Serif" font-size="10.00">Eigen/Geometry</text>
</g>
<!-- Node13&#45;&gt;Node15 -->
<g id="edge16" class="edge"><title>Node13&#45;&gt;Node15</title>
<path fill="none" stroke="midnightblue" d="M191.257,-173.975C180.653,-164.697 163.481,-149.671 150.521,-138.331"/>
<polygon fill="midnightblue" stroke="midnightblue" points="152.555,-135.46 142.725,-131.509 147.946,-140.728 152.555,-135.46"/>
</g>
<!-- Node16 -->
<g id="node16" class="node"><title>Node16</title>
<polygon fill="white" stroke="#bfbfbf" points="198,-112.5 198,-131.5 278,-131.5 278,-112.5 198,-112.5"/>
<text text-anchor="middle" x="238" y="-119.5" font-family="Helvetica,sans-Serif" font-size="10.00">Eigen/Sparse</text>
</g>
<!-- Node13&#45;&gt;Node16 -->
<g id="edge17" class="edge"><title>Node13&#45;&gt;Node16</title>
<path fill="none" stroke="midnightblue" d="M206.301,-173.975C211.741,-165.227 220.359,-151.369 227.236,-140.309"/>
<polygon fill="midnightblue" stroke="midnightblue" points="230.4,-141.849 232.709,-131.509 224.456,-138.153 230.4,-141.849"/>
</g>
<!-- Node17&#45;&gt;Node2 -->
<g id="edge20" class="edge"><title>Node17&#45;&gt;Node2</title>
<path fill="none" stroke="midnightblue" d="M507.658,-291.444C484.247,-282.478 447.264,-268.314 420.81,-258.183"/>
<polygon fill="midnightblue" stroke="midnightblue" points="421.828,-254.824 411.237,-254.516 419.324,-261.361 421.828,-254.824"/>
</g>
<!-- Node17&#45;&gt;Node4 -->
<g id="edge21" class="edge"><title>Node17&#45;&gt;Node4</title>
<path fill="none" stroke="midnightblue" d="M526.23,-291.466C519.663,-277.574 504.809,-250.106 484,-235 440.316,-203.288 406.036,-237.305 368,-199 352.926,-183.819 347.676,-159.115 345.878,-142.013"/>
<polygon fill="midnightblue" stroke="midnightblue" points="349.336,-141.311 345.107,-131.597 342.355,-141.828 349.336,-141.311"/>
</g>
<!-- Node17&#45;&gt;Node12 -->
<g id="edge22" class="edge"><title>Node17&#45;&gt;Node12</title>
<path fill="none" stroke="midnightblue" d="M533.177,-291.24C539.273,-273.913 552.414,-233.912 557,-199 558.794,-185.34 557.306,-181.774 557,-168 556.809,-159.391 556.412,-149.863 556.022,-141.799"/>
<polygon fill="midnightblue" stroke="midnightblue" points="559.508,-141.429 555.497,-131.623 552.517,-141.79 559.508,-141.429"/>
</g>
<!-- Node18 -->
<g id="node18" class="node"><title>Node18</title>
<g id="a_node18"><a xlink:href="Spline_8inl.html" target="_top" xlink:title="Core/Geometry/Spline.inl">
<polygon fill="white" stroke="black" points="658,-235.5 658,-254.5 794,-254.5 794,-235.5 658,-235.5"/>
<text text-anchor="middle" x="726" y="-242.5" font-family="Helvetica,sans-Serif" font-size="10.00">Core/Geometry/Spline.inl</text>
</a>
</g>
</g>
<!-- Node17&#45;&gt;Node18 -->
<g id="edge23" class="edge"><title>Node17&#45;&gt;Node18</title>
<path fill="none" stroke="midnightblue" d="M555.968,-291.444C587.622,-282.162 641.366,-267.309 680.031,-257.127"/>
<polygon fill="midnightblue" stroke="midnightblue" points="681.22,-260.434 690.009,-254.516 679.448,-253.662 681.22,-260.434"/>
</g>
<!-- Node18&#45;&gt;Node17 -->
<g id="edge24" class="edge"><title>Node18&#45;&gt;Node17</title>
<path fill="none" stroke="midnightblue" d="M700.168,-254.516C668.578,-263.782 614.844,-278.633 576.136,-288.829"/>
<polygon fill="midnightblue" stroke="midnightblue" points="574.934,-285.526 566.146,-291.444 576.706,-292.298 574.934,-285.526"/>
</g>
<!-- Node19 -->
<g id="node19" class="node"><title>Node19</title>
<g id="a_node19"><a xlink:href="Math_8hpp.html" target="_top" xlink:title="Core/Math/Math.hpp">
<polygon fill="white" stroke="black" points="658,-174 658,-193 772,-193 772,-174 658,-174"/>
<text text-anchor="middle" x="715" y="-181" font-family="Helvetica,sans-Serif" font-size="10.00">Core/Math/Math.hpp</text>
</a>
</g>
</g>
<!-- Node18&#45;&gt;Node19 -->
<g id="edge25" class="edge"><title>Node18&#45;&gt;Node19</title>
<path fill="none" stroke="midnightblue" d="M724.424,-235.475C722.872,-227.08 720.45,-213.981 718.45,-203.163"/>
<polygon fill="midnightblue" stroke="midnightblue" points="721.833,-202.206 716.573,-193.009 714.949,-203.479 721.833,-202.206"/>
</g>
<!-- Node20 -->
<g id="node20" class="node"><title>Node20</title>
<polygon fill="white" stroke="#bfbfbf" points="786,-112.5 786,-131.5 848,-131.5 848,-112.5 786,-112.5"/>
<text text-anchor="middle" x="817" y="-119.5" font-family="Helvetica,sans-Serif" font-size="10.00">algorithm</text>
</g>
<!-- Node18&#45;&gt;Node20 -->
<g id="edge31" class="edge"><title>Node18&#45;&gt;Node20</title>
<path fill="none" stroke="midnightblue" d="M739.662,-235.389C751.77,-227.211 769.295,-213.966 781,-199 794.739,-181.433 804.899,-157.772 810.86,-141.543"/>
<polygon fill="midnightblue" stroke="midnightblue" points="814.318,-142.257 814.308,-131.662 807.709,-139.95 814.318,-142.257"/>
</g>
<!-- Node19&#45;&gt;Node4 -->
<g id="edge26" class="edge"><title>Node19&#45;&gt;Node4</title>
<path fill="none" stroke="midnightblue" d="M661.988,-173.975C593.71,-162.995 475.383,-143.967 404.221,-132.523"/>
<polygon fill="midnightblue" stroke="midnightblue" points="404.504,-129.024 394.075,-130.892 403.392,-135.935 404.504,-129.024"/>
</g>
<!-- Node19&#45;&gt;Node20 -->
<g id="edge27" class="edge"><title>Node19&#45;&gt;Node20</title>
<path fill="none" stroke="midnightblue" d="M729.614,-173.975C746.353,-164.211 774.004,-148.081 793.719,-136.581"/>
<polygon fill="midnightblue" stroke="midnightblue" points="795.539,-139.571 802.413,-131.509 792.012,-133.525 795.539,-139.571"/>
</g>
<!-- Node21 -->
<g id="node21" class="node"><title>Node21</title>
<polygon fill="white" stroke="#bfbfbf" points="596.5,-112.5 596.5,-131.5 643.5,-131.5 643.5,-112.5 596.5,-112.5"/>
<text text-anchor="middle" x="620" y="-119.5" font-family="Helvetica,sans-Serif" font-size="10.00">cmath</text>
</g>
<!-- Node19&#45;&gt;Node21 -->
<g id="edge28" class="edge"><title>Node19&#45;&gt;Node21</title>
<path fill="none" stroke="midnightblue" d="M701.389,-173.975C685.939,-164.299 660.51,-148.372 642.184,-136.894"/>
<polygon fill="midnightblue" stroke="midnightblue" points="643.919,-133.851 633.586,-131.509 640.203,-139.783 643.919,-133.851"/>
</g>
<!-- Node22 -->
<g id="node22" class="node"><title>Node22</title>
<g id="a_node22"><a xlink:href="Math_8inl.html" target="_top" xlink:title="Core/Math/Math.inl">
<polygon fill="white" stroke="black" points="661.5,-112.5 661.5,-131.5 768.5,-131.5 768.5,-112.5 661.5,-112.5"/>
<text text-anchor="middle" x="715" y="-119.5" font-family="Helvetica,sans-Serif" font-size="10.00">Core/Math/Math.inl</text>
</a>
</g>
</g>
<!-- Node19&#45;&gt;Node22 -->
<g id="edge29" class="edge"><title>Node19&#45;&gt;Node22</title>
<path fill="none" stroke="midnightblue" d="M710.099,-173.975C708.268,-165.58 707.797,-152.481 708.685,-141.663"/>
<polygon fill="midnightblue" stroke="midnightblue" points="712.186,-141.897 710.103,-131.509 705.254,-140.929 712.186,-141.897"/>
</g>
<!-- Node22&#45;&gt;Node19 -->
<g id="edge30" class="edge"><title>Node22&#45;&gt;Node19</title>
<path fill="none" stroke="midnightblue" d="M719.897,-131.509C721.73,-139.898 722.203,-152.996 721.317,-163.817"/>
<polygon fill="midnightblue" stroke="midnightblue" points="717.815,-163.588 719.901,-173.975 724.748,-164.554 717.815,-163.588"/>
</g>
<!-- Node23&#45;&gt;Node1 -->
<g id="edge35" class="edge"><title>Node23&#45;&gt;Node1</title>
<path fill="none" stroke="midnightblue" d="M716.531,-310.652C698.738,-319.023 668.772,-332.087 641.4,-343.529"/>
<polygon fill="midnightblue" stroke="midnightblue" points="639.741,-340.428 631.85,-347.498 642.428,-346.892 639.741,-340.428"/>
</g>
</g>
</svg>
