<?xml version="1.0" encoding="UTF-8" standalone="no"?>
<!DOCTYPE svg PUBLIC "-//W3C//DTD SVG 1.1//EN"
 "http://www.w3.org/Graphics/SVG/1.1/DTD/svg11.dtd">
<!-- Generated by graphviz version 2.38.0 (20140413.2041)
 -->
<!-- Title: /home/travis/build/STORM&#45;IRIT/Radium&#45;Engine/src/Engine/Managers/LightManager/DefaultLightManager.hpp Pages: 1 -->
<svg width="1161pt" height="553pt"
 viewBox="0.00 0.00 1161.00 553.00" xmlns="http://www.w3.org/2000/svg" xmlns:xlink="http://www.w3.org/1999/xlink">
<g id="graph0" class="graph" transform="scale(1 1) rotate(0) translate(4 549)">
<title>/home/travis/build/STORM&#45;IRIT/Radium&#45;Engine/src/Engine/Managers/LightManager/DefaultLightManager.hpp</title>
<polygon fill="white" stroke="none" points="-4,4 -4,-549 1157,-549 1157,4 -4,4"/>
<!-- Node1 -->
<g id="node1" class="node"><title>Node1</title>
<polygon fill="#bfbfbf" stroke="black" points="756.5,-492.5 756.5,-544.5 944.5,-544.5 944.5,-492.5 756.5,-492.5"/>
<text text-anchor="start" x="764.5" y="-532.5" font-family="Helvetica,sans-Serif" font-size="10.00">/home/travis/build</text>
<text text-anchor="start" x="764.5" y="-521.5" font-family="Helvetica,sans-Serif" font-size="10.00">/STORM&#45;IRIT/Radium&#45;Engine</text>
<text text-anchor="start" x="764.5" y="-510.5" font-family="Helvetica,sans-Serif" font-size="10.00">/src/Engine/Managers/LightManager</text>
<text text-anchor="middle" x="850.5" y="-499.5" font-family="Helvetica,sans-Serif" font-size="10.00">/DefaultLightManager.hpp</text>
</g>
<!-- Node2 -->
<g id="node2" class="node"><title>Node2</title>
<g id="a_node2"><a xlink:href="LightManager_8hpp.html" target="_top" xlink:title="Engine/Managers/LightManager\l/LightManager.hpp">
<polygon fill="white" stroke="black" points="767,-425.5 767,-455.5 934,-455.5 934,-425.5 767,-425.5"/>
<text text-anchor="start" x="775" y="-443.5" font-family="Helvetica,sans-Serif" font-size="10.00">Engine/Managers/LightManager</text>
<text text-anchor="middle" x="850.5" y="-432.5" font-family="Helvetica,sans-Serif" font-size="10.00">/LightManager.hpp</text>
</a>
</g>
</g>
<!-- Node1&#45;&gt;Node2 -->
<g id="edge1" class="edge"><title>Node1&#45;&gt;Node2</title>
<path fill="none" stroke="midnightblue" d="M850.5,-492.193C850.5,-483.786 850.5,-474.443 850.5,-466.091"/>
<polygon fill="midnightblue" stroke="midnightblue" points="854,-465.845 850.5,-455.845 847,-465.845 854,-465.845"/>
</g>
<!-- Node11 -->
<g id="node11" class="node"><title>Node11</title>
<g id="a_node11"><a xlink:href="Light_8hpp.html" target="_top" xlink:title="../../Renderer/Light\l/Light.hpp">
<polygon fill="white" stroke="black" points="481.5,-291.5 481.5,-321.5 585.5,-321.5 585.5,-291.5 481.5,-291.5"/>
<text text-anchor="start" x="489.5" y="-309.5" font-family="Helvetica,sans-Serif" font-size="10.00">../../Renderer/Light</text>
<text text-anchor="middle" x="533.5" y="-298.5" font-family="Helvetica,sans-Serif" font-size="10.00">/Light.hpp</text>
</a>
</g>
</g>
<!-- Node1&#45;&gt;Node11 -->
<g id="edge50" class="edge"><title>Node1&#45;&gt;Node11</title>
<path fill="none" stroke="midnightblue" d="M756.205,-513.196C706.093,-506.525 646.202,-491.041 603.5,-456 564.333,-423.86 545.808,-364.753 538.143,-331.627"/>
<polygon fill="midnightblue" stroke="midnightblue" points="541.563,-330.883 536.024,-321.852 534.722,-332.366 541.563,-330.883"/>
</g>
<!-- Node21 -->
<g id="node21" class="node"><title>Node21</title>
<polygon fill="white" stroke="#bfbfbf" points="644,-168.5 644,-187.5 691,-187.5 691,-168.5 644,-168.5"/>
<text text-anchor="middle" x="667.5" y="-175.5" font-family="Helvetica,sans-Serif" font-size="10.00">vector</text>
</g>
<!-- Node1&#45;&gt;Node21 -->
<g id="edge52" class="edge"><title>Node1&#45;&gt;Node21</title>
<path fill="none" stroke="midnightblue" d="M756.402,-498.779C691.736,-479.803 617.5,-443.083 617.5,-374.5 617.5,-374.5 617.5,-374.5 617.5,-305.5 617.5,-263.989 641.074,-219.842 655.848,-196.251"/>
<polygon fill="midnightblue" stroke="midnightblue" points="658.868,-198.027 661.369,-187.731 652.994,-194.22 658.868,-198.027"/>
</g>
<!-- Node27 -->
<g id="node27" class="node"><title>Node27</title>
<polygon fill="white" stroke="#bfbfbf" points="1096,-168.5 1096,-187.5 1153,-187.5 1153,-168.5 1096,-168.5"/>
<text text-anchor="middle" x="1124.5" y="-175.5" font-family="Helvetica,sans-Serif" font-size="10.00">memory</text>
</g>
<!-- Node1&#45;&gt;Node27 -->
<g id="edge51" class="edge"><title>Node1&#45;&gt;Node27</title>
<path fill="none" stroke="midnightblue" d="M944.735,-508.658C1027.06,-495.129 1133.5,-460.926 1133.5,-374.5 1133.5,-374.5 1133.5,-374.5 1133.5,-305.5 1133.5,-267.106 1129.32,-222.321 1126.66,-197.668"/>
<polygon fill="midnightblue" stroke="midnightblue" points="1130.12,-197.124 1125.53,-187.574 1123.17,-197.902 1130.12,-197.124"/>
</g>
<!-- Node28 -->
<g id="node28" class="node"><title>Node28</title>
<g id="a_node28"><a xlink:href="RadiumEngine_8hpp.html" target="_top" xlink:title="Engine/RadiumEngine.hpp">
<polygon fill="white" stroke="black" points="926,-230 926,-249 1067,-249 1067,-230 926,-230"/>
<text text-anchor="middle" x="996.5" y="-237" font-family="Helvetica,sans-Serif" font-size="10.00">Engine/RadiumEngine.hpp</text>
</a>
</g>
</g>
<!-- Node1&#45;&gt;Node28 -->
<g id="edge41" class="edge"><title>Node1&#45;&gt;Node28</title>
<path fill="none" stroke="midnightblue" d="M902.385,-492.22C917.258,-482.72 932.213,-470.609 942.5,-456 986.36,-393.716 994.685,-299.268 996.2,-259.357"/>
<polygon fill="midnightblue" stroke="midnightblue" points="999.703,-259.308 996.477,-249.216 992.705,-259.116 999.703,-259.308"/>
</g>
<!-- Node3 -->
<g id="node3" class="node"><title>Node3</title>
<g id="a_node3"><a xlink:href="LightStorage_8hpp.html" target="_top" xlink:title="Engine/Managers/LightManager\l/LightStorage.hpp">
<polygon fill="white" stroke="black" points="645,-358.5 645,-388.5 812,-388.5 812,-358.5 645,-358.5"/>
<text text-anchor="start" x="653" y="-376.5" font-family="Helvetica,sans-Serif" font-size="10.00">Engine/Managers/LightManager</text>
<text text-anchor="middle" x="728.5" y="-365.5" font-family="Helvetica,sans-Serif" font-size="10.00">/LightStorage.hpp</text>
</a>
</g>
</g>
<!-- Node2&#45;&gt;Node3 -->
<g id="edge2" class="edge"><title>Node2&#45;&gt;Node3</title>
<path fill="none" stroke="midnightblue" d="M824.028,-425.396C806.442,-416.026 783.147,-403.615 763.964,-393.395"/>
<polygon fill="midnightblue" stroke="midnightblue" points="765.392,-390.19 754.921,-388.577 762.1,-396.368 765.392,-390.19"/>
</g>
<!-- Node4 -->
<g id="node4" class="node"><title>Node4</title>
<g id="a_node4"><a xlink:href="RaEngine_8hpp.html" target="_top" xlink:title="../../RaEngine.hpp">
<polygon fill="white" stroke="black" points="709.5,-168.5 709.5,-187.5 809.5,-187.5 809.5,-168.5 709.5,-168.5"/>
<text text-anchor="middle" x="759.5" y="-175.5" font-family="Helvetica,sans-Serif" font-size="10.00">../../RaEngine.hpp</text>
</a>
</g>
</g>
<!-- Node2&#45;&gt;Node4 -->
<g id="edge35" class="edge"><title>Node2&#45;&gt;Node4</title>
<path fill="none" stroke="midnightblue" d="M855.96,-425.478C869.226,-388.898 899.123,-288.914 857.5,-224 847.226,-207.976 829.654,-197.582 812.203,-190.874"/>
<polygon fill="midnightblue" stroke="midnightblue" points="813.162,-187.502 802.567,-187.514 810.857,-194.111 813.162,-187.502"/>
</g>
<!-- Node26 -->
<g id="node26" class="node"><title>Node26</title>
<g id="a_node26"><a xlink:href="System_8hpp.html" target="_top" xlink:title="Engine/System/System.hpp">
<polygon fill="white" stroke="black" points="683,-230 683,-249 832,-249 832,-230 683,-230"/>
<text text-anchor="middle" x="757.5" y="-237" font-family="Helvetica,sans-Serif" font-size="10.00">Engine/System/System.hpp</text>
</a>
</g>
</g>
<!-- Node2&#45;&gt;Node26 -->
<g id="edge36" class="edge"><title>Node2&#45;&gt;Node26</title>
<path fill="none" stroke="midnightblue" d="M845.984,-425.42C840.56,-408.983 830.885,-381.103 820.5,-358 804.05,-321.403 780.991,-280.493 767.816,-257.891"/>
<polygon fill="midnightblue" stroke="midnightblue" points="770.754,-255.982 762.67,-249.133 764.719,-259.528 770.754,-255.982"/>
</g>
<!-- Node2&#45;&gt;Node27 -->
<g id="edge40" class="edge"><title>Node2&#45;&gt;Node27</title>
<path fill="none" stroke="midnightblue" d="M871.894,-425.368C914.198,-396.732 1010.1,-328.326 1075.5,-255 1091.77,-236.759 1106.37,-212.596 1115.32,-196.461"/>
<polygon fill="midnightblue" stroke="midnightblue" points="1118.45,-198.037 1120.12,-187.576 1112.29,-194.708 1118.45,-198.037"/>
</g>
<!-- Node3&#45;&gt;Node4 -->
<g id="edge3" class="edge"><title>Node3&#45;&gt;Node4</title>
<path fill="none" stroke="midnightblue" d="M749.538,-358.406C776.565,-338.882 822.174,-300.787 840.5,-255 845.62,-242.209 847.487,-235.875 840.5,-224 831.582,-208.844 815.511,-198.426 800.022,-191.464"/>
<polygon fill="midnightblue" stroke="midnightblue" points="801.103,-188.124 790.523,-187.564 798.444,-194.6 801.103,-188.124"/>
</g>
<!-- Node3&#45;&gt;Node11 -->
<g id="edge10" class="edge"><title>Node3&#45;&gt;Node11</title>
<path fill="none" stroke="midnightblue" d="M686.188,-358.396C656.546,-348.515 616.757,-335.252 585.229,-324.743"/>
<polygon fill="midnightblue" stroke="midnightblue" points="586.323,-321.418 575.73,-321.577 584.11,-328.059 586.323,-321.418"/>
</g>
<!-- Node5 -->
<g id="node5" class="node"><title>Node5</title>
<g id="a_node5"><a xlink:href="CoreMacros_8hpp.html" target="_top" xlink:title="Core/CoreMacros.hpp">
<polygon fill="white" stroke="black" points="622.5,-56.5 622.5,-75.5 742.5,-75.5 742.5,-56.5 622.5,-56.5"/>
<text text-anchor="middle" x="682.5" y="-63.5" font-family="Helvetica,sans-Serif" font-size="10.00">Core/CoreMacros.hpp</text>
</a>
</g>
</g>
<!-- Node4&#45;&gt;Node5 -->
<g id="edge4" class="edge"><title>Node4&#45;&gt;Node5</title>
<path fill="none" stroke="midnightblue" d="M758.673,-168.28C757.064,-155.079 752.541,-129.688 740.5,-112 731.928,-99.4068 718.716,-88.763 707.066,-80.9937"/>
<polygon fill="midnightblue" stroke="midnightblue" points="708.889,-78.0055 698.564,-75.6281 705.153,-83.9251 708.889,-78.0055"/>
</g>
<!-- Node6 -->
<g id="node6" class="node"><title>Node6</title>
<polygon fill="white" stroke="#bfbfbf" points="519.5,-0.5 519.5,-19.5 571.5,-19.5 571.5,-0.5 519.5,-0.5"/>
<text text-anchor="middle" x="545.5" y="-7.5" font-family="Helvetica,sans-Serif" font-size="10.00">cassert</text>
</g>
<!-- Node5&#45;&gt;Node6 -->
<g id="edge5" class="edge"><title>Node5&#45;&gt;Node6</title>
<path fill="none" stroke="midnightblue" d="M660.792,-56.4435C638.145,-47.5171 602.428,-33.4387 576.748,-23.3168"/>
<polygon fill="midnightblue" stroke="midnightblue" points="577.693,-19.9273 567.106,-19.5164 575.126,-26.4397 577.693,-19.9273"/>
</g>
<!-- Node7 -->
<g id="node7" class="node"><title>Node7</title>
<polygon fill="white" stroke="#bfbfbf" points="590,-0.5 590,-19.5 635,-19.5 635,-0.5 590,-0.5"/>
<text text-anchor="middle" x="612.5" y="-7.5" font-family="Helvetica,sans-Serif" font-size="10.00">cstdio</text>
</g>
<!-- Node5&#45;&gt;Node7 -->
<g id="edge6" class="edge"><title>Node5&#45;&gt;Node7</title>
<path fill="none" stroke="midnightblue" d="M671.253,-56.324C660.703,-48.1849 644.699,-35.8395 632.058,-26.0874"/>
<polygon fill="midnightblue" stroke="midnightblue" points="634.007,-23.1707 623.951,-19.8339 629.731,-28.7132 634.007,-23.1707"/>
</g>
<!-- Node8 -->
<g id="node8" class="node"><title>Node8</title>
<polygon fill="white" stroke="#bfbfbf" points="653,-0.5 653,-19.5 712,-19.5 712,-0.5 653,-0.5"/>
<text text-anchor="middle" x="682.5" y="-7.5" font-family="Helvetica,sans-Serif" font-size="10.00">iostream</text>
</g>
<!-- Node5&#45;&gt;Node8 -->
<g id="edge7" class="edge"><title>Node5&#45;&gt;Node8</title>
<path fill="none" stroke="midnightblue" d="M682.5,-56.083C682.5,-49.0059 682.5,-38.8611 682.5,-29.9865"/>
<polygon fill="midnightblue" stroke="midnightblue" points="686,-29.751 682.5,-19.7511 679,-29.7511 686,-29.751"/>
</g>
<!-- Node9 -->
<g id="node9" class="node"><title>Node9</title>
<polygon fill="white" stroke="#bfbfbf" points="730.5,-0.5 730.5,-19.5 786.5,-19.5 786.5,-0.5 730.5,-0.5"/>
<text text-anchor="middle" x="758.5" y="-7.5" font-family="Helvetica,sans-Serif" font-size="10.00">sstream</text>
</g>
<!-- Node5&#45;&gt;Node9 -->
<g id="edge8" class="edge"><title>Node5&#45;&gt;Node9</title>
<path fill="none" stroke="midnightblue" d="M694.711,-56.324C706.276,-48.1066 723.875,-35.6017 737.661,-25.8069"/>
<polygon fill="midnightblue" stroke="midnightblue" points="739.943,-28.4791 746.067,-19.8339 735.888,-22.7729 739.943,-28.4791"/>
</g>
<!-- Node10 -->
<g id="node10" class="node"><title>Node10</title>
<polygon fill="white" stroke="#bfbfbf" points="804.5,-0.5 804.5,-19.5 852.5,-19.5 852.5,-0.5 804.5,-0.5"/>
<text text-anchor="middle" x="828.5" y="-7.5" font-family="Helvetica,sans-Serif" font-size="10.00">thread</text>
</g>
<!-- Node5&#45;&gt;Node10 -->
<g id="edge9" class="edge"><title>Node5&#45;&gt;Node10</title>
<path fill="none" stroke="midnightblue" d="M705.634,-56.4435C729.982,-47.4381 768.507,-33.1891 795.923,-23.049"/>
<polygon fill="midnightblue" stroke="midnightblue" points="797.309,-26.2681 805.474,-19.5164 794.881,-19.7028 797.309,-26.2681"/>
</g>
<!-- Node11&#45;&gt;Node4 -->
<g id="edge33" class="edge"><title>Node11&#45;&gt;Node4</title>
<path fill="none" stroke="midnightblue" d="M557.094,-291.328C584.773,-274.804 632.141,-246.844 673.5,-224 693.352,-213.035 716.1,-201.162 733.212,-192.366"/>
<polygon fill="midnightblue" stroke="midnightblue" points="735.266,-195.246 742.572,-187.573 732.076,-189.016 735.266,-195.246"/>
</g>
<!-- Node12 -->
<g id="node12" class="node"><title>Node12</title>
<g id="a_node12"><a xlink:href="Color_8hpp.html" target="_top" xlink:title="Core/Utils/Color.hpp">
<polygon fill="white" stroke="black" points="0,-168.5 0,-187.5 111,-187.5 111,-168.5 0,-168.5"/>
<text text-anchor="middle" x="55.5" y="-175.5" font-family="Helvetica,sans-Serif" font-size="10.00">Core/Utils/Color.hpp</text>
</a>
</g>
</g>
<!-- Node11&#45;&gt;Node12 -->
<g id="edge11" class="edge"><title>Node11&#45;&gt;Node12</title>
<path fill="none" stroke="midnightblue" d="M481.3,-299.148C424.369,-291.523 330.897,-276.951 252.5,-255 190.607,-237.67 121.086,-208.429 83.4182,-191.721"/>
<polygon fill="midnightblue" stroke="midnightblue" points="84.6689,-188.446 74.1113,-187.56 81.8116,-194.837 84.6689,-188.446"/>
</g>
<!-- Node16 -->
<g id="node16" class="node"><title>Node16</title>
<g id="a_node16"><a xlink:href="Component_8hpp.html" target="_top" xlink:title="Engine/Component/Component.hpp">
<polygon fill="white" stroke="black" points="261.5,-230 261.5,-249 449.5,-249 449.5,-230 261.5,-230"/>
<text text-anchor="middle" x="355.5" y="-237" font-family="Helvetica,sans-Serif" font-size="10.00">Engine/Component/Component.hpp</text>
</a>
</g>
</g>
<!-- Node11&#45;&gt;Node16 -->
<g id="edge16" class="edge"><title>Node11&#45;&gt;Node16</title>
<path fill="none" stroke="midnightblue" d="M494.877,-291.396C463.092,-279.789 418.525,-263.515 388.414,-252.519"/>
<polygon fill="midnightblue" stroke="midnightblue" points="389.39,-249.15 378.796,-249.007 386.989,-255.725 389.39,-249.15"/>
</g>
<!-- Node25 -->
<g id="node25" class="node"><title>Node25</title>
<g id="a_node25"><a xlink:href="Light_8inl.html" target="_top" xlink:title="Engine/Renderer/Light\l/Light.inl">
<polygon fill="white" stroke="black" points="468,-224.5 468,-254.5 589,-254.5 589,-224.5 468,-224.5"/>
<text text-anchor="start" x="476" y="-242.5" font-family="Helvetica,sans-Serif" font-size="10.00">Engine/Renderer/Light</text>
<text text-anchor="middle" x="528.5" y="-231.5" font-family="Helvetica,sans-Serif" font-size="10.00">/Light.inl</text>
</a>
</g>
</g>
<!-- Node11&#45;&gt;Node25 -->
<g id="edge34" class="edge"><title>Node11&#45;&gt;Node25</title>
<path fill="none" stroke="midnightblue" d="M532.415,-291.396C531.812,-283.56 531.046,-273.596 530.351,-264.565"/>
<polygon fill="midnightblue" stroke="midnightblue" points="533.84,-264.279 529.583,-254.577 526.86,-264.816 533.84,-264.279"/>
</g>
<!-- Node12&#45;&gt;Node5 -->
<g id="edge12" class="edge"><title>Node12&#45;&gt;Node5</title>
<path fill="none" stroke="midnightblue" d="M59.3519,-168.373C66.367,-153.819 82.729,-124.732 106.5,-112 150.106,-88.6439 468.524,-74.5628 612.339,-69.331"/>
<polygon fill="midnightblue" stroke="midnightblue" points="612.518,-72.8269 622.386,-68.9696 612.266,-65.8314 612.518,-72.8269"/>
</g>
<!-- Node13 -->
<g id="node13" class="node"><title>Node13</title>
<polygon fill="white" stroke="#bfbfbf" points="265.5,-112.5 265.5,-131.5 333.5,-131.5 333.5,-112.5 265.5,-112.5"/>
<text text-anchor="middle" x="299.5" y="-119.5" font-family="Helvetica,sans-Serif" font-size="10.00">Eigen/Core</text>
</g>
<!-- Node12&#45;&gt;Node13 -->
<g id="edge13" class="edge"><title>Node12&#45;&gt;Node13</title>
<path fill="none" stroke="midnightblue" d="M94.1625,-168.444C138.013,-158.739 209.377,-142.945 255.372,-132.766"/>
<polygon fill="midnightblue" stroke="midnightblue" points="256.342,-136.136 265.349,-130.558 254.829,-129.302 256.342,-136.136"/>
</g>
<!-- Node14 -->
<g id="node14" class="node"><title>Node14</title>
<polygon fill="white" stroke="#bfbfbf" points="115.5,-112.5 115.5,-131.5 209.5,-131.5 209.5,-112.5 115.5,-112.5"/>
<text text-anchor="middle" x="162.5" y="-119.5" font-family="Helvetica,sans-Serif" font-size="10.00">Eigen/Geometry</text>
</g>
<!-- Node12&#45;&gt;Node14 -->
<g id="edge14" class="edge"><title>Node12&#45;&gt;Node14</title>
<path fill="none" stroke="midnightblue" d="M72.6914,-168.324C89.8509,-159.664 116.446,-146.242 136.247,-136.249"/>
<polygon fill="midnightblue" stroke="midnightblue" points="138.001,-139.285 145.351,-131.655 134.847,-133.035 138.001,-139.285"/>
</g>
<!-- Node15 -->
<g id="node15" class="node"><title>Node15</title>
<polygon fill="white" stroke="#bfbfbf" points="5.5,-112.5 5.5,-131.5 59.5,-131.5 59.5,-112.5 5.5,-112.5"/>
<text text-anchor="middle" x="32.5" y="-119.5" font-family="Helvetica,sans-Serif" font-size="10.00">random</text>
</g>
<!-- Node12&#45;&gt;Node15 -->
<g id="edge15" class="edge"><title>Node12&#45;&gt;Node15</title>
<path fill="none" stroke="midnightblue" d="M51.702,-168.083C48.5872,-160.77 44.0772,-150.181 40.2107,-141.103"/>
<polygon fill="midnightblue" stroke="midnightblue" points="43.3661,-139.58 36.2273,-131.751 36.9259,-142.323 43.3661,-139.58"/>
</g>
<!-- Node16&#45;&gt;Node4 -->
<g id="edge24" class="edge"><title>Node16&#45;&gt;Node4</title>
<path fill="none" stroke="midnightblue" d="M413.94,-229.978C482.388,-219.983 599.19,-202.886 699.5,-188 699.601,-187.985 699.702,-187.97 699.803,-187.955"/>
<polygon fill="midnightblue" stroke="midnightblue" points="700.036,-191.459 709.411,-186.525 699.005,-184.535 700.036,-191.459"/>
</g>
<!-- Node16&#45;&gt;Node13 -->
<g id="edge22" class="edge"><title>Node16&#45;&gt;Node13</title>
<path fill="none" stroke="midnightblue" d="M358.237,-229.708C362.042,-215.801 367.411,-188.233 357.5,-168 350.977,-154.684 338.404,-144.177 326.627,-136.676"/>
<polygon fill="midnightblue" stroke="midnightblue" points="328.282,-133.589 317.889,-131.529 324.729,-139.621 328.282,-133.589"/>
</g>
<!-- Node16&#45;&gt;Node14 -->
<g id="edge23" class="edge"><title>Node16&#45;&gt;Node14</title>
<path fill="none" stroke="midnightblue" d="M287.423,-229.981C237.004,-222.11 174.409,-208.502 158.5,-188 148.337,-174.903 151.128,-155.486 155.368,-141.284"/>
<polygon fill="midnightblue" stroke="midnightblue" points="158.745,-142.227 158.702,-131.632 152.129,-139.942 158.745,-142.227"/>
</g>
<!-- Node17 -->
<g id="node17" class="node"><title>Node17</title>
<g id="a_node17"><a xlink:href="Index_8hpp.html" target="_top" xlink:title="Core/Utils/Index.hpp">
<polygon fill="white" stroke="black" points="513,-168.5 513,-187.5 626,-187.5 626,-168.5 513,-168.5"/>
<text text-anchor="middle" x="569.5" y="-175.5" font-family="Helvetica,sans-Serif" font-size="10.00">Core/Utils/Index.hpp</text>
</a>
</g>
</g>
<!-- Node16&#45;&gt;Node17 -->
<g id="edge17" class="edge"><title>Node16&#45;&gt;Node17</title>
<path fill="none" stroke="midnightblue" d="M386.161,-229.975C423.744,-219.526 487.544,-201.787 529.098,-190.233"/>
<polygon fill="midnightblue" stroke="midnightblue" points="530.199,-193.56 538.896,-187.509 528.324,-186.816 530.199,-193.56"/>
</g>
<!-- Node16&#45;&gt;Node21 -->
<g id="edge25" class="edge"><title>Node16&#45;&gt;Node21</title>
<path fill="none" stroke="midnightblue" d="M410.578,-229.986C464.911,-221.26 550.498,-206.64 633.878,-187.974"/>
<polygon fill="midnightblue" stroke="midnightblue" points="634.787,-191.357 643.769,-185.738 633.243,-184.529 634.787,-191.357"/>
</g>
<!-- Node22 -->
<g id="node22" class="node"><title>Node22</title>
<g id="a_node22"><a xlink:href="Types_8hpp.html" target="_top" xlink:title="Core/Types.hpp">
<polygon fill="white" stroke="black" points="406,-168.5 406,-187.5 495,-187.5 495,-168.5 406,-168.5"/>
<text text-anchor="middle" x="450.5" y="-175.5" font-family="Helvetica,sans-Serif" font-size="10.00">Core/Types.hpp</text>
</a>
</g>
</g>
<!-- Node16&#45;&gt;Node22 -->
<g id="edge26" class="edge"><title>Node16&#45;&gt;Node22</title>
<path fill="none" stroke="midnightblue" d="M369.111,-229.975C384.561,-220.299 409.99,-204.372 428.316,-192.894"/>
<polygon fill="midnightblue" stroke="midnightblue" points="430.297,-195.783 436.914,-187.509 426.581,-189.851 430.297,-195.783"/>
</g>
<!-- Node24 -->
<g id="node24" class="node"><title>Node24</title>
<g id="a_node24"><a xlink:href="Component_8inl.html" target="_top" xlink:title="Engine/Component/Component.inl">
<polygon fill="white" stroke="black" points="168,-168.5 168,-187.5 349,-187.5 349,-168.5 168,-168.5"/>
<text text-anchor="middle" x="258.5" y="-175.5" font-family="Helvetica,sans-Serif" font-size="10.00">Engine/Component/Component.inl</text>
</a>
</g>
</g>
<!-- Node16&#45;&gt;Node24 -->
<g id="edge31" class="edge"><title>Node16&#45;&gt;Node24</title>
<path fill="none" stroke="midnightblue" d="M336.702,-229.975C319.062,-220.431 293.266,-204.807 276.05,-193.368"/>
<polygon fill="midnightblue" stroke="midnightblue" points="277.706,-190.261 267.475,-187.509 273.757,-196.041 277.706,-190.261"/>
</g>
<!-- Node18 -->
<g id="node18" class="node"><title>Node18</title>
<g id="a_node18"><a xlink:href="RaCore_8hpp.html" target="_top" xlink:title="Core/RaCore.hpp">
<polygon fill="white" stroke="black" points="633.5,-112.5 633.5,-131.5 731.5,-131.5 731.5,-112.5 633.5,-112.5"/>
<text text-anchor="middle" x="682.5" y="-119.5" font-family="Helvetica,sans-Serif" font-size="10.00">Core/RaCore.hpp</text>
</a>
</g>
</g>
<!-- Node17&#45;&gt;Node18 -->
<g id="edge18" class="edge"><title>Node17&#45;&gt;Node18</title>
<path fill="none" stroke="midnightblue" d="M587.405,-168.444C605.754,-159.675 634.505,-145.935 655.594,-135.858"/>
<polygon fill="midnightblue" stroke="midnightblue" points="657.165,-138.986 664.679,-131.516 654.147,-132.67 657.165,-138.986"/>
</g>
<!-- Node19 -->
<g id="node19" class="node"><title>Node19</title>
<polygon fill="white" stroke="#bfbfbf" points="573.5,-112.5 573.5,-131.5 615.5,-131.5 615.5,-112.5 573.5,-112.5"/>
<text text-anchor="middle" x="594.5" y="-119.5" font-family="Helvetica,sans-Serif" font-size="10.00">limits</text>
</g>
<!-- Node17&#45;&gt;Node19 -->
<g id="edge20" class="edge"><title>Node17&#45;&gt;Node19</title>
<path fill="none" stroke="midnightblue" d="M573.628,-168.083C577.014,-160.77 581.916,-150.181 586.119,-141.103"/>
<polygon fill="midnightblue" stroke="midnightblue" points="589.423,-142.296 590.449,-131.751 583.071,-139.355 589.423,-142.296"/>
</g>
<!-- Node20 -->
<g id="node20" class="node"><title>Node20</title>
<g id="a_node20"><a xlink:href="Index_8inl.html" target="_top" xlink:title="Core/Utils/Index.inl">
<polygon fill="white" stroke="black" points="450,-112.5 450,-131.5 555,-131.5 555,-112.5 450,-112.5"/>
<text text-anchor="middle" x="502.5" y="-119.5" font-family="Helvetica,sans-Serif" font-size="10.00">Core/Utils/Index.inl</text>
</a>
</g>
</g>
<!-- Node17&#45;&gt;Node20 -->
<g id="edge21" class="edge"><title>Node17&#45;&gt;Node20</title>
<path fill="none" stroke="midnightblue" d="M558.735,-168.324C548.734,-160.263 533.613,-148.077 521.57,-138.369"/>
<polygon fill="midnightblue" stroke="midnightblue" points="523.443,-135.384 513.461,-131.834 519.05,-140.834 523.443,-135.384"/>
</g>
<!-- Node18&#45;&gt;Node5 -->
<g id="edge19" class="edge"><title>Node18&#45;&gt;Node5</title>
<path fill="none" stroke="midnightblue" d="M682.5,-112.083C682.5,-105.006 682.5,-94.8611 682.5,-85.9865"/>
<polygon fill="midnightblue" stroke="midnightblue" points="686,-85.751 682.5,-75.7511 679,-85.7511 686,-85.751"/>
</g>
<!-- Node22&#45;&gt;Node13 -->
<g id="edge28" class="edge"><title>Node22&#45;&gt;Node13</title>
<path fill="none" stroke="midnightblue" d="M426.574,-168.444C401.281,-159.399 361.198,-145.064 332.82,-134.916"/>
<polygon fill="midnightblue" stroke="midnightblue" points="333.909,-131.588 323.314,-131.516 331.552,-138.179 333.909,-131.588"/>
</g>
<!-- Node22&#45;&gt;Node14 -->
<g id="edge29" class="edge"><title>Node22&#45;&gt;Node14</title>
<path fill="none" stroke="midnightblue" d="M405.816,-168.622C355.245,-159.14 272.811,-143.683 218.117,-133.428"/>
<polygon fill="midnightblue" stroke="midnightblue" points="218.715,-129.979 208.241,-131.577 217.425,-136.86 218.715,-129.979"/>
</g>
<!-- Node22&#45;&gt;Node18 -->
<g id="edge27" class="edge"><title>Node22&#45;&gt;Node18</title>
<path fill="none" stroke="midnightblue" d="M487.261,-168.444C527.563,-159.063 592.309,-143.993 636.085,-133.804"/>
<polygon fill="midnightblue" stroke="midnightblue" points="636.965,-137.192 645.911,-131.516 635.378,-130.375 636.965,-137.192"/>
</g>
<!-- Node23 -->
<g id="node23" class="node"><title>Node23</title>
<polygon fill="white" stroke="#bfbfbf" points="351.5,-112.5 351.5,-131.5 431.5,-131.5 431.5,-112.5 351.5,-112.5"/>
<text text-anchor="middle" x="391.5" y="-119.5" font-family="Helvetica,sans-Serif" font-size="10.00">Eigen/Sparse</text>
</g>
<!-- Node22&#45;&gt;Node23 -->
<g id="edge30" class="edge"><title>Node22&#45;&gt;Node23</title>
<path fill="none" stroke="midnightblue" d="M441.021,-168.324C432.299,-160.341 419.157,-148.313 408.602,-138.653"/>
<polygon fill="midnightblue" stroke="midnightblue" points="410.892,-136.004 401.152,-131.834 406.166,-141.167 410.892,-136.004"/>
</g>
<!-- Node24&#45;&gt;Node16 -->
<g id="edge32" class="edge"><title>Node24&#45;&gt;Node16</title>
<path fill="none" stroke="midnightblue" d="M277.269,-187.509C294.9,-197.046 320.696,-212.669 337.921,-224.113"/>
<polygon fill="midnightblue" stroke="midnightblue" points="336.271,-227.224 346.503,-229.975 340.22,-221.444 336.271,-227.224"/>
</g>
<!-- Node26&#45;&gt;Node4 -->
<g id="edge37" class="edge"><title>Node26&#45;&gt;Node4</title>
<path fill="none" stroke="midnightblue" d="M757.787,-229.975C758.069,-221.58 758.509,-208.481 758.873,-197.663"/>
<polygon fill="midnightblue" stroke="midnightblue" points="762.376,-197.621 759.214,-187.509 755.38,-197.386 762.376,-197.621"/>
</g>
<!-- Node26&#45;&gt;Node21 -->
<g id="edge39" class="edge"><title>Node26&#45;&gt;Node21</title>
<path fill="none" stroke="midnightblue" d="M744.605,-229.975C730.036,-220.343 706.098,-204.517 688.755,-193.052"/>
<polygon fill="midnightblue" stroke="midnightblue" points="690.643,-190.104 680.371,-187.509 686.783,-195.944 690.643,-190.104"/>
</g>
<!-- Node26&#45;&gt;Node27 -->
<g id="edge38" class="edge"><title>Node26&#45;&gt;Node27</title>
<path fill="none" stroke="midnightblue" d="M823.311,-229.981C887.708,-221.287 988.763,-206.692 1085.92,-187.972"/>
<polygon fill="midnightblue" stroke="midnightblue" points="1086.77,-191.373 1095.92,-186.029 1085.44,-184.501 1086.77,-191.373"/>
</g>
<!-- Node28&#45;&gt;Node4 -->
<g id="edge42" class="edge"><title>Node28&#45;&gt;Node4</title>
<path fill="none" stroke="midnightblue" d="M962.544,-229.975C920.658,-219.459 849.367,-201.562 803.372,-190.014"/>
<polygon fill="midnightblue" stroke="midnightblue" points="803.945,-186.549 793.393,-187.509 802.24,-193.339 803.945,-186.549"/>
</g>
<!-- Node28&#45;&gt;Node21 -->
<g id="edge49" class="edge"><title>Node28&#45;&gt;Node21</title>
<path fill="none" stroke="midnightblue" d="M936.357,-229.993C878.484,-221.412 788.363,-207.012 701.032,-187.932"/>
<polygon fill="midnightblue" stroke="midnightblue" points="701.744,-184.505 691.224,-185.767 700.235,-191.34 701.744,-184.505"/>
</g>
<!-- Node28&#45;&gt;Node22 -->
<g id="edge43" class="edge"><title>Node28&#45;&gt;Node22</title>
<path fill="none" stroke="midnightblue" d="M925.734,-231.834C813.726,-221.188 599.423,-200.411 505.092,-188.121"/>
<polygon fill="midnightblue" stroke="midnightblue" points="505.375,-184.628 495,-186.776 504.45,-191.567 505.375,-184.628"/>
</g>
<!-- Node28&#45;&gt;Node27 -->
<g id="edge47" class="edge"><title>Node28&#45;&gt;Node27</title>
<path fill="none" stroke="midnightblue" d="M1014.84,-229.975C1036.32,-219.99 1072.12,-203.348 1096.95,-191.807"/>
<polygon fill="midnightblue" stroke="midnightblue" points="1098.6,-194.898 1106.19,-187.509 1095.65,-188.551 1098.6,-194.898"/>
</g>
<!-- Node29 -->
<g id="node29" class="node"><title>Node29</title>
<g id="a_node29"><a xlink:href="Singleton_8hpp.html" target="_top" xlink:title="Core/Utils/Singleton.hpp">
<polygon fill="white" stroke="black" points="827.5,-168.5 827.5,-187.5 959.5,-187.5 959.5,-168.5 827.5,-168.5"/>
<text text-anchor="middle" x="893.5" y="-175.5" font-family="Helvetica,sans-Serif" font-size="10.00">Core/Utils/Singleton.hpp</text>
</a>
</g>
</g>
<!-- Node28&#45;&gt;Node29 -->
<g id="edge44" class="edge"><title>Node28&#45;&gt;Node29</title>
<path fill="none" stroke="midnightblue" d="M981.743,-229.975C964.839,-220.211 936.917,-204.081 917.01,-192.581"/>
<polygon fill="midnightblue" stroke="midnightblue" points="918.64,-189.481 908.23,-187.509 915.138,-195.542 918.64,-189.481"/>
</g>
<!-- Node30 -->
<g id="node30" class="node"><title>Node30</title>
<polygon fill="white" stroke="#bfbfbf" points="977.5,-168.5 977.5,-187.5 1015.5,-187.5 1015.5,-168.5 977.5,-168.5"/>
<text text-anchor="middle" x="996.5" y="-175.5" font-family="Helvetica,sans-Serif" font-size="10.00">map</text>
</g>
<!-- Node28&#45;&gt;Node30 -->
<g id="edge46" class="edge"><title>Node28&#45;&gt;Node30</title>
<path fill="none" stroke="midnightblue" d="M996.5,-229.975C996.5,-221.58 996.5,-208.481 996.5,-197.663"/>
<polygon fill="midnightblue" stroke="midnightblue" points="1000,-197.509 996.5,-187.509 993,-197.509 1000,-197.509"/>
</g>
<!-- Node31 -->
<g id="node31" class="node"><title>Node31</title>
<polygon fill="white" stroke="#bfbfbf" points="1033.5,-168.5 1033.5,-187.5 1077.5,-187.5 1077.5,-168.5 1033.5,-168.5"/>
<text text-anchor="middle" x="1055.5" y="-175.5" font-family="Helvetica,sans-Serif" font-size="10.00">string</text>
</g>
<!-- Node28&#45;&gt;Node31 -->
<g id="edge48" class="edge"><title>Node28&#45;&gt;Node31</title>
<path fill="none" stroke="midnightblue" d="M1004.95,-229.975C1014.07,-220.785 1028.77,-205.956 1039.98,-194.656"/>
<polygon fill="midnightblue" stroke="midnightblue" points="1042.51,-197.074 1047.06,-187.509 1037.54,-192.146 1042.51,-197.074"/>
</g>
<!-- Node29&#45;&gt;Node18 -->
<g id="edge45" class="edge"><title>Node29&#45;&gt;Node18</title>
<path fill="none" stroke="midnightblue" d="M860.066,-168.444C823.644,-159.122 765.27,-144.183 725.471,-133.997"/>
<polygon fill="midnightblue" stroke="midnightblue" points="726.333,-130.605 715.777,-131.516 724.597,-137.387 726.333,-130.605"/>
</g>
</g>
</svg>
