<?xml version="1.0" encoding="UTF-8" standalone="no"?>
<!DOCTYPE svg PUBLIC "-//W3C//DTD SVG 1.1//EN"
 "http://www.w3.org/Graphics/SVG/1.1/DTD/svg11.dtd">
<!-- Generated by graphviz version 2.38.0 (20140413.2041)
 -->
<!-- Title: /home/travis/build/STORM&#45;IRIT/Radium&#45;Engine/src/Engine/Managers/LightManager/DefaultLightManager.cpp Pages: 1 -->
<svg width="1185pt" height="620pt"
 viewBox="0.00 0.00 1185.00 620.00" xmlns="http://www.w3.org/2000/svg" xmlns:xlink="http://www.w3.org/1999/xlink">
<g id="graph0" class="graph" transform="scale(1 1) rotate(0) translate(4 616)">
<title>/home/travis/build/STORM&#45;IRIT/Radium&#45;Engine/src/Engine/Managers/LightManager/DefaultLightManager.cpp</title>
<polygon fill="white" stroke="none" points="-4,4 -4,-616 1181,-616 1181,4 -4,4"/>
<!-- Node1 -->
<g id="node1" class="node"><title>Node1</title>
<polygon fill="#bfbfbf" stroke="black" points="839,-559.5 839,-611.5 1027,-611.5 1027,-559.5 839,-559.5"/>
<text text-anchor="start" x="847" y="-599.5" font-family="Helvetica,sans-Serif" font-size="10.00">/home/travis/build</text>
<text text-anchor="start" x="847" y="-588.5" font-family="Helvetica,sans-Serif" font-size="10.00">/STORM&#45;IRIT/Radium&#45;Engine</text>
<text text-anchor="start" x="847" y="-577.5" font-family="Helvetica,sans-Serif" font-size="10.00">/src/Engine/Managers/LightManager</text>
<text text-anchor="middle" x="933" y="-566.5" font-family="Helvetica,sans-Serif" font-size="10.00">/DefaultLightManager.cpp</text>
</g>
<!-- Node2 -->
<g id="node2" class="node"><title>Node2</title>
<g id="a_node2"><a xlink:href="DefaultLightManager_8hpp.html" target="_top" xlink:title="Engine/Managers/LightManager\l/DefaultLightManager.hpp">
<polygon fill="white" stroke="black" points="784.5,-492.5 784.5,-522.5 951.5,-522.5 951.5,-492.5 784.5,-492.5"/>
<text text-anchor="start" x="792.5" y="-510.5" font-family="Helvetica,sans-Serif" font-size="10.00">Engine/Managers/LightManager</text>
<text text-anchor="middle" x="868" y="-499.5" font-family="Helvetica,sans-Serif" font-size="10.00">/DefaultLightManager.hpp</text>
</a>
</g>
</g>
<!-- Node1&#45;&gt;Node2 -->
<g id="edge1" class="edge"><title>Node1&#45;&gt;Node2</title>
<path fill="none" stroke="midnightblue" d="M911.356,-559.193C903.439,-549.936 894.551,-539.544 886.893,-530.59"/>
<polygon fill="midnightblue" stroke="midnightblue" points="889.429,-528.17 880.269,-522.845 884.109,-532.72 889.429,-528.17"/>
</g>
<!-- Node29 -->
<g id="node29" class="node"><title>Node29</title>
<g id="a_node29"><a xlink:href="RadiumEngine_8hpp.html" target="_top" xlink:title="Engine/RadiumEngine.hpp">
<polygon fill="white" stroke="black" points="924.5,-230 924.5,-249 1065.5,-249 1065.5,-230 924.5,-230"/>
<text text-anchor="middle" x="995" y="-237" font-family="Helvetica,sans-Serif" font-size="10.00">Engine/RadiumEngine.hpp</text>
</a>
</g>
</g>
<!-- Node1&#45;&gt;Node29 -->
<g id="edge54" class="edge"><title>Node1&#45;&gt;Node29</title>
<path fill="none" stroke="midnightblue" d="M949.499,-559.31C966.018,-531.615 989,-485.226 989,-441.5 989,-441.5 989,-441.5 989,-372.5 989,-332.116 991.837,-284.854 993.61,-259.27"/>
<polygon fill="midnightblue" stroke="midnightblue" points="997.111,-259.367 994.335,-249.143 990.129,-258.867 997.111,-259.367"/>
</g>
<!-- Node3 -->
<g id="node3" class="node"><title>Node3</title>
<g id="a_node3"><a xlink:href="LightManager_8hpp.html" target="_top" xlink:title="Engine/Managers/LightManager\l/LightManager.hpp">
<polygon fill="white" stroke="black" points="634.5,-425.5 634.5,-455.5 801.5,-455.5 801.5,-425.5 634.5,-425.5"/>
<text text-anchor="start" x="642.5" y="-443.5" font-family="Helvetica,sans-Serif" font-size="10.00">Engine/Managers/LightManager</text>
<text text-anchor="middle" x="718" y="-432.5" font-family="Helvetica,sans-Serif" font-size="10.00">/LightManager.hpp</text>
</a>
</g>
</g>
<!-- Node2&#45;&gt;Node3 -->
<g id="edge2" class="edge"><title>Node2&#45;&gt;Node3</title>
<path fill="none" stroke="midnightblue" d="M835.452,-492.396C813.241,-482.771 783.622,-469.936 759.686,-459.564"/>
<polygon fill="midnightblue" stroke="midnightblue" points="761.051,-456.341 750.484,-455.577 758.268,-462.764 761.051,-456.341"/>
</g>
<!-- Node12 -->
<g id="node12" class="node"><title>Node12</title>
<g id="a_node12"><a xlink:href="Light_8hpp.html" target="_top" xlink:title="../../Renderer/Light\l/Light.hpp">
<polygon fill="white" stroke="black" points="357,-291.5 357,-321.5 461,-321.5 461,-291.5 357,-291.5"/>
<text text-anchor="start" x="365" y="-309.5" font-family="Helvetica,sans-Serif" font-size="10.00">../../Renderer/Light</text>
<text text-anchor="middle" x="409" y="-298.5" font-family="Helvetica,sans-Serif" font-size="10.00">/Light.hpp</text>
</a>
</g>
</g>
<!-- Node2&#45;&gt;Node12 -->
<g id="edge51" class="edge"><title>Node2&#45;&gt;Node12</title>
<path fill="none" stroke="midnightblue" d="M784.439,-496.571C667.105,-480.751 462.705,-445.692 417,-389 404.216,-373.143 403.235,-349.509 404.85,-331.769"/>
<polygon fill="midnightblue" stroke="midnightblue" points="408.353,-331.962 406.109,-321.608 401.406,-331.101 408.353,-331.962"/>
</g>
<!-- Node22 -->
<g id="node22" class="node"><title>Node22</title>
<polygon fill="white" stroke="#bfbfbf" points="786.5,-168.5 786.5,-187.5 833.5,-187.5 833.5,-168.5 786.5,-168.5"/>
<text text-anchor="middle" x="810" y="-175.5" font-family="Helvetica,sans-Serif" font-size="10.00">vector</text>
</g>
<!-- Node2&#45;&gt;Node22 -->
<g id="edge53" class="edge"><title>Node2&#45;&gt;Node22</title>
<path fill="none" stroke="midnightblue" d="M866.212,-492.268C863.336,-468.1 858,-417.477 858,-374.5 858,-374.5 858,-374.5 858,-305.5 858,-264.21 835.369,-219.98 821.186,-196.316"/>
<polygon fill="midnightblue" stroke="midnightblue" points="824.13,-194.422 815.886,-187.767 818.18,-198.111 824.13,-194.422"/>
</g>
<!-- Node28 -->
<g id="node28" class="node"><title>Node28</title>
<polygon fill="white" stroke="#bfbfbf" points="851.5,-168.5 851.5,-187.5 908.5,-187.5 908.5,-168.5 851.5,-168.5"/>
<text text-anchor="middle" x="880" y="-175.5" font-family="Helvetica,sans-Serif" font-size="10.00">memory</text>
</g>
<!-- Node2&#45;&gt;Node28 -->
<g id="edge52" class="edge"><title>Node2&#45;&gt;Node28</title>
<path fill="none" stroke="midnightblue" d="M873.006,-492.449C881.06,-468.548 896,-418.308 896,-374.5 896,-374.5 896,-374.5 896,-305.5 896,-266.897 888.576,-222.188 883.842,-197.604"/>
<polygon fill="midnightblue" stroke="midnightblue" points="887.224,-196.665 881.835,-187.542 880.359,-198.034 887.224,-196.665"/>
</g>
<!-- Node2&#45;&gt;Node29 -->
<g id="edge42" class="edge"><title>Node2&#45;&gt;Node29</title>
<path fill="none" stroke="midnightblue" d="M881.826,-492.411C890.74,-482.764 902.1,-469.345 910,-456 950.152,-388.176 946.045,-364.307 975,-291 979.274,-280.179 984.074,-268.059 987.9,-258.405"/>
<polygon fill="midnightblue" stroke="midnightblue" points="991.166,-259.662 991.598,-249.076 984.659,-257.082 991.166,-259.662"/>
</g>
<!-- Node4 -->
<g id="node4" class="node"><title>Node4</title>
<g id="a_node4"><a xlink:href="LightStorage_8hpp.html" target="_top" xlink:title="Engine/Managers/LightManager\l/LightStorage.hpp">
<polygon fill="white" stroke="black" points="426.5,-358.5 426.5,-388.5 593.5,-388.5 593.5,-358.5 426.5,-358.5"/>
<text text-anchor="start" x="434.5" y="-376.5" font-family="Helvetica,sans-Serif" font-size="10.00">Engine/Managers/LightManager</text>
<text text-anchor="middle" x="510" y="-365.5" font-family="Helvetica,sans-Serif" font-size="10.00">/LightStorage.hpp</text>
</a>
</g>
</g>
<!-- Node3&#45;&gt;Node4 -->
<g id="edge3" class="edge"><title>Node3&#45;&gt;Node4</title>
<path fill="none" stroke="midnightblue" d="M673.123,-425.476C641.384,-415.557 598.643,-402.201 564.874,-391.648"/>
<polygon fill="midnightblue" stroke="midnightblue" points="565.744,-388.253 555.155,-388.611 563.656,-394.934 565.744,-388.253"/>
</g>
<!-- Node5 -->
<g id="node5" class="node"><title>Node5</title>
<g id="a_node5"><a xlink:href="RaEngine_8hpp.html" target="_top" xlink:title="../../RaEngine.hpp">
<polygon fill="white" stroke="black" points="668,-168.5 668,-187.5 768,-187.5 768,-168.5 668,-168.5"/>
<text text-anchor="middle" x="718" y="-175.5" font-family="Helvetica,sans-Serif" font-size="10.00">../../RaEngine.hpp</text>
</a>
</g>
</g>
<!-- Node3&#45;&gt;Node5 -->
<g id="edge36" class="edge"><title>Node3&#45;&gt;Node5</title>
<path fill="none" stroke="midnightblue" d="M709.014,-425.415C690.518,-395.489 648.699,-322.758 634,-255 631.079,-241.535 626.922,-235.821 634,-224 643.149,-208.719 659.459,-198.332 675.288,-191.425"/>
<polygon fill="midnightblue" stroke="midnightblue" points="677.012,-194.507 685.014,-187.562 674.428,-188.001 677.012,-194.507"/>
</g>
<!-- Node27 -->
<g id="node27" class="node"><title>Node27</title>
<g id="a_node27"><a xlink:href="System_8hpp.html" target="_top" xlink:title="Engine/System/System.hpp">
<polygon fill="white" stroke="black" points="643.5,-230 643.5,-249 792.5,-249 792.5,-230 643.5,-230"/>
<text text-anchor="middle" x="718" y="-237" font-family="Helvetica,sans-Serif" font-size="10.00">Engine/System/System.hpp</text>
</a>
</g>
</g>
<!-- Node3&#45;&gt;Node27 -->
<g id="edge37" class="edge"><title>Node3&#45;&gt;Node27</title>
<path fill="none" stroke="midnightblue" d="M718,-425.188C718,-389.986 718,-299.172 718,-259.508"/>
<polygon fill="midnightblue" stroke="midnightblue" points="721.5,-259.36 718,-249.36 714.5,-259.36 721.5,-259.36"/>
</g>
<!-- Node3&#45;&gt;Node28 -->
<g id="edge41" class="edge"><title>Node3&#45;&gt;Node28</title>
<path fill="none" stroke="midnightblue" d="M726.71,-425.494C754.194,-381.3 839.045,-244.857 869.215,-196.342"/>
<polygon fill="midnightblue" stroke="midnightblue" points="872.327,-197.966 874.636,-187.626 866.383,-194.269 872.327,-197.966"/>
</g>
<!-- Node4&#45;&gt;Node5 -->
<g id="edge4" class="edge"><title>Node4&#45;&gt;Node5</title>
<path fill="none" stroke="midnightblue" d="M515.257,-358.111C526.637,-328.851 556.273,-261.979 602,-224 621.179,-208.07 646.644,-197.357 668.828,-190.395"/>
<polygon fill="midnightblue" stroke="midnightblue" points="669.839,-193.746 678.43,-187.546 667.847,-187.035 669.839,-193.746"/>
</g>
<!-- Node4&#45;&gt;Node12 -->
<g id="edge11" class="edge"><title>Node4&#45;&gt;Node12</title>
<path fill="none" stroke="midnightblue" d="M488.085,-358.396C473.923,-349.282 455.289,-337.29 439.667,-327.236"/>
<polygon fill="midnightblue" stroke="midnightblue" points="441.176,-324.045 430.873,-321.577 437.388,-329.932 441.176,-324.045"/>
</g>
<!-- Node6 -->
<g id="node6" class="node"><title>Node6</title>
<g id="a_node6"><a xlink:href="CoreMacros_8hpp.html" target="_top" xlink:title="Core/CoreMacros.hpp">
<polygon fill="white" stroke="black" points="483,-56.5 483,-75.5 603,-75.5 603,-56.5 483,-56.5"/>
<text text-anchor="middle" x="543" y="-63.5" font-family="Helvetica,sans-Serif" font-size="10.00">Core/CoreMacros.hpp</text>
</a>
</g>
</g>
<!-- Node5&#45;&gt;Node6 -->
<g id="edge5" class="edge"><title>Node5&#45;&gt;Node6</title>
<path fill="none" stroke="midnightblue" d="M717.973,-168.091C717.435,-154.168 714.324,-127.27 699,-112 676.397,-89.4768 643.279,-78.0738 613.367,-72.3604"/>
<polygon fill="midnightblue" stroke="midnightblue" points="613.815,-68.8861 603.365,-70.6332 612.623,-75.784 613.815,-68.8861"/>
</g>
<!-- Node7 -->
<g id="node7" class="node"><title>Node7</title>
<polygon fill="white" stroke="#bfbfbf" points="380,-0.5 380,-19.5 432,-19.5 432,-0.5 380,-0.5"/>
<text text-anchor="middle" x="406" y="-7.5" font-family="Helvetica,sans-Serif" font-size="10.00">cassert</text>
</g>
<!-- Node6&#45;&gt;Node7 -->
<g id="edge6" class="edge"><title>Node6&#45;&gt;Node7</title>
<path fill="none" stroke="midnightblue" d="M521.292,-56.4435C498.645,-47.5171 462.928,-33.4387 437.248,-23.3168"/>
<polygon fill="midnightblue" stroke="midnightblue" points="438.193,-19.9273 427.606,-19.5164 435.626,-26.4397 438.193,-19.9273"/>
</g>
<!-- Node8 -->
<g id="node8" class="node"><title>Node8</title>
<polygon fill="white" stroke="#bfbfbf" points="450.5,-0.5 450.5,-19.5 495.5,-19.5 495.5,-0.5 450.5,-0.5"/>
<text text-anchor="middle" x="473" y="-7.5" font-family="Helvetica,sans-Serif" font-size="10.00">cstdio</text>
</g>
<!-- Node6&#45;&gt;Node8 -->
<g id="edge7" class="edge"><title>Node6&#45;&gt;Node8</title>
<path fill="none" stroke="midnightblue" d="M531.753,-56.324C521.203,-48.1849 505.199,-35.8395 492.558,-26.0874"/>
<polygon fill="midnightblue" stroke="midnightblue" points="494.507,-23.1707 484.451,-19.8339 490.231,-28.7132 494.507,-23.1707"/>
</g>
<!-- Node9 -->
<g id="node9" class="node"><title>Node9</title>
<polygon fill="white" stroke="#bfbfbf" points="513.5,-0.5 513.5,-19.5 572.5,-19.5 572.5,-0.5 513.5,-0.5"/>
<text text-anchor="middle" x="543" y="-7.5" font-family="Helvetica,sans-Serif" font-size="10.00">iostream</text>
</g>
<!-- Node6&#45;&gt;Node9 -->
<g id="edge8" class="edge"><title>Node6&#45;&gt;Node9</title>
<path fill="none" stroke="midnightblue" d="M543,-56.083C543,-49.0059 543,-38.8611 543,-29.9865"/>
<polygon fill="midnightblue" stroke="midnightblue" points="546.5,-29.751 543,-19.7511 539.5,-29.7511 546.5,-29.751"/>
</g>
<!-- Node10 -->
<g id="node10" class="node"><title>Node10</title>
<polygon fill="white" stroke="#bfbfbf" points="591,-0.5 591,-19.5 647,-19.5 647,-0.5 591,-0.5"/>
<text text-anchor="middle" x="619" y="-7.5" font-family="Helvetica,sans-Serif" font-size="10.00">sstream</text>
</g>
<!-- Node6&#45;&gt;Node10 -->
<g id="edge9" class="edge"><title>Node6&#45;&gt;Node10</title>
<path fill="none" stroke="midnightblue" d="M555.211,-56.324C566.776,-48.1066 584.375,-35.6017 598.161,-25.8069"/>
<polygon fill="midnightblue" stroke="midnightblue" points="600.443,-28.4791 606.567,-19.8339 596.388,-22.7729 600.443,-28.4791"/>
</g>
<!-- Node11 -->
<g id="node11" class="node"><title>Node11</title>
<polygon fill="white" stroke="#bfbfbf" points="665,-0.5 665,-19.5 713,-19.5 713,-0.5 665,-0.5"/>
<text text-anchor="middle" x="689" y="-7.5" font-family="Helvetica,sans-Serif" font-size="10.00">thread</text>
</g>
<!-- Node6&#45;&gt;Node11 -->
<g id="edge10" class="edge"><title>Node6&#45;&gt;Node11</title>
<path fill="none" stroke="midnightblue" d="M566.134,-56.4435C590.482,-47.4381 629.007,-33.1891 656.423,-23.049"/>
<polygon fill="midnightblue" stroke="midnightblue" points="657.809,-26.2681 665.974,-19.5164 655.381,-19.7028 657.809,-26.2681"/>
</g>
<!-- Node12&#45;&gt;Node5 -->
<g id="edge34" class="edge"><title>Node12&#45;&gt;Node5</title>
<path fill="none" stroke="midnightblue" d="M442.761,-291.335C464.405,-281.861 492.864,-268.666 517,-255 538.454,-242.853 540.671,-234.451 563,-224 595.719,-208.685 634.795,-197.383 665.527,-189.935"/>
<polygon fill="midnightblue" stroke="midnightblue" points="666.678,-193.26 675.607,-187.557 665.071,-186.447 666.678,-193.26"/>
</g>
<!-- Node13 -->
<g id="node13" class="node"><title>Node13</title>
<g id="a_node13"><a xlink:href="Color_8hpp.html" target="_top" xlink:title="Core/Utils/Color.hpp">
<polygon fill="white" stroke="black" points="23.5,-168.5 23.5,-187.5 134.5,-187.5 134.5,-168.5 23.5,-168.5"/>
<text text-anchor="middle" x="79" y="-175.5" font-family="Helvetica,sans-Serif" font-size="10.00">Core/Utils/Color.hpp</text>
</a>
</g>
</g>
<!-- Node12&#45;&gt;Node13 -->
<g id="edge12" class="edge"><title>Node12&#45;&gt;Node13</title>
<path fill="none" stroke="midnightblue" d="M377.677,-291.297C357.997,-281.907 332.38,-268.816 311,-255 292.403,-242.982 291.935,-233.638 272,-224 248.287,-212.535 183.902,-198.688 135.977,-189.408"/>
<polygon fill="midnightblue" stroke="midnightblue" points="136.501,-185.945 126.021,-187.5 135.184,-192.82 136.501,-185.945"/>
</g>
<!-- Node17 -->
<g id="node17" class="node"><title>Node17</title>
<g id="a_node17"><a xlink:href="Component_8hpp.html" target="_top" xlink:title="Engine/Component/Component.hpp">
<polygon fill="white" stroke="black" points="320,-230 320,-249 508,-249 508,-230 320,-230"/>
<text text-anchor="middle" x="414" y="-237" font-family="Helvetica,sans-Serif" font-size="10.00">Engine/Component/Component.hpp</text>
</a>
</g>
</g>
<!-- Node12&#45;&gt;Node17 -->
<g id="edge17" class="edge"><title>Node12&#45;&gt;Node17</title>
<path fill="none" stroke="midnightblue" d="M410.085,-291.396C410.811,-281.963 411.773,-269.448 412.562,-259.189"/>
<polygon fill="midnightblue" stroke="midnightblue" points="416.054,-259.434 413.331,-249.195 409.074,-258.897 416.054,-259.434"/>
</g>
<!-- Node26 -->
<g id="node26" class="node"><title>Node26</title>
<g id="a_node26"><a xlink:href="Light_8inl.html" target="_top" xlink:title="Engine/Renderer/Light\l/Light.inl">
<polygon fill="white" stroke="black" points="142.5,-224.5 142.5,-254.5 263.5,-254.5 263.5,-224.5 142.5,-224.5"/>
<text text-anchor="start" x="150.5" y="-242.5" font-family="Helvetica,sans-Serif" font-size="10.00">Engine/Renderer/Light</text>
<text text-anchor="middle" x="203" y="-231.5" font-family="Helvetica,sans-Serif" font-size="10.00">/Light.inl</text>
</a>
</g>
</g>
<!-- Node12&#45;&gt;Node26 -->
<g id="edge35" class="edge"><title>Node12&#45;&gt;Node26</title>
<path fill="none" stroke="midnightblue" d="M364.555,-291.476C333.12,-281.557 290.791,-268.201 257.346,-257.648"/>
<polygon fill="midnightblue" stroke="midnightblue" points="258.31,-254.282 247.721,-254.611 256.204,-260.958 258.31,-254.282"/>
</g>
<!-- Node13&#45;&gt;Node6 -->
<g id="edge13" class="edge"><title>Node13&#45;&gt;Node6</title>
<path fill="none" stroke="midnightblue" d="M79.1483,-168.176C79.91,-153.866 83.6718,-125.812 101,-112 129.397,-89.366 355.192,-75.6811 472.603,-70.027"/>
<polygon fill="midnightblue" stroke="midnightblue" points="473.106,-73.5071 482.929,-69.5369 472.774,-66.515 473.106,-73.5071"/>
</g>
<!-- Node14 -->
<g id="node14" class="node"><title>Node14</title>
<polygon fill="white" stroke="#bfbfbf" points="408,-112.5 408,-131.5 476,-131.5 476,-112.5 408,-112.5"/>
<text text-anchor="middle" x="442" y="-119.5" font-family="Helvetica,sans-Serif" font-size="10.00">Eigen/Core</text>
</g>
<!-- Node13&#45;&gt;Node14 -->
<g id="edge14" class="edge"><title>Node13&#45;&gt;Node14</title>
<path fill="none" stroke="midnightblue" d="M134.811,-169.143C224.303,-156.539 390.585,-133.095 397,-132 397.216,-131.963 397.433,-131.926 397.65,-131.889"/>
<polygon fill="midnightblue" stroke="midnightblue" points="398.424,-135.306 407.641,-130.081 397.177,-128.417 398.424,-135.306"/>
</g>
<!-- Node15 -->
<g id="node15" class="node"><title>Node15</title>
<polygon fill="white" stroke="#bfbfbf" points="294,-112.5 294,-131.5 388,-131.5 388,-112.5 294,-112.5"/>
<text text-anchor="middle" x="341" y="-119.5" font-family="Helvetica,sans-Serif" font-size="10.00">Eigen/Geometry</text>
</g>
<!-- Node13&#45;&gt;Node15 -->
<g id="edge15" class="edge"><title>Node13&#45;&gt;Node15</title>
<path fill="none" stroke="midnightblue" d="M120.515,-168.444C166.412,-158.984 240.38,-143.738 289.826,-133.547"/>
<polygon fill="midnightblue" stroke="midnightblue" points="290.592,-136.963 299.68,-131.516 289.179,-130.107 290.592,-136.963"/>
</g>
<!-- Node16 -->
<g id="node16" class="node"><title>Node16</title>
<polygon fill="white" stroke="#bfbfbf" points="0,-112.5 0,-131.5 54,-131.5 54,-112.5 0,-112.5"/>
<text text-anchor="middle" x="27" y="-119.5" font-family="Helvetica,sans-Serif" font-size="10.00">random</text>
</g>
<!-- Node13&#45;&gt;Node16 -->
<g id="edge16" class="edge"><title>Node13&#45;&gt;Node16</title>
<path fill="none" stroke="midnightblue" d="M70.4133,-168.083C62.841,-160.22 51.6218,-148.569 42.4856,-139.081"/>
<polygon fill="midnightblue" stroke="midnightblue" points="44.8845,-136.527 35.427,-131.751 39.8423,-141.382 44.8845,-136.527"/>
</g>
<!-- Node17&#45;&gt;Node5 -->
<g id="edge25" class="edge"><title>Node17&#45;&gt;Node5</title>
<path fill="none" stroke="midnightblue" d="M457.556,-229.975C512.186,-219.283 605.812,-200.958 664.673,-189.437"/>
<polygon fill="midnightblue" stroke="midnightblue" points="665.384,-192.865 674.525,-187.509 664.039,-185.995 665.384,-192.865"/>
</g>
<!-- Node17&#45;&gt;Node14 -->
<g id="edge23" class="edge"><title>Node17&#45;&gt;Node14</title>
<path fill="none" stroke="midnightblue" d="M450.461,-229.945C472.424,-222.709 498.649,-209.899 512,-188 525.108,-166.499 498.04,-147.636 473.843,-135.846"/>
<polygon fill="midnightblue" stroke="midnightblue" points="475.008,-132.53 464.46,-131.535 472.086,-138.891 475.008,-132.53"/>
</g>
<!-- Node17&#45;&gt;Node15 -->
<g id="edge24" class="edge"><title>Node17&#45;&gt;Node15</title>
<path fill="none" stroke="midnightblue" d="M375.442,-229.927C353.032,-222.751 326.605,-210.013 313,-188 303.371,-172.42 314.449,-152.946 325.384,-139.395"/>
<polygon fill="midnightblue" stroke="midnightblue" points="328.06,-141.65 331.988,-131.81 322.781,-137.054 328.06,-141.65"/>
</g>
<!-- Node18 -->
<g id="node18" class="node"><title>Node18</title>
<g id="a_node18"><a xlink:href="Index_8hpp.html" target="_top" xlink:title="Core/Utils/Index.hpp">
<polygon fill="white" stroke="black" points="152.5,-168.5 152.5,-187.5 265.5,-187.5 265.5,-168.5 152.5,-168.5"/>
<text text-anchor="middle" x="209" y="-175.5" font-family="Helvetica,sans-Serif" font-size="10.00">Core/Utils/Index.hpp</text>
</a>
</g>
</g>
<!-- Node17&#45;&gt;Node18 -->
<g id="edge18" class="edge"><title>Node17&#45;&gt;Node18</title>
<path fill="none" stroke="midnightblue" d="M384.628,-229.975C348.703,-219.548 287.768,-201.862 247.956,-190.307"/>
<polygon fill="midnightblue" stroke="midnightblue" points="248.896,-186.935 238.317,-187.509 246.945,-193.658 248.896,-186.935"/>
</g>
<!-- Node17&#45;&gt;Node22 -->
<g id="edge26" class="edge"><title>Node17&#45;&gt;Node22</title>
<path fill="none" stroke="midnightblue" d="M497.414,-229.968C569.015,-221.939 675.067,-208.372 776.495,-187.862"/>
<polygon fill="midnightblue" stroke="midnightblue" points="777.2,-191.29 786.294,-185.855 775.796,-184.432 777.2,-191.29"/>
</g>
<!-- Node23 -->
<g id="node23" class="node"><title>Node23</title>
<g id="a_node23"><a xlink:href="Types_8hpp.html" target="_top" xlink:title="Core/Types.hpp">
<polygon fill="white" stroke="black" points="560.5,-168.5 560.5,-187.5 649.5,-187.5 649.5,-168.5 560.5,-168.5"/>
<text text-anchor="middle" x="605" y="-175.5" font-family="Helvetica,sans-Serif" font-size="10.00">Core/Types.hpp</text>
</a>
</g>
</g>
<!-- Node17&#45;&gt;Node23 -->
<g id="edge27" class="edge"><title>Node17&#45;&gt;Node23</title>
<path fill="none" stroke="midnightblue" d="M441.366,-229.975C474.554,-219.636 530.651,-202.161 567.758,-190.602"/>
<polygon fill="midnightblue" stroke="midnightblue" points="569.179,-193.825 577.685,-187.509 567.097,-187.142 569.179,-193.825"/>
</g>
<!-- Node25 -->
<g id="node25" class="node"><title>Node25</title>
<g id="a_node25"><a xlink:href="Component_8inl.html" target="_top" xlink:title="Engine/Component/Component.inl">
<polygon fill="white" stroke="black" points="322.5,-168.5 322.5,-187.5 503.5,-187.5 503.5,-168.5 322.5,-168.5"/>
<text text-anchor="middle" x="413" y="-175.5" font-family="Helvetica,sans-Serif" font-size="10.00">Engine/Component/Component.inl</text>
</a>
</g>
</g>
<!-- Node17&#45;&gt;Node25 -->
<g id="edge32" class="edge"><title>Node17&#45;&gt;Node25</title>
<path fill="none" stroke="midnightblue" d="M408.956,-229.975C406.984,-221.58 406.292,-208.481 406.999,-197.663"/>
<polygon fill="midnightblue" stroke="midnightblue" points="410.501,-197.861 408.246,-187.509 403.553,-197.008 410.501,-197.861"/>
</g>
<!-- Node19 -->
<g id="node19" class="node"><title>Node19</title>
<g id="a_node19"><a xlink:href="RaCore_8hpp.html" target="_top" xlink:title="Core/RaCore.hpp">
<polygon fill="white" stroke="black" points="494,-112.5 494,-131.5 592,-131.5 592,-112.5 494,-112.5"/>
<text text-anchor="middle" x="543" y="-119.5" font-family="Helvetica,sans-Serif" font-size="10.00">Core/RaCore.hpp</text>
</a>
</g>
</g>
<!-- Node18&#45;&gt;Node19 -->
<g id="edge19" class="edge"><title>Node18&#45;&gt;Node19</title>
<path fill="none" stroke="midnightblue" d="M261.923,-168.444C322.299,-158.682 420.778,-142.76 483.695,-132.588"/>
<polygon fill="midnightblue" stroke="midnightblue" points="484.546,-135.996 493.859,-130.945 483.429,-129.086 484.546,-135.996"/>
</g>
<!-- Node20 -->
<g id="node20" class="node"><title>Node20</title>
<polygon fill="white" stroke="#bfbfbf" points="234,-112.5 234,-131.5 276,-131.5 276,-112.5 234,-112.5"/>
<text text-anchor="middle" x="255" y="-119.5" font-family="Helvetica,sans-Serif" font-size="10.00">limits</text>
</g>
<!-- Node18&#45;&gt;Node20 -->
<g id="edge21" class="edge"><title>Node18&#45;&gt;Node20</title>
<path fill="none" stroke="midnightblue" d="M216.596,-168.083C223.227,-160.298 233.021,-148.801 241.058,-139.367"/>
<polygon fill="midnightblue" stroke="midnightblue" points="243.725,-141.633 247.545,-131.751 238.396,-137.094 243.725,-141.633"/>
</g>
<!-- Node21 -->
<g id="node21" class="node"><title>Node21</title>
<g id="a_node21"><a xlink:href="Index_8inl.html" target="_top" xlink:title="Core/Utils/Index.inl">
<polygon fill="white" stroke="black" points="110.5,-112.5 110.5,-131.5 215.5,-131.5 215.5,-112.5 110.5,-112.5"/>
<text text-anchor="middle" x="163" y="-119.5" font-family="Helvetica,sans-Serif" font-size="10.00">Core/Utils/Index.inl</text>
</a>
</g>
</g>
<!-- Node18&#45;&gt;Node21 -->
<g id="edge22" class="edge"><title>Node18&#45;&gt;Node21</title>
<path fill="none" stroke="midnightblue" d="M201.404,-168.083C194.773,-160.298 184.979,-148.801 176.942,-139.367"/>
<polygon fill="midnightblue" stroke="midnightblue" points="179.604,-137.094 170.455,-131.751 174.275,-141.633 179.604,-137.094"/>
</g>
<!-- Node19&#45;&gt;Node6 -->
<g id="edge20" class="edge"><title>Node19&#45;&gt;Node6</title>
<path fill="none" stroke="midnightblue" d="M543,-112.083C543,-105.006 543,-94.8611 543,-85.9865"/>
<polygon fill="midnightblue" stroke="midnightblue" points="546.5,-85.751 543,-75.7511 539.5,-85.7511 546.5,-85.751"/>
</g>
<!-- Node23&#45;&gt;Node14 -->
<g id="edge29" class="edge"><title>Node23&#45;&gt;Node14</title>
<path fill="none" stroke="midnightblue" d="M579.172,-168.444C551.751,-159.359 508.223,-144.939 477.568,-134.783"/>
<polygon fill="midnightblue" stroke="midnightblue" points="478.3,-131.339 467.707,-131.516 476.099,-137.984 478.3,-131.339"/>
</g>
<!-- Node23&#45;&gt;Node15 -->
<g id="edge30" class="edge"><title>Node23&#45;&gt;Node15</title>
<path fill="none" stroke="midnightblue" d="M563.168,-168.444C516.921,-158.984 442.388,-143.738 392.564,-133.547"/>
<polygon fill="midnightblue" stroke="midnightblue" points="393.134,-130.091 382.636,-131.516 391.732,-136.949 393.134,-130.091"/>
</g>
<!-- Node23&#45;&gt;Node19 -->
<g id="edge28" class="edge"><title>Node23&#45;&gt;Node19</title>
<path fill="none" stroke="midnightblue" d="M595.039,-168.324C585.873,-160.341 572.063,-148.313 560.972,-138.653"/>
<polygon fill="midnightblue" stroke="midnightblue" points="562.982,-135.762 553.143,-131.834 558.385,-141.041 562.982,-135.762"/>
</g>
<!-- Node24 -->
<g id="node24" class="node"><title>Node24</title>
<polygon fill="white" stroke="#bfbfbf" points="610,-112.5 610,-131.5 690,-131.5 690,-112.5 610,-112.5"/>
<text text-anchor="middle" x="650" y="-119.5" font-family="Helvetica,sans-Serif" font-size="10.00">Eigen/Sparse</text>
</g>
<!-- Node23&#45;&gt;Node24 -->
<g id="edge31" class="edge"><title>Node23&#45;&gt;Node24</title>
<path fill="none" stroke="midnightblue" d="M612.431,-168.083C618.853,-160.377 628.306,-149.033 636.122,-139.653"/>
<polygon fill="midnightblue" stroke="midnightblue" points="638.994,-141.674 642.707,-131.751 633.617,-137.193 638.994,-141.674"/>
</g>
<!-- Node25&#45;&gt;Node17 -->
<g id="edge33" class="edge"><title>Node25&#45;&gt;Node17</title>
<path fill="none" stroke="midnightblue" d="M418.04,-187.509C420.014,-195.898 420.707,-208.996 420.003,-219.817"/>
<polygon fill="midnightblue" stroke="midnightblue" points="416.5,-219.624 418.757,-229.975 423.448,-220.475 416.5,-219.624"/>
</g>
<!-- Node27&#45;&gt;Node5 -->
<g id="edge38" class="edge"><title>Node27&#45;&gt;Node5</title>
<path fill="none" stroke="midnightblue" d="M718,-229.975C718,-221.58 718,-208.481 718,-197.663"/>
<polygon fill="midnightblue" stroke="midnightblue" points="721.5,-197.509 718,-187.509 714.5,-197.509 721.5,-197.509"/>
</g>
<!-- Node27&#45;&gt;Node22 -->
<g id="edge40" class="edge"><title>Node27&#45;&gt;Node22</title>
<path fill="none" stroke="midnightblue" d="M731.181,-229.975C746.074,-220.343 770.544,-204.517 788.273,-193.052"/>
<polygon fill="midnightblue" stroke="midnightblue" points="790.347,-195.879 796.843,-187.509 786.545,-190.001 790.347,-195.879"/>
</g>
<!-- Node27&#45;&gt;Node28 -->
<g id="edge39" class="edge"><title>Node27&#45;&gt;Node28</title>
<path fill="none" stroke="midnightblue" d="M741.211,-229.975C768.999,-219.769 815.723,-202.608 847.194,-191.049"/>
<polygon fill="midnightblue" stroke="midnightblue" points="848.652,-194.242 856.832,-187.509 846.239,-187.671 848.652,-194.242"/>
</g>
<!-- Node29&#45;&gt;Node5 -->
<g id="edge43" class="edge"><title>Node29&#45;&gt;Node5</title>
<path fill="none" stroke="midnightblue" d="M955.313,-229.975C905.843,-219.349 821.28,-201.185 767.592,-189.652"/>
<polygon fill="midnightblue" stroke="midnightblue" points="768.126,-186.187 757.614,-187.509 766.656,-193.031 768.126,-186.187"/>
</g>
<!-- Node29&#45;&gt;Node22 -->
<g id="edge50" class="edge"><title>Node29&#45;&gt;Node22</title>
<path fill="none" stroke="midnightblue" d="M968.494,-229.975C935.435,-219.342 878.908,-201.162 843.055,-189.631"/>
<polygon fill="midnightblue" stroke="midnightblue" points="844.119,-186.297 833.527,-186.567 841.975,-192.961 844.119,-186.297"/>
</g>
<!-- Node29&#45;&gt;Node23 -->
<g id="edge44" class="edge"><title>Node29&#45;&gt;Node23</title>
<path fill="none" stroke="midnightblue" d="M936.383,-229.98C871.394,-220.468 763.178,-204.437 659.771,-188.101"/>
<polygon fill="midnightblue" stroke="midnightblue" points="660.204,-184.627 649.78,-186.52 659.11,-191.541 660.204,-184.627"/>
</g>
<!-- Node29&#45;&gt;Node28 -->
<g id="edge48" class="edge"><title>Node29&#45;&gt;Node28</title>
<path fill="none" stroke="midnightblue" d="M978.523,-229.975C959.395,-220.078 927.627,-203.642 905.348,-192.115"/>
<polygon fill="midnightblue" stroke="midnightblue" points="906.936,-188.996 896.446,-187.509 903.719,-195.213 906.936,-188.996"/>
</g>
<!-- Node30 -->
<g id="node30" class="node"><title>Node30</title>
<g id="a_node30"><a xlink:href="Singleton_8hpp.html" target="_top" xlink:title="Core/Utils/Singleton.hpp">
<polygon fill="white" stroke="black" points="927,-168.5 927,-187.5 1059,-187.5 1059,-168.5 927,-168.5"/>
<text text-anchor="middle" x="993" y="-175.5" font-family="Helvetica,sans-Serif" font-size="10.00">Core/Utils/Singleton.hpp</text>
</a>
</g>
</g>
<!-- Node29&#45;&gt;Node30 -->
<g id="edge45" class="edge"><title>Node29&#45;&gt;Node30</title>
<path fill="none" stroke="midnightblue" d="M994.713,-229.975C994.431,-221.58 993.991,-208.481 993.627,-197.663"/>
<polygon fill="midnightblue" stroke="midnightblue" points="997.12,-197.386 993.286,-187.509 990.124,-197.621 997.12,-197.386"/>
</g>
<!-- Node31 -->
<g id="node31" class="node"><title>Node31</title>
<polygon fill="white" stroke="#bfbfbf" points="1139,-168.5 1139,-187.5 1177,-187.5 1177,-168.5 1139,-168.5"/>
<text text-anchor="middle" x="1158" y="-175.5" font-family="Helvetica,sans-Serif" font-size="10.00">map</text>
</g>
<!-- Node29&#45;&gt;Node31 -->
<g id="edge47" class="edge"><title>Node29&#45;&gt;Node31</title>
<path fill="none" stroke="midnightblue" d="M1018.35,-229.975C1047.59,-219.305 1097.64,-201.034 1129.21,-189.509"/>
<polygon fill="midnightblue" stroke="midnightblue" points="1130.57,-192.739 1138.76,-186.022 1128.17,-186.164 1130.57,-192.739"/>
</g>
<!-- Node32 -->
<g id="node32" class="node"><title>Node32</title>
<polygon fill="white" stroke="#bfbfbf" points="1077,-168.5 1077,-187.5 1121,-187.5 1121,-168.5 1077,-168.5"/>
<text text-anchor="middle" x="1099" y="-175.5" font-family="Helvetica,sans-Serif" font-size="10.00">string</text>
</g>
<!-- Node29&#45;&gt;Node32 -->
<g id="edge49" class="edge"><title>Node29&#45;&gt;Node32</title>
<path fill="none" stroke="midnightblue" d="M1009.9,-229.975C1026.97,-220.211 1055.16,-204.081 1075.26,-192.581"/>
<polygon fill="midnightblue" stroke="midnightblue" points="1077.19,-195.513 1084.13,-187.509 1073.71,-189.437 1077.19,-195.513"/>
</g>
<!-- Node30&#45;&gt;Node19 -->
<g id="edge46" class="edge"><title>Node30&#45;&gt;Node19</title>
<path fill="none" stroke="midnightblue" d="M926.683,-169.129C923.409,-168.746 920.167,-168.368 917,-168 779.882,-152.071 742.813,-150.889 602.324,-132.132"/>
<polygon fill="midnightblue" stroke="midnightblue" points="602.404,-128.611 592.027,-130.751 601.473,-135.549 602.404,-128.611"/>
</g>
</g>
</svg>
