<?xml version="1.0" encoding="UTF-8" standalone="no"?>
<!DOCTYPE svg PUBLIC "-//W3C//DTD SVG 1.1//EN"
 "http://www.w3.org/Graphics/SVG/1.1/DTD/svg11.dtd">
<!-- Generated by graphviz version 2.38.0 (20140413.2041)
 -->
<!-- Title: /home/travis/build/STORM&#45;IRIT/Radium&#45;Engine/src/Engine/Renderer Pages: 1 -->
<svg width="624pt" height="543pt"
 viewBox="0.00 0.00 624.05 543.00" xmlns="http://www.w3.org/2000/svg" xmlns:xlink="http://www.w3.org/1999/xlink">
<g id="graph0" class="graph" transform="scale(1 1) rotate(0) translate(4 539)">
<title>/home/travis/build/STORM&#45;IRIT/Radium&#45;Engine/src/Engine/Renderer</title>
<polygon fill="white" stroke="none" points="-4,4 -4,-539 620.054,-539 620.054,4 -4,4"/>
<g id="clust1" class="cluster"><title>clusterdir_3072bc1f55ed1280fe4fbe6b21c78379</title>
<g id="a_clust1"><a xlink:href="dir_3072bc1f55ed1280fe4fbe6b21c78379.html" target="_top" xlink:title="Engine">
<polygon fill="#ddddee" stroke="black" points="8,-8 8,-527 332,-527 332,-8 8,-8"/>
<text text-anchor="middle" x="170" y="-515" font-family="Helvetica,sans-Serif" font-size="10.00">Engine</text>
</a>
</g>
</g>
<g id="clust2" class="cluster"><title>clusterdir_54018506bb725509c19b38b6d9bcf0f6</title>
<g id="a_clust2"><a xlink:href="dir_54018506bb725509c19b38b6d9bcf0f6.html" target="_top">
<polygon fill="#eeeeff" stroke="black" points="16,-16 16,-500 324,-500 324,-16 16,-16"/>
</a>
</g>
</g>
<!-- dir_54018506bb725509c19b38b6d9bcf0f6 -->
<g id="node1" class="node"><title>dir_54018506bb725509c19b38b6d9bcf0f6</title>
<text text-anchor="middle" x="286" y="-471.5" font-family="Helvetica,sans-Serif" font-size="10.00">Renderer</text>
</g>
<!-- dir_35f904a890c1431d13964486334c23a9 -->
<g id="node2" class="node"><title>dir_35f904a890c1431d13964486334c23a9</title>
<g id="a_node2"><a xlink:href="dir_35f904a890c1431d13964486334c23a9.html" target="_top" xlink:title="Camera">
<polygon fill="white" stroke="black" points="313.5,-420 258.5,-420 258.5,-384 313.5,-384 313.5,-420"/>
<text text-anchor="middle" x="286" y="-399.5" font-family="Helvetica,sans-Serif" font-size="10.00">Camera</text>
</a>
</g>
</g>
<!-- dir_54018506bb725509c19b38b6d9bcf0f6&#45;&gt;dir_35f904a890c1431d13964486334c23a9 -->
<g id="edge47" class="edge"><title>dir_54018506bb725509c19b38b6d9bcf0f6&#45;&gt;dir_35f904a890c1431d13964486334c23a9</title>
<path fill="none" stroke="black" d="M286,-455.697C286,-447.983 286,-438.712 286,-430.112"/>
<polygon fill="black" stroke="black" points="289.5,-430.104 286,-420.104 282.5,-430.104 289.5,-430.104"/>
<g id="a_edge47&#45;headlabel"><a xlink:href="dir_000040_000041.html" target="_top" xlink:title="2">
<text text-anchor="middle" x="292.339" y="-431.199" font-family="Helvetica,sans-Serif" font-size="10.00">2</text>
</a>
</g>
</g>
<!-- dir_06113b60808b1bbb52a01dfd2c3a8657 -->
<g id="node14" class="node"><title>dir_06113b60808b1bbb52a01dfd2c3a8657</title>
<g id="a_node14"><a xlink:href="dir_06113b60808b1bbb52a01dfd2c3a8657.html" target="_top" xlink:title="Managers">
<polygon fill="white" stroke="red" points="433,-420 369,-420 369,-384 433,-384 433,-420"/>
<text text-anchor="middle" x="401" y="-399.5" font-family="Helvetica,sans-Serif" font-size="10.00">Managers</text>
</a>
</g>
</g>
<!-- dir_54018506bb725509c19b38b6d9bcf0f6&#45;&gt;dir_06113b60808b1bbb52a01dfd2c3a8657 -->
<g id="edge48" class="edge"><title>dir_54018506bb725509c19b38b6d9bcf0f6&#45;&gt;dir_06113b60808b1bbb52a01dfd2c3a8657</title>
<path fill="none" stroke="black" d="M314.132,-455.876C329.168,-446.724 347.867,-435.342 364.06,-425.485"/>
<polygon fill="black" stroke="black" points="366.038,-428.379 372.76,-420.19 362.398,-422.4 366.038,-428.379"/>
<g id="a_edge48&#45;headlabel"><a xlink:href="dir_000040_000033.html" target="_top" xlink:title="5">
<text text-anchor="middle" x="364.443" y="-430.173" font-family="Helvetica,sans-Serif" font-size="10.00">5</text>
</a>
</g>
</g>
<!-- dir_f6a0a87962fcbf90fc709c1bf5ba5a00 -->
<g id="node6" class="node"><title>dir_f6a0a87962fcbf90fc709c1bf5ba5a00</title>
<g id="a_node6"><a xlink:href="dir_f6a0a87962fcbf90fc709c1bf5ba5a00.html" target="_top" xlink:title="Mesh">
<polygon fill="white" stroke="black" points="274,-276 220,-276 220,-240 274,-240 274,-276"/>
<text text-anchor="middle" x="247" y="-255.5" font-family="Helvetica,sans-Serif" font-size="10.00">Mesh</text>
</a>
</g>
</g>
<!-- dir_35f904a890c1431d13964486334c23a9&#45;&gt;dir_f6a0a87962fcbf90fc709c1bf5ba5a00 -->
<g id="edge34" class="edge"><title>dir_35f904a890c1431d13964486334c23a9&#45;&gt;dir_f6a0a87962fcbf90fc709c1bf5ba5a00</title>
<path fill="none" stroke="black" d="M258.371,-398.633C227.257,-394.321 178.04,-382.176 155,-348 146.056,-334.733 146.993,-325.853 155,-312 166.89,-291.428 190.133,-278.135 210.281,-270.007"/>
<polygon fill="black" stroke="black" points="211.72,-273.205 219.859,-266.423 209.267,-266.649 211.72,-273.205"/>
<g id="a_edge34&#45;headlabel"><a xlink:href="dir_000041_000045.html" target="_top" xlink:title="1">
<text text-anchor="middle" x="209.349" y="-274.624" font-family="Helvetica,sans-Serif" font-size="10.00">1</text>
</a>
</g>
</g>
<!-- dir_652267079d823ee01f6c6cf98db9085b -->
<g id="node9" class="node"><title>dir_652267079d823ee01f6c6cf98db9085b</title>
<g id="a_node9"><a xlink:href="dir_652267079d823ee01f6c6cf98db9085b.html" target="_top" xlink:title="RenderObject">
<polygon fill="white" stroke="red" points="244,-348 164,-348 164,-312 244,-312 244,-348"/>
<text text-anchor="middle" x="204" y="-327.5" font-family="Helvetica,sans-Serif" font-size="10.00">RenderObject</text>
</a>
</g>
</g>
<!-- dir_35f904a890c1431d13964486334c23a9&#45;&gt;dir_652267079d823ee01f6c6cf98db9085b -->
<g id="edge31" class="edge"><title>dir_35f904a890c1431d13964486334c23a9&#45;&gt;dir_652267079d823ee01f6c6cf98db9085b</title>
<path fill="none" stroke="black" d="M259.815,-383.697C248.794,-375.05 236.198,-364.449 225.7,-355.027"/>
<polygon fill="black" stroke="black" points="227.88,-352.277 218.141,-348.104 223.152,-357.44 227.88,-352.277"/>
<g id="a_edge31&#45;headlabel"><a xlink:href="dir_000041_000048.html" target="_top" xlink:title="1">
<text text-anchor="middle" x="232.448" y="-350.112" font-family="Helvetica,sans-Serif" font-size="10.00">1</text>
</a>
</g>
</g>
<!-- dir_6bc97c5ccce2964f7b25f8377ac95818 -->
<g id="node10" class="node"><title>dir_6bc97c5ccce2964f7b25f8377ac95818</title>
<g id="a_node10"><a xlink:href="dir_6bc97c5ccce2964f7b25f8377ac95818.html" target="_top" xlink:title="RenderTechnique">
<polygon fill="white" stroke="black" points="181.5,-276 84.5,-276 84.5,-240 181.5,-240 181.5,-276"/>
<text text-anchor="middle" x="133" y="-255.5" font-family="Helvetica,sans-Serif" font-size="10.00">RenderTechnique</text>
</a>
</g>
</g>
<!-- dir_35f904a890c1431d13964486334c23a9&#45;&gt;dir_6bc97c5ccce2964f7b25f8377ac95818 -->
<g id="edge35" class="edge"><title>dir_35f904a890c1431d13964486334c23a9&#45;&gt;dir_6bc97c5ccce2964f7b25f8377ac95818</title>
<path fill="none" stroke="black" d="M258.332,-398.848C225.788,-394.736 172.699,-382.774 145,-348 131.294,-330.793 129.051,-305.519 129.799,-286.296"/>
<polygon fill="black" stroke="black" points="133.308,-286.271 130.494,-276.057 126.324,-285.797 133.308,-286.271"/>
<g id="a_edge35&#45;headlabel"><a xlink:href="dir_000041_000050.html" target="_top" xlink:title="1">
<text text-anchor="middle" x="135.898" y="-287.55" font-family="Helvetica,sans-Serif" font-size="10.00">1</text>
</a>
</g>
</g>
<!-- dir_a2f0e5642e47e7ed59fe0f0829eafb5f -->
<g id="node12" class="node"><title>dir_a2f0e5642e47e7ed59fe0f0829eafb5f</title>
<g id="a_node12"><a xlink:href="dir_a2f0e5642e47e7ed59fe0f0829eafb5f.html" target="_top" xlink:title="Core">
<polygon fill="white" stroke="red" points="420,-132 366,-132 366,-96 420,-96 420,-132"/>
<text text-anchor="middle" x="393" y="-111.5" font-family="Helvetica,sans-Serif" font-size="10.00">Core</text>
</a>
</g>
</g>
<!-- dir_35f904a890c1431d13964486334c23a9&#45;&gt;dir_a2f0e5642e47e7ed59fe0f0829eafb5f -->
<g id="edge32" class="edge"><title>dir_35f904a890c1431d13964486334c23a9&#45;&gt;dir_a2f0e5642e47e7ed59fe0f0829eafb5f</title>
<path fill="none" stroke="black" d="M313.737,-394.518C327.618,-391.302 344.684,-387.39 360,-384 434.981,-367.402 480.684,-407.693 529,-348 579.673,-285.395 558.57,-230.688 508,-168 488.504,-143.832 455.512,-130.198 429.852,-122.832"/>
<polygon fill="black" stroke="black" points="430.634,-119.418 420.07,-120.22 428.828,-126.182 430.634,-119.418"/>
<g id="a_edge32&#45;headlabel"><a xlink:href="dir_000041_000020.html" target="_top" xlink:title="3">
<text text-anchor="middle" x="434.84" y="-115.103" font-family="Helvetica,sans-Serif" font-size="10.00">3</text>
</a>
</g>
</g>
<!-- dir_7205f054df4e14abb60715afe3e7e90c -->
<g id="node13" class="node"><title>dir_7205f054df4e14abb60715afe3e7e90c</title>
<g id="a_node13"><a xlink:href="dir_7205f054df4e14abb60715afe3e7e90c.html" target="_top" xlink:title="Entity">
<polygon fill="none" stroke="black" points="520,-348 466,-348 466,-312 520,-312 520,-348"/>
<text text-anchor="middle" x="493" y="-327.5" font-family="Helvetica,sans-Serif" font-size="10.00">Entity</text>
</a>
</g>
</g>
<!-- dir_35f904a890c1431d13964486334c23a9&#45;&gt;dir_7205f054df4e14abb60715afe3e7e90c -->
<g id="edge33" class="edge"><title>dir_35f904a890c1431d13964486334c23a9&#45;&gt;dir_7205f054df4e14abb60715afe3e7e90c</title>
<path fill="none" stroke="black" d="M313.917,-391.559C350.721,-379.114 415.561,-357.187 456.298,-343.411"/>
<polygon fill="black" stroke="black" points="457.502,-346.699 465.854,-340.18 455.259,-340.068 457.502,-346.699"/>
<g id="a_edge33&#45;headlabel"><a xlink:href="dir_000041_000031.html" target="_top" xlink:title="1">
<text text-anchor="middle" x="455.006" y="-348.04" font-family="Helvetica,sans-Serif" font-size="10.00">1</text>
</a>
</g>
</g>
<!-- dir_d0f3276f03e9a9cb8f8ba3f2a5ea1262 -->
<g id="node15" class="node"><title>dir_d0f3276f03e9a9cb8f8ba3f2a5ea1262</title>
<g id="a_node15"><a xlink:href="dir_d0f3276f03e9a9cb8f8ba3f2a5ea1262.html" target="_top" xlink:title="Component">
<polygon fill="none" stroke="black" points="499.5,-276 426.5,-276 426.5,-240 499.5,-240 499.5,-276"/>
<text text-anchor="middle" x="463" y="-255.5" font-family="Helvetica,sans-Serif" font-size="10.00">Component</text>
</a>
</g>
</g>
<!-- dir_35f904a890c1431d13964486334c23a9&#45;&gt;dir_d0f3276f03e9a9cb8f8ba3f2a5ea1262 -->
<g id="edge36" class="edge"><title>dir_35f904a890c1431d13964486334c23a9&#45;&gt;dir_d0f3276f03e9a9cb8f8ba3f2a5ea1262</title>
<path fill="none" stroke="black" d="M309.98,-383.977C324.132,-373.776 342.291,-360.415 358,-348 385.097,-326.583 415.067,-300.98 436.028,-282.745"/>
<polygon fill="black" stroke="black" points="438.362,-285.353 443.596,-276.14 433.76,-280.079 438.362,-285.353"/>
<g id="a_edge36&#45;headlabel"><a xlink:href="dir_000041_000030.html" target="_top" xlink:title="1">
<text text-anchor="middle" x="437.521" y="-287.355" font-family="Helvetica,sans-Serif" font-size="10.00">1</text>
</a>
</g>
</g>
<!-- dir_f4b8f2947224e6f7be5f71dabf25859e -->
<g id="node3" class="node"><title>dir_f4b8f2947224e6f7be5f71dabf25859e</title>
<g id="a_node3"><a xlink:href="dir_f4b8f2947224e6f7be5f71dabf25859e.html" target="_top" xlink:title="Displayable">
<polygon fill="white" stroke="black" points="269.5,-204 198.5,-204 198.5,-168 269.5,-168 269.5,-204"/>
<text text-anchor="middle" x="234" y="-183.5" font-family="Helvetica,sans-Serif" font-size="10.00">Displayable</text>
</a>
</g>
</g>
<!-- dir_f4b8f2947224e6f7be5f71dabf25859e&#45;&gt;dir_a2f0e5642e47e7ed59fe0f0829eafb5f -->
<g id="edge27" class="edge"><title>dir_f4b8f2947224e6f7be5f71dabf25859e&#45;&gt;dir_a2f0e5642e47e7ed59fe0f0829eafb5f</title>
<path fill="none" stroke="black" d="M269.683,-169.291C295.614,-157.874 330.591,-142.476 356.671,-130.994"/>
<polygon fill="black" stroke="black" points="358.101,-134.188 365.843,-126.956 355.281,-127.782 358.101,-134.188"/>
<g id="a_edge27&#45;headlabel"><a xlink:href="dir_000042_000020.html" target="_top" xlink:title="3">
<text text-anchor="middle" x="355.955" y="-135.735" font-family="Helvetica,sans-Serif" font-size="10.00">3</text>
</a>
</g>
</g>
<!-- dir_b3c92c43cc8feb1052f624d79df8b6af -->
<g id="node4" class="node"><title>dir_b3c92c43cc8feb1052f624d79df8b6af</title>
<g id="a_node4"><a xlink:href="dir_b3c92c43cc8feb1052f624d79df8b6af.html" target="_top" xlink:title="Light">
<polygon fill="white" stroke="black" points="316,-348 262,-348 262,-312 316,-312 316,-348"/>
<text text-anchor="middle" x="289" y="-327.5" font-family="Helvetica,sans-Serif" font-size="10.00">Light</text>
</a>
</g>
</g>
<!-- dir_b3c92c43cc8feb1052f624d79df8b6af&#45;&gt;dir_6bc97c5ccce2964f7b25f8377ac95818 -->
<g id="edge2" class="edge"><title>dir_b3c92c43cc8feb1052f624d79df8b6af&#45;&gt;dir_6bc97c5ccce2964f7b25f8377ac95818</title>
<path fill="none" stroke="black" d="M261.907,-316.117C258.907,-314.716 255.892,-313.321 253,-312 229.632,-301.324 203.557,-289.766 181.699,-280.175"/>
<polygon fill="black" stroke="black" points="182.858,-276.862 172.294,-276.057 180.05,-283.274 182.858,-276.862"/>
<g id="a_edge2&#45;headlabel"><a xlink:href="dir_000043_000050.html" target="_top" xlink:title="4">
<text text-anchor="middle" x="187.29" y="-273.204" font-family="Helvetica,sans-Serif" font-size="10.00">4</text>
</a>
</g>
</g>
<!-- dir_b3c92c43cc8feb1052f624d79df8b6af&#45;&gt;dir_a2f0e5642e47e7ed59fe0f0829eafb5f -->
<g id="edge1" class="edge"><title>dir_b3c92c43cc8feb1052f624d79df8b6af&#45;&gt;dir_a2f0e5642e47e7ed59fe0f0829eafb5f</title>
<path fill="none" stroke="black" d="M308.841,-311.952C332.866,-289.877 372.085,-248.877 388,-204 395.015,-184.219 396.001,-160.418 395.377,-142.409"/>
<polygon fill="black" stroke="black" points="398.865,-142.09 394.838,-132.29 391.875,-142.462 398.865,-142.09"/>
<g id="a_edge1&#45;headlabel"><a xlink:href="dir_000043_000020.html" target="_top" xlink:title="2">
<text text-anchor="middle" x="401.891" y="-143.029" font-family="Helvetica,sans-Serif" font-size="10.00">2</text>
</a>
</g>
</g>
<!-- dir_b3c92c43cc8feb1052f624d79df8b6af&#45;&gt;dir_d0f3276f03e9a9cb8f8ba3f2a5ea1262 -->
<g id="edge3" class="edge"><title>dir_b3c92c43cc8feb1052f624d79df8b6af&#45;&gt;dir_d0f3276f03e9a9cb8f8ba3f2a5ea1262</title>
<path fill="none" stroke="black" d="M316.188,-318.062C343.04,-307.26 384.626,-290.53 416.693,-277.629"/>
<polygon fill="black" stroke="black" points="418.341,-280.739 426.312,-273.76 415.728,-274.245 418.341,-280.739"/>
<g id="a_edge3&#45;headlabel"><a xlink:href="dir_000043_000030.html" target="_top" xlink:title="1">
<text text-anchor="middle" x="416.065" y="-282.215" font-family="Helvetica,sans-Serif" font-size="10.00">1</text>
</a>
</g>
</g>
<!-- dir_909774b1a000bf73b2cf501716b773f3 -->
<g id="node5" class="node"><title>dir_909774b1a000bf73b2cf501716b773f3</title>
<g id="a_node5"><a xlink:href="dir_909774b1a000bf73b2cf501716b773f3.html" target="_top" xlink:title="Material">
<polygon fill="white" stroke="black" points="159.5,-204 104.5,-204 104.5,-168 159.5,-168 159.5,-204"/>
<text text-anchor="middle" x="132" y="-183.5" font-family="Helvetica,sans-Serif" font-size="10.00">Material</text>
</a>
</g>
</g>
<!-- dir_909774b1a000bf73b2cf501716b773f3&#45;&gt;dir_6bc97c5ccce2964f7b25f8377ac95818 -->
<g id="edge59" class="edge"><title>dir_909774b1a000bf73b2cf501716b773f3&#45;&gt;dir_6bc97c5ccce2964f7b25f8377ac95818</title>
<path fill="none" stroke="black" d="M138.139,-204.104C139.055,-211.791 139.423,-221.054 139.214,-229.665"/>
<polygon fill="black" stroke="black" points="135.716,-229.521 138.669,-239.697 142.706,-229.901 135.716,-229.521"/>
<g id="a_edge59&#45;headlabel"><a xlink:href="dir_000044_000050.html" target="_top" xlink:title="4">
<text text-anchor="middle" x="133.076" y="-223.278" font-family="Helvetica,sans-Serif" font-size="10.00">4</text>
</a>
</g>
</g>
<!-- dir_8efb2e226a329d96dc3bcfc9eaf1a998 -->
<g id="node11" class="node"><title>dir_8efb2e226a329d96dc3bcfc9eaf1a998</title>
<g id="a_node11"><a xlink:href="dir_8efb2e226a329d96dc3bcfc9eaf1a998.html" target="_top" xlink:title="Texture">
<polygon fill="white" stroke="black" points="98,-132 44,-132 44,-96 98,-96 98,-132"/>
<text text-anchor="middle" x="71" y="-111.5" font-family="Helvetica,sans-Serif" font-size="10.00">Texture</text>
</a>
</g>
</g>
<!-- dir_909774b1a000bf73b2cf501716b773f3&#45;&gt;dir_8efb2e226a329d96dc3bcfc9eaf1a998 -->
<g id="edge57" class="edge"><title>dir_909774b1a000bf73b2cf501716b773f3&#45;&gt;dir_8efb2e226a329d96dc3bcfc9eaf1a998</title>
<path fill="none" stroke="black" d="M116.921,-167.697C109.608,-159.305 100.69,-149.07 92.6649,-139.861"/>
<polygon fill="black" stroke="black" points="95.1137,-137.344 85.9052,-132.104 89.8363,-141.943 95.1137,-137.344"/>
<g id="a_edge57&#45;headlabel"><a xlink:href="dir_000044_000051.html" target="_top" xlink:title="3">
<text text-anchor="middle" x="99.6158" y="-135.689" font-family="Helvetica,sans-Serif" font-size="10.00">3</text>
</a>
</g>
</g>
<!-- dir_909774b1a000bf73b2cf501716b773f3&#45;&gt;dir_a2f0e5642e47e7ed59fe0f0829eafb5f -->
<g id="edge58" class="edge"><title>dir_909774b1a000bf73b2cf501716b773f3&#45;&gt;dir_a2f0e5642e47e7ed59fe0f0829eafb5f</title>
<path fill="none" stroke="black" d="M159.773,-176.496C169.047,-173.715 179.45,-170.66 189,-168 250.476,-150.878 266.241,-148.074 328,-132 337.022,-129.652 346.746,-127.113 355.854,-124.731"/>
<polygon fill="black" stroke="black" points="357.017,-128.045 365.806,-122.128 355.246,-121.273 357.017,-128.045"/>
<g id="a_edge58&#45;headlabel"><a xlink:href="dir_000044_000020.html" target="_top" xlink:title="5">
<text text-anchor="middle" x="354.258" y="-129.201" font-family="Helvetica,sans-Serif" font-size="10.00">5</text>
</a>
</g>
</g>
<!-- dir_f6a0a87962fcbf90fc709c1bf5ba5a00&#45;&gt;dir_f4b8f2947224e6f7be5f71dabf25859e -->
<g id="edge30" class="edge"><title>dir_f6a0a87962fcbf90fc709c1bf5ba5a00&#45;&gt;dir_f4b8f2947224e6f7be5f71dabf25859e</title>
<path fill="none" stroke="black" d="M243.787,-239.697C242.354,-231.983 240.632,-222.712 239.035,-214.112"/>
<polygon fill="black" stroke="black" points="242.444,-213.297 237.177,-204.104 235.561,-214.575 242.444,-213.297"/>
<g id="a_edge30&#45;headlabel"><a xlink:href="dir_000045_000042.html" target="_top" xlink:title="1">
<text text-anchor="middle" x="245.891" y="-213.813" font-family="Helvetica,sans-Serif" font-size="10.00">1</text>
</a>
</g>
</g>
<!-- dir_745a441f70a5ddf403f2f793490dcc6d -->
<g id="node7" class="node"><title>dir_745a441f70a5ddf403f2f793490dcc6d</title>
<g id="a_node7"><a xlink:href="dir_745a441f70a5ddf403f2f793490dcc6d.html" target="_top" xlink:title="OpenGL">
<polygon fill="white" stroke="black" points="121.5,-60 66.5,-60 66.5,-24 121.5,-24 121.5,-60"/>
<text text-anchor="middle" x="94" y="-39.5" font-family="Helvetica,sans-Serif" font-size="10.00">OpenGL</text>
</a>
</g>
</g>
<!-- dir_f6a0a87962fcbf90fc709c1bf5ba5a00&#45;&gt;dir_745a441f70a5ddf403f2f793490dcc6d -->
<g id="edge29" class="edge"><title>dir_f6a0a87962fcbf90fc709c1bf5ba5a00&#45;&gt;dir_745a441f70a5ddf403f2f793490dcc6d</title>
<path fill="none" stroke="black" d="M225.395,-239.99C213.79,-230.213 199.711,-217.266 189,-204 177.364,-189.588 177.385,-183.97 168,-168 147.858,-133.725 124.462,-94.2631 109.457,-68.9992"/>
<polygon fill="black" stroke="black" points="112.447,-67.1793 104.331,-60.3698 106.429,-70.7547 112.447,-67.1793"/>
<g id="a_edge29&#45;headlabel"><a xlink:href="dir_000045_000046.html" target="_top" xlink:title="1">
<text text-anchor="middle" x="116.724" y="-66.3195" font-family="Helvetica,sans-Serif" font-size="10.00">1</text>
</a>
</g>
</g>
<!-- dir_f6a0a87962fcbf90fc709c1bf5ba5a00&#45;&gt;dir_a2f0e5642e47e7ed59fe0f0829eafb5f -->
<g id="edge28" class="edge"><title>dir_f6a0a87962fcbf90fc709c1bf5ba5a00&#45;&gt;dir_a2f0e5642e47e7ed59fe0f0829eafb5f</title>
<path fill="none" stroke="black" d="M269.653,-239.876C282.472,-229.859 298.574,-216.716 312,-204 333.573,-183.568 356.176,-158.37 372.006,-140.007"/>
<polygon fill="black" stroke="black" points="374.934,-141.967 378.774,-132.093 369.615,-137.418 374.934,-141.967"/>
<g id="a_edge28&#45;headlabel"><a xlink:href="dir_000045_000020.html" target="_top" xlink:title="4">
<text text-anchor="middle" x="374.756" y="-144.044" font-family="Helvetica,sans-Serif" font-size="10.00">4</text>
</a>
</g>
</g>
<!-- dir_ac53bbf7aa3921b9bb37792f08d5cbd9 -->
<g id="node8" class="node"><title>dir_ac53bbf7aa3921b9bb37792f08d5cbd9</title>
<g id="a_node8"><a xlink:href="dir_ac53bbf7aa3921b9bb37792f08d5cbd9.html" target="_top" xlink:title="Renderers">
<polygon fill="white" stroke="black" points="157.5,-420 92.5,-420 92.5,-384 157.5,-384 157.5,-420"/>
<text text-anchor="middle" x="125" y="-399.5" font-family="Helvetica,sans-Serif" font-size="10.00">Renderers</text>
</a>
</g>
</g>
<!-- dir_ac53bbf7aa3921b9bb37792f08d5cbd9&#45;&gt;dir_b3c92c43cc8feb1052f624d79df8b6af -->
<g id="edge18" class="edge"><title>dir_ac53bbf7aa3921b9bb37792f08d5cbd9&#45;&gt;dir_b3c92c43cc8feb1052f624d79df8b6af</title>
<path fill="none" stroke="black" d="M157.538,-388.036C181.49,-378.38 215.028,-364.628 252.367,-348.188"/>
<polygon fill="black" stroke="black" points="254.21,-351.2 261.938,-343.952 251.377,-344.799 254.21,-351.2"/>
<g id="a_edge18&#45;headlabel"><a xlink:href="dir_000047_000043.html" target="_top" xlink:title="2">
<text text-anchor="middle" x="252.073" y="-352.751" font-family="Helvetica,sans-Serif" font-size="10.00">2</text>
</a>
</g>
</g>
<!-- dir_ac53bbf7aa3921b9bb37792f08d5cbd9&#45;&gt;dir_909774b1a000bf73b2cf501716b773f3 -->
<g id="edge26" class="edge"><title>dir_ac53bbf7aa3921b9bb37792f08d5cbd9&#45;&gt;dir_909774b1a000bf73b2cf501716b773f3</title>
<path fill="none" stroke="black" d="M111.639,-383.634C90.2899,-353.627 53.0227,-290.445 75,-240 79.9333,-228.677 88.6105,-218.682 97.7292,-210.512"/>
<polygon fill="black" stroke="black" points="99.9885,-213.185 105.42,-204.088 95.5013,-207.812 99.9885,-213.185"/>
<g id="a_edge26&#45;headlabel"><a xlink:href="dir_000047_000044.html" target="_top" xlink:title="1">
<text text-anchor="middle" x="99.0497" y="-215.168" font-family="Helvetica,sans-Serif" font-size="10.00">1</text>
</a>
</g>
</g>
<!-- dir_ac53bbf7aa3921b9bb37792f08d5cbd9&#45;&gt;dir_f6a0a87962fcbf90fc709c1bf5ba5a00 -->
<g id="edge23" class="edge"><title>dir_ac53bbf7aa3921b9bb37792f08d5cbd9&#45;&gt;dir_f6a0a87962fcbf90fc709c1bf5ba5a00</title>
<path fill="none" stroke="black" d="M124.719,-383.806C125.268,-364.443 128.862,-332.953 145,-312 161.157,-291.023 187.965,-277.553 210.043,-269.444"/>
<polygon fill="black" stroke="black" points="211.482,-272.65 219.8,-266.088 209.205,-266.031 211.482,-272.65"/>
<g id="a_edge23&#45;headlabel"><a xlink:href="dir_000047_000045.html" target="_top" xlink:title="2">
<text text-anchor="middle" x="209.007" y="-274.005" font-family="Helvetica,sans-Serif" font-size="10.00">2</text>
</a>
</g>
</g>
<!-- dir_ac53bbf7aa3921b9bb37792f08d5cbd9&#45;&gt;dir_745a441f70a5ddf403f2f793490dcc6d -->
<g id="edge22" class="edge"><title>dir_ac53bbf7aa3921b9bb37792f08d5cbd9&#45;&gt;dir_745a441f70a5ddf403f2f793490dcc6d</title>
<path fill="none" stroke="black" d="M96.0569,-383.87C82.6189,-374.681 67.3619,-362.303 57,-348 32.3393,-313.959 25,-301.035 25,-259 25,-259 25,-259 25,-185 25,-145.196 16.7816,-131.39 35,-96 40.8097,-84.7143 50.0861,-74.6838 59.5791,-66.468"/>
<polygon fill="black" stroke="black" points="61.9786,-69.0281 67.5328,-60.0059 57.5645,-63.5953 61.9786,-69.0281"/>
<g id="a_edge22&#45;headlabel"><a xlink:href="dir_000047_000046.html" target="_top" xlink:title="2">
<text text-anchor="middle" x="60.9791" y="-70.9984" font-family="Helvetica,sans-Serif" font-size="10.00">2</text>
</a>
</g>
</g>
<!-- dir_ac53bbf7aa3921b9bb37792f08d5cbd9&#45;&gt;dir_652267079d823ee01f6c6cf98db9085b -->
<g id="edge19" class="edge"><title>dir_ac53bbf7aa3921b9bb37792f08d5cbd9&#45;&gt;dir_652267079d823ee01f6c6cf98db9085b</title>
<path fill="none" stroke="black" d="M144.528,-383.697C154.382,-374.965 166.486,-364.24 177.196,-354.75"/>
<polygon fill="black" stroke="black" points="179.533,-357.356 184.697,-348.104 174.891,-352.117 179.533,-357.356"/>
<g id="a_edge19&#45;headlabel"><a xlink:href="dir_000047_000048.html" target="_top" xlink:title="2">
<text text-anchor="middle" x="178.726" y="-359.365" font-family="Helvetica,sans-Serif" font-size="10.00">2</text>
</a>
</g>
</g>
<!-- dir_ac53bbf7aa3921b9bb37792f08d5cbd9&#45;&gt;dir_6bc97c5ccce2964f7b25f8377ac95818 -->
<g id="edge24" class="edge"><title>dir_ac53bbf7aa3921b9bb37792f08d5cbd9&#45;&gt;dir_6bc97c5ccce2964f7b25f8377ac95818</title>
<path fill="none" stroke="black" d="M114.375,-383.556C108.902,-373.543 102.802,-360.509 100,-348 96.5025,-332.387 95.6021,-327.384 100,-312 102.713,-302.51 107.672,-293.065 112.935,-284.834"/>
<polygon fill="black" stroke="black" points="115.922,-286.666 118.673,-276.434 110.142,-282.717 115.922,-286.666"/>
<g id="a_edge24&#45;headlabel"><a xlink:href="dir_000047_000050.html" target="_top" xlink:title="4">
<text text-anchor="middle" x="116.239" y="-288.735" font-family="Helvetica,sans-Serif" font-size="10.00">4</text>
</a>
</g>
</g>
<!-- dir_ac53bbf7aa3921b9bb37792f08d5cbd9&#45;&gt;dir_8efb2e226a329d96dc3bcfc9eaf1a998 -->
<g id="edge20" class="edge"><title>dir_ac53bbf7aa3921b9bb37792f08d5cbd9&#45;&gt;dir_8efb2e226a329d96dc3bcfc9eaf1a998</title>
<path fill="none" stroke="black" d="M101.664,-383.974C90.7297,-374.648 78.6675,-362.12 72,-348 39.7793,-279.764 53.9855,-187.253 64.0657,-142.078"/>
<polygon fill="black" stroke="black" points="67.5153,-142.697 66.3845,-132.162 60.6992,-141.103 67.5153,-142.697"/>
<g id="a_edge20&#45;headlabel"><a xlink:href="dir_000047_000051.html" target="_top" xlink:title="1">
<text text-anchor="middle" x="69.4616" y="-144.343" font-family="Helvetica,sans-Serif" font-size="10.00">1</text>
</a>
</g>
</g>
<!-- dir_ac53bbf7aa3921b9bb37792f08d5cbd9&#45;&gt;dir_a2f0e5642e47e7ed59fe0f0829eafb5f -->
<g id="edge21" class="edge"><title>dir_ac53bbf7aa3921b9bb37792f08d5cbd9&#45;&gt;dir_a2f0e5642e47e7ed59fe0f0829eafb5f</title>
<path fill="none" stroke="black" d="M157.822,-399.438C200.151,-395.937 274.341,-384.608 325,-348 354.758,-326.496 397.967,-239.825 406,-204 410.627,-183.366 406.721,-159.657 402.015,-141.901"/>
<polygon fill="black" stroke="black" points="405.35,-140.836 399.21,-132.202 398.626,-142.781 405.35,-140.836"/>
<g id="a_edge21&#45;headlabel"><a xlink:href="dir_000047_000020.html" target="_top" xlink:title="9">
<text text-anchor="middle" x="409.076" y="-141.001" font-family="Helvetica,sans-Serif" font-size="10.00">9</text>
</a>
</g>
</g>
<!-- dir_ac53bbf7aa3921b9bb37792f08d5cbd9&#45;&gt;dir_06113b60808b1bbb52a01dfd2c3a8657 -->
<g id="edge25" class="edge"><title>dir_ac53bbf7aa3921b9bb37792f08d5cbd9&#45;&gt;dir_06113b60808b1bbb52a01dfd2c3a8657</title>
<path fill="none" stroke="black" d="M157.701,-415.897C196.337,-430.507 262.51,-449.854 319,-438 332.702,-435.125 346.91,-429.818 359.573,-424.146"/>
<polygon fill="black" stroke="black" points="361.347,-427.18 368.921,-419.772 358.38,-420.84 361.347,-427.18"/>
<g id="a_edge25&#45;headlabel"><a xlink:href="dir_000047_000033.html" target="_top" xlink:title="2">
<text text-anchor="middle" x="359.295" y="-428.775" font-family="Helvetica,sans-Serif" font-size="10.00">2</text>
</a>
</g>
</g>
<!-- dir_652267079d823ee01f6c6cf98db9085b&#45;&gt;dir_35f904a890c1431d13964486334c23a9 -->
<g id="edge8" class="edge"><title>dir_652267079d823ee01f6c6cf98db9085b&#45;&gt;dir_35f904a890c1431d13964486334c23a9</title>
<path fill="none" stroke="black" d="M229.932,-348.104C240.928,-356.72 253.527,-367.316 264.058,-376.755"/>
<polygon fill="black" stroke="black" points="261.905,-379.53 271.646,-383.697 266.63,-374.365 261.905,-379.53"/>
<g id="a_edge8&#45;headlabel"><a xlink:href="dir_000048_000041.html" target="_top" xlink:title="1">
<text text-anchor="middle" x="257.336" y="-376.699" font-family="Helvetica,sans-Serif" font-size="10.00">1</text>
</a>
</g>
</g>
<!-- dir_652267079d823ee01f6c6cf98db9085b&#45;&gt;dir_f4b8f2947224e6f7be5f71dabf25859e -->
<g id="edge6" class="edge"><title>dir_652267079d823ee01f6c6cf98db9085b&#45;&gt;dir_f4b8f2947224e6f7be5f71dabf25859e</title>
<path fill="none" stroke="black" d="M244.266,-312.121C259.235,-303.631 274.606,-291.739 283,-276 290.529,-261.882 288.832,-254.899 283,-240 278.803,-229.279 271.308,-219.427 263.422,-211.201"/>
<polygon fill="black" stroke="black" points="265.76,-208.592 256.153,-204.125 260.877,-213.608 265.76,-208.592"/>
<g id="a_edge6&#45;headlabel"><a xlink:href="dir_000048_000042.html" target="_top" xlink:title="1">
<text text-anchor="middle" x="270.316" y="-206.565" font-family="Helvetica,sans-Serif" font-size="10.00">1</text>
</a>
</g>
</g>
<!-- dir_652267079d823ee01f6c6cf98db9085b&#45;&gt;dir_909774b1a000bf73b2cf501716b773f3 -->
<g id="edge12" class="edge"><title>dir_652267079d823ee01f6c6cf98db9085b&#45;&gt;dir_909774b1a000bf73b2cf501716b773f3</title>
<path fill="none" stroke="black" d="M204.583,-311.875C204.503,-293.134 202.219,-262.732 190,-240 183.996,-228.83 174.703,-218.783 165.303,-210.517"/>
<polygon fill="black" stroke="black" points="167.383,-207.695 157.451,-204.006 162.915,-213.083 167.383,-207.695"/>
<g id="a_edge12&#45;headlabel"><a xlink:href="dir_000048_000044.html" target="_top" xlink:title="2">
<text text-anchor="middle" x="171.962" y="-205.303" font-family="Helvetica,sans-Serif" font-size="10.00">2</text>
</a>
</g>
</g>
<!-- dir_652267079d823ee01f6c6cf98db9085b&#45;&gt;dir_f6a0a87962fcbf90fc709c1bf5ba5a00 -->
<g id="edge7" class="edge"><title>dir_652267079d823ee01f6c6cf98db9085b&#45;&gt;dir_f6a0a87962fcbf90fc709c1bf5ba5a00</title>
<path fill="none" stroke="black" d="M214.629,-311.697C219.628,-303.559 225.691,-293.689 231.212,-284.701"/>
<polygon fill="black" stroke="black" points="234.241,-286.457 236.493,-276.104 228.277,-282.793 234.241,-286.457"/>
<g id="a_edge7&#45;headlabel"><a xlink:href="dir_000048_000045.html" target="_top" xlink:title="2">
<text text-anchor="middle" x="234.779" y="-288.506" font-family="Helvetica,sans-Serif" font-size="10.00">2</text>
</a>
</g>
</g>
<!-- dir_652267079d823ee01f6c6cf98db9085b&#45;&gt;dir_6bc97c5ccce2964f7b25f8377ac95818 -->
<g id="edge9" class="edge"><title>dir_652267079d823ee01f6c6cf98db9085b&#45;&gt;dir_6bc97c5ccce2964f7b25f8377ac95818</title>
<path fill="none" stroke="black" d="M186.449,-311.697C177.766,-303.135 167.137,-292.656 157.652,-283.304"/>
<polygon fill="black" stroke="black" points="159.927,-280.633 150.349,-276.104 155.012,-285.617 159.927,-280.633"/>
<g id="a_edge9&#45;headlabel"><a xlink:href="dir_000048_000050.html" target="_top" xlink:title="4">
<text text-anchor="middle" x="164.48" y="-278.635" font-family="Helvetica,sans-Serif" font-size="10.00">4</text>
</a>
</g>
</g>
<!-- dir_652267079d823ee01f6c6cf98db9085b&#45;&gt;dir_a2f0e5642e47e7ed59fe0f0829eafb5f -->
<g id="edge4" class="edge"><title>dir_652267079d823ee01f6c6cf98db9085b&#45;&gt;dir_a2f0e5642e47e7ed59fe0f0829eafb5f</title>
<path fill="none" stroke="black" d="M238.748,-311.925C255.592,-302.67 275.482,-290.218 291,-276 333.634,-236.938 365.591,-176.185 381.582,-141.555"/>
<polygon fill="black" stroke="black" points="384.921,-142.664 385.845,-132.109 378.541,-139.784 384.921,-142.664"/>
<g id="a_edge4&#45;headlabel"><a xlink:href="dir_000048_000020.html" target="_top" xlink:title="12">
<text text-anchor="middle" x="386.03" y="-144.608" font-family="Helvetica,sans-Serif" font-size="10.00">12</text>
</a>
</g>
</g>
<!-- dir_652267079d823ee01f6c6cf98db9085b&#45;&gt;dir_7205f054df4e14abb60715afe3e7e90c -->
<g id="edge5" class="edge"><title>dir_652267079d823ee01f6c6cf98db9085b&#45;&gt;dir_7205f054df4e14abb60715afe3e7e90c</title>
<path fill="none" stroke="black" d="M226.568,-348.093C236.765,-355.146 249.349,-362.393 262,-366 339.361,-388.057 366.44,-390.694 443,-366 450.874,-363.46 458.554,-359.169 465.438,-354.417"/>
<polygon fill="black" stroke="black" points="467.776,-357.039 473.688,-348.247 463.584,-351.433 467.776,-357.039"/>
<g id="a_edge5&#45;headlabel"><a xlink:href="dir_000048_000031.html" target="_top" xlink:title="2">
<text text-anchor="middle" x="466.597" y="-358.966" font-family="Helvetica,sans-Serif" font-size="10.00">2</text>
</a>
</g>
</g>
<!-- dir_652267079d823ee01f6c6cf98db9085b&#45;&gt;dir_06113b60808b1bbb52a01dfd2c3a8657 -->
<g id="edge10" class="edge"><title>dir_652267079d823ee01f6c6cf98db9085b&#45;&gt;dir_06113b60808b1bbb52a01dfd2c3a8657</title>
<path fill="none" stroke="black" d="M244.263,-347.373C277.772,-359.769 325.18,-376.563 359.129,-388.035"/>
<polygon fill="black" stroke="black" points="358.169,-391.404 368.763,-391.267 360.396,-384.768 358.169,-391.404"/>
<g id="a_edge10&#45;headlabel"><a xlink:href="dir_000048_000033.html" target="_top" xlink:title="2">
<text text-anchor="middle" x="353.858" y="-390.453" font-family="Helvetica,sans-Serif" font-size="10.00">2</text>
</a>
</g>
</g>
<!-- dir_652267079d823ee01f6c6cf98db9085b&#45;&gt;dir_d0f3276f03e9a9cb8f8ba3f2a5ea1262 -->
<g id="edge11" class="edge"><title>dir_652267079d823ee01f6c6cf98db9085b&#45;&gt;dir_d0f3276f03e9a9cb8f8ba3f2a5ea1262</title>
<path fill="none" stroke="black" d="M244.27,-311.919C302.9,-294.398 371.792,-277.758 416.49,-267.966"/>
<polygon fill="black" stroke="black" points="417.444,-271.34 426.478,-265.805 415.964,-264.499 417.444,-271.34"/>
<g id="a_edge11&#45;headlabel"><a xlink:href="dir_000048_000030.html" target="_top" xlink:title="2">
<text text-anchor="middle" x="414.531" y="-272.375" font-family="Helvetica,sans-Serif" font-size="10.00">2</text>
</a>
</g>
</g>
<!-- dir_6bc97c5ccce2964f7b25f8377ac95818&#45;&gt;dir_909774b1a000bf73b2cf501716b773f3 -->
<g id="edge40" class="edge"><title>dir_6bc97c5ccce2964f7b25f8377ac95818&#45;&gt;dir_909774b1a000bf73b2cf501716b773f3</title>
<path fill="none" stroke="black" d="M126.837,-239.697C125.931,-231.983 125.572,-222.712 125.792,-214.112"/>
<polygon fill="black" stroke="black" points="129.288,-214.283 126.349,-204.104 122.299,-213.894 129.288,-214.283"/>
<g id="a_edge40&#45;headlabel"><a xlink:href="dir_000050_000044.html" target="_top" xlink:title="1">
<text text-anchor="middle" x="131.923" y="-215.53" font-family="Helvetica,sans-Serif" font-size="10.00">1</text>
</a>
</g>
</g>
<!-- dir_6bc97c5ccce2964f7b25f8377ac95818&#45;&gt;dir_745a441f70a5ddf403f2f793490dcc6d -->
<g id="edge39" class="edge"><title>dir_6bc97c5ccce2964f7b25f8377ac95818&#45;&gt;dir_745a441f70a5ddf403f2f793490dcc6d</title>
<path fill="none" stroke="black" d="M116.537,-239.919C108.346,-230.218 99.2964,-217.366 95,-204 90.1036,-188.768 92.4371,-183.793 95,-168 97.7016,-151.352 104.298,-148.648 107,-132 109.563,-116.207 108.92,-111.884 107,-96 105.977,-87.5349 104.067,-78.4712 102.019,-70.2761"/>
<polygon fill="black" stroke="black" points="105.364,-69.2336 99.4088,-60.4705 98.5991,-71.0344 105.364,-69.2336"/>
<g id="a_edge39&#45;headlabel"><a xlink:href="dir_000050_000046.html" target="_top" xlink:title="1">
<text text-anchor="middle" x="109.032" y="-69.4769" font-family="Helvetica,sans-Serif" font-size="10.00">1</text>
</a>
</g>
</g>
<!-- dir_6bc97c5ccce2964f7b25f8377ac95818&#45;&gt;dir_8efb2e226a329d96dc3bcfc9eaf1a998 -->
<g id="edge37" class="edge"><title>dir_6bc97c5ccce2964f7b25f8377ac95818&#45;&gt;dir_8efb2e226a329d96dc3bcfc9eaf1a998</title>
<path fill="none" stroke="black" d="M109.687,-239.963C98.7587,-230.635 86.6948,-218.107 80,-204 70.8719,-184.765 68.9393,-160.608 69.1134,-142.317"/>
<polygon fill="black" stroke="black" points="72.6121,-142.409 69.4208,-132.306 65.6154,-142.194 72.6121,-142.409"/>
<g id="a_edge37&#45;headlabel"><a xlink:href="dir_000050_000051.html" target="_top" xlink:title="1">
<text text-anchor="middle" x="75.3398" y="-143.589" font-family="Helvetica,sans-Serif" font-size="10.00">1</text>
</a>
</g>
</g>
<!-- dir_6bc97c5ccce2964f7b25f8377ac95818&#45;&gt;dir_a2f0e5642e47e7ed59fe0f0829eafb5f -->
<g id="edge38" class="edge"><title>dir_6bc97c5ccce2964f7b25f8377ac95818&#45;&gt;dir_a2f0e5642e47e7ed59fe0f0829eafb5f</title>
<path fill="none" stroke="black" d="M181.639,-245.338C211.107,-236.835 248.561,-223.38 278,-204 296.382,-191.899 295.121,-182.122 312,-168 325.876,-156.391 342.406,-145.173 356.904,-136.07"/>
<polygon fill="black" stroke="black" points="358.952,-138.919 365.627,-130.691 355.278,-132.961 358.952,-138.919"/>
<g id="a_edge38&#45;headlabel"><a xlink:href="dir_000050_000020.html" target="_top" xlink:title="14">
<text text-anchor="middle" x="357.383" y="-140.722" font-family="Helvetica,sans-Serif" font-size="10.00">14</text>
</a>
</g>
</g>
<!-- dir_8efb2e226a329d96dc3bcfc9eaf1a998&#45;&gt;dir_745a441f70a5ddf403f2f793490dcc6d -->
<g id="edge14" class="edge"><title>dir_8efb2e226a329d96dc3bcfc9eaf1a998&#45;&gt;dir_745a441f70a5ddf403f2f793490dcc6d</title>
<path fill="none" stroke="black" d="M76.6854,-95.6966C79.2478,-87.8979 82.3329,-78.5085 85.1847,-69.8292"/>
<polygon fill="black" stroke="black" points="88.5835,-70.6972 88.38,-60.1043 81.9333,-68.5121 88.5835,-70.6972"/>
<g id="a_edge14&#45;headlabel"><a xlink:href="dir_000051_000046.html" target="_top" xlink:title="2">
<text text-anchor="middle" x="90.1589" y="-72.4985" font-family="Helvetica,sans-Serif" font-size="10.00">2</text>
</a>
</g>
</g>
<!-- dir_8efb2e226a329d96dc3bcfc9eaf1a998&#45;&gt;dir_a2f0e5642e47e7ed59fe0f0829eafb5f -->
<g id="edge13" class="edge"><title>dir_8efb2e226a329d96dc3bcfc9eaf1a998&#45;&gt;dir_a2f0e5642e47e7ed59fe0f0829eafb5f</title>
<path fill="none" stroke="black" d="M98.043,-114C183.936,-114 269.829,-114 355.721,-114"/>
<polygon fill="black" stroke="black" points="355.924,-117.5 365.924,-114 355.924,-110.5 355.924,-117.5"/>
<g id="a_edge13&#45;headlabel"><a xlink:href="dir_000051_000020.html" target="_top" xlink:title="4">
<text text-anchor="middle" x="352.329" y="-117.839" font-family="Helvetica,sans-Serif" font-size="10.00">4</text>
</a>
</g>
</g>
<!-- dir_7205f054df4e14abb60715afe3e7e90c&#45;&gt;dir_a2f0e5642e47e7ed59fe0f0829eafb5f -->
<g id="edge15" class="edge"><title>dir_7205f054df4e14abb60715afe3e7e90c&#45;&gt;dir_a2f0e5642e47e7ed59fe0f0829eafb5f</title>
<path fill="none" stroke="black" d="M499.238,-311.593C502.567,-301.374 506.317,-288.124 508,-276 514.787,-227.097 513.431,-206.074 482,-168 468.058,-151.112 447.242,-138.298 429.246,-129.504"/>
<polygon fill="black" stroke="black" points="430.687,-126.314 420.144,-125.271 427.736,-132.661 430.687,-126.314"/>
<g id="a_edge15&#45;headlabel"><a xlink:href="dir_000031_000020.html" target="_top" xlink:title="3">
<text text-anchor="middle" x="435.144" y="-122.755" font-family="Helvetica,sans-Serif" font-size="10.00">3</text>
</a>
</g>
</g>
<!-- dir_7205f054df4e14abb60715afe3e7e90c&#45;&gt;dir_06113b60808b1bbb52a01dfd2c3a8657 -->
<g id="edge16" class="edge"><title>dir_7205f054df4e14abb60715afe3e7e90c&#45;&gt;dir_06113b60808b1bbb52a01dfd2c3a8657</title>
<path fill="none" stroke="black" d="M476.312,-348.19C465.428,-357.183 450.956,-368.316 437.562,-378.037"/>
<polygon fill="black" stroke="black" points="435.498,-375.21 429.403,-383.876 439.572,-380.902 435.498,-375.21"/>
<g id="a_edge16&#45;headlabel"><a xlink:href="dir_000031_000033.html" target="_top" xlink:title="1">
<text text-anchor="middle" x="436.769" y="-368.309" font-family="Helvetica,sans-Serif" font-size="10.00">1</text>
</a>
</g>
</g>
<!-- dir_7205f054df4e14abb60715afe3e7e90c&#45;&gt;dir_d0f3276f03e9a9cb8f8ba3f2a5ea1262 -->
<g id="edge17" class="edge"><title>dir_7205f054df4e14abb60715afe3e7e90c&#45;&gt;dir_d0f3276f03e9a9cb8f8ba3f2a5ea1262</title>
<path fill="none" stroke="black" d="M479.669,-311.697C475.477,-303.813 471.183,-294.304 467.805,-285.546"/>
<polygon fill="black" stroke="black" points="471.093,-284.346 464.435,-276.104 464.5,-286.699 471.093,-284.346"/>
<g id="a_edge17&#45;headlabel"><a xlink:href="dir_000031_000030.html" target="_top" xlink:title="1">
<text text-anchor="middle" x="474.975" y="-284.277" font-family="Helvetica,sans-Serif" font-size="10.00">1</text>
</a>
</g>
</g>
<!-- dir_06113b60808b1bbb52a01dfd2c3a8657&#45;&gt;dir_35f904a890c1431d13964486334c23a9 -->
<g id="edge45" class="edge"><title>dir_06113b60808b1bbb52a01dfd2c3a8657&#45;&gt;dir_35f904a890c1431d13964486334c23a9</title>
<path fill="none" stroke="black" d="M368.66,-402C353.816,-402 338.972,-402 324.128,-402"/>
<polygon fill="black" stroke="black" points="323.852,-398.5 313.852,-402 323.852,-405.5 323.852,-398.5"/>
<g id="a_edge45&#45;headlabel"><a xlink:href="dir_000033_000041.html" target="_top" xlink:title="2">
<text text-anchor="middle" x="327.446" y="-393.161" font-family="Helvetica,sans-Serif" font-size="10.00">2</text>
</a>
</g>
</g>
<!-- dir_06113b60808b1bbb52a01dfd2c3a8657&#45;&gt;dir_b3c92c43cc8feb1052f624d79df8b6af -->
<g id="edge41" class="edge"><title>dir_06113b60808b1bbb52a01dfd2c3a8657&#45;&gt;dir_b3c92c43cc8feb1052f624d79df8b6af</title>
<path fill="none" stroke="black" d="M373.602,-383.876C358.848,-374.655 340.475,-363.172 324.623,-353.265"/>
<polygon fill="black" stroke="black" points="326.45,-350.279 316.115,-347.947 322.74,-356.215 326.45,-350.279"/>
<g id="a_edge41&#45;headlabel"><a xlink:href="dir_000033_000043.html" target="_top" xlink:title="5">
<text text-anchor="middle" x="331.003" y="-347.277" font-family="Helvetica,sans-Serif" font-size="10.00">5</text>
</a>
</g>
</g>
<!-- dir_06113b60808b1bbb52a01dfd2c3a8657&#45;&gt;dir_652267079d823ee01f6c6cf98db9085b -->
<g id="edge42" class="edge"><title>dir_06113b60808b1bbb52a01dfd2c3a8657&#45;&gt;dir_652267079d823ee01f6c6cf98db9085b</title>
<path fill="none" stroke="black" d="M368.917,-387.669C337.705,-375.993 290.023,-359.015 253.888,-346.688"/>
<polygon fill="black" stroke="black" points="254.62,-343.24 244.026,-343.343 252.372,-349.869 254.62,-343.24"/>
<g id="a_edge42&#45;headlabel"><a xlink:href="dir_000033_000048.html" target="_top" xlink:title="2">
<text text-anchor="middle" x="258.936" y="-339.206" font-family="Helvetica,sans-Serif" font-size="10.00">2</text>
</a>
</g>
</g>
<!-- dir_06113b60808b1bbb52a01dfd2c3a8657&#45;&gt;dir_a2f0e5642e47e7ed59fe0f0829eafb5f -->
<g id="edge43" class="edge"><title>dir_06113b60808b1bbb52a01dfd2c3a8657&#45;&gt;dir_a2f0e5642e47e7ed59fe0f0829eafb5f</title>
<path fill="none" stroke="black" d="M433.184,-396.134C479.781,-388.357 562.401,-371.566 580,-348 627.87,-283.902 628.243,-231.817 580,-168 561.952,-144.126 479.134,-127.891 429.969,-120.171"/>
<polygon fill="black" stroke="black" points="430.438,-116.702 420.024,-118.653 429.382,-123.622 430.438,-116.702"/>
<g id="a_edge43&#45;headlabel"><a xlink:href="dir_000033_000020.html" target="_top" xlink:title="15">
<text text-anchor="middle" x="434.42" y="-111.937" font-family="Helvetica,sans-Serif" font-size="10.00">15</text>
</a>
</g>
</g>
<!-- dir_06113b60808b1bbb52a01dfd2c3a8657&#45;&gt;dir_7205f054df4e14abb60715afe3e7e90c -->
<g id="edge44" class="edge"><title>dir_06113b60808b1bbb52a01dfd2c3a8657&#45;&gt;dir_7205f054df4e14abb60715afe3e7e90c</title>
<path fill="none" stroke="black" d="M417.826,-383.697C429.033,-374.443 444.003,-362.95 457.684,-353.06"/>
<polygon fill="black" stroke="black" points="459.876,-355.797 465.991,-347.145 455.815,-350.095 459.876,-355.797"/>
<g id="a_edge44&#45;headlabel"><a xlink:href="dir_000033_000031.html" target="_top" xlink:title="3">
<text text-anchor="middle" x="458.595" y="-357.694" font-family="Helvetica,sans-Serif" font-size="10.00">3</text>
</a>
</g>
</g>
<!-- dir_06113b60808b1bbb52a01dfd2c3a8657&#45;&gt;dir_d0f3276f03e9a9cb8f8ba3f2a5ea1262 -->
<g id="edge46" class="edge"><title>dir_06113b60808b1bbb52a01dfd2c3a8657&#45;&gt;dir_d0f3276f03e9a9cb8f8ba3f2a5ea1262</title>
<path fill="none" stroke="black" d="M403.894,-383.871C412.008,-359.35 431.53,-314.032 446.155,-285.259"/>
<polygon fill="black" stroke="black" points="449.366,-286.672 450.904,-276.189 443.165,-283.425 449.366,-286.672"/>
<g id="a_edge46&#45;headlabel"><a xlink:href="dir_000033_000030.html" target="_top" xlink:title="2">
<text text-anchor="middle" x="450.214" y="-288.673" font-family="Helvetica,sans-Serif" font-size="10.00">2</text>
</a>
</g>
</g>
<!-- dir_d0f3276f03e9a9cb8f8ba3f2a5ea1262&#45;&gt;dir_54018506bb725509c19b38b6d9bcf0f6 -->
<g id="edge55" class="edge"><title>dir_d0f3276f03e9a9cb8f8ba3f2a5ea1262&#45;&gt;dir_54018506bb725509c19b38b6d9bcf0f6</title>
<path fill="none" stroke="black" d="M495.053,-276.12C508.12,-284.945 521.82,-297.026 529,-312 535.918,-326.427 535.811,-333.522 529,-348 492.23,-426.159 384.85,-456.371 325.894,-467.302"/>
<polygon fill="black" stroke="black" points="325.069,-463.893 315.825,-469.068 326.279,-470.788 325.069,-463.893"/>
<g id="a_edge55&#45;headlabel"><a xlink:href="dir_000030_000040.html" target="_top" xlink:title="15">
<text text-anchor="middle" x="328.119" y="-457.975" font-family="Helvetica,sans-Serif" font-size="10.00">15</text>
</a>
</g>
</g>
<!-- dir_d0f3276f03e9a9cb8f8ba3f2a5ea1262&#45;&gt;dir_909774b1a000bf73b2cf501716b773f3 -->
<g id="edge56" class="edge"><title>dir_d0f3276f03e9a9cb8f8ba3f2a5ea1262&#45;&gt;dir_909774b1a000bf73b2cf501716b773f3</title>
<path fill="none" stroke="black" d="M426.407,-251.105C373.632,-242.337 273.232,-224.654 189,-204 182.681,-202.451 176.021,-200.634 169.569,-198.776"/>
<polygon fill="black" stroke="black" points="170.264,-195.332 159.682,-195.854 168.28,-202.045 170.264,-195.332"/>
<g id="a_edge56&#45;headlabel"><a xlink:href="dir_000030_000044.html" target="_top" xlink:title="3">
<text text-anchor="middle" x="174.515" y="-191.128" font-family="Helvetica,sans-Serif" font-size="10.00">3</text>
</a>
</g>
</g>
<!-- dir_d0f3276f03e9a9cb8f8ba3f2a5ea1262&#45;&gt;dir_f6a0a87962fcbf90fc709c1bf5ba5a00 -->
<g id="edge52" class="edge"><title>dir_d0f3276f03e9a9cb8f8ba3f2a5ea1262&#45;&gt;dir_f6a0a87962fcbf90fc709c1bf5ba5a00</title>
<path fill="none" stroke="black" d="M426.168,-258C378.945,-258 331.722,-258 284.499,-258"/>
<polygon fill="black" stroke="black" points="284.422,-254.5 274.422,-258 284.422,-261.5 284.422,-254.5"/>
<g id="a_edge52&#45;headlabel"><a xlink:href="dir_000030_000045.html" target="_top" xlink:title="2">
<text text-anchor="middle" x="288.016" y="-249.161" font-family="Helvetica,sans-Serif" font-size="10.00">2</text>
</a>
</g>
</g>
<!-- dir_d0f3276f03e9a9cb8f8ba3f2a5ea1262&#45;&gt;dir_652267079d823ee01f6c6cf98db9085b -->
<g id="edge49" class="edge"><title>dir_d0f3276f03e9a9cb8f8ba3f2a5ea1262&#45;&gt;dir_652267079d823ee01f6c6cf98db9085b</title>
<path fill="none" stroke="black" d="M426.146,-268.871C385.572,-278.779 318.92,-294.978 262,-312 259.291,-312.81 256.509,-313.678 253.696,-314.576"/>
<polygon fill="black" stroke="black" points="252.499,-311.284 244.075,-317.71 254.667,-317.94 252.499,-311.284"/>
<g id="a_edge49&#45;headlabel"><a xlink:href="dir_000030_000048.html" target="_top" xlink:title="6">
<text text-anchor="middle" x="255.037" y="-304.971" font-family="Helvetica,sans-Serif" font-size="10.00">6</text>
</a>
</g>
</g>
<!-- dir_d0f3276f03e9a9cb8f8ba3f2a5ea1262&#45;&gt;dir_6bc97c5ccce2964f7b25f8377ac95818 -->
<g id="edge53" class="edge"><title>dir_d0f3276f03e9a9cb8f8ba3f2a5ea1262&#45;&gt;dir_6bc97c5ccce2964f7b25f8377ac95818</title>
<path fill="none" stroke="black" d="M426.166,-275.03C408.143,-282.448 385.879,-290.286 365,-294 301.551,-305.285 283.208,-306.561 220,-294 205.68,-291.154 190.761,-285.912 177.405,-280.291"/>
<polygon fill="black" stroke="black" points="178.551,-276.972 167.987,-276.161 175.739,-283.383 178.551,-276.972"/>
<g id="a_edge53&#45;headlabel"><a xlink:href="dir_000030_000050.html" target="_top" xlink:title="4">
<text text-anchor="middle" x="182.983" y="-273.316" font-family="Helvetica,sans-Serif" font-size="10.00">4</text>
</a>
</g>
</g>
<!-- dir_d0f3276f03e9a9cb8f8ba3f2a5ea1262&#45;&gt;dir_a2f0e5642e47e7ed59fe0f0829eafb5f -->
<g id="edge50" class="edge"><title>dir_d0f3276f03e9a9cb8f8ba3f2a5ea1262&#45;&gt;dir_a2f0e5642e47e7ed59fe0f0829eafb5f</title>
<path fill="none" stroke="black" d="M467.621,-239.897C471.709,-221.176 475.428,-190.792 464,-168 456.478,-152.998 442.472,-141.157 428.875,-132.507"/>
<polygon fill="black" stroke="black" points="430.456,-129.376 420.07,-127.283 426.884,-135.396 430.456,-129.376"/>
<g id="a_edge50&#45;headlabel"><a xlink:href="dir_000030_000020.html" target="_top" xlink:title="12">
<text text-anchor="middle" x="434.997" y="-126.269" font-family="Helvetica,sans-Serif" font-size="10.00">12</text>
</a>
</g>
</g>
<!-- dir_d0f3276f03e9a9cb8f8ba3f2a5ea1262&#45;&gt;dir_7205f054df4e14abb60715afe3e7e90c -->
<g id="edge51" class="edge"><title>dir_d0f3276f03e9a9cb8f8ba3f2a5ea1262&#45;&gt;dir_7205f054df4e14abb60715afe3e7e90c</title>
<path fill="none" stroke="black" d="M476.225,-276.104C480.415,-283.96 484.716,-293.462 488.109,-302.232"/>
<polygon fill="black" stroke="black" points="484.832,-303.463 491.5,-311.697 491.422,-301.102 484.832,-303.463"/>
<g id="a_edge51&#45;headlabel"><a xlink:href="dir_000030_000031.html" target="_top" xlink:title="1">
<text text-anchor="middle" x="480.947" y="-298.537" font-family="Helvetica,sans-Serif" font-size="10.00">1</text>
</a>
</g>
</g>
<!-- dir_d0f3276f03e9a9cb8f8ba3f2a5ea1262&#45;&gt;dir_06113b60808b1bbb52a01dfd2c3a8657 -->
<g id="edge54" class="edge"><title>dir_d0f3276f03e9a9cb8f8ba3f2a5ea1262&#45;&gt;dir_06113b60808b1bbb52a01dfd2c3a8657</title>
<path fill="none" stroke="black" d="M460.086,-276.189C451.953,-300.745 432.425,-346.066 417.808,-374.812"/>
<polygon fill="black" stroke="black" points="414.603,-373.389 413.063,-383.871 420.804,-376.637 414.603,-373.389"/>
<g id="a_edge54&#45;headlabel"><a xlink:href="dir_000030_000033.html" target="_top" xlink:title="2">
<text text-anchor="middle" x="413.756" y="-366.387" font-family="Helvetica,sans-Serif" font-size="10.00">2</text>
</a>
</g>
</g>
</g>
</svg>
