<?xml version="1.0" encoding="UTF-8" standalone="no"?>
<!DOCTYPE svg PUBLIC "-//W3C//DTD SVG 1.1//EN"
 "http://www.w3.org/Graphics/SVG/1.1/DTD/svg11.dtd">
<!-- Generated by graphviz version 2.38.0 (20140413.2041)
 -->
<!-- Title: /home/travis/build/STORM&#45;IRIT/Radium&#45;Engine/src/Engine/System Pages: 1 -->
<svg width="184pt" height="295pt"
 viewBox="0.00 0.00 184.22 295.00" xmlns="http://www.w3.org/2000/svg" xmlns:xlink="http://www.w3.org/1999/xlink">
<g id="graph0" class="graph" transform="scale(1 1) rotate(0) translate(4 291)">
<title>/home/travis/build/STORM&#45;IRIT/Radium&#45;Engine/src/Engine/System</title>
<polygon fill="white" stroke="none" points="-4,4 -4,-291 180.218,-291 180.218,4 -4,4"/>
<g id="clust1" class="cluster"><title>clusterdir_3072bc1f55ed1280fe4fbe6b21c78379</title>
<g id="a_clust1"><a xlink:href="dir_3072bc1f55ed1280fe4fbe6b21c78379.html" target="_top" xlink:title="Engine">
<polygon fill="#ddddee" stroke="black" points="8,-208 8,-279 78,-279 78,-208 8,-208"/>
<text text-anchor="middle" x="43" y="-267" font-family="Helvetica,sans-Serif" font-size="10.00">Engine</text>
</a>
</g>
</g>
<!-- dir_eecdbbfa89a6d9af25d920c499e6f44e -->
<g id="node1" class="node"><title>dir_eecdbbfa89a6d9af25d920c499e6f44e</title>
<g id="a_node1"><a xlink:href="dir_eecdbbfa89a6d9af25d920c499e6f44e.html" target="_top" xlink:title="System">
<polygon fill="#eeeeff" stroke="black" points="70,-252 16,-252 16,-216 70,-216 70,-252"/>
<text text-anchor="middle" x="43" y="-231.5" font-family="Helvetica,sans-Serif" font-size="10.00">System</text>
</a>
</g>
</g>
<!-- dir_a2f0e5642e47e7ed59fe0f0829eafb5f -->
<g id="node2" class="node"><title>dir_a2f0e5642e47e7ed59fe0f0829eafb5f</title>
<g id="a_node2"><a xlink:href="dir_a2f0e5642e47e7ed59fe0f0829eafb5f.html" target="_top" xlink:title="Core">
<polygon fill="white" stroke="red" points="97,-36 43,-36 43,-0 97,-0 97,-36"/>
<text text-anchor="middle" x="70" y="-15.5" font-family="Helvetica,sans-Serif" font-size="10.00">Core</text>
</a>
</g>
</g>
<!-- dir_eecdbbfa89a6d9af25d920c499e6f44e&#45;&gt;dir_a2f0e5642e47e7ed59fe0f0829eafb5f -->
<g id="edge4" class="edge"><title>dir_eecdbbfa89a6d9af25d920c499e6f44e&#45;&gt;dir_a2f0e5642e47e7ed59fe0f0829eafb5f</title>
<path fill="none" stroke="black" d="M33.4575,-215.928C28.3601,-205.821 22.6101,-192.571 20,-180 16.7473,-164.334 16.9743,-159.711 20,-144 26.8676,-108.339 43.8173,-69.9199 56.0809,-45.2268"/>
<polygon fill="black" stroke="black" points="59.279,-46.6589 60.6824,-36.1574 53.0365,-43.4916 59.279,-46.6589"/>
<g id="a_edge4&#45;headlabel"><a xlink:href="dir_000052_000020.html" target="_top" xlink:title="4">
<text text-anchor="middle" x="60.1846" y="-48.6491" font-family="Helvetica,sans-Serif" font-size="10.00">4</text>
</a>
</g>
</g>
<!-- dir_7205f054df4e14abb60715afe3e7e90c -->
<g id="node3" class="node"><title>dir_7205f054df4e14abb60715afe3e7e90c</title>
<g id="a_node3"><a xlink:href="dir_7205f054df4e14abb60715afe3e7e90c.html" target="_top" xlink:title="Entity">
<polygon fill="none" stroke="black" points="170,-252 116,-252 116,-216 170,-216 170,-252"/>
<text text-anchor="middle" x="143" y="-231.5" font-family="Helvetica,sans-Serif" font-size="10.00">Entity</text>
</a>
</g>
</g>
<!-- dir_eecdbbfa89a6d9af25d920c499e6f44e&#45;&gt;dir_7205f054df4e14abb60715afe3e7e90c -->
<g id="edge5" class="edge"><title>dir_eecdbbfa89a6d9af25d920c499e6f44e&#45;&gt;dir_7205f054df4e14abb60715afe3e7e90c</title>
<path fill="none" stroke="black" d="M70.3438,-234C82.0511,-234 93.7584,-234 105.466,-234"/>
<polygon fill="black" stroke="black" points="105.754,-237.5 115.754,-234 105.754,-230.5 105.754,-237.5"/>
<g id="a_edge5&#45;headlabel"><a xlink:href="dir_000052_000031.html" target="_top" xlink:title="2">
<text text-anchor="middle" x="102.159" y="-237.839" font-family="Helvetica,sans-Serif" font-size="10.00">2</text>
</a>
</g>
</g>
<!-- dir_06113b60808b1bbb52a01dfd2c3a8657 -->
<g id="node4" class="node"><title>dir_06113b60808b1bbb52a01dfd2c3a8657</title>
<g id="a_node4"><a xlink:href="dir_06113b60808b1bbb52a01dfd2c3a8657.html" target="_top" xlink:title="Managers">
<polygon fill="white" stroke="red" points="135,-180 71,-180 71,-144 135,-144 135,-180"/>
<text text-anchor="middle" x="103" y="-159.5" font-family="Helvetica,sans-Serif" font-size="10.00">Managers</text>
</a>
</g>
</g>
<!-- dir_eecdbbfa89a6d9af25d920c499e6f44e&#45;&gt;dir_06113b60808b1bbb52a01dfd2c3a8657 -->
<g id="edge6" class="edge"><title>dir_eecdbbfa89a6d9af25d920c499e6f44e&#45;&gt;dir_06113b60808b1bbb52a01dfd2c3a8657</title>
<path fill="none" stroke="black" d="M57.8315,-215.697C65.0247,-207.305 73.7967,-197.07 81.6903,-187.861"/>
<polygon fill="black" stroke="black" points="84.4886,-189.975 88.3391,-180.104 79.1738,-185.419 84.4886,-189.975"/>
<g id="a_edge6&#45;headlabel"><a xlink:href="dir_000052_000033.html" target="_top" xlink:title="1">
<text text-anchor="middle" x="84.305" y="-192.052" font-family="Helvetica,sans-Serif" font-size="10.00">1</text>
</a>
</g>
</g>
<!-- dir_d0f3276f03e9a9cb8f8ba3f2a5ea1262 -->
<g id="node5" class="node"><title>dir_d0f3276f03e9a9cb8f8ba3f2a5ea1262</title>
<g id="a_node5"><a xlink:href="dir_d0f3276f03e9a9cb8f8ba3f2a5ea1262.html" target="_top" xlink:title="Component">
<polygon fill="none" stroke="black" points="139.5,-108 66.5,-108 66.5,-72 139.5,-72 139.5,-108"/>
<text text-anchor="middle" x="103" y="-87.5" font-family="Helvetica,sans-Serif" font-size="10.00">Component</text>
</a>
</g>
</g>
<!-- dir_eecdbbfa89a6d9af25d920c499e6f44e&#45;&gt;dir_d0f3276f03e9a9cb8f8ba3f2a5ea1262 -->
<g id="edge7" class="edge"><title>dir_eecdbbfa89a6d9af25d920c499e6f44e&#45;&gt;dir_d0f3276f03e9a9cb8f8ba3f2a5ea1262</title>
<path fill="none" stroke="black" d="M34.4795,-215.959C26.4306,-197.292 17.2053,-166.955 29,-144 35.4506,-131.445 46.4084,-121.2 57.9429,-113.18"/>
<polygon fill="black" stroke="black" points="59.8815,-116.094 66.3876,-107.732 56.087,-110.212 59.8815,-116.094"/>
<g id="a_edge7&#45;headlabel"><a xlink:href="dir_000052_000030.html" target="_top" xlink:title="2">
<text text-anchor="middle" x="58.4" y="-117.929" font-family="Helvetica,sans-Serif" font-size="10.00">2</text>
</a>
</g>
</g>
<!-- dir_7205f054df4e14abb60715afe3e7e90c&#45;&gt;dir_a2f0e5642e47e7ed59fe0f0829eafb5f -->
<g id="edge1" class="edge"><title>dir_7205f054df4e14abb60715afe3e7e90c&#45;&gt;dir_a2f0e5642e47e7ed59fe0f0829eafb5f</title>
<path fill="none" stroke="black" d="M154.467,-215.667C160.375,-205.689 166.963,-192.652 170,-180 181.434,-132.367 177.067,-111.43 148,-72 137.139,-57.2673 120.889,-45.2945 106.027,-36.4809"/>
<polygon fill="black" stroke="black" points="107.445,-33.2624 97.0141,-31.405 104.01,-39.3617 107.445,-33.2624"/>
<g id="a_edge1&#45;headlabel"><a xlink:href="dir_000031_000020.html" target="_top" xlink:title="3">
<text text-anchor="middle" x="111.97" y="-30.0523" font-family="Helvetica,sans-Serif" font-size="10.00">3</text>
</a>
</g>
</g>
<!-- dir_7205f054df4e14abb60715afe3e7e90c&#45;&gt;dir_06113b60808b1bbb52a01dfd2c3a8657 -->
<g id="edge2" class="edge"><title>dir_7205f054df4e14abb60715afe3e7e90c&#45;&gt;dir_06113b60808b1bbb52a01dfd2c3a8657</title>
<path fill="none" stroke="black" d="M127.197,-215.697C121.821,-207.728 116.105,-198.1 111.449,-189.264"/>
<polygon fill="black" stroke="black" points="114.475,-187.49 106.879,-180.104 108.211,-190.615 114.475,-187.49"/>
<g id="a_edge2&#45;headlabel"><a xlink:href="dir_000031_000033.html" target="_top" xlink:title="1">
<text text-anchor="middle" x="118.62" y="-186.939" font-family="Helvetica,sans-Serif" font-size="10.00">1</text>
</a>
</g>
</g>
<!-- dir_7205f054df4e14abb60715afe3e7e90c&#45;&gt;dir_d0f3276f03e9a9cb8f8ba3f2a5ea1262 -->
<g id="edge3" class="edge"><title>dir_7205f054df4e14abb60715afe3e7e90c&#45;&gt;dir_d0f3276f03e9a9cb8f8ba3f2a5ea1262</title>
<path fill="none" stroke="black" d="M139.847,-215.734C140.511,-197.399 143.143,-167.835 135,-144 131.595,-134.032 125.469,-124.485 119.372,-116.308"/>
<polygon fill="black" stroke="black" points="122.053,-114.055 113.143,-108.323 116.533,-118.36 122.053,-114.055"/>
<g id="a_edge3&#45;headlabel"><a xlink:href="dir_000031_000030.html" target="_top" xlink:title="1">
<text text-anchor="middle" x="126.503" y="-112.643" font-family="Helvetica,sans-Serif" font-size="10.00">1</text>
</a>
</g>
</g>
<!-- dir_06113b60808b1bbb52a01dfd2c3a8657&#45;&gt;dir_a2f0e5642e47e7ed59fe0f0829eafb5f -->
<g id="edge8" class="edge"><title>dir_06113b60808b1bbb52a01dfd2c3a8657&#45;&gt;dir_a2f0e5642e47e7ed59fe0f0829eafb5f</title>
<path fill="none" stroke="black" d="M82.1772,-143.615C72.542,-134.198 62.1149,-121.697 57,-108 49.5215,-87.9743 53.7586,-63.9161 59.32,-45.8646"/>
<polygon fill="black" stroke="black" points="62.6793,-46.8567 62.5741,-36.2624 56.0496,-44.61 62.6793,-46.8567"/>
<g id="a_edge8&#45;headlabel"><a xlink:href="dir_000033_000020.html" target="_top" xlink:title="15">
<text text-anchor="middle" x="64.2147" y="-48.6724" font-family="Helvetica,sans-Serif" font-size="10.00">15</text>
</a>
</g>
</g>
<!-- dir_06113b60808b1bbb52a01dfd2c3a8657&#45;&gt;dir_7205f054df4e14abb60715afe3e7e90c -->
<g id="edge9" class="edge"><title>dir_06113b60808b1bbb52a01dfd2c3a8657&#45;&gt;dir_7205f054df4e14abb60715afe3e7e90c</title>
<path fill="none" stroke="black" d="M118.669,-180.104C124.038,-188.045 129.761,-197.666 134.435,-206.515"/>
<polygon fill="black" stroke="black" points="131.424,-208.319 139.028,-215.697 137.684,-205.187 131.424,-208.319"/>
<g id="a_edge9&#45;headlabel"><a xlink:href="dir_000033_000031.html" target="_top" xlink:title="3">
<text text-anchor="middle" x="127.276" y="-203.875" font-family="Helvetica,sans-Serif" font-size="10.00">3</text>
</a>
</g>
</g>
<!-- dir_06113b60808b1bbb52a01dfd2c3a8657&#45;&gt;dir_d0f3276f03e9a9cb8f8ba3f2a5ea1262 -->
<g id="edge10" class="edge"><title>dir_06113b60808b1bbb52a01dfd2c3a8657&#45;&gt;dir_d0f3276f03e9a9cb8f8ba3f2a5ea1262</title>
<path fill="none" stroke="black" d="M97.0843,-143.697C96.2886,-135.983 96.0621,-126.712 96.4047,-118.112"/>
<polygon fill="black" stroke="black" points="99.8984,-118.324 97.105,-108.104 92.9154,-117.836 99.8984,-118.324"/>
<g id="a_edge10&#45;headlabel"><a xlink:href="dir_000033_000030.html" target="_top" xlink:title="2">
<text text-anchor="middle" x="102.48" y="-119.608" font-family="Helvetica,sans-Serif" font-size="10.00">2</text>
</a>
</g>
</g>
<!-- dir_d0f3276f03e9a9cb8f8ba3f2a5ea1262&#45;&gt;dir_eecdbbfa89a6d9af25d920c499e6f44e -->
<g id="edge13" class="edge"><title>dir_d0f3276f03e9a9cb8f8ba3f2a5ea1262&#45;&gt;dir_eecdbbfa89a6d9af25d920c499e6f44e</title>
<path fill="none" stroke="black" d="M86.3815,-108.305C77.8799,-118.071 68.0708,-130.914 62,-144 52.8844,-163.649 48.0831,-187.777 45.5895,-205.951"/>
<polygon fill="black" stroke="black" points="42.1146,-205.534 44.3729,-215.885 49.0627,-206.385 42.1146,-205.534"/>
<g id="a_edge13&#45;headlabel"><a xlink:href="dir_000030_000052.html" target="_top" xlink:title="1">
<text text-anchor="middle" x="39.7333" y="-199.121" font-family="Helvetica,sans-Serif" font-size="10.00">1</text>
</a>
</g>
</g>
<!-- dir_d0f3276f03e9a9cb8f8ba3f2a5ea1262&#45;&gt;dir_a2f0e5642e47e7ed59fe0f0829eafb5f -->
<g id="edge11" class="edge"><title>dir_d0f3276f03e9a9cb8f8ba3f2a5ea1262&#45;&gt;dir_a2f0e5642e47e7ed59fe0f0829eafb5f</title>
<path fill="none" stroke="black" d="M94.8427,-71.6966C91.0862,-63.7284 86.5469,-54.0995 82.3817,-45.2641"/>
<polygon fill="black" stroke="black" points="85.4936,-43.6571 78.0635,-36.1043 79.1619,-46.6421 85.4936,-43.6571"/>
<g id="a_edge11&#45;headlabel"><a xlink:href="dir_000030_000020.html" target="_top" xlink:title="12">
<text text-anchor="middle" x="89.5945" y="-43.1978" font-family="Helvetica,sans-Serif" font-size="10.00">12</text>
</a>
</g>
</g>
<!-- dir_d0f3276f03e9a9cb8f8ba3f2a5ea1262&#45;&gt;dir_7205f054df4e14abb60715afe3e7e90c -->
<g id="edge12" class="edge"><title>dir_d0f3276f03e9a9cb8f8ba3f2a5ea1262&#45;&gt;dir_7205f054df4e14abb60715afe3e7e90c</title>
<path fill="none" stroke="black" d="M129.195,-108.323C138.885,-117.903 148.412,-130.57 153,-144 159.807,-163.924 159.085,-187.852 155.562,-205.878"/>
<polygon fill="black" stroke="black" points="152.127,-205.193 153.201,-215.734 158.935,-206.825 152.127,-205.193"/>
<g id="a_edge12&#45;headlabel"><a xlink:href="dir_000030_000031.html" target="_top" xlink:title="1">
<text text-anchor="middle" x="150.204" y="-198.536" font-family="Helvetica,sans-Serif" font-size="10.00">1</text>
</a>
</g>
</g>
<!-- dir_d0f3276f03e9a9cb8f8ba3f2a5ea1262&#45;&gt;dir_06113b60808b1bbb52a01dfd2c3a8657 -->
<g id="edge14" class="edge"><title>dir_d0f3276f03e9a9cb8f8ba3f2a5ea1262&#45;&gt;dir_06113b60808b1bbb52a01dfd2c3a8657</title>
<path fill="none" stroke="black" d="M108.895,-108.104C109.701,-115.791 109.937,-125.054 109.604,-133.665"/>
<polygon fill="black" stroke="black" points="106.109,-133.48 108.916,-143.697 113.092,-133.96 106.109,-133.48"/>
<g id="a_edge14&#45;headlabel"><a xlink:href="dir_000030_000033.html" target="_top" xlink:title="2">
<text text-anchor="middle" x="103.522" y="-127.2" font-family="Helvetica,sans-Serif" font-size="10.00">2</text>
</a>
</g>
</g>
</g>
</svg>
