<?xml version="1.0" encoding="UTF-8" standalone="no"?>
<!DOCTYPE svg PUBLIC "-//W3C//DTD SVG 1.1//EN"
 "http://www.w3.org/Graphics/SVG/1.1/DTD/svg11.dtd">
<!-- Generated by graphviz version 2.38.0 (20140413.2041)
 -->
<!-- Title: /home/travis/build/STORM&#45;IRIT/Radium&#45;Engine/src/Engine/Renderer/RenderObject Pages: 1 -->
<svg width="458pt" height="483pt"
 viewBox="0.00 0.00 458.22 483.00" xmlns="http://www.w3.org/2000/svg" xmlns:xlink="http://www.w3.org/1999/xlink">
<g id="graph0" class="graph" transform="scale(1 1) rotate(0) translate(4 479)">
<title>/home/travis/build/STORM&#45;IRIT/Radium&#45;Engine/src/Engine/Renderer/RenderObject</title>
<polygon fill="white" stroke="none" points="-4,4 -4,-479 454.215,-479 454.215,4 -4,4"/>
<g id="clust1" class="cluster"><title>clusterdir_54018506bb725509c19b38b6d9bcf0f6</title>
<g id="a_clust1"><a xlink:href="dir_54018506bb725509c19b38b6d9bcf0f6.html" target="_top" xlink:title="Renderer">
<polygon fill="#ddddee" stroke="black" points="31,-272 31,-359 225,-359 225,-272 31,-272"/>
<text text-anchor="middle" x="128" y="-347" font-family="Helvetica,sans-Serif" font-size="10.00">Renderer</text>
</a>
</g>
</g>
<g id="clust2" class="cluster"><title>clusterdir_652267079d823ee01f6c6cf98db9085b</title>
<g id="a_clust2"><a xlink:href="dir_652267079d823ee01f6c6cf98db9085b.html" target="_top">
<polygon fill="#eeeeff" stroke="black" points="39,-280 39,-332 217,-332 217,-280 39,-280"/>
</a>
</g>
</g>
<!-- dir_652267079d823ee01f6c6cf98db9085b -->
<g id="node1" class="node"><title>dir_652267079d823ee01f6c6cf98db9085b</title>
<text text-anchor="middle" x="169" y="-303.5" font-family="Helvetica,sans-Serif" font-size="10.00">RenderObject</text>
</g>
<!-- dir_7205f054df4e14abb60715afe3e7e90c -->
<g id="node4" class="node"><title>dir_7205f054df4e14abb60715afe3e7e90c</title>
<g id="a_node4"><a xlink:href="dir_7205f054df4e14abb60715afe3e7e90c.html" target="_top" xlink:title="Entity">
<polygon fill="none" stroke="black" points="266,-475 212,-475 212,-439 266,-439 266,-475"/>
<text text-anchor="middle" x="239" y="-454.5" font-family="Helvetica,sans-Serif" font-size="10.00">Entity</text>
</a>
</g>
</g>
<!-- dir_652267079d823ee01f6c6cf98db9085b&#45;&gt;dir_7205f054df4e14abb60715afe3e7e90c -->
<g id="edge1" class="edge"><title>dir_652267079d823ee01f6c6cf98db9085b&#45;&gt;dir_7205f054df4e14abb60715afe3e7e90c</title>
<path fill="none" stroke="black" d="M172.174,-324.016C176.298,-343.782 184.6,-377 198,-403 203.036,-412.772 209.941,-422.551 216.649,-431.001"/>
<polygon fill="black" stroke="black" points="214.151,-433.473 223.215,-438.959 219.55,-429.018 214.151,-433.473"/>
<g id="a_edge1&#45;headlabel"><a xlink:href="dir_000048_000031.html" target="_top" xlink:title="2">
<text text-anchor="middle" x="209.673" y="-430.007" font-family="Helvetica,sans-Serif" font-size="10.00">2</text>
</a>
</g>
</g>
<!-- dir_f4b8f2947224e6f7be5f71dabf25859e -->
<g id="node5" class="node"><title>dir_f4b8f2947224e6f7be5f71dabf25859e</title>
<g id="a_node5"><a xlink:href="dir_f4b8f2947224e6f7be5f71dabf25859e.html" target="_top" xlink:title="Displayable">
<polygon fill="none" stroke="black" points="183.5,-108 112.5,-108 112.5,-72 183.5,-72 183.5,-108"/>
<text text-anchor="middle" x="148" y="-87.5" font-family="Helvetica,sans-Serif" font-size="10.00">Displayable</text>
</a>
</g>
</g>
<!-- dir_652267079d823ee01f6c6cf98db9085b&#45;&gt;dir_f4b8f2947224e6f7be5f71dabf25859e -->
<g id="edge2" class="edge"><title>dir_652267079d823ee01f6c6cf98db9085b&#45;&gt;dir_f4b8f2947224e6f7be5f71dabf25859e</title>
<path fill="none" stroke="black" d="M154.654,-287.768C136.61,-264.86 106.588,-222.323 95,-180 90.7746,-164.568 88.8771,-158.782 95,-144 99.5448,-133.028 107.585,-123.143 116.051,-114.964"/>
<polygon fill="black" stroke="black" points="118.437,-117.526 123.523,-108.232 113.751,-112.326 118.437,-117.526"/>
<g id="a_edge2&#45;headlabel"><a xlink:href="dir_000048_000042.html" target="_top" xlink:title="1">
<text text-anchor="middle" x="117.667" y="-119.542" font-family="Helvetica,sans-Serif" font-size="10.00">1</text>
</a>
</g>
</g>
<!-- dir_35f904a890c1431d13964486334c23a9 -->
<g id="node7" class="node"><title>dir_35f904a890c1431d13964486334c23a9</title>
<g id="a_node7"><a xlink:href="dir_35f904a890c1431d13964486334c23a9.html" target="_top" xlink:title="Camera">
<polygon fill="none" stroke="black" points="400.5,-324 345.5,-324 345.5,-288 400.5,-288 400.5,-324"/>
<text text-anchor="middle" x="373" y="-303.5" font-family="Helvetica,sans-Serif" font-size="10.00">Camera</text>
</a>
</g>
</g>
<!-- dir_652267079d823ee01f6c6cf98db9085b&#45;&gt;dir_35f904a890c1431d13964486334c23a9 -->
<g id="edge3" class="edge"><title>dir_652267079d823ee01f6c6cf98db9085b&#45;&gt;dir_35f904a890c1431d13964486334c23a9</title>
<path fill="none" stroke="black" d="M209.242,-306C251.289,-306 293.335,-306 335.381,-306"/>
<polygon fill="black" stroke="black" points="335.494,-309.5 345.494,-306 335.494,-302.5 335.494,-309.5"/>
<g id="a_edge3&#45;headlabel"><a xlink:href="dir_000048_000041.html" target="_top" xlink:title="1">
<text text-anchor="middle" x="331.899" y="-309.839" font-family="Helvetica,sans-Serif" font-size="10.00">1</text>
</a>
</g>
</g>
<!-- dir_06113b60808b1bbb52a01dfd2c3a8657 -->
<g id="node9" class="node"><title>dir_06113b60808b1bbb52a01dfd2c3a8657</title>
<g id="a_node9"><a xlink:href="dir_06113b60808b1bbb52a01dfd2c3a8657.html" target="_top" xlink:title="Managers">
<polygon fill="white" stroke="red" points="271,-403 207,-403 207,-367 271,-367 271,-403"/>
<text text-anchor="middle" x="239" y="-382.5" font-family="Helvetica,sans-Serif" font-size="10.00">Managers</text>
</a>
</g>
</g>
<!-- dir_652267079d823ee01f6c6cf98db9085b&#45;&gt;dir_06113b60808b1bbb52a01dfd2c3a8657 -->
<g id="edge4" class="edge"><title>dir_652267079d823ee01f6c6cf98db9085b&#45;&gt;dir_06113b60808b1bbb52a01dfd2c3a8657</title>
<path fill="none" stroke="black" d="M184.492,-324.041C193.909,-334.399 206.093,-347.803 216.554,-359.309"/>
<polygon fill="black" stroke="black" points="214.148,-361.866 223.465,-366.911 219.328,-357.157 214.148,-361.866"/>
<g id="a_edge4&#45;headlabel"><a xlink:href="dir_000048_000033.html" target="_top" xlink:title="2">
<text text-anchor="middle" x="209.629" y="-358.616" font-family="Helvetica,sans-Serif" font-size="10.00">2</text>
</a>
</g>
</g>
<!-- dir_d0f3276f03e9a9cb8f8ba3f2a5ea1262 -->
<g id="node10" class="node"><title>dir_d0f3276f03e9a9cb8f8ba3f2a5ea1262</title>
<g id="a_node10"><a xlink:href="dir_d0f3276f03e9a9cb8f8ba3f2a5ea1262.html" target="_top" xlink:title="Component">
<polygon fill="none" stroke="black" points="291.5,-252 218.5,-252 218.5,-216 291.5,-216 291.5,-252"/>
<text text-anchor="middle" x="255" y="-231.5" font-family="Helvetica,sans-Serif" font-size="10.00">Component</text>
</a>
</g>
</g>
<!-- dir_652267079d823ee01f6c6cf98db9085b&#45;&gt;dir_d0f3276f03e9a9cb8f8ba3f2a5ea1262 -->
<g id="edge5" class="edge"><title>dir_652267079d823ee01f6c6cf98db9085b&#45;&gt;dir_d0f3276f03e9a9cb8f8ba3f2a5ea1262</title>
<path fill="none" stroke="black" d="M184.343,-287.697C194.36,-278.796 207.68,-267.823 220.102,-258.199"/>
<polygon fill="black" stroke="black" points="222.263,-260.952 228.091,-252.104 218.018,-255.387 222.263,-260.952"/>
<g id="a_edge5&#45;headlabel"><a xlink:href="dir_000048_000030.html" target="_top" xlink:title="2">
<text text-anchor="middle" x="221.127" y="-262.89" font-family="Helvetica,sans-Serif" font-size="10.00">2</text>
</a>
</g>
</g>
<!-- dir_72da96c41019f509fc15d3101528a281 -->
<g id="node2" class="node"><title>dir_72da96c41019f509fc15d3101528a281</title>
<g id="a_node2"><a xlink:href="dir_72da96c41019f509fc15d3101528a281.html" target="_top" xlink:title="Primitives">
<polygon fill="white" stroke="black" points="110.5,-324 47.5,-324 47.5,-288 110.5,-288 110.5,-324"/>
<text text-anchor="middle" x="79" y="-303.5" font-family="Helvetica,sans-Serif" font-size="10.00">Primitives</text>
</a>
</g>
</g>
<!-- dir_a2f0e5642e47e7ed59fe0f0829eafb5f -->
<g id="node3" class="node"><title>dir_a2f0e5642e47e7ed59fe0f0829eafb5f</title>
<g id="a_node3"><a xlink:href="dir_a2f0e5642e47e7ed59fe0f0829eafb5f.html" target="_top" xlink:title="Core">
<polygon fill="white" stroke="red" points="277,-36 223,-36 223,-0 277,-0 277,-36"/>
<text text-anchor="middle" x="250" y="-15.5" font-family="Helvetica,sans-Serif" font-size="10.00">Core</text>
</a>
</g>
</g>
<!-- dir_72da96c41019f509fc15d3101528a281&#45;&gt;dir_a2f0e5642e47e7ed59fe0f0829eafb5f -->
<g id="edge10" class="edge"><title>dir_72da96c41019f509fc15d3101528a281&#45;&gt;dir_a2f0e5642e47e7ed59fe0f0829eafb5f</title>
<path fill="none" stroke="black" d="M74.1678,-287.859C63.4878,-246.01 42.6154,-137.286 93,-72 121.235,-35.4145 175.856,-23.8748 212.63,-20.3541"/>
<polygon fill="black" stroke="black" points="213.267,-23.8145 222.956,-19.5296 212.709,-16.8368 213.267,-23.8145"/>
<g id="a_edge10&#45;headlabel"><a xlink:href="dir_000049_000020.html" target="_top" xlink:title="7">
<text text-anchor="middle" x="209.909" y="-24.4308" font-family="Helvetica,sans-Serif" font-size="10.00">7</text>
</a>
</g>
</g>
<!-- dir_f6a0a87962fcbf90fc709c1bf5ba5a00 -->
<g id="node6" class="node"><title>dir_f6a0a87962fcbf90fc709c1bf5ba5a00</title>
<g id="a_node6"><a xlink:href="dir_f6a0a87962fcbf90fc709c1bf5ba5a00.html" target="_top" xlink:title="Mesh">
<polygon fill="none" stroke="black" points="270,-180 216,-180 216,-144 270,-144 270,-180"/>
<text text-anchor="middle" x="243" y="-159.5" font-family="Helvetica,sans-Serif" font-size="10.00">Mesh</text>
</a>
</g>
</g>
<!-- dir_72da96c41019f509fc15d3101528a281&#45;&gt;dir_f6a0a87962fcbf90fc709c1bf5ba5a00 -->
<g id="edge11" class="edge"><title>dir_72da96c41019f509fc15d3101528a281&#45;&gt;dir_f6a0a87962fcbf90fc709c1bf5ba5a00</title>
<path fill="none" stroke="black" d="M98.7822,-287.871C127.841,-262.711 182.189,-215.654 215.234,-187.042"/>
<polygon fill="black" stroke="black" points="217.879,-189.381 223.148,-180.189 213.297,-184.089 217.879,-189.381"/>
<g id="a_edge11&#45;headlabel"><a xlink:href="dir_000049_000045.html" target="_top" xlink:title="1">
<text text-anchor="middle" x="217.02" y="-191.38" font-family="Helvetica,sans-Serif" font-size="10.00">1</text>
</a>
</g>
</g>
<!-- dir_6bc97c5ccce2964f7b25f8377ac95818 -->
<g id="node8" class="node"><title>dir_6bc97c5ccce2964f7b25f8377ac95818</title>
<g id="a_node8"><a xlink:href="dir_6bc97c5ccce2964f7b25f8377ac95818.html" target="_top" xlink:title="RenderTechnique">
<polygon fill="none" stroke="black" points="298.5,-108 201.5,-108 201.5,-72 298.5,-72 298.5,-108"/>
<text text-anchor="middle" x="250" y="-87.5" font-family="Helvetica,sans-Serif" font-size="10.00">RenderTechnique</text>
</a>
</g>
</g>
<!-- dir_72da96c41019f509fc15d3101528a281&#45;&gt;dir_6bc97c5ccce2964f7b25f8377ac95818 -->
<g id="edge12" class="edge"><title>dir_72da96c41019f509fc15d3101528a281&#45;&gt;dir_6bc97c5ccce2964f7b25f8377ac95818</title>
<path fill="none" stroke="black" d="M89.3857,-287.763C100.655,-269.452 119.521,-239.908 138,-216 153.376,-196.106 198.92,-146.228 226.97,-115.833"/>
<polygon fill="black" stroke="black" points="229.82,-117.906 234.037,-108.186 224.679,-113.155 229.82,-117.906"/>
<g id="a_edge12&#45;headlabel"><a xlink:href="dir_000049_000050.html" target="_top" xlink:title="2">
<text text-anchor="middle" x="229.465" y="-119.973" font-family="Helvetica,sans-Serif" font-size="10.00">2</text>
</a>
</g>
</g>
<!-- dir_909774b1a000bf73b2cf501716b773f3 -->
<g id="node11" class="node"><title>dir_909774b1a000bf73b2cf501716b773f3</title>
<g id="a_node11"><a xlink:href="dir_909774b1a000bf73b2cf501716b773f3.html" target="_top" xlink:title="Material">
<polygon fill="none" stroke="black" points="159.5,-180 104.5,-180 104.5,-144 159.5,-144 159.5,-180"/>
<text text-anchor="middle" x="132" y="-159.5" font-family="Helvetica,sans-Serif" font-size="10.00">Material</text>
</a>
</g>
</g>
<!-- dir_72da96c41019f509fc15d3101528a281&#45;&gt;dir_909774b1a000bf73b2cf501716b773f3 -->
<g id="edge13" class="edge"><title>dir_72da96c41019f509fc15d3101528a281&#45;&gt;dir_909774b1a000bf73b2cf501716b773f3</title>
<path fill="none" stroke="black" d="M81.4297,-287.783C84.3826,-269.489 90.2227,-239.959 100,-216 103.758,-206.792 108.98,-197.316 114.117,-188.969"/>
<polygon fill="black" stroke="black" points="117.144,-190.731 119.584,-180.42 111.247,-186.959 117.144,-190.731"/>
<g id="a_edge13&#45;headlabel"><a xlink:href="dir_000049_000044.html" target="_top" xlink:title="1">
<text text-anchor="middle" x="117.599" y="-192.789" font-family="Helvetica,sans-Serif" font-size="10.00">1</text>
</a>
</g>
</g>
<!-- dir_7205f054df4e14abb60715afe3e7e90c&#45;&gt;dir_a2f0e5642e47e7ed59fe0f0829eafb5f -->
<g id="edge6" class="edge"><title>dir_7205f054df4e14abb60715afe3e7e90c&#45;&gt;dir_a2f0e5642e47e7ed59fe0f0829eafb5f</title>
<path fill="none" stroke="black" d="M211.584,-452.092C148.806,-441.439 0,-405.77 0,-307 0,-307 0,-307 0,-161 0,-64.3818 142.925,-32.6899 212.641,-22.9783"/>
<polygon fill="black" stroke="black" points="213.309,-26.4207 222.77,-21.6506 212.4,-19.48 213.309,-26.4207"/>
<g id="a_edge6&#45;headlabel"><a xlink:href="dir_000031_000020.html" target="_top" xlink:title="3">
<text text-anchor="middle" x="210.114" y="-27.203" font-family="Helvetica,sans-Serif" font-size="10.00">3</text>
</a>
</g>
</g>
<!-- dir_7205f054df4e14abb60715afe3e7e90c&#45;&gt;dir_06113b60808b1bbb52a01dfd2c3a8657 -->
<g id="edge7" class="edge"><title>dir_7205f054df4e14abb60715afe3e7e90c&#45;&gt;dir_06113b60808b1bbb52a01dfd2c3a8657</title>
<path fill="none" stroke="black" d="M233.084,-438.697C232.289,-430.983 232.062,-421.712 232.405,-413.112"/>
<polygon fill="black" stroke="black" points="235.898,-413.324 233.105,-403.104 228.915,-412.836 235.898,-413.324"/>
<g id="a_edge7&#45;headlabel"><a xlink:href="dir_000031_000033.html" target="_top" xlink:title="1">
<text text-anchor="middle" x="238.48" y="-414.608" font-family="Helvetica,sans-Serif" font-size="10.00">1</text>
</a>
</g>
</g>
<!-- dir_7205f054df4e14abb60715afe3e7e90c&#45;&gt;dir_d0f3276f03e9a9cb8f8ba3f2a5ea1262 -->
<g id="edge8" class="edge"><title>dir_7205f054df4e14abb60715afe3e7e90c&#45;&gt;dir_d0f3276f03e9a9cb8f8ba3f2a5ea1262</title>
<path fill="none" stroke="black" d="M249.143,-438.677C256.885,-429.097 266.412,-416.43 271,-403 287.415,-354.952 270.438,-295.536 260.301,-261.781"/>
<polygon fill="black" stroke="black" points="263.644,-260.743 257.42,-252.17 256.939,-262.754 263.644,-260.743"/>
<g id="a_edge8&#45;headlabel"><a xlink:href="dir_000031_000030.html" target="_top" xlink:title="1">
<text text-anchor="middle" x="267.396" y="-260.871" font-family="Helvetica,sans-Serif" font-size="10.00">1</text>
</a>
</g>
</g>
<!-- dir_f4b8f2947224e6f7be5f71dabf25859e&#45;&gt;dir_a2f0e5642e47e7ed59fe0f0829eafb5f -->
<g id="edge9" class="edge"><title>dir_f4b8f2947224e6f7be5f71dabf25859e&#45;&gt;dir_a2f0e5642e47e7ed59fe0f0829eafb5f</title>
<path fill="none" stroke="black" d="M172.952,-71.8761C186.042,-62.8931 202.26,-51.7625 216.436,-42.0341"/>
<polygon fill="black" stroke="black" points="218.687,-44.734 224.952,-36.1898 214.726,-38.9624 218.687,-44.734"/>
<g id="a_edge9&#45;headlabel"><a xlink:href="dir_000042_000020.html" target="_top" xlink:title="3">
<text text-anchor="middle" x="217.33" y="-46.609" font-family="Helvetica,sans-Serif" font-size="10.00">3</text>
</a>
</g>
</g>
<!-- dir_f6a0a87962fcbf90fc709c1bf5ba5a00&#45;&gt;dir_a2f0e5642e47e7ed59fe0f0829eafb5f -->
<g id="edge14" class="edge"><title>dir_f6a0a87962fcbf90fc709c1bf5ba5a00&#45;&gt;dir_a2f0e5642e47e7ed59fe0f0829eafb5f</title>
<path fill="none" stroke="black" d="M270.096,-146.388C283.887,-137.337 299.326,-124.319 307,-108 313.809,-93.521 313.391,-86.6684 307,-72 302.067,-60.6765 293.389,-50.6824 284.271,-42.5119"/>
<polygon fill="black" stroke="black" points="286.499,-39.8124 276.58,-36.0884 282.011,-45.185 286.499,-39.8124"/>
<g id="a_edge14&#45;headlabel"><a xlink:href="dir_000045_000020.html" target="_top" xlink:title="4">
<text text-anchor="middle" x="291.078" y="-37.4374" font-family="Helvetica,sans-Serif" font-size="10.00">4</text>
</a>
</g>
</g>
<!-- dir_f6a0a87962fcbf90fc709c1bf5ba5a00&#45;&gt;dir_f4b8f2947224e6f7be5f71dabf25859e -->
<g id="edge15" class="edge"><title>dir_f6a0a87962fcbf90fc709c1bf5ba5a00&#45;&gt;dir_f4b8f2947224e6f7be5f71dabf25859e</title>
<path fill="none" stroke="black" d="M219.517,-143.697C207.437,-134.796 192.546,-123.823 179.484,-114.199"/>
<polygon fill="black" stroke="black" points="181.34,-111.219 171.213,-108.104 177.187,-116.854 181.34,-111.219"/>
<g id="a_edge15&#45;headlabel"><a xlink:href="dir_000045_000042.html" target="_top" xlink:title="1">
<text text-anchor="middle" x="185.918" y="-108.565" font-family="Helvetica,sans-Serif" font-size="10.00">1</text>
</a>
</g>
</g>
<!-- dir_35f904a890c1431d13964486334c23a9&#45;&gt;dir_652267079d823ee01f6c6cf98db9085b -->
<g id="edge16" class="edge"><title>dir_35f904a890c1431d13964486334c23a9&#45;&gt;dir_652267079d823ee01f6c6cf98db9085b</title>
<path fill="none" stroke="black" d="M345.494,-306C303.447,-306 261.401,-306 219.355,-306"/>
<polygon fill="black" stroke="black" points="219.242,-302.5 209.242,-306 219.242,-309.5 219.242,-302.5"/>
<g id="a_edge16&#45;headlabel"><a xlink:href="dir_000041_000048.html" target="_top" xlink:title="1">
<text text-anchor="middle" x="222.837" y="-297.161" font-family="Helvetica,sans-Serif" font-size="10.00">1</text>
</a>
</g>
</g>
<!-- dir_35f904a890c1431d13964486334c23a9&#45;&gt;dir_a2f0e5642e47e7ed59fe0f0829eafb5f -->
<g id="edge17" class="edge"><title>dir_35f904a890c1431d13964486334c23a9&#45;&gt;dir_a2f0e5642e47e7ed59fe0f0829eafb5f</title>
<path fill="none" stroke="black" d="M375.53,-287.72C380.619,-246.485 387.99,-140.656 342,-72 328.952,-52.5217 306.161,-39.3157 286.528,-30.9575"/>
<polygon fill="black" stroke="black" points="287.785,-27.691 277.2,-27.2376 285.192,-34.193 287.785,-27.691"/>
<g id="a_edge17&#45;headlabel"><a xlink:href="dir_000041_000020.html" target="_top" xlink:title="3">
<text text-anchor="middle" x="292.176" y="-23.8852" font-family="Helvetica,sans-Serif" font-size="10.00">3</text>
</a>
</g>
</g>
<!-- dir_35f904a890c1431d13964486334c23a9&#45;&gt;dir_7205f054df4e14abb60715afe3e7e90c -->
<g id="edge18" class="edge"><title>dir_35f904a890c1431d13964486334c23a9&#45;&gt;dir_7205f054df4e14abb60715afe3e7e90c</title>
<path fill="none" stroke="black" d="M369.047,-324.058C363.52,-344.777 351.752,-379.825 331,-403 315.853,-419.917 293.98,-432.825 275.362,-441.666"/>
<polygon fill="black" stroke="black" points="273.913,-438.479 266.252,-445.798 276.805,-444.854 273.913,-438.479"/>
<g id="a_edge18&#45;headlabel"><a xlink:href="dir_000041_000031.html" target="_top" xlink:title="1">
<text text-anchor="middle" x="276.014" y="-431.909" font-family="Helvetica,sans-Serif" font-size="10.00">1</text>
</a>
</g>
</g>
<!-- dir_35f904a890c1431d13964486334c23a9&#45;&gt;dir_f6a0a87962fcbf90fc709c1bf5ba5a00 -->
<g id="edge19" class="edge"><title>dir_35f904a890c1431d13964486334c23a9&#45;&gt;dir_f6a0a87962fcbf90fc709c1bf5ba5a00</title>
<path fill="none" stroke="black" d="M359.929,-287.695C345.803,-269.328 322.307,-239.737 300,-216 290.654,-206.055 279.81,-195.707 270.105,-186.823"/>
<polygon fill="black" stroke="black" points="272.38,-184.161 262.616,-180.047 267.683,-189.352 272.38,-184.161"/>
<g id="a_edge19&#45;headlabel"><a xlink:href="dir_000041_000045.html" target="_top" xlink:title="1">
<text text-anchor="middle" x="276.95" y="-181.967" font-family="Helvetica,sans-Serif" font-size="10.00">1</text>
</a>
</g>
</g>
<!-- dir_35f904a890c1431d13964486334c23a9&#45;&gt;dir_6bc97c5ccce2964f7b25f8377ac95818 -->
<g id="edge20" class="edge"><title>dir_35f904a890c1431d13964486334c23a9&#45;&gt;dir_6bc97c5ccce2964f7b25f8377ac95818</title>
<path fill="none" stroke="black" d="M366.361,-287.79C354.307,-257.486 327.082,-193.159 295,-144 288.701,-134.348 280.84,-124.523 273.46,-115.996"/>
<polygon fill="black" stroke="black" points="275.854,-113.421 266.597,-108.268 270.62,-118.069 275.854,-113.421"/>
<g id="a_edge20&#45;headlabel"><a xlink:href="dir_000041_000050.html" target="_top" xlink:title="1">
<text text-anchor="middle" x="280.364" y="-111.724" font-family="Helvetica,sans-Serif" font-size="10.00">1</text>
</a>
</g>
</g>
<!-- dir_35f904a890c1431d13964486334c23a9&#45;&gt;dir_d0f3276f03e9a9cb8f8ba3f2a5ea1262 -->
<g id="edge21" class="edge"><title>dir_35f904a890c1431d13964486334c23a9&#45;&gt;dir_d0f3276f03e9a9cb8f8ba3f2a5ea1262</title>
<path fill="none" stroke="black" d="M353.131,-287.979C346.337,-282.547 338.545,-276.725 331,-272 321.573,-266.096 311.066,-260.445 300.944,-255.414"/>
<polygon fill="black" stroke="black" points="302.325,-252.193 291.8,-250.979 299.27,-258.492 302.325,-252.193"/>
<g id="a_edge21&#45;headlabel"><a xlink:href="dir_000041_000030.html" target="_top" xlink:title="1">
<text text-anchor="middle" x="306.798" y="-248.707" font-family="Helvetica,sans-Serif" font-size="10.00">1</text>
</a>
</g>
</g>
<!-- dir_6bc97c5ccce2964f7b25f8377ac95818&#45;&gt;dir_a2f0e5642e47e7ed59fe0f0829eafb5f -->
<g id="edge22" class="edge"><title>dir_6bc97c5ccce2964f7b25f8377ac95818&#45;&gt;dir_a2f0e5642e47e7ed59fe0f0829eafb5f</title>
<path fill="none" stroke="black" d="M250,-71.6966C250,-63.9827 250,-54.7125 250,-46.1124"/>
<polygon fill="black" stroke="black" points="253.5,-46.1043 250,-36.1043 246.5,-46.1044 253.5,-46.1043"/>
<g id="a_edge22&#45;headlabel"><a xlink:href="dir_000050_000020.html" target="_top" xlink:title="14">
<text text-anchor="middle" x="256.339" y="-47.199" font-family="Helvetica,sans-Serif" font-size="10.00">14</text>
</a>
</g>
</g>
<!-- dir_6bc97c5ccce2964f7b25f8377ac95818&#45;&gt;dir_909774b1a000bf73b2cf501716b773f3 -->
<g id="edge23" class="edge"><title>dir_6bc97c5ccce2964f7b25f8377ac95818&#45;&gt;dir_909774b1a000bf73b2cf501716b773f3</title>
<path fill="none" stroke="black" d="M227.097,-108.082C210.384,-118.655 187.557,-132.216 168.395,-142.962"/>
<polygon fill="black" stroke="black" points="166.656,-139.925 159.606,-147.834 170.05,-146.047 166.656,-139.925"/>
<g id="a_edge23&#45;headlabel"><a xlink:href="dir_000050_000044.html" target="_top" xlink:title="1">
<text text-anchor="middle" x="168.424" y="-133.199" font-family="Helvetica,sans-Serif" font-size="10.00">1</text>
</a>
</g>
</g>
<!-- dir_06113b60808b1bbb52a01dfd2c3a8657&#45;&gt;dir_72da96c41019f509fc15d3101528a281 -->
<g id="edge26" class="edge"><title>dir_06113b60808b1bbb52a01dfd2c3a8657&#45;&gt;dir_72da96c41019f509fc15d3101528a281</title>
<path fill="none" stroke="black" d="M206.994,-383.158C181.696,-381.171 146.373,-375.355 120,-359 109.528,-352.506 100.637,-342.333 93.8397,-332.702"/>
<polygon fill="black" stroke="black" points="96.6203,-330.56 88.2003,-324.13 90.7723,-334.407 96.6203,-330.56"/>
<g id="a_edge26&#45;headlabel"><a xlink:href="dir_000033_000049.html" target="_top" xlink:title="1">
<text text-anchor="middle" x="100.968" y="-329.503" font-family="Helvetica,sans-Serif" font-size="10.00">1</text>
</a>
</g>
</g>
<!-- dir_06113b60808b1bbb52a01dfd2c3a8657&#45;&gt;dir_a2f0e5642e47e7ed59fe0f0829eafb5f -->
<g id="edge24" class="edge"><title>dir_06113b60808b1bbb52a01dfd2c3a8657&#45;&gt;dir_a2f0e5642e47e7ed59fe0f0829eafb5f</title>
<path fill="none" stroke="black" d="M271.067,-383.208C314.425,-381.494 388.672,-376.078 409,-359 453.443,-321.662 450,-293.046 450,-235 450,-235 450,-235 450,-161 450,-82.0621 345.135,-42.9884 287.271,-27.4364"/>
<polygon fill="black" stroke="black" points="287.947,-23.9963 277.39,-24.886 286.198,-30.7741 287.947,-23.9963"/>
<g id="a_edge24&#45;headlabel"><a xlink:href="dir_000033_000020.html" target="_top" xlink:title="15">
<text text-anchor="middle" x="292.137" y="-19.6453" font-family="Helvetica,sans-Serif" font-size="10.00">15</text>
</a>
</g>
</g>
<!-- dir_06113b60808b1bbb52a01dfd2c3a8657&#45;&gt;dir_7205f054df4e14abb60715afe3e7e90c -->
<g id="edge25" class="edge"><title>dir_06113b60808b1bbb52a01dfd2c3a8657&#45;&gt;dir_7205f054df4e14abb60715afe3e7e90c</title>
<path fill="none" stroke="black" d="M244.895,-403.104C245.701,-410.791 245.937,-420.054 245.604,-428.665"/>
<polygon fill="black" stroke="black" points="242.109,-428.48 244.916,-438.697 249.092,-428.96 242.109,-428.48"/>
<g id="a_edge25&#45;headlabel"><a xlink:href="dir_000033_000031.html" target="_top" xlink:title="3">
<text text-anchor="middle" x="239.522" y="-422.2" font-family="Helvetica,sans-Serif" font-size="10.00">3</text>
</a>
</g>
</g>
<!-- dir_06113b60808b1bbb52a01dfd2c3a8657&#45;&gt;dir_35f904a890c1431d13964486334c23a9 -->
<g id="edge27" class="edge"><title>dir_06113b60808b1bbb52a01dfd2c3a8657&#45;&gt;dir_35f904a890c1431d13964486334c23a9</title>
<path fill="none" stroke="black" d="M268.739,-366.911C288.709,-355.436 315.155,-340.239 336.414,-328.023"/>
<polygon fill="black" stroke="black" points="338.247,-331.007 345.174,-322.99 334.76,-324.937 338.247,-331.007"/>
<g id="a_edge27&#45;headlabel"><a xlink:href="dir_000033_000041.html" target="_top" xlink:title="2">
<text text-anchor="middle" x="336.545" y="-332.759" font-family="Helvetica,sans-Serif" font-size="10.00">2</text>
</a>
</g>
</g>
<!-- dir_06113b60808b1bbb52a01dfd2c3a8657&#45;&gt;dir_d0f3276f03e9a9cb8f8ba3f2a5ea1262 -->
<g id="edge28" class="edge"><title>dir_06113b60808b1bbb52a01dfd2c3a8657&#45;&gt;dir_d0f3276f03e9a9cb8f8ba3f2a5ea1262</title>
<path fill="none" stroke="black" d="M236.341,-366.908C236.405,-341.334 241.32,-292.861 246.7,-262.334"/>
<polygon fill="black" stroke="black" points="250.169,-262.832 248.616,-252.352 243.294,-261.513 250.169,-262.832"/>
<g id="a_edge28&#45;headlabel"><a xlink:href="dir_000033_000030.html" target="_top" xlink:title="2">
<text text-anchor="middle" x="252.28" y="-264.397" font-family="Helvetica,sans-Serif" font-size="10.00">2</text>
</a>
</g>
</g>
<!-- dir_d0f3276f03e9a9cb8f8ba3f2a5ea1262&#45;&gt;dir_652267079d823ee01f6c6cf98db9085b -->
<g id="edge29" class="edge"><title>dir_d0f3276f03e9a9cb8f8ba3f2a5ea1262&#45;&gt;dir_652267079d823ee01f6c6cf98db9085b</title>
<path fill="none" stroke="black" d="M239.881,-252.104C229.914,-260.974 216.611,-271.941 204.177,-281.585"/>
<polygon fill="black" stroke="black" points="201.997,-278.846 196.174,-287.697 206.246,-284.409 201.997,-278.846"/>
<g id="a_edge29&#45;headlabel"><a xlink:href="dir_000030_000048.html" target="_top" xlink:title="6">
<text text-anchor="middle" x="203.131" y="-271.907" font-family="Helvetica,sans-Serif" font-size="10.00">6</text>
</a>
</g>
</g>
<!-- dir_d0f3276f03e9a9cb8f8ba3f2a5ea1262&#45;&gt;dir_72da96c41019f509fc15d3101528a281 -->
<g id="edge32" class="edge"><title>dir_d0f3276f03e9a9cb8f8ba3f2a5ea1262&#45;&gt;dir_72da96c41019f509fc15d3101528a281</title>
<path fill="none" stroke="black" d="M218.349,-247.646C213.543,-249.178 208.667,-250.669 204,-252 167.094,-262.523 154.46,-255.11 120,-272 114.639,-274.628 109.343,-278.064 104.429,-281.725"/>
<polygon fill="black" stroke="black" points="102.206,-279.021 96.5747,-287.995 106.574,-284.491 102.206,-279.021"/>
<g id="a_edge32&#45;headlabel"><a xlink:href="dir_000030_000049.html" target="_top" xlink:title="1">
<text text-anchor="middle" x="103.244" y="-272.059" font-family="Helvetica,sans-Serif" font-size="10.00">1</text>
</a>
</g>
</g>
<!-- dir_d0f3276f03e9a9cb8f8ba3f2a5ea1262&#45;&gt;dir_a2f0e5642e47e7ed59fe0f0829eafb5f -->
<g id="edge30" class="edge"><title>dir_d0f3276f03e9a9cb8f8ba3f2a5ea1262&#45;&gt;dir_a2f0e5642e47e7ed59fe0f0829eafb5f</title>
<path fill="none" stroke="black" d="M272.549,-215.72C300.668,-185.843 350.128,-122.851 324,-72 315.866,-56.1699 300.567,-44.0103 285.981,-35.3556"/>
<polygon fill="black" stroke="black" points="287.506,-32.1992 277.061,-30.4182 284.115,-38.3235 287.506,-32.1992"/>
<g id="a_edge30&#45;headlabel"><a xlink:href="dir_000030_000020.html" target="_top" xlink:title="12">
<text text-anchor="middle" x="292.025" y="-28.956" font-family="Helvetica,sans-Serif" font-size="10.00">12</text>
</a>
</g>
</g>
<!-- dir_d0f3276f03e9a9cb8f8ba3f2a5ea1262&#45;&gt;dir_7205f054df4e14abb60715afe3e7e90c -->
<g id="edge31" class="edge"><title>dir_d0f3276f03e9a9cb8f8ba3f2a5ea1262&#45;&gt;dir_7205f054df4e14abb60715afe3e7e90c</title>
<path fill="none" stroke="black" d="M268.061,-252.17C284.569,-283.121 307.113,-349.982 289,-403 285.523,-413.178 279.21,-422.917 272.139,-431.206"/>
<polygon fill="black" stroke="black" points="269.439,-428.97 265.195,-438.677 274.566,-433.735 269.439,-428.97"/>
<g id="a_edge31&#45;headlabel"><a xlink:href="dir_000030_000031.html" target="_top" xlink:title="1">
<text text-anchor="middle" x="269.807" y="-421.904" font-family="Helvetica,sans-Serif" font-size="10.00">1</text>
</a>
</g>
</g>
<!-- dir_d0f3276f03e9a9cb8f8ba3f2a5ea1262&#45;&gt;dir_f6a0a87962fcbf90fc709c1bf5ba5a00 -->
<g id="edge33" class="edge"><title>dir_d0f3276f03e9a9cb8f8ba3f2a5ea1262&#45;&gt;dir_f6a0a87962fcbf90fc709c1bf5ba5a00</title>
<path fill="none" stroke="black" d="M252.034,-215.697C250.711,-207.983 249.122,-198.712 247.648,-190.112"/>
<polygon fill="black" stroke="black" points="251.072,-189.369 245.932,-180.104 244.172,-190.552 251.072,-189.369"/>
<g id="a_edge33&#45;headlabel"><a xlink:href="dir_000030_000045.html" target="_top" xlink:title="2">
<text text-anchor="middle" x="254.477" y="-189.932" font-family="Helvetica,sans-Serif" font-size="10.00">2</text>
</a>
</g>
</g>
<!-- dir_d0f3276f03e9a9cb8f8ba3f2a5ea1262&#45;&gt;dir_6bc97c5ccce2964f7b25f8377ac95818 -->
<g id="edge34" class="edge"><title>dir_d0f3276f03e9a9cb8f8ba3f2a5ea1262&#45;&gt;dir_6bc97c5ccce2964f7b25f8377ac95818</title>
<path fill="none" stroke="black" d="M264.954,-215.978C270.272,-205.888 276.272,-192.638 279,-180 282.376,-164.36 282.964,-159.501 279,-144 276.621,-134.697 272.235,-125.27 267.582,-116.997"/>
<polygon fill="black" stroke="black" points="270.457,-114.986 262.307,-108.216 264.456,-118.59 270.457,-114.986"/>
<g id="a_edge34&#45;headlabel"><a xlink:href="dir_000030_000050.html" target="_top" xlink:title="4">
<text text-anchor="middle" x="274.741" y="-114.105" font-family="Helvetica,sans-Serif" font-size="10.00">4</text>
</a>
</g>
</g>
<!-- dir_d0f3276f03e9a9cb8f8ba3f2a5ea1262&#45;&gt;dir_06113b60808b1bbb52a01dfd2c3a8657 -->
<g id="edge35" class="edge"><title>dir_d0f3276f03e9a9cb8f8ba3f2a5ea1262&#45;&gt;dir_06113b60808b1bbb52a01dfd2c3a8657</title>
<path fill="none" stroke="black" d="M257.658,-252.352C257.562,-278.079 252.629,-326.569 247.245,-356.974"/>
<polygon fill="black" stroke="black" points="243.786,-356.426 245.329,-366.908 250.66,-357.752 243.786,-356.426"/>
<g id="a_edge35&#45;headlabel"><a xlink:href="dir_000030_000033.html" target="_top" xlink:title="2">
<text text-anchor="middle" x="241.679" y="-349.859" font-family="Helvetica,sans-Serif" font-size="10.00">2</text>
</a>
</g>
</g>
<!-- dir_d0f3276f03e9a9cb8f8ba3f2a5ea1262&#45;&gt;dir_909774b1a000bf73b2cf501716b773f3 -->
<g id="edge36" class="edge"><title>dir_d0f3276f03e9a9cb8f8ba3f2a5ea1262&#45;&gt;dir_909774b1a000bf73b2cf501716b773f3</title>
<path fill="none" stroke="black" d="M224.911,-215.876C207.953,-206.225 186.639,-194.096 168.705,-183.889"/>
<polygon fill="black" stroke="black" points="170.098,-180.655 159.675,-178.75 166.635,-186.738 170.098,-180.655"/>
<g id="a_edge36&#45;headlabel"><a xlink:href="dir_000030_000044.html" target="_top" xlink:title="3">
<text text-anchor="middle" x="174.626" y="-177.465" font-family="Helvetica,sans-Serif" font-size="10.00">3</text>
</a>
</g>
</g>
<!-- dir_909774b1a000bf73b2cf501716b773f3&#45;&gt;dir_a2f0e5642e47e7ed59fe0f0829eafb5f -->
<g id="edge37" class="edge"><title>dir_909774b1a000bf73b2cf501716b773f3&#45;&gt;dir_a2f0e5642e47e7ed59fe0f0829eafb5f</title>
<path fill="none" stroke="black" d="M118.018,-143.919C104.291,-124.943 87.4934,-94.0745 103,-72 127.59,-36.9948 177.661,-25.0046 212.492,-20.9581"/>
<polygon fill="black" stroke="black" points="213.161,-24.409 222.767,-19.9406 212.471,-17.4431 213.161,-24.409"/>
<g id="a_edge37&#45;headlabel"><a xlink:href="dir_000044_000020.html" target="_top" xlink:title="5">
<text text-anchor="middle" x="209.863" y="-25.0886" font-family="Helvetica,sans-Serif" font-size="10.00">5</text>
</a>
</g>
</g>
<!-- dir_909774b1a000bf73b2cf501716b773f3&#45;&gt;dir_6bc97c5ccce2964f7b25f8377ac95818 -->
<g id="edge38" class="edge"><title>dir_909774b1a000bf73b2cf501716b773f3&#45;&gt;dir_6bc97c5ccce2964f7b25f8377ac95818</title>
<path fill="none" stroke="black" d="M154.969,-143.876C169.574,-134.639 188.828,-123.131 206.225,-113.212"/>
<polygon fill="black" stroke="black" points="208.132,-116.154 215.119,-108.19 204.69,-110.059 208.132,-116.154"/>
<g id="a_edge38&#45;headlabel"><a xlink:href="dir_000044_000050.html" target="_top" xlink:title="4">
<text text-anchor="middle" x="206.398" y="-117.894" font-family="Helvetica,sans-Serif" font-size="10.00">4</text>
</a>
</g>
</g>
</g>
</svg>
