<?xml version="1.0" encoding="UTF-8" standalone="no"?>
<!DOCTYPE svg PUBLIC "-//W3C//DTD SVG 1.1//EN"
 "http://www.w3.org/Graphics/SVG/1.1/DTD/svg11.dtd">
<!-- Generated by graphviz version 2.38.0 (20140413.2041)
 -->
<!-- Title: /home/travis/build/STORM&#45;IRIT/Radium&#45;Engine/src/Engine/Entity Pages: 1 -->
<svg width="166pt" height="223pt"
 viewBox="0.00 0.00 165.92 223.00" xmlns="http://www.w3.org/2000/svg" xmlns:xlink="http://www.w3.org/1999/xlink">
<g id="graph0" class="graph" transform="scale(1 1) rotate(0) translate(4 219)">
<title>/home/travis/build/STORM&#45;IRIT/Radium&#45;Engine/src/Engine/Entity</title>
<polygon fill="white" stroke="none" points="-4,4 -4,-219 161.924,-219 161.924,4 -4,4"/>
<g id="clust1" class="cluster"><title>clusterdir_3072bc1f55ed1280fe4fbe6b21c78379</title>
<g id="a_clust1"><a xlink:href="dir_3072bc1f55ed1280fe4fbe6b21c78379.html" target="_top" xlink:title="Engine">
<polygon fill="#ddddee" stroke="black" points="8,-136 8,-207 78,-207 78,-136 8,-136"/>
<text text-anchor="middle" x="43" y="-195" font-family="Helvetica,sans-Serif" font-size="10.00">Engine</text>
</a>
</g>
</g>
<!-- dir_7205f054df4e14abb60715afe3e7e90c -->
<g id="node1" class="node"><title>dir_7205f054df4e14abb60715afe3e7e90c</title>
<g id="a_node1"><a xlink:href="dir_7205f054df4e14abb60715afe3e7e90c.html" target="_top" xlink:title="Entity">
<polygon fill="#eeeeff" stroke="black" points="70,-180 16,-180 16,-144 70,-144 70,-180"/>
<text text-anchor="middle" x="43" y="-159.5" font-family="Helvetica,sans-Serif" font-size="10.00">Entity</text>
</a>
</g>
</g>
<!-- dir_a2f0e5642e47e7ed59fe0f0829eafb5f -->
<g id="node2" class="node"><title>dir_a2f0e5642e47e7ed59fe0f0829eafb5f</title>
<g id="a_node2"><a xlink:href="dir_a2f0e5642e47e7ed59fe0f0829eafb5f.html" target="_top" xlink:title="Core">
<polygon fill="white" stroke="red" points="135,-36 81,-36 81,-0 135,-0 135,-36"/>
<text text-anchor="middle" x="108" y="-15.5" font-family="Helvetica,sans-Serif" font-size="10.00">Core</text>
</a>
</g>
</g>
<!-- dir_7205f054df4e14abb60715afe3e7e90c&#45;&gt;dir_a2f0e5642e47e7ed59fe0f0829eafb5f -->
<g id="edge1" class="edge"><title>dir_7205f054df4e14abb60715afe3e7e90c&#45;&gt;dir_a2f0e5642e47e7ed59fe0f0829eafb5f</title>
<path fill="none" stroke="black" d="M44.1178,-143.763C45.8916,-125.192 50.4372,-95.1883 62,-72 67.0266,-61.9195 74.4222,-52.2075 81.82,-43.9126"/>
<polygon fill="black" stroke="black" points="84.5504,-46.1175 88.8361,-36.4281 79.4435,-41.33 84.5504,-46.1175"/>
<g id="a_edge1&#45;headlabel"><a xlink:href="dir_000031_000020.html" target="_top" xlink:title="3">
<text text-anchor="middle" x="84.1634" y="-48.1818" font-family="Helvetica,sans-Serif" font-size="10.00">3</text>
</a>
</g>
</g>
<!-- dir_06113b60808b1bbb52a01dfd2c3a8657 -->
<g id="node3" class="node"><title>dir_06113b60808b1bbb52a01dfd2c3a8657</title>
<g id="a_node3"><a xlink:href="dir_06113b60808b1bbb52a01dfd2c3a8657.html" target="_top" xlink:title="Managers">
<polygon fill="white" stroke="red" points="152,-180 88,-180 88,-144 152,-144 152,-180"/>
<text text-anchor="middle" x="120" y="-159.5" font-family="Helvetica,sans-Serif" font-size="10.00">Managers</text>
</a>
</g>
</g>
<!-- dir_7205f054df4e14abb60715afe3e7e90c&#45;&gt;dir_06113b60808b1bbb52a01dfd2c3a8657 -->
<g id="edge2" class="edge"><title>dir_7205f054df4e14abb60715afe3e7e90c&#45;&gt;dir_06113b60808b1bbb52a01dfd2c3a8657</title>
<path fill="none" stroke="black" d="M70.0703,-162C72.5388,-162 75.0072,-162 77.4757,-162"/>
<polygon fill="black" stroke="black" points="77.6238,-165.5 87.6237,-162 77.6237,-158.5 77.6238,-165.5"/>
<g id="a_edge2&#45;headlabel"><a xlink:href="dir_000031_000033.html" target="_top" xlink:title="1">
<text text-anchor="middle" x="74.0291" y="-165.839" font-family="Helvetica,sans-Serif" font-size="10.00">1</text>
</a>
</g>
</g>
<!-- dir_d0f3276f03e9a9cb8f8ba3f2a5ea1262 -->
<g id="node4" class="node"><title>dir_d0f3276f03e9a9cb8f8ba3f2a5ea1262</title>
<g id="a_node4"><a xlink:href="dir_d0f3276f03e9a9cb8f8ba3f2a5ea1262.html" target="_top" xlink:title="Component">
<polygon fill="none" stroke="black" points="144.5,-108 71.5,-108 71.5,-72 144.5,-72 144.5,-108"/>
<text text-anchor="middle" x="108" y="-87.5" font-family="Helvetica,sans-Serif" font-size="10.00">Component</text>
</a>
</g>
</g>
<!-- dir_7205f054df4e14abb60715afe3e7e90c&#45;&gt;dir_d0f3276f03e9a9cb8f8ba3f2a5ea1262 -->
<g id="edge3" class="edge"><title>dir_7205f054df4e14abb60715afe3e7e90c&#45;&gt;dir_d0f3276f03e9a9cb8f8ba3f2a5ea1262</title>
<path fill="none" stroke="black" d="M53.1517,-143.697C60.2186,-135.135 69.7669,-124.656 78.9699,-115.304"/>
<polygon fill="black" stroke="black" points="81.5916,-117.634 86.2224,-108.104 76.6598,-112.666 81.5916,-117.634"/>
<g id="a_edge3&#45;headlabel"><a xlink:href="dir_000031_000030.html" target="_top" xlink:title="1">
<text text-anchor="middle" x="81.041" y="-119.681" font-family="Helvetica,sans-Serif" font-size="10.00">1</text>
</a>
</g>
</g>
<!-- dir_06113b60808b1bbb52a01dfd2c3a8657&#45;&gt;dir_a2f0e5642e47e7ed59fe0f0829eafb5f -->
<g id="edge4" class="edge"><title>dir_06113b60808b1bbb52a01dfd2c3a8657&#45;&gt;dir_a2f0e5642e47e7ed59fe0f0829eafb5f</title>
<path fill="none" stroke="black" d="M134.755,-143.634C142.09,-133.849 150.186,-121.008 154,-108 158.501,-92.6463 159.597,-86.9889 154,-72 150.124,-61.6206 143.197,-51.9274 135.876,-43.7427"/>
<polygon fill="black" stroke="black" points="138.269,-41.1816 128.823,-36.3845 133.216,-46.0256 138.269,-41.1816"/>
<g id="a_edge4&#45;headlabel"><a xlink:href="dir_000033_000020.html" target="_top" xlink:title="15">
<text text-anchor="middle" x="142.806" y="-39.3118" font-family="Helvetica,sans-Serif" font-size="10.00">15</text>
</a>
</g>
</g>
<!-- dir_06113b60808b1bbb52a01dfd2c3a8657&#45;&gt;dir_d0f3276f03e9a9cb8f8ba3f2a5ea1262 -->
<g id="edge5" class="edge"><title>dir_06113b60808b1bbb52a01dfd2c3a8657&#45;&gt;dir_d0f3276f03e9a9cb8f8ba3f2a5ea1262</title>
<path fill="none" stroke="black" d="M111.118,-143.697C109,-135.983 107.184,-126.712 106.053,-118.112"/>
<polygon fill="black" stroke="black" points="109.529,-117.7 105.037,-108.104 102.565,-118.407 109.529,-117.7"/>
<g id="a_edge5&#45;headlabel"><a xlink:href="dir_000033_000030.html" target="_top" xlink:title="2">
<text text-anchor="middle" x="112.716" y="-118.49" font-family="Helvetica,sans-Serif" font-size="10.00">2</text>
</a>
</g>
</g>
<!-- dir_d0f3276f03e9a9cb8f8ba3f2a5ea1262&#45;&gt;dir_7205f054df4e14abb60715afe3e7e90c -->
<g id="edge7" class="edge"><title>dir_d0f3276f03e9a9cb8f8ba3f2a5ea1262&#45;&gt;dir_7205f054df4e14abb60715afe3e7e90c</title>
<path fill="none" stroke="black" d="M98.0124,-108.104C90.9842,-116.636 81.4527,-127.108 72.2445,-136.478"/>
<polygon fill="black" stroke="black" points="69.6072,-134.164 64.9831,-143.697 74.5425,-139.128 69.6072,-134.164"/>
<g id="a_edge7&#45;headlabel"><a xlink:href="dir_000030_000031.html" target="_top" xlink:title="1">
<text text-anchor="middle" x="70.1546" y="-127.116" font-family="Helvetica,sans-Serif" font-size="10.00">1</text>
</a>
</g>
</g>
<!-- dir_d0f3276f03e9a9cb8f8ba3f2a5ea1262&#45;&gt;dir_a2f0e5642e47e7ed59fe0f0829eafb5f -->
<g id="edge6" class="edge"><title>dir_d0f3276f03e9a9cb8f8ba3f2a5ea1262&#45;&gt;dir_a2f0e5642e47e7ed59fe0f0829eafb5f</title>
<path fill="none" stroke="black" d="M108,-71.6966C108,-63.9827 108,-54.7125 108,-46.1124"/>
<polygon fill="black" stroke="black" points="111.5,-46.1043 108,-36.1043 104.5,-46.1044 111.5,-46.1043"/>
<g id="a_edge6&#45;headlabel"><a xlink:href="dir_000030_000020.html" target="_top" xlink:title="12">
<text text-anchor="middle" x="114.339" y="-47.199" font-family="Helvetica,sans-Serif" font-size="10.00">12</text>
</a>
</g>
</g>
<!-- dir_d0f3276f03e9a9cb8f8ba3f2a5ea1262&#45;&gt;dir_06113b60808b1bbb52a01dfd2c3a8657 -->
<g id="edge8" class="edge"><title>dir_d0f3276f03e9a9cb8f8ba3f2a5ea1262&#45;&gt;dir_06113b60808b1bbb52a01dfd2c3a8657</title>
<path fill="none" stroke="black" d="M116.827,-108.104C118.95,-115.791 120.775,-125.054 121.918,-133.665"/>
<polygon fill="black" stroke="black" points="118.445,-134.107 122.949,-143.697 125.408,-133.391 118.445,-134.107"/>
<g id="a_edge8&#45;headlabel"><a xlink:href="dir_000030_000033.html" target="_top" xlink:title="2">
<text text-anchor="middle" x="115.253" y="-128.322" font-family="Helvetica,sans-Serif" font-size="10.00">2</text>
</a>
</g>
</g>
</g>
</svg>
