<?xml version="1.0" encoding="UTF-8" standalone="no"?>
<!DOCTYPE svg PUBLIC "-//W3C//DTD SVG 1.1//EN"
 "http://www.w3.org/Graphics/SVG/1.1/DTD/svg11.dtd">
<!-- Generated by graphviz version 2.38.0 (20140413.2041)
 -->
<!-- Title: /home/travis/build/STORM&#45;IRIT/Radium&#45;Engine/src/Engine Pages: 1 -->
<svg width="336pt" height="447pt"
 viewBox="0.00 0.00 336.00 447.00" xmlns="http://www.w3.org/2000/svg" xmlns:xlink="http://www.w3.org/1999/xlink">
<g id="graph0" class="graph" transform="scale(1 1) rotate(0) translate(4 443)">
<title>/home/travis/build/STORM&#45;IRIT/Radium&#45;Engine/src/Engine</title>
<polygon fill="white" stroke="none" points="-4,4 -4,-443 332,-443 332,4 -4,4"/>
<g id="clust1" class="cluster"><title>clusterdir_68267d1309a1af8e8297ef4c3efbcdba</title>
<g id="a_clust1"><a xlink:href="dir_68267d1309a1af8e8297ef4c3efbcdba.html" target="_top" xlink:title="src">
<polygon fill="#ddddee" stroke="black" points="8,-56 8,-431 240,-431 240,-56 8,-56"/>
<text text-anchor="middle" x="124" y="-419" font-family="Helvetica,sans-Serif" font-size="10.00">src</text>
</a>
</g>
</g>
<g id="clust2" class="cluster"><title>clusterdir_3072bc1f55ed1280fe4fbe6b21c78379</title>
<g id="a_clust2"><a xlink:href="dir_3072bc1f55ed1280fe4fbe6b21c78379.html" target="_top">
<polygon fill="#eeeeff" stroke="black" points="16,-64 16,-404 232,-404 232,-64 16,-64"/>
</a>
</g>
</g>
<!-- dir_3072bc1f55ed1280fe4fbe6b21c78379 -->
<g id="node1" class="node"><title>dir_3072bc1f55ed1280fe4fbe6b21c78379</title>
<text text-anchor="middle" x="197" y="-375.5" font-family="Helvetica,sans-Serif" font-size="10.00">Engine</text>
</g>
<!-- dir_d0f3276f03e9a9cb8f8ba3f2a5ea1262 -->
<g id="node2" class="node"><title>dir_d0f3276f03e9a9cb8f8ba3f2a5ea1262</title>
<g id="a_node2"><a xlink:href="dir_d0f3276f03e9a9cb8f8ba3f2a5ea1262.html" target="_top" xlink:title="Component">
<polygon fill="white" stroke="black" points="151.5,-396 78.5,-396 78.5,-360 151.5,-360 151.5,-396"/>
<text text-anchor="middle" x="115" y="-375.5" font-family="Helvetica,sans-Serif" font-size="10.00">Component</text>
</a>
</g>
</g>
<!-- dir_7205f054df4e14abb60715afe3e7e90c -->
<g id="node3" class="node"><title>dir_7205f054df4e14abb60715afe3e7e90c</title>
<g id="a_node3"><a xlink:href="dir_7205f054df4e14abb60715afe3e7e90c.html" target="_top" xlink:title="Entity">
<polygon fill="white" stroke="black" points="178,-324 124,-324 124,-288 178,-288 178,-324"/>
<text text-anchor="middle" x="151" y="-303.5" font-family="Helvetica,sans-Serif" font-size="10.00">Entity</text>
</a>
</g>
</g>
<!-- dir_d0f3276f03e9a9cb8f8ba3f2a5ea1262&#45;&gt;dir_7205f054df4e14abb60715afe3e7e90c -->
<g id="edge22" class="edge"><title>dir_d0f3276f03e9a9cb8f8ba3f2a5ea1262&#45;&gt;dir_7205f054df4e14abb60715afe3e7e90c</title>
<path fill="none" stroke="black" d="M117.983,-359.697C121.294,-351.644 126.098,-341.894 131.091,-332.982"/>
<polygon fill="black" stroke="black" points="134.259,-334.499 136.308,-324.104 128.224,-330.952 134.259,-334.499"/>
<g id="a_edge22&#45;headlabel"><a xlink:href="dir_000030_000031.html" target="_top" xlink:title="1">
<text text-anchor="middle" x="134.886" y="-336.537" font-family="Helvetica,sans-Serif" font-size="10.00">1</text>
</a>
</g>
</g>
<!-- dir_06113b60808b1bbb52a01dfd2c3a8657 -->
<g id="node5" class="node"><title>dir_06113b60808b1bbb52a01dfd2c3a8657</title>
<g id="a_node5"><a xlink:href="dir_06113b60808b1bbb52a01dfd2c3a8657.html" target="_top" xlink:title="Managers">
<polygon fill="white" stroke="red" points="150,-252 86,-252 86,-216 150,-216 150,-252"/>
<text text-anchor="middle" x="118" y="-231.5" font-family="Helvetica,sans-Serif" font-size="10.00">Managers</text>
</a>
</g>
</g>
<!-- dir_d0f3276f03e9a9cb8f8ba3f2a5ea1262&#45;&gt;dir_06113b60808b1bbb52a01dfd2c3a8657 -->
<g id="edge24" class="edge"><title>dir_d0f3276f03e9a9cb8f8ba3f2a5ea1262&#45;&gt;dir_06113b60808b1bbb52a01dfd2c3a8657</title>
<path fill="none" stroke="black" d="M107.994,-359.934C105.48,-342.015 105.292,-313.021 106,-288 106.238,-279.579 106.689,-270.415 107.579,-262.112"/>
<polygon fill="black" stroke="black" points="111.05,-262.562 108.96,-252.175 104.117,-261.598 111.05,-262.562"/>
<g id="a_edge24&#45;headlabel"><a xlink:href="dir_000030_000033.html" target="_top" xlink:title="2">
<text text-anchor="middle" x="113.368" y="-264.013" font-family="Helvetica,sans-Serif" font-size="10.00">2</text>
</a>
</g>
</g>
<!-- dir_54018506bb725509c19b38b6d9bcf0f6 -->
<g id="node6" class="node"><title>dir_54018506bb725509c19b38b6d9bcf0f6</title>
<g id="a_node6"><a xlink:href="dir_54018506bb725509c19b38b6d9bcf0f6.html" target="_top" xlink:title="Renderer">
<polygon fill="white" stroke="red" points="94.5,-108 35.5,-108 35.5,-72 94.5,-72 94.5,-108"/>
<text text-anchor="middle" x="65" y="-87.5" font-family="Helvetica,sans-Serif" font-size="10.00">Renderer</text>
</a>
</g>
</g>
<!-- dir_d0f3276f03e9a9cb8f8ba3f2a5ea1262&#45;&gt;dir_54018506bb725509c19b38b6d9bcf0f6 -->
<g id="edge25" class="edge"><title>dir_d0f3276f03e9a9cb8f8ba3f2a5ea1262&#45;&gt;dir_54018506bb725509c19b38b6d9bcf0f6</title>
<path fill="none" stroke="black" d="M98.9955,-359.882C82.9951,-336.412 60.4422,-292.529 50,-252 41.9883,-220.905 45.3345,-212.083 44,-180 43.3351,-164.014 42.2224,-159.901 44,-144 44.9687,-135.335 46.802,-126.018 49.1729,-117.65"/>
<polygon fill="black" stroke="black" points="52.5401,-118.613 52.3094,-108.021 45.8843,-116.445 52.5401,-118.613"/>
<g id="a_edge25&#45;headlabel"><a xlink:href="dir_000030_000040.html" target="_top" xlink:title="15">
<text text-anchor="middle" x="54.1266" y="-120.41" font-family="Helvetica,sans-Serif" font-size="10.00">15</text>
</a>
</g>
</g>
<!-- dir_eecdbbfa89a6d9af25d920c499e6f44e -->
<g id="node7" class="node"><title>dir_eecdbbfa89a6d9af25d920c499e6f44e</title>
<g id="a_node7"><a xlink:href="dir_eecdbbfa89a6d9af25d920c499e6f44e.html" target="_top" xlink:title="System">
<polygon fill="white" stroke="black" points="224,-180 170,-180 170,-144 224,-144 224,-180"/>
<text text-anchor="middle" x="197" y="-159.5" font-family="Helvetica,sans-Serif" font-size="10.00">System</text>
</a>
</g>
</g>
<!-- dir_d0f3276f03e9a9cb8f8ba3f2a5ea1262&#45;&gt;dir_eecdbbfa89a6d9af25d920c499e6f44e -->
<g id="edge23" class="edge"><title>dir_d0f3276f03e9a9cb8f8ba3f2a5ea1262&#45;&gt;dir_eecdbbfa89a6d9af25d920c499e6f44e</title>
<path fill="none" stroke="black" d="M141.926,-359.811C155.122,-351.1 169.753,-339.127 178,-324 200.983,-281.844 197.667,-223.943 195.673,-190.293"/>
<polygon fill="black" stroke="black" points="199.165,-190.057 195.107,-180.27 192.176,-190.452 199.165,-190.057"/>
<g id="a_edge23&#45;headlabel"><a xlink:href="dir_000030_000052.html" target="_top" xlink:title="1">
<text text-anchor="middle" x="202.203" y="-190.986" font-family="Helvetica,sans-Serif" font-size="10.00">1</text>
</a>
</g>
</g>
<!-- dir_a2f0e5642e47e7ed59fe0f0829eafb5f -->
<g id="node8" class="node"><title>dir_a2f0e5642e47e7ed59fe0f0829eafb5f</title>
<g id="a_node8"><a xlink:href="dir_a2f0e5642e47e7ed59fe0f0829eafb5f.html" target="_top" xlink:title="Core">
<polygon fill="white" stroke="red" points="255,-36 201,-36 201,-0 255,-0 255,-36"/>
<text text-anchor="middle" x="228" y="-15.5" font-family="Helvetica,sans-Serif" font-size="10.00">Core</text>
</a>
</g>
</g>
<!-- dir_d0f3276f03e9a9cb8f8ba3f2a5ea1262&#45;&gt;dir_a2f0e5642e47e7ed59fe0f0829eafb5f -->
<g id="edge21" class="edge"><title>dir_d0f3276f03e9a9cb8f8ba3f2a5ea1262&#45;&gt;dir_a2f0e5642e47e7ed59fe0f0829eafb5f</title>
<path fill="none" stroke="black" d="M151.616,-361.326C212.516,-334.079 328,-276.888 328,-235 328,-235 328,-235 328,-161 328,-109.502 311.776,-95.721 279,-56 274.509,-50.558 269.044,-45.5094 263.38,-41.0016"/>
<polygon fill="black" stroke="black" points="265.146,-37.9531 255.031,-34.801 260.973,-43.573 265.146,-37.9531"/>
<g id="a_edge21&#45;headlabel"><a xlink:href="dir_000030_000020.html" target="_top" xlink:title="12">
<text text-anchor="middle" x="269.725" y="-35.3167" font-family="Helvetica,sans-Serif" font-size="10.00">12</text>
</a>
</g>
</g>
<!-- dir_7205f054df4e14abb60715afe3e7e90c&#45;&gt;dir_d0f3276f03e9a9cb8f8ba3f2a5ea1262 -->
<g id="edge3" class="edge"><title>dir_7205f054df4e14abb60715afe3e7e90c&#45;&gt;dir_d0f3276f03e9a9cb8f8ba3f2a5ea1262</title>
<path fill="none" stroke="black" d="M148.099,-324.104C144.812,-332.129 140.023,-341.871 135.033,-350.797"/>
<polygon fill="black" stroke="black" points="131.853,-349.3 129.815,-359.697 137.892,-352.84 131.853,-349.3"/>
<g id="a_edge3&#45;headlabel"><a xlink:href="dir_000031_000030.html" target="_top" xlink:title="1">
<text text-anchor="middle" x="131.222" y="-342.263" font-family="Helvetica,sans-Serif" font-size="10.00">1</text>
</a>
</g>
</g>
<!-- dir_7205f054df4e14abb60715afe3e7e90c&#45;&gt;dir_06113b60808b1bbb52a01dfd2c3a8657 -->
<g id="edge2" class="edge"><title>dir_7205f054df4e14abb60715afe3e7e90c&#45;&gt;dir_06113b60808b1bbb52a01dfd2c3a8657</title>
<path fill="none" stroke="black" d="M136.927,-287.697C132.397,-279.813 127.696,-270.304 123.943,-261.546"/>
<polygon fill="black" stroke="black" points="127.13,-260.091 120.168,-252.104 120.63,-262.689 127.13,-260.091"/>
<g id="a_edge2&#45;headlabel"><a xlink:href="dir_000031_000033.html" target="_top" xlink:title="1">
<text text-anchor="middle" x="131.101" y="-259.875" font-family="Helvetica,sans-Serif" font-size="10.00">1</text>
</a>
</g>
</g>
<!-- dir_7205f054df4e14abb60715afe3e7e90c&#45;&gt;dir_a2f0e5642e47e7ed59fe0f0829eafb5f -->
<g id="edge1" class="edge"><title>dir_7205f054df4e14abb60715afe3e7e90c&#45;&gt;dir_a2f0e5642e47e7ed59fe0f0829eafb5f</title>
<path fill="none" stroke="black" d="M171.207,-287.969C195.753,-265.911 236.093,-224.929 254,-180 274.421,-128.764 277.845,-107.837 259,-56 257.518,-51.9242 255.369,-47.9843 252.882,-44.2919"/>
<polygon fill="black" stroke="black" points="255.502,-41.9583 246.623,-36.1778 249.96,-46.2337 255.502,-41.9583"/>
<g id="a_edge1&#45;headlabel"><a xlink:href="dir_000031_000020.html" target="_top" xlink:title="3">
<text text-anchor="middle" x="259.946" y="-40.5705" font-family="Helvetica,sans-Serif" font-size="10.00">3</text>
</a>
</g>
</g>
<!-- dir_d3d507863844f6311a74cf28116d817e -->
<g id="node4" class="node"><title>dir_d3d507863844f6311a74cf28116d817e</title>
<g id="a_node4"><a xlink:href="dir_d3d507863844f6311a74cf28116d817e.html" target="_top" xlink:title="ItemModel">
<polygon fill="white" stroke="black" points="151.5,-180 84.5,-180 84.5,-144 151.5,-144 151.5,-180"/>
<text text-anchor="middle" x="118" y="-159.5" font-family="Helvetica,sans-Serif" font-size="10.00">ItemModel</text>
</a>
</g>
</g>
<!-- dir_d3d507863844f6311a74cf28116d817e&#45;&gt;dir_06113b60808b1bbb52a01dfd2c3a8657 -->
<g id="edge9" class="edge"><title>dir_d3d507863844f6311a74cf28116d817e&#45;&gt;dir_06113b60808b1bbb52a01dfd2c3a8657</title>
<path fill="none" stroke="black" d="M123.895,-180.104C124.701,-187.791 124.937,-197.054 124.604,-205.665"/>
<polygon fill="black" stroke="black" points="121.109,-205.48 123.916,-215.697 128.092,-205.96 121.109,-205.48"/>
<g id="a_edge9&#45;headlabel"><a xlink:href="dir_000032_000033.html" target="_top" xlink:title="2">
<text text-anchor="middle" x="118.522" y="-199.2" font-family="Helvetica,sans-Serif" font-size="10.00">2</text>
</a>
</g>
</g>
<!-- dir_d3d507863844f6311a74cf28116d817e&#45;&gt;dir_54018506bb725509c19b38b6d9bcf0f6 -->
<g id="edge10" class="edge"><title>dir_d3d507863844f6311a74cf28116d817e&#45;&gt;dir_54018506bb725509c19b38b6d9bcf0f6</title>
<path fill="none" stroke="black" d="M104.899,-143.697C98.6091,-135.389 90.9526,-125.277 84.0351,-116.141"/>
<polygon fill="black" stroke="black" points="86.7773,-113.964 77.9504,-108.104 81.1964,-118.19 86.7773,-113.964"/>
<g id="a_edge10&#45;headlabel"><a xlink:href="dir_000032_000040.html" target="_top" xlink:title="2">
<text text-anchor="middle" x="91.2107" y="-112.616" font-family="Helvetica,sans-Serif" font-size="10.00">2</text>
</a>
</g>
</g>
<!-- dir_d3d507863844f6311a74cf28116d817e&#45;&gt;dir_a2f0e5642e47e7ed59fe0f0829eafb5f -->
<g id="edge8" class="edge"><title>dir_d3d507863844f6311a74cf28116d817e&#45;&gt;dir_a2f0e5642e47e7ed59fe0f0829eafb5f</title>
<path fill="none" stroke="black" d="M131.269,-143.871C150.512,-119.031 186.288,-72.8464 208.524,-44.1415"/>
<polygon fill="black" stroke="black" points="211.327,-46.2382 214.684,-36.1893 205.793,-41.9514 211.327,-46.2382"/>
<g id="a_edge8&#45;headlabel"><a xlink:href="dir_000032_000020.html" target="_top" xlink:title="1">
<text text-anchor="middle" x="211.371" y="-48.3186" font-family="Helvetica,sans-Serif" font-size="10.00">1</text>
</a>
</g>
</g>
<!-- dir_06113b60808b1bbb52a01dfd2c3a8657&#45;&gt;dir_d0f3276f03e9a9cb8f8ba3f2a5ea1262 -->
<g id="edge16" class="edge"><title>dir_06113b60808b1bbb52a01dfd2c3a8657&#45;&gt;dir_d0f3276f03e9a9cb8f8ba3f2a5ea1262</title>
<path fill="none" stroke="black" d="M124.603,-252.175C125.107,-262.544 124.339,-276.024 124,-288 123.414,-308.721 123.442,-332.166 122.307,-349.79"/>
<polygon fill="black" stroke="black" points="118.804,-349.671 121.433,-359.934 125.778,-350.271 118.804,-349.671"/>
<g id="a_edge16&#45;headlabel"><a xlink:href="dir_000033_000030.html" target="_top" xlink:title="2">
<text text-anchor="middle" x="116.283" y="-343.346" font-family="Helvetica,sans-Serif" font-size="10.00">2</text>
</a>
</g>
</g>
<!-- dir_06113b60808b1bbb52a01dfd2c3a8657&#45;&gt;dir_7205f054df4e14abb60715afe3e7e90c -->
<g id="edge12" class="edge"><title>dir_06113b60808b1bbb52a01dfd2c3a8657&#45;&gt;dir_7205f054df4e14abb60715afe3e7e90c</title>
<path fill="none" stroke="black" d="M131.959,-252.104C136.485,-259.96 141.193,-269.462 144.962,-278.232"/>
<polygon fill="black" stroke="black" points="141.787,-279.718 148.758,-287.697 148.284,-277.112 141.787,-279.718"/>
<g id="a_edge12&#45;headlabel"><a xlink:href="dir_000033_000031.html" target="_top" xlink:title="3">
<text text-anchor="middle" x="137.814" y="-274.939" font-family="Helvetica,sans-Serif" font-size="10.00">3</text>
</a>
</g>
</g>
<!-- dir_06113b60808b1bbb52a01dfd2c3a8657&#45;&gt;dir_d3d507863844f6311a74cf28116d817e -->
<g id="edge14" class="edge"><title>dir_06113b60808b1bbb52a01dfd2c3a8657&#45;&gt;dir_d3d507863844f6311a74cf28116d817e</title>
<path fill="none" stroke="black" d="M112.084,-215.697C111.289,-207.983 111.062,-198.712 111.405,-190.112"/>
<polygon fill="black" stroke="black" points="114.898,-190.324 112.105,-180.104 107.915,-189.836 114.898,-190.324"/>
<g id="a_edge14&#45;headlabel"><a xlink:href="dir_000033_000032.html" target="_top" xlink:title="1">
<text text-anchor="middle" x="117.48" y="-191.608" font-family="Helvetica,sans-Serif" font-size="10.00">1</text>
</a>
</g>
</g>
<!-- dir_06113b60808b1bbb52a01dfd2c3a8657&#45;&gt;dir_54018506bb725509c19b38b6d9bcf0f6 -->
<g id="edge15" class="edge"><title>dir_06113b60808b1bbb52a01dfd2c3a8657&#45;&gt;dir_54018506bb725509c19b38b6d9bcf0f6</title>
<path fill="none" stroke="black" d="M91.5549,-215.597C81.6136,-205.995 71.586,-193.333 66,-180 57.8015,-160.431 55.5018,-136.438 56.5048,-118.296"/>
<polygon fill="black" stroke="black" points="60.011,-118.401 57.4947,-108.109 53.0438,-117.724 60.011,-118.401"/>
<g id="a_edge15&#45;headlabel"><a xlink:href="dir_000033_000040.html" target="_top" xlink:title="9">
<text text-anchor="middle" x="62.4894" y="-119.753" font-family="Helvetica,sans-Serif" font-size="10.00">9</text>
</a>
</g>
</g>
<!-- dir_06113b60808b1bbb52a01dfd2c3a8657&#45;&gt;dir_eecdbbfa89a6d9af25d920c499e6f44e -->
<g id="edge13" class="edge"><title>dir_06113b60808b1bbb52a01dfd2c3a8657&#45;&gt;dir_eecdbbfa89a6d9af25d920c499e6f44e</title>
<path fill="none" stroke="black" d="M131.612,-215.697C140.565,-206.965 152.498,-196.24 163.766,-186.75"/>
<polygon fill="black" stroke="black" points="166.326,-189.175 171.802,-180.104 161.865,-183.781 166.326,-189.175"/>
<g id="a_edge13&#45;headlabel"><a xlink:href="dir_000033_000052.html" target="_top" xlink:title="2">
<text text-anchor="middle" x="165.366" y="-191.154" font-family="Helvetica,sans-Serif" font-size="10.00">2</text>
</a>
</g>
</g>
<!-- dir_06113b60808b1bbb52a01dfd2c3a8657&#45;&gt;dir_a2f0e5642e47e7ed59fe0f0829eafb5f -->
<g id="edge11" class="edge"><title>dir_06113b60808b1bbb52a01dfd2c3a8657&#45;&gt;dir_a2f0e5642e47e7ed59fe0f0829eafb5f</title>
<path fill="none" stroke="black" d="M150.061,-227.922C177.329,-221.725 214.865,-208.327 233,-180 259.1,-139.234 247.619,-79.9901 237.446,-45.8935"/>
<polygon fill="black" stroke="black" points="240.723,-44.6487 234.373,-36.1674 234.048,-46.7572 240.723,-44.6487"/>
<g id="a_edge11&#45;headlabel"><a xlink:href="dir_000033_000020.html" target="_top" xlink:title="15">
<text text-anchor="middle" x="244.513" y="-44.7212" font-family="Helvetica,sans-Serif" font-size="10.00">15</text>
</a>
</g>
</g>
<!-- dir_54018506bb725509c19b38b6d9bcf0f6&#45;&gt;dir_d0f3276f03e9a9cb8f8ba3f2a5ea1262 -->
<g id="edge20" class="edge"><title>dir_54018506bb725509c19b38b6d9bcf0f6&#45;&gt;dir_d0f3276f03e9a9cb8f8ba3f2a5ea1262</title>
<path fill="none" stroke="black" d="M67.9523,-108.021C66.4358,-118.335 63.3626,-131.811 62,-144 60.2224,-159.901 61.3351,-164.014 62,-180 63.3345,-212.083 59.9883,-220.905 68,-252 77.1777,-287.621 95.7107,-325.833 106.957,-350.5"/>
<polygon fill="black" stroke="black" points="103.873,-352.178 111.146,-359.882 110.264,-349.324 103.873,-352.178"/>
<g id="a_edge20&#45;headlabel"><a xlink:href="dir_000040_000030.html" target="_top" xlink:title="4">
<text text-anchor="middle" x="99.8146" y="-347.554" font-family="Helvetica,sans-Serif" font-size="10.00">4</text>
</a>
</g>
</g>
<!-- dir_54018506bb725509c19b38b6d9bcf0f6&#45;&gt;dir_7205f054df4e14abb60715afe3e7e90c -->
<g id="edge18" class="edge"><title>dir_54018506bb725509c19b38b6d9bcf0f6&#45;&gt;dir_7205f054df4e14abb60715afe3e7e90c</title>
<path fill="none" stroke="black" d="M61.3349,-108.154C55.6347,-139.5 48.081,-206.948 77,-252 86.2432,-266.4 100.906,-278.1 114.751,-286.808"/>
<polygon fill="black" stroke="black" points="113.279,-290.005 123.665,-292.097 116.85,-283.985 113.279,-290.005"/>
<g id="a_edge18&#45;headlabel"><a xlink:href="dir_000040_000031.html" target="_top" xlink:title="3">
<text text-anchor="middle" x="108.738" y="-288.113" font-family="Helvetica,sans-Serif" font-size="10.00">3</text>
</a>
</g>
</g>
<!-- dir_54018506bb725509c19b38b6d9bcf0f6&#45;&gt;dir_06113b60808b1bbb52a01dfd2c3a8657 -->
<g id="edge19" class="edge"><title>dir_54018506bb725509c19b38b6d9bcf0f6&#45;&gt;dir_06113b60808b1bbb52a01dfd2c3a8657</title>
<path fill="none" stroke="black" d="M70.7622,-108.109C72.8137,-126.57 74.1464,-156.481 84,-180 88.1458,-189.895 94.7383,-199.421 101.13,-207.601"/>
<polygon fill="black" stroke="black" points="98.5927,-210.029 107.607,-215.597 104.032,-205.623 98.5927,-210.029"/>
<g id="a_edge19&#45;headlabel"><a xlink:href="dir_000040_000033.html" target="_top" xlink:title="5">
<text text-anchor="middle" x="94.1239" y="-206.523" font-family="Helvetica,sans-Serif" font-size="10.00">5</text>
</a>
</g>
</g>
<!-- dir_54018506bb725509c19b38b6d9bcf0f6&#45;&gt;dir_a2f0e5642e47e7ed59fe0f0829eafb5f -->
<g id="edge17" class="edge"><title>dir_54018506bb725509c19b38b6d9bcf0f6&#45;&gt;dir_a2f0e5642e47e7ed59fe0f0829eafb5f</title>
<path fill="none" stroke="black" d="M94.7905,-74.4583C107.152,-68.5547 121.69,-61.7785 135,-56 153.388,-48.0171 174.088,-39.7155 191.283,-33.0035"/>
<polygon fill="black" stroke="black" points="192.902,-36.1299 200.958,-29.2496 190.369,-29.6038 192.902,-36.1299"/>
<g id="a_edge17&#45;headlabel"><a xlink:href="dir_000040_000020.html" target="_top" xlink:title="63">
<text text-anchor="middle" x="190.577" y="-37.577" font-family="Helvetica,sans-Serif" font-size="10.00">63</text>
</a>
</g>
</g>
<!-- dir_eecdbbfa89a6d9af25d920c499e6f44e&#45;&gt;dir_d0f3276f03e9a9cb8f8ba3f2a5ea1262 -->
<g id="edge7" class="edge"><title>dir_eecdbbfa89a6d9af25d920c499e6f44e&#45;&gt;dir_d0f3276f03e9a9cb8f8ba3f2a5ea1262</title>
<path fill="none" stroke="black" d="M205.748,-180.27C214.641,-211.225 221.47,-277.282 196,-324 188.125,-338.445 174.427,-350.015 160.44,-358.614"/>
<polygon fill="black" stroke="black" points="158.689,-355.583 151.743,-363.583 162.162,-361.661 158.689,-355.583"/>
<g id="a_edge7&#45;headlabel"><a xlink:href="dir_000052_000030.html" target="_top" xlink:title="2">
<text text-anchor="middle" x="160.401" y="-348.834" font-family="Helvetica,sans-Serif" font-size="10.00">2</text>
</a>
</g>
</g>
<!-- dir_eecdbbfa89a6d9af25d920c499e6f44e&#45;&gt;dir_7205f054df4e14abb60715afe3e7e90c -->
<g id="edge5" class="edge"><title>dir_eecdbbfa89a6d9af25d920c499e6f44e&#45;&gt;dir_7205f054df4e14abb60715afe3e7e90c</title>
<path fill="none" stroke="black" d="M191.432,-180.189C183.546,-204.531 169.05,-249.28 159.727,-278.059"/>
<polygon fill="black" stroke="black" points="156.301,-277.28 156.549,-287.871 162.96,-279.437 156.301,-277.28"/>
<g id="a_edge5&#45;headlabel"><a xlink:href="dir_000052_000031.html" target="_top" xlink:title="2">
<text text-anchor="middle" x="154.707" y="-270.485" font-family="Helvetica,sans-Serif" font-size="10.00">2</text>
</a>
</g>
</g>
<!-- dir_eecdbbfa89a6d9af25d920c499e6f44e&#45;&gt;dir_06113b60808b1bbb52a01dfd2c3a8657 -->
<g id="edge6" class="edge"><title>dir_eecdbbfa89a6d9af25d920c499e6f44e&#45;&gt;dir_06113b60808b1bbb52a01dfd2c3a8657</title>
<path fill="none" stroke="black" d="M183.592,-180.104C174.598,-188.889 162.538,-199.732 151.163,-209.309"/>
<polygon fill="black" stroke="black" points="148.917,-206.625 143.444,-215.697 153.38,-212.018 148.917,-206.625"/>
<g id="a_edge6&#45;headlabel"><a xlink:href="dir_000052_000033.html" target="_top" xlink:title="1">
<text text-anchor="middle" x="149.876" y="-199.646" font-family="Helvetica,sans-Serif" font-size="10.00">1</text>
</a>
</g>
</g>
<!-- dir_eecdbbfa89a6d9af25d920c499e6f44e&#45;&gt;dir_a2f0e5642e47e7ed59fe0f0829eafb5f -->
<g id="edge4" class="edge"><title>dir_eecdbbfa89a6d9af25d920c499e6f44e&#45;&gt;dir_a2f0e5642e47e7ed59fe0f0829eafb5f</title>
<path fill="none" stroke="black" d="M200.739,-143.871C206.046,-119.564 215.814,-74.8187 222.103,-46.0132"/>
<polygon fill="black" stroke="black" points="225.534,-46.7057 224.247,-36.1893 218.695,-45.2126 225.534,-46.7057"/>
<g id="a_edge4&#45;headlabel"><a xlink:href="dir_000052_000020.html" target="_top" xlink:title="4">
<text text-anchor="middle" x="227.541" y="-48.3231" font-family="Helvetica,sans-Serif" font-size="10.00">4</text>
</a>
</g>
</g>
</g>
</svg>
