<?xml version="1.0" encoding="UTF-8" standalone="no"?>
<!DOCTYPE svg PUBLIC "-//W3C//DTD SVG 1.1//EN"
 "http://www.w3.org/Graphics/SVG/1.1/DTD/svg11.dtd">
<!-- Generated by graphviz version 2.38.0 (20140413.2041)
 -->
<!-- Title: /home/travis/build/STORM&#45;IRIT/Radium&#45;Engine/src/Engine/Renderer/Mesh Pages: 1 -->
<svg width="168pt" height="223pt"
 viewBox="0.00 0.00 167.50 223.00" xmlns="http://www.w3.org/2000/svg" xmlns:xlink="http://www.w3.org/1999/xlink">
<g id="graph0" class="graph" transform="scale(1 1) rotate(0) translate(4 219)">
<title>/home/travis/build/STORM&#45;IRIT/Radium&#45;Engine/src/Engine/Renderer/Mesh</title>
<polygon fill="white" stroke="none" points="-4,4 -4,-219 163.5,-219 163.5,4 -4,4"/>
<g id="clust1" class="cluster"><title>clusterdir_54018506bb725509c19b38b6d9bcf0f6</title>
<g id="a_clust1"><a xlink:href="dir_54018506bb725509c19b38b6d9bcf0f6.html" target="_top" xlink:title="Renderer">
<polygon fill="#ddddee" stroke="black" points="8,-136 8,-207 78,-207 78,-136 8,-136"/>
<text text-anchor="middle" x="43" y="-195" font-family="Helvetica,sans-Serif" font-size="10.00">Renderer</text>
</a>
</g>
</g>
<!-- dir_f6a0a87962fcbf90fc709c1bf5ba5a00 -->
<g id="node1" class="node"><title>dir_f6a0a87962fcbf90fc709c1bf5ba5a00</title>
<g id="a_node1"><a xlink:href="dir_f6a0a87962fcbf90fc709c1bf5ba5a00.html" target="_top" xlink:title="Mesh">
<polygon fill="#eeeeff" stroke="black" points="70,-180 16,-180 16,-144 70,-144 70,-180"/>
<text text-anchor="middle" x="43" y="-159.5" font-family="Helvetica,sans-Serif" font-size="10.00">Mesh</text>
</a>
</g>
</g>
<!-- dir_a2f0e5642e47e7ed59fe0f0829eafb5f -->
<g id="node2" class="node"><title>dir_a2f0e5642e47e7ed59fe0f0829eafb5f</title>
<g id="a_node2"><a xlink:href="dir_a2f0e5642e47e7ed59fe0f0829eafb5f.html" target="_top" xlink:title="Core">
<polygon fill="white" stroke="red" points="82,-36 28,-36 28,-0 82,-0 82,-36"/>
<text text-anchor="middle" x="55" y="-15.5" font-family="Helvetica,sans-Serif" font-size="10.00">Core</text>
</a>
</g>
</g>
<!-- dir_f6a0a87962fcbf90fc709c1bf5ba5a00&#45;&gt;dir_a2f0e5642e47e7ed59fe0f0829eafb5f -->
<g id="edge2" class="edge"><title>dir_f6a0a87962fcbf90fc709c1bf5ba5a00&#45;&gt;dir_a2f0e5642e47e7ed59fe0f0829eafb5f</title>
<path fill="none" stroke="black" d="M26.9631,-143.846C18.9864,-134.124 10.175,-121.274 6,-108 1.19944,-92.7371 0.167918,-86.8992 6,-72 10.1966,-61.2789 17.6922,-51.4268 25.5783,-43.2007"/>
<polygon fill="black" stroke="black" points="28.1227,-45.6083 32.847,-36.1251 23.24,-40.5924 28.1227,-45.6083"/>
<g id="a_edge2&#45;headlabel"><a xlink:href="dir_000045_000020.html" target="_top" xlink:title="4">
<text text-anchor="middle" x="27.5275" y="-47.6502" font-family="Helvetica,sans-Serif" font-size="10.00">4</text>
</a>
</g>
</g>
<!-- dir_745a441f70a5ddf403f2f793490dcc6d -->
<g id="node3" class="node"><title>dir_745a441f70a5ddf403f2f793490dcc6d</title>
<g id="a_node3"><a xlink:href="dir_745a441f70a5ddf403f2f793490dcc6d.html" target="_top" xlink:title="OpenGL">
<polygon fill="none" stroke="black" points="70.5,-108 15.5,-108 15.5,-72 70.5,-72 70.5,-108"/>
<text text-anchor="middle" x="43" y="-87.5" font-family="Helvetica,sans-Serif" font-size="10.00">OpenGL</text>
</a>
</g>
</g>
<!-- dir_f6a0a87962fcbf90fc709c1bf5ba5a00&#45;&gt;dir_745a441f70a5ddf403f2f793490dcc6d -->
<g id="edge3" class="edge"><title>dir_f6a0a87962fcbf90fc709c1bf5ba5a00&#45;&gt;dir_745a441f70a5ddf403f2f793490dcc6d</title>
<path fill="none" stroke="black" d="M43,-143.697C43,-135.983 43,-126.712 43,-118.112"/>
<polygon fill="black" stroke="black" points="46.5001,-118.104 43,-108.104 39.5001,-118.104 46.5001,-118.104"/>
<g id="a_edge3&#45;headlabel"><a xlink:href="dir_000045_000046.html" target="_top" xlink:title="1">
<text text-anchor="middle" x="49.3393" y="-119.199" font-family="Helvetica,sans-Serif" font-size="10.00">1</text>
</a>
</g>
</g>
<!-- dir_f4b8f2947224e6f7be5f71dabf25859e -->
<g id="node4" class="node"><title>dir_f4b8f2947224e6f7be5f71dabf25859e</title>
<g id="a_node4"><a xlink:href="dir_f4b8f2947224e6f7be5f71dabf25859e.html" target="_top" xlink:title="Displayable">
<polygon fill="none" stroke="black" points="159.5,-108 88.5,-108 88.5,-72 159.5,-72 159.5,-108"/>
<text text-anchor="middle" x="124" y="-87.5" font-family="Helvetica,sans-Serif" font-size="10.00">Displayable</text>
</a>
</g>
</g>
<!-- dir_f6a0a87962fcbf90fc709c1bf5ba5a00&#45;&gt;dir_f4b8f2947224e6f7be5f71dabf25859e -->
<g id="edge4" class="edge"><title>dir_f6a0a87962fcbf90fc709c1bf5ba5a00&#45;&gt;dir_f4b8f2947224e6f7be5f71dabf25859e</title>
<path fill="none" stroke="black" d="M63.0225,-143.697C73.1256,-134.965 85.536,-124.24 96.5175,-114.75"/>
<polygon fill="black" stroke="black" points="98.9302,-117.291 104.208,-108.104 94.3532,-111.995 98.9302,-117.291"/>
<g id="a_edge4&#45;headlabel"><a xlink:href="dir_000045_000042.html" target="_top" xlink:title="1">
<text text-anchor="middle" x="98.067" y="-119.29" font-family="Helvetica,sans-Serif" font-size="10.00">1</text>
</a>
</g>
</g>
<!-- dir_f4b8f2947224e6f7be5f71dabf25859e&#45;&gt;dir_a2f0e5642e47e7ed59fe0f0829eafb5f -->
<g id="edge1" class="edge"><title>dir_f4b8f2947224e6f7be5f71dabf25859e&#45;&gt;dir_a2f0e5642e47e7ed59fe0f0829eafb5f</title>
<path fill="none" stroke="black" d="M106.944,-71.6966C98.5045,-63.135 88.1754,-52.6562 78.9573,-43.3045"/>
<polygon fill="black" stroke="black" points="81.3727,-40.7691 71.86,-36.1043 76.3874,-45.6831 81.3727,-40.7691"/>
<g id="a_edge1&#45;headlabel"><a xlink:href="dir_000042_000020.html" target="_top" xlink:title="3">
<text text-anchor="middle" x="85.9181" y="-38.8359" font-family="Helvetica,sans-Serif" font-size="10.00">3</text>
</a>
</g>
</g>
</g>
</svg>
