<?xml version="1.0" encoding="UTF-8" standalone="no"?>
<!DOCTYPE svg PUBLIC "-//W3C//DTD SVG 1.1//EN"
 "http://www.w3.org/Graphics/SVG/1.1/DTD/svg11.dtd">
<!-- Generated by graphviz version 2.38.0 (20140413.2041)
 -->
<!-- Title: /home/travis/build/STORM&#45;IRIT/Radium&#45;Engine/src Pages: 1 -->
<svg width="274pt" height="220pt"
 viewBox="0.00 0.00 274.00 220.00" xmlns="http://www.w3.org/2000/svg" xmlns:xlink="http://www.w3.org/1999/xlink">
<g id="graph0" class="graph" transform="scale(1 1) rotate(0) translate(4 216)">
<title>/home/travis/build/STORM&#45;IRIT/Radium&#45;Engine/src</title>
<polygon fill="white" stroke="none" points="-4,4 -4,-216 270,-216 270,4 -4,4"/>
<g id="clust1" class="cluster"><title>clusterdir_68267d1309a1af8e8297ef4c3efbcdba</title>
<g id="a_clust1"><a xlink:href="dir_68267d1309a1af8e8297ef4c3efbcdba.html" target="_top">
<polygon fill="#eeeeff" stroke="black" points="8,-8 8,-204 258,-204 258,-8 8,-8"/>
</a>
</g>
</g>
<!-- dir_68267d1309a1af8e8297ef4c3efbcdba -->
<g id="node1" class="node"><title>dir_68267d1309a1af8e8297ef4c3efbcdba</title>
<text text-anchor="middle" x="215" y="-175.5" font-family="Helvetica,sans-Serif" font-size="10.00">src</text>
</g>
<!-- dir_a2f0e5642e47e7ed59fe0f0829eafb5f -->
<g id="node2" class="node"><title>dir_a2f0e5642e47e7ed59fe0f0829eafb5f</title>
<g id="a_node2"><a xlink:href="dir_a2f0e5642e47e7ed59fe0f0829eafb5f.html" target="_top" xlink:title="Core">
<polygon fill="white" stroke="red" points="139,-52 85,-52 85,-16 139,-16 139,-52"/>
<text text-anchor="middle" x="112" y="-31.5" font-family="Helvetica,sans-Serif" font-size="10.00">Core</text>
</a>
</g>
</g>
<!-- dir_3072bc1f55ed1280fe4fbe6b21c78379 -->
<g id="node3" class="node"><title>dir_3072bc1f55ed1280fe4fbe6b21c78379</title>
<g id="a_node3"><a xlink:href="dir_3072bc1f55ed1280fe4fbe6b21c78379.html" target="_top" xlink:title="Engine">
<polygon fill="white" stroke="red" points="162,-124 108,-124 108,-88 162,-88 162,-124"/>
<text text-anchor="middle" x="135" y="-103.5" font-family="Helvetica,sans-Serif" font-size="10.00">Engine</text>
</a>
</g>
</g>
<!-- dir_3072bc1f55ed1280fe4fbe6b21c78379&#45;&gt;dir_a2f0e5642e47e7ed59fe0f0829eafb5f -->
<g id="edge5" class="edge"><title>dir_3072bc1f55ed1280fe4fbe6b21c78379&#45;&gt;dir_a2f0e5642e47e7ed59fe0f0829eafb5f</title>
<path fill="none" stroke="black" d="M129.315,-87.6966C126.752,-79.8979 123.667,-70.5085 120.815,-61.8292"/>
<polygon fill="black" stroke="black" points="124.067,-60.5121 117.62,-52.1043 117.416,-62.6972 124.067,-60.5121"/>
<g id="a_edge5&#45;headlabel"><a xlink:href="dir_000029_000020.html" target="_top" xlink:title="105">
<text text-anchor="middle" x="127.886" y="-60.5408" font-family="Helvetica,sans-Serif" font-size="10.00">105</text>
</a>
</g>
</g>
<!-- dir_cb59203ea3f84fc4d67c89730003fed4 -->
<g id="node4" class="node"><title>dir_cb59203ea3f84fc4d67c89730003fed4</title>
<g id="a_node4"><a xlink:href="dir_cb59203ea3f84fc4d67c89730003fed4.html" target="_top" xlink:title="GuiBase">
<polygon fill="white" stroke="red" points="163,-196 107,-196 107,-160 163,-160 163,-196"/>
<text text-anchor="middle" x="135" y="-175.5" font-family="Helvetica,sans-Serif" font-size="10.00">GuiBase</text>
</a>
</g>
</g>
<!-- dir_cb59203ea3f84fc4d67c89730003fed4&#45;&gt;dir_a2f0e5642e47e7ed59fe0f0829eafb5f -->
<g id="edge2" class="edge"><title>dir_cb59203ea3f84fc4d67c89730003fed4&#45;&gt;dir_a2f0e5642e47e7ed59fe0f0829eafb5f</title>
<path fill="none" stroke="black" d="M119.39,-159.774C111.627,-150.03 103.054,-137.184 99,-124 92.7169,-103.568 96.8709,-79.5378 102.096,-61.6006"/>
<polygon fill="black" stroke="black" points="105.432,-62.6615 105.138,-52.0707 98.7629,-60.5332 105.432,-62.6615"/>
<g id="a_edge2&#45;headlabel"><a xlink:href="dir_000053_000020.html" target="_top" xlink:title="55">
<text text-anchor="middle" x="107.044" y="-64.4491" font-family="Helvetica,sans-Serif" font-size="10.00">55</text>
</a>
</g>
</g>
<!-- dir_cb59203ea3f84fc4d67c89730003fed4&#45;&gt;dir_3072bc1f55ed1280fe4fbe6b21c78379 -->
<g id="edge3" class="edge"><title>dir_cb59203ea3f84fc4d67c89730003fed4&#45;&gt;dir_3072bc1f55ed1280fe4fbe6b21c78379</title>
<path fill="none" stroke="black" d="M135,-159.697C135,-151.983 135,-142.712 135,-134.112"/>
<polygon fill="black" stroke="black" points="138.5,-134.104 135,-124.104 131.5,-134.104 138.5,-134.104"/>
<g id="a_edge3&#45;headlabel"><a xlink:href="dir_000053_000029.html" target="_top" xlink:title="73">
<text text-anchor="middle" x="141.339" y="-135.199" font-family="Helvetica,sans-Serif" font-size="10.00">73</text>
</a>
</g>
</g>
<!-- dir_1b07f77798358fd74e92420363fd4633 -->
<g id="node6" class="node"><title>dir_1b07f77798358fd74e92420363fd4633</title>
<g id="a_node6"><a xlink:href="dir_1b07f77798358fd74e92420363fd4633.html" target="_top" xlink:title="PluginBase">
<polygon fill="white" stroke="black" points="249.5,-124 180.5,-124 180.5,-88 249.5,-88 249.5,-124"/>
<text text-anchor="middle" x="215" y="-103.5" font-family="Helvetica,sans-Serif" font-size="10.00">PluginBase</text>
</a>
</g>
</g>
<!-- dir_cb59203ea3f84fc4d67c89730003fed4&#45;&gt;dir_1b07f77798358fd74e92420363fd4633 -->
<g id="edge4" class="edge"><title>dir_cb59203ea3f84fc4d67c89730003fed4&#45;&gt;dir_1b07f77798358fd74e92420363fd4633</title>
<path fill="none" stroke="black" d="M154.775,-159.697C164.754,-150.965 177.011,-140.24 187.857,-130.75"/>
<polygon fill="black" stroke="black" points="190.231,-133.323 195.452,-124.104 185.622,-128.055 190.231,-133.323"/>
<g id="a_edge4&#45;headlabel"><a xlink:href="dir_000053_000066.html" target="_top" xlink:title="2">
<text text-anchor="middle" x="189.396" y="-135.327" font-family="Helvetica,sans-Serif" font-size="10.00">2</text>
</a>
</g>
</g>
<!-- dir_fae119eb913a40fe8ed97cde8b98911e -->
<g id="node5" class="node"><title>dir_fae119eb913a40fe8ed97cde8b98911e</title>
<g id="a_node5"><a xlink:href="dir_fae119eb913a40fe8ed97cde8b98911e.html" target="_top" xlink:title="IO">
<polygon fill="white" stroke="red" points="70,-124 16,-124 16,-88 70,-88 70,-124"/>
<text text-anchor="middle" x="43" y="-103.5" font-family="Helvetica,sans-Serif" font-size="10.00">IO</text>
</a>
</g>
</g>
<!-- dir_fae119eb913a40fe8ed97cde8b98911e&#45;&gt;dir_a2f0e5642e47e7ed59fe0f0829eafb5f -->
<g id="edge1" class="edge"><title>dir_fae119eb913a40fe8ed97cde8b98911e&#45;&gt;dir_a2f0e5642e47e7ed59fe0f0829eafb5f</title>
<path fill="none" stroke="black" d="M60.0562,-87.6966C68.4955,-79.135 78.8246,-68.6562 88.0427,-59.3045"/>
<polygon fill="black" stroke="black" points="90.6126,-61.6831 95.14,-52.1043 85.6273,-56.7691 90.6126,-61.6831"/>
<g id="a_edge1&#45;headlabel"><a xlink:href="dir_000061_000020.html" target="_top" xlink:title="38">
<text text-anchor="middle" x="90.1112" y="-63.7363" font-family="Helvetica,sans-Serif" font-size="10.00">38</text>
</a>
</g>
</g>
<!-- dir_1b07f77798358fd74e92420363fd4633&#45;&gt;dir_a2f0e5642e47e7ed59fe0f0829eafb5f -->
<g id="edge6" class="edge"><title>dir_1b07f77798358fd74e92420363fd4633&#45;&gt;dir_a2f0e5642e47e7ed59fe0f0829eafb5f</title>
<path fill="none" stroke="black" d="M189.803,-87.8761C176.586,-78.8931 160.208,-67.7625 145.893,-58.0341"/>
<polygon fill="black" stroke="black" points="147.532,-54.9159 137.293,-52.1898 143.597,-60.7055 147.532,-54.9159"/>
<g id="a_edge6&#45;headlabel"><a xlink:href="dir_000066_000020.html" target="_top" xlink:title="1">
<text text-anchor="middle" x="152.101" y="-52.0881" font-family="Helvetica,sans-Serif" font-size="10.00">1</text>
</a>
</g>
</g>
</g>
</svg>
