<?xml version="1.0" encoding="UTF-8" standalone="no"?>
<!DOCTYPE svg PUBLIC "-//W3C//DTD SVG 1.1//EN"
 "http://www.w3.org/Graphics/SVG/1.1/DTD/svg11.dtd">
<!-- Generated by graphviz version 2.38.0 (20140413.2041)
 -->
<!-- Title: /home/travis/build/STORM&#45;IRIT/Radium&#45;Engine/src/Engine/Managers Pages: 1 -->
<svg width="731pt" height="267pt"
 viewBox="0.00 0.00 730.64 267.00" xmlns="http://www.w3.org/2000/svg" xmlns:xlink="http://www.w3.org/1999/xlink">
<g id="graph0" class="graph" transform="scale(1 1) rotate(0) translate(4 263)">
<title>/home/travis/build/STORM&#45;IRIT/Radium&#45;Engine/src/Engine/Managers</title>
<polygon fill="white" stroke="none" points="-4,4 -4,-263 726.644,-263 726.644,4 -4,4"/>
<g id="clust1" class="cluster"><title>clusterdir_3072bc1f55ed1280fe4fbe6b21c78379</title>
<g id="a_clust1"><a xlink:href="dir_3072bc1f55ed1280fe4fbe6b21c78379.html" target="_top" xlink:title="Engine">
<polygon fill="#ddddee" stroke="black" points="133.083,-56 133.083,-215 549.083,-215 549.083,-56 133.083,-56"/>
<text text-anchor="middle" x="341.083" y="-203" font-family="Helvetica,sans-Serif" font-size="10.00">Engine</text>
</a>
</g>
</g>
<g id="clust2" class="cluster"><title>clusterdir_06113b60808b1bbb52a01dfd2c3a8657</title>
<g id="a_clust2"><a xlink:href="dir_06113b60808b1bbb52a01dfd2c3a8657.html" target="_top">
<polygon fill="#eeeeff" stroke="black" points="141.083,-64 141.083,-188 541.083,-188 541.083,-64 141.083,-64"/>
</a>
</g>
</g>
<!-- dir_06113b60808b1bbb52a01dfd2c3a8657 -->
<g id="node1" class="node"><title>dir_06113b60808b1bbb52a01dfd2c3a8657</title>
<text text-anchor="middle" x="501.083" y="-159.5" font-family="Helvetica,sans-Serif" font-size="10.00">Managers</text>
</g>
<!-- dir_9c9d2b16f43d35e4f1c4dc94ebe4380d -->
<g id="node2" class="node"><title>dir_9c9d2b16f43d35e4f1c4dc94ebe4380d</title>
<g id="a_node2"><a xlink:href="dir_9c9d2b16f43d35e4f1c4dc94ebe4380d.html" target="_top" xlink:title="CameraManager">
<polygon fill="white" stroke="black" points="450.583,-180 353.583,-180 353.583,-144 450.583,-144 450.583,-180"/>
<text text-anchor="middle" x="402.083" y="-159.5" font-family="Helvetica,sans-Serif" font-size="10.00">CameraManager</text>
</a>
</g>
</g>
<!-- dir_f60fd3cff26f751d5a136115ec0dccfa -->
<g id="node3" class="node"><title>dir_f60fd3cff26f751d5a136115ec0dccfa</title>
<g id="a_node3"><a xlink:href="dir_f60fd3cff26f751d5a136115ec0dccfa.html" target="_top" xlink:title="ComponentMessenger">
<polygon fill="white" stroke="black" points="532.583,-108 407.583,-108 407.583,-72 532.583,-72 532.583,-108"/>
<text text-anchor="middle" x="470.083" y="-87.5" font-family="Helvetica,sans-Serif" font-size="10.00">ComponentMessenger</text>
</a>
</g>
</g>
<!-- dir_9c9d2b16f43d35e4f1c4dc94ebe4380d&#45;&gt;dir_f60fd3cff26f751d5a136115ec0dccfa -->
<g id="edge5" class="edge"><title>dir_9c9d2b16f43d35e4f1c4dc94ebe4380d&#45;&gt;dir_f60fd3cff26f751d5a136115ec0dccfa</title>
<path fill="none" stroke="black" d="M418.892,-143.697C427.209,-135.135 437.388,-124.656 446.473,-115.304"/>
<polygon fill="black" stroke="black" points="449.01,-117.716 453.467,-108.104 443.989,-112.838 449.01,-117.716"/>
<g id="a_edge5&#45;headlabel"><a xlink:href="dir_000034_000035.html" target="_top" xlink:title="1">
<text text-anchor="middle" x="448.542" y="-119.773" font-family="Helvetica,sans-Serif" font-size="10.00">1</text>
</a>
</g>
</g>
<!-- dir_a2f0e5642e47e7ed59fe0f0829eafb5f -->
<g id="node8" class="node"><title>dir_a2f0e5642e47e7ed59fe0f0829eafb5f</title>
<g id="a_node8"><a xlink:href="dir_a2f0e5642e47e7ed59fe0f0829eafb5f.html" target="_top" xlink:title="Core">
<polygon fill="white" stroke="red" points="435.083,-36 381.083,-36 381.083,-0 435.083,-0 435.083,-36"/>
<text text-anchor="middle" x="408.083" y="-15.5" font-family="Helvetica,sans-Serif" font-size="10.00">Core</text>
</a>
</g>
</g>
<!-- dir_9c9d2b16f43d35e4f1c4dc94ebe4380d&#45;&gt;dir_a2f0e5642e47e7ed59fe0f0829eafb5f -->
<g id="edge1" class="edge"><title>dir_9c9d2b16f43d35e4f1c4dc94ebe4380d&#45;&gt;dir_a2f0e5642e47e7ed59fe0f0829eafb5f</title>
<path fill="none" stroke="black" d="M353.407,-146.504C350.257,-145.637 347.129,-144.795 344.083,-144 274.814,-125.924 231.689,-163.993 187.083,-108 172.682,-89.9238 172.151,-73.6397 187.083,-56 210.212,-28.6764 314.31,-21.5165 371.001,-19.6502"/>
<polygon fill="black" stroke="black" points="371.11,-23.1486 381.004,-19.3596 370.907,-16.1515 371.11,-23.1486"/>
<g id="a_edge1&#45;headlabel"><a xlink:href="dir_000034_000020.html" target="_top" xlink:title="4">
<text text-anchor="middle" x="367.599" y="-23.5909" font-family="Helvetica,sans-Serif" font-size="10.00">4</text>
</a>
</g>
</g>
<!-- dir_7205f054df4e14abb60715afe3e7e90c -->
<g id="node9" class="node"><title>dir_7205f054df4e14abb60715afe3e7e90c</title>
<g id="a_node9"><a xlink:href="dir_7205f054df4e14abb60715afe3e7e90c.html" target="_top" xlink:title="Entity">
<polygon fill="none" stroke="black" points="593.083,-259 539.083,-259 539.083,-223 593.083,-223 593.083,-259"/>
<text text-anchor="middle" x="566.083" y="-238.5" font-family="Helvetica,sans-Serif" font-size="10.00">Entity</text>
</a>
</g>
</g>
<!-- dir_9c9d2b16f43d35e4f1c4dc94ebe4380d&#45;&gt;dir_7205f054df4e14abb60715afe3e7e90c -->
<g id="edge2" class="edge"><title>dir_9c9d2b16f43d35e4f1c4dc94ebe4380d&#45;&gt;dir_7205f054df4e14abb60715afe3e7e90c</title>
<path fill="none" stroke="black" d="M417.147,-180.453C427.978,-191.925 443.54,-206.361 460.083,-215 481.302,-226.081 507.46,-232.317 528.482,-235.789"/>
<polygon fill="black" stroke="black" points="528.238,-239.292 538.648,-237.322 529.282,-232.37 528.238,-239.292"/>
<g id="a_edge2&#45;headlabel"><a xlink:href="dir_000034_000031.html" target="_top" xlink:title="1">
<text text-anchor="middle" x="524.26" y="-239.063" font-family="Helvetica,sans-Serif" font-size="10.00">1</text>
</a>
</g>
</g>
<!-- dir_eecdbbfa89a6d9af25d920c499e6f44e -->
<g id="node10" class="node"><title>dir_eecdbbfa89a6d9af25d920c499e6f44e</title>
<g id="a_node10"><a xlink:href="dir_eecdbbfa89a6d9af25d920c499e6f44e.html" target="_top" xlink:title="System">
<polygon fill="none" stroke="black" points="689.083,-108 635.083,-108 635.083,-72 689.083,-72 689.083,-108"/>
<text text-anchor="middle" x="662.083" y="-87.5" font-family="Helvetica,sans-Serif" font-size="10.00">System</text>
</a>
</g>
</g>
<!-- dir_9c9d2b16f43d35e4f1c4dc94ebe4380d&#45;&gt;dir_eecdbbfa89a6d9af25d920c499e6f44e -->
<g id="edge3" class="edge"><title>dir_9c9d2b16f43d35e4f1c4dc94ebe4380d&#45;&gt;dir_eecdbbfa89a6d9af25d920c499e6f44e</title>
<path fill="none" stroke="black" d="M450.749,-146.466C453.901,-145.608 457.033,-144.779 460.083,-144 532.808,-125.433 553.9,-131.807 625.083,-108 625.183,-107.966 625.284,-107.933 625.385,-107.899"/>
<polygon fill="black" stroke="black" points="626.762,-111.119 634.87,-104.3 624.279,-104.575 626.762,-111.119"/>
<g id="a_edge3&#45;headlabel"><a xlink:href="dir_000034_000052.html" target="_top" xlink:title="1">
<text text-anchor="middle" x="624.409" y="-112.549" font-family="Helvetica,sans-Serif" font-size="10.00">1</text>
</a>
</g>
</g>
<!-- dir_54018506bb725509c19b38b6d9bcf0f6 -->
<g id="node12" class="node"><title>dir_54018506bb725509c19b38b6d9bcf0f6</title>
<g id="a_node12"><a xlink:href="dir_54018506bb725509c19b38b6d9bcf0f6.html" target="_top" xlink:title="Renderer">
<polygon fill="white" stroke="red" points="616.583,-108 557.583,-108 557.583,-72 616.583,-72 616.583,-108"/>
<text text-anchor="middle" x="587.083" y="-87.5" font-family="Helvetica,sans-Serif" font-size="10.00">Renderer</text>
</a>
</g>
</g>
<!-- dir_9c9d2b16f43d35e4f1c4dc94ebe4380d&#45;&gt;dir_54018506bb725509c19b38b6d9bcf0f6 -->
<g id="edge4" class="edge"><title>dir_9c9d2b16f43d35e4f1c4dc94ebe4380d&#45;&gt;dir_54018506bb725509c19b38b6d9bcf0f6</title>
<path fill="none" stroke="black" d="M441.383,-143.924C468.174,-133.705 504.236,-120.344 536.083,-108 539.773,-106.57 543.635,-105.045 547.527,-103.518"/>
<polygon fill="black" stroke="black" points="549.126,-106.652 557.183,-99.7712 546.594,-100.126 549.126,-106.652"/>
<g id="a_edge4&#45;headlabel"><a xlink:href="dir_000034_000040.html" target="_top" xlink:title="2">
<text text-anchor="middle" x="546.802" y="-108.099" font-family="Helvetica,sans-Serif" font-size="10.00">2</text>
</a>
</g>
</g>
<!-- dir_f60fd3cff26f751d5a136115ec0dccfa&#45;&gt;dir_a2f0e5642e47e7ed59fe0f0829eafb5f -->
<g id="edge49" class="edge"><title>dir_f60fd3cff26f751d5a136115ec0dccfa&#45;&gt;dir_a2f0e5642e47e7ed59fe0f0829eafb5f</title>
<path fill="none" stroke="black" d="M454.757,-71.6966C447.324,-63.3046 438.259,-53.0705 430.103,-43.8613"/>
<polygon fill="black" stroke="black" points="432.483,-41.2696 423.232,-36.1043 427.243,-45.9109 432.483,-41.2696"/>
<g id="a_edge49&#45;headlabel"><a xlink:href="dir_000035_000020.html" target="_top" xlink:title="2">
<text text-anchor="middle" x="436.992" y="-39.5779" font-family="Helvetica,sans-Serif" font-size="10.00">2</text>
</a>
</g>
</g>
<!-- dir_d0f3276f03e9a9cb8f8ba3f2a5ea1262 -->
<g id="node13" class="node"><title>dir_d0f3276f03e9a9cb8f8ba3f2a5ea1262</title>
<g id="a_node13"><a xlink:href="dir_d0f3276f03e9a9cb8f8ba3f2a5ea1262.html" target="_top" xlink:title="Component">
<polygon fill="none" stroke="black" points="668.583,-180 595.583,-180 595.583,-144 668.583,-144 668.583,-180"/>
<text text-anchor="middle" x="632.083" y="-159.5" font-family="Helvetica,sans-Serif" font-size="10.00">Component</text>
</a>
</g>
</g>
<!-- dir_f60fd3cff26f751d5a136115ec0dccfa&#45;&gt;dir_d0f3276f03e9a9cb8f8ba3f2a5ea1262 -->
<g id="edge50" class="edge"><title>dir_f60fd3cff26f751d5a136115ec0dccfa&#45;&gt;dir_d0f3276f03e9a9cb8f8ba3f2a5ea1262</title>
<path fill="none" stroke="black" d="M503.655,-108.051C527.524,-118.856 559.761,-132.79 586.014,-143.652"/>
<polygon fill="black" stroke="black" points="584.81,-146.941 595.39,-147.503 587.47,-140.466 584.81,-146.941"/>
<g id="a_edge50&#45;headlabel"><a xlink:href="dir_000035_000030.html" target="_top" xlink:title="1">
<text text-anchor="middle" x="580.406" y="-145.701" font-family="Helvetica,sans-Serif" font-size="10.00">1</text>
</a>
</g>
</g>
<!-- dir_c9b08ae6a3cd90292fdc27503a26012a -->
<g id="node4" class="node"><title>dir_c9b08ae6a3cd90292fdc27503a26012a</title>
<g id="a_node4"><a xlink:href="dir_c9b08ae6a3cd90292fdc27503a26012a.html" target="_top" xlink:title="EntityManager">
<polygon fill="white" stroke="black" points="235.083,-180 149.083,-180 149.083,-144 235.083,-144 235.083,-180"/>
<text text-anchor="middle" x="192.083" y="-159.5" font-family="Helvetica,sans-Serif" font-size="10.00">EntityManager</text>
</a>
</g>
</g>
<!-- dir_f0e5825d12ad74d1d37ba8a4976c5f17 -->
<g id="node6" class="node"><title>dir_f0e5825d12ad74d1d37ba8a4976c5f17</title>
<g id="a_node6"><a xlink:href="dir_f0e5825d12ad74d1d37ba8a4976c5f17.html" target="_top" xlink:title="SignalManager">
<polygon fill="white" stroke="black" points="284.083,-108 196.083,-108 196.083,-72 284.083,-72 284.083,-108"/>
<text text-anchor="middle" x="240.083" y="-87.5" font-family="Helvetica,sans-Serif" font-size="10.00">SignalManager</text>
</a>
</g>
</g>
<!-- dir_c9b08ae6a3cd90292fdc27503a26012a&#45;&gt;dir_f0e5825d12ad74d1d37ba8a4976c5f17 -->
<g id="edge28" class="edge"><title>dir_c9b08ae6a3cd90292fdc27503a26012a&#45;&gt;dir_f0e5825d12ad74d1d37ba8a4976c5f17</title>
<path fill="none" stroke="black" d="M203.948,-143.697C209.586,-135.474 216.437,-125.483 222.651,-116.421"/>
<polygon fill="black" stroke="black" points="225.585,-118.331 228.354,-108.104 219.812,-114.372 225.585,-118.331"/>
<g id="a_edge28&#45;headlabel"><a xlink:href="dir_000036_000038.html" target="_top" xlink:title="1">
<text text-anchor="middle" x="225.894" y="-120.401" font-family="Helvetica,sans-Serif" font-size="10.00">1</text>
</a>
</g>
</g>
<!-- dir_5a1bd30bc9919aca01fcd3709dbd4eb3 -->
<g id="node7" class="node"><title>dir_5a1bd30bc9919aca01fcd3709dbd4eb3</title>
<g id="a_node7"><a xlink:href="dir_5a1bd30bc9919aca01fcd3709dbd4eb3.html" target="_top" xlink:title="SystemDisplay">
<polygon fill="white" stroke="black" points="390.083,-108 302.083,-108 302.083,-72 390.083,-72 390.083,-108"/>
<text text-anchor="middle" x="346.083" y="-87.5" font-family="Helvetica,sans-Serif" font-size="10.00">SystemDisplay</text>
</a>
</g>
</g>
<!-- dir_c9b08ae6a3cd90292fdc27503a26012a&#45;&gt;dir_5a1bd30bc9919aca01fcd3709dbd4eb3 -->
<g id="edge29" class="edge"><title>dir_c9b08ae6a3cd90292fdc27503a26012a&#45;&gt;dir_5a1bd30bc9919aca01fcd3709dbd4eb3</title>
<path fill="none" stroke="black" d="M229.755,-143.876C250.715,-134.349 276.988,-122.407 299.26,-112.283"/>
<polygon fill="black" stroke="black" points="300.877,-115.393 308.532,-108.068 297.98,-109.02 300.877,-115.393"/>
<g id="a_edge29&#45;headlabel"><a xlink:href="dir_000036_000039.html" target="_top" xlink:title="1">
<text text-anchor="middle" x="298.78" y="-116.965" font-family="Helvetica,sans-Serif" font-size="10.00">1</text>
</a>
</g>
</g>
<!-- dir_c9b08ae6a3cd90292fdc27503a26012a&#45;&gt;dir_a2f0e5642e47e7ed59fe0f0829eafb5f -->
<g id="edge27" class="edge"><title>dir_c9b08ae6a3cd90292fdc27503a26012a&#45;&gt;dir_a2f0e5642e47e7ed59fe0f0829eafb5f</title>
<path fill="none" stroke="black" d="M177.703,-143.722C160.684,-121.092 137.244,-81.3234 159.083,-56 185.929,-24.8699 307.775,-19.5114 370.507,-18.8585"/>
<polygon fill="black" stroke="black" points="370.795,-22.3567 380.77,-18.7883 370.747,-15.3568 370.795,-22.3567"/>
<g id="a_edge27&#45;headlabel"><a xlink:href="dir_000036_000020.html" target="_top" xlink:title="3">
<text text-anchor="middle" x="367.22" y="-22.7204" font-family="Helvetica,sans-Serif" font-size="10.00">3</text>
</a>
</g>
</g>
<!-- dir_aea4ed3fab8ecf600219166580b8618e -->
<g id="node5" class="node"><title>dir_aea4ed3fab8ecf600219166580b8618e</title>
<g id="a_node5"><a xlink:href="dir_aea4ed3fab8ecf600219166580b8618e.html" target="_top" xlink:title="LightManager">
<polygon fill="white" stroke="black" points="335.083,-180 253.083,-180 253.083,-144 335.083,-144 335.083,-180"/>
<text text-anchor="middle" x="294.083" y="-159.5" font-family="Helvetica,sans-Serif" font-size="10.00">LightManager</text>
</a>
</g>
</g>
<!-- dir_aea4ed3fab8ecf600219166580b8618e&#45;&gt;dir_f60fd3cff26f751d5a136115ec0dccfa -->
<g id="edge21" class="edge"><title>dir_aea4ed3fab8ecf600219166580b8618e&#45;&gt;dir_f60fd3cff26f751d5a136115ec0dccfa</title>
<path fill="none" stroke="black" d="M335.347,-144.588C359.96,-134.799 391.445,-122.276 417.789,-111.799"/>
<polygon fill="black" stroke="black" points="419.241,-114.988 427.239,-108.04 416.654,-108.484 419.241,-114.988"/>
<g id="a_edge21&#45;headlabel"><a xlink:href="dir_000037_000035.html" target="_top" xlink:title="1">
<text text-anchor="middle" x="416.95" y="-116.455" font-family="Helvetica,sans-Serif" font-size="10.00">1</text>
</a>
</g>
</g>
<!-- dir_aea4ed3fab8ecf600219166580b8618e&#45;&gt;dir_5a1bd30bc9919aca01fcd3709dbd4eb3 -->
<g id="edge20" class="edge"><title>dir_aea4ed3fab8ecf600219166580b8618e&#45;&gt;dir_5a1bd30bc9919aca01fcd3709dbd4eb3</title>
<path fill="none" stroke="black" d="M306.937,-143.697C313.108,-135.389 320.62,-125.277 327.407,-116.141"/>
<polygon fill="black" stroke="black" points="330.223,-118.219 333.377,-108.104 324.604,-114.045 330.223,-118.219"/>
<g id="a_edge20&#45;headlabel"><a xlink:href="dir_000037_000039.html" target="_top" xlink:title="1">
<text text-anchor="middle" x="330.359" y="-120.298" font-family="Helvetica,sans-Serif" font-size="10.00">1</text>
</a>
</g>
</g>
<!-- dir_aea4ed3fab8ecf600219166580b8618e&#45;&gt;dir_a2f0e5642e47e7ed59fe0f0829eafb5f -->
<g id="edge16" class="edge"><title>dir_aea4ed3fab8ecf600219166580b8618e&#45;&gt;dir_a2f0e5642e47e7ed59fe0f0829eafb5f</title>
<path fill="none" stroke="black" d="M252.76,-145.477C219.614,-132.611 177.851,-115.295 173.083,-108 160.437,-88.6555 158.065,-73.567 173.083,-56 198.084,-26.7549 311.167,-20.4803 370.88,-19.2313"/>
<polygon fill="black" stroke="black" points="371.09,-22.7283 381.028,-19.0568 370.97,-15.7293 371.09,-22.7283"/>
<g id="a_edge16&#45;headlabel"><a xlink:href="dir_000037_000020.html" target="_top" xlink:title="4">
<text text-anchor="middle" x="367.545" y="-23.1288" font-family="Helvetica,sans-Serif" font-size="10.00">4</text>
</a>
</g>
</g>
<!-- dir_aea4ed3fab8ecf600219166580b8618e&#45;&gt;dir_7205f054df4e14abb60715afe3e7e90c -->
<g id="edge17" class="edge"><title>dir_aea4ed3fab8ecf600219166580b8618e&#45;&gt;dir_7205f054df4e14abb60715afe3e7e90c</title>
<path fill="none" stroke="black" d="M305.511,-180.068C314.496,-191.989 328.136,-207.128 344.083,-215 375.628,-230.573 473.941,-236.629 528.556,-238.836"/>
<polygon fill="black" stroke="black" points="528.738,-242.345 538.864,-239.228 529.004,-235.35 528.738,-242.345"/>
<g id="a_edge17&#45;headlabel"><a xlink:href="dir_000037_000031.html" target="_top" xlink:title="1">
<text text-anchor="middle" x="525.038" y="-242.546" font-family="Helvetica,sans-Serif" font-size="10.00">1</text>
</a>
</g>
</g>
<!-- dir_aea4ed3fab8ecf600219166580b8618e&#45;&gt;dir_eecdbbfa89a6d9af25d920c499e6f44e -->
<g id="edge18" class="edge"><title>dir_aea4ed3fab8ecf600219166580b8618e&#45;&gt;dir_eecdbbfa89a6d9af25d920c499e6f44e</title>
<path fill="none" stroke="black" d="M335.094,-146.329C338.117,-145.472 341.135,-144.683 344.083,-144 466.746,-115.592 504.044,-142.682 625.083,-108 625.185,-107.971 625.287,-107.941 625.389,-107.912"/>
<polygon fill="black" stroke="black" points="626.664,-111.174 634.958,-104.58 624.363,-104.563 626.664,-111.174"/>
<g id="a_edge18&#45;headlabel"><a xlink:href="dir_000037_000052.html" target="_top" xlink:title="1">
<text text-anchor="middle" x="624.203" y="-112.537" font-family="Helvetica,sans-Serif" font-size="10.00">1</text>
</a>
</g>
</g>
<!-- dir_aea4ed3fab8ecf600219166580b8618e&#45;&gt;dir_54018506bb725509c19b38b6d9bcf0f6 -->
<g id="edge19" class="edge"><title>dir_aea4ed3fab8ecf600219166580b8618e&#45;&gt;dir_54018506bb725509c19b38b6d9bcf0f6</title>
<path fill="none" stroke="black" d="M335.34,-143.934C423.011,-121.352 448.97,-133.136 536.083,-108 539.885,-106.903 543.816,-105.58 547.745,-104.163"/>
<polygon fill="black" stroke="black" points="549.306,-107.315 557.436,-100.521 546.844,-100.763 549.306,-107.315"/>
<g id="a_edge19&#45;headlabel"><a xlink:href="dir_000037_000040.html" target="_top" xlink:title="5">
<text text-anchor="middle" x="546.94" y="-108.738" font-family="Helvetica,sans-Serif" font-size="10.00">5</text>
</a>
</g>
</g>
<!-- dir_d3d507863844f6311a74cf28116d817e -->
<g id="node11" class="node"><title>dir_d3d507863844f6311a74cf28116d817e</title>
<g id="a_node11"><a xlink:href="dir_d3d507863844f6311a74cf28116d817e.html" target="_top" xlink:title="ItemModel">
<polygon fill="none" stroke="black" points="151.583,-259 84.5828,-259 84.5828,-223 151.583,-223 151.583,-259"/>
<text text-anchor="middle" x="118.083" y="-238.5" font-family="Helvetica,sans-Serif" font-size="10.00">ItemModel</text>
</a>
</g>
</g>
<!-- dir_f0e5825d12ad74d1d37ba8a4976c5f17&#45;&gt;dir_d3d507863844f6311a74cf28116d817e -->
<g id="edge15" class="edge"><title>dir_f0e5825d12ad74d1d37ba8a4976c5f17&#45;&gt;dir_d3d507863844f6311a74cf28116d817e</title>
<path fill="none" stroke="black" d="M195.645,-95.9184C140.447,-103.049 51.0815,-118.297 31.0828,-144 11.7051,-168.905 12.0993,-189.793 31.0828,-215 41.2608,-228.515 58.2642,-235.084 74.5524,-238.159"/>
<polygon fill="black" stroke="black" points="74.1263,-241.634 84.5343,-239.653 75.1626,-234.711 74.1263,-241.634"/>
<g id="a_edge15&#45;headlabel"><a xlink:href="dir_000038_000032.html" target="_top" xlink:title="1">
<text text-anchor="middle" x="70.151" y="-241.41" font-family="Helvetica,sans-Serif" font-size="10.00">1</text>
</a>
</g>
</g>
<!-- dir_5a1bd30bc9919aca01fcd3709dbd4eb3&#45;&gt;dir_a2f0e5642e47e7ed59fe0f0829eafb5f -->
<g id="edge45" class="edge"><title>dir_5a1bd30bc9919aca01fcd3709dbd4eb3&#45;&gt;dir_a2f0e5642e47e7ed59fe0f0829eafb5f</title>
<path fill="none" stroke="black" d="M361.409,-71.6966C368.842,-63.3046 377.906,-53.0705 386.063,-43.8613"/>
<polygon fill="black" stroke="black" points="388.923,-45.9109 392.933,-36.1043 383.683,-41.2696 388.923,-45.9109"/>
<g id="a_edge45&#45;headlabel"><a xlink:href="dir_000039_000020.html" target="_top" xlink:title="2">
<text text-anchor="middle" x="388.665" y="-47.9843" font-family="Helvetica,sans-Serif" font-size="10.00">2</text>
</a>
</g>
</g>
<!-- dir_5a1bd30bc9919aca01fcd3709dbd4eb3&#45;&gt;dir_7205f054df4e14abb60715afe3e7e90c -->
<g id="edge46" class="edge"><title>dir_5a1bd30bc9919aca01fcd3709dbd4eb3&#45;&gt;dir_7205f054df4e14abb60715afe3e7e90c</title>
<path fill="none" stroke="black" d="M301.915,-105.456C298.934,-106.342 295.969,-107.199 293.083,-108 225.77,-126.683 183.455,-89.2382 140.083,-144 120.491,-168.737 118.433,-192.043 140.083,-215 153.322,-229.039 427.252,-236.787 528.714,-239.184"/>
<polygon fill="black" stroke="black" points="528.74,-242.685 538.818,-239.418 528.902,-235.687 528.74,-242.685"/>
<g id="a_edge46&#45;headlabel"><a xlink:href="dir_000039_000031.html" target="_top" xlink:title="1">
<text text-anchor="middle" x="525.08" y="-242.941" font-family="Helvetica,sans-Serif" font-size="10.00">1</text>
</a>
</g>
</g>
<!-- dir_5a1bd30bc9919aca01fcd3709dbd4eb3&#45;&gt;dir_54018506bb725509c19b38b6d9bcf0f6 -->
<g id="edge47" class="edge"><title>dir_5a1bd30bc9919aca01fcd3709dbd4eb3&#45;&gt;dir_54018506bb725509c19b38b6d9bcf0f6</title>
<path fill="none" stroke="black" d="M369.95,-108.104C380.698,-115.159 393.915,-122.404 407.083,-126 462.391,-141.103 481.436,-143.344 536.083,-126 544.072,-123.464 551.89,-119.175 558.909,-114.422"/>
<polygon fill="black" stroke="black" points="561.33,-116.987 567.327,-108.253 557.192,-111.341 561.33,-116.987"/>
<g id="a_edge47&#45;headlabel"><a xlink:href="dir_000039_000040.html" target="_top" xlink:title="2">
<text text-anchor="middle" x="560.11" y="-118.902" font-family="Helvetica,sans-Serif" font-size="10.00">2</text>
</a>
</g>
</g>
<!-- dir_5a1bd30bc9919aca01fcd3709dbd4eb3&#45;&gt;dir_d0f3276f03e9a9cb8f8ba3f2a5ea1262 -->
<g id="edge48" class="edge"><title>dir_5a1bd30bc9919aca01fcd3709dbd4eb3&#45;&gt;dir_d0f3276f03e9a9cb8f8ba3f2a5ea1262</title>
<path fill="none" stroke="black" d="M390.252,-105.75C392.894,-106.536 395.519,-107.292 398.083,-108 462.423,-125.762 537.9,-142.054 585.362,-151.757"/>
<polygon fill="black" stroke="black" points="584.845,-155.223 595.341,-153.784 586.238,-148.363 584.845,-155.223"/>
<g id="a_edge48&#45;headlabel"><a xlink:href="dir_000039_000030.html" target="_top" xlink:title="1">
<text text-anchor="middle" x="580.757" y="-154.79" font-family="Helvetica,sans-Serif" font-size="10.00">1</text>
</a>
</g>
</g>
<!-- dir_7205f054df4e14abb60715afe3e7e90c&#45;&gt;dir_06113b60808b1bbb52a01dfd2c3a8657 -->
<g id="edge8" class="edge"><title>dir_7205f054df4e14abb60715afe3e7e90c&#45;&gt;dir_06113b60808b1bbb52a01dfd2c3a8657</title>
<path fill="none" stroke="black" d="M551.657,-222.911C542.989,-212.643 531.807,-199.396 522.162,-187.97"/>
<polygon fill="black" stroke="black" points="524.593,-185.425 515.468,-180.041 519.244,-189.94 524.593,-185.425"/>
<g id="a_edge8&#45;headlabel"><a xlink:href="dir_000031_000033.html" target="_top" xlink:title="1">
<text text-anchor="middle" x="529.081" y="-183.84" font-family="Helvetica,sans-Serif" font-size="10.00">1</text>
</a>
</g>
</g>
<!-- dir_7205f054df4e14abb60715afe3e7e90c&#45;&gt;dir_f0e5825d12ad74d1d37ba8a4976c5f17 -->
<g id="edge7" class="edge"><title>dir_7205f054df4e14abb60715afe3e7e90c&#45;&gt;dir_f0e5825d12ad74d1d37ba8a4976c5f17</title>
<path fill="none" stroke="black" d="M539.078,-238.98C443.747,-235.316 128.301,-222.635 121.083,-215 99.4044,-192.07 103.898,-170.466 121.083,-144 135.588,-121.66 161.933,-108.658 186.154,-101.13"/>
<polygon fill="black" stroke="black" points="187.351,-104.428 196.008,-98.3203 185.432,-97.6968 187.351,-104.428"/>
<g id="a_edge7&#45;headlabel"><a xlink:href="dir_000031_000038.html" target="_top" xlink:title="1">
<text text-anchor="middle" x="184.673" y="-105.645" font-family="Helvetica,sans-Serif" font-size="10.00">1</text>
</a>
</g>
</g>
<!-- dir_7205f054df4e14abb60715afe3e7e90c&#45;&gt;dir_a2f0e5642e47e7ed59fe0f0829eafb5f -->
<g id="edge6" class="edge"><title>dir_7205f054df4e14abb60715afe3e7e90c&#45;&gt;dir_a2f0e5642e47e7ed59fe0f0829eafb5f</title>
<path fill="none" stroke="black" d="M593.218,-239.581C632.537,-238.335 702.376,-233.501 718.083,-215 724.708,-207.196 723.603,-63.2635 717.083,-56 699.202,-36.0795 523.826,-24.8277 445.516,-20.7613"/>
<polygon fill="black" stroke="black" points="445.301,-17.246 435.137,-20.235 444.947,-24.237 445.301,-17.246"/>
<g id="a_edge6&#45;headlabel"><a xlink:href="dir_000031_000020.html" target="_top" xlink:title="3">
<text text-anchor="middle" x="449.035" y="-12.0923" font-family="Helvetica,sans-Serif" font-size="10.00">3</text>
</a>
</g>
</g>
<!-- dir_7205f054df4e14abb60715afe3e7e90c&#45;&gt;dir_d0f3276f03e9a9cb8f8ba3f2a5ea1262 -->
<g id="edge9" class="edge"><title>dir_7205f054df4e14abb60715afe3e7e90c&#45;&gt;dir_d0f3276f03e9a9cb8f8ba3f2a5ea1262</title>
<path fill="none" stroke="black" d="M575.01,-222.911C582.78,-212.544 594.061,-199.138 604.62,-187.638"/>
<polygon fill="black" stroke="black" points="607.462,-189.724 611.761,-180.041 602.362,-184.93 607.462,-189.724"/>
<g id="a_edge9&#45;headlabel"><a xlink:href="dir_000031_000030.html" target="_top" xlink:title="1">
<text text-anchor="middle" x="607.068" y="-191.788" font-family="Helvetica,sans-Serif" font-size="10.00">1</text>
</a>
</g>
</g>
<!-- dir_eecdbbfa89a6d9af25d920c499e6f44e&#45;&gt;dir_06113b60808b1bbb52a01dfd2c3a8657 -->
<g id="edge12" class="edge"><title>dir_eecdbbfa89a6d9af25d920c499e6f44e&#45;&gt;dir_06113b60808b1bbb52a01dfd2c3a8657</title>
<path fill="none" stroke="black" d="M635.043,-103.525C631.695,-105.046 628.314,-106.567 625.083,-108 597.686,-120.146 566.684,-133.397 542.532,-143.611"/>
<polygon fill="black" stroke="black" points="541.152,-140.394 533.3,-147.508 543.874,-146.843 541.152,-140.394"/>
<g id="a_edge12&#45;headlabel"><a xlink:href="dir_000052_000033.html" target="_top" xlink:title="1">
<text text-anchor="middle" x="543.359" y="-133.881" font-family="Helvetica,sans-Serif" font-size="10.00">1</text>
</a>
</g>
</g>
<!-- dir_eecdbbfa89a6d9af25d920c499e6f44e&#45;&gt;dir_f60fd3cff26f751d5a136115ec0dccfa -->
<g id="edge14" class="edge"><title>dir_eecdbbfa89a6d9af25d920c499e6f44e&#45;&gt;dir_f60fd3cff26f751d5a136115ec0dccfa</title>
<path fill="none" stroke="black" d="M644.554,-108.224C636.605,-115.206 626.629,-122.364 616.083,-126 581.23,-138.017 540.402,-125.822 510.796,-112.47"/>
<polygon fill="black" stroke="black" points="512.137,-109.232 501.6,-108.123 509.145,-115.561 512.137,-109.232"/>
<g id="a_edge14&#45;headlabel"><a xlink:href="dir_000052_000035.html" target="_top" xlink:title="1">
<text text-anchor="middle" x="516.6" y="-105.701" font-family="Helvetica,sans-Serif" font-size="10.00">1</text>
</a>
</g>
</g>
<!-- dir_eecdbbfa89a6d9af25d920c499e6f44e&#45;&gt;dir_a2f0e5642e47e7ed59fe0f0829eafb5f -->
<g id="edge10" class="edge"><title>dir_eecdbbfa89a6d9af25d920c499e6f44e&#45;&gt;dir_a2f0e5642e47e7ed59fe0f0829eafb5f</title>
<path fill="none" stroke="black" d="M646.612,-71.6756C640.474,-65.82 632.994,-59.8077 625.083,-56 566.583,-27.8422 490.165,-20.7619 445.371,-19.1848"/>
<polygon fill="black" stroke="black" points="445.327,-15.6823 435.233,-18.9036 445.133,-22.6796 445.327,-15.6823"/>
<g id="a_edge10&#45;headlabel"><a xlink:href="dir_000052_000020.html" target="_top" xlink:title="4">
<text text-anchor="middle" x="448.999" y="-10.4437" font-family="Helvetica,sans-Serif" font-size="10.00">4</text>
</a>
</g>
</g>
<!-- dir_eecdbbfa89a6d9af25d920c499e6f44e&#45;&gt;dir_7205f054df4e14abb60715afe3e7e90c -->
<g id="edge11" class="edge"><title>dir_eecdbbfa89a6d9af25d920c499e6f44e&#45;&gt;dir_7205f054df4e14abb60715afe3e7e90c</title>
<path fill="none" stroke="black" d="M677.693,-108.226C685.456,-117.97 694.029,-130.816 698.083,-144 707.358,-174.162 718.213,-190.699 698.083,-215 686.25,-229.284 638.17,-235.469 603.449,-238.105"/>
<polygon fill="black" stroke="black" points="602.893,-234.635 593.158,-238.814 603.375,-241.618 602.893,-234.635"/>
<g id="a_edge11&#45;headlabel"><a xlink:href="dir_000052_000031.html" target="_top" xlink:title="2">
<text text-anchor="middle" x="606.284" y="-229.055" font-family="Helvetica,sans-Serif" font-size="10.00">2</text>
</a>
</g>
</g>
<!-- dir_eecdbbfa89a6d9af25d920c499e6f44e&#45;&gt;dir_d0f3276f03e9a9cb8f8ba3f2a5ea1262 -->
<g id="edge13" class="edge"><title>dir_eecdbbfa89a6d9af25d920c499e6f44e&#45;&gt;dir_d0f3276f03e9a9cb8f8ba3f2a5ea1262</title>
<path fill="none" stroke="black" d="M660.647,-108.104C658.076,-116.045 654.178,-125.666 650.003,-134.515"/>
<polygon fill="black" stroke="black" points="646.754,-133.187 645.414,-143.697 653.015,-136.316 646.754,-133.187"/>
<g id="a_edge13&#45;headlabel"><a xlink:href="dir_000052_000030.html" target="_top" xlink:title="2">
<text text-anchor="middle" x="645.821" y="-126.202" font-family="Helvetica,sans-Serif" font-size="10.00">2</text>
</a>
</g>
</g>
<!-- dir_d3d507863844f6311a74cf28116d817e&#45;&gt;dir_06113b60808b1bbb52a01dfd2c3a8657 -->
<g id="edge24" class="edge"><title>dir_d3d507863844f6311a74cf28116d817e&#45;&gt;dir_06113b60808b1bbb52a01dfd2c3a8657</title>
<path fill="none" stroke="black" d="M151.849,-239.044C232.631,-236.542 432.328,-229.007 459.083,-215 470.374,-209.089 479.708,-198.679 486.685,-188.718"/>
<polygon fill="black" stroke="black" points="489.7,-190.5 492.199,-180.205 483.825,-186.695 489.7,-190.5"/>
<g id="a_edge24&#45;headlabel"><a xlink:href="dir_000032_000033.html" target="_top" xlink:title="2">
<text text-anchor="middle" x="490.129" y="-192.561" font-family="Helvetica,sans-Serif" font-size="10.00">2</text>
</a>
</g>
</g>
<!-- dir_d3d507863844f6311a74cf28116d817e&#45;&gt;dir_c9b08ae6a3cd90292fdc27503a26012a -->
<g id="edge23" class="edge"><title>dir_d3d507863844f6311a74cf28116d817e&#45;&gt;dir_c9b08ae6a3cd90292fdc27503a26012a</title>
<path fill="none" stroke="black" d="M134.506,-222.911C144.565,-212.444 157.6,-198.88 168.723,-187.307"/>
<polygon fill="black" stroke="black" points="171.3,-189.676 175.706,-180.041 166.253,-184.826 171.3,-189.676"/>
<g id="a_edge23&#45;headlabel"><a xlink:href="dir_000032_000036.html" target="_top" xlink:title="1">
<text text-anchor="middle" x="170.856" y="-191.736" font-family="Helvetica,sans-Serif" font-size="10.00">1</text>
</a>
</g>
</g>
<!-- dir_d3d507863844f6311a74cf28116d817e&#45;&gt;dir_5a1bd30bc9919aca01fcd3709dbd4eb3 -->
<g id="edge26" class="edge"><title>dir_d3d507863844f6311a74cf28116d817e&#45;&gt;dir_5a1bd30bc9919aca01fcd3709dbd4eb3</title>
<path fill="none" stroke="black" d="M112.887,-222.873C107.634,-201.758 102.653,-165.976 121.083,-144 169.21,-86.6119 213.769,-124.536 291.746,-107.975"/>
<polygon fill="black" stroke="black" points="293.025,-111.268 301.938,-105.539 291.398,-104.459 293.025,-111.268"/>
<g id="a_edge26&#45;headlabel"><a xlink:href="dir_000032_000039.html" target="_top" xlink:title="1">
<text text-anchor="middle" x="290.189" y="-112.365" font-family="Helvetica,sans-Serif" font-size="10.00">1</text>
</a>
</g>
</g>
<!-- dir_d3d507863844f6311a74cf28116d817e&#45;&gt;dir_a2f0e5642e47e7ed59fe0f0829eafb5f -->
<g id="edge22" class="edge"><title>dir_d3d507863844f6311a74cf28116d817e&#45;&gt;dir_a2f0e5642e47e7ed59fe0f0829eafb5f</title>
<path fill="none" stroke="black" d="M84.5459,-236.508C57.2715,-232.894 21.91,-226.176 13.0828,-215 -6.47633,-190.237 -1.39936,-172.036 13.0828,-144 44.0975,-83.9583 74.2358,-80.843 137.083,-56 216.157,-24.7425 317.199,-19.1098 370.79,-18.5473"/>
<polygon fill="black" stroke="black" points="370.873,-22.047 380.855,-18.4963 370.837,-15.0471 370.873,-22.047"/>
<g id="a_edge22&#45;headlabel"><a xlink:href="dir_000032_000020.html" target="_top" xlink:title="1">
<text text-anchor="middle" x="367.293" y="-22.4044" font-family="Helvetica,sans-Serif" font-size="10.00">1</text>
</a>
</g>
</g>
<!-- dir_d3d507863844f6311a74cf28116d817e&#45;&gt;dir_54018506bb725509c19b38b6d9bcf0f6 -->
<g id="edge25" class="edge"><title>dir_d3d507863844f6311a74cf28116d817e&#45;&gt;dir_54018506bb725509c19b38b6d9bcf0f6</title>
<path fill="none" stroke="black" d="M151.826,-240.158C247.243,-240.313 514.115,-238.607 545.083,-215 574.735,-192.395 583.631,-147.844 586.196,-118.755"/>
<polygon fill="black" stroke="black" points="589.711,-118.656 586.899,-108.441 582.727,-118.18 589.711,-118.656"/>
<g id="a_edge25&#45;headlabel"><a xlink:href="dir_000032_000040.html" target="_top" xlink:title="2">
<text text-anchor="middle" x="592.299" y="-119.935" font-family="Helvetica,sans-Serif" font-size="10.00">2</text>
</a>
</g>
</g>
<!-- dir_54018506bb725509c19b38b6d9bcf0f6&#45;&gt;dir_06113b60808b1bbb52a01dfd2c3a8657 -->
<g id="edge35" class="edge"><title>dir_54018506bb725509c19b38b6d9bcf0f6&#45;&gt;dir_06113b60808b1bbb52a01dfd2c3a8657</title>
<path fill="none" stroke="black" d="M566.069,-108.104C555.276,-116.889 541.955,-127.732 530.188,-137.309"/>
<polygon fill="black" stroke="black" points="527.887,-134.669 522.341,-143.697 532.306,-140.098 527.887,-134.669"/>
<g id="a_edge35&#45;headlabel"><a xlink:href="dir_000040_000033.html" target="_top" xlink:title="5">
<text text-anchor="middle" x="528.883" y="-127.698" font-family="Helvetica,sans-Serif" font-size="10.00">5</text>
</a>
</g>
</g>
<!-- dir_54018506bb725509c19b38b6d9bcf0f6&#45;&gt;dir_9c9d2b16f43d35e4f1c4dc94ebe4380d -->
<g id="edge30" class="edge"><title>dir_54018506bb725509c19b38b6d9bcf0f6&#45;&gt;dir_9c9d2b16f43d35e4f1c4dc94ebe4380d</title>
<path fill="none" stroke="black" d="M557.197,-106.786C556.15,-107.197 555.11,-107.602 554.083,-108 523.497,-119.855 489.023,-132.649 460.568,-142.696"/>
<polygon fill="black" stroke="black" points="459.05,-139.519 450.77,-146.129 461.365,-146.125 459.05,-139.519"/>
<g id="a_edge30&#45;headlabel"><a xlink:href="dir_000040_000034.html" target="_top" xlink:title="1">
<text text-anchor="middle" x="461.504" y="-133.151" font-family="Helvetica,sans-Serif" font-size="10.00">1</text>
</a>
</g>
</g>
<!-- dir_54018506bb725509c19b38b6d9bcf0f6&#45;&gt;dir_aea4ed3fab8ecf600219166580b8618e -->
<g id="edge34" class="edge"><title>dir_54018506bb725509c19b38b6d9bcf0f6&#45;&gt;dir_aea4ed3fab8ecf600219166580b8618e</title>
<path fill="none" stroke="black" d="M557.281,-107.035C556.209,-107.372 555.141,-107.695 554.083,-108 466.885,-133.16 440.96,-121.329 353.083,-144 350.468,-144.675 347.793,-145.419 345.093,-146.208"/>
<polygon fill="black" stroke="black" points="343.802,-142.943 335.265,-149.218 345.852,-149.636 343.802,-142.943"/>
<g id="a_edge34&#45;headlabel"><a xlink:href="dir_000040_000037.html" target="_top" xlink:title="2">
<text text-anchor="middle" x="346.408" y="-136.676" font-family="Helvetica,sans-Serif" font-size="10.00">2</text>
</a>
</g>
</g>
<!-- dir_54018506bb725509c19b38b6d9bcf0f6&#45;&gt;dir_f0e5825d12ad74d1d37ba8a4976c5f17 -->
<g id="edge33" class="edge"><title>dir_54018506bb725509c19b38b6d9bcf0f6&#45;&gt;dir_f0e5825d12ad74d1d37ba8a4976c5f17</title>
<path fill="none" stroke="black" d="M567.327,-108.253C558.46,-115.24 547.446,-122.394 536.083,-126 486.519,-141.731 352.294,-139.521 302.083,-126 292.077,-123.306 282.022,-118.557 273.009,-113.374"/>
<polygon fill="black" stroke="black" points="274.741,-110.331 264.382,-108.107 271.093,-116.306 274.741,-110.331"/>
<g id="a_edge33&#45;headlabel"><a xlink:href="dir_000040_000038.html" target="_top" xlink:title="1">
<text text-anchor="middle" x="279.289" y="-107.281" font-family="Helvetica,sans-Serif" font-size="10.00">1</text>
</a>
</g>
</g>
<!-- dir_54018506bb725509c19b38b6d9bcf0f6&#45;&gt;dir_5a1bd30bc9919aca01fcd3709dbd4eb3 -->
<g id="edge37" class="edge"><title>dir_54018506bb725509c19b38b6d9bcf0f6&#45;&gt;dir_5a1bd30bc9919aca01fcd3709dbd4eb3</title>
<path fill="none" stroke="black" d="M567.327,-108.253C558.46,-115.24 547.446,-122.394 536.083,-126 481.436,-143.344 462.391,-141.103 407.083,-126 397.31,-123.331 387.51,-118.652 378.712,-113.533"/>
<polygon fill="black" stroke="black" points="380.294,-110.395 369.95,-108.104 376.608,-116.346 380.294,-110.395"/>
<g id="a_edge37&#45;headlabel"><a xlink:href="dir_000040_000039.html" target="_top" xlink:title="1">
<text text-anchor="middle" x="384.845" y="-107.375" font-family="Helvetica,sans-Serif" font-size="10.00">1</text>
</a>
</g>
</g>
<!-- dir_54018506bb725509c19b38b6d9bcf0f6&#45;&gt;dir_a2f0e5642e47e7ed59fe0f0829eafb5f -->
<g id="edge31" class="edge"><title>dir_54018506bb725509c19b38b6d9bcf0f6&#45;&gt;dir_a2f0e5642e47e7ed59fe0f0829eafb5f</title>
<path fill="none" stroke="black" d="M568.536,-71.8035C561.594,-66.1021 553.372,-60.1573 545.083,-56 513.211,-40.015 473.589,-30.2784 445.167,-24.8342"/>
<polygon fill="black" stroke="black" points="445.704,-21.3744 435.238,-23.019 444.445,-28.2603 445.704,-21.3744"/>
<g id="a_edge31&#45;headlabel"><a xlink:href="dir_000040_000020.html" target="_top" xlink:title="63">
<text text-anchor="middle" x="449.751" y="-16.7277" font-family="Helvetica,sans-Serif" font-size="10.00">63</text>
</a>
</g>
</g>
<!-- dir_54018506bb725509c19b38b6d9bcf0f6&#45;&gt;dir_7205f054df4e14abb60715afe3e7e90c -->
<g id="edge32" class="edge"><title>dir_54018506bb725509c19b38b6d9bcf0f6&#45;&gt;dir_7205f054df4e14abb60715afe3e7e90c</title>
<path fill="none" stroke="black" d="M616.656,-104.436C640.197,-115.811 670.289,-132.114 677.083,-144 692.743,-171.396 696.793,-190.357 677.083,-215 667.907,-226.472 631.925,-233.053 603.382,-236.553"/>
<polygon fill="black" stroke="black" points="602.806,-233.096 593.267,-237.707 603.599,-240.051 602.806,-233.096"/>
<g id="a_edge32&#45;headlabel"><a xlink:href="dir_000040_000031.html" target="_top" xlink:title="3">
<text text-anchor="middle" x="606.056" y="-227.368" font-family="Helvetica,sans-Serif" font-size="10.00">3</text>
</a>
</g>
</g>
<!-- dir_54018506bb725509c19b38b6d9bcf0f6&#45;&gt;dir_d0f3276f03e9a9cb8f8ba3f2a5ea1262 -->
<g id="edge36" class="edge"><title>dir_54018506bb725509c19b38b6d9bcf0f6&#45;&gt;dir_d0f3276f03e9a9cb8f8ba3f2a5ea1262</title>
<path fill="none" stroke="black" d="M603.973,-108.104C609.973,-116.129 616.456,-125.871 621.795,-134.797"/>
<polygon fill="black" stroke="black" points="618.878,-136.747 626.875,-143.697 624.957,-133.277 618.878,-136.747"/>
<g id="a_edge36&#45;headlabel"><a xlink:href="dir_000040_000030.html" target="_top" xlink:title="4">
<text text-anchor="middle" x="614.63" y="-132.533" font-family="Helvetica,sans-Serif" font-size="10.00">4</text>
</a>
</g>
</g>
<!-- dir_d0f3276f03e9a9cb8f8ba3f2a5ea1262&#45;&gt;dir_06113b60808b1bbb52a01dfd2c3a8657 -->
<g id="edge42" class="edge"><title>dir_d0f3276f03e9a9cb8f8ba3f2a5ea1262&#45;&gt;dir_06113b60808b1bbb52a01dfd2c3a8657</title>
<path fill="none" stroke="black" d="M595.433,-162C578.126,-162 560.818,-162 543.511,-162"/>
<polygon fill="black" stroke="black" points="543.321,-158.5 533.321,-162 543.321,-165.5 543.321,-158.5"/>
<g id="a_edge42&#45;headlabel"><a xlink:href="dir_000030_000033.html" target="_top" xlink:title="2">
<text text-anchor="middle" x="546.916" y="-153.161" font-family="Helvetica,sans-Serif" font-size="10.00">2</text>
</a>
</g>
</g>
<!-- dir_d0f3276f03e9a9cb8f8ba3f2a5ea1262&#45;&gt;dir_f60fd3cff26f751d5a136115ec0dccfa -->
<g id="edge44" class="edge"><title>dir_d0f3276f03e9a9cb8f8ba3f2a5ea1262&#45;&gt;dir_f60fd3cff26f751d5a136115ec0dccfa</title>
<path fill="none" stroke="black" d="M598.35,-143.876C577.111,-134.264 549.292,-122.193 524.958,-112.013"/>
<polygon fill="black" stroke="black" points="526.052,-108.677 515.475,-108.068 523.364,-115.14 526.052,-108.677"/>
<g id="a_edge44&#45;headlabel"><a xlink:href="dir_000030_000035.html" target="_top" xlink:title="1">
<text text-anchor="middle" x="530.462" y="-104.936" font-family="Helvetica,sans-Serif" font-size="10.00">1</text>
</a>
</g>
</g>
<!-- dir_d0f3276f03e9a9cb8f8ba3f2a5ea1262&#45;&gt;dir_f0e5825d12ad74d1d37ba8a4976c5f17 -->
<g id="edge41" class="edge"><title>dir_d0f3276f03e9a9cb8f8ba3f2a5ea1262&#45;&gt;dir_f0e5825d12ad74d1d37ba8a4976c5f17</title>
<path fill="none" stroke="black" d="M595.33,-153.387C579.85,-150.292 561.623,-146.796 545.083,-144 436.687,-125.679 405.114,-132.924 294.088,-108.017"/>
<polygon fill="black" stroke="black" points="294.702,-104.567 284.174,-105.756 293.146,-111.392 294.702,-104.567"/>
<g id="a_edge41&#45;headlabel"><a xlink:href="dir_000030_000038.html" target="_top" xlink:title="1">
<text text-anchor="middle" x="298.838" y="-100.098" font-family="Helvetica,sans-Serif" font-size="10.00">1</text>
</a>
</g>
</g>
<!-- dir_d0f3276f03e9a9cb8f8ba3f2a5ea1262&#45;&gt;dir_a2f0e5642e47e7ed59fe0f0829eafb5f -->
<g id="edge38" class="edge"><title>dir_d0f3276f03e9a9cb8f8ba3f2a5ea1262&#45;&gt;dir_a2f0e5642e47e7ed59fe0f0829eafb5f</title>
<path fill="none" stroke="black" d="M664.136,-143.88C677.202,-135.055 690.903,-122.974 698.083,-108 708.075,-87.1607 713.356,-73.3453 698.083,-56 681.639,-37.3244 520.212,-25.5491 445.577,-21.0615"/>
<polygon fill="black" stroke="black" points="445.411,-17.5457 435.223,-20.4523 445,-24.5336 445.411,-17.5457"/>
<g id="a_edge38&#45;headlabel"><a xlink:href="dir_000030_000020.html" target="_top" xlink:title="12">
<text text-anchor="middle" x="449.166" y="-12.4224" font-family="Helvetica,sans-Serif" font-size="10.00">12</text>
</a>
</g>
</g>
<!-- dir_d0f3276f03e9a9cb8f8ba3f2a5ea1262&#45;&gt;dir_7205f054df4e14abb60715afe3e7e90c -->
<g id="edge39" class="edge"><title>dir_d0f3276f03e9a9cb8f8ba3f2a5ea1262&#45;&gt;dir_7205f054df4e14abb60715afe3e7e90c</title>
<path fill="none" stroke="black" d="M623.191,-180.041C615.432,-190.399 604.155,-203.803 593.595,-215.309"/>
<polygon fill="black" stroke="black" points="590.748,-213.227 586.45,-222.911 595.849,-218.021 590.748,-213.227"/>
<g id="a_edge39&#45;headlabel"><a xlink:href="dir_000030_000031.html" target="_top" xlink:title="1">
<text text-anchor="middle" x="591.141" y="-206.163" font-family="Helvetica,sans-Serif" font-size="10.00">1</text>
</a>
</g>
</g>
<!-- dir_d0f3276f03e9a9cb8f8ba3f2a5ea1262&#45;&gt;dir_eecdbbfa89a6d9af25d920c499e6f44e -->
<g id="edge40" class="edge"><title>dir_d0f3276f03e9a9cb8f8ba3f2a5ea1262&#45;&gt;dir_eecdbbfa89a6d9af25d920c499e6f44e</title>
<path fill="none" stroke="black" d="M633.583,-143.697C636.176,-135.728 640.088,-126.1 644.267,-117.264"/>
<polygon fill="black" stroke="black" points="647.506,-118.613 648.857,-108.104 641.248,-115.477 647.506,-118.613"/>
<g id="a_edge40&#45;headlabel"><a xlink:href="dir_000030_000052.html" target="_top" xlink:title="1">
<text text-anchor="middle" x="648.434" y="-120.598" font-family="Helvetica,sans-Serif" font-size="10.00">1</text>
</a>
</g>
</g>
<!-- dir_d0f3276f03e9a9cb8f8ba3f2a5ea1262&#45;&gt;dir_54018506bb725509c19b38b6d9bcf0f6 -->
<g id="edge43" class="edge"><title>dir_d0f3276f03e9a9cb8f8ba3f2a5ea1262&#45;&gt;dir_54018506bb725509c19b38b6d9bcf0f6</title>
<path fill="none" stroke="black" d="M615.043,-143.697C609.036,-135.644 602.558,-125.894 597.239,-116.982"/>
<polygon fill="black" stroke="black" points="600.173,-115.062 592.183,-108.104 594.09,-118.526 600.173,-115.062"/>
<g id="a_edge43&#45;headlabel"><a xlink:href="dir_000030_000040.html" target="_top" xlink:title="15">
<text text-anchor="middle" x="604.419" y="-114.281" font-family="Helvetica,sans-Serif" font-size="10.00">15</text>
</a>
</g>
</g>
</g>
</svg>
