<?xml version="1.0" encoding="UTF-8" standalone="no"?>
<!DOCTYPE svg PUBLIC "-//W3C//DTD SVG 1.1//EN"
 "http://www.w3.org/Graphics/SVG/1.1/DTD/svg11.dtd">
<!-- Generated by graphviz version 2.38.0 (20140413.2041)
 -->
<!-- Title: /home/travis/build/STORM&#45;IRIT/Radium&#45;Engine/src/Engine/Managers/LightManager Pages: 1 -->
<svg width="329pt" height="295pt"
 viewBox="0.00 0.00 329.35 295.00" xmlns="http://www.w3.org/2000/svg" xmlns:xlink="http://www.w3.org/1999/xlink">
<g id="graph0" class="graph" transform="scale(1 1) rotate(0) translate(4 291)">
<title>/home/travis/build/STORM&#45;IRIT/Radium&#45;Engine/src/Engine/Managers/LightManager</title>
<polygon fill="white" stroke="none" points="-4,4 -4,-291 325.346,-291 325.346,4 -4,4"/>
<g id="clust1" class="cluster"><title>clusterdir_06113b60808b1bbb52a01dfd2c3a8657</title>
<g id="a_clust1"><a xlink:href="dir_06113b60808b1bbb52a01dfd2c3a8657.html" target="_top" xlink:title="Managers">
<polygon fill="#ddddee" stroke="black" points="89.887,-208 89.887,-279 187.887,-279 187.887,-208 89.887,-208"/>
<text text-anchor="middle" x="138.887" y="-267" font-family="Helvetica,sans-Serif" font-size="10.00">Managers</text>
</a>
</g>
</g>
<!-- dir_aea4ed3fab8ecf600219166580b8618e -->
<g id="node1" class="node"><title>dir_aea4ed3fab8ecf600219166580b8618e</title>
<g id="a_node1"><a xlink:href="dir_aea4ed3fab8ecf600219166580b8618e.html" target="_top" xlink:title="LightManager">
<polygon fill="#eeeeff" stroke="black" points="179.887,-252 97.887,-252 97.887,-216 179.887,-216 179.887,-252"/>
<text text-anchor="middle" x="138.887" y="-231.5" font-family="Helvetica,sans-Serif" font-size="10.00">LightManager</text>
</a>
</g>
</g>
<!-- dir_a2f0e5642e47e7ed59fe0f0829eafb5f -->
<g id="node2" class="node"><title>dir_a2f0e5642e47e7ed59fe0f0829eafb5f</title>
<g id="a_node2"><a xlink:href="dir_a2f0e5642e47e7ed59fe0f0829eafb5f.html" target="_top" xlink:title="Core">
<polygon fill="white" stroke="red" points="227.887,-36 173.887,-36 173.887,-0 227.887,-0 227.887,-36"/>
<text text-anchor="middle" x="200.887" y="-15.5" font-family="Helvetica,sans-Serif" font-size="10.00">Core</text>
</a>
</g>
</g>
<!-- dir_aea4ed3fab8ecf600219166580b8618e&#45;&gt;dir_a2f0e5642e47e7ed59fe0f0829eafb5f -->
<g id="edge5" class="edge"><title>dir_aea4ed3fab8ecf600219166580b8618e&#45;&gt;dir_a2f0e5642e47e7ed59fe0f0829eafb5f</title>
<path fill="none" stroke="black" d="M107.203,-215.807C57.4193,-186.576 -29.4915,-125.184 10.887,-72 29.3016,-47.7457 113.832,-31.6115 163.726,-24.021"/>
<polygon fill="black" stroke="black" points="164.43,-27.4552 173.811,-22.5312 163.407,-20.5303 164.43,-27.4552"/>
<g id="a_edge5&#45;headlabel"><a xlink:href="dir_000037_000020.html" target="_top" xlink:title="4">
<text text-anchor="middle" x="161.289" y="-28.2892" font-family="Helvetica,sans-Serif" font-size="10.00">4</text>
</a>
</g>
</g>
<!-- dir_7205f054df4e14abb60715afe3e7e90c -->
<g id="node3" class="node"><title>dir_7205f054df4e14abb60715afe3e7e90c</title>
<g id="a_node3"><a xlink:href="dir_7205f054df4e14abb60715afe3e7e90c.html" target="_top" xlink:title="Entity">
<polygon fill="none" stroke="black" points="255.887,-108 201.887,-108 201.887,-72 255.887,-72 255.887,-108"/>
<text text-anchor="middle" x="228.887" y="-87.5" font-family="Helvetica,sans-Serif" font-size="10.00">Entity</text>
</a>
</g>
</g>
<!-- dir_aea4ed3fab8ecf600219166580b8618e&#45;&gt;dir_7205f054df4e14abb60715afe3e7e90c -->
<g id="edge6" class="edge"><title>dir_aea4ed3fab8ecf600219166580b8618e&#45;&gt;dir_7205f054df4e14abb60715afe3e7e90c</title>
<path fill="none" stroke="black" d="M149.279,-215.843C160.227,-197.849 178.043,-168.796 193.887,-144 199.616,-135.035 205.998,-125.299 211.727,-116.647"/>
<polygon fill="black" stroke="black" points="214.787,-118.366 217.406,-108.1 208.957,-114.492 214.787,-118.366"/>
<g id="a_edge6&#45;headlabel"><a xlink:href="dir_000037_000031.html" target="_top" xlink:title="1">
<text text-anchor="middle" x="215.162" y="-120.431" font-family="Helvetica,sans-Serif" font-size="10.00">1</text>
</a>
</g>
</g>
<!-- dir_eecdbbfa89a6d9af25d920c499e6f44e -->
<g id="node4" class="node"><title>dir_eecdbbfa89a6d9af25d920c499e6f44e</title>
<g id="a_node4"><a xlink:href="dir_eecdbbfa89a6d9af25d920c499e6f44e.html" target="_top" xlink:title="System">
<polygon fill="none" stroke="black" points="146.887,-180 92.887,-180 92.887,-144 146.887,-144 146.887,-180"/>
<text text-anchor="middle" x="119.887" y="-159.5" font-family="Helvetica,sans-Serif" font-size="10.00">System</text>
</a>
</g>
</g>
<!-- dir_aea4ed3fab8ecf600219166580b8618e&#45;&gt;dir_eecdbbfa89a6d9af25d920c499e6f44e -->
<g id="edge7" class="edge"><title>dir_aea4ed3fab8ecf600219166580b8618e&#45;&gt;dir_eecdbbfa89a6d9af25d920c499e6f44e</title>
<path fill="none" stroke="black" d="M134.19,-215.697C132.074,-207.898 129.525,-198.509 127.169,-189.829"/>
<polygon fill="black" stroke="black" points="130.527,-188.838 124.53,-180.104 123.771,-190.672 130.527,-188.838"/>
<g id="a_edge7&#45;headlabel"><a xlink:href="dir_000037_000052.html" target="_top" xlink:title="1">
<text text-anchor="middle" x="134.209" y="-189.064" font-family="Helvetica,sans-Serif" font-size="10.00">1</text>
</a>
</g>
</g>
<!-- dir_54018506bb725509c19b38b6d9bcf0f6 -->
<g id="node5" class="node"><title>dir_54018506bb725509c19b38b6d9bcf0f6</title>
<g id="a_node5"><a xlink:href="dir_54018506bb725509c19b38b6d9bcf0f6.html" target="_top" xlink:title="Renderer">
<polygon fill="white" stroke="red" points="276.387,-252 217.387,-252 217.387,-216 276.387,-216 276.387,-252"/>
<text text-anchor="middle" x="246.887" y="-231.5" font-family="Helvetica,sans-Serif" font-size="10.00">Renderer</text>
</a>
</g>
</g>
<!-- dir_aea4ed3fab8ecf600219166580b8618e&#45;&gt;dir_54018506bb725509c19b38b6d9bcf0f6 -->
<g id="edge8" class="edge"><title>dir_aea4ed3fab8ecf600219166580b8618e&#45;&gt;dir_54018506bb725509c19b38b6d9bcf0f6</title>
<path fill="none" stroke="black" d="M180.231,-234C189.185,-234 198.14,-234 207.094,-234"/>
<polygon fill="black" stroke="black" points="207.204,-237.5 217.204,-234 207.204,-230.5 207.204,-237.5"/>
<g id="a_edge8&#45;headlabel"><a xlink:href="dir_000037_000040.html" target="_top" xlink:title="5">
<text text-anchor="middle" x="203.61" y="-237.839" font-family="Helvetica,sans-Serif" font-size="10.00">5</text>
</a>
</g>
</g>
<!-- dir_5a1bd30bc9919aca01fcd3709dbd4eb3 -->
<g id="node6" class="node"><title>dir_5a1bd30bc9919aca01fcd3709dbd4eb3</title>
<g id="a_node6"><a xlink:href="dir_5a1bd30bc9919aca01fcd3709dbd4eb3.html" target="_top" xlink:title="SystemDisplay">
<polygon fill="none" stroke="black" points="290.887,-180 202.887,-180 202.887,-144 290.887,-144 290.887,-180"/>
<text text-anchor="middle" x="246.887" y="-159.5" font-family="Helvetica,sans-Serif" font-size="10.00">SystemDisplay</text>
</a>
</g>
</g>
<!-- dir_aea4ed3fab8ecf600219166580b8618e&#45;&gt;dir_5a1bd30bc9919aca01fcd3709dbd4eb3 -->
<g id="edge9" class="edge"><title>dir_aea4ed3fab8ecf600219166580b8618e&#45;&gt;dir_5a1bd30bc9919aca01fcd3709dbd4eb3</title>
<path fill="none" stroke="black" d="M165.307,-215.876C179.297,-206.808 196.663,-195.552 211.773,-185.759"/>
<polygon fill="black" stroke="black" points="213.878,-188.566 220.366,-180.19 210.071,-182.692 213.878,-188.566"/>
<g id="a_edge9&#45;headlabel"><a xlink:href="dir_000037_000039.html" target="_top" xlink:title="1">
<text text-anchor="middle" x="212.406" y="-190.403" font-family="Helvetica,sans-Serif" font-size="10.00">1</text>
</a>
</g>
</g>
<!-- dir_f60fd3cff26f751d5a136115ec0dccfa -->
<g id="node7" class="node"><title>dir_f60fd3cff26f751d5a136115ec0dccfa</title>
<g id="a_node7"><a xlink:href="dir_f60fd3cff26f751d5a136115ec0dccfa.html" target="_top" xlink:title="ComponentMessenger">
<polygon fill="none" stroke="black" points="145.387,-108 20.387,-108 20.387,-72 145.387,-72 145.387,-108"/>
<text text-anchor="middle" x="82.887" y="-87.5" font-family="Helvetica,sans-Serif" font-size="10.00">ComponentMessenger</text>
</a>
</g>
</g>
<!-- dir_aea4ed3fab8ecf600219166580b8618e&#45;&gt;dir_f60fd3cff26f751d5a136115ec0dccfa -->
<g id="edge10" class="edge"><title>dir_aea4ed3fab8ecf600219166580b8618e&#45;&gt;dir_f60fd3cff26f751d5a136115ec0dccfa</title>
<path fill="none" stroke="black" d="M113.578,-215.924C102.259,-206.749 90.0894,-194.366 83.887,-180 75.49,-160.551 75.7997,-136.409 77.8991,-118.178"/>
<polygon fill="black" stroke="black" points="81.3748,-118.595 79.2897,-108.207 74.4419,-117.628 81.3748,-118.595"/>
<g id="a_edge10&#45;headlabel"><a xlink:href="dir_000037_000035.html" target="_top" xlink:title="1">
<text text-anchor="middle" x="83.6904" y="-120.047" font-family="Helvetica,sans-Serif" font-size="10.00">1</text>
</a>
</g>
</g>
<!-- dir_7205f054df4e14abb60715afe3e7e90c&#45;&gt;dir_a2f0e5642e47e7ed59fe0f0829eafb5f -->
<g id="edge1" class="edge"><title>dir_7205f054df4e14abb60715afe3e7e90c&#45;&gt;dir_a2f0e5642e47e7ed59fe0f0829eafb5f</title>
<path fill="none" stroke="black" d="M221.966,-71.6966C218.812,-63.8132 215.009,-54.3042 211.506,-45.5464"/>
<polygon fill="black" stroke="black" points="214.692,-44.0892 207.729,-36.1043 208.193,-46.689 214.692,-44.0892"/>
<g id="a_edge1&#45;headlabel"><a xlink:href="dir_000031_000020.html" target="_top" xlink:title="3">
<text text-anchor="middle" x="218.664" y="-43.8723" font-family="Helvetica,sans-Serif" font-size="10.00">3</text>
</a>
</g>
</g>
<!-- dir_eecdbbfa89a6d9af25d920c499e6f44e&#45;&gt;dir_a2f0e5642e47e7ed59fe0f0829eafb5f -->
<g id="edge2" class="edge"><title>dir_eecdbbfa89a6d9af25d920c499e6f44e&#45;&gt;dir_a2f0e5642e47e7ed59fe0f0829eafb5f</title>
<path fill="none" stroke="black" d="M131.599,-143.565C138.336,-133.336 146.836,-120.086 153.887,-108 165.923,-87.3699 178.505,-63.3973 187.619,-45.533"/>
<polygon fill="black" stroke="black" points="190.901,-46.7989 192.3,-36.2968 184.657,-43.6344 190.901,-46.7989"/>
<g id="a_edge2&#45;headlabel"><a xlink:href="dir_000052_000020.html" target="_top" xlink:title="4">
<text text-anchor="middle" x="191.809" y="-48.7888" font-family="Helvetica,sans-Serif" font-size="10.00">4</text>
</a>
</g>
</g>
<!-- dir_eecdbbfa89a6d9af25d920c499e6f44e&#45;&gt;dir_7205f054df4e14abb60715afe3e7e90c -->
<g id="edge3" class="edge"><title>dir_eecdbbfa89a6d9af25d920c499e6f44e&#45;&gt;dir_7205f054df4e14abb60715afe3e7e90c</title>
<path fill="none" stroke="black" d="M146.551,-143.876C160.671,-134.808 178.198,-123.552 193.448,-113.759"/>
<polygon fill="black" stroke="black" points="195.597,-116.538 202.12,-108.19 191.815,-110.648 195.597,-116.538"/>
<g id="a_edge3&#45;headlabel"><a xlink:href="dir_000052_000031.html" target="_top" xlink:title="2">
<text text-anchor="middle" x="194.107" y="-118.37" font-family="Helvetica,sans-Serif" font-size="10.00">2</text>
</a>
</g>
</g>
<!-- dir_eecdbbfa89a6d9af25d920c499e6f44e&#45;&gt;dir_f60fd3cff26f751d5a136115ec0dccfa -->
<g id="edge4" class="edge"><title>dir_eecdbbfa89a6d9af25d920c499e6f44e&#45;&gt;dir_f60fd3cff26f751d5a136115ec0dccfa</title>
<path fill="none" stroke="black" d="M110.741,-143.697C106.484,-135.644 101.331,-125.894 96.6206,-116.982"/>
<polygon fill="black" stroke="black" points="99.6954,-115.31 91.9279,-108.104 93.5067,-118.581 99.6954,-115.31"/>
<g id="a_edge4&#45;headlabel"><a xlink:href="dir_000052_000035.html" target="_top" xlink:title="1">
<text text-anchor="middle" x="103.885" y="-114.661" font-family="Helvetica,sans-Serif" font-size="10.00">1</text>
</a>
</g>
</g>
<!-- dir_54018506bb725509c19b38b6d9bcf0f6&#45;&gt;dir_aea4ed3fab8ecf600219166580b8618e -->
<g id="edge13" class="edge"><title>dir_54018506bb725509c19b38b6d9bcf0f6&#45;&gt;dir_aea4ed3fab8ecf600219166580b8618e</title>
<path fill="none" stroke="black" d="M217.204,-234C208.25,-234 199.295,-234 190.341,-234"/>
<polygon fill="black" stroke="black" points="190.231,-230.5 180.231,-234 190.231,-237.5 190.231,-230.5"/>
<g id="a_edge13&#45;headlabel"><a xlink:href="dir_000040_000037.html" target="_top" xlink:title="2">
<text text-anchor="middle" x="193.825" y="-225.161" font-family="Helvetica,sans-Serif" font-size="10.00">2</text>
</a>
</g>
</g>
<!-- dir_54018506bb725509c19b38b6d9bcf0f6&#45;&gt;dir_a2f0e5642e47e7ed59fe0f0829eafb5f -->
<g id="edge11" class="edge"><title>dir_54018506bb725509c19b38b6d9bcf0f6&#45;&gt;dir_a2f0e5642e47e7ed59fe0f0829eafb5f</title>
<path fill="none" stroke="black" d="M276.454,-218.972C291.517,-210.098 308.405,-197.062 316.887,-180 324.01,-165.673 320.476,-159.592 316.887,-144 308.906,-109.326 305.4,-98.7043 281.887,-72 269.354,-57.7661 252.13,-45.7822 236.787,-36.8306"/>
<polygon fill="black" stroke="black" points="238.454,-33.7529 228.02,-31.9163 235.032,-39.8591 238.454,-33.7529"/>
<g id="a_edge11&#45;headlabel"><a xlink:href="dir_000040_000020.html" target="_top" xlink:title="63">
<text text-anchor="middle" x="242.978" y="-30.5338" font-family="Helvetica,sans-Serif" font-size="10.00">63</text>
</a>
</g>
</g>
<!-- dir_54018506bb725509c19b38b6d9bcf0f6&#45;&gt;dir_7205f054df4e14abb60715afe3e7e90c -->
<g id="edge12" class="edge"><title>dir_54018506bb725509c19b38b6d9bcf0f6&#45;&gt;dir_7205f054df4e14abb60715afe3e7e90c</title>
<path fill="none" stroke="black" d="M271.364,-215.768C282.291,-206.555 294.011,-194.186 299.887,-180 306.01,-165.218 307.059,-158.303 299.887,-144 292.365,-128.998 278.359,-117.157 264.762,-108.507"/>
<polygon fill="black" stroke="black" points="266.343,-105.376 255.958,-103.283 262.771,-111.396 266.343,-105.376"/>
<g id="a_edge12&#45;headlabel"><a xlink:href="dir_000040_000031.html" target="_top" xlink:title="3">
<text text-anchor="middle" x="270.884" y="-102.269" font-family="Helvetica,sans-Serif" font-size="10.00">3</text>
</a>
</g>
</g>
<!-- dir_54018506bb725509c19b38b6d9bcf0f6&#45;&gt;dir_5a1bd30bc9919aca01fcd3709dbd4eb3 -->
<g id="edge14" class="edge"><title>dir_54018506bb725509c19b38b6d9bcf0f6&#45;&gt;dir_5a1bd30bc9919aca01fcd3709dbd4eb3</title>
<path fill="none" stroke="black" d="M240.971,-215.697C240.176,-207.983 239.949,-198.712 240.292,-190.112"/>
<polygon fill="black" stroke="black" points="243.785,-190.324 240.992,-180.104 236.802,-189.836 243.785,-190.324"/>
<g id="a_edge14&#45;headlabel"><a xlink:href="dir_000040_000039.html" target="_top" xlink:title="1">
<text text-anchor="middle" x="246.367" y="-191.608" font-family="Helvetica,sans-Serif" font-size="10.00">1</text>
</a>
</g>
</g>
<!-- dir_5a1bd30bc9919aca01fcd3709dbd4eb3&#45;&gt;dir_a2f0e5642e47e7ed59fe0f0829eafb5f -->
<g id="edge15" class="edge"><title>dir_5a1bd30bc9919aca01fcd3709dbd4eb3&#45;&gt;dir_a2f0e5642e47e7ed59fe0f0829eafb5f</title>
<path fill="none" stroke="black" d="M256.453,-143.843C265.407,-125.341 275.889,-95.3956 264.887,-72 258.712,-58.8685 247.509,-47.8739 236.183,-39.3642"/>
<polygon fill="black" stroke="black" points="238.18,-36.4901 227.983,-33.612 234.16,-42.2205 238.18,-36.4901"/>
<g id="a_edge15&#45;headlabel"><a xlink:href="dir_000039_000020.html" target="_top" xlink:title="2">
<text text-anchor="middle" x="242.753" y="-33.7302" font-family="Helvetica,sans-Serif" font-size="10.00">2</text>
</a>
</g>
</g>
<!-- dir_5a1bd30bc9919aca01fcd3709dbd4eb3&#45;&gt;dir_7205f054df4e14abb60715afe3e7e90c -->
<g id="edge16" class="edge"><title>dir_5a1bd30bc9919aca01fcd3709dbd4eb3&#45;&gt;dir_7205f054df4e14abb60715afe3e7e90c</title>
<path fill="none" stroke="black" d="M242.438,-143.697C240.432,-135.898 238.018,-126.509 235.786,-117.829"/>
<polygon fill="black" stroke="black" points="239.166,-116.918 233.285,-108.104 232.386,-118.661 239.166,-116.918"/>
<g id="a_edge16&#45;headlabel"><a xlink:href="dir_000039_000031.html" target="_top" xlink:title="1">
<text text-anchor="middle" x="242.81" y="-117.192" font-family="Helvetica,sans-Serif" font-size="10.00">1</text>
</a>
</g>
</g>
<!-- dir_5a1bd30bc9919aca01fcd3709dbd4eb3&#45;&gt;dir_54018506bb725509c19b38b6d9bcf0f6 -->
<g id="edge17" class="edge"><title>dir_5a1bd30bc9919aca01fcd3709dbd4eb3&#45;&gt;dir_54018506bb725509c19b38b6d9bcf0f6</title>
<path fill="none" stroke="black" d="M252.782,-180.104C253.588,-187.791 253.824,-197.054 253.491,-205.665"/>
<polygon fill="black" stroke="black" points="249.996,-205.48 252.803,-215.697 256.979,-205.96 249.996,-205.48"/>
<g id="a_edge17&#45;headlabel"><a xlink:href="dir_000039_000040.html" target="_top" xlink:title="2">
<text text-anchor="middle" x="247.409" y="-199.2" font-family="Helvetica,sans-Serif" font-size="10.00">2</text>
</a>
</g>
</g>
<!-- dir_f60fd3cff26f751d5a136115ec0dccfa&#45;&gt;dir_a2f0e5642e47e7ed59fe0f0829eafb5f -->
<g id="edge18" class="edge"><title>dir_f60fd3cff26f751d5a136115ec0dccfa&#45;&gt;dir_a2f0e5642e47e7ed59fe0f0829eafb5f</title>
<path fill="none" stroke="black" d="M111.753,-71.8761C127.642,-62.4504 147.517,-50.6602 164.465,-40.6065"/>
<polygon fill="black" stroke="black" points="166.72,-43.338 173.535,-35.2257 163.149,-37.3176 166.72,-43.338"/>
<g id="a_edge18&#45;headlabel"><a xlink:href="dir_000035_000020.html" target="_top" xlink:title="2">
<text text-anchor="middle" x="165.077" y="-45.1138" font-family="Helvetica,sans-Serif" font-size="10.00">2</text>
</a>
</g>
</g>
</g>
</svg>
