<?xml version="1.0" encoding="UTF-8" standalone="no"?>
<!DOCTYPE svg PUBLIC "-//W3C//DTD SVG 1.1//EN"
 "http://www.w3.org/Graphics/SVG/1.1/DTD/svg11.dtd">
<!-- Generated by graphviz version 2.38.0 (20140413.2041)
 -->
<!-- Title: /home/travis/build/STORM&#45;IRIT/Radium&#45;Engine/src/Core/Geometry/DistanceQueries.inl Pages: 1 -->
<svg width="946pt" height="509pt"
 viewBox="0.00 0.00 946.00 509.00" xmlns="http://www.w3.org/2000/svg" xmlns:xlink="http://www.w3.org/1999/xlink">
<g id="graph0" class="graph" transform="scale(1 1) rotate(0) translate(4 505)">
<title>/home/travis/build/STORM&#45;IRIT/Radium&#45;Engine/src/Core/Geometry/DistanceQueries.inl</title>
<polygon fill="white" stroke="none" points="-4,4 -4,-505 942,-505 942,4 -4,4"/>
<!-- Node1 -->
<g id="node1" class="node"><title>Node1</title>
<polygon fill="#bfbfbf" stroke="black" points="484,-459.5 484,-500.5 690,-500.5 690,-459.5 484,-459.5"/>
<text text-anchor="start" x="492" y="-488.5" font-family="Helvetica,sans-Serif" font-size="10.00">/home/travis/build</text>
<text text-anchor="start" x="492" y="-477.5" font-family="Helvetica,sans-Serif" font-size="10.00">/STORM&#45;IRIT/Radium&#45;Engine</text>
<text text-anchor="middle" x="587" y="-466.5" font-family="Helvetica,sans-Serif" font-size="10.00">/src/Core/Geometry/DistanceQueries.inl</text>
</g>
<!-- Node2 -->
<g id="node2" class="node"><title>Node2</title>
<g id="a_node2"><a xlink:href="DistanceQueries_8hpp.html" target="_top" xlink:title="Core/Geometry/DistanceQueries.hpp">
<polygon fill="white" stroke="black" points="490.5,-403.5 490.5,-422.5 683.5,-422.5 683.5,-403.5 490.5,-403.5"/>
<text text-anchor="middle" x="587" y="-410.5" font-family="Helvetica,sans-Serif" font-size="10.00">Core/Geometry/DistanceQueries.hpp</text>
</a>
</g>
</g>
<!-- Node1&#45;&gt;Node2 -->
<g id="edge1" class="edge"><title>Node1&#45;&gt;Node2</title>
<path fill="none" stroke="midnightblue" d="M580.755,-459.498C580.057,-450.969 580.083,-441.011 580.833,-432.59"/>
<polygon fill="midnightblue" stroke="midnightblue" points="584.303,-433.044 582.236,-422.652 577.372,-432.065 584.303,-433.044"/>
</g>
<!-- Node27 -->
<g id="node27" class="node"><title>Node27</title>
<polygon fill="white" stroke="#bfbfbf" points="702,-403.5 702,-422.5 764,-422.5 764,-403.5 702,-403.5"/>
<text text-anchor="middle" x="733" y="-410.5" font-family="Helvetica,sans-Serif" font-size="10.00">algorithm</text>
</g>
<!-- Node1&#45;&gt;Node27 -->
<g id="edge44" class="edge"><title>Node1&#45;&gt;Node27</title>
<path fill="none" stroke="midnightblue" d="M630.805,-459.498C654.588,-448.909 683.322,-436.117 704.256,-426.797"/>
<polygon fill="midnightblue" stroke="midnightblue" points="705.853,-429.917 713.565,-422.652 703.006,-423.522 705.853,-429.917"/>
</g>
<!-- Node2&#45;&gt;Node1 -->
<g id="edge43" class="edge"><title>Node2&#45;&gt;Node1</title>
<path fill="none" stroke="midnightblue" d="M591.764,-422.652C593.227,-429.524 593.881,-439.559 593.728,-449.263"/>
<polygon fill="midnightblue" stroke="midnightblue" points="590.221,-449.344 593.245,-459.498 597.213,-449.674 590.221,-449.344"/>
</g>
<!-- Node3 -->
<g id="node3" class="node"><title>Node3</title>
<g id="a_node3"><a xlink:href="TriangleMesh_8hpp.html" target="_top" xlink:title="Core/Geometry/TriangleMesh.hpp">
<polygon fill="white" stroke="black" points="373,-347.5 373,-366.5 549,-366.5 549,-347.5 373,-347.5"/>
<text text-anchor="middle" x="461" y="-354.5" font-family="Helvetica,sans-Serif" font-size="10.00">Core/Geometry/TriangleMesh.hpp</text>
</a>
</g>
</g>
<!-- Node2&#45;&gt;Node3 -->
<g id="edge2" class="edge"><title>Node2&#45;&gt;Node3</title>
<path fill="none" stroke="midnightblue" d="M567.035,-403.444C546.391,-394.596 513.937,-380.687 490.368,-370.586"/>
<polygon fill="midnightblue" stroke="midnightblue" points="491.442,-367.239 480.872,-366.516 488.684,-373.673 491.442,-367.239"/>
</g>
<!-- Node6 -->
<g id="node6" class="node"><title>Node6</title>
<g id="a_node6"><a xlink:href="RaCore_8hpp.html" target="_top" xlink:title="Core/RaCore.hpp">
<polygon fill="white" stroke="black" points="582,-112.5 582,-131.5 680,-131.5 680,-112.5 582,-112.5"/>
<text text-anchor="middle" x="631" y="-119.5" font-family="Helvetica,sans-Serif" font-size="10.00">Core/RaCore.hpp</text>
</a>
</g>
</g>
<!-- Node2&#45;&gt;Node6 -->
<g id="edge40" class="edge"><title>Node2&#45;&gt;Node6</title>
<path fill="none" stroke="midnightblue" d="M664.463,-403.473C767.829,-389.902 938,-358.915 938,-302 938,-302 938,-302 938,-244 938,-202.043 917.624,-190.165 882,-168 850.691,-148.519 753.842,-135.337 690.01,-128.505"/>
<polygon fill="midnightblue" stroke="midnightblue" points="690.374,-125.024 680.064,-127.463 689.645,-131.985 690.374,-125.024"/>
</g>
<!-- Node15 -->
<g id="node15" class="node"><title>Node15</title>
<g id="a_node15"><a xlink:href="Types_8hpp.html" target="_top" xlink:title="Core/Types.hpp">
<polygon fill="white" stroke="black" points="220.5,-174 220.5,-193 309.5,-193 309.5,-174 220.5,-174"/>
<text text-anchor="middle" x="265" y="-181" font-family="Helvetica,sans-Serif" font-size="10.00">Core/Types.hpp</text>
</a>
</g>
</g>
<!-- Node2&#45;&gt;Node15 -->
<g id="edge41" class="edge"><title>Node2&#45;&gt;Node15</title>
<path fill="none" stroke="midnightblue" d="M490.248,-410.422C408.543,-403.834 293.975,-381.409 224,-311 199.212,-286.058 186.782,-266.701 202,-235 209.541,-219.29 224.614,-206.93 238.126,-198.37"/>
<polygon fill="midnightblue" stroke="midnightblue" points="240.289,-201.157 247.119,-193.057 236.729,-195.13 240.289,-201.157"/>
</g>
<!-- Node22 -->
<g id="node22" class="node"><title>Node22</title>
<polygon fill="white" stroke="#bfbfbf" points="668,-174 668,-193 710,-193 710,-174 668,-174"/>
<text text-anchor="middle" x="689" y="-181" font-family="Helvetica,sans-Serif" font-size="10.00">limits</text>
</g>
<!-- Node2&#45;&gt;Node22 -->
<g id="edge42" class="edge"><title>Node2&#45;&gt;Node22</title>
<path fill="none" stroke="midnightblue" d="M601.871,-403.466C626.349,-388.445 674.281,-354.693 693,-311 708.301,-275.285 700.555,-228.553 694.301,-203.064"/>
<polygon fill="midnightblue" stroke="midnightblue" points="697.645,-202.02 691.702,-193.249 690.879,-203.812 697.645,-202.02"/>
</g>
<!-- Node4 -->
<g id="node4" class="node"><title>Node4</title>
<g id="a_node4"><a xlink:href="VectorArray_8hpp.html" target="_top" xlink:title="Core/Containers/VectorArray.hpp">
<polygon fill="white" stroke="black" points="438.5,-235.5 438.5,-254.5 611.5,-254.5 611.5,-235.5 438.5,-235.5"/>
<text text-anchor="middle" x="525" y="-242.5" font-family="Helvetica,sans-Serif" font-size="10.00">Core/Containers/VectorArray.hpp</text>
</a>
</g>
</g>
<!-- Node3&#45;&gt;Node4 -->
<g id="edge3" class="edge"><title>Node3&#45;&gt;Node4</title>
<path fill="none" stroke="midnightblue" d="M466.022,-347.368C476.537,-329.296 501.043,-287.176 514.93,-263.307"/>
<polygon fill="midnightblue" stroke="midnightblue" points="517.998,-264.995 520.001,-254.591 511.947,-261.475 517.998,-264.995"/>
</g>
<!-- Node3&#45;&gt;Node6 -->
<g id="edge24" class="edge"><title>Node3&#45;&gt;Node6</title>
<path fill="none" stroke="midnightblue" d="M472.774,-347.449C490.511,-334.683 525.281,-310.098 556,-291 583.716,-273.769 602.367,-282.462 620,-255 642.395,-220.12 638.707,-168.918 634.563,-141.671"/>
<polygon fill="midnightblue" stroke="midnightblue" points="637.972,-140.843 632.834,-131.577 631.073,-142.025 637.972,-140.843"/>
</g>
<!-- Node3&#45;&gt;Node15 -->
<g id="edge25" class="edge"><title>Node3&#45;&gt;Node15</title>
<path fill="none" stroke="midnightblue" d="M372.923,-349.617C334.778,-343.696 290.955,-332.412 256,-311 222.332,-290.376 194.116,-271.147 210,-235 216.546,-220.102 229.897,-207.672 241.805,-198.872"/>
<polygon fill="midnightblue" stroke="midnightblue" points="243.877,-201.694 250.104,-193.122 239.89,-195.941 243.877,-201.694"/>
</g>
<!-- Node19 -->
<g id="node19" class="node"><title>Node19</title>
<g id="a_node19"><a xlink:href="AbstractGeometry_8hpp.html" target="_top" xlink:title="Core/Geometry/AbstractGeometry.hpp">
<polygon fill="white" stroke="black" points="219.5,-235.5 219.5,-254.5 420.5,-254.5 420.5,-235.5 219.5,-235.5"/>
<text text-anchor="middle" x="320" y="-242.5" font-family="Helvetica,sans-Serif" font-size="10.00">Core/Geometry/AbstractGeometry.hpp</text>
</a>
</g>
</g>
<!-- Node3&#45;&gt;Node19 -->
<g id="edge21" class="edge"><title>Node3&#45;&gt;Node19</title>
<path fill="none" stroke="midnightblue" d="M460.839,-347.22C460.118,-333.475 456.76,-306.815 442,-291 426.572,-274.469 404.541,-263.985 383.436,-257.347"/>
<polygon fill="midnightblue" stroke="midnightblue" points="384.41,-253.986 373.831,-254.56 382.459,-260.708 384.41,-253.986"/>
</g>
<!-- Node20 -->
<g id="node20" class="node"><title>Node20</title>
<g id="a_node20"><a xlink:href="Attribs_8hpp.html" target="_top" xlink:title="Core/Utils/Attribs.hpp">
<polygon fill="white" stroke="black" points="565.5,-291.5 565.5,-310.5 684.5,-310.5 684.5,-291.5 565.5,-291.5"/>
<text text-anchor="middle" x="625" y="-298.5" font-family="Helvetica,sans-Serif" font-size="10.00">Core/Utils/Attribs.hpp</text>
</a>
</g>
</g>
<!-- Node3&#45;&gt;Node20 -->
<g id="edge26" class="edge"><title>Node3&#45;&gt;Node20</title>
<path fill="none" stroke="midnightblue" d="M486.986,-347.444C514.696,-338.32 558.752,-323.813 589.616,-313.651"/>
<polygon fill="midnightblue" stroke="midnightblue" points="590.732,-316.968 599.135,-310.516 588.542,-310.32 590.732,-316.968"/>
</g>
<!-- Node24 -->
<g id="node24" class="node"><title>Node24</title>
<g id="a_node24"><a xlink:href="Color_8hpp.html" target="_top" xlink:title="Core/Utils/Color.hpp">
<polygon fill="white" stroke="black" points="59.5,-174 59.5,-193 170.5,-193 170.5,-174 59.5,-174"/>
<text text-anchor="middle" x="115" y="-181" font-family="Helvetica,sans-Serif" font-size="10.00">Core/Utils/Color.hpp</text>
</a>
</g>
</g>
<!-- Node3&#45;&gt;Node24 -->
<g id="edge33" class="edge"><title>Node3&#45;&gt;Node24</title>
<path fill="none" stroke="midnightblue" d="M372.819,-353.157C325.985,-348.336 268.975,-336.967 224,-311 177.512,-284.16 141.248,-229.965 124.739,-202.03"/>
<polygon fill="midnightblue" stroke="midnightblue" points="127.757,-200.257 119.739,-193.332 121.689,-203.746 127.757,-200.257"/>
</g>
<!-- Node26 -->
<g id="node26" class="node"><title>Node26</title>
<g id="a_node26"><a xlink:href="TriangleMesh_8inl.html" target="_top" xlink:title="Core/Geometry/TriangleMesh.inl">
<polygon fill="white" stroke="black" points="265,-291.5 265,-310.5 433,-310.5 433,-291.5 265,-291.5"/>
<text text-anchor="middle" x="349" y="-298.5" font-family="Helvetica,sans-Serif" font-size="10.00">Core/Geometry/TriangleMesh.inl</text>
</a>
</g>
</g>
<!-- Node3&#45;&gt;Node26 -->
<g id="edge38" class="edge"><title>Node3&#45;&gt;Node26</title>
<path fill="none" stroke="midnightblue" d="M438.165,-347.444C418.326,-338.794 390.08,-325.306 370.615,-315.268"/>
<polygon fill="midnightblue" stroke="midnightblue" points="372.063,-312.076 361.584,-310.516 368.804,-318.27 372.063,-312.076"/>
</g>
<!-- Node5 -->
<g id="node5" class="node"><title>Node5</title>
<g id="a_node5"><a xlink:href="AlignedStdVector_8hpp.html" target="_top" xlink:title="Core/Containers/AlignedStd\lVector.hpp">
<polygon fill="white" stroke="black" points="387.5,-168.5 387.5,-198.5 536.5,-198.5 536.5,-168.5 387.5,-168.5"/>
<text text-anchor="start" x="395.5" y="-186.5" font-family="Helvetica,sans-Serif" font-size="10.00">Core/Containers/AlignedStd</text>
<text text-anchor="middle" x="462" y="-175.5" font-family="Helvetica,sans-Serif" font-size="10.00">Vector.hpp</text>
</a>
</g>
</g>
<!-- Node4&#45;&gt;Node5 -->
<g id="edge4" class="edge"><title>Node4&#45;&gt;Node5</title>
<path fill="none" stroke="midnightblue" d="M515.974,-235.475C507.76,-227.718 495.293,-215.943 484.409,-205.665"/>
<polygon fill="midnightblue" stroke="midnightblue" points="486.521,-202.845 476.848,-198.523 481.715,-207.934 486.521,-202.845"/>
</g>
<!-- Node4&#45;&gt;Node6 -->
<g id="edge14" class="edge"><title>Node4&#45;&gt;Node6</title>
<path fill="none" stroke="midnightblue" d="M536.714,-235.469C547.988,-226.945 565.17,-213.111 578,-199 594.848,-180.471 610.806,-156.37 620.725,-140.327"/>
<polygon fill="midnightblue" stroke="midnightblue" points="623.884,-141.868 626.074,-131.502 617.898,-138.239 623.884,-141.868"/>
</g>
<!-- Node14 -->
<g id="node14" class="node"><title>Node14</title>
<polygon fill="white" stroke="#bfbfbf" points="406.5,-112.5 406.5,-131.5 453.5,-131.5 453.5,-112.5 406.5,-112.5"/>
<text text-anchor="middle" x="430" y="-119.5" font-family="Helvetica,sans-Serif" font-size="10.00">vector</text>
</g>
<!-- Node4&#45;&gt;Node14 -->
<g id="edge20" class="edge"><title>Node4&#45;&gt;Node14</title>
<path fill="none" stroke="midnightblue" d="M438.134,-236.243C414.943,-229.732 392.364,-218.419 378,-199 369.807,-187.923 372.272,-180.531 378,-168 383.777,-155.36 395.052,-144.911 405.631,-137.274"/>
<polygon fill="midnightblue" stroke="midnightblue" points="407.849,-140.001 414.217,-131.533 403.958,-134.182 407.849,-140.001"/>
</g>
<!-- Node4&#45;&gt;Node15 -->
<g id="edge15" class="edge"><title>Node4&#45;&gt;Node15</title>
<path fill="none" stroke="midnightblue" d="M487.748,-235.475C441.508,-224.893 362.601,-206.836 312.178,-195.297"/>
<polygon fill="midnightblue" stroke="midnightblue" points="312.711,-191.828 302.183,-193.009 311.15,-198.652 312.711,-191.828"/>
</g>
<!-- Node5&#45;&gt;Node6 -->
<g id="edge5" class="edge"><title>Node5&#45;&gt;Node6</title>
<path fill="none" stroke="midnightblue" d="M502.051,-168.399C530.912,-158.238 569.445,-144.672 596.853,-135.022"/>
<polygon fill="midnightblue" stroke="midnightblue" points="598.139,-138.28 606.409,-131.658 595.814,-131.677 598.139,-138.28"/>
</g>
<!-- Node13 -->
<g id="node13" class="node"><title>Node13</title>
<polygon fill="white" stroke="#bfbfbf" points="471.5,-112.5 471.5,-131.5 564.5,-131.5 564.5,-112.5 471.5,-112.5"/>
<text text-anchor="middle" x="518" y="-119.5" font-family="Helvetica,sans-Serif" font-size="10.00">Eigen/StdVector</text>
</g>
<!-- Node5&#45;&gt;Node13 -->
<g id="edge12" class="edge"><title>Node5&#45;&gt;Node13</title>
<path fill="none" stroke="midnightblue" d="M475.271,-168.399C483.576,-159.575 494.299,-148.183 502.924,-139.018"/>
<polygon fill="midnightblue" stroke="midnightblue" points="505.547,-141.339 509.852,-131.658 500.449,-136.541 505.547,-141.339"/>
</g>
<!-- Node5&#45;&gt;Node14 -->
<g id="edge13" class="edge"><title>Node5&#45;&gt;Node14</title>
<path fill="none" stroke="midnightblue" d="M454.416,-168.399C449.958,-160.11 444.281,-149.554 439.523,-140.708"/>
<polygon fill="midnightblue" stroke="midnightblue" points="442.475,-138.807 434.656,-131.658 436.31,-142.123 442.475,-138.807"/>
</g>
<!-- Node7 -->
<g id="node7" class="node"><title>Node7</title>
<g id="a_node7"><a xlink:href="CoreMacros_8hpp.html" target="_top" xlink:title="Core/CoreMacros.hpp">
<polygon fill="white" stroke="black" points="296,-56.5 296,-75.5 416,-75.5 416,-56.5 296,-56.5"/>
<text text-anchor="middle" x="356" y="-63.5" font-family="Helvetica,sans-Serif" font-size="10.00">Core/CoreMacros.hpp</text>
</a>
</g>
</g>
<!-- Node6&#45;&gt;Node7 -->
<g id="edge6" class="edge"><title>Node6&#45;&gt;Node7</title>
<path fill="none" stroke="midnightblue" d="M587.425,-112.444C539.151,-102.964 461.288,-87.6747 409.388,-77.4835"/>
<polygon fill="midnightblue" stroke="midnightblue" points="409.858,-74.0089 399.371,-75.5164 408.509,-80.8778 409.858,-74.0089"/>
</g>
<!-- Node8 -->
<g id="node8" class="node"><title>Node8</title>
<polygon fill="white" stroke="#bfbfbf" points="193,-0.5 193,-19.5 245,-19.5 245,-0.5 193,-0.5"/>
<text text-anchor="middle" x="219" y="-7.5" font-family="Helvetica,sans-Serif" font-size="10.00">cassert</text>
</g>
<!-- Node7&#45;&gt;Node8 -->
<g id="edge7" class="edge"><title>Node7&#45;&gt;Node8</title>
<path fill="none" stroke="midnightblue" d="M334.292,-56.4435C311.645,-47.5171 275.928,-33.4387 250.248,-23.3168"/>
<polygon fill="midnightblue" stroke="midnightblue" points="251.193,-19.9273 240.606,-19.5164 248.626,-26.4397 251.193,-19.9273"/>
</g>
<!-- Node9 -->
<g id="node9" class="node"><title>Node9</title>
<polygon fill="white" stroke="#bfbfbf" points="263.5,-0.5 263.5,-19.5 308.5,-19.5 308.5,-0.5 263.5,-0.5"/>
<text text-anchor="middle" x="286" y="-7.5" font-family="Helvetica,sans-Serif" font-size="10.00">cstdio</text>
</g>
<!-- Node7&#45;&gt;Node9 -->
<g id="edge8" class="edge"><title>Node7&#45;&gt;Node9</title>
<path fill="none" stroke="midnightblue" d="M344.753,-56.324C334.203,-48.1849 318.199,-35.8395 305.558,-26.0874"/>
<polygon fill="midnightblue" stroke="midnightblue" points="307.507,-23.1707 297.451,-19.8339 303.231,-28.7132 307.507,-23.1707"/>
</g>
<!-- Node10 -->
<g id="node10" class="node"><title>Node10</title>
<polygon fill="white" stroke="#bfbfbf" points="326.5,-0.5 326.5,-19.5 385.5,-19.5 385.5,-0.5 326.5,-0.5"/>
<text text-anchor="middle" x="356" y="-7.5" font-family="Helvetica,sans-Serif" font-size="10.00">iostream</text>
</g>
<!-- Node7&#45;&gt;Node10 -->
<g id="edge9" class="edge"><title>Node7&#45;&gt;Node10</title>
<path fill="none" stroke="midnightblue" d="M356,-56.083C356,-49.0059 356,-38.8611 356,-29.9865"/>
<polygon fill="midnightblue" stroke="midnightblue" points="359.5,-29.751 356,-19.7511 352.5,-29.7511 359.5,-29.751"/>
</g>
<!-- Node11 -->
<g id="node11" class="node"><title>Node11</title>
<polygon fill="white" stroke="#bfbfbf" points="404,-0.5 404,-19.5 460,-19.5 460,-0.5 404,-0.5"/>
<text text-anchor="middle" x="432" y="-7.5" font-family="Helvetica,sans-Serif" font-size="10.00">sstream</text>
</g>
<!-- Node7&#45;&gt;Node11 -->
<g id="edge10" class="edge"><title>Node7&#45;&gt;Node11</title>
<path fill="none" stroke="midnightblue" d="M368.211,-56.324C379.776,-48.1066 397.375,-35.6017 411.161,-25.8069"/>
<polygon fill="midnightblue" stroke="midnightblue" points="413.443,-28.4791 419.567,-19.8339 409.388,-22.7729 413.443,-28.4791"/>
</g>
<!-- Node12 -->
<g id="node12" class="node"><title>Node12</title>
<polygon fill="white" stroke="#bfbfbf" points="478,-0.5 478,-19.5 526,-19.5 526,-0.5 478,-0.5"/>
<text text-anchor="middle" x="502" y="-7.5" font-family="Helvetica,sans-Serif" font-size="10.00">thread</text>
</g>
<!-- Node7&#45;&gt;Node12 -->
<g id="edge11" class="edge"><title>Node7&#45;&gt;Node12</title>
<path fill="none" stroke="midnightblue" d="M379.134,-56.4435C403.482,-47.4381 442.007,-33.1891 469.423,-23.049"/>
<polygon fill="midnightblue" stroke="midnightblue" points="470.809,-26.2681 478.974,-19.5164 468.381,-19.7028 470.809,-26.2681"/>
</g>
<!-- Node15&#45;&gt;Node6 -->
<g id="edge16" class="edge"><title>Node15&#45;&gt;Node6</title>
<path fill="none" stroke="midnightblue" d="M309.513,-175.264C375.287,-164.571 498.544,-144.533 571.848,-132.616"/>
<polygon fill="midnightblue" stroke="midnightblue" points="572.54,-136.05 581.849,-130.99 571.416,-129.141 572.54,-136.05"/>
</g>
<!-- Node16 -->
<g id="node16" class="node"><title>Node16</title>
<polygon fill="white" stroke="#bfbfbf" points="110,-112.5 110,-131.5 178,-131.5 178,-112.5 110,-112.5"/>
<text text-anchor="middle" x="144" y="-119.5" font-family="Helvetica,sans-Serif" font-size="10.00">Eigen/Core</text>
</g>
<!-- Node15&#45;&gt;Node16 -->
<g id="edge17" class="edge"><title>Node15&#45;&gt;Node16</title>
<path fill="none" stroke="midnightblue" d="M247.664,-173.975C227.447,-164.034 193.813,-147.495 170.358,-135.961"/>
<polygon fill="midnightblue" stroke="midnightblue" points="171.822,-132.781 161.304,-131.509 168.733,-139.063 171.822,-132.781"/>
</g>
<!-- Node17 -->
<g id="node17" class="node"><title>Node17</title>
<polygon fill="white" stroke="#bfbfbf" points="196,-112.5 196,-131.5 290,-131.5 290,-112.5 196,-112.5"/>
<text text-anchor="middle" x="243" y="-119.5" font-family="Helvetica,sans-Serif" font-size="10.00">Eigen/Geometry</text>
</g>
<!-- Node15&#45;&gt;Node17 -->
<g id="edge18" class="edge"><title>Node15&#45;&gt;Node17</title>
<path fill="none" stroke="midnightblue" d="M261.848,-173.975C258.679,-165.404 253.696,-151.927 249.649,-140.983"/>
<polygon fill="midnightblue" stroke="midnightblue" points="252.897,-139.675 246.146,-131.509 246.332,-142.102 252.897,-139.675"/>
</g>
<!-- Node18 -->
<g id="node18" class="node"><title>Node18</title>
<polygon fill="white" stroke="#bfbfbf" points="308,-112.5 308,-131.5 388,-131.5 388,-112.5 308,-112.5"/>
<text text-anchor="middle" x="348" y="-119.5" font-family="Helvetica,sans-Serif" font-size="10.00">Eigen/Sparse</text>
</g>
<!-- Node15&#45;&gt;Node18 -->
<g id="edge19" class="edge"><title>Node15&#45;&gt;Node18</title>
<path fill="none" stroke="midnightblue" d="M276.892,-173.975C290.205,-164.431 312,-148.807 327.957,-137.368"/>
<polygon fill="midnightblue" stroke="midnightblue" points="330.042,-140.18 336.13,-131.509 325.964,-134.491 330.042,-140.18"/>
</g>
<!-- Node19&#45;&gt;Node6 -->
<g id="edge22" class="edge"><title>Node19&#45;&gt;Node6</title>
<path fill="none" stroke="midnightblue" d="M420.586,-235.985C460.947,-229.742 506.844,-218.66 545,-199 562.888,-189.783 562.992,-181.405 578,-168 589.253,-157.949 602.153,-146.984 612.408,-138.395"/>
<polygon fill="midnightblue" stroke="midnightblue" points="614.867,-140.902 620.307,-131.811 610.385,-135.525 614.867,-140.902"/>
</g>
<!-- Node19&#45;&gt;Node15 -->
<g id="edge23" class="edge"><title>Node19&#45;&gt;Node15</title>
<path fill="none" stroke="midnightblue" d="M312.12,-235.475C303.706,-226.373 290.181,-211.741 279.774,-200.483"/>
<polygon fill="midnightblue" stroke="midnightblue" points="282.224,-197.977 272.866,-193.009 277.083,-202.728 282.224,-197.977"/>
</g>
<!-- Node20&#45;&gt;Node4 -->
<g id="edge27" class="edge"><title>Node20&#45;&gt;Node4</title>
<path fill="none" stroke="midnightblue" d="M608.933,-291.324C593.042,-282.743 568.493,-269.486 550.042,-259.522"/>
<polygon fill="midnightblue" stroke="midnightblue" points="551.489,-256.326 541.027,-254.655 548.163,-262.486 551.489,-256.326"/>
</g>
<!-- Node20&#45;&gt;Node6 -->
<g id="edge28" class="edge"><title>Node20&#45;&gt;Node6</title>
<path fill="none" stroke="midnightblue" d="M684.592,-297.17C747.551,-292.785 840.764,-281.834 863,-255 875.43,-240 894.85,-209.058 859,-168 837.301,-143.149 750.28,-131.684 690.25,-126.645"/>
<polygon fill="midnightblue" stroke="midnightblue" points="690.368,-123.143 680.121,-125.833 689.809,-130.121 690.368,-123.143"/>
</g>
<!-- Node21 -->
<g id="node21" class="node"><title>Node21</title>
<g id="a_node21"><a xlink:href="Index_8hpp.html" target="_top" xlink:title="Core/Utils/Index.hpp">
<polygon fill="white" stroke="black" points="741.5,-235.5 741.5,-254.5 854.5,-254.5 854.5,-235.5 741.5,-235.5"/>
<text text-anchor="middle" x="798" y="-242.5" font-family="Helvetica,sans-Serif" font-size="10.00">Core/Utils/Index.hpp</text>
</a>
</g>
</g>
<!-- Node20&#45;&gt;Node21 -->
<g id="edge29" class="edge"><title>Node20&#45;&gt;Node21</title>
<path fill="none" stroke="midnightblue" d="M652.412,-291.444C681.769,-282.28 728.519,-267.688 761.096,-257.519"/>
<polygon fill="midnightblue" stroke="midnightblue" points="762.213,-260.837 770.716,-254.516 760.127,-254.155 762.213,-260.837"/>
</g>
<!-- Node21&#45;&gt;Node6 -->
<g id="edge30" class="edge"><title>Node21&#45;&gt;Node6</title>
<path fill="none" stroke="midnightblue" d="M809.481,-235.478C827.849,-220.824 860.03,-190.281 842,-168 823.201,-144.77 745.86,-133.015 690.26,-127.456"/>
<polygon fill="midnightblue" stroke="midnightblue" points="690.439,-123.958 680.151,-126.489 689.772,-130.926 690.439,-123.958"/>
</g>
<!-- Node21&#45;&gt;Node22 -->
<g id="edge31" class="edge"><title>Node21&#45;&gt;Node22</title>
<path fill="none" stroke="midnightblue" d="M782.383,-235.475C764.414,-225.666 734.679,-209.435 713.594,-197.925"/>
<polygon fill="midnightblue" stroke="midnightblue" points="715.042,-194.728 704.588,-193.009 711.689,-200.873 715.042,-194.728"/>
</g>
<!-- Node23 -->
<g id="node23" class="node"><title>Node23</title>
<g id="a_node23"><a xlink:href="Index_8inl.html" target="_top" xlink:title="Core/Utils/Index.inl">
<polygon fill="white" stroke="black" points="728.5,-174 728.5,-193 833.5,-193 833.5,-174 728.5,-174"/>
<text text-anchor="middle" x="781" y="-181" font-family="Helvetica,sans-Serif" font-size="10.00">Core/Utils/Index.inl</text>
</a>
</g>
</g>
<!-- Node21&#45;&gt;Node23 -->
<g id="edge32" class="edge"><title>Node21&#45;&gt;Node23</title>
<path fill="none" stroke="midnightblue" d="M795.564,-235.475C793.141,-226.992 789.344,-213.704 786.235,-202.822"/>
<polygon fill="midnightblue" stroke="midnightblue" points="789.544,-201.663 783.431,-193.009 782.813,-203.586 789.544,-201.663"/>
</g>
<!-- Node24&#45;&gt;Node7 -->
<g id="edge34" class="edge"><title>Node24&#45;&gt;Node7</title>
<path fill="none" stroke="midnightblue" d="M109.086,-173.558C100.232,-158.94 86.082,-129.781 101,-112 124.189,-84.3606 218.545,-73.6902 285.71,-69.5755"/>
<polygon fill="midnightblue" stroke="midnightblue" points="286.043,-73.0622 295.825,-68.9923 285.64,-66.0738 286.043,-73.0622"/>
</g>
<!-- Node24&#45;&gt;Node16 -->
<g id="edge35" class="edge"><title>Node24&#45;&gt;Node16</title>
<path fill="none" stroke="midnightblue" d="M119.155,-173.975C123.376,-165.315 130.037,-151.649 135.4,-140.645"/>
<polygon fill="midnightblue" stroke="midnightblue" points="138.618,-142.032 139.853,-131.509 132.325,-138.965 138.618,-142.032"/>
</g>
<!-- Node24&#45;&gt;Node17 -->
<g id="edge36" class="edge"><title>Node24&#45;&gt;Node17</title>
<path fill="none" stroke="midnightblue" d="M133.339,-173.975C154.821,-163.99 190.622,-147.348 215.448,-135.807"/>
<polygon fill="midnightblue" stroke="midnightblue" points="217.102,-138.898 224.695,-131.509 214.151,-132.551 217.102,-138.898"/>
</g>
<!-- Node25 -->
<g id="node25" class="node"><title>Node25</title>
<polygon fill="white" stroke="#bfbfbf" points="0,-112.5 0,-131.5 54,-131.5 54,-112.5 0,-112.5"/>
<text text-anchor="middle" x="27" y="-119.5" font-family="Helvetica,sans-Serif" font-size="10.00">random</text>
</g>
<!-- Node24&#45;&gt;Node25 -->
<g id="edge37" class="edge"><title>Node24&#45;&gt;Node25</title>
<path fill="none" stroke="midnightblue" d="M102.392,-173.975C88.2768,-164.431 65.1688,-148.807 48.2506,-137.368"/>
<polygon fill="midnightblue" stroke="midnightblue" points="49.8294,-134.211 39.5849,-131.509 45.9086,-140.01 49.8294,-134.211"/>
</g>
<!-- Node26&#45;&gt;Node3 -->
<g id="edge39" class="edge"><title>Node26&#45;&gt;Node3</title>
<path fill="none" stroke="midnightblue" d="M372.06,-310.655C391.793,-319.267 419.728,-332.605 439.11,-342.59"/>
<polygon fill="midnightblue" stroke="midnightblue" points="437.64,-345.771 448.12,-347.324 440.896,-339.574 437.64,-345.771"/>
</g>
</g>
</svg>
