<?xml version="1.0" encoding="UTF-8" standalone="no"?>
<!DOCTYPE svg PUBLIC "-//W3C//DTD SVG 1.1//EN"
 "http://www.w3.org/Graphics/SVG/1.1/DTD/svg11.dtd">
<!-- Generated by graphviz version 2.38.0 (20140413.2041)
 -->
<!-- Title: /home/travis/build/STORM&#45;IRIT/Radium&#45;Engine/src/Core/Geometry/DistanceQueries.inl Pages: 1 -->
<svg width="663pt" height="284pt"
 viewBox="0.00 0.00 662.50 284.00" xmlns="http://www.w3.org/2000/svg" xmlns:xlink="http://www.w3.org/1999/xlink">
<g id="graph0" class="graph" transform="scale(1 1) rotate(0) translate(4 280)">
<title>/home/travis/build/STORM&#45;IRIT/Radium&#45;Engine/src/Core/Geometry/DistanceQueries.inl</title>
<polygon fill="white" stroke="none" points="-4,4 -4,-280 658.5,-280 658.5,4 -4,4"/>
<!-- Node1 -->
<g id="node1" class="node"><title>Node1</title>
<polygon fill="#bfbfbf" stroke="black" points="212.5,-234.5 212.5,-275.5 418.5,-275.5 418.5,-234.5 212.5,-234.5"/>
<text text-anchor="start" x="220.5" y="-263.5" font-family="Helvetica,sans-Serif" font-size="10.00">/home/travis/build</text>
<text text-anchor="start" x="220.5" y="-252.5" font-family="Helvetica,sans-Serif" font-size="10.00">/STORM&#45;IRIT/Radium&#45;Engine</text>
<text text-anchor="middle" x="315.5" y="-241.5" font-family="Helvetica,sans-Serif" font-size="10.00">/src/Core/Geometry/DistanceQueries.inl</text>
</g>
<!-- Node2 -->
<g id="node2" class="node"><title>Node2</title>
<g id="a_node2"><a xlink:href="DistanceQueries_8hpp.html" target="_top" xlink:title="/home/travis/build\l/STORM&#45;IRIT/Radium&#45;Engine\l/src/Core/Geometry/DistanceQueries.hpp">
<polygon fill="white" stroke="black" points="209,-156.5 209,-197.5 422,-197.5 422,-156.5 209,-156.5"/>
<text text-anchor="start" x="217" y="-185.5" font-family="Helvetica,sans-Serif" font-size="10.00">/home/travis/build</text>
<text text-anchor="start" x="217" y="-174.5" font-family="Helvetica,sans-Serif" font-size="10.00">/STORM&#45;IRIT/Radium&#45;Engine</text>
<text text-anchor="middle" x="315.5" y="-163.5" font-family="Helvetica,sans-Serif" font-size="10.00">/src/Core/Geometry/DistanceQueries.hpp</text>
</a>
</g>
</g>
<!-- Node1&#45;&gt;Node2 -->
<g id="edge1" class="edge"><title>Node1&#45;&gt;Node2</title>
<path fill="none" stroke="midnightblue" d="M308.895,-224.297C308.576,-215.301 308.783,-205.653 309.518,-197.506"/>
<polygon fill="midnightblue" stroke="midnightblue" points="305.411,-224.659 309.512,-234.428 312.398,-224.234 305.411,-224.659"/>
</g>
<!-- Node2&#45;&gt;Node1 -->
<g id="edge3" class="edge"><title>Node2&#45;&gt;Node1</title>
<path fill="none" stroke="midnightblue" d="M322.102,-207.63C322.424,-216.622 322.22,-226.272 321.488,-234.428"/>
<polygon fill="midnightblue" stroke="midnightblue" points="325.587,-207.273 321.482,-197.506 318.6,-207.701 325.587,-207.273"/>
</g>
<!-- Node3 -->
<g id="node3" class="node"><title>Node3</title>
<g id="a_node3"><a xlink:href="BulgeCorrection_8cpp.html" target="_top" xlink:title="/home/travis/build\l/STORM&#45;IRIT/Radium&#45;Engine\l/src/Core/Animation/BulgeCorrection.cpp">
<polygon fill="white" stroke="black" points="0,-78.5 0,-119.5 211,-119.5 211,-78.5 0,-78.5"/>
<text text-anchor="start" x="8" y="-107.5" font-family="Helvetica,sans-Serif" font-size="10.00">/home/travis/build</text>
<text text-anchor="start" x="8" y="-96.5" font-family="Helvetica,sans-Serif" font-size="10.00">/STORM&#45;IRIT/Radium&#45;Engine</text>
<text text-anchor="middle" x="105.5" y="-85.5" font-family="Helvetica,sans-Serif" font-size="10.00">/src/Core/Animation/BulgeCorrection.cpp</text>
</a>
</g>
</g>
<!-- Node2&#45;&gt;Node3 -->
<g id="edge2" class="edge"><title>Node2&#45;&gt;Node3</title>
<path fill="none" stroke="midnightblue" d="M251.636,-152.887C222.156,-142.219 187.538,-129.69 159.397,-119.506"/>
<polygon fill="midnightblue" stroke="midnightblue" points="250.826,-156.316 261.42,-156.428 253.208,-149.734 250.826,-156.316"/>
</g>
<!-- Node4 -->
<g id="node4" class="node"><title>Node4</title>
<g id="a_node4"><a xlink:href="PolyLine_8hpp.html" target="_top" xlink:title="/home/travis/build\l/STORM&#45;IRIT/Radium&#45;Engine\l/src/Core/Geometry/PolyLine.hpp">
<polygon fill="white" stroke="black" points="229,-78.5 229,-119.5 402,-119.5 402,-78.5 229,-78.5"/>
<text text-anchor="start" x="237" y="-107.5" font-family="Helvetica,sans-Serif" font-size="10.00">/home/travis/build</text>
<text text-anchor="start" x="237" y="-96.5" font-family="Helvetica,sans-Serif" font-size="10.00">/STORM&#45;IRIT/Radium&#45;Engine</text>
<text text-anchor="middle" x="315.5" y="-85.5" font-family="Helvetica,sans-Serif" font-size="10.00">/src/Core/Geometry/PolyLine.hpp</text>
</a>
</g>
</g>
<!-- Node2&#45;&gt;Node4 -->
<g id="edge4" class="edge"><title>Node2&#45;&gt;Node4</title>
<path fill="none" stroke="midnightblue" d="M315.5,-146.297C315.5,-137.301 315.5,-127.653 315.5,-119.506"/>
<polygon fill="midnightblue" stroke="midnightblue" points="312,-146.428 315.5,-156.428 319,-146.428 312,-146.428"/>
</g>
<!-- Node7 -->
<g id="node7" class="node"><title>Node7</title>
<g id="a_node7"><a xlink:href="SkinningComponent_8cpp.html" target="_top" xlink:title="/home/travis/build\l/STORM&#45;IRIT/Radium&#45;Engine\l/Plugins/Skinning/src/SkinningComponent.cpp">
<polygon fill="white" stroke="black" points="420.5,-78.5 420.5,-119.5 654.5,-119.5 654.5,-78.5 420.5,-78.5"/>
<text text-anchor="start" x="428.5" y="-107.5" font-family="Helvetica,sans-Serif" font-size="10.00">/home/travis/build</text>
<text text-anchor="start" x="428.5" y="-96.5" font-family="Helvetica,sans-Serif" font-size="10.00">/STORM&#45;IRIT/Radium&#45;Engine</text>
<text text-anchor="middle" x="537.5" y="-85.5" font-family="Helvetica,sans-Serif" font-size="10.00">/Plugins/Skinning/src/SkinningComponent.cpp</text>
</a>
</g>
</g>
<!-- Node2&#45;&gt;Node7 -->
<g id="edge8" class="edge"><title>Node2&#45;&gt;Node7</title>
<path fill="none" stroke="midnightblue" d="M382.202,-153.165C413.54,-142.437 450.515,-129.779 480.523,-119.506"/>
<polygon fill="midnightblue" stroke="midnightblue" points="380.998,-149.878 372.671,-156.428 383.265,-156.5 380.998,-149.878"/>
</g>
<!-- Node5 -->
<g id="node5" class="node"><title>Node5</title>
<g id="a_node5"><a xlink:href="PolyLine_8cpp.html" target="_top" xlink:title="/home/travis/build\l/STORM&#45;IRIT/Radium&#45;Engine\l/src/Core/Geometry/PolyLine.cpp">
<polygon fill="white" stroke="black" points="41,-0.5 41,-41.5 214,-41.5 214,-0.5 41,-0.5"/>
<text text-anchor="start" x="49" y="-29.5" font-family="Helvetica,sans-Serif" font-size="10.00">/home/travis/build</text>
<text text-anchor="start" x="49" y="-18.5" font-family="Helvetica,sans-Serif" font-size="10.00">/STORM&#45;IRIT/Radium&#45;Engine</text>
<text text-anchor="middle" x="127.5" y="-7.5" font-family="Helvetica,sans-Serif" font-size="10.00">/src/Core/Geometry/PolyLine.cpp</text>
</a>
</g>
</g>
<!-- Node4&#45;&gt;Node5 -->
<g id="edge5" class="edge"><title>Node4&#45;&gt;Node5</title>
<path fill="none" stroke="midnightblue" d="M257.637,-74.6086C231.397,-64.0008 200.725,-51.6015 175.751,-41.5056"/>
<polygon fill="midnightblue" stroke="midnightblue" points="256.502,-77.925 267.085,-78.4281 259.126,-71.4353 256.502,-77.925"/>
</g>
<!-- Node6 -->
<g id="node6" class="node"><title>Node6</title>
<g id="a_node6"><a xlink:href="PolyLine_8inl.html" target="_top" xlink:title="/home/travis/build\l/STORM&#45;IRIT/Radium&#45;Engine\l/src/Core/Geometry/PolyLine.inl">
<polygon fill="white" stroke="black" points="232.5,-0.5 232.5,-41.5 398.5,-41.5 398.5,-0.5 232.5,-0.5"/>
<text text-anchor="start" x="240.5" y="-29.5" font-family="Helvetica,sans-Serif" font-size="10.00">/home/travis/build</text>
<text text-anchor="start" x="240.5" y="-18.5" font-family="Helvetica,sans-Serif" font-size="10.00">/STORM&#45;IRIT/Radium&#45;Engine</text>
<text text-anchor="middle" x="315.5" y="-7.5" font-family="Helvetica,sans-Serif" font-size="10.00">/src/Core/Geometry/PolyLine.inl</text>
</a>
</g>
</g>
<!-- Node4&#45;&gt;Node6 -->
<g id="edge6" class="edge"><title>Node4&#45;&gt;Node6</title>
<path fill="none" stroke="midnightblue" d="M308.895,-68.2965C308.576,-59.3009 308.783,-49.6532 309.518,-41.5056"/>
<polygon fill="midnightblue" stroke="midnightblue" points="305.411,-68.6593 309.512,-78.4281 312.398,-68.2339 305.411,-68.6593"/>
</g>
<!-- Node6&#45;&gt;Node4 -->
<g id="edge7" class="edge"><title>Node6&#45;&gt;Node4</title>
<path fill="none" stroke="midnightblue" d="M322.102,-51.6303C322.424,-60.6224 322.22,-70.2724 321.488,-78.4281"/>
<polygon fill="midnightblue" stroke="midnightblue" points="325.587,-51.2729 321.482,-41.5056 318.6,-51.7008 325.587,-51.2729"/>
</g>
</g>
</svg>
