<?xml version="1.0" encoding="UTF-8" standalone="no"?>
<!DOCTYPE svg PUBLIC "-//W3C//DTD SVG 1.1//EN"
 "http://www.w3.org/Graphics/SVG/1.1/DTD/svg11.dtd">
<!-- Generated by graphviz version 2.38.0 (20140413.2041)
 -->
<!-- Title: /home/travis/build/STORM&#45;IRIT/Radium&#45;Engine/src/Engine/Renderer/RenderObject/Primitives/DrawPrimitives.hpp Pages: 1 -->
<svg width="1074pt" height="408pt"
 viewBox="0.00 0.00 1073.50 408.00" xmlns="http://www.w3.org/2000/svg" xmlns:xlink="http://www.w3.org/1999/xlink">
<g id="graph0" class="graph" transform="scale(1 1) rotate(0) translate(4 404)">
<title>/home/travis/build/STORM&#45;IRIT/Radium&#45;Engine/src/Engine/Renderer/RenderObject/Primitives/DrawPrimitives.hpp</title>
<polygon fill="white" stroke="none" points="-4,4 -4,-404 1069.5,-404 1069.5,4 -4,4"/>
<!-- Node1 -->
<g id="node1" class="node"><title>Node1</title>
<polygon fill="#bfbfbf" stroke="black" points="618.5,-347.5 618.5,-399.5 800.5,-399.5 800.5,-347.5 618.5,-347.5"/>
<text text-anchor="start" x="626.5" y="-387.5" font-family="Helvetica,sans-Serif" font-size="10.00">/home/travis/build</text>
<text text-anchor="start" x="626.5" y="-376.5" font-family="Helvetica,sans-Serif" font-size="10.00">/STORM&#45;IRIT/Radium&#45;Engine</text>
<text text-anchor="start" x="626.5" y="-365.5" font-family="Helvetica,sans-Serif" font-size="10.00">/src/Engine/Renderer/RenderObject</text>
<text text-anchor="middle" x="709.5" y="-354.5" font-family="Helvetica,sans-Serif" font-size="10.00">/Primitives/DrawPrimitives.hpp</text>
</g>
<!-- Node2 -->
<g id="node2" class="node"><title>Node2</title>
<g id="a_node2"><a xlink:href="RaEngine_8hpp.html" target="_top" xlink:title="Engine/RaEngine.hpp">
<polygon fill="white" stroke="black" points="0,-235.5 0,-254.5 117,-254.5 117,-235.5 0,-235.5"/>
<text text-anchor="middle" x="58.5" y="-242.5" font-family="Helvetica,sans-Serif" font-size="10.00">Engine/RaEngine.hpp</text>
</a>
</g>
</g>
<!-- Node1&#45;&gt;Node2 -->
<g id="edge1" class="edge"><title>Node1&#45;&gt;Node2</title>
<path fill="none" stroke="midnightblue" d="M618.296,-354.778C480.525,-328.006 223.626,-278.087 112.274,-256.449"/>
<polygon fill="midnightblue" stroke="midnightblue" points="112.762,-252.979 102.278,-254.507 111.427,-259.85 112.762,-252.979"/>
</g>
<!-- Node9 -->
<g id="node9" class="node"><title>Node9</title>
<g id="a_node9"><a xlink:href="Obb_8hpp.html" target="_top" xlink:title="Core/Geometry/Obb.hpp">
<polygon fill="white" stroke="black" points="753.5,-174 753.5,-193 887.5,-193 887.5,-174 753.5,-174"/>
<text text-anchor="middle" x="820.5" y="-181" font-family="Helvetica,sans-Serif" font-size="10.00">Core/Geometry/Obb.hpp</text>
</a>
</g>
</g>
<!-- Node1&#45;&gt;Node9 -->
<g id="edge8" class="edge"><title>Node1&#45;&gt;Node9</title>
<path fill="none" stroke="midnightblue" d="M712.584,-347.333C717.189,-318.058 728.096,-269.36 752.5,-235 763.396,-219.658 780.391,-207.035 794.664,-198.247"/>
<polygon fill="midnightblue" stroke="midnightblue" points="796.7,-201.111 803.559,-193.036 793.161,-195.071 796.7,-201.111"/>
</g>
<!-- Node13 -->
<g id="node13" class="node"><title>Node13</title>
<g id="a_node13"><a xlink:href="Spline_8hpp.html" target="_top" xlink:title="Core/Geometry/Spline.hpp">
<polygon fill="white" stroke="black" points="407,-291.5 407,-310.5 550,-310.5 550,-291.5 407,-291.5"/>
<text text-anchor="middle" x="478.5" y="-298.5" font-family="Helvetica,sans-Serif" font-size="10.00">Core/Geometry/Spline.hpp</text>
</a>
</g>
</g>
<!-- Node1&#45;&gt;Node13 -->
<g id="edge13" class="edge"><title>Node1&#45;&gt;Node13</title>
<path fill="none" stroke="midnightblue" d="M627.408,-347.446C589.426,-335.854 546.17,-322.653 516.104,-313.476"/>
<polygon fill="midnightblue" stroke="midnightblue" points="517.026,-310.099 506.439,-310.527 514.982,-316.794 517.026,-310.099"/>
</g>
<!-- Node18 -->
<g id="node18" class="node"><title>Node18</title>
<g id="a_node18"><a xlink:href="Types_8hpp.html" target="_top" xlink:title="Core/Types.hpp">
<polygon fill="white" stroke="black" points="646,-174 646,-193 735,-193 735,-174 646,-174"/>
<text text-anchor="middle" x="690.5" y="-181" font-family="Helvetica,sans-Serif" font-size="10.00">Core/Types.hpp</text>
</a>
</g>
</g>
<!-- Node1&#45;&gt;Node18 -->
<g id="edge37" class="edge"><title>Node1&#45;&gt;Node18</title>
<path fill="none" stroke="midnightblue" d="M706.938,-347.145C703.078,-308.952 695.858,-237.514 692.418,-203.475"/>
<polygon fill="midnightblue" stroke="midnightblue" points="695.858,-202.708 691.37,-193.111 688.894,-203.412 695.858,-202.708"/>
</g>
<!-- Node25 -->
<g id="node25" class="node"><title>Node25</title>
<g id="a_node25"><a xlink:href="Color_8hpp.html" target="_top" xlink:title="Core/Utils/Color.hpp">
<polygon fill="white" stroke="black" points="906,-174 906,-193 1017,-193 1017,-174 906,-174"/>
<text text-anchor="middle" x="961.5" y="-181" font-family="Helvetica,sans-Serif" font-size="10.00">Core/Utils/Color.hpp</text>
</a>
</g>
</g>
<!-- Node1&#45;&gt;Node25 -->
<g id="edge38" class="edge"><title>Node1&#45;&gt;Node25</title>
<path fill="none" stroke="midnightblue" d="M729.848,-347.246C744.312,-330.202 764.778,-307.834 785.5,-291 834.149,-251.479 898.811,-216.093 934.667,-197.746"/>
<polygon fill="midnightblue" stroke="midnightblue" points="936.637,-200.672 943.979,-193.034 933.476,-194.426 936.637,-200.672"/>
</g>
<!-- Node27 -->
<g id="node27" class="node"><title>Node27</title>
<polygon fill="white" stroke="#bfbfbf" points="795,-291.5 795,-310.5 852,-310.5 852,-291.5 795,-291.5"/>
<text text-anchor="middle" x="823.5" y="-298.5" font-family="Helvetica,sans-Serif" font-size="10.00">memory</text>
</g>
<!-- Node1&#45;&gt;Node27 -->
<g id="edge43" class="edge"><title>Node1&#45;&gt;Node27</title>
<path fill="none" stroke="midnightblue" d="M750.013,-347.446C767.128,-336.862 786.412,-324.936 800.93,-315.958"/>
<polygon fill="midnightblue" stroke="midnightblue" points="803.048,-318.763 809.712,-310.527 799.366,-312.81 803.048,-318.763"/>
</g>
<!-- Node3 -->
<g id="node3" class="node"><title>Node3</title>
<g id="a_node3"><a xlink:href="CoreMacros_8hpp.html" target="_top" xlink:title="Core/CoreMacros.hpp">
<polygon fill="white" stroke="black" points="280.5,-56.5 280.5,-75.5 400.5,-75.5 400.5,-56.5 280.5,-56.5"/>
<text text-anchor="middle" x="340.5" y="-63.5" font-family="Helvetica,sans-Serif" font-size="10.00">Core/CoreMacros.hpp</text>
</a>
</g>
</g>
<!-- Node2&#45;&gt;Node3 -->
<g id="edge2" class="edge"><title>Node2&#45;&gt;Node3</title>
<path fill="none" stroke="midnightblue" d="M58.859,-235.289C60.339,-211.481 67.9039,-144.907 106.5,-112 130.753,-91.3213 210.585,-79.2329 270.303,-72.8853"/>
<polygon fill="midnightblue" stroke="midnightblue" points="270.861,-76.3464 280.45,-71.8407 270.144,-69.3832 270.861,-76.3464"/>
</g>
<!-- Node4 -->
<g id="node4" class="node"><title>Node4</title>
<polygon fill="white" stroke="#bfbfbf" points="177.5,-0.5 177.5,-19.5 229.5,-19.5 229.5,-0.5 177.5,-0.5"/>
<text text-anchor="middle" x="203.5" y="-7.5" font-family="Helvetica,sans-Serif" font-size="10.00">cassert</text>
</g>
<!-- Node3&#45;&gt;Node4 -->
<g id="edge3" class="edge"><title>Node3&#45;&gt;Node4</title>
<path fill="none" stroke="midnightblue" d="M318.792,-56.4435C296.145,-47.5171 260.428,-33.4387 234.748,-23.3168"/>
<polygon fill="midnightblue" stroke="midnightblue" points="235.693,-19.9273 225.106,-19.5164 233.126,-26.4397 235.693,-19.9273"/>
</g>
<!-- Node5 -->
<g id="node5" class="node"><title>Node5</title>
<polygon fill="white" stroke="#bfbfbf" points="248,-0.5 248,-19.5 293,-19.5 293,-0.5 248,-0.5"/>
<text text-anchor="middle" x="270.5" y="-7.5" font-family="Helvetica,sans-Serif" font-size="10.00">cstdio</text>
</g>
<!-- Node3&#45;&gt;Node5 -->
<g id="edge4" class="edge"><title>Node3&#45;&gt;Node5</title>
<path fill="none" stroke="midnightblue" d="M329.253,-56.324C318.703,-48.1849 302.699,-35.8395 290.058,-26.0874"/>
<polygon fill="midnightblue" stroke="midnightblue" points="292.007,-23.1707 281.951,-19.8339 287.731,-28.7132 292.007,-23.1707"/>
</g>
<!-- Node6 -->
<g id="node6" class="node"><title>Node6</title>
<polygon fill="white" stroke="#bfbfbf" points="311,-0.5 311,-19.5 370,-19.5 370,-0.5 311,-0.5"/>
<text text-anchor="middle" x="340.5" y="-7.5" font-family="Helvetica,sans-Serif" font-size="10.00">iostream</text>
</g>
<!-- Node3&#45;&gt;Node6 -->
<g id="edge5" class="edge"><title>Node3&#45;&gt;Node6</title>
<path fill="none" stroke="midnightblue" d="M340.5,-56.083C340.5,-49.0059 340.5,-38.8611 340.5,-29.9865"/>
<polygon fill="midnightblue" stroke="midnightblue" points="344,-29.751 340.5,-19.7511 337,-29.7511 344,-29.751"/>
</g>
<!-- Node7 -->
<g id="node7" class="node"><title>Node7</title>
<polygon fill="white" stroke="#bfbfbf" points="388.5,-0.5 388.5,-19.5 444.5,-19.5 444.5,-0.5 388.5,-0.5"/>
<text text-anchor="middle" x="416.5" y="-7.5" font-family="Helvetica,sans-Serif" font-size="10.00">sstream</text>
</g>
<!-- Node3&#45;&gt;Node7 -->
<g id="edge6" class="edge"><title>Node3&#45;&gt;Node7</title>
<path fill="none" stroke="midnightblue" d="M352.711,-56.324C364.276,-48.1066 381.875,-35.6017 395.661,-25.8069"/>
<polygon fill="midnightblue" stroke="midnightblue" points="397.943,-28.4791 404.067,-19.8339 393.888,-22.7729 397.943,-28.4791"/>
</g>
<!-- Node8 -->
<g id="node8" class="node"><title>Node8</title>
<polygon fill="white" stroke="#bfbfbf" points="462.5,-0.5 462.5,-19.5 510.5,-19.5 510.5,-0.5 462.5,-0.5"/>
<text text-anchor="middle" x="486.5" y="-7.5" font-family="Helvetica,sans-Serif" font-size="10.00">thread</text>
</g>
<!-- Node3&#45;&gt;Node8 -->
<g id="edge7" class="edge"><title>Node3&#45;&gt;Node8</title>
<path fill="none" stroke="midnightblue" d="M363.634,-56.4435C387.982,-47.4381 426.507,-33.1891 453.923,-23.049"/>
<polygon fill="midnightblue" stroke="midnightblue" points="455.309,-26.2681 463.474,-19.5164 452.881,-19.7028 455.309,-26.2681"/>
</g>
<!-- Node10 -->
<g id="node10" class="node"><title>Node10</title>
<g id="a_node10"><a xlink:href="RaCore_8hpp.html" target="_top" xlink:title="Core/RaCore.hpp">
<polygon fill="white" stroke="black" points="291.5,-112.5 291.5,-131.5 389.5,-131.5 389.5,-112.5 291.5,-112.5"/>
<text text-anchor="middle" x="340.5" y="-119.5" font-family="Helvetica,sans-Serif" font-size="10.00">Core/RaCore.hpp</text>
</a>
</g>
</g>
<!-- Node9&#45;&gt;Node10 -->
<g id="edge9" class="edge"><title>Node9&#45;&gt;Node10</title>
<path fill="none" stroke="midnightblue" d="M778.644,-173.971C767.273,-171.831 754.941,-169.671 743.5,-168 594.231,-146.195 553.138,-151.576 399.789,-132.102"/>
<polygon fill="midnightblue" stroke="midnightblue" points="399.888,-128.587 389.523,-130.783 398.995,-135.529 399.888,-128.587"/>
</g>
<!-- Node11 -->
<g id="node11" class="node"><title>Node11</title>
<polygon fill="white" stroke="#bfbfbf" points="887.5,-112.5 887.5,-131.5 955.5,-131.5 955.5,-112.5 887.5,-112.5"/>
<text text-anchor="middle" x="921.5" y="-119.5" font-family="Helvetica,sans-Serif" font-size="10.00">Eigen/Core</text>
</g>
<!-- Node9&#45;&gt;Node11 -->
<g id="edge11" class="edge"><title>Node9&#45;&gt;Node11</title>
<path fill="none" stroke="midnightblue" d="M834.971,-173.975C851.471,-164.255 878.678,-148.227 898.181,-136.737"/>
<polygon fill="midnightblue" stroke="midnightblue" points="900.216,-139.601 907.056,-131.509 896.663,-133.569 900.216,-139.601"/>
</g>
<!-- Node12 -->
<g id="node12" class="node"><title>Node12</title>
<polygon fill="white" stroke="#bfbfbf" points="775.5,-112.5 775.5,-131.5 869.5,-131.5 869.5,-112.5 775.5,-112.5"/>
<text text-anchor="middle" x="822.5" y="-119.5" font-family="Helvetica,sans-Serif" font-size="10.00">Eigen/Geometry</text>
</g>
<!-- Node9&#45;&gt;Node12 -->
<g id="edge12" class="edge"><title>Node9&#45;&gt;Node12</title>
<path fill="none" stroke="midnightblue" d="M820.787,-173.975C821.069,-165.58 821.509,-152.481 821.873,-141.663"/>
<polygon fill="midnightblue" stroke="midnightblue" points="825.376,-141.621 822.214,-131.509 818.38,-141.386 825.376,-141.621"/>
</g>
<!-- Node10&#45;&gt;Node3 -->
<g id="edge10" class="edge"><title>Node10&#45;&gt;Node3</title>
<path fill="none" stroke="midnightblue" d="M340.5,-112.083C340.5,-105.006 340.5,-94.8611 340.5,-85.9865"/>
<polygon fill="midnightblue" stroke="midnightblue" points="344,-85.751 340.5,-75.7511 337,-85.7511 344,-85.751"/>
</g>
<!-- Node13&#45;&gt;Node10 -->
<g id="edge26" class="edge"><title>Node13&#45;&gt;Node10</title>
<path fill="none" stroke="midnightblue" d="M472.998,-291.323C459.149,-269.707 421.319,-212.026 384.5,-168 375.913,-157.732 365.469,-146.987 356.912,-138.573"/>
<polygon fill="midnightblue" stroke="midnightblue" points="359.309,-136.022 349.69,-131.581 354.44,-141.051 359.309,-136.022"/>
</g>
<!-- Node14 -->
<g id="node14" class="node"><title>Node14</title>
<g id="a_node14"><a xlink:href="VectorArray_8hpp.html" target="_top" xlink:title="Core/Containers/VectorArray.hpp">
<polygon fill="white" stroke="black" points="229,-235.5 229,-254.5 402,-254.5 402,-235.5 229,-235.5"/>
<text text-anchor="middle" x="315.5" y="-242.5" font-family="Helvetica,sans-Serif" font-size="10.00">Core/Containers/VectorArray.hpp</text>
</a>
</g>
</g>
<!-- Node13&#45;&gt;Node14 -->
<g id="edge14" class="edge"><title>Node13&#45;&gt;Node14</title>
<path fill="none" stroke="midnightblue" d="M452.672,-291.444C425.251,-282.359 381.723,-267.939 351.068,-257.783"/>
<polygon fill="midnightblue" stroke="midnightblue" points="351.8,-254.339 341.207,-254.516 349.599,-260.984 351.8,-254.339"/>
</g>
<!-- Node17 -->
<g id="node17" class="node"><title>Node17</title>
<polygon fill="white" stroke="#bfbfbf" points="116,-112.5 116,-131.5 163,-131.5 163,-112.5 116,-112.5"/>
<text text-anchor="middle" x="139.5" y="-119.5" font-family="Helvetica,sans-Serif" font-size="10.00">vector</text>
</g>
<!-- Node13&#45;&gt;Node17 -->
<g id="edge27" class="edge"><title>Node13&#45;&gt;Node17</title>
<path fill="none" stroke="midnightblue" d="M406.695,-292.719C341.555,-285.184 251.038,-272.116 219.5,-255 189.648,-238.799 185.273,-227.943 167.5,-199 156.38,-180.891 148.631,-157.677 144.149,-141.697"/>
<polygon fill="midnightblue" stroke="midnightblue" points="147.509,-140.712 141.566,-131.94 140.742,-142.503 147.509,-140.712"/>
</g>
<!-- Node20 -->
<g id="node20" class="node"><title>Node20</title>
<g id="a_node20"><a xlink:href="Spline_8inl.html" target="_top" xlink:title="Core/Geometry/Spline.inl">
<polygon fill="white" stroke="black" points="458.5,-235.5 458.5,-254.5 594.5,-254.5 594.5,-235.5 458.5,-235.5"/>
<text text-anchor="middle" x="526.5" y="-242.5" font-family="Helvetica,sans-Serif" font-size="10.00">Core/Geometry/Spline.inl</text>
</a>
</g>
</g>
<!-- Node13&#45;&gt;Node20 -->
<g id="edge28" class="edge"><title>Node13&#45;&gt;Node20</title>
<path fill="none" stroke="midnightblue" d="M481.26,-291.083C486.644,-283.141 496.792,-271.335 506.253,-261.797"/>
<polygon fill="midnightblue" stroke="midnightblue" points="508.802,-264.202 513.59,-254.751 503.953,-259.154 508.802,-264.202"/>
</g>
<!-- Node14&#45;&gt;Node10 -->
<g id="edge19" class="edge"><title>Node14&#45;&gt;Node10</title>
<path fill="none" stroke="midnightblue" d="M331.834,-235.387C344.455,-227.72 360.997,-215.213 368.5,-199 377.682,-179.158 365.382,-155.383 354.307,-139.772"/>
<polygon fill="midnightblue" stroke="midnightblue" points="356.941,-137.454 348.099,-131.616 351.37,-141.693 356.941,-137.454"/>
</g>
<!-- Node15 -->
<g id="node15" class="node"><title>Node15</title>
<g id="a_node15"><a xlink:href="AlignedStdVector_8hpp.html" target="_top" xlink:title="Core/Containers/AlignedStd\lVector.hpp">
<polygon fill="white" stroke="black" points="211,-168.5 211,-198.5 360,-198.5 360,-168.5 211,-168.5"/>
<text text-anchor="start" x="219" y="-186.5" font-family="Helvetica,sans-Serif" font-size="10.00">Core/Containers/AlignedStd</text>
<text text-anchor="middle" x="285.5" y="-175.5" font-family="Helvetica,sans-Serif" font-size="10.00">Vector.hpp</text>
</a>
</g>
</g>
<!-- Node14&#45;&gt;Node15 -->
<g id="edge15" class="edge"><title>Node14&#45;&gt;Node15</title>
<path fill="none" stroke="midnightblue" d="M311.202,-235.475C307.518,-228.17 302.039,-217.302 297.084,-207.475"/>
<polygon fill="midnightblue" stroke="midnightblue" points="300.198,-205.876 292.57,-198.523 293.947,-209.028 300.198,-205.876"/>
</g>
<!-- Node14&#45;&gt;Node17 -->
<g id="edge25" class="edge"><title>Node14&#45;&gt;Node17</title>
<path fill="none" stroke="midnightblue" d="M281.305,-235.483C257.388,-228.39 225.549,-216.58 201.5,-199 179.666,-183.039 161.06,-157.629 150.08,-140.639"/>
<polygon fill="midnightblue" stroke="midnightblue" points="152.793,-138.374 144.53,-131.743 146.854,-142.08 152.793,-138.374"/>
</g>
<!-- Node14&#45;&gt;Node18 -->
<g id="edge20" class="edge"><title>Node14&#45;&gt;Node18</title>
<path fill="none" stroke="midnightblue" d="M369.228,-235.475C440.166,-224.22 564.408,-204.507 635.819,-193.176"/>
<polygon fill="midnightblue" stroke="midnightblue" points="636.631,-196.591 645.959,-191.567 635.534,-189.678 636.631,-196.591"/>
</g>
<!-- Node15&#45;&gt;Node10 -->
<g id="edge16" class="edge"><title>Node15&#45;&gt;Node10</title>
<path fill="none" stroke="midnightblue" d="M298.534,-168.399C306.691,-159.575 317.222,-148.183 325.694,-139.018"/>
<polygon fill="midnightblue" stroke="midnightblue" points="328.279,-141.377 332.497,-131.658 323.139,-136.625 328.279,-141.377"/>
</g>
<!-- Node16 -->
<g id="node16" class="node"><title>Node16</title>
<polygon fill="white" stroke="#bfbfbf" points="181,-112.5 181,-131.5 274,-131.5 274,-112.5 181,-112.5"/>
<text text-anchor="middle" x="227.5" y="-119.5" font-family="Helvetica,sans-Serif" font-size="10.00">Eigen/StdVector</text>
</g>
<!-- Node15&#45;&gt;Node16 -->
<g id="edge17" class="edge"><title>Node15&#45;&gt;Node16</title>
<path fill="none" stroke="midnightblue" d="M271.755,-168.399C263.153,-159.575 252.048,-148.183 243.114,-139.018"/>
<polygon fill="midnightblue" stroke="midnightblue" points="245.426,-136.375 235.94,-131.658 240.414,-141.262 245.426,-136.375"/>
</g>
<!-- Node15&#45;&gt;Node17 -->
<g id="edge18" class="edge"><title>Node15&#45;&gt;Node17</title>
<path fill="none" stroke="midnightblue" d="M250.9,-168.399C226.404,-158.416 193.843,-145.147 170.255,-135.534"/>
<polygon fill="midnightblue" stroke="midnightblue" points="171.326,-132.191 160.744,-131.658 168.684,-138.673 171.326,-132.191"/>
</g>
<!-- Node18&#45;&gt;Node10 -->
<g id="edge21" class="edge"><title>Node18&#45;&gt;Node10</title>
<path fill="none" stroke="midnightblue" d="M645.817,-174.904C583.198,-164.259 469.222,-144.883 399.634,-133.053"/>
<polygon fill="midnightblue" stroke="midnightblue" points="400.146,-129.59 389.701,-131.364 398.973,-136.491 400.146,-129.59"/>
</g>
<!-- Node18&#45;&gt;Node11 -->
<g id="edge22" class="edge"><title>Node18&#45;&gt;Node11</title>
<path fill="none" stroke="midnightblue" d="M721.891,-173.995C729.3,-172.009 737.175,-169.915 744.5,-168 789.591,-156.215 841.255,-143.127 877.079,-134.119"/>
<polygon fill="midnightblue" stroke="midnightblue" points="878.357,-137.406 887.202,-131.575 876.651,-130.617 878.357,-137.406"/>
</g>
<!-- Node18&#45;&gt;Node12 -->
<g id="edge23" class="edge"><title>Node18&#45;&gt;Node12</title>
<path fill="none" stroke="midnightblue" d="M709.412,-173.975C731.663,-163.945 768.812,-147.2 794.426,-135.655"/>
<polygon fill="midnightblue" stroke="midnightblue" points="795.944,-138.809 803.623,-131.509 793.068,-132.428 795.944,-138.809"/>
</g>
<!-- Node19 -->
<g id="node19" class="node"><title>Node19</title>
<polygon fill="white" stroke="#bfbfbf" points="677.5,-112.5 677.5,-131.5 757.5,-131.5 757.5,-112.5 677.5,-112.5"/>
<text text-anchor="middle" x="717.5" y="-119.5" font-family="Helvetica,sans-Serif" font-size="10.00">Eigen/Sparse</text>
</g>
<!-- Node18&#45;&gt;Node19 -->
<g id="edge24" class="edge"><title>Node18&#45;&gt;Node19</title>
<path fill="none" stroke="midnightblue" d="M694.368,-173.975C698.298,-165.315 704.5,-151.649 709.493,-140.645"/>
<polygon fill="midnightblue" stroke="midnightblue" points="712.694,-142.062 713.639,-131.509 706.319,-139.169 712.694,-142.062"/>
</g>
<!-- Node20&#45;&gt;Node13 -->
<g id="edge29" class="edge"><title>Node20&#45;&gt;Node13</title>
<path fill="none" stroke="midnightblue" d="M523.796,-254.834C518.417,-262.791 508.205,-274.673 498.696,-284.253"/>
<polygon fill="midnightblue" stroke="midnightblue" points="496.12,-281.875 491.327,-291.324 500.966,-286.926 496.12,-281.875"/>
</g>
<!-- Node21 -->
<g id="node21" class="node"><title>Node21</title>
<g id="a_node21"><a xlink:href="Math_8hpp.html" target="_top" xlink:title="Core/Math/Math.hpp">
<polygon fill="white" stroke="black" points="469.5,-174 469.5,-193 583.5,-193 583.5,-174 469.5,-174"/>
<text text-anchor="middle" x="526.5" y="-181" font-family="Helvetica,sans-Serif" font-size="10.00">Core/Math/Math.hpp</text>
</a>
</g>
</g>
<!-- Node20&#45;&gt;Node21 -->
<g id="edge30" class="edge"><title>Node20&#45;&gt;Node21</title>
<path fill="none" stroke="midnightblue" d="M526.5,-235.475C526.5,-227.08 526.5,-213.981 526.5,-203.163"/>
<polygon fill="midnightblue" stroke="midnightblue" points="530,-203.009 526.5,-193.009 523,-203.009 530,-203.009"/>
</g>
<!-- Node22 -->
<g id="node22" class="node"><title>Node22</title>
<polygon fill="white" stroke="#bfbfbf" points="597.5,-112.5 597.5,-131.5 659.5,-131.5 659.5,-112.5 597.5,-112.5"/>
<text text-anchor="middle" x="628.5" y="-119.5" font-family="Helvetica,sans-Serif" font-size="10.00">algorithm</text>
</g>
<!-- Node20&#45;&gt;Node22 -->
<g id="edge36" class="edge"><title>Node20&#45;&gt;Node22</title>
<path fill="none" stroke="midnightblue" d="M544.123,-235.376C558.646,-227.543 578.982,-214.811 592.5,-199 607.132,-181.886 617.199,-157.811 622.892,-141.372"/>
<polygon fill="midnightblue" stroke="midnightblue" points="626.233,-142.415 626.005,-131.822 619.578,-140.245 626.233,-142.415"/>
</g>
<!-- Node21&#45;&gt;Node10 -->
<g id="edge31" class="edge"><title>Node21&#45;&gt;Node10</title>
<path fill="none" stroke="midnightblue" d="M499.851,-173.975C467.531,-163.636 412.903,-146.161 376.767,-134.602"/>
<polygon fill="midnightblue" stroke="midnightblue" points="377.691,-131.222 367.1,-131.509 375.558,-137.89 377.691,-131.222"/>
</g>
<!-- Node21&#45;&gt;Node22 -->
<g id="edge32" class="edge"><title>Node21&#45;&gt;Node22</title>
<path fill="none" stroke="midnightblue" d="M541.114,-173.975C557.853,-164.211 585.504,-148.081 605.219,-136.581"/>
<polygon fill="midnightblue" stroke="midnightblue" points="607.039,-139.571 613.913,-131.509 603.512,-133.525 607.039,-139.571"/>
</g>
<!-- Node23 -->
<g id="node23" class="node"><title>Node23</title>
<polygon fill="white" stroke="#bfbfbf" points="408,-112.5 408,-131.5 455,-131.5 455,-112.5 408,-112.5"/>
<text text-anchor="middle" x="431.5" y="-119.5" font-family="Helvetica,sans-Serif" font-size="10.00">cmath</text>
</g>
<!-- Node21&#45;&gt;Node23 -->
<g id="edge33" class="edge"><title>Node21&#45;&gt;Node23</title>
<path fill="none" stroke="midnightblue" d="M512.889,-173.975C497.439,-164.299 472.01,-148.372 453.684,-136.894"/>
<polygon fill="midnightblue" stroke="midnightblue" points="455.419,-133.851 445.086,-131.509 451.703,-139.783 455.419,-133.851"/>
</g>
<!-- Node24 -->
<g id="node24" class="node"><title>Node24</title>
<g id="a_node24"><a xlink:href="Math_8inl.html" target="_top" xlink:title="Core/Math/Math.inl">
<polygon fill="white" stroke="black" points="473,-112.5 473,-131.5 580,-131.5 580,-112.5 473,-112.5"/>
<text text-anchor="middle" x="526.5" y="-119.5" font-family="Helvetica,sans-Serif" font-size="10.00">Core/Math/Math.inl</text>
</a>
</g>
</g>
<!-- Node21&#45;&gt;Node24 -->
<g id="edge34" class="edge"><title>Node21&#45;&gt;Node24</title>
<path fill="none" stroke="midnightblue" d="M521.599,-173.975C519.768,-165.58 519.297,-152.481 520.185,-141.663"/>
<polygon fill="midnightblue" stroke="midnightblue" points="523.686,-141.897 521.603,-131.509 516.754,-140.929 523.686,-141.897"/>
</g>
<!-- Node24&#45;&gt;Node21 -->
<g id="edge35" class="edge"><title>Node24&#45;&gt;Node21</title>
<path fill="none" stroke="midnightblue" d="M531.397,-131.509C533.23,-139.898 533.703,-152.996 532.817,-163.817"/>
<polygon fill="midnightblue" stroke="midnightblue" points="529.315,-163.588 531.401,-173.975 536.248,-164.554 529.315,-163.588"/>
</g>
<!-- Node25&#45;&gt;Node3 -->
<g id="edge39" class="edge"><title>Node25&#45;&gt;Node3</title>
<path fill="none" stroke="midnightblue" d="M965.343,-173.789C971.217,-158.979 980.189,-128.861 964.5,-112 927.455,-72.1875 566.471,-67.1261 411.067,-66.8091"/>
<polygon fill="midnightblue" stroke="midnightblue" points="410.691,-63.3086 400.686,-66.7944 410.681,-70.3086 410.691,-63.3086"/>
</g>
<!-- Node25&#45;&gt;Node11 -->
<g id="edge40" class="edge"><title>Node25&#45;&gt;Node11</title>
<path fill="none" stroke="midnightblue" d="M955.769,-173.975C949.828,-165.138 940.383,-151.089 932.912,-139.975"/>
<polygon fill="midnightblue" stroke="midnightblue" points="935.704,-137.855 927.22,-131.509 929.895,-141.761 935.704,-137.855"/>
</g>
<!-- Node25&#45;&gt;Node12 -->
<g id="edge41" class="edge"><title>Node25&#45;&gt;Node12</title>
<path fill="none" stroke="midnightblue" d="M941.585,-173.975C918.051,-163.901 878.69,-147.053 851.707,-135.502"/>
<polygon fill="midnightblue" stroke="midnightblue" points="852.949,-132.227 842.378,-131.509 850.194,-138.662 852.949,-132.227"/>
</g>
<!-- Node26 -->
<g id="node26" class="node"><title>Node26</title>
<polygon fill="white" stroke="#bfbfbf" points="1011.5,-112.5 1011.5,-131.5 1065.5,-131.5 1065.5,-112.5 1011.5,-112.5"/>
<text text-anchor="middle" x="1038.5" y="-119.5" font-family="Helvetica,sans-Serif" font-size="10.00">random</text>
</g>
<!-- Node25&#45;&gt;Node26 -->
<g id="edge42" class="edge"><title>Node25&#45;&gt;Node26</title>
<path fill="none" stroke="midnightblue" d="M972.532,-173.975C984.768,-164.52 1004.73,-149.096 1019.49,-137.687"/>
<polygon fill="midnightblue" stroke="midnightblue" points="1021.72,-140.393 1027.49,-131.509 1017.44,-134.854 1021.72,-140.393"/>
</g>
</g>
</svg>
