<?xml version="1.0" encoding="UTF-8" standalone="no"?>
<!DOCTYPE svg PUBLIC "-//W3C//DTD SVG 1.1//EN"
 "http://www.w3.org/Graphics/SVG/1.1/DTD/svg11.dtd">
<!-- Generated by graphviz version 2.38.0 (20140413.2041)
 -->
<!-- Title: /home/travis/build/STORM&#45;IRIT/Radium&#45;Engine/src/Core/Math/DualQuaternion.inl Pages: 1 -->
<svg width="924pt" height="341pt"
 viewBox="0.00 0.00 923.50 341.00" xmlns="http://www.w3.org/2000/svg" xmlns:xlink="http://www.w3.org/1999/xlink">
<g id="graph0" class="graph" transform="scale(1 1) rotate(0) translate(4 337)">
<title>/home/travis/build/STORM&#45;IRIT/Radium&#45;Engine/src/Core/Math/DualQuaternion.inl</title>
<polygon fill="white" stroke="none" points="-4,4 -4,-337 919.5,-337 919.5,4 -4,4"/>
<!-- Node1 -->
<g id="node1" class="node"><title>Node1</title>
<polygon fill="#bfbfbf" stroke="black" points="441,-291.5 441,-332.5 619,-332.5 619,-291.5 441,-291.5"/>
<text text-anchor="start" x="449" y="-320.5" font-family="Helvetica,sans-Serif" font-size="10.00">/home/travis/build</text>
<text text-anchor="start" x="449" y="-309.5" font-family="Helvetica,sans-Serif" font-size="10.00">/STORM&#45;IRIT/Radium&#45;Engine</text>
<text text-anchor="middle" x="530" y="-298.5" font-family="Helvetica,sans-Serif" font-size="10.00">/src/Core/Math/DualQuaternion.inl</text>
</g>
<!-- Node2 -->
<g id="node2" class="node"><title>Node2</title>
<g id="a_node2"><a xlink:href="DualQuaternion_8hpp.html" target="_top" xlink:title="Core/Math/DualQuaternion.hpp">
<polygon fill="white" stroke="black" points="447.5,-235.5 447.5,-254.5 612.5,-254.5 612.5,-235.5 447.5,-235.5"/>
<text text-anchor="middle" x="530" y="-242.5" font-family="Helvetica,sans-Serif" font-size="10.00">Core/Math/DualQuaternion.hpp</text>
</a>
</g>
</g>
<!-- Node1&#45;&gt;Node2 -->
<g id="edge1" class="edge"><title>Node1&#45;&gt;Node2</title>
<path fill="none" stroke="midnightblue" d="M523.755,-291.498C523.057,-282.969 523.083,-273.011 523.833,-264.59"/>
<polygon fill="midnightblue" stroke="midnightblue" points="527.303,-265.044 525.236,-254.652 520.372,-264.065 527.303,-265.044"/>
</g>
<!-- Node14 -->
<g id="node14" class="node"><title>Node14</title>
<g id="a_node14"><a xlink:href="LinearAlgebra_8hpp.html" target="_top" xlink:title="Core/Math/LinearAlgebra.hpp">
<polygon fill="white" stroke="black" points="273,-235.5 273,-254.5 429,-254.5 429,-235.5 273,-235.5"/>
<text text-anchor="middle" x="351" y="-242.5" font-family="Helvetica,sans-Serif" font-size="10.00">Core/Math/LinearAlgebra.hpp</text>
</a>
</g>
</g>
<!-- Node1&#45;&gt;Node14 -->
<g id="edge15" class="edge"><title>Node1&#45;&gt;Node14</title>
<path fill="none" stroke="midnightblue" d="M476.294,-291.498C446.475,-280.67 410.309,-267.537 384.513,-258.17"/>
<polygon fill="midnightblue" stroke="midnightblue" points="385.422,-254.776 374.828,-254.652 383.032,-261.356 385.422,-254.776"/>
</g>
<!-- Node2&#45;&gt;Node1 -->
<g id="edge14" class="edge"><title>Node2&#45;&gt;Node1</title>
<path fill="none" stroke="midnightblue" d="M534.764,-254.652C536.227,-261.524 536.881,-271.559 536.728,-281.263"/>
<polygon fill="midnightblue" stroke="midnightblue" points="533.221,-281.344 536.245,-291.498 540.213,-281.674 533.221,-281.344"/>
</g>
<!-- Node3 -->
<g id="node3" class="node"><title>Node3</title>
<g id="a_node3"><a xlink:href="RaCore_8hpp.html" target="_top" xlink:title="Core/RaCore.hpp">
<polygon fill="white" stroke="black" points="547,-112.5 547,-131.5 645,-131.5 645,-112.5 547,-112.5"/>
<text text-anchor="middle" x="596" y="-119.5" font-family="Helvetica,sans-Serif" font-size="10.00">Core/RaCore.hpp</text>
</a>
</g>
</g>
<!-- Node2&#45;&gt;Node3 -->
<g id="edge2" class="edge"><title>Node2&#45;&gt;Node3</title>
<path fill="none" stroke="midnightblue" d="M562.185,-235.488C580.539,-228.801 602.016,-217.45 613,-199 623.768,-180.913 615.151,-156.717 606.745,-140.531"/>
<polygon fill="midnightblue" stroke="midnightblue" points="609.676,-138.604 601.714,-131.615 603.58,-142.044 609.676,-138.604"/>
</g>
<!-- Node10 -->
<g id="node10" class="node"><title>Node10</title>
<g id="a_node10"><a xlink:href="Types_8hpp.html" target="_top" xlink:title="Core/Types.hpp">
<polygon fill="white" stroke="black" points="443.5,-174 443.5,-193 532.5,-193 532.5,-174 443.5,-174"/>
<text text-anchor="middle" x="488" y="-181" font-family="Helvetica,sans-Serif" font-size="10.00">Core/Types.hpp</text>
</a>
</g>
</g>
<!-- Node2&#45;&gt;Node10 -->
<g id="edge9" class="edge"><title>Node2&#45;&gt;Node10</title>
<path fill="none" stroke="midnightblue" d="M523.982,-235.475C517.745,-226.638 507.827,-212.589 499.982,-201.475"/>
<polygon fill="midnightblue" stroke="midnightblue" points="502.633,-199.16 494.006,-193.009 496.914,-203.197 502.633,-199.16"/>
</g>
<!-- Node4 -->
<g id="node4" class="node"><title>Node4</title>
<g id="a_node4"><a xlink:href="CoreMacros_8hpp.html" target="_top" xlink:title="Core/CoreMacros.hpp">
<polygon fill="white" stroke="black" points="536,-56.5 536,-75.5 656,-75.5 656,-56.5 536,-56.5"/>
<text text-anchor="middle" x="596" y="-63.5" font-family="Helvetica,sans-Serif" font-size="10.00">Core/CoreMacros.hpp</text>
</a>
</g>
</g>
<!-- Node3&#45;&gt;Node4 -->
<g id="edge3" class="edge"><title>Node3&#45;&gt;Node4</title>
<path fill="none" stroke="midnightblue" d="M596,-112.083C596,-105.006 596,-94.8611 596,-85.9865"/>
<polygon fill="midnightblue" stroke="midnightblue" points="599.5,-85.751 596,-75.7511 592.5,-85.7511 599.5,-85.751"/>
</g>
<!-- Node5 -->
<g id="node5" class="node"><title>Node5</title>
<polygon fill="white" stroke="#bfbfbf" points="433,-0.5 433,-19.5 485,-19.5 485,-0.5 433,-0.5"/>
<text text-anchor="middle" x="459" y="-7.5" font-family="Helvetica,sans-Serif" font-size="10.00">cassert</text>
</g>
<!-- Node4&#45;&gt;Node5 -->
<g id="edge4" class="edge"><title>Node4&#45;&gt;Node5</title>
<path fill="none" stroke="midnightblue" d="M574.292,-56.4435C551.645,-47.5171 515.928,-33.4387 490.248,-23.3168"/>
<polygon fill="midnightblue" stroke="midnightblue" points="491.193,-19.9273 480.606,-19.5164 488.626,-26.4397 491.193,-19.9273"/>
</g>
<!-- Node6 -->
<g id="node6" class="node"><title>Node6</title>
<polygon fill="white" stroke="#bfbfbf" points="503.5,-0.5 503.5,-19.5 548.5,-19.5 548.5,-0.5 503.5,-0.5"/>
<text text-anchor="middle" x="526" y="-7.5" font-family="Helvetica,sans-Serif" font-size="10.00">cstdio</text>
</g>
<!-- Node4&#45;&gt;Node6 -->
<g id="edge5" class="edge"><title>Node4&#45;&gt;Node6</title>
<path fill="none" stroke="midnightblue" d="M584.753,-56.324C574.203,-48.1849 558.199,-35.8395 545.558,-26.0874"/>
<polygon fill="midnightblue" stroke="midnightblue" points="547.507,-23.1707 537.451,-19.8339 543.231,-28.7132 547.507,-23.1707"/>
</g>
<!-- Node7 -->
<g id="node7" class="node"><title>Node7</title>
<polygon fill="white" stroke="#bfbfbf" points="566.5,-0.5 566.5,-19.5 625.5,-19.5 625.5,-0.5 566.5,-0.5"/>
<text text-anchor="middle" x="596" y="-7.5" font-family="Helvetica,sans-Serif" font-size="10.00">iostream</text>
</g>
<!-- Node4&#45;&gt;Node7 -->
<g id="edge6" class="edge"><title>Node4&#45;&gt;Node7</title>
<path fill="none" stroke="midnightblue" d="M596,-56.083C596,-49.0059 596,-38.8611 596,-29.9865"/>
<polygon fill="midnightblue" stroke="midnightblue" points="599.5,-29.751 596,-19.7511 592.5,-29.7511 599.5,-29.751"/>
</g>
<!-- Node8 -->
<g id="node8" class="node"><title>Node8</title>
<polygon fill="white" stroke="#bfbfbf" points="644,-0.5 644,-19.5 700,-19.5 700,-0.5 644,-0.5"/>
<text text-anchor="middle" x="672" y="-7.5" font-family="Helvetica,sans-Serif" font-size="10.00">sstream</text>
</g>
<!-- Node4&#45;&gt;Node8 -->
<g id="edge7" class="edge"><title>Node4&#45;&gt;Node8</title>
<path fill="none" stroke="midnightblue" d="M608.211,-56.324C619.776,-48.1066 637.375,-35.6017 651.161,-25.8069"/>
<polygon fill="midnightblue" stroke="midnightblue" points="653.443,-28.4791 659.567,-19.8339 649.388,-22.7729 653.443,-28.4791"/>
</g>
<!-- Node9 -->
<g id="node9" class="node"><title>Node9</title>
<polygon fill="white" stroke="#bfbfbf" points="718,-0.5 718,-19.5 766,-19.5 766,-0.5 718,-0.5"/>
<text text-anchor="middle" x="742" y="-7.5" font-family="Helvetica,sans-Serif" font-size="10.00">thread</text>
</g>
<!-- Node4&#45;&gt;Node9 -->
<g id="edge8" class="edge"><title>Node4&#45;&gt;Node9</title>
<path fill="none" stroke="midnightblue" d="M619.134,-56.4435C643.482,-47.4381 682.007,-33.1891 709.423,-23.049"/>
<polygon fill="midnightblue" stroke="midnightblue" points="710.809,-26.2681 718.974,-19.5164 708.381,-19.7028 710.809,-26.2681"/>
</g>
<!-- Node10&#45;&gt;Node3 -->
<g id="edge10" class="edge"><title>Node10&#45;&gt;Node3</title>
<path fill="none" stroke="midnightblue" d="M503.474,-173.975C521.278,-164.166 550.741,-147.935 571.632,-136.425"/>
<polygon fill="midnightblue" stroke="midnightblue" points="573.485,-139.4 580.555,-131.509 570.107,-133.269 573.485,-139.4"/>
</g>
<!-- Node11 -->
<g id="node11" class="node"><title>Node11</title>
<polygon fill="white" stroke="#bfbfbf" points="456,-112.5 456,-131.5 524,-131.5 524,-112.5 456,-112.5"/>
<text text-anchor="middle" x="490" y="-119.5" font-family="Helvetica,sans-Serif" font-size="10.00">Eigen/Core</text>
</g>
<!-- Node10&#45;&gt;Node11 -->
<g id="edge11" class="edge"><title>Node10&#45;&gt;Node11</title>
<path fill="none" stroke="midnightblue" d="M488.287,-173.975C488.569,-165.58 489.009,-152.481 489.373,-141.663"/>
<polygon fill="midnightblue" stroke="midnightblue" points="492.876,-141.621 489.714,-131.509 485.88,-141.386 492.876,-141.621"/>
</g>
<!-- Node12 -->
<g id="node12" class="node"><title>Node12</title>
<polygon fill="white" stroke="#bfbfbf" points="0,-112.5 0,-131.5 94,-131.5 94,-112.5 0,-112.5"/>
<text text-anchor="middle" x="47" y="-119.5" font-family="Helvetica,sans-Serif" font-size="10.00">Eigen/Geometry</text>
</g>
<!-- Node10&#45;&gt;Node12 -->
<g id="edge12" class="edge"><title>Node10&#45;&gt;Node12</title>
<path fill="none" stroke="midnightblue" d="M459.316,-173.961C451.188,-171.77 442.295,-169.587 434,-168 318.044,-145.814 180.308,-132.963 104.394,-127.03"/>
<polygon fill="midnightblue" stroke="midnightblue" points="104.34,-123.516 94.1012,-126.239 103.803,-130.495 104.34,-123.516"/>
</g>
<!-- Node13 -->
<g id="node13" class="node"><title>Node13</title>
<polygon fill="white" stroke="#bfbfbf" points="274,-112.5 274,-131.5 354,-131.5 354,-112.5 274,-112.5"/>
<text text-anchor="middle" x="314" y="-119.5" font-family="Helvetica,sans-Serif" font-size="10.00">Eigen/Sparse</text>
</g>
<!-- Node10&#45;&gt;Node13 -->
<g id="edge13" class="edge"><title>Node10&#45;&gt;Node13</title>
<path fill="none" stroke="midnightblue" d="M463.07,-173.975C432.964,-163.68 382.168,-146.31 348.362,-134.75"/>
<polygon fill="midnightblue" stroke="midnightblue" points="349.478,-131.433 338.884,-131.509 347.213,-138.056 349.478,-131.433"/>
</g>
<!-- Node14&#45;&gt;Node3 -->
<g id="edge16" class="edge"><title>Node14&#45;&gt;Node3</title>
<path fill="none" stroke="midnightblue" d="M420.016,-235.494C471.571,-227.962 536.656,-215.586 558,-199 576.346,-184.744 586.501,-159.262 591.6,-141.764"/>
<polygon fill="midnightblue" stroke="midnightblue" points="595.11,-142.177 594.256,-131.616 588.338,-140.404 595.11,-142.177"/>
</g>
<!-- Node14&#45;&gt;Node10 -->
<g id="edge28" class="edge"><title>Node14&#45;&gt;Node10</title>
<path fill="none" stroke="midnightblue" d="M370.629,-235.475C393.824,-225.401 432.619,-208.553 459.213,-197.002"/>
<polygon fill="midnightblue" stroke="midnightblue" points="460.63,-200.203 468.408,-193.009 457.841,-193.782 460.63,-200.203"/>
</g>
<!-- Node14&#45;&gt;Node11 -->
<g id="edge17" class="edge"><title>Node14&#45;&gt;Node11</title>
<path fill="none" stroke="midnightblue" d="M427.935,-235.487C474.166,-228.608 526.728,-217.047 541,-199 549.546,-188.193 546.667,-180.558 541,-168 535.384,-155.555 524.437,-145.172 514.121,-137.527"/>
<polygon fill="midnightblue" stroke="midnightblue" points="515.958,-134.543 505.734,-131.764 511.994,-140.312 515.958,-134.543"/>
</g>
<!-- Node14&#45;&gt;Node12 -->
<g id="edge18" class="edge"><title>Node14&#45;&gt;Node12</title>
<path fill="none" stroke="midnightblue" d="M272.769,-238.951C178.295,-232.041 29.8674,-218.262 13,-199 -2.38506,-181.431 15.1909,-155.767 30.252,-139.224"/>
<polygon fill="midnightblue" stroke="midnightblue" points="32.8771,-141.544 37.2882,-131.911 27.8327,-136.69 32.8771,-141.544"/>
</g>
<!-- Node14&#45;&gt;Node13 -->
<g id="edge19" class="edge"><title>Node14&#45;&gt;Node13</title>
<path fill="none" stroke="midnightblue" d="M272.622,-244.602C186.076,-243.396 54.7352,-235.386 23,-199 13.9439,-188.617 14.0329,-178.46 23,-168 53.4265,-132.507 188.912,-124.76 263.808,-123.23"/>
<polygon fill="midnightblue" stroke="midnightblue" points="264.02,-126.727 273.957,-123.053 263.898,-119.728 264.02,-126.727"/>
</g>
<!-- Node15 -->
<g id="node15" class="node"><title>Node15</title>
<polygon fill="white" stroke="#bfbfbf" points="32.5,-174 32.5,-193 95.5,-193 95.5,-174 32.5,-174"/>
<text text-anchor="middle" x="64" y="-181" font-family="Helvetica,sans-Serif" font-size="10.00">functional</text>
</g>
<!-- Node14&#45;&gt;Node15 -->
<g id="edge20" class="edge"><title>Node14&#45;&gt;Node15</title>
<path fill="none" stroke="midnightblue" d="M287.923,-235.489C237.624,-227.991 165.644,-215.662 104,-199 101.192,-198.241 98.302,-197.373 95.4209,-196.446"/>
<polygon fill="midnightblue" stroke="midnightblue" points="96.3892,-193.078 85.7946,-193.148 94.1206,-199.7 96.3892,-193.078"/>
</g>
<!-- Node16 -->
<g id="node16" class="node"><title>Node16</title>
<polygon fill="white" stroke="#bfbfbf" points="113.5,-168.5 113.5,-198.5 258.5,-198.5 258.5,-168.5 113.5,-168.5"/>
<text text-anchor="start" x="121.5" y="-186.5" font-family="Helvetica,sans-Serif" font-size="10.00">unsupported/Eigen/Aligned</text>
<text text-anchor="middle" x="186" y="-175.5" font-family="Helvetica,sans-Serif" font-size="10.00">Vector3</text>
</g>
<!-- Node14&#45;&gt;Node16 -->
<g id="edge21" class="edge"><title>Node14&#45;&gt;Node16</title>
<path fill="none" stroke="midnightblue" d="M327.36,-235.475C303.237,-226.776 265.107,-213.026 234.524,-201.998"/>
<polygon fill="midnightblue" stroke="midnightblue" points="235.482,-198.623 224.887,-198.523 233.107,-205.208 235.482,-198.623"/>
</g>
<!-- Node17 -->
<g id="node17" class="node"><title>Node17</title>
<g id="a_node17"><a xlink:href="Math_8hpp.html" target="_top" xlink:title="Core/Math/Math.hpp">
<polygon fill="white" stroke="black" points="688,-174 688,-193 802,-193 802,-174 688,-174"/>
<text text-anchor="middle" x="745" y="-181" font-family="Helvetica,sans-Serif" font-size="10.00">Core/Math/Math.hpp</text>
</a>
</g>
</g>
<!-- Node14&#45;&gt;Node17 -->
<g id="edge22" class="edge"><title>Node14&#45;&gt;Node17</title>
<path fill="none" stroke="midnightblue" d="M407.451,-235.475C479.132,-224.65 602.615,-206.002 678.701,-194.512"/>
<polygon fill="midnightblue" stroke="midnightblue" points="679.289,-197.963 688.654,-193.009 678.244,-191.042 679.289,-197.963"/>
</g>
<!-- Node21 -->
<g id="node21" class="node"><title>Node21</title>
<g id="a_node21"><a xlink:href="LinearAlgebra_8inl.html" target="_top" xlink:title="Core/Math/LinearAlgebra.inl">
<polygon fill="white" stroke="black" points="276.5,-174 276.5,-193 425.5,-193 425.5,-174 276.5,-174"/>
<text text-anchor="middle" x="351" y="-181" font-family="Helvetica,sans-Serif" font-size="10.00">Core/Math/LinearAlgebra.inl</text>
</a>
</g>
</g>
<!-- Node14&#45;&gt;Node21 -->
<g id="edge29" class="edge"><title>Node14&#45;&gt;Node21</title>
<path fill="none" stroke="midnightblue" d="M346.099,-235.475C344.268,-227.08 343.797,-213.981 344.685,-203.163"/>
<polygon fill="midnightblue" stroke="midnightblue" points="348.186,-203.397 346.103,-193.009 341.254,-202.429 348.186,-203.397"/>
</g>
<!-- Node17&#45;&gt;Node3 -->
<g id="edge23" class="edge"><title>Node17&#45;&gt;Node3</title>
<path fill="none" stroke="midnightblue" d="M723.652,-173.975C698.314,-163.857 655.862,-146.905 626.929,-135.351"/>
<polygon fill="midnightblue" stroke="midnightblue" points="627.893,-131.967 617.308,-131.509 625.297,-138.468 627.893,-131.967"/>
</g>
<!-- Node18 -->
<g id="node18" class="node"><title>Node18</title>
<polygon fill="white" stroke="#bfbfbf" points="663,-112.5 663,-131.5 725,-131.5 725,-112.5 663,-112.5"/>
<text text-anchor="middle" x="694" y="-119.5" font-family="Helvetica,sans-Serif" font-size="10.00">algorithm</text>
</g>
<!-- Node17&#45;&gt;Node18 -->
<g id="edge24" class="edge"><title>Node17&#45;&gt;Node18</title>
<path fill="none" stroke="midnightblue" d="M737.693,-173.975C729.967,-164.962 717.592,-150.525 707.982,-139.312"/>
<polygon fill="midnightblue" stroke="midnightblue" points="710.459,-136.824 701.294,-131.509 705.144,-141.379 710.459,-136.824"/>
</g>
<!-- Node19 -->
<g id="node19" class="node"><title>Node19</title>
<polygon fill="white" stroke="#bfbfbf" points="743.5,-112.5 743.5,-131.5 790.5,-131.5 790.5,-112.5 743.5,-112.5"/>
<text text-anchor="middle" x="767" y="-119.5" font-family="Helvetica,sans-Serif" font-size="10.00">cmath</text>
</g>
<!-- Node17&#45;&gt;Node19 -->
<g id="edge25" class="edge"><title>Node17&#45;&gt;Node19</title>
<path fill="none" stroke="midnightblue" d="M748.152,-173.975C751.321,-165.404 756.304,-151.927 760.351,-140.983"/>
<polygon fill="midnightblue" stroke="midnightblue" points="763.668,-142.102 763.854,-131.509 757.103,-139.675 763.668,-142.102"/>
</g>
<!-- Node20 -->
<g id="node20" class="node"><title>Node20</title>
<g id="a_node20"><a xlink:href="Math_8inl.html" target="_top" xlink:title="Core/Math/Math.inl">
<polygon fill="white" stroke="black" points="808.5,-112.5 808.5,-131.5 915.5,-131.5 915.5,-112.5 808.5,-112.5"/>
<text text-anchor="middle" x="862" y="-119.5" font-family="Helvetica,sans-Serif" font-size="10.00">Core/Math/Math.inl</text>
</a>
</g>
</g>
<!-- Node17&#45;&gt;Node20 -->
<g id="edge26" class="edge"><title>Node17&#45;&gt;Node20</title>
<path fill="none" stroke="midnightblue" d="M756.863,-173.975C774.32,-163.99 806.79,-147.348 831.152,-135.807"/>
<polygon fill="midnightblue" stroke="midnightblue" points="832.787,-138.907 840.371,-131.509 829.828,-132.563 832.787,-138.907"/>
</g>
<!-- Node20&#45;&gt;Node17 -->
<g id="edge27" class="edge"><title>Node20&#45;&gt;Node17</title>
<path fill="none" stroke="midnightblue" d="M850.165,-131.509C832.724,-141.487 800.257,-158.129 775.887,-169.674"/>
<polygon fill="midnightblue" stroke="midnightblue" points="774.248,-166.577 766.664,-173.975 777.206,-172.921 774.248,-166.577"/>
</g>
<!-- Node21&#45;&gt;Node14 -->
<g id="edge30" class="edge"><title>Node21&#45;&gt;Node14</title>
<path fill="none" stroke="midnightblue" d="M355.897,-193.009C357.73,-201.398 358.203,-214.496 357.317,-225.317"/>
<polygon fill="midnightblue" stroke="midnightblue" points="353.815,-225.088 355.901,-235.475 360.748,-226.054 353.815,-225.088"/>
</g>
</g>
</svg>
