<?xml version="1.0" encoding="UTF-8" standalone="no"?>
<!DOCTYPE svg PUBLIC "-//W3C//DTD SVG 1.1//EN"
 "http://www.w3.org/Graphics/SVG/1.1/DTD/svg11.dtd">
<!-- Generated by graphviz version 2.38.0 (20140413.2041)
 -->
<!-- Title: /home/travis/build/STORM&#45;IRIT/Radium&#45;Engine/src/Core/Math/DualQuaternion.inl Pages: 1 -->
<svg width="1074pt" height="384pt"
 viewBox="0.00 0.00 1074.00 384.00" xmlns="http://www.w3.org/2000/svg" xmlns:xlink="http://www.w3.org/1999/xlink">
<g id="graph0" class="graph" transform="scale(1 1) rotate(0) translate(4 380)">
<title>/home/travis/build/STORM&#45;IRIT/Radium&#45;Engine/src/Core/Math/DualQuaternion.inl</title>
<polygon fill="white" stroke="none" points="-4,4 -4,-380 1070,-380 1070,4 -4,4"/>
<!-- Node1 -->
<g id="node1" class="node"><title>Node1</title>
<polygon fill="#bfbfbf" stroke="black" points="406.5,-334.5 406.5,-375.5 584.5,-375.5 584.5,-334.5 406.5,-334.5"/>
<text text-anchor="start" x="414.5" y="-363.5" font-family="Helvetica,sans-Serif" font-size="10.00">/home/travis/build</text>
<text text-anchor="start" x="414.5" y="-352.5" font-family="Helvetica,sans-Serif" font-size="10.00">/STORM&#45;IRIT/Radium&#45;Engine</text>
<text text-anchor="middle" x="495.5" y="-341.5" font-family="Helvetica,sans-Serif" font-size="10.00">/src/Core/Math/DualQuaternion.inl</text>
</g>
<!-- Node2 -->
<g id="node2" class="node"><title>Node2</title>
<g id="a_node2"><a xlink:href="DualQuaternion_8hpp.html" target="_top" xlink:title="/home/travis/build\l/STORM&#45;IRIT/Radium&#45;Engine\l/src/Core/Math/DualQuaternion.hpp">
<polygon fill="white" stroke="black" points="403,-256.5 403,-297.5 588,-297.5 588,-256.5 403,-256.5"/>
<text text-anchor="start" x="411" y="-285.5" font-family="Helvetica,sans-Serif" font-size="10.00">/home/travis/build</text>
<text text-anchor="start" x="411" y="-274.5" font-family="Helvetica,sans-Serif" font-size="10.00">/STORM&#45;IRIT/Radium&#45;Engine</text>
<text text-anchor="middle" x="495.5" y="-263.5" font-family="Helvetica,sans-Serif" font-size="10.00">/src/Core/Math/DualQuaternion.hpp</text>
</a>
</g>
</g>
<!-- Node1&#45;&gt;Node2 -->
<g id="edge1" class="edge"><title>Node1&#45;&gt;Node2</title>
<path fill="none" stroke="midnightblue" d="M488.895,-324.297C488.576,-315.301 488.783,-305.653 489.518,-297.506"/>
<polygon fill="midnightblue" stroke="midnightblue" points="485.411,-324.659 489.512,-334.428 492.398,-324.234 485.411,-324.659"/>
</g>
<!-- Node2&#45;&gt;Node1 -->
<g id="edge9" class="edge"><title>Node2&#45;&gt;Node1</title>
<path fill="none" stroke="midnightblue" d="M502.102,-307.63C502.424,-316.622 502.22,-326.272 501.488,-334.428"/>
<polygon fill="midnightblue" stroke="midnightblue" points="505.587,-307.273 501.482,-297.506 498.6,-307.701 505.587,-307.273"/>
</g>
<!-- Node3 -->
<g id="node3" class="node"><title>Node3</title>
<g id="a_node3"><a xlink:href="DualQuaternionSkinning_8hpp.html" target="_top" xlink:title="/home/travis/build\l/STORM&#45;IRIT/Radium&#45;Engine\l/src/Core/Animation/DualQuaternion\lSkinning.hpp">
<polygon fill="white" stroke="black" points="203,-167.5 203,-219.5 392,-219.5 392,-167.5 203,-167.5"/>
<text text-anchor="start" x="211" y="-207.5" font-family="Helvetica,sans-Serif" font-size="10.00">/home/travis/build</text>
<text text-anchor="start" x="211" y="-196.5" font-family="Helvetica,sans-Serif" font-size="10.00">/STORM&#45;IRIT/Radium&#45;Engine</text>
<text text-anchor="start" x="211" y="-185.5" font-family="Helvetica,sans-Serif" font-size="10.00">/src/Core/Animation/DualQuaternion</text>
<text text-anchor="middle" x="297.5" y="-174.5" font-family="Helvetica,sans-Serif" font-size="10.00">Skinning.hpp</text>
</a>
</g>
</g>
<!-- Node2&#45;&gt;Node3 -->
<g id="edge2" class="edge"><title>Node2&#45;&gt;Node3</title>
<path fill="none" stroke="midnightblue" d="M438.684,-252.613C413.567,-242.275 383.995,-230.103 358.422,-219.576"/>
<polygon fill="midnightblue" stroke="midnightblue" points="437.495,-255.909 448.074,-256.479 440.159,-249.436 437.495,-255.909"/>
</g>
<!-- Node7 -->
<g id="node7" class="node"><title>Node7</title>
<g id="a_node7"><a xlink:href="StretchableTwistableBoneSkinning_8hpp.html" target="_top" xlink:title="/home/travis/build\l/STORM&#45;IRIT/Radium&#45;Engine\l/src/Core/Animation/Stretchable\lTwistableBoneSkinning.hpp">
<polygon fill="white" stroke="black" points="410.5,-167.5 410.5,-219.5 580.5,-219.5 580.5,-167.5 410.5,-167.5"/>
<text text-anchor="start" x="418.5" y="-207.5" font-family="Helvetica,sans-Serif" font-size="10.00">/home/travis/build</text>
<text text-anchor="start" x="418.5" y="-196.5" font-family="Helvetica,sans-Serif" font-size="10.00">/STORM&#45;IRIT/Radium&#45;Engine</text>
<text text-anchor="start" x="418.5" y="-185.5" font-family="Helvetica,sans-Serif" font-size="10.00">/src/Core/Animation/Stretchable</text>
<text text-anchor="middle" x="495.5" y="-174.5" font-family="Helvetica,sans-Serif" font-size="10.00">TwistableBoneSkinning.hpp</text>
</a>
</g>
</g>
<!-- Node2&#45;&gt;Node7 -->
<g id="edge6" class="edge"><title>Node2&#45;&gt;Node7</title>
<path fill="none" stroke="midnightblue" d="M495.5,-246.121C495.5,-237.413 495.5,-227.989 495.5,-219.607"/>
<polygon fill="midnightblue" stroke="midnightblue" points="492,-246.271 495.5,-256.271 499,-246.271 492,-246.271"/>
</g>
<!-- Node9 -->
<g id="node9" class="node"><title>Node9</title>
<g id="a_node9"><a xlink:href="SkinningComponent_8hpp.html" target="_top" xlink:title="/home/travis/build\l/STORM&#45;IRIT/Radium&#45;Engine\l/Plugins/Skinning/src/SkinningComponent.hpp">
<polygon fill="white" stroke="black" points="599,-173 599,-214 834,-214 834,-173 599,-173"/>
<text text-anchor="start" x="607" y="-202" font-family="Helvetica,sans-Serif" font-size="10.00">/home/travis/build</text>
<text text-anchor="start" x="607" y="-191" font-family="Helvetica,sans-Serif" font-size="10.00">/STORM&#45;IRIT/Radium&#45;Engine</text>
<text text-anchor="middle" x="716.5" y="-180" font-family="Helvetica,sans-Serif" font-size="10.00">/Plugins/Skinning/src/SkinningComponent.hpp</text>
</a>
</g>
</g>
<!-- Node2&#45;&gt;Node9 -->
<g id="edge10" class="edge"><title>Node2&#45;&gt;Node9</title>
<path fill="none" stroke="midnightblue" d="M558.073,-252.925C591.38,-240.641 631.894,-225.701 663.614,-214.003"/>
<polygon fill="midnightblue" stroke="midnightblue" points="556.606,-249.735 548.435,-256.479 559.028,-256.302 556.606,-249.735"/>
</g>
<!-- Node4 -->
<g id="node4" class="node"><title>Node4</title>
<g id="a_node4"><a xlink:href="DualQuaternionSkinning_8cpp.html" target="_top" xlink:title="/home/travis/build\l/STORM&#45;IRIT/Radium&#45;Engine\l/src/Core/Animation/DualQuaternion\lSkinning.cpp">
<polygon fill="white" stroke="black" points="203,-78.5 203,-130.5 392,-130.5 392,-78.5 203,-78.5"/>
<text text-anchor="start" x="211" y="-118.5" font-family="Helvetica,sans-Serif" font-size="10.00">/home/travis/build</text>
<text text-anchor="start" x="211" y="-107.5" font-family="Helvetica,sans-Serif" font-size="10.00">/STORM&#45;IRIT/Radium&#45;Engine</text>
<text text-anchor="start" x="211" y="-96.5" font-family="Helvetica,sans-Serif" font-size="10.00">/src/Core/Animation/DualQuaternion</text>
<text text-anchor="middle" x="297.5" y="-85.5" font-family="Helvetica,sans-Serif" font-size="10.00">Skinning.cpp</text>
</a>
</g>
</g>
<!-- Node3&#45;&gt;Node4 -->
<g id="edge3" class="edge"><title>Node3&#45;&gt;Node4</title>
<path fill="none" stroke="midnightblue" d="M297.5,-157.191C297.5,-148.282 297.5,-138.899 297.5,-130.607"/>
<polygon fill="midnightblue" stroke="midnightblue" points="294,-157.336 297.5,-167.336 301,-157.336 294,-157.336"/>
</g>
<!-- Node5 -->
<g id="node5" class="node"><title>Node5</title>
<g id="a_node5"><a xlink:href="RotationCenterSkinning_8cpp.html" target="_top" xlink:title="/home/travis/build\l/STORM&#45;IRIT/Radium&#45;Engine\l/src/Core/Animation/RotationCenter\lSkinning.cpp">
<polygon fill="white" stroke="black" points="0,-78.5 0,-130.5 185,-130.5 185,-78.5 0,-78.5"/>
<text text-anchor="start" x="8" y="-118.5" font-family="Helvetica,sans-Serif" font-size="10.00">/home/travis/build</text>
<text text-anchor="start" x="8" y="-107.5" font-family="Helvetica,sans-Serif" font-size="10.00">/STORM&#45;IRIT/Radium&#45;Engine</text>
<text text-anchor="start" x="8" y="-96.5" font-family="Helvetica,sans-Serif" font-size="10.00">/src/Core/Animation/RotationCenter</text>
<text text-anchor="middle" x="92.5" y="-85.5" font-family="Helvetica,sans-Serif" font-size="10.00">Skinning.cpp</text>
</a>
</g>
</g>
<!-- Node3&#45;&gt;Node5 -->
<g id="edge4" class="edge"><title>Node3&#45;&gt;Node5</title>
<path fill="none" stroke="midnightblue" d="M229.015,-163.436C203.885,-152.771 175.679,-140.8 151.458,-130.521"/>
<polygon fill="midnightblue" stroke="midnightblue" points="227.908,-166.768 238.481,-167.453 230.643,-160.324 227.908,-166.768"/>
</g>
<!-- Node6 -->
<g id="node6" class="node"><title>Node6</title>
<g id="a_node6"><a xlink:href="SkinningComponent_8cpp.html" target="_top" xlink:title="/home/travis/build\l/STORM&#45;IRIT/Radium&#45;Engine\l/Plugins/Skinning/src/SkinningComponent.cpp">
<polygon fill="white" stroke="black" points="598.5,-84 598.5,-125 832.5,-125 832.5,-84 598.5,-84"/>
<text text-anchor="start" x="606.5" y="-113" font-family="Helvetica,sans-Serif" font-size="10.00">/home/travis/build</text>
<text text-anchor="start" x="606.5" y="-102" font-family="Helvetica,sans-Serif" font-size="10.00">/STORM&#45;IRIT/Radium&#45;Engine</text>
<text text-anchor="middle" x="715.5" y="-91" font-family="Helvetica,sans-Serif" font-size="10.00">/Plugins/Skinning/src/SkinningComponent.cpp</text>
</a>
</g>
</g>
<!-- Node3&#45;&gt;Node6 -->
<g id="edge5" class="edge"><title>Node3&#45;&gt;Node6</title>
<path fill="none" stroke="midnightblue" d="M402.123,-166.909C486.293,-148.738 509.127,-146.828 589.5,-131 599.245,-129.081 609.409,-127.059 619.552,-125.027"/>
<polygon fill="midnightblue" stroke="midnightblue" points="401.14,-163.541 392.111,-169.084 402.626,-170.381 401.14,-163.541"/>
</g>
<!-- Node7&#45;&gt;Node6 -->
<g id="edge8" class="edge"><title>Node7&#45;&gt;Node6</title>
<path fill="none" stroke="midnightblue" d="M568.172,-163.762C600.206,-151.094 637.031,-136.531 665.851,-125.134"/>
<polygon fill="midnightblue" stroke="midnightblue" points="566.85,-160.52 558.838,-167.453 569.424,-167.03 566.85,-160.52"/>
</g>
<!-- Node8 -->
<g id="node8" class="node"><title>Node8</title>
<g id="a_node8"><a xlink:href="StretchableTwistableBoneSkinning_8cpp.html" target="_top" xlink:title="/home/travis/build\l/STORM&#45;IRIT/Radium&#45;Engine\l/src/Core/Animation/Stretchable\lTwistableBoneSkinning.cpp">
<polygon fill="white" stroke="black" points="410.5,-78.5 410.5,-130.5 580.5,-130.5 580.5,-78.5 410.5,-78.5"/>
<text text-anchor="start" x="418.5" y="-118.5" font-family="Helvetica,sans-Serif" font-size="10.00">/home/travis/build</text>
<text text-anchor="start" x="418.5" y="-107.5" font-family="Helvetica,sans-Serif" font-size="10.00">/STORM&#45;IRIT/Radium&#45;Engine</text>
<text text-anchor="start" x="418.5" y="-96.5" font-family="Helvetica,sans-Serif" font-size="10.00">/src/Core/Animation/Stretchable</text>
<text text-anchor="middle" x="495.5" y="-85.5" font-family="Helvetica,sans-Serif" font-size="10.00">TwistableBoneSkinning.cpp</text>
</a>
</g>
</g>
<!-- Node7&#45;&gt;Node8 -->
<g id="edge7" class="edge"><title>Node7&#45;&gt;Node8</title>
<path fill="none" stroke="midnightblue" d="M495.5,-157.191C495.5,-148.282 495.5,-138.899 495.5,-130.607"/>
<polygon fill="midnightblue" stroke="midnightblue" points="492,-157.336 495.5,-167.336 499,-157.336 492,-157.336"/>
</g>
<!-- Node9&#45;&gt;Node6 -->
<g id="edge11" class="edge"><title>Node9&#45;&gt;Node6</title>
<path fill="none" stroke="midnightblue" d="M716.154,-162.441C716.013,-150.101 715.852,-136.162 715.726,-125.164"/>
<polygon fill="midnightblue" stroke="midnightblue" points="712.658,-162.799 716.273,-172.758 719.658,-162.719 712.658,-162.799"/>
</g>
<!-- Node10 -->
<g id="node10" class="node"><title>Node10</title>
<g id="a_node10"><a xlink:href="SkinningSystem_8hpp.html" target="_top" xlink:title="/home/travis/build\l/STORM&#45;IRIT/Radium&#45;Engine\l/Plugins/Skinning/src/SkinningSystem.hpp">
<polygon fill="white" stroke="black" points="851,-84 851,-125 1066,-125 1066,-84 851,-84"/>
<text text-anchor="start" x="859" y="-113" font-family="Helvetica,sans-Serif" font-size="10.00">/home/travis/build</text>
<text text-anchor="start" x="859" y="-102" font-family="Helvetica,sans-Serif" font-size="10.00">/STORM&#45;IRIT/Radium&#45;Engine</text>
<text text-anchor="middle" x="958.5" y="-91" font-family="Helvetica,sans-Serif" font-size="10.00">/Plugins/Skinning/src/SkinningSystem.hpp</text>
</a>
</g>
</g>
<!-- Node9&#45;&gt;Node10 -->
<g id="edge12" class="edge"><title>Node9&#45;&gt;Node10</title>
<path fill="none" stroke="midnightblue" d="M780.36,-169.542C818.825,-155.714 867.289,-138.291 903.954,-125.11"/>
<polygon fill="midnightblue" stroke="midnightblue" points="779.036,-166.299 770.81,-172.976 781.404,-172.886 779.036,-166.299"/>
</g>
<!-- Node11 -->
<g id="node11" class="node"><title>Node11</title>
<g id="a_node11"><a xlink:href="SkinningPlugin_8cpp.html" target="_top" xlink:title="/home/travis/build\l/STORM&#45;IRIT/Radium&#45;Engine\l/Plugins/Skinning/src/SkinningPlugin.cpp">
<polygon fill="white" stroke="black" points="855.5,-0.5 855.5,-41.5 1061.5,-41.5 1061.5,-0.5 855.5,-0.5"/>
<text text-anchor="start" x="863.5" y="-29.5" font-family="Helvetica,sans-Serif" font-size="10.00">/home/travis/build</text>
<text text-anchor="start" x="863.5" y="-18.5" font-family="Helvetica,sans-Serif" font-size="10.00">/STORM&#45;IRIT/Radium&#45;Engine</text>
<text text-anchor="middle" x="958.5" y="-7.5" font-family="Helvetica,sans-Serif" font-size="10.00">/Plugins/Skinning/src/SkinningPlugin.cpp</text>
</a>
</g>
</g>
<!-- Node10&#45;&gt;Node11 -->
<g id="edge13" class="edge"><title>Node10&#45;&gt;Node11</title>
<path fill="none" stroke="midnightblue" d="M958.5,-73.5646C958.5,-62.8819 958.5,-51.1303 958.5,-41.5472"/>
<polygon fill="midnightblue" stroke="midnightblue" points="955,-73.7711 958.5,-83.7711 962,-73.7712 955,-73.7711"/>
</g>
</g>
</svg>
