<?xml version="1.0" encoding="UTF-8" standalone="no"?>
<!DOCTYPE svg PUBLIC "-//W3C//DTD SVG 1.1//EN"
 "http://www.w3.org/Graphics/SVG/1.1/DTD/svg11.dtd">
<!-- Generated by graphviz version 2.38.0 (20140413.2041)
 -->
<!-- Title: /home/travis/build/STORM&#45;IRIT/Radium&#45;Engine/Plugins/Dummy/src/DummyComponent.hpp Pages: 1 -->
<svg width="928pt" height="330pt"
 viewBox="0.00 0.00 928.00 330.00" xmlns="http://www.w3.org/2000/svg" xmlns:xlink="http://www.w3.org/1999/xlink">
<g id="graph0" class="graph" transform="scale(1 1) rotate(0) translate(4 326)">
<title>/home/travis/build/STORM&#45;IRIT/Radium&#45;Engine/Plugins/Dummy/src/DummyComponent.hpp</title>
<polygon fill="white" stroke="none" points="-4,4 -4,-326 924,-326 924,4 -4,4"/>
<!-- Node1 -->
<g id="node1" class="node"><title>Node1</title>
<polygon fill="#bfbfbf" stroke="black" points="551,-280.5 551,-321.5 781,-321.5 781,-280.5 551,-280.5"/>
<text text-anchor="start" x="559" y="-309.5" font-family="Helvetica,sans-Serif" font-size="10.00">/home/travis/build</text>
<text text-anchor="start" x="559" y="-298.5" font-family="Helvetica,sans-Serif" font-size="10.00">/STORM&#45;IRIT/Radium&#45;Engine</text>
<text text-anchor="middle" x="666" y="-287.5" font-family="Helvetica,sans-Serif" font-size="10.00">/Plugins/Dummy/src/DummyComponent.hpp</text>
</g>
<!-- Node2 -->
<g id="node2" class="node"><title>Node2</title>
<g id="a_node2"><a xlink:href="DummyPluginMacros_8hpp.html" target="_top" xlink:title="DummyPluginMacros.hpp">
<polygon fill="white" stroke="black" points="596.5,-224.5 596.5,-243.5 735.5,-243.5 735.5,-224.5 596.5,-224.5"/>
<text text-anchor="middle" x="666" y="-231.5" font-family="Helvetica,sans-Serif" font-size="10.00">DummyPluginMacros.hpp</text>
</a>
</g>
</g>
<!-- Node1&#45;&gt;Node2 -->
<g id="edge1" class="edge"><title>Node1&#45;&gt;Node2</title>
<path fill="none" stroke="midnightblue" d="M666,-280.498C666,-272.065 666,-262.235 666,-253.874"/>
<polygon fill="midnightblue" stroke="midnightblue" points="669.5,-253.652 666,-243.652 662.5,-253.653 669.5,-253.652"/>
</g>
<!-- Node9 -->
<g id="node9" class="node"><title>Node9</title>
<polygon fill="white" stroke="#bfbfbf" points="754,-224.5 754,-243.5 920,-243.5 920,-224.5 754,-224.5"/>
<text text-anchor="middle" x="837" y="-231.5" font-family="Helvetica,sans-Serif" font-size="10.00">Core/Geometry/MeshTypes.hpp</text>
</g>
<!-- Node1&#45;&gt;Node9 -->
<g id="edge8" class="edge"><title>Node1&#45;&gt;Node9</title>
<path fill="none" stroke="midnightblue" d="M717.306,-280.498C745.666,-269.718 780.036,-256.653 804.657,-247.294"/>
<polygon fill="midnightblue" stroke="midnightblue" points="806.133,-250.477 814.237,-243.652 803.646,-243.934 806.133,-250.477"/>
</g>
<!-- Node10 -->
<g id="node10" class="node"><title>Node10</title>
<g id="a_node10"><a xlink:href="Component_8hpp.html" target="_top" xlink:title="Engine/Component/Component.hpp">
<polygon fill="white" stroke="black" points="289,-224.5 289,-243.5 477,-243.5 477,-224.5 289,-224.5"/>
<text text-anchor="middle" x="383" y="-231.5" font-family="Helvetica,sans-Serif" font-size="10.00">Engine/Component/Component.hpp</text>
</a>
</g>
</g>
<!-- Node1&#45;&gt;Node10 -->
<g id="edge9" class="edge"><title>Node1&#45;&gt;Node10</title>
<path fill="none" stroke="midnightblue" d="M581.091,-280.498C531.71,-269.156 471.322,-255.286 430.295,-245.863"/>
<polygon fill="midnightblue" stroke="midnightblue" points="430.829,-242.394 420.3,-243.567 429.262,-249.217 430.829,-242.394"/>
</g>
<!-- Node3 -->
<g id="node3" class="node"><title>Node3</title>
<g id="a_node3"><a xlink:href="CoreMacros_8hpp.html" target="_top" xlink:title="Core/CoreMacros.hpp">
<polygon fill="white" stroke="black" points="641,-56.5 641,-75.5 761,-75.5 761,-56.5 641,-56.5"/>
<text text-anchor="middle" x="701" y="-63.5" font-family="Helvetica,sans-Serif" font-size="10.00">Core/CoreMacros.hpp</text>
</a>
</g>
</g>
<!-- Node2&#45;&gt;Node3 -->
<g id="edge2" class="edge"><title>Node2&#45;&gt;Node3</title>
<path fill="none" stroke="midnightblue" d="M697.809,-224.385C715.946,-217.661 737.164,-206.306 748,-188 768.742,-152.957 736.787,-107.1 716.192,-83.1537"/>
<polygon fill="midnightblue" stroke="midnightblue" points="718.76,-80.7746 709.487,-75.651 713.541,-85.4394 718.76,-80.7746"/>
</g>
<!-- Node4 -->
<g id="node4" class="node"><title>Node4</title>
<polygon fill="white" stroke="#bfbfbf" points="538,-0.5 538,-19.5 590,-19.5 590,-0.5 538,-0.5"/>
<text text-anchor="middle" x="564" y="-7.5" font-family="Helvetica,sans-Serif" font-size="10.00">cassert</text>
</g>
<!-- Node3&#45;&gt;Node4 -->
<g id="edge3" class="edge"><title>Node3&#45;&gt;Node4</title>
<path fill="none" stroke="midnightblue" d="M679.292,-56.4435C656.645,-47.5171 620.928,-33.4387 595.248,-23.3168"/>
<polygon fill="midnightblue" stroke="midnightblue" points="596.193,-19.9273 585.606,-19.5164 593.626,-26.4397 596.193,-19.9273"/>
</g>
<!-- Node5 -->
<g id="node5" class="node"><title>Node5</title>
<polygon fill="white" stroke="#bfbfbf" points="608.5,-0.5 608.5,-19.5 653.5,-19.5 653.5,-0.5 608.5,-0.5"/>
<text text-anchor="middle" x="631" y="-7.5" font-family="Helvetica,sans-Serif" font-size="10.00">cstdio</text>
</g>
<!-- Node3&#45;&gt;Node5 -->
<g id="edge4" class="edge"><title>Node3&#45;&gt;Node5</title>
<path fill="none" stroke="midnightblue" d="M689.753,-56.324C679.203,-48.1849 663.199,-35.8395 650.558,-26.0874"/>
<polygon fill="midnightblue" stroke="midnightblue" points="652.507,-23.1707 642.451,-19.8339 648.231,-28.7132 652.507,-23.1707"/>
</g>
<!-- Node6 -->
<g id="node6" class="node"><title>Node6</title>
<polygon fill="white" stroke="#bfbfbf" points="671.5,-0.5 671.5,-19.5 730.5,-19.5 730.5,-0.5 671.5,-0.5"/>
<text text-anchor="middle" x="701" y="-7.5" font-family="Helvetica,sans-Serif" font-size="10.00">iostream</text>
</g>
<!-- Node3&#45;&gt;Node6 -->
<g id="edge5" class="edge"><title>Node3&#45;&gt;Node6</title>
<path fill="none" stroke="midnightblue" d="M701,-56.083C701,-49.0059 701,-38.8611 701,-29.9865"/>
<polygon fill="midnightblue" stroke="midnightblue" points="704.5,-29.751 701,-19.7511 697.5,-29.7511 704.5,-29.751"/>
</g>
<!-- Node7 -->
<g id="node7" class="node"><title>Node7</title>
<polygon fill="white" stroke="#bfbfbf" points="749,-0.5 749,-19.5 805,-19.5 805,-0.5 749,-0.5"/>
<text text-anchor="middle" x="777" y="-7.5" font-family="Helvetica,sans-Serif" font-size="10.00">sstream</text>
</g>
<!-- Node3&#45;&gt;Node7 -->
<g id="edge6" class="edge"><title>Node3&#45;&gt;Node7</title>
<path fill="none" stroke="midnightblue" d="M713.211,-56.324C724.776,-48.1066 742.375,-35.6017 756.161,-25.8069"/>
<polygon fill="midnightblue" stroke="midnightblue" points="758.443,-28.4791 764.567,-19.8339 754.388,-22.7729 758.443,-28.4791"/>
</g>
<!-- Node8 -->
<g id="node8" class="node"><title>Node8</title>
<polygon fill="white" stroke="#bfbfbf" points="823,-0.5 823,-19.5 871,-19.5 871,-0.5 823,-0.5"/>
<text text-anchor="middle" x="847" y="-7.5" font-family="Helvetica,sans-Serif" font-size="10.00">thread</text>
</g>
<!-- Node3&#45;&gt;Node8 -->
<g id="edge7" class="edge"><title>Node3&#45;&gt;Node8</title>
<path fill="none" stroke="midnightblue" d="M724.134,-56.4435C748.482,-47.4381 787.007,-33.1891 814.423,-23.049"/>
<polygon fill="midnightblue" stroke="midnightblue" points="815.809,-26.2681 823.974,-19.5164 813.381,-19.7028 815.809,-26.2681"/>
</g>
<!-- Node11 -->
<g id="node11" class="node"><title>Node11</title>
<g id="a_node11"><a xlink:href="Index_8hpp.html" target="_top" xlink:title="Core/Utils/Index.hpp">
<polygon fill="white" stroke="black" points="491.5,-168.5 491.5,-187.5 604.5,-187.5 604.5,-168.5 491.5,-168.5"/>
<text text-anchor="middle" x="548" y="-175.5" font-family="Helvetica,sans-Serif" font-size="10.00">Core/Utils/Index.hpp</text>
</a>
</g>
</g>
<!-- Node10&#45;&gt;Node11 -->
<g id="edge10" class="edge"><title>Node10&#45;&gt;Node11</title>
<path fill="none" stroke="midnightblue" d="M409.145,-224.444C437.023,-215.32 481.348,-200.813 512.4,-190.651"/>
<polygon fill="midnightblue" stroke="midnightblue" points="513.562,-193.953 521.978,-187.516 511.385,-187.3 513.562,-193.953"/>
</g>
<!-- Node15 -->
<g id="node15" class="node"><title>Node15</title>
<polygon fill="white" stroke="#bfbfbf" points="0,-112.5 0,-131.5 68,-131.5 68,-112.5 0,-112.5"/>
<text text-anchor="middle" x="34" y="-119.5" font-family="Helvetica,sans-Serif" font-size="10.00">Eigen/Core</text>
</g>
<!-- Node10&#45;&gt;Node15 -->
<g id="edge15" class="edge"><title>Node10&#45;&gt;Node15</title>
<path fill="none" stroke="midnightblue" d="M288.904,-228.303C210.601,-222.797 106.559,-211.276 72,-188 55.7728,-177.071 45.531,-156.703 39.8226,-141.669"/>
<polygon fill="midnightblue" stroke="midnightblue" points="43.0146,-140.189 36.4465,-131.875 36.3969,-142.47 43.0146,-140.189"/>
</g>
<!-- Node16 -->
<g id="node16" class="node"><title>Node16</title>
<polygon fill="white" stroke="#bfbfbf" points="184,-112.5 184,-131.5 278,-131.5 278,-112.5 184,-112.5"/>
<text text-anchor="middle" x="231" y="-119.5" font-family="Helvetica,sans-Serif" font-size="10.00">Eigen/Geometry</text>
</g>
<!-- Node10&#45;&gt;Node16 -->
<g id="edge16" class="edge"><title>Node10&#45;&gt;Node16</title>
<path fill="none" stroke="midnightblue" d="M323.34,-224.452C281.561,-217.104 230.976,-204.989 218,-188 207.657,-174.459 213.627,-154.838 220.5,-140.7"/>
<polygon fill="midnightblue" stroke="midnightblue" points="223.774,-142.002 225.443,-131.539 217.614,-138.677 223.774,-142.002"/>
</g>
<!-- Node17 -->
<g id="node17" class="node"><title>Node17</title>
<g id="a_node17"><a xlink:href="RaEngine_8hpp.html" target="_top" xlink:title="Engine/RaEngine.hpp">
<polygon fill="white" stroke="black" points="622.5,-168.5 622.5,-187.5 739.5,-187.5 739.5,-168.5 622.5,-168.5"/>
<text text-anchor="middle" x="681" y="-175.5" font-family="Helvetica,sans-Serif" font-size="10.00">Engine/RaEngine.hpp</text>
</a>
</g>
</g>
<!-- Node10&#45;&gt;Node17 -->
<g id="edge17" class="edge"><title>Node10&#45;&gt;Node17</title>
<path fill="none" stroke="midnightblue" d="M430.219,-224.444C482.749,-214.925 567.61,-199.547 623.848,-189.356"/>
<polygon fill="midnightblue" stroke="midnightblue" points="624.786,-192.743 634.002,-187.516 623.538,-185.856 624.786,-192.743"/>
</g>
<!-- Node18 -->
<g id="node18" class="node"><title>Node18</title>
<polygon fill="white" stroke="#bfbfbf" points="227.5,-168.5 227.5,-187.5 274.5,-187.5 274.5,-168.5 227.5,-168.5"/>
<text text-anchor="middle" x="251" y="-175.5" font-family="Helvetica,sans-Serif" font-size="10.00">vector</text>
</g>
<!-- Node10&#45;&gt;Node18 -->
<g id="edge19" class="edge"><title>Node10&#45;&gt;Node18</title>
<path fill="none" stroke="midnightblue" d="M362.084,-224.444C340.264,-215.517 305.85,-201.439 281.108,-191.317"/>
<polygon fill="midnightblue" stroke="midnightblue" points="282.399,-188.063 271.818,-187.516 279.748,-194.542 282.399,-188.063"/>
</g>
<!-- Node19 -->
<g id="node19" class="node"><title>Node19</title>
<g id="a_node19"><a xlink:href="Types_8hpp.html" target="_top" xlink:title="Core/Types.hpp">
<polygon fill="white" stroke="black" points="81.5,-168.5 81.5,-187.5 170.5,-187.5 170.5,-168.5 81.5,-168.5"/>
<text text-anchor="middle" x="126" y="-175.5" font-family="Helvetica,sans-Serif" font-size="10.00">Core/Types.hpp</text>
</a>
</g>
</g>
<!-- Node10&#45;&gt;Node19 -->
<g id="edge20" class="edge"><title>Node10&#45;&gt;Node19</title>
<path fill="none" stroke="midnightblue" d="M342.278,-224.444C297.351,-215.004 225.002,-199.802 176.501,-189.611"/>
<polygon fill="midnightblue" stroke="midnightblue" points="177.038,-186.148 166.532,-187.516 175.598,-192.998 177.038,-186.148"/>
</g>
<!-- Node21 -->
<g id="node21" class="node"><title>Node21</title>
<g id="a_node21"><a xlink:href="Component_8inl.html" target="_top" xlink:title="Engine/Component/Component.inl">
<polygon fill="white" stroke="black" points="292.5,-168.5 292.5,-187.5 473.5,-187.5 473.5,-168.5 292.5,-168.5"/>
<text text-anchor="middle" x="383" y="-175.5" font-family="Helvetica,sans-Serif" font-size="10.00">Engine/Component/Component.inl</text>
</a>
</g>
</g>
<!-- Node10&#45;&gt;Node21 -->
<g id="edge25" class="edge"><title>Node10&#45;&gt;Node21</title>
<path fill="none" stroke="midnightblue" d="M377.834,-224.083C376.324,-216.927 375.894,-206.635 376.542,-197.691"/>
<polygon fill="midnightblue" stroke="midnightblue" points="380.015,-198.126 377.869,-187.751 373.077,-197.2 380.015,-198.126"/>
</g>
<!-- Node12 -->
<g id="node12" class="node"><title>Node12</title>
<g id="a_node12"><a xlink:href="RaCore_8hpp.html" target="_top" xlink:title="Core/RaCore.hpp">
<polygon fill="white" stroke="black" points="391,-112.5 391,-131.5 489,-131.5 489,-112.5 391,-112.5"/>
<text text-anchor="middle" x="440" y="-119.5" font-family="Helvetica,sans-Serif" font-size="10.00">Core/RaCore.hpp</text>
</a>
</g>
</g>
<!-- Node11&#45;&gt;Node12 -->
<g id="edge11" class="edge"><title>Node11&#45;&gt;Node12</title>
<path fill="none" stroke="midnightblue" d="M530.648,-168.324C513.328,-159.664 486.485,-146.242 466.498,-136.249"/>
<polygon fill="midnightblue" stroke="midnightblue" points="467.819,-132.996 457.309,-131.655 464.688,-139.257 467.819,-132.996"/>
</g>
<!-- Node13 -->
<g id="node13" class="node"><title>Node13</title>
<polygon fill="white" stroke="#bfbfbf" points="507,-112.5 507,-131.5 549,-131.5 549,-112.5 507,-112.5"/>
<text text-anchor="middle" x="528" y="-119.5" font-family="Helvetica,sans-Serif" font-size="10.00">limits</text>
</g>
<!-- Node11&#45;&gt;Node13 -->
<g id="edge13" class="edge"><title>Node11&#45;&gt;Node13</title>
<path fill="none" stroke="midnightblue" d="M544.697,-168.083C542.018,-160.849 538.151,-150.409 534.814,-141.397"/>
<polygon fill="midnightblue" stroke="midnightblue" points="537.996,-139.913 531.241,-131.751 531.432,-142.344 537.996,-139.913"/>
</g>
<!-- Node14 -->
<g id="node14" class="node"><title>Node14</title>
<g id="a_node14"><a xlink:href="Index_8inl.html" target="_top" xlink:title="Core/Utils/Index.inl">
<polygon fill="white" stroke="black" points="567.5,-112.5 567.5,-131.5 672.5,-131.5 672.5,-112.5 567.5,-112.5"/>
<text text-anchor="middle" x="620" y="-119.5" font-family="Helvetica,sans-Serif" font-size="10.00">Core/Utils/Index.inl</text>
</a>
</g>
</g>
<!-- Node11&#45;&gt;Node14 -->
<g id="edge14" class="edge"><title>Node11&#45;&gt;Node14</title>
<path fill="none" stroke="midnightblue" d="M559.568,-168.324C570.42,-160.185 586.881,-147.839 599.883,-138.087"/>
<polygon fill="midnightblue" stroke="midnightblue" points="602.321,-140.634 608.221,-131.834 598.121,-135.034 602.321,-140.634"/>
</g>
<!-- Node12&#45;&gt;Node3 -->
<g id="edge12" class="edge"><title>Node12&#45;&gt;Node3</title>
<path fill="none" stroke="midnightblue" d="M481.356,-112.444C527.078,-102.984 600.764,-87.7384 650.022,-77.5472"/>
<polygon fill="midnightblue" stroke="midnightblue" points="650.754,-80.97 659.837,-75.5164 649.336,-74.1152 650.754,-80.97"/>
</g>
<!-- Node17&#45;&gt;Node3 -->
<g id="edge18" class="edge"><title>Node17&#45;&gt;Node3</title>
<path fill="none" stroke="midnightblue" d="M682.569,-168.368C685.797,-150.617 693.242,-109.666 697.619,-85.5974"/>
<polygon fill="midnightblue" stroke="midnightblue" points="701.093,-86.0562 699.438,-75.5914 694.205,-84.804 701.093,-86.0562"/>
</g>
<!-- Node19&#45;&gt;Node12 -->
<g id="edge21" class="edge"><title>Node19&#45;&gt;Node12</title>
<path fill="none" stroke="midnightblue" d="M170.655,-169.32C225.828,-159.832 319.873,-143.659 380.962,-133.153"/>
<polygon fill="midnightblue" stroke="midnightblue" points="381.584,-136.598 390.846,-131.453 380.397,-129.699 381.584,-136.598"/>
</g>
<!-- Node19&#45;&gt;Node15 -->
<g id="edge22" class="edge"><title>Node19&#45;&gt;Node15</title>
<path fill="none" stroke="midnightblue" d="M111.219,-168.324C96.7329,-159.822 74.4269,-146.729 57.5068,-136.797"/>
<polygon fill="midnightblue" stroke="midnightblue" points="59.1406,-133.698 48.7447,-131.655 55.5972,-139.735 59.1406,-133.698"/>
</g>
<!-- Node19&#45;&gt;Node16 -->
<g id="edge23" class="edge"><title>Node19&#45;&gt;Node16</title>
<path fill="none" stroke="midnightblue" d="M142.87,-168.324C159.709,-159.664 185.807,-146.242 205.238,-136.249"/>
<polygon fill="midnightblue" stroke="midnightblue" points="206.88,-139.341 214.172,-131.655 203.678,-133.116 206.88,-139.341"/>
</g>
<!-- Node20 -->
<g id="node20" class="node"><title>Node20</title>
<polygon fill="white" stroke="#bfbfbf" points="86,-112.5 86,-131.5 166,-131.5 166,-112.5 86,-112.5"/>
<text text-anchor="middle" x="126" y="-119.5" font-family="Helvetica,sans-Serif" font-size="10.00">Eigen/Sparse</text>
</g>
<!-- Node19&#45;&gt;Node20 -->
<g id="edge24" class="edge"><title>Node19&#45;&gt;Node20</title>
<path fill="none" stroke="midnightblue" d="M126,-168.083C126,-161.006 126,-150.861 126,-141.986"/>
<polygon fill="midnightblue" stroke="midnightblue" points="129.5,-141.751 126,-131.751 122.5,-141.751 129.5,-141.751"/>
</g>
<!-- Node21&#45;&gt;Node10 -->
<g id="edge26" class="edge"><title>Node21&#45;&gt;Node10</title>
<path fill="none" stroke="midnightblue" d="M388.131,-187.751C389.657,-194.858 390.104,-205.136 389.472,-214.101"/>
<polygon fill="midnightblue" stroke="midnightblue" points="385.993,-213.713 388.166,-224.083 392.934,-214.622 385.993,-213.713"/>
</g>
</g>
</svg>
