<?xml version="1.0" encoding="UTF-8" standalone="no"?>
<!DOCTYPE svg PUBLIC "-//W3C//DTD SVG 1.1//EN"
 "http://www.w3.org/Graphics/SVG/1.1/DTD/svg11.dtd">
<!-- Generated by graphviz version 2.38.0 (20140413.2041)
 -->
<!-- Title: /home/travis/build/STORM&#45;IRIT/Radium&#45;Engine/Plugins/Dummy/src/DummyPlugin.hpp Pages: 1 -->
<svg width="615pt" height="330pt"
 viewBox="0.00 0.00 615.00 330.00" xmlns="http://www.w3.org/2000/svg" xmlns:xlink="http://www.w3.org/1999/xlink">
<g id="graph0" class="graph" transform="scale(1 1) rotate(0) translate(4 326)">
<title>/home/travis/build/STORM&#45;IRIT/Radium&#45;Engine/Plugins/Dummy/src/DummyPlugin.hpp</title>
<polygon fill="white" stroke="none" points="-4,4 -4,-326 611,-326 611,4 -4,4"/>
<!-- Node1 -->
<g id="node1" class="node"><title>Node1</title>
<polygon fill="#bfbfbf" stroke="black" points="85,-280.5 85,-321.5 288,-321.5 288,-280.5 85,-280.5"/>
<text text-anchor="start" x="93" y="-309.5" font-family="Helvetica,sans-Serif" font-size="10.00">/home/travis/build</text>
<text text-anchor="start" x="93" y="-298.5" font-family="Helvetica,sans-Serif" font-size="10.00">/STORM&#45;IRIT/Radium&#45;Engine</text>
<text text-anchor="middle" x="186.5" y="-287.5" font-family="Helvetica,sans-Serif" font-size="10.00">/Plugins/Dummy/src/DummyPlugin.hpp</text>
</g>
<!-- Node2 -->
<g id="node2" class="node"><title>Node2</title>
<g id="a_node2"><a xlink:href="DummyPluginMacros_8hpp.html" target="_top" xlink:title="DummyPluginMacros.hpp">
<polygon fill="white" stroke="black" points="0,-224.5 0,-243.5 139,-243.5 139,-224.5 0,-224.5"/>
<text text-anchor="middle" x="69.5" y="-231.5" font-family="Helvetica,sans-Serif" font-size="10.00">DummyPluginMacros.hpp</text>
</a>
</g>
</g>
<!-- Node1&#45;&gt;Node2 -->
<g id="edge1" class="edge"><title>Node1&#45;&gt;Node2</title>
<path fill="none" stroke="midnightblue" d="M151.396,-280.498C132.94,-270.245 110.765,-257.925 94.1468,-248.693"/>
<polygon fill="midnightblue" stroke="midnightblue" points="95.5158,-245.449 85.0745,-243.652 92.1163,-251.569 95.5158,-245.449"/>
</g>
<!-- Node9 -->
<g id="node9" class="node"><title>Node9</title>
<polygon fill="white" stroke="#bfbfbf" points="252,-112.5 252,-131.5 307,-131.5 307,-112.5 252,-112.5"/>
<text text-anchor="middle" x="279.5" y="-119.5" font-family="Helvetica,sans-Serif" font-size="10.00">QObject</text>
</g>
<!-- Node1&#45;&gt;Node9 -->
<g id="edge8" class="edge"><title>Node1&#45;&gt;Node9</title>
<path fill="none" stroke="midnightblue" d="M180.465,-280.33C173.295,-252.876 164.83,-202.559 186.5,-168 198.646,-148.63 221.753,-137.393 241.894,-130.992"/>
<polygon fill="midnightblue" stroke="midnightblue" points="243.14,-134.275 251.782,-128.146 241.204,-127.549 243.14,-134.275"/>
</g>
<!-- Node10 -->
<g id="node10" class="node"><title>Node10</title>
<polygon fill="white" stroke="#bfbfbf" points="195.5,-168.5 195.5,-187.5 251.5,-187.5 251.5,-168.5 195.5,-168.5"/>
<text text-anchor="middle" x="223.5" y="-175.5" font-family="Helvetica,sans-Serif" font-size="10.00">QtPlugin</text>
</g>
<!-- Node1&#45;&gt;Node10 -->
<g id="edge9" class="edge"><title>Node1&#45;&gt;Node10</title>
<path fill="none" stroke="midnightblue" d="M192.527,-280.29C199.566,-257.27 211.115,-219.503 217.945,-197.168"/>
<polygon fill="midnightblue" stroke="midnightblue" points="221.301,-198.161 220.878,-187.575 214.607,-196.114 221.301,-198.161"/>
</g>
<!-- Node11 -->
<g id="node11" class="node"><title>Node11</title>
<g id="a_node11"><a xlink:href="RadiumPluginInterface_8hpp.html" target="_top" xlink:title="PluginBase/RadiumPluginInterface.hpp">
<polygon fill="white" stroke="black" points="235.5,-224.5 235.5,-243.5 435.5,-243.5 435.5,-224.5 235.5,-224.5"/>
<text text-anchor="middle" x="335.5" y="-231.5" font-family="Helvetica,sans-Serif" font-size="10.00">PluginBase/RadiumPluginInterface.hpp</text>
</a>
</g>
</g>
<!-- Node1&#45;&gt;Node11 -->
<g id="edge10" class="edge"><title>Node1&#45;&gt;Node11</title>
<path fill="none" stroke="midnightblue" d="M231.205,-280.498C255.587,-269.861 285.067,-257.001 306.455,-247.67"/>
<polygon fill="midnightblue" stroke="midnightblue" points="307.9,-250.859 315.666,-243.652 305.101,-244.443 307.9,-250.859"/>
</g>
<!-- Node3 -->
<g id="node3" class="node"><title>Node3</title>
<g id="a_node3"><a xlink:href="CoreMacros_8hpp.html" target="_top" xlink:title="Core/CoreMacros.hpp">
<polygon fill="white" stroke="black" points="222.5,-56.5 222.5,-75.5 342.5,-75.5 342.5,-56.5 222.5,-56.5"/>
<text text-anchor="middle" x="282.5" y="-63.5" font-family="Helvetica,sans-Serif" font-size="10.00">Core/CoreMacros.hpp</text>
</a>
</g>
</g>
<!-- Node2&#45;&gt;Node3 -->
<g id="edge2" class="edge"><title>Node2&#45;&gt;Node3</title>
<path fill="none" stroke="midnightblue" d="M80.6519,-224.309C115.087,-197.472 220.02,-115.694 263.41,-81.8776"/>
<polygon fill="midnightblue" stroke="midnightblue" points="265.722,-84.5129 271.458,-75.6051 261.419,-78.9916 265.722,-84.5129"/>
</g>
<!-- Node4 -->
<g id="node4" class="node"><title>Node4</title>
<polygon fill="white" stroke="#bfbfbf" points="119.5,-0.5 119.5,-19.5 171.5,-19.5 171.5,-0.5 119.5,-0.5"/>
<text text-anchor="middle" x="145.5" y="-7.5" font-family="Helvetica,sans-Serif" font-size="10.00">cassert</text>
</g>
<!-- Node3&#45;&gt;Node4 -->
<g id="edge3" class="edge"><title>Node3&#45;&gt;Node4</title>
<path fill="none" stroke="midnightblue" d="M260.792,-56.4435C238.145,-47.5171 202.428,-33.4387 176.748,-23.3168"/>
<polygon fill="midnightblue" stroke="midnightblue" points="177.693,-19.9273 167.106,-19.5164 175.126,-26.4397 177.693,-19.9273"/>
</g>
<!-- Node5 -->
<g id="node5" class="node"><title>Node5</title>
<polygon fill="white" stroke="#bfbfbf" points="190,-0.5 190,-19.5 235,-19.5 235,-0.5 190,-0.5"/>
<text text-anchor="middle" x="212.5" y="-7.5" font-family="Helvetica,sans-Serif" font-size="10.00">cstdio</text>
</g>
<!-- Node3&#45;&gt;Node5 -->
<g id="edge4" class="edge"><title>Node3&#45;&gt;Node5</title>
<path fill="none" stroke="midnightblue" d="M271.253,-56.324C260.703,-48.1849 244.699,-35.8395 232.058,-26.0874"/>
<polygon fill="midnightblue" stroke="midnightblue" points="234.007,-23.1707 223.951,-19.8339 229.731,-28.7132 234.007,-23.1707"/>
</g>
<!-- Node6 -->
<g id="node6" class="node"><title>Node6</title>
<polygon fill="white" stroke="#bfbfbf" points="253,-0.5 253,-19.5 312,-19.5 312,-0.5 253,-0.5"/>
<text text-anchor="middle" x="282.5" y="-7.5" font-family="Helvetica,sans-Serif" font-size="10.00">iostream</text>
</g>
<!-- Node3&#45;&gt;Node6 -->
<g id="edge5" class="edge"><title>Node3&#45;&gt;Node6</title>
<path fill="none" stroke="midnightblue" d="M282.5,-56.083C282.5,-49.0059 282.5,-38.8611 282.5,-29.9865"/>
<polygon fill="midnightblue" stroke="midnightblue" points="286,-29.751 282.5,-19.7511 279,-29.7511 286,-29.751"/>
</g>
<!-- Node7 -->
<g id="node7" class="node"><title>Node7</title>
<polygon fill="white" stroke="#bfbfbf" points="330.5,-0.5 330.5,-19.5 386.5,-19.5 386.5,-0.5 330.5,-0.5"/>
<text text-anchor="middle" x="358.5" y="-7.5" font-family="Helvetica,sans-Serif" font-size="10.00">sstream</text>
</g>
<!-- Node3&#45;&gt;Node7 -->
<g id="edge6" class="edge"><title>Node3&#45;&gt;Node7</title>
<path fill="none" stroke="midnightblue" d="M294.711,-56.324C306.276,-48.1066 323.875,-35.6017 337.661,-25.8069"/>
<polygon fill="midnightblue" stroke="midnightblue" points="339.943,-28.4791 346.067,-19.8339 335.888,-22.7729 339.943,-28.4791"/>
</g>
<!-- Node8 -->
<g id="node8" class="node"><title>Node8</title>
<polygon fill="white" stroke="#bfbfbf" points="404.5,-0.5 404.5,-19.5 452.5,-19.5 452.5,-0.5 404.5,-0.5"/>
<text text-anchor="middle" x="428.5" y="-7.5" font-family="Helvetica,sans-Serif" font-size="10.00">thread</text>
</g>
<!-- Node3&#45;&gt;Node8 -->
<g id="edge7" class="edge"><title>Node3&#45;&gt;Node8</title>
<path fill="none" stroke="midnightblue" d="M305.634,-56.4435C329.982,-47.4381 368.507,-33.1891 395.923,-23.049"/>
<polygon fill="midnightblue" stroke="midnightblue" points="397.309,-26.2681 405.474,-19.5164 394.881,-19.7028 397.309,-26.2681"/>
</g>
<!-- Node11&#45;&gt;Node9 -->
<g id="edge13" class="edge"><title>Node11&#45;&gt;Node9</title>
<path fill="none" stroke="midnightblue" d="M326.668,-224.477C318.312,-215.958 305.968,-202.128 298.5,-188 290.774,-173.383 285.802,-155.211 282.891,-141.801"/>
<polygon fill="midnightblue" stroke="midnightblue" points="286.294,-140.966 280.915,-131.838 279.427,-142.328 286.294,-140.966"/>
</g>
<!-- Node11&#45;&gt;Node10 -->
<g id="edge14" class="edge"><title>Node11&#45;&gt;Node10</title>
<path fill="none" stroke="midnightblue" d="M317.505,-224.324C299.462,-215.625 271.453,-202.12 250.697,-192.113"/>
<polygon fill="midnightblue" stroke="midnightblue" points="251.978,-188.845 241.45,-187.655 248.938,-195.15 251.978,-188.845"/>
</g>
<!-- Node12 -->
<g id="node12" class="node"><title>Node12</title>
<polygon fill="white" stroke="#bfbfbf" points="308,-168.5 308,-187.5 365,-187.5 365,-168.5 308,-168.5"/>
<text text-anchor="middle" x="336.5" y="-175.5" font-family="Helvetica,sans-Serif" font-size="10.00">memory</text>
</g>
<!-- Node11&#45;&gt;Node12 -->
<g id="edge11" class="edge"><title>Node11&#45;&gt;Node12</title>
<path fill="none" stroke="midnightblue" d="M335.665,-224.083C335.796,-217.006 335.984,-206.861 336.148,-197.986"/>
<polygon fill="midnightblue" stroke="midnightblue" points="339.652,-197.814 336.338,-187.751 332.653,-197.685 339.652,-197.814"/>
</g>
<!-- Node13 -->
<g id="node13" class="node"><title>Node13</title>
<polygon fill="white" stroke="#bfbfbf" points="383,-168.5 383,-187.5 430,-187.5 430,-168.5 383,-168.5"/>
<text text-anchor="middle" x="406.5" y="-175.5" font-family="Helvetica,sans-Serif" font-size="10.00">vector</text>
</g>
<!-- Node11&#45;&gt;Node13 -->
<g id="edge12" class="edge"><title>Node11&#45;&gt;Node13</title>
<path fill="none" stroke="midnightblue" d="M346.907,-224.324C357.609,-216.185 373.841,-203.839 386.663,-194.087"/>
<polygon fill="midnightblue" stroke="midnightblue" points="389.044,-196.673 394.885,-187.834 384.807,-191.102 389.044,-196.673"/>
</g>
<!-- Node14 -->
<g id="node14" class="node"><title>Node14</title>
<g id="a_node14"><a xlink:href="PluginContext_8hpp.html" target="_top" xlink:title="PluginBase/PluginContext.hpp">
<polygon fill="white" stroke="black" points="448,-168.5 448,-187.5 607,-187.5 607,-168.5 448,-168.5"/>
<text text-anchor="middle" x="527.5" y="-175.5" font-family="Helvetica,sans-Serif" font-size="10.00">PluginBase/PluginContext.hpp</text>
</a>
</g>
</g>
<!-- Node11&#45;&gt;Node14 -->
<g id="edge15" class="edge"><title>Node11&#45;&gt;Node14</title>
<path fill="none" stroke="midnightblue" d="M365.923,-224.444C398.785,-215.201 451.285,-200.436 487.474,-190.257"/>
<polygon fill="midnightblue" stroke="midnightblue" points="488.54,-193.593 497.219,-187.516 486.645,-186.855 488.54,-193.593"/>
</g>
<!-- Node14&#45;&gt;Node9 -->
<g id="edge18" class="edge"><title>Node14&#45;&gt;Node9</title>
<path fill="none" stroke="midnightblue" d="M488.204,-168.444C441.222,-158.214 363.166,-141.217 316.995,-131.164"/>
<polygon fill="midnightblue" stroke="midnightblue" points="317.61,-127.716 307.094,-129.008 316.121,-134.556 317.61,-127.716"/>
</g>
<!-- Node15 -->
<g id="node15" class="node"><title>Node15</title>
<g id="a_node15"><a xlink:href="RaPluginBase_8hpp.html" target="_top" xlink:title="PluginBase/RaPluginBase.hpp">
<polygon fill="white" stroke="black" points="386.5,-112.5 386.5,-131.5 544.5,-131.5 544.5,-112.5 386.5,-112.5"/>
<text text-anchor="middle" x="465.5" y="-119.5" font-family="Helvetica,sans-Serif" font-size="10.00">PluginBase/RaPluginBase.hpp</text>
</a>
</g>
</g>
<!-- Node14&#45;&gt;Node15 -->
<g id="edge16" class="edge"><title>Node14&#45;&gt;Node15</title>
<path fill="none" stroke="midnightblue" d="M517.539,-168.324C508.373,-160.341 494.563,-148.313 483.472,-138.653"/>
<polygon fill="midnightblue" stroke="midnightblue" points="485.482,-135.762 475.643,-131.834 480.885,-141.041 485.482,-135.762"/>
</g>
<!-- Node15&#45;&gt;Node3 -->
<g id="edge17" class="edge"><title>Node15&#45;&gt;Node3</title>
<path fill="none" stroke="midnightblue" d="M436.503,-112.444C405.315,-103.241 355.57,-88.5617 321.092,-78.3879"/>
<polygon fill="midnightblue" stroke="midnightblue" points="321.943,-74.9898 311.361,-75.5164 319.962,-81.7036 321.943,-74.9898"/>
</g>
</g>
</svg>
