<?xml version="1.0" encoding="UTF-8" standalone="no"?>
<!DOCTYPE svg PUBLIC "-//W3C//DTD SVG 1.1//EN"
 "http://www.w3.org/Graphics/SVG/1.1/DTD/svg11.dtd">
<!-- Generated by graphviz version 2.38.0 (20140413.2041)
 -->
<!-- Title: /home/travis/build/STORM&#45;IRIT/Radium&#45;Engine/src/Engine/Entity/Entity.hpp Pages: 1 -->
<svg width="680pt" height="330pt"
 viewBox="0.00 0.00 680.00 330.00" xmlns="http://www.w3.org/2000/svg" xmlns:xlink="http://www.w3.org/1999/xlink">
<g id="graph0" class="graph" transform="scale(1 1) rotate(0) translate(4 326)">
<title>/home/travis/build/STORM&#45;IRIT/Radium&#45;Engine/src/Engine/Entity/Entity.hpp</title>
<polygon fill="white" stroke="none" points="-4,4 -4,-326 676,-326 676,4 -4,4"/>
<!-- Node1 -->
<g id="node1" class="node"><title>Node1</title>
<polygon fill="#bfbfbf" stroke="black" points="223,-280.5 223,-321.5 372,-321.5 372,-280.5 223,-280.5"/>
<text text-anchor="start" x="231" y="-309.5" font-family="Helvetica,sans-Serif" font-size="10.00">/home/travis/build</text>
<text text-anchor="start" x="231" y="-298.5" font-family="Helvetica,sans-Serif" font-size="10.00">/STORM&#45;IRIT/Radium&#45;Engine</text>
<text text-anchor="middle" x="297.5" y="-287.5" font-family="Helvetica,sans-Serif" font-size="10.00">/src/Engine/Entity/Entity.hpp</text>
</g>
<!-- Node2 -->
<g id="node2" class="node"><title>Node2</title>
<g id="a_node2"><a xlink:href="RaEngine_8hpp.html" target="_top" xlink:title="Engine/RaEngine.hpp">
<polygon fill="white" stroke="black" points="0,-112.5 0,-131.5 117,-131.5 117,-112.5 0,-112.5"/>
<text text-anchor="middle" x="58.5" y="-119.5" font-family="Helvetica,sans-Serif" font-size="10.00">Engine/RaEngine.hpp</text>
</a>
</g>
</g>
<!-- Node1&#45;&gt;Node2 -->
<g id="edge1" class="edge"><title>Node1&#45;&gt;Node2</title>
<path fill="none" stroke="midnightblue" d="M222.82,-294.731C152.174,-288.008 53.4815,-273.511 29.5,-244 8.19773,-217.786 19.9633,-200.404 29.5,-168 32.5124,-157.765 38.6546,-147.66 44.5139,-139.627"/>
<polygon fill="midnightblue" stroke="midnightblue" points="47.4316,-141.577 50.8271,-131.541 41.9142,-137.269 47.4316,-141.577"/>
</g>
<!-- Node8 -->
<g id="node8" class="node"><title>Node8</title>
<polygon fill="white" stroke="#bfbfbf" points="437.5,-0.5 437.5,-19.5 485.5,-19.5 485.5,-0.5 437.5,-0.5"/>
<text text-anchor="middle" x="461.5" y="-7.5" font-family="Helvetica,sans-Serif" font-size="10.00">thread</text>
</g>
<!-- Node1&#45;&gt;Node8 -->
<g id="edge10" class="edge"><title>Node1&#45;&gt;Node8</title>
<path fill="none" stroke="midnightblue" d="M372.064,-296.973C415.321,-291.397 467.917,-277.499 502.5,-244 524.21,-222.97 522.5,-209.225 522.5,-179 522.5,-179 522.5,-179 522.5,-121 522.5,-83.5742 495.16,-46.9577 477.087,-26.8412"/>
<polygon fill="midnightblue" stroke="midnightblue" points="479.622,-24.4285 470.24,-19.5071 474.505,-29.2053 479.622,-24.4285"/>
</g>
<!-- Node9 -->
<g id="node9" class="node"><title>Node9</title>
<polygon fill="white" stroke="#bfbfbf" points="146,-224.5 146,-243.5 193,-243.5 193,-224.5 146,-224.5"/>
<text text-anchor="middle" x="169.5" y="-231.5" font-family="Helvetica,sans-Serif" font-size="10.00">mutex</text>
</g>
<!-- Node1&#45;&gt;Node9 -->
<g id="edge8" class="edge"><title>Node1&#45;&gt;Node9</title>
<path fill="none" stroke="midnightblue" d="M259.096,-280.498C238.622,-270.101 213.964,-257.579 195.703,-248.306"/>
<polygon fill="midnightblue" stroke="midnightblue" points="197.04,-245.06 186.539,-243.652 193.87,-251.301 197.04,-245.06"/>
</g>
<!-- Node10 -->
<g id="node10" class="node"><title>Node10</title>
<polygon fill="white" stroke="#bfbfbf" points="211.5,-224.5 211.5,-243.5 255.5,-243.5 255.5,-224.5 211.5,-224.5"/>
<text text-anchor="middle" x="233.5" y="-231.5" font-family="Helvetica,sans-Serif" font-size="10.00">string</text>
</g>
<!-- Node1&#45;&gt;Node10 -->
<g id="edge9" class="edge"><title>Node1&#45;&gt;Node10</title>
<path fill="none" stroke="midnightblue" d="M278.298,-280.498C268.957,-271.011 257.875,-259.756 249.07,-250.813"/>
<polygon fill="midnightblue" stroke="midnightblue" points="251.529,-248.323 242.019,-243.652 246.541,-253.234 251.529,-248.323"/>
</g>
<!-- Node11 -->
<g id="node11" class="node"><title>Node11</title>
<polygon fill="white" stroke="#bfbfbf" points="274,-224.5 274,-243.5 321,-243.5 321,-224.5 274,-224.5"/>
<text text-anchor="middle" x="297.5" y="-231.5" font-family="Helvetica,sans-Serif" font-size="10.00">vector</text>
</g>
<!-- Node1&#45;&gt;Node11 -->
<g id="edge11" class="edge"><title>Node1&#45;&gt;Node11</title>
<path fill="none" stroke="midnightblue" d="M297.5,-280.498C297.5,-272.065 297.5,-262.235 297.5,-253.874"/>
<polygon fill="midnightblue" stroke="midnightblue" points="301,-253.652 297.5,-243.652 294,-253.653 301,-253.652"/>
</g>
<!-- Node12 -->
<g id="node12" class="node"><title>Node12</title>
<g id="a_node12"><a xlink:href="Types_8hpp.html" target="_top" xlink:title="Core/Types.hpp">
<polygon fill="white" stroke="black" points="39,-224.5 39,-243.5 128,-243.5 128,-224.5 39,-224.5"/>
<text text-anchor="middle" x="83.5" y="-231.5" font-family="Helvetica,sans-Serif" font-size="10.00">Core/Types.hpp</text>
</a>
</g>
</g>
<!-- Node1&#45;&gt;Node12 -->
<g id="edge12" class="edge"><title>Node1&#45;&gt;Node12</title>
<path fill="none" stroke="midnightblue" d="M233.293,-280.498C196.902,-269.444 152.604,-255.99 121.658,-246.59"/>
<polygon fill="midnightblue" stroke="midnightblue" points="122.291,-243.124 111.705,-243.567 120.257,-249.822 122.291,-243.124"/>
</g>
<!-- Node17 -->
<g id="node17" class="node"><title>Node17</title>
<g id="a_node17"><a xlink:href="IndexedObject_8hpp.html" target="_top" xlink:title="Core/Utils/IndexedObject.hpp">
<polygon fill="white" stroke="black" points="339,-224.5 339,-243.5 494,-243.5 494,-224.5 339,-224.5"/>
<text text-anchor="middle" x="416.5" y="-231.5" font-family="Helvetica,sans-Serif" font-size="10.00">Core/Utils/IndexedObject.hpp</text>
</a>
</g>
</g>
<!-- Node1&#45;&gt;Node17 -->
<g id="edge18" class="edge"><title>Node1&#45;&gt;Node17</title>
<path fill="none" stroke="midnightblue" d="M333.204,-280.498C351.975,-270.245 374.53,-257.925 391.432,-248.693"/>
<polygon fill="midnightblue" stroke="midnightblue" points="393.561,-251.518 400.659,-243.652 390.205,-245.375 393.561,-251.518"/>
</g>
<!-- Node21 -->
<g id="node21" class="node"><title>Node21</title>
<g id="a_node21"><a xlink:href="Entity_8inl.html" target="_top" xlink:title="Engine/Entity/Entity.inl">
<polygon fill="white" stroke="black" points="551,-224.5 551,-243.5 672,-243.5 672,-224.5 551,-224.5"/>
<text text-anchor="middle" x="611.5" y="-231.5" font-family="Helvetica,sans-Serif" font-size="10.00">Engine/Entity/Entity.inl</text>
</a>
</g>
</g>
<!-- Node1&#45;&gt;Node21 -->
<g id="edge24" class="edge"><title>Node1&#45;&gt;Node21</title>
<path fill="none" stroke="midnightblue" d="M372.375,-283.261C428.704,-271.342 504.6,-255.69 555.692,-245.492"/>
<polygon fill="midnightblue" stroke="midnightblue" points="556.441,-248.912 565.566,-243.528 555.075,-242.046 556.441,-248.912"/>
</g>
<!-- Node3 -->
<g id="node3" class="node"><title>Node3</title>
<g id="a_node3"><a xlink:href="CoreMacros_8hpp.html" target="_top" xlink:title="Core/CoreMacros.hpp">
<polygon fill="white" stroke="black" points="201.5,-56.5 201.5,-75.5 321.5,-75.5 321.5,-56.5 201.5,-56.5"/>
<text text-anchor="middle" x="261.5" y="-63.5" font-family="Helvetica,sans-Serif" font-size="10.00">Core/CoreMacros.hpp</text>
</a>
</g>
</g>
<!-- Node2&#45;&gt;Node3 -->
<g id="edge2" class="edge"><title>Node2&#45;&gt;Node3</title>
<path fill="none" stroke="midnightblue" d="M90.666,-112.444C125.559,-103.162 181.393,-88.3093 219.671,-78.127"/>
<polygon fill="midnightblue" stroke="midnightblue" points="220.72,-81.4696 229.485,-75.5164 218.921,-74.7048 220.72,-81.4696"/>
</g>
<!-- Node4 -->
<g id="node4" class="node"><title>Node4</title>
<polygon fill="white" stroke="#bfbfbf" points="345.5,-0.5 345.5,-19.5 397.5,-19.5 397.5,-0.5 345.5,-0.5"/>
<text text-anchor="middle" x="371.5" y="-7.5" font-family="Helvetica,sans-Serif" font-size="10.00">cassert</text>
</g>
<!-- Node3&#45;&gt;Node4 -->
<g id="edge3" class="edge"><title>Node3&#45;&gt;Node4</title>
<path fill="none" stroke="midnightblue" d="M279.173,-56.324C296.894,-47.6247 324.403,-34.1202 344.788,-24.113"/>
<polygon fill="midnightblue" stroke="midnightblue" points="346.436,-27.2031 353.87,-19.6545 343.351,-20.9195 346.436,-27.2031"/>
</g>
<!-- Node5 -->
<g id="node5" class="node"><title>Node5</title>
<polygon fill="white" stroke="#bfbfbf" points="131,-0.5 131,-19.5 176,-19.5 176,-0.5 131,-0.5"/>
<text text-anchor="middle" x="153.5" y="-7.5" font-family="Helvetica,sans-Serif" font-size="10.00">cstdio</text>
</g>
<!-- Node3&#45;&gt;Node5 -->
<g id="edge4" class="edge"><title>Node3&#45;&gt;Node5</title>
<path fill="none" stroke="midnightblue" d="M244.148,-56.324C226.828,-47.6641 199.985,-34.2424 179.998,-24.249"/>
<polygon fill="midnightblue" stroke="midnightblue" points="181.319,-20.9962 170.809,-19.6545 178.188,-27.2572 181.319,-20.9962"/>
</g>
<!-- Node6 -->
<g id="node6" class="node"><title>Node6</title>
<polygon fill="white" stroke="#bfbfbf" points="194,-0.5 194,-19.5 253,-19.5 253,-0.5 194,-0.5"/>
<text text-anchor="middle" x="223.5" y="-7.5" font-family="Helvetica,sans-Serif" font-size="10.00">iostream</text>
</g>
<!-- Node3&#45;&gt;Node6 -->
<g id="edge5" class="edge"><title>Node3&#45;&gt;Node6</title>
<path fill="none" stroke="midnightblue" d="M255.225,-56.083C249.858,-48.4554 241.982,-37.2645 235.421,-27.9408"/>
<polygon fill="midnightblue" stroke="midnightblue" points="238.275,-25.9149 229.658,-19.7511 232.551,-29.9434 238.275,-25.9149"/>
</g>
<!-- Node7 -->
<g id="node7" class="node"><title>Node7</title>
<polygon fill="white" stroke="#bfbfbf" points="271.5,-0.5 271.5,-19.5 327.5,-19.5 327.5,-0.5 271.5,-0.5"/>
<text text-anchor="middle" x="299.5" y="-7.5" font-family="Helvetica,sans-Serif" font-size="10.00">sstream</text>
</g>
<!-- Node3&#45;&gt;Node7 -->
<g id="edge6" class="edge"><title>Node3&#45;&gt;Node7</title>
<path fill="none" stroke="midnightblue" d="M267.775,-56.083C273.142,-48.4554 281.018,-37.2645 287.579,-27.9408"/>
<polygon fill="midnightblue" stroke="midnightblue" points="290.449,-29.9434 293.342,-19.7511 284.725,-25.9149 290.449,-29.9434"/>
</g>
<!-- Node3&#45;&gt;Node8 -->
<g id="edge7" class="edge"><title>Node3&#45;&gt;Node8</title>
<path fill="none" stroke="midnightblue" d="M293.191,-56.4435C329.838,-46.5487 389.932,-30.3235 427.523,-20.1739"/>
<polygon fill="midnightblue" stroke="midnightblue" points="428.748,-23.4684 437.49,-17.4826 426.924,-16.7104 428.748,-23.4684"/>
</g>
<!-- Node13 -->
<g id="node13" class="node"><title>Node13</title>
<g id="a_node13"><a xlink:href="RaCore_8hpp.html" target="_top" xlink:title="Core/RaCore.hpp">
<polygon fill="white" stroke="black" points="212.5,-112.5 212.5,-131.5 310.5,-131.5 310.5,-112.5 212.5,-112.5"/>
<text text-anchor="middle" x="261.5" y="-119.5" font-family="Helvetica,sans-Serif" font-size="10.00">Core/RaCore.hpp</text>
</a>
</g>
</g>
<!-- Node12&#45;&gt;Node13 -->
<g id="edge13" class="edge"><title>Node12&#45;&gt;Node13</title>
<path fill="none" stroke="midnightblue" d="M69.5754,-224.305C50.8793,-211.565 21.7318,-187.251 37.5,-168 57.993,-142.981 143.265,-131.577 202.475,-126.594"/>
<polygon fill="midnightblue" stroke="midnightblue" points="202.784,-130.08 212.472,-125.792 202.224,-123.103 202.784,-130.08"/>
</g>
<!-- Node14 -->
<g id="node14" class="node"><title>Node14</title>
<polygon fill="white" stroke="#bfbfbf" points="46.5,-168.5 46.5,-187.5 114.5,-187.5 114.5,-168.5 46.5,-168.5"/>
<text text-anchor="middle" x="80.5" y="-175.5" font-family="Helvetica,sans-Serif" font-size="10.00">Eigen/Core</text>
</g>
<!-- Node12&#45;&gt;Node14 -->
<g id="edge15" class="edge"><title>Node12&#45;&gt;Node14</title>
<path fill="none" stroke="midnightblue" d="M83.0046,-224.083C82.6114,-217.006 82.0478,-206.861 81.5548,-197.986"/>
<polygon fill="midnightblue" stroke="midnightblue" points="85.0356,-197.542 80.9862,-187.751 78.0464,-197.93 85.0356,-197.542"/>
</g>
<!-- Node15 -->
<g id="node15" class="node"><title>Node15</title>
<polygon fill="white" stroke="#bfbfbf" points="132.5,-168.5 132.5,-187.5 226.5,-187.5 226.5,-168.5 132.5,-168.5"/>
<text text-anchor="middle" x="179.5" y="-175.5" font-family="Helvetica,sans-Serif" font-size="10.00">Eigen/Geometry</text>
</g>
<!-- Node12&#45;&gt;Node15 -->
<g id="edge16" class="edge"><title>Node12&#45;&gt;Node15</title>
<path fill="none" stroke="midnightblue" d="M98.9241,-224.324C114.04,-215.822 137.315,-202.729 154.971,-192.797"/>
<polygon fill="midnightblue" stroke="midnightblue" points="157.114,-195.608 164.114,-187.655 153.683,-189.507 157.114,-195.608"/>
</g>
<!-- Node16 -->
<g id="node16" class="node"><title>Node16</title>
<polygon fill="white" stroke="#bfbfbf" points="244.5,-168.5 244.5,-187.5 324.5,-187.5 324.5,-168.5 244.5,-168.5"/>
<text text-anchor="middle" x="284.5" y="-175.5" font-family="Helvetica,sans-Serif" font-size="10.00">Eigen/Sparse</text>
</g>
<!-- Node12&#45;&gt;Node16 -->
<g id="edge17" class="edge"><title>Node12&#45;&gt;Node16</title>
<path fill="none" stroke="midnightblue" d="M115.349,-224.444C149.898,-215.162 205.182,-200.309 243.083,-190.127"/>
<polygon fill="midnightblue" stroke="midnightblue" points="244.051,-193.491 252.8,-187.516 242.234,-186.731 244.051,-193.491"/>
</g>
<!-- Node13&#45;&gt;Node3 -->
<g id="edge14" class="edge"><title>Node13&#45;&gt;Node3</title>
<path fill="none" stroke="midnightblue" d="M261.5,-112.083C261.5,-105.006 261.5,-94.8611 261.5,-85.9865"/>
<polygon fill="midnightblue" stroke="midnightblue" points="265,-85.751 261.5,-75.7511 258,-85.7511 265,-85.751"/>
</g>
<!-- Node17&#45;&gt;Node13 -->
<g id="edge19" class="edge"><title>Node17&#45;&gt;Node13</title>
<path fill="none" stroke="midnightblue" d="M406.287,-224.429C390.885,-211.636 360.625,-187.018 333.5,-168 317.659,-156.893 299.135,-145.347 284.844,-136.731"/>
<polygon fill="midnightblue" stroke="midnightblue" points="286.514,-133.651 276.134,-131.526 282.923,-139.66 286.514,-133.651"/>
</g>
<!-- Node18 -->
<g id="node18" class="node"><title>Node18</title>
<g id="a_node18"><a xlink:href="Index_8hpp.html" target="_top" xlink:title="Core/Utils/Index.hpp">
<polygon fill="white" stroke="black" points="381,-168.5 381,-187.5 494,-187.5 494,-168.5 381,-168.5"/>
<text text-anchor="middle" x="437.5" y="-175.5" font-family="Helvetica,sans-Serif" font-size="10.00">Core/Utils/Index.hpp</text>
</a>
</g>
</g>
<!-- Node17&#45;&gt;Node18 -->
<g id="edge20" class="edge"><title>Node17&#45;&gt;Node18</title>
<path fill="none" stroke="midnightblue" d="M419.968,-224.083C422.812,-216.77 426.929,-206.181 430.46,-197.103"/>
<polygon fill="midnightblue" stroke="midnightblue" points="433.734,-198.34 434.097,-187.751 427.21,-195.803 433.734,-198.34"/>
</g>
<!-- Node18&#45;&gt;Node13 -->
<g id="edge21" class="edge"><title>Node18&#45;&gt;Node13</title>
<path fill="none" stroke="midnightblue" d="M409.612,-168.444C379.746,-159.28 332.185,-144.688 299.044,-134.519"/>
<polygon fill="midnightblue" stroke="midnightblue" points="299.844,-131.104 289.257,-131.516 297.791,-137.796 299.844,-131.104"/>
</g>
<!-- Node19 -->
<g id="node19" class="node"><title>Node19</title>
<polygon fill="white" stroke="#bfbfbf" points="452.5,-112.5 452.5,-131.5 494.5,-131.5 494.5,-112.5 452.5,-112.5"/>
<text text-anchor="middle" x="473.5" y="-119.5" font-family="Helvetica,sans-Serif" font-size="10.00">limits</text>
</g>
<!-- Node18&#45;&gt;Node19 -->
<g id="edge22" class="edge"><title>Node18&#45;&gt;Node19</title>
<path fill="none" stroke="midnightblue" d="M443.445,-168.083C448.477,-160.534 455.837,-149.495 462.013,-140.23"/>
<polygon fill="midnightblue" stroke="midnightblue" points="465.031,-142.013 467.666,-131.751 459.207,-138.13 465.031,-142.013"/>
</g>
<!-- Node20 -->
<g id="node20" class="node"><title>Node20</title>
<g id="a_node20"><a xlink:href="Index_8inl.html" target="_top" xlink:title="Core/Utils/Index.inl">
<polygon fill="white" stroke="black" points="329,-112.5 329,-131.5 434,-131.5 434,-112.5 329,-112.5"/>
<text text-anchor="middle" x="381.5" y="-119.5" font-family="Helvetica,sans-Serif" font-size="10.00">Core/Utils/Index.inl</text>
</a>
</g>
</g>
<!-- Node18&#45;&gt;Node20 -->
<g id="edge23" class="edge"><title>Node18&#45;&gt;Node20</title>
<path fill="none" stroke="midnightblue" d="M428.503,-168.324C420.306,-160.42 407.994,-148.548 398.028,-138.938"/>
<polygon fill="midnightblue" stroke="midnightblue" points="400.289,-136.256 390.661,-131.834 395.43,-141.295 400.289,-136.256"/>
</g>
<!-- Node21&#45;&gt;Node1 -->
<g id="edge25" class="edge"><title>Node21&#45;&gt;Node1</title>
<path fill="none" stroke="midnightblue" d="M574.908,-243.557C527.885,-253.744 445.027,-270.978 382.038,-283.729"/>
<polygon fill="midnightblue" stroke="midnightblue" points="381.217,-280.324 372.108,-285.735 382.603,-287.186 381.217,-280.324"/>
</g>
</g>
</svg>
