<?xml version="1.0" encoding="UTF-8" standalone="no"?>
<!DOCTYPE svg PUBLIC "-//W3C//DTD SVG 1.1//EN"
 "http://www.w3.org/Graphics/SVG/1.1/DTD/svg11.dtd">
<!-- Generated by graphviz version 2.38.0 (20140413.2041)
 -->
<!-- Title: /home/travis/build/STORM&#45;IRIT/Radium&#45;Engine/src/Engine/Entity/Entity.cpp Pages: 1 -->
<svg width="2143pt" height="408pt"
 viewBox="0.00 0.00 2143.00 408.00" xmlns="http://www.w3.org/2000/svg" xmlns:xlink="http://www.w3.org/1999/xlink">
<g id="graph0" class="graph" transform="scale(1 1) rotate(0) translate(4 404)">
<title>/home/travis/build/STORM&#45;IRIT/Radium&#45;Engine/src/Engine/Entity/Entity.cpp</title>
<polygon fill="white" stroke="none" points="-4,4 -4,-404 2139,-404 2139,4 -4,4"/>
<!-- Node1 -->
<g id="node1" class="node"><title>Node1</title>
<polygon fill="#bfbfbf" stroke="black" points="789.5,-358.5 789.5,-399.5 937.5,-399.5 937.5,-358.5 789.5,-358.5"/>
<text text-anchor="start" x="797.5" y="-387.5" font-family="Helvetica,sans-Serif" font-size="10.00">/home/travis/build</text>
<text text-anchor="start" x="797.5" y="-376.5" font-family="Helvetica,sans-Serif" font-size="10.00">/STORM&#45;IRIT/Radium&#45;Engine</text>
<text text-anchor="middle" x="863.5" y="-365.5" font-family="Helvetica,sans-Serif" font-size="10.00">/src/Engine/Entity/Entity.cpp</text>
</g>
<!-- Node2 -->
<g id="node2" class="node"><title>Node2</title>
<g id="a_node2"><a xlink:href="Entity_8hpp.html" target="_top" xlink:title="Engine/Entity/Entity.hpp">
<polygon fill="white" stroke="black" points="1018.5,-297 1018.5,-316 1146.5,-316 1146.5,-297 1018.5,-297"/>
<text text-anchor="middle" x="1082.5" y="-304" font-family="Helvetica,sans-Serif" font-size="10.00">Engine/Entity/Entity.hpp</text>
</a>
</g>
</g>
<!-- Node1&#45;&gt;Node2 -->
<g id="edge1" class="edge"><title>Node1&#45;&gt;Node2</title>
<path fill="none" stroke="midnightblue" d="M924.213,-358.455C963.447,-345.825 1013.18,-329.814 1046.33,-319.143"/>
<polygon fill="midnightblue" stroke="midnightblue" points="1047.61,-322.409 1056.06,-316.013 1045.46,-315.746 1047.61,-322.409"/>
</g>
<!-- Node23 -->
<g id="node23" class="node"><title>Node23</title>
<g id="a_node23"><a xlink:href="LinearAlgebra_8hpp.html" target="_top" xlink:title="Core/Math/LinearAlgebra.hpp">
<polygon fill="white" stroke="black" points="1379.5,-235.5 1379.5,-254.5 1535.5,-254.5 1535.5,-235.5 1379.5,-235.5"/>
<text text-anchor="middle" x="1457.5" y="-242.5" font-family="Helvetica,sans-Serif" font-size="10.00">Core/Math/LinearAlgebra.hpp</text>
</a>
</g>
</g>
<!-- Node1&#45;&gt;Node23 -->
<g id="edge27" class="edge"><title>Node1&#45;&gt;Node23</title>
<path fill="none" stroke="midnightblue" d="M937.544,-365.005C996.714,-354.331 1081.67,-338.356 1155.5,-322 1249.12,-301.261 1357.96,-272.782 1416.01,-257.24"/>
<polygon fill="midnightblue" stroke="midnightblue" points="1417.15,-260.558 1425.9,-254.585 1415.34,-253.797 1417.15,-260.558"/>
</g>
<!-- Node31 -->
<g id="node31" class="node"><title>Node31</title>
<g id="a_node31"><a xlink:href="Component_8hpp.html" target="_top" xlink:title="Engine/Component/Component.hpp">
<polygon fill="white" stroke="black" points="254.5,-235.5 254.5,-254.5 442.5,-254.5 442.5,-235.5 254.5,-235.5"/>
<text text-anchor="middle" x="348.5" y="-242.5" font-family="Helvetica,sans-Serif" font-size="10.00">Engine/Component/Component.hpp</text>
</a>
</g>
</g>
<!-- Node1&#45;&gt;Node31 -->
<g id="edge43" class="edge"><title>Node1&#45;&gt;Node31</title>
<path fill="none" stroke="midnightblue" d="M789.455,-364.927C734.273,-354.673 657.245,-339.278 590.5,-322 515.434,-302.568 429.144,-273.912 382.582,-257.915"/>
<polygon fill="midnightblue" stroke="midnightblue" points="383.59,-254.56 372.995,-254.606 381.306,-261.177 383.59,-254.56"/>
</g>
<!-- Node33 -->
<g id="node33" class="node"><title>Node33</title>
<g id="a_node33"><a xlink:href="SignalManager_8hpp.html" target="_top" xlink:title="Engine/Managers/SignalManager\l/SignalManager.hpp">
<polygon fill="white" stroke="black" points="600,-291.5 600,-321.5 773,-321.5 773,-291.5 600,-291.5"/>
<text text-anchor="start" x="608" y="-309.5" font-family="Helvetica,sans-Serif" font-size="10.00">Engine/Managers/SignalManager</text>
<text text-anchor="middle" x="686.5" y="-298.5" font-family="Helvetica,sans-Serif" font-size="10.00">/SignalManager.hpp</text>
</a>
</g>
</g>
<!-- Node1&#45;&gt;Node33 -->
<g id="edge52" class="edge"><title>Node1&#45;&gt;Node33</title>
<path fill="none" stroke="midnightblue" d="M814.196,-358.362C788.164,-347.993 756.462,-335.366 731.158,-325.288"/>
<polygon fill="midnightblue" stroke="midnightblue" points="732.384,-322.008 721.799,-321.56 729.794,-328.512 732.384,-322.008"/>
</g>
<!-- Node36 -->
<g id="node36" class="node"><title>Node36</title>
<g id="a_node36"><a xlink:href="RadiumEngine_8hpp.html" target="_top" xlink:title="Engine/RadiumEngine.hpp">
<polygon fill="white" stroke="black" points="793,-235.5 793,-254.5 934,-254.5 934,-235.5 793,-235.5"/>
<text text-anchor="middle" x="863.5" y="-242.5" font-family="Helvetica,sans-Serif" font-size="10.00">Engine/RadiumEngine.hpp</text>
</a>
</g>
</g>
<!-- Node1&#45;&gt;Node36 -->
<g id="edge63" class="edge"><title>Node1&#45;&gt;Node36</title>
<path fill="none" stroke="midnightblue" d="M863.5,-358.238C863.5,-333.03 863.5,-289.738 863.5,-264.934"/>
<polygon fill="midnightblue" stroke="midnightblue" points="867,-264.686 863.5,-254.686 860,-264.686 867,-264.686"/>
</g>
<!-- Node3 -->
<g id="node3" class="node"><title>Node3</title>
<g id="a_node3"><a xlink:href="RaEngine_8hpp.html" target="_top" xlink:title="Engine/RaEngine.hpp">
<polygon fill="white" stroke="black" points="0,-174 0,-193 117,-193 117,-174 0,-174"/>
<text text-anchor="middle" x="58.5" y="-181" font-family="Helvetica,sans-Serif" font-size="10.00">Engine/RaEngine.hpp</text>
</a>
</g>
</g>
<!-- Node2&#45;&gt;Node3 -->
<g id="edge2" class="edge"><title>Node2&#45;&gt;Node3</title>
<path fill="none" stroke="midnightblue" d="M1018.5,-302.164C829.242,-292.229 283.116,-263.033 245.5,-255 186.107,-242.316 120.507,-214.017 84.9564,-197.387"/>
<polygon fill="midnightblue" stroke="midnightblue" points="86.292,-194.147 75.7563,-193.028 83.2951,-200.473 86.292,-194.147"/>
</g>
<!-- Node9 -->
<g id="node9" class="node"><title>Node9</title>
<polygon fill="white" stroke="#bfbfbf" points="1602.5,-0.5 1602.5,-19.5 1650.5,-19.5 1650.5,-0.5 1602.5,-0.5"/>
<text text-anchor="middle" x="1626.5" y="-7.5" font-family="Helvetica,sans-Serif" font-size="10.00">thread</text>
</g>
<!-- Node2&#45;&gt;Node9 -->
<g id="edge11" class="edge"><title>Node2&#45;&gt;Node9</title>
<path fill="none" stroke="midnightblue" d="M1146.66,-302.176C1331.91,-291.731 1854.5,-255.936 1854.5,-184.5 1854.5,-184.5 1854.5,-184.5 1854.5,-121 1854.5,-36.0713 1724.59,-16.6816 1660.89,-12.279"/>
<polygon fill="midnightblue" stroke="midnightblue" points="1661.09,-8.78504 1650.9,-11.6743 1660.67,-15.7723 1661.09,-8.78504"/>
</g>
<!-- Node10 -->
<g id="node10" class="node"><title>Node10</title>
<polygon fill="white" stroke="#bfbfbf" points="689,-235.5 689,-254.5 736,-254.5 736,-235.5 689,-235.5"/>
<text text-anchor="middle" x="712.5" y="-242.5" font-family="Helvetica,sans-Serif" font-size="10.00">mutex</text>
</g>
<!-- Node2&#45;&gt;Node10 -->
<g id="edge9" class="edge"><title>Node2&#45;&gt;Node10</title>
<path fill="none" stroke="midnightblue" d="M1018.28,-297.313C951.205,-288.394 843.075,-272.972 750.5,-255 749.044,-254.717 747.56,-254.417 746.062,-254.105"/>
<polygon fill="midnightblue" stroke="midnightblue" points="746.672,-250.655 736.152,-251.917 745.162,-257.491 746.672,-250.655"/>
</g>
<!-- Node11 -->
<g id="node11" class="node"><title>Node11</title>
<polygon fill="white" stroke="#bfbfbf" points="846.5,-174 846.5,-193 890.5,-193 890.5,-174 846.5,-174"/>
<text text-anchor="middle" x="868.5" y="-181" font-family="Helvetica,sans-Serif" font-size="10.00">string</text>
</g>
<!-- Node2&#45;&gt;Node11 -->
<g id="edge10" class="edge"><title>Node2&#45;&gt;Node11</title>
<path fill="none" stroke="midnightblue" d="M1092.2,-296.871C1106.96,-282.705 1131.75,-254.179 1115.5,-235 1084.05,-197.87 945.97,-213.442 899.5,-199 897.628,-198.418 895.723,-197.745 893.825,-197.015"/>
<polygon fill="midnightblue" stroke="midnightblue" points="895.147,-193.773 884.578,-193.033 892.379,-200.203 895.147,-193.773"/>
</g>
<!-- Node12 -->
<g id="node12" class="node"><title>Node12</title>
<polygon fill="white" stroke="#bfbfbf" points="725,-174 725,-193 772,-193 772,-174 725,-174"/>
<text text-anchor="middle" x="748.5" y="-181" font-family="Helvetica,sans-Serif" font-size="10.00">vector</text>
</g>
<!-- Node2&#45;&gt;Node12 -->
<g id="edge12" class="edge"><title>Node2&#45;&gt;Node12</title>
<path fill="none" stroke="midnightblue" d="M1018.46,-301.448C941.973,-295.469 819.798,-281.95 783.5,-255 766.563,-242.425 757.325,-219.379 752.66,-203.064"/>
<polygon fill="midnightblue" stroke="midnightblue" points="755.973,-201.889 750.123,-193.055 749.188,-203.609 755.973,-201.889"/>
</g>
<!-- Node13 -->
<g id="node13" class="node"><title>Node13</title>
<g id="a_node13"><a xlink:href="Types_8hpp.html" target="_top" xlink:title="Core/Types.hpp">
<polygon fill="white" stroke="black" points="1135,-174 1135,-193 1224,-193 1224,-174 1135,-174"/>
<text text-anchor="middle" x="1179.5" y="-181" font-family="Helvetica,sans-Serif" font-size="10.00">Core/Types.hpp</text>
</a>
</g>
</g>
<!-- Node2&#45;&gt;Node13 -->
<g id="edge13" class="edge"><title>Node2&#45;&gt;Node13</title>
<path fill="none" stroke="midnightblue" d="M1146.69,-301.497C1212.56,-295.891 1308.57,-283.045 1331.5,-255 1337.13,-248.118 1336.7,-242.208 1331.5,-235 1319.63,-218.543 1271.88,-204.436 1233.03,-195.349"/>
<polygon fill="midnightblue" stroke="midnightblue" points="1233.39,-191.841 1222.86,-193.035 1231.83,-198.666 1233.39,-191.841"/>
</g>
<!-- Node18 -->
<g id="node18" class="node"><title>Node18</title>
<g id="a_node18"><a xlink:href="IndexedObject_8hpp.html" target="_top" xlink:title="Core/Utils/IndexedObject.hpp">
<polygon fill="white" stroke="black" points="952,-235.5 952,-254.5 1107,-254.5 1107,-235.5 952,-235.5"/>
<text text-anchor="middle" x="1029.5" y="-242.5" font-family="Helvetica,sans-Serif" font-size="10.00">Core/Utils/IndexedObject.hpp</text>
</a>
</g>
</g>
<!-- Node2&#45;&gt;Node18 -->
<g id="edge19" class="edge"><title>Node2&#45;&gt;Node18</title>
<path fill="none" stroke="midnightblue" d="M1074.91,-296.975C1066.8,-287.873 1053.77,-273.241 1043.74,-261.983"/>
<polygon fill="midnightblue" stroke="midnightblue" points="1046.34,-259.648 1037.08,-254.509 1041.12,-264.304 1046.34,-259.648"/>
</g>
<!-- Node22 -->
<g id="node22" class="node"><title>Node22</title>
<g id="a_node22"><a xlink:href="Entity_8inl.html" target="_top" xlink:title="Engine/Entity/Entity.inl">
<polygon fill="white" stroke="black" points="1202,-235.5 1202,-254.5 1323,-254.5 1323,-235.5 1202,-235.5"/>
<text text-anchor="middle" x="1262.5" y="-242.5" font-family="Helvetica,sans-Serif" font-size="10.00">Engine/Entity/Entity.inl</text>
</a>
</g>
</g>
<!-- Node2&#45;&gt;Node22 -->
<g id="edge25" class="edge"><title>Node2&#45;&gt;Node22</title>
<path fill="none" stroke="midnightblue" d="M1103.39,-296.975C1132.41,-286.636 1185.08,-269.161 1221.92,-257.602"/>
<polygon fill="midnightblue" stroke="midnightblue" points="1223.35,-260.822 1231.86,-254.509 1221.27,-254.139 1223.35,-260.822"/>
</g>
<!-- Node4 -->
<g id="node4" class="node"><title>Node4</title>
<g id="a_node4"><a xlink:href="CoreMacros_8hpp.html" target="_top" xlink:title="Core/CoreMacros.hpp">
<polygon fill="white" stroke="black" points="1206.5,-56.5 1206.5,-75.5 1326.5,-75.5 1326.5,-56.5 1206.5,-56.5"/>
<text text-anchor="middle" x="1266.5" y="-63.5" font-family="Helvetica,sans-Serif" font-size="10.00">Core/CoreMacros.hpp</text>
</a>
</g>
</g>
<!-- Node3&#45;&gt;Node4 -->
<g id="edge3" class="edge"><title>Node3&#45;&gt;Node4</title>
<path fill="none" stroke="midnightblue" d="M90.3553,-173.991C149.297,-158.643 279.575,-126.569 391.5,-112 688.683,-73.3164 1046.7,-67.5219 1195.89,-66.9052"/>
<polygon fill="midnightblue" stroke="midnightblue" points="1196.28,-70.404 1206.27,-66.8694 1196.26,-63.404 1196.28,-70.404"/>
</g>
<!-- Node5 -->
<g id="node5" class="node"><title>Node5</title>
<polygon fill="white" stroke="#bfbfbf" points="1276.5,-0.5 1276.5,-19.5 1328.5,-19.5 1328.5,-0.5 1276.5,-0.5"/>
<text text-anchor="middle" x="1302.5" y="-7.5" font-family="Helvetica,sans-Serif" font-size="10.00">cassert</text>
</g>
<!-- Node4&#45;&gt;Node5 -->
<g id="edge4" class="edge"><title>Node4&#45;&gt;Node5</title>
<path fill="none" stroke="midnightblue" d="M1272.44,-56.083C1277.48,-48.5341 1284.84,-37.4948 1291.01,-28.2298"/>
<polygon fill="midnightblue" stroke="midnightblue" points="1294.03,-30.0131 1296.67,-19.7511 1288.21,-26.1301 1294.03,-30.0131"/>
</g>
<!-- Node6 -->
<g id="node6" class="node"><title>Node6</title>
<polygon fill="white" stroke="#bfbfbf" points="1347,-0.5 1347,-19.5 1392,-19.5 1392,-0.5 1347,-0.5"/>
<text text-anchor="middle" x="1369.5" y="-7.5" font-family="Helvetica,sans-Serif" font-size="10.00">cstdio</text>
</g>
<!-- Node4&#45;&gt;Node6 -->
<g id="edge5" class="edge"><title>Node4&#45;&gt;Node6</title>
<path fill="none" stroke="midnightblue" d="M1283.05,-56.324C1299.49,-47.7034 1324.93,-34.3643 1343.97,-24.3855"/>
<polygon fill="midnightblue" stroke="midnightblue" points="1345.76,-27.3977 1352.99,-19.6545 1342.51,-21.198 1345.76,-27.3977"/>
</g>
<!-- Node7 -->
<g id="node7" class="node"><title>Node7</title>
<polygon fill="white" stroke="#bfbfbf" points="1125,-0.5 1125,-19.5 1184,-19.5 1184,-0.5 1125,-0.5"/>
<text text-anchor="middle" x="1154.5" y="-7.5" font-family="Helvetica,sans-Serif" font-size="10.00">iostream</text>
</g>
<!-- Node4&#45;&gt;Node7 -->
<g id="edge6" class="edge"><title>Node4&#45;&gt;Node7</title>
<path fill="none" stroke="midnightblue" d="M1248.51,-56.324C1230.46,-47.6247 1202.45,-34.1202 1181.7,-24.113"/>
<polygon fill="midnightblue" stroke="midnightblue" points="1182.98,-20.8449 1172.45,-19.6545 1179.94,-27.1502 1182.98,-20.8449"/>
</g>
<!-- Node8 -->
<g id="node8" class="node"><title>Node8</title>
<polygon fill="white" stroke="#bfbfbf" points="1202.5,-0.5 1202.5,-19.5 1258.5,-19.5 1258.5,-0.5 1202.5,-0.5"/>
<text text-anchor="middle" x="1230.5" y="-7.5" font-family="Helvetica,sans-Serif" font-size="10.00">sstream</text>
</g>
<!-- Node4&#45;&gt;Node8 -->
<g id="edge7" class="edge"><title>Node4&#45;&gt;Node8</title>
<path fill="none" stroke="midnightblue" d="M1260.56,-56.083C1255.52,-48.5341 1248.16,-37.4948 1241.99,-28.2298"/>
<polygon fill="midnightblue" stroke="midnightblue" points="1244.79,-26.1301 1236.33,-19.7511 1238.97,-30.0131 1244.79,-26.1301"/>
</g>
<!-- Node4&#45;&gt;Node9 -->
<g id="edge8" class="edge"><title>Node4&#45;&gt;Node9</title>
<path fill="none" stroke="midnightblue" d="M1323.54,-56.4435C1399.26,-45.0859 1530.58,-25.3878 1592.43,-16.111"/>
<polygon fill="midnightblue" stroke="midnightblue" points="1593.07,-19.554 1602.44,-14.6092 1592.03,-12.6314 1593.07,-19.554"/>
</g>
<!-- Node14 -->
<g id="node14" class="node"><title>Node14</title>
<g id="a_node14"><a xlink:href="RaCore_8hpp.html" target="_top" xlink:title="Core/RaCore.hpp">
<polygon fill="white" stroke="black" points="1217.5,-112.5 1217.5,-131.5 1315.5,-131.5 1315.5,-112.5 1217.5,-112.5"/>
<text text-anchor="middle" x="1266.5" y="-119.5" font-family="Helvetica,sans-Serif" font-size="10.00">Core/RaCore.hpp</text>
</a>
</g>
</g>
<!-- Node13&#45;&gt;Node14 -->
<g id="edge14" class="edge"><title>Node13&#45;&gt;Node14</title>
<path fill="none" stroke="midnightblue" d="M1191.96,-173.975C1205.92,-164.431 1228.76,-148.807 1245.49,-137.368"/>
<polygon fill="midnightblue" stroke="midnightblue" points="1247.78,-140.043 1254.06,-131.509 1243.83,-134.265 1247.78,-140.043"/>
</g>
<!-- Node15 -->
<g id="node15" class="node"><title>Node15</title>
<polygon fill="white" stroke="#bfbfbf" points="1131.5,-112.5 1131.5,-131.5 1199.5,-131.5 1199.5,-112.5 1131.5,-112.5"/>
<text text-anchor="middle" x="1165.5" y="-119.5" font-family="Helvetica,sans-Serif" font-size="10.00">Eigen/Core</text>
</g>
<!-- Node13&#45;&gt;Node15 -->
<g id="edge16" class="edge"><title>Node13&#45;&gt;Node15</title>
<path fill="none" stroke="midnightblue" d="M1177.49,-173.975C1175.5,-165.492 1172.37,-152.204 1169.81,-141.322"/>
<polygon fill="midnightblue" stroke="midnightblue" points="1173.2,-140.442 1167.5,-131.509 1166.39,-142.045 1173.2,-140.442"/>
</g>
<!-- Node16 -->
<g id="node16" class="node"><title>Node16</title>
<polygon fill="white" stroke="#bfbfbf" points="1019.5,-112.5 1019.5,-131.5 1113.5,-131.5 1113.5,-112.5 1019.5,-112.5"/>
<text text-anchor="middle" x="1066.5" y="-119.5" font-family="Helvetica,sans-Serif" font-size="10.00">Eigen/Geometry</text>
</g>
<!-- Node13&#45;&gt;Node16 -->
<g id="edge17" class="edge"><title>Node13&#45;&gt;Node16</title>
<path fill="none" stroke="midnightblue" d="M1163.31,-173.975C1144.6,-164.122 1113.58,-147.788 1091.7,-136.27"/>
<polygon fill="midnightblue" stroke="midnightblue" points="1093.14,-133.071 1082.66,-131.509 1089.88,-139.265 1093.14,-133.071"/>
</g>
<!-- Node17 -->
<g id="node17" class="node"><title>Node17</title>
<polygon fill="white" stroke="#bfbfbf" points="1397.5,-112.5 1397.5,-131.5 1477.5,-131.5 1477.5,-112.5 1397.5,-112.5"/>
<text text-anchor="middle" x="1437.5" y="-119.5" font-family="Helvetica,sans-Serif" font-size="10.00">Eigen/Sparse</text>
</g>
<!-- Node13&#45;&gt;Node17 -->
<g id="edge18" class="edge"><title>Node13&#45;&gt;Node17</title>
<path fill="none" stroke="midnightblue" d="M1216.47,-173.975C1262.35,-163.393 1340.65,-145.336 1390.68,-133.797"/>
<polygon fill="midnightblue" stroke="midnightblue" points="1391.65,-137.167 1400.6,-131.509 1390.07,-130.346 1391.65,-137.167"/>
</g>
<!-- Node14&#45;&gt;Node4 -->
<g id="edge15" class="edge"><title>Node14&#45;&gt;Node4</title>
<path fill="none" stroke="midnightblue" d="M1266.5,-112.083C1266.5,-105.006 1266.5,-94.8611 1266.5,-85.9865"/>
<polygon fill="midnightblue" stroke="midnightblue" points="1270,-85.751 1266.5,-75.7511 1263,-85.7511 1270,-85.751"/>
</g>
<!-- Node18&#45;&gt;Node14 -->
<g id="edge20" class="edge"><title>Node18&#45;&gt;Node14</title>
<path fill="none" stroke="midnightblue" d="M1098.16,-235.478C1148.71,-227.991 1212.04,-215.683 1232.5,-199 1250.14,-184.612 1258.95,-159.161 1263.11,-141.706"/>
<polygon fill="midnightblue" stroke="midnightblue" points="1266.6,-142.09 1265.22,-131.586 1259.75,-140.66 1266.6,-142.09"/>
</g>
<!-- Node19 -->
<g id="node19" class="node"><title>Node19</title>
<g id="a_node19"><a xlink:href="Index_8hpp.html" target="_top" xlink:title="Core/Utils/Index.hpp">
<polygon fill="white" stroke="black" points="411,-174 411,-193 524,-193 524,-174 411,-174"/>
<text text-anchor="middle" x="467.5" y="-181" font-family="Helvetica,sans-Serif" font-size="10.00">Core/Utils/Index.hpp</text>
</a>
</g>
</g>
<!-- Node18&#45;&gt;Node19 -->
<g id="edge21" class="edge"><title>Node18&#45;&gt;Node19</title>
<path fill="none" stroke="midnightblue" d="M951.718,-235.894C948.605,-235.589 945.523,-235.289 942.5,-235 760.85,-217.611 713.876,-226.635 533.5,-199 526.644,-197.95 519.434,-196.611 512.4,-195.173"/>
<polygon fill="midnightblue" stroke="midnightblue" points="512.791,-191.678 502.281,-193.018 511.332,-198.524 512.791,-191.678"/>
</g>
<!-- Node19&#45;&gt;Node14 -->
<g id="edge22" class="edge"><title>Node19&#45;&gt;Node14</title>
<path fill="none" stroke="midnightblue" d="M501.226,-173.982C511.523,-171.681 522.921,-169.434 533.5,-168 827.859,-128.087 907.894,-162.286 1207.21,-132.015"/>
<polygon fill="midnightblue" stroke="midnightblue" points="1207.91,-135.462 1217.5,-130.959 1207.19,-128.499 1207.91,-135.462"/>
</g>
<!-- Node20 -->
<g id="node20" class="node"><title>Node20</title>
<polygon fill="white" stroke="#bfbfbf" points="400.5,-112.5 400.5,-131.5 442.5,-131.5 442.5,-112.5 400.5,-112.5"/>
<text text-anchor="middle" x="421.5" y="-119.5" font-family="Helvetica,sans-Serif" font-size="10.00">limits</text>
</g>
<!-- Node19&#45;&gt;Node20 -->
<g id="edge23" class="edge"><title>Node19&#45;&gt;Node20</title>
<path fill="none" stroke="midnightblue" d="M460.909,-173.975C454.009,-165.05 442.998,-150.807 434.366,-139.643"/>
<polygon fill="midnightblue" stroke="midnightblue" points="436.964,-137.28 428.078,-131.509 431.426,-141.561 436.964,-137.28"/>
</g>
<!-- Node21 -->
<g id="node21" class="node"><title>Node21</title>
<g id="a_node21"><a xlink:href="Index_8inl.html" target="_top" xlink:title="Core/Utils/Index.inl">
<polygon fill="white" stroke="black" points="461,-112.5 461,-131.5 566,-131.5 566,-112.5 461,-112.5"/>
<text text-anchor="middle" x="513.5" y="-119.5" font-family="Helvetica,sans-Serif" font-size="10.00">Core/Utils/Index.inl</text>
</a>
</g>
</g>
<!-- Node19&#45;&gt;Node21 -->
<g id="edge24" class="edge"><title>Node19&#45;&gt;Node21</title>
<path fill="none" stroke="midnightblue" d="M474.091,-173.975C480.991,-165.05 492.002,-150.807 500.634,-139.643"/>
<polygon fill="midnightblue" stroke="midnightblue" points="503.574,-141.561 506.922,-131.509 498.036,-137.28 503.574,-141.561"/>
</g>
<!-- Node22&#45;&gt;Node2 -->
<g id="edge26" class="edge"><title>Node22&#45;&gt;Node2</title>
<path fill="none" stroke="midnightblue" d="M1241.66,-254.509C1212.66,-264.841 1159.99,-282.315 1123.13,-293.881"/>
<polygon fill="midnightblue" stroke="midnightblue" points="1121.7,-290.661 1113.19,-296.975 1123.78,-297.345 1121.7,-290.661"/>
</g>
<!-- Node23&#45;&gt;Node13 -->
<g id="edge40" class="edge"><title>Node23&#45;&gt;Node13</title>
<path fill="none" stroke="midnightblue" d="M1417.67,-235.475C1368.02,-224.849 1283.15,-206.685 1229.27,-195.152"/>
<polygon fill="midnightblue" stroke="midnightblue" points="1229.77,-191.68 1219.26,-193.009 1228.3,-198.525 1229.77,-191.68"/>
</g>
<!-- Node23&#45;&gt;Node14 -->
<g id="edge28" class="edge"><title>Node23&#45;&gt;Node14</title>
<path fill="none" stroke="midnightblue" d="M1456.2,-235.29C1453.37,-219.498 1445.17,-186.102 1424.5,-168 1397.3,-144.176 1358.29,-132.912 1325.84,-127.611"/>
<polygon fill="midnightblue" stroke="midnightblue" points="1325.96,-124.092 1315.56,-126.092 1324.94,-131.016 1325.96,-124.092"/>
</g>
<!-- Node23&#45;&gt;Node15 -->
<g id="edge29" class="edge"><title>Node23&#45;&gt;Node15</title>
<path fill="none" stroke="midnightblue" d="M1452.08,-235.295C1441.57,-219.204 1416.77,-184.908 1386.5,-168 1318.79,-130.172 1289.85,-146.824 1209.79,-132.144"/>
<polygon fill="midnightblue" stroke="midnightblue" points="1210.25,-128.669 1199.76,-130.193 1208.91,-135.54 1210.25,-128.669"/>
</g>
<!-- Node23&#45;&gt;Node16 -->
<g id="edge30" class="edge"><title>Node23&#45;&gt;Node16</title>
<path fill="none" stroke="midnightblue" d="M1442.31,-235.417C1427.58,-226.855 1404.83,-212.993 1386.5,-199 1370.25,-186.59 1370.94,-176.844 1352.5,-168 1262.13,-124.648 1226.9,-146.717 1123.75,-132.108"/>
<polygon fill="midnightblue" stroke="midnightblue" points="1123.96,-128.6 1113.55,-130.576 1122.92,-135.523 1123.96,-128.6"/>
</g>
<!-- Node23&#45;&gt;Node17 -->
<g id="edge31" class="edge"><title>Node23&#45;&gt;Node17</title>
<path fill="none" stroke="midnightblue" d="M1459.8,-235.401C1463.23,-221.14 1468.67,-191.808 1462.5,-168 1459.95,-158.175 1454.75,-148.212 1449.74,-140.166"/>
<polygon fill="midnightblue" stroke="midnightblue" points="1452.58,-138.114 1444.13,-131.725 1446.75,-141.99 1452.58,-138.114"/>
</g>
<!-- Node24 -->
<g id="node24" class="node"><title>Node24</title>
<polygon fill="white" stroke="#bfbfbf" points="1281,-174 1281,-193 1344,-193 1344,-174 1281,-174"/>
<text text-anchor="middle" x="1312.5" y="-181" font-family="Helvetica,sans-Serif" font-size="10.00">functional</text>
</g>
<!-- Node23&#45;&gt;Node24 -->
<g id="edge32" class="edge"><title>Node23&#45;&gt;Node24</title>
<path fill="none" stroke="midnightblue" d="M1436.73,-235.475C1412.07,-225.357 1370.75,-208.405 1342.6,-196.851"/>
<polygon fill="midnightblue" stroke="midnightblue" points="1343.82,-193.567 1333.24,-193.009 1341.16,-200.043 1343.82,-193.567"/>
</g>
<!-- Node25 -->
<g id="node25" class="node"><title>Node25</title>
<polygon fill="white" stroke="#bfbfbf" points="1681,-168.5 1681,-198.5 1826,-198.5 1826,-168.5 1681,-168.5"/>
<text text-anchor="start" x="1689" y="-186.5" font-family="Helvetica,sans-Serif" font-size="10.00">unsupported/Eigen/Aligned</text>
<text text-anchor="middle" x="1753.5" y="-175.5" font-family="Helvetica,sans-Serif" font-size="10.00">Vector3</text>
</g>
<!-- Node23&#45;&gt;Node25 -->
<g id="edge33" class="edge"><title>Node23&#45;&gt;Node25</title>
<path fill="none" stroke="midnightblue" d="M1499.91,-235.475C1545.15,-226.381 1617.86,-211.766 1673.84,-200.512"/>
<polygon fill="midnightblue" stroke="midnightblue" points="1674.62,-203.925 1683.74,-198.523 1673.24,-197.062 1674.62,-203.925"/>
</g>
<!-- Node26 -->
<g id="node26" class="node"><title>Node26</title>
<g id="a_node26"><a xlink:href="Math_8hpp.html" target="_top" xlink:title="Core/Math/Math.hpp">
<polygon fill="white" stroke="black" points="1906.5,-174 1906.5,-193 2020.5,-193 2020.5,-174 1906.5,-174"/>
<text text-anchor="middle" x="1963.5" y="-181" font-family="Helvetica,sans-Serif" font-size="10.00">Core/Math/Math.hpp</text>
</a>
</g>
</g>
<!-- Node23&#45;&gt;Node26 -->
<g id="edge34" class="edge"><title>Node23&#45;&gt;Node26</title>
<path fill="none" stroke="midnightblue" d="M1530,-235.475C1627.95,-223.957 1801.22,-203.583 1896.34,-192.397"/>
<polygon fill="midnightblue" stroke="midnightblue" points="1896.9,-195.856 1906.42,-191.212 1896.08,-188.904 1896.9,-195.856"/>
</g>
<!-- Node30 -->
<g id="node30" class="node"><title>Node30</title>
<g id="a_node30"><a xlink:href="LinearAlgebra_8inl.html" target="_top" xlink:title="Core/Math/LinearAlgebra.inl">
<polygon fill="white" stroke="black" points="1514,-174 1514,-193 1663,-193 1663,-174 1514,-174"/>
<text text-anchor="middle" x="1588.5" y="-181" font-family="Helvetica,sans-Serif" font-size="10.00">Core/Math/LinearAlgebra.inl</text>
</a>
</g>
</g>
<!-- Node23&#45;&gt;Node30 -->
<g id="edge41" class="edge"><title>Node23&#45;&gt;Node30</title>
<path fill="none" stroke="midnightblue" d="M1471.37,-235.475C1491.35,-225.401 1528.21,-208.553 1555.36,-197.002"/>
<polygon fill="midnightblue" stroke="midnightblue" points="1557,-200.107 1564.87,-193.009 1554.29,-193.652 1557,-200.107"/>
</g>
<!-- Node26&#45;&gt;Node14 -->
<g id="edge35" class="edge"><title>Node26&#45;&gt;Node14</title>
<path fill="none" stroke="midnightblue" d="M1906.2,-175.589C1884.12,-173.037 1858.65,-170.226 1835.5,-168 1737.88,-158.613 1451.06,-136.84 1325.97,-127.446"/>
<polygon fill="midnightblue" stroke="midnightblue" points="1326.05,-123.942 1315.81,-126.684 1325.52,-130.922 1326.05,-123.942"/>
</g>
<!-- Node27 -->
<g id="node27" class="node"><title>Node27</title>
<polygon fill="white" stroke="#bfbfbf" points="1882.5,-112.5 1882.5,-131.5 1944.5,-131.5 1944.5,-112.5 1882.5,-112.5"/>
<text text-anchor="middle" x="1913.5" y="-119.5" font-family="Helvetica,sans-Serif" font-size="10.00">algorithm</text>
</g>
<!-- Node26&#45;&gt;Node27 -->
<g id="edge36" class="edge"><title>Node26&#45;&gt;Node27</title>
<path fill="none" stroke="midnightblue" d="M1956.34,-173.975C1948.76,-164.962 1936.63,-150.525 1927.21,-139.312"/>
<polygon fill="midnightblue" stroke="midnightblue" points="1929.76,-136.913 1920.65,-131.509 1924.4,-141.417 1929.76,-136.913"/>
</g>
<!-- Node28 -->
<g id="node28" class="node"><title>Node28</title>
<polygon fill="white" stroke="#bfbfbf" points="1963,-112.5 1963,-131.5 2010,-131.5 2010,-112.5 1963,-112.5"/>
<text text-anchor="middle" x="1986.5" y="-119.5" font-family="Helvetica,sans-Serif" font-size="10.00">cmath</text>
</g>
<!-- Node26&#45;&gt;Node28 -->
<g id="edge37" class="edge"><title>Node26&#45;&gt;Node28</title>
<path fill="none" stroke="midnightblue" d="M1966.8,-173.975C1970.11,-165.404 1975.32,-151.927 1979.55,-140.983"/>
<polygon fill="midnightblue" stroke="midnightblue" points="1982.87,-142.098 1983.21,-131.509 1976.34,-139.575 1982.87,-142.098"/>
</g>
<!-- Node29 -->
<g id="node29" class="node"><title>Node29</title>
<g id="a_node29"><a xlink:href="Math_8inl.html" target="_top" xlink:title="Core/Math/Math.inl">
<polygon fill="white" stroke="black" points="2028,-112.5 2028,-131.5 2135,-131.5 2135,-112.5 2028,-112.5"/>
<text text-anchor="middle" x="2081.5" y="-119.5" font-family="Helvetica,sans-Serif" font-size="10.00">Core/Math/Math.inl</text>
</a>
</g>
</g>
<!-- Node26&#45;&gt;Node29 -->
<g id="edge38" class="edge"><title>Node26&#45;&gt;Node29</title>
<path fill="none" stroke="midnightblue" d="M1975.51,-173.975C1993.13,-163.99 2025.88,-147.348 2050.44,-135.807"/>
<polygon fill="midnightblue" stroke="midnightblue" points="2052.12,-138.885 2059.73,-131.509 2049.18,-132.531 2052.12,-138.885"/>
</g>
<!-- Node29&#45;&gt;Node26 -->
<g id="edge39" class="edge"><title>Node29&#45;&gt;Node26</title>
<path fill="none" stroke="midnightblue" d="M2069.52,-131.509C2051.91,-141.487 2019.17,-158.129 1994.6,-169.674"/>
<polygon fill="midnightblue" stroke="midnightblue" points="1992.91,-166.599 1985.31,-173.975 1995.85,-172.952 1992.91,-166.599"/>
</g>
<!-- Node30&#45;&gt;Node23 -->
<g id="edge42" class="edge"><title>Node30&#45;&gt;Node23</title>
<path fill="none" stroke="midnightblue" d="M1574.66,-193.009C1554.7,-203.076 1517.85,-219.924 1490.69,-231.48"/>
<polygon fill="midnightblue" stroke="midnightblue" points="1489.04,-228.377 1481.17,-235.475 1491.74,-234.831 1489.04,-228.377"/>
</g>
<!-- Node31&#45;&gt;Node3 -->
<g id="edge47" class="edge"><title>Node31&#45;&gt;Node3</title>
<path fill="none" stroke="midnightblue" d="M305.296,-235.468C260.345,-226.547 187.935,-212.055 125.5,-199 119.679,-197.783 113.578,-196.488 107.527,-195.193"/>
<polygon fill="midnightblue" stroke="midnightblue" points="107.964,-191.707 97.4517,-193.026 106.492,-198.551 107.964,-191.707"/>
</g>
<!-- Node31&#45;&gt;Node12 -->
<g id="edge48" class="edge"><title>Node31&#45;&gt;Node12</title>
<path fill="none" stroke="midnightblue" d="M442.875,-235.58C534.181,-226.866 665.825,-212.641 715.5,-199 717.791,-198.371 720.129,-197.609 722.448,-196.769"/>
<polygon fill="midnightblue" stroke="midnightblue" points="723.772,-200.009 731.719,-193.002 721.137,-193.524 723.772,-200.009"/>
</g>
<!-- Node31&#45;&gt;Node13 -->
<g id="edge49" class="edge"><title>Node31&#45;&gt;Node13</title>
<path fill="none" stroke="midnightblue" d="M442.514,-235.653C445.544,-235.426 448.546,-235.208 451.5,-235 750.742,-213.941 829.247,-246.155 1125.5,-199 1130.95,-198.132 1136.65,-196.934 1142.21,-195.596"/>
<polygon fill="midnightblue" stroke="midnightblue" points="1143.18,-198.96 1151.99,-193.076 1141.43,-192.181 1143.18,-198.96"/>
</g>
<!-- Node31&#45;&gt;Node15 -->
<g id="edge45" class="edge"><title>Node31&#45;&gt;Node15</title>
<path fill="none" stroke="midnightblue" d="M351.517,-235.447C357.841,-218.97 374.202,-183.122 401.5,-168 469.404,-130.385 1006.65,-141.456 1121.3,-131.704"/>
<polygon fill="midnightblue" stroke="midnightblue" points="1121.73,-135.178 1131.31,-130.658 1121.01,-128.216 1121.73,-135.178"/>
</g>
<!-- Node31&#45;&gt;Node16 -->
<g id="edge46" class="edge"><title>Node31&#45;&gt;Node16</title>
<path fill="none" stroke="midnightblue" d="M347.834,-235.247C347.139,-219.076 348.279,-184.653 368.5,-168 417.408,-127.722 850.488,-123.209 1008.84,-122.916"/>
<polygon fill="midnightblue" stroke="midnightblue" points="1009.32,-126.415 1019.31,-122.902 1009.31,-119.416 1009.32,-126.415"/>
</g>
<!-- Node31&#45;&gt;Node19 -->
<g id="edge44" class="edge"><title>Node31&#45;&gt;Node19</title>
<path fill="none" stroke="midnightblue" d="M365.55,-235.475C385.344,-225.578 418.217,-209.142 441.27,-197.615"/>
<polygon fill="midnightblue" stroke="midnightblue" points="443.103,-200.612 450.482,-193.009 439.972,-194.351 443.103,-200.612"/>
</g>
<!-- Node32 -->
<g id="node32" class="node"><title>Node32</title>
<g id="a_node32"><a xlink:href="Component_8inl.html" target="_top" xlink:title="Engine/Component/Component.inl">
<polygon fill="white" stroke="black" points="135,-174 135,-193 316,-193 316,-174 135,-174"/>
<text text-anchor="middle" x="225.5" y="-181" font-family="Helvetica,sans-Serif" font-size="10.00">Engine/Component/Component.inl</text>
</a>
</g>
</g>
<!-- Node31&#45;&gt;Node32 -->
<g id="edge50" class="edge"><title>Node31&#45;&gt;Node32</title>
<path fill="none" stroke="midnightblue" d="M325.977,-235.475C303.459,-225.622 269.417,-209.288 247.203,-197.77"/>
<polygon fill="midnightblue" stroke="midnightblue" points="248.67,-194.587 238.193,-193.009 245.399,-200.776 248.67,-194.587"/>
</g>
<!-- Node32&#45;&gt;Node31 -->
<g id="edge51" class="edge"><title>Node32&#45;&gt;Node31</title>
<path fill="none" stroke="midnightblue" d="M247.987,-193.009C270.492,-202.855 304.534,-219.188 326.762,-230.712"/>
<polygon fill="midnightblue" stroke="midnightblue" points="325.301,-233.898 335.778,-235.475 328.571,-227.709 325.301,-233.898"/>
</g>
<!-- Node33&#45;&gt;Node3 -->
<g id="edge53" class="edge"><title>Node33&#45;&gt;Node3</title>
<path fill="none" stroke="midnightblue" d="M599.883,-301.216C476.612,-294.375 257.123,-279.229 181.5,-255 141.977,-242.337 101.157,-215.77 77.8948,-199.109"/>
<polygon fill="midnightblue" stroke="midnightblue" points="79.7433,-196.124 69.6034,-193.053 75.6146,-201.777 79.7433,-196.124"/>
</g>
<!-- Node33&#45;&gt;Node10 -->
<g id="edge55" class="edge"><title>Node33&#45;&gt;Node10</title>
<path fill="none" stroke="midnightblue" d="M692.662,-291.399C696.245,-283.199 700.797,-272.781 704.637,-263.994"/>
<polygon fill="midnightblue" stroke="midnightblue" points="707.92,-265.223 708.717,-254.658 701.505,-262.42 707.92,-265.223"/>
</g>
<!-- Node33&#45;&gt;Node12 -->
<g id="edge56" class="edge"><title>Node33&#45;&gt;Node12</title>
<path fill="none" stroke="midnightblue" d="M680.808,-291.426C675.747,-276.572 670.429,-252.879 679.5,-235 687.843,-218.555 704.335,-206.179 719.104,-197.796"/>
<polygon fill="midnightblue" stroke="midnightblue" points="720.789,-200.864 727.989,-193.091 717.513,-194.677 720.789,-200.864"/>
</g>
<!-- Node33&#45;&gt;Node24 -->
<g id="edge54" class="edge"><title>Node33&#45;&gt;Node24</title>
<path fill="none" stroke="midnightblue" d="M773.365,-301.055C860.741,-295.239 998.864,-282.361 1115.5,-255 1177.02,-240.568 1245.89,-213.197 1283.72,-197.135"/>
<polygon fill="midnightblue" stroke="midnightblue" points="1285.28,-200.275 1293.09,-193.118 1282.52,-193.842 1285.28,-200.275"/>
</g>
<!-- Node34 -->
<g id="node34" class="node"><title>Node34</title>
<g id="a_node34"><a xlink:href="ItemEntry_8hpp.html" target="_top" xlink:title="Engine/ItemModel/ItemEntry.hpp">
<polygon fill="white" stroke="black" points="461,-235.5 461,-254.5 632,-254.5 632,-235.5 461,-235.5"/>
<text text-anchor="middle" x="546.5" y="-242.5" font-family="Helvetica,sans-Serif" font-size="10.00">Engine/ItemModel/ItemEntry.hpp</text>
</a>
</g>
</g>
<!-- Node33&#45;&gt;Node34 -->
<g id="edge57" class="edge"><title>Node33&#45;&gt;Node34</title>
<path fill="none" stroke="midnightblue" d="M653.322,-291.399C629.937,-281.461 598.888,-268.265 576.294,-258.662"/>
<polygon fill="midnightblue" stroke="midnightblue" points="577.444,-255.348 566.871,-254.658 574.706,-261.79 577.444,-255.348"/>
</g>
<!-- Node34&#45;&gt;Node3 -->
<g id="edge58" class="edge"><title>Node34&#45;&gt;Node3</title>
<path fill="none" stroke="midnightblue" d="M462.06,-235.463C348.715,-223.928 157.794,-204.205 125.5,-199 118.711,-197.906 111.573,-196.567 104.59,-195.149"/>
<polygon fill="midnightblue" stroke="midnightblue" points="105.035,-191.666 94.5287,-193.036 103.596,-198.517 105.035,-191.666"/>
</g>
<!-- Node34&#45;&gt;Node11 -->
<g id="edge60" class="edge"><title>Node34&#45;&gt;Node11</title>
<path fill="none" stroke="midnightblue" d="M632.286,-237.191C691.008,-230.972 770.132,-219.505 837.5,-199 839.376,-198.429 841.283,-197.764 843.183,-197.04"/>
<polygon fill="midnightblue" stroke="midnightblue" points="844.623,-200.23 852.433,-193.071 841.864,-193.797 844.623,-200.23"/>
</g>
<!-- Node34&#45;&gt;Node12 -->
<g id="edge61" class="edge"><title>Node34&#45;&gt;Node12</title>
<path fill="none" stroke="midnightblue" d="M585.268,-235.47C619.857,-227.438 671.66,-214.366 715.5,-199 717.165,-198.417 718.863,-197.786 720.567,-197.125"/>
<polygon fill="midnightblue" stroke="midnightblue" points="722.299,-200.196 730.2,-193.138 719.621,-193.729 722.299,-200.196"/>
</g>
<!-- Node34&#45;&gt;Node19 -->
<g id="edge59" class="edge"><title>Node34&#45;&gt;Node19</title>
<path fill="none" stroke="midnightblue" d="M535.181,-235.475C522.627,-226.02 502.149,-210.596 487.001,-199.187"/>
<polygon fill="midnightblue" stroke="midnightblue" points="488.891,-196.23 478.798,-193.009 484.68,-201.821 488.891,-196.23"/>
</g>
<!-- Node35 -->
<g id="node35" class="node"><title>Node35</title>
<g id="a_node35"><a xlink:href="ItemEntry_8inl.html" target="_top" xlink:title="Engine/ItemModel/ItemEntry.inl">
<polygon fill="white" stroke="black" points="542.5,-174 542.5,-193 706.5,-193 706.5,-174 542.5,-174"/>
<text text-anchor="middle" x="624.5" y="-181" font-family="Helvetica,sans-Serif" font-size="10.00">Engine/ItemModel/ItemEntry.inl</text>
</a>
</g>
</g>
<!-- Node34&#45;&gt;Node35 -->
<g id="edge62" class="edge"><title>Node34&#45;&gt;Node35</title>
<path fill="none" stroke="midnightblue" d="M557.675,-235.475C570.071,-226.02 590.29,-210.596 605.246,-199.187"/>
<polygon fill="midnightblue" stroke="midnightblue" points="607.517,-201.857 613.345,-193.009 603.272,-196.291 607.517,-201.857"/>
</g>
<!-- Node36&#45;&gt;Node3 -->
<g id="edge64" class="edge"><title>Node36&#45;&gt;Node3</title>
<path fill="none" stroke="midnightblue" d="M792.724,-238.444C776.86,-237.255 760.108,-236.044 744.5,-235 469.538,-216.608 398.546,-236.257 125.5,-199 118.204,-198.004 110.52,-196.643 103.063,-195.151"/>
<polygon fill="midnightblue" stroke="midnightblue" points="103.598,-191.687 93.0926,-193.057 102.16,-198.538 103.598,-191.687"/>
</g>
<!-- Node36&#45;&gt;Node11 -->
<g id="edge70" class="edge"><title>Node36&#45;&gt;Node11</title>
<path fill="none" stroke="midnightblue" d="M864.216,-235.475C864.922,-227.08 866.023,-213.981 866.932,-203.163"/>
<polygon fill="midnightblue" stroke="midnightblue" points="870.435,-203.267 867.785,-193.009 863.46,-202.681 870.435,-203.267"/>
</g>
<!-- Node36&#45;&gt;Node12 -->
<g id="edge71" class="edge"><title>Node36&#45;&gt;Node12</title>
<path fill="none" stroke="midnightblue" d="M847.023,-235.475C827.895,-225.578 796.127,-209.142 773.848,-197.615"/>
<polygon fill="midnightblue" stroke="midnightblue" points="775.436,-194.496 764.946,-193.009 772.219,-200.713 775.436,-194.496"/>
</g>
<!-- Node36&#45;&gt;Node13 -->
<g id="edge65" class="edge"><title>Node36&#45;&gt;Node13</title>
<path fill="none" stroke="midnightblue" d="M922.333,-235.484C975.631,-227.392 1056.19,-214.223 1125.5,-199 1130.17,-197.974 1135.05,-196.805 1139.87,-195.587"/>
<polygon fill="midnightblue" stroke="midnightblue" points="1140.83,-198.954 1149.63,-193.048 1139.07,-192.18 1140.83,-198.954"/>
</g>
<!-- Node37 -->
<g id="node37" class="node"><title>Node37</title>
<g id="a_node37"><a xlink:href="Singleton_8hpp.html" target="_top" xlink:title="Core/Utils/Singleton.hpp">
<polygon fill="white" stroke="black" points="984.5,-174 984.5,-193 1116.5,-193 1116.5,-174 984.5,-174"/>
<text text-anchor="middle" x="1050.5" y="-181" font-family="Helvetica,sans-Serif" font-size="10.00">Core/Utils/Singleton.hpp</text>
</a>
</g>
</g>
<!-- Node36&#45;&gt;Node37 -->
<g id="edge66" class="edge"><title>Node36&#45;&gt;Node37</title>
<path fill="none" stroke="midnightblue" d="M890.293,-235.475C922.786,-225.136 977.708,-207.661 1014.04,-196.102"/>
<polygon fill="midnightblue" stroke="midnightblue" points="1015.29,-199.376 1023.76,-193.009 1013.17,-192.706 1015.29,-199.376"/>
</g>
<!-- Node38 -->
<g id="node38" class="node"><title>Node38</title>
<polygon fill="white" stroke="#bfbfbf" points="790.5,-174 790.5,-193 828.5,-193 828.5,-174 790.5,-174"/>
<text text-anchor="middle" x="809.5" y="-181" font-family="Helvetica,sans-Serif" font-size="10.00">map</text>
</g>
<!-- Node36&#45;&gt;Node38 -->
<g id="edge68" class="edge"><title>Node36&#45;&gt;Node38</title>
<path fill="none" stroke="midnightblue" d="M855.763,-235.475C847.503,-226.373 834.223,-211.741 824.006,-200.483"/>
<polygon fill="midnightblue" stroke="midnightblue" points="826.535,-198.062 817.223,-193.009 821.351,-202.766 826.535,-198.062"/>
</g>
<!-- Node39 -->
<g id="node39" class="node"><title>Node39</title>
<polygon fill="white" stroke="#bfbfbf" points="909,-174 909,-193 966,-193 966,-174 909,-174"/>
<text text-anchor="middle" x="937.5" y="-181" font-family="Helvetica,sans-Serif" font-size="10.00">memory</text>
</g>
<!-- Node36&#45;&gt;Node39 -->
<g id="edge69" class="edge"><title>Node36&#45;&gt;Node39</title>
<path fill="none" stroke="midnightblue" d="M874.102,-235.475C885.752,-226.108 904.686,-210.884 918.835,-199.508"/>
<polygon fill="midnightblue" stroke="midnightblue" points="921.317,-202.003 926.917,-193.009 916.931,-196.548 921.317,-202.003"/>
</g>
<!-- Node37&#45;&gt;Node14 -->
<g id="edge67" class="edge"><title>Node37&#45;&gt;Node14</title>
<path fill="none" stroke="midnightblue" d="M1081.45,-173.975C1119.38,-163.526 1183.78,-145.787 1225.72,-134.233"/>
<polygon fill="midnightblue" stroke="midnightblue" points="1226.9,-137.539 1235.61,-131.509 1225.04,-130.791 1226.9,-137.539"/>
</g>
</g>
</svg>
