<?xml version="1.0" encoding="UTF-8" standalone="no"?>
<!DOCTYPE svg PUBLIC "-//W3C//DTD SVG 1.1//EN"
 "http://www.w3.org/Graphics/SVG/1.1/DTD/svg11.dtd">
<!-- Generated by graphviz version 2.38.0 (20140413.2041)
 -->
<!-- Title: /home/travis/build/STORM&#45;IRIT/Radium&#45;Engine/src/Engine/Renderer/Renderers/ForwardRenderer.hpp Pages: 1 -->
<svg width="1166pt" height="587pt"
 viewBox="0.00 0.00 1165.81 587.00" xmlns="http://www.w3.org/2000/svg" xmlns:xlink="http://www.w3.org/1999/xlink">
<g id="graph0" class="graph" transform="scale(1 1) rotate(0) translate(4 583)">
<title>/home/travis/build/STORM&#45;IRIT/Radium&#45;Engine/src/Engine/Renderer/Renderers/ForwardRenderer.hpp</title>
<polygon fill="white" stroke="none" points="-4,4 -4,-583 1161.81,-583 1161.81,4 -4,4"/>
<!-- Node1 -->
<g id="node1" class="node"><title>Node1</title>
<polygon fill="#bfbfbf" stroke="black" points="383.5,-526.5 383.5,-578.5 549.5,-578.5 549.5,-526.5 383.5,-526.5"/>
<text text-anchor="start" x="391.5" y="-566.5" font-family="Helvetica,sans-Serif" font-size="10.00">/home/travis/build</text>
<text text-anchor="start" x="391.5" y="-555.5" font-family="Helvetica,sans-Serif" font-size="10.00">/STORM&#45;IRIT/Radium&#45;Engine</text>
<text text-anchor="start" x="391.5" y="-544.5" font-family="Helvetica,sans-Serif" font-size="10.00">/src/Engine/Renderer/Renderers</text>
<text text-anchor="middle" x="466.5" y="-533.5" font-family="Helvetica,sans-Serif" font-size="10.00">/ForwardRenderer.hpp</text>
</g>
<!-- Node2 -->
<g id="node2" class="node"><title>Node2</title>
<g id="a_node2"><a xlink:href="Renderer_8hpp.html" target="_top" xlink:title="Engine/Renderer/Renderer.hpp">
<polygon fill="white" stroke="black" points="386,-470.5 386,-489.5 547,-489.5 547,-470.5 386,-470.5"/>
<text text-anchor="middle" x="466.5" y="-477.5" font-family="Helvetica,sans-Serif" font-size="10.00">Engine/Renderer/Renderer.hpp</text>
</a>
</g>
</g>
<!-- Node1&#45;&gt;Node2 -->
<g id="edge1" class="edge"><title>Node1&#45;&gt;Node2</title>
<path fill="none" stroke="midnightblue" d="M466.5,-526.446C466.5,-517.73 466.5,-508.104 466.5,-499.964"/>
<polygon fill="midnightblue" stroke="midnightblue" points="470,-499.695 466.5,-489.695 463,-499.696 470,-499.695"/>
</g>
<!-- Node3 -->
<g id="node3" class="node"><title>Node3</title>
<g id="a_node3"><a xlink:href="RaEngine_8hpp.html" target="_top" xlink:title="Engine/RaEngine.hpp">
<polygon fill="white" stroke="black" points="0,-347.5 0,-366.5 117,-366.5 117,-347.5 0,-347.5"/>
<text text-anchor="middle" x="58.5" y="-354.5" font-family="Helvetica,sans-Serif" font-size="10.00">Engine/RaEngine.hpp</text>
</a>
</g>
</g>
<!-- Node2&#45;&gt;Node3 -->
<g id="edge2" class="edge"><title>Node2&#45;&gt;Node3</title>
<path fill="none" stroke="midnightblue" d="M385.97,-474.288C301.36,-468.267 174.674,-455.905 131.5,-434 104.824,-420.466 82.4459,-393.219 69.7567,-375.296"/>
<polygon fill="midnightblue" stroke="midnightblue" points="72.556,-373.188 64.0327,-366.895 66.7712,-377.13 72.556,-373.188"/>
</g>
<!-- Node10 -->
<g id="node10" class="node"><title>Node10</title>
<polygon fill="white" stroke="#bfbfbf" points="174,-347.5 174,-366.5 215,-366.5 215,-347.5 174,-347.5"/>
<text text-anchor="middle" x="194.5" y="-354.5" font-family="Helvetica,sans-Serif" font-size="10.00">array</text>
</g>
<!-- Node2&#45;&gt;Node10 -->
<g id="edge9" class="edge"><title>Node2&#45;&gt;Node10</title>
<path fill="none" stroke="midnightblue" d="M416.606,-470.497C382.51,-463.516 336.904,-451.832 299.5,-434 265.552,-417.816 231.179,-390.372 211.404,-373.268"/>
<polygon fill="midnightblue" stroke="midnightblue" points="213.685,-370.613 203.866,-366.633 209.06,-375.868 213.685,-370.613"/>
</g>
<!-- Node11 -->
<g id="node11" class="node"><title>Node11</title>
<polygon fill="white" stroke="#bfbfbf" points="832.5,-347.5 832.5,-366.5 882.5,-366.5 882.5,-347.5 832.5,-347.5"/>
<text text-anchor="middle" x="857.5" y="-354.5" font-family="Helvetica,sans-Serif" font-size="10.00">chrono</text>
</g>
<!-- Node2&#45;&gt;Node11 -->
<g id="edge10" class="edge"><title>Node2&#45;&gt;Node11</title>
<path fill="none" stroke="midnightblue" d="M493.994,-470.492C563.449,-448.998 745.879,-392.543 822.656,-368.783"/>
<polygon fill="midnightblue" stroke="midnightblue" points="823.82,-372.087 832.338,-365.787 821.751,-365.399 823.82,-372.087"/>
</g>
<!-- Node12 -->
<g id="node12" class="node"><title>Node12</title>
<polygon fill="white" stroke="#bfbfbf" points="309,-409 309,-428 366,-428 366,-409 309,-409"/>
<text text-anchor="middle" x="337.5" y="-416" font-family="Helvetica,sans-Serif" font-size="10.00">memory</text>
</g>
<!-- Node2&#45;&gt;Node12 -->
<g id="edge11" class="edge"><title>Node2&#45;&gt;Node12</title>
<path fill="none" stroke="midnightblue" d="M448.017,-470.475C426.368,-460.49 390.287,-443.848 365.268,-432.307"/>
<polygon fill="midnightblue" stroke="midnightblue" points="366.495,-429.019 355.948,-428.009 363.563,-435.376 366.495,-429.019"/>
</g>
<!-- Node13 -->
<g id="node13" class="node"><title>Node13</title>
<polygon fill="white" stroke="#bfbfbf" points="384,-409 384,-428 431,-428 431,-409 384,-409"/>
<text text-anchor="middle" x="407.5" y="-416" font-family="Helvetica,sans-Serif" font-size="10.00">mutex</text>
</g>
<!-- Node2&#45;&gt;Node13 -->
<g id="edge12" class="edge"><title>Node2&#45;&gt;Node13</title>
<path fill="none" stroke="midnightblue" d="M458.047,-470.475C448.934,-461.285 434.23,-446.456 423.024,-435.156"/>
<polygon fill="midnightblue" stroke="midnightblue" points="425.464,-432.646 415.938,-428.009 420.493,-437.574 425.464,-432.646"/>
</g>
<!-- Node14 -->
<g id="node14" class="node"><title>Node14</title>
<polygon fill="white" stroke="#bfbfbf" points="271,-112.5 271,-131.5 318,-131.5 318,-112.5 271,-112.5"/>
<text text-anchor="middle" x="294.5" y="-119.5" font-family="Helvetica,sans-Serif" font-size="10.00">vector</text>
</g>
<!-- Node2&#45;&gt;Node14 -->
<g id="edge13" class="edge"><title>Node2&#45;&gt;Node14</title>
<path fill="none" stroke="midnightblue" d="M385.863,-470.999C343.322,-464.685 291.064,-453.533 247.5,-434 195.915,-410.87 145.5,-414.534 145.5,-358 145.5,-358 145.5,-358 145.5,-244 145.5,-184.797 217.261,-149.491 261.181,-133.426"/>
<polygon fill="midnightblue" stroke="midnightblue" points="262.613,-136.633 270.891,-130.02 260.296,-130.027 262.613,-136.633"/>
</g>
<!-- Node15 -->
<g id="node15" class="node"><title>Node15</title>
<g id="a_node15"><a xlink:href="Types_8hpp.html" target="_top" xlink:title="Core/Types.hpp">
<polygon fill="white" stroke="black" points="926,-174 926,-193 1015,-193 1015,-174 926,-174"/>
<text text-anchor="middle" x="970.5" y="-181" font-family="Helvetica,sans-Serif" font-size="10.00">Core/Types.hpp</text>
</a>
</g>
</g>
<!-- Node2&#45;&gt;Node15 -->
<g id="edge14" class="edge"><title>Node2&#45;&gt;Node15</title>
<path fill="none" stroke="midnightblue" d="M547.096,-479.398C660.885,-478.573 861.572,-471.601 922.5,-434 956.498,-413.019 970.5,-397.951 970.5,-358 970.5,-358 970.5,-358 970.5,-300 970.5,-265.864 970.5,-226.052 970.5,-203.209"/>
<polygon fill="midnightblue" stroke="midnightblue" points="974,-203.193 970.5,-193.193 967,-203.193 974,-203.193"/>
</g>
<!-- Node20 -->
<g id="node20" class="node"><title>Node20</title>
<g id="a_node20"><a xlink:href="Color_8hpp.html" target="_top" xlink:title="Core/Utils/Color.hpp">
<polygon fill="white" stroke="black" points="999,-291.5 999,-310.5 1110,-310.5 1110,-291.5 999,-291.5"/>
<text text-anchor="middle" x="1054.5" y="-298.5" font-family="Helvetica,sans-Serif" font-size="10.00">Core/Utils/Color.hpp</text>
</a>
</g>
</g>
<!-- Node2&#45;&gt;Node20 -->
<g id="edge20" class="edge"><title>Node2&#45;&gt;Node20</title>
<path fill="none" stroke="midnightblue" d="M547.064,-476.206C683.545,-470.855 948.939,-457.55 984.5,-434 1024.58,-407.457 1043.32,-350.168 1050.6,-320.558"/>
<polygon fill="midnightblue" stroke="midnightblue" points="1054.04,-321.215 1052.86,-310.687 1047.22,-319.657 1054.04,-321.215"/>
</g>
<!-- Node22 -->
<g id="node22" class="node"><title>Node22</title>
<g id="a_node22"><a xlink:href="Timer_8hpp.html" target="_top" xlink:title="Core/Utils/Timer.hpp">
<polygon fill="white" stroke="black" points="801,-409 801,-428 914,-428 914,-409 801,-409"/>
<text text-anchor="middle" x="857.5" y="-416" font-family="Helvetica,sans-Serif" font-size="10.00">Core/Utils/Timer.hpp</text>
</a>
</g>
</g>
<!-- Node2&#45;&gt;Node22 -->
<g id="edge25" class="edge"><title>Node2&#45;&gt;Node22</title>
<path fill="none" stroke="midnightblue" d="M522.521,-470.475C593.511,-459.672 715.699,-441.078 791.243,-429.583"/>
<polygon fill="midnightblue" stroke="midnightblue" points="792.224,-432.974 801.583,-428.009 791.17,-426.053 792.224,-432.974"/>
</g>
<!-- Node23 -->
<g id="node23" class="node"><title>Node23</title>
<g id="a_node23"><a xlink:href="DisplayableObject_8hpp.html" target="_top" xlink:title="Engine/Renderer/Displayable\l/DisplayableObject.hpp">
<polygon fill="white" stroke="black" points="449.5,-403.5 449.5,-433.5 601.5,-433.5 601.5,-403.5 449.5,-403.5"/>
<text text-anchor="start" x="457.5" y="-421.5" font-family="Helvetica,sans-Serif" font-size="10.00">Engine/Renderer/Displayable</text>
<text text-anchor="middle" x="525.5" y="-410.5" font-family="Helvetica,sans-Serif" font-size="10.00">/DisplayableObject.hpp</text>
</a>
</g>
</g>
<!-- Node2&#45;&gt;Node23 -->
<g id="edge28" class="edge"><title>Node2&#45;&gt;Node23</title>
<path fill="none" stroke="midnightblue" d="M474.953,-470.475C482.645,-462.718 494.321,-450.943 504.513,-440.665"/>
<polygon fill="midnightblue" stroke="midnightblue" points="507.039,-443.088 511.595,-433.523 502.068,-438.159 507.039,-443.088"/>
</g>
<!-- Node4 -->
<g id="node4" class="node"><title>Node4</title>
<g id="a_node4"><a xlink:href="CoreMacros_8hpp.html" target="_top" xlink:title="Core/CoreMacros.hpp">
<polygon fill="white" stroke="black" points="644.5,-56.5 644.5,-75.5 764.5,-75.5 764.5,-56.5 644.5,-56.5"/>
<text text-anchor="middle" x="704.5" y="-63.5" font-family="Helvetica,sans-Serif" font-size="10.00">Core/CoreMacros.hpp</text>
</a>
</g>
</g>
<!-- Node3&#45;&gt;Node4 -->
<g id="edge3" class="edge"><title>Node3&#45;&gt;Node4</title>
<path fill="none" stroke="midnightblue" d="M61.8716,-347.313C68.6955,-328.923 83.5,-284.581 83.5,-246 83.5,-246 83.5,-246 83.5,-182.5 83.5,-97.4098 178.832,-132.158 261.5,-112 390.456,-80.5553 545.712,-71.0478 633.978,-68.196"/>
<polygon fill="midnightblue" stroke="midnightblue" points="634.252,-71.6894 644.141,-67.8876 634.04,-64.6926 634.252,-71.6894"/>
</g>
<!-- Node5 -->
<g id="node5" class="node"><title>Node5</title>
<polygon fill="white" stroke="#bfbfbf" points="541.5,-0.5 541.5,-19.5 593.5,-19.5 593.5,-0.5 541.5,-0.5"/>
<text text-anchor="middle" x="567.5" y="-7.5" font-family="Helvetica,sans-Serif" font-size="10.00">cassert</text>
</g>
<!-- Node4&#45;&gt;Node5 -->
<g id="edge4" class="edge"><title>Node4&#45;&gt;Node5</title>
<path fill="none" stroke="midnightblue" d="M682.792,-56.4435C660.145,-47.5171 624.428,-33.4387 598.748,-23.3168"/>
<polygon fill="midnightblue" stroke="midnightblue" points="599.693,-19.9273 589.106,-19.5164 597.126,-26.4397 599.693,-19.9273"/>
</g>
<!-- Node6 -->
<g id="node6" class="node"><title>Node6</title>
<polygon fill="white" stroke="#bfbfbf" points="612,-0.5 612,-19.5 657,-19.5 657,-0.5 612,-0.5"/>
<text text-anchor="middle" x="634.5" y="-7.5" font-family="Helvetica,sans-Serif" font-size="10.00">cstdio</text>
</g>
<!-- Node4&#45;&gt;Node6 -->
<g id="edge5" class="edge"><title>Node4&#45;&gt;Node6</title>
<path fill="none" stroke="midnightblue" d="M693.253,-56.324C682.703,-48.1849 666.699,-35.8395 654.058,-26.0874"/>
<polygon fill="midnightblue" stroke="midnightblue" points="656.007,-23.1707 645.951,-19.8339 651.731,-28.7132 656.007,-23.1707"/>
</g>
<!-- Node7 -->
<g id="node7" class="node"><title>Node7</title>
<polygon fill="white" stroke="#bfbfbf" points="675,-0.5 675,-19.5 734,-19.5 734,-0.5 675,-0.5"/>
<text text-anchor="middle" x="704.5" y="-7.5" font-family="Helvetica,sans-Serif" font-size="10.00">iostream</text>
</g>
<!-- Node4&#45;&gt;Node7 -->
<g id="edge6" class="edge"><title>Node4&#45;&gt;Node7</title>
<path fill="none" stroke="midnightblue" d="M704.5,-56.083C704.5,-49.0059 704.5,-38.8611 704.5,-29.9865"/>
<polygon fill="midnightblue" stroke="midnightblue" points="708,-29.751 704.5,-19.7511 701,-29.7511 708,-29.751"/>
</g>
<!-- Node8 -->
<g id="node8" class="node"><title>Node8</title>
<polygon fill="white" stroke="#bfbfbf" points="752.5,-0.5 752.5,-19.5 808.5,-19.5 808.5,-0.5 752.5,-0.5"/>
<text text-anchor="middle" x="780.5" y="-7.5" font-family="Helvetica,sans-Serif" font-size="10.00">sstream</text>
</g>
<!-- Node4&#45;&gt;Node8 -->
<g id="edge7" class="edge"><title>Node4&#45;&gt;Node8</title>
<path fill="none" stroke="midnightblue" d="M716.711,-56.324C728.276,-48.1066 745.875,-35.6017 759.661,-25.8069"/>
<polygon fill="midnightblue" stroke="midnightblue" points="761.943,-28.4791 768.067,-19.8339 757.888,-22.7729 761.943,-28.4791"/>
</g>
<!-- Node9 -->
<g id="node9" class="node"><title>Node9</title>
<polygon fill="white" stroke="#bfbfbf" points="826.5,-0.5 826.5,-19.5 874.5,-19.5 874.5,-0.5 826.5,-0.5"/>
<text text-anchor="middle" x="850.5" y="-7.5" font-family="Helvetica,sans-Serif" font-size="10.00">thread</text>
</g>
<!-- Node4&#45;&gt;Node9 -->
<g id="edge8" class="edge"><title>Node4&#45;&gt;Node9</title>
<path fill="none" stroke="midnightblue" d="M727.634,-56.4435C751.982,-47.4381 790.507,-33.1891 817.923,-23.049"/>
<polygon fill="midnightblue" stroke="midnightblue" points="819.309,-26.2681 827.474,-19.5164 816.881,-19.7028 819.309,-26.2681"/>
</g>
<!-- Node16 -->
<g id="node16" class="node"><title>Node16</title>
<g id="a_node16"><a xlink:href="RaCore_8hpp.html" target="_top" xlink:title="Core/RaCore.hpp">
<polygon fill="white" stroke="black" points="655.5,-112.5 655.5,-131.5 753.5,-131.5 753.5,-112.5 655.5,-112.5"/>
<text text-anchor="middle" x="704.5" y="-119.5" font-family="Helvetica,sans-Serif" font-size="10.00">Core/RaCore.hpp</text>
</a>
</g>
</g>
<!-- Node15&#45;&gt;Node16 -->
<g id="edge15" class="edge"><title>Node15&#45;&gt;Node16</title>
<path fill="none" stroke="midnightblue" d="M936.53,-173.986C928.344,-171.98 919.618,-169.88 911.5,-168 858.375,-155.7 797.347,-142.552 755.393,-133.665"/>
<polygon fill="midnightblue" stroke="midnightblue" points="755.928,-130.2 745.42,-131.556 754.48,-137.049 755.928,-130.2"/>
</g>
<!-- Node17 -->
<g id="node17" class="node"><title>Node17</title>
<polygon fill="white" stroke="#bfbfbf" points="948.5,-112.5 948.5,-131.5 1016.5,-131.5 1016.5,-112.5 948.5,-112.5"/>
<text text-anchor="middle" x="982.5" y="-119.5" font-family="Helvetica,sans-Serif" font-size="10.00">Eigen/Core</text>
</g>
<!-- Node15&#45;&gt;Node17 -->
<g id="edge17" class="edge"><title>Node15&#45;&gt;Node17</title>
<path fill="none" stroke="midnightblue" d="M972.219,-173.975C973.93,-165.492 976.61,-152.204 978.805,-141.322"/>
<polygon fill="midnightblue" stroke="midnightblue" points="982.238,-142.004 980.784,-131.509 975.376,-140.62 982.238,-142.004"/>
</g>
<!-- Node18 -->
<g id="node18" class="node"><title>Node18</title>
<polygon fill="white" stroke="#bfbfbf" points="1034.5,-112.5 1034.5,-131.5 1128.5,-131.5 1128.5,-112.5 1034.5,-112.5"/>
<text text-anchor="middle" x="1081.5" y="-119.5" font-family="Helvetica,sans-Serif" font-size="10.00">Eigen/Geometry</text>
</g>
<!-- Node15&#45;&gt;Node18 -->
<g id="edge18" class="edge"><title>Node15&#45;&gt;Node18</title>
<path fill="none" stroke="midnightblue" d="M986.404,-173.975C1004.78,-164.122 1035.26,-147.788 1056.74,-136.27"/>
<polygon fill="midnightblue" stroke="midnightblue" points="1058.47,-139.318 1065.63,-131.509 1055.16,-133.149 1058.47,-139.318"/>
</g>
<!-- Node19 -->
<g id="node19" class="node"><title>Node19</title>
<polygon fill="white" stroke="#bfbfbf" points="850.5,-112.5 850.5,-131.5 930.5,-131.5 930.5,-112.5 850.5,-112.5"/>
<text text-anchor="middle" x="890.5" y="-119.5" font-family="Helvetica,sans-Serif" font-size="10.00">Eigen/Sparse</text>
</g>
<!-- Node15&#45;&gt;Node19 -->
<g id="edge19" class="edge"><title>Node15&#45;&gt;Node19</title>
<path fill="none" stroke="midnightblue" d="M959.038,-173.975C946.325,-164.52 925.587,-149.096 910.247,-137.687"/>
<polygon fill="midnightblue" stroke="midnightblue" points="912.054,-134.669 901.941,-131.509 907.876,-140.285 912.054,-134.669"/>
</g>
<!-- Node16&#45;&gt;Node4 -->
<g id="edge16" class="edge"><title>Node16&#45;&gt;Node4</title>
<path fill="none" stroke="midnightblue" d="M704.5,-112.083C704.5,-105.006 704.5,-94.8611 704.5,-85.9865"/>
<polygon fill="midnightblue" stroke="midnightblue" points="708,-85.751 704.5,-75.7511 701,-85.7511 708,-85.751"/>
</g>
<!-- Node20&#45;&gt;Node4 -->
<g id="edge21" class="edge"><title>Node20&#45;&gt;Node4</title>
<path fill="none" stroke="midnightblue" d="M1070.86,-291.353C1083.91,-283.588 1101.59,-270.962 1111.5,-255 1145.56,-200.113 1180.75,-159.98 1137.5,-112 1113.71,-85.6056 891.17,-73.7053 774.751,-69.2484"/>
<polygon fill="midnightblue" stroke="midnightblue" points="774.633,-65.7416 764.509,-68.8651 774.371,-72.7367 774.633,-65.7416"/>
</g>
<!-- Node20&#45;&gt;Node17 -->
<g id="edge22" class="edge"><title>Node20&#45;&gt;Node17</title>
<path fill="none" stroke="midnightblue" d="M1057.36,-291.438C1061.13,-278.864 1066.71,-254.754 1061.5,-235 1051.1,-195.596 1019.26,-158.787 999.318,-138.737"/>
<polygon fill="midnightblue" stroke="midnightblue" points="1001.68,-136.155 992.084,-131.672 996.793,-141.163 1001.68,-136.155"/>
</g>
<!-- Node20&#45;&gt;Node18 -->
<g id="edge23" class="edge"><title>Node20&#45;&gt;Node18</title>
<path fill="none" stroke="midnightblue" d="M1065.77,-291.427C1075.47,-283.275 1088.78,-270.046 1094.5,-255 1109.11,-216.579 1097.02,-167.562 1088.37,-141.404"/>
<polygon fill="midnightblue" stroke="midnightblue" points="1091.57,-139.966 1084.96,-131.691 1084.97,-142.286 1091.57,-139.966"/>
</g>
<!-- Node21 -->
<g id="node21" class="node"><title>Node21</title>
<polygon fill="white" stroke="#bfbfbf" points="998.5,-235.5 998.5,-254.5 1052.5,-254.5 1052.5,-235.5 998.5,-235.5"/>
<text text-anchor="middle" x="1025.5" y="-242.5" font-family="Helvetica,sans-Serif" font-size="10.00">random</text>
</g>
<!-- Node20&#45;&gt;Node21 -->
<g id="edge24" class="edge"><title>Node20&#45;&gt;Node21</title>
<path fill="none" stroke="midnightblue" d="M1049.71,-291.083C1045.74,-283.691 1039.97,-272.953 1035.07,-263.811"/>
<polygon fill="midnightblue" stroke="midnightblue" points="1038.01,-261.905 1030.2,-254.751 1031.85,-265.217 1038.01,-261.905"/>
</g>
<!-- Node22&#45;&gt;Node11 -->
<g id="edge27" class="edge"><title>Node22&#45;&gt;Node11</title>
<path fill="none" stroke="midnightblue" d="M857.5,-408.975C857.5,-400.58 857.5,-387.481 857.5,-376.663"/>
<polygon fill="midnightblue" stroke="midnightblue" points="861,-376.509 857.5,-366.509 854,-376.509 861,-376.509"/>
</g>
<!-- Node22&#45;&gt;Node16 -->
<g id="edge26" class="edge"><title>Node22&#45;&gt;Node16</title>
<path fill="none" stroke="midnightblue" d="M865.864,-408.698C874.213,-399.249 886.501,-383.376 891.5,-367 903.017,-329.273 915.732,-299.407 874.5,-235 842.177,-184.509 778.052,-151.756 738.46,-135.403"/>
<polygon fill="midnightblue" stroke="midnightblue" points="739.542,-132.066 728.957,-131.598 736.94,-138.564 739.542,-132.066"/>
</g>
<!-- Node23&#45;&gt;Node3 -->
<g id="edge29" class="edge"><title>Node23&#45;&gt;Node3</title>
<path fill="none" stroke="midnightblue" d="M449.098,-404.417C445.857,-403.925 442.648,-403.451 439.5,-403 330.496,-387.383 203.38,-373.169 127.008,-365.059"/>
<polygon fill="midnightblue" stroke="midnightblue" points="127.347,-361.576 117.034,-364.004 126.611,-368.537 127.347,-361.576"/>
</g>
<!-- Node23&#45;&gt;Node10 -->
<g id="edge30" class="edge"><title>Node23&#45;&gt;Node10</title>
<path fill="none" stroke="midnightblue" d="M449.184,-404.559C363.291,-389.982 234.909,-368.155 229.5,-367 228.043,-366.689 226.555,-366.358 225.054,-366.014"/>
<polygon fill="midnightblue" stroke="midnightblue" points="225.704,-362.57 215.161,-363.615 224.055,-369.373 225.704,-362.57"/>
</g>
<!-- Node23&#45;&gt;Node14 -->
<g id="edge32" class="edge"><title>Node23&#45;&gt;Node14</title>
<path fill="none" stroke="midnightblue" d="M476.197,-403.411C397.983,-377.869 249.503,-315.459 202.5,-199 197.343,-186.224 195.205,-179.688 202.5,-168 215.282,-147.519 240.386,-136.104 261.146,-129.901"/>
<polygon fill="midnightblue" stroke="midnightblue" points="262.176,-133.248 270.915,-127.257 260.348,-126.491 262.176,-133.248"/>
</g>
<!-- Node23&#45;&gt;Node20 -->
<g id="edge58" class="edge"><title>Node23&#45;&gt;Node20</title>
<path fill="none" stroke="midnightblue" d="M601.77,-403.855C672.136,-391.076 768.257,-373.064 785.5,-367 803.504,-360.668 805.497,-353.337 823.5,-347 877.538,-327.98 941.678,-316.295 988.643,-309.617"/>
<polygon fill="midnightblue" stroke="midnightblue" points="989.267,-313.064 998.693,-308.227 988.308,-306.13 989.267,-313.064"/>
</g>
<!-- Node24 -->
<g id="node24" class="node"><title>Node24</title>
<polygon fill="white" stroke="#bfbfbf" points="738.5,-347.5 738.5,-366.5 776.5,-366.5 776.5,-347.5 738.5,-347.5"/>
<text text-anchor="middle" x="757.5" y="-354.5" font-family="Helvetica,sans-Serif" font-size="10.00">map</text>
</g>
<!-- Node23&#45;&gt;Node24 -->
<g id="edge31" class="edge"><title>Node23&#45;&gt;Node24</title>
<path fill="none" stroke="midnightblue" d="M586.936,-403.448C625.198,-394.429 675.62,-382.064 728.394,-367.179"/>
<polygon fill="midnightblue" stroke="midnightblue" points="729.611,-370.472 738.273,-364.371 727.697,-363.739 729.611,-370.472"/>
</g>
<!-- Node25 -->
<g id="node25" class="node"><title>Node25</title>
<g id="a_node25"><a xlink:href="VectorArray_8hpp.html" target="_top" xlink:title="Core/Containers/VectorArray.hpp">
<polygon fill="white" stroke="black" points="397,-235.5 397,-254.5 570,-254.5 570,-235.5 397,-235.5"/>
<text text-anchor="middle" x="483.5" y="-242.5" font-family="Helvetica,sans-Serif" font-size="10.00">Core/Containers/VectorArray.hpp</text>
</a>
</g>
</g>
<!-- Node23&#45;&gt;Node25 -->
<g id="edge33" class="edge"><title>Node23&#45;&gt;Node25</title>
<path fill="none" stroke="midnightblue" d="M508.176,-403.487C486.795,-384.955 451.544,-350.045 437.5,-311 434.491,-302.636 434.053,-299.193 437.5,-291 442.526,-279.053 452.444,-268.692 461.787,-260.934"/>
<polygon fill="midnightblue" stroke="midnightblue" points="463.939,-263.694 469.713,-254.811 459.66,-258.155 463.939,-263.694"/>
</g>
<!-- Node28 -->
<g id="node28" class="node"><title>Node28</title>
<g id="a_node28"><a xlink:href="TriangleMesh_8hpp.html" target="_top" xlink:title="Core/Geometry/TriangleMesh.hpp">
<polygon fill="white" stroke="black" points="544.5,-347.5 544.5,-366.5 720.5,-366.5 720.5,-347.5 544.5,-347.5"/>
<text text-anchor="middle" x="632.5" y="-354.5" font-family="Helvetica,sans-Serif" font-size="10.00">Core/Geometry/TriangleMesh.hpp</text>
</a>
</g>
</g>
<!-- Node23&#45;&gt;Node28 -->
<g id="edge41" class="edge"><title>Node23&#45;&gt;Node28</title>
<path fill="none" stroke="midnightblue" d="M550.858,-403.399C568.169,-393.773 590.976,-381.09 608.084,-371.577"/>
<polygon fill="midnightblue" stroke="midnightblue" points="609.892,-374.577 616.931,-366.658 606.49,-368.459 609.892,-374.577"/>
</g>
<!-- Node25&#45;&gt;Node14 -->
<g id="edge40" class="edge"><title>Node25&#45;&gt;Node14</title>
<path fill="none" stroke="midnightblue" d="M471.438,-235.177C459.244,-226.206 439.908,-211.837 423.5,-199 406.334,-185.57 403.829,-179.794 385.5,-168 366.027,-155.47 342.572,-143.948 324.352,-135.7"/>
<polygon fill="midnightblue" stroke="midnightblue" points="325.649,-132.446 315.089,-131.584 322.806,-138.843 325.649,-132.446"/>
</g>
<!-- Node25&#45;&gt;Node15 -->
<g id="edge39" class="edge"><title>Node25&#45;&gt;Node15</title>
<path fill="none" stroke="midnightblue" d="M553.275,-235.475C651.056,-223.529 826.823,-202.054 915.762,-191.188"/>
<polygon fill="midnightblue" stroke="midnightblue" points="916.406,-194.635 925.908,-189.948 915.557,-187.687 916.406,-194.635"/>
</g>
<!-- Node25&#45;&gt;Node16 -->
<g id="edge38" class="edge"><title>Node25&#45;&gt;Node16</title>
<path fill="none" stroke="midnightblue" d="M526.278,-235.452C555.109,-228.475 593.252,-216.815 623.5,-199 650.525,-183.083 675.906,-156.713 690.824,-139.598"/>
<polygon fill="midnightblue" stroke="midnightblue" points="693.815,-141.482 697.624,-131.596 688.481,-136.949 693.815,-141.482"/>
</g>
<!-- Node26 -->
<g id="node26" class="node"><title>Node26</title>
<g id="a_node26"><a xlink:href="AlignedStdVector_8hpp.html" target="_top" xlink:title="Core/Containers/AlignedStd\lVector.hpp">
<polygon fill="white" stroke="black" points="433,-168.5 433,-198.5 582,-198.5 582,-168.5 433,-168.5"/>
<text text-anchor="start" x="441" y="-186.5" font-family="Helvetica,sans-Serif" font-size="10.00">Core/Containers/AlignedStd</text>
<text text-anchor="middle" x="507.5" y="-175.5" font-family="Helvetica,sans-Serif" font-size="10.00">Vector.hpp</text>
</a>
</g>
</g>
<!-- Node25&#45;&gt;Node26 -->
<g id="edge34" class="edge"><title>Node25&#45;&gt;Node26</title>
<path fill="none" stroke="midnightblue" d="M486.939,-235.475C489.825,-228.32 494.089,-217.748 497.987,-208.084"/>
<polygon fill="midnightblue" stroke="midnightblue" points="501.349,-209.106 501.844,-198.523 494.857,-206.488 501.349,-209.106"/>
</g>
<!-- Node26&#45;&gt;Node14 -->
<g id="edge37" class="edge"><title>Node26&#45;&gt;Node14</title>
<path fill="none" stroke="midnightblue" d="M457.292,-168.475C417.328,-157.311 362.525,-142.002 327.812,-132.305"/>
<polygon fill="midnightblue" stroke="midnightblue" points="328.726,-128.927 318.153,-129.607 326.843,-135.669 328.726,-128.927"/>
</g>
<!-- Node26&#45;&gt;Node16 -->
<g id="edge35" class="edge"><title>Node26&#45;&gt;Node16</title>
<path fill="none" stroke="midnightblue" d="M554.186,-168.399C588.375,-158.073 634.206,-144.231 666.239,-134.556"/>
<polygon fill="midnightblue" stroke="midnightblue" points="667.561,-137.813 676.122,-131.571 665.537,-131.112 667.561,-137.813"/>
</g>
<!-- Node27 -->
<g id="node27" class="node"><title>Node27</title>
<polygon fill="white" stroke="#bfbfbf" points="461,-112.5 461,-131.5 554,-131.5 554,-112.5 461,-112.5"/>
<text text-anchor="middle" x="507.5" y="-119.5" font-family="Helvetica,sans-Serif" font-size="10.00">Eigen/StdVector</text>
</g>
<!-- Node26&#45;&gt;Node27 -->
<g id="edge36" class="edge"><title>Node26&#45;&gt;Node27</title>
<path fill="none" stroke="midnightblue" d="M507.5,-168.399C507.5,-160.466 507.5,-150.458 507.5,-141.858"/>
<polygon fill="midnightblue" stroke="midnightblue" points="511,-141.658 507.5,-131.658 504,-141.658 511,-141.658"/>
</g>
<!-- Node28&#45;&gt;Node15 -->
<g id="edge47" class="edge"><title>Node28&#45;&gt;Node15</title>
<path fill="none" stroke="midnightblue" d="M696.779,-347.475C752.424,-339.284 828.009,-325.969 854.5,-311 902.537,-283.856 941.771,-229.797 959.805,-201.96"/>
<polygon fill="midnightblue" stroke="midnightblue" points="962.898,-203.618 965.28,-193.294 956.98,-199.879 962.898,-203.618"/>
</g>
<!-- Node28&#45;&gt;Node16 -->
<g id="edge46" class="edge"><title>Node28&#45;&gt;Node16</title>
<path fill="none" stroke="midnightblue" d="M632.764,-347.374C633.676,-326.942 637.712,-274.361 655.5,-235 663.847,-216.529 674.405,-217.115 683.5,-199 692.693,-180.69 698.315,-157.812 701.399,-141.965"/>
<polygon fill="midnightblue" stroke="midnightblue" points="704.895,-142.296 703.211,-131.836 698.005,-141.063 704.895,-142.296"/>
</g>
<!-- Node28&#45;&gt;Node20 -->
<g id="edge55" class="edge"><title>Node28&#45;&gt;Node20</title>
<path fill="none" stroke="midnightblue" d="M699.367,-347.444C778.549,-337.311 909.605,-320.541 988.434,-310.454"/>
<polygon fill="midnightblue" stroke="midnightblue" points="989.252,-313.878 998.727,-309.137 988.364,-306.934 989.252,-313.878"/>
</g>
<!-- Node28&#45;&gt;Node25 -->
<g id="edge42" class="edge"><title>Node28&#45;&gt;Node25</title>
<path fill="none" stroke="midnightblue" d="M626.571,-347.468C616.917,-334.062 596.641,-307.858 574.5,-291 556.67,-277.425 534.103,-266.234 515.903,-258.407"/>
<polygon fill="midnightblue" stroke="midnightblue" points="517.143,-255.132 506.566,-254.519 514.452,-261.594 517.143,-255.132"/>
</g>
<!-- Node29 -->
<g id="node29" class="node"><title>Node29</title>
<g id="a_node29"><a xlink:href="AbstractGeometry_8hpp.html" target="_top" xlink:title="Core/Geometry/AbstractGeometry.hpp">
<polygon fill="white" stroke="black" points="665,-235.5 665,-254.5 866,-254.5 866,-235.5 665,-235.5"/>
<text text-anchor="middle" x="765.5" y="-242.5" font-family="Helvetica,sans-Serif" font-size="10.00">Core/Geometry/AbstractGeometry.hpp</text>
</a>
</g>
</g>
<!-- Node28&#45;&gt;Node29 -->
<g id="edge43" class="edge"><title>Node28&#45;&gt;Node29</title>
<path fill="none" stroke="midnightblue" d="M720.698,-347.593C769.212,-340.945 822.542,-329.598 837.5,-311 853.95,-290.547 823.681,-270.905 797.484,-258.668"/>
<polygon fill="midnightblue" stroke="midnightblue" points="798.67,-255.366 788.11,-254.507 795.83,-261.763 798.67,-255.366"/>
</g>
<!-- Node30 -->
<g id="node30" class="node"><title>Node30</title>
<g id="a_node30"><a xlink:href="Attribs_8hpp.html" target="_top" xlink:title="Core/Utils/Attribs.hpp">
<polygon fill="white" stroke="black" points="447,-291.5 447,-310.5 566,-310.5 566,-291.5 447,-291.5"/>
<text text-anchor="middle" x="506.5" y="-298.5" font-family="Helvetica,sans-Serif" font-size="10.00">Core/Utils/Attribs.hpp</text>
</a>
</g>
</g>
<!-- Node28&#45;&gt;Node30 -->
<g id="edge48" class="edge"><title>Node28&#45;&gt;Node30</title>
<path fill="none" stroke="midnightblue" d="M612.535,-347.444C591.891,-338.596 559.437,-324.687 535.868,-314.586"/>
<polygon fill="midnightblue" stroke="midnightblue" points="536.942,-311.239 526.372,-310.516 534.184,-317.673 536.942,-311.239"/>
</g>
<!-- Node34 -->
<g id="node34" class="node"><title>Node34</title>
<g id="a_node34"><a xlink:href="TriangleMesh_8inl.html" target="_top" xlink:title="Core/Geometry/TriangleMesh.inl">
<polygon fill="white" stroke="black" points="660.5,-291.5 660.5,-310.5 828.5,-310.5 828.5,-291.5 660.5,-291.5"/>
<text text-anchor="middle" x="744.5" y="-298.5" font-family="Helvetica,sans-Serif" font-size="10.00">Core/Geometry/TriangleMesh.inl</text>
</a>
</g>
</g>
<!-- Node28&#45;&gt;Node34 -->
<g id="edge56" class="edge"><title>Node28&#45;&gt;Node34</title>
<path fill="none" stroke="midnightblue" d="M645.38,-347.324C661.686,-338.546 689.795,-324.875 712.018,-314.842"/>
<polygon fill="midnightblue" stroke="midnightblue" points="713.723,-317.914 721.44,-310.655 710.88,-311.518 713.723,-317.914"/>
</g>
<!-- Node29&#45;&gt;Node15 -->
<g id="edge45" class="edge"><title>Node29&#45;&gt;Node15</title>
<path fill="none" stroke="midnightblue" d="M794.872,-235.475C830.797,-225.048 891.732,-207.362 931.544,-195.807"/>
<polygon fill="midnightblue" stroke="midnightblue" points="932.555,-199.158 941.183,-193.009 930.604,-192.435 932.555,-199.158"/>
</g>
<!-- Node29&#45;&gt;Node16 -->
<g id="edge44" class="edge"><title>Node29&#45;&gt;Node16</title>
<path fill="none" stroke="midnightblue" d="M763.14,-235.229C759.049,-220.721 749.875,-191.041 737.5,-168 732.181,-158.097 724.905,-147.926 718.538,-139.765"/>
<polygon fill="midnightblue" stroke="midnightblue" points="721.122,-137.395 712.121,-131.806 715.673,-141.788 721.122,-137.395"/>
</g>
<!-- Node30&#45;&gt;Node16 -->
<g id="edge50" class="edge"><title>Node30&#45;&gt;Node16</title>
<path fill="none" stroke="midnightblue" d="M524.697,-291.313C555.165,-276.068 617.126,-241.992 657.5,-199 674.034,-181.394 687.841,-157.093 696.122,-140.753"/>
<polygon fill="midnightblue" stroke="midnightblue" points="699.282,-142.258 700.539,-131.738 692.996,-139.178 699.282,-142.258"/>
</g>
<!-- Node30&#45;&gt;Node25 -->
<g id="edge49" class="edge"><title>Node30&#45;&gt;Node25</title>
<path fill="none" stroke="midnightblue" d="M502.702,-291.083C499.587,-283.77 495.077,-273.181 491.211,-264.103"/>
<polygon fill="midnightblue" stroke="midnightblue" points="494.366,-262.58 487.227,-254.751 487.926,-265.323 494.366,-262.58"/>
</g>
<!-- Node31 -->
<g id="node31" class="node"><title>Node31</title>
<g id="a_node31"><a xlink:href="Index_8hpp.html" target="_top" xlink:title="Core/Utils/Index.hpp">
<polygon fill="white" stroke="black" points="266,-235.5 266,-254.5 379,-254.5 379,-235.5 266,-235.5"/>
<text text-anchor="middle" x="322.5" y="-242.5" font-family="Helvetica,sans-Serif" font-size="10.00">Core/Utils/Index.hpp</text>
</a>
</g>
</g>
<!-- Node30&#45;&gt;Node31 -->
<g id="edge51" class="edge"><title>Node30&#45;&gt;Node31</title>
<path fill="none" stroke="midnightblue" d="M477.345,-291.444C445.987,-282.241 395.969,-267.562 361.303,-257.388"/>
<polygon fill="midnightblue" stroke="midnightblue" points="362.1,-253.974 351.519,-254.516 360.129,-260.691 362.1,-253.974"/>
</g>
<!-- Node31&#45;&gt;Node16 -->
<g id="edge52" class="edge"><title>Node31&#45;&gt;Node16</title>
<path fill="none" stroke="midnightblue" d="M378.403,-235.459C454.139,-223.765 581.055,-203.682 590.5,-199 608.529,-190.062 607.247,-179.866 623.5,-168 640.335,-155.709 660.878,-144.332 677.063,-136.093"/>
<polygon fill="midnightblue" stroke="midnightblue" points="678.642,-139.217 686.028,-131.621 675.518,-132.953 678.642,-139.217"/>
</g>
<!-- Node32 -->
<g id="node32" class="node"><title>Node32</title>
<polygon fill="white" stroke="#bfbfbf" points="211.5,-174 211.5,-193 253.5,-193 253.5,-174 211.5,-174"/>
<text text-anchor="middle" x="232.5" y="-181" font-family="Helvetica,sans-Serif" font-size="10.00">limits</text>
</g>
<!-- Node31&#45;&gt;Node32 -->
<g id="edge53" class="edge"><title>Node31&#45;&gt;Node32</title>
<path fill="none" stroke="midnightblue" d="M309.605,-235.475C295.036,-225.843 271.098,-210.017 253.755,-198.552"/>
<polygon fill="midnightblue" stroke="midnightblue" points="255.643,-195.604 245.371,-193.009 251.783,-201.444 255.643,-195.604"/>
</g>
<!-- Node33 -->
<g id="node33" class="node"><title>Node33</title>
<g id="a_node33"><a xlink:href="Index_8inl.html" target="_top" xlink:title="Core/Utils/Index.inl">
<polygon fill="white" stroke="black" points="272,-174 272,-193 377,-193 377,-174 272,-174"/>
<text text-anchor="middle" x="324.5" y="-181" font-family="Helvetica,sans-Serif" font-size="10.00">Core/Utils/Index.inl</text>
</a>
</g>
</g>
<!-- Node31&#45;&gt;Node33 -->
<g id="edge54" class="edge"><title>Node31&#45;&gt;Node33</title>
<path fill="none" stroke="midnightblue" d="M322.787,-235.475C323.069,-227.08 323.509,-213.981 323.873,-203.163"/>
<polygon fill="midnightblue" stroke="midnightblue" points="327.376,-203.121 324.214,-193.009 320.38,-202.886 327.376,-203.121"/>
</g>
<!-- Node34&#45;&gt;Node28 -->
<g id="edge57" class="edge"><title>Node34&#45;&gt;Node28</title>
<path fill="none" stroke="midnightblue" d="M731.916,-310.516C715.544,-319.349 686.946,-333.255 664.517,-343.368"/>
<polygon fill="midnightblue" stroke="midnightblue" points="663.055,-340.187 655.335,-347.444 665.895,-346.585 663.055,-340.187"/>
</g>
</g>
</svg>
