<?xml version="1.0" encoding="UTF-8" standalone="no"?>
<!DOCTYPE svg PUBLIC "-//W3C//DTD SVG 1.1//EN"
 "http://www.w3.org/Graphics/SVG/1.1/DTD/svg11.dtd">
<!-- Generated by graphviz version 2.38.0 (20140413.2041)
 -->
<!-- Title: /home/travis/build/STORM&#45;IRIT/Radium&#45;Engine/src/GuiBase/TimerData/FrameTimerData.cpp Pages: 1 -->
<svg width="1463pt" height="654pt"
 viewBox="0.00 0.00 1463.17 654.00" xmlns="http://www.w3.org/2000/svg" xmlns:xlink="http://www.w3.org/1999/xlink">
<g id="graph0" class="graph" transform="scale(1 1) rotate(0) translate(4 650)">
<title>/home/travis/build/STORM&#45;IRIT/Radium&#45;Engine/src/GuiBase/TimerData/FrameTimerData.cpp</title>
<polygon fill="white" stroke="none" points="-4,4 -4,-650 1459.17,-650 1459.17,4 -4,4"/>
<!-- Node1 -->
<g id="node1" class="node"><title>Node1</title>
<polygon fill="#bfbfbf" stroke="black" points="607.666,-593.5 607.666,-645.5 797.666,-645.5 797.666,-593.5 607.666,-593.5"/>
<text text-anchor="start" x="615.666" y="-633.5" font-family="Helvetica,sans-Serif" font-size="10.00">/home/travis/build</text>
<text text-anchor="start" x="615.666" y="-622.5" font-family="Helvetica,sans-Serif" font-size="10.00">/STORM&#45;IRIT/Radium&#45;Engine</text>
<text text-anchor="start" x="615.666" y="-611.5" font-family="Helvetica,sans-Serif" font-size="10.00">/src/GuiBase/TimerData/FrameTimer</text>
<text text-anchor="middle" x="702.666" y="-600.5" font-family="Helvetica,sans-Serif" font-size="10.00">Data.cpp</text>
</g>
<!-- Node2 -->
<g id="node2" class="node"><title>Node2</title>
<g id="a_node2"><a xlink:href="FrameTimerData_8hpp.html" target="_top" xlink:title="GuiBase/TimerData/FrameTimer\lData.hpp">
<polygon fill="white" stroke="black" points="617.666,-526.5 617.666,-556.5 787.666,-556.5 787.666,-526.5 617.666,-526.5"/>
<text text-anchor="start" x="625.666" y="-544.5" font-family="Helvetica,sans-Serif" font-size="10.00">GuiBase/TimerData/FrameTimer</text>
<text text-anchor="middle" x="702.666" y="-533.5" font-family="Helvetica,sans-Serif" font-size="10.00">Data.hpp</text>
</a>
</g>
</g>
<!-- Node1&#45;&gt;Node2 -->
<g id="edge1" class="edge"><title>Node1&#45;&gt;Node2</title>
<path fill="none" stroke="midnightblue" d="M702.666,-593.193C702.666,-584.786 702.666,-575.443 702.666,-567.091"/>
<polygon fill="midnightblue" stroke="midnightblue" points="706.166,-566.845 702.666,-556.845 699.166,-566.845 706.166,-566.845"/>
</g>
<!-- Node3 -->
<g id="node3" class="node"><title>Node3</title>
<g id="a_node3"><a xlink:href="RaGuiBase_8hpp.html" target="_top" xlink:title="GuiBase/RaGuiBase.hpp">
<polygon fill="white" stroke="black" points="29.666,-291.5 29.666,-310.5 161.666,-310.5 161.666,-291.5 29.666,-291.5"/>
<text text-anchor="middle" x="95.666" y="-298.5" font-family="Helvetica,sans-Serif" font-size="10.00">GuiBase/RaGuiBase.hpp</text>
</a>
</g>
</g>
<!-- Node2&#45;&gt;Node3 -->
<g id="edge2" class="edge"><title>Node2&#45;&gt;Node3</title>
<path fill="none" stroke="midnightblue" d="M617.63,-541.094C450.971,-540.17 91.4248,-527.168 20.666,-434 -9.20572,-394.668 44.8355,-342.193 75.9515,-316.889"/>
<polygon fill="midnightblue" stroke="midnightblue" points="78.3541,-319.451 84.0311,-310.506 74.0147,-313.959 78.3541,-319.451"/>
</g>
<!-- Node7 -->
<g id="node7" class="node"><title>Node7</title>
<polygon fill="white" stroke="#bfbfbf" points="1328.17,-0.5 1328.17,-19.5 1387.17,-19.5 1387.17,-0.5 1328.17,-0.5"/>
<text text-anchor="middle" x="1357.67" y="-7.5" font-family="Helvetica,sans-Serif" font-size="10.00">iostream</text>
</g>
<!-- Node2&#45;&gt;Node7 -->
<g id="edge10" class="edge"><title>Node2&#45;&gt;Node7</title>
<path fill="none" stroke="midnightblue" d="M787.91,-537.008C920.136,-530.861 1168.24,-516.209 1252.67,-490 1311.38,-471.773 1371.67,-480.974 1371.67,-419.5 1371.67,-419.5 1371.67,-419.5 1371.67,-121 1371.67,-88.5405 1365.59,-51.1213 1361.45,-29.3564"/>
<polygon fill="midnightblue" stroke="midnightblue" points="1364.87,-28.6401 1359.5,-19.5108 1358.01,-30.0003 1364.87,-28.6401"/>
</g>
<!-- Node10 -->
<g id="node10" class="node"><title>Node10</title>
<polygon fill="white" stroke="#bfbfbf" points="1400.17,-470.5 1400.17,-489.5 1455.17,-489.5 1455.17,-470.5 1400.17,-470.5"/>
<text text-anchor="middle" x="1427.67" y="-477.5" font-family="Helvetica,sans-Serif" font-size="10.00">iomanip</text>
</g>
<!-- Node2&#45;&gt;Node10 -->
<g id="edge9" class="edge"><title>Node2&#45;&gt;Node10</title>
<path fill="none" stroke="midnightblue" d="M787.72,-537.962C917.318,-533.251 1171.75,-520.679 1385.67,-490 1386.95,-489.815 1388.26,-489.614 1389.58,-489.399"/>
<polygon fill="midnightblue" stroke="midnightblue" points="1390.54,-492.782 1399.75,-487.541 1389.28,-485.896 1390.54,-492.782"/>
</g>
<!-- Node11 -->
<g id="node11" class="node"><title>Node11</title>
<g id="a_node11"><a xlink:href="TaskQueue_8hpp.html" target="_top" xlink:title="Core/Tasks/TaskQueue.hpp">
<polygon fill="white" stroke="black" points="231.166,-470.5 231.166,-489.5 374.166,-489.5 374.166,-470.5 231.166,-470.5"/>
<text text-anchor="middle" x="302.666" y="-477.5" font-family="Helvetica,sans-Serif" font-size="10.00">Core/Tasks/TaskQueue.hpp</text>
</a>
</g>
</g>
<!-- Node2&#45;&gt;Node11 -->
<g id="edge11" class="edge"><title>Node2&#45;&gt;Node11</title>
<path fill="none" stroke="midnightblue" d="M617.347,-527.809C543.472,-516.82 438.068,-501.141 370.003,-491.016"/>
<polygon fill="midnightblue" stroke="midnightblue" points="370.232,-487.512 359.825,-489.502 369.202,-494.436 370.232,-487.512"/>
</g>
<!-- Node22 -->
<g id="node22" class="node"><title>Node22</title>
<g id="a_node22"><a xlink:href="Timer_8hpp.html" target="_top" xlink:title="Core/Utils/Timer.hpp">
<polygon fill="white" stroke="black" points="471.166,-409 471.166,-428 584.166,-428 584.166,-409 471.166,-409"/>
<text text-anchor="middle" x="527.666" y="-416" font-family="Helvetica,sans-Serif" font-size="10.00">Core/Utils/Timer.hpp</text>
</a>
</g>
</g>
<!-- Node2&#45;&gt;Node22 -->
<g id="edge34" class="edge"><title>Node2&#45;&gt;Node22</title>
<path fill="none" stroke="midnightblue" d="M674.716,-526.498C656.541,-516.989 632.603,-503.695 612.666,-490 587.904,-472.991 561.611,-450.393 544.938,-435.419"/>
<polygon fill="midnightblue" stroke="midnightblue" points="546.911,-432.483 537.154,-428.353 542.206,-437.666 546.911,-432.483"/>
</g>
<!-- Node24 -->
<g id="node24" class="node"><title>Node24</title>
<g id="a_node24"><a xlink:href="Log_8hpp.html" target="_top" xlink:title="Core/Utils/Log.hpp">
<polygon fill="white" stroke="black" points="1139.67,-470.5 1139.67,-489.5 1243.67,-489.5 1243.67,-470.5 1139.67,-470.5"/>
<text text-anchor="middle" x="1191.67" y="-477.5" font-family="Helvetica,sans-Serif" font-size="10.00">Core/Utils/Log.hpp</text>
</a>
</g>
</g>
<!-- Node2&#45;&gt;Node24 -->
<g id="edge28" class="edge"><title>Node2&#45;&gt;Node24</title>
<path fill="none" stroke="midnightblue" d="M787.843,-530.136C885.364,-518.27 1042.78,-499.116 1129.46,-488.569"/>
<polygon fill="midnightblue" stroke="midnightblue" points="1129.91,-492.04 1139.41,-487.358 1129.06,-485.091 1129.91,-492.04"/>
</g>
<!-- Node27 -->
<g id="node27" class="node"><title>Node27</title>
<g id="a_node27"><a xlink:href="Renderer_8hpp.html" target="_top" xlink:title="Engine/Renderer/Renderer.hpp">
<polygon fill="white" stroke="black" points="622.166,-470.5 622.166,-489.5 783.166,-489.5 783.166,-470.5 622.166,-470.5"/>
<text text-anchor="middle" x="702.666" y="-477.5" font-family="Helvetica,sans-Serif" font-size="10.00">Engine/Renderer/Renderer.hpp</text>
</a>
</g>
</g>
<!-- Node2&#45;&gt;Node27 -->
<g id="edge35" class="edge"><title>Node2&#45;&gt;Node27</title>
<path fill="none" stroke="midnightblue" d="M702.666,-526.399C702.666,-518.466 702.666,-508.458 702.666,-499.858"/>
<polygon fill="midnightblue" stroke="midnightblue" points="706.166,-499.658 702.666,-489.658 699.166,-499.658 706.166,-499.658"/>
</g>
<!-- Node4 -->
<g id="node4" class="node"><title>Node4</title>
<g id="a_node4"><a xlink:href="CoreMacros_8hpp.html" target="_top" xlink:title="Core/CoreMacros.hpp">
<polygon fill="white" stroke="black" points="1123.67,-56.5 1123.67,-75.5 1243.67,-75.5 1243.67,-56.5 1123.67,-56.5"/>
<text text-anchor="middle" x="1183.67" y="-63.5" font-family="Helvetica,sans-Serif" font-size="10.00">Core/CoreMacros.hpp</text>
</a>
</g>
</g>
<!-- Node3&#45;&gt;Node4 -->
<g id="edge3" class="edge"><title>Node3&#45;&gt;Node4</title>
<path fill="none" stroke="midnightblue" d="M91.3715,-291.265C81.3099,-269.516 58.3982,-211.556 76.666,-168 90.4016,-135.25 101.091,-126.146 133.666,-112 222.937,-73.233 892.773,-67.828 1113.42,-67.1029"/>
<polygon fill="midnightblue" stroke="midnightblue" points="1113.59,-70.6025 1123.58,-67.0718 1113.57,-63.6025 1113.59,-70.6025"/>
</g>
<!-- Node5 -->
<g id="node5" class="node"><title>Node5</title>
<polygon fill="white" stroke="#bfbfbf" points="1165.67,-0.5 1165.67,-19.5 1217.67,-19.5 1217.67,-0.5 1165.67,-0.5"/>
<text text-anchor="middle" x="1191.67" y="-7.5" font-family="Helvetica,sans-Serif" font-size="10.00">cassert</text>
</g>
<!-- Node4&#45;&gt;Node5 -->
<g id="edge4" class="edge"><title>Node4&#45;&gt;Node5</title>
<path fill="none" stroke="midnightblue" d="M1184.99,-56.083C1186.05,-48.9272 1187.57,-38.6353 1188.9,-29.6911"/>
<polygon fill="midnightblue" stroke="midnightblue" points="1192.37,-30.1561 1190.37,-19.7511 1185.44,-29.1302 1192.37,-30.1561"/>
</g>
<!-- Node6 -->
<g id="node6" class="node"><title>Node6</title>
<polygon fill="white" stroke="#bfbfbf" points="1102.17,-0.5 1102.17,-19.5 1147.17,-19.5 1147.17,-0.5 1102.17,-0.5"/>
<text text-anchor="middle" x="1124.67" y="-7.5" font-family="Helvetica,sans-Serif" font-size="10.00">cstdio</text>
</g>
<!-- Node4&#45;&gt;Node6 -->
<g id="edge5" class="edge"><title>Node4&#45;&gt;Node6</title>
<path fill="none" stroke="midnightblue" d="M1174.19,-56.324C1165.46,-48.3414 1152.32,-36.3128 1141.77,-26.6529"/>
<polygon fill="midnightblue" stroke="midnightblue" points="1144.06,-24.0036 1134.32,-19.8339 1139.33,-29.1674 1144.06,-24.0036"/>
</g>
<!-- Node4&#45;&gt;Node7 -->
<g id="edge6" class="edge"><title>Node4&#45;&gt;Node7</title>
<path fill="none" stroke="midnightblue" d="M1211.24,-56.4435C1240.76,-47.2801 1287.78,-32.6876 1320.55,-22.5192"/>
<polygon fill="midnightblue" stroke="midnightblue" points="1321.71,-25.8232 1330.22,-19.5164 1319.64,-19.1378 1321.71,-25.8232"/>
</g>
<!-- Node8 -->
<g id="node8" class="node"><title>Node8</title>
<polygon fill="white" stroke="#bfbfbf" points="1239.67,-0.5 1239.67,-19.5 1295.67,-19.5 1295.67,-0.5 1239.67,-0.5"/>
<text text-anchor="middle" x="1267.67" y="-7.5" font-family="Helvetica,sans-Serif" font-size="10.00">sstream</text>
</g>
<!-- Node4&#45;&gt;Node8 -->
<g id="edge7" class="edge"><title>Node4&#45;&gt;Node8</title>
<path fill="none" stroke="midnightblue" d="M1197.16,-56.324C1210.27,-47.9002 1230.38,-34.9709 1245.77,-25.0741"/>
<polygon fill="midnightblue" stroke="midnightblue" points="1247.68,-28.0063 1254.2,-19.6545 1243.9,-22.118 1247.68,-28.0063"/>
</g>
<!-- Node9 -->
<g id="node9" class="node"><title>Node9</title>
<polygon fill="white" stroke="#bfbfbf" points="506.666,-0.5 506.666,-19.5 554.666,-19.5 554.666,-0.5 506.666,-0.5"/>
<text text-anchor="middle" x="530.666" y="-7.5" font-family="Helvetica,sans-Serif" font-size="10.00">thread</text>
</g>
<!-- Node4&#45;&gt;Node9 -->
<g id="edge8" class="edge"><title>Node4&#45;&gt;Node9</title>
<path fill="none" stroke="midnightblue" d="M1123.4,-60.0166C989.399,-48.935 670.254,-22.5433 564.997,-13.839"/>
<polygon fill="midnightblue" stroke="midnightblue" points="565.18,-10.3423 554.925,-13.0061 564.603,-17.3185 565.18,-10.3423"/>
</g>
<!-- Node11&#45;&gt;Node9 -->
<g id="edge19" class="edge"><title>Node11&#45;&gt;Node9</title>
<path fill="none" stroke="midnightblue" d="M230.857,-476.367C157.61,-472.182 50.5861,-461.431 20.666,-434 -4.99787,-410.471 1.66596,-392.817 1.66596,-358 1.66596,-358 1.66596,-358 1.66596,-121 1.66596,-19.574 379.137,-11.0105 496.363,-10.7965"/>
<polygon fill="midnightblue" stroke="midnightblue" points="496.561,-14.2965 506.561,-10.7983 496.562,-7.29647 496.561,-14.2965"/>
</g>
<!-- Node12 -->
<g id="node12" class="node"><title>Node12</title>
<g id="a_node12"><a xlink:href="RaCore_8hpp.html" target="_top" xlink:title="Core/RaCore.hpp">
<polygon fill="white" stroke="black" points="695.666,-112.5 695.666,-131.5 793.666,-131.5 793.666,-112.5 695.666,-112.5"/>
<text text-anchor="middle" x="744.666" y="-119.5" font-family="Helvetica,sans-Serif" font-size="10.00">Core/RaCore.hpp</text>
</a>
</g>
</g>
<!-- Node11&#45;&gt;Node12 -->
<g id="edge12" class="edge"><title>Node11&#45;&gt;Node12</title>
<path fill="none" stroke="midnightblue" d="M302.638,-470.181C303.06,-433.295 310.191,-290.731 393.666,-235 474.608,-180.96 521.82,-240.895 609.666,-199 628.422,-190.055 627.215,-179.281 644.666,-168 665.413,-154.588 690.822,-143.211 710.835,-135.251"/>
<polygon fill="midnightblue" stroke="midnightblue" points="712.125,-138.505 720.182,-131.625 709.593,-131.979 712.125,-138.505"/>
</g>
<!-- Node13 -->
<g id="node13" class="node"><title>Node13</title>
<polygon fill="white" stroke="#bfbfbf" points="30.166,-409 30.166,-428 133.166,-428 133.166,-409 30.166,-409"/>
<text text-anchor="middle" x="81.666" y="-416" font-family="Helvetica,sans-Serif" font-size="10.00">condition_variable</text>
</g>
<!-- Node11&#45;&gt;Node13 -->
<g id="edge14" class="edge"><title>Node11&#45;&gt;Node13</title>
<path fill="none" stroke="midnightblue" d="M271.002,-470.475C232.108,-460.004 166.024,-442.212 123.118,-430.66"/>
<polygon fill="midnightblue" stroke="midnightblue" points="123.837,-427.229 113.271,-428.009 122.017,-433.989 123.837,-427.229"/>
</g>
<!-- Node14 -->
<g id="node14" class="node"><title>Node14</title>
<polygon fill="white" stroke="#bfbfbf" points="151.166,-409 151.166,-428 198.166,-428 198.166,-409 151.166,-409"/>
<text text-anchor="middle" x="174.666" y="-416" font-family="Helvetica,sans-Serif" font-size="10.00">deque</text>
</g>
<!-- Node11&#45;&gt;Node14 -->
<g id="edge15" class="edge"><title>Node11&#45;&gt;Node14</title>
<path fill="none" stroke="midnightblue" d="M284.327,-470.475C262.845,-460.49 227.044,-443.848 202.218,-432.307"/>
<polygon fill="midnightblue" stroke="midnightblue" points="203.515,-429.051 192.971,-428.009 200.564,-435.398 203.515,-429.051"/>
</g>
<!-- Node15 -->
<g id="node15" class="node"><title>Node15</title>
<polygon fill="white" stroke="#bfbfbf" points="331.166,-409 331.166,-428 388.166,-428 388.166,-409 331.166,-409"/>
<text text-anchor="middle" x="359.666" y="-416" font-family="Helvetica,sans-Serif" font-size="10.00">memory</text>
</g>
<!-- Node11&#45;&gt;Node15 -->
<g id="edge16" class="edge"><title>Node11&#45;&gt;Node15</title>
<path fill="none" stroke="midnightblue" d="M310.833,-470.475C319.552,-461.373 333.57,-446.741 344.355,-435.483"/>
<polygon fill="midnightblue" stroke="midnightblue" points="347.124,-437.651 351.514,-428.009 342.069,-432.809 347.124,-437.651"/>
</g>
<!-- Node16 -->
<g id="node16" class="node"><title>Node16</title>
<polygon fill="white" stroke="#bfbfbf" points="406.166,-409 406.166,-428 453.166,-428 453.166,-409 406.166,-409"/>
<text text-anchor="middle" x="429.666" y="-416" font-family="Helvetica,sans-Serif" font-size="10.00">mutex</text>
</g>
<!-- Node11&#45;&gt;Node16 -->
<g id="edge17" class="edge"><title>Node11&#45;&gt;Node16</title>
<path fill="none" stroke="midnightblue" d="M320.862,-470.475C342.175,-460.49 377.697,-443.848 402.329,-432.307"/>
<polygon fill="midnightblue" stroke="midnightblue" points="403.933,-435.421 411.504,-428.009 400.963,-429.082 403.933,-435.421"/>
</g>
<!-- Node17 -->
<g id="node17" class="node"><title>Node17</title>
<polygon fill="white" stroke="#bfbfbf" points="1019.67,-409 1019.67,-428 1063.67,-428 1063.67,-409 1019.67,-409"/>
<text text-anchor="middle" x="1041.67" y="-416" font-family="Helvetica,sans-Serif" font-size="10.00">string</text>
</g>
<!-- Node11&#45;&gt;Node17 -->
<g id="edge18" class="edge"><title>Node11&#45;&gt;Node17</title>
<path fill="none" stroke="midnightblue" d="M374.196,-473.241C530.718,-460.639 898.467,-431.03 1009.42,-422.096"/>
<polygon fill="midnightblue" stroke="midnightblue" points="1009.94,-425.566 1019.63,-421.274 1009.38,-418.588 1009.94,-425.566"/>
</g>
<!-- Node18 -->
<g id="node18" class="node"><title>Node18</title>
<polygon fill="white" stroke="#bfbfbf" points="143.166,-112.5 143.166,-131.5 190.166,-131.5 190.166,-112.5 143.166,-112.5"/>
<text text-anchor="middle" x="166.666" y="-119.5" font-family="Helvetica,sans-Serif" font-size="10.00">vector</text>
</g>
<!-- Node11&#45;&gt;Node18 -->
<g id="edge20" class="edge"><title>Node11&#45;&gt;Node18</title>
<path fill="none" stroke="midnightblue" d="M297.667,-470.11C281.584,-441.948 228.823,-352.916 170.666,-291 153.131,-272.331 138.944,-276.902 125.666,-255 105.461,-221.672 98.464,-203.447 114.666,-168 120.443,-155.36 131.718,-144.911 142.297,-137.274"/>
<polygon fill="midnightblue" stroke="midnightblue" points="144.515,-140.001 150.883,-131.533 140.624,-134.182 144.515,-140.001"/>
</g>
<!-- Node19 -->
<g id="node19" class="node"><title>Node19</title>
<g id="a_node19"><a xlink:href="Index_8hpp.html" target="_top" xlink:title="Core/Utils/Index.hpp">
<polygon fill="white" stroke="black" points="218.166,-235.5 218.166,-254.5 331.166,-254.5 331.166,-235.5 218.166,-235.5"/>
<text text-anchor="middle" x="274.666" y="-242.5" font-family="Helvetica,sans-Serif" font-size="10.00">Core/Utils/Index.hpp</text>
</a>
</g>
</g>
<!-- Node11&#45;&gt;Node19 -->
<g id="edge21" class="edge"><title>Node11&#45;&gt;Node19</title>
<path fill="none" stroke="midnightblue" d="M299.268,-470.187C295.969,-461.223 291.112,-446.86 288.666,-434 277.067,-373.025 274.97,-299.222 274.662,-265.057"/>
<polygon fill="midnightblue" stroke="midnightblue" points="278.161,-264.695 274.615,-254.711 271.161,-264.727 278.161,-264.695"/>
</g>
<!-- Node11&#45;&gt;Node22 -->
<g id="edge25" class="edge"><title>Node11&#45;&gt;Node22</title>
<path fill="none" stroke="midnightblue" d="M334.903,-470.475C374.584,-459.982 442.065,-442.137 485.74,-430.587"/>
<polygon fill="midnightblue" stroke="midnightblue" points="486.716,-433.949 495.489,-428.009 484.926,-427.182 486.716,-433.949"/>
</g>
<!-- Node12&#45;&gt;Node4 -->
<g id="edge13" class="edge"><title>Node12&#45;&gt;Node4</title>
<path fill="none" stroke="midnightblue" d="M793.747,-114.963C871.628,-105.383 1023.83,-86.6604 1113.31,-75.6544"/>
<polygon fill="midnightblue" stroke="midnightblue" points="1113.87,-79.112 1123.37,-74.4173 1113.01,-72.1644 1113.87,-79.112"/>
</g>
<!-- Node19&#45;&gt;Node12 -->
<g id="edge22" class="edge"><title>Node19&#45;&gt;Node12</title>
<path fill="none" stroke="midnightblue" d="M331.369,-236.167C414.939,-224.522 562.561,-203.526 573.666,-199 595.483,-190.108 595.783,-178.908 616.666,-168 644.038,-153.703 676.943,-142.248 702.536,-134.473"/>
<polygon fill="midnightblue" stroke="midnightblue" points="703.72,-137.773 712.311,-131.574 701.729,-131.062 703.72,-137.773"/>
</g>
<!-- Node20 -->
<g id="node20" class="node"><title>Node20</title>
<polygon fill="white" stroke="#bfbfbf" points="194.666,-174 194.666,-193 236.666,-193 236.666,-174 194.666,-174"/>
<text text-anchor="middle" x="215.666" y="-181" font-family="Helvetica,sans-Serif" font-size="10.00">limits</text>
</g>
<!-- Node19&#45;&gt;Node20 -->
<g id="edge23" class="edge"><title>Node19&#45;&gt;Node20</title>
<path fill="none" stroke="midnightblue" d="M266.213,-235.475C257.1,-226.285 242.396,-211.456 231.19,-200.156"/>
<polygon fill="midnightblue" stroke="midnightblue" points="233.63,-197.646 224.104,-193.009 228.659,-202.574 233.63,-197.646"/>
</g>
<!-- Node21 -->
<g id="node21" class="node"><title>Node21</title>
<g id="a_node21"><a xlink:href="Index_8inl.html" target="_top" xlink:title="Core/Utils/Index.inl">
<polygon fill="white" stroke="black" points="255.166,-174 255.166,-193 360.166,-193 360.166,-174 255.166,-174"/>
<text text-anchor="middle" x="307.666" y="-181" font-family="Helvetica,sans-Serif" font-size="10.00">Core/Utils/Index.inl</text>
</a>
</g>
</g>
<!-- Node19&#45;&gt;Node21 -->
<g id="edge24" class="edge"><title>Node19&#45;&gt;Node21</title>
<path fill="none" stroke="midnightblue" d="M279.394,-235.475C284.246,-226.727 291.932,-212.869 298.066,-201.809"/>
<polygon fill="midnightblue" stroke="midnightblue" points="301.157,-203.452 302.947,-193.009 295.036,-200.057 301.157,-203.452"/>
</g>
<!-- Node22&#45;&gt;Node12 -->
<g id="edge26" class="edge"><title>Node22&#45;&gt;Node12</title>
<path fill="none" stroke="midnightblue" d="M493.709,-408.97C459.077,-399.502 408.879,-383.385 397.666,-367 375.628,-334.797 318.312,-332.235 416.666,-235 489.621,-162.875 551.012,-240.874 644.666,-199 664.564,-190.104 665.395,-181.296 682.666,-168 696.235,-157.554 711.838,-146.233 723.996,-137.559"/>
<polygon fill="midnightblue" stroke="midnightblue" points="726.035,-140.405 732.163,-131.762 721.982,-134.697 726.035,-140.405"/>
</g>
<!-- Node23 -->
<g id="node23" class="node"><title>Node23</title>
<polygon fill="white" stroke="#bfbfbf" points="406.666,-347.5 406.666,-366.5 456.666,-366.5 456.666,-347.5 406.666,-347.5"/>
<text text-anchor="middle" x="431.666" y="-354.5" font-family="Helvetica,sans-Serif" font-size="10.00">chrono</text>
</g>
<!-- Node22&#45;&gt;Node23 -->
<g id="edge27" class="edge"><title>Node22&#45;&gt;Node23</title>
<path fill="none" stroke="midnightblue" d="M513.911,-408.975C498.3,-399.299 472.603,-383.372 454.083,-371.894"/>
<polygon fill="midnightblue" stroke="midnightblue" points="455.739,-368.802 445.395,-366.509 452.051,-374.752 455.739,-368.802"/>
</g>
<!-- Node24&#45;&gt;Node8 -->
<g id="edge31" class="edge"><title>Node24&#45;&gt;Node8</title>
<path fill="none" stroke="midnightblue" d="M1208.67,-470.423C1222.29,-462.7 1240.83,-450.096 1251.67,-434 1271.17,-405.022 1271.67,-392.928 1271.67,-358 1271.67,-358 1271.67,-358 1271.67,-121 1271.67,-88.9268 1269.95,-51.628 1268.76,-29.7413"/>
<polygon fill="midnightblue" stroke="midnightblue" points="1272.25,-29.3413 1268.19,-19.5539 1265.26,-29.7349 1272.25,-29.3413"/>
</g>
<!-- Node24&#45;&gt;Node12 -->
<g id="edge29" class="edge"><title>Node24&#45;&gt;Node12</title>
<path fill="none" stroke="midnightblue" d="M1189.7,-470.224C1183.58,-443.661 1164.19,-364.852 1145.67,-347 1106.49,-309.244 1067.14,-349.471 1028.67,-311 981.646,-263.98 1034.27,-212.286 984.666,-168 958.53,-144.666 866.084,-132.703 803.857,-127.156"/>
<polygon fill="midnightblue" stroke="midnightblue" points="804.026,-123.658 793.763,-126.289 803.426,-130.632 804.026,-123.658"/>
</g>
<!-- Node24&#45;&gt;Node17 -->
<g id="edge33" class="edge"><title>Node24&#45;&gt;Node17</title>
<path fill="none" stroke="midnightblue" d="M1170.17,-470.475C1144.56,-460.313 1101.56,-443.256 1072.42,-431.7"/>
<polygon fill="midnightblue" stroke="midnightblue" points="1073.7,-428.443 1063.12,-428.009 1071.12,-434.95 1073.7,-428.443"/>
</g>
<!-- Node25 -->
<g id="node25" class="node"><title>Node25</title>
<polygon fill="white" stroke="#bfbfbf" points="1299.67,-409 1299.67,-428 1343.67,-428 1343.67,-409 1299.67,-409"/>
<text text-anchor="middle" x="1321.67" y="-416" font-family="Helvetica,sans-Serif" font-size="10.00">ctime</text>
</g>
<!-- Node24&#45;&gt;Node25 -->
<g id="edge30" class="edge"><title>Node24&#45;&gt;Node25</title>
<path fill="none" stroke="midnightblue" d="M1210.29,-470.475C1232.11,-460.49 1268.47,-443.848 1293.68,-432.307"/>
<polygon fill="midnightblue" stroke="midnightblue" points="1295.44,-435.353 1303.07,-428.009 1292.53,-428.988 1295.44,-435.353"/>
</g>
<!-- Node26 -->
<g id="node26" class="node"><title>Node26</title>
<polygon fill="white" stroke="#bfbfbf" points="1194.17,-409 1194.17,-428 1243.17,-428 1243.17,-409 1194.17,-409"/>
<text text-anchor="middle" x="1218.67" y="-416" font-family="Helvetica,sans-Serif" font-size="10.00">stdio.h</text>
</g>
<!-- Node24&#45;&gt;Node26 -->
<g id="edge32" class="edge"><title>Node24&#45;&gt;Node26</title>
<path fill="none" stroke="midnightblue" d="M1195.53,-470.475C1199.46,-461.815 1205.67,-448.149 1210.66,-437.145"/>
<polygon fill="midnightblue" stroke="midnightblue" points="1213.86,-438.562 1214.8,-428.009 1207.49,-435.669 1213.86,-438.562"/>
</g>
<!-- Node27&#45;&gt;Node15 -->
<g id="edge40" class="edge"><title>Node27&#45;&gt;Node15</title>
<path fill="none" stroke="midnightblue" d="M622.085,-472.202C559.786,-465.738 471.784,-453.963 396.666,-434 394.007,-433.293 391.279,-432.455 388.567,-431.543"/>
<polygon fill="midnightblue" stroke="midnightblue" points="389.568,-428.182 378.975,-428.023 387.157,-434.754 389.568,-428.182"/>
</g>
<!-- Node27&#45;&gt;Node16 -->
<g id="edge41" class="edge"><title>Node27&#45;&gt;Node16</title>
<path fill="none" stroke="midnightblue" d="M632.76,-470.489C584.061,-463.465 517.997,-451.736 461.666,-434 459.79,-433.409 457.878,-432.737 455.971,-432.014"/>
<polygon fill="midnightblue" stroke="midnightblue" points="457.215,-428.741 446.639,-428.106 454.511,-435.197 457.215,-428.741"/>
</g>
<!-- Node27&#45;&gt;Node18 -->
<g id="edge42" class="edge"><title>Node27&#45;&gt;Node18</title>
<path fill="none" stroke="midnightblue" d="M686.042,-470.439C670.22,-461.999 646.02,-448.318 626.666,-434 610.226,-421.838 610.981,-412.095 592.666,-403 513.732,-363.802 480.803,-396.245 397.666,-367 298.621,-332.159 259.94,-333.009 189.666,-255 161.34,-223.556 161.659,-170.137 164.214,-141.858"/>
<polygon fill="midnightblue" stroke="midnightblue" points="167.715,-142.047 165.329,-131.725 160.757,-141.282 167.715,-142.047"/>
</g>
<!-- Node27&#45;&gt;Node22 -->
<g id="edge53" class="edge"><title>Node27&#45;&gt;Node22</title>
<path fill="none" stroke="midnightblue" d="M677.593,-470.475C647.314,-460.18 596.226,-442.81 562.225,-431.25"/>
<polygon fill="midnightblue" stroke="midnightblue" points="563.287,-427.914 552.693,-428.009 561.034,-434.542 563.287,-427.914"/>
</g>
<!-- Node27&#45;&gt;Node23 -->
<g id="edge39" class="edge"><title>Node27&#45;&gt;Node23</title>
<path fill="none" stroke="midnightblue" d="M696.666,-470.381C685.084,-454.434 658.002,-420.368 626.666,-403 626.666,-403 522.763,-379.022 466.646,-366.072"/>
<polygon fill="midnightblue" stroke="midnightblue" points="467.291,-362.629 456.76,-363.791 465.716,-369.45 467.291,-362.629"/>
</g>
<!-- Node28 -->
<g id="node28" class="node"><title>Node28</title>
<g id="a_node28"><a xlink:href="RaEngine_8hpp.html" target="_top" xlink:title="Engine/RaEngine.hpp">
<polygon fill="white" stroke="black" points="1020.17,-347.5 1020.17,-366.5 1137.17,-366.5 1137.17,-347.5 1020.17,-347.5"/>
<text text-anchor="middle" x="1078.67" y="-354.5" font-family="Helvetica,sans-Serif" font-size="10.00">Engine/RaEngine.hpp</text>
</a>
</g>
</g>
<!-- Node27&#45;&gt;Node28 -->
<g id="edge36" class="edge"><title>Node27&#45;&gt;Node28</title>
<path fill="none" stroke="midnightblue" d="M783.586,-474.529C886.419,-468.038 1053.02,-454.495 1072.67,-434 1087.02,-419.03 1086.05,-393.916 1083.14,-376.682"/>
<polygon fill="midnightblue" stroke="midnightblue" points="1086.52,-375.774 1081.09,-366.681 1079.67,-377.181 1086.52,-375.774"/>
</g>
<!-- Node29 -->
<g id="node29" class="node"><title>Node29</title>
<polygon fill="white" stroke="#bfbfbf" points="884.166,-347.5 884.166,-366.5 925.166,-366.5 925.166,-347.5 884.166,-347.5"/>
<text text-anchor="middle" x="904.666" y="-354.5" font-family="Helvetica,sans-Serif" font-size="10.00">array</text>
</g>
<!-- Node27&#45;&gt;Node29 -->
<g id="edge38" class="edge"><title>Node27&#45;&gt;Node29</title>
<path fill="none" stroke="midnightblue" d="M748.951,-470.425C776.915,-463.697 812.316,-452.324 839.666,-434 862.911,-418.426 882.649,-392.342 894.083,-375.152"/>
<polygon fill="midnightblue" stroke="midnightblue" points="897.091,-376.946 899.551,-366.641 891.201,-373.163 897.091,-376.946"/>
</g>
<!-- Node30 -->
<g id="node30" class="node"><title>Node30</title>
<g id="a_node30"><a xlink:href="Types_8hpp.html" target="_top" xlink:title="Core/Types.hpp">
<polygon fill="white" stroke="black" points="887.166,-174 887.166,-193 976.166,-193 976.166,-174 887.166,-174"/>
<text text-anchor="middle" x="931.666" y="-181" font-family="Helvetica,sans-Serif" font-size="10.00">Core/Types.hpp</text>
</a>
</g>
</g>
<!-- Node27&#45;&gt;Node30 -->
<g id="edge43" class="edge"><title>Node27&#45;&gt;Node30</title>
<path fill="none" stroke="midnightblue" d="M768.62,-470.457C826.976,-458.723 906.9,-431.17 933.666,-367 956.899,-311.299 944.453,-237.458 936.559,-203.304"/>
<polygon fill="midnightblue" stroke="midnightblue" points="939.894,-202.206 934.115,-193.326 933.095,-203.872 939.894,-202.206"/>
</g>
<!-- Node34 -->
<g id="node34" class="node"><title>Node34</title>
<g id="a_node34"><a xlink:href="Color_8hpp.html" target="_top" xlink:title="Core/Utils/Color.hpp">
<polygon fill="white" stroke="black" points="1038.17,-291.5 1038.17,-310.5 1149.17,-310.5 1149.17,-291.5 1038.17,-291.5"/>
<text text-anchor="middle" x="1093.67" y="-298.5" font-family="Helvetica,sans-Serif" font-size="10.00">Core/Utils/Color.hpp</text>
</a>
</g>
</g>
<!-- Node27&#45;&gt;Node34 -->
<g id="edge48" class="edge"><title>Node27&#45;&gt;Node34</title>
<path fill="none" stroke="midnightblue" d="M783.264,-473.331C850.259,-467.19 939.078,-455.284 967.666,-434 1002.26,-408.243 980.749,-378.069 1010.67,-347 1024.35,-332.787 1043.52,-321.991 1059.99,-314.541"/>
<polygon fill="midnightblue" stroke="midnightblue" points="1061.5,-317.7 1069.31,-310.54 1058.74,-311.268 1061.5,-317.7"/>
</g>
<!-- Node36 -->
<g id="node36" class="node"><title>Node36</title>
<g id="a_node36"><a xlink:href="DisplayableObject_8hpp.html" target="_top" xlink:title="Engine/Renderer/Displayable\l/DisplayableObject.hpp">
<polygon fill="white" stroke="black" points="678.666,-403.5 678.666,-433.5 830.666,-433.5 830.666,-403.5 678.666,-403.5"/>
<text text-anchor="start" x="686.666" y="-421.5" font-family="Helvetica,sans-Serif" font-size="10.00">Engine/Renderer/Displayable</text>
<text text-anchor="middle" x="754.666" y="-410.5" font-family="Helvetica,sans-Serif" font-size="10.00">/DisplayableObject.hpp</text>
</a>
</g>
</g>
<!-- Node27&#45;&gt;Node36 -->
<g id="edge54" class="edge"><title>Node27&#45;&gt;Node36</title>
<path fill="none" stroke="midnightblue" d="M710.116,-470.475C716.764,-462.869 726.788,-451.399 735.644,-441.265"/>
<polygon fill="midnightblue" stroke="midnightblue" points="738.465,-443.356 742.411,-433.523 733.195,-438.749 738.465,-443.356"/>
</g>
<!-- Node28&#45;&gt;Node4 -->
<g id="edge37" class="edge"><title>Node28&#45;&gt;Node4</title>
<path fill="none" stroke="midnightblue" d="M1115.01,-347.389C1160.82,-334.118 1233.67,-303.911 1233.67,-246 1233.67,-246 1233.67,-246 1233.67,-182.5 1233.67,-145.004 1211.2,-105.878 1196.39,-84.156"/>
<polygon fill="midnightblue" stroke="midnightblue" points="1199.04,-81.8557 1190.41,-75.7177 1193.33,-85.9013 1199.04,-81.8557"/>
</g>
<!-- Node30&#45;&gt;Node12 -->
<g id="edge44" class="edge"><title>Node30&#45;&gt;Node12</title>
<path fill="none" stroke="midnightblue" d="M904.873,-173.975C872.38,-163.636 817.458,-146.161 781.128,-134.602"/>
<polygon fill="midnightblue" stroke="midnightblue" points="781.999,-131.206 771.409,-131.509 779.877,-137.876 781.999,-131.206"/>
</g>
<!-- Node31 -->
<g id="node31" class="node"><title>Node31</title>
<polygon fill="white" stroke="#bfbfbf" points="987.666,-112.5 987.666,-131.5 1055.67,-131.5 1055.67,-112.5 987.666,-112.5"/>
<text text-anchor="middle" x="1021.67" y="-119.5" font-family="Helvetica,sans-Serif" font-size="10.00">Eigen/Core</text>
</g>
<!-- Node30&#45;&gt;Node31 -->
<g id="edge45" class="edge"><title>Node30&#45;&gt;Node31</title>
<path fill="none" stroke="midnightblue" d="M944.561,-173.975C959.13,-164.343 983.068,-148.517 1000.41,-137.052"/>
<polygon fill="midnightblue" stroke="midnightblue" points="1002.38,-139.944 1008.8,-131.509 998.523,-134.104 1002.38,-139.944"/>
</g>
<!-- Node32 -->
<g id="node32" class="node"><title>Node32</title>
<polygon fill="white" stroke="#bfbfbf" points="1073.67,-112.5 1073.67,-131.5 1167.67,-131.5 1167.67,-112.5 1073.67,-112.5"/>
<text text-anchor="middle" x="1120.67" y="-119.5" font-family="Helvetica,sans-Serif" font-size="10.00">Eigen/Geometry</text>
</g>
<!-- Node30&#45;&gt;Node32 -->
<g id="edge46" class="edge"><title>Node30&#45;&gt;Node32</title>
<path fill="none" stroke="midnightblue" d="M958.745,-173.975C991.586,-163.636 1047.1,-146.161 1083.81,-134.602"/>
<polygon fill="midnightblue" stroke="midnightblue" points="1085.15,-137.85 1093.64,-131.509 1083.05,-131.174 1085.15,-137.85"/>
</g>
<!-- Node33 -->
<g id="node33" class="node"><title>Node33</title>
<polygon fill="white" stroke="#bfbfbf" points="889.666,-112.5 889.666,-131.5 969.666,-131.5 969.666,-112.5 889.666,-112.5"/>
<text text-anchor="middle" x="929.666" y="-119.5" font-family="Helvetica,sans-Serif" font-size="10.00">Eigen/Sparse</text>
</g>
<!-- Node30&#45;&gt;Node33 -->
<g id="edge47" class="edge"><title>Node30&#45;&gt;Node33</title>
<path fill="none" stroke="midnightblue" d="M931.379,-173.975C931.097,-165.58 930.657,-152.481 930.293,-141.663"/>
<polygon fill="midnightblue" stroke="midnightblue" points="933.786,-141.386 929.952,-131.509 926.79,-141.621 933.786,-141.386"/>
</g>
<!-- Node34&#45;&gt;Node4 -->
<g id="edge49" class="edge"><title>Node34&#45;&gt;Node4</title>
<path fill="none" stroke="midnightblue" d="M1110.02,-291.353C1123.08,-283.588 1140.76,-270.962 1150.67,-255 1184.26,-200.864 1186.01,-122.002 1184.8,-86.0895"/>
<polygon fill="midnightblue" stroke="midnightblue" points="1188.27,-85.4824 1184.31,-75.6549 1181.28,-85.8061 1188.27,-85.4824"/>
</g>
<!-- Node34&#45;&gt;Node31 -->
<g id="edge50" class="edge"><title>Node34&#45;&gt;Node31</title>
<path fill="none" stroke="midnightblue" d="M1096.78,-291.364C1100.87,-278.698 1106.84,-254.474 1100.67,-235 1088.34,-196.127 1057.11,-159.105 1037.81,-138.878"/>
<polygon fill="midnightblue" stroke="midnightblue" points="1040.09,-136.207 1030.6,-131.513 1035.09,-141.106 1040.09,-136.207"/>
</g>
<!-- Node34&#45;&gt;Node32 -->
<g id="edge51" class="edge"><title>Node34&#45;&gt;Node32</title>
<path fill="none" stroke="midnightblue" d="M1104.93,-291.427C1114.63,-283.275 1127.95,-270.046 1133.67,-255 1148.27,-216.579 1136.19,-167.562 1127.54,-141.404"/>
<polygon fill="midnightblue" stroke="midnightblue" points="1130.74,-139.966 1124.12,-131.691 1124.14,-142.286 1130.74,-139.966"/>
</g>
<!-- Node35 -->
<g id="node35" class="node"><title>Node35</title>
<polygon fill="white" stroke="#bfbfbf" points="1037.67,-235.5 1037.67,-254.5 1091.67,-254.5 1091.67,-235.5 1037.67,-235.5"/>
<text text-anchor="middle" x="1064.67" y="-242.5" font-family="Helvetica,sans-Serif" font-size="10.00">random</text>
</g>
<!-- Node34&#45;&gt;Node35 -->
<g id="edge52" class="edge"><title>Node34&#45;&gt;Node35</title>
<path fill="none" stroke="midnightblue" d="M1088.88,-291.083C1084.91,-283.691 1079.14,-272.953 1074.23,-263.811"/>
<polygon fill="midnightblue" stroke="midnightblue" points="1077.18,-261.905 1069.37,-254.751 1071.01,-265.217 1077.18,-261.905"/>
</g>
<!-- Node36&#45;&gt;Node18 -->
<g id="edge58" class="edge"><title>Node36&#45;&gt;Node18</title>
<path fill="none" stroke="midnightblue" d="M683.981,-403.461C640.347,-394.273 583.394,-381.341 533.666,-367 435.479,-338.685 413.363,-324.047 316.666,-291 268.788,-274.637 245.638,-289.541 208.666,-255 176.54,-224.987 168.879,-170.525 167.124,-141.838"/>
<polygon fill="midnightblue" stroke="midnightblue" points="170.61,-141.422 166.687,-131.58 163.616,-141.72 170.61,-141.422"/>
</g>
<!-- Node36&#45;&gt;Node28 -->
<g id="edge55" class="edge"><title>Node36&#45;&gt;Node28</title>
<path fill="none" stroke="midnightblue" d="M831.039,-403.475C889.743,-392.694 969.498,-378.048 1022.45,-368.323"/>
<polygon fill="midnightblue" stroke="midnightblue" points="1023.14,-371.755 1032.35,-366.506 1021.88,-364.87 1023.14,-371.755"/>
</g>
<!-- Node36&#45;&gt;Node29 -->
<g id="edge56" class="edge"><title>Node36&#45;&gt;Node29</title>
<path fill="none" stroke="midnightblue" d="M790.214,-403.399C815.95,-393.19 850.352,-379.545 874.699,-369.887"/>
<polygon fill="midnightblue" stroke="midnightblue" points="876.136,-373.082 884.141,-366.142 873.555,-366.576 876.136,-373.082"/>
</g>
<!-- Node36&#45;&gt;Node34 -->
<g id="edge81" class="edge"><title>Node36&#45;&gt;Node34</title>
<path fill="none" stroke="midnightblue" d="M777.698,-403.418C809.62,-383.986 864.545,-350.89 874.666,-347 924.246,-327.945 983.395,-316.404 1027.72,-309.788"/>
<polygon fill="midnightblue" stroke="midnightblue" points="1028.4,-313.226 1037.79,-308.33 1027.4,-306.298 1028.4,-313.226"/>
</g>
<!-- Node37 -->
<g id="node37" class="node"><title>Node37</title>
<polygon fill="white" stroke="#bfbfbf" points="595.666,-347.5 595.666,-366.5 633.666,-366.5 633.666,-347.5 595.666,-347.5"/>
<text text-anchor="middle" x="614.666" y="-354.5" font-family="Helvetica,sans-Serif" font-size="10.00">map</text>
</g>
<!-- Node36&#45;&gt;Node37 -->
<g id="edge57" class="edge"><title>Node36&#45;&gt;Node37</title>
<path fill="none" stroke="midnightblue" d="M721.488,-403.399C697.681,-393.281 665.929,-379.787 643.243,-370.145"/>
<polygon fill="midnightblue" stroke="midnightblue" points="644.395,-366.832 633.823,-366.142 641.657,-373.274 644.395,-366.832"/>
</g>
<!-- Node38 -->
<g id="node38" class="node"><title>Node38</title>
<g id="a_node38"><a xlink:href="VectorArray_8hpp.html" target="_top" xlink:title="Core/Containers/VectorArray.hpp">
<polygon fill="white" stroke="black" points="426.166,-235.5 426.166,-254.5 599.166,-254.5 599.166,-235.5 426.166,-235.5"/>
<text text-anchor="middle" x="512.666" y="-242.5" font-family="Helvetica,sans-Serif" font-size="10.00">Core/Containers/VectorArray.hpp</text>
</a>
</g>
</g>
<!-- Node36&#45;&gt;Node38 -->
<g id="edge59" class="edge"><title>Node36&#45;&gt;Node38</title>
<path fill="none" stroke="midnightblue" d="M692.863,-403.439C660.428,-394.947 620.506,-382.709 586.666,-367 545.295,-347.796 522.405,-351.097 500.666,-311 492.734,-296.369 497.641,-277.454 503.385,-263.804"/>
<polygon fill="midnightblue" stroke="midnightblue" points="506.648,-265.089 507.742,-254.551 500.315,-262.107 506.648,-265.089"/>
</g>
<!-- Node41 -->
<g id="node41" class="node"><title>Node41</title>
<g id="a_node41"><a xlink:href="TriangleMesh_8hpp.html" target="_top" xlink:title="Core/Geometry/TriangleMesh.hpp">
<polygon fill="white" stroke="black" points="651.666,-347.5 651.666,-366.5 827.666,-366.5 827.666,-347.5 651.666,-347.5"/>
<text text-anchor="middle" x="739.666" y="-354.5" font-family="Helvetica,sans-Serif" font-size="10.00">Core/Geometry/TriangleMesh.hpp</text>
</a>
</g>
</g>
<!-- Node36&#45;&gt;Node41 -->
<g id="edge67" class="edge"><title>Node36&#45;&gt;Node41</title>
<path fill="none" stroke="midnightblue" d="M751.111,-403.399C749.089,-395.377 746.531,-385.233 744.347,-376.569"/>
<polygon fill="midnightblue" stroke="midnightblue" points="747.687,-375.499 741.849,-366.658 740.899,-377.21 747.687,-375.499"/>
</g>
<!-- Node38&#45;&gt;Node12 -->
<g id="edge64" class="edge"><title>Node38&#45;&gt;Node12</title>
<path fill="none" stroke="midnightblue" d="M583.296,-235.48C615.53,-229.133 653.029,-218.107 682.666,-199 705.636,-184.191 724.174,-158.078 734.809,-140.656"/>
<polygon fill="midnightblue" stroke="midnightblue" points="738.105,-141.953 740.131,-131.553 732.062,-138.42 738.105,-141.953"/>
</g>
<!-- Node38&#45;&gt;Node18 -->
<g id="edge66" class="edge"><title>Node38&#45;&gt;Node18</title>
<path fill="none" stroke="midnightblue" d="M486.843,-235.37C464.749,-227.449 432.514,-214.596 406.666,-199 388.004,-187.74 388.275,-177.515 368.666,-168 313.356,-141.163 241.742,-130.098 200.328,-125.71"/>
<polygon fill="midnightblue" stroke="midnightblue" points="200.526,-122.213 190.23,-124.71 199.836,-129.179 200.526,-122.213"/>
</g>
<!-- Node38&#45;&gt;Node30 -->
<g id="edge65" class="edge"><title>Node38&#45;&gt;Node30</title>
<path fill="none" stroke="midnightblue" d="M572.698,-235.475C654.125,-223.912 798.409,-203.423 876.975,-192.266"/>
<polygon fill="midnightblue" stroke="midnightblue" points="877.739,-195.693 887.148,-190.822 876.755,-188.763 877.739,-195.693"/>
</g>
<!-- Node39 -->
<g id="node39" class="node"><title>Node39</title>
<g id="a_node39"><a xlink:href="AlignedStdVector_8hpp.html" target="_top" xlink:title="Core/Containers/AlignedStd\lVector.hpp">
<polygon fill="white" stroke="black" points="416.166,-168.5 416.166,-198.5 565.166,-198.5 565.166,-168.5 416.166,-168.5"/>
<text text-anchor="start" x="424.166" y="-186.5" font-family="Helvetica,sans-Serif" font-size="10.00">Core/Containers/AlignedStd</text>
<text text-anchor="middle" x="490.666" y="-175.5" font-family="Helvetica,sans-Serif" font-size="10.00">Vector.hpp</text>
</a>
</g>
</g>
<!-- Node38&#45;&gt;Node39 -->
<g id="edge60" class="edge"><title>Node38&#45;&gt;Node39</title>
<path fill="none" stroke="midnightblue" d="M509.514,-235.475C506.868,-228.32 502.959,-217.748 499.386,-208.084"/>
<polygon fill="midnightblue" stroke="midnightblue" points="502.602,-206.689 495.851,-198.523 496.036,-209.116 502.602,-206.689"/>
</g>
<!-- Node39&#45;&gt;Node12 -->
<g id="edge61" class="edge"><title>Node39&#45;&gt;Node12</title>
<path fill="none" stroke="midnightblue" d="M550.539,-168.475C595.794,-157.874 657.008,-143.534 698.509,-133.812"/>
<polygon fill="midnightblue" stroke="midnightblue" points="699.415,-137.195 708.353,-131.506 697.818,-130.379 699.415,-137.195"/>
</g>
<!-- Node39&#45;&gt;Node18 -->
<g id="edge63" class="edge"><title>Node39&#45;&gt;Node18</title>
<path fill="none" stroke="midnightblue" d="M415.927,-168.775C348.056,-156.311 251.059,-138.498 200.403,-129.196"/>
<polygon fill="midnightblue" stroke="midnightblue" points="200.792,-125.708 190.324,-127.345 199.527,-132.593 200.792,-125.708"/>
</g>
<!-- Node40 -->
<g id="node40" class="node"><title>Node40</title>
<polygon fill="white" stroke="#bfbfbf" points="444.166,-112.5 444.166,-131.5 537.166,-131.5 537.166,-112.5 444.166,-112.5"/>
<text text-anchor="middle" x="490.666" y="-119.5" font-family="Helvetica,sans-Serif" font-size="10.00">Eigen/StdVector</text>
</g>
<!-- Node39&#45;&gt;Node40 -->
<g id="edge62" class="edge"><title>Node39&#45;&gt;Node40</title>
<path fill="none" stroke="midnightblue" d="M490.666,-168.399C490.666,-160.466 490.666,-150.458 490.666,-141.858"/>
<polygon fill="midnightblue" stroke="midnightblue" points="494.166,-141.658 490.666,-131.658 487.166,-141.658 494.166,-141.658"/>
</g>
<!-- Node41&#45;&gt;Node12 -->
<g id="edge72" class="edge"><title>Node41&#45;&gt;Node12</title>
<path fill="none" stroke="midnightblue" d="M774.201,-347.426C809.432,-337.001 856.224,-317.466 835.666,-291 795.991,-239.922 734.341,-306.078 694.666,-255 671.165,-224.745 734.414,-203.289 736.666,-199 745.997,-181.23 747.094,-157.922 746.429,-141.827"/>
<polygon fill="midnightblue" stroke="midnightblue" points="749.902,-141.302 745.727,-131.564 742.918,-141.779 749.902,-141.302"/>
</g>
<!-- Node41&#45;&gt;Node30 -->
<g id="edge73" class="edge"><title>Node41&#45;&gt;Node30</title>
<path fill="none" stroke="midnightblue" d="M805.139,-347.45C832.5,-341.123 863.105,-330.121 885.666,-311 918.1,-283.511 927.666,-231.203 930.487,-203.237"/>
<polygon fill="midnightblue" stroke="midnightblue" points="933.982,-203.445 931.311,-193.192 927.005,-202.872 933.982,-203.445"/>
</g>
<!-- Node41&#45;&gt;Node34 -->
<g id="edge78" class="edge"><title>Node41&#45;&gt;Node34</title>
<path fill="none" stroke="midnightblue" d="M795.758,-347.444C858.9,-337.812 961.364,-322.182 1028.14,-311.996"/>
<polygon fill="midnightblue" stroke="midnightblue" points="1028.77,-315.44 1038.13,-310.472 1027.71,-308.52 1028.77,-315.44"/>
</g>
<!-- Node41&#45;&gt;Node38 -->
<g id="edge68" class="edge"><title>Node41&#45;&gt;Node38</title>
<path fill="none" stroke="midnightblue" d="M675.098,-347.486C611.41,-338.427 522.09,-323.682 511.666,-311 501.158,-298.216 503.015,-278.753 506.52,-264.456"/>
<polygon fill="midnightblue" stroke="midnightblue" points="509.918,-265.305 509.344,-254.726 503.195,-263.354 509.918,-265.305"/>
</g>
<!-- Node42 -->
<g id="node42" class="node"><title>Node42</title>
<g id="a_node42"><a xlink:href="AbstractGeometry_8hpp.html" target="_top" xlink:title="Core/Geometry/AbstractGeometry.hpp">
<polygon fill="white" stroke="black" points="704.166,-235.5 704.166,-254.5 905.166,-254.5 905.166,-235.5 704.166,-235.5"/>
<text text-anchor="middle" x="804.666" y="-242.5" font-family="Helvetica,sans-Serif" font-size="10.00">Core/Geometry/AbstractGeometry.hpp</text>
</a>
</g>
</g>
<!-- Node41&#45;&gt;Node42 -->
<g id="edge69" class="edge"><title>Node41&#45;&gt;Node42</title>
<path fill="none" stroke="midnightblue" d="M810.706,-347.489C832.921,-341.1 855.137,-330.048 868.666,-311 882.771,-291.141 856.824,-271.682 833.862,-259.31"/>
<polygon fill="midnightblue" stroke="midnightblue" points="835.152,-256.04 824.653,-254.618 831.974,-262.277 835.152,-256.04"/>
</g>
<!-- Node43 -->
<g id="node43" class="node"><title>Node43</title>
<g id="a_node43"><a xlink:href="Attribs_8hpp.html" target="_top" xlink:title="Core/Utils/Attribs.hpp">
<polygon fill="white" stroke="black" points="521.166,-291.5 521.166,-310.5 640.166,-310.5 640.166,-291.5 521.166,-291.5"/>
<text text-anchor="middle" x="580.666" y="-298.5" font-family="Helvetica,sans-Serif" font-size="10.00">Core/Utils/Attribs.hpp</text>
</a>
</g>
</g>
<!-- Node41&#45;&gt;Node43 -->
<g id="edge74" class="edge"><title>Node41&#45;&gt;Node43</title>
<path fill="none" stroke="midnightblue" d="M714.472,-347.444C687.723,-338.359 645.263,-323.939 615.361,-313.783"/>
<polygon fill="midnightblue" stroke="midnightblue" points="616.336,-310.418 605.742,-310.516 614.085,-317.046 616.336,-310.418"/>
</g>
<!-- Node44 -->
<g id="node44" class="node"><title>Node44</title>
<g id="a_node44"><a xlink:href="TriangleMesh_8inl.html" target="_top" xlink:title="Core/Geometry/TriangleMesh.inl">
<polygon fill="white" stroke="black" points="658.666,-291.5 658.666,-310.5 826.666,-310.5 826.666,-291.5 658.666,-291.5"/>
<text text-anchor="middle" x="742.666" y="-298.5" font-family="Helvetica,sans-Serif" font-size="10.00">Core/Geometry/TriangleMesh.inl</text>
</a>
</g>
</g>
<!-- Node41&#45;&gt;Node44 -->
<g id="edge79" class="edge"><title>Node41&#45;&gt;Node44</title>
<path fill="none" stroke="midnightblue" d="M734.995,-347.083C733.883,-339.927 734.024,-329.635 735.17,-320.691"/>
<polygon fill="midnightblue" stroke="midnightblue" points="738.631,-321.227 737.049,-310.751 731.752,-319.927 738.631,-321.227"/>
</g>
<!-- Node42&#45;&gt;Node12 -->
<g id="edge70" class="edge"><title>Node42&#45;&gt;Node12</title>
<path fill="none" stroke="midnightblue" d="M805.716,-235.442C807.113,-220.734 808.21,-190.111 796.666,-168 790.191,-155.598 778.747,-145.12 768.241,-137.405"/>
<polygon fill="midnightblue" stroke="midnightblue" points="769.992,-134.361 759.766,-131.591 766.033,-140.134 769.992,-134.361"/>
</g>
<!-- Node42&#45;&gt;Node30 -->
<g id="edge71" class="edge"><title>Node42&#45;&gt;Node30</title>
<path fill="none" stroke="midnightblue" d="M822.862,-235.475C844.175,-225.49 879.697,-208.848 904.329,-197.307"/>
<polygon fill="midnightblue" stroke="midnightblue" points="905.933,-200.421 913.504,-193.009 902.963,-194.082 905.933,-200.421"/>
</g>
<!-- Node43&#45;&gt;Node12 -->
<g id="edge76" class="edge"><title>Node43&#45;&gt;Node12</title>
<path fill="none" stroke="midnightblue" d="M590.966,-291.346C606.175,-278.657 635.651,-254.405 661.666,-235 684.197,-218.193 696.073,-220.923 713.666,-199 727.29,-182.024 735.692,-158.248 740.254,-141.832"/>
<polygon fill="midnightblue" stroke="midnightblue" points="743.728,-142.371 742.815,-131.816 736.947,-140.637 743.728,-142.371"/>
</g>
<!-- Node43&#45;&gt;Node19 -->
<g id="edge77" class="edge"><title>Node43&#45;&gt;Node19</title>
<path fill="none" stroke="midnightblue" d="M532.179,-291.444C478.127,-281.905 390.738,-266.483 332.993,-256.293"/>
<polygon fill="midnightblue" stroke="midnightblue" points="333.382,-252.808 322.926,-254.516 332.165,-259.701 333.382,-252.808"/>
</g>
<!-- Node43&#45;&gt;Node38 -->
<g id="edge75" class="edge"><title>Node43&#45;&gt;Node38</title>
<path fill="none" stroke="midnightblue" d="M569.741,-291.324C559.491,-283.185 543.945,-270.839 531.665,-261.087"/>
<polygon fill="midnightblue" stroke="midnightblue" points="533.798,-258.312 523.79,-254.834 529.445,-263.794 533.798,-258.312"/>
</g>
<!-- Node44&#45;&gt;Node41 -->
<g id="edge80" class="edge"><title>Node44&#45;&gt;Node41</title>
<path fill="none" stroke="midnightblue" d="M747.311,-310.751C748.442,-317.858 748.318,-328.136 747.188,-337.101"/>
<polygon fill="midnightblue" stroke="midnightblue" points="743.719,-336.611 745.328,-347.083 750.601,-337.894 743.719,-336.611"/>
</g>
</g>
</svg>
