<?xml version="1.0" encoding="UTF-8" standalone="no"?>
<!DOCTYPE svg PUBLIC "-//W3C//DTD SVG 1.1//EN"
 "http://www.w3.org/Graphics/SVG/1.1/DTD/svg11.dtd">
<!-- Generated by graphviz version 2.38.0 (20140413.2041)
 -->
<!-- Title: /home/travis/build/STORM&#45;IRIT/Radium&#45;Engine/src/Core/Asset/GeometryData.cpp Pages: 1 -->
<svg width="1597pt" height="397pt"
 viewBox="0.00 0.00 1597.00 397.00" xmlns="http://www.w3.org/2000/svg" xmlns:xlink="http://www.w3.org/1999/xlink">
<g id="graph0" class="graph" transform="scale(1 1) rotate(0) translate(4 393)">
<title>/home/travis/build/STORM&#45;IRIT/Radium&#45;Engine/src/Core/Asset/GeometryData.cpp</title>
<polygon fill="white" stroke="none" points="-4,4 -4,-393 1593,-393 1593,4 -4,4"/>
<!-- Node1 -->
<g id="node1" class="node"><title>Node1</title>
<polygon fill="#bfbfbf" stroke="black" points="635.5,-347.5 635.5,-388.5 819.5,-388.5 819.5,-347.5 635.5,-347.5"/>
<text text-anchor="start" x="643.5" y="-376.5" font-family="Helvetica,sans-Serif" font-size="10.00">/home/travis/build</text>
<text text-anchor="start" x="643.5" y="-365.5" font-family="Helvetica,sans-Serif" font-size="10.00">/STORM&#45;IRIT/Radium&#45;Engine</text>
<text text-anchor="middle" x="727.5" y="-354.5" font-family="Helvetica,sans-Serif" font-size="10.00">/src/Core/Asset/GeometryData.cpp</text>
</g>
<!-- Node2 -->
<g id="node2" class="node"><title>Node2</title>
<g id="a_node2"><a xlink:href="GeometryData_8hpp.html" target="_top" xlink:title="Core/Asset/GeometryData.hpp">
<polygon fill="white" stroke="black" points="645.5,-291.5 645.5,-310.5 809.5,-310.5 809.5,-291.5 645.5,-291.5"/>
<text text-anchor="middle" x="727.5" y="-298.5" font-family="Helvetica,sans-Serif" font-size="10.00">Core/Asset/GeometryData.hpp</text>
</a>
</g>
</g>
<!-- Node1&#45;&gt;Node2 -->
<g id="edge1" class="edge"><title>Node1&#45;&gt;Node2</title>
<path fill="none" stroke="midnightblue" d="M727.5,-347.498C727.5,-339.065 727.5,-329.235 727.5,-320.874"/>
<polygon fill="midnightblue" stroke="midnightblue" points="731,-320.652 727.5,-310.652 724,-320.653 731,-320.652"/>
</g>
<!-- Node3 -->
<g id="node3" class="node"><title>Node3</title>
<polygon fill="white" stroke="#bfbfbf" points="0,-235.5 0,-254.5 57,-254.5 57,-235.5 0,-235.5"/>
<text text-anchor="middle" x="28.5" y="-242.5" font-family="Helvetica,sans-Serif" font-size="10.00">memory</text>
</g>
<!-- Node2&#45;&gt;Node3 -->
<g id="edge2" class="edge"><title>Node2&#45;&gt;Node3</title>
<path fill="none" stroke="midnightblue" d="M645.311,-297.996C520.701,-294.138 276.741,-283.38 71.5,-255 70.0362,-254.798 68.5476,-254.574 67.0465,-254.334"/>
<polygon fill="midnightblue" stroke="midnightblue" points="67.5446,-250.868 57.0851,-252.556 66.3144,-257.759 67.5446,-250.868"/>
</g>
<!-- Node4 -->
<g id="node4" class="node"><title>Node4</title>
<polygon fill="white" stroke="#bfbfbf" points="1253.5,-112.5 1253.5,-131.5 1297.5,-131.5 1297.5,-112.5 1253.5,-112.5"/>
<text text-anchor="middle" x="1275.5" y="-119.5" font-family="Helvetica,sans-Serif" font-size="10.00">string</text>
</g>
<!-- Node2&#45;&gt;Node4 -->
<g id="edge3" class="edge"><title>Node2&#45;&gt;Node4</title>
<path fill="none" stroke="midnightblue" d="M809.581,-298.517C952.567,-295.175 1241.28,-284.856 1337.5,-255 1384.68,-240.362 1408.9,-241.833 1433.5,-199 1462.21,-149.015 1361.98,-131.393 1307.87,-125.607"/>
<polygon fill="midnightblue" stroke="midnightblue" points="1308.01,-122.104 1297.71,-124.601 1307.32,-129.069 1308.01,-122.104"/>
</g>
<!-- Node5 -->
<g id="node5" class="node"><title>Node5</title>
<polygon fill="white" stroke="#bfbfbf" points="119,-112.5 119,-131.5 166,-131.5 166,-112.5 119,-112.5"/>
<text text-anchor="middle" x="142.5" y="-119.5" font-family="Helvetica,sans-Serif" font-size="10.00">vector</text>
</g>
<!-- Node2&#45;&gt;Node5 -->
<g id="edge4" class="edge"><title>Node2&#45;&gt;Node5</title>
<path fill="none" stroke="midnightblue" d="M645.286,-299.681C515.861,-298.083 271.222,-290.308 192.5,-255 159.513,-240.205 147.77,-232.218 133.5,-199 125.575,-180.551 130.143,-157.399 135.216,-141.525"/>
<polygon fill="midnightblue" stroke="midnightblue" points="138.605,-142.441 138.661,-131.846 132.01,-140.094 138.605,-142.441"/>
</g>
<!-- Node6 -->
<g id="node6" class="node"><title>Node6</title>
<g id="a_node6"><a xlink:href="VectorArray_8hpp.html" target="_top" xlink:title="Core/Containers/VectorArray.hpp">
<polygon fill="white" stroke="black" points="202,-235.5 202,-254.5 375,-254.5 375,-235.5 202,-235.5"/>
<text text-anchor="middle" x="288.5" y="-242.5" font-family="Helvetica,sans-Serif" font-size="10.00">Core/Containers/VectorArray.hpp</text>
</a>
</g>
</g>
<!-- Node2&#45;&gt;Node6 -->
<g id="edge5" class="edge"><title>Node2&#45;&gt;Node6</title>
<path fill="none" stroke="midnightblue" d="M657.939,-291.444C579.029,-281.737 450.595,-265.939 367.844,-255.76"/>
<polygon fill="midnightblue" stroke="midnightblue" points="368.088,-252.264 357.735,-254.516 367.233,-259.211 368.088,-252.264"/>
</g>
<!-- Node8 -->
<g id="node8" class="node"><title>Node8</title>
<g id="a_node8"><a xlink:href="RaCore_8hpp.html" target="_top" xlink:title="Core/RaCore.hpp">
<polygon fill="white" stroke="black" points="597.5,-112.5 597.5,-131.5 695.5,-131.5 695.5,-112.5 597.5,-112.5"/>
<text text-anchor="middle" x="646.5" y="-119.5" font-family="Helvetica,sans-Serif" font-size="10.00">Core/RaCore.hpp</text>
</a>
</g>
</g>
<!-- Node2&#45;&gt;Node8 -->
<g id="edge23" class="edge"><title>Node2&#45;&gt;Node8</title>
<path fill="none" stroke="midnightblue" d="M645.396,-294.643C580.376,-288.795 496.339,-277.143 470.5,-255 450.543,-237.898 455.779,-224.932 451.5,-199 449.257,-185.406 442.923,-178.782 451.5,-168 468.28,-146.907 536.35,-134.852 587.374,-128.628"/>
<polygon fill="midnightblue" stroke="midnightblue" points="587.807,-132.101 597.331,-127.46 586.992,-125.149 587.807,-132.101"/>
</g>
<!-- Node20 -->
<g id="node20" class="node"><title>Node20</title>
<g id="a_node20"><a xlink:href="Index_8hpp.html" target="_top" xlink:title="Core/Utils/Index.hpp">
<polygon fill="white" stroke="black" points="480,-235.5 480,-254.5 593,-254.5 593,-235.5 480,-235.5"/>
<text text-anchor="middle" x="536.5" y="-242.5" font-family="Helvetica,sans-Serif" font-size="10.00">Core/Utils/Index.hpp</text>
</a>
</g>
</g>
<!-- Node2&#45;&gt;Node20 -->
<g id="edge24" class="edge"><title>Node2&#45;&gt;Node20</title>
<path fill="none" stroke="midnightblue" d="M697.235,-291.444C664.545,-282.201 612.318,-267.436 576.317,-257.257"/>
<polygon fill="midnightblue" stroke="midnightblue" points="577.198,-253.869 566.623,-254.516 575.294,-260.605 577.198,-253.869"/>
</g>
<!-- Node23 -->
<g id="node23" class="node"><title>Node23</title>
<g id="a_node23"><a xlink:href="AssetData_8hpp.html" target="_top" xlink:title="Core/Asset/AssetData.hpp">
<polygon fill="white" stroke="black" points="964,-174 964,-193 1107,-193 1107,-174 964,-174"/>
<text text-anchor="middle" x="1035.5" y="-181" font-family="Helvetica,sans-Serif" font-size="10.00">Core/Asset/AssetData.hpp</text>
</a>
</g>
</g>
<!-- Node2&#45;&gt;Node23 -->
<g id="edge28" class="edge"><title>Node2&#45;&gt;Node23</title>
<path fill="none" stroke="midnightblue" d="M809.738,-295.171C855.803,-289.8 913.129,-278.539 959.5,-255 985.227,-241.94 1008.54,-217.59 1022.37,-201.212"/>
<polygon fill="midnightblue" stroke="midnightblue" points="1025.41,-203.014 1029.03,-193.055 1019.99,-198.585 1025.41,-203.014"/>
</g>
<!-- Node24 -->
<g id="node24" class="node"><title>Node24</title>
<g id="a_node24"><a xlink:href="MaterialData_8hpp.html" target="_top" xlink:title="Core/Asset/MaterialData.hpp">
<polygon fill="white" stroke="black" points="795,-235.5 795,-254.5 950,-254.5 950,-235.5 795,-235.5"/>
<text text-anchor="middle" x="872.5" y="-242.5" font-family="Helvetica,sans-Serif" font-size="10.00">Core/Asset/MaterialData.hpp</text>
</a>
</g>
</g>
<!-- Node2&#45;&gt;Node24 -->
<g id="edge31" class="edge"><title>Node2&#45;&gt;Node24</title>
<path fill="none" stroke="midnightblue" d="M750.476,-291.444C774.657,-282.438 812.918,-268.189 840.146,-258.049"/>
<polygon fill="midnightblue" stroke="midnightblue" points="841.482,-261.286 849.632,-254.516 839.039,-254.727 841.482,-261.286"/>
</g>
<!-- Node26 -->
<g id="node26" class="node"><title>Node26</title>
<g id="a_node26"><a xlink:href="GeometryData_8inl.html" target="_top" xlink:title="Core/Asset/GeometryData.inl">
<polygon fill="white" stroke="black" points="1171,-235.5 1171,-254.5 1328,-254.5 1328,-235.5 1171,-235.5"/>
<text text-anchor="middle" x="1249.5" y="-242.5" font-family="Helvetica,sans-Serif" font-size="10.00">Core/Asset/GeometryData.inl</text>
</a>
</g>
</g>
<!-- Node2&#45;&gt;Node26 -->
<g id="edge38" class="edge"><title>Node2&#45;&gt;Node26</title>
<path fill="none" stroke="midnightblue" d="M804.842,-291.473C899.845,-281.417 1060.55,-264.791 1160.56,-254.671"/>
<polygon fill="midnightblue" stroke="midnightblue" points="1161.05,-258.14 1170.65,-253.652 1160.35,-251.176 1161.05,-258.14"/>
</g>
<!-- Node6&#45;&gt;Node5 -->
<g id="edge22" class="edge"><title>Node6&#45;&gt;Node5</title>
<path fill="none" stroke="midnightblue" d="M208.08,-235.499C185.1,-229.028 162.302,-217.924 147.5,-199 134.924,-182.921 135.697,-158.598 138.293,-141.82"/>
<polygon fill="midnightblue" stroke="midnightblue" points="141.805,-142.082 140.239,-131.604 134.929,-140.772 141.805,-142.082"/>
</g>
<!-- Node7 -->
<g id="node7" class="node"><title>Node7</title>
<g id="a_node7"><a xlink:href="AlignedStdVector_8hpp.html" target="_top" xlink:title="Core/Containers/AlignedStd\lVector.hpp">
<polygon fill="white" stroke="black" points="189,-168.5 189,-198.5 338,-198.5 338,-168.5 189,-168.5"/>
<text text-anchor="start" x="197" y="-186.5" font-family="Helvetica,sans-Serif" font-size="10.00">Core/Containers/AlignedStd</text>
<text text-anchor="middle" x="263.5" y="-175.5" font-family="Helvetica,sans-Serif" font-size="10.00">Vector.hpp</text>
</a>
</g>
</g>
<!-- Node6&#45;&gt;Node7 -->
<g id="edge6" class="edge"><title>Node6&#45;&gt;Node7</title>
<path fill="none" stroke="midnightblue" d="M284.918,-235.475C281.88,-228.245 277.376,-217.525 273.281,-207.779"/>
<polygon fill="midnightblue" stroke="midnightblue" points="276.492,-206.386 269.392,-198.523 270.039,-209.098 276.492,-206.386"/>
</g>
<!-- Node6&#45;&gt;Node8 -->
<g id="edge16" class="edge"><title>Node6&#45;&gt;Node8</title>
<path fill="none" stroke="midnightblue" d="M299.782,-235.287C325.063,-215.794 384.442,-170.194 389.5,-168 453.527,-140.232 533.574,-129.588 587.167,-125.515"/>
<polygon fill="midnightblue" stroke="midnightblue" points="587.459,-129.003 597.188,-124.806 586.966,-122.02 587.459,-129.003"/>
</g>
<!-- Node16 -->
<g id="node16" class="node"><title>Node16</title>
<g id="a_node16"><a xlink:href="Types_8hpp.html" target="_top" xlink:title="Core/Types.hpp">
<polygon fill="white" stroke="black" points="692,-174 692,-193 781,-193 781,-174 692,-174"/>
<text text-anchor="middle" x="736.5" y="-181" font-family="Helvetica,sans-Serif" font-size="10.00">Core/Types.hpp</text>
</a>
</g>
</g>
<!-- Node6&#45;&gt;Node16 -->
<g id="edge17" class="edge"><title>Node6&#45;&gt;Node16</title>
<path fill="none" stroke="midnightblue" d="M360.652,-235.467C432.437,-226.833 545.693,-212.821 643.5,-199 655.762,-197.267 668.913,-195.29 681.353,-193.364"/>
<polygon fill="midnightblue" stroke="midnightblue" points="682.26,-196.765 691.601,-191.766 681.181,-189.849 682.26,-196.765"/>
</g>
<!-- Node7&#45;&gt;Node5 -->
<g id="edge15" class="edge"><title>Node7&#45;&gt;Node5</title>
<path fill="none" stroke="midnightblue" d="M234.825,-168.399C214.976,-158.639 188.739,-145.737 169.308,-136.183"/>
<polygon fill="midnightblue" stroke="midnightblue" points="170.625,-132.93 160.107,-131.658 167.536,-139.211 170.625,-132.93"/>
</g>
<!-- Node7&#45;&gt;Node8 -->
<g id="edge7" class="edge"><title>Node7&#45;&gt;Node8</title>
<path fill="none" stroke="midnightblue" d="M338.383,-170.099C342.82,-169.384 347.218,-168.679 351.5,-168 433.245,-155.031 527.849,-140.724 587.428,-131.799"/>
<polygon fill="midnightblue" stroke="midnightblue" points="588.035,-135.247 597.407,-130.306 586.999,-128.325 588.035,-135.247"/>
</g>
<!-- Node15 -->
<g id="node15" class="node"><title>Node15</title>
<polygon fill="white" stroke="#bfbfbf" points="217,-112.5 217,-131.5 310,-131.5 310,-112.5 217,-112.5"/>
<text text-anchor="middle" x="263.5" y="-119.5" font-family="Helvetica,sans-Serif" font-size="10.00">Eigen/StdVector</text>
</g>
<!-- Node7&#45;&gt;Node15 -->
<g id="edge14" class="edge"><title>Node7&#45;&gt;Node15</title>
<path fill="none" stroke="midnightblue" d="M263.5,-168.399C263.5,-160.466 263.5,-150.458 263.5,-141.858"/>
<polygon fill="midnightblue" stroke="midnightblue" points="267,-141.658 263.5,-131.658 260,-141.658 267,-141.658"/>
</g>
<!-- Node9 -->
<g id="node9" class="node"><title>Node9</title>
<g id="a_node9"><a xlink:href="CoreMacros_8hpp.html" target="_top" xlink:title="Core/CoreMacros.hpp">
<polygon fill="white" stroke="black" points="1079.5,-56.5 1079.5,-75.5 1199.5,-75.5 1199.5,-56.5 1079.5,-56.5"/>
<text text-anchor="middle" x="1139.5" y="-63.5" font-family="Helvetica,sans-Serif" font-size="10.00">Core/CoreMacros.hpp</text>
</a>
</g>
</g>
<!-- Node8&#45;&gt;Node9 -->
<g id="edge8" class="edge"><title>Node8&#45;&gt;Node9</title>
<path fill="none" stroke="midnightblue" d="M695.523,-113.214C698.558,-112.787 701.569,-112.379 704.5,-112 832.752,-95.4266 982.905,-80.9867 1069.04,-73.1779"/>
<polygon fill="midnightblue" stroke="midnightblue" points="1069.58,-76.6438 1079.22,-72.2588 1068.95,-69.6721 1069.58,-76.6438"/>
</g>
<!-- Node10 -->
<g id="node10" class="node"><title>Node10</title>
<polygon fill="white" stroke="#bfbfbf" points="1217.5,-0.5 1217.5,-19.5 1269.5,-19.5 1269.5,-0.5 1217.5,-0.5"/>
<text text-anchor="middle" x="1243.5" y="-7.5" font-family="Helvetica,sans-Serif" font-size="10.00">cassert</text>
</g>
<!-- Node9&#45;&gt;Node10 -->
<g id="edge9" class="edge"><title>Node9&#45;&gt;Node10</title>
<path fill="none" stroke="midnightblue" d="M1156.21,-56.324C1172.81,-47.7034 1198.5,-34.3643 1217.72,-24.3855"/>
<polygon fill="midnightblue" stroke="midnightblue" points="1219.57,-27.3689 1226.83,-19.6545 1216.34,-21.1565 1219.57,-27.3689"/>
</g>
<!-- Node11 -->
<g id="node11" class="node"><title>Node11</title>
<polygon fill="white" stroke="#bfbfbf" points="1011,-0.5 1011,-19.5 1056,-19.5 1056,-0.5 1011,-0.5"/>
<text text-anchor="middle" x="1033.5" y="-7.5" font-family="Helvetica,sans-Serif" font-size="10.00">cstdio</text>
</g>
<!-- Node9&#45;&gt;Node11 -->
<g id="edge10" class="edge"><title>Node9&#45;&gt;Node11</title>
<path fill="none" stroke="midnightblue" d="M1122.47,-56.324C1105.47,-47.6641 1079.12,-34.2424 1059.51,-24.249"/>
<polygon fill="midnightblue" stroke="midnightblue" points="1060.99,-21.0752 1050.49,-19.6545 1057.81,-27.3125 1060.99,-21.0752"/>
</g>
<!-- Node12 -->
<g id="node12" class="node"><title>Node12</title>
<polygon fill="white" stroke="#bfbfbf" points="1074,-0.5 1074,-19.5 1133,-19.5 1133,-0.5 1074,-0.5"/>
<text text-anchor="middle" x="1103.5" y="-7.5" font-family="Helvetica,sans-Serif" font-size="10.00">iostream</text>
</g>
<!-- Node9&#45;&gt;Node12 -->
<g id="edge11" class="edge"><title>Node9&#45;&gt;Node12</title>
<path fill="none" stroke="midnightblue" d="M1133.56,-56.083C1128.52,-48.5341 1121.16,-37.4948 1114.99,-28.2298"/>
<polygon fill="midnightblue" stroke="midnightblue" points="1117.79,-26.1301 1109.33,-19.7511 1111.97,-30.0131 1117.79,-26.1301"/>
</g>
<!-- Node13 -->
<g id="node13" class="node"><title>Node13</title>
<polygon fill="white" stroke="#bfbfbf" points="1311.5,-0.5 1311.5,-19.5 1367.5,-19.5 1367.5,-0.5 1311.5,-0.5"/>
<text text-anchor="middle" x="1339.5" y="-7.5" font-family="Helvetica,sans-Serif" font-size="10.00">sstream</text>
</g>
<!-- Node9&#45;&gt;Node13 -->
<g id="edge12" class="edge"><title>Node9&#45;&gt;Node13</title>
<path fill="none" stroke="midnightblue" d="M1171.19,-56.4435C1206.43,-46.9293 1263.34,-31.5622 1301.09,-21.3713"/>
<polygon fill="midnightblue" stroke="midnightblue" points="1302.45,-24.6291 1311.19,-18.6433 1300.62,-17.8711 1302.45,-24.6291"/>
</g>
<!-- Node14 -->
<g id="node14" class="node"><title>Node14</title>
<polygon fill="white" stroke="#bfbfbf" points="1151.5,-0.5 1151.5,-19.5 1199.5,-19.5 1199.5,-0.5 1151.5,-0.5"/>
<text text-anchor="middle" x="1175.5" y="-7.5" font-family="Helvetica,sans-Serif" font-size="10.00">thread</text>
</g>
<!-- Node9&#45;&gt;Node14 -->
<g id="edge13" class="edge"><title>Node9&#45;&gt;Node14</title>
<path fill="none" stroke="midnightblue" d="M1145.44,-56.083C1150.48,-48.5341 1157.84,-37.4948 1164.01,-28.2298"/>
<polygon fill="midnightblue" stroke="midnightblue" points="1167.03,-30.0131 1169.67,-19.7511 1161.21,-26.1301 1167.03,-30.0131"/>
</g>
<!-- Node16&#45;&gt;Node8 -->
<g id="edge18" class="edge"><title>Node16&#45;&gt;Node8</title>
<path fill="none" stroke="midnightblue" d="M723.605,-173.975C709.036,-164.343 685.098,-148.517 667.755,-137.052"/>
<polygon fill="midnightblue" stroke="midnightblue" points="669.643,-134.104 659.371,-131.509 665.783,-139.944 669.643,-134.104"/>
</g>
<!-- Node17 -->
<g id="node17" class="node"><title>Node17</title>
<polygon fill="white" stroke="#bfbfbf" points="1021.5,-112.5 1021.5,-131.5 1089.5,-131.5 1089.5,-112.5 1021.5,-112.5"/>
<text text-anchor="middle" x="1055.5" y="-119.5" font-family="Helvetica,sans-Serif" font-size="10.00">Eigen/Core</text>
</g>
<!-- Node16&#45;&gt;Node17 -->
<g id="edge19" class="edge"><title>Node16&#45;&gt;Node17</title>
<path fill="none" stroke="midnightblue" d="M766.368,-173.942C774.186,-171.85 782.629,-169.721 790.5,-168 867.644,-151.132 958.59,-136.902 1011.38,-129.192"/>
<polygon fill="midnightblue" stroke="midnightblue" points="1012.02,-132.636 1021.42,-127.739 1011.02,-125.709 1012.02,-132.636"/>
</g>
<!-- Node18 -->
<g id="node18" class="node"><title>Node18</title>
<polygon fill="white" stroke="#bfbfbf" points="865.5,-112.5 865.5,-131.5 959.5,-131.5 959.5,-112.5 865.5,-112.5"/>
<text text-anchor="middle" x="912.5" y="-119.5" font-family="Helvetica,sans-Serif" font-size="10.00">Eigen/Geometry</text>
</g>
<!-- Node16&#45;&gt;Node18 -->
<g id="edge20" class="edge"><title>Node16&#45;&gt;Node18</title>
<path fill="none" stroke="midnightblue" d="M761.717,-173.975C792.168,-163.68 843.549,-146.31 877.743,-134.75"/>
<polygon fill="midnightblue" stroke="midnightblue" points="878.978,-138.027 887.33,-131.509 876.736,-131.396 878.978,-138.027"/>
</g>
<!-- Node19 -->
<g id="node19" class="node"><title>Node19</title>
<polygon fill="white" stroke="#bfbfbf" points="713.5,-112.5 713.5,-131.5 793.5,-131.5 793.5,-112.5 713.5,-112.5"/>
<text text-anchor="middle" x="753.5" y="-119.5" font-family="Helvetica,sans-Serif" font-size="10.00">Eigen/Sparse</text>
</g>
<!-- Node16&#45;&gt;Node19 -->
<g id="edge21" class="edge"><title>Node16&#45;&gt;Node19</title>
<path fill="none" stroke="midnightblue" d="M738.936,-173.975C741.359,-165.492 745.156,-152.204 748.265,-141.322"/>
<polygon fill="midnightblue" stroke="midnightblue" points="751.687,-142.086 751.069,-131.509 744.956,-140.163 751.687,-142.086"/>
</g>
<!-- Node20&#45;&gt;Node8 -->
<g id="edge25" class="edge"><title>Node20&#45;&gt;Node8</title>
<path fill="none" stroke="midnightblue" d="M508.485,-235.397C491.326,-228.515 470.752,-216.984 460.5,-199 453.677,-187.03 451.98,-178.827 460.5,-168 476.133,-148.134 538.904,-135.985 587.248,-129.399"/>
<polygon fill="midnightblue" stroke="midnightblue" points="587.864,-132.848 597.323,-128.077 586.953,-125.908 587.864,-132.848"/>
</g>
<!-- Node21 -->
<g id="node21" class="node"><title>Node21</title>
<polygon fill="white" stroke="#bfbfbf" points="469.5,-174 469.5,-193 511.5,-193 511.5,-174 469.5,-174"/>
<text text-anchor="middle" x="490.5" y="-181" font-family="Helvetica,sans-Serif" font-size="10.00">limits</text>
</g>
<!-- Node20&#45;&gt;Node21 -->
<g id="edge26" class="edge"><title>Node20&#45;&gt;Node21</title>
<path fill="none" stroke="midnightblue" d="M529.909,-235.475C523.009,-226.55 511.998,-212.307 503.366,-201.143"/>
<polygon fill="midnightblue" stroke="midnightblue" points="505.964,-198.78 497.078,-193.009 500.426,-203.061 505.964,-198.78"/>
</g>
<!-- Node22 -->
<g id="node22" class="node"><title>Node22</title>
<g id="a_node22"><a xlink:href="Index_8inl.html" target="_top" xlink:title="Core/Utils/Index.inl">
<polygon fill="white" stroke="black" points="530,-174 530,-193 635,-193 635,-174 530,-174"/>
<text text-anchor="middle" x="582.5" y="-181" font-family="Helvetica,sans-Serif" font-size="10.00">Core/Utils/Index.inl</text>
</a>
</g>
</g>
<!-- Node20&#45;&gt;Node22 -->
<g id="edge27" class="edge"><title>Node20&#45;&gt;Node22</title>
<path fill="none" stroke="midnightblue" d="M543.091,-235.475C549.991,-226.55 561.002,-212.307 569.634,-201.143"/>
<polygon fill="midnightblue" stroke="midnightblue" points="572.574,-203.061 575.922,-193.009 567.036,-198.78 572.574,-203.061"/>
</g>
<!-- Node23&#45;&gt;Node4 -->
<g id="edge30" class="edge"><title>Node23&#45;&gt;Node4</title>
<path fill="none" stroke="midnightblue" d="M1069.89,-173.975C1116.3,-162.468 1198.37,-142.121 1243.52,-130.929"/>
<polygon fill="midnightblue" stroke="midnightblue" points="1244.5,-134.292 1253.36,-128.488 1242.81,-127.498 1244.5,-134.292"/>
</g>
<!-- Node23&#45;&gt;Node8 -->
<g id="edge29" class="edge"><title>Node23&#45;&gt;Node8</title>
<path fill="none" stroke="midnightblue" d="M989.86,-173.928C978.639,-171.903 966.646,-169.809 955.5,-168 847.409,-150.459 817.631,-148.728 705.555,-132.14"/>
<polygon fill="midnightblue" stroke="midnightblue" points="705.948,-128.66 695.542,-130.65 704.918,-135.583 705.948,-128.66"/>
</g>
<!-- Node24&#45;&gt;Node4 -->
<g id="edge32" class="edge"><title>Node24&#45;&gt;Node4</title>
<path fill="none" stroke="midnightblue" d="M950.205,-243.757C1045.75,-241.932 1200.78,-233.529 1245.5,-199 1263.27,-185.282 1270.53,-159.482 1273.49,-141.78"/>
<polygon fill="midnightblue" stroke="midnightblue" points="1276.97,-142.135 1274.85,-131.754 1270.04,-141.191 1276.97,-142.135"/>
</g>
<!-- Node24&#45;&gt;Node5 -->
<g id="edge33" class="edge"><title>Node24&#45;&gt;Node5</title>
<path fill="none" stroke="midnightblue" d="M794.749,-241.039C619.062,-234.064 204.696,-215.917 179.5,-199 160.128,-185.993 150.547,-159.826 146.067,-141.863"/>
<polygon fill="midnightblue" stroke="midnightblue" points="149.451,-140.952 143.895,-131.93 142.612,-142.447 149.451,-140.952"/>
</g>
<!-- Node24&#45;&gt;Node8 -->
<g id="edge35" class="edge"><title>Node24&#45;&gt;Node8</title>
<path fill="none" stroke="midnightblue" d="M794.906,-241C757.478,-235.985 713.986,-224.487 682.5,-199 664.627,-184.532 655.12,-159.1 650.45,-141.67"/>
<polygon fill="midnightblue" stroke="midnightblue" points="653.765,-140.483 648.04,-131.568 646.956,-142.107 653.765,-140.483"/>
</g>
<!-- Node24&#45;&gt;Node23 -->
<g id="edge34" class="edge"><title>Node24&#45;&gt;Node23</title>
<path fill="none" stroke="midnightblue" d="M895.854,-235.475C923.814,-225.269 970.826,-208.108 1002.49,-196.549"/>
<polygon fill="midnightblue" stroke="midnightblue" points="1004,-199.726 1012.19,-193.009 1001.6,-193.15 1004,-199.726"/>
</g>
<!-- Node25 -->
<g id="node25" class="node"><title>Node25</title>
<g id="a_node25"><a xlink:href="MaterialData_8inl.html" target="_top" xlink:title="Core/Asset/MaterialData.inl">
<polygon fill="white" stroke="black" points="799,-174 799,-193 946,-193 946,-174 799,-174"/>
<text text-anchor="middle" x="872.5" y="-181" font-family="Helvetica,sans-Serif" font-size="10.00">Core/Asset/MaterialData.inl</text>
</a>
</g>
</g>
<!-- Node24&#45;&gt;Node25 -->
<g id="edge36" class="edge"><title>Node24&#45;&gt;Node25</title>
<path fill="none" stroke="midnightblue" d="M867.599,-235.475C865.768,-227.08 865.297,-213.981 866.185,-203.163"/>
<polygon fill="midnightblue" stroke="midnightblue" points="869.686,-203.397 867.603,-193.009 862.754,-202.429 869.686,-203.397"/>
</g>
<!-- Node25&#45;&gt;Node24 -->
<g id="edge37" class="edge"><title>Node25&#45;&gt;Node24</title>
<path fill="none" stroke="midnightblue" d="M877.397,-193.009C879.23,-201.398 879.703,-214.496 878.817,-225.317"/>
<polygon fill="midnightblue" stroke="midnightblue" points="875.315,-225.088 877.401,-235.475 882.248,-226.054 875.315,-225.088"/>
</g>
<!-- Node26&#45;&gt;Node2 -->
<g id="edge39" class="edge"><title>Node26&#45;&gt;Node2</title>
<path fill="none" stroke="midnightblue" d="M1172.16,-254.526C1078.24,-264.468 920.108,-280.831 819.882,-290.98"/>
<polygon fill="midnightblue" stroke="midnightblue" points="819.363,-287.514 809.766,-292.003 820.067,-294.479 819.363,-287.514"/>
</g>
<!-- Node27 -->
<g id="node27" class="node"><title>Node27</title>
<g id="a_node27"><a xlink:href="Color_8hpp.html" target="_top" xlink:title="Core/Utils/Color.hpp">
<polygon fill="white" stroke="black" points="1125,-174 1125,-193 1236,-193 1236,-174 1125,-174"/>
<text text-anchor="middle" x="1180.5" y="-181" font-family="Helvetica,sans-Serif" font-size="10.00">Core/Utils/Color.hpp</text>
</a>
</g>
</g>
<!-- Node26&#45;&gt;Node27 -->
<g id="edge40" class="edge"><title>Node26&#45;&gt;Node27</title>
<path fill="none" stroke="midnightblue" d="M1239.61,-235.475C1228.85,-226.197 1211.43,-211.171 1198.28,-199.831"/>
<polygon fill="midnightblue" stroke="midnightblue" points="1200.23,-196.889 1190.37,-193.009 1195.66,-202.19 1200.23,-196.889"/>
</g>
<!-- Node29 -->
<g id="node29" class="node"><title>Node29</title>
<g id="a_node29"><a xlink:href="Log_8hpp.html" target="_top" xlink:title="Core/Utils/Log.hpp">
<polygon fill="white" stroke="black" points="1480.5,-174 1480.5,-193 1584.5,-193 1584.5,-174 1480.5,-174"/>
<text text-anchor="middle" x="1532.5" y="-181" font-family="Helvetica,sans-Serif" font-size="10.00">Core/Utils/Log.hpp</text>
</a>
</g>
</g>
<!-- Node26&#45;&gt;Node29 -->
<g id="edge45" class="edge"><title>Node26&#45;&gt;Node29</title>
<path fill="none" stroke="midnightblue" d="M1290.05,-235.475C1340.69,-224.827 1427.34,-206.609 1482.18,-195.081"/>
<polygon fill="midnightblue" stroke="midnightblue" points="1482.96,-198.492 1492.03,-193.009 1481.52,-191.642 1482.96,-198.492"/>
</g>
<!-- Node32 -->
<g id="node32" class="node"><title>Node32</title>
<polygon fill="white" stroke="#bfbfbf" points="1362.5,-174 1362.5,-193 1424.5,-193 1424.5,-174 1362.5,-174"/>
<text text-anchor="middle" x="1393.5" y="-181" font-family="Helvetica,sans-Serif" font-size="10.00">algorithm</text>
</g>
<!-- Node26&#45;&gt;Node32 -->
<g id="edge51" class="edge"><title>Node26&#45;&gt;Node32</title>
<path fill="none" stroke="midnightblue" d="M1270.13,-235.475C1294.62,-225.357 1335.65,-208.405 1363.61,-196.851"/>
<polygon fill="midnightblue" stroke="midnightblue" points="1365,-200.063 1372.91,-193.009 1362.33,-193.593 1365,-200.063"/>
</g>
<!-- Node33 -->
<g id="node33" class="node"><title>Node33</title>
<polygon fill="white" stroke="#bfbfbf" points="1292.5,-174 1292.5,-193 1344.5,-193 1344.5,-174 1292.5,-174"/>
<text text-anchor="middle" x="1318.5" y="-181" font-family="Helvetica,sans-Serif" font-size="10.00">iterator</text>
</g>
<!-- Node26&#45;&gt;Node33 -->
<g id="edge52" class="edge"><title>Node26&#45;&gt;Node33</title>
<path fill="none" stroke="midnightblue" d="M1259.39,-235.475C1270.15,-226.197 1287.57,-211.171 1300.72,-199.831"/>
<polygon fill="midnightblue" stroke="midnightblue" points="1303.34,-202.19 1308.63,-193.009 1298.77,-196.889 1303.34,-202.19"/>
</g>
<!-- Node27&#45;&gt;Node9 -->
<g id="edge41" class="edge"><title>Node27&#45;&gt;Node9</title>
<path fill="none" stroke="midnightblue" d="M1176.26,-173.698C1171.55,-163.728 1163.91,-146.925 1158.5,-132 1152.87,-116.456 1147.69,-98.3752 1144.17,-85.2354"/>
<polygon fill="midnightblue" stroke="midnightblue" points="1147.54,-84.3108 1141.62,-75.5241 1140.77,-86.0846 1147.54,-84.3108"/>
</g>
<!-- Node27&#45;&gt;Node17 -->
<g id="edge42" class="edge"><title>Node27&#45;&gt;Node17</title>
<path fill="none" stroke="midnightblue" d="M1162.59,-173.975C1141.61,-163.99 1106.65,-147.348 1082.41,-135.807"/>
<polygon fill="midnightblue" stroke="midnightblue" points="1083.91,-132.647 1073.38,-131.509 1080.9,-138.967 1083.91,-132.647"/>
</g>
<!-- Node27&#45;&gt;Node18 -->
<g id="edge43" class="edge"><title>Node27&#45;&gt;Node18</title>
<path fill="none" stroke="midnightblue" d="M1142.94,-173.954C1134.26,-171.988 1125.06,-169.914 1116.5,-168 1063.53,-156.157 1002.77,-142.782 961.436,-133.713"/>
<polygon fill="midnightblue" stroke="midnightblue" points="962.14,-130.284 951.623,-131.561 960.641,-137.122 962.14,-130.284"/>
</g>
<!-- Node28 -->
<g id="node28" class="node"><title>Node28</title>
<polygon fill="white" stroke="#bfbfbf" points="1167.5,-112.5 1167.5,-131.5 1221.5,-131.5 1221.5,-112.5 1167.5,-112.5"/>
<text text-anchor="middle" x="1194.5" y="-119.5" font-family="Helvetica,sans-Serif" font-size="10.00">random</text>
</g>
<!-- Node27&#45;&gt;Node28 -->
<g id="edge44" class="edge"><title>Node27&#45;&gt;Node28</title>
<path fill="none" stroke="midnightblue" d="M1182.51,-173.975C1184.5,-165.492 1187.63,-152.204 1190.19,-141.322"/>
<polygon fill="midnightblue" stroke="midnightblue" points="1193.61,-142.045 1192.5,-131.509 1186.8,-140.442 1193.61,-142.045"/>
</g>
<!-- Node29&#45;&gt;Node4 -->
<g id="edge50" class="edge"><title>Node29&#45;&gt;Node4</title>
<path fill="none" stroke="midnightblue" d="M1495.68,-173.975C1445.25,-162.3 1355.51,-141.524 1307.65,-130.444"/>
<polygon fill="midnightblue" stroke="midnightblue" points="1308.36,-127.015 1297.83,-128.169 1306.78,-133.834 1308.36,-127.015"/>
</g>
<!-- Node29&#45;&gt;Node8 -->
<g id="edge46" class="edge"><title>Node29&#45;&gt;Node8</title>
<path fill="none" stroke="midnightblue" d="M1480.98,-173.996C1465.73,-171.739 1448.97,-169.512 1433.5,-168 1113.95,-136.782 1028.96,-164.339 705.628,-131.997"/>
<polygon fill="midnightblue" stroke="midnightblue" points="705.803,-128.497 695.501,-130.972 705.098,-135.461 705.803,-128.497"/>
</g>
<!-- Node29&#45;&gt;Node13 -->
<g id="edge48" class="edge"><title>Node29&#45;&gt;Node13</title>
<path fill="none" stroke="midnightblue" d="M1520.93,-173.847C1507.93,-164.011 1486.31,-147.328 1468.5,-132 1426.47,-95.8248 1379.55,-50.476 1355.55,-26.897"/>
<polygon fill="midnightblue" stroke="midnightblue" points="1357.91,-24.3073 1348.33,-19.7799 1352.99,-29.2925 1357.91,-24.3073"/>
</g>
<!-- Node30 -->
<g id="node30" class="node"><title>Node30</title>
<polygon fill="white" stroke="#bfbfbf" points="1477.5,-112.5 1477.5,-131.5 1521.5,-131.5 1521.5,-112.5 1477.5,-112.5"/>
<text text-anchor="middle" x="1499.5" y="-119.5" font-family="Helvetica,sans-Serif" font-size="10.00">ctime</text>
</g>
<!-- Node29&#45;&gt;Node30 -->
<g id="edge47" class="edge"><title>Node29&#45;&gt;Node30</title>
<path fill="none" stroke="midnightblue" d="M1527.77,-173.975C1522.92,-165.227 1515.23,-151.369 1509.1,-140.309"/>
<polygon fill="midnightblue" stroke="midnightblue" points="1512.13,-138.557 1504.22,-131.509 1506.01,-141.952 1512.13,-138.557"/>
</g>
<!-- Node31 -->
<g id="node31" class="node"><title>Node31</title>
<polygon fill="white" stroke="#bfbfbf" points="1540,-112.5 1540,-131.5 1589,-131.5 1589,-112.5 1540,-112.5"/>
<text text-anchor="middle" x="1564.5" y="-119.5" font-family="Helvetica,sans-Serif" font-size="10.00">stdio.h</text>
</g>
<!-- Node29&#45;&gt;Node31 -->
<g id="edge49" class="edge"><title>Node29&#45;&gt;Node31</title>
<path fill="none" stroke="midnightblue" d="M1537.08,-173.975C1541.74,-165.315 1549.09,-151.649 1555.01,-140.645"/>
<polygon fill="midnightblue" stroke="midnightblue" points="1558.27,-141.974 1559.92,-131.509 1552.1,-138.658 1558.27,-141.974"/>
</g>
</g>
</svg>
