<?xml version="1.0" encoding="UTF-8" standalone="no"?>
<!DOCTYPE svg PUBLIC "-//W3C//DTD SVG 1.1//EN"
 "http://www.w3.org/Graphics/SVG/1.1/DTD/svg11.dtd">
<!-- Generated by graphviz version 2.38.0 (20140413.2041)
 -->
<!-- Title: /home/travis/build/STORM&#45;IRIT/Radium&#45;Engine/src/Engine/Component/GeometryComponent.hpp Pages: 1 -->
<svg width="1941pt" height="453pt"
 viewBox="0.00 0.00 1940.51 453.00" xmlns="http://www.w3.org/2000/svg" xmlns:xlink="http://www.w3.org/1999/xlink">
<g id="graph0" class="graph" transform="scale(1 1) rotate(0) translate(4 449)">
<title>/home/travis/build/STORM&#45;IRIT/Radium&#45;Engine/src/Engine/Component/GeometryComponent.hpp</title>
<polygon fill="white" stroke="none" points="-4,4 -4,-449 1936.51,-449 1936.51,4 -4,4"/>
<!-- Node1 -->
<g id="node1" class="node"><title>Node1</title>
<polygon fill="#bfbfbf" stroke="black" points="953.51,-403.5 953.51,-444.5 1210.51,-444.5 1210.51,-403.5 953.51,-403.5"/>
<text text-anchor="start" x="961.51" y="-432.5" font-family="Helvetica,sans-Serif" font-size="10.00">/home/travis/build</text>
<text text-anchor="start" x="961.51" y="-421.5" font-family="Helvetica,sans-Serif" font-size="10.00">/STORM&#45;IRIT/Radium&#45;Engine</text>
<text text-anchor="middle" x="1082.01" y="-410.5" font-family="Helvetica,sans-Serif" font-size="10.00">/src/Engine/Component/GeometryComponent.hpp</text>
</g>
<!-- Node2 -->
<g id="node2" class="node"><title>Node2</title>
<g id="a_node2"><a xlink:href="GeometryData_8hpp.html" target="_top" xlink:title="Core/Asset/GeometryData.hpp">
<polygon fill="white" stroke="black" points="480.01,-291.5 480.01,-310.5 644.01,-310.5 644.01,-291.5 480.01,-291.5"/>
<text text-anchor="middle" x="562.01" y="-298.5" font-family="Helvetica,sans-Serif" font-size="10.00">Core/Asset/GeometryData.hpp</text>
</a>
</g>
</g>
<!-- Node1&#45;&gt;Node2 -->
<g id="edge1" class="edge"><title>Node1&#45;&gt;Node2</title>
<path fill="none" stroke="midnightblue" d="M998.174,-403.492C887.505,-377.74 696.44,-333.281 608.621,-312.846"/>
<polygon fill="midnightblue" stroke="midnightblue" points="609.22,-309.392 598.687,-310.535 607.634,-316.21 609.22,-309.392"/>
</g>
<!-- Node34 -->
<g id="node34" class="node"><title>Node34</title>
<g id="a_node34"><a xlink:href="TriangleMesh_8hpp.html" target="_top" xlink:title="Core/Geometry/TriangleMesh.hpp">
<polygon fill="white" stroke="black" points="994.01,-347.5 994.01,-366.5 1170.01,-366.5 1170.01,-347.5 994.01,-347.5"/>
<text text-anchor="middle" x="1082.01" y="-354.5" font-family="Helvetica,sans-Serif" font-size="10.00">Core/Geometry/TriangleMesh.hpp</text>
</a>
</g>
</g>
<!-- Node1&#45;&gt;Node34 -->
<g id="edge53" class="edge"><title>Node1&#45;&gt;Node34</title>
<path fill="none" stroke="midnightblue" d="M1082.01,-403.498C1082.01,-395.065 1082.01,-385.235 1082.01,-376.874"/>
<polygon fill="midnightblue" stroke="midnightblue" points="1085.51,-376.652 1082.01,-366.652 1078.51,-376.653 1085.51,-376.652"/>
</g>
<!-- Node38 -->
<g id="node38" class="node"><title>Node38</title>
<g id="a_node38"><a xlink:href="Component_8hpp.html" target="_top" xlink:title="Engine/Component/Component.hpp">
<polygon fill="white" stroke="black" points="1503.01,-235.5 1503.01,-254.5 1691.01,-254.5 1691.01,-235.5 1503.01,-235.5"/>
<text text-anchor="middle" x="1597.01" y="-242.5" font-family="Helvetica,sans-Serif" font-size="10.00">Engine/Component/Component.hpp</text>
</a>
</g>
</g>
<!-- Node1&#45;&gt;Node38 -->
<g id="edge67" class="edge"><title>Node1&#45;&gt;Node38</title>
<path fill="none" stroke="midnightblue" d="M1139.09,-403.382C1246.41,-366.499 1475.26,-287.843 1562.37,-257.905"/>
<polygon fill="midnightblue" stroke="midnightblue" points="1563.72,-261.144 1572.03,-254.584 1561.44,-254.524 1563.72,-261.144"/>
</g>
<!-- Node3 -->
<g id="node3" class="node"><title>Node3</title>
<polygon fill="white" stroke="#bfbfbf" points="408.51,-235.5 408.51,-254.5 465.51,-254.5 465.51,-235.5 408.51,-235.5"/>
<text text-anchor="middle" x="437.01" y="-242.5" font-family="Helvetica,sans-Serif" font-size="10.00">memory</text>
</g>
<!-- Node2&#45;&gt;Node3 -->
<g id="edge2" class="edge"><title>Node2&#45;&gt;Node3</title>
<path fill="none" stroke="midnightblue" d="M542.203,-291.444C521.723,-282.596 489.527,-268.687 466.145,-258.586"/>
<polygon fill="midnightblue" stroke="midnightblue" points="467.292,-255.269 456.724,-254.516 464.516,-261.695 467.292,-255.269"/>
</g>
<!-- Node4 -->
<g id="node4" class="node"><title>Node4</title>
<polygon fill="white" stroke="#bfbfbf" points="108.01,-112.5 108.01,-131.5 152.01,-131.5 152.01,-112.5 108.01,-112.5"/>
<text text-anchor="middle" x="130.01" y="-119.5" font-family="Helvetica,sans-Serif" font-size="10.00">string</text>
</g>
<!-- Node2&#45;&gt;Node4 -->
<g id="edge3" class="edge"><title>Node2&#45;&gt;Node4</title>
<path fill="none" stroke="midnightblue" d="M479.964,-298.351C338.941,-293.496 60.4297,-274.362 6.00995,-199 -2.05598,-187.83 -1.89798,-179.282 6.00995,-168 26.4971,-138.771 68.0009,-128.452 97.3366,-124.852"/>
<polygon fill="midnightblue" stroke="midnightblue" points="97.9413,-128.309 107.532,-123.808 97.2276,-121.345 97.9413,-128.309"/>
</g>
<!-- Node5 -->
<g id="node5" class="node"><title>Node5</title>
<polygon fill="white" stroke="#bfbfbf" points="1167.51,-112.5 1167.51,-131.5 1214.51,-131.5 1214.51,-112.5 1167.51,-112.5"/>
<text text-anchor="middle" x="1191.01" y="-119.5" font-family="Helvetica,sans-Serif" font-size="10.00">vector</text>
</g>
<!-- Node2&#45;&gt;Node5 -->
<g id="edge4" class="edge"><title>Node2&#45;&gt;Node5</title>
<path fill="none" stroke="midnightblue" d="M628.354,-291.492C771.429,-272.711 1099.54,-227.143 1142.01,-199 1162.82,-185.211 1176.68,-159.233 1184.2,-141.526"/>
<polygon fill="midnightblue" stroke="midnightblue" points="1187.64,-142.339 1188.06,-131.753 1181.13,-139.764 1187.64,-142.339"/>
</g>
<!-- Node6 -->
<g id="node6" class="node"><title>Node6</title>
<g id="a_node6"><a xlink:href="VectorArray_8hpp.html" target="_top" xlink:title="Core/Containers/VectorArray.hpp">
<polygon fill="white" stroke="black" points="1054.51,-235.5 1054.51,-254.5 1227.51,-254.5 1227.51,-235.5 1054.51,-235.5"/>
<text text-anchor="middle" x="1141.01" y="-242.5" font-family="Helvetica,sans-Serif" font-size="10.00">Core/Containers/VectorArray.hpp</text>
</a>
</g>
</g>
<!-- Node2&#45;&gt;Node6 -->
<g id="edge5" class="edge"><title>Node2&#45;&gt;Node6</title>
<path fill="none" stroke="midnightblue" d="M644.045,-292.349C749.323,-282.53 931.716,-265.52 1043.83,-255.063"/>
<polygon fill="midnightblue" stroke="midnightblue" points="1044.49,-258.517 1054.12,-254.103 1043.84,-251.547 1044.49,-258.517"/>
</g>
<!-- Node8 -->
<g id="node8" class="node"><title>Node8</title>
<g id="a_node8"><a xlink:href="RaCore_8hpp.html" target="_top" xlink:title="Core/RaCore.hpp">
<polygon fill="white" stroke="black" points="699.01,-112.5 699.01,-131.5 797.01,-131.5 797.01,-112.5 699.01,-112.5"/>
<text text-anchor="middle" x="748.01" y="-119.5" font-family="Helvetica,sans-Serif" font-size="10.00">Core/RaCore.hpp</text>
</a>
</g>
</g>
<!-- Node2&#45;&gt;Node8 -->
<g id="edge23" class="edge"><title>Node2&#45;&gt;Node8</title>
<path fill="none" stroke="midnightblue" d="M585.14,-291.411C603.722,-283.758 629.798,-271.258 649.01,-255 689.128,-221.049 722.592,-167.964 738.333,-140.608"/>
<polygon fill="midnightblue" stroke="midnightblue" points="741.45,-142.207 743.311,-131.777 735.352,-138.77 741.45,-142.207"/>
</g>
<!-- Node20 -->
<g id="node20" class="node"><title>Node20</title>
<g id="a_node20"><a xlink:href="Index_8hpp.html" target="_top" xlink:title="Core/Utils/Index.hpp">
<polygon fill="white" stroke="black" points="852.51,-174 852.51,-193 965.51,-193 965.51,-174 852.51,-174"/>
<text text-anchor="middle" x="909.01" y="-181" font-family="Helvetica,sans-Serif" font-size="10.00">Core/Utils/Index.hpp</text>
</a>
</g>
</g>
<!-- Node2&#45;&gt;Node20 -->
<g id="edge24" class="edge"><title>Node2&#45;&gt;Node20</title>
<path fill="none" stroke="midnightblue" d="M596.42,-291.435C629.406,-282.991 680.473,-269.308 724.01,-255 779.376,-236.805 842.558,-211.784 878.914,-196.962"/>
<polygon fill="midnightblue" stroke="midnightblue" points="880.5,-200.095 888.428,-193.066 877.847,-193.617 880.5,-200.095"/>
</g>
<!-- Node23 -->
<g id="node23" class="node"><title>Node23</title>
<g id="a_node23"><a xlink:href="AssetData_8hpp.html" target="_top" xlink:title="Core/Asset/AssetData.hpp">
<polygon fill="white" stroke="black" points="190.51,-174 190.51,-193 333.51,-193 333.51,-174 190.51,-174"/>
<text text-anchor="middle" x="262.01" y="-181" font-family="Helvetica,sans-Serif" font-size="10.00">Core/Asset/AssetData.hpp</text>
</a>
</g>
</g>
<!-- Node2&#45;&gt;Node23 -->
<g id="edge28" class="edge"><title>Node2&#45;&gt;Node23</title>
<path fill="none" stroke="midnightblue" d="M522.413,-291.483C488.94,-283.715 440.029,-271.019 399.01,-255 357.512,-238.794 312.024,-213.836 285.302,-198.372"/>
<polygon fill="midnightblue" stroke="midnightblue" points="286.748,-195.163 276.348,-193.138 283.215,-201.206 286.748,-195.163"/>
</g>
<!-- Node24 -->
<g id="node24" class="node"><title>Node24</title>
<g id="a_node24"><a xlink:href="MaterialData_8hpp.html" target="_top" xlink:title="Core/Asset/MaterialData.hpp">
<polygon fill="white" stroke="black" points="184.51,-235.5 184.51,-254.5 339.51,-254.5 339.51,-235.5 184.51,-235.5"/>
<text text-anchor="middle" x="262.01" y="-242.5" font-family="Helvetica,sans-Serif" font-size="10.00">Core/Asset/MaterialData.hpp</text>
</a>
</g>
</g>
<!-- Node2&#45;&gt;Node24 -->
<g id="edge31" class="edge"><title>Node2&#45;&gt;Node24</title>
<path fill="none" stroke="midnightblue" d="M514.474,-291.444C461.482,-281.905 375.807,-266.483 319.193,-256.293"/>
<polygon fill="midnightblue" stroke="midnightblue" points="319.785,-252.843 309.323,-254.516 318.545,-259.733 319.785,-252.843"/>
</g>
<!-- Node26 -->
<g id="node26" class="node"><title>Node26</title>
<g id="a_node26"><a xlink:href="GeometryData_8inl.html" target="_top" xlink:title="Core/Asset/GeometryData.inl">
<polygon fill="white" stroke="black" points="483.51,-235.5 483.51,-254.5 640.51,-254.5 640.51,-235.5 483.51,-235.5"/>
<text text-anchor="middle" x="562.01" y="-242.5" font-family="Helvetica,sans-Serif" font-size="10.00">Core/Asset/GeometryData.inl</text>
</a>
</g>
</g>
<!-- Node2&#45;&gt;Node26 -->
<g id="edge38" class="edge"><title>Node2&#45;&gt;Node26</title>
<path fill="none" stroke="midnightblue" d="M556.844,-291.083C555.334,-283.927 554.904,-273.635 555.552,-264.691"/>
<polygon fill="midnightblue" stroke="midnightblue" points="559.025,-265.126 556.879,-254.751 552.087,-264.2 559.025,-265.126"/>
</g>
<!-- Node6&#45;&gt;Node5 -->
<g id="edge22" class="edge"><title>Node6&#45;&gt;Node5</title>
<path fill="none" stroke="midnightblue" d="M1149.93,-235.195C1158.01,-226.685 1169.6,-213.047 1176.01,-199 1184.36,-180.686 1188.08,-157.808 1189.72,-141.963"/>
<polygon fill="midnightblue" stroke="midnightblue" points="1193.22,-142.097 1190.59,-131.835 1186.25,-141.499 1193.22,-142.097"/>
</g>
<!-- Node7 -->
<g id="node7" class="node"><title>Node7</title>
<g id="a_node7"><a xlink:href="AlignedStdVector_8hpp.html" target="_top" xlink:title="Core/Containers/AlignedStd\lVector.hpp">
<polygon fill="white" stroke="black" points="1227.51,-168.5 1227.51,-198.5 1376.51,-198.5 1376.51,-168.5 1227.51,-168.5"/>
<text text-anchor="start" x="1235.51" y="-186.5" font-family="Helvetica,sans-Serif" font-size="10.00">Core/Containers/AlignedStd</text>
<text text-anchor="middle" x="1302.01" y="-175.5" font-family="Helvetica,sans-Serif" font-size="10.00">Vector.hpp</text>
</a>
</g>
</g>
<!-- Node6&#45;&gt;Node7 -->
<g id="edge6" class="edge"><title>Node6&#45;&gt;Node7</title>
<path fill="none" stroke="midnightblue" d="M1164.08,-235.475C1187.61,-226.776 1224.82,-213.026 1254.66,-201.998"/>
<polygon fill="midnightblue" stroke="midnightblue" points="1255.9,-205.273 1264.07,-198.523 1253.47,-198.707 1255.9,-205.273"/>
</g>
<!-- Node6&#45;&gt;Node8 -->
<g id="edge16" class="edge"><title>Node6&#45;&gt;Node8</title>
<path fill="none" stroke="midnightblue" d="M1054.14,-239.384C970.407,-233.664 850.609,-221.753 810.01,-199 785.946,-185.514 767.51,-158.662 757.215,-140.761"/>
<polygon fill="midnightblue" stroke="midnightblue" points="760.224,-138.967 752.35,-131.878 754.084,-142.33 760.224,-138.967"/>
</g>
<!-- Node16 -->
<g id="node16" class="node"><title>Node16</title>
<g id="a_node16"><a xlink:href="Types_8hpp.html" target="_top" xlink:title="Core/Types.hpp">
<polygon fill="white" stroke="black" points="1394.51,-174 1394.51,-193 1483.51,-193 1483.51,-174 1394.51,-174"/>
<text text-anchor="middle" x="1439.01" y="-181" font-family="Helvetica,sans-Serif" font-size="10.00">Core/Types.hpp</text>
</a>
</g>
</g>
<!-- Node6&#45;&gt;Node16 -->
<g id="edge17" class="edge"><title>Node6&#45;&gt;Node16</title>
<path fill="none" stroke="midnightblue" d="M1194.09,-235.469C1243.69,-227.201 1319.68,-213.771 1385.01,-199 1389.5,-197.985 1394.18,-196.849 1398.82,-195.671"/>
<polygon fill="midnightblue" stroke="midnightblue" points="1400.05,-198.968 1408.84,-193.057 1398.28,-192.194 1400.05,-198.968"/>
</g>
<!-- Node7&#45;&gt;Node5 -->
<g id="edge15" class="edge"><title>Node7&#45;&gt;Node5</title>
<path fill="none" stroke="midnightblue" d="M1275.7,-168.399C1257.75,-158.773 1234.09,-146.09 1216.34,-136.577"/>
<polygon fill="midnightblue" stroke="midnightblue" points="1217.63,-133.297 1207.16,-131.658 1214.32,-139.467 1217.63,-133.297"/>
</g>
<!-- Node7&#45;&gt;Node8 -->
<g id="edge7" class="edge"><title>Node7&#45;&gt;Node8</title>
<path fill="none" stroke="midnightblue" d="M1227.04,-175.354C1113.35,-164.438 901.448,-143.761 807.132,-132.068"/>
<polygon fill="midnightblue" stroke="midnightblue" points="807.392,-128.573 797.032,-130.792 806.514,-135.518 807.392,-128.573"/>
</g>
<!-- Node15 -->
<g id="node15" class="node"><title>Node15</title>
<polygon fill="white" stroke="#bfbfbf" points="1232.51,-112.5 1232.51,-131.5 1325.51,-131.5 1325.51,-112.5 1232.51,-112.5"/>
<text text-anchor="middle" x="1279.01" y="-119.5" font-family="Helvetica,sans-Serif" font-size="10.00">Eigen/StdVector</text>
</g>
<!-- Node7&#45;&gt;Node15 -->
<g id="edge14" class="edge"><title>Node7&#45;&gt;Node15</title>
<path fill="none" stroke="midnightblue" d="M1296.56,-168.399C1293.39,-160.199 1289.36,-149.781 1285.97,-140.994"/>
<polygon fill="midnightblue" stroke="midnightblue" points="1289.23,-139.723 1282.36,-131.658 1282.7,-142.247 1289.23,-139.723"/>
</g>
<!-- Node9 -->
<g id="node9" class="node"><title>Node9</title>
<g id="a_node9"><a xlink:href="CoreMacros_8hpp.html" target="_top" xlink:title="Core/CoreMacros.hpp">
<polygon fill="white" stroke="black" points="854.01,-56.5 854.01,-75.5 974.01,-75.5 974.01,-56.5 854.01,-56.5"/>
<text text-anchor="middle" x="914.01" y="-63.5" font-family="Helvetica,sans-Serif" font-size="10.00">Core/CoreMacros.hpp</text>
</a>
</g>
</g>
<!-- Node8&#45;&gt;Node9 -->
<g id="edge8" class="edge"><title>Node8&#45;&gt;Node9</title>
<path fill="none" stroke="midnightblue" d="M774.313,-112.444C802.361,-103.32 846.954,-88.8133 878.194,-78.6509"/>
<polygon fill="midnightblue" stroke="midnightblue" points="879.403,-81.9383 887.83,-75.5164 877.238,-75.2816 879.403,-81.9383"/>
</g>
<!-- Node10 -->
<g id="node10" class="node"><title>Node10</title>
<polygon fill="white" stroke="#bfbfbf" points="992.01,-0.5 992.01,-19.5 1044.01,-19.5 1044.01,-0.5 992.01,-0.5"/>
<text text-anchor="middle" x="1018.01" y="-7.5" font-family="Helvetica,sans-Serif" font-size="10.00">cassert</text>
</g>
<!-- Node9&#45;&gt;Node10 -->
<g id="edge9" class="edge"><title>Node9&#45;&gt;Node10</title>
<path fill="none" stroke="midnightblue" d="M930.719,-56.324C947.322,-47.7034 973.012,-34.3643 992.23,-24.3855"/>
<polygon fill="midnightblue" stroke="midnightblue" points="994.08,-27.3689 1001.34,-19.6545 990.854,-21.1565 994.08,-27.3689"/>
</g>
<!-- Node11 -->
<g id="node11" class="node"><title>Node11</title>
<polygon fill="white" stroke="#bfbfbf" points="785.51,-0.5 785.51,-19.5 830.51,-19.5 830.51,-0.5 785.51,-0.5"/>
<text text-anchor="middle" x="808.01" y="-7.5" font-family="Helvetica,sans-Serif" font-size="10.00">cstdio</text>
</g>
<!-- Node9&#45;&gt;Node11 -->
<g id="edge10" class="edge"><title>Node9&#45;&gt;Node11</title>
<path fill="none" stroke="midnightblue" d="M896.979,-56.324C879.98,-47.6641 853.634,-34.2424 834.017,-24.249"/>
<polygon fill="midnightblue" stroke="midnightblue" points="835.498,-21.0752 824.998,-19.6545 832.32,-27.3125 835.498,-21.0752"/>
</g>
<!-- Node12 -->
<g id="node12" class="node"><title>Node12</title>
<polygon fill="white" stroke="#bfbfbf" points="848.51,-0.5 848.51,-19.5 907.51,-19.5 907.51,-0.5 848.51,-0.5"/>
<text text-anchor="middle" x="878.01" y="-7.5" font-family="Helvetica,sans-Serif" font-size="10.00">iostream</text>
</g>
<!-- Node9&#45;&gt;Node12 -->
<g id="edge11" class="edge"><title>Node9&#45;&gt;Node12</title>
<path fill="none" stroke="midnightblue" d="M908.065,-56.083C903.033,-48.5341 895.673,-37.4948 889.496,-28.2298"/>
<polygon fill="midnightblue" stroke="midnightblue" points="892.303,-26.1301 883.844,-19.7511 886.479,-30.0131 892.303,-26.1301"/>
</g>
<!-- Node13 -->
<g id="node13" class="node"><title>Node13</title>
<polygon fill="white" stroke="#bfbfbf" points="531.01,-0.5 531.01,-19.5 587.01,-19.5 587.01,-0.5 531.01,-0.5"/>
<text text-anchor="middle" x="559.01" y="-7.5" font-family="Helvetica,sans-Serif" font-size="10.00">sstream</text>
</g>
<!-- Node9&#45;&gt;Node13 -->
<g id="edge12" class="edge"><title>Node9&#45;&gt;Node13</title>
<path fill="none" stroke="midnightblue" d="M857.759,-56.4435C784.941,-45.367 659.974,-26.3579 597.263,-16.8187"/>
<polygon fill="midnightblue" stroke="midnightblue" points="597.439,-13.3053 587.026,-15.2616 596.386,-20.2257 597.439,-13.3053"/>
</g>
<!-- Node14 -->
<g id="node14" class="node"><title>Node14</title>
<polygon fill="white" stroke="#bfbfbf" points="926.01,-0.5 926.01,-19.5 974.01,-19.5 974.01,-0.5 926.01,-0.5"/>
<text text-anchor="middle" x="950.01" y="-7.5" font-family="Helvetica,sans-Serif" font-size="10.00">thread</text>
</g>
<!-- Node9&#45;&gt;Node14 -->
<g id="edge13" class="edge"><title>Node9&#45;&gt;Node14</title>
<path fill="none" stroke="midnightblue" d="M919.955,-56.083C924.987,-48.5341 932.347,-37.4948 938.523,-28.2298"/>
<polygon fill="midnightblue" stroke="midnightblue" points="941.541,-30.0131 944.176,-19.7511 935.717,-26.1301 941.541,-30.0131"/>
</g>
<!-- Node16&#45;&gt;Node8 -->
<g id="edge18" class="edge"><title>Node16&#45;&gt;Node8</title>
<path fill="none" stroke="midnightblue" d="M1411.49,-173.972C1403.07,-171.671 1393.73,-169.427 1385.01,-168 1133.79,-126.888 1064.1,-158.96 807.026,-131.998"/>
<polygon fill="midnightblue" stroke="midnightblue" points="807.331,-128.511 797.016,-130.928 806.587,-135.471 807.331,-128.511"/>
</g>
<!-- Node17 -->
<g id="node17" class="node"><title>Node17</title>
<polygon fill="white" stroke="#bfbfbf" points="1554.01,-112.5 1554.01,-131.5 1622.01,-131.5 1622.01,-112.5 1554.01,-112.5"/>
<text text-anchor="middle" x="1588.01" y="-119.5" font-family="Helvetica,sans-Serif" font-size="10.00">Eigen/Core</text>
</g>
<!-- Node16&#45;&gt;Node17 -->
<g id="edge19" class="edge"><title>Node16&#45;&gt;Node17</title>
<path fill="none" stroke="midnightblue" d="M1460.36,-173.975C1485.7,-163.857 1528.15,-146.905 1557.08,-135.351"/>
<polygon fill="midnightblue" stroke="midnightblue" points="1558.71,-138.468 1566.7,-131.509 1556.12,-131.967 1558.71,-138.468"/>
</g>
<!-- Node18 -->
<g id="node18" class="node"><title>Node18</title>
<polygon fill="white" stroke="#bfbfbf" points="1344.01,-112.5 1344.01,-131.5 1438.01,-131.5 1438.01,-112.5 1344.01,-112.5"/>
<text text-anchor="middle" x="1391.01" y="-119.5" font-family="Helvetica,sans-Serif" font-size="10.00">Eigen/Geometry</text>
</g>
<!-- Node16&#45;&gt;Node18 -->
<g id="edge20" class="edge"><title>Node16&#45;&gt;Node18</title>
<path fill="none" stroke="midnightblue" d="M1432.13,-173.975C1424.86,-164.962 1413.21,-150.525 1404.17,-139.312"/>
<polygon fill="midnightblue" stroke="midnightblue" points="1406.88,-137.095 1397.87,-131.509 1401.43,-141.49 1406.88,-137.095"/>
</g>
<!-- Node19 -->
<g id="node19" class="node"><title>Node19</title>
<polygon fill="white" stroke="#bfbfbf" points="1456.01,-112.5 1456.01,-131.5 1536.01,-131.5 1536.01,-112.5 1456.01,-112.5"/>
<text text-anchor="middle" x="1496.01" y="-119.5" font-family="Helvetica,sans-Serif" font-size="10.00">Eigen/Sparse</text>
</g>
<!-- Node16&#45;&gt;Node19 -->
<g id="edge21" class="edge"><title>Node16&#45;&gt;Node19</title>
<path fill="none" stroke="midnightblue" d="M1447.18,-173.975C1455.9,-164.873 1469.91,-150.241 1480.7,-138.983"/>
<polygon fill="midnightblue" stroke="midnightblue" points="1483.47,-141.151 1487.86,-131.509 1478.41,-136.309 1483.47,-141.151"/>
</g>
<!-- Node20&#45;&gt;Node8 -->
<g id="edge25" class="edge"><title>Node20&#45;&gt;Node8</title>
<path fill="none" stroke="midnightblue" d="M885.943,-173.975C858.325,-163.769 811.89,-146.608 780.614,-135.049"/>
<polygon fill="midnightblue" stroke="midnightblue" points="781.628,-131.693 771.035,-131.509 779.201,-138.259 781.628,-131.693"/>
</g>
<!-- Node21 -->
<g id="node21" class="node"><title>Node21</title>
<polygon fill="white" stroke="#bfbfbf" points="815.01,-112.5 815.01,-131.5 857.01,-131.5 857.01,-112.5 815.01,-112.5"/>
<text text-anchor="middle" x="836.01" y="-119.5" font-family="Helvetica,sans-Serif" font-size="10.00">limits</text>
</g>
<!-- Node20&#45;&gt;Node21 -->
<g id="edge26" class="edge"><title>Node20&#45;&gt;Node21</title>
<path fill="none" stroke="midnightblue" d="M898.551,-173.975C887.059,-164.608 868.38,-149.384 854.423,-138.008"/>
<polygon fill="midnightblue" stroke="midnightblue" points="856.412,-135.114 846.45,-131.509 851.99,-140.54 856.412,-135.114"/>
</g>
<!-- Node22 -->
<g id="node22" class="node"><title>Node22</title>
<g id="a_node22"><a xlink:href="Index_8inl.html" target="_top" xlink:title="Core/Utils/Index.inl">
<polygon fill="white" stroke="black" points="875.51,-112.5 875.51,-131.5 980.51,-131.5 980.51,-112.5 875.51,-112.5"/>
<text text-anchor="middle" x="928.01" y="-119.5" font-family="Helvetica,sans-Serif" font-size="10.00">Core/Utils/Index.inl</text>
</a>
</g>
</g>
<!-- Node20&#45;&gt;Node22 -->
<g id="edge27" class="edge"><title>Node20&#45;&gt;Node22</title>
<path fill="none" stroke="midnightblue" d="M911.732,-173.975C914.441,-165.492 918.684,-152.204 922.159,-141.322"/>
<polygon fill="midnightblue" stroke="midnightblue" points="925.585,-142.1 925.293,-131.509 918.917,-139.97 925.585,-142.1"/>
</g>
<!-- Node23&#45;&gt;Node4 -->
<g id="edge30" class="edge"><title>Node23&#45;&gt;Node4</title>
<path fill="none" stroke="midnightblue" d="M243.098,-173.975C220.847,-163.945 183.698,-147.2 158.084,-135.655"/>
<polygon fill="midnightblue" stroke="midnightblue" points="159.442,-132.428 148.887,-131.509 156.566,-138.809 159.442,-132.428"/>
</g>
<!-- Node23&#45;&gt;Node8 -->
<g id="edge29" class="edge"><title>Node23&#45;&gt;Node8</title>
<path fill="none" stroke="midnightblue" d="M306.487,-173.989C318.33,-171.874 331.134,-169.721 343.01,-168 465.463,-150.257 609.633,-135.754 688.69,-128.345"/>
<polygon fill="midnightblue" stroke="midnightblue" points="689.305,-131.803 698.937,-127.391 688.656,-124.833 689.305,-131.803"/>
</g>
<!-- Node24&#45;&gt;Node4 -->
<g id="edge32" class="edge"><title>Node24&#45;&gt;Node4</title>
<path fill="none" stroke="midnightblue" d="M184.288,-240.35C120.447,-235.53 37.2086,-224.428 16.0099,-199 7.18755,-188.417 8.25982,-179.391 16.0099,-168 34.1841,-141.287 70.9055,-130.432 97.778,-126.02"/>
<polygon fill="midnightblue" stroke="midnightblue" points="98.4847,-129.455 107.892,-124.582 97.4992,-122.525 98.4847,-129.455"/>
</g>
<!-- Node24&#45;&gt;Node5 -->
<g id="edge33" class="edge"><title>Node24&#45;&gt;Node5</title>
<path fill="none" stroke="midnightblue" d="M339.532,-238.866C358.952,-237.591 379.742,-236.236 399.01,-235 526.775,-226.804 854.511,-244.947 974.01,-199 994.677,-191.054 993.166,-177.822 1013.01,-168 1060.07,-144.706 1120.27,-132.757 1157.22,-127.198"/>
<polygon fill="midnightblue" stroke="midnightblue" points="1158.04,-130.616 1167.44,-125.734 1157.05,-123.687 1158.04,-130.616"/>
</g>
<!-- Node24&#45;&gt;Node8 -->
<g id="edge35" class="edge"><title>Node24&#45;&gt;Node8</title>
<path fill="none" stroke="midnightblue" d="M339.52,-235.467C378.594,-229.05 425.865,-217.968 465.01,-199 484.624,-189.496 483.225,-177.145 503.01,-168 562.505,-140.5 637.426,-129.789 688.655,-125.627"/>
<polygon fill="midnightblue" stroke="midnightblue" points="689.184,-129.097 698.893,-124.856 688.659,-122.117 689.184,-129.097"/>
</g>
<!-- Node24&#45;&gt;Node23 -->
<g id="edge34" class="edge"><title>Node24&#45;&gt;Node23</title>
<path fill="none" stroke="midnightblue" d="M262.01,-235.475C262.01,-227.08 262.01,-213.981 262.01,-203.163"/>
<polygon fill="midnightblue" stroke="midnightblue" points="265.51,-203.009 262.01,-193.009 258.51,-203.009 265.51,-203.009"/>
</g>
<!-- Node25 -->
<g id="node25" class="node"><title>Node25</title>
<g id="a_node25"><a xlink:href="MaterialData_8inl.html" target="_top" xlink:title="Core/Asset/MaterialData.inl">
<polygon fill="white" stroke="black" points="25.5099,-174 25.5099,-193 172.51,-193 172.51,-174 25.5099,-174"/>
<text text-anchor="middle" x="99.0099" y="-181" font-family="Helvetica,sans-Serif" font-size="10.00">Core/Asset/MaterialData.inl</text>
</a>
</g>
</g>
<!-- Node24&#45;&gt;Node25 -->
<g id="edge36" class="edge"><title>Node24&#45;&gt;Node25</title>
<path fill="none" stroke="midnightblue" d="M233.755,-235.475C203.7,-225.313 156.749,-208.256 126.858,-196.7"/>
<polygon fill="midnightblue" stroke="midnightblue" points="128.011,-193.393 117.423,-193.009 125.461,-199.912 128.011,-193.393"/>
</g>
<!-- Node25&#45;&gt;Node24 -->
<g id="edge37" class="edge"><title>Node25&#45;&gt;Node24</title>
<path fill="none" stroke="midnightblue" d="M127.218,-193.009C157.256,-203.164 204.206,-220.22 234.116,-231.782"/>
<polygon fill="midnightblue" stroke="midnightblue" points="232.969,-235.092 243.557,-235.475 235.519,-228.573 232.969,-235.092"/>
</g>
<!-- Node26&#45;&gt;Node2 -->
<g id="edge39" class="edge"><title>Node26&#45;&gt;Node2</title>
<path fill="none" stroke="midnightblue" d="M567.141,-254.751C568.667,-261.858 569.114,-272.136 568.482,-281.101"/>
<polygon fill="midnightblue" stroke="midnightblue" points="565.003,-280.713 567.176,-291.083 571.944,-281.622 565.003,-280.713"/>
</g>
<!-- Node27 -->
<g id="node27" class="node"><title>Node27</title>
<g id="a_node27"><a xlink:href="Color_8hpp.html" target="_top" xlink:title="Core/Utils/Color.hpp">
<polygon fill="white" stroke="black" points="1022.51,-174 1022.51,-193 1133.51,-193 1133.51,-174 1022.51,-174"/>
<text text-anchor="middle" x="1078.01" y="-181" font-family="Helvetica,sans-Serif" font-size="10.00">Core/Utils/Color.hpp</text>
</a>
</g>
</g>
<!-- Node26&#45;&gt;Node27 -->
<g id="edge40" class="edge"><title>Node26&#45;&gt;Node27</title>
<path fill="none" stroke="midnightblue" d="M640.873,-238.528C730.247,-231.751 880.128,-218.642 1008.01,-199 1015.26,-197.886 1022.9,-196.513 1030.36,-195.06"/>
<polygon fill="midnightblue" stroke="midnightblue" points="1031.25,-198.451 1040.36,-193.047 1029.86,-191.589 1031.25,-198.451"/>
</g>
<!-- Node29 -->
<g id="node29" class="node"><title>Node29</title>
<g id="a_node29"><a xlink:href="Log_8hpp.html" target="_top" xlink:title="Core/Utils/Log.hpp">
<polygon fill="white" stroke="black" points="352.01,-174 352.01,-193 456.01,-193 456.01,-174 352.01,-174"/>
<text text-anchor="middle" x="404.01" y="-181" font-family="Helvetica,sans-Serif" font-size="10.00">Core/Utils/Log.hpp</text>
</a>
</g>
</g>
<!-- Node26&#45;&gt;Node29 -->
<g id="edge45" class="edge"><title>Node26&#45;&gt;Node29</title>
<path fill="none" stroke="midnightblue" d="M539.372,-235.475C512.27,-225.269 466.7,-208.108 436.006,-196.549"/>
<polygon fill="midnightblue" stroke="midnightblue" points="437.197,-193.258 426.606,-193.009 434.73,-199.809 437.197,-193.258"/>
</g>
<!-- Node32 -->
<g id="node32" class="node"><title>Node32</title>
<polygon fill="white" stroke="#bfbfbf" points="512.01,-174 512.01,-193 574.01,-193 574.01,-174 512.01,-174"/>
<text text-anchor="middle" x="543.01" y="-181" font-family="Helvetica,sans-Serif" font-size="10.00">algorithm</text>
</g>
<!-- Node26&#45;&gt;Node32 -->
<g id="edge51" class="edge"><title>Node26&#45;&gt;Node32</title>
<path fill="none" stroke="midnightblue" d="M559.288,-235.475C556.579,-226.992 552.336,-213.704 548.861,-202.822"/>
<polygon fill="midnightblue" stroke="midnightblue" points="552.103,-201.47 545.727,-193.009 545.435,-203.6 552.103,-201.47"/>
</g>
<!-- Node33 -->
<g id="node33" class="node"><title>Node33</title>
<polygon fill="white" stroke="#bfbfbf" points="592.01,-174 592.01,-193 644.01,-193 644.01,-174 592.01,-174"/>
<text text-anchor="middle" x="618.01" y="-181" font-family="Helvetica,sans-Serif" font-size="10.00">iterator</text>
</g>
<!-- Node26&#45;&gt;Node33 -->
<g id="edge52" class="edge"><title>Node26&#45;&gt;Node33</title>
<path fill="none" stroke="midnightblue" d="M570.033,-235.475C578.6,-226.373 592.371,-211.741 602.967,-200.483"/>
<polygon fill="midnightblue" stroke="midnightblue" points="605.696,-202.69 610.001,-193.009 600.599,-197.892 605.696,-202.69"/>
</g>
<!-- Node27&#45;&gt;Node9 -->
<g id="edge41" class="edge"><title>Node27&#45;&gt;Node9</title>
<path fill="none" stroke="midnightblue" d="M1078.63,-173.876C1079.18,-159.198 1078.08,-129.274 1062.01,-112 1041.97,-90.4618 1011.98,-79.1166 984.225,-73.1849"/>
<polygon fill="midnightblue" stroke="midnightblue" points="984.605,-69.6938 974.123,-71.2356 983.279,-76.567 984.605,-69.6938"/>
</g>
<!-- Node27&#45;&gt;Node17 -->
<g id="edge42" class="edge"><title>Node27&#45;&gt;Node17</title>
<path fill="none" stroke="midnightblue" d="M1133.73,-176.624C1244.58,-164.912 1486.47,-139.258 1543.89,-131.859"/>
<polygon fill="midnightblue" stroke="midnightblue" points="1544.38,-135.325 1553.8,-130.478 1543.41,-128.392 1544.38,-135.325"/>
</g>
<!-- Node27&#45;&gt;Node18 -->
<g id="edge43" class="edge"><title>Node27&#45;&gt;Node18</title>
<path fill="none" stroke="midnightblue" d="M1122.86,-173.975C1179.1,-163.283 1275.5,-144.958 1336.1,-133.437"/>
<polygon fill="midnightblue" stroke="midnightblue" points="1337.08,-136.815 1346.25,-131.509 1335.77,-129.938 1337.08,-136.815"/>
</g>
<!-- Node28 -->
<g id="node28" class="node"><title>Node28</title>
<polygon fill="white" stroke="#bfbfbf" points="999.01,-112.5 999.01,-131.5 1053.01,-131.5 1053.01,-112.5 999.01,-112.5"/>
<text text-anchor="middle" x="1026.01" y="-119.5" font-family="Helvetica,sans-Serif" font-size="10.00">random</text>
</g>
<!-- Node27&#45;&gt;Node28 -->
<g id="edge44" class="edge"><title>Node27&#45;&gt;Node28</title>
<path fill="none" stroke="midnightblue" d="M1070.56,-173.975C1062.68,-164.962 1050.07,-150.525 1040.27,-139.312"/>
<polygon fill="midnightblue" stroke="midnightblue" points="1042.66,-136.736 1033.45,-131.509 1037.39,-141.342 1042.66,-136.736"/>
</g>
<!-- Node29&#45;&gt;Node4 -->
<g id="edge50" class="edge"><title>Node29&#45;&gt;Node4</title>
<path fill="none" stroke="midnightblue" d="M367.976,-173.94C359.469,-171.956 350.426,-169.877 342.01,-168 278.195,-153.766 203.332,-138.122 161.823,-129.54"/>
<polygon fill="midnightblue" stroke="midnightblue" points="162.517,-126.11 152.016,-127.516 161.102,-132.965 162.517,-126.11"/>
</g>
<!-- Node29&#45;&gt;Node8 -->
<g id="edge46" class="edge"><title>Node29&#45;&gt;Node8</title>
<path fill="none" stroke="midnightblue" d="M441.283,-173.931C450.64,-171.884 460.675,-169.779 470.01,-168 545.177,-153.671 632.342,-140.043 688.74,-131.615"/>
<polygon fill="midnightblue" stroke="midnightblue" points="689.527,-135.036 698.902,-130.102 688.496,-128.112 689.527,-135.036"/>
</g>
<!-- Node29&#45;&gt;Node13 -->
<g id="edge48" class="edge"><title>Node29&#45;&gt;Node13</title>
<path fill="none" stroke="midnightblue" d="M400.257,-173.6C394.956,-159.546 387.07,-131.778 398.01,-112 424.034,-64.9541 482.153,-36.8799 520.968,-22.6858"/>
<polygon fill="midnightblue" stroke="midnightblue" points="522.598,-25.8232 530.875,-19.2095 520.28,-19.2181 522.598,-25.8232"/>
</g>
<!-- Node30 -->
<g id="node30" class="node"><title>Node30</title>
<polygon fill="white" stroke="#bfbfbf" points="407.01,-112.5 407.01,-131.5 451.01,-131.5 451.01,-112.5 407.01,-112.5"/>
<text text-anchor="middle" x="429.01" y="-119.5" font-family="Helvetica,sans-Serif" font-size="10.00">ctime</text>
</g>
<!-- Node29&#45;&gt;Node30 -->
<g id="edge47" class="edge"><title>Node29&#45;&gt;Node30</title>
<path fill="none" stroke="midnightblue" d="M407.592,-173.975C411.193,-165.404 416.856,-151.927 421.454,-140.983"/>
<polygon fill="midnightblue" stroke="midnightblue" points="424.788,-142.084 425.435,-131.509 418.334,-139.373 424.788,-142.084"/>
</g>
<!-- Node31 -->
<g id="node31" class="node"><title>Node31</title>
<polygon fill="white" stroke="#bfbfbf" points="469.51,-112.5 469.51,-131.5 518.51,-131.5 518.51,-112.5 469.51,-112.5"/>
<text text-anchor="middle" x="494.01" y="-119.5" font-family="Helvetica,sans-Serif" font-size="10.00">stdio.h</text>
</g>
<!-- Node29&#45;&gt;Node31 -->
<g id="edge49" class="edge"><title>Node29&#45;&gt;Node31</title>
<path fill="none" stroke="midnightblue" d="M416.905,-173.975C431.474,-164.343 455.412,-148.517 472.755,-137.052"/>
<polygon fill="midnightblue" stroke="midnightblue" points="474.727,-139.944 481.139,-131.509 470.867,-134.104 474.727,-139.944"/>
</g>
<!-- Node34&#45;&gt;Node6 -->
<g id="edge54" class="edge"><title>Node34&#45;&gt;Node6</title>
<path fill="none" stroke="midnightblue" d="M1170.03,-348.512C1193.54,-342.009 1216.43,-330.634 1231.01,-311 1248.5,-287.441 1213.36,-268.914 1182,-257.766"/>
<polygon fill="midnightblue" stroke="midnightblue" points="1183.04,-254.425 1172.45,-254.546 1180.8,-261.058 1183.04,-254.425"/>
</g>
<!-- Node34&#45;&gt;Node8 -->
<g id="edge58" class="edge"><title>Node34&#45;&gt;Node8</title>
<path fill="none" stroke="midnightblue" d="M993.986,-347.515C932.764,-340.262 857.556,-328.241 831.01,-311 780.56,-278.235 775.299,-255.631 755.01,-199 748.321,-180.33 747.061,-157.513 747.168,-141.779"/>
<polygon fill="midnightblue" stroke="midnightblue" points="750.668,-141.823 747.429,-131.735 743.67,-141.641 750.668,-141.823"/>
</g>
<!-- Node34&#45;&gt;Node16 -->
<g id="edge59" class="edge"><title>Node34&#45;&gt;Node16</title>
<path fill="none" stroke="midnightblue" d="M1150.38,-347.459C1247.84,-333.721 1419.05,-303.259 1456.01,-255 1467.8,-239.603 1459.25,-217.211 1450.56,-201.817"/>
<polygon fill="midnightblue" stroke="midnightblue" points="1453.53,-199.958 1445.32,-193.26 1447.56,-203.616 1453.53,-199.958"/>
</g>
<!-- Node34&#45;&gt;Node27 -->
<g id="edge64" class="edge"><title>Node34&#45;&gt;Node27</title>
<path fill="none" stroke="midnightblue" d="M1068.95,-347.436C1058.1,-339.471 1043.44,-326.515 1037.01,-311 1030.4,-295.049 1038.25,-252.952 1045.01,-235 1049.6,-222.82 1057.51,-210.564 1064.44,-201.176"/>
<polygon fill="midnightblue" stroke="midnightblue" points="1067.29,-203.205 1070.63,-193.151 1061.75,-198.926 1067.29,-203.205"/>
</g>
<!-- Node35 -->
<g id="node35" class="node"><title>Node35</title>
<g id="a_node35"><a xlink:href="AbstractGeometry_8hpp.html" target="_top" xlink:title="Core/Geometry/AbstractGeometry.hpp">
<polygon fill="white" stroke="black" points="1245.51,-235.5 1245.51,-254.5 1446.51,-254.5 1446.51,-235.5 1245.51,-235.5"/>
<text text-anchor="middle" x="1346.01" y="-242.5" font-family="Helvetica,sans-Serif" font-size="10.00">Core/Geometry/AbstractGeometry.hpp</text>
</a>
</g>
</g>
<!-- Node34&#45;&gt;Node35 -->
<g id="edge55" class="edge"><title>Node34&#45;&gt;Node35</title>
<path fill="none" stroke="midnightblue" d="M1070.66,-347.334C1054.79,-334.204 1029.58,-308.904 1045.01,-291 1057.68,-276.293 1155,-263.641 1235.61,-255.532"/>
<polygon fill="midnightblue" stroke="midnightblue" points="1236.25,-258.986 1245.85,-254.517 1235.55,-252.021 1236.25,-258.986"/>
</g>
<!-- Node36 -->
<g id="node36" class="node"><title>Node36</title>
<g id="a_node36"><a xlink:href="Attribs_8hpp.html" target="_top" xlink:title="Core/Utils/Attribs.hpp">
<polygon fill="white" stroke="black" points="840.51,-291.5 840.51,-310.5 959.51,-310.5 959.51,-291.5 840.51,-291.5"/>
<text text-anchor="middle" x="900.01" y="-298.5" font-family="Helvetica,sans-Serif" font-size="10.00">Core/Utils/Attribs.hpp</text>
</a>
</g>
</g>
<!-- Node34&#45;&gt;Node36 -->
<g id="edge60" class="edge"><title>Node34&#45;&gt;Node36</title>
<path fill="none" stroke="midnightblue" d="M1053.17,-347.444C1022.15,-338.241 972.681,-323.562 938.392,-313.388"/>
<polygon fill="midnightblue" stroke="midnightblue" points="939.296,-310.006 928.713,-310.516 937.305,-316.716 939.296,-310.006"/>
</g>
<!-- Node37 -->
<g id="node37" class="node"><title>Node37</title>
<g id="a_node37"><a xlink:href="TriangleMesh_8inl.html" target="_top" xlink:title="Core/Geometry/TriangleMesh.inl">
<polygon fill="white" stroke="black" points="1054.01,-291.5 1054.01,-310.5 1222.01,-310.5 1222.01,-291.5 1054.01,-291.5"/>
<text text-anchor="middle" x="1138.01" y="-298.5" font-family="Helvetica,sans-Serif" font-size="10.00">Core/Geometry/TriangleMesh.inl</text>
</a>
</g>
</g>
<!-- Node34&#45;&gt;Node37 -->
<g id="edge65" class="edge"><title>Node34&#45;&gt;Node37</title>
<path fill="none" stroke="midnightblue" d="M1086.09,-347.083C1092.78,-338.984 1105.02,-326.866 1116.07,-317.233"/>
<polygon fill="midnightblue" stroke="midnightblue" points="1118.39,-319.856 1123.8,-310.751 1113.89,-314.491 1118.39,-319.856"/>
</g>
<!-- Node35&#45;&gt;Node8 -->
<g id="edge56" class="edge"><title>Node35&#45;&gt;Node8</title>
<path fill="none" stroke="midnightblue" d="M1246.56,-235.491C1101.28,-223.006 847.602,-200.98 843.01,-199 823.928,-190.773 824.113,-181.134 808.01,-168 795.145,-157.507 780.212,-146.304 768.461,-137.701"/>
<polygon fill="midnightblue" stroke="midnightblue" points="770.33,-134.732 760.183,-131.683 766.214,-140.394 770.33,-134.732"/>
</g>
<!-- Node35&#45;&gt;Node16 -->
<g id="edge57" class="edge"><title>Node35&#45;&gt;Node16</title>
<path fill="none" stroke="midnightblue" d="M1359.33,-235.475C1374.39,-225.843 1399.13,-210.017 1417.05,-198.552"/>
<polygon fill="midnightblue" stroke="midnightblue" points="1419.17,-201.347 1425.71,-193.009 1415.4,-195.45 1419.17,-201.347"/>
</g>
<!-- Node36&#45;&gt;Node6 -->
<g id="edge61" class="edge"><title>Node36&#45;&gt;Node6</title>
<path fill="none" stroke="midnightblue" d="M938.197,-291.444C980.151,-282.043 1047.6,-266.929 1093.08,-256.739"/>
<polygon fill="midnightblue" stroke="midnightblue" points="1094.01,-260.118 1103,-254.516 1092.48,-253.288 1094.01,-260.118"/>
</g>
<!-- Node36&#45;&gt;Node8 -->
<g id="edge62" class="edge"><title>Node36&#45;&gt;Node8</title>
<path fill="none" stroke="midnightblue" d="M883.867,-291.364C857.005,-276.195 803.118,-242.228 773.01,-199 760.884,-181.59 754.328,-157.898 751.012,-141.62"/>
<polygon fill="midnightblue" stroke="midnightblue" points="754.441,-140.913 749.206,-131.703 747.554,-142.168 754.441,-140.913"/>
</g>
<!-- Node36&#45;&gt;Node20 -->
<g id="edge63" class="edge"><title>Node36&#45;&gt;Node20</title>
<path fill="none" stroke="midnightblue" d="M900.686,-291.319C902.133,-272.757 905.555,-228.839 907.532,-203.473"/>
<polygon fill="midnightblue" stroke="midnightblue" points="911.038,-203.524 908.326,-193.282 904.059,-202.98 911.038,-203.524"/>
</g>
<!-- Node37&#45;&gt;Node34 -->
<g id="edge66" class="edge"><title>Node37&#45;&gt;Node34</title>
<path fill="none" stroke="midnightblue" d="M1134,-310.834C1127.31,-318.948 1114.99,-331.145 1103.89,-340.82"/>
<polygon fill="midnightblue" stroke="midnightblue" points="1101.54,-338.221 1096.12,-347.324 1106.04,-343.588 1101.54,-338.221"/>
</g>
<!-- Node38&#45;&gt;Node5 -->
<g id="edge73" class="edge"><title>Node38&#45;&gt;Node5</title>
<path fill="none" stroke="midnightblue" d="M1581.77,-235.477C1567.01,-226.959 1544.23,-213.129 1526.01,-199 1510.11,-186.67 1511.19,-176.632 1493.01,-168 1386.54,-117.437 1343.84,-154.384 1224.55,-132.012"/>
<polygon fill="midnightblue" stroke="midnightblue" points="1225.17,-128.568 1214.68,-130.061 1223.81,-135.435 1225.17,-128.568"/>
</g>
<!-- Node38&#45;&gt;Node16 -->
<g id="edge74" class="edge"><title>Node38&#45;&gt;Node16</title>
<path fill="none" stroke="midnightblue" d="M1574.37,-235.475C1547.27,-225.269 1501.7,-208.108 1471.01,-196.549"/>
<polygon fill="midnightblue" stroke="midnightblue" points="1472.2,-193.258 1461.61,-193.009 1469.73,-199.809 1472.2,-193.258"/>
</g>
<!-- Node38&#45;&gt;Node17 -->
<g id="edge69" class="edge"><title>Node38&#45;&gt;Node17</title>
<path fill="none" stroke="midnightblue" d="M1596.36,-235.298C1594.92,-215.85 1591.39,-168.49 1589.42,-141.904"/>
<polygon fill="midnightblue" stroke="midnightblue" points="1592.88,-141.336 1588.65,-131.623 1585.9,-141.855 1592.88,-141.336"/>
</g>
<!-- Node38&#45;&gt;Node18 -->
<g id="edge70" class="edge"><title>Node38&#45;&gt;Node18</title>
<path fill="none" stroke="midnightblue" d="M1591.22,-235.392C1580.27,-219.765 1555.03,-186.627 1526.01,-168 1501.03,-151.967 1469.76,-141.072 1443.61,-134.023"/>
<polygon fill="midnightblue" stroke="midnightblue" points="1444.42,-130.617 1433.86,-131.507 1442.67,-137.395 1444.42,-130.617"/>
</g>
<!-- Node38&#45;&gt;Node20 -->
<g id="edge68" class="edge"><title>Node38&#45;&gt;Node20</title>
<path fill="none" stroke="midnightblue" d="M1502.76,-237.448C1362.43,-227.572 1105.2,-208.969 1013.01,-199 1000.97,-197.699 988.185,-196.097 975.842,-194.438"/>
<polygon fill="midnightblue" stroke="midnightblue" points="975.988,-190.925 965.606,-193.036 975.039,-197.86 975.988,-190.925"/>
</g>
<!-- Node39 -->
<g id="node39" class="node"><title>Node39</title>
<g id="a_node39"><a xlink:href="RaEngine_8hpp.html" target="_top" xlink:title="Engine/RaEngine.hpp">
<polygon fill="white" stroke="black" points="1616.51,-174 1616.51,-193 1733.51,-193 1733.51,-174 1616.51,-174"/>
<text text-anchor="middle" x="1675.01" y="-181" font-family="Helvetica,sans-Serif" font-size="10.00">Engine/RaEngine.hpp</text>
</a>
</g>
</g>
<!-- Node38&#45;&gt;Node39 -->
<g id="edge71" class="edge"><title>Node38&#45;&gt;Node39</title>
<path fill="none" stroke="midnightblue" d="M1608.19,-235.475C1620.58,-226.02 1640.8,-210.596 1655.76,-199.187"/>
<polygon fill="midnightblue" stroke="midnightblue" points="1658.03,-201.857 1663.86,-193.009 1653.78,-196.291 1658.03,-201.857"/>
</g>
<!-- Node40 -->
<g id="node40" class="node"><title>Node40</title>
<g id="a_node40"><a xlink:href="Component_8inl.html" target="_top" xlink:title="Engine/Component/Component.inl">
<polygon fill="white" stroke="black" points="1751.51,-174 1751.51,-193 1932.51,-193 1932.51,-174 1751.51,-174"/>
<text text-anchor="middle" x="1842.01" y="-181" font-family="Helvetica,sans-Serif" font-size="10.00">Engine/Component/Component.inl</text>
</a>
</g>
</g>
<!-- Node38&#45;&gt;Node40 -->
<g id="edge75" class="edge"><title>Node38&#45;&gt;Node40</title>
<path fill="none" stroke="midnightblue" d="M1627.21,-235.475C1668.48,-224.893 1742.68,-206.836 1792.21,-195.297"/>
<polygon fill="midnightblue" stroke="midnightblue" points="1793.12,-198.677 1802.08,-193.009 1791.54,-191.858 1793.12,-198.677"/>
</g>
<!-- Node39&#45;&gt;Node9 -->
<g id="edge72" class="edge"><title>Node39&#45;&gt;Node9</title>
<path fill="none" stroke="midnightblue" d="M1672.44,-173.658C1667.39,-158.074 1654.55,-126.041 1631.01,-112 1576.39,-79.4253 1153.69,-70.1921 984.083,-67.7844"/>
<polygon fill="midnightblue" stroke="midnightblue" points="984.058,-64.2838 974.011,-67.6452 983.962,-71.2831 984.058,-64.2838"/>
</g>
<!-- Node40&#45;&gt;Node38 -->
<g id="edge76" class="edge"><title>Node40&#45;&gt;Node38</title>
<path fill="none" stroke="midnightblue" d="M1811.87,-193.009C1770.64,-203.584 1696.44,-221.641 1646.88,-233.186"/>
<polygon fill="midnightblue" stroke="midnightblue" points="1645.96,-229.807 1637.01,-235.475 1647.55,-236.626 1645.96,-229.807"/>
</g>
</g>
</svg>
