<?xml version="1.0" encoding="UTF-8" standalone="no"?>
<!DOCTYPE svg PUBLIC "-//W3C//DTD SVG 1.1//EN"
 "http://www.w3.org/Graphics/SVG/1.1/DTD/svg11.dtd">
<!-- Generated by graphviz version 2.38.0 (20140413.2041)
 -->
<!-- Title: /home/travis/build/STORM&#45;IRIT/Radium&#45;Engine/src/Core/Asset/HandleData.cpp Pages: 1 -->
<svg width="1014pt" height="397pt"
 viewBox="0.00 0.00 1014.00 397.00" xmlns="http://www.w3.org/2000/svg" xmlns:xlink="http://www.w3.org/1999/xlink">
<g id="graph0" class="graph" transform="scale(1 1) rotate(0) translate(4 393)">
<title>/home/travis/build/STORM&#45;IRIT/Radium&#45;Engine/src/Core/Asset/HandleData.cpp</title>
<polygon fill="white" stroke="none" points="-4,4 -4,-393 1010,-393 1010,4 -4,4"/>
<!-- Node1 -->
<g id="node1" class="node"><title>Node1</title>
<polygon fill="#bfbfbf" stroke="black" points="217,-347.5 217,-388.5 387,-388.5 387,-347.5 217,-347.5"/>
<text text-anchor="start" x="225" y="-376.5" font-family="Helvetica,sans-Serif" font-size="10.00">/home/travis/build</text>
<text text-anchor="start" x="225" y="-365.5" font-family="Helvetica,sans-Serif" font-size="10.00">/STORM&#45;IRIT/Radium&#45;Engine</text>
<text text-anchor="middle" x="302" y="-354.5" font-family="Helvetica,sans-Serif" font-size="10.00">/src/Core/Asset/HandleData.cpp</text>
</g>
<!-- Node2 -->
<g id="node2" class="node"><title>Node2</title>
<g id="a_node2"><a xlink:href="HandleData_8hpp.html" target="_top" xlink:title="Core/Asset/HandleData.hpp">
<polygon fill="white" stroke="black" points="227,-291.5 227,-310.5 377,-310.5 377,-291.5 227,-291.5"/>
<text text-anchor="middle" x="302" y="-298.5" font-family="Helvetica,sans-Serif" font-size="10.00">Core/Asset/HandleData.hpp</text>
</a>
</g>
</g>
<!-- Node1&#45;&gt;Node2 -->
<g id="edge1" class="edge"><title>Node1&#45;&gt;Node2</title>
<path fill="none" stroke="midnightblue" d="M302,-347.498C302,-339.065 302,-329.235 302,-320.874"/>
<polygon fill="midnightblue" stroke="midnightblue" points="305.5,-320.652 302,-310.652 298.5,-320.653 305.5,-320.652"/>
</g>
<!-- Node3 -->
<g id="node3" class="node"><title>Node3</title>
<polygon fill="white" stroke="#bfbfbf" points="0,-230 0,-249 38,-249 38,-230 0,-230"/>
<text text-anchor="middle" x="19" y="-237" font-family="Helvetica,sans-Serif" font-size="10.00">map</text>
</g>
<!-- Node2&#45;&gt;Node3 -->
<g id="edge2" class="edge"><title>Node2&#45;&gt;Node3</title>
<path fill="none" stroke="midnightblue" d="M226.867,-292.804C175.274,-286.406 105.765,-274.883 47,-255 45.574,-254.518 44.1312,-253.971 42.6918,-253.381"/>
<polygon fill="midnightblue" stroke="midnightblue" points="43.9927,-250.125 33.4532,-249.043 41.0176,-256.461 43.9927,-250.125"/>
</g>
<!-- Node4 -->
<g id="node4" class="node"><title>Node4</title>
<polygon fill="white" stroke="#bfbfbf" points="56,-230 56,-249 88,-249 88,-230 56,-230"/>
<text text-anchor="middle" x="72" y="-237" font-family="Helvetica,sans-Serif" font-size="10.00">set</text>
</g>
<!-- Node2&#45;&gt;Node4 -->
<g id="edge3" class="edge"><title>Node2&#45;&gt;Node4</title>
<path fill="none" stroke="midnightblue" d="M239.542,-291.444C198.156,-284.536 143.187,-272.958 97,-255 96.1202,-254.658 95.2348,-254.288 94.3492,-253.896"/>
<polygon fill="midnightblue" stroke="midnightblue" points="95.6018,-250.603 85.1111,-249.122 92.388,-256.822 95.6018,-250.603"/>
</g>
<!-- Node5 -->
<g id="node5" class="node"><title>Node5</title>
<polygon fill="white" stroke="#bfbfbf" points="248,-112.5 248,-131.5 292,-131.5 292,-112.5 248,-112.5"/>
<text text-anchor="middle" x="270" y="-119.5" font-family="Helvetica,sans-Serif" font-size="10.00">string</text>
</g>
<!-- Node2&#45;&gt;Node5 -->
<g id="edge4" class="edge"><title>Node2&#45;&gt;Node5</title>
<path fill="none" stroke="midnightblue" d="M298.138,-291.229C290.191,-272.646 272.231,-227.75 266,-188 264.623,-179.218 265.606,-176.88 266,-168 266.383,-159.372 267.176,-149.841 267.956,-141.78"/>
<polygon fill="midnightblue" stroke="midnightblue" points="271.461,-141.918 269.006,-131.612 264.498,-141.199 271.461,-141.918"/>
</g>
<!-- Node6 -->
<g id="node6" class="node"><title>Node6</title>
<polygon fill="white" stroke="#bfbfbf" points="475.5,-168.5 475.5,-187.5 522.5,-187.5 522.5,-168.5 475.5,-168.5"/>
<text text-anchor="middle" x="499" y="-175.5" font-family="Helvetica,sans-Serif" font-size="10.00">vector</text>
</g>
<!-- Node2&#45;&gt;Node6 -->
<g id="edge5" class="edge"><title>Node2&#45;&gt;Node6</title>
<path fill="none" stroke="midnightblue" d="M377.263,-291.818C405.994,-285.544 437.465,-274.483 461,-255 478.804,-240.261 489.049,-215.096 494.319,-197.787"/>
<polygon fill="midnightblue" stroke="midnightblue" points="497.806,-198.307 497.092,-187.736 491.058,-196.444 497.806,-198.307"/>
</g>
<!-- Node7 -->
<g id="node7" class="node"><title>Node7</title>
<g id="a_node7"><a xlink:href="AlignedStdVector_8hpp.html" target="_top" xlink:title="Core/Containers/AlignedStd\lVector.hpp">
<polygon fill="white" stroke="black" points="512.5,-224.5 512.5,-254.5 661.5,-254.5 661.5,-224.5 512.5,-224.5"/>
<text text-anchor="start" x="520.5" y="-242.5" font-family="Helvetica,sans-Serif" font-size="10.00">Core/Containers/AlignedStd</text>
<text text-anchor="middle" x="587" y="-231.5" font-family="Helvetica,sans-Serif" font-size="10.00">Vector.hpp</text>
</a>
</g>
</g>
<!-- Node2&#45;&gt;Node7 -->
<g id="edge6" class="edge"><title>Node2&#45;&gt;Node7</title>
<path fill="none" stroke="midnightblue" d="M342.834,-291.475C386.303,-282.4 456.108,-267.826 509.97,-256.582"/>
<polygon fill="midnightblue" stroke="midnightblue" points="510.757,-259.993 519.831,-254.523 509.327,-253.141 510.757,-259.993"/>
</g>
<!-- Node8 -->
<g id="node8" class="node"><title>Node8</title>
<g id="a_node8"><a xlink:href="RaCore_8hpp.html" target="_top" xlink:title="Core/RaCore.hpp">
<polygon fill="white" stroke="black" points="354,-112.5 354,-131.5 452,-131.5 452,-112.5 354,-112.5"/>
<text text-anchor="middle" x="403" y="-119.5" font-family="Helvetica,sans-Serif" font-size="10.00">Core/RaCore.hpp</text>
</a>
</g>
</g>
<!-- Node2&#45;&gt;Node8 -->
<g id="edge16" class="edge"><title>Node2&#45;&gt;Node8</title>
<path fill="none" stroke="midnightblue" d="M318.718,-291.37C347.461,-275.46 405.339,-238.462 428,-188 435.244,-171.869 426.052,-152.955 416.839,-139.702"/>
<polygon fill="midnightblue" stroke="midnightblue" points="419.484,-137.398 410.659,-131.536 413.902,-141.622 419.484,-137.398"/>
</g>
<!-- Node16 -->
<g id="node16" class="node"><title>Node16</title>
<g id="a_node16"><a xlink:href="Types_8hpp.html" target="_top" xlink:title="Core/Types.hpp">
<polygon fill="white" stroke="black" points="717.5,-230 717.5,-249 806.5,-249 806.5,-230 717.5,-230"/>
<text text-anchor="middle" x="762" y="-237" font-family="Helvetica,sans-Serif" font-size="10.00">Core/Types.hpp</text>
</a>
</g>
</g>
<!-- Node2&#45;&gt;Node16 -->
<g id="edge17" class="edge"><title>Node2&#45;&gt;Node16</title>
<path fill="none" stroke="midnightblue" d="M377.019,-291.667C451.651,-283.186 569.385,-269.287 671,-255 682.64,-253.363 695.095,-251.472 706.938,-249.606"/>
<polygon fill="midnightblue" stroke="midnightblue" points="707.826,-253.009 717.152,-247.981 706.726,-246.096 707.826,-253.009"/>
</g>
<!-- Node20 -->
<g id="node20" class="node"><title>Node20</title>
<g id="a_node20"><a xlink:href="AssetData_8hpp.html" target="_top" xlink:title="Core/Asset/AssetData.hpp">
<polygon fill="white" stroke="black" points="275.5,-168.5 275.5,-187.5 418.5,-187.5 418.5,-168.5 275.5,-168.5"/>
<text text-anchor="middle" x="347" y="-175.5" font-family="Helvetica,sans-Serif" font-size="10.00">Core/Asset/AssetData.hpp</text>
</a>
</g>
</g>
<!-- Node2&#45;&gt;Node20 -->
<g id="edge22" class="edge"><title>Node2&#45;&gt;Node20</title>
<path fill="none" stroke="midnightblue" d="M305.236,-291.298C312.534,-271.676 330.399,-223.638 340.234,-197.193"/>
<polygon fill="midnightblue" stroke="midnightblue" points="343.588,-198.216 343.793,-187.623 337.027,-195.776 343.588,-198.216"/>
</g>
<!-- Node21 -->
<g id="node21" class="node"><title>Node21</title>
<g id="a_node21"><a xlink:href="HandleData_8inl.html" target="_top" xlink:title="Core/Asset/HandleData.inl">
<polygon fill="white" stroke="black" points="106.5,-230 106.5,-249 249.5,-249 249.5,-230 106.5,-230"/>
<text text-anchor="middle" x="178" y="-237" font-family="Helvetica,sans-Serif" font-size="10.00">Core/Asset/HandleData.inl</text>
</a>
</g>
</g>
<!-- Node2&#45;&gt;Node21 -->
<g id="edge25" class="edge"><title>Node2&#45;&gt;Node21</title>
<path fill="none" stroke="midnightblue" d="M279.333,-291.475C256.65,-281.622 222.334,-265.288 199.926,-253.77"/>
<polygon fill="midnightblue" stroke="midnightblue" points="201.319,-250.548 190.836,-249.009 198.071,-256.749 201.319,-250.548"/>
</g>
<!-- Node7&#45;&gt;Node6 -->
<g id="edge15" class="edge"><title>Node7&#45;&gt;Node6</title>
<path fill="none" stroke="midnightblue" d="M566.145,-224.399C552.303,-215.04 534.189,-202.792 520.264,-193.377"/>
<polygon fill="midnightblue" stroke="midnightblue" points="522.049,-190.36 511.805,-187.658 518.128,-196.158 522.049,-190.36"/>
</g>
<!-- Node7&#45;&gt;Node8 -->
<g id="edge7" class="edge"><title>Node7&#45;&gt;Node8</title>
<path fill="none" stroke="midnightblue" d="M611.457,-224.312C633.104,-209.973 658.972,-187.245 643,-168 620.496,-140.884 526.008,-130.009 462.519,-125.716"/>
<polygon fill="midnightblue" stroke="midnightblue" points="462.425,-122.203 452.222,-125.059 461.979,-129.189 462.425,-122.203"/>
</g>
<!-- Node15 -->
<g id="node15" class="node"><title>Node15</title>
<polygon fill="white" stroke="#bfbfbf" points="540.5,-168.5 540.5,-187.5 633.5,-187.5 633.5,-168.5 540.5,-168.5"/>
<text text-anchor="middle" x="587" y="-175.5" font-family="Helvetica,sans-Serif" font-size="10.00">Eigen/StdVector</text>
</g>
<!-- Node7&#45;&gt;Node15 -->
<g id="edge14" class="edge"><title>Node7&#45;&gt;Node15</title>
<path fill="none" stroke="midnightblue" d="M587,-224.399C587,-216.466 587,-206.458 587,-197.858"/>
<polygon fill="midnightblue" stroke="midnightblue" points="590.5,-197.658 587,-187.658 583.5,-197.658 590.5,-197.658"/>
</g>
<!-- Node9 -->
<g id="node9" class="node"><title>Node9</title>
<g id="a_node9"><a xlink:href="CoreMacros_8hpp.html" target="_top" xlink:title="Core/CoreMacros.hpp">
<polygon fill="white" stroke="black" points="337,-56.5 337,-75.5 457,-75.5 457,-56.5 337,-56.5"/>
<text text-anchor="middle" x="397" y="-63.5" font-family="Helvetica,sans-Serif" font-size="10.00">Core/CoreMacros.hpp</text>
</a>
</g>
</g>
<!-- Node8&#45;&gt;Node9 -->
<g id="edge8" class="edge"><title>Node8&#45;&gt;Node9</title>
<path fill="none" stroke="midnightblue" d="M402.009,-112.083C401.214,-104.927 400.071,-94.6353 399.077,-85.6911"/>
<polygon fill="midnightblue" stroke="midnightblue" points="402.555,-85.3034 397.972,-75.7511 395.598,-86.0765 402.555,-85.3034"/>
</g>
<!-- Node10 -->
<g id="node10" class="node"><title>Node10</title>
<polygon fill="white" stroke="#bfbfbf" points="349,-0.5 349,-19.5 401,-19.5 401,-0.5 349,-0.5"/>
<text text-anchor="middle" x="375" y="-7.5" font-family="Helvetica,sans-Serif" font-size="10.00">cassert</text>
</g>
<!-- Node9&#45;&gt;Node10 -->
<g id="edge9" class="edge"><title>Node9&#45;&gt;Node10</title>
<path fill="none" stroke="midnightblue" d="M393.367,-56.083C390.388,-48.77 386.074,-38.1814 382.375,-29.1034"/>
<polygon fill="midnightblue" stroke="midnightblue" points="385.58,-27.6914 378.565,-19.7511 379.097,-30.3326 385.58,-27.6914"/>
</g>
<!-- Node11 -->
<g id="node11" class="node"><title>Node11</title>
<polygon fill="white" stroke="#bfbfbf" points="419.5,-0.5 419.5,-19.5 464.5,-19.5 464.5,-0.5 419.5,-0.5"/>
<text text-anchor="middle" x="442" y="-7.5" font-family="Helvetica,sans-Serif" font-size="10.00">cstdio</text>
</g>
<!-- Node9&#45;&gt;Node11 -->
<g id="edge10" class="edge"><title>Node9&#45;&gt;Node11</title>
<path fill="none" stroke="midnightblue" d="M404.431,-56.083C410.853,-48.3768 420.306,-37.0333 428.122,-27.6531"/>
<polygon fill="midnightblue" stroke="midnightblue" points="430.994,-29.674 434.707,-19.7511 425.617,-25.1927 430.994,-29.674"/>
</g>
<!-- Node12 -->
<g id="node12" class="node"><title>Node12</title>
<polygon fill="white" stroke="#bfbfbf" points="482.5,-0.5 482.5,-19.5 541.5,-19.5 541.5,-0.5 482.5,-0.5"/>
<text text-anchor="middle" x="512" y="-7.5" font-family="Helvetica,sans-Serif" font-size="10.00">iostream</text>
</g>
<!-- Node9&#45;&gt;Node12 -->
<g id="edge11" class="edge"><title>Node9&#45;&gt;Node12</title>
<path fill="none" stroke="midnightblue" d="M415.222,-56.4435C433.896,-47.6751 463.156,-33.9355 484.617,-23.8579"/>
<polygon fill="midnightblue" stroke="midnightblue" points="486.299,-26.935 493.863,-19.5164 483.324,-20.5988 486.299,-26.935"/>
</g>
<!-- Node13 -->
<g id="node13" class="node"><title>Node13</title>
<polygon fill="white" stroke="#bfbfbf" points="203,-0.5 203,-19.5 259,-19.5 259,-0.5 203,-0.5"/>
<text text-anchor="middle" x="231" y="-7.5" font-family="Helvetica,sans-Serif" font-size="10.00">sstream</text>
</g>
<!-- Node9&#45;&gt;Node13 -->
<g id="edge12" class="edge"><title>Node9&#45;&gt;Node13</title>
<path fill="none" stroke="midnightblue" d="M370.697,-56.4435C342.649,-47.3196 298.056,-32.8133 266.816,-22.6509"/>
<polygon fill="midnightblue" stroke="midnightblue" points="267.772,-19.2816 257.18,-19.5164 265.607,-25.9383 267.772,-19.2816"/>
</g>
<!-- Node14 -->
<g id="node14" class="node"><title>Node14</title>
<polygon fill="white" stroke="#bfbfbf" points="283,-0.5 283,-19.5 331,-19.5 331,-0.5 283,-0.5"/>
<text text-anchor="middle" x="307" y="-7.5" font-family="Helvetica,sans-Serif" font-size="10.00">thread</text>
</g>
<!-- Node9&#45;&gt;Node14 -->
<g id="edge13" class="edge"><title>Node9&#45;&gt;Node14</title>
<path fill="none" stroke="midnightblue" d="M382.54,-56.324C368.5,-47.9002 346.952,-34.9709 330.457,-25.0741"/>
<polygon fill="midnightblue" stroke="midnightblue" points="331.8,-21.7983 321.424,-19.6545 328.198,-27.8007 331.8,-21.7983"/>
</g>
<!-- Node16&#45;&gt;Node8 -->
<g id="edge18" class="edge"><title>Node16&#45;&gt;Node8</title>
<path fill="none" stroke="midnightblue" d="M752.594,-229.958C735.395,-214.849 697.126,-183.543 659,-168 594.949,-141.887 515.822,-130.912 462.635,-126.308"/>
<polygon fill="midnightblue" stroke="midnightblue" points="462.607,-122.795 452.356,-125.47 462.038,-129.772 462.607,-122.795"/>
</g>
<!-- Node17 -->
<g id="node17" class="node"><title>Node17</title>
<polygon fill="white" stroke="#bfbfbf" points="728,-168.5 728,-187.5 796,-187.5 796,-168.5 728,-168.5"/>
<text text-anchor="middle" x="762" y="-175.5" font-family="Helvetica,sans-Serif" font-size="10.00">Eigen/Core</text>
</g>
<!-- Node16&#45;&gt;Node17 -->
<g id="edge19" class="edge"><title>Node16&#45;&gt;Node17</title>
<path fill="none" stroke="midnightblue" d="M762,-229.975C762,-221.58 762,-208.481 762,-197.663"/>
<polygon fill="midnightblue" stroke="midnightblue" points="765.5,-197.509 762,-187.509 758.5,-197.509 765.5,-197.509"/>
</g>
<!-- Node18 -->
<g id="node18" class="node"><title>Node18</title>
<polygon fill="white" stroke="#bfbfbf" points="814,-168.5 814,-187.5 908,-187.5 908,-168.5 814,-168.5"/>
<text text-anchor="middle" x="861" y="-175.5" font-family="Helvetica,sans-Serif" font-size="10.00">Eigen/Geometry</text>
</g>
<!-- Node16&#45;&gt;Node18 -->
<g id="edge20" class="edge"><title>Node16&#45;&gt;Node18</title>
<path fill="none" stroke="midnightblue" d="M776.184,-229.975C792.358,-220.255 819.026,-204.227 838.143,-192.737"/>
<polygon fill="midnightblue" stroke="midnightblue" points="840.074,-195.66 846.842,-187.509 836.468,-189.661 840.074,-195.66"/>
</g>
<!-- Node19 -->
<g id="node19" class="node"><title>Node19</title>
<polygon fill="white" stroke="#bfbfbf" points="926,-168.5 926,-187.5 1006,-187.5 1006,-168.5 926,-168.5"/>
<text text-anchor="middle" x="966" y="-175.5" font-family="Helvetica,sans-Serif" font-size="10.00">Eigen/Sparse</text>
</g>
<!-- Node16&#45;&gt;Node19 -->
<g id="edge21" class="edge"><title>Node16&#45;&gt;Node19</title>
<path fill="none" stroke="midnightblue" d="M791.228,-229.975C826.903,-219.57 887.36,-201.937 926.982,-190.38"/>
<polygon fill="midnightblue" stroke="midnightblue" points="928.206,-193.669 936.826,-187.509 926.246,-186.949 928.206,-193.669"/>
</g>
<!-- Node20&#45;&gt;Node5 -->
<g id="edge24" class="edge"><title>Node20&#45;&gt;Node5</title>
<path fill="none" stroke="midnightblue" d="M334.629,-168.324C322.842,-160.058 304.868,-147.453 290.864,-137.632"/>
<polygon fill="midnightblue" stroke="midnightblue" points="292.538,-134.531 282.341,-131.655 288.518,-140.262 292.538,-134.531"/>
</g>
<!-- Node20&#45;&gt;Node8 -->
<g id="edge23" class="edge"><title>Node20&#45;&gt;Node8</title>
<path fill="none" stroke="midnightblue" d="M355.997,-168.324C364.194,-160.42 376.506,-148.548 386.472,-138.938"/>
<polygon fill="midnightblue" stroke="midnightblue" points="389.07,-141.295 393.839,-131.834 384.211,-136.256 389.07,-141.295"/>
</g>
<!-- Node21&#45;&gt;Node2 -->
<g id="edge26" class="edge"><title>Node21&#45;&gt;Node2</title>
<path fill="none" stroke="midnightblue" d="M200.63,-249.009C223.301,-258.855 257.617,-275.188 280.038,-286.712"/>
<polygon fill="midnightblue" stroke="midnightblue" points="278.652,-289.936 289.134,-291.475 281.899,-283.735 278.652,-289.936"/>
</g>
<!-- Node22 -->
<g id="node22" class="node"><title>Node22</title>
<g id="a_node22"><a xlink:href="Log_8hpp.html" target="_top" xlink:title="Core/Utils/Log.hpp">
<polygon fill="white" stroke="black" points="115,-168.5 115,-187.5 219,-187.5 219,-168.5 115,-168.5"/>
<text text-anchor="middle" x="167" y="-175.5" font-family="Helvetica,sans-Serif" font-size="10.00">Core/Utils/Log.hpp</text>
</a>
</g>
</g>
<!-- Node21&#45;&gt;Node22 -->
<g id="edge27" class="edge"><title>Node21&#45;&gt;Node22</title>
<path fill="none" stroke="midnightblue" d="M176.424,-229.975C174.872,-221.58 172.45,-208.481 170.45,-197.663"/>
<polygon fill="midnightblue" stroke="midnightblue" points="173.833,-196.706 168.573,-187.509 166.949,-197.979 173.833,-196.706"/>
</g>
<!-- Node22&#45;&gt;Node5 -->
<g id="edge32" class="edge"><title>Node22&#45;&gt;Node5</title>
<path fill="none" stroke="midnightblue" d="M183.549,-168.324C199.992,-159.703 225.435,-146.364 244.468,-136.386"/>
<polygon fill="midnightblue" stroke="midnightblue" points="246.261,-139.398 253.492,-131.655 243.011,-133.198 246.261,-139.398"/>
</g>
<!-- Node22&#45;&gt;Node8 -->
<g id="edge28" class="edge"><title>Node22&#45;&gt;Node8</title>
<path fill="none" stroke="midnightblue" d="M204.395,-168.444C245.392,-159.063 311.254,-143.993 355.784,-133.804"/>
<polygon fill="midnightblue" stroke="midnightblue" points="356.813,-137.159 365.78,-131.516 355.251,-130.335 356.813,-137.159"/>
</g>
<!-- Node22&#45;&gt;Node13 -->
<g id="edge30" class="edge"><title>Node22&#45;&gt;Node13</title>
<path fill="none" stroke="midnightblue" d="M174.928,-168.349C182.419,-159.736 193.455,-145.838 200,-132 216.168,-97.8149 224.694,-54.0572 228.486,-29.6305"/>
<polygon fill="midnightblue" stroke="midnightblue" points="231.97,-29.9936 229.944,-19.5944 225.043,-28.9876 231.97,-29.9936"/>
</g>
<!-- Node23 -->
<g id="node23" class="node"><title>Node23</title>
<polygon fill="white" stroke="#bfbfbf" points="80,-112.5 80,-131.5 124,-131.5 124,-112.5 80,-112.5"/>
<text text-anchor="middle" x="102" y="-119.5" font-family="Helvetica,sans-Serif" font-size="10.00">ctime</text>
</g>
<!-- Node22&#45;&gt;Node23 -->
<g id="edge29" class="edge"><title>Node22&#45;&gt;Node23</title>
<path fill="none" stroke="midnightblue" d="M156.557,-168.324C146.854,-160.263 132.185,-148.077 120.5,-138.369"/>
<polygon fill="midnightblue" stroke="midnightblue" points="122.562,-135.532 112.633,-131.834 118.089,-140.916 122.562,-135.532"/>
</g>
<!-- Node24 -->
<g id="node24" class="node"><title>Node24</title>
<polygon fill="white" stroke="#bfbfbf" points="142.5,-112.5 142.5,-131.5 191.5,-131.5 191.5,-112.5 142.5,-112.5"/>
<text text-anchor="middle" x="167" y="-119.5" font-family="Helvetica,sans-Serif" font-size="10.00">stdio.h</text>
</g>
<!-- Node22&#45;&gt;Node24 -->
<g id="edge31" class="edge"><title>Node22&#45;&gt;Node24</title>
<path fill="none" stroke="midnightblue" d="M167,-168.083C167,-161.006 167,-150.861 167,-141.986"/>
<polygon fill="midnightblue" stroke="midnightblue" points="170.5,-141.751 167,-131.751 163.5,-141.751 170.5,-141.751"/>
</g>
</g>
</svg>
