<?xml version="1.0" encoding="UTF-8" standalone="no"?>
<!DOCTYPE svg PUBLIC "-//W3C//DTD SVG 1.1//EN"
 "http://www.w3.org/Graphics/SVG/1.1/DTD/svg11.dtd">
<!-- Generated by graphviz version 2.38.0 (20140413.2041)
 -->
<!-- Title: /home/travis/build/STORM&#45;IRIT/Radium&#45;Engine/src/Core/Animation/HandleWeightOperation.cpp Pages: 1 -->
<svg width="1226pt" height="419pt"
 viewBox="0.00 0.00 1225.95 419.00" xmlns="http://www.w3.org/2000/svg" xmlns:xlink="http://www.w3.org/1999/xlink">
<g id="graph0" class="graph" transform="scale(1 1) rotate(0) translate(4 415)">
<title>/home/travis/build/STORM&#45;IRIT/Radium&#45;Engine/src/Core/Animation/HandleWeightOperation.cpp</title>
<polygon fill="white" stroke="none" points="-4,4 -4,-415 1221.95,-415 1221.95,4 -4,4"/>
<!-- Node1 -->
<g id="node1" class="node"><title>Node1</title>
<polygon fill="#bfbfbf" stroke="black" points="327.5,-358.5 327.5,-410.5 506.5,-410.5 506.5,-358.5 327.5,-358.5"/>
<text text-anchor="start" x="335.5" y="-398.5" font-family="Helvetica,sans-Serif" font-size="10.00">/home/travis/build</text>
<text text-anchor="start" x="335.5" y="-387.5" font-family="Helvetica,sans-Serif" font-size="10.00">/STORM&#45;IRIT/Radium&#45;Engine</text>
<text text-anchor="start" x="335.5" y="-376.5" font-family="Helvetica,sans-Serif" font-size="10.00">/src/Core/Animation/HandleWeight</text>
<text text-anchor="middle" x="417" y="-365.5" font-family="Helvetica,sans-Serif" font-size="10.00">Operation.cpp</text>
</g>
<!-- Node2 -->
<g id="node2" class="node"><title>Node2</title>
<g id="a_node2"><a xlink:href="HandleWeightOperation_8hpp.html" target="_top" xlink:title="Core/Animation/HandleWeight\lOperation.hpp">
<polygon fill="white" stroke="black" points="284.5,-291.5 284.5,-321.5 443.5,-321.5 443.5,-291.5 284.5,-291.5"/>
<text text-anchor="start" x="292.5" y="-309.5" font-family="Helvetica,sans-Serif" font-size="10.00">Core/Animation/HandleWeight</text>
<text text-anchor="middle" x="364" y="-298.5" font-family="Helvetica,sans-Serif" font-size="10.00">Operation.hpp</text>
</a>
</g>
</g>
<!-- Node1&#45;&gt;Node2 -->
<g id="edge1" class="edge"><title>Node1&#45;&gt;Node2</title>
<path fill="none" stroke="midnightblue" d="M399.352,-358.193C393.028,-349.125 385.945,-338.968 379.788,-330.14"/>
<polygon fill="midnightblue" stroke="midnightblue" points="382.595,-328.046 374.004,-321.845 376.853,-332.05 382.595,-328.046"/>
</g>
<!-- Node19 -->
<g id="node19" class="node"><title>Node19</title>
<g id="a_node19"><a xlink:href="LinearAlgebra_8hpp.html" target="_top" xlink:title="Core/Math/LinearAlgebra.hpp">
<polygon fill="white" stroke="black" points="726,-235.5 726,-254.5 882,-254.5 882,-235.5 726,-235.5"/>
<text text-anchor="middle" x="804" y="-242.5" font-family="Helvetica,sans-Serif" font-size="10.00">Core/Math/LinearAlgebra.hpp</text>
</a>
</g>
</g>
<!-- Node1&#45;&gt;Node19 -->
<g id="edge19" class="edge"><title>Node1&#45;&gt;Node19</title>
<path fill="none" stroke="midnightblue" d="M429.77,-358.214C442.099,-336.61 462.876,-306.621 490,-291 527.413,-269.454 636.787,-257.42 715.938,-251.329"/>
<polygon fill="midnightblue" stroke="midnightblue" points="716.21,-254.818 725.92,-250.58 715.686,-247.838 716.21,-254.818"/>
</g>
<!-- Node27 -->
<g id="node27" class="node"><title>Node27</title>
<g id="a_node27"><a xlink:href="Log_8hpp.html" target="_top" xlink:title="Core/Utils/Log.hpp">
<polygon fill="white" stroke="black" points="91,-174 91,-193 195,-193 195,-174 91,-174"/>
<text text-anchor="middle" x="143" y="-181" font-family="Helvetica,sans-Serif" font-size="10.00">Core/Utils/Log.hpp</text>
</a>
</g>
</g>
<!-- Node1&#45;&gt;Node27 -->
<g id="edge35" class="edge"><title>Node1&#45;&gt;Node27</title>
<path fill="none" stroke="midnightblue" d="M344.021,-358.402C320.918,-348.787 295.959,-336.563 275,-322 223.996,-286.56 176.828,-229.178 155.286,-201.077"/>
<polygon fill="midnightblue" stroke="midnightblue" points="158.041,-198.916 149.22,-193.047 152.455,-203.136 158.041,-198.916"/>
</g>
<!-- Node31 -->
<g id="node31" class="node"><title>Node31</title>
<polygon fill="white" stroke="#bfbfbf" points="499,-297 499,-316 541,-316 541,-297 499,-297"/>
<text text-anchor="middle" x="520" y="-304" font-family="Helvetica,sans-Serif" font-size="10.00">utility</text>
</g>
<!-- Node1&#45;&gt;Node31 -->
<g id="edge41" class="edge"><title>Node1&#45;&gt;Node31</title>
<path fill="none" stroke="midnightblue" d="M451.012,-358.404C467.162,-346.487 485.917,-332.649 499.792,-322.411"/>
<polygon fill="midnightblue" stroke="midnightblue" points="502.159,-325.014 508.128,-316.26 498.003,-319.381 502.159,-325.014"/>
</g>
<!-- Node3 -->
<g id="node3" class="node"><title>Node3</title>
<g id="a_node3"><a xlink:href="HandleWeight_8hpp.html" target="_top" xlink:title="Core/Animation/HandleWeight.hpp">
<polygon fill="white" stroke="black" points="274,-235.5 274,-254.5 454,-254.5 454,-235.5 274,-235.5"/>
<text text-anchor="middle" x="364" y="-242.5" font-family="Helvetica,sans-Serif" font-size="10.00">Core/Animation/HandleWeight.hpp</text>
</a>
</g>
</g>
<!-- Node2&#45;&gt;Node3 -->
<g id="edge2" class="edge"><title>Node2&#45;&gt;Node3</title>
<path fill="none" stroke="midnightblue" d="M364,-291.399C364,-283.466 364,-273.458 364,-264.858"/>
<polygon fill="midnightblue" stroke="midnightblue" points="367.5,-264.658 364,-254.658 360.5,-264.658 367.5,-264.658"/>
</g>
<!-- Node4 -->
<g id="node4" class="node"><title>Node4</title>
<g id="a_node4"><a xlink:href="AlignedStdVector_8hpp.html" target="_top" xlink:title="Core/Containers/AlignedStd\lVector.hpp">
<polygon fill="white" stroke="black" points="289.5,-168.5 289.5,-198.5 438.5,-198.5 438.5,-168.5 289.5,-168.5"/>
<text text-anchor="start" x="297.5" y="-186.5" font-family="Helvetica,sans-Serif" font-size="10.00">Core/Containers/AlignedStd</text>
<text text-anchor="middle" x="364" y="-175.5" font-family="Helvetica,sans-Serif" font-size="10.00">Vector.hpp</text>
</a>
</g>
</g>
<!-- Node3&#45;&gt;Node4 -->
<g id="edge3" class="edge"><title>Node3&#45;&gt;Node4</title>
<path fill="none" stroke="midnightblue" d="M364,-235.475C364,-228.471 364,-218.192 364,-208.696"/>
<polygon fill="midnightblue" stroke="midnightblue" points="367.5,-208.523 364,-198.523 360.5,-208.523 367.5,-208.523"/>
</g>
<!-- Node14 -->
<g id="node14" class="node"><title>Node14</title>
<g id="a_node14"><a xlink:href="Types_8hpp.html" target="_top" xlink:title="Core/Types.hpp">
<polygon fill="white" stroke="black" points="626.5,-174 626.5,-193 715.5,-193 715.5,-174 626.5,-174"/>
<text text-anchor="middle" x="671" y="-181" font-family="Helvetica,sans-Serif" font-size="10.00">Core/Types.hpp</text>
</a>
</g>
</g>
<!-- Node3&#45;&gt;Node14 -->
<g id="edge13" class="edge"><title>Node3&#45;&gt;Node14</title>
<path fill="none" stroke="midnightblue" d="M420.049,-235.455C471.5,-227.274 549.722,-213.987 617,-199 621.669,-197.96 626.542,-196.783 631.367,-195.56"/>
<polygon fill="midnightblue" stroke="midnightblue" points="632.33,-198.926 641.123,-193.016 630.563,-192.153 632.33,-198.926"/>
</g>
<!-- Node18 -->
<g id="node18" class="node"><title>Node18</title>
<polygon fill="white" stroke="#bfbfbf" points="234,-174 234,-193 272,-193 272,-174 234,-174"/>
<text text-anchor="middle" x="253" y="-181" font-family="Helvetica,sans-Serif" font-size="10.00">map</text>
</g>
<!-- Node3&#45;&gt;Node18 -->
<g id="edge18" class="edge"><title>Node3&#45;&gt;Node18</title>
<path fill="none" stroke="midnightblue" d="M347.894,-235.378C330.983,-226.324 303.618,-211.668 280,-199 279.332,-198.642 278.654,-198.278 277.971,-197.911"/>
<polygon fill="midnightblue" stroke="midnightblue" points="279.455,-194.736 268.989,-193.09 276.144,-200.903 279.455,-194.736"/>
</g>
<!-- Node5 -->
<g id="node5" class="node"><title>Node5</title>
<g id="a_node5"><a xlink:href="RaCore_8hpp.html" target="_top" xlink:title="Core/RaCore.hpp">
<polygon fill="white" stroke="black" points="406,-112.5 406,-131.5 504,-131.5 504,-112.5 406,-112.5"/>
<text text-anchor="middle" x="455" y="-119.5" font-family="Helvetica,sans-Serif" font-size="10.00">Core/RaCore.hpp</text>
</a>
</g>
</g>
<!-- Node4&#45;&gt;Node5 -->
<g id="edge4" class="edge"><title>Node4&#45;&gt;Node5</title>
<path fill="none" stroke="midnightblue" d="M385.566,-168.399C399.88,-159.04 418.612,-146.792 433.011,-137.377"/>
<polygon fill="midnightblue" stroke="midnightblue" points="435.304,-140.06 441.759,-131.658 431.474,-134.201 435.304,-140.06"/>
</g>
<!-- Node12 -->
<g id="node12" class="node"><title>Node12</title>
<polygon fill="white" stroke="#bfbfbf" points="229.5,-112.5 229.5,-131.5 322.5,-131.5 322.5,-112.5 229.5,-112.5"/>
<text text-anchor="middle" x="276" y="-119.5" font-family="Helvetica,sans-Serif" font-size="10.00">Eigen/StdVector</text>
</g>
<!-- Node4&#45;&gt;Node12 -->
<g id="edge11" class="edge"><title>Node4&#45;&gt;Node12</title>
<path fill="none" stroke="midnightblue" d="M343.145,-168.399C329.303,-159.04 311.189,-146.792 297.264,-137.377"/>
<polygon fill="midnightblue" stroke="midnightblue" points="299.049,-134.36 288.805,-131.658 295.128,-140.158 299.049,-134.36"/>
</g>
<!-- Node13 -->
<g id="node13" class="node"><title>Node13</title>
<polygon fill="white" stroke="#bfbfbf" points="340.5,-112.5 340.5,-131.5 387.5,-131.5 387.5,-112.5 340.5,-112.5"/>
<text text-anchor="middle" x="364" y="-119.5" font-family="Helvetica,sans-Serif" font-size="10.00">vector</text>
</g>
<!-- Node4&#45;&gt;Node13 -->
<g id="edge12" class="edge"><title>Node4&#45;&gt;Node13</title>
<path fill="none" stroke="midnightblue" d="M364,-168.399C364,-160.466 364,-150.458 364,-141.858"/>
<polygon fill="midnightblue" stroke="midnightblue" points="367.5,-141.658 364,-131.658 360.5,-141.658 367.5,-141.658"/>
</g>
<!-- Node6 -->
<g id="node6" class="node"><title>Node6</title>
<g id="a_node6"><a xlink:href="CoreMacros_8hpp.html" target="_top" xlink:title="Core/CoreMacros.hpp">
<polygon fill="white" stroke="black" points="342,-56.5 342,-75.5 462,-75.5 462,-56.5 342,-56.5"/>
<text text-anchor="middle" x="402" y="-63.5" font-family="Helvetica,sans-Serif" font-size="10.00">Core/CoreMacros.hpp</text>
</a>
</g>
</g>
<!-- Node5&#45;&gt;Node6 -->
<g id="edge5" class="edge"><title>Node5&#45;&gt;Node6</title>
<path fill="none" stroke="midnightblue" d="M446.248,-112.083C438.53,-104.22 427.095,-92.5688 417.783,-83.0813"/>
<polygon fill="midnightblue" stroke="midnightblue" points="420.092,-80.4363 410.589,-75.7511 415.096,-85.3396 420.092,-80.4363"/>
</g>
<!-- Node7 -->
<g id="node7" class="node"><title>Node7</title>
<polygon fill="white" stroke="#bfbfbf" points="343,-0.5 343,-19.5 395,-19.5 395,-0.5 343,-0.5"/>
<text text-anchor="middle" x="369" y="-7.5" font-family="Helvetica,sans-Serif" font-size="10.00">cassert</text>
</g>
<!-- Node6&#45;&gt;Node7 -->
<g id="edge6" class="edge"><title>Node6&#45;&gt;Node7</title>
<path fill="none" stroke="midnightblue" d="M396.551,-56.083C391.986,-48.6127 385.332,-37.7244 379.707,-28.5199"/>
<polygon fill="midnightblue" stroke="midnightblue" points="382.549,-26.4588 374.348,-19.7511 376.576,-30.109 382.549,-26.4588"/>
</g>
<!-- Node8 -->
<g id="node8" class="node"><title>Node8</title>
<polygon fill="white" stroke="#bfbfbf" points="413.5,-0.5 413.5,-19.5 458.5,-19.5 458.5,-0.5 413.5,-0.5"/>
<text text-anchor="middle" x="436" y="-7.5" font-family="Helvetica,sans-Serif" font-size="10.00">cstdio</text>
</g>
<!-- Node6&#45;&gt;Node8 -->
<g id="edge7" class="edge"><title>Node6&#45;&gt;Node8</title>
<path fill="none" stroke="midnightblue" d="M407.614,-56.083C412.367,-48.5341 419.318,-37.4948 425.152,-28.2298"/>
<polygon fill="midnightblue" stroke="midnightblue" points="428.124,-30.0783 430.49,-19.7511 422.2,-26.3486 428.124,-30.0783"/>
</g>
<!-- Node9 -->
<g id="node9" class="node"><title>Node9</title>
<polygon fill="white" stroke="#bfbfbf" points="476.5,-0.5 476.5,-19.5 535.5,-19.5 535.5,-0.5 476.5,-0.5"/>
<text text-anchor="middle" x="506" y="-7.5" font-family="Helvetica,sans-Serif" font-size="10.00">iostream</text>
</g>
<!-- Node6&#45;&gt;Node9 -->
<g id="edge8" class="edge"><title>Node6&#45;&gt;Node9</title>
<path fill="none" stroke="midnightblue" d="M418.709,-56.324C435.312,-47.7034 461.002,-34.3643 480.22,-24.3855"/>
<polygon fill="midnightblue" stroke="midnightblue" points="482.07,-27.3689 489.332,-19.6545 478.844,-21.1565 482.07,-27.3689"/>
</g>
<!-- Node10 -->
<g id="node10" class="node"><title>Node10</title>
<polygon fill="white" stroke="#bfbfbf" points="150,-0.5 150,-19.5 206,-19.5 206,-0.5 150,-0.5"/>
<text text-anchor="middle" x="178" y="-7.5" font-family="Helvetica,sans-Serif" font-size="10.00">sstream</text>
</g>
<!-- Node6&#45;&gt;Node10 -->
<g id="edge9" class="edge"><title>Node6&#45;&gt;Node10</title>
<path fill="none" stroke="midnightblue" d="M366.507,-56.4435C325.479,-46.5529 258.214,-30.3372 216.108,-20.1868"/>
<polygon fill="midnightblue" stroke="midnightblue" points="216.777,-16.7478 206.235,-17.8067 215.136,-23.5528 216.777,-16.7478"/>
</g>
<!-- Node11 -->
<g id="node11" class="node"><title>Node11</title>
<polygon fill="white" stroke="#bfbfbf" points="277,-0.5 277,-19.5 325,-19.5 325,-0.5 277,-0.5"/>
<text text-anchor="middle" x="301" y="-7.5" font-family="Helvetica,sans-Serif" font-size="10.00">thread</text>
</g>
<!-- Node6&#45;&gt;Node11 -->
<g id="edge10" class="edge"><title>Node6&#45;&gt;Node11</title>
<path fill="none" stroke="midnightblue" d="M385.773,-56.324C369.649,-47.7034 344.7,-34.3643 326.036,-24.3855"/>
<polygon fill="midnightblue" stroke="midnightblue" points="327.656,-21.283 317.187,-19.6545 324.356,-27.456 327.656,-21.283"/>
</g>
<!-- Node14&#45;&gt;Node5 -->
<g id="edge14" class="edge"><title>Node14&#45;&gt;Node5</title>
<path fill="none" stroke="midnightblue" d="M640.052,-173.975C602.119,-163.526 537.722,-145.787 495.78,-134.233"/>
<polygon fill="midnightblue" stroke="midnightblue" points="496.461,-130.791 485.89,-131.509 494.602,-137.539 496.461,-130.791"/>
</g>
<!-- Node15 -->
<g id="node15" class="node"><title>Node15</title>
<polygon fill="white" stroke="#bfbfbf" points="941,-112.5 941,-131.5 1009,-131.5 1009,-112.5 941,-112.5"/>
<text text-anchor="middle" x="975" y="-119.5" font-family="Helvetica,sans-Serif" font-size="10.00">Eigen/Core</text>
</g>
<!-- Node14&#45;&gt;Node15 -->
<g id="edge15" class="edge"><title>Node14&#45;&gt;Node15</title>
<path fill="none" stroke="midnightblue" d="M714.556,-173.975C772.17,-162.699 873.159,-142.933 930.997,-131.612"/>
<polygon fill="midnightblue" stroke="midnightblue" points="931.788,-135.024 940.93,-129.668 930.444,-128.154 931.788,-135.024"/>
</g>
<!-- Node16 -->
<g id="node16" class="node"><title>Node16</title>
<polygon fill="white" stroke="#bfbfbf" points="1105,-112.5 1105,-131.5 1199,-131.5 1199,-112.5 1105,-112.5"/>
<text text-anchor="middle" x="1152" y="-119.5" font-family="Helvetica,sans-Serif" font-size="10.00">Eigen/Geometry</text>
</g>
<!-- Node14&#45;&gt;Node16 -->
<g id="edge16" class="edge"><title>Node14&#45;&gt;Node16</title>
<path fill="none" stroke="midnightblue" d="M715.867,-175.05C730.838,-172.665 747.62,-170.101 763,-168 880.57,-151.942 1018.65,-136.862 1094.62,-128.892"/>
<polygon fill="midnightblue" stroke="midnightblue" points="1095.33,-132.336 1104.92,-127.815 1094.61,-125.374 1095.33,-132.336"/>
</g>
<!-- Node17 -->
<g id="node17" class="node"><title>Node17</title>
<polygon fill="white" stroke="#bfbfbf" points="792,-112.5 792,-131.5 872,-131.5 872,-112.5 792,-112.5"/>
<text text-anchor="middle" x="832" y="-119.5" font-family="Helvetica,sans-Serif" font-size="10.00">Eigen/Sparse</text>
</g>
<!-- Node14&#45;&gt;Node17 -->
<g id="edge17" class="edge"><title>Node14&#45;&gt;Node17</title>
<path fill="none" stroke="midnightblue" d="M694.067,-173.975C721.685,-163.769 768.12,-146.608 799.396,-135.049"/>
<polygon fill="midnightblue" stroke="midnightblue" points="800.809,-138.259 808.975,-131.509 798.382,-131.693 800.809,-138.259"/>
</g>
<!-- Node19&#45;&gt;Node5 -->
<g id="edge20" class="edge"><title>Node19&#45;&gt;Node5</title>
<path fill="none" stroke="midnightblue" d="M725.843,-241.829C643.653,-238.032 521.294,-227.606 485,-199 467.37,-185.104 460.072,-159.347 457.07,-141.702"/>
<polygon fill="midnightblue" stroke="midnightblue" points="460.525,-141.134 455.677,-131.714 453.592,-142.102 460.525,-141.134"/>
</g>
<!-- Node19&#45;&gt;Node14 -->
<g id="edge32" class="edge"><title>Node19&#45;&gt;Node14</title>
<path fill="none" stroke="midnightblue" d="M784.944,-235.475C762.525,-225.445 725.095,-208.7 699.287,-197.155"/>
<polygon fill="midnightblue" stroke="midnightblue" points="700.578,-193.898 690.02,-193.009 697.719,-200.288 700.578,-193.898"/>
</g>
<!-- Node19&#45;&gt;Node15 -->
<g id="edge21" class="edge"><title>Node19&#45;&gt;Node15</title>
<path fill="none" stroke="midnightblue" d="M882.066,-236.724C932.377,-230.234 991.24,-218.636 1007,-199 1021.35,-181.126 1005.23,-155.885 991.149,-139.482"/>
<polygon fill="midnightblue" stroke="midnightblue" points="993.464,-136.826 984.14,-131.795 988.292,-141.543 993.464,-136.826"/>
</g>
<!-- Node19&#45;&gt;Node16 -->
<g id="edge22" class="edge"><title>Node19&#45;&gt;Node16</title>
<path fill="none" stroke="midnightblue" d="M882.068,-240.904C994.358,-235.638 1190.43,-223.085 1212,-199 1221.19,-188.738 1218.16,-180.323 1212,-168 1205.27,-154.543 1192.39,-144.067 1180.29,-136.621"/>
<polygon fill="midnightblue" stroke="midnightblue" points="1181.72,-133.41 1171.3,-131.52 1178.27,-139.498 1181.72,-133.41"/>
</g>
<!-- Node19&#45;&gt;Node17 -->
<g id="edge23" class="edge"><title>Node19&#45;&gt;Node17</title>
<path fill="none" stroke="midnightblue" d="M792.459,-235.49C782.521,-227.379 768.878,-214.178 763,-199 758.025,-186.152 756.438,-180.115 763,-168 770.749,-153.696 785.234,-143.219 798.94,-135.992"/>
<polygon fill="midnightblue" stroke="midnightblue" points="800.738,-139.01 808.212,-131.501 797.686,-132.71 800.738,-139.01"/>
</g>
<!-- Node20 -->
<g id="node20" class="node"><title>Node20</title>
<polygon fill="white" stroke="#bfbfbf" points="772.5,-174 772.5,-193 835.5,-193 835.5,-174 772.5,-174"/>
<text text-anchor="middle" x="804" y="-181" font-family="Helvetica,sans-Serif" font-size="10.00">functional</text>
</g>
<!-- Node19&#45;&gt;Node20 -->
<g id="edge24" class="edge"><title>Node19&#45;&gt;Node20</title>
<path fill="none" stroke="midnightblue" d="M804,-235.475C804,-227.08 804,-213.981 804,-203.163"/>
<polygon fill="midnightblue" stroke="midnightblue" points="807.5,-203.009 804,-193.009 800.5,-203.009 807.5,-203.009"/>
</g>
<!-- Node21 -->
<g id="node21" class="node"><title>Node21</title>
<polygon fill="white" stroke="#bfbfbf" points="853.5,-168.5 853.5,-198.5 998.5,-198.5 998.5,-168.5 853.5,-168.5"/>
<text text-anchor="start" x="861.5" y="-186.5" font-family="Helvetica,sans-Serif" font-size="10.00">unsupported/Eigen/Aligned</text>
<text text-anchor="middle" x="926" y="-175.5" font-family="Helvetica,sans-Serif" font-size="10.00">Vector3</text>
</g>
<!-- Node19&#45;&gt;Node21 -->
<g id="edge25" class="edge"><title>Node19&#45;&gt;Node21</title>
<path fill="none" stroke="midnightblue" d="M821.48,-235.475C838.775,-227.04 865.81,-213.855 888.051,-203.008"/>
<polygon fill="midnightblue" stroke="midnightblue" points="889.793,-206.052 897.247,-198.523 886.725,-199.761 889.793,-206.052"/>
</g>
<!-- Node22 -->
<g id="node22" class="node"><title>Node22</title>
<g id="a_node22"><a xlink:href="Math_8hpp.html" target="_top" xlink:title="Core/Math/Math.hpp">
<polygon fill="white" stroke="black" points="494,-174 494,-193 608,-193 608,-174 494,-174"/>
<text text-anchor="middle" x="551" y="-181" font-family="Helvetica,sans-Serif" font-size="10.00">Core/Math/Math.hpp</text>
</a>
</g>
</g>
<!-- Node19&#45;&gt;Node22 -->
<g id="edge26" class="edge"><title>Node19&#45;&gt;Node22</title>
<path fill="none" stroke="midnightblue" d="M767.751,-235.475C722.85,-224.915 646.294,-206.911 597.216,-195.369"/>
<polygon fill="midnightblue" stroke="midnightblue" points="597.717,-191.891 587.181,-193.009 596.115,-198.706 597.717,-191.891"/>
</g>
<!-- Node26 -->
<g id="node26" class="node"><title>Node26</title>
<g id="a_node26"><a xlink:href="LinearAlgebra_8inl.html" target="_top" xlink:title="Core/Math/LinearAlgebra.inl">
<polygon fill="white" stroke="black" points="1054.5,-174 1054.5,-193 1203.5,-193 1203.5,-174 1054.5,-174"/>
<text text-anchor="middle" x="1129" y="-181" font-family="Helvetica,sans-Serif" font-size="10.00">Core/Math/LinearAlgebra.inl</text>
</a>
</g>
</g>
<!-- Node19&#45;&gt;Node26 -->
<g id="edge33" class="edge"><title>Node19&#45;&gt;Node26</title>
<path fill="none" stroke="midnightblue" d="M845.664,-235.475C901.967,-224.739 1002.53,-206.306 1067.51,-194.795"/>
<polygon fill="midnightblue" stroke="midnightblue" points="1068.39,-198.195 1077.62,-193.009 1067.17,-191.302 1068.39,-198.195"/>
</g>
<!-- Node22&#45;&gt;Node5 -->
<g id="edge27" class="edge"><title>Node22&#45;&gt;Node5</title>
<path fill="none" stroke="midnightblue" d="M537.246,-173.975C521.634,-164.299 495.937,-148.372 477.417,-136.894"/>
<polygon fill="midnightblue" stroke="midnightblue" points="479.073,-133.802 468.729,-131.509 475.385,-139.752 479.073,-133.802"/>
</g>
<!-- Node23 -->
<g id="node23" class="node"><title>Node23</title>
<polygon fill="white" stroke="#bfbfbf" points="712,-112.5 712,-131.5 774,-131.5 774,-112.5 712,-112.5"/>
<text text-anchor="middle" x="743" y="-119.5" font-family="Helvetica,sans-Serif" font-size="10.00">algorithm</text>
</g>
<!-- Node22&#45;&gt;Node23 -->
<g id="edge28" class="edge"><title>Node22&#45;&gt;Node23</title>
<path fill="none" stroke="midnightblue" d="M578.509,-173.975C611.871,-163.636 668.262,-146.161 705.563,-134.602"/>
<polygon fill="midnightblue" stroke="midnightblue" points="707.026,-137.812 715.542,-131.509 704.954,-131.126 707.026,-137.812"/>
</g>
<!-- Node24 -->
<g id="node24" class="node"><title>Node24</title>
<polygon fill="white" stroke="#bfbfbf" points="522.5,-112.5 522.5,-131.5 569.5,-131.5 569.5,-112.5 522.5,-112.5"/>
<text text-anchor="middle" x="546" y="-119.5" font-family="Helvetica,sans-Serif" font-size="10.00">cmath</text>
</g>
<!-- Node22&#45;&gt;Node24 -->
<g id="edge29" class="edge"><title>Node22&#45;&gt;Node24</title>
<path fill="none" stroke="midnightblue" d="M550.284,-173.975C549.578,-165.58 548.477,-152.481 547.568,-141.663"/>
<polygon fill="midnightblue" stroke="midnightblue" points="551.04,-141.181 546.715,-131.509 544.065,-141.767 551.04,-141.181"/>
</g>
<!-- Node25 -->
<g id="node25" class="node"><title>Node25</title>
<g id="a_node25"><a xlink:href="Math_8inl.html" target="_top" xlink:title="Core/Math/Math.inl">
<polygon fill="white" stroke="black" points="587.5,-112.5 587.5,-131.5 694.5,-131.5 694.5,-112.5 587.5,-112.5"/>
<text text-anchor="middle" x="641" y="-119.5" font-family="Helvetica,sans-Serif" font-size="10.00">Core/Math/Math.inl</text>
</a>
</g>
</g>
<!-- Node22&#45;&gt;Node25 -->
<g id="edge30" class="edge"><title>Node22&#45;&gt;Node25</title>
<path fill="none" stroke="midnightblue" d="M558.994,-173.975C571.577,-164.255 595.524,-148.227 614.429,-136.737"/>
<polygon fill="midnightblue" stroke="midnightblue" points="616.421,-139.625 623.232,-131.509 612.847,-133.606 616.421,-139.625"/>
</g>
<!-- Node25&#45;&gt;Node22 -->
<g id="edge31" class="edge"><title>Node25&#45;&gt;Node22</title>
<path fill="none" stroke="midnightblue" d="M633.026,-131.509C620.456,-141.223 596.512,-157.25 577.602,-168.744"/>
<polygon fill="midnightblue" stroke="midnightblue" points="575.606,-165.859 568.795,-173.975 579.181,-171.877 575.606,-165.859"/>
</g>
<!-- Node26&#45;&gt;Node19 -->
<g id="edge34" class="edge"><title>Node26&#45;&gt;Node19</title>
<path fill="none" stroke="midnightblue" d="M1087.42,-193.009C1031.16,-203.738 930.601,-222.17 865.583,-233.688"/>
<polygon fill="midnightblue" stroke="midnightblue" points="864.704,-230.289 855.465,-235.475 865.922,-237.182 864.704,-230.289"/>
</g>
<!-- Node27&#45;&gt;Node5 -->
<g id="edge36" class="edge"><title>Node27&#45;&gt;Node5</title>
<path fill="none" stroke="midnightblue" d="M187.702,-173.975C243.77,-163.283 339.86,-144.958 400.269,-133.437"/>
<polygon fill="midnightblue" stroke="midnightblue" points="401.214,-136.82 410.381,-131.509 399.902,-129.944 401.214,-136.82"/>
</g>
<!-- Node27&#45;&gt;Node10 -->
<g id="edge38" class="edge"><title>Node27&#45;&gt;Node10</title>
<path fill="none" stroke="midnightblue" d="M128.835,-173.922C110.398,-161.549 81.5766,-137.379 91,-112 104.441,-75.8003 137.319,-43.8835 158.587,-26.0442"/>
<polygon fill="midnightblue" stroke="midnightblue" points="160.825,-28.7352 166.37,-19.7072 156.406,-23.3068 160.825,-28.7352"/>
</g>
<!-- Node28 -->
<g id="node28" class="node"><title>Node28</title>
<polygon fill="white" stroke="#bfbfbf" points="100,-112.5 100,-131.5 144,-131.5 144,-112.5 100,-112.5"/>
<text text-anchor="middle" x="122" y="-119.5" font-family="Helvetica,sans-Serif" font-size="10.00">ctime</text>
</g>
<!-- Node27&#45;&gt;Node28 -->
<g id="edge37" class="edge"><title>Node27&#45;&gt;Node28</title>
<path fill="none" stroke="midnightblue" d="M139.991,-173.975C136.966,-165.404 132.21,-151.927 128.347,-140.983"/>
<polygon fill="midnightblue" stroke="midnightblue" points="131.632,-139.774 125.003,-131.509 125.031,-142.104 131.632,-139.774"/>
</g>
<!-- Node29 -->
<g id="node29" class="node"><title>Node29</title>
<polygon fill="white" stroke="#bfbfbf" points="162.5,-112.5 162.5,-131.5 211.5,-131.5 211.5,-112.5 162.5,-112.5"/>
<text text-anchor="middle" x="187" y="-119.5" font-family="Helvetica,sans-Serif" font-size="10.00">stdio.h</text>
</g>
<!-- Node27&#45;&gt;Node29 -->
<g id="edge39" class="edge"><title>Node27&#45;&gt;Node29</title>
<path fill="none" stroke="midnightblue" d="M149.304,-173.975C155.904,-165.05 166.437,-150.807 174.693,-139.643"/>
<polygon fill="midnightblue" stroke="midnightblue" points="177.576,-141.631 180.708,-131.509 171.948,-137.468 177.576,-141.631"/>
</g>
<!-- Node30 -->
<g id="node30" class="node"><title>Node30</title>
<polygon fill="white" stroke="#bfbfbf" points="0,-112.5 0,-131.5 44,-131.5 44,-112.5 0,-112.5"/>
<text text-anchor="middle" x="22" y="-119.5" font-family="Helvetica,sans-Serif" font-size="10.00">string</text>
</g>
<!-- Node27&#45;&gt;Node30 -->
<g id="edge40" class="edge"><title>Node27&#45;&gt;Node30</title>
<path fill="none" stroke="midnightblue" d="M125.664,-173.975C105.447,-164.034 71.8128,-147.495 48.3576,-135.961"/>
<polygon fill="midnightblue" stroke="midnightblue" points="49.8224,-132.781 39.3042,-131.509 46.7335,-139.063 49.8224,-132.781"/>
</g>
</g>
</svg>
