<?xml version="1.0" encoding="UTF-8" standalone="no"?>
<!DOCTYPE svg PUBLIC "-//W3C//DTD SVG 1.1//EN"
 "http://www.w3.org/Graphics/SVG/1.1/DTD/svg11.dtd">
<!-- Generated by graphviz version 2.38.0 (20140413.2041)
 -->
<!-- Title: Graphical Class Hierarchy Pages: 1 -->
<svg width="399pt" height="78pt"
 viewBox="0.00 0.00 399.00 77.50" xmlns="http://www.w3.org/2000/svg" xmlns:xlink="http://www.w3.org/1999/xlink">
<g id="graph0" class="graph" transform="scale(1 1) rotate(0) translate(4 73.5)">
<title>Graphical Class Hierarchy</title>
<polygon fill="white" stroke="none" points="-4,4 -4,-73.5 395,-73.5 395,4 -4,4"/>
<!-- Node1 -->
<g id="node1" class="node"><title>Node1</title>
<g id="a_node1"><a xlink:href="classRa_1_1Gui_1_1KeyMappingManageable.html" target="_top" xlink:title="Ra::Gui::KeyMappingManageable\l\&lt; Viewer \&gt;">
<polygon fill="white" stroke="black" points="95,-39 95,-69 267,-69 267,-39 95,-39"/>
<text text-anchor="start" x="103" y="-57" font-family="Helvetica,sans-Serif" font-size="10.00">Ra::Gui::KeyMappingManageable</text>
<text text-anchor="middle" x="181" y="-46" font-family="Helvetica,sans-Serif" font-size="10.00">&lt; Viewer &gt;</text>
</a>
</g>
</g>
<!-- Node2 -->
<g id="node2" class="node"><title>Node2</title>
<g id="a_node2"><a xlink:href="classRa_1_1Gui_1_1Viewer.html" target="_top" xlink:title="The Viewer is the main display class. ">
<polygon fill="white" stroke="black" points="303,-22.5 303,-41.5 391,-41.5 391,-22.5 303,-22.5"/>
<text text-anchor="middle" x="347" y="-29.5" font-family="Helvetica,sans-Serif" font-size="10.00">Ra::Gui::Viewer</text>
</a>
</g>
</g>
<!-- Node1&#45;&gt;Node2 -->
<g id="edge1" class="edge"><title>Node1&#45;&gt;Node2</title>
<path fill="none" stroke="midnightblue" d="M277.405,-41.2018C286.239,-40.0167 294.86,-38.8603 302.842,-37.7895"/>
<polygon fill="midnightblue" stroke="midnightblue" points="276.808,-37.7504 267.362,-42.5489 277.739,-44.6882 276.808,-37.7504"/>
</g>
<!-- Node3 -->
<g id="node3" class="node"><title>Node3</title>
<g id="a_node3"><a xlink:href="classQWindow.html" target="_top" xlink:title="QWindow">
<polygon fill="white" stroke="black" points="0,-0.5 0,-19.5 59,-19.5 59,-0.5 0,-0.5"/>
<text text-anchor="middle" x="29.5" y="-7.5" font-family="Helvetica,sans-Serif" font-size="10.00">QWindow</text>
</a>
</g>
</g>
<!-- Node4 -->
<g id="node4" class="node"><title>Node4</title>
<g id="a_node4"><a xlink:href="classRa_1_1Gui_1_1WindowQt.html" target="_top" xlink:title="Base class for OpenGL widgets, compatble with Qt and globjects/glbindings. ">
<polygon fill="white" stroke="black" points="129.5,-0.5 129.5,-19.5 232.5,-19.5 232.5,-0.5 129.5,-0.5"/>
<text text-anchor="middle" x="181" y="-7.5" font-family="Helvetica,sans-Serif" font-size="10.00">Ra::Gui::WindowQt</text>
</a>
</g>
</g>
<!-- Node3&#45;&gt;Node4 -->
<g id="edge2" class="edge"><title>Node3&#45;&gt;Node4</title>
<path fill="none" stroke="midnightblue" d="M69.3643,-10C87.7095,-10 109.836,-10 129.464,-10"/>
<polygon fill="midnightblue" stroke="midnightblue" points="69.3251,-6.5001 59.3251,-10 69.3251,-13.5001 69.3251,-6.5001"/>
</g>
<!-- Node4&#45;&gt;Node2 -->
<g id="edge3" class="edge"><title>Node4&#45;&gt;Node2</title>
<path fill="none" stroke="midnightblue" d="M242.505,-18.1165C262.518,-20.8012 284.369,-23.7325 302.815,-26.2068"/>
<polygon fill="midnightblue" stroke="midnightblue" points="242.92,-14.641 232.544,-16.7802 241.989,-21.5788 242.92,-14.641"/>
</g>
</g>
</svg>
