<?xml version="1.0" encoding="UTF-8" standalone="no"?>
<!DOCTYPE svg PUBLIC "-//W3C//DTD SVG 1.1//EN"
 "http://www.w3.org/Graphics/SVG/1.1/DTD/svg11.dtd">
<!-- Generated by graphviz version 2.38.0 (20140413.2041)
 -->
<!-- Title: Graphical Class Hierarchy Pages: 1 -->
<svg width="602pt" height="487pt"
 viewBox="0.00 0.00 602.00 486.50" xmlns="http://www.w3.org/2000/svg" xmlns:xlink="http://www.w3.org/1999/xlink">
<g id="graph0" class="graph" transform="scale(1 1) rotate(0) translate(4 482.5)">
<title>Graphical Class Hierarchy</title>
<polygon fill="white" stroke="none" points="-4,4 -4,-482.5 598,-482.5 598,4 -4,4"/>
<!-- Node1 -->
<g id="node1" class="node"><title>Node1</title>
<g id="a_node1"><a xlink:href="classRa_1_1Gui_1_1KeyMappingManageable.html" target="_top" xlink:title="Ra::Gui::KeyMappingManageable\l\&lt; FlightCameraManipulator \&gt;">
<polygon fill="white" stroke="black" points="209,-448 209,-478 381,-478 381,-448 209,-448"/>
<text text-anchor="start" x="217" y="-466" font-family="Helvetica,sans-Serif" font-size="10.00">Ra::Gui::KeyMappingManageable</text>
<text text-anchor="middle" x="295" y="-455" font-family="Helvetica,sans-Serif" font-size="10.00">&lt; FlightCameraManipulator &gt;</text>
</a>
</g>
</g>
<!-- Node2 -->
<g id="node2" class="node"><title>Node2</title>
<g id="a_node2"><a xlink:href="classRa_1_1Gui_1_1FlightCameraManipulator.html" target="_top" xlink:title="A Flight manipulator for Cameras. ">
<polygon fill="white" stroke="black" points="418,-402.5 418,-421.5 594,-421.5 594,-402.5 418,-402.5"/>
<text text-anchor="middle" x="506" y="-409.5" font-family="Helvetica,sans-Serif" font-size="10.00">Ra::Gui::FlightCameraManipulator</text>
</a>
</g>
</g>
<!-- Node1&#45;&gt;Node2 -->
<g id="edge1" class="edge"><title>Node1&#45;&gt;Node2</title>
<path fill="none" stroke="midnightblue" d="M367.62,-445.523C400.538,-437.491 438.302,-428.276 465.896,-421.542"/>
<polygon fill="midnightblue" stroke="midnightblue" points="366.462,-442.203 357.576,-447.974 368.121,-449.004 366.462,-442.203"/>
</g>
<!-- Node3 -->
<g id="node3" class="node"><title>Node3</title>
<g id="a_node3"><a xlink:href="classRa_1_1Gui_1_1KeyMappingManageable.html" target="_top" xlink:title="Ra::Gui::KeyMappingManageable\l\&lt; GizmoManager \&gt;">
<polygon fill="white" stroke="black" points="0,-426 0,-456 172,-456 172,-426 0,-426"/>
<text text-anchor="start" x="8" y="-444" font-family="Helvetica,sans-Serif" font-size="10.00">Ra::Gui::KeyMappingManageable</text>
<text text-anchor="middle" x="86" y="-433" font-family="Helvetica,sans-Serif" font-size="10.00">&lt; GizmoManager &gt;</text>
</a>
</g>
</g>
<!-- Node4 -->
<g id="node4" class="node"><title>Node4</title>
<g id="a_node4"><a xlink:href="classRa_1_1Gui_1_1GizmoManager.html" target="_top" xlink:title="This class interfaces the gizmos with the ui commands. ">
<polygon fill="white" stroke="black" points="230.5,-409.5 230.5,-428.5 359.5,-428.5 359.5,-409.5 230.5,-409.5"/>
<text text-anchor="middle" x="295" y="-416.5" font-family="Helvetica,sans-Serif" font-size="10.00">Ra::Gui::GizmoManager</text>
</a>
</g>
</g>
<!-- Node3&#45;&gt;Node4 -->
<g id="edge2" class="edge"><title>Node3&#45;&gt;Node4</title>
<path fill="none" stroke="midnightblue" d="M182.218,-430.88C198.565,-429.143 215.188,-427.376 230.444,-425.755"/>
<polygon fill="midnightblue" stroke="midnightblue" points="181.665,-427.419 172.091,-431.957 182.405,-434.38 181.665,-427.419"/>
</g>
<!-- Node5 -->
<g id="node5" class="node"><title>Node5</title>
<g id="a_node5"><a xlink:href="classRa_1_1Gui_1_1KeyMappingManageable.html" target="_top" xlink:title="Ra::Gui::KeyMappingManageable\l\&lt; TrackballCameraManipulator \&gt;">
<polygon fill="white" stroke="black" points="208,-284 208,-314 382,-314 382,-284 208,-284"/>
<text text-anchor="start" x="216" y="-302" font-family="Helvetica,sans-Serif" font-size="10.00">Ra::Gui::KeyMappingManageable</text>
<text text-anchor="middle" x="295" y="-291" font-family="Helvetica,sans-Serif" font-size="10.00">&lt; TrackballCameraManipulator &gt;</text>
</a>
</g>
</g>
<!-- Node6 -->
<g id="node6" class="node"><title>Node6</title>
<g id="a_node6"><a xlink:href="classRa_1_1Gui_1_1TrackballCameraManipulator.html" target="_top" xlink:title="A Trackball manipulator for Cameras. ">
<polygon fill="white" stroke="black" points="438.5,-334 438.5,-364 573.5,-364 573.5,-334 438.5,-334"/>
<text text-anchor="start" x="446.5" y="-352" font-family="Helvetica,sans-Serif" font-size="10.00">Ra::Gui::TrackballCamera</text>
<text text-anchor="middle" x="506" y="-341" font-family="Helvetica,sans-Serif" font-size="10.00">Manipulator</text>
</a>
</g>
</g>
<!-- Node5&#45;&gt;Node6 -->
<g id="edge3" class="edge"><title>Node5&#45;&gt;Node6</title>
<path fill="none" stroke="midnightblue" d="M368.444,-316.331C392.381,-322.058 418.803,-328.379 441.976,-333.923"/>
<polygon fill="midnightblue" stroke="midnightblue" points="369.247,-312.924 358.707,-314.002 367.618,-319.732 369.247,-312.924"/>
</g>
<!-- Node7 -->
<g id="node7" class="node"><title>Node7</title>
<g id="a_node7"><a xlink:href="classQObject.html" target="_top" xlink:title="QObject">
<polygon fill="white" stroke="black" points="58.5,-191.5 58.5,-210.5 113.5,-210.5 113.5,-191.5 58.5,-191.5"/>
<text text-anchor="middle" x="86" y="-198.5" font-family="Helvetica,sans-Serif" font-size="10.00">QObject</text>
</a>
</g>
</g>
<!-- Node7&#45;&gt;Node4 -->
<g id="edge12" class="edge"><title>Node7&#45;&gt;Node4</title>
<path fill="none" stroke="midnightblue" d="M93.007,-220.488C106.506,-260.848 143.234,-353.669 208,-400 214.716,-404.804 222.424,-408.427 230.409,-411.153"/>
<polygon fill="midnightblue" stroke="midnightblue" points="96.2781,-219.228 89.8761,-210.786 89.6164,-221.378 96.2781,-219.228"/>
</g>
<!-- Node8 -->
<g id="node8" class="node"><title>Node8</title>
<g id="a_node8"><a xlink:href="classAnimationPlugin_1_1AnimationPluginC.html" target="_top" xlink:title="AnimationPlugin::Animation\lPluginC">
<polygon fill="white" stroke="black" points="220.5,-88 220.5,-118 369.5,-118 369.5,-88 220.5,-88"/>
<text text-anchor="start" x="228.5" y="-106" font-family="Helvetica,sans-Serif" font-size="10.00">AnimationPlugin::Animation</text>
<text text-anchor="middle" x="295" y="-95" font-family="Helvetica,sans-Serif" font-size="10.00">PluginC</text>
</a>
</g>
</g>
<!-- Node7&#45;&gt;Node8 -->
<g id="edge4" class="edge"><title>Node7&#45;&gt;Node8</title>
<path fill="none" stroke="midnightblue" d="M112.892,-186.275C129.849,-176.508 152.416,-163.275 172,-151 188.294,-140.788 190.522,-135.018 208,-127 215.327,-123.639 223.225,-120.654 231.161,-118.029"/>
<polygon fill="midnightblue" stroke="midnightblue" points="111.035,-183.305 104.102,-191.317 114.518,-189.377 111.035,-183.305"/>
</g>
<!-- Node9 -->
<g id="node9" class="node"><title>Node9</title>
<g id="a_node9"><a xlink:href="classCameraManipPlugin_1_1CameraManipPluginC.html" target="_top" xlink:title="The CameraManipPlugin allows to change the current camera used for display, create a copy of the curr...">
<polygon fill="white" stroke="black" points="235.5,-39 235.5,-69 354.5,-69 354.5,-39 235.5,-39"/>
<text text-anchor="start" x="243.5" y="-57" font-family="Helvetica,sans-Serif" font-size="10.00">CameraManipPlugin::</text>
<text text-anchor="middle" x="295" y="-46" font-family="Helvetica,sans-Serif" font-size="10.00">CameraManipPluginC</text>
</a>
</g>
</g>
<!-- Node7&#45;&gt;Node9 -->
<g id="edge5" class="edge"><title>Node7&#45;&gt;Node9</title>
<path fill="none" stroke="midnightblue" d="M120.305,-187.067C137.423,-178.61 157.645,-166.452 172,-151 196.622,-124.497 180.155,-101.094 208,-78 215.875,-71.4689 225.405,-66.7102 235.214,-63.2441"/>
<polygon fill="midnightblue" stroke="midnightblue" points="118.718,-183.946 111.171,-191.382 121.708,-190.275 118.718,-183.946"/>
</g>
<!-- Node10 -->
<g id="node10" class="node"><title>Node10</title>
<g id="a_node10"><a xlink:href="classDummyPlugin_1_1DummyPlugin.html" target="_top" xlink:title="DummyPlugin::DummyPlugin">
<polygon fill="white" stroke="black" points="217,-0.5 217,-19.5 373,-19.5 373,-0.5 217,-0.5"/>
<text text-anchor="middle" x="295" y="-7.5" font-family="Helvetica,sans-Serif" font-size="10.00">DummyPlugin::DummyPlugin</text>
</a>
</g>
</g>
<!-- Node7&#45;&gt;Node10 -->
<g id="edge6" class="edge"><title>Node7&#45;&gt;Node10</title>
<path fill="none" stroke="midnightblue" d="M122.853,-187.331C139.949,-179.153 159.375,-167.167 172,-151 206.796,-106.443 166.66,-67.5623 208,-29 212.025,-25.2452 216.619,-22.1708 221.542,-19.6595"/>
<polygon fill="midnightblue" stroke="midnightblue" points="121.327,-184.179 113.653,-191.484 124.208,-190.559 121.327,-184.179"/>
</g>
<!-- Node11 -->
<g id="node11" class="node"><title>Node11</title>
<g id="a_node11"><a xlink:href="classMeshFeatureTrackingPlugin_1_1MeshFeatureTrackingPluginC.html" target="_top" xlink:title="MeshFeatureTrackingPlugin\l::MeshFeatureTrackingPluginC">
<polygon fill="white" stroke="black" points="216,-235 216,-265 374,-265 374,-235 216,-235"/>
<text text-anchor="start" x="224" y="-253" font-family="Helvetica,sans-Serif" font-size="10.00">MeshFeatureTrackingPlugin</text>
<text text-anchor="middle" x="295" y="-242" font-family="Helvetica,sans-Serif" font-size="10.00">::MeshFeatureTrackingPluginC</text>
</a>
</g>
</g>
<!-- Node7&#45;&gt;Node11 -->
<g id="edge7" class="edge"><title>Node7&#45;&gt;Node11</title>
<path fill="none" stroke="midnightblue" d="M123.53,-209.647C153.097,-216.646 195.443,-226.67 230.532,-234.976"/>
<polygon fill="midnightblue" stroke="midnightblue" points="124.175,-206.203 113.638,-207.306 122.563,-213.015 124.175,-206.203"/>
</g>
<!-- Node12 -->
<g id="node12" class="node"><title>Node12</title>
<g id="a_node12"><a xlink:href="classMeshPaintPlugin_1_1MeshPaintPluginC.html" target="_top" xlink:title="MeshPaintPlugin::MeshPaint\lPluginC">
<polygon fill="white" stroke="black" points="220.5,-186 220.5,-216 369.5,-216 369.5,-186 220.5,-186"/>
<text text-anchor="start" x="228.5" y="-204" font-family="Helvetica,sans-Serif" font-size="10.00">MeshPaintPlugin::MeshPaint</text>
<text text-anchor="middle" x="295" y="-193" font-family="Helvetica,sans-Serif" font-size="10.00">PluginC</text>
</a>
</g>
</g>
<!-- Node7&#45;&gt;Node12 -->
<g id="edge8" class="edge"><title>Node7&#45;&gt;Node12</title>
<path fill="none" stroke="midnightblue" d="M123.699,-201C150.427,-201 187.534,-201 220.289,-201"/>
<polygon fill="midnightblue" stroke="midnightblue" points="123.638,-197.5 113.638,-201 123.638,-204.5 123.638,-197.5"/>
</g>
<!-- Node13 -->
<g id="node13" class="node"><title>Node13</title>
<g id="a_node13"><a xlink:href="classRa_1_1Gui_1_1CameraManipulator.html" target="_top" xlink:title="The CameraManipulator class is the generic class for camera manipulators. ">
<polygon fill="white" stroke="black" points="219.5,-371.5 219.5,-390.5 370.5,-390.5 370.5,-371.5 219.5,-371.5"/>
<text text-anchor="middle" x="295" y="-378.5" font-family="Helvetica,sans-Serif" font-size="10.00">Ra::Gui::CameraManipulator</text>
</a>
</g>
</g>
<!-- Node7&#45;&gt;Node13 -->
<g id="edge9" class="edge"><title>Node7&#45;&gt;Node13</title>
<path fill="none" stroke="midnightblue" d="M95.7591,-220.247C112.413,-254.541 152.044,-325.986 208,-362 214.043,-365.889 220.766,-368.991 227.716,-371.463"/>
<polygon fill="midnightblue" stroke="midnightblue" points="98.7699,-218.426 91.3357,-210.878 92.4399,-221.415 98.7699,-218.426"/>
</g>
<!-- Node14 -->
<g id="node14" class="node"><title>Node14</title>
<g id="a_node14"><a xlink:href="classRa_1_1Plugins_1_1Context.html" target="_top" xlink:title="Data passed to the plugin constructor. ">
<polygon fill="white" stroke="black" points="239,-333.5 239,-352.5 351,-352.5 351,-333.5 239,-333.5"/>
<text text-anchor="middle" x="295" y="-340.5" font-family="Helvetica,sans-Serif" font-size="10.00">Ra::Plugins::Context</text>
</a>
</g>
</g>
<!-- Node7&#45;&gt;Node14 -->
<g id="edge13" class="edge"><title>Node7&#45;&gt;Node14</title>
<path fill="none" stroke="midnightblue" d="M99.4769,-218.886C119.261,-245.829 160.49,-296.487 208,-323 217.37,-328.229 228.046,-332.094 238.613,-334.949"/>
<polygon fill="midnightblue" stroke="midnightblue" points="102.291,-216.804 93.6117,-210.728 96.6069,-220.89 102.291,-216.804"/>
</g>
<!-- Node15 -->
<g id="node15" class="node"><title>Node15</title>
<g id="a_node15"><a xlink:href="classSkinningPlugin_1_1SkinningPluginC.html" target="_top" xlink:title="SkinningPlugin::Skinning\lPluginC">
<polygon fill="white" stroke="black" points="229,-137 229,-167 361,-167 361,-137 229,-137"/>
<text text-anchor="start" x="237" y="-155" font-family="Helvetica,sans-Serif" font-size="10.00">SkinningPlugin::Skinning</text>
<text text-anchor="middle" x="295" y="-144" font-family="Helvetica,sans-Serif" font-size="10.00">PluginC</text>
</a>
</g>
</g>
<!-- Node7&#45;&gt;Node15 -->
<g id="edge14" class="edge"><title>Node7&#45;&gt;Node15</title>
<path fill="none" stroke="midnightblue" d="M123.53,-192.353C153.097,-185.354 195.443,-175.33 230.532,-167.024"/>
<polygon fill="midnightblue" stroke="midnightblue" points="122.563,-188.985 113.638,-194.694 124.175,-195.797 122.563,-188.985"/>
</g>
<!-- Node13&#45;&gt;Node2 -->
<g id="edge10" class="edge"><title>Node13&#45;&gt;Node2</title>
<path fill="none" stroke="midnightblue" d="M370.185,-392.003C393.194,-395.416 418.349,-399.148 440.634,-402.453"/>
<polygon fill="midnightblue" stroke="midnightblue" points="370.533,-388.517 360.127,-390.512 369.505,-395.441 370.533,-388.517"/>
</g>
<!-- Node13&#45;&gt;Node6 -->
<g id="edge11" class="edge"><title>Node13&#45;&gt;Node6</title>
<path fill="none" stroke="midnightblue" d="M368.095,-369.962C390.891,-366.471 415.97,-362.631 438.366,-359.202"/>
<polygon fill="midnightblue" stroke="midnightblue" points="367.496,-366.512 358.141,-371.486 368.556,-373.432 367.496,-366.512"/>
</g>
<!-- Node16 -->
<g id="node16" class="node"><title>Node16</title>
<g id="a_node16"><a xlink:href="classRa_1_1Plugins_1_1RadiumPluginInterface.html" target="_top" xlink:title="Ra::Plugins::RadiumPlugin\lInterface">
<polygon fill="white" stroke="black" points="16.5,-112 16.5,-142 155.5,-142 155.5,-112 16.5,-112"/>
<text text-anchor="start" x="24.5" y="-130" font-family="Helvetica,sans-Serif" font-size="10.00">Ra::Plugins::RadiumPlugin</text>
<text text-anchor="middle" x="86" y="-119" font-family="Helvetica,sans-Serif" font-size="10.00">Interface</text>
</a>
</g>
</g>
<!-- Node16&#45;&gt;Node8 -->
<g id="edge15" class="edge"><title>Node16&#45;&gt;Node8</title>
<path fill="none" stroke="#8b1a1a" d="M165.988,-117.842C183.794,-115.778 202.626,-113.594 220.209,-111.556"/>
<polygon fill="#8b1a1a" stroke="#8b1a1a" points="165.171,-114.413 155.64,-119.042 165.977,-121.367 165.171,-114.413"/>
</g>
<!-- Node16&#45;&gt;Node9 -->
<g id="edge16" class="edge"><title>Node16&#45;&gt;Node9</title>
<path fill="none" stroke="#8b1a1a" d="M130.696,-107.917C153.503,-98.3124 182.002,-86.8601 208,-78 217.097,-74.8997 226.832,-71.8935 236.362,-69.1175"/>
<polygon fill="#8b1a1a" stroke="#8b1a1a" points="129.132,-104.779 121.295,-111.907 131.867,-111.222 129.132,-104.779"/>
</g>
<!-- Node16&#45;&gt;Node10 -->
<g id="edge17" class="edge"><title>Node16&#45;&gt;Node10</title>
<path fill="none" stroke="#8b1a1a" d="M108.122,-104.637C130.706,-82.0881 168.618,-47.9798 208,-29 215.989,-25.1497 224.773,-22.0688 233.58,-19.6063"/>
<polygon fill="#8b1a1a" stroke="#8b1a1a" points="105.591,-102.22 101.071,-111.802 110.58,-107.13 105.591,-102.22"/>
</g>
<!-- Node16&#45;&gt;Node11 -->
<g id="edge18" class="edge"><title>Node16&#45;&gt;Node11</title>
<path fill="none" stroke="#8b1a1a" d="M123.774,-147.462C139.405,-156.98 157.361,-169.055 172,-182 190.672,-198.51 187.129,-211.375 208,-225 213.859,-228.825 220.316,-232.077 226.978,-234.841"/>
<polygon fill="#8b1a1a" stroke="#8b1a1a" points="125.265,-144.276 114.883,-142.165 121.683,-150.29 125.265,-144.276"/>
</g>
<!-- Node16&#45;&gt;Node12 -->
<g id="edge19" class="edge"><title>Node16&#45;&gt;Node12</title>
<path fill="none" stroke="#8b1a1a" d="M130.984,-146.07C153.759,-155.623 182.144,-167.033 208,-176 217.989,-179.464 228.74,-182.852 239.142,-185.96"/>
<polygon fill="#8b1a1a" stroke="#8b1a1a" points="132.164,-142.769 121.59,-142.103 129.44,-149.218 132.164,-142.769"/>
</g>
<!-- Node16&#45;&gt;Node15 -->
<g id="edge20" class="edge"><title>Node16&#45;&gt;Node15</title>
<path fill="none" stroke="#8b1a1a" d="M165.716,-136.507C186.505,-139.017 208.71,-141.699 228.704,-144.114"/>
<polygon fill="#8b1a1a" stroke="#8b1a1a" points="165.988,-133.014 155.64,-135.29 165.149,-139.964 165.988,-133.014"/>
</g>
<!-- Node17 -->
<g id="node17" class="node"><title>Node17</title>
<g id="a_node17"><a xlink:href="classRa_1_1GuiBase_1_1TransformEditor.html" target="_top" xlink:title="Ra::GuiBase::TransformEditor">
<polygon fill="white" stroke="black" points="8.5,-387.5 8.5,-406.5 163.5,-406.5 163.5,-387.5 8.5,-387.5"/>
<text text-anchor="middle" x="86" y="-394.5" font-family="Helvetica,sans-Serif" font-size="10.00">Ra::GuiBase::TransformEditor</text>
</a>
</g>
</g>
<!-- Node17&#45;&gt;Node4 -->
<g id="edge21" class="edge"><title>Node17&#45;&gt;Node4</title>
<path fill="none" stroke="midnightblue" d="M173.88,-406.234C192.767,-408.241 212.413,-410.329 230.212,-412.221"/>
<polygon fill="midnightblue" stroke="midnightblue" points="174.099,-402.737 163.785,-405.161 173.359,-409.698 174.099,-402.737"/>
</g>
</g>
</svg>
