<?xml version="1.0" encoding="UTF-8" standalone="no"?>
<!DOCTYPE svg PUBLIC "-//W3C//DTD SVG 1.1//EN"
 "http://www.w3.org/Graphics/SVG/1.1/DTD/svg11.dtd">
<!-- Generated by graphviz version 2.38.0 (20140413.2041)
 -->
<!-- Title: /home/travis/build/STORM&#45;IRIT/Radium&#45;Engine/src/Core/Animation/Interpolation.hpp Pages: 1 -->
<svg width="3413pt" height="551pt"
 viewBox="0.00 0.00 3413.00 551.00" xmlns="http://www.w3.org/2000/svg" xmlns:xlink="http://www.w3.org/1999/xlink">
<g id="graph0" class="graph" transform="scale(1 1) rotate(0) translate(4 547)">
<title>/home/travis/build/STORM&#45;IRIT/Radium&#45;Engine/src/Core/Animation/Interpolation.hpp</title>
<polygon fill="white" stroke="none" points="-4,4 -4,-547 3409,-547 3409,4 -4,4"/>
<!-- Node1 -->
<g id="node1" class="node"><title>Node1</title>
<polygon fill="#bfbfbf" stroke="black" points="2662,-501.5 2662,-542.5 2857,-542.5 2857,-501.5 2662,-501.5"/>
<text text-anchor="start" x="2670" y="-530.5" font-family="Helvetica,sans-Serif" font-size="10.00">/home/travis/build</text>
<text text-anchor="start" x="2670" y="-519.5" font-family="Helvetica,sans-Serif" font-size="10.00">/STORM&#45;IRIT/Radium&#45;Engine</text>
<text text-anchor="middle" x="2759.5" y="-508.5" font-family="Helvetica,sans-Serif" font-size="10.00">/src/Core/Animation/Interpolation.hpp</text>
</g>
<!-- Node2 -->
<g id="node2" class="node"><title>Node2</title>
<g id="a_node2"><a xlink:href="KeyPose_8hpp.html" target="_top" xlink:title="/home/travis/build\l/STORM&#45;IRIT/Radium&#45;Engine\l/src/Core/Animation/KeyPose.hpp">
<polygon fill="white" stroke="black" points="3230,-345.5 3230,-386.5 3405,-386.5 3405,-345.5 3230,-345.5"/>
<text text-anchor="start" x="3238" y="-374.5" font-family="Helvetica,sans-Serif" font-size="10.00">/home/travis/build</text>
<text text-anchor="start" x="3238" y="-363.5" font-family="Helvetica,sans-Serif" font-size="10.00">/STORM&#45;IRIT/Radium&#45;Engine</text>
<text text-anchor="middle" x="3317.5" y="-352.5" font-family="Helvetica,sans-Serif" font-size="10.00">/src/Core/Animation/KeyPose.hpp</text>
</a>
</g>
</g>
<!-- Node1&#45;&gt;Node2 -->
<g id="edge1" class="edge"><title>Node1&#45;&gt;Node2</title>
<path fill="none" stroke="midnightblue" d="M2866.97,-506.258C2904.11,-497.943 2944.82,-485.021 2978.5,-465 3000.4,-451.982 2995.16,-435.238 3017.5,-423 3095.94,-380.03 3127.61,-403.605 3215.5,-387 3220.2,-386.112 3225.02,-385.194 3229.88,-384.261"/>
<polygon fill="midnightblue" stroke="midnightblue" points="2866.15,-502.855 2857.1,-508.378 2867.62,-509.698 2866.15,-502.855"/>
</g>
<!-- Node4 -->
<g id="node4" class="node"><title>Node4</title>
<g id="a_node4"><a xlink:href="KeyRotation_8hpp.html" target="_top" xlink:title="/home/travis/build\l/STORM&#45;IRIT/Radium&#45;Engine\l/src/Core/Animation/KeyRotation.hpp">
<polygon fill="white" stroke="black" points="2218,-345.5 2218,-386.5 2409,-386.5 2409,-345.5 2218,-345.5"/>
<text text-anchor="start" x="2226" y="-374.5" font-family="Helvetica,sans-Serif" font-size="10.00">/home/travis/build</text>
<text text-anchor="start" x="2226" y="-363.5" font-family="Helvetica,sans-Serif" font-size="10.00">/STORM&#45;IRIT/Radium&#45;Engine</text>
<text text-anchor="middle" x="2313.5" y="-352.5" font-family="Helvetica,sans-Serif" font-size="10.00">/src/Core/Animation/KeyRotation.hpp</text>
</a>
</g>
</g>
<!-- Node1&#45;&gt;Node4 -->
<g id="edge3" class="edge"><title>Node1&#45;&gt;Node4</title>
<path fill="none" stroke="midnightblue" d="M2652.03,-501.446C2609.53,-492.344 2560.63,-480.141 2517.5,-465 2455.77,-443.33 2388.05,-408.393 2348.23,-386.613"/>
<polygon fill="midnightblue" stroke="midnightblue" points="2651.33,-504.876 2661.84,-503.517 2652.78,-498.027 2651.33,-504.876"/>
</g>
<!-- Node6 -->
<g id="node6" class="node"><title>Node6</title>
<g id="a_node6"><a xlink:href="KeyScaling_8hpp.html" target="_top" xlink:title="/home/travis/build\l/STORM&#45;IRIT/Radium&#45;Engine\l/src/Core/Animation/KeyScaling.hpp">
<polygon fill="white" stroke="black" points="2427.5,-345.5 2427.5,-386.5 2613.5,-386.5 2613.5,-345.5 2427.5,-345.5"/>
<text text-anchor="start" x="2435.5" y="-374.5" font-family="Helvetica,sans-Serif" font-size="10.00">/home/travis/build</text>
<text text-anchor="start" x="2435.5" y="-363.5" font-family="Helvetica,sans-Serif" font-size="10.00">/STORM&#45;IRIT/Radium&#45;Engine</text>
<text text-anchor="middle" x="2520.5" y="-352.5" font-family="Helvetica,sans-Serif" font-size="10.00">/src/Core/Animation/KeyScaling.hpp</text>
</a>
</g>
</g>
<!-- Node1&#45;&gt;Node6 -->
<g id="edge5" class="edge"><title>Node1&#45;&gt;Node6</title>
<path fill="none" stroke="midnightblue" d="M2651.79,-504.478C2604.7,-495.104 2556.54,-481.849 2540.5,-465 2520.5,-443.998 2518.09,-408.693 2518.82,-386.683"/>
<polygon fill="midnightblue" stroke="midnightblue" points="2651.32,-507.954 2661.81,-506.42 2652.66,-501.081 2651.32,-507.954"/>
</g>
<!-- Node7 -->
<g id="node7" class="node"><title>Node7</title>
<g id="a_node7"><a xlink:href="KeyTransform_8hpp.html" target="_top" xlink:title="/home/travis/build\l/STORM&#45;IRIT/Radium&#45;Engine\l/src/Core/Animation/KeyTransform.hpp">
<polygon fill="white" stroke="black" points="2770,-423.5 2770,-464.5 2969,-464.5 2969,-423.5 2770,-423.5"/>
<text text-anchor="start" x="2778" y="-452.5" font-family="Helvetica,sans-Serif" font-size="10.00">/home/travis/build</text>
<text text-anchor="start" x="2778" y="-441.5" font-family="Helvetica,sans-Serif" font-size="10.00">/STORM&#45;IRIT/Radium&#45;Engine</text>
<text text-anchor="middle" x="2869.5" y="-430.5" font-family="Helvetica,sans-Serif" font-size="10.00">/src/Core/Animation/KeyTransform.hpp</text>
</a>
</g>
</g>
<!-- Node1&#45;&gt;Node7 -->
<g id="edge7" class="edge"><title>Node1&#45;&gt;Node7</title>
<path fill="none" stroke="midnightblue" d="M2796.21,-495.635C2810.9,-485.487 2827.55,-473.982 2841.27,-464.506"/>
<polygon fill="midnightblue" stroke="midnightblue" points="2794.07,-492.864 2787.83,-501.428 2798.04,-498.623 2794.07,-492.864"/>
</g>
<!-- Node31 -->
<g id="node31" class="node"><title>Node31</title>
<g id="a_node31"><a xlink:href="KeyTranslation_8hpp.html" target="_top" xlink:title="/home/travis/build\l/STORM&#45;IRIT/Radium&#45;Engine\l/src/Core/Animation/KeyTranslation.hpp">
<polygon fill="white" stroke="black" points="2549,-423.5 2549,-464.5 2752,-464.5 2752,-423.5 2549,-423.5"/>
<text text-anchor="start" x="2557" y="-452.5" font-family="Helvetica,sans-Serif" font-size="10.00">/home/travis/build</text>
<text text-anchor="start" x="2557" y="-441.5" font-family="Helvetica,sans-Serif" font-size="10.00">/STORM&#45;IRIT/Radium&#45;Engine</text>
<text text-anchor="middle" x="2650.5" y="-430.5" font-family="Helvetica,sans-Serif" font-size="10.00">/src/Core/Animation/KeyTranslation.hpp</text>
</a>
</g>
</g>
<!-- Node1&#45;&gt;Node31 -->
<g id="edge38" class="edge"><title>Node1&#45;&gt;Node31</title>
<path fill="none" stroke="midnightblue" d="M2723.12,-495.635C2708.57,-485.487 2692.07,-473.982 2678.48,-464.506"/>
<polygon fill="midnightblue" stroke="midnightblue" points="2721.23,-498.58 2731.43,-501.428 2725.23,-492.838 2721.23,-498.58"/>
</g>
<!-- Node32 -->
<g id="node32" class="node"><title>Node32</title>
<g id="a_node32"><a xlink:href="PoseOperation_8cpp.html" target="_top" xlink:title="/home/travis/build\l/STORM&#45;IRIT/Radium&#45;Engine\l/src/Core/Animation/PoseOperation.cpp">
<polygon fill="white" stroke="black" points="3026,-423.5 3026,-464.5 3231,-464.5 3231,-423.5 3026,-423.5"/>
<text text-anchor="start" x="3034" y="-452.5" font-family="Helvetica,sans-Serif" font-size="10.00">/home/travis/build</text>
<text text-anchor="start" x="3034" y="-441.5" font-family="Helvetica,sans-Serif" font-size="10.00">/STORM&#45;IRIT/Radium&#45;Engine</text>
<text text-anchor="middle" x="3128.5" y="-430.5" font-family="Helvetica,sans-Serif" font-size="10.00">/src/Core/Animation/PoseOperation.cpp</text>
</a>
</g>
</g>
<!-- Node1&#45;&gt;Node32 -->
<g id="edge40" class="edge"><title>Node1&#45;&gt;Node32</title>
<path fill="none" stroke="midnightblue" d="M2864.35,-499.405C2917.67,-488.422 2981.98,-475.177 3033.8,-464.506"/>
<polygon fill="midnightblue" stroke="midnightblue" points="2863.62,-495.983 2854.53,-501.428 2865.03,-502.839 2863.62,-495.983"/>
</g>
<!-- Node3 -->
<g id="node3" class="node"><title>Node3</title>
<g id="a_node3"><a xlink:href="AnimationComponent_8cpp.html" target="_top" xlink:title="/home/travis/build\l/STORM&#45;IRIT/Radium&#45;Engine\l/Plugins/Animation/src/Animation\lComponent.cpp">
<polygon fill="white" stroke="black" points="3107.5,-78.5 3107.5,-130.5 3281.5,-130.5 3281.5,-78.5 3107.5,-78.5"/>
<text text-anchor="start" x="3115.5" y="-118.5" font-family="Helvetica,sans-Serif" font-size="10.00">/home/travis/build</text>
<text text-anchor="start" x="3115.5" y="-107.5" font-family="Helvetica,sans-Serif" font-size="10.00">/STORM&#45;IRIT/Radium&#45;Engine</text>
<text text-anchor="start" x="3115.5" y="-96.5" font-family="Helvetica,sans-Serif" font-size="10.00">/Plugins/Animation/src/Animation</text>
<text text-anchor="middle" x="3194.5" y="-85.5" font-family="Helvetica,sans-Serif" font-size="10.00">Component.cpp</text>
</a>
</g>
</g>
<!-- Node2&#45;&gt;Node3 -->
<g id="edge2" class="edge"><title>Node2&#45;&gt;Node3</title>
<path fill="none" stroke="midnightblue" d="M3303.91,-336.338C3279.72,-285.289 3229.54,-179.432 3206.52,-130.86"/>
<polygon fill="midnightblue" stroke="midnightblue" points="3300.81,-337.958 3308.26,-345.495 3307.13,-334.96 3300.81,-337.958"/>
</g>
<!-- Node5 -->
<g id="node5" class="node"><title>Node5</title>
<g id="a_node5"><a xlink:href="AssimpAnimationDataLoader_8cpp.html" target="_top" xlink:title="/home/travis/build\l/STORM&#45;IRIT/Radium&#45;Engine\l/src/IO/AssimpLoader/AssimpAnimation\lDataLoader.cpp">
<polygon fill="white" stroke="black" points="2211,-256.5 2211,-308.5 2416,-308.5 2416,-256.5 2211,-256.5"/>
<text text-anchor="start" x="2219" y="-296.5" font-family="Helvetica,sans-Serif" font-size="10.00">/home/travis/build</text>
<text text-anchor="start" x="2219" y="-285.5" font-family="Helvetica,sans-Serif" font-size="10.00">/STORM&#45;IRIT/Radium&#45;Engine</text>
<text text-anchor="start" x="2219" y="-274.5" font-family="Helvetica,sans-Serif" font-size="10.00">/src/IO/AssimpLoader/AssimpAnimation</text>
<text text-anchor="middle" x="2313.5" y="-263.5" font-family="Helvetica,sans-Serif" font-size="10.00">DataLoader.cpp</text>
</a>
</g>
</g>
<!-- Node4&#45;&gt;Node5 -->
<g id="edge4" class="edge"><title>Node4&#45;&gt;Node5</title>
<path fill="none" stroke="midnightblue" d="M2313.5,-335.121C2313.5,-326.413 2313.5,-316.989 2313.5,-308.607"/>
<polygon fill="midnightblue" stroke="midnightblue" points="2310,-335.271 2313.5,-345.271 2317,-335.271 2310,-335.271"/>
</g>
<!-- Node6&#45;&gt;Node5 -->
<g id="edge6" class="edge"><title>Node6&#45;&gt;Node5</title>
<path fill="none" stroke="midnightblue" d="M2461.45,-341.75C2435.12,-331.382 2404.04,-319.149 2377.19,-308.576"/>
<polygon fill="midnightblue" stroke="midnightblue" points="2460.33,-345.072 2470.92,-345.479 2462.9,-338.559 2460.33,-345.072"/>
</g>
<!-- Node7&#45;&gt;Node3 -->
<g id="edge37" class="edge"><title>Node7&#45;&gt;Node3</title>
<path fill="none" stroke="midnightblue" d="M2946.2,-420.378C3029.37,-394.173 3154.1,-349.414 3182.5,-309 3220.35,-255.143 3209.53,-172.12 3200.79,-130.745"/>
<polygon fill="midnightblue" stroke="midnightblue" points="2945.02,-417.078 2936.52,-423.402 2947.11,-423.76 2945.02,-417.078"/>
</g>
<!-- Node8 -->
<g id="node8" class="node"><title>Node8</title>
<g id="a_node8"><a xlink:href="AnimationData_8hpp.html" target="_top" xlink:title="/home/travis/build\l/STORM&#45;IRIT/Radium&#45;Engine\l/src/Core/Asset/AnimationData.hpp">
<polygon fill="white" stroke="black" points="2777,-345.5 2777,-386.5 2962,-386.5 2962,-345.5 2777,-345.5"/>
<text text-anchor="start" x="2785" y="-374.5" font-family="Helvetica,sans-Serif" font-size="10.00">/home/travis/build</text>
<text text-anchor="start" x="2785" y="-363.5" font-family="Helvetica,sans-Serif" font-size="10.00">/STORM&#45;IRIT/Radium&#45;Engine</text>
<text text-anchor="middle" x="2869.5" y="-352.5" font-family="Helvetica,sans-Serif" font-size="10.00">/src/Core/Asset/AnimationData.hpp</text>
</a>
</g>
</g>
<!-- Node7&#45;&gt;Node8 -->
<g id="edge8" class="edge"><title>Node7&#45;&gt;Node8</title>
<path fill="none" stroke="midnightblue" d="M2869.5,-413.297C2869.5,-404.301 2869.5,-394.653 2869.5,-386.506"/>
<polygon fill="midnightblue" stroke="midnightblue" points="2866,-413.428 2869.5,-423.428 2873,-413.428 2866,-413.428"/>
</g>
<!-- Node8&#45;&gt;Node5 -->
<g id="edge29" class="edge"><title>Node8&#45;&gt;Node5</title>
<path fill="none" stroke="midnightblue" d="M2766.88,-354.953C2676.61,-345.427 2541.84,-329.529 2425.5,-309 2422.46,-308.463 2419.37,-307.897 2416.26,-307.309"/>
<polygon fill="midnightblue" stroke="midnightblue" points="2766.53,-358.435 2776.84,-355.997 2767.26,-351.474 2766.53,-358.435"/>
</g>
<!-- Node9 -->
<g id="node9" class="node"><title>Node9</title>
<g id="a_node9"><a xlink:href="AnimationData_8cpp.html" target="_top" xlink:title="/home/travis/build\l/STORM&#45;IRIT/Radium&#45;Engine\l/src/Core/Asset/AnimationData.cpp">
<polygon fill="white" stroke="black" points="2793,-262 2793,-303 2978,-303 2978,-262 2793,-262"/>
<text text-anchor="start" x="2801" y="-291" font-family="Helvetica,sans-Serif" font-size="10.00">/home/travis/build</text>
<text text-anchor="start" x="2801" y="-280" font-family="Helvetica,sans-Serif" font-size="10.00">/STORM&#45;IRIT/Radium&#45;Engine</text>
<text text-anchor="middle" x="2885.5" y="-269" font-family="Helvetica,sans-Serif" font-size="10.00">/src/Core/Asset/AnimationData.cpp</text>
</a>
</g>
</g>
<!-- Node8&#45;&gt;Node9 -->
<g id="edge9" class="edge"><title>Node8&#45;&gt;Node9</title>
<path fill="none" stroke="midnightblue" d="M2875.31,-335.398C2877.43,-324.627 2879.76,-312.73 2881.66,-303.047"/>
<polygon fill="midnightblue" stroke="midnightblue" points="2871.87,-334.784 2873.37,-345.271 2878.73,-336.133 2871.87,-334.784"/>
</g>
<!-- Node10 -->
<g id="node10" class="node"><title>Node10</title>
<g id="a_node10"><a xlink:href="AnimationData_8inl.html" target="_top" xlink:title="/home/travis/build\l/STORM&#45;IRIT/Radium&#45;Engine\l/src/Core/Asset/AnimationData.inl">
<polygon fill="white" stroke="black" points="2995.5,-262 2995.5,-303 3173.5,-303 3173.5,-262 2995.5,-262"/>
<text text-anchor="start" x="3003.5" y="-291" font-family="Helvetica,sans-Serif" font-size="10.00">/home/travis/build</text>
<text text-anchor="start" x="3003.5" y="-280" font-family="Helvetica,sans-Serif" font-size="10.00">/STORM&#45;IRIT/Radium&#45;Engine</text>
<text text-anchor="middle" x="3084.5" y="-269" font-family="Helvetica,sans-Serif" font-size="10.00">/src/Core/Asset/AnimationData.inl</text>
</a>
</g>
</g>
<!-- Node8&#45;&gt;Node10 -->
<g id="edge10" class="edge"><title>Node8&#45;&gt;Node10</title>
<path fill="none" stroke="midnightblue" d="M2924.63,-341.766C2956.08,-329.513 2995.39,-314.651 3027.19,-303.003"/>
<polygon fill="midnightblue" stroke="midnightblue" points="2923.18,-338.576 2915.14,-345.479 2925.73,-345.095 2923.18,-338.576"/>
</g>
<!-- Node11 -->
<g id="node11" class="node"><title>Node11</title>
<g id="a_node11"><a xlink:href="FileData_8inl.html" target="_top" xlink:title="/home/travis/build\l/STORM&#45;IRIT/Radium&#45;Engine\l/src/Core/Asset/FileData.inl">
<polygon fill="white" stroke="black" points="2434.5,-262 2434.5,-303 2582.5,-303 2582.5,-262 2434.5,-262"/>
<text text-anchor="start" x="2442.5" y="-291" font-family="Helvetica,sans-Serif" font-size="10.00">/home/travis/build</text>
<text text-anchor="start" x="2442.5" y="-280" font-family="Helvetica,sans-Serif" font-size="10.00">/STORM&#45;IRIT/Radium&#45;Engine</text>
<text text-anchor="middle" x="2508.5" y="-269" font-family="Helvetica,sans-Serif" font-size="10.00">/src/Core/Asset/FileData.inl</text>
</a>
</g>
</g>
<!-- Node8&#45;&gt;Node11 -->
<g id="edge12" class="edge"><title>Node8&#45;&gt;Node11</title>
<path fill="none" stroke="midnightblue" d="M2766.92,-346.856C2714.21,-336.898 2649.11,-323.614 2591.5,-309 2584.49,-307.221 2577.18,-305.212 2569.95,-303.123"/>
<polygon fill="midnightblue" stroke="midnightblue" points="2766.47,-350.334 2776.95,-348.74 2767.77,-343.454 2766.47,-350.334"/>
</g>
<!-- Node28 -->
<g id="node28" class="node"><title>Node28</title>
<g id="a_node28"><a xlink:href="AnimationComponent_8hpp.html" target="_top" xlink:title="/home/travis/build\l/STORM&#45;IRIT/Radium&#45;Engine\l/Plugins/Animation/src/Animation\lComponent.hpp">
<polygon fill="white" stroke="black" points="2600.5,-256.5 2600.5,-308.5 2774.5,-308.5 2774.5,-256.5 2600.5,-256.5"/>
<text text-anchor="start" x="2608.5" y="-296.5" font-family="Helvetica,sans-Serif" font-size="10.00">/home/travis/build</text>
<text text-anchor="start" x="2608.5" y="-285.5" font-family="Helvetica,sans-Serif" font-size="10.00">/STORM&#45;IRIT/Radium&#45;Engine</text>
<text text-anchor="start" x="2608.5" y="-274.5" font-family="Helvetica,sans-Serif" font-size="10.00">/Plugins/Animation/src/Animation</text>
<text text-anchor="middle" x="2687.5" y="-263.5" font-family="Helvetica,sans-Serif" font-size="10.00">Component.hpp</text>
</a>
</g>
</g>
<!-- Node8&#45;&gt;Node28 -->
<g id="edge30" class="edge"><title>Node8&#45;&gt;Node28</title>
<path fill="none" stroke="midnightblue" d="M2816.66,-341.34C2793.71,-331.061 2766.8,-319.01 2743.5,-308.576"/>
<polygon fill="midnightblue" stroke="midnightblue" points="2815.35,-344.586 2825.91,-345.479 2818.21,-338.197 2815.35,-344.586"/>
</g>
<!-- Node10&#45;&gt;Node8 -->
<g id="edge11" class="edge"><title>Node10&#45;&gt;Node8</title>
<path fill="none" stroke="midnightblue" d="M3029.42,-306.715C2997.98,-318.965 2958.67,-333.828 2926.86,-345.479"/>
<polygon fill="midnightblue" stroke="midnightblue" points="3030.87,-309.906 3038.91,-303.003 3028.32,-303.387 3030.87,-309.906"/>
</g>
<!-- Node12 -->
<g id="node12" class="node"><title>Node12</title>
<g id="a_node12"><a xlink:href="FileData_8hpp.html" target="_top" xlink:title="/home/travis/build\l/STORM&#45;IRIT/Radium&#45;Engine\l/src/Core/Asset/FileData.hpp">
<polygon fill="white" stroke="black" points="1444.5,-173 1444.5,-214 1596.5,-214 1596.5,-173 1444.5,-173"/>
<text text-anchor="start" x="1452.5" y="-202" font-family="Helvetica,sans-Serif" font-size="10.00">/home/travis/build</text>
<text text-anchor="start" x="1452.5" y="-191" font-family="Helvetica,sans-Serif" font-size="10.00">/STORM&#45;IRIT/Radium&#45;Engine</text>
<text text-anchor="middle" x="1520.5" y="-180" font-family="Helvetica,sans-Serif" font-size="10.00">/src/Core/Asset/FileData.hpp</text>
</a>
</g>
</g>
<!-- Node11&#45;&gt;Node12 -->
<g id="edge13" class="edge"><title>Node11&#45;&gt;Node12</title>
<path fill="none" stroke="midnightblue" d="M2440.93,-259.348C2435.74,-258.075 2430.56,-256.936 2425.5,-256 2122.18,-199.877 1753.21,-193.633 1596.62,-193.796"/>
<polygon fill="midnightblue" stroke="midnightblue" points="2440.32,-262.805 2450.88,-261.939 2442.08,-256.031 2440.32,-262.805"/>
</g>
<!-- Node13 -->
<g id="node13" class="node"><title>Node13</title>
<g id="a_node13"><a xlink:href="FileData_8cpp.html" target="_top" xlink:title="/home/travis/build\l/STORM&#45;IRIT/Radium&#45;Engine\l/src/Core/Asset/FileData.cpp">
<polygon fill="white" stroke="black" points="2255,-84 2255,-125 2406,-125 2406,-84 2255,-84"/>
<text text-anchor="start" x="2263" y="-113" font-family="Helvetica,sans-Serif" font-size="10.00">/home/travis/build</text>
<text text-anchor="start" x="2263" y="-102" font-family="Helvetica,sans-Serif" font-size="10.00">/STORM&#45;IRIT/Radium&#45;Engine</text>
<text text-anchor="middle" x="2330.5" y="-91" font-family="Helvetica,sans-Serif" font-size="10.00">/src/Core/Asset/FileData.cpp</text>
</a>
</g>
</g>
<!-- Node12&#45;&gt;Node13 -->
<g id="edge14" class="edge"><title>Node12&#45;&gt;Node13</title>
<path fill="none" stroke="midnightblue" d="M1606.74,-191.039C1743.54,-187.417 2018.2,-174.816 2246.5,-131 2254.73,-129.42 2263.3,-127.342 2271.69,-125.053"/>
<polygon fill="midnightblue" stroke="midnightblue" points="1606.64,-187.541 1596.73,-191.295 1606.81,-194.538 1606.64,-187.541"/>
</g>
<!-- Node14 -->
<g id="node14" class="node"><title>Node14</title>
<g id="a_node14"><a xlink:href="GeometryComponent_8cpp.html" target="_top" xlink:title="/home/travis/build\l/STORM&#45;IRIT/Radium&#45;Engine\l/src/Engine/Component/GeometryComponent.cpp">
<polygon fill="white" stroke="black" points="2424.5,-84 2424.5,-125 2680.5,-125 2680.5,-84 2424.5,-84"/>
<text text-anchor="start" x="2432.5" y="-113" font-family="Helvetica,sans-Serif" font-size="10.00">/home/travis/build</text>
<text text-anchor="start" x="2432.5" y="-102" font-family="Helvetica,sans-Serif" font-size="10.00">/STORM&#45;IRIT/Radium&#45;Engine</text>
<text text-anchor="middle" x="2552.5" y="-91" font-family="Helvetica,sans-Serif" font-size="10.00">/src/Engine/Component/GeometryComponent.cpp</text>
</a>
</g>
</g>
<!-- Node12&#45;&gt;Node14 -->
<g id="edge15" class="edge"><title>Node12&#45;&gt;Node14</title>
<path fill="none" stroke="midnightblue" d="M1606.78,-189.883C1766.78,-184.295 2120.12,-168.511 2415.5,-131 2428.46,-129.354 2442.05,-127.268 2455.42,-125.001"/>
<polygon fill="midnightblue" stroke="midnightblue" points="1606.39,-186.394 1596.52,-190.236 1606.63,-193.39 1606.39,-186.394"/>
</g>
<!-- Node15 -->
<g id="node15" class="node"><title>Node15</title>
<g id="a_node15"><a xlink:href="CameraManager_8cpp.html" target="_top" xlink:title="/home/travis/build\l/STORM&#45;IRIT/Radium&#45;Engine\l/src/Engine/Managers/CameraManager\l/CameraManager.cpp">
<polygon fill="white" stroke="black" points="0,-78.5 0,-130.5 203,-130.5 203,-78.5 0,-78.5"/>
<text text-anchor="start" x="8" y="-118.5" font-family="Helvetica,sans-Serif" font-size="10.00">/home/travis/build</text>
<text text-anchor="start" x="8" y="-107.5" font-family="Helvetica,sans-Serif" font-size="10.00">/STORM&#45;IRIT/Radium&#45;Engine</text>
<text text-anchor="start" x="8" y="-96.5" font-family="Helvetica,sans-Serif" font-size="10.00">/src/Engine/Managers/CameraManager</text>
<text text-anchor="middle" x="101.5" y="-85.5" font-family="Helvetica,sans-Serif" font-size="10.00">/CameraManager.cpp</text>
</a>
</g>
</g>
<!-- Node12&#45;&gt;Node15 -->
<g id="edge16" class="edge"><title>Node12&#45;&gt;Node15</title>
<path fill="none" stroke="midnightblue" d="M1433.99,-190.453C1181.69,-184.162 449.638,-163.547 212.5,-131 209.464,-130.583 206.388,-130.124 203.289,-129.627"/>
<polygon fill="midnightblue" stroke="midnightblue" points="1434.12,-193.957 1444.2,-190.706 1434.29,-186.959 1434.12,-193.957"/>
</g>
<!-- Node16 -->
<g id="node16" class="node"><title>Node16</title>
<g id="a_node16"><a xlink:href="LightManager_8cpp.html" target="_top" xlink:title="/home/travis/build\l/STORM&#45;IRIT/Radium&#45;Engine\l/src/Engine/Managers/LightManager\l/LightManager.cpp">
<polygon fill="white" stroke="black" points="221.5,-78.5 221.5,-130.5 409.5,-130.5 409.5,-78.5 221.5,-78.5"/>
<text text-anchor="start" x="229.5" y="-118.5" font-family="Helvetica,sans-Serif" font-size="10.00">/home/travis/build</text>
<text text-anchor="start" x="229.5" y="-107.5" font-family="Helvetica,sans-Serif" font-size="10.00">/STORM&#45;IRIT/Radium&#45;Engine</text>
<text text-anchor="start" x="229.5" y="-96.5" font-family="Helvetica,sans-Serif" font-size="10.00">/src/Engine/Managers/LightManager</text>
<text text-anchor="middle" x="315.5" y="-85.5" font-family="Helvetica,sans-Serif" font-size="10.00">/LightManager.cpp</text>
</a>
</g>
</g>
<!-- Node12&#45;&gt;Node16 -->
<g id="edge17" class="edge"><title>Node12&#45;&gt;Node16</title>
<path fill="none" stroke="midnightblue" d="M1434.16,-193.146C1247.65,-193.347 793.652,-187.4 418.5,-131 415.585,-130.562 412.633,-130.079 409.658,-129.558"/>
<polygon fill="midnightblue" stroke="midnightblue" points="1434.19,-196.646 1444.18,-193.129 1434.17,-189.646 1434.19,-196.646"/>
</g>
<!-- Node17 -->
<g id="node17" class="node"><title>Node17</title>
<g id="a_node17"><a xlink:href="RadiumEngine_8cpp.html" target="_top" xlink:title="/home/travis/build\l/STORM&#45;IRIT/Radium&#45;Engine\l/src/Engine/RadiumEngine.cpp">
<polygon fill="white" stroke="black" points="428,-84 428,-125 589,-125 589,-84 428,-84"/>
<text text-anchor="start" x="436" y="-113" font-family="Helvetica,sans-Serif" font-size="10.00">/home/travis/build</text>
<text text-anchor="start" x="436" y="-102" font-family="Helvetica,sans-Serif" font-size="10.00">/STORM&#45;IRIT/Radium&#45;Engine</text>
<text text-anchor="middle" x="508.5" y="-91" font-family="Helvetica,sans-Serif" font-size="10.00">/src/Engine/RadiumEngine.cpp</text>
</a>
</g>
</g>
<!-- Node12&#45;&gt;Node17 -->
<g id="edge18" class="edge"><title>Node12&#45;&gt;Node17</title>
<path fill="none" stroke="midnightblue" d="M1434.24,-192.743C1270.21,-191.884 902.555,-183.616 598.5,-131 589.539,-129.449 580.191,-127.357 571.056,-125.034"/>
<polygon fill="midnightblue" stroke="midnightblue" points="1434.25,-196.243 1444.27,-192.788 1434.28,-189.243 1434.25,-196.243"/>
</g>
<!-- Node18 -->
<g id="node18" class="node"><title>Node18</title>
<g id="a_node18"><a xlink:href="Renderer_8cpp.html" target="_top" xlink:title="/home/travis/build\l/STORM&#45;IRIT/Radium&#45;Engine\l/src/Engine/Renderer/Renderer.cpp">
<polygon fill="white" stroke="black" points="607.5,-84 607.5,-125 787.5,-125 787.5,-84 607.5,-84"/>
<text text-anchor="start" x="615.5" y="-113" font-family="Helvetica,sans-Serif" font-size="10.00">/home/travis/build</text>
<text text-anchor="start" x="615.5" y="-102" font-family="Helvetica,sans-Serif" font-size="10.00">/STORM&#45;IRIT/Radium&#45;Engine</text>
<text text-anchor="middle" x="697.5" y="-91" font-family="Helvetica,sans-Serif" font-size="10.00">/src/Engine/Renderer/Renderer.cpp</text>
</a>
</g>
</g>
<!-- Node12&#45;&gt;Node18 -->
<g id="edge19" class="edge"><title>Node12&#45;&gt;Node18</title>
<path fill="none" stroke="midnightblue" d="M1433.89,-189.743C1297.63,-184.373 1025.25,-169.454 797.5,-131 787.872,-129.374 777.811,-127.285 767.938,-125.003"/>
<polygon fill="midnightblue" stroke="midnightblue" points="1434.13,-193.255 1444.26,-190.144 1434.4,-186.26 1434.13,-193.255"/>
</g>
<!-- Node19 -->
<g id="node19" class="node"><title>Node19</title>
<g id="a_node19"><a xlink:href="GeometrySystem_8cpp.html" target="_top" xlink:title="/home/travis/build\l/STORM&#45;IRIT/Radium&#45;Engine\l/src/Engine/System/GeometrySystem.cpp">
<polygon fill="white" stroke="black" points="806,-84 806,-125 1023,-125 1023,-84 806,-84"/>
<text text-anchor="start" x="814" y="-113" font-family="Helvetica,sans-Serif" font-size="10.00">/home/travis/build</text>
<text text-anchor="start" x="814" y="-102" font-family="Helvetica,sans-Serif" font-size="10.00">/STORM&#45;IRIT/Radium&#45;Engine</text>
<text text-anchor="middle" x="914.5" y="-91" font-family="Helvetica,sans-Serif" font-size="10.00">/src/Engine/System/GeometrySystem.cpp</text>
</a>
</g>
</g>
<!-- Node12&#45;&gt;Node19 -->
<g id="edge20" class="edge"><title>Node12&#45;&gt;Node19</title>
<path fill="none" stroke="midnightblue" d="M1433.99,-183.909C1336.18,-173.66 1172.33,-154.873 1032.5,-131 1022.17,-129.236 1011.37,-127.189 1000.69,-125.036"/>
<polygon fill="midnightblue" stroke="midnightblue" points="1433.81,-187.409 1444.12,-184.965 1434.54,-180.447 1433.81,-187.409"/>
</g>
<!-- Node20 -->
<g id="node20" class="node"><title>Node20</title>
<g id="a_node20"><a xlink:href="Viewer_8cpp.html" target="_top" xlink:title="/home/travis/build\l/STORM&#45;IRIT/Radium&#45;Engine\l/src/GuiBase/Viewer/Viewer.cpp">
<polygon fill="white" stroke="black" points="1041,-84 1041,-125 1206,-125 1206,-84 1041,-84"/>
<text text-anchor="start" x="1049" y="-113" font-family="Helvetica,sans-Serif" font-size="10.00">/home/travis/build</text>
<text text-anchor="start" x="1049" y="-102" font-family="Helvetica,sans-Serif" font-size="10.00">/STORM&#45;IRIT/Radium&#45;Engine</text>
<text text-anchor="middle" x="1123.5" y="-91" font-family="Helvetica,sans-Serif" font-size="10.00">/src/GuiBase/Viewer/Viewer.cpp</text>
</a>
</g>
</g>
<!-- Node12&#45;&gt;Node20 -->
<g id="edge21" class="edge"><title>Node12&#45;&gt;Node20</title>
<path fill="none" stroke="midnightblue" d="M1434.32,-176.824C1373.04,-165.263 1288.9,-148.55 1215.5,-131 1207.84,-129.169 1199.86,-127.14 1191.94,-125.049"/>
<polygon fill="midnightblue" stroke="midnightblue" points="1433.86,-180.299 1444.34,-178.706 1435.16,-173.42 1433.86,-180.299"/>
</g>
<!-- Node21 -->
<g id="node21" class="node"><title>Node21</title>
<g id="a_node21"><a xlink:href="AssimpFileLoader_8cpp.html" target="_top" xlink:title="/home/travis/build\l/STORM&#45;IRIT/Radium&#45;Engine\l/src/IO/AssimpLoader/AssimpFile\lLoader.cpp">
<polygon fill="white" stroke="black" points="1224,-78.5 1224,-130.5 1395,-130.5 1395,-78.5 1224,-78.5"/>
<text text-anchor="start" x="1232" y="-118.5" font-family="Helvetica,sans-Serif" font-size="10.00">/home/travis/build</text>
<text text-anchor="start" x="1232" y="-107.5" font-family="Helvetica,sans-Serif" font-size="10.00">/STORM&#45;IRIT/Radium&#45;Engine</text>
<text text-anchor="start" x="1232" y="-96.5" font-family="Helvetica,sans-Serif" font-size="10.00">/src/IO/AssimpLoader/AssimpFile</text>
<text text-anchor="middle" x="1309.5" y="-85.5" font-family="Helvetica,sans-Serif" font-size="10.00">Loader.cpp</text>
</a>
</g>
</g>
<!-- Node12&#45;&gt;Node21 -->
<g id="edge22" class="edge"><title>Node12&#45;&gt;Node21</title>
<path fill="none" stroke="midnightblue" d="M1463.62,-169.047C1434.77,-157.153 1399.72,-142.7 1370.34,-130.585"/>
<polygon fill="midnightblue" stroke="midnightblue" points="1462.57,-172.399 1473.15,-172.976 1465.24,-165.928 1462.57,-172.399"/>
</g>
<!-- Node22 -->
<g id="node22" class="node"><title>Node22</title>
<g id="a_node22"><a xlink:href="CameraLoader_8cpp.html" target="_top" xlink:title="/home/travis/build\l/STORM&#45;IRIT/Radium&#45;Engine\l/src/IO/CameraLoader/CameraLoader.cpp">
<polygon fill="white" stroke="black" points="1413,-84 1413,-125 1628,-125 1628,-84 1413,-84"/>
<text text-anchor="start" x="1421" y="-113" font-family="Helvetica,sans-Serif" font-size="10.00">/home/travis/build</text>
<text text-anchor="start" x="1421" y="-102" font-family="Helvetica,sans-Serif" font-size="10.00">/STORM&#45;IRIT/Radium&#45;Engine</text>
<text text-anchor="middle" x="1520.5" y="-91" font-family="Helvetica,sans-Serif" font-size="10.00">/src/IO/CameraLoader/CameraLoader.cpp</text>
</a>
</g>
</g>
<!-- Node12&#45;&gt;Node22 -->
<g id="edge23" class="edge"><title>Node12&#45;&gt;Node22</title>
<path fill="none" stroke="midnightblue" d="M1520.5,-162.441C1520.5,-150.101 1520.5,-136.162 1520.5,-125.164"/>
<polygon fill="midnightblue" stroke="midnightblue" points="1517,-162.758 1520.5,-172.758 1524,-162.758 1517,-162.758"/>
</g>
<!-- Node23 -->
<g id="node23" class="node"><title>Node23</title>
<g id="a_node23"><a xlink:href="TinyPlyFileLoader_8cpp.html" target="_top" xlink:title="/home/travis/build\l/STORM&#45;IRIT/Radium&#45;Engine\l/src/IO/TinyPlyLoader/TinyPlyFile\lLoader.cpp">
<polygon fill="white" stroke="black" points="1646,-78.5 1646,-130.5 1811,-130.5 1811,-78.5 1646,-78.5"/>
<text text-anchor="start" x="1654" y="-118.5" font-family="Helvetica,sans-Serif" font-size="10.00">/home/travis/build</text>
<text text-anchor="start" x="1654" y="-107.5" font-family="Helvetica,sans-Serif" font-size="10.00">/STORM&#45;IRIT/Radium&#45;Engine</text>
<text text-anchor="start" x="1654" y="-96.5" font-family="Helvetica,sans-Serif" font-size="10.00">/src/IO/TinyPlyLoader/TinyPlyFile</text>
<text text-anchor="middle" x="1728.5" y="-85.5" font-family="Helvetica,sans-Serif" font-size="10.00">Loader.cpp</text>
</a>
</g>
</g>
<!-- Node12&#45;&gt;Node23 -->
<g id="edge24" class="edge"><title>Node12&#45;&gt;Node23</title>
<path fill="none" stroke="midnightblue" d="M1576.57,-169.047C1605.01,-157.153 1639.56,-142.7 1668.53,-130.585"/>
<polygon fill="midnightblue" stroke="midnightblue" points="1575.05,-165.888 1567.18,-172.976 1577.76,-172.346 1575.05,-165.888"/>
</g>
<!-- Node24 -->
<g id="node24" class="node"><title>Node24</title>
<g id="a_node24"><a xlink:href="AnimationSystem_8cpp.html" target="_top" xlink:title="/home/travis/build\l/STORM&#45;IRIT/Radium&#45;Engine\l/Plugins/Animation/src/Animation\lSystem.cpp">
<polygon fill="white" stroke="black" points="2698.5,-78.5 2698.5,-130.5 2872.5,-130.5 2872.5,-78.5 2698.5,-78.5"/>
<text text-anchor="start" x="2706.5" y="-118.5" font-family="Helvetica,sans-Serif" font-size="10.00">/home/travis/build</text>
<text text-anchor="start" x="2706.5" y="-107.5" font-family="Helvetica,sans-Serif" font-size="10.00">/STORM&#45;IRIT/Radium&#45;Engine</text>
<text text-anchor="start" x="2706.5" y="-96.5" font-family="Helvetica,sans-Serif" font-size="10.00">/Plugins/Animation/src/Animation</text>
<text text-anchor="middle" x="2785.5" y="-85.5" font-family="Helvetica,sans-Serif" font-size="10.00">System.cpp</text>
</a>
</g>
</g>
<!-- Node12&#45;&gt;Node24 -->
<g id="edge25" class="edge"><title>Node12&#45;&gt;Node24</title>
<path fill="none" stroke="midnightblue" d="M1606.67,-190.282C1840.04,-183.904 2480.8,-163.844 2689.5,-131 2692.4,-130.544 2695.33,-130.037 2698.29,-129.486"/>
<polygon fill="midnightblue" stroke="midnightblue" points="1606.43,-186.787 1596.53,-190.557 1606.62,-193.784 1606.43,-186.787"/>
</g>
<!-- Node25 -->
<g id="node25" class="node"><title>Node25</title>
<g id="a_node25"><a xlink:href="MeshPaintSystem_8cpp.html" target="_top" xlink:title="/home/travis/build\l/STORM&#45;IRIT/Radium&#45;Engine\l/Plugins/MeshPaint/src/MeshPaint\lSystem.cpp">
<polygon fill="white" stroke="black" points="1829.5,-78.5 1829.5,-130.5 2003.5,-130.5 2003.5,-78.5 1829.5,-78.5"/>
<text text-anchor="start" x="1837.5" y="-118.5" font-family="Helvetica,sans-Serif" font-size="10.00">/home/travis/build</text>
<text text-anchor="start" x="1837.5" y="-107.5" font-family="Helvetica,sans-Serif" font-size="10.00">/STORM&#45;IRIT/Radium&#45;Engine</text>
<text text-anchor="start" x="1837.5" y="-96.5" font-family="Helvetica,sans-Serif" font-size="10.00">/Plugins/MeshPaint/src/MeshPaint</text>
<text text-anchor="middle" x="1916.5" y="-85.5" font-family="Helvetica,sans-Serif" font-size="10.00">System.cpp</text>
</a>
</g>
</g>
<!-- Node12&#45;&gt;Node25 -->
<g id="edge26" class="edge"><title>Node12&#45;&gt;Node25</title>
<path fill="none" stroke="midnightblue" d="M1606.42,-176.246C1666.56,-164.537 1748.68,-147.886 1820.5,-131 1823.44,-130.309 1826.42,-129.594 1829.43,-128.86"/>
<polygon fill="midnightblue" stroke="midnightblue" points="1605.74,-172.813 1596.59,-178.154 1607.07,-179.685 1605.74,-172.813"/>
</g>
<!-- Node26 -->
<g id="node26" class="node"><title>Node26</title>
<g id="a_node26"><a xlink:href="SkinningSystem_8hpp.html" target="_top" xlink:title="/home/travis/build\l/STORM&#45;IRIT/Radium&#45;Engine\l/Plugins/Skinning/src/SkinningSystem.hpp">
<polygon fill="white" stroke="black" points="2022,-84 2022,-125 2237,-125 2237,-84 2022,-84"/>
<text text-anchor="start" x="2030" y="-113" font-family="Helvetica,sans-Serif" font-size="10.00">/home/travis/build</text>
<text text-anchor="start" x="2030" y="-102" font-family="Helvetica,sans-Serif" font-size="10.00">/STORM&#45;IRIT/Radium&#45;Engine</text>
<text text-anchor="middle" x="2129.5" y="-91" font-family="Helvetica,sans-Serif" font-size="10.00">/Plugins/Skinning/src/SkinningSystem.hpp</text>
</a>
</g>
</g>
<!-- Node12&#45;&gt;Node26 -->
<g id="edge27" class="edge"><title>Node12&#45;&gt;Node26</title>
<path fill="none" stroke="midnightblue" d="M1606.87,-184.088C1705.39,-173.941 1871.14,-155.189 2012.5,-131 2022.75,-129.247 2033.45,-127.206 2044.05,-125.056"/>
<polygon fill="midnightblue" stroke="midnightblue" points="1606.26,-180.632 1596.67,-185.133 1606.97,-187.596 1606.26,-180.632"/>
</g>
<!-- Node27 -->
<g id="node27" class="node"><title>Node27</title>
<g id="a_node27"><a xlink:href="SkinningPlugin_8cpp.html" target="_top" xlink:title="/home/travis/build\l/STORM&#45;IRIT/Radium&#45;Engine\l/Plugins/Skinning/src/SkinningPlugin.cpp">
<polygon fill="white" stroke="black" points="2026.5,-0.5 2026.5,-41.5 2232.5,-41.5 2232.5,-0.5 2026.5,-0.5"/>
<text text-anchor="start" x="2034.5" y="-29.5" font-family="Helvetica,sans-Serif" font-size="10.00">/home/travis/build</text>
<text text-anchor="start" x="2034.5" y="-18.5" font-family="Helvetica,sans-Serif" font-size="10.00">/STORM&#45;IRIT/Radium&#45;Engine</text>
<text text-anchor="middle" x="2129.5" y="-7.5" font-family="Helvetica,sans-Serif" font-size="10.00">/Plugins/Skinning/src/SkinningPlugin.cpp</text>
</a>
</g>
</g>
<!-- Node26&#45;&gt;Node27 -->
<g id="edge28" class="edge"><title>Node26&#45;&gt;Node27</title>
<path fill="none" stroke="midnightblue" d="M2129.5,-73.5646C2129.5,-62.8819 2129.5,-51.1303 2129.5,-41.5472"/>
<polygon fill="midnightblue" stroke="midnightblue" points="2126,-73.7711 2129.5,-83.7711 2133,-73.7712 2126,-73.7711"/>
</g>
<!-- Node28&#45;&gt;Node3 -->
<g id="edge31" class="edge"><title>Node28&#45;&gt;Node3</title>
<path fill="none" stroke="midnightblue" d="M2784.2,-256.075C2784.3,-256.05 2784.4,-256.025 2784.5,-256 2852.72,-239.063 2871.89,-242.451 2938.5,-220 3013.01,-194.885 3095.39,-155.889 3146.06,-130.521"/>
<polygon fill="midnightblue" stroke="midnightblue" points="2783.57,-252.624 2774.72,-258.45 2785.27,-259.414 2783.57,-252.624"/>
</g>
<!-- Node28&#45;&gt;Node24 -->
<g id="edge32" class="edge"><title>Node28&#45;&gt;Node24</title>
<path fill="none" stroke="midnightblue" d="M2706.64,-247.13C2725.69,-212.92 2754.47,-161.231 2771.49,-130.67"/>
<polygon fill="midnightblue" stroke="midnightblue" points="2703.35,-245.844 2701.54,-256.283 2709.46,-249.249 2703.35,-245.844"/>
</g>
<!-- Node29 -->
<g id="node29" class="node"><title>Node29</title>
<g id="a_node29"><a xlink:href="SkeletonBoneDrawable_8hpp.html" target="_top" xlink:title="/home/travis/build\l/STORM&#45;IRIT/Radium&#45;Engine\l/Plugins/Animation/src/Drawing\l/SkeletonBoneDrawable.hpp">
<polygon fill="white" stroke="black" points="2765.5,-167.5 2765.5,-219.5 2929.5,-219.5 2929.5,-167.5 2765.5,-167.5"/>
<text text-anchor="start" x="2773.5" y="-207.5" font-family="Helvetica,sans-Serif" font-size="10.00">/home/travis/build</text>
<text text-anchor="start" x="2773.5" y="-196.5" font-family="Helvetica,sans-Serif" font-size="10.00">/STORM&#45;IRIT/Radium&#45;Engine</text>
<text text-anchor="start" x="2773.5" y="-185.5" font-family="Helvetica,sans-Serif" font-size="10.00">/Plugins/Animation/src/Drawing</text>
<text text-anchor="middle" x="2847.5" y="-174.5" font-family="Helvetica,sans-Serif" font-size="10.00">/SkeletonBoneDrawable.hpp</text>
</a>
</g>
</g>
<!-- Node28&#45;&gt;Node29 -->
<g id="edge33" class="edge"><title>Node28&#45;&gt;Node29</title>
<path fill="none" stroke="midnightblue" d="M2742.68,-251.494C2761.8,-241.101 2783.01,-229.566 2801.33,-219.607"/>
<polygon fill="midnightblue" stroke="midnightblue" points="2740.89,-248.484 2733.78,-256.336 2744.24,-254.634 2740.89,-248.484"/>
</g>
<!-- Node29&#45;&gt;Node3 -->
<g id="edge34" class="edge"><title>Node29&#45;&gt;Node3</title>
<path fill="none" stroke="midnightblue" d="M2939.62,-169.402C2991.63,-156.364 3056.24,-140.163 3107.4,-127.337"/>
<polygon fill="midnightblue" stroke="midnightblue" points="2938.58,-166.055 2929.73,-171.882 2940.29,-172.845 2938.58,-166.055"/>
</g>
<!-- Node29&#45;&gt;Node24 -->
<g id="edge35" class="edge"><title>Node29&#45;&gt;Node24</title>
<path fill="none" stroke="midnightblue" d="M2823.57,-158.927C2816.86,-149.511 2809.69,-139.439 2803.39,-130.607"/>
<polygon fill="midnightblue" stroke="midnightblue" points="2820.91,-161.224 2829.57,-167.336 2826.61,-157.161 2820.91,-161.224"/>
</g>
<!-- Node30 -->
<g id="node30" class="node"><title>Node30</title>
<g id="a_node30"><a xlink:href="SkeletonBoneDrawable_8cpp.html" target="_top" xlink:title="/home/travis/build\l/STORM&#45;IRIT/Radium&#45;Engine\l/Plugins/Animation/src/Drawing\l/SkeletonBoneDrawable.cpp">
<polygon fill="white" stroke="black" points="2890.5,-78.5 2890.5,-130.5 3054.5,-130.5 3054.5,-78.5 2890.5,-78.5"/>
<text text-anchor="start" x="2898.5" y="-118.5" font-family="Helvetica,sans-Serif" font-size="10.00">/home/travis/build</text>
<text text-anchor="start" x="2898.5" y="-107.5" font-family="Helvetica,sans-Serif" font-size="10.00">/STORM&#45;IRIT/Radium&#45;Engine</text>
<text text-anchor="start" x="2898.5" y="-96.5" font-family="Helvetica,sans-Serif" font-size="10.00">/Plugins/Animation/src/Drawing</text>
<text text-anchor="middle" x="2972.5" y="-85.5" font-family="Helvetica,sans-Serif" font-size="10.00">/SkeletonBoneDrawable.cpp</text>
</a>
</g>
</g>
<!-- Node29&#45;&gt;Node30 -->
<g id="edge36" class="edge"><title>Node29&#45;&gt;Node30</title>
<path fill="none" stroke="midnightblue" d="M2892.04,-161.503C2906.59,-151.371 2922.57,-140.25 2936.43,-130.607"/>
<polygon fill="midnightblue" stroke="midnightblue" points="2889.86,-158.751 2883.66,-167.336 2893.86,-164.496 2889.86,-158.751"/>
</g>
<!-- Node31&#45;&gt;Node5 -->
<g id="edge39" class="edge"><title>Node31&#45;&gt;Node5</title>
<path fill="none" stroke="midnightblue" d="M2649.97,-413.14C2647.91,-391.136 2641.42,-362.162 2622.5,-345 2556.57,-285.207 2512.69,-326.884 2425.5,-309 2422.37,-308.359 2419.2,-307.698 2416,-307.023"/>
<polygon fill="midnightblue" stroke="midnightblue" points="2646.49,-413.56 2650.65,-423.3 2653.47,-413.086 2646.49,-413.56"/>
</g>
</g>
</svg>
