<?xml version="1.0" encoding="UTF-8" standalone="no"?>
<!DOCTYPE svg PUBLIC "-//W3C//DTD SVG 1.1//EN"
 "http://www.w3.org/Graphics/SVG/1.1/DTD/svg11.dtd">
<!-- Generated by graphviz version 2.38.0 (20140413.2041)
 -->
<!-- Title: /home/travis/build/STORM&#45;IRIT/Radium&#45;Engine/src/Engine/ItemModel/ItemEntry.hpp Pages: 1 -->
<svg width="645pt" height="274pt"
 viewBox="0.00 0.00 645.00 274.00" xmlns="http://www.w3.org/2000/svg" xmlns:xlink="http://www.w3.org/1999/xlink">
<g id="graph0" class="graph" transform="scale(1 1) rotate(0) translate(4 270)">
<title>/home/travis/build/STORM&#45;IRIT/Radium&#45;Engine/src/Engine/ItemModel/ItemEntry.hpp</title>
<polygon fill="white" stroke="none" points="-4,4 -4,-270 641,-270 641,4 -4,4"/>
<!-- Node1 -->
<g id="node1" class="node"><title>Node1</title>
<polygon fill="#bfbfbf" stroke="black" points="271.5,-224.5 271.5,-265.5 462.5,-265.5 462.5,-224.5 271.5,-224.5"/>
<text text-anchor="start" x="279.5" y="-253.5" font-family="Helvetica,sans-Serif" font-size="10.00">/home/travis/build</text>
<text text-anchor="start" x="279.5" y="-242.5" font-family="Helvetica,sans-Serif" font-size="10.00">/STORM&#45;IRIT/Radium&#45;Engine</text>
<text text-anchor="middle" x="367" y="-231.5" font-family="Helvetica,sans-Serif" font-size="10.00">/src/Engine/ItemModel/ItemEntry.hpp</text>
</g>
<!-- Node2 -->
<g id="node2" class="node"><title>Node2</title>
<g id="a_node2"><a xlink:href="RaEngine_8hpp.html" target="_top" xlink:title="Engine/RaEngine.hpp">
<polygon fill="white" stroke="black" points="41.5,-112.5 41.5,-131.5 158.5,-131.5 158.5,-112.5 41.5,-112.5"/>
<text text-anchor="middle" x="100" y="-119.5" font-family="Helvetica,sans-Serif" font-size="10.00">Engine/RaEngine.hpp</text>
</a>
</g>
</g>
<!-- Node1&#45;&gt;Node2 -->
<g id="edge1" class="edge"><title>Node1&#45;&gt;Node2</title>
<path fill="none" stroke="midnightblue" d="M299.015,-224.464C269.233,-214.94 234.252,-202.419 204,-188 173.193,-173.317 140.195,-151.54 119.825,-137.308"/>
<polygon fill="midnightblue" stroke="midnightblue" points="121.845,-134.45 111.66,-131.533 117.803,-140.165 121.845,-134.45"/>
</g>
<!-- Node9 -->
<g id="node9" class="node"><title>Node9</title>
<g id="a_node9"><a xlink:href="Index_8hpp.html" target="_top" xlink:title="Core/Utils/Index.hpp">
<polygon fill="white" stroke="black" points="213.5,-168.5 213.5,-187.5 326.5,-187.5 326.5,-168.5 213.5,-168.5"/>
<text text-anchor="middle" x="270" y="-175.5" font-family="Helvetica,sans-Serif" font-size="10.00">Core/Utils/Index.hpp</text>
</a>
</g>
</g>
<!-- Node1&#45;&gt;Node9 -->
<g id="edge8" class="edge"><title>Node1&#45;&gt;Node9</title>
<path fill="none" stroke="midnightblue" d="M337.897,-224.498C323.025,-214.532 305.24,-202.614 291.603,-193.476"/>
<polygon fill="midnightblue" stroke="midnightblue" points="293.168,-190.312 282.912,-187.652 289.271,-196.127 293.168,-190.312"/>
</g>
<!-- Node13 -->
<g id="node13" class="node"><title>Node13</title>
<polygon fill="white" stroke="#bfbfbf" points="345,-168.5 345,-187.5 389,-187.5 389,-168.5 345,-168.5"/>
<text text-anchor="middle" x="367" y="-175.5" font-family="Helvetica,sans-Serif" font-size="10.00">string</text>
</g>
<!-- Node1&#45;&gt;Node13 -->
<g id="edge13" class="edge"><title>Node1&#45;&gt;Node13</title>
<path fill="none" stroke="midnightblue" d="M367,-224.498C367,-216.065 367,-206.235 367,-197.874"/>
<polygon fill="midnightblue" stroke="midnightblue" points="370.5,-197.652 367,-187.652 363.5,-197.653 370.5,-197.652"/>
</g>
<!-- Node14 -->
<g id="node14" class="node"><title>Node14</title>
<polygon fill="white" stroke="#bfbfbf" points="407.5,-168.5 407.5,-187.5 454.5,-187.5 454.5,-168.5 407.5,-168.5"/>
<text text-anchor="middle" x="431" y="-175.5" font-family="Helvetica,sans-Serif" font-size="10.00">vector</text>
</g>
<!-- Node1&#45;&gt;Node14 -->
<g id="edge14" class="edge"><title>Node1&#45;&gt;Node14</title>
<path fill="none" stroke="midnightblue" d="M386.202,-224.498C395.543,-215.011 406.625,-203.756 415.43,-194.813"/>
<polygon fill="midnightblue" stroke="midnightblue" points="417.959,-197.234 422.481,-187.652 412.971,-192.323 417.959,-197.234"/>
</g>
<!-- Node15 -->
<g id="node15" class="node"><title>Node15</title>
<g id="a_node15"><a xlink:href="ItemEntry_8inl.html" target="_top" xlink:title="Engine/ItemModel/ItemEntry.inl">
<polygon fill="white" stroke="black" points="473,-168.5 473,-187.5 637,-187.5 637,-168.5 473,-168.5"/>
<text text-anchor="middle" x="555" y="-175.5" font-family="Helvetica,sans-Serif" font-size="10.00">Engine/ItemModel/ItemEntry.inl</text>
</a>
</g>
</g>
<!-- Node1&#45;&gt;Node15 -->
<g id="edge15" class="edge"><title>Node1&#45;&gt;Node15</title>
<path fill="none" stroke="midnightblue" d="M423.406,-224.498C455.002,-213.574 493.382,-200.304 520.519,-190.922"/>
<polygon fill="midnightblue" stroke="midnightblue" points="521.667,-194.228 529.974,-187.652 519.38,-187.612 521.667,-194.228"/>
</g>
<!-- Node3 -->
<g id="node3" class="node"><title>Node3</title>
<g id="a_node3"><a xlink:href="CoreMacros_8hpp.html" target="_top" xlink:title="Core/CoreMacros.hpp">
<polygon fill="white" stroke="black" points="103,-56.5 103,-75.5 223,-75.5 223,-56.5 103,-56.5"/>
<text text-anchor="middle" x="163" y="-63.5" font-family="Helvetica,sans-Serif" font-size="10.00">Core/CoreMacros.hpp</text>
</a>
</g>
</g>
<!-- Node2&#45;&gt;Node3 -->
<g id="edge2" class="edge"><title>Node2&#45;&gt;Node3</title>
<path fill="none" stroke="midnightblue" d="M110.122,-112.324C119.526,-104.263 133.744,-92.0765 145.069,-82.3695"/>
<polygon fill="midnightblue" stroke="midnightblue" points="147.379,-84.9993 152.694,-75.8339 142.823,-79.6844 147.379,-84.9993"/>
</g>
<!-- Node4 -->
<g id="node4" class="node"><title>Node4</title>
<polygon fill="white" stroke="#bfbfbf" points="0,-0.5 0,-19.5 52,-19.5 52,-0.5 0,-0.5"/>
<text text-anchor="middle" x="26" y="-7.5" font-family="Helvetica,sans-Serif" font-size="10.00">cassert</text>
</g>
<!-- Node3&#45;&gt;Node4 -->
<g id="edge3" class="edge"><title>Node3&#45;&gt;Node4</title>
<path fill="none" stroke="midnightblue" d="M141.292,-56.4435C118.645,-47.5171 82.9279,-33.4387 57.2482,-23.3168"/>
<polygon fill="midnightblue" stroke="midnightblue" points="58.1934,-19.9273 47.6065,-19.5164 55.6264,-26.4397 58.1934,-19.9273"/>
</g>
<!-- Node5 -->
<g id="node5" class="node"><title>Node5</title>
<polygon fill="white" stroke="#bfbfbf" points="70.5,-0.5 70.5,-19.5 115.5,-19.5 115.5,-0.5 70.5,-0.5"/>
<text text-anchor="middle" x="93" y="-7.5" font-family="Helvetica,sans-Serif" font-size="10.00">cstdio</text>
</g>
<!-- Node3&#45;&gt;Node5 -->
<g id="edge4" class="edge"><title>Node3&#45;&gt;Node5</title>
<path fill="none" stroke="midnightblue" d="M151.753,-56.324C141.203,-48.1849 125.199,-35.8395 112.558,-26.0874"/>
<polygon fill="midnightblue" stroke="midnightblue" points="114.507,-23.1707 104.451,-19.8339 110.231,-28.7132 114.507,-23.1707"/>
</g>
<!-- Node6 -->
<g id="node6" class="node"><title>Node6</title>
<polygon fill="white" stroke="#bfbfbf" points="133.5,-0.5 133.5,-19.5 192.5,-19.5 192.5,-0.5 133.5,-0.5"/>
<text text-anchor="middle" x="163" y="-7.5" font-family="Helvetica,sans-Serif" font-size="10.00">iostream</text>
</g>
<!-- Node3&#45;&gt;Node6 -->
<g id="edge5" class="edge"><title>Node3&#45;&gt;Node6</title>
<path fill="none" stroke="midnightblue" d="M163,-56.083C163,-49.0059 163,-38.8611 163,-29.9865"/>
<polygon fill="midnightblue" stroke="midnightblue" points="166.5,-29.751 163,-19.7511 159.5,-29.7511 166.5,-29.751"/>
</g>
<!-- Node7 -->
<g id="node7" class="node"><title>Node7</title>
<polygon fill="white" stroke="#bfbfbf" points="211,-0.5 211,-19.5 267,-19.5 267,-0.5 211,-0.5"/>
<text text-anchor="middle" x="239" y="-7.5" font-family="Helvetica,sans-Serif" font-size="10.00">sstream</text>
</g>
<!-- Node3&#45;&gt;Node7 -->
<g id="edge6" class="edge"><title>Node3&#45;&gt;Node7</title>
<path fill="none" stroke="midnightblue" d="M175.211,-56.324C186.776,-48.1066 204.375,-35.6017 218.161,-25.8069"/>
<polygon fill="midnightblue" stroke="midnightblue" points="220.443,-28.4791 226.567,-19.8339 216.388,-22.7729 220.443,-28.4791"/>
</g>
<!-- Node8 -->
<g id="node8" class="node"><title>Node8</title>
<polygon fill="white" stroke="#bfbfbf" points="285,-0.5 285,-19.5 333,-19.5 333,-0.5 285,-0.5"/>
<text text-anchor="middle" x="309" y="-7.5" font-family="Helvetica,sans-Serif" font-size="10.00">thread</text>
</g>
<!-- Node3&#45;&gt;Node8 -->
<g id="edge7" class="edge"><title>Node3&#45;&gt;Node8</title>
<path fill="none" stroke="midnightblue" d="M186.134,-56.4435C210.482,-47.4381 249.007,-33.1891 276.423,-23.049"/>
<polygon fill="midnightblue" stroke="midnightblue" points="277.809,-26.2681 285.974,-19.5164 275.381,-19.7028 277.809,-26.2681"/>
</g>
<!-- Node10 -->
<g id="node10" class="node"><title>Node10</title>
<g id="a_node10"><a xlink:href="RaCore_8hpp.html" target="_top" xlink:title="Core/RaCore.hpp">
<polygon fill="white" stroke="black" points="177,-112.5 177,-131.5 275,-131.5 275,-112.5 177,-112.5"/>
<text text-anchor="middle" x="226" y="-119.5" font-family="Helvetica,sans-Serif" font-size="10.00">Core/RaCore.hpp</text>
</a>
</g>
</g>
<!-- Node9&#45;&gt;Node10 -->
<g id="edge9" class="edge"><title>Node9&#45;&gt;Node10</title>
<path fill="none" stroke="midnightblue" d="M262.734,-168.083C256.455,-160.377 247.212,-149.033 239.569,-139.653"/>
<polygon fill="midnightblue" stroke="midnightblue" points="242.161,-137.293 233.131,-131.751 236.734,-141.714 242.161,-137.293"/>
</g>
<!-- Node11 -->
<g id="node11" class="node"><title>Node11</title>
<polygon fill="white" stroke="#bfbfbf" points="293,-112.5 293,-131.5 335,-131.5 335,-112.5 293,-112.5"/>
<text text-anchor="middle" x="314" y="-119.5" font-family="Helvetica,sans-Serif" font-size="10.00">limits</text>
</g>
<!-- Node9&#45;&gt;Node11 -->
<g id="edge11" class="edge"><title>Node9&#45;&gt;Node11</title>
<path fill="none" stroke="midnightblue" d="M277.266,-168.083C283.545,-160.377 292.788,-149.033 300.431,-139.653"/>
<polygon fill="midnightblue" stroke="midnightblue" points="303.266,-141.714 306.869,-131.751 297.839,-137.293 303.266,-141.714"/>
</g>
<!-- Node12 -->
<g id="node12" class="node"><title>Node12</title>
<g id="a_node12"><a xlink:href="Index_8inl.html" target="_top" xlink:title="Core/Utils/Index.inl">
<polygon fill="white" stroke="black" points="353.5,-112.5 353.5,-131.5 458.5,-131.5 458.5,-112.5 353.5,-112.5"/>
<text text-anchor="middle" x="406" y="-119.5" font-family="Helvetica,sans-Serif" font-size="10.00">Core/Utils/Index.inl</text>
</a>
</g>
</g>
<!-- Node9&#45;&gt;Node12 -->
<g id="edge12" class="edge"><title>Node9&#45;&gt;Node12</title>
<path fill="none" stroke="midnightblue" d="M291.55,-168.444C314.031,-159.517 349.488,-145.439 374.98,-135.317"/>
<polygon fill="midnightblue" stroke="midnightblue" points="376.549,-138.46 384.551,-131.516 373.965,-131.954 376.549,-138.46"/>
</g>
<!-- Node10&#45;&gt;Node3 -->
<g id="edge10" class="edge"><title>Node10&#45;&gt;Node3</title>
<path fill="none" stroke="midnightblue" d="M215.878,-112.324C206.474,-104.263 192.256,-92.0765 180.931,-82.3695"/>
<polygon fill="midnightblue" stroke="midnightblue" points="183.177,-79.6844 173.306,-75.8339 178.621,-84.9993 183.177,-79.6844"/>
</g>
</g>
</svg>
