<?xml version="1.0" encoding="UTF-8" standalone="no"?>
<!DOCTYPE svg PUBLIC "-//W3C//DTD SVG 1.1//EN"
 "http://www.w3.org/Graphics/SVG/1.1/DTD/svg11.dtd">
<!-- Generated by graphviz version 2.38.0 (20140413.2041)
 -->
<!-- Title: /home/travis/build/STORM&#45;IRIT/Radium&#45;Engine/src/Engine/ItemModel/ItemEntry.hpp Pages: 1 -->
<svg width="2696pt" height="317pt"
 viewBox="0.00 0.00 2695.50 317.00" xmlns="http://www.w3.org/2000/svg" xmlns:xlink="http://www.w3.org/1999/xlink">
<g id="graph0" class="graph" transform="scale(1 1) rotate(0) translate(4 313)">
<title>/home/travis/build/STORM&#45;IRIT/Radium&#45;Engine/src/Engine/ItemModel/ItemEntry.hpp</title>
<polygon fill="white" stroke="none" points="-4,4 -4,-313 2691.5,-313 2691.5,4 -4,4"/>
<!-- Node1 -->
<g id="node1" class="node"><title>Node1</title>
<polygon fill="#bfbfbf" stroke="black" points="1665.5,-267.5 1665.5,-308.5 1856.5,-308.5 1856.5,-267.5 1665.5,-267.5"/>
<text text-anchor="start" x="1673.5" y="-296.5" font-family="Helvetica,sans-Serif" font-size="10.00">/home/travis/build</text>
<text text-anchor="start" x="1673.5" y="-285.5" font-family="Helvetica,sans-Serif" font-size="10.00">/STORM&#45;IRIT/Radium&#45;Engine</text>
<text text-anchor="middle" x="1761" y="-274.5" font-family="Helvetica,sans-Serif" font-size="10.00">/src/Engine/ItemModel/ItemEntry.hpp</text>
</g>
<!-- Node2 -->
<g id="node2" class="node"><title>Node2</title>
<g id="a_node2"><a xlink:href="ItemEntry_8cpp.html" target="_top" xlink:title="/home/travis/build\l/STORM&#45;IRIT/Radium&#45;Engine\l/src/Engine/ItemModel/ItemEntry.cpp">
<polygon fill="white" stroke="black" points="1195.5,-184 1195.5,-225 1386.5,-225 1386.5,-184 1195.5,-184"/>
<text text-anchor="start" x="1203.5" y="-213" font-family="Helvetica,sans-Serif" font-size="10.00">/home/travis/build</text>
<text text-anchor="start" x="1203.5" y="-202" font-family="Helvetica,sans-Serif" font-size="10.00">/STORM&#45;IRIT/Radium&#45;Engine</text>
<text text-anchor="middle" x="1291" y="-191" font-family="Helvetica,sans-Serif" font-size="10.00">/src/Engine/ItemModel/ItemEntry.cpp</text>
</a>
</g>
</g>
<!-- Node1&#45;&gt;Node2 -->
<g id="edge1" class="edge"><title>Node1&#45;&gt;Node2</title>
<path fill="none" stroke="midnightblue" d="M1655.19,-272.627C1583.27,-262.348 1486.11,-247.462 1401,-231 1391.67,-229.195 1381.92,-227.158 1372.25,-225.042"/>
<polygon fill="midnightblue" stroke="midnightblue" points="1654.77,-276.103 1665.16,-274.047 1655.76,-269.173 1654.77,-276.103"/>
</g>
<!-- Node3 -->
<g id="node3" class="node"><title>Node3</title>
<g id="a_node3"><a xlink:href="SignalManager_8hpp.html" target="_top" xlink:title="/home/travis/build\l/STORM&#45;IRIT/Radium&#45;Engine\l/src/Engine/Managers/SignalManager\l/SignalManager.hpp">
<polygon fill="white" stroke="black" points="893,-89.5 893,-141.5 1087,-141.5 1087,-89.5 893,-89.5"/>
<text text-anchor="start" x="901" y="-129.5" font-family="Helvetica,sans-Serif" font-size="10.00">/home/travis/build</text>
<text text-anchor="start" x="901" y="-118.5" font-family="Helvetica,sans-Serif" font-size="10.00">/STORM&#45;IRIT/Radium&#45;Engine</text>
<text text-anchor="start" x="901" y="-107.5" font-family="Helvetica,sans-Serif" font-size="10.00">/src/Engine/Managers/SignalManager</text>
<text text-anchor="middle" x="990" y="-96.5" font-family="Helvetica,sans-Serif" font-size="10.00">/SignalManager.hpp</text>
</a>
</g>
</g>
<!-- Node1&#45;&gt;Node3 -->
<g id="edge2" class="edge"><title>Node1&#45;&gt;Node3</title>
<path fill="none" stroke="midnightblue" d="M1655.14,-277.492C1574.12,-268.64 1470.31,-253.412 1434,-231 1409.11,-215.639 1420.03,-193.125 1395,-178 1344.63,-147.563 1190.12,-130.777 1087.17,-122.712"/>
<polygon fill="midnightblue" stroke="midnightblue" points="1655.09,-281.006 1665.4,-278.593 1655.84,-274.046 1655.09,-281.006"/>
</g>
<!-- Node13 -->
<g id="node13" class="node"><title>Node13</title>
<g id="a_node13"><a xlink:href="SelectionManager_8hpp.html" target="_top" xlink:title="/home/travis/build\l/STORM&#45;IRIT/Radium&#45;Engine\l/src/GuiBase/SelectionManager\l/SelectionManager.hpp">
<polygon fill="white" stroke="black" points="1822,-89.5 1822,-141.5 1988,-141.5 1988,-89.5 1822,-89.5"/>
<text text-anchor="start" x="1830" y="-129.5" font-family="Helvetica,sans-Serif" font-size="10.00">/home/travis/build</text>
<text text-anchor="start" x="1830" y="-118.5" font-family="Helvetica,sans-Serif" font-size="10.00">/STORM&#45;IRIT/Radium&#45;Engine</text>
<text text-anchor="start" x="1830" y="-107.5" font-family="Helvetica,sans-Serif" font-size="10.00">/src/GuiBase/SelectionManager</text>
<text text-anchor="middle" x="1905" y="-96.5" font-family="Helvetica,sans-Serif" font-size="10.00">/SelectionManager.hpp</text>
</a>
</g>
</g>
<!-- Node1&#45;&gt;Node13 -->
<g id="edge12" class="edge"><title>Node1&#45;&gt;Node13</title>
<path fill="none" stroke="midnightblue" d="M1817.89,-262.406C1832.39,-254.072 1846.98,-243.609 1858,-231 1880.63,-205.115 1893.33,-166.86 1899.68,-141.808"/>
<polygon fill="midnightblue" stroke="midnightblue" points="1816,-259.451 1808.9,-267.32 1819.36,-265.593 1816,-259.451"/>
</g>
<!-- Node15 -->
<g id="node15" class="node"><title>Node15</title>
<g id="a_node15"><a xlink:href="CameraManipPlugin_8cpp.html" target="_top" xlink:title="/home/travis/build\l/STORM&#45;IRIT/Radium&#45;Engine\l/Plugins/CameraManip/src\l/CameraManipPlugin.cpp">
<polygon fill="white" stroke="black" points="2190,-0.5 2190,-52.5 2338,-52.5 2338,-0.5 2190,-0.5"/>
<text text-anchor="start" x="2198" y="-40.5" font-family="Helvetica,sans-Serif" font-size="10.00">/home/travis/build</text>
<text text-anchor="start" x="2198" y="-29.5" font-family="Helvetica,sans-Serif" font-size="10.00">/STORM&#45;IRIT/Radium&#45;Engine</text>
<text text-anchor="start" x="2198" y="-18.5" font-family="Helvetica,sans-Serif" font-size="10.00">/Plugins/CameraManip/src</text>
<text text-anchor="middle" x="2264" y="-7.5" font-family="Helvetica,sans-Serif" font-size="10.00">/CameraManipPlugin.cpp</text>
</a>
</g>
</g>
<!-- Node1&#45;&gt;Node15 -->
<g id="edge30" class="edge"><title>Node1&#45;&gt;Node15</title>
<path fill="none" stroke="midnightblue" d="M1816.43,-263.461C1838.56,-253.779 1864.16,-242.22 1887,-231 1951.42,-199.355 2132.98,-99.7604 2218.45,-52.6578"/>
<polygon fill="midnightblue" stroke="midnightblue" points="1814.95,-260.288 1807.18,-267.488 1817.74,-266.706 1814.95,-260.288"/>
</g>
<!-- Node17 -->
<g id="node17" class="node"><title>Node17</title>
<g id="a_node17"><a xlink:href="TransformEditor_8hpp.html" target="_top" xlink:title="/home/travis/build\l/STORM&#45;IRIT/Radium&#45;Engine\l/src/GuiBase/TransformEditor\l/TransformEditor.hpp">
<polygon fill="white" stroke="black" points="2162.5,-178.5 2162.5,-230.5 2317.5,-230.5 2317.5,-178.5 2162.5,-178.5"/>
<text text-anchor="start" x="2170.5" y="-218.5" font-family="Helvetica,sans-Serif" font-size="10.00">/home/travis/build</text>
<text text-anchor="start" x="2170.5" y="-207.5" font-family="Helvetica,sans-Serif" font-size="10.00">/STORM&#45;IRIT/Radium&#45;Engine</text>
<text text-anchor="start" x="2170.5" y="-196.5" font-family="Helvetica,sans-Serif" font-size="10.00">/src/GuiBase/TransformEditor</text>
<text text-anchor="middle" x="2240" y="-185.5" font-family="Helvetica,sans-Serif" font-size="10.00">/TransformEditor.hpp</text>
</a>
</g>
</g>
<!-- Node1&#45;&gt;Node17 -->
<g id="edge19" class="edge"><title>Node1&#45;&gt;Node17</title>
<path fill="none" stroke="midnightblue" d="M1866.8,-270.895C1935.84,-260.158 2027.89,-245.417 2109,-231 2126.34,-227.918 2144.93,-224.419 2162.5,-221.022"/>
<polygon fill="midnightblue" stroke="midnightblue" points="1866.13,-267.457 1856.78,-272.45 1867.2,-274.374 1866.13,-267.457"/>
</g>
<!-- Node22 -->
<g id="node22" class="node"><title>Node22</title>
<g id="a_node22"><a xlink:href="EntityTreeModel_8hpp.html" target="_top" xlink:title="/home/travis/build\l/STORM&#45;IRIT/Radium&#45;Engine\l/src/GuiBase/TreeModel/EntityTree\lModel.hpp">
<polygon fill="white" stroke="black" points="1672.5,-178.5 1672.5,-230.5 1849.5,-230.5 1849.5,-178.5 1672.5,-178.5"/>
<text text-anchor="start" x="1680.5" y="-218.5" font-family="Helvetica,sans-Serif" font-size="10.00">/home/travis/build</text>
<text text-anchor="start" x="1680.5" y="-207.5" font-family="Helvetica,sans-Serif" font-size="10.00">/STORM&#45;IRIT/Radium&#45;Engine</text>
<text text-anchor="start" x="1680.5" y="-196.5" font-family="Helvetica,sans-Serif" font-size="10.00">/src/GuiBase/TreeModel/EntityTree</text>
<text text-anchor="middle" x="1761" y="-185.5" font-family="Helvetica,sans-Serif" font-size="10.00">Model.hpp</text>
</a>
</g>
</g>
<!-- Node1&#45;&gt;Node22 -->
<g id="edge24" class="edge"><title>Node1&#45;&gt;Node22</title>
<path fill="none" stroke="midnightblue" d="M1761,-257.121C1761,-248.413 1761,-238.989 1761,-230.607"/>
<polygon fill="midnightblue" stroke="midnightblue" points="1757.5,-257.271 1761,-267.271 1764.5,-257.271 1757.5,-257.271"/>
</g>
<!-- Node24 -->
<g id="node24" class="node"><title>Node24</title>
<g id="a_node24"><a xlink:href="AnimationSystem_8hpp.html" target="_top" xlink:title="/home/travis/build\l/STORM&#45;IRIT/Radium&#45;Engine\l/Plugins/Animation/src/Animation\lSystem.hpp">
<polygon fill="white" stroke="black" points="1443,-178.5 1443,-230.5 1617,-230.5 1617,-178.5 1443,-178.5"/>
<text text-anchor="start" x="1451" y="-218.5" font-family="Helvetica,sans-Serif" font-size="10.00">/home/travis/build</text>
<text text-anchor="start" x="1451" y="-207.5" font-family="Helvetica,sans-Serif" font-size="10.00">/STORM&#45;IRIT/Radium&#45;Engine</text>
<text text-anchor="start" x="1451" y="-196.5" font-family="Helvetica,sans-Serif" font-size="10.00">/Plugins/Animation/src/Animation</text>
<text text-anchor="middle" x="1530" y="-185.5" font-family="Helvetica,sans-Serif" font-size="10.00">System.hpp</text>
</a>
</g>
</g>
<!-- Node1&#45;&gt;Node24 -->
<g id="edge27" class="edge"><title>Node1&#45;&gt;Node24</title>
<path fill="none" stroke="midnightblue" d="M1695.87,-264.022C1666.32,-253.597 1631.31,-241.242 1601.08,-230.576"/>
<polygon fill="midnightblue" stroke="midnightblue" points="1695.07,-267.452 1705.67,-267.479 1697.4,-260.851 1695.07,-267.452"/>
</g>
<!-- Node4 -->
<g id="node4" class="node"><title>Node4</title>
<g id="a_node4"><a xlink:href="Component_8cpp.html" target="_top" xlink:title="/home/travis/build\l/STORM&#45;IRIT/Radium&#45;Engine\l/src/Engine/Component/Component.cpp">
<polygon fill="white" stroke="black" points="0,-6 0,-47 208,-47 208,-6 0,-6"/>
<text text-anchor="start" x="8" y="-35" font-family="Helvetica,sans-Serif" font-size="10.00">/home/travis/build</text>
<text text-anchor="start" x="8" y="-24" font-family="Helvetica,sans-Serif" font-size="10.00">/STORM&#45;IRIT/Radium&#45;Engine</text>
<text text-anchor="middle" x="104" y="-13" font-family="Helvetica,sans-Serif" font-size="10.00">/src/Engine/Component/Component.cpp</text>
</a>
</g>
</g>
<!-- Node3&#45;&gt;Node4 -->
<g id="edge3" class="edge"><title>Node3&#45;&gt;Node4</title>
<path fill="none" stroke="midnightblue" d="M882.664,-110.795C732.879,-104.528 452.988,-88.8278 217,-53 206.263,-51.3699 195.028,-49.2929 183.982,-47.03"/>
<polygon fill="midnightblue" stroke="midnightblue" points="882.645,-114.297 892.78,-111.212 882.933,-107.303 882.645,-114.297"/>
</g>
<!-- Node5 -->
<g id="node5" class="node"><title>Node5</title>
<g id="a_node5"><a xlink:href="Entity_8cpp.html" target="_top" xlink:title="/home/travis/build\l/STORM&#45;IRIT/Radium&#45;Engine\l/src/Engine/Entity/Entity.cpp">
<polygon fill="white" stroke="black" points="226,-6 226,-47 374,-47 374,-6 226,-6"/>
<text text-anchor="start" x="234" y="-35" font-family="Helvetica,sans-Serif" font-size="10.00">/home/travis/build</text>
<text text-anchor="start" x="234" y="-24" font-family="Helvetica,sans-Serif" font-size="10.00">/STORM&#45;IRIT/Radium&#45;Engine</text>
<text text-anchor="middle" x="300" y="-13" font-family="Helvetica,sans-Serif" font-size="10.00">/src/Engine/Entity/Entity.cpp</text>
</a>
</g>
</g>
<!-- Node3&#45;&gt;Node5 -->
<g id="edge4" class="edge"><title>Node3&#45;&gt;Node5</title>
<path fill="none" stroke="midnightblue" d="M882.834,-110.03C760.799,-103.469 555.93,-87.9691 383,-53 375.021,-51.3866 366.716,-49.3192 358.576,-47.0612"/>
<polygon fill="midnightblue" stroke="midnightblue" points="882.757,-113.531 892.927,-110.563 883.125,-106.541 882.757,-113.531"/>
</g>
<!-- Node6 -->
<g id="node6" class="node"><title>Node6</title>
<g id="a_node6"><a xlink:href="EntityManager_8cpp.html" target="_top" xlink:title="/home/travis/build\l/STORM&#45;IRIT/Radium&#45;Engine\l/src/Engine/Managers/EntityManager\l/EntityManager.cpp">
<polygon fill="white" stroke="black" points="392.5,-0.5 392.5,-52.5 583.5,-52.5 583.5,-0.5 392.5,-0.5"/>
<text text-anchor="start" x="400.5" y="-40.5" font-family="Helvetica,sans-Serif" font-size="10.00">/home/travis/build</text>
<text text-anchor="start" x="400.5" y="-29.5" font-family="Helvetica,sans-Serif" font-size="10.00">/STORM&#45;IRIT/Radium&#45;Engine</text>
<text text-anchor="start" x="400.5" y="-18.5" font-family="Helvetica,sans-Serif" font-size="10.00">/src/Engine/Managers/EntityManager</text>
<text text-anchor="middle" x="488" y="-7.5" font-family="Helvetica,sans-Serif" font-size="10.00">/EntityManager.cpp</text>
</a>
</g>
</g>
<!-- Node3&#45;&gt;Node6 -->
<g id="edge5" class="edge"><title>Node3&#45;&gt;Node6</title>
<path fill="none" stroke="midnightblue" d="M882.824,-100.4C802.686,-89.251 690.587,-72.3725 593,-53 589.964,-52.3973 586.883,-51.7664 583.776,-51.1133"/>
<polygon fill="midnightblue" stroke="midnightblue" points="882.542,-103.894 892.927,-101.799 883.502,-96.9602 882.542,-103.894"/>
</g>
<!-- Node7 -->
<g id="node7" class="node"><title>Node7</title>
<g id="a_node7"><a xlink:href="SignalManager_8cpp.html" target="_top" xlink:title="/home/travis/build\l/STORM&#45;IRIT/Radium&#45;Engine\l/src/Engine/Managers/SignalManager\l/SignalManager.cpp">
<polygon fill="white" stroke="black" points="602,-0.5 602,-52.5 796,-52.5 796,-0.5 602,-0.5"/>
<text text-anchor="start" x="610" y="-40.5" font-family="Helvetica,sans-Serif" font-size="10.00">/home/travis/build</text>
<text text-anchor="start" x="610" y="-29.5" font-family="Helvetica,sans-Serif" font-size="10.00">/STORM&#45;IRIT/Radium&#45;Engine</text>
<text text-anchor="start" x="610" y="-18.5" font-family="Helvetica,sans-Serif" font-size="10.00">/src/Engine/Managers/SignalManager</text>
<text text-anchor="middle" x="699" y="-7.5" font-family="Helvetica,sans-Serif" font-size="10.00">/SignalManager.cpp</text>
</a>
</g>
</g>
<!-- Node3&#45;&gt;Node7 -->
<g id="edge6" class="edge"><title>Node3&#45;&gt;Node7</title>
<path fill="none" stroke="midnightblue" d="M896.539,-86.5581C859.942,-75.6166 818.286,-63.1627 782.691,-52.5211"/>
<polygon fill="midnightblue" stroke="midnightblue" points="895.638,-89.9416 906.221,-89.4527 897.643,-83.2349 895.638,-89.9416"/>
</g>
<!-- Node8 -->
<g id="node8" class="node"><title>Node8</title>
<g id="a_node8"><a xlink:href="RadiumEngine_8cpp.html" target="_top" xlink:title="/home/travis/build\l/STORM&#45;IRIT/Radium&#45;Engine\l/src/Engine/RadiumEngine.cpp">
<polygon fill="white" stroke="black" points="814.5,-6 814.5,-47 975.5,-47 975.5,-6 814.5,-6"/>
<text text-anchor="start" x="822.5" y="-35" font-family="Helvetica,sans-Serif" font-size="10.00">/home/travis/build</text>
<text text-anchor="start" x="822.5" y="-24" font-family="Helvetica,sans-Serif" font-size="10.00">/STORM&#45;IRIT/Radium&#45;Engine</text>
<text text-anchor="middle" x="895" y="-13" font-family="Helvetica,sans-Serif" font-size="10.00">/src/Engine/RadiumEngine.cpp</text>
</a>
</g>
</g>
<!-- Node3&#45;&gt;Node8 -->
<g id="edge7" class="edge"><title>Node3&#45;&gt;Node8</title>
<path fill="none" stroke="midnightblue" d="M955.074,-82.5147C942.104,-70.6371 927.786,-57.5252 916.383,-47.0821"/>
<polygon fill="midnightblue" stroke="midnightblue" points="952.783,-85.1634 962.522,-89.336 957.511,-80.0011 952.783,-85.1634"/>
</g>
<!-- Node9 -->
<g id="node9" class="node"><title>Node9</title>
<g id="a_node9"><a xlink:href="RenderObjectManager_8cpp.html" target="_top" xlink:title="/home/travis/build\l/STORM&#45;IRIT/Radium&#45;Engine\l/src/Engine/Renderer/RenderObject\l/RenderObjectManager.cpp">
<polygon fill="white" stroke="black" points="994,-0.5 994,-52.5 1176,-52.5 1176,-0.5 994,-0.5"/>
<text text-anchor="start" x="1002" y="-40.5" font-family="Helvetica,sans-Serif" font-size="10.00">/home/travis/build</text>
<text text-anchor="start" x="1002" y="-29.5" font-family="Helvetica,sans-Serif" font-size="10.00">/STORM&#45;IRIT/Radium&#45;Engine</text>
<text text-anchor="start" x="1002" y="-18.5" font-family="Helvetica,sans-Serif" font-size="10.00">/src/Engine/Renderer/RenderObject</text>
<text text-anchor="middle" x="1085" y="-7.5" font-family="Helvetica,sans-Serif" font-size="10.00">/RenderObjectManager.cpp</text>
</a>
</g>
</g>
<!-- Node3&#45;&gt;Node9 -->
<g id="edge8" class="edge"><title>Node3&#45;&gt;Node9</title>
<path fill="none" stroke="midnightblue" d="M1025.09,-82.3631C1035.82,-72.542 1047.45,-61.8899 1057.58,-52.6075"/>
<polygon fill="midnightblue" stroke="midnightblue" points="1022.49,-80.0011 1017.48,-89.336 1027.22,-85.1634 1022.49,-80.0011"/>
</g>
<!-- Node10 -->
<g id="node10" class="node"><title>Node10</title>
<g id="a_node10"><a xlink:href="AnimationPlugin_8cpp.html" target="_top" xlink:title="/home/travis/build\l/STORM&#45;IRIT/Radium&#45;Engine\l/Plugins/Animation/src/Animation\lPlugin.cpp">
<polygon fill="white" stroke="black" points="1398,-0.5 1398,-52.5 1572,-52.5 1572,-0.5 1398,-0.5"/>
<text text-anchor="start" x="1406" y="-40.5" font-family="Helvetica,sans-Serif" font-size="10.00">/home/travis/build</text>
<text text-anchor="start" x="1406" y="-29.5" font-family="Helvetica,sans-Serif" font-size="10.00">/STORM&#45;IRIT/Radium&#45;Engine</text>
<text text-anchor="start" x="1406" y="-18.5" font-family="Helvetica,sans-Serif" font-size="10.00">/Plugins/Animation/src/Animation</text>
<text text-anchor="middle" x="1485" y="-7.5" font-family="Helvetica,sans-Serif" font-size="10.00">Plugin.cpp</text>
</a>
</g>
</g>
<!-- Node3&#45;&gt;Node10 -->
<g id="edge9" class="edge"><title>Node3&#45;&gt;Node10</title>
<path fill="none" stroke="midnightblue" d="M1097.15,-101.013C1177.58,-90.1478 1290.19,-73.3557 1388,-53 1391.24,-52.3259 1394.53,-51.6114 1397.85,-50.8662"/>
<polygon fill="midnightblue" stroke="midnightblue" points="1096.46,-97.5743 1087.01,-102.374 1097.39,-104.512 1096.46,-97.5743"/>
</g>
<!-- Node11 -->
<g id="node11" class="node"><title>Node11</title>
<g id="a_node11"><a xlink:href="MeshFeatureTrackingPlugin_8cpp.html" target="_top" xlink:title="/home/travis/build\l/STORM&#45;IRIT/Radium&#45;Engine\l/Plugins/MeshFeatureTracking\l/src/MeshFeatureTrackingPlugin.cpp">
<polygon fill="white" stroke="black" points="1194.5,-0.5 1194.5,-52.5 1379.5,-52.5 1379.5,-0.5 1194.5,-0.5"/>
<text text-anchor="start" x="1202.5" y="-40.5" font-family="Helvetica,sans-Serif" font-size="10.00">/home/travis/build</text>
<text text-anchor="start" x="1202.5" y="-29.5" font-family="Helvetica,sans-Serif" font-size="10.00">/STORM&#45;IRIT/Radium&#45;Engine</text>
<text text-anchor="start" x="1202.5" y="-18.5" font-family="Helvetica,sans-Serif" font-size="10.00">/Plugins/MeshFeatureTracking</text>
<text text-anchor="middle" x="1287" y="-7.5" font-family="Helvetica,sans-Serif" font-size="10.00">/src/MeshFeatureTrackingPlugin.cpp</text>
</a>
</g>
</g>
<!-- Node3&#45;&gt;Node11 -->
<g id="edge10" class="edge"><title>Node3&#45;&gt;Node11</title>
<path fill="none" stroke="midnightblue" d="M1085.39,-86.5581C1122.74,-75.6166 1165.25,-63.1627 1201.58,-52.5211"/>
<polygon fill="midnightblue" stroke="midnightblue" points="1084.12,-83.2826 1075.51,-89.4527 1086.09,-90.0003 1084.12,-83.2826"/>
</g>
<!-- Node12 -->
<g id="node12" class="node"><title>Node12</title>
<g id="a_node12"><a xlink:href="MeshPaintPlugin_8cpp.html" target="_top" xlink:title="/home/travis/build\l/STORM&#45;IRIT/Radium&#45;Engine\l/Plugins/MeshPaint/src/MeshPaint\lPlugin.cpp">
<polygon fill="white" stroke="black" points="1590,-0.5 1590,-52.5 1764,-52.5 1764,-0.5 1590,-0.5"/>
<text text-anchor="start" x="1598" y="-40.5" font-family="Helvetica,sans-Serif" font-size="10.00">/home/travis/build</text>
<text text-anchor="start" x="1598" y="-29.5" font-family="Helvetica,sans-Serif" font-size="10.00">/STORM&#45;IRIT/Radium&#45;Engine</text>
<text text-anchor="start" x="1598" y="-18.5" font-family="Helvetica,sans-Serif" font-size="10.00">/Plugins/MeshPaint/src/MeshPaint</text>
<text text-anchor="middle" x="1677" y="-7.5" font-family="Helvetica,sans-Serif" font-size="10.00">Plugin.cpp</text>
</a>
</g>
</g>
<!-- Node3&#45;&gt;Node12 -->
<g id="edge11" class="edge"><title>Node3&#45;&gt;Node12</title>
<path fill="none" stroke="midnightblue" d="M1097.34,-108.378C1216.32,-100.423 1413.52,-83.7625 1581,-53 1583.88,-52.4704 1586.81,-51.8986 1589.75,-51.2927"/>
<polygon fill="midnightblue" stroke="midnightblue" points="1096.89,-104.9 1087.14,-109.051 1097.35,-111.885 1096.89,-104.9"/>
</g>
<!-- Node13&#45;&gt;Node10 -->
<g id="edge14" class="edge"><title>Node13&#45;&gt;Node10</title>
<path fill="none" stroke="midnightblue" d="M1812.31,-89.0659C1812.2,-89.0439 1812.1,-89.0219 1812,-89 1710.4,-67.2271 1682.69,-74.367 1581,-53 1578.05,-52.3794 1575.05,-51.7245 1572.03,-51.0429"/>
<polygon fill="midnightblue" stroke="midnightblue" points="1811.44,-92.4578 1821.96,-91.2314 1812.97,-85.6276 1811.44,-92.4578"/>
</g>
<!-- Node13&#45;&gt;Node11 -->
<g id="edge16" class="edge"><title>Node13&#45;&gt;Node11</title>
<path fill="none" stroke="midnightblue" d="M1811.87,-89.1487C1624.46,-56.8574 1571.94,-83.4505 1389,-53 1385.94,-52.4905 1382.83,-51.9362 1379.71,-51.3453"/>
<polygon fill="midnightblue" stroke="midnightblue" points="1811.31,-92.6046 1821.77,-90.887 1812.52,-85.7101 1811.31,-92.6046"/>
</g>
<!-- Node13&#45;&gt;Node12 -->
<g id="edge17" class="edge"><title>Node13&#45;&gt;Node12</title>
<path fill="none" stroke="midnightblue" d="M1829.94,-85.8577C1801.71,-75.0875 1769.87,-62.9363 1742.57,-52.5211"/>
<polygon fill="midnightblue" stroke="midnightblue" points="1828.77,-89.1576 1839.36,-89.4527 1831.26,-82.6176 1828.77,-89.1576"/>
</g>
<!-- Node14 -->
<g id="node14" class="node"><title>Node14</title>
<g id="a_node14"><a xlink:href="SelectionManager_8cpp.html" target="_top" xlink:title="/home/travis/build\l/STORM&#45;IRIT/Radium&#45;Engine\l/src/GuiBase/SelectionManager\l/SelectionManager.cpp">
<polygon fill="white" stroke="black" points="2006,-0.5 2006,-52.5 2172,-52.5 2172,-0.5 2006,-0.5"/>
<text text-anchor="start" x="2014" y="-40.5" font-family="Helvetica,sans-Serif" font-size="10.00">/home/travis/build</text>
<text text-anchor="start" x="2014" y="-29.5" font-family="Helvetica,sans-Serif" font-size="10.00">/STORM&#45;IRIT/Radium&#45;Engine</text>
<text text-anchor="start" x="2014" y="-18.5" font-family="Helvetica,sans-Serif" font-size="10.00">/src/GuiBase/SelectionManager</text>
<text text-anchor="middle" x="2089" y="-7.5" font-family="Helvetica,sans-Serif" font-size="10.00">/SelectionManager.cpp</text>
</a>
</g>
</g>
<!-- Node13&#45;&gt;Node14 -->
<g id="edge13" class="edge"><title>Node13&#45;&gt;Node14</title>
<path fill="none" stroke="midnightblue" d="M1967.27,-85.0576C1989.56,-74.5186 2014.46,-62.7461 2035.9,-52.6075"/>
<polygon fill="midnightblue" stroke="midnightblue" points="1965.76,-81.8973 1958.22,-89.336 1968.76,-88.2255 1965.76,-81.8973"/>
</g>
<!-- Node13&#45;&gt;Node15 -->
<g id="edge15" class="edge"><title>Node13&#45;&gt;Node15</title>
<path fill="none" stroke="midnightblue" d="M1997.99,-95.6876C2051.73,-84.3423 2120.46,-69.0177 2181,-53 2183.91,-52.2288 2186.88,-51.4225 2189.87,-50.5913"/>
<polygon fill="midnightblue" stroke="midnightblue" points="1997.21,-92.2764 1988.14,-97.7589 1998.65,-99.1267 1997.21,-92.2764"/>
</g>
<!-- Node16 -->
<g id="node16" class="node"><title>Node16</title>
<g id="a_node16"><a xlink:href="SkinningPlugin_8cpp.html" target="_top" xlink:title="/home/travis/build\l/STORM&#45;IRIT/Radium&#45;Engine\l/Plugins/Skinning/src/SkinningPlugin.cpp">
<polygon fill="white" stroke="black" points="1782,-6 1782,-47 1988,-47 1988,-6 1782,-6"/>
<text text-anchor="start" x="1790" y="-35" font-family="Helvetica,sans-Serif" font-size="10.00">/home/travis/build</text>
<text text-anchor="start" x="1790" y="-24" font-family="Helvetica,sans-Serif" font-size="10.00">/STORM&#45;IRIT/Radium&#45;Engine</text>
<text text-anchor="middle" x="1885" y="-13" font-family="Helvetica,sans-Serif" font-size="10.00">/Plugins/Skinning/src/SkinningPlugin.cpp</text>
</a>
</g>
</g>
<!-- Node13&#45;&gt;Node16 -->
<g id="edge18" class="edge"><title>Node13&#45;&gt;Node16</title>
<path fill="none" stroke="midnightblue" d="M1896.95,-79.4937C1894.41,-68.4502 1891.7,-56.6468 1889.5,-47.0821"/>
<polygon fill="midnightblue" stroke="midnightblue" points="1893.56,-80.3744 1899.22,-89.336 1900.39,-78.806 1893.56,-80.3744"/>
</g>
<!-- Node18 -->
<g id="node18" class="node"><title>Node18</title>
<g id="a_node18"><a xlink:href="TransformEditor_8cpp.html" target="_top" xlink:title="/home/travis/build\l/STORM&#45;IRIT/Radium&#45;Engine\l/src/GuiBase/TransformEditor\l/TransformEditor.cpp">
<polygon fill="white" stroke="black" points="2162.5,-89.5 2162.5,-141.5 2317.5,-141.5 2317.5,-89.5 2162.5,-89.5"/>
<text text-anchor="start" x="2170.5" y="-129.5" font-family="Helvetica,sans-Serif" font-size="10.00">/home/travis/build</text>
<text text-anchor="start" x="2170.5" y="-118.5" font-family="Helvetica,sans-Serif" font-size="10.00">/STORM&#45;IRIT/Radium&#45;Engine</text>
<text text-anchor="start" x="2170.5" y="-107.5" font-family="Helvetica,sans-Serif" font-size="10.00">/src/GuiBase/TransformEditor</text>
<text text-anchor="middle" x="2240" y="-96.5" font-family="Helvetica,sans-Serif" font-size="10.00">/TransformEditor.cpp</text>
</a>
</g>
</g>
<!-- Node17&#45;&gt;Node18 -->
<g id="edge20" class="edge"><title>Node17&#45;&gt;Node18</title>
<path fill="none" stroke="midnightblue" d="M2240,-168.191C2240,-159.282 2240,-149.899 2240,-141.607"/>
<polygon fill="midnightblue" stroke="midnightblue" points="2236.5,-168.336 2240,-178.336 2243.5,-168.336 2236.5,-168.336"/>
</g>
<!-- Node19 -->
<g id="node19" class="node"><title>Node19</title>
<g id="a_node19"><a xlink:href="GizmoManager_8hpp.html" target="_top" xlink:title="/home/travis/build\l/STORM&#45;IRIT/Radium&#45;Engine\l/src/GuiBase/Viewer/Gizmo\l/GizmoManager.hpp">
<polygon fill="white" stroke="black" points="2356,-89.5 2356,-141.5 2504,-141.5 2504,-89.5 2356,-89.5"/>
<text text-anchor="start" x="2364" y="-129.5" font-family="Helvetica,sans-Serif" font-size="10.00">/home/travis/build</text>
<text text-anchor="start" x="2364" y="-118.5" font-family="Helvetica,sans-Serif" font-size="10.00">/STORM&#45;IRIT/Radium&#45;Engine</text>
<text text-anchor="start" x="2364" y="-107.5" font-family="Helvetica,sans-Serif" font-size="10.00">/src/GuiBase/Viewer/Gizmo</text>
<text text-anchor="middle" x="2430" y="-96.5" font-family="Helvetica,sans-Serif" font-size="10.00">/GizmoManager.hpp</text>
</a>
</g>
</g>
<!-- Node17&#45;&gt;Node19 -->
<g id="edge21" class="edge"><title>Node17&#45;&gt;Node19</title>
<path fill="none" stroke="midnightblue" d="M2304.09,-174.153C2327.23,-163.56 2353.1,-151.71 2375.36,-141.521"/>
<polygon fill="midnightblue" stroke="midnightblue" points="2302.34,-171.107 2294.7,-178.453 2305.25,-177.472 2302.34,-171.107"/>
</g>
<!-- Node20 -->
<g id="node20" class="node"><title>Node20</title>
<g id="a_node20"><a xlink:href="GizmoManager_8cpp.html" target="_top" xlink:title="/home/travis/build\l/STORM&#45;IRIT/Radium&#45;Engine\l/src/GuiBase/Viewer/Gizmo\l/GizmoManager.cpp">
<polygon fill="white" stroke="black" points="2356,-0.5 2356,-52.5 2504,-52.5 2504,-0.5 2356,-0.5"/>
<text text-anchor="start" x="2364" y="-40.5" font-family="Helvetica,sans-Serif" font-size="10.00">/home/travis/build</text>
<text text-anchor="start" x="2364" y="-29.5" font-family="Helvetica,sans-Serif" font-size="10.00">/STORM&#45;IRIT/Radium&#45;Engine</text>
<text text-anchor="start" x="2364" y="-18.5" font-family="Helvetica,sans-Serif" font-size="10.00">/src/GuiBase/Viewer/Gizmo</text>
<text text-anchor="middle" x="2430" y="-7.5" font-family="Helvetica,sans-Serif" font-size="10.00">/GizmoManager.cpp</text>
</a>
</g>
</g>
<!-- Node19&#45;&gt;Node20 -->
<g id="edge22" class="edge"><title>Node19&#45;&gt;Node20</title>
<path fill="none" stroke="midnightblue" d="M2430,-79.1908C2430,-70.2824 2430,-60.8986 2430,-52.6075"/>
<polygon fill="midnightblue" stroke="midnightblue" points="2426.5,-79.336 2430,-89.336 2433.5,-79.336 2426.5,-79.336"/>
</g>
<!-- Node21 -->
<g id="node21" class="node"><title>Node21</title>
<g id="a_node21"><a xlink:href="Viewer_8cpp.html" target="_top" xlink:title="/home/travis/build\l/STORM&#45;IRIT/Radium&#45;Engine\l/src/GuiBase/Viewer/Viewer.cpp">
<polygon fill="white" stroke="black" points="2522.5,-6 2522.5,-47 2687.5,-47 2687.5,-6 2522.5,-6"/>
<text text-anchor="start" x="2530.5" y="-35" font-family="Helvetica,sans-Serif" font-size="10.00">/home/travis/build</text>
<text text-anchor="start" x="2530.5" y="-24" font-family="Helvetica,sans-Serif" font-size="10.00">/STORM&#45;IRIT/Radium&#45;Engine</text>
<text text-anchor="middle" x="2605" y="-13" font-family="Helvetica,sans-Serif" font-size="10.00">/src/GuiBase/Viewer/Viewer.cpp</text>
</a>
</g>
</g>
<!-- Node19&#45;&gt;Node21 -->
<g id="edge23" class="edge"><title>Node19&#45;&gt;Node21</title>
<path fill="none" stroke="midnightblue" d="M2489.68,-84.8289C2514.76,-72.3641 2543.23,-58.2084 2565.61,-47.0821"/>
<polygon fill="midnightblue" stroke="midnightblue" points="2488.01,-81.7502 2480.62,-89.336 2491.13,-88.0184 2488.01,-81.7502"/>
</g>
<!-- Node22&#45;&gt;Node13 -->
<g id="edge25" class="edge"><title>Node22&#45;&gt;Node13</title>
<path fill="none" stroke="midnightblue" d="M1811.37,-173.07C1828.39,-162.788 1847.18,-151.431 1863.44,-141.607"/>
<polygon fill="midnightblue" stroke="midnightblue" points="1809.4,-170.169 1802.65,-178.336 1813.02,-176.161 1809.4,-170.169"/>
</g>
<!-- Node23 -->
<g id="node23" class="node"><title>Node23</title>
<g id="a_node23"><a xlink:href="EntityTreeModel_8cpp.html" target="_top" xlink:title="/home/travis/build\l/STORM&#45;IRIT/Radium&#45;Engine\l/src/GuiBase/TreeModel/EntityTree\lModel.cpp">
<polygon fill="white" stroke="black" points="1626.5,-89.5 1626.5,-141.5 1803.5,-141.5 1803.5,-89.5 1626.5,-89.5"/>
<text text-anchor="start" x="1634.5" y="-129.5" font-family="Helvetica,sans-Serif" font-size="10.00">/home/travis/build</text>
<text text-anchor="start" x="1634.5" y="-118.5" font-family="Helvetica,sans-Serif" font-size="10.00">/STORM&#45;IRIT/Radium&#45;Engine</text>
<text text-anchor="start" x="1634.5" y="-107.5" font-family="Helvetica,sans-Serif" font-size="10.00">/src/GuiBase/TreeModel/EntityTree</text>
<text text-anchor="middle" x="1715" y="-96.5" font-family="Helvetica,sans-Serif" font-size="10.00">Model.cpp</text>
</a>
</g>
</g>
<!-- Node22&#45;&gt;Node23 -->
<g id="edge26" class="edge"><title>Node22&#45;&gt;Node23</title>
<path fill="none" stroke="midnightblue" d="M1742.94,-169.35C1738.05,-160.1 1732.85,-150.259 1728.28,-141.607"/>
<polygon fill="midnightblue" stroke="midnightblue" points="1739.93,-171.132 1747.69,-178.336 1746.11,-167.86 1739.93,-171.132"/>
</g>
<!-- Node24&#45;&gt;Node10 -->
<g id="edge28" class="edge"><title>Node24&#45;&gt;Node10</title>
<path fill="none" stroke="midnightblue" d="M1454.98,-172.968C1442.98,-164.72 1432.17,-154.509 1425,-142 1413.29,-121.564 1416.12,-110.818 1425,-89 1430.62,-75.1838 1441.01,-62.7774 1451.58,-52.7875"/>
<polygon fill="midnightblue" stroke="midnightblue" points="1453.13,-175.942 1463.45,-178.369 1456.9,-170.04 1453.13,-175.942"/>
</g>
<!-- Node25 -->
<g id="node25" class="node"><title>Node25</title>
<g id="a_node25"><a xlink:href="AnimationSystem_8cpp.html" target="_top" xlink:title="/home/travis/build\l/STORM&#45;IRIT/Radium&#45;Engine\l/Plugins/Animation/src/Animation\lSystem.cpp">
<polygon fill="white" stroke="black" points="1434,-89.5 1434,-141.5 1608,-141.5 1608,-89.5 1434,-89.5"/>
<text text-anchor="start" x="1442" y="-129.5" font-family="Helvetica,sans-Serif" font-size="10.00">/home/travis/build</text>
<text text-anchor="start" x="1442" y="-118.5" font-family="Helvetica,sans-Serif" font-size="10.00">/STORM&#45;IRIT/Radium&#45;Engine</text>
<text text-anchor="start" x="1442" y="-107.5" font-family="Helvetica,sans-Serif" font-size="10.00">/Plugins/Animation/src/Animation</text>
<text text-anchor="middle" x="1521" y="-96.5" font-family="Helvetica,sans-Serif" font-size="10.00">System.cpp</text>
</a>
</g>
</g>
<!-- Node24&#45;&gt;Node25 -->
<g id="edge29" class="edge"><title>Node24&#45;&gt;Node25</title>
<path fill="none" stroke="midnightblue" d="M1526.35,-168.191C1525.43,-159.282 1524.46,-149.899 1523.6,-141.607"/>
<polygon fill="midnightblue" stroke="midnightblue" points="1522.89,-168.749 1527.4,-178.336 1529.85,-168.029 1522.89,-168.749"/>
</g>
</g>
</svg>
