<?xml version="1.0" encoding="UTF-8" standalone="no"?>
<!DOCTYPE svg PUBLIC "-//W3C//DTD SVG 1.1//EN"
 "http://www.w3.org/Graphics/SVG/1.1/DTD/svg11.dtd">
<!-- Generated by graphviz version 2.38.0 (20140413.2041)
 -->
<!-- Title: /home/travis/build/STORM&#45;IRIT/Radium&#45;Engine/src/GuiBase/Utils/KeyMappingManager.hpp Pages: 1 -->
<svg width="1114pt" height="330pt"
 viewBox="0.00 0.00 1113.50 330.00" xmlns="http://www.w3.org/2000/svg" xmlns:xlink="http://www.w3.org/1999/xlink">
<g id="graph0" class="graph" transform="scale(1 1) rotate(0) translate(4 326)">
<title>/home/travis/build/STORM&#45;IRIT/Radium&#45;Engine/src/GuiBase/Utils/KeyMappingManager.hpp</title>
<polygon fill="white" stroke="none" points="-4,4 -4,-326 1109.5,-326 1109.5,4 -4,4"/>
<!-- Node1 -->
<g id="node1" class="node"><title>Node1</title>
<polygon fill="#bfbfbf" stroke="black" points="366,-280.5 366,-321.5 589,-321.5 589,-280.5 366,-280.5"/>
<text text-anchor="start" x="374" y="-309.5" font-family="Helvetica,sans-Serif" font-size="10.00">/home/travis/build</text>
<text text-anchor="start" x="374" y="-298.5" font-family="Helvetica,sans-Serif" font-size="10.00">/STORM&#45;IRIT/Radium&#45;Engine</text>
<text text-anchor="middle" x="477.5" y="-287.5" font-family="Helvetica,sans-Serif" font-size="10.00">/src/GuiBase/Utils/KeyMappingManager.hpp</text>
</g>
<!-- Node2 -->
<g id="node2" class="node"><title>Node2</title>
<polygon fill="white" stroke="#bfbfbf" points="0,-224.5 0,-243.5 105,-243.5 105,-224.5 0,-224.5"/>
<text text-anchor="middle" x="52.5" y="-231.5" font-family="Helvetica,sans-Serif" font-size="10.00">QXmlStreamWriter</text>
</g>
<!-- Node1&#45;&gt;Node2 -->
<g id="edge1" class="edge"><title>Node1&#45;&gt;Node2</title>
<path fill="none" stroke="midnightblue" d="M365.836,-282.922C285.88,-270.693 181.129,-254.673 115.309,-244.606"/>
<polygon fill="midnightblue" stroke="midnightblue" points="115.504,-241.095 105.09,-243.043 114.446,-248.015 115.504,-241.095"/>
</g>
<!-- Node3 -->
<g id="node3" class="node"><title>Node3</title>
<polygon fill="white" stroke="#bfbfbf" points="123.5,-224.5 123.5,-243.5 221.5,-243.5 221.5,-224.5 123.5,-224.5"/>
<text text-anchor="middle" x="172.5" y="-231.5" font-family="Helvetica,sans-Serif" font-size="10.00">QtGui/QKeyEvent</text>
</g>
<!-- Node1&#45;&gt;Node3 -->
<g id="edge2" class="edge"><title>Node1&#45;&gt;Node3</title>
<path fill="none" stroke="midnightblue" d="M385.99,-280.498C332.433,-269.084 266.86,-255.109 222.631,-245.684"/>
<polygon fill="midnightblue" stroke="midnightblue" points="223.209,-242.228 212.699,-243.567 221.75,-249.075 223.209,-242.228"/>
</g>
<!-- Node4 -->
<g id="node4" class="node"><title>Node4</title>
<polygon fill="white" stroke="#bfbfbf" points="240,-224.5 240,-243.5 353,-243.5 353,-224.5 240,-224.5"/>
<text text-anchor="middle" x="296.5" y="-231.5" font-family="Helvetica,sans-Serif" font-size="10.00">QtGui/QMouseEvent</text>
</g>
<!-- Node1&#45;&gt;Node4 -->
<g id="edge3" class="edge"><title>Node1&#45;&gt;Node4</title>
<path fill="none" stroke="midnightblue" d="M423.194,-280.498C392.908,-269.622 356.148,-256.421 330.042,-247.045"/>
<polygon fill="midnightblue" stroke="midnightblue" points="331.188,-243.738 320.594,-243.652 328.822,-250.326 331.188,-243.738"/>
</g>
<!-- Node5 -->
<g id="node5" class="node"><title>Node5</title>
<polygon fill="white" stroke="#bfbfbf" points="371.5,-224.5 371.5,-243.5 449.5,-243.5 449.5,-224.5 371.5,-224.5"/>
<text text-anchor="middle" x="410.5" y="-231.5" font-family="Helvetica,sans-Serif" font-size="10.00">QtXml/QtXml</text>
</g>
<!-- Node1&#45;&gt;Node5 -->
<g id="edge4" class="edge"><title>Node1&#45;&gt;Node5</title>
<path fill="none" stroke="midnightblue" d="M457.398,-280.498C447.619,-271.011 436.017,-259.756 426.8,-250.813"/>
<polygon fill="midnightblue" stroke="midnightblue" points="429.033,-248.104 419.419,-243.652 424.159,-253.128 429.033,-248.104"/>
</g>
<!-- Node6 -->
<g id="node6" class="node"><title>Node6</title>
<g id="a_node6"><a xlink:href="RaGuiBase_8hpp.html" target="_top" xlink:title="GuiBase/RaGuiBase.hpp">
<polygon fill="white" stroke="black" points="425.5,-112.5 425.5,-131.5 557.5,-131.5 557.5,-112.5 425.5,-112.5"/>
<text text-anchor="middle" x="491.5" y="-119.5" font-family="Helvetica,sans-Serif" font-size="10.00">GuiBase/RaGuiBase.hpp</text>
</a>
</g>
</g>
<!-- Node1&#45;&gt;Node6 -->
<g id="edge5" class="edge"><title>Node1&#45;&gt;Node6</title>
<path fill="none" stroke="midnightblue" d="M477.269,-280.244C477.19,-254.367 477.817,-207.628 482.5,-168 483.541,-159.188 485.38,-149.526 487.125,-141.421"/>
<polygon fill="midnightblue" stroke="midnightblue" points="490.563,-142.088 489.363,-131.561 483.737,-140.539 490.563,-142.088"/>
</g>
<!-- Node13 -->
<g id="node13" class="node"><title>Node13</title>
<g id="a_node13"><a xlink:href="Index_8hpp.html" target="_top" xlink:title="Core/Utils/Index.hpp">
<polygon fill="white" stroke="black" points="620,-224.5 620,-243.5 733,-243.5 733,-224.5 620,-224.5"/>
<text text-anchor="middle" x="676.5" y="-231.5" font-family="Helvetica,sans-Serif" font-size="10.00">Core/Utils/Index.hpp</text>
</a>
</g>
</g>
<!-- Node1&#45;&gt;Node13 -->
<g id="edge12" class="edge"><title>Node1&#45;&gt;Node13</title>
<path fill="none" stroke="midnightblue" d="M537.207,-280.498C570.9,-269.493 611.882,-256.106 640.641,-246.713"/>
<polygon fill="midnightblue" stroke="midnightblue" points="641.853,-249.999 650.272,-243.567 639.679,-243.345 641.853,-249.999"/>
</g>
<!-- Node17 -->
<g id="node17" class="node"><title>Node17</title>
<g id="a_node17"><a xlink:href="Log_8hpp.html" target="_top" xlink:title="Core/Utils/Log.hpp">
<polygon fill="white" stroke="black" points="863.5,-168.5 863.5,-187.5 967.5,-187.5 967.5,-168.5 863.5,-168.5"/>
<text text-anchor="middle" x="915.5" y="-175.5" font-family="Helvetica,sans-Serif" font-size="10.00">Core/Utils/Log.hpp</text>
</a>
</g>
</g>
<!-- Node1&#45;&gt;Node17 -->
<g id="edge17" class="edge"><title>Node1&#45;&gt;Node17</title>
<path fill="none" stroke="midnightblue" d="M588.34,-280.459C636.171,-271.03 692.506,-258.584 742.5,-244 794.082,-228.953 852.211,-205.776 886.247,-191.546"/>
<polygon fill="midnightblue" stroke="midnightblue" points="887.736,-194.717 895.593,-187.61 885.018,-188.266 887.736,-194.717"/>
</g>
<!-- Node21 -->
<g id="node21" class="node"><title>Node21</title>
<g id="a_node21"><a xlink:href="Observable_8hpp.html" target="_top" xlink:title="Core/Utils/Observable.hpp">
<polygon fill="white" stroke="black" points="907,-224.5 907,-243.5 1048,-243.5 1048,-224.5 907,-224.5"/>
<text text-anchor="middle" x="977.5" y="-231.5" font-family="Helvetica,sans-Serif" font-size="10.00">Core/Utils/Observable.hpp</text>
</a>
</g>
</g>
<!-- Node1&#45;&gt;Node21 -->
<g id="edge23" class="edge"><title>Node1&#45;&gt;Node21</title>
<path fill="none" stroke="midnightblue" d="M589.087,-285.494C684.27,-273.12 818.54,-255.665 901.693,-244.855"/>
<polygon fill="midnightblue" stroke="midnightblue" points="902.359,-248.298 911.824,-243.538 901.456,-241.356 902.359,-248.298"/>
</g>
<!-- Node24 -->
<g id="node24" class="node"><title>Node24</title>
<g id="a_node24"><a xlink:href="Singleton_8hpp.html" target="_top" xlink:title="Core/Utils/Singleton.hpp">
<polygon fill="white" stroke="black" points="491.5,-168.5 491.5,-187.5 623.5,-187.5 623.5,-168.5 491.5,-168.5"/>
<text text-anchor="middle" x="557.5" y="-175.5" font-family="Helvetica,sans-Serif" font-size="10.00">Core/Utils/Singleton.hpp</text>
</a>
</g>
</g>
<!-- Node1&#45;&gt;Node24 -->
<g id="edge27" class="edge"><title>Node1&#45;&gt;Node24</title>
<path fill="none" stroke="midnightblue" d="M490.531,-280.29C506.028,-256.852 531.632,-218.125 546.284,-195.965"/>
<polygon fill="midnightblue" stroke="midnightblue" points="549.235,-197.847 551.831,-187.575 543.396,-193.986 549.235,-197.847"/>
</g>
<!-- Node7 -->
<g id="node7" class="node"><title>Node7</title>
<g id="a_node7"><a xlink:href="CoreMacros_8hpp.html" target="_top" xlink:title="Core/CoreMacros.hpp">
<polygon fill="white" stroke="black" points="591.5,-56.5 591.5,-75.5 711.5,-75.5 711.5,-56.5 591.5,-56.5"/>
<text text-anchor="middle" x="651.5" y="-63.5" font-family="Helvetica,sans-Serif" font-size="10.00">Core/CoreMacros.hpp</text>
</a>
</g>
</g>
<!-- Node6&#45;&gt;Node7 -->
<g id="edge6" class="edge"><title>Node6&#45;&gt;Node7</title>
<path fill="none" stroke="midnightblue" d="M516.852,-112.444C543.769,-103.359 586.496,-88.9388 616.587,-78.7831"/>
<polygon fill="midnightblue" stroke="midnightblue" points="617.91,-82.0305 626.266,-75.5164 615.672,-75.3981 617.91,-82.0305"/>
</g>
<!-- Node8 -->
<g id="node8" class="node"><title>Node8</title>
<polygon fill="white" stroke="#bfbfbf" points="729.5,-0.5 729.5,-19.5 781.5,-19.5 781.5,-0.5 729.5,-0.5"/>
<text text-anchor="middle" x="755.5" y="-7.5" font-family="Helvetica,sans-Serif" font-size="10.00">cassert</text>
</g>
<!-- Node7&#45;&gt;Node8 -->
<g id="edge7" class="edge"><title>Node7&#45;&gt;Node8</title>
<path fill="none" stroke="midnightblue" d="M668.209,-56.324C684.812,-47.7034 710.502,-34.3643 729.72,-24.3855"/>
<polygon fill="midnightblue" stroke="midnightblue" points="731.57,-27.3689 738.832,-19.6545 728.344,-21.1565 731.57,-27.3689"/>
</g>
<!-- Node9 -->
<g id="node9" class="node"><title>Node9</title>
<polygon fill="white" stroke="#bfbfbf" points="523,-0.5 523,-19.5 568,-19.5 568,-0.5 523,-0.5"/>
<text text-anchor="middle" x="545.5" y="-7.5" font-family="Helvetica,sans-Serif" font-size="10.00">cstdio</text>
</g>
<!-- Node7&#45;&gt;Node9 -->
<g id="edge8" class="edge"><title>Node7&#45;&gt;Node9</title>
<path fill="none" stroke="midnightblue" d="M634.469,-56.324C617.47,-47.6641 591.124,-34.2424 571.507,-24.249"/>
<polygon fill="midnightblue" stroke="midnightblue" points="572.988,-21.0752 562.488,-19.6545 569.81,-27.3125 572.988,-21.0752"/>
</g>
<!-- Node10 -->
<g id="node10" class="node"><title>Node10</title>
<polygon fill="white" stroke="#bfbfbf" points="586,-0.5 586,-19.5 645,-19.5 645,-0.5 586,-0.5"/>
<text text-anchor="middle" x="615.5" y="-7.5" font-family="Helvetica,sans-Serif" font-size="10.00">iostream</text>
</g>
<!-- Node7&#45;&gt;Node10 -->
<g id="edge9" class="edge"><title>Node7&#45;&gt;Node10</title>
<path fill="none" stroke="midnightblue" d="M645.555,-56.083C640.523,-48.5341 633.163,-37.4948 626.987,-28.2298"/>
<polygon fill="midnightblue" stroke="midnightblue" points="629.793,-26.1301 621.334,-19.7511 623.969,-30.0131 629.793,-26.1301"/>
</g>
<!-- Node11 -->
<g id="node11" class="node"><title>Node11</title>
<polygon fill="white" stroke="#bfbfbf" points="825.5,-0.5 825.5,-19.5 881.5,-19.5 881.5,-0.5 825.5,-0.5"/>
<text text-anchor="middle" x="853.5" y="-7.5" font-family="Helvetica,sans-Serif" font-size="10.00">sstream</text>
</g>
<!-- Node7&#45;&gt;Node11 -->
<g id="edge10" class="edge"><title>Node7&#45;&gt;Node11</title>
<path fill="none" stroke="midnightblue" d="M683.508,-56.4435C719.352,-46.8613 777.404,-31.3424 815.518,-21.1537"/>
<polygon fill="midnightblue" stroke="midnightblue" points="816.471,-24.5219 825.228,-18.558 814.663,-17.7594 816.471,-24.5219"/>
</g>
<!-- Node12 -->
<g id="node12" class="node"><title>Node12</title>
<polygon fill="white" stroke="#bfbfbf" points="663.5,-0.5 663.5,-19.5 711.5,-19.5 711.5,-0.5 663.5,-0.5"/>
<text text-anchor="middle" x="687.5" y="-7.5" font-family="Helvetica,sans-Serif" font-size="10.00">thread</text>
</g>
<!-- Node7&#45;&gt;Node12 -->
<g id="edge11" class="edge"><title>Node7&#45;&gt;Node12</title>
<path fill="none" stroke="midnightblue" d="M657.445,-56.083C662.477,-48.5341 669.837,-37.4948 676.013,-28.2298"/>
<polygon fill="midnightblue" stroke="midnightblue" points="679.031,-30.0131 681.666,-19.7511 673.207,-26.1301 679.031,-30.0131"/>
</g>
<!-- Node14 -->
<g id="node14" class="node"><title>Node14</title>
<g id="a_node14"><a xlink:href="RaCore_8hpp.html" target="_top" xlink:title="Core/RaCore.hpp">
<polygon fill="white" stroke="black" points="602.5,-112.5 602.5,-131.5 700.5,-131.5 700.5,-112.5 602.5,-112.5"/>
<text text-anchor="middle" x="651.5" y="-119.5" font-family="Helvetica,sans-Serif" font-size="10.00">Core/RaCore.hpp</text>
</a>
</g>
</g>
<!-- Node13&#45;&gt;Node14 -->
<g id="edge13" class="edge"><title>Node13&#45;&gt;Node14</title>
<path fill="none" stroke="midnightblue" d="M674.538,-224.368C670.504,-206.617 661.197,-165.666 655.727,-141.597"/>
<polygon fill="midnightblue" stroke="midnightblue" points="659.082,-140.567 653.453,-131.591 652.256,-142.118 659.082,-140.567"/>
</g>
<!-- Node15 -->
<g id="node15" class="node"><title>Node15</title>
<polygon fill="white" stroke="#bfbfbf" points="679.5,-168.5 679.5,-187.5 721.5,-187.5 721.5,-168.5 679.5,-168.5"/>
<text text-anchor="middle" x="700.5" y="-175.5" font-family="Helvetica,sans-Serif" font-size="10.00">limits</text>
</g>
<!-- Node13&#45;&gt;Node15 -->
<g id="edge15" class="edge"><title>Node13&#45;&gt;Node15</title>
<path fill="none" stroke="midnightblue" d="M680.463,-224.083C683.713,-216.77 688.419,-206.181 692.454,-197.103"/>
<polygon fill="midnightblue" stroke="midnightblue" points="695.748,-198.311 696.611,-187.751 689.351,-195.468 695.748,-198.311"/>
</g>
<!-- Node16 -->
<g id="node16" class="node"><title>Node16</title>
<g id="a_node16"><a xlink:href="Index_8inl.html" target="_top" xlink:title="Core/Utils/Index.inl">
<polygon fill="white" stroke="black" points="740,-168.5 740,-187.5 845,-187.5 845,-168.5 740,-168.5"/>
<text text-anchor="middle" x="792.5" y="-175.5" font-family="Helvetica,sans-Serif" font-size="10.00">Core/Utils/Index.inl</text>
</a>
</g>
</g>
<!-- Node13&#45;&gt;Node16 -->
<g id="edge16" class="edge"><title>Node13&#45;&gt;Node16</title>
<path fill="none" stroke="midnightblue" d="M694.881,-224.444C713.716,-215.675 743.231,-201.935 764.879,-191.858"/>
<polygon fill="midnightblue" stroke="midnightblue" points="766.617,-194.91 774.205,-187.516 763.662,-188.564 766.617,-194.91"/>
</g>
<!-- Node14&#45;&gt;Node7 -->
<g id="edge14" class="edge"><title>Node14&#45;&gt;Node7</title>
<path fill="none" stroke="midnightblue" d="M651.5,-112.083C651.5,-105.006 651.5,-94.8611 651.5,-85.9865"/>
<polygon fill="midnightblue" stroke="midnightblue" points="655,-85.751 651.5,-75.7511 648,-85.7511 655,-85.751"/>
</g>
<!-- Node17&#45;&gt;Node11 -->
<g id="edge20" class="edge"><title>Node17&#45;&gt;Node11</title>
<path fill="none" stroke="midnightblue" d="M913.355,-168.484C910.124,-155.966 903.626,-131.927 896.5,-112 885.844,-82.2019 870.92,-48.5653 861.748,-28.6075"/>
<polygon fill="midnightblue" stroke="midnightblue" points="864.912,-27.1099 857.529,-19.5105 858.561,-30.0549 864.912,-27.1099"/>
</g>
<!-- Node17&#45;&gt;Node14 -->
<g id="edge18" class="edge"><title>Node17&#45;&gt;Node14</title>
<path fill="none" stroke="midnightblue" d="M873.668,-168.444C827.421,-158.984 752.888,-143.738 703.064,-133.547"/>
<polygon fill="midnightblue" stroke="midnightblue" points="703.634,-130.091 693.136,-131.516 702.232,-136.949 703.634,-130.091"/>
</g>
<!-- Node18 -->
<g id="node18" class="node"><title>Node18</title>
<polygon fill="white" stroke="#bfbfbf" points="943.5,-112.5 943.5,-131.5 987.5,-131.5 987.5,-112.5 943.5,-112.5"/>
<text text-anchor="middle" x="965.5" y="-119.5" font-family="Helvetica,sans-Serif" font-size="10.00">ctime</text>
</g>
<!-- Node17&#45;&gt;Node18 -->
<g id="edge19" class="edge"><title>Node17&#45;&gt;Node18</title>
<path fill="none" stroke="midnightblue" d="M923.756,-168.083C930.965,-160.298 941.61,-148.801 950.346,-139.367"/>
<polygon fill="midnightblue" stroke="midnightblue" points="953.171,-141.467 957.397,-131.751 948.035,-136.711 953.171,-141.467"/>
</g>
<!-- Node19 -->
<g id="node19" class="node"><title>Node19</title>
<polygon fill="white" stroke="#bfbfbf" points="776,-112.5 776,-131.5 825,-131.5 825,-112.5 776,-112.5"/>
<text text-anchor="middle" x="800.5" y="-119.5" font-family="Helvetica,sans-Serif" font-size="10.00">stdio.h</text>
</g>
<!-- Node17&#45;&gt;Node19 -->
<g id="edge21" class="edge"><title>Node17&#45;&gt;Node19</title>
<path fill="none" stroke="midnightblue" d="M897.278,-168.444C878.604,-159.675 849.344,-145.935 827.883,-135.858"/>
<polygon fill="midnightblue" stroke="midnightblue" points="829.176,-132.599 818.637,-131.516 826.201,-138.935 829.176,-132.599"/>
</g>
<!-- Node20 -->
<g id="node20" class="node"><title>Node20</title>
<polygon fill="white" stroke="#bfbfbf" points="843.5,-112.5 843.5,-131.5 887.5,-131.5 887.5,-112.5 843.5,-112.5"/>
<text text-anchor="middle" x="865.5" y="-119.5" font-family="Helvetica,sans-Serif" font-size="10.00">string</text>
</g>
<!-- Node17&#45;&gt;Node20 -->
<g id="edge22" class="edge"><title>Node17&#45;&gt;Node20</title>
<path fill="none" stroke="midnightblue" d="M907.244,-168.083C900.035,-160.298 889.39,-148.801 880.654,-139.367"/>
<polygon fill="midnightblue" stroke="midnightblue" points="882.965,-136.711 873.603,-131.751 877.829,-141.467 882.965,-136.711"/>
</g>
<!-- Node21&#45;&gt;Node17 -->
<g id="edge24" class="edge"><title>Node21&#45;&gt;Node17</title>
<path fill="none" stroke="midnightblue" d="M967.539,-224.324C958.373,-216.341 944.563,-204.313 933.472,-194.653"/>
<polygon fill="midnightblue" stroke="midnightblue" points="935.482,-191.762 925.643,-187.834 930.885,-197.041 935.482,-191.762"/>
</g>
<!-- Node22 -->
<g id="node22" class="node"><title>Node22</title>
<polygon fill="white" stroke="#bfbfbf" points="986,-168.5 986,-187.5 1049,-187.5 1049,-168.5 986,-168.5"/>
<text text-anchor="middle" x="1017.5" y="-175.5" font-family="Helvetica,sans-Serif" font-size="10.00">functional</text>
</g>
<!-- Node21&#45;&gt;Node22 -->
<g id="edge25" class="edge"><title>Node21&#45;&gt;Node22</title>
<path fill="none" stroke="midnightblue" d="M984.105,-224.083C989.755,-216.455 998.045,-205.264 1004.95,-195.941"/>
<polygon fill="midnightblue" stroke="midnightblue" points="1007.88,-197.87 1011.02,-187.751 1002.25,-193.703 1007.88,-197.87"/>
</g>
<!-- Node23 -->
<g id="node23" class="node"><title>Node23</title>
<polygon fill="white" stroke="#bfbfbf" points="1067.5,-168.5 1067.5,-187.5 1105.5,-187.5 1105.5,-168.5 1067.5,-168.5"/>
<text text-anchor="middle" x="1086.5" y="-175.5" font-family="Helvetica,sans-Serif" font-size="10.00">map</text>
</g>
<!-- Node21&#45;&gt;Node23 -->
<g id="edge26" class="edge"><title>Node21&#45;&gt;Node23</title>
<path fill="none" stroke="midnightblue" d="M995.013,-224.324C1012.57,-215.625 1039.83,-202.12 1060.03,-192.113"/>
<polygon fill="midnightblue" stroke="midnightblue" points="1061.62,-195.23 1069.03,-187.655 1058.52,-188.958 1061.62,-195.23"/>
</g>
<!-- Node24&#45;&gt;Node14 -->
<g id="edge28" class="edge"><title>Node24&#45;&gt;Node14</title>
<path fill="none" stroke="midnightblue" d="M572.603,-168.324C587.403,-159.822 610.194,-146.729 627.482,-136.797"/>
<polygon fill="midnightblue" stroke="midnightblue" points="629.507,-139.671 636.435,-131.655 626.02,-133.601 629.507,-139.671"/>
</g>
</g>
</svg>
