<?xml version="1.0" encoding="UTF-8" standalone="no"?>
<!DOCTYPE svg PUBLIC "-//W3C//DTD SVG 1.1//EN"
 "http://www.w3.org/Graphics/SVG/1.1/DTD/svg11.dtd">
<!-- Generated by graphviz version 2.38.0 (20140413.2041)
 -->
<!-- Title: /home/travis/build/STORM&#45;IRIT/Radium&#45;Engine/src/Engine/Managers/LightManager/LightManager.hpp Pages: 1 -->
<svg width="927pt" height="486pt"
 viewBox="0.00 0.00 926.50 486.00" xmlns="http://www.w3.org/2000/svg" xmlns:xlink="http://www.w3.org/1999/xlink">
<g id="graph0" class="graph" transform="scale(1 1) rotate(0) translate(4 482)">
<title>/home/travis/build/STORM&#45;IRIT/Radium&#45;Engine/src/Engine/Managers/LightManager/LightManager.hpp</title>
<polygon fill="white" stroke="none" points="-4,4 -4,-482 922.5,-482 922.5,4 -4,4"/>
<!-- Node1 -->
<g id="node1" class="node"><title>Node1</title>
<polygon fill="#bfbfbf" stroke="black" points="376,-425.5 376,-477.5 564,-477.5 564,-425.5 376,-425.5"/>
<text text-anchor="start" x="384" y="-465.5" font-family="Helvetica,sans-Serif" font-size="10.00">/home/travis/build</text>
<text text-anchor="start" x="384" y="-454.5" font-family="Helvetica,sans-Serif" font-size="10.00">/STORM&#45;IRIT/Radium&#45;Engine</text>
<text text-anchor="start" x="384" y="-443.5" font-family="Helvetica,sans-Serif" font-size="10.00">/src/Engine/Managers/LightManager</text>
<text text-anchor="middle" x="470" y="-432.5" font-family="Helvetica,sans-Serif" font-size="10.00">/LightManager.hpp</text>
</g>
<!-- Node2 -->
<g id="node2" class="node"><title>Node2</title>
<g id="a_node2"><a xlink:href="LightStorage_8hpp.html" target="_top" xlink:title="Engine/Managers/LightManager\l/LightStorage.hpp">
<polygon fill="white" stroke="black" points="258.5,-358.5 258.5,-388.5 425.5,-388.5 425.5,-358.5 258.5,-358.5"/>
<text text-anchor="start" x="266.5" y="-376.5" font-family="Helvetica,sans-Serif" font-size="10.00">Engine/Managers/LightManager</text>
<text text-anchor="middle" x="342" y="-365.5" font-family="Helvetica,sans-Serif" font-size="10.00">/LightStorage.hpp</text>
</a>
</g>
</g>
<!-- Node1&#45;&gt;Node2 -->
<g id="edge1" class="edge"><title>Node1&#45;&gt;Node2</title>
<path fill="none" stroke="midnightblue" d="M427.733,-425.404C410.567,-415.212 391.034,-403.614 374.953,-394.066"/>
<polygon fill="midnightblue" stroke="midnightblue" points="376.312,-390.802 365.927,-388.707 372.738,-396.821 376.312,-390.802"/>
</g>
<!-- Node3 -->
<g id="node3" class="node"><title>Node3</title>
<g id="a_node3"><a xlink:href="RaEngine_8hpp.html" target="_top" xlink:title="../../RaEngine.hpp">
<polygon fill="white" stroke="black" points="110,-168.5 110,-187.5 210,-187.5 210,-168.5 110,-168.5"/>
<text text-anchor="middle" x="160" y="-175.5" font-family="Helvetica,sans-Serif" font-size="10.00">../../RaEngine.hpp</text>
</a>
</g>
</g>
<!-- Node1&#45;&gt;Node3 -->
<g id="edge34" class="edge"><title>Node1&#45;&gt;Node3</title>
<path fill="none" stroke="midnightblue" d="M375.92,-435.621C334.963,-426.363 287.608,-411.734 249,-389 187.813,-352.971 173.665,-325.042 162,-255 158.786,-235.702 158.623,-213.274 159.056,-197.809"/>
<polygon fill="midnightblue" stroke="midnightblue" points="162.565,-197.638 159.462,-187.508 155.571,-197.362 162.565,-197.638"/>
</g>
<!-- Node25 -->
<g id="node25" class="node"><title>Node25</title>
<g id="a_node25"><a xlink:href="System_8hpp.html" target="_top" xlink:title="Engine/System/System.hpp">
<polygon fill="white" stroke="black" points="463.5,-364 463.5,-383 612.5,-383 612.5,-364 463.5,-364"/>
<text text-anchor="middle" x="538" y="-371" font-family="Helvetica,sans-Serif" font-size="10.00">Engine/System/System.hpp</text>
</a>
</g>
</g>
<!-- Node1&#45;&gt;Node25 -->
<g id="edge35" class="edge"><title>Node1&#45;&gt;Node25</title>
<path fill="none" stroke="midnightblue" d="M492.643,-425.193C502.785,-413.858 514.45,-400.821 523.41,-390.806"/>
<polygon fill="midnightblue" stroke="midnightblue" points="526.148,-392.995 530.208,-383.209 520.931,-388.328 526.148,-392.995"/>
</g>
<!-- Node26 -->
<g id="node26" class="node"><title>Node26</title>
<polygon fill="white" stroke="#bfbfbf" points="710.5,-297 710.5,-316 767.5,-316 767.5,-297 710.5,-297"/>
<text text-anchor="middle" x="739" y="-304" font-family="Helvetica,sans-Serif" font-size="10.00">memory</text>
</g>
<!-- Node1&#45;&gt;Node26 -->
<g id="edge39" class="edge"><title>Node1&#45;&gt;Node26</title>
<path fill="none" stroke="midnightblue" d="M540.614,-425.416C566.471,-415.283 595.602,-402.731 621,-389 657.93,-369.035 697.404,-340.013 720.049,-322.526"/>
<polygon fill="midnightblue" stroke="midnightblue" points="722.4,-325.131 728.132,-316.221 718.094,-319.612 722.4,-325.131"/>
</g>
<!-- Node2&#45;&gt;Node3 -->
<g id="edge2" class="edge"><title>Node2&#45;&gt;Node3</title>
<path fill="none" stroke="midnightblue" d="M270.853,-358.464C248.27,-350.934 224.824,-339.45 208,-322 174.316,-287.061 164.246,-227.767 161.253,-197.691"/>
<polygon fill="midnightblue" stroke="midnightblue" points="164.74,-197.379 160.418,-187.706 157.764,-197.963 164.74,-197.379"/>
</g>
<!-- Node10 -->
<g id="node10" class="node"><title>Node10</title>
<g id="a_node10"><a xlink:href="Light_8hpp.html" target="_top" xlink:title="../../Renderer/Light\l/Light.hpp">
<polygon fill="white" stroke="black" points="290,-291.5 290,-321.5 394,-321.5 394,-291.5 290,-291.5"/>
<text text-anchor="start" x="298" y="-309.5" font-family="Helvetica,sans-Serif" font-size="10.00">../../Renderer/Light</text>
<text text-anchor="middle" x="342" y="-298.5" font-family="Helvetica,sans-Serif" font-size="10.00">/Light.hpp</text>
</a>
</g>
</g>
<!-- Node2&#45;&gt;Node10 -->
<g id="edge9" class="edge"><title>Node2&#45;&gt;Node10</title>
<path fill="none" stroke="midnightblue" d="M342,-358.396C342,-350.645 342,-340.812 342,-331.86"/>
<polygon fill="midnightblue" stroke="midnightblue" points="345.5,-331.576 342,-321.577 338.5,-331.577 345.5,-331.576"/>
</g>
<!-- Node4 -->
<g id="node4" class="node"><title>Node4</title>
<g id="a_node4"><a xlink:href="CoreMacros_8hpp.html" target="_top" xlink:title="Core/CoreMacros.hpp">
<polygon fill="white" stroke="black" points="103,-56.5 103,-75.5 223,-75.5 223,-56.5 103,-56.5"/>
<text text-anchor="middle" x="163" y="-63.5" font-family="Helvetica,sans-Serif" font-size="10.00">Core/CoreMacros.hpp</text>
</a>
</g>
</g>
<!-- Node3&#45;&gt;Node4 -->
<g id="edge3" class="edge"><title>Node3&#45;&gt;Node4</title>
<path fill="none" stroke="midnightblue" d="M156.706,-168.184C152.453,-155.698 145.939,-132.141 149,-112 150.368,-103.001 153.19,-93.3251 155.945,-85.2601"/>
<polygon fill="midnightblue" stroke="midnightblue" points="159.265,-86.3722 159.4,-75.7782 152.688,-83.9759 159.265,-86.3722"/>
</g>
<!-- Node5 -->
<g id="node5" class="node"><title>Node5</title>
<polygon fill="white" stroke="#bfbfbf" points="0,-0.5 0,-19.5 52,-19.5 52,-0.5 0,-0.5"/>
<text text-anchor="middle" x="26" y="-7.5" font-family="Helvetica,sans-Serif" font-size="10.00">cassert</text>
</g>
<!-- Node4&#45;&gt;Node5 -->
<g id="edge4" class="edge"><title>Node4&#45;&gt;Node5</title>
<path fill="none" stroke="midnightblue" d="M141.292,-56.4435C118.645,-47.5171 82.9279,-33.4387 57.2482,-23.3168"/>
<polygon fill="midnightblue" stroke="midnightblue" points="58.1934,-19.9273 47.6065,-19.5164 55.6264,-26.4397 58.1934,-19.9273"/>
</g>
<!-- Node6 -->
<g id="node6" class="node"><title>Node6</title>
<polygon fill="white" stroke="#bfbfbf" points="70.5,-0.5 70.5,-19.5 115.5,-19.5 115.5,-0.5 70.5,-0.5"/>
<text text-anchor="middle" x="93" y="-7.5" font-family="Helvetica,sans-Serif" font-size="10.00">cstdio</text>
</g>
<!-- Node4&#45;&gt;Node6 -->
<g id="edge5" class="edge"><title>Node4&#45;&gt;Node6</title>
<path fill="none" stroke="midnightblue" d="M151.753,-56.324C141.203,-48.1849 125.199,-35.8395 112.558,-26.0874"/>
<polygon fill="midnightblue" stroke="midnightblue" points="114.507,-23.1707 104.451,-19.8339 110.231,-28.7132 114.507,-23.1707"/>
</g>
<!-- Node7 -->
<g id="node7" class="node"><title>Node7</title>
<polygon fill="white" stroke="#bfbfbf" points="133.5,-0.5 133.5,-19.5 192.5,-19.5 192.5,-0.5 133.5,-0.5"/>
<text text-anchor="middle" x="163" y="-7.5" font-family="Helvetica,sans-Serif" font-size="10.00">iostream</text>
</g>
<!-- Node4&#45;&gt;Node7 -->
<g id="edge6" class="edge"><title>Node4&#45;&gt;Node7</title>
<path fill="none" stroke="midnightblue" d="M163,-56.083C163,-49.0059 163,-38.8611 163,-29.9865"/>
<polygon fill="midnightblue" stroke="midnightblue" points="166.5,-29.751 163,-19.7511 159.5,-29.7511 166.5,-29.751"/>
</g>
<!-- Node8 -->
<g id="node8" class="node"><title>Node8</title>
<polygon fill="white" stroke="#bfbfbf" points="211,-0.5 211,-19.5 267,-19.5 267,-0.5 211,-0.5"/>
<text text-anchor="middle" x="239" y="-7.5" font-family="Helvetica,sans-Serif" font-size="10.00">sstream</text>
</g>
<!-- Node4&#45;&gt;Node8 -->
<g id="edge7" class="edge"><title>Node4&#45;&gt;Node8</title>
<path fill="none" stroke="midnightblue" d="M175.211,-56.324C186.776,-48.1066 204.375,-35.6017 218.161,-25.8069"/>
<polygon fill="midnightblue" stroke="midnightblue" points="220.443,-28.4791 226.567,-19.8339 216.388,-22.7729 220.443,-28.4791"/>
</g>
<!-- Node9 -->
<g id="node9" class="node"><title>Node9</title>
<polygon fill="white" stroke="#bfbfbf" points="285,-0.5 285,-19.5 333,-19.5 333,-0.5 285,-0.5"/>
<text text-anchor="middle" x="309" y="-7.5" font-family="Helvetica,sans-Serif" font-size="10.00">thread</text>
</g>
<!-- Node4&#45;&gt;Node9 -->
<g id="edge8" class="edge"><title>Node4&#45;&gt;Node9</title>
<path fill="none" stroke="midnightblue" d="M186.134,-56.4435C210.482,-47.4381 249.007,-33.1891 276.423,-23.049"/>
<polygon fill="midnightblue" stroke="midnightblue" points="277.809,-26.2681 285.974,-19.5164 275.381,-19.7028 277.809,-26.2681"/>
</g>
<!-- Node10&#45;&gt;Node3 -->
<g id="edge32" class="edge"><title>Node10&#45;&gt;Node3</title>
<path fill="none" stroke="midnightblue" d="M324.851,-291.279C304.277,-274.465 268.488,-245.99 236,-224 219.28,-212.683 199.654,-201.103 184.534,-192.524"/>
<polygon fill="midnightblue" stroke="midnightblue" points="186.202,-189.446 175.769,-187.6 182.773,-195.549 186.202,-189.446"/>
</g>
<!-- Node11 -->
<g id="node11" class="node"><title>Node11</title>
<g id="a_node11"><a xlink:href="Color_8hpp.html" target="_top" xlink:title="Core/Utils/Color.hpp">
<polygon fill="white" stroke="black" points="228.5,-168.5 228.5,-187.5 339.5,-187.5 339.5,-168.5 228.5,-168.5"/>
<text text-anchor="middle" x="284" y="-175.5" font-family="Helvetica,sans-Serif" font-size="10.00">Core/Utils/Color.hpp</text>
</a>
</g>
</g>
<!-- Node10&#45;&gt;Node11 -->
<g id="edge10" class="edge"><title>Node10&#45;&gt;Node11</title>
<path fill="none" stroke="midnightblue" d="M334.805,-291.442C329.704,-281.361 322.767,-267.422 317,-255 307.944,-235.495 298.211,-212.852 291.68,-197.389"/>
<polygon fill="midnightblue" stroke="midnightblue" points="294.818,-195.821 287.718,-187.957 288.364,-198.532 294.818,-195.821"/>
</g>
<!-- Node15 -->
<g id="node15" class="node"><title>Node15</title>
<g id="a_node15"><a xlink:href="Component_8hpp.html" target="_top" xlink:title="Engine/Component/Component.hpp">
<polygon fill="white" stroke="black" points="326,-230 326,-249 514,-249 514,-230 326,-230"/>
<text text-anchor="middle" x="420" y="-237" font-family="Helvetica,sans-Serif" font-size="10.00">Engine/Component/Component.hpp</text>
</a>
</g>
</g>
<!-- Node10&#45;&gt;Node15 -->
<g id="edge15" class="edge"><title>Node10&#45;&gt;Node15</title>
<path fill="none" stroke="midnightblue" d="M358.925,-291.396C371.568,-280.86 388.827,-266.477 401.774,-255.689"/>
<polygon fill="midnightblue" stroke="midnightblue" points="404.125,-258.285 409.567,-249.195 399.644,-252.908 404.125,-258.285"/>
</g>
<!-- Node24 -->
<g id="node24" class="node"><title>Node24</title>
<g id="a_node24"><a xlink:href="Light_8inl.html" target="_top" xlink:title="Engine/Renderer/Light\l/Light.inl">
<polygon fill="white" stroke="black" points="532.5,-224.5 532.5,-254.5 653.5,-254.5 653.5,-224.5 532.5,-224.5"/>
<text text-anchor="start" x="540.5" y="-242.5" font-family="Helvetica,sans-Serif" font-size="10.00">Engine/Renderer/Light</text>
<text text-anchor="middle" x="593" y="-231.5" font-family="Helvetica,sans-Serif" font-size="10.00">/Light.inl</text>
</a>
</g>
</g>
<!-- Node10&#45;&gt;Node24 -->
<g id="edge33" class="edge"><title>Node10&#45;&gt;Node24</title>
<path fill="none" stroke="midnightblue" d="M394.007,-292.032C433.223,-281.876 487.221,-267.893 529.074,-257.055"/>
<polygon fill="midnightblue" stroke="midnightblue" points="530.088,-260.407 538.892,-254.512 528.333,-253.631 530.088,-260.407"/>
</g>
<!-- Node11&#45;&gt;Node4 -->
<g id="edge11" class="edge"><title>Node11&#45;&gt;Node4</title>
<path fill="none" stroke="midnightblue" d="M245.25,-168.471C223.833,-161.878 198.333,-150.628 182,-132 170.747,-119.165 166.146,-99.9816 164.272,-85.7788"/>
<polygon fill="midnightblue" stroke="midnightblue" points="167.741,-85.2823 163.279,-75.6727 160.774,-85.9671 167.741,-85.2823"/>
</g>
<!-- Node12 -->
<g id="node12" class="node"><title>Node12</title>
<polygon fill="white" stroke="#bfbfbf" points="263,-112.5 263,-131.5 331,-131.5 331,-112.5 263,-112.5"/>
<text text-anchor="middle" x="297" y="-119.5" font-family="Helvetica,sans-Serif" font-size="10.00">Eigen/Core</text>
</g>
<!-- Node11&#45;&gt;Node12 -->
<g id="edge12" class="edge"><title>Node11&#45;&gt;Node12</title>
<path fill="none" stroke="midnightblue" d="M286.147,-168.083C287.869,-160.927 290.347,-150.635 292.5,-141.691"/>
<polygon fill="midnightblue" stroke="midnightblue" points="295.955,-142.293 294.893,-131.751 289.15,-140.654 295.955,-142.293"/>
</g>
<!-- Node13 -->
<g id="node13" class="node"><title>Node13</title>
<polygon fill="white" stroke="#bfbfbf" points="349,-112.5 349,-131.5 443,-131.5 443,-112.5 349,-112.5"/>
<text text-anchor="middle" x="396" y="-119.5" font-family="Helvetica,sans-Serif" font-size="10.00">Eigen/Geometry</text>
</g>
<!-- Node11&#45;&gt;Node13 -->
<g id="edge13" class="edge"><title>Node11&#45;&gt;Node13</title>
<path fill="none" stroke="midnightblue" d="M301.995,-168.324C320.038,-159.625 348.047,-146.12 368.803,-136.113"/>
<polygon fill="midnightblue" stroke="midnightblue" points="370.562,-139.15 378.05,-131.655 367.522,-132.845 370.562,-139.15"/>
</g>
<!-- Node14 -->
<g id="node14" class="node"><title>Node14</title>
<polygon fill="white" stroke="#bfbfbf" points="191,-112.5 191,-131.5 245,-131.5 245,-112.5 191,-112.5"/>
<text text-anchor="middle" x="218" y="-119.5" font-family="Helvetica,sans-Serif" font-size="10.00">random</text>
</g>
<!-- Node11&#45;&gt;Node14 -->
<g id="edge14" class="edge"><title>Node11&#45;&gt;Node14</title>
<path fill="none" stroke="midnightblue" d="M273.396,-168.324C263.544,-160.263 248.649,-148.077 236.785,-138.369"/>
<polygon fill="midnightblue" stroke="midnightblue" points="238.753,-135.457 228.797,-131.834 234.32,-140.875 238.753,-135.457"/>
</g>
<!-- Node15&#45;&gt;Node3 -->
<g id="edge23" class="edge"><title>Node15&#45;&gt;Node3</title>
<path fill="none" stroke="midnightblue" d="M382.748,-229.975C336.508,-219.393 257.601,-201.336 207.178,-189.797"/>
<polygon fill="midnightblue" stroke="midnightblue" points="207.711,-186.328 197.183,-187.509 206.15,-193.152 207.711,-186.328"/>
</g>
<!-- Node15&#45;&gt;Node12 -->
<g id="edge21" class="edge"><title>Node15&#45;&gt;Node12</title>
<path fill="none" stroke="midnightblue" d="M411.275,-229.667C397.873,-216.166 371.32,-189.678 348,-168 337.189,-157.951 324.777,-146.986 314.904,-138.396"/>
<polygon fill="midnightblue" stroke="midnightblue" points="317.15,-135.711 307.299,-131.812 312.568,-141.003 317.15,-135.711"/>
</g>
<!-- Node15&#45;&gt;Node13 -->
<g id="edge22" class="edge"><title>Node15&#45;&gt;Node13</title>
<path fill="none" stroke="midnightblue" d="M418.196,-229.819C414.322,-211.173 405.131,-166.943 399.872,-141.632"/>
<polygon fill="midnightblue" stroke="midnightblue" points="403.286,-140.861 397.825,-131.782 396.433,-142.285 403.286,-140.861"/>
</g>
<!-- Node16 -->
<g id="node16" class="node"><title>Node16</title>
<g id="a_node16"><a xlink:href="Index_8hpp.html" target="_top" xlink:title="Core/Utils/Index.hpp">
<polygon fill="white" stroke="black" points="541.5,-168.5 541.5,-187.5 654.5,-187.5 654.5,-168.5 541.5,-168.5"/>
<text text-anchor="middle" x="598" y="-175.5" font-family="Helvetica,sans-Serif" font-size="10.00">Core/Utils/Index.hpp</text>
</a>
</g>
</g>
<!-- Node15&#45;&gt;Node16 -->
<g id="edge16" class="edge"><title>Node15&#45;&gt;Node16</title>
<path fill="none" stroke="midnightblue" d="M445.503,-229.975C476.301,-219.68 528.265,-202.31 562.848,-190.75"/>
<polygon fill="midnightblue" stroke="midnightblue" points="564.17,-193.999 572.544,-187.509 561.95,-187.36 564.17,-193.999"/>
</g>
<!-- Node20 -->
<g id="node20" class="node"><title>Node20</title>
<polygon fill="white" stroke="#bfbfbf" points="871.5,-168.5 871.5,-187.5 918.5,-187.5 918.5,-168.5 871.5,-168.5"/>
<text text-anchor="middle" x="895" y="-175.5" font-family="Helvetica,sans-Serif" font-size="10.00">vector</text>
</g>
<!-- Node15&#45;&gt;Node20 -->
<g id="edge24" class="edge"><title>Node15&#45;&gt;Node20</title>
<path fill="none" stroke="midnightblue" d="M477.968,-229.983C492.647,-227.925 508.393,-225.801 523,-224 670.574,-205.805 712.006,-216.202 861.346,-188.045"/>
<polygon fill="midnightblue" stroke="midnightblue" points="862.176,-191.45 871.341,-186.134 860.861,-184.575 862.176,-191.45"/>
</g>
<!-- Node21 -->
<g id="node21" class="node"><title>Node21</title>
<g id="a_node21"><a xlink:href="Types_8hpp.html" target="_top" xlink:title="Core/Types.hpp">
<polygon fill="white" stroke="black" points="434.5,-168.5 434.5,-187.5 523.5,-187.5 523.5,-168.5 434.5,-168.5"/>
<text text-anchor="middle" x="479" y="-175.5" font-family="Helvetica,sans-Serif" font-size="10.00">Core/Types.hpp</text>
</a>
</g>
</g>
<!-- Node15&#45;&gt;Node21 -->
<g id="edge25" class="edge"><title>Node15&#45;&gt;Node21</title>
<path fill="none" stroke="midnightblue" d="M428.453,-229.975C437.566,-220.785 452.27,-205.956 463.476,-194.656"/>
<polygon fill="midnightblue" stroke="midnightblue" points="466.007,-197.074 470.562,-187.509 461.036,-192.146 466.007,-197.074"/>
</g>
<!-- Node23 -->
<g id="node23" class="node"><title>Node23</title>
<g id="a_node23"><a xlink:href="Component_8inl.html" target="_top" xlink:title="Engine/Component/Component.inl">
<polygon fill="white" stroke="black" points="672.5,-168.5 672.5,-187.5 853.5,-187.5 853.5,-168.5 672.5,-168.5"/>
<text text-anchor="middle" x="763" y="-175.5" font-family="Helvetica,sans-Serif" font-size="10.00">Engine/Component/Component.inl</text>
</a>
</g>
</g>
<!-- Node15&#45;&gt;Node23 -->
<g id="edge30" class="edge"><title>Node15&#45;&gt;Node23</title>
<path fill="none" stroke="midnightblue" d="M464.243,-229.975C523.917,-219.216 630.37,-200.73 698.821,-189.224"/>
<polygon fill="midnightblue" stroke="midnightblue" points="699.767,-192.614 709.05,-187.509 698.609,-185.711 699.767,-192.614"/>
</g>
<!-- Node17 -->
<g id="node17" class="node"><title>Node17</title>
<g id="a_node17"><a xlink:href="RaCore_8hpp.html" target="_top" xlink:title="Core/RaCore.hpp">
<polygon fill="white" stroke="black" points="559,-112.5 559,-131.5 657,-131.5 657,-112.5 559,-112.5"/>
<text text-anchor="middle" x="608" y="-119.5" font-family="Helvetica,sans-Serif" font-size="10.00">Core/RaCore.hpp</text>
</a>
</g>
</g>
<!-- Node16&#45;&gt;Node17 -->
<g id="edge17" class="edge"><title>Node16&#45;&gt;Node17</title>
<path fill="none" stroke="midnightblue" d="M599.651,-168.083C600.976,-160.927 602.882,-150.635 604.539,-141.691"/>
<polygon fill="midnightblue" stroke="midnightblue" points="608,-142.221 606.379,-131.751 601.117,-140.947 608,-142.221"/>
</g>
<!-- Node18 -->
<g id="node18" class="node"><title>Node18</title>
<polygon fill="white" stroke="#bfbfbf" points="675,-112.5 675,-131.5 717,-131.5 717,-112.5 675,-112.5"/>
<text text-anchor="middle" x="696" y="-119.5" font-family="Helvetica,sans-Serif" font-size="10.00">limits</text>
</g>
<!-- Node16&#45;&gt;Node18 -->
<g id="edge19" class="edge"><title>Node16&#45;&gt;Node18</title>
<path fill="none" stroke="midnightblue" d="M613.745,-168.324C629.319,-159.743 653.377,-146.486 671.459,-136.522"/>
<polygon fill="midnightblue" stroke="midnightblue" points="673.224,-139.546 680.294,-131.655 669.846,-133.415 673.224,-139.546"/>
</g>
<!-- Node19 -->
<g id="node19" class="node"><title>Node19</title>
<g id="a_node19"><a xlink:href="Index_8inl.html" target="_top" xlink:title="Core/Utils/Index.inl">
<polygon fill="white" stroke="black" points="735.5,-112.5 735.5,-131.5 840.5,-131.5 840.5,-112.5 735.5,-112.5"/>
<text text-anchor="middle" x="788" y="-119.5" font-family="Helvetica,sans-Serif" font-size="10.00">Core/Utils/Index.inl</text>
</a>
</g>
</g>
<!-- Node16&#45;&gt;Node19 -->
<g id="edge20" class="edge"><title>Node16&#45;&gt;Node19</title>
<path fill="none" stroke="midnightblue" d="M628.106,-168.444C660.626,-159.201 712.579,-144.436 748.391,-134.257"/>
<polygon fill="midnightblue" stroke="midnightblue" points="749.373,-137.617 758.035,-131.516 747.459,-130.884 749.373,-137.617"/>
</g>
<!-- Node17&#45;&gt;Node4 -->
<g id="edge18" class="edge"><title>Node17&#45;&gt;Node4</title>
<path fill="none" stroke="midnightblue" d="M558.971,-113.257C555.937,-112.82 552.928,-112.397 550,-112 439.508,-97.009 310.844,-82.665 233.227,-74.3508"/>
<polygon fill="midnightblue" stroke="midnightblue" points="233.403,-70.8498 223.088,-73.2679 232.659,-77.8102 233.403,-70.8498"/>
</g>
<!-- Node21&#45;&gt;Node12 -->
<g id="edge27" class="edge"><title>Node21&#45;&gt;Node12</title>
<path fill="none" stroke="midnightblue" d="M450.162,-168.444C419.144,-159.241 369.671,-144.562 335.382,-134.388"/>
<polygon fill="midnightblue" stroke="midnightblue" points="336.286,-131.006 325.704,-131.516 334.295,-137.716 336.286,-131.006"/>
</g>
<!-- Node21&#45;&gt;Node13 -->
<g id="edge28" class="edge"><title>Node21&#45;&gt;Node13</title>
<path fill="none" stroke="midnightblue" d="M465.665,-168.324C452.838,-159.979 433.215,-147.212 418.06,-137.352"/>
<polygon fill="midnightblue" stroke="midnightblue" points="419.593,-134.174 409.302,-131.655 415.776,-140.042 419.593,-134.174"/>
</g>
<!-- Node21&#45;&gt;Node17 -->
<g id="edge26" class="edge"><title>Node21&#45;&gt;Node17</title>
<path fill="none" stroke="midnightblue" d="M499.44,-168.444C520.67,-159.557 554.099,-145.563 578.255,-135.451"/>
<polygon fill="midnightblue" stroke="midnightblue" points="579.782,-138.606 587.655,-131.516 577.079,-132.149 579.782,-138.606"/>
</g>
<!-- Node22 -->
<g id="node22" class="node"><title>Node22</title>
<polygon fill="white" stroke="#bfbfbf" points="461,-112.5 461,-131.5 541,-131.5 541,-112.5 461,-112.5"/>
<text text-anchor="middle" x="501" y="-119.5" font-family="Helvetica,sans-Serif" font-size="10.00">Eigen/Sparse</text>
</g>
<!-- Node21&#45;&gt;Node22 -->
<g id="edge29" class="edge"><title>Node21&#45;&gt;Node22</title>
<path fill="none" stroke="midnightblue" d="M482.633,-168.083C485.612,-160.77 489.926,-150.181 493.625,-141.103"/>
<polygon fill="midnightblue" stroke="midnightblue" points="496.903,-142.333 497.435,-131.751 490.42,-139.691 496.903,-142.333"/>
</g>
<!-- Node23&#45;&gt;Node15 -->
<g id="edge31" class="edge"><title>Node23&#45;&gt;Node15</title>
<path fill="none" stroke="midnightblue" d="M718.845,-187.509C659.217,-198.26 552.768,-216.746 484.28,-228.259"/>
<polygon fill="midnightblue" stroke="midnightblue" points="483.328,-224.87 474.044,-229.975 484.485,-231.773 483.328,-224.87"/>
</g>
<!-- Node25&#45;&gt;Node3 -->
<g id="edge36" class="edge"><title>Node25&#45;&gt;Node3</title>
<path fill="none" stroke="midnightblue" d="M484.639,-363.953C414.564,-352.433 298.348,-332.194 281,-322 227.869,-290.778 187.097,-227.427 169.499,-196.618"/>
<polygon fill="midnightblue" stroke="midnightblue" points="172.535,-194.876 164.613,-187.841 166.419,-198.28 172.535,-194.876"/>
</g>
<!-- Node25&#45;&gt;Node20 -->
<g id="edge38" class="edge"><title>Node25&#45;&gt;Node20</title>
<path fill="none" stroke="midnightblue" d="M553.8,-363.936C610.121,-333.409 801.35,-229.76 870.114,-192.489"/>
<polygon fill="midnightblue" stroke="midnightblue" points="871.853,-195.527 878.977,-187.685 868.517,-189.373 871.853,-195.527"/>
</g>
<!-- Node25&#45;&gt;Node26 -->
<g id="edge37" class="edge"><title>Node25&#45;&gt;Node26</title>
<path fill="none" stroke="midnightblue" d="M565.162,-363.963C596.674,-354.025 650.172,-337.05 696,-322 698.737,-321.101 701.569,-320.164 704.413,-319.216"/>
<polygon fill="midnightblue" stroke="midnightblue" points="705.64,-322.496 714.011,-316.001 703.417,-315.859 705.64,-322.496"/>
</g>
</g>
</svg>
