<?xml version="1.0" encoding="UTF-8" standalone="no"?>
<!DOCTYPE svg PUBLIC "-//W3C//DTD SVG 1.1//EN"
 "http://www.w3.org/Graphics/SVG/1.1/DTD/svg11.dtd">
<!-- Generated by graphviz version 2.38.0 (20140413.2041)
 -->
<!-- Title: /home/travis/build/STORM&#45;IRIT/Radium&#45;Engine/src/Engine/Renderer/Light/Light.inl Pages: 1 -->
<svg width="1761pt" height="506pt"
 viewBox="0.00 0.00 1760.50 506.00" xmlns="http://www.w3.org/2000/svg" xmlns:xlink="http://www.w3.org/1999/xlink">
<g id="graph0" class="graph" transform="scale(1 1) rotate(0) translate(4 502)">
<title>/home/travis/build/STORM&#45;IRIT/Radium&#45;Engine/src/Engine/Renderer/Light/Light.inl</title>
<polygon fill="white" stroke="none" points="-4,4 -4,-502 1756.5,-502 1756.5,4 -4,4"/>
<!-- Node1 -->
<g id="node1" class="node"><title>Node1</title>
<polygon fill="#bfbfbf" stroke="black" points="702,-445.5 702,-497.5 850,-497.5 850,-445.5 702,-445.5"/>
<text text-anchor="start" x="710" y="-485.5" font-family="Helvetica,sans-Serif" font-size="10.00">/home/travis/build</text>
<text text-anchor="start" x="710" y="-474.5" font-family="Helvetica,sans-Serif" font-size="10.00">/STORM&#45;IRIT/Radium&#45;Engine</text>
<text text-anchor="start" x="710" y="-463.5" font-family="Helvetica,sans-Serif" font-size="10.00">/src/Engine/Renderer/Light</text>
<text text-anchor="middle" x="776" y="-452.5" font-family="Helvetica,sans-Serif" font-size="10.00">/Light.inl</text>
</g>
<!-- Node2 -->
<g id="node2" class="node"><title>Node2</title>
<g id="a_node2"><a xlink:href="Light_8hpp.html" target="_top" xlink:title="/home/travis/build\l/STORM&#45;IRIT/Radium&#45;Engine\l/src/Engine/Renderer/Light\l/Light.hpp">
<polygon fill="white" stroke="black" points="702,-356.5 702,-408.5 850,-408.5 850,-356.5 702,-356.5"/>
<text text-anchor="start" x="710" y="-396.5" font-family="Helvetica,sans-Serif" font-size="10.00">/home/travis/build</text>
<text text-anchor="start" x="710" y="-385.5" font-family="Helvetica,sans-Serif" font-size="10.00">/STORM&#45;IRIT/Radium&#45;Engine</text>
<text text-anchor="start" x="710" y="-374.5" font-family="Helvetica,sans-Serif" font-size="10.00">/src/Engine/Renderer/Light</text>
<text text-anchor="middle" x="776" y="-363.5" font-family="Helvetica,sans-Serif" font-size="10.00">/Light.hpp</text>
</a>
</g>
</g>
<!-- Node1&#45;&gt;Node2 -->
<g id="edge1" class="edge"><title>Node1&#45;&gt;Node2</title>
<path fill="none" stroke="midnightblue" d="M776,-435.191C776,-426.282 776,-416.899 776,-408.607"/>
<polygon fill="midnightblue" stroke="midnightblue" points="772.5,-435.336 776,-445.336 779.5,-435.336 772.5,-435.336"/>
</g>
<!-- Node3 -->
<g id="node3" class="node"><title>Node3</title>
<g id="a_node3"><a xlink:href="DefaultLightManager_8hpp.html" target="_top" xlink:title="/home/travis/build\l/STORM&#45;IRIT/Radium&#45;Engine\l/src/Engine/Managers/LightManager\l/DefaultLightManager.hpp">
<polygon fill="white" stroke="black" points="0,-89.5 0,-141.5 188,-141.5 188,-89.5 0,-89.5"/>
<text text-anchor="start" x="8" y="-129.5" font-family="Helvetica,sans-Serif" font-size="10.00">/home/travis/build</text>
<text text-anchor="start" x="8" y="-118.5" font-family="Helvetica,sans-Serif" font-size="10.00">/STORM&#45;IRIT/Radium&#45;Engine</text>
<text text-anchor="start" x="8" y="-107.5" font-family="Helvetica,sans-Serif" font-size="10.00">/src/Engine/Managers/LightManager</text>
<text text-anchor="middle" x="94" y="-96.5" font-family="Helvetica,sans-Serif" font-size="10.00">/DefaultLightManager.hpp</text>
</a>
</g>
</g>
<!-- Node2&#45;&gt;Node3 -->
<g id="edge2" class="edge"><title>Node2&#45;&gt;Node3</title>
<path fill="none" stroke="midnightblue" d="M691.706,-377.238C539.098,-368.859 229.045,-348.541 189,-320 128.673,-277.004 105.564,-185.734 97.658,-141.53"/>
<polygon fill="midnightblue" stroke="midnightblue" points="691.795,-380.748 701.971,-377.797 692.176,-373.759 691.795,-380.748"/>
</g>
<!-- Node5 -->
<g id="node5" class="node"><title>Node5</title>
<g id="a_node5"><a xlink:href="ForwardRenderer_8cpp.html" target="_top" xlink:title="/home/travis/build\l/STORM&#45;IRIT/Radium&#45;Engine\l/src/Engine/Renderer/Renderers\l/ForwardRenderer.cpp">
<polygon fill="white" stroke="black" points="331,-0.5 331,-52.5 497,-52.5 497,-0.5 331,-0.5"/>
<text text-anchor="start" x="339" y="-40.5" font-family="Helvetica,sans-Serif" font-size="10.00">/home/travis/build</text>
<text text-anchor="start" x="339" y="-29.5" font-family="Helvetica,sans-Serif" font-size="10.00">/STORM&#45;IRIT/Radium&#45;Engine</text>
<text text-anchor="start" x="339" y="-18.5" font-family="Helvetica,sans-Serif" font-size="10.00">/src/Engine/Renderer/Renderers</text>
<text text-anchor="middle" x="414" y="-7.5" font-family="Helvetica,sans-Serif" font-size="10.00">/ForwardRenderer.cpp</text>
</a>
</g>
</g>
<!-- Node2&#45;&gt;Node5 -->
<g id="edge22" class="edge"><title>Node2&#45;&gt;Node5</title>
<path fill="none" stroke="midnightblue" d="M691.685,-364.807C654.314,-355.162 610.803,-340.731 575,-320 524.932,-291.009 514.899,-277.145 480,-231 453.141,-195.486 448.217,-184.196 434,-142 423.949,-112.168 418.721,-76.1754 416.17,-52.6084"/>
<polygon fill="midnightblue" stroke="midnightblue" points="690.996,-368.242 701.547,-367.279 692.698,-361.452 690.996,-368.242"/>
</g>
<!-- Node6 -->
<g id="node6" class="node"><title>Node6</title>
<g id="a_node6"><a xlink:href="LightStorage_8hpp.html" target="_top" xlink:title="/home/travis/build\l/STORM&#45;IRIT/Radium&#45;Engine\l/src/Engine/Managers/LightManager\l/LightStorage.hpp">
<polygon fill="white" stroke="black" points="198,-267.5 198,-319.5 386,-319.5 386,-267.5 198,-267.5"/>
<text text-anchor="start" x="206" y="-307.5" font-family="Helvetica,sans-Serif" font-size="10.00">/home/travis/build</text>
<text text-anchor="start" x="206" y="-296.5" font-family="Helvetica,sans-Serif" font-size="10.00">/STORM&#45;IRIT/Radium&#45;Engine</text>
<text text-anchor="start" x="206" y="-285.5" font-family="Helvetica,sans-Serif" font-size="10.00">/src/Engine/Managers/LightManager</text>
<text text-anchor="middle" x="292" y="-274.5" font-family="Helvetica,sans-Serif" font-size="10.00">/LightStorage.hpp</text>
</a>
</g>
</g>
<!-- Node2&#45;&gt;Node6 -->
<g id="edge5" class="edge"><title>Node2&#45;&gt;Node6</title>
<path fill="none" stroke="midnightblue" d="M691.834,-369.451C615.432,-358.106 499.791,-339.917 400,-320 395.466,-319.095 390.832,-318.136 386.158,-317.14"/>
<polygon fill="midnightblue" stroke="midnightblue" points="691.478,-372.936 701.883,-370.937 692.503,-366.011 691.478,-372.936"/>
</g>
<!-- Node10 -->
<g id="node10" class="node"><title>Node10</title>
<g id="a_node10"><a xlink:href="DirLight_8hpp.html" target="_top" xlink:title="/home/travis/build\l/STORM&#45;IRIT/Radium&#45;Engine\l/src/Engine/Renderer/Light\l/DirLight.hpp">
<polygon fill="white" stroke="black" points="489,-178.5 489,-230.5 637,-230.5 637,-178.5 489,-178.5"/>
<text text-anchor="start" x="497" y="-218.5" font-family="Helvetica,sans-Serif" font-size="10.00">/home/travis/build</text>
<text text-anchor="start" x="497" y="-207.5" font-family="Helvetica,sans-Serif" font-size="10.00">/STORM&#45;IRIT/Radium&#45;Engine</text>
<text text-anchor="start" x="497" y="-196.5" font-family="Helvetica,sans-Serif" font-size="10.00">/src/Engine/Renderer/Light</text>
<text text-anchor="middle" x="563" y="-185.5" font-family="Helvetica,sans-Serif" font-size="10.00">/DirLight.hpp</text>
</a>
</g>
</g>
<!-- Node2&#45;&gt;Node10 -->
<g id="edge10" class="edge"><title>Node2&#45;&gt;Node10</title>
<path fill="none" stroke="midnightblue" d="M692.13,-365.024C663.192,-355.833 632.443,-341.677 610,-320 584.962,-295.816 572.791,-256.388 567.229,-230.694"/>
<polygon fill="midnightblue" stroke="midnightblue" points="691.275,-368.422 701.86,-367.955 693.294,-361.719 691.275,-368.422"/>
</g>
<!-- Node13 -->
<g id="node13" class="node"><title>Node13</title>
<g id="a_node13"><a xlink:href="Light_8cpp.html" target="_top" xlink:title="/home/travis/build\l/STORM&#45;IRIT/Radium&#45;Engine\l/src/Engine/Renderer/Light\l/Light.cpp">
<polygon fill="white" stroke="black" points="951,-267.5 951,-319.5 1099,-319.5 1099,-267.5 951,-267.5"/>
<text text-anchor="start" x="959" y="-307.5" font-family="Helvetica,sans-Serif" font-size="10.00">/home/travis/build</text>
<text text-anchor="start" x="959" y="-296.5" font-family="Helvetica,sans-Serif" font-size="10.00">/STORM&#45;IRIT/Radium&#45;Engine</text>
<text text-anchor="start" x="959" y="-285.5" font-family="Helvetica,sans-Serif" font-size="10.00">/src/Engine/Renderer/Light</text>
<text text-anchor="middle" x="1025" y="-274.5" font-family="Helvetica,sans-Serif" font-size="10.00">/Light.cpp</text>
</a>
</g>
</g>
<!-- Node2&#45;&gt;Node13 -->
<g id="edge15" class="edge"><title>Node2&#45;&gt;Node13</title>
<path fill="none" stroke="midnightblue" d="M857.173,-353.138C888.196,-342.299 923.32,-330.027 953.388,-319.521"/>
<polygon fill="midnightblue" stroke="midnightblue" points="855.973,-349.85 847.687,-356.453 858.282,-356.458 855.973,-349.85"/>
</g>
<!-- Node14 -->
<g id="node14" class="node"><title>Node14</title>
<g id="a_node14"><a xlink:href="PointLight_8hpp.html" target="_top" xlink:title="/home/travis/build\l/STORM&#45;IRIT/Radium&#45;Engine\l/src/Engine/Renderer/Light\l/PointLight.hpp">
<polygon fill="white" stroke="black" points="619,-267.5 619,-319.5 767,-319.5 767,-267.5 619,-267.5"/>
<text text-anchor="start" x="627" y="-307.5" font-family="Helvetica,sans-Serif" font-size="10.00">/home/travis/build</text>
<text text-anchor="start" x="627" y="-296.5" font-family="Helvetica,sans-Serif" font-size="10.00">/STORM&#45;IRIT/Radium&#45;Engine</text>
<text text-anchor="start" x="627" y="-285.5" font-family="Helvetica,sans-Serif" font-size="10.00">/src/Engine/Renderer/Light</text>
<text text-anchor="middle" x="693" y="-274.5" font-family="Helvetica,sans-Serif" font-size="10.00">/PointLight.hpp</text>
</a>
</g>
</g>
<!-- Node2&#45;&gt;Node14 -->
<g id="edge16" class="edge"><title>Node2&#45;&gt;Node14</title>
<path fill="none" stroke="midnightblue" d="M745.068,-349.077C735.774,-339.335 725.723,-328.8 716.953,-319.607"/>
<polygon fill="midnightblue" stroke="midnightblue" points="742.558,-351.517 751.993,-356.336 747.623,-346.685 742.558,-351.517"/>
</g>
<!-- Node16 -->
<g id="node16" class="node"><title>Node16</title>
<g id="a_node16"><a xlink:href="SpotLight_8hpp.html" target="_top" xlink:title="/home/travis/build\l/STORM&#45;IRIT/Radium&#45;Engine\l/src/Engine/Renderer/Light\l/SpotLight.hpp">
<polygon fill="white" stroke="black" points="785,-267.5 785,-319.5 933,-319.5 933,-267.5 785,-267.5"/>
<text text-anchor="start" x="793" y="-307.5" font-family="Helvetica,sans-Serif" font-size="10.00">/home/travis/build</text>
<text text-anchor="start" x="793" y="-296.5" font-family="Helvetica,sans-Serif" font-size="10.00">/STORM&#45;IRIT/Radium&#45;Engine</text>
<text text-anchor="start" x="793" y="-285.5" font-family="Helvetica,sans-Serif" font-size="10.00">/src/Engine/Renderer/Light</text>
<text text-anchor="middle" x="859" y="-274.5" font-family="Helvetica,sans-Serif" font-size="10.00">/SpotLight.hpp</text>
</a>
</g>
</g>
<!-- Node2&#45;&gt;Node16 -->
<g id="edge19" class="edge"><title>Node2&#45;&gt;Node16</title>
<path fill="none" stroke="midnightblue" d="M806.932,-349.077C816.226,-339.335 826.277,-328.8 835.047,-319.607"/>
<polygon fill="midnightblue" stroke="midnightblue" points="804.377,-346.685 800.007,-356.336 809.442,-351.517 804.377,-346.685"/>
</g>
<!-- Node18 -->
<g id="node18" class="node"><title>Node18</title>
<g id="a_node18"><a xlink:href="CameraManipulator_8cpp.html" target="_top" xlink:title="/home/travis/build\l/STORM&#45;IRIT/Radium&#45;Engine\l/src/GuiBase/Viewer/CameraManipulator.cpp">
<polygon fill="white" stroke="black" points="1117,-273 1117,-314 1345,-314 1345,-273 1117,-273"/>
<text text-anchor="start" x="1125" y="-302" font-family="Helvetica,sans-Serif" font-size="10.00">/home/travis/build</text>
<text text-anchor="start" x="1125" y="-291" font-family="Helvetica,sans-Serif" font-size="10.00">/STORM&#45;IRIT/Radium&#45;Engine</text>
<text text-anchor="middle" x="1231" y="-280" font-family="Helvetica,sans-Serif" font-size="10.00">/src/GuiBase/Viewer/CameraManipulator.cpp</text>
</a>
</g>
</g>
<!-- Node2&#45;&gt;Node18 -->
<g id="edge23" class="edge"><title>Node2&#45;&gt;Node18</title>
<path fill="none" stroke="midnightblue" d="M860.363,-366.383C927.523,-354.226 1023.88,-336.509 1108,-320 1117.63,-318.11 1127.68,-316.097 1137.69,-314.061"/>
<polygon fill="midnightblue" stroke="midnightblue" points="859.475,-362.987 850.257,-368.211 860.72,-369.876 859.475,-362.987"/>
</g>
<!-- Node19 -->
<g id="node19" class="node"><title>Node19</title>
<g id="a_node19"><a xlink:href="FlightCameraManipulator_8cpp.html" target="_top" xlink:title="/home/travis/build\l/STORM&#45;IRIT/Radium&#45;Engine\l/src/GuiBase/Viewer/FlightCamera\lManipulator.cpp">
<polygon fill="white" stroke="black" points="1363,-267.5 1363,-319.5 1541,-319.5 1541,-267.5 1363,-267.5"/>
<text text-anchor="start" x="1371" y="-307.5" font-family="Helvetica,sans-Serif" font-size="10.00">/home/travis/build</text>
<text text-anchor="start" x="1371" y="-296.5" font-family="Helvetica,sans-Serif" font-size="10.00">/STORM&#45;IRIT/Radium&#45;Engine</text>
<text text-anchor="start" x="1371" y="-285.5" font-family="Helvetica,sans-Serif" font-size="10.00">/src/GuiBase/Viewer/FlightCamera</text>
<text text-anchor="middle" x="1452" y="-274.5" font-family="Helvetica,sans-Serif" font-size="10.00">Manipulator.cpp</text>
</a>
</g>
</g>
<!-- Node2&#45;&gt;Node19 -->
<g id="edge24" class="edge"><title>Node2&#45;&gt;Node19</title>
<path fill="none" stroke="midnightblue" d="M860.387,-376.463C973.458,-368.819 1180.05,-351.704 1354,-320 1356.94,-319.464 1359.92,-318.887 1362.93,-318.276"/>
<polygon fill="midnightblue" stroke="midnightblue" points="860.153,-372.971 850.409,-377.13 860.62,-379.956 860.153,-372.971"/>
</g>
<!-- Node20 -->
<g id="node20" class="node"><title>Node20</title>
<g id="a_node20"><a xlink:href="TrackballCameraManipulator_8cpp.html" target="_top" xlink:title="/home/travis/build\l/STORM&#45;IRIT/Radium&#45;Engine\l/src/GuiBase/Viewer/TrackballCamera\lManipulator.cpp">
<polygon fill="white" stroke="black" points="1559.5,-267.5 1559.5,-319.5 1752.5,-319.5 1752.5,-267.5 1559.5,-267.5"/>
<text text-anchor="start" x="1567.5" y="-307.5" font-family="Helvetica,sans-Serif" font-size="10.00">/home/travis/build</text>
<text text-anchor="start" x="1567.5" y="-296.5" font-family="Helvetica,sans-Serif" font-size="10.00">/STORM&#45;IRIT/Radium&#45;Engine</text>
<text text-anchor="start" x="1567.5" y="-285.5" font-family="Helvetica,sans-Serif" font-size="10.00">/src/GuiBase/Viewer/TrackballCamera</text>
<text text-anchor="middle" x="1656" y="-274.5" font-family="Helvetica,sans-Serif" font-size="10.00">Manipulator.cpp</text>
</a>
</g>
</g>
<!-- Node2&#45;&gt;Node20 -->
<g id="edge25" class="edge"><title>Node2&#45;&gt;Node20</title>
<path fill="none" stroke="midnightblue" d="M860.093,-379.133C1002.77,-374.155 1301.04,-359.586 1550,-320 1553.08,-319.51 1556.21,-318.976 1559.36,-318.408"/>
<polygon fill="midnightblue" stroke="midnightblue" points="859.967,-375.635 850.092,-379.475 860.206,-382.631 859.967,-375.635"/>
</g>
<!-- Node4 -->
<g id="node4" class="node"><title>Node4</title>
<g id="a_node4"><a xlink:href="DefaultLightManager_8cpp.html" target="_top" xlink:title="/home/travis/build\l/STORM&#45;IRIT/Radium&#45;Engine\l/src/Engine/Managers/LightManager\l/DefaultLightManager.cpp">
<polygon fill="white" stroke="black" points="0,-0.5 0,-52.5 188,-52.5 188,-0.5 0,-0.5"/>
<text text-anchor="start" x="8" y="-40.5" font-family="Helvetica,sans-Serif" font-size="10.00">/home/travis/build</text>
<text text-anchor="start" x="8" y="-29.5" font-family="Helvetica,sans-Serif" font-size="10.00">/STORM&#45;IRIT/Radium&#45;Engine</text>
<text text-anchor="start" x="8" y="-18.5" font-family="Helvetica,sans-Serif" font-size="10.00">/src/Engine/Managers/LightManager</text>
<text text-anchor="middle" x="94" y="-7.5" font-family="Helvetica,sans-Serif" font-size="10.00">/DefaultLightManager.cpp</text>
</a>
</g>
</g>
<!-- Node3&#45;&gt;Node4 -->
<g id="edge3" class="edge"><title>Node3&#45;&gt;Node4</title>
<path fill="none" stroke="midnightblue" d="M94,-79.1908C94,-70.2824 94,-60.8986 94,-52.6075"/>
<polygon fill="midnightblue" stroke="midnightblue" points="90.5001,-79.336 94,-89.336 97.5001,-79.336 90.5001,-79.336"/>
</g>
<!-- Node3&#45;&gt;Node5 -->
<g id="edge4" class="edge"><title>Node3&#45;&gt;Node5</title>
<path fill="none" stroke="midnightblue" d="M195.895,-86.7973C239.476,-74.9488 289.712,-61.2909 330.979,-50.0715"/>
<polygon fill="midnightblue" stroke="midnightblue" points="194.859,-83.4517 186.128,-89.4527 196.696,-90.2065 194.859,-83.4517"/>
</g>
<!-- Node7 -->
<g id="node7" class="node"><title>Node7</title>
<g id="a_node7"><a xlink:href="LightManager_8hpp.html" target="_top" xlink:title="/home/travis/build\l/STORM&#45;IRIT/Radium&#45;Engine\l/src/Engine/Managers/LightManager\l/LightManager.hpp">
<polygon fill="white" stroke="black" points="198,-178.5 198,-230.5 386,-230.5 386,-178.5 198,-178.5"/>
<text text-anchor="start" x="206" y="-218.5" font-family="Helvetica,sans-Serif" font-size="10.00">/home/travis/build</text>
<text text-anchor="start" x="206" y="-207.5" font-family="Helvetica,sans-Serif" font-size="10.00">/STORM&#45;IRIT/Radium&#45;Engine</text>
<text text-anchor="start" x="206" y="-196.5" font-family="Helvetica,sans-Serif" font-size="10.00">/src/Engine/Managers/LightManager</text>
<text text-anchor="middle" x="292" y="-185.5" font-family="Helvetica,sans-Serif" font-size="10.00">/LightManager.hpp</text>
</a>
</g>
</g>
<!-- Node6&#45;&gt;Node7 -->
<g id="edge6" class="edge"><title>Node6&#45;&gt;Node7</title>
<path fill="none" stroke="midnightblue" d="M292,-257.191C292,-248.282 292,-238.899 292,-230.607"/>
<polygon fill="midnightblue" stroke="midnightblue" points="288.5,-257.336 292,-267.336 295.5,-257.336 288.5,-257.336"/>
</g>
<!-- Node7&#45;&gt;Node3 -->
<g id="edge7" class="edge"><title>Node7&#45;&gt;Node3</title>
<path fill="none" stroke="midnightblue" d="M225.532,-174.295C201.342,-163.665 174.236,-151.755 150.945,-141.521"/>
<polygon fill="midnightblue" stroke="midnightblue" points="224.433,-177.634 234.996,-178.453 227.249,-171.226 224.433,-177.634"/>
</g>
<!-- Node8 -->
<g id="node8" class="node"><title>Node8</title>
<g id="a_node8"><a xlink:href="LightManager_8cpp.html" target="_top" xlink:title="/home/travis/build\l/STORM&#45;IRIT/Radium&#45;Engine\l/src/Engine/Managers/LightManager\l/LightManager.cpp">
<polygon fill="white" stroke="black" points="830,-89.5 830,-141.5 1018,-141.5 1018,-89.5 830,-89.5"/>
<text text-anchor="start" x="838" y="-129.5" font-family="Helvetica,sans-Serif" font-size="10.00">/home/travis/build</text>
<text text-anchor="start" x="838" y="-118.5" font-family="Helvetica,sans-Serif" font-size="10.00">/STORM&#45;IRIT/Radium&#45;Engine</text>
<text text-anchor="start" x="838" y="-107.5" font-family="Helvetica,sans-Serif" font-size="10.00">/src/Engine/Managers/LightManager</text>
<text text-anchor="middle" x="924" y="-96.5" font-family="Helvetica,sans-Serif" font-size="10.00">/LightManager.cpp</text>
</a>
</g>
</g>
<!-- Node7&#45;&gt;Node8 -->
<g id="edge8" class="edge"><title>Node7&#45;&gt;Node8</title>
<path fill="none" stroke="midnightblue" d="M396.074,-188.824C423.361,-185.129 452.769,-181.283 480,-178 631.302,-159.756 670.902,-168.374 821,-142 823.903,-141.49 826.845,-140.944 829.811,-140.369"/>
<polygon fill="midnightblue" stroke="midnightblue" points="395.562,-185.361 386.125,-190.176 396.505,-192.297 395.562,-185.361"/>
</g>
<!-- Node9 -->
<g id="node9" class="node"><title>Node9</title>
<g id="a_node9"><a xlink:href="Renderer_8cpp.html" target="_top" xlink:title="/home/travis/build\l/STORM&#45;IRIT/Radium&#45;Engine\l/src/Engine/Renderer/Renderer.cpp">
<polygon fill="white" stroke="black" points="206,-95 206,-136 386,-136 386,-95 206,-95"/>
<text text-anchor="start" x="214" y="-124" font-family="Helvetica,sans-Serif" font-size="10.00">/home/travis/build</text>
<text text-anchor="start" x="214" y="-113" font-family="Helvetica,sans-Serif" font-size="10.00">/STORM&#45;IRIT/Radium&#45;Engine</text>
<text text-anchor="middle" x="296" y="-102" font-family="Helvetica,sans-Serif" font-size="10.00">/src/Engine/Renderer/Renderer.cpp</text>
</a>
</g>
</g>
<!-- Node7&#45;&gt;Node9 -->
<g id="edge9" class="edge"><title>Node7&#45;&gt;Node9</title>
<path fill="none" stroke="midnightblue" d="M293.625,-168.155C294.128,-157.21 294.664,-145.549 295.1,-136.082"/>
<polygon fill="midnightblue" stroke="midnightblue" points="290.12,-168.186 293.157,-178.336 297.113,-168.507 290.12,-168.186"/>
</g>
<!-- Node10&#45;&gt;Node5 -->
<g id="edge13" class="edge"><title>Node10&#45;&gt;Node5</title>
<path fill="none" stroke="midnightblue" d="M506.924,-172.752C494.072,-163.971 481.204,-153.594 471,-142 447.674,-115.496 431.335,-77.746 422.302,-52.9434"/>
<polygon fill="midnightblue" stroke="midnightblue" points="505.062,-175.716 515.339,-178.289 508.909,-169.868 505.062,-175.716"/>
</g>
<!-- Node10&#45;&gt;Node8 -->
<g id="edge11" class="edge"><title>Node10&#45;&gt;Node8</title>
<path fill="none" stroke="midnightblue" d="M646.878,-177.87C724.627,-158.385 746.581,-158.86 821,-142 823.875,-141.349 826.792,-140.679 829.736,-139.996"/>
<polygon fill="midnightblue" stroke="midnightblue" points="645.945,-174.496 637.113,-180.348 647.666,-181.281 645.945,-174.496"/>
</g>
<!-- Node11 -->
<g id="node11" class="node"><title>Node11</title>
<g id="a_node11"><a xlink:href="DirLight_8cpp.html" target="_top" xlink:title="/home/travis/build\l/STORM&#45;IRIT/Radium&#45;Engine\l/src/Engine/Renderer/Light\l/DirLight.cpp">
<polygon fill="white" stroke="black" points="664,-89.5 664,-141.5 812,-141.5 812,-89.5 664,-89.5"/>
<text text-anchor="start" x="672" y="-129.5" font-family="Helvetica,sans-Serif" font-size="10.00">/home/travis/build</text>
<text text-anchor="start" x="672" y="-118.5" font-family="Helvetica,sans-Serif" font-size="10.00">/STORM&#45;IRIT/Radium&#45;Engine</text>
<text text-anchor="start" x="672" y="-107.5" font-family="Helvetica,sans-Serif" font-size="10.00">/src/Engine/Renderer/Light</text>
<text text-anchor="middle" x="738" y="-96.5" font-family="Helvetica,sans-Serif" font-size="10.00">/DirLight.cpp</text>
</a>
</g>
</g>
<!-- Node10&#45;&gt;Node11 -->
<g id="edge12" class="edge"><title>Node10&#45;&gt;Node11</title>
<path fill="none" stroke="midnightblue" d="M622.789,-173.776C643.843,-163.309 667.284,-151.656 687.497,-141.607"/>
<polygon fill="midnightblue" stroke="midnightblue" points="621.014,-170.75 613.617,-178.336 624.13,-177.018 621.014,-170.75"/>
</g>
<!-- Node12 -->
<g id="node12" class="node"><title>Node12</title>
<g id="a_node12"><a xlink:href="Viewer_8cpp.html" target="_top" xlink:title="/home/travis/build\l/STORM&#45;IRIT/Radium&#45;Engine\l/src/GuiBase/Viewer/Viewer.cpp">
<polygon fill="white" stroke="black" points="480.5,-95 480.5,-136 645.5,-136 645.5,-95 480.5,-95"/>
<text text-anchor="start" x="488.5" y="-124" font-family="Helvetica,sans-Serif" font-size="10.00">/home/travis/build</text>
<text text-anchor="start" x="488.5" y="-113" font-family="Helvetica,sans-Serif" font-size="10.00">/STORM&#45;IRIT/Radium&#45;Engine</text>
<text text-anchor="middle" x="563" y="-102" font-family="Helvetica,sans-Serif" font-size="10.00">/src/GuiBase/Viewer/Viewer.cpp</text>
</a>
</g>
</g>
<!-- Node10&#45;&gt;Node12 -->
<g id="edge14" class="edge"><title>Node10&#45;&gt;Node12</title>
<path fill="none" stroke="midnightblue" d="M563,-168.155C563,-157.21 563,-145.549 563,-136.082"/>
<polygon fill="midnightblue" stroke="midnightblue" points="559.5,-168.336 563,-178.336 566.5,-168.336 559.5,-168.336"/>
</g>
<!-- Node14&#45;&gt;Node8 -->
<g id="edge17" class="edge"><title>Node14&#45;&gt;Node8</title>
<path fill="none" stroke="midnightblue" d="M759.719,-262.756C777.395,-253.628 795.997,-242.833 812,-231 831.061,-216.906 874.412,-170.796 901.244,-141.568"/>
<polygon fill="midnightblue" stroke="midnightblue" points="757.926,-259.74 750.579,-267.374 761.083,-265.988 757.926,-259.74"/>
</g>
<!-- Node15 -->
<g id="node15" class="node"><title>Node15</title>
<g id="a_node15"><a xlink:href="PointLight_8cpp.html" target="_top" xlink:title="/home/travis/build\l/STORM&#45;IRIT/Radium&#45;Engine\l/src/Engine/Renderer/Light\l/PointLight.cpp">
<polygon fill="white" stroke="black" points="655,-178.5 655,-230.5 803,-230.5 803,-178.5 655,-178.5"/>
<text text-anchor="start" x="663" y="-218.5" font-family="Helvetica,sans-Serif" font-size="10.00">/home/travis/build</text>
<text text-anchor="start" x="663" y="-207.5" font-family="Helvetica,sans-Serif" font-size="10.00">/STORM&#45;IRIT/Radium&#45;Engine</text>
<text text-anchor="start" x="663" y="-196.5" font-family="Helvetica,sans-Serif" font-size="10.00">/src/Engine/Renderer/Light</text>
<text text-anchor="middle" x="729" y="-185.5" font-family="Helvetica,sans-Serif" font-size="10.00">/PointLight.cpp</text>
</a>
</g>
</g>
<!-- Node14&#45;&gt;Node15 -->
<g id="edge18" class="edge"><title>Node14&#45;&gt;Node15</title>
<path fill="none" stroke="midnightblue" d="M707.251,-258.061C711.043,-248.896 715.068,-239.169 718.611,-230.607"/>
<polygon fill="midnightblue" stroke="midnightblue" points="704.002,-256.758 703.413,-267.336 710.47,-259.434 704.002,-256.758"/>
</g>
<!-- Node16&#45;&gt;Node8 -->
<g id="edge20" class="edge"><title>Node16&#45;&gt;Node8</title>
<path fill="none" stroke="midnightblue" d="M865.248,-257.254C869.983,-234.184 877.483,-203.67 888,-178 893.112,-165.521 900.398,-152.52 907.079,-141.703"/>
<polygon fill="midnightblue" stroke="midnightblue" points="861.771,-256.797 863.267,-267.286 868.638,-258.154 861.771,-256.797"/>
</g>
<!-- Node17 -->
<g id="node17" class="node"><title>Node17</title>
<g id="a_node17"><a xlink:href="SpotLight_8cpp.html" target="_top" xlink:title="/home/travis/build\l/STORM&#45;IRIT/Radium&#45;Engine\l/src/Engine/Renderer/Light\l/SpotLight.cpp">
<polygon fill="white" stroke="black" points="897,-178.5 897,-230.5 1045,-230.5 1045,-178.5 897,-178.5"/>
<text text-anchor="start" x="905" y="-218.5" font-family="Helvetica,sans-Serif" font-size="10.00">/home/travis/build</text>
<text text-anchor="start" x="905" y="-207.5" font-family="Helvetica,sans-Serif" font-size="10.00">/STORM&#45;IRIT/Radium&#45;Engine</text>
<text text-anchor="start" x="905" y="-196.5" font-family="Helvetica,sans-Serif" font-size="10.00">/src/Engine/Renderer/Light</text>
<text text-anchor="middle" x="971" y="-185.5" font-family="Helvetica,sans-Serif" font-size="10.00">/SpotLight.cpp</text>
</a>
</g>
</g>
<!-- Node16&#45;&gt;Node17 -->
<g id="edge21" class="edge"><title>Node16&#45;&gt;Node17</title>
<path fill="none" stroke="midnightblue" d="M899.636,-260.934C912.482,-250.956 926.496,-240.07 938.678,-230.607"/>
<polygon fill="midnightblue" stroke="midnightblue" points="897.145,-258.437 891.395,-267.336 901.439,-263.966 897.145,-258.437"/>
</g>
</g>
</svg>
