<?xml version="1.0" encoding="UTF-8" standalone="no"?>
<!DOCTYPE svg PUBLIC "-//W3C//DTD SVG 1.1//EN"
 "http://www.w3.org/Graphics/SVG/1.1/DTD/svg11.dtd">
<!-- Generated by graphviz version 2.38.0 (20140413.2041)
 -->
<!-- Title: /home/travis/build/STORM&#45;IRIT/Radium&#45;Engine/src/Engine/Renderer/Light/Light.cpp Pages: 1 -->
<svg width="2068pt" height="508pt"
 viewBox="0.00 0.00 2067.50 508.00" xmlns="http://www.w3.org/2000/svg" xmlns:xlink="http://www.w3.org/1999/xlink">
<g id="graph0" class="graph" transform="scale(1 1) rotate(0) translate(4 504)">
<title>/home/travis/build/STORM&#45;IRIT/Radium&#45;Engine/src/Engine/Renderer/Light/Light.cpp</title>
<polygon fill="white" stroke="none" points="-4,4 -4,-504 2063.5,-504 2063.5,4 -4,4"/>
<!-- Node1 -->
<g id="node1" class="node"><title>Node1</title>
<polygon fill="#bfbfbf" stroke="black" points="664.5,-447.5 664.5,-499.5 812.5,-499.5 812.5,-447.5 664.5,-447.5"/>
<text text-anchor="start" x="672.5" y="-487.5" font-family="Helvetica,sans-Serif" font-size="10.00">/home/travis/build</text>
<text text-anchor="start" x="672.5" y="-476.5" font-family="Helvetica,sans-Serif" font-size="10.00">/STORM&#45;IRIT/Radium&#45;Engine</text>
<text text-anchor="start" x="672.5" y="-465.5" font-family="Helvetica,sans-Serif" font-size="10.00">/src/Engine/Renderer/Light</text>
<text text-anchor="middle" x="738.5" y="-454.5" font-family="Helvetica,sans-Serif" font-size="10.00">/Light.cpp</text>
</g>
<!-- Node2 -->
<g id="node2" class="node"><title>Node2</title>
<g id="a_node2"><a xlink:href="Light_8hpp.html" target="_top" xlink:title="Engine/Renderer/Light\l/Light.hpp">
<polygon fill="white" stroke="black" points="565,-313.5 565,-343.5 686,-343.5 686,-313.5 565,-313.5"/>
<text text-anchor="start" x="573" y="-331.5" font-family="Helvetica,sans-Serif" font-size="10.00">Engine/Renderer/Light</text>
<text text-anchor="middle" x="625.5" y="-320.5" font-family="Helvetica,sans-Serif" font-size="10.00">/Light.hpp</text>
</a>
</g>
</g>
<!-- Node1&#45;&gt;Node2 -->
<g id="edge1" class="edge"><title>Node1&#45;&gt;Node2</title>
<path fill="none" stroke="midnightblue" d="M718.558,-447.264C697.154,-420.178 663.484,-377.569 643.052,-351.712"/>
<polygon fill="midnightblue" stroke="midnightblue" points="645.613,-349.307 636.667,-343.631 640.121,-353.648 645.613,-349.307"/>
</g>
<!-- Node24 -->
<g id="node24" class="node"><title>Node24</title>
<g id="a_node24"><a xlink:href="RadiumEngine_8hpp.html" target="_top" xlink:title="Engine/RadiumEngine.hpp">
<polygon fill="white" stroke="black" points="843,-252 843,-271 984,-271 984,-252 843,-252"/>
<text text-anchor="middle" x="913.5" y="-259" font-family="Helvetica,sans-Serif" font-size="10.00">Engine/RadiumEngine.hpp</text>
</a>
</g>
</g>
<!-- Node1&#45;&gt;Node24 -->
<g id="edge32" class="edge"><title>Node1&#45;&gt;Node24</title>
<path fill="none" stroke="midnightblue" d="M759.609,-447.169C795.966,-403.54 869.423,-315.393 899.836,-278.897"/>
<polygon fill="midnightblue" stroke="midnightblue" points="902.566,-281.088 906.279,-271.165 897.188,-276.607 902.566,-281.088"/>
</g>
<!-- Node29 -->
<g id="node29" class="node"><title>Node29</title>
<g id="a_node29"><a xlink:href="RenderParameters_8hpp.html" target="_top" xlink:title="Engine/Renderer/RenderTechnique\l/RenderParameters.hpp">
<polygon fill="white" stroke="black" points="1202.5,-380.5 1202.5,-410.5 1380.5,-410.5 1380.5,-380.5 1202.5,-380.5"/>
<text text-anchor="start" x="1210.5" y="-398.5" font-family="Helvetica,sans-Serif" font-size="10.00">Engine/Renderer/RenderTechnique</text>
<text text-anchor="middle" x="1291.5" y="-387.5" font-family="Helvetica,sans-Serif" font-size="10.00">/RenderParameters.hpp</text>
</a>
</g>
</g>
<!-- Node1&#45;&gt;Node29 -->
<g id="edge41" class="edge"><title>Node1&#45;&gt;Node29</title>
<path fill="none" stroke="midnightblue" d="M812.506,-462.329C910.399,-448.876 1083.25,-425.12 1192.36,-410.125"/>
<polygon fill="midnightblue" stroke="midnightblue" points="1192.96,-413.576 1202.39,-408.747 1192,-406.641 1192.96,-413.576"/>
</g>
<!-- Node3 -->
<g id="node3" class="node"><title>Node3</title>
<g id="a_node3"><a xlink:href="Color_8hpp.html" target="_top" xlink:title="Core/Utils/Color.hpp">
<polygon fill="white" stroke="black" points="0,-185 0,-204 111,-204 111,-185 0,-185"/>
<text text-anchor="middle" x="55.5" y="-192" font-family="Helvetica,sans-Serif" font-size="10.00">Core/Utils/Color.hpp</text>
</a>
</g>
</g>
<!-- Node2&#45;&gt;Node3 -->
<g id="edge2" class="edge"><title>Node2&#45;&gt;Node3</title>
<path fill="none" stroke="midnightblue" d="M564.719,-319.568C503.795,-311.08 407.524,-296.202 325.5,-277 239.462,-256.858 140.55,-224.612 89.6728,-207.337"/>
<polygon fill="midnightblue" stroke="midnightblue" points="90.7504,-204.007 80.1559,-204.09 88.4899,-210.632 90.7504,-204.007"/>
</g>
<!-- Node13 -->
<g id="node13" class="node"><title>Node13</title>
<g id="a_node13"><a xlink:href="Component_8hpp.html" target="_top" xlink:title="Engine/Component/Component.hpp">
<polygon fill="white" stroke="black" points="334.5,-252 334.5,-271 522.5,-271 522.5,-252 334.5,-252"/>
<text text-anchor="middle" x="428.5" y="-259" font-family="Helvetica,sans-Serif" font-size="10.00">Engine/Component/Component.hpp</text>
</a>
</g>
</g>
<!-- Node2&#45;&gt;Node13 -->
<g id="edge12" class="edge"><title>Node2&#45;&gt;Node13</title>
<path fill="none" stroke="midnightblue" d="M582.754,-313.396C547.27,-301.688 497.393,-285.231 464.062,-274.234"/>
<polygon fill="midnightblue" stroke="midnightblue" points="464.876,-270.817 454.283,-271.007 462.683,-277.464 464.876,-270.817"/>
</g>
<!-- Node18 -->
<g id="node18" class="node"><title>Node18</title>
<g id="a_node18"><a xlink:href="RaEngine_8hpp.html" target="_top" xlink:title="Engine/RaEngine.hpp">
<polygon fill="white" stroke="black" points="908,-118 908,-137 1025,-137 1025,-118 908,-118"/>
<text text-anchor="middle" x="966.5" y="-125" font-family="Helvetica,sans-Serif" font-size="10.00">Engine/RaEngine.hpp</text>
</a>
</g>
</g>
<!-- Node2&#45;&gt;Node18 -->
<g id="edge30" class="edge"><title>Node2&#45;&gt;Node18</title>
<path fill="none" stroke="midnightblue" d="M659.606,-313.388C706.672,-293.283 793.433,-253.93 861.5,-210 879.813,-198.181 882.35,-192.451 899.5,-179 915.107,-166.759 933.068,-153.252 946.462,-143.29"/>
<polygon fill="midnightblue" stroke="midnightblue" points="948.587,-146.071 954.534,-137.303 944.417,-140.449 948.587,-146.071"/>
</g>
<!-- Node23 -->
<g id="node23" class="node"><title>Node23</title>
<g id="a_node23"><a xlink:href="Light_8inl.html" target="_top" xlink:title="Engine/Renderer/Light\l/Light.inl">
<polygon fill="white" stroke="black" points="565,-246.5 565,-276.5 686,-276.5 686,-246.5 565,-246.5"/>
<text text-anchor="start" x="573" y="-264.5" font-family="Helvetica,sans-Serif" font-size="10.00">Engine/Renderer/Light</text>
<text text-anchor="middle" x="625.5" y="-253.5" font-family="Helvetica,sans-Serif" font-size="10.00">/Light.inl</text>
</a>
</g>
</g>
<!-- Node2&#45;&gt;Node23 -->
<g id="edge31" class="edge"><title>Node2&#45;&gt;Node23</title>
<path fill="none" stroke="midnightblue" d="M625.5,-313.396C625.5,-305.645 625.5,-295.812 625.5,-286.86"/>
<polygon fill="midnightblue" stroke="midnightblue" points="629,-286.576 625.5,-276.577 622,-286.577 629,-286.576"/>
</g>
<!-- Node4 -->
<g id="node4" class="node"><title>Node4</title>
<g id="a_node4"><a xlink:href="CoreMacros_8hpp.html" target="_top" xlink:title="Core/CoreMacros.hpp">
<polygon fill="white" stroke="black" points="753.5,-56.5 753.5,-75.5 873.5,-75.5 873.5,-56.5 753.5,-56.5"/>
<text text-anchor="middle" x="813.5" y="-63.5" font-family="Helvetica,sans-Serif" font-size="10.00">Core/CoreMacros.hpp</text>
</a>
</g>
</g>
<!-- Node3&#45;&gt;Node4 -->
<g id="edge3" class="edge"><title>Node3&#45;&gt;Node4</title>
<path fill="none" stroke="midnightblue" d="M44.6481,-184.972C25.6449,-169.061 -9.71017,-134.434 11.5,-112 36.4598,-85.6005 552.341,-72.3601 743.26,-68.35"/>
<polygon fill="midnightblue" stroke="midnightblue" points="743.538,-71.8451 753.463,-68.138 743.392,-64.8466 743.538,-71.8451"/>
</g>
<!-- Node10 -->
<g id="node10" class="node"><title>Node10</title>
<polygon fill="white" stroke="#bfbfbf" points="388.5,-118 388.5,-137 456.5,-137 456.5,-118 388.5,-118"/>
<text text-anchor="middle" x="422.5" y="-125" font-family="Helvetica,sans-Serif" font-size="10.00">Eigen/Core</text>
</g>
<!-- Node3&#45;&gt;Node10 -->
<g id="edge9" class="edge"><title>Node3&#45;&gt;Node10</title>
<path fill="none" stroke="midnightblue" d="M111.236,-185.343C196.962,-172.716 353.994,-149.24 379.5,-143 382.893,-142.17 386.401,-141.192 389.883,-140.143"/>
<polygon fill="midnightblue" stroke="midnightblue" points="391.049,-143.445 399.504,-137.06 388.913,-136.778 391.049,-143.445"/>
</g>
<!-- Node11 -->
<g id="node11" class="node"><title>Node11</title>
<polygon fill="white" stroke="#bfbfbf" points="92.5,-118 92.5,-137 186.5,-137 186.5,-118 92.5,-118"/>
<text text-anchor="middle" x="139.5" y="-125" font-family="Helvetica,sans-Serif" font-size="10.00">Eigen/Geometry</text>
</g>
<!-- Node3&#45;&gt;Node11 -->
<g id="edge10" class="edge"><title>Node3&#45;&gt;Node11</title>
<path fill="none" stroke="midnightblue" d="M66.8286,-184.734C80.5571,-174.111 103.899,-156.049 120.42,-143.264"/>
<polygon fill="midnightblue" stroke="midnightblue" points="122.584,-146.015 128.351,-137.127 118.3,-140.479 122.584,-146.015"/>
</g>
<!-- Node12 -->
<g id="node12" class="node"><title>Node12</title>
<polygon fill="white" stroke="#bfbfbf" points="20.5,-118 20.5,-137 74.5,-137 74.5,-118 20.5,-118"/>
<text text-anchor="middle" x="47.5" y="-125" font-family="Helvetica,sans-Serif" font-size="10.00">random</text>
</g>
<!-- Node3&#45;&gt;Node12 -->
<g id="edge11" class="edge"><title>Node3&#45;&gt;Node12</title>
<path fill="none" stroke="midnightblue" d="M54.4211,-184.734C53.2456,-175.183 51.3299,-159.618 49.8117,-147.283"/>
<polygon fill="midnightblue" stroke="midnightblue" points="53.2572,-146.625 48.5618,-137.127 46.3097,-147.48 53.2572,-146.625"/>
</g>
<!-- Node5 -->
<g id="node5" class="node"><title>Node5</title>
<polygon fill="white" stroke="#bfbfbf" points="891.5,-0.5 891.5,-19.5 943.5,-19.5 943.5,-0.5 891.5,-0.5"/>
<text text-anchor="middle" x="917.5" y="-7.5" font-family="Helvetica,sans-Serif" font-size="10.00">cassert</text>
</g>
<!-- Node4&#45;&gt;Node5 -->
<g id="edge4" class="edge"><title>Node4&#45;&gt;Node5</title>
<path fill="none" stroke="midnightblue" d="M830.209,-56.324C846.812,-47.7034 872.502,-34.3643 891.72,-24.3855"/>
<polygon fill="midnightblue" stroke="midnightblue" points="893.57,-27.3689 900.832,-19.6545 890.344,-21.1565 893.57,-27.3689"/>
</g>
<!-- Node6 -->
<g id="node6" class="node"><title>Node6</title>
<polygon fill="white" stroke="#bfbfbf" points="685,-0.5 685,-19.5 730,-19.5 730,-0.5 685,-0.5"/>
<text text-anchor="middle" x="707.5" y="-7.5" font-family="Helvetica,sans-Serif" font-size="10.00">cstdio</text>
</g>
<!-- Node4&#45;&gt;Node6 -->
<g id="edge5" class="edge"><title>Node4&#45;&gt;Node6</title>
<path fill="none" stroke="midnightblue" d="M796.469,-56.324C779.47,-47.6641 753.124,-34.2424 733.507,-24.249"/>
<polygon fill="midnightblue" stroke="midnightblue" points="734.988,-21.0752 724.488,-19.6545 731.81,-27.3125 734.988,-21.0752"/>
</g>
<!-- Node7 -->
<g id="node7" class="node"><title>Node7</title>
<polygon fill="white" stroke="#bfbfbf" points="748,-0.5 748,-19.5 807,-19.5 807,-0.5 748,-0.5"/>
<text text-anchor="middle" x="777.5" y="-7.5" font-family="Helvetica,sans-Serif" font-size="10.00">iostream</text>
</g>
<!-- Node4&#45;&gt;Node7 -->
<g id="edge6" class="edge"><title>Node4&#45;&gt;Node7</title>
<path fill="none" stroke="midnightblue" d="M807.555,-56.083C802.523,-48.5341 795.163,-37.4948 788.987,-28.2298"/>
<polygon fill="midnightblue" stroke="midnightblue" points="791.793,-26.1301 783.334,-19.7511 785.969,-30.0131 791.793,-26.1301"/>
</g>
<!-- Node8 -->
<g id="node8" class="node"><title>Node8</title>
<polygon fill="white" stroke="#bfbfbf" points="1078.5,-0.5 1078.5,-19.5 1134.5,-19.5 1134.5,-0.5 1078.5,-0.5"/>
<text text-anchor="middle" x="1106.5" y="-7.5" font-family="Helvetica,sans-Serif" font-size="10.00">sstream</text>
</g>
<!-- Node4&#45;&gt;Node8 -->
<g id="edge7" class="edge"><title>Node4&#45;&gt;Node8</title>
<path fill="none" stroke="midnightblue" d="M859.927,-56.4435C917.564,-45.821 1014.79,-27.9028 1068.31,-18.0382"/>
<polygon fill="midnightblue" stroke="midnightblue" points="1069.21,-21.4318 1078.41,-16.1772 1067.94,-14.5477 1069.21,-21.4318"/>
</g>
<!-- Node9 -->
<g id="node9" class="node"><title>Node9</title>
<polygon fill="white" stroke="#bfbfbf" points="825.5,-0.5 825.5,-19.5 873.5,-19.5 873.5,-0.5 825.5,-0.5"/>
<text text-anchor="middle" x="849.5" y="-7.5" font-family="Helvetica,sans-Serif" font-size="10.00">thread</text>
</g>
<!-- Node4&#45;&gt;Node9 -->
<g id="edge8" class="edge"><title>Node4&#45;&gt;Node9</title>
<path fill="none" stroke="midnightblue" d="M819.445,-56.083C824.477,-48.5341 831.837,-37.4948 838.013,-28.2298"/>
<polygon fill="midnightblue" stroke="midnightblue" points="841.031,-30.0131 843.666,-19.7511 835.207,-26.1301 841.031,-30.0131"/>
</g>
<!-- Node13&#45;&gt;Node10 -->
<g id="edge18" class="edge"><title>Node13&#45;&gt;Node10</title>
<path fill="none" stroke="midnightblue" d="M390.816,-251.987C368.517,-244.801 342.055,-232.031 328.5,-210 321.28,-198.265 321.429,-190.825 328.5,-179 335.676,-166.999 367.076,-151.591 391.635,-140.967"/>
<polygon fill="midnightblue" stroke="midnightblue" points="393.138,-144.132 400.981,-137.009 390.408,-137.686 393.138,-144.132"/>
</g>
<!-- Node13&#45;&gt;Node11 -->
<g id="edge19" class="edge"><title>Node13&#45;&gt;Node11</title>
<path fill="none" stroke="midnightblue" d="M334.326,-253.732C266.783,-246.929 183.481,-233.902 158.5,-210 141.635,-193.863 138.455,-165.883 138.425,-147.279"/>
<polygon fill="midnightblue" stroke="midnightblue" points="141.929,-147.194 138.72,-137.097 134.932,-146.991 141.929,-147.194"/>
</g>
<!-- Node14 -->
<g id="node14" class="node"><title>Node14</title>
<g id="a_node14"><a xlink:href="Index_8hpp.html" target="_top" xlink:title="Core/Utils/Index.hpp">
<polygon fill="white" stroke="black" points="168,-185 168,-204 281,-204 281,-185 168,-185"/>
<text text-anchor="middle" x="224.5" y="-192" font-family="Helvetica,sans-Serif" font-size="10.00">Core/Utils/Index.hpp</text>
</a>
</g>
</g>
<!-- Node13&#45;&gt;Node14 -->
<g id="edge13" class="edge"><title>Node13&#45;&gt;Node14</title>
<path fill="none" stroke="midnightblue" d="M401.41,-251.869C365.341,-240.376 301.418,-220.008 261.09,-207.159"/>
<polygon fill="midnightblue" stroke="midnightblue" points="261.967,-203.765 251.377,-204.064 259.842,-210.434 261.967,-203.765"/>
</g>
<!-- Node13&#45;&gt;Node18 -->
<g id="edge20" class="edge"><title>Node13&#45;&gt;Node18</title>
<path fill="none" stroke="midnightblue" d="M470.81,-251.974C512.802,-243.082 578.771,-227.948 634.5,-210 669.615,-198.691 676.14,-189.518 711.5,-179 773.446,-160.573 845.881,-146.96 897.687,-138.541"/>
<polygon fill="midnightblue" stroke="midnightblue" points="898.444,-141.964 907.764,-136.926 897.336,-135.052 898.444,-141.964"/>
</g>
<!-- Node19 -->
<g id="node19" class="node"><title>Node19</title>
<polygon fill="white" stroke="#bfbfbf" points="1256,-118 1256,-137 1303,-137 1303,-118 1256,-118"/>
<text text-anchor="middle" x="1279.5" y="-125" font-family="Helvetica,sans-Serif" font-size="10.00">vector</text>
</g>
<!-- Node13&#45;&gt;Node19 -->
<g id="edge22" class="edge"><title>Node13&#45;&gt;Node19</title>
<path fill="none" stroke="midnightblue" d="M496.645,-251.994C515.673,-249.816 536.374,-247.632 555.5,-246 696.547,-233.966 1061.41,-265.823 1191.5,-210 1209.99,-202.065 1209.76,-192.694 1224.5,-179 1237.22,-167.19 1251.67,-153.922 1262.57,-143.95"/>
<polygon fill="midnightblue" stroke="midnightblue" points="1265.11,-146.376 1270.13,-137.046 1260.39,-141.209 1265.11,-146.376"/>
</g>
<!-- Node20 -->
<g id="node20" class="node"><title>Node20</title>
<g id="a_node20"><a xlink:href="Types_8hpp.html" target="_top" xlink:title="Core/Types.hpp">
<polygon fill="white" stroke="black" points="537,-185 537,-204 626,-204 626,-185 537,-185"/>
<text text-anchor="middle" x="581.5" y="-192" font-family="Helvetica,sans-Serif" font-size="10.00">Core/Types.hpp</text>
</a>
</g>
</g>
<!-- Node13&#45;&gt;Node20 -->
<g id="edge23" class="edge"><title>Node13&#45;&gt;Node20</title>
<path fill="none" stroke="midnightblue" d="M448.817,-251.869C475.223,-240.65 521.532,-220.977 551.859,-208.092"/>
<polygon fill="midnightblue" stroke="midnightblue" points="553.263,-211.299 561.099,-204.167 550.526,-204.856 553.263,-211.299"/>
</g>
<!-- Node22 -->
<g id="node22" class="node"><title>Node22</title>
<g id="a_node22"><a xlink:href="Component_8inl.html" target="_top" xlink:title="Engine/Component/Component.inl">
<polygon fill="white" stroke="black" points="338,-185 338,-204 519,-204 519,-185 338,-185"/>
<text text-anchor="middle" x="428.5" y="-192" font-family="Helvetica,sans-Serif" font-size="10.00">Engine/Component/Component.inl</text>
</a>
</g>
</g>
<!-- Node13&#45;&gt;Node22 -->
<g id="edge28" class="edge"><title>Node13&#45;&gt;Node22</title>
<path fill="none" stroke="midnightblue" d="M423.711,-251.734C421.702,-242.183 421.236,-226.618 422.316,-214.283"/>
<polygon fill="midnightblue" stroke="midnightblue" points="425.817,-214.517 423.741,-204.127 418.885,-213.544 425.817,-214.517"/>
</g>
<!-- Node15 -->
<g id="node15" class="node"><title>Node15</title>
<g id="a_node15"><a xlink:href="RaCore_8hpp.html" target="_top" xlink:title="Core/RaCore.hpp">
<polygon fill="white" stroke="black" points="688.5,-118 688.5,-137 786.5,-137 786.5,-118 688.5,-118"/>
<text text-anchor="middle" x="737.5" y="-125" font-family="Helvetica,sans-Serif" font-size="10.00">Core/RaCore.hpp</text>
</a>
</g>
</g>
<!-- Node14&#45;&gt;Node15 -->
<g id="edge14" class="edge"><title>Node14&#45;&gt;Node15</title>
<path fill="none" stroke="midnightblue" d="M281.147,-185.394C296.504,-183.253 313.132,-180.987 328.5,-179 462.557,-161.666 496.41,-160.076 630.5,-143 645.983,-141.028 662.714,-138.805 678.242,-136.703"/>
<polygon fill="midnightblue" stroke="midnightblue" points="678.81,-140.158 688.248,-135.343 677.867,-133.222 678.81,-140.158"/>
</g>
<!-- Node16 -->
<g id="node16" class="node"><title>Node16</title>
<polygon fill="white" stroke="#bfbfbf" points="328.5,-118 328.5,-137 370.5,-137 370.5,-118 328.5,-118"/>
<text text-anchor="middle" x="349.5" y="-125" font-family="Helvetica,sans-Serif" font-size="10.00">limits</text>
</g>
<!-- Node14&#45;&gt;Node16 -->
<g id="edge16" class="edge"><title>Node14&#45;&gt;Node16</title>
<path fill="none" stroke="midnightblue" d="M241.099,-184.869C262.205,-173.893 298.876,-154.824 323.657,-141.938"/>
<polygon fill="midnightblue" stroke="midnightblue" points="325.575,-144.886 332.832,-137.167 322.345,-138.676 325.575,-144.886"/>
</g>
<!-- Node17 -->
<g id="node17" class="node"><title>Node17</title>
<g id="a_node17"><a xlink:href="Index_8inl.html" target="_top" xlink:title="Core/Utils/Index.inl">
<polygon fill="white" stroke="black" points="205,-118 205,-137 310,-137 310,-118 205,-118"/>
<text text-anchor="middle" x="257.5" y="-125" font-family="Helvetica,sans-Serif" font-size="10.00">Core/Utils/Index.inl</text>
</a>
</g>
</g>
<!-- Node14&#45;&gt;Node17 -->
<g id="edge17" class="edge"><title>Node14&#45;&gt;Node17</title>
<path fill="none" stroke="midnightblue" d="M228.951,-184.734C233.948,-174.89 242.188,-158.66 248.534,-146.159"/>
<polygon fill="midnightblue" stroke="midnightblue" points="251.714,-147.628 253.12,-137.127 245.472,-144.46 251.714,-147.628"/>
</g>
<!-- Node15&#45;&gt;Node4 -->
<g id="edge15" class="edge"><title>Node15&#45;&gt;Node4</title>
<path fill="none" stroke="midnightblue" d="M748.389,-117.975C760.466,-108.52 780.167,-93.0961 794.74,-81.6871"/>
<polygon fill="midnightblue" stroke="midnightblue" points="796.915,-84.4295 802.631,-75.5091 792.6,-78.9177 796.915,-84.4295"/>
</g>
<!-- Node18&#45;&gt;Node4 -->
<g id="edge21" class="edge"><title>Node18&#45;&gt;Node4</title>
<path fill="none" stroke="midnightblue" d="M944.579,-117.975C918.448,-107.813 874.588,-90.7564 844.87,-79.1996"/>
<polygon fill="midnightblue" stroke="midnightblue" points="845.969,-75.8716 835.381,-75.5091 843.432,-82.3956 845.969,-75.8716"/>
</g>
<!-- Node20&#45;&gt;Node10 -->
<g id="edge25" class="edge"><title>Node20&#45;&gt;Node10</title>
<path fill="none" stroke="midnightblue" d="M560.386,-184.869C532.869,-173.619 484.552,-153.867 453.041,-140.985"/>
<polygon fill="midnightblue" stroke="midnightblue" points="454.029,-137.608 443.448,-137.064 451.38,-144.088 454.029,-137.608"/>
</g>
<!-- Node20&#45;&gt;Node11 -->
<g id="edge26" class="edge"><title>Node20&#45;&gt;Node11</title>
<path fill="none" stroke="midnightblue" d="M553.104,-184.994C544.901,-182.778 535.896,-180.573 527.5,-179 381.617,-151.674 341.504,-169.672 195.5,-143 190.128,-142.019 184.512,-140.8 178.997,-139.489"/>
<polygon fill="midnightblue" stroke="midnightblue" points="179.805,-136.084 169.256,-137.061 178.113,-142.876 179.805,-136.084"/>
</g>
<!-- Node20&#45;&gt;Node15 -->
<g id="edge24" class="edge"><title>Node20&#45;&gt;Node15</title>
<path fill="none" stroke="midnightblue" d="M602.216,-184.869C629.139,-173.65 676.356,-153.977 707.278,-141.092"/>
<polygon fill="midnightblue" stroke="midnightblue" points="708.814,-144.244 716.699,-137.167 706.122,-137.783 708.814,-144.244"/>
</g>
<!-- Node21 -->
<g id="node21" class="node"><title>Node21</title>
<polygon fill="white" stroke="#bfbfbf" points="541.5,-118 541.5,-137 621.5,-137 621.5,-118 541.5,-118"/>
<text text-anchor="middle" x="581.5" y="-125" font-family="Helvetica,sans-Serif" font-size="10.00">Eigen/Sparse</text>
</g>
<!-- Node20&#45;&gt;Node21 -->
<g id="edge27" class="edge"><title>Node20&#45;&gt;Node21</title>
<path fill="none" stroke="midnightblue" d="M581.5,-184.734C581.5,-175.183 581.5,-159.618 581.5,-147.283"/>
<polygon fill="midnightblue" stroke="midnightblue" points="585,-147.127 581.5,-137.127 578,-147.127 585,-147.127"/>
</g>
<!-- Node22&#45;&gt;Node13 -->
<g id="edge29" class="edge"><title>Node22&#45;&gt;Node13</title>
<path fill="none" stroke="midnightblue" d="M433.259,-204.127C435.284,-213.62 435.764,-229.17 434.7,-241.537"/>
<polygon fill="midnightblue" stroke="midnightblue" points="431.193,-241.348 433.289,-251.734 438.127,-242.308 431.193,-241.348"/>
</g>
<!-- Node24&#45;&gt;Node18 -->
<g id="edge33" class="edge"><title>Node24&#45;&gt;Node18</title>
<path fill="none" stroke="midnightblue" d="M923.324,-251.915C933.224,-242.643 948.069,-226.913 955.5,-210 964.366,-189.821 966.539,-164.342 966.867,-147.293"/>
<polygon fill="midnightblue" stroke="midnightblue" points="970.367,-147.003 966.859,-137.006 963.367,-147.008 970.367,-147.003"/>
</g>
<!-- Node24&#45;&gt;Node19 -->
<g id="edge40" class="edge"><title>Node24&#45;&gt;Node19</title>
<path fill="none" stroke="midnightblue" d="M984.092,-252.037C1069.55,-241.329 1204.57,-222.748 1224.5,-210 1248.16,-194.866 1264.13,-165.521 1272.51,-146.483"/>
<polygon fill="midnightblue" stroke="midnightblue" points="1275.8,-147.7 1276.4,-137.122 1269.33,-145.018 1275.8,-147.7"/>
</g>
<!-- Node24&#45;&gt;Node20 -->
<g id="edge34" class="edge"><title>Node24&#45;&gt;Node20</title>
<path fill="none" stroke="midnightblue" d="M869.755,-251.936C809.335,-240.106 700.427,-218.784 635.163,-206.006"/>
<polygon fill="midnightblue" stroke="midnightblue" points="635.564,-202.518 625.077,-204.032 634.219,-209.388 635.564,-202.518"/>
</g>
<!-- Node25 -->
<g id="node25" class="node"><title>Node25</title>
<g id="a_node25"><a xlink:href="Singleton_8hpp.html" target="_top" xlink:title="Core/Utils/Singleton.hpp">
<polygon fill="white" stroke="black" points="720.5,-185 720.5,-204 852.5,-204 852.5,-185 720.5,-185"/>
<text text-anchor="middle" x="786.5" y="-192" font-family="Helvetica,sans-Serif" font-size="10.00">Core/Utils/Singleton.hpp</text>
</a>
</g>
</g>
<!-- Node24&#45;&gt;Node25 -->
<g id="edge35" class="edge"><title>Node24&#45;&gt;Node25</title>
<path fill="none" stroke="midnightblue" d="M896.635,-251.869C875.097,-240.845 837.604,-221.655 812.423,-208.768"/>
<polygon fill="midnightblue" stroke="midnightblue" points="813.931,-205.608 803.434,-204.167 810.742,-211.839 813.931,-205.608"/>
</g>
<!-- Node26 -->
<g id="node26" class="node"><title>Node26</title>
<polygon fill="white" stroke="#bfbfbf" points="908.5,-185 908.5,-204 946.5,-204 946.5,-185 908.5,-185"/>
<text text-anchor="middle" x="927.5" y="-192" font-family="Helvetica,sans-Serif" font-size="10.00">map</text>
</g>
<!-- Node24&#45;&gt;Node26 -->
<g id="edge37" class="edge"><title>Node24&#45;&gt;Node26</title>
<path fill="none" stroke="midnightblue" d="M915.388,-251.734C917.466,-242.085 920.866,-226.3 923.536,-213.906"/>
<polygon fill="midnightblue" stroke="midnightblue" points="926.958,-214.64 925.642,-204.127 920.115,-213.166 926.958,-214.64"/>
</g>
<!-- Node27 -->
<g id="node27" class="node"><title>Node27</title>
<polygon fill="white" stroke="#bfbfbf" points="1315,-185 1315,-204 1372,-204 1372,-185 1315,-185"/>
<text text-anchor="middle" x="1343.5" y="-192" font-family="Helvetica,sans-Serif" font-size="10.00">memory</text>
</g>
<!-- Node24&#45;&gt;Node27 -->
<g id="edge38" class="edge"><title>Node24&#45;&gt;Node27</title>
<path fill="none" stroke="midnightblue" d="M981.47,-251.98C1088.34,-238.534 1285.17,-213.548 1300.5,-210 1303.98,-209.194 1307.58,-208.218 1311.15,-207.158"/>
<polygon fill="midnightblue" stroke="midnightblue" points="1312.52,-210.394 1320.98,-204.018 1310.39,-203.726 1312.52,-210.394"/>
</g>
<!-- Node28 -->
<g id="node28" class="node"><title>Node28</title>
<polygon fill="white" stroke="#bfbfbf" points="1384.5,-118 1384.5,-137 1428.5,-137 1428.5,-118 1384.5,-118"/>
<text text-anchor="middle" x="1406.5" y="-125" font-family="Helvetica,sans-Serif" font-size="10.00">string</text>
</g>
<!-- Node24&#45;&gt;Node28 -->
<g id="edge39" class="edge"><title>Node24&#45;&gt;Node28</title>
<path fill="none" stroke="midnightblue" d="M980.448,-251.977C1072.14,-240.085 1228.35,-218.969 1253.5,-210 1278.84,-200.963 1281.9,-191.914 1305.5,-179 1330.15,-165.516 1358.85,-151.303 1379.34,-141.404"/>
<polygon fill="midnightblue" stroke="midnightblue" points="1380.92,-144.531 1388.41,-137.045 1377.88,-138.221 1380.92,-144.531"/>
</g>
<!-- Node25&#45;&gt;Node15 -->
<g id="edge36" class="edge"><title>Node25&#45;&gt;Node15</title>
<path fill="none" stroke="midnightblue" d="M779.892,-184.734C772.324,-174.695 759.749,-158.014 750.256,-145.421"/>
<polygon fill="midnightblue" stroke="midnightblue" points="752.818,-143.006 744.004,-137.127 747.228,-147.219 752.818,-143.006"/>
</g>
<!-- Node29&#45;&gt;Node18 -->
<g id="edge42" class="edge"><title>Node29&#45;&gt;Node18</title>
<path fill="none" stroke="midnightblue" d="M1202.29,-386.516C1163.07,-379.722 1117.97,-367.17 1082.5,-344 1010.66,-297.074 979.976,-190.074 970.222,-146.985"/>
<polygon fill="midnightblue" stroke="midnightblue" points="973.611,-146.098 968.094,-137.053 966.767,-147.565 973.611,-146.098"/>
</g>
<!-- Node29&#45;&gt;Node19 -->
<g id="edge44" class="edge"><title>Node29&#45;&gt;Node19</title>
<path fill="none" stroke="midnightblue" d="M1313.19,-380.346C1325.32,-371.336 1339.73,-358.627 1348.5,-344 1386.91,-279.933 1419.77,-242.543 1380.5,-179 1365.87,-155.321 1336.39,-142.374 1313.05,-135.538"/>
<polygon fill="midnightblue" stroke="midnightblue" points="1313.72,-132.094 1303.15,-132.889 1311.91,-138.856 1313.72,-132.094"/>
</g>
<!-- Node29&#45;&gt;Node20 -->
<g id="edge51" class="edge"><title>Node29&#45;&gt;Node20</title>
<path fill="none" stroke="midnightblue" d="M1202.36,-382.473C1143.95,-373.775 1066.17,-360.642 998.5,-344 904.188,-320.805 882.006,-309.546 790.5,-277 726.092,-254.092 651.752,-224.283 611.379,-207.806"/>
<polygon fill="midnightblue" stroke="midnightblue" points="612.691,-204.561 602.11,-204.014 610.04,-211.04 612.691,-204.561"/>
</g>
<!-- Node30 -->
<g id="node30" class="node"><title>Node30</title>
<polygon fill="white" stroke="#bfbfbf" points="1621.5,-118 1621.5,-137 1653.5,-137 1653.5,-118 1621.5,-118"/>
<text text-anchor="middle" x="1637.5" y="-125" font-family="Helvetica,sans-Serif" font-size="10.00">set</text>
</g>
<!-- Node29&#45;&gt;Node30 -->
<g id="edge43" class="edge"><title>Node29&#45;&gt;Node30</title>
<path fill="none" stroke="midnightblue" d="M1380.89,-390.291C1463.95,-384.684 1580.02,-371.989 1615.5,-344 1676.19,-296.121 1692.56,-253.086 1670.5,-179 1666.79,-166.525 1658.9,-154.26 1651.77,-144.942"/>
<polygon fill="midnightblue" stroke="midnightblue" points="1654.34,-142.56 1645.32,-137 1648.91,-146.971 1654.34,-142.56"/>
</g>
<!-- Node31 -->
<g id="node31" class="node"><title>Node31</title>
<g id="a_node31"><a xlink:href="AlignedAllocator_8hpp.html" target="_top" xlink:title="Core/Containers/AlignedAllocator.hpp">
<polygon fill="white" stroke="black" points="1091.5,-319 1091.5,-338 1285.5,-338 1285.5,-319 1091.5,-319"/>
<text text-anchor="middle" x="1188.5" y="-326" font-family="Helvetica,sans-Serif" font-size="10.00">Core/Containers/AlignedAllocator.hpp</text>
</a>
</g>
</g>
<!-- Node29&#45;&gt;Node31 -->
<g id="edge45" class="edge"><title>Node29&#45;&gt;Node31</title>
<path fill="none" stroke="midnightblue" d="M1269.15,-380.396C1251.88,-369.496 1228.08,-354.479 1210.82,-343.584"/>
<polygon fill="midnightblue" stroke="midnightblue" points="1212.31,-340.384 1201.98,-338.007 1208.57,-346.304 1212.31,-340.384"/>
</g>
<!-- Node36 -->
<g id="node36" class="node"><title>Node36</title>
<g id="a_node36"><a xlink:href="Log_8hpp.html" target="_top" xlink:title="Core/Utils/Log.hpp">
<polygon fill="white" stroke="black" points="1078.5,-185 1078.5,-204 1182.5,-204 1182.5,-185 1078.5,-185"/>
<text text-anchor="middle" x="1130.5" y="-192" font-family="Helvetica,sans-Serif" font-size="10.00">Core/Utils/Log.hpp</text>
</a>
</g>
</g>
<!-- Node29&#45;&gt;Node36 -->
<g id="edge52" class="edge"><title>Node29&#45;&gt;Node36</title>
<path fill="none" stroke="midnightblue" d="M1303.16,-380.244C1324.92,-351.804 1366.76,-287.216 1334.5,-246 1317.12,-223.799 1246.39,-209.999 1193.04,-202.547"/>
<polygon fill="midnightblue" stroke="midnightblue" points="1193.34,-199.056 1182.97,-201.185 1192.41,-205.993 1193.34,-199.056"/>
</g>
<!-- Node39 -->
<g id="node39" class="node"><title>Node39</title>
<g id="a_node39"><a xlink:href="RenderParameters_8inl.html" target="_top" xlink:title="Engine/Renderer/RenderTechnique\l/RenderParameters.inl">
<polygon fill="white" stroke="black" points="1428.5,-313.5 1428.5,-343.5 1606.5,-343.5 1606.5,-313.5 1428.5,-313.5"/>
<text text-anchor="start" x="1436.5" y="-331.5" font-family="Helvetica,sans-Serif" font-size="10.00">Engine/Renderer/RenderTechnique</text>
<text text-anchor="middle" x="1517.5" y="-320.5" font-family="Helvetica,sans-Serif" font-size="10.00">/RenderParameters.inl</text>
</a>
</g>
</g>
<!-- Node29&#45;&gt;Node39 -->
<g id="edge58" class="edge"><title>Node29&#45;&gt;Node39</title>
<path fill="none" stroke="midnightblue" d="M1340.26,-380.476C1375.04,-370.472 1421.98,-356.971 1458.82,-346.377"/>
<polygon fill="midnightblue" stroke="midnightblue" points="1459.79,-349.739 1468.44,-343.611 1457.86,-343.011 1459.79,-349.739"/>
</g>
<!-- Node31&#45;&gt;Node15 -->
<g id="edge46" class="edge"><title>Node31&#45;&gt;Node15</title>
<path fill="none" stroke="midnightblue" d="M1091.47,-326.174C1018.23,-322.248 916.505,-310.44 833.5,-277 811.647,-268.196 810.874,-257.831 790.5,-246 757.133,-226.624 732.374,-242.451 711.5,-210 698.619,-189.976 712.067,-163.07 723.919,-145.754"/>
<polygon fill="midnightblue" stroke="midnightblue" points="727.08,-147.362 730.163,-137.226 721.432,-143.227 727.08,-147.362"/>
</g>
<!-- Node32 -->
<g id="node32" class="node"><title>Node32</title>
<polygon fill="white" stroke="#bfbfbf" points="1106.5,-252 1106.5,-271 1188.5,-271 1188.5,-252 1106.5,-252"/>
<text text-anchor="middle" x="1147.5" y="-259" font-family="Helvetica,sans-Serif" font-size="10.00">mm_malloc.h</text>
</g>
<!-- Node31&#45;&gt;Node32 -->
<g id="edge47" class="edge"><title>Node31&#45;&gt;Node32</title>
<path fill="none" stroke="midnightblue" d="M1182.97,-318.734C1176.7,-308.793 1166.32,-292.338 1158.41,-279.789"/>
<polygon fill="midnightblue" stroke="midnightblue" points="1161.24,-277.718 1152.94,-271.127 1155.32,-281.453 1161.24,-277.718"/>
</g>
<!-- Node33 -->
<g id="node33" class="node"><title>Node33</title>
<polygon fill="white" stroke="#bfbfbf" points="1206.5,-252 1206.5,-271 1258.5,-271 1258.5,-252 1206.5,-252"/>
<text text-anchor="middle" x="1232.5" y="-259" font-family="Helvetica,sans-Serif" font-size="10.00">cstddef</text>
</g>
<!-- Node31&#45;&gt;Node33 -->
<g id="edge48" class="edge"><title>Node31&#45;&gt;Node33</title>
<path fill="none" stroke="midnightblue" d="M1194.43,-318.734C1201.23,-308.695 1212.52,-292.014 1221.05,-279.421"/>
<polygon fill="midnightblue" stroke="midnightblue" points="1223.95,-281.37 1226.66,-271.127 1218.16,-277.446 1223.95,-281.37"/>
</g>
<!-- Node34 -->
<g id="node34" class="node"><title>Node34</title>
<polygon fill="white" stroke="#bfbfbf" points="1277,-252 1277,-271 1326,-271 1326,-252 1277,-252"/>
<text text-anchor="middle" x="1301.5" y="-259" font-family="Helvetica,sans-Serif" font-size="10.00">cstdint</text>
</g>
<!-- Node31&#45;&gt;Node34 -->
<g id="edge49" class="edge"><title>Node31&#45;&gt;Node34</title>
<path fill="none" stroke="midnightblue" d="M1203.74,-318.734C1222.72,-307.818 1255.35,-289.049 1277.65,-276.221"/>
<polygon fill="midnightblue" stroke="midnightblue" points="1279.58,-279.147 1286.5,-271.127 1276.09,-273.08 1279.58,-279.147"/>
</g>
<!-- Node35 -->
<g id="node35" class="node"><title>Node35</title>
<polygon fill="white" stroke="#bfbfbf" points="1041,-252 1041,-271 1088,-271 1088,-252 1041,-252"/>
<text text-anchor="middle" x="1064.5" y="-259" font-family="Helvetica,sans-Serif" font-size="10.00">cstdlib</text>
</g>
<!-- Node31&#45;&gt;Node35 -->
<g id="edge50" class="edge"><title>Node31&#45;&gt;Node35</title>
<path fill="none" stroke="midnightblue" d="M1172.03,-318.869C1151.1,-307.893 1114.72,-288.824 1090.14,-275.938"/>
<polygon fill="midnightblue" stroke="midnightblue" points="1091.52,-272.71 1081.03,-271.167 1088.27,-278.91 1091.52,-272.71"/>
</g>
<!-- Node36&#45;&gt;Node8 -->
<g id="edge55" class="edge"><title>Node36&#45;&gt;Node8</title>
<path fill="none" stroke="midnightblue" d="M1138.32,-185C1146.43,-175.557 1158.6,-159.462 1163.5,-143 1167.43,-129.795 1167,-125.326 1163.5,-112 1155.01,-79.7011 1133.6,-46.8587 1119.57,-27.7348"/>
<polygon fill="midnightblue" stroke="midnightblue" points="1122.18,-25.3856 1113.36,-19.5112 1116.59,-29.6019 1122.18,-25.3856"/>
</g>
<!-- Node36&#45;&gt;Node15 -->
<g id="edge53" class="edge"><title>Node36&#45;&gt;Node15</title>
<path fill="none" stroke="midnightblue" d="M1078.72,-184.936C1005.81,-172.877 873.258,-150.954 796.589,-138.273"/>
<polygon fill="midnightblue" stroke="midnightblue" points="797.047,-134.801 786.61,-136.623 795.905,-141.708 797.047,-134.801"/>
</g>
<!-- Node36&#45;&gt;Node28 -->
<g id="edge57" class="edge"><title>Node36&#45;&gt;Node28</title>
<path fill="none" stroke="midnightblue" d="M1166.87,-184.936C1221.23,-172.132 1322.82,-148.206 1374.52,-136.032"/>
<polygon fill="midnightblue" stroke="midnightblue" points="1375.53,-139.39 1384.46,-133.691 1373.92,-132.577 1375.53,-139.39"/>
</g>
<!-- Node37 -->
<g id="node37" class="node"><title>Node37</title>
<polygon fill="white" stroke="#bfbfbf" points="1043.5,-118 1043.5,-137 1087.5,-137 1087.5,-118 1043.5,-118"/>
<text text-anchor="middle" x="1065.5" y="-125" font-family="Helvetica,sans-Serif" font-size="10.00">ctime</text>
</g>
<!-- Node36&#45;&gt;Node37 -->
<g id="edge54" class="edge"><title>Node36&#45;&gt;Node37</title>
<path fill="none" stroke="midnightblue" d="M1121.73,-184.734C1111.4,-174.403 1094.04,-157.037 1081.33,-144.332"/>
<polygon fill="midnightblue" stroke="midnightblue" points="1083.67,-141.724 1074.13,-137.127 1078.72,-146.673 1083.67,-141.724"/>
</g>
<!-- Node38 -->
<g id="node38" class="node"><title>Node38</title>
<polygon fill="white" stroke="#bfbfbf" points="1106,-118 1106,-137 1155,-137 1155,-118 1106,-118"/>
<text text-anchor="middle" x="1130.5" y="-125" font-family="Helvetica,sans-Serif" font-size="10.00">stdio.h</text>
</g>
<!-- Node36&#45;&gt;Node38 -->
<g id="edge56" class="edge"><title>Node36&#45;&gt;Node38</title>
<path fill="none" stroke="midnightblue" d="M1130.5,-184.734C1130.5,-175.183 1130.5,-159.618 1130.5,-147.283"/>
<polygon fill="midnightblue" stroke="midnightblue" points="1134,-147.127 1130.5,-137.127 1127,-147.127 1134,-147.127"/>
</g>
<!-- Node40 -->
<g id="node40" class="node"><title>Node40</title>
<g id="a_node40"><a xlink:href="ShaderProgram_8hpp.html" target="_top" xlink:title="Engine/Renderer/RenderTechnique\l/ShaderProgram.hpp">
<polygon fill="white" stroke="black" points="1428.5,-246.5 1428.5,-276.5 1606.5,-276.5 1606.5,-246.5 1428.5,-246.5"/>
<text text-anchor="start" x="1436.5" y="-264.5" font-family="Helvetica,sans-Serif" font-size="10.00">Engine/Renderer/RenderTechnique</text>
<text text-anchor="middle" x="1517.5" y="-253.5" font-family="Helvetica,sans-Serif" font-size="10.00">/ShaderProgram.hpp</text>
</a>
</g>
</g>
<!-- Node39&#45;&gt;Node40 -->
<g id="edge59" class="edge"><title>Node39&#45;&gt;Node40</title>
<path fill="none" stroke="midnightblue" d="M1517.5,-313.396C1517.5,-305.645 1517.5,-295.812 1517.5,-286.86"/>
<polygon fill="midnightblue" stroke="midnightblue" points="1521,-286.576 1517.5,-276.577 1514,-286.577 1521,-286.576"/>
</g>
<!-- Node40&#45;&gt;Node18 -->
<g id="edge60" class="edge"><title>Node40&#45;&gt;Node18</title>
<path fill="none" stroke="midnightblue" d="M1428.32,-253.098C1307.15,-242.635 1101.82,-223.315 1069.5,-210 1059.89,-206.042 1011.75,-166.403 984.818,-143.901"/>
<polygon fill="midnightblue" stroke="midnightblue" points="986.808,-141.002 976.894,-137.264 982.313,-146.368 986.808,-141.002"/>
</g>
<!-- Node40&#45;&gt;Node20 -->
<g id="edge61" class="edge"><title>Node40&#45;&gt;Node20</title>
<path fill="none" stroke="midnightblue" d="M1428.17,-253.038C1398.39,-250.653 1365.02,-248.091 1334.5,-246 1057.8,-227.045 987.864,-233.381 711.5,-210 686.762,-207.907 659.445,-204.957 636.263,-202.264"/>
<polygon fill="midnightblue" stroke="midnightblue" points="636.605,-198.781 626.265,-201.089 635.788,-205.733 636.605,-198.781"/>
</g>
<!-- Node40&#45;&gt;Node27 -->
<g id="edge74" class="edge"><title>Node40&#45;&gt;Node27</title>
<path fill="none" stroke="midnightblue" d="M1479.74,-246.396C1448.67,-234.789 1405.11,-218.515 1375.67,-207.519"/>
<polygon fill="midnightblue" stroke="midnightblue" points="1376.87,-204.228 1366.27,-204.007 1374.42,-210.785 1376.87,-204.228"/>
</g>
<!-- Node40&#45;&gt;Node28 -->
<g id="edge75" class="edge"><title>Node40&#45;&gt;Node28</title>
<path fill="none" stroke="midnightblue" d="M1497.76,-246.409C1485.34,-236.965 1469.46,-223.774 1457.5,-210 1440.12,-189.985 1424.67,-163.434 1415.45,-146.162"/>
<polygon fill="midnightblue" stroke="midnightblue" points="1418.5,-144.435 1410.77,-137.184 1412.29,-147.67 1418.5,-144.435"/>
</g>
<!-- Node41 -->
<g id="node41" class="node"><title>Node41</title>
<g id="a_node41"><a xlink:href="OpenGL_8hpp.html" target="_top" xlink:title="Engine/Renderer/OpenGL\l/OpenGL.hpp">
<polygon fill="white" stroke="black" points="1757.5,-179.5 1757.5,-209.5 1893.5,-209.5 1893.5,-179.5 1757.5,-179.5"/>
<text text-anchor="start" x="1765.5" y="-197.5" font-family="Helvetica,sans-Serif" font-size="10.00">Engine/Renderer/OpenGL</text>
<text text-anchor="middle" x="1825.5" y="-186.5" font-family="Helvetica,sans-Serif" font-size="10.00">/OpenGL.hpp</text>
</a>
</g>
</g>
<!-- Node40&#45;&gt;Node41 -->
<g id="edge62" class="edge"><title>Node40&#45;&gt;Node41</title>
<path fill="none" stroke="midnightblue" d="M1583.95,-246.476C1632.45,-236.242 1698.28,-222.348 1748.97,-211.65"/>
<polygon fill="midnightblue" stroke="midnightblue" points="1749.84,-215.044 1758.9,-209.555 1748.39,-208.195 1749.84,-215.044"/>
</g>
<!-- Node45 -->
<g id="node45" class="node"><title>Node45</title>
<g id="a_node45"><a xlink:href="ShaderConfiguration_8hpp.html" target="_top" xlink:title="Engine/Renderer/RenderTechnique\l/ShaderConfiguration.hpp">
<polygon fill="white" stroke="black" points="1466.5,-179.5 1466.5,-209.5 1644.5,-209.5 1644.5,-179.5 1466.5,-179.5"/>
<text text-anchor="start" x="1474.5" y="-197.5" font-family="Helvetica,sans-Serif" font-size="10.00">Engine/Renderer/RenderTechnique</text>
<text text-anchor="middle" x="1555.5" y="-186.5" font-family="Helvetica,sans-Serif" font-size="10.00">/ShaderConfiguration.hpp</text>
</a>
</g>
</g>
<!-- Node40&#45;&gt;Node45 -->
<g id="edge66" class="edge"><title>Node40&#45;&gt;Node45</title>
<path fill="none" stroke="midnightblue" d="M1525.75,-246.396C1530.53,-238.219 1536.66,-227.725 1542.12,-218.393"/>
<polygon fill="midnightblue" stroke="midnightblue" points="1545.25,-219.976 1547.27,-209.577 1539.2,-216.443 1545.25,-219.976"/>
</g>
<!-- Node46 -->
<g id="node46" class="node"><title>Node46</title>
<polygon fill="white" stroke="#bfbfbf" points="1562,-118 1562,-137 1603,-137 1603,-118 1562,-118"/>
<text text-anchor="middle" x="1582.5" y="-125" font-family="Helvetica,sans-Serif" font-size="10.00">array</text>
</g>
<!-- Node40&#45;&gt;Node46 -->
<g id="edge73" class="edge"><title>Node40&#45;&gt;Node46</title>
<path fill="none" stroke="midnightblue" d="M1602.47,-246.399C1622.4,-238.913 1641.35,-227.473 1653.5,-210 1661.37,-198.688 1659.82,-191.244 1653.5,-179 1648.32,-168.949 1624.96,-153.41 1606.44,-142.224"/>
<polygon fill="midnightblue" stroke="midnightblue" points="1608.22,-139.211 1597.83,-137.125 1604.65,-145.233 1608.22,-139.211"/>
</g>
<!-- Node42 -->
<g id="node42" class="node"><title>Node42</title>
<polygon fill="white" stroke="#bfbfbf" points="1671.5,-118 1671.5,-137 1795.5,-137 1795.5,-118 1671.5,-118"/>
<text text-anchor="middle" x="1733.5" y="-125" font-family="Helvetica,sans-Serif" font-size="10.00">glbinding/gl45core/gl.h</text>
</g>
<!-- Node41&#45;&gt;Node42 -->
<g id="edge63" class="edge"><title>Node41&#45;&gt;Node42</title>
<path fill="none" stroke="midnightblue" d="M1805.54,-179.396C1790.25,-168.597 1769.25,-153.756 1753.86,-142.887"/>
<polygon fill="midnightblue" stroke="midnightblue" points="1755.73,-139.919 1745.54,-137.007 1751.69,-145.636 1755.73,-139.919"/>
</g>
<!-- Node43 -->
<g id="node43" class="node"><title>Node43</title>
<polygon fill="white" stroke="#bfbfbf" points="1813.5,-118 1813.5,-137 1931.5,-137 1931.5,-118 1813.5,-118"/>
<text text-anchor="middle" x="1872.5" y="-125" font-family="Helvetica,sans-Serif" font-size="10.00">glbinding/gl45ext/gl.h</text>
</g>
<!-- Node41&#45;&gt;Node43 -->
<g id="edge64" class="edge"><title>Node41&#45;&gt;Node43</title>
<path fill="none" stroke="midnightblue" d="M1835.7,-179.396C1842.88,-169.462 1852.54,-156.108 1860.16,-145.572"/>
<polygon fill="midnightblue" stroke="midnightblue" points="1863.19,-147.349 1866.21,-137.195 1857.52,-143.247 1863.19,-147.349"/>
</g>
<!-- Node44 -->
<g id="node44" class="node"><title>Node44</title>
<polygon fill="white" stroke="#bfbfbf" points="1949.5,-112.5 1949.5,-142.5 2059.5,-142.5 2059.5,-112.5 1949.5,-112.5"/>
<text text-anchor="start" x="1957.5" y="-130.5" font-family="Helvetica,sans-Serif" font-size="10.00">glbinding&#45;aux/types</text>
<text text-anchor="middle" x="2004.5" y="-119.5" font-family="Helvetica,sans-Serif" font-size="10.00">_to_string.h</text>
</g>
<!-- Node41&#45;&gt;Node44 -->
<g id="edge65" class="edge"><title>Node41&#45;&gt;Node44</title>
<path fill="none" stroke="midnightblue" d="M1864.34,-179.396C1891.32,-169.601 1927.44,-156.481 1956.27,-146.015"/>
<polygon fill="midnightblue" stroke="midnightblue" points="1957.53,-149.28 1965.74,-142.577 1955.14,-142.7 1957.53,-149.28"/>
</g>
<!-- Node45&#45;&gt;Node18 -->
<g id="edge67" class="edge"><title>Node45&#45;&gt;Node18</title>
<path fill="none" stroke="midnightblue" d="M1466.38,-186.094C1340.07,-175.385 1115.33,-155.494 1034.5,-143 1027.36,-141.897 1019.85,-140.518 1012.53,-139.052"/>
<polygon fill="midnightblue" stroke="midnightblue" points="1013.21,-135.619 1002.71,-137.017 1011.79,-142.474 1013.21,-135.619"/>
</g>
<!-- Node45&#45;&gt;Node19 -->
<g id="edge72" class="edge"><title>Node45&#45;&gt;Node19</title>
<path fill="none" stroke="midnightblue" d="M1495.95,-179.476C1440.09,-166.319 1358.53,-147.113 1313.15,-136.425"/>
<polygon fill="midnightblue" stroke="midnightblue" points="1313.77,-132.975 1303.23,-134.09 1312.17,-139.789 1313.77,-132.975"/>
</g>
<!-- Node45&#45;&gt;Node28 -->
<g id="edge71" class="edge"><title>Node45&#45;&gt;Node28</title>
<path fill="none" stroke="midnightblue" d="M1523.17,-179.396C1497.03,-167.991 1460.55,-152.079 1435.38,-141.098"/>
<polygon fill="midnightblue" stroke="midnightblue" points="1436.57,-137.798 1426,-137.007 1433.77,-144.214 1436.57,-137.798"/>
</g>
<!-- Node45&#45;&gt;Node30 -->
<g id="edge70" class="edge"><title>Node45&#45;&gt;Node30</title>
<path fill="none" stroke="midnightblue" d="M1573.29,-179.396C1586.58,-168.86 1604.73,-154.477 1618.34,-143.689"/>
<polygon fill="midnightblue" stroke="midnightblue" points="1620.87,-146.149 1626.53,-137.195 1616.52,-140.664 1620.87,-146.149"/>
</g>
<!-- Node45&#45;&gt;Node46 -->
<g id="edge68" class="edge"><title>Node45&#45;&gt;Node46</title>
<path fill="none" stroke="midnightblue" d="M1561.36,-179.396C1565.36,-169.763 1570.7,-156.914 1575.01,-146.537"/>
<polygon fill="midnightblue" stroke="midnightblue" points="1578.28,-147.772 1578.89,-137.195 1571.82,-145.087 1578.28,-147.772"/>
</g>
<!-- Node47 -->
<g id="node47" class="node"><title>Node47</title>
<polygon fill="white" stroke="#bfbfbf" points="1513.5,-118 1513.5,-137 1543.5,-137 1543.5,-118 1513.5,-118"/>
<text text-anchor="middle" x="1528.5" y="-125" font-family="Helvetica,sans-Serif" font-size="10.00">list</text>
</g>
<!-- Node45&#45;&gt;Node47 -->
<g id="edge69" class="edge"><title>Node45&#45;&gt;Node47</title>
<path fill="none" stroke="midnightblue" d="M1549.64,-179.396C1545.64,-169.763 1540.3,-156.914 1535.99,-146.537"/>
<polygon fill="midnightblue" stroke="midnightblue" points="1539.18,-145.087 1532.11,-137.195 1532.72,-147.772 1539.18,-145.087"/>
</g>
</g>
</svg>
