<?xml version="1.0" encoding="UTF-8" standalone="no"?>
<!DOCTYPE svg PUBLIC "-//W3C//DTD SVG 1.1//EN"
 "http://www.w3.org/Graphics/SVG/1.1/DTD/svg11.dtd">
<!-- Generated by graphviz version 2.38.0 (20140413.2041)
 -->
<!-- Title: /home/travis/build/STORM&#45;IRIT/Radium&#45;Engine/src/Engine/Renderer/Light/Light.hpp Pages: 1 -->
<svg width="871pt" height="352pt"
 viewBox="0.00 0.00 870.50 352.00" xmlns="http://www.w3.org/2000/svg" xmlns:xlink="http://www.w3.org/1999/xlink">
<g id="graph0" class="graph" transform="scale(1 1) rotate(0) translate(4 348)">
<title>/home/travis/build/STORM&#45;IRIT/Radium&#45;Engine/src/Engine/Renderer/Light/Light.hpp</title>
<polygon fill="white" stroke="none" points="-4,4 -4,-348 866.5,-348 866.5,4 -4,4"/>
<!-- Node1 -->
<g id="node1" class="node"><title>Node1</title>
<polygon fill="#bfbfbf" stroke="black" points="250,-291.5 250,-343.5 398,-343.5 398,-291.5 250,-291.5"/>
<text text-anchor="start" x="258" y="-331.5" font-family="Helvetica,sans-Serif" font-size="10.00">/home/travis/build</text>
<text text-anchor="start" x="258" y="-320.5" font-family="Helvetica,sans-Serif" font-size="10.00">/STORM&#45;IRIT/Radium&#45;Engine</text>
<text text-anchor="start" x="258" y="-309.5" font-family="Helvetica,sans-Serif" font-size="10.00">/src/Engine/Renderer/Light</text>
<text text-anchor="middle" x="324" y="-298.5" font-family="Helvetica,sans-Serif" font-size="10.00">/Light.hpp</text>
</g>
<!-- Node2 -->
<g id="node2" class="node"><title>Node2</title>
<g id="a_node2"><a xlink:href="Color_8hpp.html" target="_top" xlink:title="Core/Utils/Color.hpp">
<polygon fill="white" stroke="black" points="37.5,-168.5 37.5,-187.5 148.5,-187.5 148.5,-168.5 37.5,-168.5"/>
<text text-anchor="middle" x="93" y="-175.5" font-family="Helvetica,sans-Serif" font-size="10.00">Core/Utils/Color.hpp</text>
</a>
</g>
</g>
<!-- Node1&#45;&gt;Node2 -->
<g id="edge1" class="edge"><title>Node1&#45;&gt;Node2</title>
<path fill="none" stroke="midnightblue" d="M281.9,-291.44C233.313,-262.52 155.138,-215.987 116.364,-192.907"/>
<polygon fill="midnightblue" stroke="midnightblue" points="117.78,-189.677 107.397,-187.569 114.199,-195.692 117.78,-189.677"/>
</g>
<!-- Node12 -->
<g id="node12" class="node"><title>Node12</title>
<g id="a_node12"><a xlink:href="Component_8hpp.html" target="_top" xlink:title="Engine/Component/Component.hpp">
<polygon fill="white" stroke="black" points="292,-230 292,-249 480,-249 480,-230 292,-230"/>
<text text-anchor="middle" x="386" y="-237" font-family="Helvetica,sans-Serif" font-size="10.00">Engine/Component/Component.hpp</text>
</a>
</g>
</g>
<!-- Node1&#45;&gt;Node12 -->
<g id="edge11" class="edge"><title>Node1&#45;&gt;Node12</title>
<path fill="none" stroke="midnightblue" d="M344.645,-291.193C353.8,-279.972 364.315,-267.082 372.452,-257.108"/>
<polygon fill="midnightblue" stroke="midnightblue" points="375.286,-259.17 378.895,-249.209 369.862,-254.745 375.286,-259.17"/>
</g>
<!-- Node17 -->
<g id="node17" class="node"><title>Node17</title>
<g id="a_node17"><a xlink:href="RaEngine_8hpp.html" target="_top" xlink:title="Engine/RaEngine.hpp">
<polygon fill="white" stroke="black" points="166.5,-168.5 166.5,-187.5 283.5,-187.5 283.5,-168.5 166.5,-168.5"/>
<text text-anchor="middle" x="225" y="-175.5" font-family="Helvetica,sans-Serif" font-size="10.00">Engine/RaEngine.hpp</text>
</a>
</g>
</g>
<!-- Node1&#45;&gt;Node17 -->
<g id="edge29" class="edge"><title>Node1&#45;&gt;Node17</title>
<path fill="none" stroke="midnightblue" d="M305.842,-291.28C285.933,-263.629 254.533,-220.018 237.312,-196.1"/>
<polygon fill="midnightblue" stroke="midnightblue" points="239.947,-193.769 231.263,-187.699 234.266,-197.859 239.947,-193.769"/>
</g>
<!-- Node22 -->
<g id="node22" class="node"><title>Node22</title>
<g id="a_node22"><a xlink:href="Light_8inl.html" target="_top" xlink:title="Engine/Renderer/Light\l/Light.inl">
<polygon fill="white" stroke="black" points="498.5,-224.5 498.5,-254.5 619.5,-254.5 619.5,-224.5 498.5,-224.5"/>
<text text-anchor="start" x="506.5" y="-242.5" font-family="Helvetica,sans-Serif" font-size="10.00">Engine/Renderer/Light</text>
<text text-anchor="middle" x="559" y="-231.5" font-family="Helvetica,sans-Serif" font-size="10.00">/Light.inl</text>
</a>
</g>
</g>
<!-- Node1&#45;&gt;Node22 -->
<g id="edge30" class="edge"><title>Node1&#45;&gt;Node22</title>
<path fill="none" stroke="midnightblue" d="M398.033,-292.557C433.025,-281.241 474.005,-267.988 505.858,-257.686"/>
<polygon fill="midnightblue" stroke="midnightblue" points="506.997,-260.997 515.434,-254.589 504.843,-254.336 506.997,-260.997"/>
</g>
<!-- Node3 -->
<g id="node3" class="node"><title>Node3</title>
<g id="a_node3"><a xlink:href="CoreMacros_8hpp.html" target="_top" xlink:title="Core/CoreMacros.hpp">
<polygon fill="white" stroke="black" points="103,-56.5 103,-75.5 223,-75.5 223,-56.5 103,-56.5"/>
<text text-anchor="middle" x="163" y="-63.5" font-family="Helvetica,sans-Serif" font-size="10.00">Core/CoreMacros.hpp</text>
</a>
</g>
</g>
<!-- Node2&#45;&gt;Node3 -->
<g id="edge2" class="edge"><title>Node2&#45;&gt;Node3</title>
<path fill="none" stroke="midnightblue" d="M85.8958,-168.442C76.0307,-155.453 60.6125,-130.335 72,-112 81.7166,-96.3554 98.6621,-85.9849 115.316,-79.1896"/>
<polygon fill="midnightblue" stroke="midnightblue" points="116.871,-82.346 125.032,-75.5889 114.439,-75.7823 116.871,-82.346"/>
</g>
<!-- Node9 -->
<g id="node9" class="node"><title>Node9</title>
<polygon fill="white" stroke="#bfbfbf" points="303,-112.5 303,-131.5 371,-131.5 371,-112.5 303,-112.5"/>
<text text-anchor="middle" x="337" y="-119.5" font-family="Helvetica,sans-Serif" font-size="10.00">Eigen/Core</text>
</g>
<!-- Node2&#45;&gt;Node9 -->
<g id="edge8" class="edge"><title>Node2&#45;&gt;Node9</title>
<path fill="none" stroke="midnightblue" d="M131.663,-168.444C175.513,-158.739 246.877,-142.945 292.872,-132.766"/>
<polygon fill="midnightblue" stroke="midnightblue" points="293.842,-136.136 302.849,-130.558 292.329,-129.302 293.842,-136.136"/>
</g>
<!-- Node10 -->
<g id="node10" class="node"><title>Node10</title>
<polygon fill="white" stroke="#bfbfbf" points="191,-112.5 191,-131.5 285,-131.5 285,-112.5 191,-112.5"/>
<text text-anchor="middle" x="238" y="-119.5" font-family="Helvetica,sans-Serif" font-size="10.00">Eigen/Geometry</text>
</g>
<!-- Node2&#45;&gt;Node10 -->
<g id="edge9" class="edge"><title>Node2&#45;&gt;Node10</title>
<path fill="none" stroke="midnightblue" d="M115.976,-168.444C140.157,-159.438 178.418,-145.189 205.646,-135.049"/>
<polygon fill="midnightblue" stroke="midnightblue" points="206.982,-138.286 215.132,-131.516 204.539,-131.727 206.982,-138.286"/>
</g>
<!-- Node11 -->
<g id="node11" class="node"><title>Node11</title>
<polygon fill="white" stroke="#bfbfbf" points="81,-112.5 81,-131.5 135,-131.5 135,-112.5 81,-112.5"/>
<text text-anchor="middle" x="108" y="-119.5" font-family="Helvetica,sans-Serif" font-size="10.00">random</text>
</g>
<!-- Node2&#45;&gt;Node11 -->
<g id="edge10" class="edge"><title>Node2&#45;&gt;Node11</title>
<path fill="none" stroke="midnightblue" d="M95.4769,-168.083C97.4865,-160.849 100.386,-150.409 102.89,-141.397"/>
<polygon fill="midnightblue" stroke="midnightblue" points="106.265,-142.323 105.569,-131.751 99.5203,-140.449 106.265,-142.323"/>
</g>
<!-- Node4 -->
<g id="node4" class="node"><title>Node4</title>
<polygon fill="white" stroke="#bfbfbf" points="0,-0.5 0,-19.5 52,-19.5 52,-0.5 0,-0.5"/>
<text text-anchor="middle" x="26" y="-7.5" font-family="Helvetica,sans-Serif" font-size="10.00">cassert</text>
</g>
<!-- Node3&#45;&gt;Node4 -->
<g id="edge3" class="edge"><title>Node3&#45;&gt;Node4</title>
<path fill="none" stroke="midnightblue" d="M141.292,-56.4435C118.645,-47.5171 82.9279,-33.4387 57.2482,-23.3168"/>
<polygon fill="midnightblue" stroke="midnightblue" points="58.1934,-19.9273 47.6065,-19.5164 55.6264,-26.4397 58.1934,-19.9273"/>
</g>
<!-- Node5 -->
<g id="node5" class="node"><title>Node5</title>
<polygon fill="white" stroke="#bfbfbf" points="70.5,-0.5 70.5,-19.5 115.5,-19.5 115.5,-0.5 70.5,-0.5"/>
<text text-anchor="middle" x="93" y="-7.5" font-family="Helvetica,sans-Serif" font-size="10.00">cstdio</text>
</g>
<!-- Node3&#45;&gt;Node5 -->
<g id="edge4" class="edge"><title>Node3&#45;&gt;Node5</title>
<path fill="none" stroke="midnightblue" d="M151.753,-56.324C141.203,-48.1849 125.199,-35.8395 112.558,-26.0874"/>
<polygon fill="midnightblue" stroke="midnightblue" points="114.507,-23.1707 104.451,-19.8339 110.231,-28.7132 114.507,-23.1707"/>
</g>
<!-- Node6 -->
<g id="node6" class="node"><title>Node6</title>
<polygon fill="white" stroke="#bfbfbf" points="133.5,-0.5 133.5,-19.5 192.5,-19.5 192.5,-0.5 133.5,-0.5"/>
<text text-anchor="middle" x="163" y="-7.5" font-family="Helvetica,sans-Serif" font-size="10.00">iostream</text>
</g>
<!-- Node3&#45;&gt;Node6 -->
<g id="edge5" class="edge"><title>Node3&#45;&gt;Node6</title>
<path fill="none" stroke="midnightblue" d="M163,-56.083C163,-49.0059 163,-38.8611 163,-29.9865"/>
<polygon fill="midnightblue" stroke="midnightblue" points="166.5,-29.751 163,-19.7511 159.5,-29.7511 166.5,-29.751"/>
</g>
<!-- Node7 -->
<g id="node7" class="node"><title>Node7</title>
<polygon fill="white" stroke="#bfbfbf" points="211,-0.5 211,-19.5 267,-19.5 267,-0.5 211,-0.5"/>
<text text-anchor="middle" x="239" y="-7.5" font-family="Helvetica,sans-Serif" font-size="10.00">sstream</text>
</g>
<!-- Node3&#45;&gt;Node7 -->
<g id="edge6" class="edge"><title>Node3&#45;&gt;Node7</title>
<path fill="none" stroke="midnightblue" d="M175.211,-56.324C186.776,-48.1066 204.375,-35.6017 218.161,-25.8069"/>
<polygon fill="midnightblue" stroke="midnightblue" points="220.443,-28.4791 226.567,-19.8339 216.388,-22.7729 220.443,-28.4791"/>
</g>
<!-- Node8 -->
<g id="node8" class="node"><title>Node8</title>
<polygon fill="white" stroke="#bfbfbf" points="285,-0.5 285,-19.5 333,-19.5 333,-0.5 285,-0.5"/>
<text text-anchor="middle" x="309" y="-7.5" font-family="Helvetica,sans-Serif" font-size="10.00">thread</text>
</g>
<!-- Node3&#45;&gt;Node8 -->
<g id="edge7" class="edge"><title>Node3&#45;&gt;Node8</title>
<path fill="none" stroke="midnightblue" d="M186.134,-56.4435C210.482,-47.4381 249.007,-33.1891 276.423,-23.049"/>
<polygon fill="midnightblue" stroke="midnightblue" points="277.809,-26.2681 285.974,-19.5164 275.381,-19.7028 277.809,-26.2681"/>
</g>
<!-- Node12&#45;&gt;Node9 -->
<g id="edge17" class="edge"><title>Node12&#45;&gt;Node9</title>
<path fill="none" stroke="midnightblue" d="M382.317,-229.819C374.371,-211.09 355.474,-166.546 344.76,-141.292"/>
<polygon fill="midnightblue" stroke="midnightblue" points="347.853,-139.621 340.726,-131.782 341.409,-142.355 347.853,-139.621"/>
</g>
<!-- Node12&#45;&gt;Node10 -->
<g id="edge18" class="edge"><title>Node12&#45;&gt;Node10</title>
<path fill="none" stroke="midnightblue" d="M374.876,-229.819C349.805,-210.253 288.637,-162.517 257.259,-138.03"/>
<polygon fill="midnightblue" stroke="midnightblue" points="259.29,-135.175 249.253,-131.782 254.983,-140.694 259.29,-135.175"/>
</g>
<!-- Node13 -->
<g id="node13" class="node"><title>Node13</title>
<g id="a_node13"><a xlink:href="Index_8hpp.html" target="_top" xlink:title="Core/Utils/Index.hpp">
<polygon fill="white" stroke="black" points="485.5,-168.5 485.5,-187.5 598.5,-187.5 598.5,-168.5 485.5,-168.5"/>
<text text-anchor="middle" x="542" y="-175.5" font-family="Helvetica,sans-Serif" font-size="10.00">Core/Utils/Index.hpp</text>
</a>
</g>
</g>
<!-- Node12&#45;&gt;Node13 -->
<g id="edge12" class="edge"><title>Node12&#45;&gt;Node13</title>
<path fill="none" stroke="midnightblue" d="M408.351,-229.975C434.995,-219.813 479.714,-202.756 510.014,-191.2"/>
<polygon fill="midnightblue" stroke="midnightblue" points="511.594,-194.343 519.69,-187.509 509.1,-187.803 511.594,-194.343"/>
</g>
<!-- Node12&#45;&gt;Node17 -->
<g id="edge19" class="edge"><title>Node12&#45;&gt;Node17</title>
<path fill="none" stroke="midnightblue" d="M362.933,-229.975C335.315,-219.769 288.88,-202.608 257.604,-191.049"/>
<polygon fill="midnightblue" stroke="midnightblue" points="258.618,-187.693 248.025,-187.509 256.191,-194.259 258.618,-187.693"/>
</g>
<!-- Node18 -->
<g id="node18" class="node"><title>Node18</title>
<polygon fill="white" stroke="#bfbfbf" points="616.5,-168.5 616.5,-187.5 663.5,-187.5 663.5,-168.5 616.5,-168.5"/>
<text text-anchor="middle" x="640" y="-175.5" font-family="Helvetica,sans-Serif" font-size="10.00">vector</text>
</g>
<!-- Node12&#45;&gt;Node18 -->
<g id="edge21" class="edge"><title>Node12&#45;&gt;Node18</title>
<path fill="none" stroke="midnightblue" d="M425.641,-229.963C467.971,-220.731 537.241,-205.294 606.472,-188.052"/>
<polygon fill="midnightblue" stroke="midnightblue" points="607.387,-191.431 616.238,-185.607 605.687,-184.64 607.387,-191.431"/>
</g>
<!-- Node19 -->
<g id="node19" class="node"><title>Node19</title>
<g id="a_node19"><a xlink:href="Types_8hpp.html" target="_top" xlink:title="Core/Types.hpp">
<polygon fill="white" stroke="black" points="378.5,-168.5 378.5,-187.5 467.5,-187.5 467.5,-168.5 378.5,-168.5"/>
<text text-anchor="middle" x="423" y="-175.5" font-family="Helvetica,sans-Serif" font-size="10.00">Core/Types.hpp</text>
</a>
</g>
</g>
<!-- Node12&#45;&gt;Node19 -->
<g id="edge22" class="edge"><title>Node12&#45;&gt;Node19</title>
<path fill="none" stroke="midnightblue" d="M391.301,-229.975C396.741,-221.227 405.359,-207.369 412.236,-196.309"/>
<polygon fill="midnightblue" stroke="midnightblue" points="415.4,-197.849 417.709,-187.509 409.456,-194.153 415.4,-197.849"/>
</g>
<!-- Node21 -->
<g id="node21" class="node"><title>Node21</title>
<g id="a_node21"><a xlink:href="Component_8inl.html" target="_top" xlink:title="Engine/Component/Component.inl">
<polygon fill="white" stroke="black" points="681.5,-168.5 681.5,-187.5 862.5,-187.5 862.5,-168.5 681.5,-168.5"/>
<text text-anchor="middle" x="772" y="-175.5" font-family="Helvetica,sans-Serif" font-size="10.00">Engine/Component/Component.inl</text>
</a>
</g>
</g>
<!-- Node12&#45;&gt;Node21 -->
<g id="edge27" class="edge"><title>Node12&#45;&gt;Node21</title>
<path fill="none" stroke="midnightblue" d="M436.404,-229.975C504.268,-219.15 625.144,-200.502 701.846,-189.012"/>
<polygon fill="midnightblue" stroke="midnightblue" points="702.528,-192.449 711.901,-187.509 701.493,-185.526 702.528,-192.449"/>
</g>
<!-- Node14 -->
<g id="node14" class="node"><title>Node14</title>
<g id="a_node14"><a xlink:href="RaCore_8hpp.html" target="_top" xlink:title="Core/RaCore.hpp">
<polygon fill="white" stroke="black" points="487,-112.5 487,-131.5 585,-131.5 585,-112.5 487,-112.5"/>
<text text-anchor="middle" x="536" y="-119.5" font-family="Helvetica,sans-Serif" font-size="10.00">Core/RaCore.hpp</text>
</a>
</g>
</g>
<!-- Node13&#45;&gt;Node14 -->
<g id="edge13" class="edge"><title>Node13&#45;&gt;Node14</title>
<path fill="none" stroke="midnightblue" d="M541.009,-168.083C540.214,-160.927 539.071,-150.635 538.077,-141.691"/>
<polygon fill="midnightblue" stroke="midnightblue" points="541.555,-141.303 536.972,-131.751 534.598,-142.076 541.555,-141.303"/>
</g>
<!-- Node15 -->
<g id="node15" class="node"><title>Node15</title>
<polygon fill="white" stroke="#bfbfbf" points="727,-112.5 727,-131.5 769,-131.5 769,-112.5 727,-112.5"/>
<text text-anchor="middle" x="748" y="-119.5" font-family="Helvetica,sans-Serif" font-size="10.00">limits</text>
</g>
<!-- Node13&#45;&gt;Node15 -->
<g id="edge15" class="edge"><title>Node13&#45;&gt;Node15</title>
<path fill="none" stroke="midnightblue" d="M577.175,-168.458C610.767,-160.201 663.035,-147.094 716.992,-132.201"/>
<polygon fill="midnightblue" stroke="midnightblue" points="718.026,-135.547 726.726,-129.5 716.154,-128.802 718.026,-135.547"/>
</g>
<!-- Node16 -->
<g id="node16" class="node"><title>Node16</title>
<g id="a_node16"><a xlink:href="Index_8inl.html" target="_top" xlink:title="Core/Utils/Index.inl">
<polygon fill="white" stroke="black" points="603.5,-112.5 603.5,-131.5 708.5,-131.5 708.5,-112.5 603.5,-112.5"/>
<text text-anchor="middle" x="656" y="-119.5" font-family="Helvetica,sans-Serif" font-size="10.00">Core/Utils/Index.inl</text>
</a>
</g>
</g>
<!-- Node13&#45;&gt;Node16 -->
<g id="edge16" class="edge"><title>Node13&#45;&gt;Node16</title>
<path fill="none" stroke="midnightblue" d="M560.064,-168.444C578.575,-159.675 607.581,-145.935 628.855,-135.858"/>
<polygon fill="midnightblue" stroke="midnightblue" points="630.482,-138.96 638.021,-131.516 627.485,-132.634 630.482,-138.96"/>
</g>
<!-- Node14&#45;&gt;Node3 -->
<g id="edge14" class="edge"><title>Node14&#45;&gt;Node3</title>
<path fill="none" stroke="midnightblue" d="M486.959,-113.348C483.928,-112.888 480.923,-112.436 478,-112 393.849,-99.4608 296.942,-85.7221 233.084,-76.7655"/>
<polygon fill="midnightblue" stroke="midnightblue" points="233.515,-73.2917 223.126,-75.37 232.543,-80.224 233.515,-73.2917"/>
</g>
<!-- Node17&#45;&gt;Node3 -->
<g id="edge20" class="edge"><title>Node17&#45;&gt;Node3</title>
<path fill="none" stroke="midnightblue" d="M214.3,-168.448C204.552,-160.116 190.428,-146.599 182,-132 173.643,-117.522 168.708,-99.0749 165.971,-85.534"/>
<polygon fill="midnightblue" stroke="midnightblue" points="169.383,-84.7284 164.163,-75.5084 162.494,-85.9708 169.383,-84.7284"/>
</g>
<!-- Node19&#45;&gt;Node9 -->
<g id="edge24" class="edge"><title>Node19&#45;&gt;Node9</title>
<path fill="none" stroke="midnightblue" d="M409.183,-168.324C395.767,-159.9 375.176,-146.971 359.414,-137.074"/>
<polygon fill="midnightblue" stroke="midnightblue" points="361.113,-134.008 350.783,-131.655 357.391,-139.936 361.113,-134.008"/>
</g>
<!-- Node19&#45;&gt;Node10 -->
<g id="edge25" class="edge"><title>Node19&#45;&gt;Node10</title>
<path fill="none" stroke="midnightblue" d="M393.686,-168.444C362.158,-159.241 311.869,-144.562 277.014,-134.388"/>
<polygon fill="midnightblue" stroke="midnightblue" points="277.757,-130.959 267.177,-131.516 275.795,-137.678 277.757,-130.959"/>
</g>
<!-- Node19&#45;&gt;Node14 -->
<g id="edge23" class="edge"><title>Node19&#45;&gt;Node14</title>
<path fill="none" stroke="midnightblue" d="M440.905,-168.444C459.254,-159.675 488.005,-145.935 509.094,-135.858"/>
<polygon fill="midnightblue" stroke="midnightblue" points="510.665,-138.986 518.179,-131.516 507.647,-132.67 510.665,-138.986"/>
</g>
<!-- Node20 -->
<g id="node20" class="node"><title>Node20</title>
<polygon fill="white" stroke="#bfbfbf" points="389,-112.5 389,-131.5 469,-131.5 469,-112.5 389,-112.5"/>
<text text-anchor="middle" x="429" y="-119.5" font-family="Helvetica,sans-Serif" font-size="10.00">Eigen/Sparse</text>
</g>
<!-- Node19&#45;&gt;Node20 -->
<g id="edge26" class="edge"><title>Node19&#45;&gt;Node20</title>
<path fill="none" stroke="midnightblue" d="M423.991,-168.083C424.786,-160.927 425.929,-150.635 426.923,-141.691"/>
<polygon fill="midnightblue" stroke="midnightblue" points="430.402,-142.076 428.028,-131.751 423.445,-141.303 430.402,-142.076"/>
</g>
<!-- Node21&#45;&gt;Node12 -->
<g id="edge28" class="edge"><title>Node21&#45;&gt;Node12</title>
<path fill="none" stroke="midnightblue" d="M721.695,-187.509C653.882,-198.326 533.011,-216.974 456.266,-228.471"/>
<polygon fill="midnightblue" stroke="midnightblue" points="455.578,-225.035 446.205,-229.975 456.613,-231.958 455.578,-225.035"/>
</g>
</g>
</svg>
