<?xml version="1.0" encoding="UTF-8" standalone="no"?>
<!DOCTYPE svg PUBLIC "-//W3C//DTD SVG 1.1//EN"
 "http://www.w3.org/Graphics/SVG/1.1/DTD/svg11.dtd">
<!-- Generated by graphviz version 2.38.0 (20140413.2041)
 -->
<!-- Title: /home/travis/build/STORM&#45;IRIT/Radium&#45;Engine/src/Core/Math/LinearAlgebra.inl Pages: 1 -->
<svg width="819pt" height="341pt"
 viewBox="0.00 0.00 819.00 341.00" xmlns="http://www.w3.org/2000/svg" xmlns:xlink="http://www.w3.org/1999/xlink">
<g id="graph0" class="graph" transform="scale(1 1) rotate(0) translate(4 337)">
<title>/home/travis/build/STORM&#45;IRIT/Radium&#45;Engine/src/Core/Math/LinearAlgebra.inl</title>
<polygon fill="white" stroke="none" points="-4,4 -4,-337 815,-337 815,4 -4,4"/>
<!-- Node1 -->
<g id="node1" class="node"><title>Node1</title>
<polygon fill="#bfbfbf" stroke="black" points="397,-291.5 397,-332.5 566,-332.5 566,-291.5 397,-291.5"/>
<text text-anchor="start" x="405" y="-320.5" font-family="Helvetica,sans-Serif" font-size="10.00">/home/travis/build</text>
<text text-anchor="start" x="405" y="-309.5" font-family="Helvetica,sans-Serif" font-size="10.00">/STORM&#45;IRIT/Radium&#45;Engine</text>
<text text-anchor="middle" x="481.5" y="-298.5" font-family="Helvetica,sans-Serif" font-size="10.00">/src/Core/Math/LinearAlgebra.inl</text>
</g>
<!-- Node2 -->
<g id="node2" class="node"><title>Node2</title>
<g id="a_node2"><a xlink:href="LinearAlgebra_8hpp.html" target="_top" xlink:title="Core/Math/LinearAlgebra.hpp">
<polygon fill="white" stroke="black" points="403.5,-235.5 403.5,-254.5 559.5,-254.5 559.5,-235.5 403.5,-235.5"/>
<text text-anchor="middle" x="481.5" y="-242.5" font-family="Helvetica,sans-Serif" font-size="10.00">Core/Math/LinearAlgebra.hpp</text>
</a>
</g>
</g>
<!-- Node1&#45;&gt;Node2 -->
<g id="edge1" class="edge"><title>Node1&#45;&gt;Node2</title>
<path fill="none" stroke="midnightblue" d="M475.255,-291.498C474.557,-282.969 474.583,-273.011 475.333,-264.59"/>
<polygon fill="midnightblue" stroke="midnightblue" points="478.803,-265.044 476.736,-254.652 471.872,-264.065 478.803,-265.044"/>
</g>
<!-- Node2&#45;&gt;Node1 -->
<g id="edge25" class="edge"><title>Node2&#45;&gt;Node1</title>
<path fill="none" stroke="midnightblue" d="M486.264,-254.652C487.727,-261.524 488.381,-271.559 488.228,-281.263"/>
<polygon fill="midnightblue" stroke="midnightblue" points="484.721,-281.344 487.745,-291.498 491.713,-281.674 484.721,-281.344"/>
</g>
<!-- Node3 -->
<g id="node3" class="node"><title>Node3</title>
<g id="a_node3"><a xlink:href="RaCore_8hpp.html" target="_top" xlink:title="Core/RaCore.hpp">
<polygon fill="white" stroke="black" points="269.5,-112.5 269.5,-131.5 367.5,-131.5 367.5,-112.5 269.5,-112.5"/>
<text text-anchor="middle" x="318.5" y="-119.5" font-family="Helvetica,sans-Serif" font-size="10.00">Core/RaCore.hpp</text>
</a>
</g>
</g>
<!-- Node2&#45;&gt;Node3 -->
<g id="edge2" class="edge"><title>Node2&#45;&gt;Node3</title>
<path fill="none" stroke="midnightblue" d="M455.274,-235.494C434.515,-227.962 405.461,-215.587 383.5,-199 361.289,-182.225 341.406,-156.656 329.646,-139.886"/>
<polygon fill="midnightblue" stroke="midnightblue" points="332.511,-137.875 323.984,-131.586 326.728,-141.819 332.511,-137.875"/>
</g>
<!-- Node10 -->
<g id="node10" class="node"><title>Node10</title>
<polygon fill="white" stroke="#bfbfbf" points="385.5,-112.5 385.5,-131.5 453.5,-131.5 453.5,-112.5 385.5,-112.5"/>
<text text-anchor="middle" x="419.5" y="-119.5" font-family="Helvetica,sans-Serif" font-size="10.00">Eigen/Core</text>
</g>
<!-- Node2&#45;&gt;Node10 -->
<g id="edge9" class="edge"><title>Node2&#45;&gt;Node10</title>
<path fill="none" stroke="midnightblue" d="M444.398,-235.458C425.055,-228.918 403.072,-217.724 391.5,-199 379.898,-180.228 393.044,-155.91 404.955,-139.901"/>
<polygon fill="midnightblue" stroke="midnightblue" points="407.794,-141.954 411.28,-131.949 402.316,-137.596 407.794,-141.954"/>
</g>
<!-- Node11 -->
<g id="node11" class="node"><title>Node11</title>
<polygon fill="white" stroke="#bfbfbf" points="471.5,-112.5 471.5,-131.5 565.5,-131.5 565.5,-112.5 471.5,-112.5"/>
<text text-anchor="middle" x="518.5" y="-119.5" font-family="Helvetica,sans-Serif" font-size="10.00">Eigen/Geometry</text>
</g>
<!-- Node2&#45;&gt;Node11 -->
<g id="edge10" class="edge"><title>Node2&#45;&gt;Node11</title>
<path fill="none" stroke="midnightblue" d="M485.027,-235.467C488.668,-226.485 494.382,-211.887 498.5,-199 504.715,-179.548 510.499,-156.863 514.232,-141.374"/>
<polygon fill="midnightblue" stroke="midnightblue" points="517.668,-142.055 516.564,-131.517 510.856,-140.443 517.668,-142.055"/>
</g>
<!-- Node12 -->
<g id="node12" class="node"><title>Node12</title>
<polygon fill="white" stroke="#bfbfbf" points="583.5,-112.5 583.5,-131.5 663.5,-131.5 663.5,-112.5 583.5,-112.5"/>
<text text-anchor="middle" x="623.5" y="-119.5" font-family="Helvetica,sans-Serif" font-size="10.00">Eigen/Sparse</text>
</g>
<!-- Node2&#45;&gt;Node12 -->
<g id="edge11" class="edge"><title>Node2&#45;&gt;Node12</title>
<path fill="none" stroke="midnightblue" d="M491.712,-235.298C515.661,-214.891 575.678,-163.75 605.748,-138.127"/>
<polygon fill="midnightblue" stroke="midnightblue" points="608.039,-140.773 613.38,-131.623 603.499,-135.445 608.039,-140.773"/>
</g>
<!-- Node13 -->
<g id="node13" class="node"><title>Node13</title>
<polygon fill="white" stroke="#bfbfbf" points="585,-174 585,-193 648,-193 648,-174 585,-174"/>
<text text-anchor="middle" x="616.5" y="-181" font-family="Helvetica,sans-Serif" font-size="10.00">functional</text>
</g>
<!-- Node2&#45;&gt;Node13 -->
<g id="edge12" class="edge"><title>Node2&#45;&gt;Node13</title>
<path fill="none" stroke="midnightblue" d="M500.842,-235.475C523.599,-225.445 561.592,-208.7 587.788,-197.155"/>
<polygon fill="midnightblue" stroke="midnightblue" points="589.455,-200.245 597.194,-193.009 586.631,-193.839 589.455,-200.245"/>
</g>
<!-- Node14 -->
<g id="node14" class="node"><title>Node14</title>
<polygon fill="white" stroke="#bfbfbf" points="666,-168.5 666,-198.5 811,-198.5 811,-168.5 666,-168.5"/>
<text text-anchor="start" x="674" y="-186.5" font-family="Helvetica,sans-Serif" font-size="10.00">unsupported/Eigen/Aligned</text>
<text text-anchor="middle" x="738.5" y="-175.5" font-family="Helvetica,sans-Serif" font-size="10.00">Vector3</text>
</g>
<!-- Node2&#45;&gt;Node14 -->
<g id="edge13" class="edge"><title>Node2&#45;&gt;Node14</title>
<path fill="none" stroke="midnightblue" d="M518.322,-235.475C557.276,-226.456 619.685,-212.008 668.129,-200.792"/>
<polygon fill="midnightblue" stroke="midnightblue" points="668.977,-204.188 677.93,-198.523 667.398,-197.369 668.977,-204.188"/>
</g>
<!-- Node15 -->
<g id="node15" class="node"><title>Node15</title>
<g id="a_node15"><a xlink:href="Math_8hpp.html" target="_top" xlink:title="Core/Math/Math.hpp">
<polygon fill="white" stroke="black" points="112.5,-174 112.5,-193 226.5,-193 226.5,-174 112.5,-174"/>
<text text-anchor="middle" x="169.5" y="-181" font-family="Helvetica,sans-Serif" font-size="10.00">Core/Math/Math.hpp</text>
</a>
</g>
</g>
<!-- Node2&#45;&gt;Node15 -->
<g id="edge14" class="edge"><title>Node2&#45;&gt;Node15</title>
<path fill="none" stroke="midnightblue" d="M436.798,-235.475C380.73,-224.783 284.64,-206.458 224.231,-194.937"/>
<polygon fill="midnightblue" stroke="midnightblue" points="224.598,-191.444 214.119,-193.009 223.286,-198.32 224.598,-191.444"/>
</g>
<!-- Node19 -->
<g id="node19" class="node"><title>Node19</title>
<g id="a_node19"><a xlink:href="Types_8hpp.html" target="_top" xlink:title="Core/Types.hpp">
<polygon fill="white" stroke="black" points="401,-174 401,-193 490,-193 490,-174 401,-174"/>
<text text-anchor="middle" x="445.5" y="-181" font-family="Helvetica,sans-Serif" font-size="10.00">Core/Types.hpp</text>
</a>
</g>
</g>
<!-- Node2&#45;&gt;Node19 -->
<g id="edge20" class="edge"><title>Node2&#45;&gt;Node19</title>
<path fill="none" stroke="midnightblue" d="M476.342,-235.475C471.049,-226.727 462.665,-212.869 455.973,-201.809"/>
<polygon fill="midnightblue" stroke="midnightblue" points="458.82,-199.753 450.648,-193.009 452.83,-203.377 458.82,-199.753"/>
</g>
<!-- Node4 -->
<g id="node4" class="node"><title>Node4</title>
<g id="a_node4"><a xlink:href="CoreMacros_8hpp.html" target="_top" xlink:title="Core/CoreMacros.hpp">
<polygon fill="white" stroke="black" points="258.5,-56.5 258.5,-75.5 378.5,-75.5 378.5,-56.5 258.5,-56.5"/>
<text text-anchor="middle" x="318.5" y="-63.5" font-family="Helvetica,sans-Serif" font-size="10.00">Core/CoreMacros.hpp</text>
</a>
</g>
</g>
<!-- Node3&#45;&gt;Node4 -->
<g id="edge3" class="edge"><title>Node3&#45;&gt;Node4</title>
<path fill="none" stroke="midnightblue" d="M318.5,-112.083C318.5,-105.006 318.5,-94.8611 318.5,-85.9865"/>
<polygon fill="midnightblue" stroke="midnightblue" points="322,-85.751 318.5,-75.7511 315,-85.7511 322,-85.751"/>
</g>
<!-- Node5 -->
<g id="node5" class="node"><title>Node5</title>
<polygon fill="white" stroke="#bfbfbf" points="155.5,-0.5 155.5,-19.5 207.5,-19.5 207.5,-0.5 155.5,-0.5"/>
<text text-anchor="middle" x="181.5" y="-7.5" font-family="Helvetica,sans-Serif" font-size="10.00">cassert</text>
</g>
<!-- Node4&#45;&gt;Node5 -->
<g id="edge4" class="edge"><title>Node4&#45;&gt;Node5</title>
<path fill="none" stroke="midnightblue" d="M296.792,-56.4435C274.145,-47.5171 238.428,-33.4387 212.748,-23.3168"/>
<polygon fill="midnightblue" stroke="midnightblue" points="213.693,-19.9273 203.106,-19.5164 211.126,-26.4397 213.693,-19.9273"/>
</g>
<!-- Node6 -->
<g id="node6" class="node"><title>Node6</title>
<polygon fill="white" stroke="#bfbfbf" points="226,-0.5 226,-19.5 271,-19.5 271,-0.5 226,-0.5"/>
<text text-anchor="middle" x="248.5" y="-7.5" font-family="Helvetica,sans-Serif" font-size="10.00">cstdio</text>
</g>
<!-- Node4&#45;&gt;Node6 -->
<g id="edge5" class="edge"><title>Node4&#45;&gt;Node6</title>
<path fill="none" stroke="midnightblue" d="M307.253,-56.324C296.703,-48.1849 280.699,-35.8395 268.058,-26.0874"/>
<polygon fill="midnightblue" stroke="midnightblue" points="270.007,-23.1707 259.951,-19.8339 265.731,-28.7132 270.007,-23.1707"/>
</g>
<!-- Node7 -->
<g id="node7" class="node"><title>Node7</title>
<polygon fill="white" stroke="#bfbfbf" points="289,-0.5 289,-19.5 348,-19.5 348,-0.5 289,-0.5"/>
<text text-anchor="middle" x="318.5" y="-7.5" font-family="Helvetica,sans-Serif" font-size="10.00">iostream</text>
</g>
<!-- Node4&#45;&gt;Node7 -->
<g id="edge6" class="edge"><title>Node4&#45;&gt;Node7</title>
<path fill="none" stroke="midnightblue" d="M318.5,-56.083C318.5,-49.0059 318.5,-38.8611 318.5,-29.9865"/>
<polygon fill="midnightblue" stroke="midnightblue" points="322,-29.751 318.5,-19.7511 315,-29.7511 322,-29.751"/>
</g>
<!-- Node8 -->
<g id="node8" class="node"><title>Node8</title>
<polygon fill="white" stroke="#bfbfbf" points="366.5,-0.5 366.5,-19.5 422.5,-19.5 422.5,-0.5 366.5,-0.5"/>
<text text-anchor="middle" x="394.5" y="-7.5" font-family="Helvetica,sans-Serif" font-size="10.00">sstream</text>
</g>
<!-- Node4&#45;&gt;Node8 -->
<g id="edge7" class="edge"><title>Node4&#45;&gt;Node8</title>
<path fill="none" stroke="midnightblue" d="M330.711,-56.324C342.276,-48.1066 359.875,-35.6017 373.661,-25.8069"/>
<polygon fill="midnightblue" stroke="midnightblue" points="375.943,-28.4791 382.067,-19.8339 371.888,-22.7729 375.943,-28.4791"/>
</g>
<!-- Node9 -->
<g id="node9" class="node"><title>Node9</title>
<polygon fill="white" stroke="#bfbfbf" points="440.5,-0.5 440.5,-19.5 488.5,-19.5 488.5,-0.5 440.5,-0.5"/>
<text text-anchor="middle" x="464.5" y="-7.5" font-family="Helvetica,sans-Serif" font-size="10.00">thread</text>
</g>
<!-- Node4&#45;&gt;Node9 -->
<g id="edge8" class="edge"><title>Node4&#45;&gt;Node9</title>
<path fill="none" stroke="midnightblue" d="M341.634,-56.4435C365.982,-47.4381 404.507,-33.1891 431.923,-23.049"/>
<polygon fill="midnightblue" stroke="midnightblue" points="433.309,-26.2681 441.474,-19.5164 430.881,-19.7028 433.309,-26.2681"/>
</g>
<!-- Node15&#45;&gt;Node3 -->
<g id="edge15" class="edge"><title>Node15&#45;&gt;Node3</title>
<path fill="none" stroke="midnightblue" d="M190.848,-173.975C216.186,-163.857 258.638,-146.905 287.571,-135.351"/>
<polygon fill="midnightblue" stroke="midnightblue" points="289.203,-138.468 297.192,-131.509 286.607,-131.967 289.203,-138.468"/>
</g>
<!-- Node16 -->
<g id="node16" class="node"><title>Node16</title>
<polygon fill="white" stroke="#bfbfbf" points="189.5,-112.5 189.5,-131.5 251.5,-131.5 251.5,-112.5 189.5,-112.5"/>
<text text-anchor="middle" x="220.5" y="-119.5" font-family="Helvetica,sans-Serif" font-size="10.00">algorithm</text>
</g>
<!-- Node15&#45;&gt;Node16 -->
<g id="edge16" class="edge"><title>Node15&#45;&gt;Node16</title>
<path fill="none" stroke="midnightblue" d="M176.807,-173.975C184.533,-164.962 196.908,-150.525 206.518,-139.312"/>
<polygon fill="midnightblue" stroke="midnightblue" points="209.356,-141.379 213.206,-131.509 204.041,-136.824 209.356,-141.379"/>
</g>
<!-- Node17 -->
<g id="node17" class="node"><title>Node17</title>
<polygon fill="white" stroke="#bfbfbf" points="0,-112.5 0,-131.5 47,-131.5 47,-112.5 0,-112.5"/>
<text text-anchor="middle" x="23.5" y="-119.5" font-family="Helvetica,sans-Serif" font-size="10.00">cmath</text>
</g>
<!-- Node15&#45;&gt;Node17 -->
<g id="edge17" class="edge"><title>Node15&#45;&gt;Node17</title>
<path fill="none" stroke="midnightblue" d="M148.582,-173.975C123.754,-163.857 82.1567,-146.905 53.8058,-135.351"/>
<polygon fill="midnightblue" stroke="midnightblue" points="54.9609,-132.042 44.3794,-131.509 52.319,-138.524 54.9609,-132.042"/>
</g>
<!-- Node18 -->
<g id="node18" class="node"><title>Node18</title>
<g id="a_node18"><a xlink:href="Math_8inl.html" target="_top" xlink:title="Core/Math/Math.inl">
<polygon fill="white" stroke="black" points="65,-112.5 65,-131.5 172,-131.5 172,-112.5 65,-112.5"/>
<text text-anchor="middle" x="118.5" y="-119.5" font-family="Helvetica,sans-Serif" font-size="10.00">Core/Math/Math.inl</text>
</a>
</g>
</g>
<!-- Node15&#45;&gt;Node18 -->
<g id="edge18" class="edge"><title>Node15&#45;&gt;Node18</title>
<path fill="none" stroke="midnightblue" d="M157.292,-173.975C147.791,-165.138 135.327,-151.089 126.887,-139.975"/>
<polygon fill="midnightblue" stroke="midnightblue" points="129.53,-137.651 120.896,-131.509 123.815,-141.694 129.53,-137.651"/>
</g>
<!-- Node18&#45;&gt;Node15 -->
<g id="edge19" class="edge"><title>Node18&#45;&gt;Node15</title>
<path fill="none" stroke="midnightblue" d="M130.691,-131.509C140.189,-140.34 152.653,-154.388 161.098,-165.505"/>
<polygon fill="midnightblue" stroke="midnightblue" points="158.459,-167.835 167.094,-173.975 164.173,-163.791 158.459,-167.835"/>
</g>
<!-- Node19&#45;&gt;Node3 -->
<g id="edge21" class="edge"><title>Node19&#45;&gt;Node3</title>
<path fill="none" stroke="midnightblue" d="M427.304,-173.975C405.991,-163.99 370.469,-147.348 345.837,-135.807"/>
<polygon fill="midnightblue" stroke="midnightblue" points="347.203,-132.582 336.662,-131.509 344.233,-138.921 347.203,-132.582"/>
</g>
<!-- Node19&#45;&gt;Node10 -->
<g id="edge22" class="edge"><title>Node19&#45;&gt;Node10</title>
<path fill="none" stroke="midnightblue" d="M441.775,-173.975C438.029,-165.404 432.14,-151.927 427.358,-140.983"/>
<polygon fill="midnightblue" stroke="midnightblue" points="430.43,-139.271 423.218,-131.509 424.015,-142.074 430.43,-139.271"/>
</g>
<!-- Node19&#45;&gt;Node11 -->
<g id="edge23" class="edge"><title>Node19&#45;&gt;Node11</title>
<path fill="none" stroke="midnightblue" d="M455.959,-173.975C467.451,-164.608 486.13,-149.384 500.087,-138.008"/>
<polygon fill="midnightblue" stroke="midnightblue" points="502.52,-140.54 508.06,-131.509 498.098,-135.114 502.52,-140.54"/>
</g>
<!-- Node19&#45;&gt;Node12 -->
<g id="edge24" class="edge"><title>Node19&#45;&gt;Node12</title>
<path fill="none" stroke="midnightblue" d="M471.003,-173.975C501.801,-163.68 553.765,-146.31 588.348,-134.75"/>
<polygon fill="midnightblue" stroke="midnightblue" points="589.67,-137.999 598.044,-131.509 587.45,-131.36 589.67,-137.999"/>
</g>
</g>
</svg>
