<?xml version="1.0" encoding="UTF-8" standalone="no"?>
<!DOCTYPE svg PUBLIC "-//W3C//DTD SVG 1.1//EN"
 "http://www.w3.org/Graphics/SVG/1.1/DTD/svg11.dtd">
<!-- Generated by graphviz version 2.38.0 (20140413.2041)
 -->
<!-- Title: /home/travis/build/STORM&#45;IRIT/Radium&#45;Engine/src/Core/Math/LinearAlgebra.inl Pages: 1 -->
<svg width="3128pt" height="551pt"
 viewBox="0.00 0.00 3128.00 551.00" xmlns="http://www.w3.org/2000/svg" xmlns:xlink="http://www.w3.org/1999/xlink">
<g id="graph0" class="graph" transform="scale(1 1) rotate(0) translate(4 547)">
<title>/home/travis/build/STORM&#45;IRIT/Radium&#45;Engine/src/Core/Math/LinearAlgebra.inl</title>
<polygon fill="white" stroke="none" points="-4,4 -4,-547 3124,-547 3124,4 -4,4"/>
<!-- Node1 -->
<g id="node1" class="node"><title>Node1</title>
<polygon fill="#bfbfbf" stroke="black" points="1369,-501.5 1369,-542.5 1538,-542.5 1538,-501.5 1369,-501.5"/>
<text text-anchor="start" x="1377" y="-530.5" font-family="Helvetica,sans-Serif" font-size="10.00">/home/travis/build</text>
<text text-anchor="start" x="1377" y="-519.5" font-family="Helvetica,sans-Serif" font-size="10.00">/STORM&#45;IRIT/Radium&#45;Engine</text>
<text text-anchor="middle" x="1453.5" y="-508.5" font-family="Helvetica,sans-Serif" font-size="10.00">/src/Core/Math/LinearAlgebra.inl</text>
</g>
<!-- Node2 -->
<g id="node2" class="node"><title>Node2</title>
<g id="a_node2"><a xlink:href="LinearAlgebra_8hpp.html" target="_top" xlink:title="/home/travis/build\l/STORM&#45;IRIT/Radium&#45;Engine\l/src/Core/Math/LinearAlgebra.hpp">
<polygon fill="white" stroke="black" points="1365.5,-423.5 1365.5,-464.5 1541.5,-464.5 1541.5,-423.5 1365.5,-423.5"/>
<text text-anchor="start" x="1373.5" y="-452.5" font-family="Helvetica,sans-Serif" font-size="10.00">/home/travis/build</text>
<text text-anchor="start" x="1373.5" y="-441.5" font-family="Helvetica,sans-Serif" font-size="10.00">/STORM&#45;IRIT/Radium&#45;Engine</text>
<text text-anchor="middle" x="1453.5" y="-430.5" font-family="Helvetica,sans-Serif" font-size="10.00">/src/Core/Math/LinearAlgebra.hpp</text>
</a>
</g>
</g>
<!-- Node1&#45;&gt;Node2 -->
<g id="edge1" class="edge"><title>Node1&#45;&gt;Node2</title>
<path fill="none" stroke="midnightblue" d="M1446.9,-491.297C1446.58,-482.301 1446.78,-472.653 1447.52,-464.506"/>
<polygon fill="midnightblue" stroke="midnightblue" points="1443.41,-491.659 1447.51,-501.428 1450.4,-491.234 1443.41,-491.659"/>
</g>
<!-- Node2&#45;&gt;Node1 -->
<g id="edge44" class="edge"><title>Node2&#45;&gt;Node1</title>
<path fill="none" stroke="midnightblue" d="M1460.1,-474.63C1460.42,-483.622 1460.22,-493.272 1459.49,-501.428"/>
<polygon fill="midnightblue" stroke="midnightblue" points="1463.59,-474.273 1459.48,-464.506 1456.6,-474.701 1463.59,-474.273"/>
</g>
<!-- Node3 -->
<g id="node3" class="node"><title>Node3</title>
<g id="a_node3"><a xlink:href="HandleWeightOperation_8cpp.html" target="_top" xlink:title="/home/travis/build\l/STORM&#45;IRIT/Radium&#45;Engine\l/src/Core/Animation/HandleWeight\lOperation.cpp">
<polygon fill="white" stroke="black" points="0,-334.5 0,-386.5 179,-386.5 179,-334.5 0,-334.5"/>
<text text-anchor="start" x="8" y="-374.5" font-family="Helvetica,sans-Serif" font-size="10.00">/home/travis/build</text>
<text text-anchor="start" x="8" y="-363.5" font-family="Helvetica,sans-Serif" font-size="10.00">/STORM&#45;IRIT/Radium&#45;Engine</text>
<text text-anchor="start" x="8" y="-352.5" font-family="Helvetica,sans-Serif" font-size="10.00">/src/Core/Animation/HandleWeight</text>
<text text-anchor="middle" x="89.5" y="-341.5" font-family="Helvetica,sans-Serif" font-size="10.00">Operation.cpp</text>
</a>
</g>
</g>
<!-- Node2&#45;&gt;Node3 -->
<g id="edge2" class="edge"><title>Node2&#45;&gt;Node3</title>
<path fill="none" stroke="midnightblue" d="M1355.05,-441.286C1098.35,-436.394 412.981,-420.506 188.5,-387 185.428,-386.541 182.313,-386.026 179.176,-385.465"/>
<polygon fill="midnightblue" stroke="midnightblue" points="1355.04,-444.787 1365.11,-441.476 1355.18,-437.788 1355.04,-444.787"/>
</g>
<!-- Node4 -->
<g id="node4" class="node"><title>Node4</title>
<g id="a_node4"><a xlink:href="Skeleton_8cpp.html" target="_top" xlink:title="/home/travis/build\l/STORM&#45;IRIT/Radium&#45;Engine\l/src/Core/Animation/Skeleton.cpp">
<polygon fill="white" stroke="black" points="197.5,-340 197.5,-381 373.5,-381 373.5,-340 197.5,-340"/>
<text text-anchor="start" x="205.5" y="-369" font-family="Helvetica,sans-Serif" font-size="10.00">/home/travis/build</text>
<text text-anchor="start" x="205.5" y="-358" font-family="Helvetica,sans-Serif" font-size="10.00">/STORM&#45;IRIT/Radium&#45;Engine</text>
<text text-anchor="middle" x="285.5" y="-347" font-family="Helvetica,sans-Serif" font-size="10.00">/src/Core/Animation/Skeleton.cpp</text>
</a>
</g>
</g>
<!-- Node2&#45;&gt;Node4 -->
<g id="edge3" class="edge"><title>Node2&#45;&gt;Node4</title>
<path fill="none" stroke="midnightblue" d="M1355.1,-440.433C1127.14,-434.069 568.214,-415.953 382.5,-387 372.779,-385.485 362.625,-383.396 352.701,-381.061"/>
<polygon fill="midnightblue" stroke="midnightblue" points="1355.28,-443.939 1365.37,-440.718 1355.47,-436.942 1355.28,-443.939"/>
</g>
<!-- Node5 -->
<g id="node5" class="node"><title>Node5</title>
<g id="a_node5"><a xlink:href="Tex_8inl.html" target="_top" xlink:title="/home/travis/build\l/STORM&#45;IRIT/Radium&#45;Engine\l/src/Core/Containers/Tex.inl">
<polygon fill="white" stroke="black" points="391.5,-340 391.5,-381 539.5,-381 539.5,-340 391.5,-340"/>
<text text-anchor="start" x="399.5" y="-369" font-family="Helvetica,sans-Serif" font-size="10.00">/home/travis/build</text>
<text text-anchor="start" x="399.5" y="-358" font-family="Helvetica,sans-Serif" font-size="10.00">/STORM&#45;IRIT/Radium&#45;Engine</text>
<text text-anchor="middle" x="465.5" y="-347" font-family="Helvetica,sans-Serif" font-size="10.00">/src/Core/Containers/Tex.inl</text>
</a>
</g>
</g>
<!-- Node2&#45;&gt;Node5 -->
<g id="edge4" class="edge"><title>Node2&#45;&gt;Node5</title>
<path fill="none" stroke="midnightblue" d="M1355.23,-439.851C1153.95,-432.921 700.92,-414.726 548.5,-387 540.195,-385.489 531.551,-383.419 523.115,-381.107"/>
<polygon fill="midnightblue" stroke="midnightblue" points="1355.38,-443.359 1365.5,-440.203 1355.62,-436.363 1355.38,-443.359"/>
</g>
<!-- Node7 -->
<g id="node7" class="node"><title>Node7</title>
<g id="a_node7"><a xlink:href="Adjacency_8cpp.html" target="_top" xlink:title="/home/travis/build\l/STORM&#45;IRIT/Radium&#45;Engine\l/src/Core/Geometry/Adjacency.cpp">
<polygon fill="white" stroke="black" points="558,-340 558,-381 739,-381 739,-340 558,-340"/>
<text text-anchor="start" x="566" y="-369" font-family="Helvetica,sans-Serif" font-size="10.00">/home/travis/build</text>
<text text-anchor="start" x="566" y="-358" font-family="Helvetica,sans-Serif" font-size="10.00">/STORM&#45;IRIT/Radium&#45;Engine</text>
<text text-anchor="middle" x="648.5" y="-347" font-family="Helvetica,sans-Serif" font-size="10.00">/src/Core/Geometry/Adjacency.cpp</text>
</a>
</g>
</g>
<!-- Node2&#45;&gt;Node7 -->
<g id="edge7" class="edge"><title>Node2&#45;&gt;Node7</title>
<path fill="none" stroke="midnightblue" d="M1355.22,-440.474C1218.39,-435.76 963.121,-422.621 748.5,-387 738.867,-385.401 728.804,-383.327 718.929,-381.053"/>
<polygon fill="midnightblue" stroke="midnightblue" points="1355.15,-443.973 1365.26,-440.812 1355.39,-436.977 1355.15,-443.973"/>
</g>
<!-- Node8 -->
<g id="node8" class="node"><title>Node8</title>
<g id="a_node8"><a xlink:href="Area_8cpp.html" target="_top" xlink:title="/home/travis/build\l/STORM&#45;IRIT/Radium&#45;Engine\l/src/Core/Geometry/Area.cpp">
<polygon fill="white" stroke="black" points="757.5,-340 757.5,-381 913.5,-381 913.5,-340 757.5,-340"/>
<text text-anchor="start" x="765.5" y="-369" font-family="Helvetica,sans-Serif" font-size="10.00">/home/travis/build</text>
<text text-anchor="start" x="765.5" y="-358" font-family="Helvetica,sans-Serif" font-size="10.00">/STORM&#45;IRIT/Radium&#45;Engine</text>
<text text-anchor="middle" x="835.5" y="-347" font-family="Helvetica,sans-Serif" font-size="10.00">/src/Core/Geometry/Area.cpp</text>
</a>
</g>
</g>
<!-- Node2&#45;&gt;Node8 -->
<g id="edge8" class="edge"><title>Node2&#45;&gt;Node8</title>
<path fill="none" stroke="midnightblue" d="M1355.24,-437.945C1248.05,-431.202 1071.83,-416.508 922.5,-387 914.316,-385.383 905.792,-383.342 897.419,-381.123"/>
<polygon fill="midnightblue" stroke="midnightblue" points="1355.19,-441.449 1365.39,-438.573 1355.63,-434.462 1355.19,-441.449"/>
</g>
<!-- Node9 -->
<g id="node9" class="node"><title>Node9</title>
<g id="a_node9"><a xlink:href="Laplacian_8cpp.html" target="_top" xlink:title="/home/travis/build\l/STORM&#45;IRIT/Radium&#45;Engine\l/src/Core/Geometry/Laplacian.cpp">
<polygon fill="white" stroke="black" points="932,-340 932,-381 1111,-381 1111,-340 932,-340"/>
<text text-anchor="start" x="940" y="-369" font-family="Helvetica,sans-Serif" font-size="10.00">/home/travis/build</text>
<text text-anchor="start" x="940" y="-358" font-family="Helvetica,sans-Serif" font-size="10.00">/STORM&#45;IRIT/Radium&#45;Engine</text>
<text text-anchor="middle" x="1021.5" y="-347" font-family="Helvetica,sans-Serif" font-size="10.00">/src/Core/Geometry/Laplacian.cpp</text>
</a>
</g>
</g>
<!-- Node2&#45;&gt;Node9 -->
<g id="edge9" class="edge"><title>Node2&#45;&gt;Node9</title>
<path fill="none" stroke="midnightblue" d="M1355.1,-428.843C1288.35,-418.667 1198.26,-403.814 1119.5,-387 1111.08,-385.201 1102.29,-383.157 1093.58,-381.027"/>
<polygon fill="midnightblue" stroke="midnightblue" points="1354.78,-432.335 1365.19,-430.373 1355.83,-425.414 1354.78,-432.335"/>
</g>
<!-- Node10 -->
<g id="node10" class="node"><title>Node10</title>
<g id="a_node10"><a xlink:href="LoopSubdivider_8hpp.html" target="_top" xlink:title="/home/travis/build\l/STORM&#45;IRIT/Radium&#45;Engine\l/src/Core/Geometry/LoopSubdivider.hpp">
<polygon fill="white" stroke="black" points="1129,-340 1129,-381 1336,-381 1336,-340 1129,-340"/>
<text text-anchor="start" x="1137" y="-369" font-family="Helvetica,sans-Serif" font-size="10.00">/home/travis/build</text>
<text text-anchor="start" x="1137" y="-358" font-family="Helvetica,sans-Serif" font-size="10.00">/STORM&#45;IRIT/Radium&#45;Engine</text>
<text text-anchor="middle" x="1232.5" y="-347" font-family="Helvetica,sans-Serif" font-size="10.00">/src/Core/Geometry/LoopSubdivider.hpp</text>
</a>
</g>
</g>
<!-- Node2&#45;&gt;Node10 -->
<g id="edge10" class="edge"><title>Node2&#45;&gt;Node10</title>
<path fill="none" stroke="midnightblue" d="M1390.93,-419.925C1357.62,-407.641 1317.11,-392.701 1285.39,-381.003"/>
<polygon fill="midnightblue" stroke="midnightblue" points="1389.97,-423.302 1400.56,-423.479 1392.39,-416.735 1389.97,-423.302"/>
</g>
<!-- Node12 -->
<g id="node12" class="node"><title>Node12</title>
<g id="a_node12"><a xlink:href="MeshPrimitives_8inl.html" target="_top" xlink:title="/home/travis/build\l/STORM&#45;IRIT/Radium&#45;Engine\l/src/Core/Geometry/MeshPrimitives.inl">
<polygon fill="white" stroke="black" points="1354,-340 1354,-381 1553,-381 1553,-340 1354,-340"/>
<text text-anchor="start" x="1362" y="-369" font-family="Helvetica,sans-Serif" font-size="10.00">/home/travis/build</text>
<text text-anchor="start" x="1362" y="-358" font-family="Helvetica,sans-Serif" font-size="10.00">/STORM&#45;IRIT/Radium&#45;Engine</text>
<text text-anchor="middle" x="1453.5" y="-347" font-family="Helvetica,sans-Serif" font-size="10.00">/src/Core/Geometry/MeshPrimitives.inl</text>
</a>
</g>
</g>
<!-- Node2&#45;&gt;Node12 -->
<g id="edge12" class="edge"><title>Node2&#45;&gt;Node12</title>
<path fill="none" stroke="midnightblue" d="M1453.5,-413.065C1453.5,-402.382 1453.5,-390.63 1453.5,-381.047"/>
<polygon fill="midnightblue" stroke="midnightblue" points="1450,-413.271 1453.5,-423.271 1457,-413.271 1450,-413.271"/>
</g>
<!-- Node22 -->
<g id="node22" class="node"><title>Node22</title>
<g id="a_node22"><a xlink:href="Normal_8cpp.html" target="_top" xlink:title="/home/travis/build\l/STORM&#45;IRIT/Radium&#45;Engine\l/src/Core/Geometry/Normal.cpp">
<polygon fill="white" stroke="black" points="1571,-340 1571,-381 1740,-381 1740,-340 1571,-340"/>
<text text-anchor="start" x="1579" y="-369" font-family="Helvetica,sans-Serif" font-size="10.00">/home/travis/build</text>
<text text-anchor="start" x="1579" y="-358" font-family="Helvetica,sans-Serif" font-size="10.00">/STORM&#45;IRIT/Radium&#45;Engine</text>
<text text-anchor="middle" x="1655.5" y="-347" font-family="Helvetica,sans-Serif" font-size="10.00">/src/Core/Geometry/Normal.cpp</text>
</a>
</g>
</g>
<!-- Node2&#45;&gt;Node22 -->
<g id="edge23" class="edge"><title>Node2&#45;&gt;Node22</title>
<path fill="none" stroke="midnightblue" d="M1511.48,-419.608C1541.77,-407.385 1578.42,-392.6 1607.16,-381.003"/>
<polygon fill="midnightblue" stroke="midnightblue" points="1509.85,-416.491 1501.88,-423.479 1512.47,-422.983 1509.85,-416.491"/>
</g>
<!-- Node23 -->
<g id="node23" class="node"><title>Node23</title>
<g id="a_node23"><a xlink:href="PolyLine_8inl.html" target="_top" xlink:title="/home/travis/build\l/STORM&#45;IRIT/Radium&#45;Engine\l/src/Core/Geometry/PolyLine.inl">
<polygon fill="white" stroke="black" points="1758.5,-340 1758.5,-381 1924.5,-381 1924.5,-340 1758.5,-340"/>
<text text-anchor="start" x="1766.5" y="-369" font-family="Helvetica,sans-Serif" font-size="10.00">/home/travis/build</text>
<text text-anchor="start" x="1766.5" y="-358" font-family="Helvetica,sans-Serif" font-size="10.00">/STORM&#45;IRIT/Radium&#45;Engine</text>
<text text-anchor="middle" x="1841.5" y="-347" font-family="Helvetica,sans-Serif" font-size="10.00">/src/Core/Geometry/PolyLine.inl</text>
</a>
</g>
</g>
<!-- Node2&#45;&gt;Node23 -->
<g id="edge24" class="edge"><title>Node2&#45;&gt;Node23</title>
<path fill="none" stroke="midnightblue" d="M1551.85,-426.364C1609.4,-416.122 1683.34,-402.092 1748.5,-387 1756.33,-385.187 1764.49,-383.157 1772.59,-381.056"/>
<polygon fill="midnightblue" stroke="midnightblue" points="1550.9,-422.977 1541.66,-428.167 1552.12,-429.87 1550.9,-422.977"/>
</g>
<!-- Node26 -->
<g id="node26" class="node"><title>Node26</title>
<g id="a_node26"><a xlink:href="RayCast_8cpp.html" target="_top" xlink:title="/home/travis/build\l/STORM&#45;IRIT/Radium&#45;Engine\l/src/Core/Geometry/RayCast.cpp">
<polygon fill="white" stroke="black" points="1943,-340 1943,-381 2116,-381 2116,-340 1943,-340"/>
<text text-anchor="start" x="1951" y="-369" font-family="Helvetica,sans-Serif" font-size="10.00">/home/travis/build</text>
<text text-anchor="start" x="1951" y="-358" font-family="Helvetica,sans-Serif" font-size="10.00">/STORM&#45;IRIT/Radium&#45;Engine</text>
<text text-anchor="middle" x="2029.5" y="-347" font-family="Helvetica,sans-Serif" font-size="10.00">/src/Core/Geometry/RayCast.cpp</text>
</a>
</g>
</g>
<!-- Node2&#45;&gt;Node26 -->
<g id="edge28" class="edge"><title>Node2&#45;&gt;Node26</title>
<path fill="none" stroke="midnightblue" d="M1551.8,-435.686C1649.26,-427.46 1802.55,-411.897 1933.5,-387 1942.39,-385.309 1951.68,-383.239 1960.82,-381.017"/>
<polygon fill="midnightblue" stroke="midnightblue" points="1551.34,-432.212 1541.66,-436.532 1551.92,-439.188 1551.34,-432.212"/>
</g>
<!-- Node27 -->
<g id="node27" class="node"><title>Node27</title>
<g id="a_node27"><a xlink:href="TriangleOperation_8cpp.html" target="_top" xlink:title="/home/travis/build\l/STORM&#45;IRIT/Radium&#45;Engine\l/src/Core/Geometry/TriangleOperation.cpp">
<polygon fill="white" stroke="black" points="2134,-340 2134,-381 2351,-381 2351,-340 2134,-340"/>
<text text-anchor="start" x="2142" y="-369" font-family="Helvetica,sans-Serif" font-size="10.00">/home/travis/build</text>
<text text-anchor="start" x="2142" y="-358" font-family="Helvetica,sans-Serif" font-size="10.00">/STORM&#45;IRIT/Radium&#45;Engine</text>
<text text-anchor="middle" x="2242.5" y="-347" font-family="Helvetica,sans-Serif" font-size="10.00">/src/Core/Geometry/TriangleOperation.cpp</text>
</a>
</g>
</g>
<!-- Node2&#45;&gt;Node27 -->
<g id="edge29" class="edge"><title>Node2&#45;&gt;Node27</title>
<path fill="none" stroke="midnightblue" d="M1551.76,-438.862C1683.09,-432.409 1922.82,-417.398 2125.5,-387 2136.5,-385.35 2148.01,-383.277 2159.34,-381.028"/>
<polygon fill="midnightblue" stroke="midnightblue" points="1551.54,-435.369 1541.72,-439.349 1551.88,-442.36 1551.54,-435.369"/>
</g>
<!-- Node28 -->
<g id="node28" class="node"><title>Node28</title>
<g id="a_node28"><a xlink:href="DualQuaternion_8inl.html" target="_top" xlink:title="/home/travis/build\l/STORM&#45;IRIT/Radium&#45;Engine\l/src/Core/Math/DualQuaternion.inl">
<polygon fill="white" stroke="black" points="2369.5,-340 2369.5,-381 2547.5,-381 2547.5,-340 2369.5,-340"/>
<text text-anchor="start" x="2377.5" y="-369" font-family="Helvetica,sans-Serif" font-size="10.00">/home/travis/build</text>
<text text-anchor="start" x="2377.5" y="-358" font-family="Helvetica,sans-Serif" font-size="10.00">/STORM&#45;IRIT/Radium&#45;Engine</text>
<text text-anchor="middle" x="2458.5" y="-347" font-family="Helvetica,sans-Serif" font-size="10.00">/src/Core/Math/DualQuaternion.inl</text>
</a>
</g>
</g>
<!-- Node2&#45;&gt;Node28 -->
<g id="edge30" class="edge"><title>Node2&#45;&gt;Node28</title>
<path fill="none" stroke="midnightblue" d="M1551.69,-443.115C1718.83,-441.937 2068.88,-433.496 2360.5,-387 2370.22,-385.45 2380.38,-383.358 2390.32,-381.035"/>
<polygon fill="midnightblue" stroke="midnightblue" points="1551.65,-439.616 1541.67,-443.179 1551.7,-446.615 1551.65,-439.616"/>
</g>
<!-- Node39 -->
<g id="node39" class="node"><title>Node39</title>
<g id="a_node39"><a xlink:href="Component_8cpp.html" target="_top" xlink:title="/home/travis/build\l/STORM&#45;IRIT/Radium&#45;Engine\l/src/Engine/Component/Component.cpp">
<polygon fill="white" stroke="black" points="2565.5,-340 2565.5,-381 2773.5,-381 2773.5,-340 2565.5,-340"/>
<text text-anchor="start" x="2573.5" y="-369" font-family="Helvetica,sans-Serif" font-size="10.00">/home/travis/build</text>
<text text-anchor="start" x="2573.5" y="-358" font-family="Helvetica,sans-Serif" font-size="10.00">/STORM&#45;IRIT/Radium&#45;Engine</text>
<text text-anchor="middle" x="2669.5" y="-347" font-family="Helvetica,sans-Serif" font-size="10.00">/src/Engine/Component/Component.cpp</text>
</a>
</g>
</g>
<!-- Node2&#45;&gt;Node39 -->
<g id="edge45" class="edge"><title>Node2&#45;&gt;Node39</title>
<path fill="none" stroke="midnightblue" d="M1551.69,-443.633C1745,-443.642 2188.16,-437.532 2556.5,-387 2567.76,-385.456 2579.55,-383.351 2591.09,-381.008"/>
<polygon fill="midnightblue" stroke="midnightblue" points="1551.55,-440.133 1541.55,-443.627 1551.55,-447.133 1551.55,-440.133"/>
</g>
<!-- Node40 -->
<g id="node40" class="node"><title>Node40</title>
<g id="a_node40"><a xlink:href="Entity_8cpp.html" target="_top" xlink:title="/home/travis/build\l/STORM&#45;IRIT/Radium&#45;Engine\l/src/Engine/Entity/Entity.cpp">
<polygon fill="white" stroke="black" points="2791.5,-340 2791.5,-381 2939.5,-381 2939.5,-340 2791.5,-340"/>
<text text-anchor="start" x="2799.5" y="-369" font-family="Helvetica,sans-Serif" font-size="10.00">/home/travis/build</text>
<text text-anchor="start" x="2799.5" y="-358" font-family="Helvetica,sans-Serif" font-size="10.00">/STORM&#45;IRIT/Radium&#45;Engine</text>
<text text-anchor="middle" x="2865.5" y="-347" font-family="Helvetica,sans-Serif" font-size="10.00">/src/Engine/Entity/Entity.cpp</text>
</a>
</g>
</g>
<!-- Node2&#45;&gt;Node40 -->
<g id="edge46" class="edge"><title>Node2&#45;&gt;Node40</title>
<path fill="none" stroke="midnightblue" d="M1551.84,-442.113C1817.6,-439.195 2545.99,-427.621 2782.5,-387 2791.12,-385.52 2800.09,-383.402 2808.82,-381.01"/>
<polygon fill="midnightblue" stroke="midnightblue" points="1551.78,-438.613 1541.82,-442.221 1551.86,-445.613 1551.78,-438.613"/>
</g>
<!-- Node6 -->
<g id="node6" class="node"><title>Node6</title>
<g id="a_node6"><a xlink:href="Tex_8hpp.html" target="_top" xlink:title="/home/travis/build\l/STORM&#45;IRIT/Radium&#45;Engine\l/src/Core/Containers/Tex.hpp">
<polygon fill="white" stroke="black" points="389,-256.5 389,-297.5 542,-297.5 542,-256.5 389,-256.5"/>
<text text-anchor="start" x="397" y="-285.5" font-family="Helvetica,sans-Serif" font-size="10.00">/home/travis/build</text>
<text text-anchor="start" x="397" y="-274.5" font-family="Helvetica,sans-Serif" font-size="10.00">/STORM&#45;IRIT/Radium&#45;Engine</text>
<text text-anchor="middle" x="465.5" y="-263.5" font-family="Helvetica,sans-Serif" font-size="10.00">/src/Core/Containers/Tex.hpp</text>
</a>
</g>
</g>
<!-- Node5&#45;&gt;Node6 -->
<g id="edge5" class="edge"><title>Node5&#45;&gt;Node6</title>
<path fill="none" stroke="midnightblue" d="M458.966,-329.565C458.53,-318.882 458.754,-307.13 459.638,-297.547"/>
<polygon fill="midnightblue" stroke="midnightblue" points="455.488,-330.016 459.622,-339.771 462.473,-329.567 455.488,-330.016"/>
</g>
<!-- Node6&#45;&gt;Node5 -->
<g id="edge6" class="edge"><title>Node6&#45;&gt;Node5</title>
<path fill="none" stroke="midnightblue" d="M472.026,-307.733C472.47,-318.402 472.254,-330.161 471.378,-339.771"/>
<polygon fill="midnightblue" stroke="midnightblue" points="475.505,-307.298 471.362,-297.547 468.52,-307.754 475.505,-307.298"/>
</g>
<!-- Node11 -->
<g id="node11" class="node"><title>Node11</title>
<g id="a_node11"><a xlink:href="LoopSubdivider_8cpp.html" target="_top" xlink:title="/home/travis/build\l/STORM&#45;IRIT/Radium&#45;Engine\l/src/Core/Geometry/LoopSubdivider.cpp">
<polygon fill="white" stroke="black" points="1126.5,-256.5 1126.5,-297.5 1332.5,-297.5 1332.5,-256.5 1126.5,-256.5"/>
<text text-anchor="start" x="1134.5" y="-285.5" font-family="Helvetica,sans-Serif" font-size="10.00">/home/travis/build</text>
<text text-anchor="start" x="1134.5" y="-274.5" font-family="Helvetica,sans-Serif" font-size="10.00">/STORM&#45;IRIT/Radium&#45;Engine</text>
<text text-anchor="middle" x="1229.5" y="-263.5" font-family="Helvetica,sans-Serif" font-size="10.00">/src/Core/Geometry/LoopSubdivider.cpp</text>
</a>
</g>
</g>
<!-- Node10&#45;&gt;Node11 -->
<g id="edge11" class="edge"><title>Node10&#45;&gt;Node11</title>
<path fill="none" stroke="midnightblue" d="M1231.4,-329.565C1231,-318.882 1230.57,-307.13 1230.22,-297.547"/>
<polygon fill="midnightblue" stroke="midnightblue" points="1227.91,-329.907 1231.77,-339.771 1234.9,-329.649 1227.91,-329.907"/>
</g>
<!-- Node13 -->
<g id="node13" class="node"><title>Node13</title>
<g id="a_node13"><a xlink:href="MeshPrimitives_8hpp.html" target="_top" xlink:title="/home/travis/build\l/STORM&#45;IRIT/Radium&#45;Engine\l/src/Core/Geometry/MeshPrimitives.hpp">
<polygon fill="white" stroke="black" points="1350.5,-256.5 1350.5,-297.5 1556.5,-297.5 1556.5,-256.5 1350.5,-256.5"/>
<text text-anchor="start" x="1358.5" y="-285.5" font-family="Helvetica,sans-Serif" font-size="10.00">/home/travis/build</text>
<text text-anchor="start" x="1358.5" y="-274.5" font-family="Helvetica,sans-Serif" font-size="10.00">/STORM&#45;IRIT/Radium&#45;Engine</text>
<text text-anchor="middle" x="1453.5" y="-263.5" font-family="Helvetica,sans-Serif" font-size="10.00">/src/Core/Geometry/MeshPrimitives.hpp</text>
</a>
</g>
</g>
<!-- Node12&#45;&gt;Node13 -->
<g id="edge13" class="edge"><title>Node12&#45;&gt;Node13</title>
<path fill="none" stroke="midnightblue" d="M1446.97,-329.565C1446.53,-318.882 1446.75,-307.13 1447.64,-297.547"/>
<polygon fill="midnightblue" stroke="midnightblue" points="1443.49,-330.016 1447.62,-339.771 1450.47,-329.567 1443.49,-330.016"/>
</g>
<!-- Node13&#45;&gt;Node12 -->
<g id="edge15" class="edge"><title>Node13&#45;&gt;Node12</title>
<path fill="none" stroke="midnightblue" d="M1460.03,-307.733C1460.47,-318.402 1460.25,-330.161 1459.38,-339.771"/>
<polygon fill="midnightblue" stroke="midnightblue" points="1463.5,-307.298 1459.36,-297.547 1456.52,-307.754 1463.5,-307.298"/>
</g>
<!-- Node14 -->
<g id="node14" class="node"><title>Node14</title>
<g id="a_node14"><a xlink:href="MeshPrimitives_8cpp.html" target="_top" xlink:title="/home/travis/build\l/STORM&#45;IRIT/Radium&#45;Engine\l/src/Core/Geometry/MeshPrimitives.cpp">
<polygon fill="white" stroke="black" points="1259.5,-173 1259.5,-214 1465.5,-214 1465.5,-173 1259.5,-173"/>
<text text-anchor="start" x="1267.5" y="-202" font-family="Helvetica,sans-Serif" font-size="10.00">/home/travis/build</text>
<text text-anchor="start" x="1267.5" y="-191" font-family="Helvetica,sans-Serif" font-size="10.00">/STORM&#45;IRIT/Radium&#45;Engine</text>
<text text-anchor="middle" x="1362.5" y="-180" font-family="Helvetica,sans-Serif" font-size="10.00">/src/Core/Geometry/MeshPrimitives.cpp</text>
</a>
</g>
</g>
<!-- Node13&#45;&gt;Node14 -->
<g id="edge14" class="edge"><title>Node13&#45;&gt;Node14</title>
<path fill="none" stroke="midnightblue" d="M1423.76,-249.365C1410.91,-237.854 1396.14,-224.629 1384.33,-214.047"/>
<polygon fill="midnightblue" stroke="midnightblue" points="1421.69,-252.207 1431.47,-256.271 1426.36,-246.992 1421.69,-252.207"/>
</g>
<!-- Node15 -->
<g id="node15" class="node"><title>Node15</title>
<g id="a_node15"><a xlink:href="Renderer_8cpp.html" target="_top" xlink:title="/home/travis/build\l/STORM&#45;IRIT/Radium&#45;Engine\l/src/Engine/Renderer/Renderer.cpp">
<polygon fill="white" stroke="black" points="1483.5,-173 1483.5,-214 1663.5,-214 1663.5,-173 1483.5,-173"/>
<text text-anchor="start" x="1491.5" y="-202" font-family="Helvetica,sans-Serif" font-size="10.00">/home/travis/build</text>
<text text-anchor="start" x="1491.5" y="-191" font-family="Helvetica,sans-Serif" font-size="10.00">/STORM&#45;IRIT/Radium&#45;Engine</text>
<text text-anchor="middle" x="1573.5" y="-180" font-family="Helvetica,sans-Serif" font-size="10.00">/src/Engine/Renderer/Renderer.cpp</text>
</a>
</g>
</g>
<!-- Node13&#45;&gt;Node15 -->
<g id="edge16" class="edge"><title>Node13&#45;&gt;Node15</title>
<path fill="none" stroke="midnightblue" d="M1490.98,-250.543C1508.27,-238.799 1528.48,-225.073 1544.58,-214.144"/>
<polygon fill="midnightblue" stroke="midnightblue" points="1488.55,-247.965 1482.24,-256.479 1492.48,-253.756 1488.55,-247.965"/>
</g>
<!-- Node16 -->
<g id="node16" class="node"><title>Node16</title>
<g id="a_node16"><a xlink:href="DebugRender_8cpp.html" target="_top" xlink:title="/home/travis/build\l/STORM&#45;IRIT/Radium&#45;Engine\l/src/Engine/Renderer/Renderers\l/DebugRender.cpp">
<polygon fill="white" stroke="black" points="1681.5,-167.5 1681.5,-219.5 1847.5,-219.5 1847.5,-167.5 1681.5,-167.5"/>
<text text-anchor="start" x="1689.5" y="-207.5" font-family="Helvetica,sans-Serif" font-size="10.00">/home/travis/build</text>
<text text-anchor="start" x="1689.5" y="-196.5" font-family="Helvetica,sans-Serif" font-size="10.00">/STORM&#45;IRIT/Radium&#45;Engine</text>
<text text-anchor="start" x="1689.5" y="-185.5" font-family="Helvetica,sans-Serif" font-size="10.00">/src/Engine/Renderer/Renderers</text>
<text text-anchor="middle" x="1764.5" y="-174.5" font-family="Helvetica,sans-Serif" font-size="10.00">/DebugRender.cpp</text>
</a>
</g>
</g>
<!-- Node13&#45;&gt;Node16 -->
<g id="edge17" class="edge"><title>Node13&#45;&gt;Node16</title>
<path fill="none" stroke="midnightblue" d="M1541.14,-254.018C1581.23,-243.852 1629.32,-231.503 1672.5,-220 1675.38,-219.232 1678.32,-218.446 1681.28,-217.648"/>
<polygon fill="midnightblue" stroke="midnightblue" points="1540.22,-250.639 1531.39,-256.487 1541.94,-257.425 1540.22,-250.639"/>
</g>
<!-- Node17 -->
<g id="node17" class="node"><title>Node17</title>
<g id="a_node17"><a xlink:href="DrawPrimitives_8cpp.html" target="_top" xlink:title="/home/travis/build\l/STORM&#45;IRIT/Radium&#45;Engine\l/src/Engine/Renderer/RenderObject\l/Primitives/DrawPrimitives.cpp">
<polygon fill="white" stroke="black" points="1865.5,-167.5 1865.5,-219.5 2047.5,-219.5 2047.5,-167.5 1865.5,-167.5"/>
<text text-anchor="start" x="1873.5" y="-207.5" font-family="Helvetica,sans-Serif" font-size="10.00">/home/travis/build</text>
<text text-anchor="start" x="1873.5" y="-196.5" font-family="Helvetica,sans-Serif" font-size="10.00">/STORM&#45;IRIT/Radium&#45;Engine</text>
<text text-anchor="start" x="1873.5" y="-185.5" font-family="Helvetica,sans-Serif" font-size="10.00">/src/Engine/Renderer/RenderObject</text>
<text text-anchor="middle" x="1956.5" y="-174.5" font-family="Helvetica,sans-Serif" font-size="10.00">/Primitives/DrawPrimitives.cpp</text>
</a>
</g>
</g>
<!-- Node13&#45;&gt;Node17 -->
<g id="edge18" class="edge"><title>Node13&#45;&gt;Node17</title>
<path fill="none" stroke="midnightblue" d="M1566.95,-263.664C1648.01,-254.017 1759.45,-239.055 1856.5,-220 1859.4,-219.43 1862.34,-218.828 1865.31,-218.2"/>
<polygon fill="midnightblue" stroke="midnightblue" points="1566.24,-260.224 1556.72,-264.873 1567.06,-267.176 1566.24,-260.224"/>
</g>
<!-- Node18 -->
<g id="node18" class="node"><title>Node18</title>
<g id="a_node18"><a xlink:href="RotateGizmo_8cpp.html" target="_top" xlink:title="/home/travis/build\l/STORM&#45;IRIT/Radium&#45;Engine\l/src/GuiBase/Viewer/Gizmo\l/RotateGizmo.cpp">
<polygon fill="white" stroke="black" points="529.5,-167.5 529.5,-219.5 677.5,-219.5 677.5,-167.5 529.5,-167.5"/>
<text text-anchor="start" x="537.5" y="-207.5" font-family="Helvetica,sans-Serif" font-size="10.00">/home/travis/build</text>
<text text-anchor="start" x="537.5" y="-196.5" font-family="Helvetica,sans-Serif" font-size="10.00">/STORM&#45;IRIT/Radium&#45;Engine</text>
<text text-anchor="start" x="537.5" y="-185.5" font-family="Helvetica,sans-Serif" font-size="10.00">/src/GuiBase/Viewer/Gizmo</text>
<text text-anchor="middle" x="603.5" y="-174.5" font-family="Helvetica,sans-Serif" font-size="10.00">/RotateGizmo.cpp</text>
</a>
</g>
</g>
<!-- Node13&#45;&gt;Node18 -->
<g id="edge19" class="edge"><title>Node13&#45;&gt;Node18</title>
<path fill="none" stroke="midnightblue" d="M1340.46,-255.967C1050.12,-223.397 970.298,-270.614 686.5,-220 683.68,-219.497 680.822,-218.928 677.946,-218.306"/>
<polygon fill="midnightblue" stroke="midnightblue" points="1340.1,-259.449 1350.43,-257.108 1340.9,-252.494 1340.1,-259.449"/>
</g>
<!-- Node19 -->
<g id="node19" class="node"><title>Node19</title>
<g id="a_node19"><a xlink:href="ScaleGizmo_8cpp.html" target="_top" xlink:title="/home/travis/build\l/STORM&#45;IRIT/Radium&#45;Engine\l/src/GuiBase/Viewer/Gizmo\l/ScaleGizmo.cpp">
<polygon fill="white" stroke="black" points="695.5,-167.5 695.5,-219.5 843.5,-219.5 843.5,-167.5 695.5,-167.5"/>
<text text-anchor="start" x="703.5" y="-207.5" font-family="Helvetica,sans-Serif" font-size="10.00">/home/travis/build</text>
<text text-anchor="start" x="703.5" y="-196.5" font-family="Helvetica,sans-Serif" font-size="10.00">/STORM&#45;IRIT/Radium&#45;Engine</text>
<text text-anchor="start" x="703.5" y="-185.5" font-family="Helvetica,sans-Serif" font-size="10.00">/src/GuiBase/Viewer/Gizmo</text>
<text text-anchor="middle" x="769.5" y="-174.5" font-family="Helvetica,sans-Serif" font-size="10.00">/ScaleGizmo.cpp</text>
</a>
</g>
</g>
<!-- Node13&#45;&gt;Node19 -->
<g id="edge20" class="edge"><title>Node13&#45;&gt;Node19</title>
<path fill="none" stroke="midnightblue" d="M1340.31,-255.933C1123.47,-229.745 1063.43,-259.644 852.5,-220 849.537,-219.443 846.53,-218.818 843.505,-218.138"/>
<polygon fill="midnightblue" stroke="midnightblue" points="1340.07,-259.43 1350.42,-257.181 1340.93,-252.482 1340.07,-259.43"/>
</g>
<!-- Node20 -->
<g id="node20" class="node"><title>Node20</title>
<g id="a_node20"><a xlink:href="TranslateGizmo_8cpp.html" target="_top" xlink:title="/home/travis/build\l/STORM&#45;IRIT/Radium&#45;Engine\l/src/GuiBase/Viewer/Gizmo\l/TranslateGizmo.cpp">
<polygon fill="white" stroke="black" points="861.5,-167.5 861.5,-219.5 1009.5,-219.5 1009.5,-167.5 861.5,-167.5"/>
<text text-anchor="start" x="869.5" y="-207.5" font-family="Helvetica,sans-Serif" font-size="10.00">/home/travis/build</text>
<text text-anchor="start" x="869.5" y="-196.5" font-family="Helvetica,sans-Serif" font-size="10.00">/STORM&#45;IRIT/Radium&#45;Engine</text>
<text text-anchor="start" x="869.5" y="-185.5" font-family="Helvetica,sans-Serif" font-size="10.00">/src/GuiBase/Viewer/Gizmo</text>
<text text-anchor="middle" x="935.5" y="-174.5" font-family="Helvetica,sans-Serif" font-size="10.00">/TranslateGizmo.cpp</text>
</a>
</g>
</g>
<!-- Node13&#45;&gt;Node20 -->
<g id="edge21" class="edge"><title>Node13&#45;&gt;Node20</title>
<path fill="none" stroke="midnightblue" d="M1340.34,-255.896C1196.76,-235.902 1156.76,-248.68 1018.5,-220 1015.55,-219.388 1012.55,-218.715 1009.53,-217.996"/>
<polygon fill="midnightblue" stroke="midnightblue" points="1340.01,-259.384 1350.4,-257.327 1341,-252.454 1340.01,-259.384"/>
</g>
<!-- Node21 -->
<g id="node21" class="node"><title>Node21</title>
<g id="a_node21"><a xlink:href="MeshFeatureTrackingComponent_8cpp.html" target="_top" xlink:title="/home/travis/build\l/STORM&#45;IRIT/Radium&#45;Engine\l/Plugins/MeshFeatureTracking\l/src/MeshFeatureTrackingComponent.cpp">
<polygon fill="white" stroke="black" points="1028,-167.5 1028,-219.5 1241,-219.5 1241,-167.5 1028,-167.5"/>
<text text-anchor="start" x="1036" y="-207.5" font-family="Helvetica,sans-Serif" font-size="10.00">/home/travis/build</text>
<text text-anchor="start" x="1036" y="-196.5" font-family="Helvetica,sans-Serif" font-size="10.00">/STORM&#45;IRIT/Radium&#45;Engine</text>
<text text-anchor="start" x="1036" y="-185.5" font-family="Helvetica,sans-Serif" font-size="10.00">/Plugins/MeshFeatureTracking</text>
<text text-anchor="middle" x="1134.5" y="-174.5" font-family="Helvetica,sans-Serif" font-size="10.00">/src/MeshFeatureTrackingComponent.cpp</text>
</a>
</g>
</g>
<!-- Node13&#45;&gt;Node21 -->
<g id="edge22" class="edge"><title>Node13&#45;&gt;Node21</title>
<path fill="none" stroke="midnightblue" d="M1367.25,-253.963C1325.59,-243.322 1275.43,-230.506 1232.36,-219.501"/>
<polygon fill="midnightblue" stroke="midnightblue" points="1366.54,-257.394 1377.09,-256.479 1368.27,-250.612 1366.54,-257.394"/>
</g>
<!-- Node24 -->
<g id="node24" class="node"><title>Node24</title>
<g id="a_node24"><a xlink:href="PolyLine_8hpp.html" target="_top" xlink:title="/home/travis/build\l/STORM&#45;IRIT/Radium&#45;Engine\l/src/Core/Geometry/PolyLine.hpp">
<polygon fill="white" stroke="black" points="1755,-256.5 1755,-297.5 1928,-297.5 1928,-256.5 1755,-256.5"/>
<text text-anchor="start" x="1763" y="-285.5" font-family="Helvetica,sans-Serif" font-size="10.00">/home/travis/build</text>
<text text-anchor="start" x="1763" y="-274.5" font-family="Helvetica,sans-Serif" font-size="10.00">/STORM&#45;IRIT/Radium&#45;Engine</text>
<text text-anchor="middle" x="1841.5" y="-263.5" font-family="Helvetica,sans-Serif" font-size="10.00">/src/Core/Geometry/PolyLine.hpp</text>
</a>
</g>
</g>
<!-- Node23&#45;&gt;Node24 -->
<g id="edge25" class="edge"><title>Node23&#45;&gt;Node24</title>
<path fill="none" stroke="midnightblue" d="M1834.97,-329.565C1834.53,-318.882 1834.75,-307.13 1835.64,-297.547"/>
<polygon fill="midnightblue" stroke="midnightblue" points="1831.49,-330.016 1835.62,-339.771 1838.47,-329.567 1831.49,-330.016"/>
</g>
<!-- Node24&#45;&gt;Node23 -->
<g id="edge27" class="edge"><title>Node24&#45;&gt;Node23</title>
<path fill="none" stroke="midnightblue" d="M1848.03,-307.733C1848.47,-318.402 1848.25,-330.161 1847.38,-339.771"/>
<polygon fill="midnightblue" stroke="midnightblue" points="1851.5,-307.298 1847.36,-297.547 1844.52,-307.754 1851.5,-307.298"/>
</g>
<!-- Node25 -->
<g id="node25" class="node"><title>Node25</title>
<g id="a_node25"><a xlink:href="PolyLine_8cpp.html" target="_top" xlink:title="/home/travis/build\l/STORM&#45;IRIT/Radium&#45;Engine\l/src/Core/Geometry/PolyLine.cpp">
<polygon fill="white" stroke="black" points="2066,-173 2066,-214 2239,-214 2239,-173 2066,-173"/>
<text text-anchor="start" x="2074" y="-202" font-family="Helvetica,sans-Serif" font-size="10.00">/home/travis/build</text>
<text text-anchor="start" x="2074" y="-191" font-family="Helvetica,sans-Serif" font-size="10.00">/STORM&#45;IRIT/Radium&#45;Engine</text>
<text text-anchor="middle" x="2152.5" y="-180" font-family="Helvetica,sans-Serif" font-size="10.00">/src/Core/Geometry/PolyLine.cpp</text>
</a>
</g>
</g>
<!-- Node24&#45;&gt;Node25 -->
<g id="edge26" class="edge"><title>Node24&#45;&gt;Node25</title>
<path fill="none" stroke="midnightblue" d="M1926.99,-253.834C1966.43,-243.582 2013.86,-231.217 2056.5,-220 2063.84,-218.07 2071.49,-216.05 2079.13,-214.028"/>
<polygon fill="midnightblue" stroke="midnightblue" points="1925.94,-250.49 1917.14,-256.393 1927.7,-257.265 1925.94,-250.49"/>
</g>
<!-- Node29 -->
<g id="node29" class="node"><title>Node29</title>
<g id="a_node29"><a xlink:href="DualQuaternion_8hpp.html" target="_top" xlink:title="/home/travis/build\l/STORM&#45;IRIT/Radium&#45;Engine\l/src/Core/Math/DualQuaternion.hpp">
<polygon fill="white" stroke="black" points="2366,-256.5 2366,-297.5 2551,-297.5 2551,-256.5 2366,-256.5"/>
<text text-anchor="start" x="2374" y="-285.5" font-family="Helvetica,sans-Serif" font-size="10.00">/home/travis/build</text>
<text text-anchor="start" x="2374" y="-274.5" font-family="Helvetica,sans-Serif" font-size="10.00">/STORM&#45;IRIT/Radium&#45;Engine</text>
<text text-anchor="middle" x="2458.5" y="-263.5" font-family="Helvetica,sans-Serif" font-size="10.00">/src/Core/Math/DualQuaternion.hpp</text>
</a>
</g>
</g>
<!-- Node28&#45;&gt;Node29 -->
<g id="edge31" class="edge"><title>Node28&#45;&gt;Node29</title>
<path fill="none" stroke="midnightblue" d="M2451.97,-329.565C2451.53,-318.882 2451.75,-307.13 2452.64,-297.547"/>
<polygon fill="midnightblue" stroke="midnightblue" points="2448.49,-330.016 2452.62,-339.771 2455.47,-329.567 2448.49,-330.016"/>
</g>
<!-- Node29&#45;&gt;Node28 -->
<g id="edge39" class="edge"><title>Node29&#45;&gt;Node28</title>
<path fill="none" stroke="midnightblue" d="M2465.03,-307.733C2465.47,-318.402 2465.25,-330.161 2464.38,-339.771"/>
<polygon fill="midnightblue" stroke="midnightblue" points="2468.5,-307.298 2464.36,-297.547 2461.52,-307.754 2468.5,-307.298"/>
</g>
<!-- Node30 -->
<g id="node30" class="node"><title>Node30</title>
<g id="a_node30"><a xlink:href="DualQuaternionSkinning_8hpp.html" target="_top" xlink:title="/home/travis/build\l/STORM&#45;IRIT/Radium&#45;Engine\l/src/Core/Animation/DualQuaternion\lSkinning.hpp">
<polygon fill="white" stroke="black" points="2257,-167.5 2257,-219.5 2446,-219.5 2446,-167.5 2257,-167.5"/>
<text text-anchor="start" x="2265" y="-207.5" font-family="Helvetica,sans-Serif" font-size="10.00">/home/travis/build</text>
<text text-anchor="start" x="2265" y="-196.5" font-family="Helvetica,sans-Serif" font-size="10.00">/STORM&#45;IRIT/Radium&#45;Engine</text>
<text text-anchor="start" x="2265" y="-185.5" font-family="Helvetica,sans-Serif" font-size="10.00">/src/Core/Animation/DualQuaternion</text>
<text text-anchor="middle" x="2351.5" y="-174.5" font-family="Helvetica,sans-Serif" font-size="10.00">Skinning.hpp</text>
</a>
</g>
</g>
<!-- Node29&#45;&gt;Node30 -->
<g id="edge32" class="edge"><title>Node29&#45;&gt;Node30</title>
<path fill="none" stroke="midnightblue" d="M2424.74,-250.289C2411.94,-240.533 2397.37,-229.439 2384.62,-219.728"/>
<polygon fill="midnightblue" stroke="midnightblue" points="2422.79,-253.204 2432.87,-256.479 2427.04,-247.635 2422.79,-253.204"/>
</g>
<!-- Node34 -->
<g id="node34" class="node"><title>Node34</title>
<g id="a_node34"><a xlink:href="StretchableTwistableBoneSkinning_8hpp.html" target="_top" xlink:title="/home/travis/build\l/STORM&#45;IRIT/Radium&#45;Engine\l/src/Core/Animation/Stretchable\lTwistableBoneSkinning.hpp">
<polygon fill="white" stroke="black" points="2464.5,-167.5 2464.5,-219.5 2634.5,-219.5 2634.5,-167.5 2464.5,-167.5"/>
<text text-anchor="start" x="2472.5" y="-207.5" font-family="Helvetica,sans-Serif" font-size="10.00">/home/travis/build</text>
<text text-anchor="start" x="2472.5" y="-196.5" font-family="Helvetica,sans-Serif" font-size="10.00">/STORM&#45;IRIT/Radium&#45;Engine</text>
<text text-anchor="start" x="2472.5" y="-185.5" font-family="Helvetica,sans-Serif" font-size="10.00">/src/Core/Animation/Stretchable</text>
<text text-anchor="middle" x="2549.5" y="-174.5" font-family="Helvetica,sans-Serif" font-size="10.00">TwistableBoneSkinning.hpp</text>
</a>
</g>
</g>
<!-- Node29&#45;&gt;Node34 -->
<g id="edge36" class="edge"><title>Node29&#45;&gt;Node34</title>
<path fill="none" stroke="midnightblue" d="M2488.06,-249.525C2498.79,-239.916 2510.87,-229.095 2521.47,-219.607"/>
<polygon fill="midnightblue" stroke="midnightblue" points="2485.64,-246.992 2480.53,-256.271 2490.31,-252.207 2485.64,-246.992"/>
</g>
<!-- Node36 -->
<g id="node36" class="node"><title>Node36</title>
<g id="a_node36"><a xlink:href="SkinningComponent_8hpp.html" target="_top" xlink:title="/home/travis/build\l/STORM&#45;IRIT/Radium&#45;Engine\l/Plugins/Skinning/src/SkinningComponent.hpp">
<polygon fill="white" stroke="black" points="2653,-173 2653,-214 2888,-214 2888,-173 2653,-173"/>
<text text-anchor="start" x="2661" y="-202" font-family="Helvetica,sans-Serif" font-size="10.00">/home/travis/build</text>
<text text-anchor="start" x="2661" y="-191" font-family="Helvetica,sans-Serif" font-size="10.00">/STORM&#45;IRIT/Radium&#45;Engine</text>
<text text-anchor="middle" x="2770.5" y="-180" font-family="Helvetica,sans-Serif" font-size="10.00">/Plugins/Skinning/src/SkinningComponent.hpp</text>
</a>
</g>
</g>
<!-- Node29&#45;&gt;Node36 -->
<g id="edge40" class="edge"><title>Node29&#45;&gt;Node36</title>
<path fill="none" stroke="midnightblue" d="M2542.93,-253.946C2590.66,-241.478 2649.81,-226.027 2695.84,-214.003"/>
<polygon fill="midnightblue" stroke="midnightblue" points="2542.02,-250.565 2533.23,-256.479 2543.79,-257.338 2542.02,-250.565"/>
</g>
<!-- Node31 -->
<g id="node31" class="node"><title>Node31</title>
<g id="a_node31"><a xlink:href="DualQuaternionSkinning_8cpp.html" target="_top" xlink:title="/home/travis/build\l/STORM&#45;IRIT/Radium&#45;Engine\l/src/Core/Animation/DualQuaternion\lSkinning.cpp">
<polygon fill="white" stroke="black" points="2257,-78.5 2257,-130.5 2446,-130.5 2446,-78.5 2257,-78.5"/>
<text text-anchor="start" x="2265" y="-118.5" font-family="Helvetica,sans-Serif" font-size="10.00">/home/travis/build</text>
<text text-anchor="start" x="2265" y="-107.5" font-family="Helvetica,sans-Serif" font-size="10.00">/STORM&#45;IRIT/Radium&#45;Engine</text>
<text text-anchor="start" x="2265" y="-96.5" font-family="Helvetica,sans-Serif" font-size="10.00">/src/Core/Animation/DualQuaternion</text>
<text text-anchor="middle" x="2351.5" y="-85.5" font-family="Helvetica,sans-Serif" font-size="10.00">Skinning.cpp</text>
</a>
</g>
</g>
<!-- Node30&#45;&gt;Node31 -->
<g id="edge33" class="edge"><title>Node30&#45;&gt;Node31</title>
<path fill="none" stroke="midnightblue" d="M2351.5,-157.191C2351.5,-148.282 2351.5,-138.899 2351.5,-130.607"/>
<polygon fill="midnightblue" stroke="midnightblue" points="2348,-157.336 2351.5,-167.336 2355,-157.336 2348,-157.336"/>
</g>
<!-- Node32 -->
<g id="node32" class="node"><title>Node32</title>
<g id="a_node32"><a xlink:href="RotationCenterSkinning_8cpp.html" target="_top" xlink:title="/home/travis/build\l/STORM&#45;IRIT/Radium&#45;Engine\l/src/Core/Animation/RotationCenter\lSkinning.cpp">
<polygon fill="white" stroke="black" points="2054,-78.5 2054,-130.5 2239,-130.5 2239,-78.5 2054,-78.5"/>
<text text-anchor="start" x="2062" y="-118.5" font-family="Helvetica,sans-Serif" font-size="10.00">/home/travis/build</text>
<text text-anchor="start" x="2062" y="-107.5" font-family="Helvetica,sans-Serif" font-size="10.00">/STORM&#45;IRIT/Radium&#45;Engine</text>
<text text-anchor="start" x="2062" y="-96.5" font-family="Helvetica,sans-Serif" font-size="10.00">/src/Core/Animation/RotationCenter</text>
<text text-anchor="middle" x="2146.5" y="-85.5" font-family="Helvetica,sans-Serif" font-size="10.00">Skinning.cpp</text>
</a>
</g>
</g>
<!-- Node30&#45;&gt;Node32 -->
<g id="edge34" class="edge"><title>Node30&#45;&gt;Node32</title>
<path fill="none" stroke="midnightblue" d="M2283.01,-163.436C2257.89,-152.771 2229.68,-140.8 2205.46,-130.521"/>
<polygon fill="midnightblue" stroke="midnightblue" points="2281.91,-166.768 2292.48,-167.453 2284.64,-160.324 2281.91,-166.768"/>
</g>
<!-- Node33 -->
<g id="node33" class="node"><title>Node33</title>
<g id="a_node33"><a xlink:href="SkinningComponent_8cpp.html" target="_top" xlink:title="/home/travis/build\l/STORM&#45;IRIT/Radium&#45;Engine\l/Plugins/Skinning/src/SkinningComponent.cpp">
<polygon fill="white" stroke="black" points="2652.5,-84 2652.5,-125 2886.5,-125 2886.5,-84 2652.5,-84"/>
<text text-anchor="start" x="2660.5" y="-113" font-family="Helvetica,sans-Serif" font-size="10.00">/home/travis/build</text>
<text text-anchor="start" x="2660.5" y="-102" font-family="Helvetica,sans-Serif" font-size="10.00">/STORM&#45;IRIT/Radium&#45;Engine</text>
<text text-anchor="middle" x="2769.5" y="-91" font-family="Helvetica,sans-Serif" font-size="10.00">/Plugins/Skinning/src/SkinningComponent.cpp</text>
</a>
</g>
</g>
<!-- Node30&#45;&gt;Node33 -->
<g id="edge35" class="edge"><title>Node30&#45;&gt;Node33</title>
<path fill="none" stroke="midnightblue" d="M2456.12,-166.909C2540.29,-148.738 2563.13,-146.828 2643.5,-131 2653.24,-129.081 2663.41,-127.059 2673.55,-125.027"/>
<polygon fill="midnightblue" stroke="midnightblue" points="2455.14,-163.541 2446.11,-169.084 2456.63,-170.381 2455.14,-163.541"/>
</g>
<!-- Node34&#45;&gt;Node33 -->
<g id="edge38" class="edge"><title>Node34&#45;&gt;Node33</title>
<path fill="none" stroke="midnightblue" d="M2622.17,-163.762C2654.21,-151.094 2691.03,-136.531 2719.85,-125.134"/>
<polygon fill="midnightblue" stroke="midnightblue" points="2620.85,-160.52 2612.84,-167.453 2623.42,-167.03 2620.85,-160.52"/>
</g>
<!-- Node35 -->
<g id="node35" class="node"><title>Node35</title>
<g id="a_node35"><a xlink:href="StretchableTwistableBoneSkinning_8cpp.html" target="_top" xlink:title="/home/travis/build\l/STORM&#45;IRIT/Radium&#45;Engine\l/src/Core/Animation/Stretchable\lTwistableBoneSkinning.cpp">
<polygon fill="white" stroke="black" points="2464.5,-78.5 2464.5,-130.5 2634.5,-130.5 2634.5,-78.5 2464.5,-78.5"/>
<text text-anchor="start" x="2472.5" y="-118.5" font-family="Helvetica,sans-Serif" font-size="10.00">/home/travis/build</text>
<text text-anchor="start" x="2472.5" y="-107.5" font-family="Helvetica,sans-Serif" font-size="10.00">/STORM&#45;IRIT/Radium&#45;Engine</text>
<text text-anchor="start" x="2472.5" y="-96.5" font-family="Helvetica,sans-Serif" font-size="10.00">/src/Core/Animation/Stretchable</text>
<text text-anchor="middle" x="2549.5" y="-85.5" font-family="Helvetica,sans-Serif" font-size="10.00">TwistableBoneSkinning.cpp</text>
</a>
</g>
</g>
<!-- Node34&#45;&gt;Node35 -->
<g id="edge37" class="edge"><title>Node34&#45;&gt;Node35</title>
<path fill="none" stroke="midnightblue" d="M2549.5,-157.191C2549.5,-148.282 2549.5,-138.899 2549.5,-130.607"/>
<polygon fill="midnightblue" stroke="midnightblue" points="2546,-157.336 2549.5,-167.336 2553,-157.336 2546,-157.336"/>
</g>
<!-- Node36&#45;&gt;Node33 -->
<g id="edge41" class="edge"><title>Node36&#45;&gt;Node33</title>
<path fill="none" stroke="midnightblue" d="M2770.15,-162.441C2770.01,-150.101 2769.85,-136.162 2769.73,-125.164"/>
<polygon fill="midnightblue" stroke="midnightblue" points="2766.66,-162.799 2770.27,-172.758 2773.66,-162.719 2766.66,-162.799"/>
</g>
<!-- Node37 -->
<g id="node37" class="node"><title>Node37</title>
<g id="a_node37"><a xlink:href="SkinningSystem_8hpp.html" target="_top" xlink:title="/home/travis/build\l/STORM&#45;IRIT/Radium&#45;Engine\l/Plugins/Skinning/src/SkinningSystem.hpp">
<polygon fill="white" stroke="black" points="2905,-84 2905,-125 3120,-125 3120,-84 2905,-84"/>
<text text-anchor="start" x="2913" y="-113" font-family="Helvetica,sans-Serif" font-size="10.00">/home/travis/build</text>
<text text-anchor="start" x="2913" y="-102" font-family="Helvetica,sans-Serif" font-size="10.00">/STORM&#45;IRIT/Radium&#45;Engine</text>
<text text-anchor="middle" x="3012.5" y="-91" font-family="Helvetica,sans-Serif" font-size="10.00">/Plugins/Skinning/src/SkinningSystem.hpp</text>
</a>
</g>
</g>
<!-- Node36&#45;&gt;Node37 -->
<g id="edge42" class="edge"><title>Node36&#45;&gt;Node37</title>
<path fill="none" stroke="midnightblue" d="M2834.36,-169.542C2872.82,-155.714 2921.29,-138.291 2957.95,-125.11"/>
<polygon fill="midnightblue" stroke="midnightblue" points="2833.04,-166.299 2824.81,-172.976 2835.4,-172.886 2833.04,-166.299"/>
</g>
<!-- Node38 -->
<g id="node38" class="node"><title>Node38</title>
<g id="a_node38"><a xlink:href="SkinningPlugin_8cpp.html" target="_top" xlink:title="/home/travis/build\l/STORM&#45;IRIT/Radium&#45;Engine\l/Plugins/Skinning/src/SkinningPlugin.cpp">
<polygon fill="white" stroke="black" points="2909.5,-0.5 2909.5,-41.5 3115.5,-41.5 3115.5,-0.5 2909.5,-0.5"/>
<text text-anchor="start" x="2917.5" y="-29.5" font-family="Helvetica,sans-Serif" font-size="10.00">/home/travis/build</text>
<text text-anchor="start" x="2917.5" y="-18.5" font-family="Helvetica,sans-Serif" font-size="10.00">/STORM&#45;IRIT/Radium&#45;Engine</text>
<text text-anchor="middle" x="3012.5" y="-7.5" font-family="Helvetica,sans-Serif" font-size="10.00">/Plugins/Skinning/src/SkinningPlugin.cpp</text>
</a>
</g>
</g>
<!-- Node37&#45;&gt;Node38 -->
<g id="edge43" class="edge"><title>Node37&#45;&gt;Node38</title>
<path fill="none" stroke="midnightblue" d="M3012.5,-73.5646C3012.5,-62.8819 3012.5,-51.1303 3012.5,-41.5472"/>
<polygon fill="midnightblue" stroke="midnightblue" points="3009,-73.7711 3012.5,-83.7711 3016,-73.7712 3009,-73.7711"/>
</g>
</g>
</svg>
