<?xml version="1.0" encoding="UTF-8" standalone="no"?>
<!DOCTYPE svg PUBLIC "-//W3C//DTD SVG 1.1//EN"
 "http://www.w3.org/Graphics/SVG/1.1/DTD/svg11.dtd">
<!-- Generated by graphviz version 2.38.0 (20140413.2041)
 -->
<!-- Title: /home/travis/build/STORM&#45;IRIT/Radium&#45;Engine/src/Core/Geometry/LoopSubdivider.hpp Pages: 1 -->
<svg width="2115pt" height="531pt"
 viewBox="0.00 0.00 2115.00 531.00" xmlns="http://www.w3.org/2000/svg" xmlns:xlink="http://www.w3.org/1999/xlink">
<g id="graph0" class="graph" transform="scale(1 1) rotate(0) translate(4 527)">
<title>/home/travis/build/STORM&#45;IRIT/Radium&#45;Engine/src/Core/Geometry/LoopSubdivider.hpp</title>
<polygon fill="white" stroke="none" points="-4,4 -4,-527 2111,-527 2111,4 -4,4"/>
<!-- Node1 -->
<g id="node1" class="node"><title>Node1</title>
<polygon fill="#bfbfbf" stroke="black" points="1346.5,-481.5 1346.5,-522.5 1553.5,-522.5 1553.5,-481.5 1346.5,-481.5"/>
<text text-anchor="start" x="1354.5" y="-510.5" font-family="Helvetica,sans-Serif" font-size="10.00">/home/travis/build</text>
<text text-anchor="start" x="1354.5" y="-499.5" font-family="Helvetica,sans-Serif" font-size="10.00">/STORM&#45;IRIT/Radium&#45;Engine</text>
<text text-anchor="middle" x="1450" y="-488.5" font-family="Helvetica,sans-Serif" font-size="10.00">/src/Core/Geometry/LoopSubdivider.hpp</text>
</g>
<!-- Node2 -->
<g id="node2" class="node"><title>Node2</title>
<g id="a_node2"><a xlink:href="TopologicalMesh_8hpp.html" target="_top" xlink:title="Core/Geometry/Topological\lMesh.hpp">
<polygon fill="white" stroke="black" points="1377.5,-414.5 1377.5,-444.5 1522.5,-444.5 1522.5,-414.5 1377.5,-414.5"/>
<text text-anchor="start" x="1385.5" y="-432.5" font-family="Helvetica,sans-Serif" font-size="10.00">Core/Geometry/Topological</text>
<text text-anchor="middle" x="1450" y="-421.5" font-family="Helvetica,sans-Serif" font-size="10.00">Mesh.hpp</text>
</a>
</g>
</g>
<!-- Node1&#45;&gt;Node2 -->
<g id="edge1" class="edge"><title>Node1&#45;&gt;Node2</title>
<path fill="none" stroke="midnightblue" d="M1450,-481.362C1450,-473.226 1450,-463.7 1450,-455.105"/>
<polygon fill="midnightblue" stroke="midnightblue" points="1453.5,-454.892 1450,-444.892 1446.5,-454.892 1453.5,-454.892"/>
</g>
<!-- Node33 -->
<g id="node33" class="node"><title>Node33</title>
<g id="a_node33"><a xlink:href="LinearAlgebra_8hpp.html" target="_top" xlink:title="Core/Math/LinearAlgebra.hpp">
<polygon fill="white" stroke="black" points="569,-235.5 569,-254.5 725,-254.5 725,-235.5 569,-235.5"/>
<text text-anchor="middle" x="647" y="-242.5" font-family="Helvetica,sans-Serif" font-size="10.00">Core/Math/LinearAlgebra.hpp</text>
</a>
</g>
</g>
<!-- Node1&#45;&gt;Node33 -->
<g id="edge58" class="edge"><title>Node1&#45;&gt;Node33</title>
<path fill="none" stroke="midnightblue" d="M1346.21,-492.193C1175.86,-476.208 845.961,-438.379 747,-378 701.316,-350.127 669.198,-293 655.07,-263.897"/>
<polygon fill="midnightblue" stroke="midnightblue" points="658.101,-262.118 650.687,-254.549 651.763,-265.089 658.101,-262.118"/>
</g>
<!-- Node41 -->
<g id="node41" class="node"><title>Node41</title>
<polygon fill="white" stroke="#bfbfbf" points="1540.5,-414.5 1540.5,-444.5 1687.5,-444.5 1687.5,-414.5 1540.5,-414.5"/>
<text text-anchor="start" x="1548.5" y="-432.5" font-family="Helvetica,sans-Serif" font-size="10.00">OpenMesh/Tools/Subdivider</text>
<text text-anchor="middle" x="1614" y="-421.5" font-family="Helvetica,sans-Serif" font-size="10.00">/Uniform/SubdividerT.hh</text>
</g>
<!-- Node1&#45;&gt;Node41 -->
<g id="edge74" class="edge"><title>Node1&#45;&gt;Node41</title>
<path fill="none" stroke="midnightblue" d="M1495.68,-481.362C1519.59,-471.085 1548.66,-458.589 1572,-448.555"/>
<polygon fill="midnightblue" stroke="midnightblue" points="1573.49,-451.725 1581.29,-444.56 1570.72,-445.294 1573.49,-451.725"/>
</g>
<!-- Node3 -->
<g id="node3" class="node"><title>Node3</title>
<g id="a_node3"><a xlink:href="OpenMesh_8h.html" target="_top" xlink:title="Core/Geometry/OpenMesh.h">
<polygon fill="white" stroke="black" points="911.5,-235.5 911.5,-254.5 1064.5,-254.5 1064.5,-235.5 911.5,-235.5"/>
<text text-anchor="middle" x="988" y="-242.5" font-family="Helvetica,sans-Serif" font-size="10.00">Core/Geometry/OpenMesh.h</text>
</a>
</g>
</g>
<!-- Node2&#45;&gt;Node3 -->
<g id="edge2" class="edge"><title>Node2&#45;&gt;Node3</title>
<path fill="none" stroke="midnightblue" d="M1377.47,-422.71C1322.67,-416.46 1246.49,-403.699 1184,-378 1111.55,-348.208 1038.14,-289.426 1005.51,-261.472"/>
<polygon fill="midnightblue" stroke="midnightblue" points="1007.61,-258.665 997.764,-254.759 1003.03,-263.954 1007.61,-258.665"/>
</g>
<!-- Node4 -->
<g id="node4" class="node"><title>Node4</title>
<g id="a_node4"><a xlink:href="RaCore_8hpp.html" target="_top" xlink:title="Core/RaCore.hpp">
<polygon fill="white" stroke="black" points="1343,-112.5 1343,-131.5 1441,-131.5 1441,-112.5 1343,-112.5"/>
<text text-anchor="middle" x="1392" y="-119.5" font-family="Helvetica,sans-Serif" font-size="10.00">Core/RaCore.hpp</text>
</a>
</g>
</g>
<!-- Node2&#45;&gt;Node4 -->
<g id="edge47" class="edge"><title>Node2&#45;&gt;Node4</title>
<path fill="none" stroke="midnightblue" d="M1459.22,-414.301C1471.97,-395.864 1496.74,-364.033 1526,-347 1585.63,-312.291 1614.24,-339.658 1677,-311 1721.03,-290.895 1780.21,-276.317 1755,-235 1736.78,-205.137 1715.2,-216.657 1685,-199 1663.4,-186.37 1661.22,-177.328 1638,-168 1577.13,-143.546 1502.42,-132.282 1451.41,-127.157"/>
<polygon fill="midnightblue" stroke="midnightblue" points="1451.51,-123.651 1441.22,-126.183 1450.84,-130.619 1451.51,-123.651"/>
</g>
<!-- Node11 -->
<g id="node11" class="node"><title>Node11</title>
<polygon fill="white" stroke="#bfbfbf" points="889,-112.5 889,-131.5 957,-131.5 957,-112.5 889,-112.5"/>
<text text-anchor="middle" x="923" y="-119.5" font-family="Helvetica,sans-Serif" font-size="10.00">Eigen/Core</text>
</g>
<!-- Node2&#45;&gt;Node11 -->
<g id="edge54" class="edge"><title>Node2&#45;&gt;Node11</title>
<path fill="none" stroke="midnightblue" d="M1377.14,-425.421C1288.78,-420.49 1135.8,-408.095 1008,-378 911.792,-355.345 799,-400.84 799,-302 799,-302 799,-302 799,-244 799,-191.538 856.558,-154.396 893.245,-136.05"/>
<polygon fill="midnightblue" stroke="midnightblue" points="895.031,-139.075 902.524,-131.585 891.995,-132.767 895.031,-139.075"/>
</g>
<!-- Node12 -->
<g id="node12" class="node"><title>Node12</title>
<polygon fill="white" stroke="#bfbfbf" points="777,-112.5 777,-131.5 871,-131.5 871,-112.5 777,-112.5"/>
<text text-anchor="middle" x="824" y="-119.5" font-family="Helvetica,sans-Serif" font-size="10.00">Eigen/Geometry</text>
</g>
<!-- Node2&#45;&gt;Node12 -->
<g id="edge55" class="edge"><title>Node2&#45;&gt;Node12</title>
<path fill="none" stroke="midnightblue" d="M1377.21,-426.372C1219.74,-421.251 857.724,-406.506 810,-378 775.497,-357.391 761,-342.19 761,-302 761,-302 761,-302 761,-244 761,-202.602 790.372,-161.325 809.005,-139.304"/>
<polygon fill="midnightblue" stroke="midnightblue" points="811.802,-141.423 815.764,-131.597 806.539,-136.808 811.802,-141.423"/>
</g>
<!-- Node13 -->
<g id="node13" class="node"><title>Node13</title>
<g id="a_node13"><a xlink:href="Types_8hpp.html" target="_top" xlink:title="Core/Types.hpp">
<polygon fill="white" stroke="black" points="865.5,-174 865.5,-193 954.5,-193 954.5,-174 865.5,-174"/>
<text text-anchor="middle" x="910" y="-181" font-family="Helvetica,sans-Serif" font-size="10.00">Core/Types.hpp</text>
</a>
</g>
</g>
<!-- Node2&#45;&gt;Node13 -->
<g id="edge48" class="edge"><title>Node2&#45;&gt;Node13</title>
<path fill="none" stroke="midnightblue" d="M1377.24,-424.276C1309.87,-418.737 1207.62,-406.16 1123,-378 1012.64,-341.273 951.877,-354.718 892,-255 882.185,-238.654 890.201,-217.075 898.434,-202.117"/>
<polygon fill="midnightblue" stroke="midnightblue" points="901.542,-203.739 903.69,-193.364 895.541,-200.135 901.542,-203.739"/>
</g>
<!-- Node15 -->
<g id="node15" class="node"><title>Node15</title>
<polygon fill="white" stroke="#bfbfbf" points="1255,-168.5 1255,-198.5 1377,-198.5 1377,-168.5 1255,-168.5"/>
<text text-anchor="start" x="1263" y="-186.5" font-family="Helvetica,sans-Serif" font-size="10.00">OpenMesh/Core/Mesh</text>
<text text-anchor="middle" x="1316" y="-175.5" font-family="Helvetica,sans-Serif" font-size="10.00">/Traits.hh</text>
</g>
<!-- Node2&#45;&gt;Node15 -->
<g id="edge51" class="edge"><title>Node2&#45;&gt;Node15</title>
<path fill="none" stroke="midnightblue" d="M1442.22,-414.327C1420.01,-373.897 1356.21,-257.717 1328.78,-207.775"/>
<polygon fill="midnightblue" stroke="midnightblue" points="1331.69,-205.793 1323.81,-198.712 1325.55,-209.162 1331.69,-205.793"/>
</g>
<!-- Node16 -->
<g id="node16" class="node"><title>Node16</title>
<polygon fill="white" stroke="#bfbfbf" points="1395,-168.5 1395,-198.5 1529,-198.5 1529,-168.5 1395,-168.5"/>
<text text-anchor="start" x="1403" y="-186.5" font-family="Helvetica,sans-Serif" font-size="10.00">OpenMesh/Core/Mesh</text>
<text text-anchor="middle" x="1462" y="-175.5" font-family="Helvetica,sans-Serif" font-size="10.00">/TriMesh_ArrayKernelT.hh</text>
</g>
<!-- Node2&#45;&gt;Node16 -->
<g id="edge52" class="edge"><title>Node2&#45;&gt;Node16</title>
<path fill="none" stroke="midnightblue" d="M1450.7,-414.327C1452.67,-374.15 1458.33,-259.166 1460.81,-208.719"/>
<polygon fill="midnightblue" stroke="midnightblue" points="1464.31,-208.872 1461.3,-198.712 1457.31,-208.528 1464.31,-208.872"/>
</g>
<!-- Node17 -->
<g id="node17" class="node"><title>Node17</title>
<g id="a_node17"><a xlink:href="TriangleMesh_8hpp.html" target="_top" xlink:title="Core/Geometry/TriangleMesh.hpp">
<polygon fill="white" stroke="black" points="1193,-353 1193,-372 1369,-372 1369,-353 1193,-353"/>
<text text-anchor="middle" x="1281" y="-360" font-family="Helvetica,sans-Serif" font-size="10.00">Core/Geometry/TriangleMesh.hpp</text>
</a>
</g>
</g>
<!-- Node2&#45;&gt;Node17 -->
<g id="edge19" class="edge"><title>Node2&#45;&gt;Node17</title>
<path fill="none" stroke="midnightblue" d="M1413.33,-414.396C1383.28,-402.84 1341.21,-386.656 1312.62,-375.663"/>
<polygon fill="midnightblue" stroke="midnightblue" points="1313.71,-372.33 1303.12,-372.007 1311.2,-378.864 1313.71,-372.33"/>
</g>
<!-- Node24 -->
<g id="node24" class="node"><title>Node24</title>
<g id="a_node24"><a xlink:href="Index_8hpp.html" target="_top" xlink:title="Core/Utils/Index.hpp">
<polygon fill="white" stroke="black" points="1937.5,-235.5 1937.5,-254.5 2050.5,-254.5 2050.5,-235.5 1937.5,-235.5"/>
<text text-anchor="middle" x="1994" y="-242.5" font-family="Helvetica,sans-Serif" font-size="10.00">Core/Utils/Index.hpp</text>
</a>
</g>
</g>
<!-- Node2&#45;&gt;Node24 -->
<g id="edge49" class="edge"><title>Node2&#45;&gt;Node24</title>
<path fill="none" stroke="midnightblue" d="M1522.81,-415.12C1525.57,-414.722 1528.31,-414.347 1531,-414 1581.19,-407.534 1949.42,-413.979 1985,-378 2014.66,-348.011 2006.4,-293.13 1999.36,-264.495"/>
<polygon fill="midnightblue" stroke="midnightblue" points="2002.68,-263.354 1996.71,-254.599 1995.92,-265.164 2002.68,-263.354"/>
</g>
<!-- Node30 -->
<g id="node30" class="node"><title>Node30</title>
<polygon fill="white" stroke="#bfbfbf" points="1535.5,-347.5 1535.5,-377.5 1678.5,-377.5 1678.5,-347.5 1535.5,-347.5"/>
<text text-anchor="start" x="1543.5" y="-365.5" font-family="Helvetica,sans-Serif" font-size="10.00">OpenMesh/Core/Mesh</text>
<text text-anchor="middle" x="1607" y="-354.5" font-family="Helvetica,sans-Serif" font-size="10.00">/PolyMesh_ArrayKernelT.hh</text>
</g>
<!-- Node2&#45;&gt;Node30 -->
<g id="edge50" class="edge"><title>Node2&#45;&gt;Node30</title>
<path fill="none" stroke="midnightblue" d="M1484.07,-414.396C1507.42,-404.728 1538.59,-391.823 1563.7,-381.426"/>
<polygon fill="midnightblue" stroke="midnightblue" points="1565.1,-384.636 1573,-377.577 1562.42,-378.168 1565.1,-384.636"/>
</g>
<!-- Node31 -->
<g id="node31" class="node"><title>Node31</title>
<polygon fill="white" stroke="#bfbfbf" points="1696.5,-347.5 1696.5,-377.5 1813.5,-377.5 1813.5,-347.5 1696.5,-347.5"/>
<text text-anchor="start" x="1704.5" y="-365.5" font-family="Helvetica,sans-Serif" font-size="10.00">OpenMesh/Core/Utils</text>
<text text-anchor="middle" x="1755" y="-354.5" font-family="Helvetica,sans-Serif" font-size="10.00">/Property.hh</text>
</g>
<!-- Node2&#45;&gt;Node31 -->
<g id="edge53" class="edge"><title>Node2&#45;&gt;Node31</title>
<path fill="none" stroke="midnightblue" d="M1515.89,-414.462C1561.13,-404.825 1622.81,-391.681 1686.56,-378.093"/>
<polygon fill="midnightblue" stroke="midnightblue" points="1687.34,-381.505 1696.39,-375.997 1685.88,-374.659 1687.34,-381.505"/>
</g>
<!-- Node32 -->
<g id="node32" class="node"><title>Node32</title>
<g id="a_node32"><a xlink:href="TopologicalMesh_8inl.html" target="_top" xlink:title="Core/Geometry/Topological\lMesh.inl">
<polygon fill="white" stroke="black" points="1831.5,-347.5 1831.5,-377.5 1976.5,-377.5 1976.5,-347.5 1831.5,-347.5"/>
<text text-anchor="start" x="1839.5" y="-365.5" font-family="Helvetica,sans-Serif" font-size="10.00">Core/Geometry/Topological</text>
<text text-anchor="middle" x="1904" y="-354.5" font-family="Helvetica,sans-Serif" font-size="10.00">Mesh.inl</text>
</a>
</g>
</g>
<!-- Node2&#45;&gt;Node32 -->
<g id="edge56" class="edge"><title>Node2&#45;&gt;Node32</title>
<path fill="none" stroke="midnightblue" d="M1519.02,-414.456C1520.02,-414.302 1521.01,-414.15 1522,-414 1650.85,-394.511 1684.13,-397.353 1813,-378 1815.66,-377.601 1818.36,-377.184 1821.09,-376.753"/>
<polygon fill="midnightblue" stroke="midnightblue" points="1821.76,-380.19 1831.08,-375.141 1820.65,-373.279 1821.76,-380.19"/>
</g>
<!-- Node3&#45;&gt;Node4 -->
<g id="edge3" class="edge"><title>Node3&#45;&gt;Node4</title>
<path fill="none" stroke="midnightblue" d="M1032.84,-235.47C1069.13,-227.888 1121.22,-215.456 1165,-199 1193.47,-188.299 1197.62,-178.925 1226,-168 1263.75,-153.467 1308.04,-141.713 1341.37,-133.866"/>
<polygon fill="midnightblue" stroke="midnightblue" points="1342.39,-137.223 1351.35,-131.558 1340.81,-130.403 1342.39,-137.223"/>
</g>
<!-- Node3&#45;&gt;Node11 -->
<g id="edge10" class="edge"><title>Node3&#45;&gt;Node11</title>
<path fill="none" stroke="midnightblue" d="M986.305,-235.083C983.245,-220.365 975.887,-190.392 963,-168 956.9,-157.4 948.02,-147.09 940.176,-139.018"/>
<polygon fill="midnightblue" stroke="midnightblue" points="942.397,-136.293 932.819,-131.765 937.483,-141.278 942.397,-136.293"/>
</g>
<!-- Node3&#45;&gt;Node12 -->
<g id="edge11" class="edge"><title>Node3&#45;&gt;Node12</title>
<path fill="none" stroke="midnightblue" d="M930.845,-235.447C905.32,-229.093 876.453,-218.07 856,-199 839.594,-183.704 831.283,-158.663 827.304,-141.535"/>
<polygon fill="midnightblue" stroke="midnightblue" points="830.706,-140.7 825.273,-131.604 823.848,-142.103 830.706,-140.7"/>
</g>
<!-- Node3&#45;&gt;Node13 -->
<g id="edge12" class="edge"><title>Node3&#45;&gt;Node13</title>
<path fill="none" stroke="midnightblue" d="M976.825,-235.475C964.429,-226.02 944.21,-210.596 929.254,-199.187"/>
<polygon fill="midnightblue" stroke="midnightblue" points="931.228,-196.291 921.155,-193.009 926.983,-201.857 931.228,-196.291"/>
</g>
<!-- Node3&#45;&gt;Node15 -->
<g id="edge17" class="edge"><title>Node3&#45;&gt;Node15</title>
<path fill="none" stroke="midnightblue" d="M1034.99,-235.475C1089.89,-225.516 1181.29,-208.936 1244.89,-197.4"/>
<polygon fill="midnightblue" stroke="midnightblue" points="1245.63,-200.822 1254.85,-195.594 1244.38,-193.935 1245.63,-200.822"/>
</g>
<!-- Node3&#45;&gt;Node16 -->
<g id="edge18" class="edge"><title>Node3&#45;&gt;Node16</title>
<path fill="none" stroke="midnightblue" d="M1064.53,-237.088C1142.55,-229.645 1267.31,-216.658 1384.67,-199.13"/>
<polygon fill="midnightblue" stroke="midnightblue" points="1385.54,-202.538 1394.91,-197.586 1384.5,-195.616 1385.54,-202.538"/>
</g>
<!-- Node5 -->
<g id="node5" class="node"><title>Node5</title>
<g id="a_node5"><a xlink:href="CoreMacros_8hpp.html" target="_top" xlink:title="Core/CoreMacros.hpp">
<polygon fill="white" stroke="black" points="1169,-56.5 1169,-75.5 1289,-75.5 1289,-56.5 1169,-56.5"/>
<text text-anchor="middle" x="1229" y="-63.5" font-family="Helvetica,sans-Serif" font-size="10.00">Core/CoreMacros.hpp</text>
</a>
</g>
</g>
<!-- Node4&#45;&gt;Node5 -->
<g id="edge4" class="edge"><title>Node4&#45;&gt;Node5</title>
<path fill="none" stroke="midnightblue" d="M1366.17,-112.444C1338.75,-103.359 1295.22,-88.9388 1264.57,-78.7831"/>
<polygon fill="midnightblue" stroke="midnightblue" points="1265.3,-75.3389 1254.71,-75.5164 1263.1,-81.9837 1265.3,-75.3389"/>
</g>
<!-- Node6 -->
<g id="node6" class="node"><title>Node6</title>
<polygon fill="white" stroke="#bfbfbf" points="1066,-0.5 1066,-19.5 1118,-19.5 1118,-0.5 1066,-0.5"/>
<text text-anchor="middle" x="1092" y="-7.5" font-family="Helvetica,sans-Serif" font-size="10.00">cassert</text>
</g>
<!-- Node5&#45;&gt;Node6 -->
<g id="edge5" class="edge"><title>Node5&#45;&gt;Node6</title>
<path fill="none" stroke="midnightblue" d="M1207.29,-56.4435C1184.65,-47.5171 1148.93,-33.4387 1123.25,-23.3168"/>
<polygon fill="midnightblue" stroke="midnightblue" points="1124.19,-19.9273 1113.61,-19.5164 1121.63,-26.4397 1124.19,-19.9273"/>
</g>
<!-- Node7 -->
<g id="node7" class="node"><title>Node7</title>
<polygon fill="white" stroke="#bfbfbf" points="1136.5,-0.5 1136.5,-19.5 1181.5,-19.5 1181.5,-0.5 1136.5,-0.5"/>
<text text-anchor="middle" x="1159" y="-7.5" font-family="Helvetica,sans-Serif" font-size="10.00">cstdio</text>
</g>
<!-- Node5&#45;&gt;Node7 -->
<g id="edge6" class="edge"><title>Node5&#45;&gt;Node7</title>
<path fill="none" stroke="midnightblue" d="M1217.75,-56.324C1207.2,-48.1849 1191.2,-35.8395 1178.56,-26.0874"/>
<polygon fill="midnightblue" stroke="midnightblue" points="1180.51,-23.1707 1170.45,-19.8339 1176.23,-28.7132 1180.51,-23.1707"/>
</g>
<!-- Node8 -->
<g id="node8" class="node"><title>Node8</title>
<polygon fill="white" stroke="#bfbfbf" points="1199.5,-0.5 1199.5,-19.5 1258.5,-19.5 1258.5,-0.5 1199.5,-0.5"/>
<text text-anchor="middle" x="1229" y="-7.5" font-family="Helvetica,sans-Serif" font-size="10.00">iostream</text>
</g>
<!-- Node5&#45;&gt;Node8 -->
<g id="edge7" class="edge"><title>Node5&#45;&gt;Node8</title>
<path fill="none" stroke="midnightblue" d="M1229,-56.083C1229,-49.0059 1229,-38.8611 1229,-29.9865"/>
<polygon fill="midnightblue" stroke="midnightblue" points="1232.5,-29.751 1229,-19.7511 1225.5,-29.7511 1232.5,-29.751"/>
</g>
<!-- Node9 -->
<g id="node9" class="node"><title>Node9</title>
<polygon fill="white" stroke="#bfbfbf" points="1277,-0.5 1277,-19.5 1333,-19.5 1333,-0.5 1277,-0.5"/>
<text text-anchor="middle" x="1305" y="-7.5" font-family="Helvetica,sans-Serif" font-size="10.00">sstream</text>
</g>
<!-- Node5&#45;&gt;Node9 -->
<g id="edge8" class="edge"><title>Node5&#45;&gt;Node9</title>
<path fill="none" stroke="midnightblue" d="M1241.21,-56.324C1252.78,-48.1066 1270.38,-35.6017 1284.16,-25.8069"/>
<polygon fill="midnightblue" stroke="midnightblue" points="1286.44,-28.4791 1292.57,-19.8339 1282.39,-22.7729 1286.44,-28.4791"/>
</g>
<!-- Node10 -->
<g id="node10" class="node"><title>Node10</title>
<polygon fill="white" stroke="#bfbfbf" points="1351,-0.5 1351,-19.5 1399,-19.5 1399,-0.5 1351,-0.5"/>
<text text-anchor="middle" x="1375" y="-7.5" font-family="Helvetica,sans-Serif" font-size="10.00">thread</text>
</g>
<!-- Node5&#45;&gt;Node10 -->
<g id="edge9" class="edge"><title>Node5&#45;&gt;Node10</title>
<path fill="none" stroke="midnightblue" d="M1252.13,-56.4435C1276.48,-47.4381 1315.01,-33.1891 1342.42,-23.049"/>
<polygon fill="midnightblue" stroke="midnightblue" points="1343.81,-26.2681 1351.97,-19.5164 1341.38,-19.7028 1343.81,-26.2681"/>
</g>
<!-- Node13&#45;&gt;Node4 -->
<g id="edge13" class="edge"><title>Node13&#45;&gt;Node4</title>
<path fill="none" stroke="midnightblue" d="M954.867,-175.047C969.837,-172.662 986.62,-170.098 1002,-168 1118.9,-152.05 1256.03,-137.095 1332.58,-129.082"/>
<polygon fill="midnightblue" stroke="midnightblue" points="1333.39,-132.517 1342.97,-127.998 1332.66,-125.554 1333.39,-132.517"/>
</g>
<!-- Node13&#45;&gt;Node11 -->
<g id="edge14" class="edge"><title>Node13&#45;&gt;Node11</title>
<path fill="none" stroke="midnightblue" d="M911.863,-173.975C913.716,-165.492 916.619,-152.204 918.997,-141.322"/>
<polygon fill="midnightblue" stroke="midnightblue" points="922.426,-142.026 921.141,-131.509 915.587,-140.532 922.426,-142.026"/>
</g>
<!-- Node13&#45;&gt;Node12 -->
<g id="edge15" class="edge"><title>Node13&#45;&gt;Node12</title>
<path fill="none" stroke="midnightblue" d="M897.678,-173.975C883.884,-164.431 861.301,-148.807 844.768,-137.368"/>
<polygon fill="midnightblue" stroke="midnightblue" points="846.514,-134.32 836.299,-131.509 842.531,-140.077 846.514,-134.32"/>
</g>
<!-- Node14 -->
<g id="node14" class="node"><title>Node14</title>
<polygon fill="white" stroke="#bfbfbf" points="637,-112.5 637,-131.5 717,-131.5 717,-112.5 637,-112.5"/>
<text text-anchor="middle" x="677" y="-119.5" font-family="Helvetica,sans-Serif" font-size="10.00">Eigen/Sparse</text>
</g>
<!-- Node13&#45;&gt;Node14 -->
<g id="edge16" class="edge"><title>Node13&#45;&gt;Node14</title>
<path fill="none" stroke="midnightblue" d="M876.617,-173.975C835.438,-163.459 765.35,-145.562 720.131,-134.014"/>
<polygon fill="midnightblue" stroke="midnightblue" points="720.876,-130.592 710.321,-131.509 719.144,-137.375 720.876,-130.592"/>
</g>
<!-- Node17&#45;&gt;Node4 -->
<g id="edge31" class="edge"><title>Node17&#45;&gt;Node4</title>
<path fill="none" stroke="midnightblue" d="M1251.82,-352.992C1217.08,-341.382 1166.33,-318.805 1188,-291 1228.29,-239.309 1267.59,-271.558 1331,-255 1423.22,-230.921 1480.07,-274.682 1538,-199 1565.58,-162.973 1502.79,-142.401 1451.12,-131.971"/>
<polygon fill="midnightblue" stroke="midnightblue" points="1451.78,-128.533 1441.3,-130.079 1450.45,-135.407 1451.78,-128.533"/>
</g>
<!-- Node17&#45;&gt;Node13 -->
<g id="edge32" class="edge"><title>Node17&#45;&gt;Node13</title>
<path fill="none" stroke="midnightblue" d="M1217.73,-352.978C1120.13,-338.389 940.078,-305.253 902,-255 890.757,-240.163 895.576,-218.275 901.412,-202.831"/>
<polygon fill="midnightblue" stroke="midnightblue" points="904.756,-203.908 905.429,-193.335 898.309,-201.181 904.756,-203.908"/>
</g>
<!-- Node18 -->
<g id="node18" class="node"><title>Node18</title>
<g id="a_node18"><a xlink:href="VectorArray_8hpp.html" target="_top" xlink:title="Core/Containers/VectorArray.hpp">
<polygon fill="white" stroke="black" points="1573.5,-235.5 1573.5,-254.5 1746.5,-254.5 1746.5,-235.5 1573.5,-235.5"/>
<text text-anchor="middle" x="1660" y="-242.5" font-family="Helvetica,sans-Serif" font-size="10.00">Core/Containers/VectorArray.hpp</text>
</a>
</g>
</g>
<!-- Node17&#45;&gt;Node18 -->
<g id="edge20" class="edge"><title>Node17&#45;&gt;Node18</title>
<path fill="none" stroke="midnightblue" d="M1309.18,-352.913C1376.41,-332.424 1546.26,-280.661 1622.25,-257.505"/>
<polygon fill="midnightblue" stroke="midnightblue" points="1623.35,-260.828 1631.9,-254.565 1621.31,-254.132 1623.35,-260.828"/>
</g>
<!-- Node22 -->
<g id="node22" class="node"><title>Node22</title>
<g id="a_node22"><a xlink:href="AbstractGeometry_8hpp.html" target="_top" xlink:title="Core/Geometry/AbstractGeometry.hpp">
<polygon fill="white" stroke="black" points="1121.5,-235.5 1121.5,-254.5 1322.5,-254.5 1322.5,-235.5 1121.5,-235.5"/>
<text text-anchor="middle" x="1222" y="-242.5" font-family="Helvetica,sans-Serif" font-size="10.00">Core/Geometry/AbstractGeometry.hpp</text>
</a>
</g>
</g>
<!-- Node17&#45;&gt;Node22 -->
<g id="edge28" class="edge"><title>Node17&#45;&gt;Node22</title>
<path fill="none" stroke="midnightblue" d="M1222.58,-352.935C1197.39,-346.026 1170.25,-333.545 1155,-311 1141.05,-290.381 1167.96,-271.103 1191.72,-258.981"/>
<polygon fill="midnightblue" stroke="midnightblue" points="1193.43,-262.044 1200.92,-254.546 1190.39,-255.739 1193.43,-262.044"/>
</g>
<!-- Node23 -->
<g id="node23" class="node"><title>Node23</title>
<g id="a_node23"><a xlink:href="Attribs_8hpp.html" target="_top" xlink:title="Core/Utils/Attribs.hpp">
<polygon fill="white" stroke="black" points="1549.5,-291.5 1549.5,-310.5 1668.5,-310.5 1668.5,-291.5 1549.5,-291.5"/>
<text text-anchor="middle" x="1609" y="-298.5" font-family="Helvetica,sans-Serif" font-size="10.00">Core/Utils/Attribs.hpp</text>
</a>
</g>
</g>
<!-- Node17&#45;&gt;Node23 -->
<g id="edge33" class="edge"><title>Node17&#45;&gt;Node23</title>
<path fill="none" stroke="midnightblue" d="M1327.99,-352.975C1387.18,-342.239 1488.79,-323.806 1552.25,-312.295"/>
<polygon fill="midnightblue" stroke="midnightblue" points="1552.88,-315.738 1562.09,-310.509 1551.63,-308.85 1552.88,-315.738"/>
</g>
<!-- Node27 -->
<g id="node27" class="node"><title>Node27</title>
<g id="a_node27"><a xlink:href="Color_8hpp.html" target="_top" xlink:title="Core/Utils/Color.hpp">
<polygon fill="white" stroke="black" points="1011.5,-174 1011.5,-193 1122.5,-193 1122.5,-174 1011.5,-174"/>
<text text-anchor="middle" x="1067" y="-181" font-family="Helvetica,sans-Serif" font-size="10.00">Core/Utils/Color.hpp</text>
</a>
</g>
</g>
<!-- Node17&#45;&gt;Node27 -->
<g id="edge40" class="edge"><title>Node17&#45;&gt;Node27</title>
<path fill="none" stroke="midnightblue" d="M1239.46,-352.964C1211.32,-345.555 1174.57,-332.541 1148,-311 1111.16,-281.136 1085.78,-229.864 1074.18,-202.67"/>
<polygon fill="midnightblue" stroke="midnightblue" points="1077.33,-201.136 1070.29,-193.22 1070.86,-203.8 1077.33,-201.136"/>
</g>
<!-- Node29 -->
<g id="node29" class="node"><title>Node29</title>
<g id="a_node29"><a xlink:href="TriangleMesh_8inl.html" target="_top" xlink:title="Core/Geometry/TriangleMesh.inl">
<polygon fill="white" stroke="black" points="1197,-291.5 1197,-310.5 1365,-310.5 1365,-291.5 1197,-291.5"/>
<text text-anchor="middle" x="1281" y="-298.5" font-family="Helvetica,sans-Serif" font-size="10.00">Core/Geometry/TriangleMesh.inl</text>
</a>
</g>
</g>
<!-- Node17&#45;&gt;Node29 -->
<g id="edge45" class="edge"><title>Node17&#45;&gt;Node29</title>
<path fill="none" stroke="midnightblue" d="M1276.1,-352.975C1274.27,-344.58 1273.8,-331.481 1274.69,-320.663"/>
<polygon fill="midnightblue" stroke="midnightblue" points="1278.19,-320.897 1276.1,-310.509 1271.25,-319.929 1278.19,-320.897"/>
</g>
<!-- Node18&#45;&gt;Node4 -->
<g id="edge25" class="edge"><title>Node18&#45;&gt;Node4</title>
<path fill="none" stroke="midnightblue" d="M1656.78,-235.318C1650.34,-219.264 1634.31,-185.028 1609,-168 1562.25,-136.557 1497.99,-126.361 1451.54,-123.394"/>
<polygon fill="midnightblue" stroke="midnightblue" points="1451.5,-119.886 1441.32,-122.838 1451.12,-126.876 1451.5,-119.886"/>
</g>
<!-- Node18&#45;&gt;Node13 -->
<g id="edge26" class="edge"><title>Node18&#45;&gt;Node13</title>
<path fill="none" stroke="midnightblue" d="M1573.29,-240.505C1447.23,-234.872 1206.1,-222.017 1002,-199 989.949,-197.641 977.063,-195.834 964.865,-193.957"/>
<polygon fill="midnightblue" stroke="midnightblue" points="965.238,-190.473 954.815,-192.374 964.148,-197.388 965.238,-190.473"/>
</g>
<!-- Node19 -->
<g id="node19" class="node"><title>Node19</title>
<g id="a_node19"><a xlink:href="AlignedStdVector_8hpp.html" target="_top" xlink:title="Core/Containers/AlignedStd\lVector.hpp">
<polygon fill="white" stroke="black" points="1736.5,-168.5 1736.5,-198.5 1885.5,-198.5 1885.5,-168.5 1736.5,-168.5"/>
<text text-anchor="start" x="1744.5" y="-186.5" font-family="Helvetica,sans-Serif" font-size="10.00">Core/Containers/AlignedStd</text>
<text text-anchor="middle" x="1811" y="-175.5" font-family="Helvetica,sans-Serif" font-size="10.00">Vector.hpp</text>
</a>
</g>
</g>
<!-- Node18&#45;&gt;Node19 -->
<g id="edge21" class="edge"><title>Node18&#45;&gt;Node19</title>
<path fill="none" stroke="midnightblue" d="M1681.63,-235.475C1703.52,-226.852 1738,-213.264 1765.86,-202.285"/>
<polygon fill="midnightblue" stroke="midnightblue" points="1767.39,-205.445 1775.41,-198.523 1764.83,-198.933 1767.39,-205.445"/>
</g>
<!-- Node21 -->
<g id="node21" class="node"><title>Node21</title>
<polygon fill="white" stroke="#bfbfbf" points="1882.5,-112.5 1882.5,-131.5 1929.5,-131.5 1929.5,-112.5 1882.5,-112.5"/>
<text text-anchor="middle" x="1906" y="-119.5" font-family="Helvetica,sans-Serif" font-size="10.00">vector</text>
</g>
<!-- Node18&#45;&gt;Node21 -->
<g id="edge27" class="edge"><title>Node18&#45;&gt;Node21</title>
<path fill="none" stroke="midnightblue" d="M1746.65,-237.64C1804.55,-231.527 1873.69,-220.002 1894,-199 1908.55,-183.956 1909.78,-158.859 1908.55,-141.649"/>
<polygon fill="midnightblue" stroke="midnightblue" points="1912.03,-141.243 1907.5,-131.664 1905.07,-141.975 1912.03,-141.243"/>
</g>
<!-- Node19&#45;&gt;Node4 -->
<g id="edge22" class="edge"><title>Node19&#45;&gt;Node4</title>
<path fill="none" stroke="midnightblue" d="M1736.13,-170.016C1731.69,-169.322 1727.29,-168.645 1723,-168 1628.14,-153.74 1517.69,-139.122 1451.38,-130.561"/>
<polygon fill="midnightblue" stroke="midnightblue" points="1451.5,-127.047 1441.13,-129.24 1450.6,-133.989 1451.5,-127.047"/>
</g>
<!-- Node20 -->
<g id="node20" class="node"><title>Node20</title>
<polygon fill="white" stroke="#bfbfbf" points="1764.5,-112.5 1764.5,-131.5 1857.5,-131.5 1857.5,-112.5 1764.5,-112.5"/>
<text text-anchor="middle" x="1811" y="-119.5" font-family="Helvetica,sans-Serif" font-size="10.00">Eigen/StdVector</text>
</g>
<!-- Node19&#45;&gt;Node20 -->
<g id="edge23" class="edge"><title>Node19&#45;&gt;Node20</title>
<path fill="none" stroke="midnightblue" d="M1811,-168.399C1811,-160.466 1811,-150.458 1811,-141.858"/>
<polygon fill="midnightblue" stroke="midnightblue" points="1814.5,-141.658 1811,-131.658 1807.5,-141.658 1814.5,-141.658"/>
</g>
<!-- Node19&#45;&gt;Node21 -->
<g id="edge24" class="edge"><title>Node19&#45;&gt;Node21</title>
<path fill="none" stroke="midnightblue" d="M1833.51,-168.399C1848.6,-158.951 1868.39,-146.559 1883.47,-137.109"/>
<polygon fill="midnightblue" stroke="midnightblue" points="1885.56,-139.932 1892.18,-131.658 1881.84,-134 1885.56,-139.932"/>
</g>
<!-- Node22&#45;&gt;Node4 -->
<g id="edge29" class="edge"><title>Node22&#45;&gt;Node4</title>
<path fill="none" stroke="midnightblue" d="M1222.23,-235.391C1223.12,-219.763 1227.25,-186.623 1246,-168 1268.9,-145.262 1303,-133.973 1332.49,-128.385"/>
<polygon fill="midnightblue" stroke="midnightblue" points="1333.44,-131.774 1342.71,-126.638 1332.26,-124.875 1333.44,-131.774"/>
</g>
<!-- Node22&#45;&gt;Node13 -->
<g id="edge30" class="edge"><title>Node22&#45;&gt;Node13</title>
<path fill="none" stroke="midnightblue" d="M1177.3,-235.475C1121.23,-224.783 1025.14,-206.458 964.731,-194.937"/>
<polygon fill="midnightblue" stroke="midnightblue" points="965.098,-191.444 954.619,-193.009 963.786,-198.32 965.098,-191.444"/>
</g>
<!-- Node23&#45;&gt;Node4 -->
<g id="edge35" class="edge"><title>Node23&#45;&gt;Node4</title>
<path fill="none" stroke="midnightblue" d="M1595.94,-291.436C1585.09,-283.471 1570.43,-270.515 1564,-255 1549.16,-219.161 1594.85,-198.591 1571,-168 1556.22,-149.048 1497.31,-136.857 1451.06,-130.009"/>
<polygon fill="midnightblue" stroke="midnightblue" points="1451.5,-126.536 1441.1,-128.588 1450.51,-133.466 1451.5,-126.536"/>
</g>
<!-- Node23&#45;&gt;Node18 -->
<g id="edge34" class="edge"><title>Node23&#45;&gt;Node18</title>
<path fill="none" stroke="midnightblue" d="M1617.42,-291.083C1624.85,-283.22 1635.85,-271.569 1644.81,-262.081"/>
<polygon fill="midnightblue" stroke="midnightblue" points="1647.41,-264.424 1651.74,-254.751 1642.32,-259.618 1647.41,-264.424"/>
</g>
<!-- Node23&#45;&gt;Node24 -->
<g id="edge36" class="edge"><title>Node23&#45;&gt;Node24</title>
<path fill="none" stroke="midnightblue" d="M1668.73,-291.622C1738.73,-281.804 1854.39,-265.581 1927.27,-255.359"/>
<polygon fill="midnightblue" stroke="midnightblue" points="1927.85,-258.813 1937.27,-253.958 1926.88,-251.881 1927.85,-258.813"/>
</g>
<!-- Node24&#45;&gt;Node4 -->
<g id="edge37" class="edge"><title>Node24&#45;&gt;Node4</title>
<path fill="none" stroke="midnightblue" d="M1937.42,-242.075C1881.86,-238.457 1795.69,-228.157 1727,-199 1705.64,-189.935 1706.42,-176.909 1685,-168 1608.41,-136.149 1512.12,-126.567 1451.29,-123.838"/>
<polygon fill="midnightblue" stroke="midnightblue" points="1451.24,-120.333 1441.11,-123.43 1450.96,-127.328 1451.24,-120.333"/>
</g>
<!-- Node25 -->
<g id="node25" class="node"><title>Node25</title>
<polygon fill="white" stroke="#bfbfbf" points="2065,-174 2065,-193 2107,-193 2107,-174 2065,-174"/>
<text text-anchor="middle" x="2086" y="-181" font-family="Helvetica,sans-Serif" font-size="10.00">limits</text>
</g>
<!-- Node24&#45;&gt;Node25 -->
<g id="edge38" class="edge"><title>Node24&#45;&gt;Node25</title>
<path fill="none" stroke="midnightblue" d="M2007.18,-235.475C2022.07,-225.843 2046.54,-210.017 2064.27,-198.552"/>
<polygon fill="midnightblue" stroke="midnightblue" points="2066.35,-201.379 2072.84,-193.009 2062.55,-195.501 2066.35,-201.379"/>
</g>
<!-- Node26 -->
<g id="node26" class="node"><title>Node26</title>
<g id="a_node26"><a xlink:href="Index_8inl.html" target="_top" xlink:title="Core/Utils/Index.inl">
<polygon fill="white" stroke="black" points="1941.5,-174 1941.5,-193 2046.5,-193 2046.5,-174 1941.5,-174"/>
<text text-anchor="middle" x="1994" y="-181" font-family="Helvetica,sans-Serif" font-size="10.00">Core/Utils/Index.inl</text>
</a>
</g>
</g>
<!-- Node24&#45;&gt;Node26 -->
<g id="edge39" class="edge"><title>Node24&#45;&gt;Node26</title>
<path fill="none" stroke="midnightblue" d="M1994,-235.475C1994,-227.08 1994,-213.981 1994,-203.163"/>
<polygon fill="midnightblue" stroke="midnightblue" points="1997.5,-203.009 1994,-193.009 1990.5,-203.009 1997.5,-203.009"/>
</g>
<!-- Node27&#45;&gt;Node5 -->
<g id="edge41" class="edge"><title>Node27&#45;&gt;Node5</title>
<path fill="none" stroke="midnightblue" d="M1066.82,-173.86C1066.99,-159.158 1069.5,-129.198 1086,-112 1105.09,-92.0974 1132.88,-80.9611 1158.89,-74.744"/>
<polygon fill="midnightblue" stroke="midnightblue" points="1159.73,-78.144 1168.75,-72.594 1158.24,-71.3046 1159.73,-78.144"/>
</g>
<!-- Node27&#45;&gt;Node11 -->
<g id="edge42" class="edge"><title>Node27&#45;&gt;Node11</title>
<path fill="none" stroke="midnightblue" d="M1046.37,-173.975C1021.88,-163.857 980.853,-146.905 952.891,-135.351"/>
<polygon fill="midnightblue" stroke="midnightblue" points="954.172,-132.093 943.593,-131.509 951.499,-138.563 954.172,-132.093"/>
</g>
<!-- Node27&#45;&gt;Node12 -->
<g id="edge43" class="edge"><title>Node27&#45;&gt;Node12</title>
<path fill="none" stroke="midnightblue" d="M1032.18,-173.975C989.148,-163.437 915.835,-145.486 868.685,-133.941"/>
<polygon fill="midnightblue" stroke="midnightblue" points="869.297,-130.488 858.751,-131.509 867.632,-137.287 869.297,-130.488"/>
</g>
<!-- Node28 -->
<g id="node28" class="node"><title>Node28</title>
<polygon fill="white" stroke="#bfbfbf" points="1095,-112.5 1095,-131.5 1149,-131.5 1149,-112.5 1095,-112.5"/>
<text text-anchor="middle" x="1122" y="-119.5" font-family="Helvetica,sans-Serif" font-size="10.00">random</text>
</g>
<!-- Node27&#45;&gt;Node28 -->
<g id="edge44" class="edge"><title>Node27&#45;&gt;Node28</title>
<path fill="none" stroke="midnightblue" d="M1074.88,-173.975C1083.29,-164.873 1096.82,-150.241 1107.23,-138.983"/>
<polygon fill="midnightblue" stroke="midnightblue" points="1109.92,-141.228 1114.13,-131.509 1104.78,-136.477 1109.92,-141.228"/>
</g>
<!-- Node29&#45;&gt;Node17 -->
<g id="edge46" class="edge"><title>Node29&#45;&gt;Node17</title>
<path fill="none" stroke="midnightblue" d="M1285.9,-310.509C1287.73,-318.898 1288.2,-331.996 1287.32,-342.817"/>
<polygon fill="midnightblue" stroke="midnightblue" points="1283.81,-342.588 1285.9,-352.975 1290.75,-343.554 1283.81,-342.588"/>
</g>
<!-- Node32&#45;&gt;Node2 -->
<g id="edge57" class="edge"><title>Node32&#45;&gt;Node2</title>
<path fill="none" stroke="midnightblue" d="M1834.02,-377.542C1833.01,-377.697 1832,-377.85 1831,-378 1702.13,-397.353 1668.85,-394.511 1540,-414 1537.53,-414.374 1535.02,-414.764 1532.48,-415.168"/>
<polygon fill="midnightblue" stroke="midnightblue" points="1531.89,-411.717 1522.58,-416.777 1533.02,-418.626 1531.89,-411.717"/>
</g>
<!-- Node33&#45;&gt;Node4 -->
<g id="edge59" class="edge"><title>Node33&#45;&gt;Node4</title>
<path fill="none" stroke="midnightblue" d="M725.393,-242.721C843.393,-239.791 1060.37,-230.203 1131,-199 1149.71,-190.736 1146.74,-177.215 1165,-168 1217.79,-141.349 1284.93,-130.468 1332.45,-126.034"/>
<polygon fill="midnightblue" stroke="midnightblue" points="1332.92,-129.506 1342.58,-125.158 1332.32,-122.532 1332.92,-129.506"/>
</g>
<!-- Node33&#45;&gt;Node11 -->
<g id="edge60" class="edge"><title>Node33&#45;&gt;Node11</title>
<path fill="none" stroke="midnightblue" d="M660.665,-235.335C684.958,-220.193 737.576,-188.573 785,-168 816.502,-154.334 853.568,-142.467 881.348,-134.355"/>
<polygon fill="midnightblue" stroke="midnightblue" points="882.492,-137.668 891.135,-131.54 880.558,-130.941 882.492,-137.668"/>
</g>
<!-- Node33&#45;&gt;Node12 -->
<g id="edge61" class="edge"><title>Node33&#45;&gt;Node12</title>
<path fill="none" stroke="midnightblue" d="M652.024,-235.25C661.366,-219.689 682.853,-187.054 709,-168 730.055,-152.657 757.033,-141.74 779.567,-134.505"/>
<polygon fill="midnightblue" stroke="midnightblue" points="780.714,-137.814 789.245,-131.533 778.658,-131.123 780.714,-137.814"/>
</g>
<!-- Node33&#45;&gt;Node13 -->
<g id="edge71" class="edge"><title>Node33&#45;&gt;Node13</title>
<path fill="none" stroke="midnightblue" d="M684.681,-235.475C731.553,-224.871 811.606,-206.76 862.596,-195.224"/>
<polygon fill="midnightblue" stroke="midnightblue" points="863.407,-198.629 872.388,-193.009 861.863,-191.802 863.407,-198.629"/>
</g>
<!-- Node33&#45;&gt;Node14 -->
<g id="edge62" class="edge"><title>Node33&#45;&gt;Node14</title>
<path fill="none" stroke="midnightblue" d="M649.158,-235.298C654.001,-215.763 665.827,-168.065 672.402,-141.547"/>
<polygon fill="midnightblue" stroke="midnightblue" points="675.853,-142.172 674.862,-131.623 669.058,-140.487 675.853,-142.172"/>
</g>
<!-- Node34 -->
<g id="node34" class="node"><title>Node34</title>
<polygon fill="white" stroke="#bfbfbf" points="226.5,-174 226.5,-193 289.5,-193 289.5,-174 226.5,-174"/>
<text text-anchor="middle" x="258" y="-181" font-family="Helvetica,sans-Serif" font-size="10.00">functional</text>
</g>
<!-- Node33&#45;&gt;Node34 -->
<g id="edge63" class="edge"><title>Node33&#45;&gt;Node34</title>
<path fill="none" stroke="midnightblue" d="M568.828,-238.853C497.503,-232.998 389.578,-221.217 298,-199 294.94,-198.258 291.79,-197.361 288.665,-196.381"/>
<polygon fill="midnightblue" stroke="midnightblue" points="289.503,-192.969 278.908,-193.058 287.246,-199.595 289.503,-192.969"/>
</g>
<!-- Node35 -->
<g id="node35" class="node"><title>Node35</title>
<polygon fill="white" stroke="#bfbfbf" points="307.5,-168.5 307.5,-198.5 452.5,-198.5 452.5,-168.5 307.5,-168.5"/>
<text text-anchor="start" x="315.5" y="-186.5" font-family="Helvetica,sans-Serif" font-size="10.00">unsupported/Eigen/Aligned</text>
<text text-anchor="middle" x="380" y="-175.5" font-family="Helvetica,sans-Serif" font-size="10.00">Vector3</text>
</g>
<!-- Node33&#45;&gt;Node35 -->
<g id="edge64" class="edge"><title>Node33&#45;&gt;Node35</title>
<path fill="none" stroke="midnightblue" d="M608.745,-235.475C568.191,-226.438 503.167,-211.947 452.794,-200.722"/>
<polygon fill="midnightblue" stroke="midnightblue" points="453.449,-197.282 442.927,-198.523 451.926,-204.114 453.449,-197.282"/>
</g>
<!-- Node36 -->
<g id="node36" class="node"><title>Node36</title>
<g id="a_node36"><a xlink:href="Math_8hpp.html" target="_top" xlink:title="Core/Math/Math.hpp">
<polygon fill="white" stroke="black" points="94,-174 94,-193 208,-193 208,-174 94,-174"/>
<text text-anchor="middle" x="151" y="-181" font-family="Helvetica,sans-Serif" font-size="10.00">Core/Math/Math.hpp</text>
</a>
</g>
</g>
<!-- Node33&#45;&gt;Node36 -->
<g id="edge65" class="edge"><title>Node33&#45;&gt;Node36</title>
<path fill="none" stroke="midnightblue" d="M568.973,-238.476C482.552,-231.745 339.263,-218.764 217,-199 210.308,-197.918 203.275,-196.586 196.395,-195.172"/>
<polygon fill="midnightblue" stroke="midnightblue" points="196.993,-191.721 186.483,-193.06 195.534,-198.567 196.993,-191.721"/>
</g>
<!-- Node40 -->
<g id="node40" class="node"><title>Node40</title>
<g id="a_node40"><a xlink:href="LinearAlgebra_8inl.html" target="_top" xlink:title="Core/Math/LinearAlgebra.inl">
<polygon fill="white" stroke="black" points="470.5,-174 470.5,-193 619.5,-193 619.5,-174 470.5,-174"/>
<text text-anchor="middle" x="545" y="-181" font-family="Helvetica,sans-Serif" font-size="10.00">Core/Math/LinearAlgebra.inl</text>
</a>
</g>
</g>
<!-- Node33&#45;&gt;Node40 -->
<g id="edge72" class="edge"><title>Node33&#45;&gt;Node40</title>
<path fill="none" stroke="midnightblue" d="M627.485,-235.475C608.873,-225.843 581.432,-210.017 563.255,-198.552"/>
<polygon fill="midnightblue" stroke="midnightblue" points="564.987,-195.504 554.69,-193.009 561.184,-201.38 564.987,-195.504"/>
</g>
<!-- Node36&#45;&gt;Node4 -->
<g id="edge66" class="edge"><title>Node36&#45;&gt;Node4</title>
<path fill="none" stroke="midnightblue" d="M184.374,-173.958C194.759,-171.628 206.294,-169.37 217,-168 632.144,-114.886 739.779,-148.043 1158,-132 1217.42,-129.721 1285.33,-127.108 1332.63,-125.287"/>
<polygon fill="midnightblue" stroke="midnightblue" points="1332.84,-128.781 1342.7,-124.899 1332.57,-121.787 1332.84,-128.781"/>
</g>
<!-- Node37 -->
<g id="node37" class="node"><title>Node37</title>
<polygon fill="white" stroke="#bfbfbf" points="0,-112.5 0,-131.5 62,-131.5 62,-112.5 0,-112.5"/>
<text text-anchor="middle" x="31" y="-119.5" font-family="Helvetica,sans-Serif" font-size="10.00">algorithm</text>
</g>
<!-- Node36&#45;&gt;Node37 -->
<g id="edge67" class="edge"><title>Node36&#45;&gt;Node37</title>
<path fill="none" stroke="midnightblue" d="M133.807,-173.975C113.757,-164.034 80.4012,-147.495 57.1398,-135.961"/>
<polygon fill="midnightblue" stroke="midnightblue" points="58.6752,-132.816 48.1612,-131.509 55.5655,-139.087 58.6752,-132.816"/>
</g>
<!-- Node38 -->
<g id="node38" class="node"><title>Node38</title>
<polygon fill="white" stroke="#bfbfbf" points="80.5,-112.5 80.5,-131.5 127.5,-131.5 127.5,-112.5 80.5,-112.5"/>
<text text-anchor="middle" x="104" y="-119.5" font-family="Helvetica,sans-Serif" font-size="10.00">cmath</text>
</g>
<!-- Node36&#45;&gt;Node38 -->
<g id="edge68" class="edge"><title>Node36&#45;&gt;Node38</title>
<path fill="none" stroke="midnightblue" d="M144.266,-173.975C137.216,-165.05 125.965,-150.807 117.146,-139.643"/>
<polygon fill="midnightblue" stroke="midnightblue" points="119.667,-137.187 110.721,-131.509 114.174,-141.526 119.667,-137.187"/>
</g>
<!-- Node39 -->
<g id="node39" class="node"><title>Node39</title>
<g id="a_node39"><a xlink:href="Math_8inl.html" target="_top" xlink:title="Core/Math/Math.inl">
<polygon fill="white" stroke="black" points="145.5,-112.5 145.5,-131.5 252.5,-131.5 252.5,-112.5 145.5,-112.5"/>
<text text-anchor="middle" x="199" y="-119.5" font-family="Helvetica,sans-Serif" font-size="10.00">Core/Math/Math.inl</text>
</a>
</g>
</g>
<!-- Node36&#45;&gt;Node39 -->
<g id="edge69" class="edge"><title>Node36&#45;&gt;Node39</title>
<path fill="none" stroke="midnightblue" d="M152.977,-173.975C158.334,-164.873 169.751,-150.241 180.045,-138.983"/>
<polygon fill="midnightblue" stroke="midnightblue" points="182.825,-141.141 187.238,-131.509 177.782,-136.287 182.825,-141.141"/>
</g>
<!-- Node39&#45;&gt;Node36 -->
<g id="edge70" class="edge"><title>Node39&#45;&gt;Node36</title>
<path fill="none" stroke="midnightblue" d="M197.033,-131.509C191.682,-140.604 180.268,-155.236 169.973,-166.497"/>
<polygon fill="midnightblue" stroke="midnightblue" points="167.19,-164.343 162.778,-173.975 172.234,-169.196 167.19,-164.343"/>
</g>
<!-- Node40&#45;&gt;Node33 -->
<g id="edge73" class="edge"><title>Node40&#45;&gt;Node33</title>
<path fill="none" stroke="midnightblue" d="M564.484,-193.009C583.087,-202.634 610.528,-218.459 628.715,-229.93"/>
<polygon fill="midnightblue" stroke="midnightblue" points="626.989,-232.981 637.286,-235.475 630.792,-227.104 626.989,-232.981"/>
</g>
</g>
</svg>
