<?xml version="1.0" encoding="UTF-8" standalone="no"?>
<!DOCTYPE svg PUBLIC "-//W3C//DTD SVG 1.1//EN"
 "http://www.w3.org/Graphics/SVG/1.1/DTD/svg11.dtd">
<!-- Generated by graphviz version 2.38.0 (20140413.2041)
 -->
<!-- Title: /home/travis/build/STORM&#45;IRIT/Radium&#45;Engine/src/Core/Geometry/MeshPrimitives.cpp Pages: 1 -->
<svg width="1745pt" height="509pt"
 viewBox="0.00 0.00 1744.50 509.00" xmlns="http://www.w3.org/2000/svg" xmlns:xlink="http://www.w3.org/1999/xlink">
<g id="graph0" class="graph" transform="scale(1 1) rotate(0) translate(4 505)">
<title>/home/travis/build/STORM&#45;IRIT/Radium&#45;Engine/src/Core/Geometry/MeshPrimitives.cpp</title>
<polygon fill="white" stroke="none" points="-4,4 -4,-505 1740.5,-505 1740.5,4 -4,4"/>
<!-- Node1 -->
<g id="node1" class="node"><title>Node1</title>
<polygon fill="#bfbfbf" stroke="black" points="602.5,-459.5 602.5,-500.5 808.5,-500.5 808.5,-459.5 602.5,-459.5"/>
<text text-anchor="start" x="610.5" y="-488.5" font-family="Helvetica,sans-Serif" font-size="10.00">/home/travis/build</text>
<text text-anchor="start" x="610.5" y="-477.5" font-family="Helvetica,sans-Serif" font-size="10.00">/STORM&#45;IRIT/Radium&#45;Engine</text>
<text text-anchor="middle" x="705.5" y="-466.5" font-family="Helvetica,sans-Serif" font-size="10.00">/src/Core/Geometry/MeshPrimitives.cpp</text>
</g>
<!-- Node2 -->
<g id="node2" class="node"><title>Node2</title>
<g id="a_node2"><a xlink:href="Grid_8hpp.html" target="_top" xlink:title="Core/Containers/Grid.hpp">
<polygon fill="white" stroke="black" points="955,-174 955,-193 1092,-193 1092,-174 955,-174"/>
<text text-anchor="middle" x="1023.5" y="-181" font-family="Helvetica,sans-Serif" font-size="10.00">Core/Containers/Grid.hpp</text>
</a>
</g>
</g>
<!-- Node1&#45;&gt;Node2 -->
<g id="edge1" class="edge"><title>Node1&#45;&gt;Node2</title>
<path fill="none" stroke="midnightblue" d="M688.496,-459.358C680.304,-449.083 670.896,-435.968 664.5,-423 651.187,-396.007 645.5,-388.098 645.5,-358 645.5,-358 645.5,-358 645.5,-300 645.5,-266.422 866.472,-216.671 970.514,-195.107"/>
<polygon fill="midnightblue" stroke="midnightblue" points="971.419,-198.494 980.507,-193.048 970.006,-191.638 971.419,-198.494"/>
</g>
<!-- Node13 -->
<g id="node13" class="node"><title>Node13</title>
<g id="a_node13"><a xlink:href="MeshPrimitives_8hpp.html" target="_top" xlink:title="Core/Geometry/MeshPrimitives.hpp">
<polygon fill="white" stroke="black" points="673.5,-403.5 673.5,-422.5 859.5,-422.5 859.5,-403.5 673.5,-403.5"/>
<text text-anchor="middle" x="766.5" y="-410.5" font-family="Helvetica,sans-Serif" font-size="10.00">Core/Geometry/MeshPrimitives.hpp</text>
</a>
</g>
</g>
<!-- Node1&#45;&gt;Node13 -->
<g id="edge13" class="edge"><title>Node1&#45;&gt;Node13</title>
<path fill="none" stroke="midnightblue" d="M723.802,-459.498C732.615,-450.107 743.055,-438.983 751.405,-430.085"/>
<polygon fill="midnightblue" stroke="midnightblue" points="754.089,-432.34 758.38,-422.652 748.985,-427.549 754.089,-432.34"/>
</g>
<!-- Node18 -->
<g id="node18" class="node"><title>Node18</title>
<g id="a_node18"><a xlink:href="Types_8hpp.html" target="_top" xlink:title="Core/Types.hpp">
<polygon fill="white" stroke="black" points="719,-174 719,-193 808,-193 808,-174 719,-174"/>
<text text-anchor="middle" x="763.5" y="-181" font-family="Helvetica,sans-Serif" font-size="10.00">Core/Types.hpp</text>
</a>
</g>
</g>
<!-- Node1&#45;&gt;Node18 -->
<g id="edge68" class="edge"><title>Node1&#45;&gt;Node18</title>
<path fill="none" stroke="midnightblue" d="M671.428,-459.277C657.484,-449.798 642.156,-437.362 631.5,-423 613.15,-398.269 607.5,-388.795 607.5,-358 607.5,-358 607.5,-358 607.5,-300 607.5,-269.205 609.852,-256.902 631.5,-235 644.726,-221.618 689.478,-206.146 723.237,-195.891"/>
<polygon fill="midnightblue" stroke="midnightblue" points="724.292,-199.228 732.872,-193.013 722.288,-192.521 724.292,-199.228"/>
</g>
<!-- Node34 -->
<g id="node34" class="node"><title>Node34</title>
<g id="a_node34"><a xlink:href="Math_8hpp.html" target="_top" xlink:title="Core/Math/Math.hpp">
<polygon fill="white" stroke="black" points="61.5,-174 61.5,-193 175.5,-193 175.5,-174 61.5,-174"/>
<text text-anchor="middle" x="118.5" y="-181" font-family="Helvetica,sans-Serif" font-size="10.00">Core/Math/Math.hpp</text>
</a>
</g>
</g>
<!-- Node1&#45;&gt;Node34 -->
<g id="edge67" class="edge"><title>Node1&#45;&gt;Node34</title>
<path fill="none" stroke="midnightblue" d="M602.301,-472.823C465.309,-461.74 240.5,-432.242 240.5,-358 240.5,-358 240.5,-358 240.5,-300 240.5,-249.664 185.056,-214.705 148.922,-197.266"/>
<polygon fill="midnightblue" stroke="midnightblue" points="150.295,-194.045 139.751,-193.012 147.35,-200.395 150.295,-194.045"/>
</g>
<!-- Node39 -->
<g id="node39" class="node"><title>Node39</title>
<polygon fill="white" stroke="#bfbfbf" points="878,-403.5 878,-422.5 919,-422.5 919,-403.5 878,-403.5"/>
<text text-anchor="middle" x="898.5" y="-410.5" font-family="Helvetica,sans-Serif" font-size="10.00">array</text>
</g>
<!-- Node1&#45;&gt;Node39 -->
<g id="edge69" class="edge"><title>Node1&#45;&gt;Node39</title>
<path fill="none" stroke="midnightblue" d="M763.406,-459.498C797.82,-447.908 840.074,-433.677 868.065,-424.25"/>
<polygon fill="midnightblue" stroke="midnightblue" points="869.331,-427.517 877.691,-421.008 867.097,-420.883 869.331,-427.517"/>
</g>
<!-- Node40 -->
<g id="node40" class="node"><title>Node40</title>
<polygon fill="white" stroke="#bfbfbf" points="937.5,-403.5 937.5,-422.5 981.5,-422.5 981.5,-403.5 937.5,-403.5"/>
<text text-anchor="middle" x="959.5" y="-410.5" font-family="Helvetica,sans-Serif" font-size="10.00">string</text>
</g>
<!-- Node1&#45;&gt;Node40 -->
<g id="edge70" class="edge"><title>Node1&#45;&gt;Node40</title>
<path fill="none" stroke="midnightblue" d="M785.007,-459.498C827.382,-448.964 880.356,-435.573 927.5,-423 927.601,-422.973 927.702,-422.946 927.804,-422.919"/>
<polygon fill="midnightblue" stroke="midnightblue" points="928.762,-426.285 937.488,-420.275 926.919,-419.532 928.762,-426.285"/>
</g>
<!-- Node3 -->
<g id="node3" class="node"><title>Node3</title>
<polygon fill="white" stroke="#bfbfbf" points="1107,-112.5 1107,-131.5 1154,-131.5 1154,-112.5 1107,-112.5"/>
<text text-anchor="middle" x="1130.5" y="-119.5" font-family="Helvetica,sans-Serif" font-size="10.00">vector</text>
</g>
<!-- Node2&#45;&gt;Node3 -->
<g id="edge2" class="edge"><title>Node2&#45;&gt;Node3</title>
<path fill="none" stroke="midnightblue" d="M1038.83,-173.975C1056.47,-164.166 1085.66,-147.935 1106.36,-136.425"/>
<polygon fill="midnightblue" stroke="midnightblue" points="1108.16,-139.428 1115.2,-131.509 1104.76,-133.31 1108.16,-139.428"/>
</g>
<!-- Node4 -->
<g id="node4" class="node"><title>Node4</title>
<g id="a_node4"><a xlink:href="RaCore_8hpp.html" target="_top" xlink:title="Core/RaCore.hpp">
<polygon fill="white" stroke="black" points="1299.5,-112.5 1299.5,-131.5 1397.5,-131.5 1397.5,-112.5 1299.5,-112.5"/>
<text text-anchor="middle" x="1348.5" y="-119.5" font-family="Helvetica,sans-Serif" font-size="10.00">Core/RaCore.hpp</text>
</a>
</g>
</g>
<!-- Node2&#45;&gt;Node4 -->
<g id="edge3" class="edge"><title>Node2&#45;&gt;Node4</title>
<path fill="none" stroke="midnightblue" d="M1070.06,-173.975C1128.59,-163.261 1228.98,-144.882 1291.88,-133.366"/>
<polygon fill="midnightblue" stroke="midnightblue" points="1292.82,-136.753 1302.02,-131.509 1291.55,-129.867 1292.82,-136.753"/>
</g>
<!-- Node11 -->
<g id="node11" class="node"><title>Node11</title>
<polygon fill="white" stroke="#bfbfbf" points="762.5,-112.5 762.5,-131.5 830.5,-131.5 830.5,-112.5 762.5,-112.5"/>
<text text-anchor="middle" x="796.5" y="-119.5" font-family="Helvetica,sans-Serif" font-size="10.00">Eigen/Core</text>
</g>
<!-- Node2&#45;&gt;Node11 -->
<g id="edge10" class="edge"><title>Node2&#45;&gt;Node11</title>
<path fill="none" stroke="midnightblue" d="M990.976,-173.975C950.942,-163.482 882.862,-145.637 838.798,-134.087"/>
<polygon fill="midnightblue" stroke="midnightblue" points="839.524,-130.659 828.963,-131.509 837.749,-137.43 839.524,-130.659"/>
</g>
<!-- Node12 -->
<g id="node12" class="node"><title>Node12</title>
<g id="a_node12"><a xlink:href="Grid_8inl.html" target="_top" xlink:title="Core/Containers/Grid.inl">
<polygon fill="white" stroke="black" points="958.5,-112.5 958.5,-131.5 1088.5,-131.5 1088.5,-112.5 958.5,-112.5"/>
<text text-anchor="middle" x="1023.5" y="-119.5" font-family="Helvetica,sans-Serif" font-size="10.00">Core/Containers/Grid.inl</text>
</a>
</g>
</g>
<!-- Node2&#45;&gt;Node12 -->
<g id="edge11" class="edge"><title>Node2&#45;&gt;Node12</title>
<path fill="none" stroke="midnightblue" d="M1018.6,-173.975C1016.77,-165.58 1016.3,-152.481 1017.19,-141.663"/>
<polygon fill="midnightblue" stroke="midnightblue" points="1020.69,-141.897 1018.6,-131.509 1013.75,-140.929 1020.69,-141.897"/>
</g>
<!-- Node5 -->
<g id="node5" class="node"><title>Node5</title>
<g id="a_node5"><a xlink:href="CoreMacros_8hpp.html" target="_top" xlink:title="Core/CoreMacros.hpp">
<polygon fill="white" stroke="black" points="1043.5,-56.5 1043.5,-75.5 1163.5,-75.5 1163.5,-56.5 1043.5,-56.5"/>
<text text-anchor="middle" x="1103.5" y="-63.5" font-family="Helvetica,sans-Serif" font-size="10.00">Core/CoreMacros.hpp</text>
</a>
</g>
</g>
<!-- Node4&#45;&gt;Node5 -->
<g id="edge4" class="edge"><title>Node4&#45;&gt;Node5</title>
<path fill="none" stroke="midnightblue" d="M1309.68,-112.444C1266.94,-103.023 1198.17,-87.8656 1151.93,-77.6752"/>
<polygon fill="midnightblue" stroke="midnightblue" points="1152.66,-74.251 1142.14,-75.5164 1151.15,-81.0869 1152.66,-74.251"/>
</g>
<!-- Node6 -->
<g id="node6" class="node"><title>Node6</title>
<polygon fill="white" stroke="#bfbfbf" points="940.5,-0.5 940.5,-19.5 992.5,-19.5 992.5,-0.5 940.5,-0.5"/>
<text text-anchor="middle" x="966.5" y="-7.5" font-family="Helvetica,sans-Serif" font-size="10.00">cassert</text>
</g>
<!-- Node5&#45;&gt;Node6 -->
<g id="edge5" class="edge"><title>Node5&#45;&gt;Node6</title>
<path fill="none" stroke="midnightblue" d="M1081.79,-56.4435C1059.15,-47.5171 1023.43,-33.4387 997.748,-23.3168"/>
<polygon fill="midnightblue" stroke="midnightblue" points="998.693,-19.9273 988.106,-19.5164 996.126,-26.4397 998.693,-19.9273"/>
</g>
<!-- Node7 -->
<g id="node7" class="node"><title>Node7</title>
<polygon fill="white" stroke="#bfbfbf" points="1011,-0.5 1011,-19.5 1056,-19.5 1056,-0.5 1011,-0.5"/>
<text text-anchor="middle" x="1033.5" y="-7.5" font-family="Helvetica,sans-Serif" font-size="10.00">cstdio</text>
</g>
<!-- Node5&#45;&gt;Node7 -->
<g id="edge6" class="edge"><title>Node5&#45;&gt;Node7</title>
<path fill="none" stroke="midnightblue" d="M1092.25,-56.324C1081.7,-48.1849 1065.7,-35.8395 1053.06,-26.0874"/>
<polygon fill="midnightblue" stroke="midnightblue" points="1055.01,-23.1707 1044.95,-19.8339 1050.73,-28.7132 1055.01,-23.1707"/>
</g>
<!-- Node8 -->
<g id="node8" class="node"><title>Node8</title>
<polygon fill="white" stroke="#bfbfbf" points="1074,-0.5 1074,-19.5 1133,-19.5 1133,-0.5 1074,-0.5"/>
<text text-anchor="middle" x="1103.5" y="-7.5" font-family="Helvetica,sans-Serif" font-size="10.00">iostream</text>
</g>
<!-- Node5&#45;&gt;Node8 -->
<g id="edge7" class="edge"><title>Node5&#45;&gt;Node8</title>
<path fill="none" stroke="midnightblue" d="M1103.5,-56.083C1103.5,-49.0059 1103.5,-38.8611 1103.5,-29.9865"/>
<polygon fill="midnightblue" stroke="midnightblue" points="1107,-29.751 1103.5,-19.7511 1100,-29.7511 1107,-29.751"/>
</g>
<!-- Node9 -->
<g id="node9" class="node"><title>Node9</title>
<polygon fill="white" stroke="#bfbfbf" points="1151.5,-0.5 1151.5,-19.5 1207.5,-19.5 1207.5,-0.5 1151.5,-0.5"/>
<text text-anchor="middle" x="1179.5" y="-7.5" font-family="Helvetica,sans-Serif" font-size="10.00">sstream</text>
</g>
<!-- Node5&#45;&gt;Node9 -->
<g id="edge8" class="edge"><title>Node5&#45;&gt;Node9</title>
<path fill="none" stroke="midnightblue" d="M1115.71,-56.324C1127.28,-48.1066 1144.88,-35.6017 1158.66,-25.8069"/>
<polygon fill="midnightblue" stroke="midnightblue" points="1160.94,-28.4791 1167.07,-19.8339 1156.89,-22.7729 1160.94,-28.4791"/>
</g>
<!-- Node10 -->
<g id="node10" class="node"><title>Node10</title>
<polygon fill="white" stroke="#bfbfbf" points="1225.5,-0.5 1225.5,-19.5 1273.5,-19.5 1273.5,-0.5 1225.5,-0.5"/>
<text text-anchor="middle" x="1249.5" y="-7.5" font-family="Helvetica,sans-Serif" font-size="10.00">thread</text>
</g>
<!-- Node5&#45;&gt;Node10 -->
<g id="edge9" class="edge"><title>Node5&#45;&gt;Node10</title>
<path fill="none" stroke="midnightblue" d="M1126.63,-56.4435C1150.98,-47.4381 1189.51,-33.1891 1216.92,-23.049"/>
<polygon fill="midnightblue" stroke="midnightblue" points="1218.31,-26.2681 1226.47,-19.5164 1215.88,-19.7028 1218.31,-26.2681"/>
</g>
<!-- Node12&#45;&gt;Node2 -->
<g id="edge12" class="edge"><title>Node12&#45;&gt;Node2</title>
<path fill="none" stroke="midnightblue" d="M1028.4,-131.509C1030.23,-139.898 1030.7,-152.996 1029.82,-163.817"/>
<polygon fill="midnightblue" stroke="midnightblue" points="1026.31,-163.588 1028.4,-173.975 1033.25,-164.554 1026.31,-163.588"/>
</g>
<!-- Node13&#45;&gt;Node4 -->
<g id="edge46" class="edge"><title>Node13&#45;&gt;Node4</title>
<path fill="none" stroke="midnightblue" d="M859.517,-403.774C1004.49,-390.949 1268.41,-367.583 1273.5,-367 1376.72,-355.181 1736.5,-405.898 1736.5,-302 1736.5,-302 1736.5,-302 1736.5,-244 1736.5,-205.62 1727.12,-189.75 1695.5,-168 1650.05,-136.738 1494.44,-127.184 1407.85,-124.272"/>
<polygon fill="midnightblue" stroke="midnightblue" points="1407.75,-120.767 1397.64,-123.948 1407.53,-127.763 1407.75,-120.767"/>
</g>
<!-- Node14 -->
<g id="node14" class="node"><title>Node14</title>
<g id="a_node14"><a xlink:href="TriangleMesh_8hpp.html" target="_top" xlink:title="Core/Geometry/TriangleMesh.hpp">
<polygon fill="white" stroke="black" points="927.5,-347.5 927.5,-366.5 1103.5,-366.5 1103.5,-347.5 927.5,-347.5"/>
<text text-anchor="middle" x="1015.5" y="-354.5" font-family="Helvetica,sans-Serif" font-size="10.00">Core/Geometry/TriangleMesh.hpp</text>
</a>
</g>
</g>
<!-- Node13&#45;&gt;Node14 -->
<g id="edge14" class="edge"><title>Node13&#45;&gt;Node14</title>
<path fill="none" stroke="midnightblue" d="M805.955,-403.444C849.392,-394.023 919.286,-378.866 966.276,-368.675"/>
<polygon fill="midnightblue" stroke="midnightblue" points="967.199,-372.056 976.23,-366.516 965.715,-365.215 967.199,-372.056"/>
</g>
<!-- Node26 -->
<g id="node26" class="node"><title>Node26</title>
<g id="a_node26"><a xlink:href="Color_8hpp.html" target="_top" xlink:title="Core/Utils/Color.hpp">
<polygon fill="white" stroke="black" points="826,-174 826,-193 937,-193 937,-174 826,-174"/>
<text text-anchor="middle" x="881.5" y="-181" font-family="Helvetica,sans-Serif" font-size="10.00">Core/Utils/Color.hpp</text>
</a>
</g>
</g>
<!-- Node13&#45;&gt;Node26 -->
<g id="edge47" class="edge"><title>Node13&#45;&gt;Node26</title>
<path fill="none" stroke="midnightblue" d="M804.795,-403.463C824.94,-396.925 848.162,-385.731 861.5,-367 897.201,-316.864 890.423,-238.526 884.937,-203.058"/>
<polygon fill="midnightblue" stroke="midnightblue" points="888.378,-202.413 883.256,-193.138 881.476,-203.582 888.378,-202.413"/>
</g>
<!-- Node29 -->
<g id="node29" class="node"><title>Node29</title>
<g id="a_node29"><a xlink:href="StdOptional_8hpp.html" target="_top" xlink:title="Core/Utils/StdOptional.hpp">
<polygon fill="white" stroke="black" points="1122,-347.5 1122,-366.5 1265,-366.5 1265,-347.5 1122,-347.5"/>
<text text-anchor="middle" x="1193.5" y="-354.5" font-family="Helvetica,sans-Serif" font-size="10.00">Core/Utils/StdOptional.hpp</text>
</a>
</g>
</g>
<!-- Node13&#45;&gt;Node29 -->
<g id="edge48" class="edge"><title>Node13&#45;&gt;Node29</title>
<path fill="none" stroke="midnightblue" d="M834.159,-403.444C910.835,-393.747 1035.58,-377.971 1116.08,-367.791"/>
<polygon fill="midnightblue" stroke="midnightblue" points="1116.68,-371.244 1126.16,-366.516 1115.8,-364.299 1116.68,-371.244"/>
</g>
<!-- Node30 -->
<g id="node30" class="node"><title>Node30</title>
<g id="a_node30"><a xlink:href="MeshPrimitives_8inl.html" target="_top" xlink:title="Core/Geometry/MeshPrimitives.inl">
<polygon fill="white" stroke="black" points="674,-347.5 674,-366.5 853,-366.5 853,-347.5 674,-347.5"/>
<text text-anchor="middle" x="763.5" y="-354.5" font-family="Helvetica,sans-Serif" font-size="10.00">Core/Geometry/MeshPrimitives.inl</text>
</a>
</g>
</g>
<!-- Node13&#45;&gt;Node30 -->
<g id="edge49" class="edge"><title>Node13&#45;&gt;Node30</title>
<path fill="none" stroke="midnightblue" d="M760.838,-403.083C758.952,-396.006 757.951,-385.861 758.076,-376.986"/>
<polygon fill="midnightblue" stroke="midnightblue" points="761.586,-376.988 758.855,-366.751 754.606,-376.457 761.586,-376.988"/>
</g>
<!-- Node14&#45;&gt;Node4 -->
<g id="edge30" class="edge"><title>Node14&#45;&gt;Node4</title>
<path fill="none" stroke="midnightblue" d="M1101.74,-347.482C1221.71,-335.55 1426.18,-314.879 1442.5,-311 1510.92,-294.736 1527.53,-286.328 1590.5,-255 1632.34,-234.182 1656.91,-239.91 1679.5,-199 1686.16,-186.939 1688.56,-178.378 1679.5,-168 1644.91,-128.385 1493.18,-122.316 1407.66,-122.143"/>
<polygon fill="midnightblue" stroke="midnightblue" points="1407.57,-118.643 1397.57,-122.15 1407.57,-125.643 1407.57,-118.643"/>
</g>
<!-- Node15 -->
<g id="node15" class="node"><title>Node15</title>
<g id="a_node15"><a xlink:href="VectorArray_8hpp.html" target="_top" xlink:title="Core/Containers/VectorArray.hpp">
<polygon fill="white" stroke="black" points="1186,-235.5 1186,-254.5 1359,-254.5 1359,-235.5 1186,-235.5"/>
<text text-anchor="middle" x="1272.5" y="-242.5" font-family="Helvetica,sans-Serif" font-size="10.00">Core/Containers/VectorArray.hpp</text>
</a>
</g>
</g>
<!-- Node14&#45;&gt;Node15 -->
<g id="edge15" class="edge"><title>Node14&#45;&gt;Node15</title>
<path fill="none" stroke="midnightblue" d="M1018.04,-347.257C1022.64,-333.063 1033.74,-305.171 1053.5,-291 1075.24,-275.406 1137.08,-263.557 1189.52,-255.942"/>
<polygon fill="midnightblue" stroke="midnightblue" points="1190.12,-259.392 1199.53,-254.522 1189.14,-252.461 1190.12,-259.392"/>
</g>
<!-- Node14&#45;&gt;Node18 -->
<g id="edge31" class="edge"><title>Node14&#45;&gt;Node18</title>
<path fill="none" stroke="midnightblue" d="M1003,-347.495C962.614,-320.008 835.278,-233.349 784.604,-198.862"/>
<polygon fill="midnightblue" stroke="midnightblue" points="786.308,-195.789 776.072,-193.056 782.37,-201.576 786.308,-195.789"/>
</g>
<!-- Node21 -->
<g id="node21" class="node"><title>Node21</title>
<g id="a_node21"><a xlink:href="AbstractGeometry_8hpp.html" target="_top" xlink:title="Core/Geometry/AbstractGeometry.hpp">
<polygon fill="white" stroke="black" points="967,-235.5 967,-254.5 1168,-254.5 1168,-235.5 967,-235.5"/>
<text text-anchor="middle" x="1067.5" y="-242.5" font-family="Helvetica,sans-Serif" font-size="10.00">Core/Geometry/AbstractGeometry.hpp</text>
</a>
</g>
</g>
<!-- Node14&#45;&gt;Node21 -->
<g id="edge27" class="edge"><title>Node14&#45;&gt;Node21</title>
<path fill="none" stroke="midnightblue" d="M1014.26,-347.084C1012.85,-334.069 1011.79,-309.415 1020.5,-291 1026.18,-278.995 1036.56,-268.526 1046.12,-260.714"/>
<polygon fill="midnightblue" stroke="midnightblue" points="1048.35,-263.414 1054.17,-254.561 1044.1,-257.852 1048.35,-263.414"/>
</g>
<!-- Node22 -->
<g id="node22" class="node"><title>Node22</title>
<g id="a_node22"><a xlink:href="Attribs_8hpp.html" target="_top" xlink:title="Core/Utils/Attribs.hpp">
<polygon fill="white" stroke="black" points="1314,-291.5 1314,-310.5 1433,-310.5 1433,-291.5 1314,-291.5"/>
<text text-anchor="middle" x="1373.5" y="-298.5" font-family="Helvetica,sans-Serif" font-size="10.00">Core/Utils/Attribs.hpp</text>
</a>
</g>
</g>
<!-- Node14&#45;&gt;Node22 -->
<g id="edge32" class="edge"><title>Node14&#45;&gt;Node22</title>
<path fill="none" stroke="midnightblue" d="M1072.23,-347.444C1135.99,-337.826 1239.4,-322.228 1306.93,-312.041"/>
<polygon fill="midnightblue" stroke="midnightblue" points="1307.67,-315.469 1317.04,-310.516 1306.63,-308.547 1307.67,-315.469"/>
</g>
<!-- Node14&#45;&gt;Node26 -->
<g id="edge39" class="edge"><title>Node14&#45;&gt;Node26</title>
<path fill="none" stroke="midnightblue" d="M1008.67,-347.26C987.431,-320.076 922.292,-236.708 894.397,-201.006"/>
<polygon fill="midnightblue" stroke="midnightblue" points="897.071,-198.744 888.157,-193.019 891.555,-203.054 897.071,-198.744"/>
</g>
<!-- Node28 -->
<g id="node28" class="node"><title>Node28</title>
<g id="a_node28"><a xlink:href="TriangleMesh_8inl.html" target="_top" xlink:title="Core/Geometry/TriangleMesh.inl">
<polygon fill="white" stroke="black" points="1062.5,-291.5 1062.5,-310.5 1230.5,-310.5 1230.5,-291.5 1062.5,-291.5"/>
<text text-anchor="middle" x="1146.5" y="-298.5" font-family="Helvetica,sans-Serif" font-size="10.00">Core/Geometry/TriangleMesh.inl</text>
</a>
</g>
</g>
<!-- Node14&#45;&gt;Node28 -->
<g id="edge44" class="edge"><title>Node14&#45;&gt;Node28</title>
<path fill="none" stroke="midnightblue" d="M1031.17,-347.444C1050.95,-338.478 1085.09,-324.314 1111.2,-314.183"/>
<polygon fill="midnightblue" stroke="midnightblue" points="1112.68,-317.364 1120.76,-310.516 1110.17,-310.828 1112.68,-317.364"/>
</g>
<!-- Node15&#45;&gt;Node3 -->
<g id="edge26" class="edge"><title>Node15&#45;&gt;Node3</title>
<path fill="none" stroke="midnightblue" d="M1200.62,-235.468C1177.42,-229.09 1153.77,-218.05 1138.5,-199 1125.69,-183.021 1125.42,-158.677 1127.22,-141.867"/>
<polygon fill="midnightblue" stroke="midnightblue" points="1130.74,-142.021 1128.68,-131.628 1123.81,-141.037 1130.74,-142.021"/>
</g>
<!-- Node15&#45;&gt;Node4 -->
<g id="edge20" class="edge"><title>Node15&#45;&gt;Node4</title>
<path fill="none" stroke="midnightblue" d="M1320.55,-235.458C1341.44,-229.101 1363.97,-218.074 1376.5,-199 1388.75,-180.358 1375.07,-155.639 1362.89,-139.531"/>
<polygon fill="midnightblue" stroke="midnightblue" points="1365.46,-137.141 1356.45,-131.561 1360.01,-141.54 1365.46,-137.141"/>
</g>
<!-- Node16 -->
<g id="node16" class="node"><title>Node16</title>
<g id="a_node16"><a xlink:href="AlignedStdVector_8hpp.html" target="_top" xlink:title="Core/Containers/AlignedStd\lVector.hpp">
<polygon fill="white" stroke="black" points="1148,-168.5 1148,-198.5 1297,-198.5 1297,-168.5 1148,-168.5"/>
<text text-anchor="start" x="1156" y="-186.5" font-family="Helvetica,sans-Serif" font-size="10.00">Core/Containers/AlignedStd</text>
<text text-anchor="middle" x="1222.5" y="-175.5" font-family="Helvetica,sans-Serif" font-size="10.00">Vector.hpp</text>
</a>
</g>
</g>
<!-- Node15&#45;&gt;Node16 -->
<g id="edge16" class="edge"><title>Node15&#45;&gt;Node16</title>
<path fill="none" stroke="midnightblue" d="M1265.34,-235.475C1258.94,-227.869 1249.31,-216.399 1240.79,-206.265"/>
<polygon fill="midnightblue" stroke="midnightblue" points="1243.4,-203.927 1234.28,-198.523 1238.04,-208.43 1243.4,-203.927"/>
</g>
<!-- Node15&#45;&gt;Node18 -->
<g id="edge21" class="edge"><title>Node15&#45;&gt;Node18</title>
<path fill="none" stroke="midnightblue" d="M1185.99,-235.842C1058.8,-223.792 834.358,-202.3 816.5,-199 811.47,-198.071 806.221,-196.894 801.067,-195.615"/>
<polygon fill="midnightblue" stroke="midnightblue" points="801.913,-192.219 791.352,-193.067 800.137,-198.99 801.913,-192.219"/>
</g>
<!-- Node16&#45;&gt;Node3 -->
<g id="edge19" class="edge"><title>Node16&#45;&gt;Node3</title>
<path fill="none" stroke="midnightblue" d="M1200.7,-168.399C1186.09,-158.951 1166.93,-146.559 1152.32,-137.109"/>
<polygon fill="midnightblue" stroke="midnightblue" points="1154.18,-134.15 1143.89,-131.658 1150.38,-140.027 1154.18,-134.15"/>
</g>
<!-- Node16&#45;&gt;Node4 -->
<g id="edge17" class="edge"><title>Node16&#45;&gt;Node4</title>
<path fill="none" stroke="midnightblue" d="M1252.36,-168.399C1273.12,-158.595 1300.6,-145.619 1320.86,-136.052"/>
<polygon fill="midnightblue" stroke="midnightblue" points="1322.62,-139.093 1330.17,-131.658 1319.63,-132.763 1322.62,-139.093"/>
</g>
<!-- Node17 -->
<g id="node17" class="node"><title>Node17</title>
<polygon fill="white" stroke="#bfbfbf" points="1176,-112.5 1176,-131.5 1269,-131.5 1269,-112.5 1176,-112.5"/>
<text text-anchor="middle" x="1222.5" y="-119.5" font-family="Helvetica,sans-Serif" font-size="10.00">Eigen/StdVector</text>
</g>
<!-- Node16&#45;&gt;Node17 -->
<g id="edge18" class="edge"><title>Node16&#45;&gt;Node17</title>
<path fill="none" stroke="midnightblue" d="M1222.5,-168.399C1222.5,-160.466 1222.5,-150.458 1222.5,-141.858"/>
<polygon fill="midnightblue" stroke="midnightblue" points="1226,-141.658 1222.5,-131.658 1219,-141.658 1226,-141.658"/>
</g>
<!-- Node18&#45;&gt;Node4 -->
<g id="edge22" class="edge"><title>Node18&#45;&gt;Node4</title>
<path fill="none" stroke="midnightblue" d="M790.785,-173.975C798.98,-171.703 808.042,-169.474 816.5,-168 1018.96,-132.726 1073.06,-152.928 1277.5,-132 1281.35,-131.606 1285.32,-131.174 1289.32,-130.72"/>
<polygon fill="midnightblue" stroke="midnightblue" points="1289.74,-134.194 1299.26,-129.553 1288.92,-127.242 1289.74,-134.194"/>
</g>
<!-- Node18&#45;&gt;Node11 -->
<g id="edge23" class="edge"><title>Node18&#45;&gt;Node11</title>
<path fill="none" stroke="midnightblue" d="M768.228,-173.975C773.08,-165.227 780.766,-151.369 786.9,-140.309"/>
<polygon fill="midnightblue" stroke="midnightblue" points="789.991,-141.952 791.781,-131.509 783.87,-138.557 789.991,-141.952"/>
</g>
<!-- Node19 -->
<g id="node19" class="node"><title>Node19</title>
<polygon fill="white" stroke="#bfbfbf" points="650.5,-112.5 650.5,-131.5 744.5,-131.5 744.5,-112.5 650.5,-112.5"/>
<text text-anchor="middle" x="697.5" y="-119.5" font-family="Helvetica,sans-Serif" font-size="10.00">Eigen/Geometry</text>
</g>
<!-- Node18&#45;&gt;Node19 -->
<g id="edge24" class="edge"><title>Node18&#45;&gt;Node19</title>
<path fill="none" stroke="midnightblue" d="M754.044,-173.975C743.752,-164.697 727.084,-149.671 714.506,-138.331"/>
<polygon fill="midnightblue" stroke="midnightblue" points="716.71,-135.605 706.939,-131.509 712.022,-140.805 716.71,-135.605"/>
</g>
<!-- Node20 -->
<g id="node20" class="node"><title>Node20</title>
<polygon fill="white" stroke="#bfbfbf" points="410.5,-112.5 410.5,-131.5 490.5,-131.5 490.5,-112.5 410.5,-112.5"/>
<text text-anchor="middle" x="450.5" y="-119.5" font-family="Helvetica,sans-Serif" font-size="10.00">Eigen/Sparse</text>
</g>
<!-- Node18&#45;&gt;Node20 -->
<g id="edge25" class="edge"><title>Node18&#45;&gt;Node20</title>
<path fill="none" stroke="midnightblue" d="M718.987,-174.038C661.391,-163.089 561.298,-144.062 500.945,-132.589"/>
<polygon fill="midnightblue" stroke="midnightblue" points="501.363,-129.106 490.885,-130.677 500.056,-135.983 501.363,-129.106"/>
</g>
<!-- Node21&#45;&gt;Node4 -->
<g id="edge28" class="edge"><title>Node21&#45;&gt;Node4</title>
<path fill="none" stroke="midnightblue" d="M1148.36,-235.466C1223.34,-226.776 1325.28,-212.672 1338.5,-199 1352.99,-184.009 1353.49,-158.9 1351.7,-141.673"/>
<polygon fill="midnightblue" stroke="midnightblue" points="1355.15,-141.101 1350.31,-131.676 1348.22,-142.062 1355.15,-141.101"/>
</g>
<!-- Node21&#45;&gt;Node18 -->
<g id="edge29" class="edge"><title>Node21&#45;&gt;Node18</title>
<path fill="none" stroke="midnightblue" d="M1011.88,-235.497C960.827,-227.344 883.217,-214.075 816.5,-199 812.035,-197.991 807.382,-196.851 802.768,-195.664"/>
<polygon fill="midnightblue" stroke="midnightblue" points="803.381,-192.206 792.818,-193.025 801.586,-198.972 803.381,-192.206"/>
</g>
<!-- Node22&#45;&gt;Node4 -->
<g id="edge34" class="edge"><title>Node22&#45;&gt;Node4</title>
<path fill="none" stroke="midnightblue" d="M1377.74,-291.287C1387.68,-269.59 1410.33,-211.737 1392.5,-168 1387.7,-156.225 1378.17,-145.856 1369.21,-138.049"/>
<polygon fill="midnightblue" stroke="midnightblue" points="1371.25,-135.205 1361.28,-131.631 1366.85,-140.645 1371.25,-135.205"/>
</g>
<!-- Node22&#45;&gt;Node15 -->
<g id="edge33" class="edge"><title>Node22&#45;&gt;Node15</title>
<path fill="none" stroke="midnightblue" d="M1357.27,-291.324C1341.15,-282.703 1316.2,-269.364 1297.54,-259.386"/>
<polygon fill="midnightblue" stroke="midnightblue" points="1299.16,-256.283 1288.69,-254.655 1295.86,-262.456 1299.16,-256.283"/>
</g>
<!-- Node23 -->
<g id="node23" class="node"><title>Node23</title>
<g id="a_node23"><a xlink:href="Index_8hpp.html" target="_top" xlink:title="Core/Utils/Index.hpp">
<polygon fill="white" stroke="black" points="1468,-235.5 1468,-254.5 1581,-254.5 1581,-235.5 1468,-235.5"/>
<text text-anchor="middle" x="1524.5" y="-242.5" font-family="Helvetica,sans-Serif" font-size="10.00">Core/Utils/Index.hpp</text>
</a>
</g>
</g>
<!-- Node22&#45;&gt;Node23 -->
<g id="edge35" class="edge"><title>Node22&#45;&gt;Node23</title>
<path fill="none" stroke="midnightblue" d="M1397.43,-291.444C1422.72,-282.399 1462.8,-268.064 1491.18,-257.916"/>
<polygon fill="midnightblue" stroke="midnightblue" points="1492.45,-261.179 1500.69,-254.516 1490.09,-254.588 1492.45,-261.179"/>
</g>
<!-- Node23&#45;&gt;Node4 -->
<g id="edge36" class="edge"><title>Node23&#45;&gt;Node4</title>
<path fill="none" stroke="midnightblue" d="M1518.25,-235.397C1506.75,-220.07 1480.8,-187.794 1452.5,-168 1432.04,-153.69 1406.31,-142.509 1385.56,-134.872"/>
<polygon fill="midnightblue" stroke="midnightblue" points="1386.71,-131.567 1376.12,-131.512 1384.37,-138.162 1386.71,-131.567"/>
</g>
<!-- Node24 -->
<g id="node24" class="node"><title>Node24</title>
<polygon fill="white" stroke="#bfbfbf" points="1504.5,-174 1504.5,-193 1546.5,-193 1546.5,-174 1504.5,-174"/>
<text text-anchor="middle" x="1525.5" y="-181" font-family="Helvetica,sans-Serif" font-size="10.00">limits</text>
</g>
<!-- Node23&#45;&gt;Node24 -->
<g id="edge37" class="edge"><title>Node23&#45;&gt;Node24</title>
<path fill="none" stroke="midnightblue" d="M1524.64,-235.475C1524.78,-227.08 1525,-213.981 1525.19,-203.163"/>
<polygon fill="midnightblue" stroke="midnightblue" points="1528.69,-203.067 1525.36,-193.009 1521.69,-202.949 1528.69,-203.067"/>
</g>
<!-- Node25 -->
<g id="node25" class="node"><title>Node25</title>
<g id="a_node25"><a xlink:href="Index_8inl.html" target="_top" xlink:title="Core/Utils/Index.inl">
<polygon fill="white" stroke="black" points="1565,-174 1565,-193 1670,-193 1670,-174 1565,-174"/>
<text text-anchor="middle" x="1617.5" y="-181" font-family="Helvetica,sans-Serif" font-size="10.00">Core/Utils/Index.inl</text>
</a>
</g>
</g>
<!-- Node23&#45;&gt;Node25 -->
<g id="edge38" class="edge"><title>Node23&#45;&gt;Node25</title>
<path fill="none" stroke="midnightblue" d="M1537.82,-235.475C1552.88,-225.843 1577.62,-210.017 1595.54,-198.552"/>
<polygon fill="midnightblue" stroke="midnightblue" points="1597.66,-201.347 1604.2,-193.009 1593.89,-195.45 1597.66,-201.347"/>
</g>
<!-- Node26&#45;&gt;Node5 -->
<g id="edge40" class="edge"><title>Node26&#45;&gt;Node5</title>
<path fill="none" stroke="midnightblue" d="M877.709,-173.991C871.891,-159.487 862.881,-129.817 877.5,-112 896.991,-88.2454 974.465,-76.796 1033.32,-71.4374"/>
<polygon fill="midnightblue" stroke="midnightblue" points="1033.67,-74.92 1043.33,-70.5673 1033.07,-67.9463 1033.67,-74.92"/>
</g>
<!-- Node26&#45;&gt;Node11 -->
<g id="edge41" class="edge"><title>Node26&#45;&gt;Node11</title>
<path fill="none" stroke="midnightblue" d="M869.322,-173.975C855.688,-164.431 833.368,-148.807 817.026,-137.368"/>
<polygon fill="midnightblue" stroke="midnightblue" points="818.855,-134.376 808.656,-131.509 814.841,-140.111 818.855,-134.376"/>
</g>
<!-- Node26&#45;&gt;Node19 -->
<g id="edge42" class="edge"><title>Node26&#45;&gt;Node19</title>
<path fill="none" stroke="midnightblue" d="M855.137,-173.975C823.165,-163.636 769.124,-146.161 733.378,-134.602"/>
<polygon fill="midnightblue" stroke="midnightblue" points="734.406,-131.256 723.814,-131.509 732.252,-137.916 734.406,-131.256"/>
</g>
<!-- Node27 -->
<g id="node27" class="node"><title>Node27</title>
<polygon fill="white" stroke="#bfbfbf" points="886.5,-112.5 886.5,-131.5 940.5,-131.5 940.5,-112.5 886.5,-112.5"/>
<text text-anchor="middle" x="913.5" y="-119.5" font-family="Helvetica,sans-Serif" font-size="10.00">random</text>
</g>
<!-- Node26&#45;&gt;Node27 -->
<g id="edge43" class="edge"><title>Node26&#45;&gt;Node27</title>
<path fill="none" stroke="midnightblue" d="M886.085,-173.975C890.742,-165.315 898.092,-151.649 904.01,-140.645"/>
<polygon fill="midnightblue" stroke="midnightblue" points="907.27,-141.974 908.924,-131.509 901.105,-138.658 907.27,-141.974"/>
</g>
<!-- Node28&#45;&gt;Node14 -->
<g id="edge45" class="edge"><title>Node28&#45;&gt;Node14</title>
<path fill="none" stroke="midnightblue" d="M1130.92,-310.516C1111.18,-319.467 1077.05,-333.629 1050.92,-343.772"/>
<polygon fill="midnightblue" stroke="midnightblue" points="1049.43,-340.595 1041.35,-347.444 1051.94,-347.131 1049.43,-340.595"/>
</g>
<!-- Node30&#45;&gt;Node13 -->
<g id="edge50" class="edge"><title>Node30&#45;&gt;Node13</title>
<path fill="none" stroke="midnightblue" d="M769.117,-366.751C771.038,-373.858 772.056,-384.136 771.922,-393.101"/>
<polygon fill="midnightblue" stroke="midnightblue" points="768.432,-392.848 771.171,-403.083 775.412,-393.374 768.432,-392.848"/>
</g>
<!-- Node31 -->
<g id="node31" class="node"><title>Node31</title>
<g id="a_node31"><a xlink:href="LinearAlgebra_8hpp.html" target="_top" xlink:title="Core/Math/LinearAlgebra.hpp">
<polygon fill="white" stroke="black" points="389.5,-235.5 389.5,-254.5 545.5,-254.5 545.5,-235.5 389.5,-235.5"/>
<text text-anchor="middle" x="467.5" y="-242.5" font-family="Helvetica,sans-Serif" font-size="10.00">Core/Math/LinearAlgebra.hpp</text>
</a>
</g>
</g>
<!-- Node30&#45;&gt;Node31 -->
<g id="edge51" class="edge"><title>Node30&#45;&gt;Node31</title>
<path fill="none" stroke="midnightblue" d="M740.273,-347.368C687.859,-327.89 560.28,-280.479 500.03,-258.089"/>
<polygon fill="midnightblue" stroke="midnightblue" points="501.212,-254.794 490.619,-254.591 498.773,-261.356 501.212,-254.794"/>
</g>
<!-- Node31&#45;&gt;Node4 -->
<g id="edge52" class="edge"><title>Node31&#45;&gt;Node4</title>
<path fill="none" stroke="midnightblue" d="M545.791,-241.825C747.877,-235.941 1273.53,-218.81 1305.5,-199 1326.09,-186.243 1337.72,-159.813 1343.57,-141.741"/>
<polygon fill="midnightblue" stroke="midnightblue" points="1346.97,-142.581 1346.42,-132 1340.25,-140.612 1346.97,-142.581"/>
</g>
<!-- Node31&#45;&gt;Node11 -->
<g id="edge53" class="edge"><title>Node31&#45;&gt;Node11</title>
<path fill="none" stroke="midnightblue" d="M389.238,-239.467C313.708,-232.324 216.632,-214.106 259.5,-168 295.364,-129.427 665.124,-138.723 752.324,-131.645"/>
<polygon fill="midnightblue" stroke="midnightblue" points="752.73,-135.122 762.305,-130.587 751.992,-128.161 752.73,-135.122"/>
</g>
<!-- Node31&#45;&gt;Node18 -->
<g id="edge64" class="edge"><title>Node31&#45;&gt;Node18</title>
<path fill="none" stroke="midnightblue" d="M516.677,-235.452C564.718,-226.916 639.842,-213.073 704.5,-199 709.587,-197.893 714.906,-196.673 720.178,-195.426"/>
<polygon fill="midnightblue" stroke="midnightblue" points="721.283,-198.76 730.186,-193.016 719.644,-191.955 721.283,-198.76"/>
</g>
<!-- Node31&#45;&gt;Node19 -->
<g id="edge54" class="edge"><title>Node31&#45;&gt;Node19</title>
<path fill="none" stroke="midnightblue" d="M539.673,-235.466C589.871,-228.173 651.126,-216.122 670.5,-199 687.025,-184.395 693.436,-158.994 695.924,-141.609"/>
<polygon fill="midnightblue" stroke="midnightblue" points="699.417,-141.866 697.058,-131.537 692.461,-141.082 699.417,-141.866"/>
</g>
<!-- Node31&#45;&gt;Node20 -->
<g id="edge55" class="edge"><title>Node31&#45;&gt;Node20</title>
<path fill="none" stroke="midnightblue" d="M389.195,-239.879C327.239,-234.785 247.873,-223.548 227.5,-199 178.627,-140.112 320.309,-126.706 400.114,-123.755"/>
<polygon fill="midnightblue" stroke="midnightblue" points="400.585,-127.242 410.466,-123.418 400.357,-120.245 400.585,-127.242"/>
</g>
<!-- Node32 -->
<g id="node32" class="node"><title>Node32</title>
<polygon fill="white" stroke="#bfbfbf" points="436,-174 436,-193 499,-193 499,-174 436,-174"/>
<text text-anchor="middle" x="467.5" y="-181" font-family="Helvetica,sans-Serif" font-size="10.00">functional</text>
</g>
<!-- Node31&#45;&gt;Node32 -->
<g id="edge56" class="edge"><title>Node31&#45;&gt;Node32</title>
<path fill="none" stroke="midnightblue" d="M467.5,-235.475C467.5,-227.08 467.5,-213.981 467.5,-203.163"/>
<polygon fill="midnightblue" stroke="midnightblue" points="471,-203.009 467.5,-193.009 464,-203.009 471,-203.009"/>
</g>
<!-- Node33 -->
<g id="node33" class="node"><title>Node33</title>
<polygon fill="white" stroke="#bfbfbf" points="517,-168.5 517,-198.5 662,-198.5 662,-168.5 517,-168.5"/>
<text text-anchor="start" x="525" y="-186.5" font-family="Helvetica,sans-Serif" font-size="10.00">unsupported/Eigen/Aligned</text>
<text text-anchor="middle" x="589.5" y="-175.5" font-family="Helvetica,sans-Serif" font-size="10.00">Vector3</text>
</g>
<!-- Node31&#45;&gt;Node33 -->
<g id="edge57" class="edge"><title>Node31&#45;&gt;Node33</title>
<path fill="none" stroke="midnightblue" d="M484.98,-235.475C502.275,-227.04 529.31,-213.855 551.551,-203.008"/>
<polygon fill="midnightblue" stroke="midnightblue" points="553.293,-206.052 560.747,-198.523 550.225,-199.761 553.293,-206.052"/>
</g>
<!-- Node31&#45;&gt;Node34 -->
<g id="edge58" class="edge"><title>Node31&#45;&gt;Node34</title>
<path fill="none" stroke="midnightblue" d="M410.679,-235.5C354.411,-226.918 265.849,-212.969 189.5,-199 182.848,-197.783 175.86,-196.438 168.969,-195.072"/>
<polygon fill="midnightblue" stroke="midnightblue" points="169.488,-191.606 158.994,-193.068 168.109,-198.469 169.488,-191.606"/>
</g>
<!-- Node38 -->
<g id="node38" class="node"><title>Node38</title>
<g id="a_node38"><a xlink:href="LinearAlgebra_8inl.html" target="_top" xlink:title="Core/Math/LinearAlgebra.inl">
<polygon fill="white" stroke="black" points="269,-174 269,-193 418,-193 418,-174 269,-174"/>
<text text-anchor="middle" x="343.5" y="-181" font-family="Helvetica,sans-Serif" font-size="10.00">Core/Math/LinearAlgebra.inl</text>
</a>
</g>
</g>
<!-- Node31&#45;&gt;Node38 -->
<g id="edge65" class="edge"><title>Node31&#45;&gt;Node38</title>
<path fill="none" stroke="midnightblue" d="M444.833,-235.475C422.15,-225.622 387.834,-209.288 365.426,-197.77"/>
<polygon fill="midnightblue" stroke="midnightblue" points="366.819,-194.548 356.336,-193.009 363.571,-200.749 366.819,-194.548"/>
</g>
<!-- Node34&#45;&gt;Node4 -->
<g id="edge59" class="edge"><title>Node34&#45;&gt;Node4</title>
<path fill="none" stroke="midnightblue" d="M175.709,-175.736C201.307,-172.937 231.881,-169.906 259.5,-168 711.153,-136.826 826.247,-168.504 1277.5,-132 1281.36,-131.688 1285.33,-131.318 1289.33,-130.91"/>
<polygon fill="midnightblue" stroke="midnightblue" points="1289.73,-134.388 1299.29,-129.825 1288.97,-127.429 1289.73,-134.388"/>
</g>
<!-- Node35 -->
<g id="node35" class="node"><title>Node35</title>
<polygon fill="white" stroke="#bfbfbf" points="189.5,-112.5 189.5,-131.5 251.5,-131.5 251.5,-112.5 189.5,-112.5"/>
<text text-anchor="middle" x="220.5" y="-119.5" font-family="Helvetica,sans-Serif" font-size="10.00">algorithm</text>
</g>
<!-- Node34&#45;&gt;Node35 -->
<g id="edge60" class="edge"><title>Node34&#45;&gt;Node35</title>
<path fill="none" stroke="midnightblue" d="M133.114,-173.975C149.853,-164.211 177.504,-148.081 197.219,-136.581"/>
<polygon fill="midnightblue" stroke="midnightblue" points="199.039,-139.571 205.913,-131.509 195.512,-133.525 199.039,-139.571"/>
</g>
<!-- Node36 -->
<g id="node36" class="node"><title>Node36</title>
<polygon fill="white" stroke="#bfbfbf" points="0,-112.5 0,-131.5 47,-131.5 47,-112.5 0,-112.5"/>
<text text-anchor="middle" x="23.5" y="-119.5" font-family="Helvetica,sans-Serif" font-size="10.00">cmath</text>
</g>
<!-- Node34&#45;&gt;Node36 -->
<g id="edge61" class="edge"><title>Node34&#45;&gt;Node36</title>
<path fill="none" stroke="midnightblue" d="M104.889,-173.975C89.4395,-164.299 64.0101,-148.372 45.6839,-136.894"/>
<polygon fill="midnightblue" stroke="midnightblue" points="47.4187,-133.851 37.0859,-131.509 43.7031,-139.783 47.4187,-133.851"/>
</g>
<!-- Node37 -->
<g id="node37" class="node"><title>Node37</title>
<g id="a_node37"><a xlink:href="Math_8inl.html" target="_top" xlink:title="Core/Math/Math.inl">
<polygon fill="white" stroke="black" points="65,-112.5 65,-131.5 172,-131.5 172,-112.5 65,-112.5"/>
<text text-anchor="middle" x="118.5" y="-119.5" font-family="Helvetica,sans-Serif" font-size="10.00">Core/Math/Math.inl</text>
</a>
</g>
</g>
<!-- Node34&#45;&gt;Node37 -->
<g id="edge62" class="edge"><title>Node34&#45;&gt;Node37</title>
<path fill="none" stroke="midnightblue" d="M113.599,-173.975C111.768,-165.58 111.297,-152.481 112.185,-141.663"/>
<polygon fill="midnightblue" stroke="midnightblue" points="115.686,-141.897 113.603,-131.509 108.754,-140.929 115.686,-141.897"/>
</g>
<!-- Node37&#45;&gt;Node34 -->
<g id="edge63" class="edge"><title>Node37&#45;&gt;Node34</title>
<path fill="none" stroke="midnightblue" d="M123.397,-131.509C125.23,-139.898 125.703,-152.996 124.817,-163.817"/>
<polygon fill="midnightblue" stroke="midnightblue" points="121.315,-163.588 123.401,-173.975 128.248,-164.554 121.315,-163.588"/>
</g>
<!-- Node38&#45;&gt;Node31 -->
<g id="edge66" class="edge"><title>Node38&#45;&gt;Node31</title>
<path fill="none" stroke="midnightblue" d="M366.13,-193.009C388.801,-202.855 423.117,-219.188 445.538,-230.712"/>
<polygon fill="midnightblue" stroke="midnightblue" points="444.152,-233.936 454.634,-235.475 447.399,-227.735 444.152,-233.936"/>
</g>
</g>
</svg>
