<?xml version="1.0" encoding="UTF-8" standalone="no"?>
<!DOCTYPE svg PUBLIC "-//W3C//DTD SVG 1.1//EN"
 "http://www.w3.org/Graphics/SVG/1.1/DTD/svg11.dtd">
<!-- Generated by graphviz version 2.38.0 (20140413.2041)
 -->
<!-- Title: /home/travis/build/STORM&#45;IRIT/Radium&#45;Engine/src/Core/Geometry/MeshPrimitives.inl Pages: 1 -->
<svg width="1669pt" height="509pt"
 viewBox="0.00 0.00 1669.00 509.00" xmlns="http://www.w3.org/2000/svg" xmlns:xlink="http://www.w3.org/1999/xlink">
<g id="graph0" class="graph" transform="scale(1 1) rotate(0) translate(4 505)">
<title>/home/travis/build/STORM&#45;IRIT/Radium&#45;Engine/src/Core/Geometry/MeshPrimitives.inl</title>
<polygon fill="white" stroke="none" points="-4,4 -4,-505 1665,-505 1665,4 -4,4"/>
<!-- Node1 -->
<g id="node1" class="node"><title>Node1</title>
<polygon fill="#bfbfbf" stroke="black" points="826,-459.5 826,-500.5 1025,-500.5 1025,-459.5 826,-459.5"/>
<text text-anchor="start" x="834" y="-488.5" font-family="Helvetica,sans-Serif" font-size="10.00">/home/travis/build</text>
<text text-anchor="start" x="834" y="-477.5" font-family="Helvetica,sans-Serif" font-size="10.00">/STORM&#45;IRIT/Radium&#45;Engine</text>
<text text-anchor="middle" x="925.5" y="-466.5" font-family="Helvetica,sans-Serif" font-size="10.00">/src/Core/Geometry/MeshPrimitives.inl</text>
</g>
<!-- Node2 -->
<g id="node2" class="node"><title>Node2</title>
<g id="a_node2"><a xlink:href="MeshPrimitives_8hpp.html" target="_top" xlink:title="Core/Geometry/MeshPrimitives.hpp">
<polygon fill="white" stroke="black" points="832.5,-403.5 832.5,-422.5 1018.5,-422.5 1018.5,-403.5 832.5,-403.5"/>
<text text-anchor="middle" x="925.5" y="-410.5" font-family="Helvetica,sans-Serif" font-size="10.00">Core/Geometry/MeshPrimitives.hpp</text>
</a>
</g>
</g>
<!-- Node1&#45;&gt;Node2 -->
<g id="edge1" class="edge"><title>Node1&#45;&gt;Node2</title>
<path fill="none" stroke="midnightblue" d="M919.255,-459.498C918.557,-450.969 918.583,-441.011 919.333,-432.59"/>
<polygon fill="midnightblue" stroke="midnightblue" points="922.803,-433.044 920.736,-422.652 915.872,-432.065 922.803,-433.044"/>
</g>
<!-- Node28 -->
<g id="node28" class="node"><title>Node28</title>
<g id="a_node28"><a xlink:href="LinearAlgebra_8hpp.html" target="_top" xlink:title="Core/Math/LinearAlgebra.hpp">
<polygon fill="white" stroke="black" points="1047.5,-235.5 1047.5,-254.5 1203.5,-254.5 1203.5,-235.5 1047.5,-235.5"/>
<text text-anchor="middle" x="1125.5" y="-242.5" font-family="Helvetica,sans-Serif" font-size="10.00">Core/Math/LinearAlgebra.hpp</text>
</a>
</g>
</g>
<!-- Node1&#45;&gt;Node28 -->
<g id="edge44" class="edge"><title>Node1&#45;&gt;Node28</title>
<path fill="none" stroke="midnightblue" d="M983.02,-459.415C1024.7,-442.011 1078.46,-412.227 1106.5,-367 1126.22,-335.184 1127.81,-289.908 1126.87,-264.728"/>
<polygon fill="midnightblue" stroke="midnightblue" points="1130.36,-264.487 1126.32,-254.694 1123.37,-264.871 1130.36,-264.487"/>
</g>
<!-- Node2&#45;&gt;Node1 -->
<g id="edge43" class="edge"><title>Node2&#45;&gt;Node1</title>
<path fill="none" stroke="midnightblue" d="M930.264,-422.652C931.727,-429.524 932.381,-439.559 932.228,-449.263"/>
<polygon fill="midnightblue" stroke="midnightblue" points="928.721,-449.344 931.745,-459.498 935.713,-449.674 928.721,-449.344"/>
</g>
<!-- Node3 -->
<g id="node3" class="node"><title>Node3</title>
<g id="a_node3"><a xlink:href="TriangleMesh_8hpp.html" target="_top" xlink:title="Core/Geometry/TriangleMesh.hpp">
<polygon fill="white" stroke="black" points="649.5,-347.5 649.5,-366.5 825.5,-366.5 825.5,-347.5 649.5,-347.5"/>
<text text-anchor="middle" x="737.5" y="-354.5" font-family="Helvetica,sans-Serif" font-size="10.00">Core/Geometry/TriangleMesh.hpp</text>
</a>
</g>
</g>
<!-- Node2&#45;&gt;Node3 -->
<g id="edge2" class="edge"><title>Node2&#45;&gt;Node3</title>
<path fill="none" stroke="midnightblue" d="M895.711,-403.444C863.671,-394.241 812.567,-379.562 777.147,-369.388"/>
<polygon fill="midnightblue" stroke="midnightblue" points="777.727,-365.913 767.15,-366.516 775.795,-372.641 777.727,-365.913"/>
</g>
<!-- Node6 -->
<g id="node6" class="node"><title>Node6</title>
<g id="a_node6"><a xlink:href="RaCore_8hpp.html" target="_top" xlink:title="Core/RaCore.hpp">
<polygon fill="white" stroke="black" points="541.5,-112.5 541.5,-131.5 639.5,-131.5 639.5,-112.5 541.5,-112.5"/>
<text text-anchor="middle" x="590.5" y="-119.5" font-family="Helvetica,sans-Serif" font-size="10.00">Core/RaCore.hpp</text>
</a>
</g>
</g>
<!-- Node2&#45;&gt;Node6 -->
<g id="edge40" class="edge"><title>Node2&#45;&gt;Node6</title>
<path fill="none" stroke="midnightblue" d="M832.171,-406.718C654.054,-394.374 276.951,-356.564 205.5,-255 167,-200.274 209.066,-204.617 298.5,-168 374.895,-136.722 470.642,-126.986 531.215,-124.068"/>
<polygon fill="midnightblue" stroke="midnightblue" points="531.525,-127.558 541.364,-123.627 531.221,-120.564 531.525,-127.558"/>
</g>
<!-- Node24 -->
<g id="node24" class="node"><title>Node24</title>
<g id="a_node24"><a xlink:href="Color_8hpp.html" target="_top" xlink:title="Core/Utils/Color.hpp">
<polygon fill="white" stroke="black" points="695,-174 695,-193 806,-193 806,-174 695,-174"/>
<text text-anchor="middle" x="750.5" y="-181" font-family="Helvetica,sans-Serif" font-size="10.00">Core/Utils/Color.hpp</text>
</a>
</g>
</g>
<!-- Node2&#45;&gt;Node24 -->
<g id="edge41" class="edge"><title>Node2&#45;&gt;Node24</title>
<path fill="none" stroke="midnightblue" d="M924.85,-403.411C922.304,-375.512 910.674,-286.28 863.5,-235 846.138,-216.127 820.407,-203.876 797.882,-196.174"/>
<polygon fill="midnightblue" stroke="midnightblue" points="798.722,-192.768 788.131,-193.047 796.584,-199.433 798.722,-192.768"/>
</g>
<!-- Node27 -->
<g id="node27" class="node"><title>Node27</title>
<g id="a_node27"><a xlink:href="StdOptional_8hpp.html" target="_top" xlink:title="Core/Utils/StdOptional.hpp">
<polygon fill="white" stroke="black" points="954,-347.5 954,-366.5 1097,-366.5 1097,-347.5 954,-347.5"/>
<text text-anchor="middle" x="1025.5" y="-354.5" font-family="Helvetica,sans-Serif" font-size="10.00">Core/Utils/StdOptional.hpp</text>
</a>
</g>
</g>
<!-- Node2&#45;&gt;Node27 -->
<g id="edge42" class="edge"><title>Node2&#45;&gt;Node27</title>
<path fill="none" stroke="midnightblue" d="M941.567,-403.324C957.458,-394.743 982.007,-381.486 1000.46,-371.522"/>
<polygon fill="midnightblue" stroke="midnightblue" points="1002.34,-374.486 1009.47,-366.655 999.011,-368.326 1002.34,-374.486"/>
</g>
<!-- Node4 -->
<g id="node4" class="node"><title>Node4</title>
<g id="a_node4"><a xlink:href="VectorArray_8hpp.html" target="_top" xlink:title="Core/Containers/VectorArray.hpp">
<polygon fill="white" stroke="black" points="215,-235.5 215,-254.5 388,-254.5 388,-235.5 215,-235.5"/>
<text text-anchor="middle" x="301.5" y="-242.5" font-family="Helvetica,sans-Serif" font-size="10.00">Core/Containers/VectorArray.hpp</text>
</a>
</g>
</g>
<!-- Node3&#45;&gt;Node4 -->
<g id="edge3" class="edge"><title>Node3&#45;&gt;Node4</title>
<path fill="none" stroke="midnightblue" d="M649.223,-354.431C580.414,-350.781 483.452,-340.243 403.5,-311 371.52,-299.303 339.127,-276.343 319.676,-261.083"/>
<polygon fill="midnightblue" stroke="midnightblue" points="321.688,-258.21 311.698,-254.681 317.308,-263.669 321.688,-258.21"/>
</g>
<!-- Node3&#45;&gt;Node6 -->
<g id="edge24" class="edge"><title>Node3&#45;&gt;Node6</title>
<path fill="none" stroke="midnightblue" d="M693.836,-347.435C672.071,-340.971 647.127,-329.857 631.5,-311 590.146,-261.1 587.924,-178.862 589.273,-141.957"/>
<polygon fill="midnightblue" stroke="midnightblue" points="592.784,-141.83 589.791,-131.667 585.793,-141.478 592.784,-141.83"/>
</g>
<!-- Node15 -->
<g id="node15" class="node"><title>Node15</title>
<g id="a_node15"><a xlink:href="Types_8hpp.html" target="_top" xlink:title="Core/Types.hpp">
<polygon fill="white" stroke="black" points="824,-174 824,-193 913,-193 913,-174 824,-174"/>
<text text-anchor="middle" x="868.5" y="-181" font-family="Helvetica,sans-Serif" font-size="10.00">Core/Types.hpp</text>
</a>
</g>
</g>
<!-- Node3&#45;&gt;Node15 -->
<g id="edge25" class="edge"><title>Node3&#45;&gt;Node15</title>
<path fill="none" stroke="midnightblue" d="M780.946,-347.439C803.332,-340.944 829.439,-329.798 846.5,-311 873.504,-281.247 873.388,-230.679 870.954,-203.358"/>
<polygon fill="midnightblue" stroke="midnightblue" points="874.41,-202.76 869.842,-193.2 867.451,-203.522 874.41,-202.76"/>
</g>
<!-- Node19 -->
<g id="node19" class="node"><title>Node19</title>
<g id="a_node19"><a xlink:href="AbstractGeometry_8hpp.html" target="_top" xlink:title="Core/Geometry/AbstractGeometry.hpp">
<polygon fill="white" stroke="black" points="654,-235.5 654,-254.5 855,-254.5 855,-235.5 654,-235.5"/>
<text text-anchor="middle" x="754.5" y="-242.5" font-family="Helvetica,sans-Serif" font-size="10.00">Core/Geometry/AbstractGeometry.hpp</text>
</a>
</g>
</g>
<!-- Node3&#45;&gt;Node19 -->
<g id="edge21" class="edge"><title>Node3&#45;&gt;Node19</title>
<path fill="none" stroke="midnightblue" d="M776.755,-347.475C796.496,-340.99 818.684,-329.843 830.5,-311 844.465,-288.729 815.327,-270.065 789.186,-258.532"/>
<polygon fill="midnightblue" stroke="midnightblue" points="790.354,-255.227 779.777,-254.612 787.662,-261.688 790.354,-255.227"/>
</g>
<!-- Node20 -->
<g id="node20" class="node"><title>Node20</title>
<g id="a_node20"><a xlink:href="Attribs_8hpp.html" target="_top" xlink:title="Core/Utils/Attribs.hpp">
<polygon fill="white" stroke="black" points="413,-291.5 413,-310.5 532,-310.5 532,-291.5 413,-291.5"/>
<text text-anchor="middle" x="472.5" y="-298.5" font-family="Helvetica,sans-Serif" font-size="10.00">Core/Utils/Attribs.hpp</text>
</a>
</g>
</g>
<!-- Node3&#45;&gt;Node20 -->
<g id="edge26" class="edge"><title>Node3&#45;&gt;Node20</title>
<path fill="none" stroke="midnightblue" d="M695.51,-347.444C649.088,-337.984 574.272,-322.738 524.26,-312.547"/>
<polygon fill="midnightblue" stroke="midnightblue" points="524.791,-309.084 514.294,-310.516 523.393,-315.943 524.791,-309.084"/>
</g>
<!-- Node3&#45;&gt;Node24 -->
<g id="edge33" class="edge"><title>Node3&#45;&gt;Node24</title>
<path fill="none" stroke="midnightblue" d="M698.245,-347.475C678.504,-340.99 656.316,-329.843 644.5,-311 626.556,-282.383 626.469,-263.563 644.5,-235 656.618,-215.804 678.252,-203.753 698.83,-196.262"/>
<polygon fill="midnightblue" stroke="midnightblue" points="700.109,-199.525 708.485,-193.037 697.891,-192.886 700.109,-199.525"/>
</g>
<!-- Node26 -->
<g id="node26" class="node"><title>Node26</title>
<g id="a_node26"><a xlink:href="TriangleMesh_8inl.html" target="_top" xlink:title="Core/Geometry/TriangleMesh.inl">
<polygon fill="white" stroke="black" points="653.5,-291.5 653.5,-310.5 821.5,-310.5 821.5,-291.5 653.5,-291.5"/>
<text text-anchor="middle" x="737.5" y="-298.5" font-family="Helvetica,sans-Serif" font-size="10.00">Core/Geometry/TriangleMesh.inl</text>
</a>
</g>
</g>
<!-- Node3&#45;&gt;Node26 -->
<g id="edge38" class="edge"><title>Node3&#45;&gt;Node26</title>
<path fill="none" stroke="midnightblue" d="M732.334,-347.083C730.824,-339.927 730.394,-329.635 731.042,-320.691"/>
<polygon fill="midnightblue" stroke="midnightblue" points="734.515,-321.126 732.369,-310.751 727.577,-320.2 734.515,-321.126"/>
</g>
<!-- Node5 -->
<g id="node5" class="node"><title>Node5</title>
<g id="a_node5"><a xlink:href="AlignedStdVector_8hpp.html" target="_top" xlink:title="Core/Containers/AlignedStd\lVector.hpp">
<polygon fill="white" stroke="black" points="44,-168.5 44,-198.5 193,-198.5 193,-168.5 44,-168.5"/>
<text text-anchor="start" x="52" y="-186.5" font-family="Helvetica,sans-Serif" font-size="10.00">Core/Containers/AlignedStd</text>
<text text-anchor="middle" x="118.5" y="-175.5" font-family="Helvetica,sans-Serif" font-size="10.00">Vector.hpp</text>
</a>
</g>
</g>
<!-- Node4&#45;&gt;Node5 -->
<g id="edge4" class="edge"><title>Node4&#45;&gt;Node5</title>
<path fill="none" stroke="midnightblue" d="M275.281,-235.475C248.295,-226.701 205.503,-212.788 171.439,-201.712"/>
<polygon fill="midnightblue" stroke="midnightblue" points="172.222,-198.287 161.629,-198.523 170.057,-204.944 172.222,-198.287"/>
</g>
<!-- Node4&#45;&gt;Node6 -->
<g id="edge14" class="edge"><title>Node4&#45;&gt;Node6</title>
<path fill="none" stroke="midnightblue" d="M300.366,-235.493C298.788,-219.732 297.951,-185.964 316.5,-168 346.288,-139.152 459.784,-128.755 531.026,-125.037"/>
<polygon fill="midnightblue" stroke="midnightblue" points="531.4,-128.523 541.216,-124.536 531.056,-121.532 531.4,-128.523"/>
</g>
<!-- Node14 -->
<g id="node14" class="node"><title>Node14</title>
<polygon fill="white" stroke="#bfbfbf" points="0,-112.5 0,-131.5 47,-131.5 47,-112.5 0,-112.5"/>
<text text-anchor="middle" x="23.5" y="-119.5" font-family="Helvetica,sans-Serif" font-size="10.00">vector</text>
</g>
<!-- Node4&#45;&gt;Node14 -->
<g id="edge20" class="edge"><title>Node4&#45;&gt;Node14</title>
<path fill="none" stroke="midnightblue" d="M214.752,-240.214C146.571,-235.333 59.1385,-224.218 34.5,-199 19.9022,-184.059 19.0526,-158.939 20.5906,-141.696"/>
<polygon fill="midnightblue" stroke="midnightblue" points="24.0744,-142.042 21.8256,-131.688 17.1271,-141.184 24.0744,-142.042"/>
</g>
<!-- Node4&#45;&gt;Node15 -->
<g id="edge15" class="edge"><title>Node4&#45;&gt;Node15</title>
<path fill="none" stroke="midnightblue" d="M388.05,-238.248C512.295,-229.676 734.989,-213.051 814.5,-199 819.684,-198.084 825.096,-196.905 830.405,-195.616"/>
<polygon fill="midnightblue" stroke="midnightblue" points="831.592,-198.925 840.403,-193.042 829.846,-192.146 831.592,-198.925"/>
</g>
<!-- Node5&#45;&gt;Node6 -->
<g id="edge5" class="edge"><title>Node5&#45;&gt;Node6</title>
<path fill="none" stroke="midnightblue" d="M193.356,-169.922C197.8,-169.251 202.207,-168.605 206.5,-168 321.082,-151.855 455.478,-137.048 531.042,-129.098"/>
<polygon fill="midnightblue" stroke="midnightblue" points="531.725,-132.546 541.306,-128.023 530.996,-125.584 531.725,-132.546"/>
</g>
<!-- Node13 -->
<g id="node13" class="node"><title>Node13</title>
<polygon fill="white" stroke="#bfbfbf" points="72,-112.5 72,-131.5 165,-131.5 165,-112.5 72,-112.5"/>
<text text-anchor="middle" x="118.5" y="-119.5" font-family="Helvetica,sans-Serif" font-size="10.00">Eigen/StdVector</text>
</g>
<!-- Node5&#45;&gt;Node13 -->
<g id="edge12" class="edge"><title>Node5&#45;&gt;Node13</title>
<path fill="none" stroke="midnightblue" d="M118.5,-168.399C118.5,-160.466 118.5,-150.458 118.5,-141.858"/>
<polygon fill="midnightblue" stroke="midnightblue" points="122,-141.658 118.5,-131.658 115,-141.658 122,-141.658"/>
</g>
<!-- Node5&#45;&gt;Node14 -->
<g id="edge13" class="edge"><title>Node5&#45;&gt;Node14</title>
<path fill="none" stroke="midnightblue" d="M95.9863,-168.399C80.9009,-158.951 61.115,-146.559 46.0268,-137.109"/>
<polygon fill="midnightblue" stroke="midnightblue" points="47.6561,-134 37.3233,-131.658 43.9405,-139.932 47.6561,-134"/>
</g>
<!-- Node7 -->
<g id="node7" class="node"><title>Node7</title>
<g id="a_node7"><a xlink:href="CoreMacros_8hpp.html" target="_top" xlink:title="Core/CoreMacros.hpp">
<polygon fill="white" stroke="black" points="575.5,-56.5 575.5,-75.5 695.5,-75.5 695.5,-56.5 575.5,-56.5"/>
<text text-anchor="middle" x="635.5" y="-63.5" font-family="Helvetica,sans-Serif" font-size="10.00">Core/CoreMacros.hpp</text>
</a>
</g>
</g>
<!-- Node6&#45;&gt;Node7 -->
<g id="edge6" class="edge"><title>Node6&#45;&gt;Node7</title>
<path fill="none" stroke="midnightblue" d="M597.931,-112.083C604.353,-104.377 613.806,-93.0333 621.622,-83.6531"/>
<polygon fill="midnightblue" stroke="midnightblue" points="624.494,-85.674 628.207,-75.7511 619.117,-81.1927 624.494,-85.674"/>
</g>
<!-- Node8 -->
<g id="node8" class="node"><title>Node8</title>
<polygon fill="white" stroke="#bfbfbf" points="472.5,-0.5 472.5,-19.5 524.5,-19.5 524.5,-0.5 472.5,-0.5"/>
<text text-anchor="middle" x="498.5" y="-7.5" font-family="Helvetica,sans-Serif" font-size="10.00">cassert</text>
</g>
<!-- Node7&#45;&gt;Node8 -->
<g id="edge7" class="edge"><title>Node7&#45;&gt;Node8</title>
<path fill="none" stroke="midnightblue" d="M613.792,-56.4435C591.145,-47.5171 555.428,-33.4387 529.748,-23.3168"/>
<polygon fill="midnightblue" stroke="midnightblue" points="530.693,-19.9273 520.106,-19.5164 528.126,-26.4397 530.693,-19.9273"/>
</g>
<!-- Node9 -->
<g id="node9" class="node"><title>Node9</title>
<polygon fill="white" stroke="#bfbfbf" points="543,-0.5 543,-19.5 588,-19.5 588,-0.5 543,-0.5"/>
<text text-anchor="middle" x="565.5" y="-7.5" font-family="Helvetica,sans-Serif" font-size="10.00">cstdio</text>
</g>
<!-- Node7&#45;&gt;Node9 -->
<g id="edge8" class="edge"><title>Node7&#45;&gt;Node9</title>
<path fill="none" stroke="midnightblue" d="M624.253,-56.324C613.703,-48.1849 597.699,-35.8395 585.058,-26.0874"/>
<polygon fill="midnightblue" stroke="midnightblue" points="587.007,-23.1707 576.951,-19.8339 582.731,-28.7132 587.007,-23.1707"/>
</g>
<!-- Node10 -->
<g id="node10" class="node"><title>Node10</title>
<polygon fill="white" stroke="#bfbfbf" points="606,-0.5 606,-19.5 665,-19.5 665,-0.5 606,-0.5"/>
<text text-anchor="middle" x="635.5" y="-7.5" font-family="Helvetica,sans-Serif" font-size="10.00">iostream</text>
</g>
<!-- Node7&#45;&gt;Node10 -->
<g id="edge9" class="edge"><title>Node7&#45;&gt;Node10</title>
<path fill="none" stroke="midnightblue" d="M635.5,-56.083C635.5,-49.0059 635.5,-38.8611 635.5,-29.9865"/>
<polygon fill="midnightblue" stroke="midnightblue" points="639,-29.751 635.5,-19.7511 632,-29.7511 639,-29.751"/>
</g>
<!-- Node11 -->
<g id="node11" class="node"><title>Node11</title>
<polygon fill="white" stroke="#bfbfbf" points="683.5,-0.5 683.5,-19.5 739.5,-19.5 739.5,-0.5 683.5,-0.5"/>
<text text-anchor="middle" x="711.5" y="-7.5" font-family="Helvetica,sans-Serif" font-size="10.00">sstream</text>
</g>
<!-- Node7&#45;&gt;Node11 -->
<g id="edge10" class="edge"><title>Node7&#45;&gt;Node11</title>
<path fill="none" stroke="midnightblue" d="M647.711,-56.324C659.276,-48.1066 676.875,-35.6017 690.661,-25.8069"/>
<polygon fill="midnightblue" stroke="midnightblue" points="692.943,-28.4791 699.067,-19.8339 688.888,-22.7729 692.943,-28.4791"/>
</g>
<!-- Node12 -->
<g id="node12" class="node"><title>Node12</title>
<polygon fill="white" stroke="#bfbfbf" points="757.5,-0.5 757.5,-19.5 805.5,-19.5 805.5,-0.5 757.5,-0.5"/>
<text text-anchor="middle" x="781.5" y="-7.5" font-family="Helvetica,sans-Serif" font-size="10.00">thread</text>
</g>
<!-- Node7&#45;&gt;Node12 -->
<g id="edge11" class="edge"><title>Node7&#45;&gt;Node12</title>
<path fill="none" stroke="midnightblue" d="M658.634,-56.4435C682.982,-47.4381 721.507,-33.1891 748.923,-23.049"/>
<polygon fill="midnightblue" stroke="midnightblue" points="750.309,-26.2681 758.474,-19.5164 747.881,-19.7028 750.309,-26.2681"/>
</g>
<!-- Node15&#45;&gt;Node6 -->
<g id="edge16" class="edge"><title>Node15&#45;&gt;Node6</title>
<path fill="none" stroke="midnightblue" d="M838.029,-173.952C830.372,-171.905 822.155,-169.795 814.5,-168 757.952,-154.742 692.809,-141.929 647.404,-133.389"/>
<polygon fill="midnightblue" stroke="midnightblue" points="647.926,-129.926 637.453,-131.526 646.638,-136.806 647.926,-129.926"/>
</g>
<!-- Node16 -->
<g id="node16" class="node"><title>Node16</title>
<polygon fill="white" stroke="#bfbfbf" points="815.5,-112.5 815.5,-131.5 883.5,-131.5 883.5,-112.5 815.5,-112.5"/>
<text text-anchor="middle" x="849.5" y="-119.5" font-family="Helvetica,sans-Serif" font-size="10.00">Eigen/Core</text>
</g>
<!-- Node15&#45;&gt;Node16 -->
<g id="edge17" class="edge"><title>Node15&#45;&gt;Node16</title>
<path fill="none" stroke="midnightblue" d="M865.778,-173.975C863.069,-165.492 858.826,-152.204 855.351,-141.322"/>
<polygon fill="midnightblue" stroke="midnightblue" points="858.593,-139.97 852.217,-131.509 851.925,-142.1 858.593,-139.97"/>
</g>
<!-- Node17 -->
<g id="node17" class="node"><title>Node17</title>
<polygon fill="white" stroke="#bfbfbf" points="901.5,-112.5 901.5,-131.5 995.5,-131.5 995.5,-112.5 901.5,-112.5"/>
<text text-anchor="middle" x="948.5" y="-119.5" font-family="Helvetica,sans-Serif" font-size="10.00">Eigen/Geometry</text>
</g>
<!-- Node15&#45;&gt;Node17 -->
<g id="edge18" class="edge"><title>Node15&#45;&gt;Node17</title>
<path fill="none" stroke="midnightblue" d="M879.962,-173.975C892.675,-164.52 913.413,-149.096 928.753,-137.687"/>
<polygon fill="midnightblue" stroke="midnightblue" points="931.124,-140.285 937.059,-131.509 926.946,-134.669 931.124,-140.285"/>
</g>
<!-- Node18 -->
<g id="node18" class="node"><title>Node18</title>
<polygon fill="white" stroke="#bfbfbf" points="1187.5,-112.5 1187.5,-131.5 1267.5,-131.5 1267.5,-112.5 1187.5,-112.5"/>
<text text-anchor="middle" x="1227.5" y="-119.5" font-family="Helvetica,sans-Serif" font-size="10.00">Eigen/Sparse</text>
</g>
<!-- Node15&#45;&gt;Node18 -->
<g id="edge19" class="edge"><title>Node15&#45;&gt;Node18</title>
<path fill="none" stroke="midnightblue" d="M913.242,-175.085C980.513,-163.935 1107.29,-142.923 1177.51,-131.285"/>
<polygon fill="midnightblue" stroke="midnightblue" points="1178.16,-134.726 1187.45,-129.638 1177.01,-127.82 1178.16,-134.726"/>
</g>
<!-- Node19&#45;&gt;Node6 -->
<g id="edge22" class="edge"><title>Node19&#45;&gt;Node6</title>
<path fill="none" stroke="midnightblue" d="M725.744,-235.395C704.173,-228.017 674.671,-215.889 652.5,-199 630.986,-182.611 612.302,-157.304 601.218,-140.453"/>
<polygon fill="midnightblue" stroke="midnightblue" points="603.93,-138.196 595.606,-131.64 598.025,-141.955 603.93,-138.196"/>
</g>
<!-- Node19&#45;&gt;Node15 -->
<g id="edge23" class="edge"><title>Node19&#45;&gt;Node15</title>
<path fill="none" stroke="midnightblue" d="M770.833,-235.475C789.711,-225.622 821.007,-209.288 843.076,-197.77"/>
<polygon fill="midnightblue" stroke="midnightblue" points="844.951,-200.739 852.197,-193.009 841.712,-194.533 844.951,-200.739"/>
</g>
<!-- Node20&#45;&gt;Node4 -->
<g id="edge27" class="edge"><title>Node20&#45;&gt;Node4</title>
<path fill="none" stroke="midnightblue" d="M445.405,-291.444C416.512,-282.32 370.575,-267.813 338.395,-257.651"/>
<polygon fill="midnightblue" stroke="midnightblue" points="339.059,-254.19 328.469,-254.516 336.951,-260.865 339.059,-254.19"/>
</g>
<!-- Node20&#45;&gt;Node6 -->
<g id="edge28" class="edge"><title>Node20&#45;&gt;Node6</title>
<path fill="none" stroke="midnightblue" d="M462.804,-291.415C448.495,-278.811 420.789,-254.665 396.5,-235 376.05,-218.443 361.148,-222.594 349.5,-199 343.401,-186.646 340.697,-178.599 349.5,-168 372.137,-140.745 467.254,-129.907 531.007,-125.661"/>
<polygon fill="midnightblue" stroke="midnightblue" points="531.585,-129.132 541.345,-125.011 531.146,-122.146 531.585,-129.132"/>
</g>
<!-- Node21 -->
<g id="node21" class="node"><title>Node21</title>
<g id="a_node21"><a xlink:href="Index_8hpp.html" target="_top" xlink:title="Core/Utils/Index.hpp">
<polygon fill="white" stroke="black" points="445,-235.5 445,-254.5 558,-254.5 558,-235.5 445,-235.5"/>
<text text-anchor="middle" x="501.5" y="-242.5" font-family="Helvetica,sans-Serif" font-size="10.00">Core/Utils/Index.hpp</text>
</a>
</g>
</g>
<!-- Node20&#45;&gt;Node21 -->
<g id="edge29" class="edge"><title>Node20&#45;&gt;Node21</title>
<path fill="none" stroke="midnightblue" d="M477.289,-291.083C481.258,-283.691 487.025,-272.953 491.935,-263.811"/>
<polygon fill="midnightblue" stroke="midnightblue" points="495.153,-265.217 496.8,-254.751 488.986,-261.905 495.153,-265.217"/>
</g>
<!-- Node21&#45;&gt;Node6 -->
<g id="edge30" class="edge"><title>Node21&#45;&gt;Node6</title>
<path fill="none" stroke="midnightblue" d="M507.901,-235.298C522.59,-215.327 558.93,-165.921 578.14,-139.804"/>
<polygon fill="midnightblue" stroke="midnightblue" points="581.052,-141.753 584.157,-131.623 575.413,-137.605 581.052,-141.753"/>
</g>
<!-- Node22 -->
<g id="node22" class="node"><title>Node22</title>
<polygon fill="white" stroke="#bfbfbf" points="358.5,-174 358.5,-193 400.5,-193 400.5,-174 358.5,-174"/>
<text text-anchor="middle" x="379.5" y="-181" font-family="Helvetica,sans-Serif" font-size="10.00">limits</text>
</g>
<!-- Node21&#45;&gt;Node22 -->
<g id="edge31" class="edge"><title>Node21&#45;&gt;Node22</title>
<path fill="none" stroke="midnightblue" d="M484.02,-235.475C463.637,-225.534 429.725,-208.995 406.075,-197.461"/>
<polygon fill="midnightblue" stroke="midnightblue" points="407.469,-194.247 396.947,-193.009 404.401,-200.538 407.469,-194.247"/>
</g>
<!-- Node23 -->
<g id="node23" class="node"><title>Node23</title>
<g id="a_node23"><a xlink:href="Index_8inl.html" target="_top" xlink:title="Core/Utils/Index.inl">
<polygon fill="white" stroke="black" points="419,-174 419,-193 524,-193 524,-174 419,-174"/>
<text text-anchor="middle" x="471.5" y="-181" font-family="Helvetica,sans-Serif" font-size="10.00">Core/Utils/Index.inl</text>
</a>
</g>
</g>
<!-- Node21&#45;&gt;Node23 -->
<g id="edge32" class="edge"><title>Node21&#45;&gt;Node23</title>
<path fill="none" stroke="midnightblue" d="M497.202,-235.475C492.835,-226.815 485.945,-213.149 480.397,-202.145"/>
<polygon fill="midnightblue" stroke="midnightblue" points="483.418,-200.363 475.79,-193.009 477.167,-203.514 483.418,-200.363"/>
</g>
<!-- Node24&#45;&gt;Node7 -->
<g id="edge34" class="edge"><title>Node24&#45;&gt;Node7</title>
<path fill="none" stroke="midnightblue" d="M741.856,-173.819C722.625,-154.504 676.06,-107.737 651.414,-82.9827"/>
<polygon fill="midnightblue" stroke="midnightblue" points="653.78,-80.3989 644.244,-75.782 648.819,-85.3379 653.78,-80.3989"/>
</g>
<!-- Node24&#45;&gt;Node16 -->
<g id="edge35" class="edge"><title>Node24&#45;&gt;Node16</title>
<path fill="none" stroke="midnightblue" d="M764.684,-173.975C780.858,-164.255 807.526,-148.227 826.643,-136.737"/>
<polygon fill="midnightblue" stroke="midnightblue" points="828.574,-139.66 835.342,-131.509 824.968,-133.661 828.574,-139.66"/>
</g>
<!-- Node24&#45;&gt;Node17 -->
<g id="edge36" class="edge"><title>Node24&#45;&gt;Node17</title>
<path fill="none" stroke="midnightblue" d="M778.869,-173.975C813.421,-163.592 871.924,-146.012 910.385,-134.454"/>
<polygon fill="midnightblue" stroke="midnightblue" points="911.614,-137.739 920.184,-131.509 909.6,-131.035 911.614,-137.739"/>
</g>
<!-- Node25 -->
<g id="node25" class="node"><title>Node25</title>
<polygon fill="white" stroke="#bfbfbf" points="723.5,-112.5 723.5,-131.5 777.5,-131.5 777.5,-112.5 723.5,-112.5"/>
<text text-anchor="middle" x="750.5" y="-119.5" font-family="Helvetica,sans-Serif" font-size="10.00">random</text>
</g>
<!-- Node24&#45;&gt;Node25 -->
<g id="edge37" class="edge"><title>Node24&#45;&gt;Node25</title>
<path fill="none" stroke="midnightblue" d="M750.5,-173.975C750.5,-165.58 750.5,-152.481 750.5,-141.663"/>
<polygon fill="midnightblue" stroke="midnightblue" points="754,-141.509 750.5,-131.509 747,-141.509 754,-141.509"/>
</g>
<!-- Node26&#45;&gt;Node3 -->
<g id="edge39" class="edge"><title>Node26&#45;&gt;Node3</title>
<path fill="none" stroke="midnightblue" d="M742.631,-310.751C744.157,-317.858 744.604,-328.136 743.972,-337.101"/>
<polygon fill="midnightblue" stroke="midnightblue" points="740.493,-336.713 742.666,-347.083 747.434,-337.622 740.493,-336.713"/>
</g>
<!-- Node28&#45;&gt;Node6 -->
<g id="edge45" class="edge"><title>Node28&#45;&gt;Node6</title>
<path fill="none" stroke="midnightblue" d="M1047.05,-241.852C938.358,-237.881 748.235,-227.061 685.5,-199 666.833,-190.65 667.305,-180.976 651.5,-168 638.532,-157.353 623.35,-146.149 611.376,-137.584"/>
<polygon fill="midnightblue" stroke="midnightblue" points="613.118,-134.528 602.935,-131.601 609.07,-140.239 613.118,-134.528"/>
</g>
<!-- Node28&#45;&gt;Node15 -->
<g id="edge57" class="edge"><title>Node28&#45;&gt;Node15</title>
<path fill="none" stroke="midnightblue" d="M1087.13,-235.488C1047.2,-226.583 982.903,-212.103 927.5,-199 922.746,-197.876 917.781,-196.684 912.838,-195.485"/>
<polygon fill="midnightblue" stroke="midnightblue" points="913.338,-192.005 902.794,-193.036 911.68,-198.805 913.338,-192.005"/>
</g>
<!-- Node28&#45;&gt;Node16 -->
<g id="edge46" class="edge"><title>Node28&#45;&gt;Node16</title>
<path fill="none" stroke="midnightblue" d="M1073.73,-235.485C1040.19,-228.639 996.257,-217.115 960.5,-199 940.748,-188.993 939.584,-180.777 921.5,-168 905.798,-156.906 887.406,-145.435 873.141,-136.852"/>
<polygon fill="midnightblue" stroke="midnightblue" points="874.815,-133.775 864.433,-131.661 871.231,-139.787 874.815,-133.775"/>
</g>
<!-- Node28&#45;&gt;Node17 -->
<g id="edge47" class="edge"><title>Node28&#45;&gt;Node17</title>
<path fill="none" stroke="midnightblue" d="M1203.71,-243.383C1294.11,-240.044 1424.26,-225.541 1372.5,-168 1348.43,-141.242 1116.24,-129.169 1006.03,-124.912"/>
<polygon fill="midnightblue" stroke="midnightblue" points="1005.88,-121.404 995.751,-124.524 1005.61,-128.399 1005.88,-121.404"/>
</g>
<!-- Node28&#45;&gt;Node18 -->
<g id="edge48" class="edge"><title>Node28&#45;&gt;Node18</title>
<path fill="none" stroke="midnightblue" d="M1203.73,-242.337C1277.07,-238.927 1379.13,-228.789 1404.5,-199 1443.04,-153.747 1342.74,-134.696 1277.81,-127.278"/>
<polygon fill="midnightblue" stroke="midnightblue" points="1278.04,-123.782 1267.72,-126.185 1277.29,-130.741 1278.04,-123.782"/>
</g>
<!-- Node29 -->
<g id="node29" class="node"><title>Node29</title>
<polygon fill="white" stroke="#bfbfbf" points="970,-174 970,-193 1033,-193 1033,-174 970,-174"/>
<text text-anchor="middle" x="1001.5" y="-181" font-family="Helvetica,sans-Serif" font-size="10.00">functional</text>
</g>
<!-- Node28&#45;&gt;Node29 -->
<g id="edge49" class="edge"><title>Node28&#45;&gt;Node29</title>
<path fill="none" stroke="midnightblue" d="M1107.73,-235.475C1087.02,-225.534 1052.55,-208.995 1028.51,-197.461"/>
<polygon fill="midnightblue" stroke="midnightblue" points="1029.76,-194.18 1019.23,-193.009 1026.73,-200.491 1029.76,-194.18"/>
</g>
<!-- Node30 -->
<g id="node30" class="node"><title>Node30</title>
<polygon fill="white" stroke="#bfbfbf" points="1051,-168.5 1051,-198.5 1196,-198.5 1196,-168.5 1051,-168.5"/>
<text text-anchor="start" x="1059" y="-186.5" font-family="Helvetica,sans-Serif" font-size="10.00">unsupported/Eigen/Aligned</text>
<text text-anchor="middle" x="1123.5" y="-175.5" font-family="Helvetica,sans-Serif" font-size="10.00">Vector3</text>
</g>
<!-- Node28&#45;&gt;Node30 -->
<g id="edge50" class="edge"><title>Node28&#45;&gt;Node30</title>
<path fill="none" stroke="midnightblue" d="M1125.21,-235.475C1124.98,-228.471 1124.63,-218.192 1124.31,-208.696"/>
<polygon fill="midnightblue" stroke="midnightblue" points="1127.81,-208.4 1123.97,-198.523 1120.81,-208.635 1127.81,-208.4"/>
</g>
<!-- Node31 -->
<g id="node31" class="node"><title>Node31</title>
<g id="a_node31"><a xlink:href="Math_8hpp.html" target="_top" xlink:title="Core/Math/Math.hpp">
<polygon fill="white" stroke="black" points="1456.5,-174 1456.5,-193 1570.5,-193 1570.5,-174 1456.5,-174"/>
<text text-anchor="middle" x="1513.5" y="-181" font-family="Helvetica,sans-Serif" font-size="10.00">Core/Math/Math.hpp</text>
</a>
</g>
</g>
<!-- Node28&#45;&gt;Node31 -->
<g id="edge51" class="edge"><title>Node28&#45;&gt;Node31</title>
<path fill="none" stroke="midnightblue" d="M1194.02,-235.489C1258.35,-227.211 1357.19,-213.752 1442.5,-199 1449.33,-197.819 1456.51,-196.475 1463.57,-195.092"/>
<polygon fill="midnightblue" stroke="midnightblue" points="1464.65,-198.444 1473.78,-193.054 1463.28,-191.58 1464.65,-198.444"/>
</g>
<!-- Node35 -->
<g id="node35" class="node"><title>Node35</title>
<g id="a_node35"><a xlink:href="LinearAlgebra_8inl.html" target="_top" xlink:title="Core/Math/LinearAlgebra.inl">
<polygon fill="white" stroke="black" points="1214,-174 1214,-193 1363,-193 1363,-174 1214,-174"/>
<text text-anchor="middle" x="1288.5" y="-181" font-family="Helvetica,sans-Serif" font-size="10.00">Core/Math/LinearAlgebra.inl</text>
</a>
</g>
</g>
<!-- Node28&#45;&gt;Node35 -->
<g id="edge58" class="edge"><title>Node28&#45;&gt;Node35</title>
<path fill="none" stroke="midnightblue" d="M1143.95,-235.475C1169.91,-225.18 1217.29,-207.81 1250.81,-196.25"/>
<polygon fill="midnightblue" stroke="midnightblue" points="1251.96,-199.555 1260.29,-193.009 1249.7,-192.931 1251.96,-199.555"/>
</g>
<!-- Node31&#45;&gt;Node6 -->
<g id="edge52" class="edge"><title>Node31&#45;&gt;Node6</title>
<path fill="none" stroke="midnightblue" d="M1456.27,-175.988C1430.67,-173.236 1400.1,-170.173 1372.5,-168 1080.52,-145.013 1006.79,-150.602 714.5,-132 693.401,-130.657 670.294,-129.024 649.805,-127.52"/>
<polygon fill="midnightblue" stroke="midnightblue" points="649.897,-124.017 639.666,-126.771 649.381,-130.998 649.897,-124.017"/>
</g>
<!-- Node32 -->
<g id="node32" class="node"><title>Node32</title>
<polygon fill="white" stroke="#bfbfbf" points="1533.5,-112.5 1533.5,-131.5 1595.5,-131.5 1595.5,-112.5 1533.5,-112.5"/>
<text text-anchor="middle" x="1564.5" y="-119.5" font-family="Helvetica,sans-Serif" font-size="10.00">algorithm</text>
</g>
<!-- Node31&#45;&gt;Node32 -->
<g id="edge53" class="edge"><title>Node31&#45;&gt;Node32</title>
<path fill="none" stroke="midnightblue" d="M1520.81,-173.975C1528.53,-164.962 1540.91,-150.525 1550.52,-139.312"/>
<polygon fill="midnightblue" stroke="midnightblue" points="1553.36,-141.379 1557.21,-131.509 1548.04,-136.824 1553.36,-141.379"/>
</g>
<!-- Node33 -->
<g id="node33" class="node"><title>Node33</title>
<polygon fill="white" stroke="#bfbfbf" points="1614,-112.5 1614,-131.5 1661,-131.5 1661,-112.5 1614,-112.5"/>
<text text-anchor="middle" x="1637.5" y="-119.5" font-family="Helvetica,sans-Serif" font-size="10.00">cmath</text>
</g>
<!-- Node31&#45;&gt;Node33 -->
<g id="edge54" class="edge"><title>Node31&#45;&gt;Node33</title>
<path fill="none" stroke="midnightblue" d="M1531.27,-173.975C1551.98,-164.034 1586.45,-147.495 1610.49,-135.961"/>
<polygon fill="midnightblue" stroke="midnightblue" points="1612.27,-138.991 1619.77,-131.509 1609.24,-132.68 1612.27,-138.991"/>
</g>
<!-- Node34 -->
<g id="node34" class="node"><title>Node34</title>
<g id="a_node34"><a xlink:href="Math_8inl.html" target="_top" xlink:title="Core/Math/Math.inl">
<polygon fill="white" stroke="black" points="1409,-112.5 1409,-131.5 1516,-131.5 1516,-112.5 1409,-112.5"/>
<text text-anchor="middle" x="1462.5" y="-119.5" font-family="Helvetica,sans-Serif" font-size="10.00">Core/Math/Math.inl</text>
</a>
</g>
</g>
<!-- Node31&#45;&gt;Node34 -->
<g id="edge55" class="edge"><title>Node31&#45;&gt;Node34</title>
<path fill="none" stroke="midnightblue" d="M1501.29,-173.975C1491.79,-165.138 1479.33,-151.089 1470.89,-139.975"/>
<polygon fill="midnightblue" stroke="midnightblue" points="1473.53,-137.651 1464.9,-131.509 1467.82,-141.694 1473.53,-137.651"/>
</g>
<!-- Node34&#45;&gt;Node31 -->
<g id="edge56" class="edge"><title>Node34&#45;&gt;Node31</title>
<path fill="none" stroke="midnightblue" d="M1474.69,-131.509C1484.19,-140.34 1496.65,-154.388 1505.1,-165.505"/>
<polygon fill="midnightblue" stroke="midnightblue" points="1502.46,-167.835 1511.09,-173.975 1508.17,-163.791 1502.46,-167.835"/>
</g>
<!-- Node35&#45;&gt;Node28 -->
<g id="edge59" class="edge"><title>Node35&#45;&gt;Node28</title>
<path fill="none" stroke="midnightblue" d="M1270.09,-193.009C1244.15,-203.297 1196.77,-220.666 1163.24,-232.232"/>
<polygon fill="midnightblue" stroke="midnightblue" points="1162.09,-228.929 1153.75,-235.475 1164.35,-235.553 1162.09,-228.929"/>
</g>
</g>
</svg>
