<?xml version="1.0" encoding="UTF-8" standalone="no"?>
<!DOCTYPE svg PUBLIC "-//W3C//DTD SVG 1.1//EN"
 "http://www.w3.org/Graphics/SVG/1.1/DTD/svg11.dtd">
<!-- Generated by graphviz version 2.38.0 (20140413.2041)
 -->
<!-- Title: /home/travis/build/STORM&#45;IRIT/Radium&#45;Engine/src/Engine/Renderer/Mesh/Mesh.hpp Pages: 1 -->
<svg width="1250pt" height="531pt"
 viewBox="0.00 0.00 1249.50 531.00" xmlns="http://www.w3.org/2000/svg" xmlns:xlink="http://www.w3.org/1999/xlink">
<g id="graph0" class="graph" transform="scale(1 1) rotate(0) translate(4 527)">
<title>/home/travis/build/STORM&#45;IRIT/Radium&#45;Engine/src/Engine/Renderer/Mesh/Mesh.hpp</title>
<polygon fill="white" stroke="none" points="-4,4 -4,-527 1245.5,-527 1245.5,4 -4,4"/>
<!-- Node1 -->
<g id="node1" class="node"><title>Node1</title>
<polygon fill="#bfbfbf" stroke="black" points="621,-470.5 621,-522.5 769,-522.5 769,-470.5 621,-470.5"/>
<text text-anchor="start" x="629" y="-510.5" font-family="Helvetica,sans-Serif" font-size="10.00">/home/travis/build</text>
<text text-anchor="start" x="629" y="-499.5" font-family="Helvetica,sans-Serif" font-size="10.00">/STORM&#45;IRIT/Radium&#45;Engine</text>
<text text-anchor="start" x="629" y="-488.5" font-family="Helvetica,sans-Serif" font-size="10.00">/src/Engine/Renderer/Mesh</text>
<text text-anchor="middle" x="695" y="-477.5" font-family="Helvetica,sans-Serif" font-size="10.00">/Mesh.hpp</text>
</g>
<!-- Node2 -->
<g id="node2" class="node"><title>Node2</title>
<g id="a_node2"><a xlink:href="RaEngine_8hpp.html" target="_top" xlink:title="Engine/RaEngine.hpp">
<polygon fill="white" stroke="black" points="299.5,-347.5 299.5,-366.5 416.5,-366.5 416.5,-347.5 299.5,-347.5"/>
<text text-anchor="middle" x="358" y="-354.5" font-family="Helvetica,sans-Serif" font-size="10.00">Engine/RaEngine.hpp</text>
</a>
</g>
</g>
<!-- Node1&#45;&gt;Node2 -->
<g id="edge1" class="edge"><title>Node1&#45;&gt;Node2</title>
<path fill="none" stroke="midnightblue" d="M620.812,-484.064C572.711,-474.791 509.627,-459.058 458,-434 425.361,-418.158 392.908,-390.806 374.186,-373.597"/>
<polygon fill="midnightblue" stroke="midnightblue" points="376.51,-370.978 366.82,-366.693 371.723,-376.085 376.51,-370.978"/>
</g>
<!-- Node9 -->
<g id="node9" class="node"><title>Node9</title>
<g id="a_node9"><a xlink:href="DisplayableObject_8hpp.html" target="_top" xlink:title="Engine/Renderer/Displayable\l/DisplayableObject.hpp">
<polygon fill="white" stroke="black" points="496,-403.5 496,-433.5 648,-433.5 648,-403.5 496,-403.5"/>
<text text-anchor="start" x="504" y="-421.5" font-family="Helvetica,sans-Serif" font-size="10.00">Engine/Renderer/Displayable</text>
<text text-anchor="middle" x="572" y="-410.5" font-family="Helvetica,sans-Serif" font-size="10.00">/DisplayableObject.hpp</text>
</a>
</g>
</g>
<!-- Node1&#45;&gt;Node9 -->
<g id="edge8" class="edge"><title>Node1&#45;&gt;Node9</title>
<path fill="none" stroke="midnightblue" d="M654.384,-470.404C637.889,-460.212 619.119,-448.614 603.665,-439.066"/>
<polygon fill="midnightblue" stroke="midnightblue" points="605.339,-435.986 594.992,-433.707 601.66,-441.94 605.339,-435.986"/>
</g>
<!-- Node10 -->
<g id="node10" class="node"><title>Node10</title>
<polygon fill="white" stroke="#bfbfbf" points="434.5,-347.5 434.5,-366.5 475.5,-366.5 475.5,-347.5 434.5,-347.5"/>
<text text-anchor="middle" x="455" y="-354.5" font-family="Helvetica,sans-Serif" font-size="10.00">array</text>
</g>
<!-- Node1&#45;&gt;Node10 -->
<g id="edge48" class="edge"><title>Node1&#45;&gt;Node10</title>
<path fill="none" stroke="midnightblue" d="M620.924,-492.132C574.208,-486.179 515.779,-471.116 478,-434 462.739,-419.007 457.529,-394.263 455.791,-377.1"/>
<polygon fill="midnightblue" stroke="midnightblue" points="459.249,-376.374 455.063,-366.642 452.266,-376.861 459.249,-376.374"/>
</g>
<!-- Node11 -->
<g id="node11" class="node"><title>Node11</title>
<polygon fill="white" stroke="#bfbfbf" points="494,-347.5 494,-366.5 532,-366.5 532,-347.5 494,-347.5"/>
<text text-anchor="middle" x="513" y="-354.5" font-family="Helvetica,sans-Serif" font-size="10.00">map</text>
</g>
<!-- Node1&#45;&gt;Node11 -->
<g id="edge49" class="edge"><title>Node1&#45;&gt;Node11</title>
<path fill="none" stroke="midnightblue" d="M620.813,-483.175C567.9,-472.696 503.34,-455.871 487,-434 473.76,-416.279 486.91,-391.34 498.83,-374.931"/>
<polygon fill="midnightblue" stroke="midnightblue" points="501.781,-376.837 505.15,-366.793 496.252,-372.544 501.781,-376.837"/>
</g>
<!-- Node12 -->
<g id="node12" class="node"><title>Node12</title>
<polygon fill="white" stroke="#bfbfbf" points="1009.5,-112.5 1009.5,-131.5 1056.5,-131.5 1056.5,-112.5 1009.5,-112.5"/>
<text text-anchor="middle" x="1033" y="-119.5" font-family="Helvetica,sans-Serif" font-size="10.00">vector</text>
</g>
<!-- Node1&#45;&gt;Node12 -->
<g id="edge50" class="edge"><title>Node1&#45;&gt;Node12</title>
<path fill="none" stroke="midnightblue" d="M769.296,-485.137C883.718,-467.063 1090,-425.167 1090,-358 1090,-358 1090,-358 1090,-244 1090,-203.59 1063.66,-162.206 1046.79,-139.845"/>
<polygon fill="midnightblue" stroke="midnightblue" points="1049.37,-137.46 1040.45,-131.738 1043.85,-141.772 1049.37,-137.46"/>
</g>
<!-- Node13 -->
<g id="node13" class="node"><title>Node13</title>
<g id="a_node13"><a xlink:href="VectorArray_8hpp.html" target="_top" xlink:title="Core/Containers/VectorArray.hpp">
<polygon fill="white" stroke="black" points="814.5,-235.5 814.5,-254.5 987.5,-254.5 987.5,-235.5 814.5,-235.5"/>
<text text-anchor="middle" x="901" y="-242.5" font-family="Helvetica,sans-Serif" font-size="10.00">Core/Containers/VectorArray.hpp</text>
</a>
</g>
</g>
<!-- Node1&#45;&gt;Node13 -->
<g id="edge51" class="edge"><title>Node1&#45;&gt;Node13</title>
<path fill="none" stroke="midnightblue" d="M752.789,-470.368C811.199,-441.422 898.085,-387.775 936,-311 944.365,-294.06 931.493,-275.078 919.067,-262.021"/>
<polygon fill="midnightblue" stroke="midnightblue" points="921.186,-259.2 911.581,-254.729 916.301,-264.214 921.186,-259.2"/>
</g>
<!-- Node21 -->
<g id="node21" class="node"><title>Node21</title>
<g id="a_node21"><a xlink:href="TriangleMesh_8hpp.html" target="_top" xlink:title="Core/Geometry/TriangleMesh.hpp">
<polygon fill="white" stroke="black" points="626,-347.5 626,-366.5 802,-366.5 802,-347.5 626,-347.5"/>
<text text-anchor="middle" x="714" y="-354.5" font-family="Helvetica,sans-Serif" font-size="10.00">Core/Geometry/TriangleMesh.hpp</text>
</a>
</g>
</g>
<!-- Node1&#45;&gt;Node21 -->
<g id="edge52" class="edge"><title>Node1&#45;&gt;Node21</title>
<path fill="none" stroke="midnightblue" d="M698.485,-470.28C702.221,-443.241 708.067,-400.94 711.414,-376.716"/>
<polygon fill="midnightblue" stroke="midnightblue" points="714.896,-377.084 712.798,-366.699 707.962,-376.126 714.896,-377.084"/>
</g>
<!-- Node27 -->
<g id="node27" class="node"><title>Node27</title>
<g id="a_node27"><a xlink:href="Color_8hpp.html" target="_top" xlink:title="Core/Utils/Color.hpp">
<polygon fill="white" stroke="black" points="213.5,-291.5 213.5,-310.5 324.5,-310.5 324.5,-291.5 213.5,-291.5"/>
<text text-anchor="middle" x="269" y="-298.5" font-family="Helvetica,sans-Serif" font-size="10.00">Core/Utils/Color.hpp</text>
</a>
</g>
</g>
<!-- Node1&#45;&gt;Node27 -->
<g id="edge53" class="edge"><title>Node1&#45;&gt;Node27</title>
<path fill="none" stroke="midnightblue" d="M689.377,-470.391C683.86,-450.334 673.781,-422.458 657,-403 625.241,-366.174 608.771,-363.427 563,-347 522.153,-332.34 408.191,-317.53 334.742,-309.088"/>
<polygon fill="midnightblue" stroke="midnightblue" points="334.99,-305.594 324.659,-307.94 334.198,-312.549 334.99,-305.594"/>
</g>
<!-- Node30 -->
<g id="node30" class="node"><title>Node30</title>
<g id="a_node30"><a xlink:href="Mesh_8inl.html" target="_top" xlink:title="Engine/Renderer/Mesh\l/Mesh.inl">
<polygon fill="white" stroke="black" points="1118.5,-403.5 1118.5,-433.5 1241.5,-433.5 1241.5,-403.5 1118.5,-403.5"/>
<text text-anchor="start" x="1126.5" y="-421.5" font-family="Helvetica,sans-Serif" font-size="10.00">Engine/Renderer/Mesh</text>
<text text-anchor="middle" x="1180" y="-410.5" font-family="Helvetica,sans-Serif" font-size="10.00">/Mesh.inl</text>
</a>
</g>
</g>
<!-- Node1&#45;&gt;Node30 -->
<g id="edge54" class="edge"><title>Node1&#45;&gt;Node30</title>
<path fill="none" stroke="midnightblue" d="M769.076,-484.297C849.472,-472.627 981.392,-453.371 1095,-434 1099.36,-433.256 1103.86,-432.463 1108.41,-431.647"/>
<polygon fill="midnightblue" stroke="midnightblue" points="1109.19,-435.062 1118.41,-429.831 1107.94,-428.174 1109.19,-435.062"/>
</g>
<!-- Node3 -->
<g id="node3" class="node"><title>Node3</title>
<g id="a_node3"><a xlink:href="CoreMacros_8hpp.html" target="_top" xlink:title="Core/CoreMacros.hpp">
<polygon fill="white" stroke="black" points="103,-56.5 103,-75.5 223,-75.5 223,-56.5 103,-56.5"/>
<text text-anchor="middle" x="163" y="-63.5" font-family="Helvetica,sans-Serif" font-size="10.00">Core/CoreMacros.hpp</text>
</a>
</g>
</g>
<!-- Node2&#45;&gt;Node3 -->
<g id="edge2" class="edge"><title>Node2&#45;&gt;Node3</title>
<path fill="none" stroke="midnightblue" d="M299.204,-353.094C230.18,-346.148 125,-322.94 125,-246 125,-246 125,-246 125,-182.5 125,-146.254 142.095,-106.671 153.353,-84.5327"/>
<polygon fill="midnightblue" stroke="midnightblue" points="156.461,-86.141 158.032,-75.6633 150.27,-82.8745 156.461,-86.141"/>
</g>
<!-- Node4 -->
<g id="node4" class="node"><title>Node4</title>
<polygon fill="white" stroke="#bfbfbf" points="0,-0.5 0,-19.5 52,-19.5 52,-0.5 0,-0.5"/>
<text text-anchor="middle" x="26" y="-7.5" font-family="Helvetica,sans-Serif" font-size="10.00">cassert</text>
</g>
<!-- Node3&#45;&gt;Node4 -->
<g id="edge3" class="edge"><title>Node3&#45;&gt;Node4</title>
<path fill="none" stroke="midnightblue" d="M141.292,-56.4435C118.645,-47.5171 82.9279,-33.4387 57.2482,-23.3168"/>
<polygon fill="midnightblue" stroke="midnightblue" points="58.1934,-19.9273 47.6065,-19.5164 55.6264,-26.4397 58.1934,-19.9273"/>
</g>
<!-- Node5 -->
<g id="node5" class="node"><title>Node5</title>
<polygon fill="white" stroke="#bfbfbf" points="70.5,-0.5 70.5,-19.5 115.5,-19.5 115.5,-0.5 70.5,-0.5"/>
<text text-anchor="middle" x="93" y="-7.5" font-family="Helvetica,sans-Serif" font-size="10.00">cstdio</text>
</g>
<!-- Node3&#45;&gt;Node5 -->
<g id="edge4" class="edge"><title>Node3&#45;&gt;Node5</title>
<path fill="none" stroke="midnightblue" d="M151.753,-56.324C141.203,-48.1849 125.199,-35.8395 112.558,-26.0874"/>
<polygon fill="midnightblue" stroke="midnightblue" points="114.507,-23.1707 104.451,-19.8339 110.231,-28.7132 114.507,-23.1707"/>
</g>
<!-- Node6 -->
<g id="node6" class="node"><title>Node6</title>
<polygon fill="white" stroke="#bfbfbf" points="133.5,-0.5 133.5,-19.5 192.5,-19.5 192.5,-0.5 133.5,-0.5"/>
<text text-anchor="middle" x="163" y="-7.5" font-family="Helvetica,sans-Serif" font-size="10.00">iostream</text>
</g>
<!-- Node3&#45;&gt;Node6 -->
<g id="edge5" class="edge"><title>Node3&#45;&gt;Node6</title>
<path fill="none" stroke="midnightblue" d="M163,-56.083C163,-49.0059 163,-38.8611 163,-29.9865"/>
<polygon fill="midnightblue" stroke="midnightblue" points="166.5,-29.751 163,-19.7511 159.5,-29.7511 166.5,-29.751"/>
</g>
<!-- Node7 -->
<g id="node7" class="node"><title>Node7</title>
<polygon fill="white" stroke="#bfbfbf" points="211,-0.5 211,-19.5 267,-19.5 267,-0.5 211,-0.5"/>
<text text-anchor="middle" x="239" y="-7.5" font-family="Helvetica,sans-Serif" font-size="10.00">sstream</text>
</g>
<!-- Node3&#45;&gt;Node7 -->
<g id="edge6" class="edge"><title>Node3&#45;&gt;Node7</title>
<path fill="none" stroke="midnightblue" d="M175.211,-56.324C186.776,-48.1066 204.375,-35.6017 218.161,-25.8069"/>
<polygon fill="midnightblue" stroke="midnightblue" points="220.443,-28.4791 226.567,-19.8339 216.388,-22.7729 220.443,-28.4791"/>
</g>
<!-- Node8 -->
<g id="node8" class="node"><title>Node8</title>
<polygon fill="white" stroke="#bfbfbf" points="285,-0.5 285,-19.5 333,-19.5 333,-0.5 285,-0.5"/>
<text text-anchor="middle" x="309" y="-7.5" font-family="Helvetica,sans-Serif" font-size="10.00">thread</text>
</g>
<!-- Node3&#45;&gt;Node8 -->
<g id="edge7" class="edge"><title>Node3&#45;&gt;Node8</title>
<path fill="none" stroke="midnightblue" d="M186.134,-56.4435C210.482,-47.4381 249.007,-33.1891 276.423,-23.049"/>
<polygon fill="midnightblue" stroke="midnightblue" points="277.809,-26.2681 285.974,-19.5164 275.381,-19.7028 277.809,-26.2681"/>
</g>
<!-- Node9&#45;&gt;Node2 -->
<g id="edge9" class="edge"><title>Node9&#45;&gt;Node2</title>
<path fill="none" stroke="midnightblue" d="M521.556,-403.475C483.992,-393.03 433.377,-378.958 398.451,-369.247"/>
<polygon fill="midnightblue" stroke="midnightblue" points="399.166,-365.813 388.594,-366.506 397.291,-372.557 399.166,-365.813"/>
</g>
<!-- Node9&#45;&gt;Node10 -->
<g id="edge10" class="edge"><title>Node9&#45;&gt;Node10</title>
<path fill="none" stroke="midnightblue" d="M544.273,-403.399C525.168,-393.684 499.942,-380.855 481.18,-371.314"/>
<polygon fill="midnightblue" stroke="midnightblue" points="482.525,-368.071 472.025,-366.658 479.352,-374.311 482.525,-368.071"/>
</g>
<!-- Node9&#45;&gt;Node11 -->
<g id="edge11" class="edge"><title>Node9&#45;&gt;Node11</title>
<path fill="none" stroke="midnightblue" d="M558.018,-403.399C549.268,-394.575 537.971,-383.183 528.883,-374.018"/>
<polygon fill="midnightblue" stroke="midnightblue" points="531.112,-371.294 521.585,-366.658 526.141,-376.223 531.112,-371.294"/>
</g>
<!-- Node9&#45;&gt;Node12 -->
<g id="edge12" class="edge"><title>Node9&#45;&gt;Node12</title>
<path fill="none" stroke="midnightblue" d="M648.084,-413.69C707.77,-408.48 791.862,-396.155 860,-367 931.99,-336.197 950.99,-319.074 996,-255 1020.66,-219.896 1028.94,-168.785 1031.68,-141.612"/>
<polygon fill="midnightblue" stroke="midnightblue" points="1035.17,-141.811 1032.54,-131.548 1028.2,-141.211 1035.17,-141.811"/>
</g>
<!-- Node9&#45;&gt;Node13 -->
<g id="edge13" class="edge"><title>Node9&#45;&gt;Node13</title>
<path fill="none" stroke="midnightblue" d="M648.257,-406.786C695.922,-398.777 758.087,-385.914 811,-367 861.914,-348.801 890.913,-357.202 919,-311 927.995,-296.204 920.592,-276.813 912.734,-263.073"/>
<polygon fill="midnightblue" stroke="midnightblue" points="915.694,-261.204 907.418,-254.589 909.762,-264.921 915.694,-261.204"/>
</g>
<!-- Node9&#45;&gt;Node21 -->
<g id="edge26" class="edge"><title>Node9&#45;&gt;Node21</title>
<path fill="none" stroke="midnightblue" d="M605.652,-403.399C629.477,-393.416 661.146,-380.147 684.088,-370.534"/>
<polygon fill="midnightblue" stroke="midnightblue" points="685.467,-373.751 693.338,-366.658 682.762,-367.294 685.467,-373.751"/>
</g>
<!-- Node9&#45;&gt;Node27 -->
<g id="edge47" class="edge"><title>Node9&#45;&gt;Node27</title>
<path fill="none" stroke="midnightblue" d="M569.876,-403.409C566.641,-387.144 558.848,-360.858 541,-347 532.871,-340.688 412.844,-322.539 334.976,-311.312"/>
<polygon fill="midnightblue" stroke="midnightblue" points="335.153,-307.801 324.756,-309.843 334.157,-314.73 335.153,-307.801"/>
</g>
<!-- Node13&#45;&gt;Node12 -->
<g id="edge25" class="edge"><title>Node13&#45;&gt;Node12</title>
<path fill="none" stroke="midnightblue" d="M930.717,-235.441C950.893,-228.382 977.065,-216.63 995,-199 1011.4,-182.882 1021.91,-158.219 1027.63,-141.391"/>
<polygon fill="midnightblue" stroke="midnightblue" points="1031.04,-142.222 1030.71,-131.632 1024.36,-140.116 1031.04,-142.222"/>
</g>
<!-- Node14 -->
<g id="node14" class="node"><title>Node14</title>
<g id="a_node14"><a xlink:href="AlignedStdVector_8hpp.html" target="_top" xlink:title="Core/Containers/AlignedStd\lVector.hpp">
<polygon fill="white" stroke="black" points="837.5,-168.5 837.5,-198.5 986.5,-198.5 986.5,-168.5 837.5,-168.5"/>
<text text-anchor="start" x="845.5" y="-186.5" font-family="Helvetica,sans-Serif" font-size="10.00">Core/Containers/AlignedStd</text>
<text text-anchor="middle" x="912" y="-175.5" font-family="Helvetica,sans-Serif" font-size="10.00">Vector.hpp</text>
</a>
</g>
</g>
<!-- Node13&#45;&gt;Node14 -->
<g id="edge14" class="edge"><title>Node13&#45;&gt;Node14</title>
<path fill="none" stroke="midnightblue" d="M902.576,-235.475C903.885,-228.396 905.812,-217.97 907.583,-208.39"/>
<polygon fill="midnightblue" stroke="midnightblue" points="911.031,-208.993 909.408,-198.523 904.148,-207.72 911.031,-208.993"/>
</g>
<!-- Node15 -->
<g id="node15" class="node"><title>Node15</title>
<g id="a_node15"><a xlink:href="RaCore_8hpp.html" target="_top" xlink:title="Core/RaCore.hpp">
<polygon fill="white" stroke="black" points="501,-112.5 501,-131.5 599,-131.5 599,-112.5 501,-112.5"/>
<text text-anchor="middle" x="550" y="-119.5" font-family="Helvetica,sans-Serif" font-size="10.00">Core/RaCore.hpp</text>
</a>
</g>
</g>
<!-- Node13&#45;&gt;Node15 -->
<g id="edge19" class="edge"><title>Node13&#45;&gt;Node15</title>
<path fill="none" stroke="midnightblue" d="M885.808,-235.424C870.778,-226.758 847.289,-212.723 828,-199 810.24,-186.365 809.768,-177.181 790,-168 732.089,-141.102 659.241,-130.278 609.08,-125.924"/>
<polygon fill="midnightblue" stroke="midnightblue" points="609.298,-122.431 599.049,-125.114 608.734,-129.408 609.298,-122.431"/>
</g>
<!-- Node17 -->
<g id="node17" class="node"><title>Node17</title>
<g id="a_node17"><a xlink:href="Types_8hpp.html" target="_top" xlink:title="Core/Types.hpp">
<polygon fill="white" stroke="black" points="339.5,-174 339.5,-193 428.5,-193 428.5,-174 339.5,-174"/>
<text text-anchor="middle" x="384" y="-181" font-family="Helvetica,sans-Serif" font-size="10.00">Core/Types.hpp</text>
</a>
</g>
</g>
<!-- Node13&#45;&gt;Node17 -->
<g id="edge20" class="edge"><title>Node13&#45;&gt;Node17</title>
<path fill="none" stroke="midnightblue" d="M826.927,-235.475C721.835,-223.38 531.888,-201.52 438.64,-190.788"/>
<polygon fill="midnightblue" stroke="midnightblue" points="438.905,-187.296 428.57,-189.629 438.105,-194.25 438.905,-187.296"/>
</g>
<!-- Node14&#45;&gt;Node12 -->
<g id="edge18" class="edge"><title>Node14&#45;&gt;Node12</title>
<path fill="none" stroke="midnightblue" d="M940.675,-168.399C960.524,-158.639 986.761,-145.737 1006.19,-136.183"/>
<polygon fill="midnightblue" stroke="midnightblue" points="1007.96,-139.211 1015.39,-131.658 1004.88,-132.93 1007.96,-139.211"/>
</g>
<!-- Node14&#45;&gt;Node15 -->
<g id="edge15" class="edge"><title>Node14&#45;&gt;Node15</title>
<path fill="none" stroke="midnightblue" d="M837.108,-170.157C832.673,-169.427 828.278,-168.704 824,-168 749.889,-155.808 664.497,-141.789 609.006,-132.682"/>
<polygon fill="midnightblue" stroke="midnightblue" points="609.437,-129.206 599.002,-131.04 608.303,-136.113 609.437,-129.206"/>
</g>
<!-- Node16 -->
<g id="node16" class="node"><title>Node16</title>
<polygon fill="white" stroke="#bfbfbf" points="865.5,-112.5 865.5,-131.5 958.5,-131.5 958.5,-112.5 865.5,-112.5"/>
<text text-anchor="middle" x="912" y="-119.5" font-family="Helvetica,sans-Serif" font-size="10.00">Eigen/StdVector</text>
</g>
<!-- Node14&#45;&gt;Node16 -->
<g id="edge17" class="edge"><title>Node14&#45;&gt;Node16</title>
<path fill="none" stroke="midnightblue" d="M912,-168.399C912,-160.466 912,-150.458 912,-141.858"/>
<polygon fill="midnightblue" stroke="midnightblue" points="915.5,-141.658 912,-131.658 908.5,-141.658 915.5,-141.658"/>
</g>
<!-- Node15&#45;&gt;Node3 -->
<g id="edge16" class="edge"><title>Node15&#45;&gt;Node3</title>
<path fill="none" stroke="midnightblue" d="M500.962,-113.327C497.93,-112.872 494.924,-112.427 492,-112 402.742,-98.9717 299.69,-85.0587 233.049,-76.2094"/>
<polygon fill="midnightblue" stroke="midnightblue" points="233.454,-72.7325 223.081,-74.8874 232.534,-79.6718 233.454,-72.7325"/>
</g>
<!-- Node17&#45;&gt;Node15 -->
<g id="edge21" class="edge"><title>Node17&#45;&gt;Node15</title>
<path fill="none" stroke="midnightblue" d="M407.784,-173.975C436.382,-163.725 484.551,-146.459 516.802,-134.899"/>
<polygon fill="midnightblue" stroke="midnightblue" points="518.028,-138.178 526.26,-131.509 515.666,-131.589 518.028,-138.178"/>
</g>
<!-- Node18 -->
<g id="node18" class="node"><title>Node18</title>
<polygon fill="white" stroke="#bfbfbf" points="205,-112.5 205,-131.5 273,-131.5 273,-112.5 205,-112.5"/>
<text text-anchor="middle" x="239" y="-119.5" font-family="Helvetica,sans-Serif" font-size="10.00">Eigen/Core</text>
</g>
<!-- Node17&#45;&gt;Node18 -->
<g id="edge22" class="edge"><title>Node17&#45;&gt;Node18</title>
<path fill="none" stroke="midnightblue" d="M363.225,-173.975C338.568,-163.857 297.255,-146.905 269.098,-135.351"/>
<polygon fill="midnightblue" stroke="midnightblue" points="270.317,-132.067 259.736,-131.509 267.659,-138.543 270.317,-132.067"/>
</g>
<!-- Node19 -->
<g id="node19" class="node"><title>Node19</title>
<polygon fill="white" stroke="#bfbfbf" points="291,-112.5 291,-131.5 385,-131.5 385,-112.5 291,-112.5"/>
<text text-anchor="middle" x="338" y="-119.5" font-family="Helvetica,sans-Serif" font-size="10.00">Eigen/Geometry</text>
</g>
<!-- Node17&#45;&gt;Node19 -->
<g id="edge23" class="edge"><title>Node17&#45;&gt;Node19</title>
<path fill="none" stroke="midnightblue" d="M377.409,-173.975C370.509,-165.05 359.498,-150.807 350.866,-139.643"/>
<polygon fill="midnightblue" stroke="midnightblue" points="353.464,-137.28 344.578,-131.509 347.926,-141.561 353.464,-137.28"/>
</g>
<!-- Node20 -->
<g id="node20" class="node"><title>Node20</title>
<polygon fill="white" stroke="#bfbfbf" points="403,-112.5 403,-131.5 483,-131.5 483,-112.5 403,-112.5"/>
<text text-anchor="middle" x="443" y="-119.5" font-family="Helvetica,sans-Serif" font-size="10.00">Eigen/Sparse</text>
</g>
<!-- Node17&#45;&gt;Node20 -->
<g id="edge24" class="edge"><title>Node17&#45;&gt;Node20</title>
<path fill="none" stroke="midnightblue" d="M392.453,-173.975C401.566,-164.785 416.27,-149.956 427.476,-138.656"/>
<polygon fill="midnightblue" stroke="midnightblue" points="430.007,-141.074 434.562,-131.509 425.036,-136.146 430.007,-141.074"/>
</g>
<!-- Node21&#45;&gt;Node13 -->
<g id="edge27" class="edge"><title>Node21&#45;&gt;Node13</title>
<path fill="none" stroke="midnightblue" d="M713.993,-347.056C714.483,-333.085 717.531,-306.122 733,-291 752.241,-272.19 778.445,-261.023 804.431,-254.457"/>
<polygon fill="midnightblue" stroke="midnightblue" points="805.411,-257.822 814.365,-252.159 803.834,-251.002 805.411,-257.822"/>
</g>
<!-- Node21&#45;&gt;Node15 -->
<g id="edge31" class="edge"><title>Node21&#45;&gt;Node15</title>
<path fill="none" stroke="midnightblue" d="M665.826,-347.446C587.484,-332.396 438.335,-298.601 410,-255 405.156,-247.547 406.149,-243.012 410,-235 422.617,-208.75 491.602,-161.027 527.8,-137.253"/>
<polygon fill="midnightblue" stroke="midnightblue" points="529.775,-140.144 536.242,-131.752 525.953,-134.279 529.775,-140.144"/>
</g>
<!-- Node21&#45;&gt;Node17 -->
<g id="edge32" class="edge"><title>Node21&#45;&gt;Node17</title>
<path fill="none" stroke="midnightblue" d="M629.11,-347.462C532.02,-337.284 385.286,-320.466 377,-311 350.653,-280.902 365.272,-229.728 375.949,-202.611"/>
<polygon fill="midnightblue" stroke="midnightblue" points="379.26,-203.766 379.888,-193.19 372.802,-201.066 379.26,-203.766"/>
</g>
<!-- Node22 -->
<g id="node22" class="node"><title>Node22</title>
<g id="a_node22"><a xlink:href="AbstractGeometry_8hpp.html" target="_top" xlink:title="Core/Geometry/AbstractGeometry.hpp">
<polygon fill="white" stroke="black" points="419.5,-235.5 419.5,-254.5 620.5,-254.5 620.5,-235.5 419.5,-235.5"/>
<text text-anchor="middle" x="520" y="-242.5" font-family="Helvetica,sans-Serif" font-size="10.00">Core/Geometry/AbstractGeometry.hpp</text>
</a>
</g>
</g>
<!-- Node21&#45;&gt;Node22 -->
<g id="edge28" class="edge"><title>Node21&#45;&gt;Node22</title>
<path fill="none" stroke="midnightblue" d="M642.184,-347.421C613.366,-341.094 581.297,-330.101 557,-311 541.721,-298.989 531.661,-278.804 525.939,-264.109"/>
<polygon fill="midnightblue" stroke="midnightblue" points="529.192,-262.81 522.527,-254.574 522.601,-265.169 529.192,-262.81"/>
</g>
<!-- Node23 -->
<g id="node23" class="node"><title>Node23</title>
<g id="a_node23"><a xlink:href="Attribs_8hpp.html" target="_top" xlink:title="Core/Utils/Attribs.hpp">
<polygon fill="white" stroke="black" points="566.5,-291.5 566.5,-310.5 685.5,-310.5 685.5,-291.5 566.5,-291.5"/>
<text text-anchor="middle" x="626" y="-298.5" font-family="Helvetica,sans-Serif" font-size="10.00">Core/Utils/Attribs.hpp</text>
</a>
</g>
</g>
<!-- Node21&#45;&gt;Node23 -->
<g id="edge33" class="edge"><title>Node21&#45;&gt;Node23</title>
<path fill="none" stroke="midnightblue" d="M699.861,-347.324C686.134,-338.9 665.064,-325.971 648.936,-316.074"/>
<polygon fill="midnightblue" stroke="midnightblue" points="650.457,-312.902 640.104,-310.655 646.796,-318.868 650.457,-312.902"/>
</g>
<!-- Node21&#45;&gt;Node27 -->
<g id="edge40" class="edge"><title>Node21&#45;&gt;Node27</title>
<path fill="none" stroke="midnightblue" d="M641.388,-347.471C565.829,-338.552 444.089,-324.061 339,-311 337.7,-310.838 336.387,-310.675 335.064,-310.509"/>
<polygon fill="midnightblue" stroke="midnightblue" points="335.138,-306.991 324.779,-309.215 334.264,-313.936 335.138,-306.991"/>
</g>
<!-- Node29 -->
<g id="node29" class="node"><title>Node29</title>
<g id="a_node29"><a xlink:href="TriangleMesh_8inl.html" target="_top" xlink:title="Core/Geometry/TriangleMesh.inl">
<polygon fill="white" stroke="black" points="742,-291.5 742,-310.5 910,-310.5 910,-291.5 742,-291.5"/>
<text text-anchor="middle" x="826" y="-298.5" font-family="Helvetica,sans-Serif" font-size="10.00">Core/Geometry/TriangleMesh.inl</text>
</a>
</g>
</g>
<!-- Node21&#45;&gt;Node29 -->
<g id="edge45" class="edge"><title>Node21&#45;&gt;Node29</title>
<path fill="none" stroke="midnightblue" d="M726.88,-347.324C743.186,-338.546 771.295,-324.875 793.518,-314.842"/>
<polygon fill="midnightblue" stroke="midnightblue" points="795.223,-317.914 802.94,-310.655 792.38,-311.518 795.223,-317.914"/>
</g>
<!-- Node22&#45;&gt;Node15 -->
<g id="edge29" class="edge"><title>Node22&#45;&gt;Node15</title>
<path fill="none" stroke="midnightblue" d="M521.602,-235.044C524.22,-220.768 529.752,-192.01 536,-168 538.321,-159.081 541.31,-149.299 543.929,-141.139"/>
<polygon fill="midnightblue" stroke="midnightblue" points="547.281,-142.15 547.074,-131.558 540.63,-139.968 547.281,-142.15"/>
</g>
<!-- Node22&#45;&gt;Node17 -->
<g id="edge30" class="edge"><title>Node22&#45;&gt;Node17</title>
<path fill="none" stroke="midnightblue" d="M500.515,-235.475C477.59,-225.445 439.315,-208.7 412.925,-197.155"/>
<polygon fill="midnightblue" stroke="midnightblue" points="414.014,-193.811 403.449,-193.009 411.208,-200.224 414.014,-193.811"/>
</g>
<!-- Node23&#45;&gt;Node13 -->
<g id="edge34" class="edge"><title>Node23&#45;&gt;Node13</title>
<path fill="none" stroke="midnightblue" d="M669.575,-291.444C717.849,-281.964 795.712,-266.675 847.612,-256.483"/>
<polygon fill="midnightblue" stroke="midnightblue" points="848.491,-259.878 857.629,-254.516 847.142,-253.009 848.491,-259.878"/>
</g>
<!-- Node23&#45;&gt;Node15 -->
<g id="edge35" class="edge"><title>Node23&#45;&gt;Node15</title>
<path fill="none" stroke="midnightblue" d="M629.039,-291.39C633.092,-278.333 638.701,-253.127 629,-235 615.39,-209.569 592.463,-221.957 575,-199 562.155,-182.113 555.738,-158.321 552.651,-141.875"/>
<polygon fill="midnightblue" stroke="midnightblue" points="556.078,-141.142 551.008,-131.839 549.17,-142.273 556.078,-141.142"/>
</g>
<!-- Node24 -->
<g id="node24" class="node"><title>Node24</title>
<g id="a_node24"><a xlink:href="Index_8hpp.html" target="_top" xlink:title="Core/Utils/Index.hpp">
<polygon fill="white" stroke="black" points="677.5,-235.5 677.5,-254.5 790.5,-254.5 790.5,-235.5 677.5,-235.5"/>
<text text-anchor="middle" x="734" y="-242.5" font-family="Helvetica,sans-Serif" font-size="10.00">Core/Utils/Index.hpp</text>
</a>
</g>
</g>
<!-- Node23&#45;&gt;Node24 -->
<g id="edge36" class="edge"><title>Node23&#45;&gt;Node24</title>
<path fill="none" stroke="midnightblue" d="M643.352,-291.324C660.672,-282.664 687.515,-269.242 707.502,-259.249"/>
<polygon fill="midnightblue" stroke="midnightblue" points="709.312,-262.257 716.691,-254.655 706.181,-255.996 709.312,-262.257"/>
</g>
<!-- Node24&#45;&gt;Node15 -->
<g id="edge37" class="edge"><title>Node24&#45;&gt;Node15</title>
<path fill="none" stroke="midnightblue" d="M690.986,-235.427C664.866,-228.681 631.878,-217.289 607,-199 585.783,-183.403 568.859,-157.698 559.127,-140.561"/>
<polygon fill="midnightblue" stroke="midnightblue" points="562.105,-138.711 554.249,-131.602 555.957,-142.058 562.105,-138.711"/>
</g>
<!-- Node25 -->
<g id="node25" class="node"><title>Node25</title>
<polygon fill="white" stroke="#bfbfbf" points="616,-174 616,-193 658,-193 658,-174 616,-174"/>
<text text-anchor="middle" x="637" y="-181" font-family="Helvetica,sans-Serif" font-size="10.00">limits</text>
</g>
<!-- Node24&#45;&gt;Node25 -->
<g id="edge38" class="edge"><title>Node24&#45;&gt;Node25</title>
<path fill="none" stroke="midnightblue" d="M720.102,-235.475C704.328,-225.799 678.363,-209.872 659.651,-198.394"/>
<polygon fill="midnightblue" stroke="midnightblue" points="661.226,-195.254 650.872,-193.009 657.566,-201.221 661.226,-195.254"/>
</g>
<!-- Node26 -->
<g id="node26" class="node"><title>Node26</title>
<g id="a_node26"><a xlink:href="Index_8inl.html" target="_top" xlink:title="Core/Utils/Index.inl">
<polygon fill="white" stroke="black" points="676.5,-174 676.5,-193 781.5,-193 781.5,-174 676.5,-174"/>
<text text-anchor="middle" x="729" y="-181" font-family="Helvetica,sans-Serif" font-size="10.00">Core/Utils/Index.inl</text>
</a>
</g>
</g>
<!-- Node24&#45;&gt;Node26 -->
<g id="edge39" class="edge"><title>Node24&#45;&gt;Node26</title>
<path fill="none" stroke="midnightblue" d="M733.284,-235.475C732.578,-227.08 731.477,-213.981 730.568,-203.163"/>
<polygon fill="midnightblue" stroke="midnightblue" points="734.04,-202.681 729.715,-193.009 727.065,-203.267 734.04,-202.681"/>
</g>
<!-- Node27&#45;&gt;Node3 -->
<g id="edge41" class="edge"><title>Node27&#45;&gt;Node3</title>
<path fill="none" stroke="midnightblue" d="M235.987,-291.467C217.013,-284.774 194.525,-273.422 182,-255 146.384,-202.613 153.688,-122.291 159.427,-85.9829"/>
<polygon fill="midnightblue" stroke="midnightblue" points="162.927,-86.2821 161.179,-75.8325 156.029,-85.0914 162.927,-86.2821"/>
</g>
<!-- Node27&#45;&gt;Node18 -->
<g id="edge42" class="edge"><title>Node27&#45;&gt;Node18</title>
<path fill="none" stroke="midnightblue" d="M267.553,-291.463C262.971,-264.428 248.702,-180.239 242.239,-142.109"/>
<polygon fill="midnightblue" stroke="midnightblue" points="245.625,-141.143 240.503,-131.868 238.723,-142.313 245.625,-141.143"/>
</g>
<!-- Node27&#45;&gt;Node19 -->
<g id="edge43" class="edge"><title>Node27&#45;&gt;Node19</title>
<path fill="none" stroke="midnightblue" d="M272.328,-291.463C282.913,-264.311 315.97,-179.512 330.742,-141.618"/>
<polygon fill="midnightblue" stroke="midnightblue" points="334.172,-142.457 334.543,-131.868 327.65,-139.914 334.172,-142.457"/>
</g>
<!-- Node28 -->
<g id="node28" class="node"><title>Node28</title>
<polygon fill="white" stroke="#bfbfbf" points="191,-235.5 191,-254.5 245,-254.5 245,-235.5 191,-235.5"/>
<text text-anchor="middle" x="218" y="-242.5" font-family="Helvetica,sans-Serif" font-size="10.00">random</text>
</g>
<!-- Node27&#45;&gt;Node28 -->
<g id="edge44" class="edge"><title>Node27&#45;&gt;Node28</title>
<path fill="none" stroke="midnightblue" d="M260.578,-291.083C253.152,-283.22 242.148,-271.569 233.188,-262.081"/>
<polygon fill="midnightblue" stroke="midnightblue" points="235.676,-259.618 226.265,-254.751 230.587,-264.424 235.676,-259.618"/>
</g>
<!-- Node29&#45;&gt;Node21 -->
<g id="edge46" class="edge"><title>Node29&#45;&gt;Node21</title>
<path fill="none" stroke="midnightblue" d="M813.416,-310.516C797.044,-319.349 768.446,-333.255 746.017,-343.368"/>
<polygon fill="midnightblue" stroke="midnightblue" points="744.555,-340.187 736.835,-347.444 747.395,-346.585 744.555,-340.187"/>
</g>
<!-- Node30&#45;&gt;Node1 -->
<g id="edge55" class="edge"><title>Node30&#45;&gt;Node1</title>
<path fill="none" stroke="midnightblue" d="M1118.22,-433.098C1116.46,-433.405 1114.72,-433.706 1113,-434 997.879,-453.629 863.953,-473.14 779.274,-484.76"/>
<polygon fill="midnightblue" stroke="midnightblue" points="778.63,-481.315 769.196,-486.137 779.578,-488.251 778.63,-481.315"/>
</g>
</g>
</svg>
