<?xml version="1.0" encoding="UTF-8" standalone="no"?>
<!DOCTYPE svg PUBLIC "-//W3C//DTD SVG 1.1//EN"
 "http://www.w3.org/Graphics/SVG/1.1/DTD/svg11.dtd">
<!-- Generated by graphviz version 2.38.0 (20140413.2041)
 -->
<!-- Title: /home/travis/build/STORM&#45;IRIT/Radium&#45;Engine/Plugins/MeshFeatureTracking/src/MeshFeatureTrackingPlugin.hpp Pages: 1 -->
<svg width="1533pt" height="710pt"
 viewBox="0.00 0.00 1532.50 710.00" xmlns="http://www.w3.org/2000/svg" xmlns:xlink="http://www.w3.org/1999/xlink">
<g id="graph0" class="graph" transform="scale(1 1) rotate(0) translate(4 706)">
<title>/home/travis/build/STORM&#45;IRIT/Radium&#45;Engine/Plugins/MeshFeatureTracking/src/MeshFeatureTrackingPlugin.hpp</title>
<polygon fill="white" stroke="none" points="-4,4 -4,-706 1528.5,-706 1528.5,4 -4,4"/>
<!-- Node1 -->
<g id="node1" class="node"><title>Node1</title>
<polygon fill="#bfbfbf" stroke="black" points="998.5,-649.5 998.5,-701.5 1184.5,-701.5 1184.5,-649.5 998.5,-649.5"/>
<text text-anchor="start" x="1006.5" y="-689.5" font-family="Helvetica,sans-Serif" font-size="10.00">/home/travis/build</text>
<text text-anchor="start" x="1006.5" y="-678.5" font-family="Helvetica,sans-Serif" font-size="10.00">/STORM&#45;IRIT/Radium&#45;Engine</text>
<text text-anchor="start" x="1006.5" y="-667.5" font-family="Helvetica,sans-Serif" font-size="10.00">/Plugins/MeshFeatureTracking</text>
<text text-anchor="middle" x="1091.5" y="-656.5" font-family="Helvetica,sans-Serif" font-size="10.00">/src/MeshFeatureTrackingPlugin.hpp</text>
</g>
<!-- Node2 -->
<g id="node2" class="node"><title>Node2</title>
<g id="a_node2"><a xlink:href="CoreMacros_8hpp.html" target="_top" xlink:title="Core/CoreMacros.hpp">
<polygon fill="white" stroke="black" points="189.5,-56.5 189.5,-75.5 309.5,-75.5 309.5,-56.5 189.5,-56.5"/>
<text text-anchor="middle" x="249.5" y="-63.5" font-family="Helvetica,sans-Serif" font-size="10.00">Core/CoreMacros.hpp</text>
</a>
</g>
</g>
<!-- Node1&#45;&gt;Node2 -->
<g id="edge1" class="edge"><title>Node1&#45;&gt;Node2</title>
<path fill="none" stroke="midnightblue" d="M998.425,-671.323C765.043,-662.123 173.5,-630.653 173.5,-548 173.5,-548 173.5,-548 173.5,-182.5 173.5,-140.812 208.478,-102.53 230.975,-82.2185"/>
<polygon fill="midnightblue" stroke="midnightblue" points="233.364,-84.7796 238.611,-75.5755 228.769,-79.4985 233.364,-84.7796"/>
</g>
<!-- Node8 -->
<g id="node8" class="node"><title>Node8</title>
<g id="a_node8"><a xlink:href="RadiumPluginInterface_8hpp.html" target="_top" xlink:title="PluginBase/RadiumPluginInterface.hpp">
<polygon fill="white" stroke="black" points="1119.5,-593.5 1119.5,-612.5 1319.5,-612.5 1319.5,-593.5 1119.5,-593.5"/>
<text text-anchor="middle" x="1219.5" y="-600.5" font-family="Helvetica,sans-Serif" font-size="10.00">PluginBase/RadiumPluginInterface.hpp</text>
</a>
</g>
</g>
<!-- Node1&#45;&gt;Node8 -->
<g id="edge7" class="edge"><title>Node1&#45;&gt;Node8</title>
<path fill="none" stroke="midnightblue" d="M1136.99,-649.446C1156.57,-638.66 1178.68,-626.481 1195.08,-617.448"/>
<polygon fill="midnightblue" stroke="midnightblue" points="1196.95,-620.417 1204.02,-612.527 1193.57,-614.286 1196.95,-620.417"/>
</g>
<!-- Node11 -->
<g id="node11" class="node"><title>Node11</title>
<polygon fill="white" stroke="#bfbfbf" points="1128,-476 1128,-495 1183,-495 1183,-476 1128,-476"/>
<text text-anchor="middle" x="1155.5" y="-483" font-family="Helvetica,sans-Serif" font-size="10.00">QObject</text>
</g>
<!-- Node1&#45;&gt;Node11 -->
<g id="edge17" class="edge"><title>Node1&#45;&gt;Node11</title>
<path fill="none" stroke="midnightblue" d="M1096.23,-649.227C1099.56,-632.976 1104.48,-611.514 1110.5,-593 1120.91,-560.994 1136.99,-525.227 1146.84,-504.356"/>
<polygon fill="midnightblue" stroke="midnightblue" points="1150.09,-505.674 1151.25,-495.143 1143.78,-502.655 1150.09,-505.674"/>
</g>
<!-- Node12 -->
<g id="node12" class="node"><title>Node12</title>
<polygon fill="white" stroke="#bfbfbf" points="1435.5,-537.5 1435.5,-556.5 1491.5,-556.5 1491.5,-537.5 1435.5,-537.5"/>
<text text-anchor="middle" x="1463.5" y="-544.5" font-family="Helvetica,sans-Serif" font-size="10.00">QtPlugin</text>
</g>
<!-- Node1&#45;&gt;Node12 -->
<g id="edge18" class="edge"><title>Node1&#45;&gt;Node12</title>
<path fill="none" stroke="midnightblue" d="M1184.78,-655.537C1229.08,-645.212 1282.31,-630.871 1328.5,-613 1346.3,-606.113 1349.39,-601.463 1366.5,-593 1389.42,-581.662 1415.75,-569.499 1435.19,-560.68"/>
<polygon fill="midnightblue" stroke="midnightblue" points="1436.74,-563.823 1444.41,-556.516 1433.85,-557.444 1436.74,-563.823"/>
</g>
<!-- Node15 -->
<g id="node15" class="node"><title>Node15</title>
<polygon fill="white" stroke="#bfbfbf" points="1375.5,-593.5 1375.5,-612.5 1429.5,-612.5 1429.5,-593.5 1375.5,-593.5"/>
<text text-anchor="middle" x="1402.5" y="-600.5" font-family="Helvetica,sans-Serif" font-size="10.00">QAction</text>
</g>
<!-- Node1&#45;&gt;Node15 -->
<g id="edge16" class="edge"><title>Node1&#45;&gt;Node15</title>
<path fill="none" stroke="midnightblue" d="M1184.81,-653.348C1245.43,-639.605 1321.16,-622.439 1365.44,-612.4"/>
<polygon fill="midnightblue" stroke="midnightblue" points="1366.49,-615.753 1375.47,-610.128 1364.94,-608.926 1366.49,-615.753"/>
</g>
<!-- Node16 -->
<g id="node16" class="node"><title>Node16</title>
<g id="a_node16"><a xlink:href="MeshFeatureTrackingUI_8h.html" target="_top" xlink:title="UI/MeshFeatureTrackingUI.h">
<polygon fill="white" stroke="black" points="527.5,-593.5 527.5,-612.5 675.5,-612.5 675.5,-593.5 527.5,-593.5"/>
<text text-anchor="middle" x="601.5" y="-600.5" font-family="Helvetica,sans-Serif" font-size="10.00">UI/MeshFeatureTrackingUI.h</text>
</a>
</g>
</g>
<!-- Node1&#45;&gt;Node16 -->
<g id="edge19" class="edge"><title>Node1&#45;&gt;Node16</title>
<path fill="none" stroke="midnightblue" d="M998.47,-661.115C902.984,-647.377 756.598,-626.315 670.82,-613.974"/>
<polygon fill="midnightblue" stroke="midnightblue" points="671.064,-610.473 660.667,-612.513 670.067,-617.401 671.064,-610.473"/>
</g>
<!-- Node45 -->
<g id="node45" class="node"><title>Node45</title>
<g id="a_node45"><a xlink:href="MeshFeatureTrackingPluginMacros_8hpp.html" target="_top" xlink:title="MeshFeatureTrackingPlugin\lMacros.hpp">
<polygon fill="white" stroke="black" points="0,-470.5 0,-500.5 145,-500.5 145,-470.5 0,-470.5"/>
<text text-anchor="start" x="8" y="-488.5" font-family="Helvetica,sans-Serif" font-size="10.00">MeshFeatureTrackingPlugin</text>
<text text-anchor="middle" x="72.5" y="-477.5" font-family="Helvetica,sans-Serif" font-size="10.00">Macros.hpp</text>
</a>
</g>
</g>
<!-- Node1&#45;&gt;Node45 -->
<g id="edge77" class="edge"><title>Node1&#45;&gt;Node45</title>
<path fill="none" stroke="midnightblue" d="M998.217,-672.931C776.502,-668.554 231.123,-653.735 159.5,-613 119.292,-590.132 93.6179,-540.137 81.2497,-510.302"/>
<polygon fill="midnightblue" stroke="midnightblue" points="84.3685,-508.672 77.4278,-500.667 77.8617,-511.253 84.3685,-508.672"/>
</g>
<!-- Node3 -->
<g id="node3" class="node"><title>Node3</title>
<polygon fill="white" stroke="#bfbfbf" points="86.5,-0.5 86.5,-19.5 138.5,-19.5 138.5,-0.5 86.5,-0.5"/>
<text text-anchor="middle" x="112.5" y="-7.5" font-family="Helvetica,sans-Serif" font-size="10.00">cassert</text>
</g>
<!-- Node2&#45;&gt;Node3 -->
<g id="edge2" class="edge"><title>Node2&#45;&gt;Node3</title>
<path fill="none" stroke="midnightblue" d="M227.792,-56.4435C205.145,-47.5171 169.428,-33.4387 143.748,-23.3168"/>
<polygon fill="midnightblue" stroke="midnightblue" points="144.693,-19.9273 134.106,-19.5164 142.126,-26.4397 144.693,-19.9273"/>
</g>
<!-- Node4 -->
<g id="node4" class="node"><title>Node4</title>
<polygon fill="white" stroke="#bfbfbf" points="157,-0.5 157,-19.5 202,-19.5 202,-0.5 157,-0.5"/>
<text text-anchor="middle" x="179.5" y="-7.5" font-family="Helvetica,sans-Serif" font-size="10.00">cstdio</text>
</g>
<!-- Node2&#45;&gt;Node4 -->
<g id="edge3" class="edge"><title>Node2&#45;&gt;Node4</title>
<path fill="none" stroke="midnightblue" d="M238.253,-56.324C227.703,-48.1849 211.699,-35.8395 199.058,-26.0874"/>
<polygon fill="midnightblue" stroke="midnightblue" points="201.007,-23.1707 190.951,-19.8339 196.731,-28.7132 201.007,-23.1707"/>
</g>
<!-- Node5 -->
<g id="node5" class="node"><title>Node5</title>
<polygon fill="white" stroke="#bfbfbf" points="220,-0.5 220,-19.5 279,-19.5 279,-0.5 220,-0.5"/>
<text text-anchor="middle" x="249.5" y="-7.5" font-family="Helvetica,sans-Serif" font-size="10.00">iostream</text>
</g>
<!-- Node2&#45;&gt;Node5 -->
<g id="edge4" class="edge"><title>Node2&#45;&gt;Node5</title>
<path fill="none" stroke="midnightblue" d="M249.5,-56.083C249.5,-49.0059 249.5,-38.8611 249.5,-29.9865"/>
<polygon fill="midnightblue" stroke="midnightblue" points="253,-29.751 249.5,-19.7511 246,-29.7511 253,-29.751"/>
</g>
<!-- Node6 -->
<g id="node6" class="node"><title>Node6</title>
<polygon fill="white" stroke="#bfbfbf" points="297.5,-0.5 297.5,-19.5 353.5,-19.5 353.5,-0.5 297.5,-0.5"/>
<text text-anchor="middle" x="325.5" y="-7.5" font-family="Helvetica,sans-Serif" font-size="10.00">sstream</text>
</g>
<!-- Node2&#45;&gt;Node6 -->
<g id="edge5" class="edge"><title>Node2&#45;&gt;Node6</title>
<path fill="none" stroke="midnightblue" d="M261.711,-56.324C273.276,-48.1066 290.875,-35.6017 304.661,-25.8069"/>
<polygon fill="midnightblue" stroke="midnightblue" points="306.943,-28.4791 313.067,-19.8339 302.888,-22.7729 306.943,-28.4791"/>
</g>
<!-- Node7 -->
<g id="node7" class="node"><title>Node7</title>
<polygon fill="white" stroke="#bfbfbf" points="371.5,-0.5 371.5,-19.5 419.5,-19.5 419.5,-0.5 371.5,-0.5"/>
<text text-anchor="middle" x="395.5" y="-7.5" font-family="Helvetica,sans-Serif" font-size="10.00">thread</text>
</g>
<!-- Node2&#45;&gt;Node7 -->
<g id="edge6" class="edge"><title>Node2&#45;&gt;Node7</title>
<path fill="none" stroke="midnightblue" d="M272.634,-56.4435C296.982,-47.4381 335.507,-33.1891 362.923,-23.049"/>
<polygon fill="midnightblue" stroke="midnightblue" points="364.309,-26.2681 372.474,-19.5164 361.881,-19.7028 364.309,-26.2681"/>
</g>
<!-- Node9 -->
<g id="node9" class="node"><title>Node9</title>
<polygon fill="white" stroke="#bfbfbf" points="1334,-409 1334,-428 1391,-428 1391,-409 1334,-409"/>
<text text-anchor="middle" x="1362.5" y="-416" font-family="Helvetica,sans-Serif" font-size="10.00">memory</text>
</g>
<!-- Node8&#45;&gt;Node9 -->
<g id="edge8" class="edge"><title>Node8&#45;&gt;Node9</title>
<path fill="none" stroke="midnightblue" d="M1282.29,-593.472C1325.06,-586.228 1376.23,-574.238 1389.5,-557 1416.98,-521.304 1390.58,-465.309 1373.87,-437.056"/>
<polygon fill="midnightblue" stroke="midnightblue" points="1376.69,-434.971 1368.46,-428.298 1370.74,-438.647 1376.69,-434.971"/>
</g>
<!-- Node10 -->
<g id="node10" class="node"><title>Node10</title>
<polygon fill="white" stroke="#bfbfbf" points="1195,-112.5 1195,-131.5 1242,-131.5 1242,-112.5 1195,-112.5"/>
<text text-anchor="middle" x="1218.5" y="-119.5" font-family="Helvetica,sans-Serif" font-size="10.00">vector</text>
</g>
<!-- Node8&#45;&gt;Node10 -->
<g id="edge9" class="edge"><title>Node8&#45;&gt;Node10</title>
<path fill="none" stroke="midnightblue" d="M1216.81,-593.481C1213.26,-580.96 1207.95,-556.916 1212.5,-537 1232.99,-447.339 1309.48,-437.746 1294.5,-347 1281.42,-267.712 1243.93,-178.757 1226.99,-141.24"/>
<polygon fill="midnightblue" stroke="midnightblue" points="1229.96,-139.328 1222.62,-131.693 1223.6,-142.242 1229.96,-139.328"/>
</g>
<!-- Node8&#45;&gt;Node11 -->
<g id="edge10" class="edge"><title>Node8&#45;&gt;Node11</title>
<path fill="none" stroke="midnightblue" d="M1209.71,-593.215C1200.76,-584.719 1187.71,-571.091 1179.5,-557 1169.96,-540.618 1163.47,-519.875 1159.67,-505.14"/>
<polygon fill="midnightblue" stroke="midnightblue" points="1163.03,-504.118 1157.29,-495.215 1156.22,-505.756 1163.03,-504.118"/>
</g>
<!-- Node8&#45;&gt;Node12 -->
<g id="edge11" class="edge"><title>Node8&#45;&gt;Node12</title>
<path fill="none" stroke="midnightblue" d="M1258.16,-593.444C1304.01,-583.297 1379.94,-566.493 1425.5,-556.41"/>
<polygon fill="midnightblue" stroke="midnightblue" points="1426.28,-559.822 1435.29,-554.244 1424.77,-552.987 1426.28,-559.822"/>
</g>
<!-- Node13 -->
<g id="node13" class="node"><title>Node13</title>
<g id="a_node13"><a xlink:href="PluginContext_8hpp.html" target="_top" xlink:title="PluginBase/PluginContext.hpp">
<polygon fill="white" stroke="black" points="1221,-537.5 1221,-556.5 1380,-556.5 1380,-537.5 1221,-537.5"/>
<text text-anchor="middle" x="1300.5" y="-544.5" font-family="Helvetica,sans-Serif" font-size="10.00">PluginBase/PluginContext.hpp</text>
</a>
</g>
</g>
<!-- Node8&#45;&gt;Node13 -->
<g id="edge12" class="edge"><title>Node8&#45;&gt;Node13</title>
<path fill="none" stroke="midnightblue" d="M1232.51,-593.324C1245.03,-584.979 1264.18,-572.212 1278.97,-562.352"/>
<polygon fill="midnightblue" stroke="midnightblue" points="1281.14,-565.114 1287.52,-556.655 1277.26,-559.289 1281.14,-565.114"/>
</g>
<!-- Node13&#45;&gt;Node11 -->
<g id="edge15" class="edge"><title>Node13&#45;&gt;Node11</title>
<path fill="none" stroke="midnightblue" d="M1279.73,-537.475C1255.07,-527.357 1213.75,-510.405 1185.6,-498.851"/>
<polygon fill="midnightblue" stroke="midnightblue" points="1186.82,-495.567 1176.24,-495.009 1184.16,-502.043 1186.82,-495.567"/>
</g>
<!-- Node14 -->
<g id="node14" class="node"><title>Node14</title>
<g id="a_node14"><a xlink:href="RaPluginBase_8hpp.html" target="_top" xlink:title="PluginBase/RaPluginBase.hpp">
<polygon fill="white" stroke="black" points="1366.5,-291.5 1366.5,-310.5 1524.5,-310.5 1524.5,-291.5 1366.5,-291.5"/>
<text text-anchor="middle" x="1445.5" y="-298.5" font-family="Helvetica,sans-Serif" font-size="10.00">PluginBase/RaPluginBase.hpp</text>
</a>
</g>
</g>
<!-- Node13&#45;&gt;Node14 -->
<g id="edge13" class="edge"><title>Node13&#45;&gt;Node14</title>
<path fill="none" stroke="midnightblue" d="M1310.46,-537.429C1330.26,-519.901 1374.86,-477.891 1400.5,-434 1422.41,-396.5 1435.71,-346.745 1441.71,-320.319"/>
<polygon fill="midnightblue" stroke="midnightblue" points="1445.13,-321.042 1443.83,-310.526 1438.29,-319.555 1445.13,-321.042"/>
</g>
<!-- Node14&#45;&gt;Node2 -->
<g id="edge14" class="edge"><title>Node14&#45;&gt;Node2</title>
<path fill="none" stroke="midnightblue" d="M1444.3,-291.237C1439.51,-260.197 1418.76,-155.046 1352.5,-112 1309.17,-83.8544 556.013,-71.1937 319.777,-67.9031"/>
<polygon fill="midnightblue" stroke="midnightblue" points="319.636,-64.4009 309.588,-67.7625 319.539,-71.4002 319.636,-64.4009"/>
</g>
<!-- Node17 -->
<g id="node17" class="node"><title>Node17</title>
<polygon fill="white" stroke="#bfbfbf" points="439.5,-537.5 439.5,-556.5 493.5,-556.5 493.5,-537.5 439.5,-537.5"/>
<text text-anchor="middle" x="466.5" y="-544.5" font-family="Helvetica,sans-Serif" font-size="10.00">QFrame</text>
</g>
<!-- Node16&#45;&gt;Node17 -->
<g id="edge20" class="edge"><title>Node16&#45;&gt;Node17</title>
<path fill="none" stroke="midnightblue" d="M580.109,-593.444C557.793,-584.517 522.597,-570.439 497.292,-560.317"/>
<polygon fill="midnightblue" stroke="midnightblue" points="498.376,-556.981 487.791,-556.516 495.776,-563.48 498.376,-556.981"/>
</g>
<!-- Node18 -->
<g id="node18" class="node"><title>Node18</title>
<g id="a_node18"><a xlink:href="PickingManager_8hpp.html" target="_top" xlink:title="GuiBase/Utils/PickingManager.hpp">
<polygon fill="white" stroke="black" points="512,-537.5 512,-556.5 691,-556.5 691,-537.5 512,-537.5"/>
<text text-anchor="middle" x="601.5" y="-544.5" font-family="Helvetica,sans-Serif" font-size="10.00">GuiBase/Utils/PickingManager.hpp</text>
</a>
</g>
</g>
<!-- Node16&#45;&gt;Node18 -->
<g id="edge21" class="edge"><title>Node16&#45;&gt;Node18</title>
<path fill="none" stroke="midnightblue" d="M601.5,-593.083C601.5,-586.006 601.5,-575.861 601.5,-566.986"/>
<polygon fill="midnightblue" stroke="midnightblue" points="605,-566.751 601.5,-556.751 598,-566.751 605,-566.751"/>
</g>
<!-- Node19 -->
<g id="node19" class="node"><title>Node19</title>
<g id="a_node19"><a xlink:href="RaGuiBase_8hpp.html" target="_top" xlink:title="GuiBase/RaGuiBase.hpp">
<polygon fill="white" stroke="black" points="286.5,-476 286.5,-495 418.5,-495 418.5,-476 286.5,-476"/>
<text text-anchor="middle" x="352.5" y="-483" font-family="Helvetica,sans-Serif" font-size="10.00">GuiBase/RaGuiBase.hpp</text>
</a>
</g>
</g>
<!-- Node18&#45;&gt;Node19 -->
<g id="edge22" class="edge"><title>Node18&#45;&gt;Node19</title>
<path fill="none" stroke="midnightblue" d="M565.824,-537.475C521.633,-526.915 446.287,-508.911 397.985,-497.369"/>
<polygon fill="midnightblue" stroke="midnightblue" points="398.649,-493.929 388.109,-495.009 397.022,-500.737 398.649,-493.929"/>
</g>
<!-- Node20 -->
<g id="node20" class="node"><title>Node20</title>
<g id="a_node20"><a xlink:href="Renderer_8hpp.html" target="_top" xlink:title="Engine/Renderer/Renderer.hpp">
<polygon fill="white" stroke="black" points="521,-476 521,-495 682,-495 682,-476 521,-476"/>
<text text-anchor="middle" x="601.5" y="-483" font-family="Helvetica,sans-Serif" font-size="10.00">Engine/Renderer/Renderer.hpp</text>
</a>
</g>
</g>
<!-- Node18&#45;&gt;Node20 -->
<g id="edge24" class="edge"><title>Node18&#45;&gt;Node20</title>
<path fill="none" stroke="midnightblue" d="M601.5,-537.475C601.5,-529.08 601.5,-515.981 601.5,-505.163"/>
<polygon fill="midnightblue" stroke="midnightblue" points="605,-505.009 601.5,-495.009 598,-505.009 605,-505.009"/>
</g>
<!-- Node19&#45;&gt;Node2 -->
<g id="edge23" class="edge"><title>Node19&#45;&gt;Node2</title>
<path fill="none" stroke="midnightblue" d="M328.9,-475.943C288.761,-459.693 211.5,-420.321 211.5,-358 211.5,-358 211.5,-358 211.5,-182.5 211.5,-146.254 228.595,-106.671 239.853,-84.5327"/>
<polygon fill="midnightblue" stroke="midnightblue" points="242.961,-86.141 244.532,-75.6633 236.77,-82.8745 242.961,-86.141"/>
</g>
<!-- Node20&#45;&gt;Node9 -->
<g id="edge29" class="edge"><title>Node20&#45;&gt;Node9</title>
<path fill="none" stroke="midnightblue" d="M682.128,-478.32C799.682,-469.21 1024.99,-451.372 1216.5,-434 1252.88,-430.701 1294.31,-426.548 1323.72,-423.533"/>
<polygon fill="midnightblue" stroke="midnightblue" points="1324.39,-426.983 1333.98,-422.478 1323.67,-420.02 1324.39,-426.983"/>
</g>
<!-- Node20&#45;&gt;Node10 -->
<g id="edge31" class="edge"><title>Node20&#45;&gt;Node10</title>
<path fill="none" stroke="midnightblue" d="M682.394,-478.764C797.53,-466.547 1009.23,-428.55 1140.5,-311 1185.69,-270.534 1202.54,-257.522 1218.5,-199 1223.7,-179.947 1222.82,-157.195 1221.19,-141.581"/>
<polygon fill="midnightblue" stroke="midnightblue" points="1224.66,-141.119 1219.95,-131.629 1217.71,-141.985 1224.66,-141.119"/>
</g>
<!-- Node21 -->
<g id="node21" class="node"><title>Node21</title>
<g id="a_node21"><a xlink:href="RaEngine_8hpp.html" target="_top" xlink:title="Engine/RaEngine.hpp">
<polygon fill="white" stroke="black" points="1168,-347.5 1168,-366.5 1285,-366.5 1285,-347.5 1168,-347.5"/>
<text text-anchor="middle" x="1226.5" y="-354.5" font-family="Helvetica,sans-Serif" font-size="10.00">Engine/RaEngine.hpp</text>
</a>
</g>
</g>
<!-- Node20&#45;&gt;Node21 -->
<g id="edge25" class="edge"><title>Node20&#45;&gt;Node21</title>
<path fill="none" stroke="midnightblue" d="M682.249,-483.977C814.908,-481.985 1072.36,-473.032 1153.5,-434 1180.74,-420.898 1203.22,-393.056 1215.74,-374.955"/>
<polygon fill="midnightblue" stroke="midnightblue" points="1218.74,-376.773 1221.36,-366.507 1212.91,-372.899 1218.74,-376.773"/>
</g>
<!-- Node22 -->
<g id="node22" class="node"><title>Node22</title>
<polygon fill="white" stroke="#bfbfbf" points="575,-347.5 575,-366.5 616,-366.5 616,-347.5 575,-347.5"/>
<text text-anchor="middle" x="595.5" y="-354.5" font-family="Helvetica,sans-Serif" font-size="10.00">array</text>
</g>
<!-- Node20&#45;&gt;Node22 -->
<g id="edge27" class="edge"><title>Node20&#45;&gt;Node22</title>
<path fill="none" stroke="midnightblue" d="M606.934,-475.911C615.656,-461.028 631.069,-429.493 623.5,-403 620.598,-392.844 614.668,-382.747 609.01,-374.699"/>
<polygon fill="midnightblue" stroke="midnightblue" points="611.719,-372.479 602.912,-366.589 606.124,-376.685 611.719,-372.479"/>
</g>
<!-- Node23 -->
<g id="node23" class="node"><title>Node23</title>
<polygon fill="white" stroke="#bfbfbf" points="463.5,-347.5 463.5,-366.5 513.5,-366.5 513.5,-347.5 463.5,-347.5"/>
<text text-anchor="middle" x="488.5" y="-354.5" font-family="Helvetica,sans-Serif" font-size="10.00">chrono</text>
</g>
<!-- Node20&#45;&gt;Node23 -->
<g id="edge28" class="edge"><title>Node20&#45;&gt;Node23</title>
<path fill="none" stroke="midnightblue" d="M558.769,-475.999C535.134,-468.933 507.575,-456.284 492.5,-434 481.192,-417.283 481.954,-393.458 484.409,-376.958"/>
<polygon fill="midnightblue" stroke="midnightblue" points="487.895,-377.35 486.251,-366.883 481.009,-376.091 487.895,-377.35"/>
</g>
<!-- Node24 -->
<g id="node24" class="node"><title>Node24</title>
<polygon fill="white" stroke="#bfbfbf" points="360,-409 360,-428 407,-428 407,-409 360,-409"/>
<text text-anchor="middle" x="383.5" y="-416" font-family="Helvetica,sans-Serif" font-size="10.00">mutex</text>
</g>
<!-- Node20&#45;&gt;Node24 -->
<g id="edge30" class="edge"><title>Node20&#45;&gt;Node24</title>
<path fill="none" stroke="midnightblue" d="M567.383,-475.918C530.973,-466.529 471.735,-450.593 421.5,-434 419.237,-433.253 416.91,-432.45 414.576,-431.62"/>
<polygon fill="midnightblue" stroke="midnightblue" points="415.674,-428.295 405.081,-428.125 413.256,-434.864 415.674,-428.295"/>
</g>
<!-- Node25 -->
<g id="node25" class="node"><title>Node25</title>
<g id="a_node25"><a xlink:href="Types_8hpp.html" target="_top" xlink:title="Core/Types.hpp">
<polygon fill="white" stroke="black" points="391,-174 391,-193 480,-193 480,-174 391,-174"/>
<text text-anchor="middle" x="435.5" y="-181" font-family="Helvetica,sans-Serif" font-size="10.00">Core/Types.hpp</text>
</a>
</g>
</g>
<!-- Node20&#45;&gt;Node25 -->
<g id="edge32" class="edge"><title>Node20&#45;&gt;Node25</title>
<path fill="none" stroke="midnightblue" d="M564.482,-475.975C538.357,-468.451 503.816,-455.294 479.5,-434 450.137,-408.287 435.5,-397.03 435.5,-358 435.5,-358 435.5,-358 435.5,-300 435.5,-265.864 435.5,-226.052 435.5,-203.209"/>
<polygon fill="midnightblue" stroke="midnightblue" points="439,-203.193 435.5,-193.193 432,-203.193 439,-203.193"/>
</g>
<!-- Node30 -->
<g id="node30" class="node"><title>Node30</title>
<g id="a_node30"><a xlink:href="Color_8hpp.html" target="_top" xlink:title="Core/Utils/Color.hpp">
<polygon fill="white" stroke="black" points="276,-291.5 276,-310.5 387,-310.5 387,-291.5 276,-291.5"/>
<text text-anchor="middle" x="331.5" y="-298.5" font-family="Helvetica,sans-Serif" font-size="10.00">Core/Utils/Color.hpp</text>
</a>
</g>
</g>
<!-- Node20&#45;&gt;Node30 -->
<g id="edge38" class="edge"><title>Node20&#45;&gt;Node30</title>
<path fill="none" stroke="midnightblue" d="M520.781,-478.253C456.469,-471.526 373.523,-458.34 350.5,-434 321.554,-403.398 324.154,-349.624 328.082,-321.07"/>
<polygon fill="midnightblue" stroke="midnightblue" points="331.596,-321.254 329.702,-310.83 324.682,-320.16 331.596,-321.254"/>
</g>
<!-- Node32 -->
<g id="node32" class="node"><title>Node32</title>
<g id="a_node32"><a xlink:href="Timer_8hpp.html" target="_top" xlink:title="Core/Utils/Timer.hpp">
<polygon fill="white" stroke="black" points="502,-409 502,-428 615,-428 615,-409 502,-409"/>
<text text-anchor="middle" x="558.5" y="-416" font-family="Helvetica,sans-Serif" font-size="10.00">Core/Utils/Timer.hpp</text>
</a>
</g>
</g>
<!-- Node20&#45;&gt;Node32 -->
<g id="edge43" class="edge"><title>Node20&#45;&gt;Node32</title>
<path fill="none" stroke="midnightblue" d="M595.701,-475.734C589.124,-465.793 578.239,-449.338 569.937,-436.789"/>
<polygon fill="midnightblue" stroke="midnightblue" points="572.644,-434.536 564.207,-428.127 566.806,-438.399 572.644,-434.536"/>
</g>
<!-- Node33 -->
<g id="node33" class="node"><title>Node33</title>
<g id="a_node33"><a xlink:href="DisplayableObject_8hpp.html" target="_top" xlink:title="Engine/Renderer/Displayable\l/DisplayableObject.hpp">
<polygon fill="white" stroke="black" points="704.5,-403.5 704.5,-433.5 856.5,-433.5 856.5,-403.5 704.5,-403.5"/>
<text text-anchor="start" x="712.5" y="-421.5" font-family="Helvetica,sans-Serif" font-size="10.00">Engine/Renderer/Displayable</text>
<text text-anchor="middle" x="780.5" y="-410.5" font-family="Helvetica,sans-Serif" font-size="10.00">/DisplayableObject.hpp</text>
</a>
</g>
</g>
<!-- Node20&#45;&gt;Node33 -->
<g id="edge46" class="edge"><title>Node20&#45;&gt;Node33</title>
<path fill="none" stroke="midnightblue" d="M625.27,-475.869C652.478,-465.988 697.749,-449.549 732.401,-436.966"/>
<polygon fill="midnightblue" stroke="midnightblue" points="733.664,-440.231 741.869,-433.528 731.275,-433.652 733.664,-440.231"/>
</g>
<!-- Node21&#45;&gt;Node2 -->
<g id="edge26" class="edge"><title>Node21&#45;&gt;Node2</title>
<path fill="none" stroke="midnightblue" d="M1246.52,-347.442C1278.74,-332.168 1338.5,-296.965 1338.5,-246 1338.5,-246 1338.5,-246 1338.5,-182.5 1338.5,-132.732 1298.03,-129.669 1251.5,-112 1165.11,-79.1915 533.051,-69.8519 319.652,-67.6186"/>
<polygon fill="midnightblue" stroke="midnightblue" points="319.544,-64.1174 309.508,-67.5145 319.472,-71.117 319.544,-64.1174"/>
</g>
<!-- Node26 -->
<g id="node26" class="node"><title>Node26</title>
<g id="a_node26"><a xlink:href="RaCore_8hpp.html" target="_top" xlink:title="Core/RaCore.hpp">
<polygon fill="white" stroke="black" points="629.5,-112.5 629.5,-131.5 727.5,-131.5 727.5,-112.5 629.5,-112.5"/>
<text text-anchor="middle" x="678.5" y="-119.5" font-family="Helvetica,sans-Serif" font-size="10.00">Core/RaCore.hpp</text>
</a>
</g>
</g>
<!-- Node25&#45;&gt;Node26 -->
<g id="edge33" class="edge"><title>Node25&#45;&gt;Node26</title>
<path fill="none" stroke="midnightblue" d="M470.128,-173.983C478.131,-172.016 486.612,-169.934 494.5,-168 541.942,-156.369 596.275,-143.086 633.53,-133.983"/>
<polygon fill="midnightblue" stroke="midnightblue" points="634.682,-137.305 643.565,-131.531 633.02,-130.505 634.682,-137.305"/>
</g>
<!-- Node27 -->
<g id="node27" class="node"><title>Node27</title>
<polygon fill="white" stroke="#bfbfbf" points="277.5,-112.5 277.5,-131.5 345.5,-131.5 345.5,-112.5 277.5,-112.5"/>
<text text-anchor="middle" x="311.5" y="-119.5" font-family="Helvetica,sans-Serif" font-size="10.00">Eigen/Core</text>
</g>
<!-- Node25&#45;&gt;Node27 -->
<g id="edge35" class="edge"><title>Node25&#45;&gt;Node27</title>
<path fill="none" stroke="midnightblue" d="M417.734,-173.975C397.016,-164.034 362.548,-147.495 338.511,-135.961"/>
<polygon fill="midnightblue" stroke="midnightblue" points="339.763,-132.68 329.233,-131.509 336.735,-138.991 339.763,-132.68"/>
</g>
<!-- Node28 -->
<g id="node28" class="node"><title>Node28</title>
<polygon fill="white" stroke="#bfbfbf" points="363.5,-112.5 363.5,-131.5 457.5,-131.5 457.5,-112.5 363.5,-112.5"/>
<text text-anchor="middle" x="410.5" y="-119.5" font-family="Helvetica,sans-Serif" font-size="10.00">Eigen/Geometry</text>
</g>
<!-- Node25&#45;&gt;Node28 -->
<g id="edge36" class="edge"><title>Node25&#45;&gt;Node28</title>
<path fill="none" stroke="midnightblue" d="M431.918,-173.975C428.317,-165.404 422.654,-151.927 418.056,-140.983"/>
<polygon fill="midnightblue" stroke="midnightblue" points="421.176,-139.373 414.075,-131.509 414.722,-142.084 421.176,-139.373"/>
</g>
<!-- Node29 -->
<g id="node29" class="node"><title>Node29</title>
<polygon fill="white" stroke="#bfbfbf" points="475.5,-112.5 475.5,-131.5 555.5,-131.5 555.5,-112.5 475.5,-112.5"/>
<text text-anchor="middle" x="515.5" y="-119.5" font-family="Helvetica,sans-Serif" font-size="10.00">Eigen/Sparse</text>
</g>
<!-- Node25&#45;&gt;Node29 -->
<g id="edge37" class="edge"><title>Node25&#45;&gt;Node29</title>
<path fill="none" stroke="midnightblue" d="M446.962,-173.975C459.675,-164.52 480.413,-149.096 495.753,-137.687"/>
<polygon fill="midnightblue" stroke="midnightblue" points="498.124,-140.285 504.059,-131.509 493.946,-134.669 498.124,-140.285"/>
</g>
<!-- Node26&#45;&gt;Node2 -->
<g id="edge34" class="edge"><title>Node26&#45;&gt;Node2</title>
<path fill="none" stroke="midnightblue" d="M629.288,-114.806C553.286,-105.239 407.038,-86.83 319.875,-75.8584"/>
<polygon fill="midnightblue" stroke="midnightblue" points="320.166,-72.3675 309.807,-74.5911 319.292,-79.3127 320.166,-72.3675"/>
</g>
<!-- Node30&#45;&gt;Node2 -->
<g id="edge39" class="edge"><title>Node30&#45;&gt;Node2</title>
<path fill="none" stroke="midnightblue" d="M325.69,-291.352C319.953,-282.516 311.229,-268.251 305.5,-255 279.759,-195.46 261.322,-120.448 253.57,-85.9457"/>
<polygon fill="midnightblue" stroke="midnightblue" points="256.922,-84.8934 251.355,-75.8789 250.085,-86.3974 256.922,-84.8934"/>
</g>
<!-- Node30&#45;&gt;Node27 -->
<g id="edge40" class="edge"><title>Node30&#45;&gt;Node27</title>
<path fill="none" stroke="midnightblue" d="M326.37,-291.407C321.442,-282.614 314.34,-268.381 311.5,-255 303.125,-215.537 306.268,-167.929 309.049,-142.039"/>
<polygon fill="midnightblue" stroke="midnightblue" points="312.563,-142.12 310.258,-131.779 305.612,-141.301 312.563,-142.12"/>
</g>
<!-- Node30&#45;&gt;Node28 -->
<g id="edge41" class="edge"><title>Node30&#45;&gt;Node28</title>
<path fill="none" stroke="midnightblue" d="M332.374,-291.358C333.844,-278.685 337.378,-254.452 344.5,-235 357.749,-198.815 382.682,-161.079 397.821,-139.955"/>
<polygon fill="midnightblue" stroke="midnightblue" points="400.759,-141.868 403.829,-131.728 395.105,-137.74 400.759,-141.868"/>
</g>
<!-- Node31 -->
<g id="node31" class="node"><title>Node31</title>
<polygon fill="white" stroke="#bfbfbf" points="353.5,-235.5 353.5,-254.5 407.5,-254.5 407.5,-235.5 353.5,-235.5"/>
<text text-anchor="middle" x="380.5" y="-242.5" font-family="Helvetica,sans-Serif" font-size="10.00">random</text>
</g>
<!-- Node30&#45;&gt;Node31 -->
<g id="edge42" class="edge"><title>Node30&#45;&gt;Node31</title>
<path fill="none" stroke="midnightblue" d="M339.591,-291.083C346.655,-283.298 357.088,-271.801 365.649,-262.367"/>
<polygon fill="midnightblue" stroke="midnightblue" points="368.431,-264.509 372.559,-254.751 363.247,-259.805 368.431,-264.509"/>
</g>
<!-- Node32&#45;&gt;Node23 -->
<g id="edge45" class="edge"><title>Node32&#45;&gt;Node23</title>
<path fill="none" stroke="midnightblue" d="M548.471,-408.975C537.451,-399.608 519.54,-384.384 506.157,-373.008"/>
<polygon fill="midnightblue" stroke="midnightblue" points="508.397,-370.319 498.511,-366.509 503.863,-375.652 508.397,-370.319"/>
</g>
<!-- Node32&#45;&gt;Node26 -->
<g id="edge44" class="edge"><title>Node32&#45;&gt;Node26</title>
<path fill="none" stroke="midnightblue" d="M553.822,-408.957C539.67,-381.878 500.097,-296.134 530.5,-235 554.894,-185.948 612.164,-152.65 647.883,-135.816"/>
<polygon fill="midnightblue" stroke="midnightblue" points="649.693,-138.838 657.341,-131.505 646.79,-132.468 649.693,-138.838"/>
</g>
<!-- Node33&#45;&gt;Node10 -->
<g id="edge50" class="edge"><title>Node33&#45;&gt;Node10</title>
<path fill="none" stroke="midnightblue" d="M856.586,-411.149C904.954,-404.792 967.786,-392.134 1018.5,-367 1116.55,-318.407 1146.7,-295.395 1198.5,-199 1208.17,-181.012 1213.37,-158.079 1216.02,-142.132"/>
<polygon fill="midnightblue" stroke="midnightblue" points="1219.53,-142.33 1217.53,-131.925 1212.6,-141.306 1219.53,-142.33"/>
</g>
<!-- Node33&#45;&gt;Node21 -->
<g id="edge47" class="edge"><title>Node33&#45;&gt;Node21</title>
<path fill="none" stroke="midnightblue" d="M856.663,-407.339C941.124,-396.071 1076.17,-378.055 1157.6,-367.192"/>
<polygon fill="midnightblue" stroke="midnightblue" points="1158.29,-370.631 1167.74,-365.839 1157.37,-363.692 1158.29,-370.631"/>
</g>
<!-- Node33&#45;&gt;Node22 -->
<g id="edge48" class="edge"><title>Node33&#45;&gt;Node22</title>
<path fill="none" stroke="midnightblue" d="M736.658,-403.399C702.482,-392.408 655.919,-377.432 625.783,-367.74"/>
<polygon fill="midnightblue" stroke="midnightblue" points="626.825,-364.398 616.234,-364.668 624.682,-371.062 626.825,-364.398"/>
</g>
<!-- Node33&#45;&gt;Node30 -->
<g id="edge76" class="edge"><title>Node33&#45;&gt;Node30</title>
<path fill="none" stroke="midnightblue" d="M746.187,-403.396C722.725,-393.581 691.014,-379.975 663.5,-367 645.881,-358.691 643.032,-353 624.5,-347 548.825,-322.498 457.726,-311.179 397.411,-306.056"/>
<polygon fill="midnightblue" stroke="midnightblue" points="397.513,-302.553 387.262,-305.228 396.944,-309.53 397.513,-302.553"/>
</g>
<!-- Node34 -->
<g id="node34" class="node"><title>Node34</title>
<polygon fill="white" stroke="#bfbfbf" points="672.5,-347.5 672.5,-366.5 710.5,-366.5 710.5,-347.5 672.5,-347.5"/>
<text text-anchor="middle" x="691.5" y="-354.5" font-family="Helvetica,sans-Serif" font-size="10.00">map</text>
</g>
<!-- Node33&#45;&gt;Node34 -->
<g id="edge49" class="edge"><title>Node33&#45;&gt;Node34</title>
<path fill="none" stroke="midnightblue" d="M759.408,-403.399C745.409,-394.04 727.089,-381.792 713.005,-372.377"/>
<polygon fill="midnightblue" stroke="midnightblue" points="714.709,-369.306 704.45,-366.658 710.818,-375.125 714.709,-369.306"/>
</g>
<!-- Node35 -->
<g id="node35" class="node"><title>Node35</title>
<g id="a_node35"><a xlink:href="VectorArray_8hpp.html" target="_top" xlink:title="Core/Containers/VectorArray.hpp">
<polygon fill="white" stroke="black" points="836,-235.5 836,-254.5 1009,-254.5 1009,-235.5 836,-235.5"/>
<text text-anchor="middle" x="922.5" y="-242.5" font-family="Helvetica,sans-Serif" font-size="10.00">Core/Containers/VectorArray.hpp</text>
</a>
</g>
</g>
<!-- Node33&#45;&gt;Node35 -->
<g id="edge51" class="edge"><title>Node33&#45;&gt;Node35</title>
<path fill="none" stroke="midnightblue" d="M856.52,-410.584C920.333,-400.292 1007.73,-374.689 1050.5,-311 1069.56,-282.615 1031.43,-265.986 991.938,-256.664"/>
<polygon fill="midnightblue" stroke="midnightblue" points="992.692,-253.246 982.172,-254.505 991.181,-260.081 992.692,-253.246"/>
</g>
<!-- Node38 -->
<g id="node38" class="node"><title>Node38</title>
<g id="a_node38"><a xlink:href="TriangleMesh_8hpp.html" target="_top" xlink:title="Core/Geometry/TriangleMesh.hpp">
<polygon fill="white" stroke="black" points="728.5,-347.5 728.5,-366.5 904.5,-366.5 904.5,-347.5 728.5,-347.5"/>
<text text-anchor="middle" x="816.5" y="-354.5" font-family="Helvetica,sans-Serif" font-size="10.00">Core/Geometry/TriangleMesh.hpp</text>
</a>
</g>
</g>
<!-- Node33&#45;&gt;Node38 -->
<g id="edge59" class="edge"><title>Node33&#45;&gt;Node38</title>
<path fill="none" stroke="midnightblue" d="M789.031,-403.399C794.101,-395.021 800.571,-384.327 805.958,-375.423"/>
<polygon fill="midnightblue" stroke="midnightblue" points="809.08,-377.025 811.262,-366.658 803.09,-373.402 809.08,-377.025"/>
</g>
<!-- Node35&#45;&gt;Node10 -->
<g id="edge58" class="edge"><title>Node35&#45;&gt;Node10</title>
<path fill="none" stroke="midnightblue" d="M933.129,-235.301C957.471,-215.38 1015.2,-168.144 1015.5,-168 1071.07,-141.042 1143.05,-130.018 1184.67,-125.67"/>
<polygon fill="midnightblue" stroke="midnightblue" points="1185.2,-129.135 1194.82,-124.681 1184.52,-122.168 1185.2,-129.135"/>
</g>
<!-- Node35&#45;&gt;Node25 -->
<g id="edge57" class="edge"><title>Node35&#45;&gt;Node25</title>
<path fill="none" stroke="midnightblue" d="M852.725,-235.475C754.944,-223.529 579.177,-202.054 490.238,-191.188"/>
<polygon fill="midnightblue" stroke="midnightblue" points="490.443,-187.687 480.092,-189.948 489.594,-194.635 490.443,-187.687"/>
</g>
<!-- Node35&#45;&gt;Node26 -->
<g id="edge56" class="edge"><title>Node35&#45;&gt;Node26</title>
<path fill="none" stroke="midnightblue" d="M882.554,-235.476C852.816,-228.204 811.785,-216.175 778.5,-199 746.259,-182.363 713.687,-155.25 694.832,-138.305"/>
<polygon fill="midnightblue" stroke="midnightblue" points="697.15,-135.682 687.408,-131.517 692.427,-140.848 697.15,-135.682"/>
</g>
<!-- Node36 -->
<g id="node36" class="node"><title>Node36</title>
<g id="a_node36"><a xlink:href="AlignedStdVector_8hpp.html" target="_top" xlink:title="Core/Containers/AlignedStd\lVector.hpp">
<polygon fill="white" stroke="black" points="820,-168.5 820,-198.5 969,-198.5 969,-168.5 820,-168.5"/>
<text text-anchor="start" x="828" y="-186.5" font-family="Helvetica,sans-Serif" font-size="10.00">Core/Containers/AlignedStd</text>
<text text-anchor="middle" x="894.5" y="-175.5" font-family="Helvetica,sans-Serif" font-size="10.00">Vector.hpp</text>
</a>
</g>
</g>
<!-- Node35&#45;&gt;Node36 -->
<g id="edge52" class="edge"><title>Node35&#45;&gt;Node36</title>
<path fill="none" stroke="midnightblue" d="M918.488,-235.475C915.086,-228.245 910.041,-217.525 905.455,-207.779"/>
<polygon fill="midnightblue" stroke="midnightblue" points="908.524,-206.081 901.099,-198.523 902.19,-209.061 908.524,-206.081"/>
</g>
<!-- Node36&#45;&gt;Node10 -->
<g id="edge55" class="edge"><title>Node36&#45;&gt;Node10</title>
<path fill="none" stroke="midnightblue" d="M969.239,-168.775C1037.11,-156.311 1134.11,-138.498 1184.76,-129.196"/>
<polygon fill="midnightblue" stroke="midnightblue" points="1185.64,-132.593 1194.84,-127.345 1184.37,-125.708 1185.64,-132.593"/>
</g>
<!-- Node36&#45;&gt;Node26 -->
<g id="edge53" class="edge"><title>Node36&#45;&gt;Node26</title>
<path fill="none" stroke="midnightblue" d="M843.585,-168.475C805.669,-158.03 754.581,-143.958 719.329,-134.247"/>
<polygon fill="midnightblue" stroke="midnightblue" points="719.951,-130.788 709.38,-131.506 718.092,-137.536 719.951,-130.788"/>
</g>
<!-- Node37 -->
<g id="node37" class="node"><title>Node37</title>
<polygon fill="white" stroke="#bfbfbf" points="848,-112.5 848,-131.5 941,-131.5 941,-112.5 848,-112.5"/>
<text text-anchor="middle" x="894.5" y="-119.5" font-family="Helvetica,sans-Serif" font-size="10.00">Eigen/StdVector</text>
</g>
<!-- Node36&#45;&gt;Node37 -->
<g id="edge54" class="edge"><title>Node36&#45;&gt;Node37</title>
<path fill="none" stroke="midnightblue" d="M894.5,-168.399C894.5,-160.466 894.5,-150.458 894.5,-141.858"/>
<polygon fill="midnightblue" stroke="midnightblue" points="898,-141.658 894.5,-131.658 891,-141.658 898,-141.658"/>
</g>
<!-- Node38&#45;&gt;Node25 -->
<g id="edge65" class="edge"><title>Node38&#45;&gt;Node25</title>
<path fill="none" stroke="midnightblue" d="M773.176,-347.456C737.492,-339.791 685.892,-327.252 642.5,-311 590.382,-291.48 577.916,-284.138 530.5,-255 502.554,-237.826 472.503,-214.642 453.85,-199.631"/>
<polygon fill="midnightblue" stroke="midnightblue" points="455.867,-196.76 445.899,-193.17 451.452,-202.192 455.867,-196.76"/>
</g>
<!-- Node38&#45;&gt;Node26 -->
<g id="edge64" class="edge"><title>Node38&#45;&gt;Node26</title>
<path fill="none" stroke="midnightblue" d="M774.11,-347.451C753.919,-341.022 731.588,-329.933 719.5,-311 699.958,-280.392 765.74,-267.48 749.5,-235 737.574,-211.149 716.789,-220.848 701.5,-199 689.427,-181.748 683.573,-158.025 680.814,-141.697"/>
<polygon fill="midnightblue" stroke="midnightblue" points="684.269,-141.133 679.361,-131.744 677.343,-142.144 684.269,-141.133"/>
</g>
<!-- Node38&#45;&gt;Node30 -->
<g id="edge73" class="edge"><title>Node38&#45;&gt;Node30</title>
<path fill="none" stroke="midnightblue" d="M739.918,-347.473C645.46,-336.956 486.48,-319.255 397.284,-309.324"/>
<polygon fill="midnightblue" stroke="midnightblue" points="397.616,-305.84 387.29,-308.212 396.842,-312.797 397.616,-305.84"/>
</g>
<!-- Node38&#45;&gt;Node35 -->
<g id="edge60" class="edge"><title>Node38&#45;&gt;Node35</title>
<path fill="none" stroke="midnightblue" d="M785.968,-347.445C752.872,-336.647 707.31,-316.38 727.5,-291 740.973,-274.064 787.512,-262.954 831.743,-256.012"/>
<polygon fill="midnightblue" stroke="midnightblue" points="832.358,-259.459 841.724,-254.507 831.314,-252.537 832.358,-259.459"/>
</g>
<!-- Node39 -->
<g id="node39" class="node"><title>Node39</title>
<g id="a_node39"><a xlink:href="AbstractGeometry_8hpp.html" target="_top" xlink:title="Core/Geometry/AbstractGeometry.hpp">
<polygon fill="white" stroke="black" points="540,-235.5 540,-254.5 741,-254.5 741,-235.5 540,-235.5"/>
<text text-anchor="middle" x="640.5" y="-242.5" font-family="Helvetica,sans-Serif" font-size="10.00">Core/Geometry/AbstractGeometry.hpp</text>
</a>
</g>
</g>
<!-- Node38&#45;&gt;Node39 -->
<g id="edge61" class="edge"><title>Node38&#45;&gt;Node39</title>
<path fill="none" stroke="midnightblue" d="M728.451,-348.265C702.228,-341.856 675.463,-330.595 656.5,-311 644.766,-298.875 641.196,-279.596 640.303,-265.178"/>
<polygon fill="midnightblue" stroke="midnightblue" points="643.795,-264.799 640.056,-254.886 636.797,-264.967 643.795,-264.799"/>
</g>
<!-- Node40 -->
<g id="node40" class="node"><title>Node40</title>
<g id="a_node40"><a xlink:href="Attribs_8hpp.html" target="_top" xlink:title="Core/Utils/Attribs.hpp">
<polygon fill="white" stroke="black" points="923,-291.5 923,-310.5 1042,-310.5 1042,-291.5 923,-291.5"/>
<text text-anchor="middle" x="982.5" y="-298.5" font-family="Helvetica,sans-Serif" font-size="10.00">Core/Utils/Attribs.hpp</text>
</a>
</g>
</g>
<!-- Node38&#45;&gt;Node40 -->
<g id="edge66" class="edge"><title>Node38&#45;&gt;Node40</title>
<path fill="none" stroke="midnightblue" d="M842.803,-347.444C870.851,-338.32 915.444,-323.813 946.684,-313.651"/>
<polygon fill="midnightblue" stroke="midnightblue" points="947.893,-316.938 956.32,-310.516 945.728,-310.282 947.893,-316.938"/>
</g>
<!-- Node44 -->
<g id="node44" class="node"><title>Node44</title>
<g id="a_node44"><a xlink:href="TriangleMesh_8inl.html" target="_top" xlink:title="Core/Geometry/TriangleMesh.inl">
<polygon fill="white" stroke="black" points="736.5,-291.5 736.5,-310.5 904.5,-310.5 904.5,-291.5 736.5,-291.5"/>
<text text-anchor="middle" x="820.5" y="-298.5" font-family="Helvetica,sans-Serif" font-size="10.00">Core/Geometry/TriangleMesh.inl</text>
</a>
</g>
</g>
<!-- Node38&#45;&gt;Node44 -->
<g id="edge74" class="edge"><title>Node38&#45;&gt;Node44</title>
<path fill="none" stroke="midnightblue" d="M811.994,-347.083C811.015,-339.927 811.347,-329.635 812.658,-320.691"/>
<polygon fill="midnightblue" stroke="midnightblue" points="816.116,-321.254 814.721,-310.751 809.262,-319.831 816.116,-321.254"/>
</g>
<!-- Node39&#45;&gt;Node25 -->
<g id="edge63" class="edge"><title>Node39&#45;&gt;Node25</title>
<path fill="none" stroke="midnightblue" d="M611.128,-235.475C575.203,-225.048 514.268,-207.362 474.456,-195.807"/>
<polygon fill="midnightblue" stroke="midnightblue" points="475.396,-192.435 464.817,-193.009 473.445,-199.158 475.396,-192.435"/>
</g>
<!-- Node39&#45;&gt;Node26 -->
<g id="edge62" class="edge"><title>Node39&#45;&gt;Node26</title>
<path fill="none" stroke="midnightblue" d="M643.233,-235.298C649.395,-215.676 664.481,-167.638 672.786,-141.193"/>
<polygon fill="midnightblue" stroke="midnightblue" points="676.135,-142.212 675.792,-131.623 669.456,-140.115 676.135,-142.212"/>
</g>
<!-- Node40&#45;&gt;Node26 -->
<g id="edge68" class="edge"><title>Node40&#45;&gt;Node26</title>
<path fill="none" stroke="midnightblue" d="M943.11,-291.496C910.999,-283.892 864.852,-271.417 826.5,-255 803.795,-245.281 748.581,-215.824 730.5,-199 712.278,-182.045 696.987,-157.603 687.802,-141.053"/>
<polygon fill="midnightblue" stroke="midnightblue" points="690.708,-139.066 682.9,-131.904 684.538,-142.372 690.708,-139.066"/>
</g>
<!-- Node40&#45;&gt;Node35 -->
<g id="edge67" class="edge"><title>Node40&#45;&gt;Node35</title>
<path fill="none" stroke="midnightblue" d="M972.86,-291.324C963.99,-283.341 950.625,-271.313 939.892,-261.653"/>
<polygon fill="midnightblue" stroke="midnightblue" points="942.09,-258.922 932.315,-254.834 937.407,-264.125 942.09,-258.922"/>
</g>
<!-- Node41 -->
<g id="node41" class="node"><title>Node41</title>
<g id="a_node41"><a xlink:href="Index_8hpp.html" target="_top" xlink:title="Core/Utils/Index.hpp">
<polygon fill="white" stroke="black" points="1027,-235.5 1027,-254.5 1140,-254.5 1140,-235.5 1027,-235.5"/>
<text text-anchor="middle" x="1083.5" y="-242.5" font-family="Helvetica,sans-Serif" font-size="10.00">Core/Utils/Index.hpp</text>
</a>
</g>
</g>
<!-- Node40&#45;&gt;Node41 -->
<g id="edge69" class="edge"><title>Node40&#45;&gt;Node41</title>
<path fill="none" stroke="midnightblue" d="M998.727,-291.324C1014.85,-282.703 1039.8,-269.364 1058.46,-259.386"/>
<polygon fill="midnightblue" stroke="midnightblue" points="1060.14,-262.456 1067.31,-254.655 1056.84,-256.283 1060.14,-262.456"/>
</g>
<!-- Node41&#45;&gt;Node26 -->
<g id="edge70" class="edge"><title>Node41&#45;&gt;Node26</title>
<path fill="none" stroke="midnightblue" d="M1026.82,-236.139C952.714,-225.634 830.005,-207.371 810.5,-199 789.507,-189.991 788.936,-180.005 769.5,-168 749.672,-155.752 726.047,-144.151 707.839,-135.796"/>
<polygon fill="midnightblue" stroke="midnightblue" points="709.155,-132.549 698.6,-131.621 706.272,-138.928 709.155,-132.549"/>
</g>
<!-- Node42 -->
<g id="node42" class="node"><title>Node42</title>
<polygon fill="white" stroke="#bfbfbf" points="1024.5,-174 1024.5,-193 1066.5,-193 1066.5,-174 1024.5,-174"/>
<text text-anchor="middle" x="1045.5" y="-181" font-family="Helvetica,sans-Serif" font-size="10.00">limits</text>
</g>
<!-- Node41&#45;&gt;Node42 -->
<g id="edge71" class="edge"><title>Node41&#45;&gt;Node42</title>
<path fill="none" stroke="midnightblue" d="M1078.06,-235.475C1072.41,-226.638 1063.44,-212.589 1056.34,-201.475"/>
<polygon fill="midnightblue" stroke="midnightblue" points="1059.27,-199.553 1050.93,-193.009 1053.37,-203.321 1059.27,-199.553"/>
</g>
<!-- Node43 -->
<g id="node43" class="node"><title>Node43</title>
<g id="a_node43"><a xlink:href="Index_8inl.html" target="_top" xlink:title="Core/Utils/Index.inl">
<polygon fill="white" stroke="black" points="1085,-174 1085,-193 1190,-193 1190,-174 1085,-174"/>
<text text-anchor="middle" x="1137.5" y="-181" font-family="Helvetica,sans-Serif" font-size="10.00">Core/Utils/Index.inl</text>
</a>
</g>
</g>
<!-- Node41&#45;&gt;Node43 -->
<g id="edge72" class="edge"><title>Node41&#45;&gt;Node43</title>
<path fill="none" stroke="midnightblue" d="M1091.24,-235.475C1099.5,-226.373 1112.78,-211.741 1122.99,-200.483"/>
<polygon fill="midnightblue" stroke="midnightblue" points="1125.65,-202.766 1129.78,-193.009 1120.47,-198.062 1125.65,-202.766"/>
</g>
<!-- Node44&#45;&gt;Node38 -->
<g id="edge75" class="edge"><title>Node44&#45;&gt;Node38</title>
<path fill="none" stroke="midnightblue" d="M824.983,-310.751C825.983,-317.858 825.668,-328.136 824.372,-337.101"/>
<polygon fill="midnightblue" stroke="midnightblue" points="820.906,-336.584 822.327,-347.083 827.763,-337.989 820.906,-336.584"/>
</g>
<!-- Node45&#45;&gt;Node2 -->
<g id="edge78" class="edge"><title>Node45&#45;&gt;Node2</title>
<path fill="none" stroke="midnightblue" d="M78.3309,-470.359C87.3108,-447.266 103.5,-399.832 103.5,-358 103.5,-358 103.5,-358 103.5,-182.5 103.5,-127.779 167.363,-94.9186 210.614,-78.9385"/>
<polygon fill="midnightblue" stroke="midnightblue" points="212.046,-82.1445 220.306,-75.5092 209.711,-75.5454 212.046,-82.1445"/>
</g>
</g>
</svg>
