<?xml version="1.0" encoding="UTF-8" standalone="no"?>
<!DOCTYPE svg PUBLIC "-//W3C//DTD SVG 1.1//EN"
 "http://www.w3.org/Graphics/SVG/1.1/DTD/svg11.dtd">
<!-- Generated by graphviz version 2.38.0 (20140413.2041)
 -->
<!-- Title: /home/travis/build/STORM&#45;IRIT/Radium&#45;Engine/Plugins/MeshFeatureTracking/src/UI/MeshFeatureTrackingUI.cpp Pages: 1 -->
<svg width="1475pt" height="699pt"
 viewBox="0.00 0.00 1475.00 699.00" xmlns="http://www.w3.org/2000/svg" xmlns:xlink="http://www.w3.org/1999/xlink">
<g id="graph0" class="graph" transform="scale(1 1) rotate(0) translate(4 695)">
<title>/home/travis/build/STORM&#45;IRIT/Radium&#45;Engine/Plugins/MeshFeatureTracking/src/UI/MeshFeatureTrackingUI.cpp</title>
<polygon fill="white" stroke="none" points="-4,4 -4,-695 1471,-695 1471,4 -4,4"/>
<!-- Node1 -->
<g id="node1" class="node"><title>Node1</title>
<polygon fill="#bfbfbf" stroke="black" points="1201,-638.5 1201,-690.5 1380,-690.5 1380,-638.5 1201,-638.5"/>
<text text-anchor="start" x="1209" y="-678.5" font-family="Helvetica,sans-Serif" font-size="10.00">/home/travis/build</text>
<text text-anchor="start" x="1209" y="-667.5" font-family="Helvetica,sans-Serif" font-size="10.00">/STORM&#45;IRIT/Radium&#45;Engine</text>
<text text-anchor="start" x="1209" y="-656.5" font-family="Helvetica,sans-Serif" font-size="10.00">/Plugins/MeshFeatureTracking</text>
<text text-anchor="middle" x="1290.5" y="-645.5" font-family="Helvetica,sans-Serif" font-size="10.00">/src/UI/MeshFeatureTrackingUI.cpp</text>
</g>
<!-- Node2 -->
<g id="node2" class="node"><title>Node2</title>
<g id="a_node2"><a xlink:href="MeshFeatureTrackingUI_8h.html" target="_top" xlink:title="MeshFeatureTrackingUI.h">
<polygon fill="white" stroke="black" points="1127,-582.5 1127,-601.5 1262,-601.5 1262,-582.5 1127,-582.5"/>
<text text-anchor="middle" x="1194.5" y="-589.5" font-family="Helvetica,sans-Serif" font-size="10.00">MeshFeatureTrackingUI.h</text>
</a>
</g>
</g>
<!-- Node1&#45;&gt;Node2 -->
<g id="edge1" class="edge"><title>Node1&#45;&gt;Node2</title>
<path fill="none" stroke="midnightblue" d="M1256.38,-638.446C1242.33,-628.127 1226.55,-616.533 1214.43,-607.638"/>
<polygon fill="midnightblue" stroke="midnightblue" points="1216.47,-604.794 1206.34,-601.695 1212.33,-610.436 1216.47,-604.794"/>
</g>
<!-- Node9 -->
<g id="node9" class="node"><title>Node9</title>
<polygon fill="white" stroke="#bfbfbf" points="1261,-0.5 1261,-19.5 1320,-19.5 1320,-0.5 1261,-0.5"/>
<text text-anchor="middle" x="1290.5" y="-7.5" font-family="Helvetica,sans-Serif" font-size="10.00">iostream</text>
</g>
<!-- Node1&#45;&gt;Node9 -->
<g id="edge64" class="edge"><title>Node1&#45;&gt;Node9</title>
<path fill="none" stroke="midnightblue" d="M1290.5,-638.299C1290.5,-612.768 1290.5,-572.139 1290.5,-537 1290.5,-537 1290.5,-537 1290.5,-121 1290.5,-88.948 1290.5,-51.6426 1290.5,-29.7489"/>
<polygon fill="midnightblue" stroke="midnightblue" points="1294,-29.5577 1290.5,-19.5578 1287,-29.5578 1294,-29.5577"/>
</g>
<!-- Node39 -->
<g id="node39" class="node"><title>Node39</title>
<polygon fill="white" stroke="#bfbfbf" points="1318,-582.5 1318,-601.5 1467,-601.5 1467,-582.5 1318,-582.5"/>
<text text-anchor="middle" x="1392.5" y="-589.5" font-family="Helvetica,sans-Serif" font-size="10.00">ui_MeshFeatureTrackingUI.h</text>
</g>
<!-- Node1&#45;&gt;Node39 -->
<g id="edge65" class="edge"><title>Node1&#45;&gt;Node39</title>
<path fill="none" stroke="midnightblue" d="M1326.75,-638.446C1341.68,-628.127 1358.45,-616.533 1371.32,-607.638"/>
<polygon fill="midnightblue" stroke="midnightblue" points="1373.68,-610.261 1379.92,-601.695 1369.7,-604.502 1373.68,-610.261"/>
</g>
<!-- Node3 -->
<g id="node3" class="node"><title>Node3</title>
<polygon fill="white" stroke="#bfbfbf" points="1188.5,-526.5 1188.5,-545.5 1242.5,-545.5 1242.5,-526.5 1188.5,-526.5"/>
<text text-anchor="middle" x="1215.5" y="-533.5" font-family="Helvetica,sans-Serif" font-size="10.00">QFrame</text>
</g>
<!-- Node2&#45;&gt;Node3 -->
<g id="edge2" class="edge"><title>Node2&#45;&gt;Node3</title>
<path fill="none" stroke="midnightblue" d="M1197.97,-582.083C1200.81,-574.77 1204.93,-564.181 1208.46,-555.103"/>
<polygon fill="midnightblue" stroke="midnightblue" points="1211.73,-556.34 1212.1,-545.751 1205.21,-553.803 1211.73,-556.34"/>
</g>
<!-- Node4 -->
<g id="node4" class="node"><title>Node4</title>
<g id="a_node4"><a xlink:href="PickingManager_8hpp.html" target="_top" xlink:title="GuiBase/Utils/PickingManager.hpp">
<polygon fill="white" stroke="black" points="991,-526.5 991,-545.5 1170,-545.5 1170,-526.5 991,-526.5"/>
<text text-anchor="middle" x="1080.5" y="-533.5" font-family="Helvetica,sans-Serif" font-size="10.00">GuiBase/Utils/PickingManager.hpp</text>
</a>
</g>
</g>
<!-- Node2&#45;&gt;Node4 -->
<g id="edge3" class="edge"><title>Node2&#45;&gt;Node4</title>
<path fill="none" stroke="midnightblue" d="M1176.44,-582.444C1157.93,-573.675 1128.92,-559.935 1107.64,-549.858"/>
<polygon fill="midnightblue" stroke="midnightblue" points="1109.01,-546.634 1098.48,-545.516 1106.02,-552.96 1109.01,-546.634"/>
</g>
<!-- Node5 -->
<g id="node5" class="node"><title>Node5</title>
<g id="a_node5"><a xlink:href="RaGuiBase_8hpp.html" target="_top" xlink:title="GuiBase/RaGuiBase.hpp">
<polygon fill="white" stroke="black" points="1085.5,-470.5 1085.5,-489.5 1217.5,-489.5 1217.5,-470.5 1085.5,-470.5"/>
<text text-anchor="middle" x="1151.5" y="-477.5" font-family="Helvetica,sans-Serif" font-size="10.00">GuiBase/RaGuiBase.hpp</text>
</a>
</g>
</g>
<!-- Node4&#45;&gt;Node5 -->
<g id="edge4" class="edge"><title>Node4&#45;&gt;Node5</title>
<path fill="none" stroke="midnightblue" d="M1091.91,-526.324C1102.61,-518.185 1118.84,-505.839 1131.66,-496.087"/>
<polygon fill="midnightblue" stroke="midnightblue" points="1134.04,-498.673 1139.89,-489.834 1129.81,-493.102 1134.04,-498.673"/>
</g>
<!-- Node12 -->
<g id="node12" class="node"><title>Node12</title>
<g id="a_node12"><a xlink:href="Renderer_8hpp.html" target="_top" xlink:title="Engine/Renderer/Renderer.hpp">
<polygon fill="white" stroke="black" points="860,-470.5 860,-489.5 1021,-489.5 1021,-470.5 860,-470.5"/>
<text text-anchor="middle" x="940.5" y="-477.5" font-family="Helvetica,sans-Serif" font-size="10.00">Engine/Renderer/Renderer.hpp</text>
</a>
</g>
</g>
<!-- Node4&#45;&gt;Node12 -->
<g id="edge11" class="edge"><title>Node4&#45;&gt;Node12</title>
<path fill="none" stroke="midnightblue" d="M1058.32,-526.444C1035.07,-517.478 998.351,-503.314 972.085,-493.183"/>
<polygon fill="midnightblue" stroke="midnightblue" points="973.169,-489.85 962.58,-489.516 970.65,-496.381 973.169,-489.85"/>
</g>
<!-- Node6 -->
<g id="node6" class="node"><title>Node6</title>
<g id="a_node6"><a xlink:href="CoreMacros_8hpp.html" target="_top" xlink:title="Core/CoreMacros.hpp">
<polygon fill="white" stroke="black" points="1088.5,-56.5 1088.5,-75.5 1208.5,-75.5 1208.5,-56.5 1088.5,-56.5"/>
<text text-anchor="middle" x="1148.5" y="-63.5" font-family="Helvetica,sans-Serif" font-size="10.00">Core/CoreMacros.hpp</text>
</a>
</g>
</g>
<!-- Node5&#45;&gt;Node6 -->
<g id="edge5" class="edge"><title>Node5&#45;&gt;Node6</title>
<path fill="none" stroke="midnightblue" d="M1174.26,-470.48C1190.62,-463.21 1211.93,-451.182 1224.5,-434 1245.06,-405.901 1243.5,-392.817 1243.5,-358 1243.5,-358 1243.5,-358 1243.5,-182.5 1243.5,-137.518 1199.99,-100.521 1171.86,-81.3025"/>
<polygon fill="midnightblue" stroke="midnightblue" points="1173.62,-78.2713 1163.34,-75.7 1169.78,-84.1196 1173.62,-78.2713"/>
</g>
<!-- Node7 -->
<g id="node7" class="node"><title>Node7</title>
<polygon fill="white" stroke="#bfbfbf" points="1190.5,-0.5 1190.5,-19.5 1242.5,-19.5 1242.5,-0.5 1190.5,-0.5"/>
<text text-anchor="middle" x="1216.5" y="-7.5" font-family="Helvetica,sans-Serif" font-size="10.00">cassert</text>
</g>
<!-- Node6&#45;&gt;Node7 -->
<g id="edge6" class="edge"><title>Node6&#45;&gt;Node7</title>
<path fill="none" stroke="midnightblue" d="M1159.43,-56.324C1169.67,-48.1849 1185.22,-35.8395 1197.5,-26.0874"/>
<polygon fill="midnightblue" stroke="midnightblue" points="1199.72,-28.7937 1205.38,-19.8339 1195.37,-23.3119 1199.72,-28.7937"/>
</g>
<!-- Node8 -->
<g id="node8" class="node"><title>Node8</title>
<polygon fill="white" stroke="#bfbfbf" points="987,-0.5 987,-19.5 1032,-19.5 1032,-0.5 987,-0.5"/>
<text text-anchor="middle" x="1009.5" y="-7.5" font-family="Helvetica,sans-Serif" font-size="10.00">cstdio</text>
</g>
<!-- Node6&#45;&gt;Node8 -->
<g id="edge7" class="edge"><title>Node6&#45;&gt;Node8</title>
<path fill="none" stroke="midnightblue" d="M1126.48,-56.4435C1103.4,-47.4776 1066.94,-33.314 1040.86,-23.1827"/>
<polygon fill="midnightblue" stroke="midnightblue" points="1042.01,-19.8753 1031.42,-19.5164 1039.48,-26.4002 1042.01,-19.8753"/>
</g>
<!-- Node6&#45;&gt;Node9 -->
<g id="edge8" class="edge"><title>Node6&#45;&gt;Node9</title>
<path fill="none" stroke="midnightblue" d="M1171,-56.4435C1194.58,-47.4776 1231.82,-33.314 1258.46,-23.1827"/>
<polygon fill="midnightblue" stroke="midnightblue" points="1260,-26.3424 1268.1,-19.5164 1257.51,-19.7995 1260,-26.3424"/>
</g>
<!-- Node10 -->
<g id="node10" class="node"><title>Node10</title>
<polygon fill="white" stroke="#bfbfbf" points="1050.5,-0.5 1050.5,-19.5 1106.5,-19.5 1106.5,-0.5 1050.5,-0.5"/>
<text text-anchor="middle" x="1078.5" y="-7.5" font-family="Helvetica,sans-Serif" font-size="10.00">sstream</text>
</g>
<!-- Node6&#45;&gt;Node10 -->
<g id="edge9" class="edge"><title>Node6&#45;&gt;Node10</title>
<path fill="none" stroke="midnightblue" d="M1137.25,-56.324C1126.7,-48.1849 1110.7,-35.8395 1098.06,-26.0874"/>
<polygon fill="midnightblue" stroke="midnightblue" points="1100.01,-23.1707 1089.95,-19.8339 1095.73,-28.7132 1100.01,-23.1707"/>
</g>
<!-- Node11 -->
<g id="node11" class="node"><title>Node11</title>
<polygon fill="white" stroke="#bfbfbf" points="1124.5,-0.5 1124.5,-19.5 1172.5,-19.5 1172.5,-0.5 1124.5,-0.5"/>
<text text-anchor="middle" x="1148.5" y="-7.5" font-family="Helvetica,sans-Serif" font-size="10.00">thread</text>
</g>
<!-- Node6&#45;&gt;Node11 -->
<g id="edge10" class="edge"><title>Node6&#45;&gt;Node11</title>
<path fill="none" stroke="midnightblue" d="M1148.5,-56.083C1148.5,-49.0059 1148.5,-38.8611 1148.5,-29.9865"/>
<polygon fill="midnightblue" stroke="midnightblue" points="1152,-29.751 1148.5,-19.7511 1145,-29.7511 1152,-29.751"/>
</g>
<!-- Node13 -->
<g id="node13" class="node"><title>Node13</title>
<g id="a_node13"><a xlink:href="RaEngine_8hpp.html" target="_top" xlink:title="Engine/RaEngine.hpp">
<polygon fill="white" stroke="black" points="0,-347.5 0,-366.5 117,-366.5 117,-347.5 0,-347.5"/>
<text text-anchor="middle" x="58.5" y="-354.5" font-family="Helvetica,sans-Serif" font-size="10.00">Engine/RaEngine.hpp</text>
</a>
</g>
</g>
<!-- Node12&#45;&gt;Node13 -->
<g id="edge12" class="edge"><title>Node12&#45;&gt;Node13</title>
<path fill="none" stroke="midnightblue" d="M859.882,-477.855C668.221,-474.66 196.454,-463.832 131.5,-434 104.034,-421.385 81.6167,-393.402 69.1699,-375.139"/>
<polygon fill="midnightblue" stroke="midnightblue" points="71.9956,-373.065 63.5959,-366.607 66.1354,-376.893 71.9956,-373.065"/>
</g>
<!-- Node14 -->
<g id="node14" class="node"><title>Node14</title>
<polygon fill="white" stroke="#bfbfbf" points="797,-347.5 797,-366.5 838,-366.5 838,-347.5 797,-347.5"/>
<text text-anchor="middle" x="817.5" y="-354.5" font-family="Helvetica,sans-Serif" font-size="10.00">array</text>
</g>
<!-- Node12&#45;&gt;Node14 -->
<g id="edge14" class="edge"><title>Node12&#45;&gt;Node14</title>
<path fill="none" stroke="midnightblue" d="M903.989,-470.378C883.051,-463.688 857.776,-452.371 841.5,-434 827.335,-418.012 821.526,-393.67 819.147,-376.863"/>
<polygon fill="midnightblue" stroke="midnightblue" points="822.591,-376.168 817.987,-366.626 815.635,-376.957 822.591,-376.168"/>
</g>
<!-- Node15 -->
<g id="node15" class="node"><title>Node15</title>
<polygon fill="white" stroke="#bfbfbf" points="1000.5,-347.5 1000.5,-366.5 1050.5,-366.5 1050.5,-347.5 1000.5,-347.5"/>
<text text-anchor="middle" x="1025.5" y="-354.5" font-family="Helvetica,sans-Serif" font-size="10.00">chrono</text>
</g>
<!-- Node12&#45;&gt;Node15 -->
<g id="edge15" class="edge"><title>Node12&#45;&gt;Node15</title>
<path fill="none" stroke="midnightblue" d="M959.519,-470.459C974.207,-462.908 993.921,-450.522 1005.5,-434 1017.46,-416.933 1022.27,-393.175 1024.2,-376.787"/>
<polygon fill="midnightblue" stroke="midnightblue" points="1027.69,-377.074 1025.13,-366.792 1020.72,-376.424 1027.69,-377.074"/>
</g>
<!-- Node16 -->
<g id="node16" class="node"><title>Node16</title>
<polygon fill="white" stroke="#bfbfbf" points="1054,-409 1054,-428 1111,-428 1111,-409 1054,-409"/>
<text text-anchor="middle" x="1082.5" y="-416" font-family="Helvetica,sans-Serif" font-size="10.00">memory</text>
</g>
<!-- Node12&#45;&gt;Node16 -->
<g id="edge16" class="edge"><title>Node12&#45;&gt;Node16</title>
<path fill="none" stroke="midnightblue" d="M960.845,-470.475C984.887,-460.401 1025.1,-443.553 1052.66,-432.002"/>
<polygon fill="midnightblue" stroke="midnightblue" points="1054.32,-435.102 1062.19,-428.009 1051.62,-428.646 1054.32,-435.102"/>
</g>
<!-- Node17 -->
<g id="node17" class="node"><title>Node17</title>
<polygon fill="white" stroke="#bfbfbf" points="1168,-409 1168,-428 1215,-428 1215,-409 1168,-409"/>
<text text-anchor="middle" x="1191.5" y="-416" font-family="Helvetica,sans-Serif" font-size="10.00">mutex</text>
</g>
<!-- Node12&#45;&gt;Node17 -->
<g id="edge17" class="edge"><title>Node12&#45;&gt;Node17</title>
<path fill="none" stroke="midnightblue" d="M991.841,-470.48C1035.34,-462.711 1099.12,-450.014 1153.5,-434 1156.08,-433.241 1158.73,-432.387 1161.38,-431.483"/>
<polygon fill="midnightblue" stroke="midnightblue" points="1162.58,-434.768 1170.79,-428.072 1160.2,-428.186 1162.58,-434.768"/>
</g>
<!-- Node18 -->
<g id="node18" class="node"><title>Node18</title>
<polygon fill="white" stroke="#bfbfbf" points="179,-112.5 179,-131.5 226,-131.5 226,-112.5 179,-112.5"/>
<text text-anchor="middle" x="202.5" y="-119.5" font-family="Helvetica,sans-Serif" font-size="10.00">vector</text>
</g>
<!-- Node12&#45;&gt;Node18 -->
<g id="edge18" class="edge"><title>Node12&#45;&gt;Node18</title>
<path fill="none" stroke="midnightblue" d="M859.896,-475.105C657.784,-464.268 145.5,-429.725 145.5,-358 145.5,-358 145.5,-358 145.5,-244 145.5,-203.59 171.84,-162.206 188.709,-139.845"/>
<polygon fill="midnightblue" stroke="midnightblue" points="191.645,-141.772 195.048,-131.738 186.131,-137.46 191.645,-141.772"/>
</g>
<!-- Node19 -->
<g id="node19" class="node"><title>Node19</title>
<g id="a_node19"><a xlink:href="Types_8hpp.html" target="_top" xlink:title="Core/Types.hpp">
<polygon fill="white" stroke="black" points="832,-174 832,-193 921,-193 921,-174 832,-174"/>
<text text-anchor="middle" x="876.5" y="-181" font-family="Helvetica,sans-Serif" font-size="10.00">Core/Types.hpp</text>
</a>
</g>
</g>
<!-- Node12&#45;&gt;Node19 -->
<g id="edge19" class="edge"><title>Node12&#45;&gt;Node19</title>
<path fill="none" stroke="midnightblue" d="M918.041,-470.382C902.731,-463.184 883.637,-451.288 874.5,-434 868.062,-421.819 873.621,-416.75 874.5,-403 878.731,-336.817 889.269,-321.183 893.5,-255 894.067,-246.129 894.937,-243.772 893.5,-235 891.696,-223.989 887.819,-212.144 884.222,-202.695"/>
<polygon fill="midnightblue" stroke="midnightblue" points="887.387,-201.186 880.406,-193.217 880.894,-203.801 887.387,-201.186"/>
</g>
<!-- Node24 -->
<g id="node24" class="node"><title>Node24</title>
<g id="a_node24"><a xlink:href="Color_8hpp.html" target="_top" xlink:title="Core/Utils/Color.hpp">
<polygon fill="white" stroke="black" points="1000,-291.5 1000,-310.5 1111,-310.5 1111,-291.5 1000,-291.5"/>
<text text-anchor="middle" x="1055.5" y="-298.5" font-family="Helvetica,sans-Serif" font-size="10.00">Core/Utils/Color.hpp</text>
</a>
</g>
</g>
<!-- Node12&#45;&gt;Node24 -->
<g id="edge25" class="edge"><title>Node12&#45;&gt;Node24</title>
<path fill="none" stroke="midnightblue" d="M1009.43,-470.475C1053.84,-463.404 1105.76,-451.626 1119.5,-434 1148.72,-396.526 1101.35,-343.558 1073.51,-317.588"/>
<polygon fill="midnightblue" stroke="midnightblue" points="1075.69,-314.842 1065.93,-310.727 1071,-320.032 1075.69,-314.842"/>
</g>
<!-- Node26 -->
<g id="node26" class="node"><title>Node26</title>
<g id="a_node26"><a xlink:href="Timer_8hpp.html" target="_top" xlink:title="Core/Utils/Timer.hpp">
<polygon fill="white" stroke="black" points="884,-409 884,-428 997,-428 997,-409 884,-409"/>
<text text-anchor="middle" x="940.5" y="-416" font-family="Helvetica,sans-Serif" font-size="10.00">Core/Utils/Timer.hpp</text>
</a>
</g>
</g>
<!-- Node12&#45;&gt;Node26 -->
<g id="edge30" class="edge"><title>Node12&#45;&gt;Node26</title>
<path fill="none" stroke="midnightblue" d="M940.5,-470.475C940.5,-462.08 940.5,-448.981 940.5,-438.163"/>
<polygon fill="midnightblue" stroke="midnightblue" points="944,-438.009 940.5,-428.009 937,-438.009 944,-438.009"/>
</g>
<!-- Node27 -->
<g id="node27" class="node"><title>Node27</title>
<g id="a_node27"><a xlink:href="DisplayableObject_8hpp.html" target="_top" xlink:title="Engine/Renderer/Displayable\l/DisplayableObject.hpp">
<polygon fill="white" stroke="black" points="579.5,-403.5 579.5,-433.5 731.5,-433.5 731.5,-403.5 579.5,-403.5"/>
<text text-anchor="start" x="587.5" y="-421.5" font-family="Helvetica,sans-Serif" font-size="10.00">Engine/Renderer/Displayable</text>
<text text-anchor="middle" x="655.5" y="-410.5" font-family="Helvetica,sans-Serif" font-size="10.00">/DisplayableObject.hpp</text>
</a>
</g>
</g>
<!-- Node12&#45;&gt;Node27 -->
<g id="edge33" class="edge"><title>Node12&#45;&gt;Node27</title>
<path fill="none" stroke="midnightblue" d="M899.666,-470.475C856.197,-461.4 786.392,-446.826 732.53,-435.582"/>
<polygon fill="midnightblue" stroke="midnightblue" points="733.173,-432.141 722.669,-433.523 731.743,-438.993 733.173,-432.141"/>
</g>
<!-- Node13&#45;&gt;Node6 -->
<g id="edge13" class="edge"><title>Node13&#45;&gt;Node6</title>
<path fill="none" stroke="midnightblue" d="M61.7367,-347.301C68.2877,-328.889 82.5,-284.507 82.5,-246 82.5,-246 82.5,-246 82.5,-182.5 82.5,-132.732 122.983,-129.694 169.5,-112 253.657,-79.9889 867.984,-70.1488 1078.19,-67.701"/>
<polygon fill="midnightblue" stroke="midnightblue" points="1078.52,-71.1975 1088.48,-67.5833 1078.44,-64.1979 1078.52,-71.1975"/>
</g>
<!-- Node20 -->
<g id="node20" class="node"><title>Node20</title>
<g id="a_node20"><a xlink:href="RaCore_8hpp.html" target="_top" xlink:title="Core/RaCore.hpp">
<polygon fill="white" stroke="black" points="674.5,-112.5 674.5,-131.5 772.5,-131.5 772.5,-112.5 674.5,-112.5"/>
<text text-anchor="middle" x="723.5" y="-119.5" font-family="Helvetica,sans-Serif" font-size="10.00">Core/RaCore.hpp</text>
</a>
</g>
</g>
<!-- Node19&#45;&gt;Node20 -->
<g id="edge20" class="edge"><title>Node19&#45;&gt;Node20</title>
<path fill="none" stroke="midnightblue" d="M854.579,-173.975C828.448,-163.813 784.588,-146.756 754.87,-135.2"/>
<polygon fill="midnightblue" stroke="midnightblue" points="755.969,-131.872 745.381,-131.509 753.432,-138.396 755.969,-131.872"/>
</g>
<!-- Node21 -->
<g id="node21" class="node"><title>Node21</title>
<polygon fill="white" stroke="#bfbfbf" points="914.5,-112.5 914.5,-131.5 982.5,-131.5 982.5,-112.5 914.5,-112.5"/>
<text text-anchor="middle" x="948.5" y="-119.5" font-family="Helvetica,sans-Serif" font-size="10.00">Eigen/Core</text>
</g>
<!-- Node19&#45;&gt;Node21 -->
<g id="edge22" class="edge"><title>Node19&#45;&gt;Node21</title>
<path fill="none" stroke="midnightblue" d="M886.816,-173.975C898.151,-164.608 916.573,-149.384 930.339,-138.008"/>
<polygon fill="midnightblue" stroke="midnightblue" points="932.724,-140.577 938.203,-131.509 928.265,-135.181 932.724,-140.577"/>
</g>
<!-- Node22 -->
<g id="node22" class="node"><title>Node22</title>
<polygon fill="white" stroke="#bfbfbf" points="1000.5,-112.5 1000.5,-131.5 1094.5,-131.5 1094.5,-112.5 1000.5,-112.5"/>
<text text-anchor="middle" x="1047.5" y="-119.5" font-family="Helvetica,sans-Serif" font-size="10.00">Eigen/Geometry</text>
</g>
<!-- Node19&#45;&gt;Node22 -->
<g id="edge23" class="edge"><title>Node19&#45;&gt;Node22</title>
<path fill="none" stroke="midnightblue" d="M901,-173.975C930.46,-163.725 980.079,-146.459 1013.3,-134.899"/>
<polygon fill="midnightblue" stroke="midnightblue" points="1014.75,-138.101 1023.05,-131.509 1012.45,-131.49 1014.75,-138.101"/>
</g>
<!-- Node23 -->
<g id="node23" class="node"><title>Node23</title>
<polygon fill="white" stroke="#bfbfbf" points="816.5,-112.5 816.5,-131.5 896.5,-131.5 896.5,-112.5 816.5,-112.5"/>
<text text-anchor="middle" x="856.5" y="-119.5" font-family="Helvetica,sans-Serif" font-size="10.00">Eigen/Sparse</text>
</g>
<!-- Node19&#45;&gt;Node23 -->
<g id="edge24" class="edge"><title>Node19&#45;&gt;Node23</title>
<path fill="none" stroke="midnightblue" d="M873.634,-173.975C870.783,-165.492 866.317,-152.204 862.659,-141.322"/>
<polygon fill="midnightblue" stroke="midnightblue" points="865.864,-139.873 859.36,-131.509 859.229,-142.103 865.864,-139.873"/>
</g>
<!-- Node20&#45;&gt;Node6 -->
<g id="edge21" class="edge"><title>Node20&#45;&gt;Node6</title>
<path fill="none" stroke="midnightblue" d="M772.668,-114.753C847.913,-105.192 991.957,-86.8902 1078.21,-75.9304"/>
<polygon fill="midnightblue" stroke="midnightblue" points="1078.7,-79.3967 1088.18,-74.6641 1077.82,-72.4526 1078.7,-79.3967"/>
</g>
<!-- Node24&#45;&gt;Node6 -->
<g id="edge26" class="edge"><title>Node24&#45;&gt;Node6</title>
<path fill="none" stroke="midnightblue" d="M1086.92,-291.428C1105.24,-284.683 1126.94,-273.291 1138.5,-255 1172.22,-201.645 1160.76,-121.815 1153.09,-85.8075"/>
<polygon fill="midnightblue" stroke="midnightblue" points="1156.43,-84.7178 1150.8,-75.7458 1149.61,-86.2736 1156.43,-84.7178"/>
</g>
<!-- Node24&#45;&gt;Node21 -->
<g id="edge27" class="edge"><title>Node24&#45;&gt;Node21</title>
<path fill="none" stroke="midnightblue" d="M1051.64,-291.324C1041.87,-269.71 1014.85,-212.033 985.5,-168 978.839,-158.006 970.396,-147.601 963.258,-139.316"/>
<polygon fill="midnightblue" stroke="midnightblue" points="965.658,-136.746 956.421,-131.557 960.406,-141.374 965.658,-136.746"/>
</g>
<!-- Node24&#45;&gt;Node22 -->
<g id="edge28" class="edge"><title>Node24&#45;&gt;Node22</title>
<path fill="none" stroke="midnightblue" d="M1055.11,-291.463C1053.89,-264.428 1050.09,-180.239 1048.36,-142.109"/>
<polygon fill="midnightblue" stroke="midnightblue" points="1051.85,-141.7 1047.9,-131.868 1044.86,-142.016 1051.85,-141.7"/>
</g>
<!-- Node25 -->
<g id="node25" class="node"><title>Node25</title>
<polygon fill="white" stroke="#bfbfbf" points="1075.5,-235.5 1075.5,-254.5 1129.5,-254.5 1129.5,-235.5 1075.5,-235.5"/>
<text text-anchor="middle" x="1102.5" y="-242.5" font-family="Helvetica,sans-Serif" font-size="10.00">random</text>
</g>
<!-- Node24&#45;&gt;Node25 -->
<g id="edge29" class="edge"><title>Node24&#45;&gt;Node25</title>
<path fill="none" stroke="midnightblue" d="M1063.26,-291.083C1070.04,-283.298 1080.04,-271.801 1088.26,-262.367"/>
<polygon fill="midnightblue" stroke="midnightblue" points="1090.96,-264.592 1094.88,-254.751 1085.68,-259.996 1090.96,-264.592"/>
</g>
<!-- Node26&#45;&gt;Node15 -->
<g id="edge32" class="edge"><title>Node26&#45;&gt;Node15</title>
<path fill="none" stroke="midnightblue" d="M952.678,-408.975C966.312,-399.431 988.632,-383.807 1004.97,-372.368"/>
<polygon fill="midnightblue" stroke="midnightblue" points="1007.16,-375.111 1013.34,-366.509 1003.14,-369.376 1007.16,-375.111"/>
</g>
<!-- Node26&#45;&gt;Node20 -->
<g id="edge31" class="edge"><title>Node26&#45;&gt;Node20</title>
<path fill="none" stroke="midnightblue" d="M944.553,-408.731C952.956,-389.72 971.5,-343.108 971.5,-302 971.5,-302 971.5,-302 971.5,-244 971.5,-205.407 960.443,-191.063 929.5,-168 906.661,-150.977 835.462,-138.021 783.14,-130.478"/>
<polygon fill="midnightblue" stroke="midnightblue" points="783.338,-126.972 772.947,-129.042 782.361,-133.903 783.338,-126.972"/>
</g>
<!-- Node27&#45;&gt;Node13 -->
<g id="edge34" class="edge"><title>Node27&#45;&gt;Node13</title>
<path fill="none" stroke="midnightblue" d="M579.283,-409.904C462.23,-398.238 239.969,-376.086 127.45,-364.872"/>
<polygon fill="midnightblue" stroke="midnightblue" points="127.537,-361.363 117.24,-363.854 126.843,-368.329 127.537,-361.363"/>
</g>
<!-- Node27&#45;&gt;Node14 -->
<g id="edge35" class="edge"><title>Node27&#45;&gt;Node14</title>
<path fill="none" stroke="midnightblue" d="M693.892,-403.399C722.432,-392.917 760.839,-378.811 787.226,-369.119"/>
<polygon fill="midnightblue" stroke="midnightblue" points="788.524,-372.371 796.705,-365.638 786.111,-365.8 788.524,-372.371"/>
</g>
<!-- Node27&#45;&gt;Node18 -->
<g id="edge37" class="edge"><title>Node27&#45;&gt;Node18</title>
<path fill="none" stroke="midnightblue" d="M579.403,-414.51C445.898,-407.174 183.5,-382.513 183.5,-302 183.5,-302 183.5,-302 183.5,-244 183.5,-207.286 192.142,-165.056 197.77,-141.45"/>
<polygon fill="midnightblue" stroke="midnightblue" points="201.17,-142.279 200.17,-131.732 194.374,-140.601 201.17,-142.279"/>
</g>
<!-- Node27&#45;&gt;Node24 -->
<g id="edge63" class="edge"><title>Node27&#45;&gt;Node24</title>
<path fill="none" stroke="midnightblue" d="M681.862,-403.353C719.974,-382.909 786.101,-347.477 787.5,-347 854.344,-324.22 934.643,-312.694 989.811,-307.05"/>
<polygon fill="midnightblue" stroke="midnightblue" points="990.202,-310.529 999.81,-306.064 989.515,-303.563 990.202,-310.529"/>
</g>
<!-- Node28 -->
<g id="node28" class="node"><title>Node28</title>
<polygon fill="white" stroke="#bfbfbf" points="702.5,-347.5 702.5,-366.5 740.5,-366.5 740.5,-347.5 702.5,-347.5"/>
<text text-anchor="middle" x="721.5" y="-354.5" font-family="Helvetica,sans-Serif" font-size="10.00">map</text>
</g>
<!-- Node27&#45;&gt;Node28 -->
<g id="edge36" class="edge"><title>Node27&#45;&gt;Node28</title>
<path fill="none" stroke="midnightblue" d="M671.141,-403.399C681.127,-394.397 694.078,-382.721 704.345,-373.465"/>
<polygon fill="midnightblue" stroke="midnightblue" points="706.813,-375.953 711.896,-366.658 702.125,-370.754 706.813,-375.953"/>
</g>
<!-- Node29 -->
<g id="node29" class="node"><title>Node29</title>
<g id="a_node29"><a xlink:href="VectorArray_8hpp.html" target="_top" xlink:title="Core/Containers/VectorArray.hpp">
<polygon fill="white" stroke="black" points="237,-235.5 237,-254.5 410,-254.5 410,-235.5 237,-235.5"/>
<text text-anchor="middle" x="323.5" y="-242.5" font-family="Helvetica,sans-Serif" font-size="10.00">Core/Containers/VectorArray.hpp</text>
</a>
</g>
</g>
<!-- Node27&#45;&gt;Node29 -->
<g id="edge38" class="edge"><title>Node27&#45;&gt;Node29</title>
<path fill="none" stroke="midnightblue" d="M579.479,-416.574C501.77,-411.096 384.38,-389.312 325.5,-311 315.649,-297.898 316.329,-278.751 318.763,-264.629"/>
<polygon fill="midnightblue" stroke="midnightblue" points="322.24,-265.105 320.923,-254.592 315.397,-263.632 322.24,-265.105"/>
</g>
<!-- Node32 -->
<g id="node32" class="node"><title>Node32</title>
<g id="a_node32"><a xlink:href="TriangleMesh_8hpp.html" target="_top" xlink:title="Core/Geometry/TriangleMesh.hpp">
<polygon fill="white" stroke="black" points="508.5,-347.5 508.5,-366.5 684.5,-366.5 684.5,-347.5 508.5,-347.5"/>
<text text-anchor="middle" x="596.5" y="-354.5" font-family="Helvetica,sans-Serif" font-size="10.00">Core/Geometry/TriangleMesh.hpp</text>
</a>
</g>
</g>
<!-- Node27&#45;&gt;Node32 -->
<g id="edge46" class="edge"><title>Node27&#45;&gt;Node32</title>
<path fill="none" stroke="midnightblue" d="M641.518,-403.399C632.768,-394.575 621.471,-383.183 612.383,-374.018"/>
<polygon fill="midnightblue" stroke="midnightblue" points="614.612,-371.294 605.085,-366.658 609.641,-376.223 614.612,-371.294"/>
</g>
<!-- Node29&#45;&gt;Node18 -->
<g id="edge45" class="edge"><title>Node29&#45;&gt;Node18</title>
<path fill="none" stroke="midnightblue" d="M298.436,-235.403C280.19,-228.093 255.902,-216.05 239.5,-199 223.643,-182.517 213.38,-157.933 207.776,-141.223"/>
<polygon fill="midnightblue" stroke="midnightblue" points="211.076,-140.046 204.755,-131.543 204.394,-142.132 211.076,-140.046"/>
</g>
<!-- Node29&#45;&gt;Node19 -->
<g id="edge44" class="edge"><title>Node29&#45;&gt;Node19</title>
<path fill="none" stroke="midnightblue" d="M402.731,-235.475C516.522,-223.232 723.323,-200.981 821.686,-190.398"/>
<polygon fill="midnightblue" stroke="midnightblue" points="822.144,-193.869 831.712,-189.319 821.395,-186.909 822.144,-193.869"/>
</g>
<!-- Node29&#45;&gt;Node20 -->
<g id="edge43" class="edge"><title>Node29&#45;&gt;Node20</title>
<path fill="none" stroke="midnightblue" d="M341.547,-235.445C358.75,-227.008 385.124,-213.329 406.5,-199 424.604,-186.864 424.617,-176.929 444.5,-168 515.644,-136.049 606.005,-126.427 664.29,-123.723"/>
<polygon fill="midnightblue" stroke="midnightblue" points="664.582,-127.214 674.43,-123.307 664.295,-120.22 664.582,-127.214"/>
</g>
<!-- Node30 -->
<g id="node30" class="node"><title>Node30</title>
<g id="a_node30"><a xlink:href="AlignedStdVector_8hpp.html" target="_top" xlink:title="Core/Containers/AlignedStd\lVector.hpp">
<polygon fill="white" stroke="black" points="249,-168.5 249,-198.5 398,-198.5 398,-168.5 249,-168.5"/>
<text text-anchor="start" x="257" y="-186.5" font-family="Helvetica,sans-Serif" font-size="10.00">Core/Containers/AlignedStd</text>
<text text-anchor="middle" x="323.5" y="-175.5" font-family="Helvetica,sans-Serif" font-size="10.00">Vector.hpp</text>
</a>
</g>
</g>
<!-- Node29&#45;&gt;Node30 -->
<g id="edge39" class="edge"><title>Node29&#45;&gt;Node30</title>
<path fill="none" stroke="midnightblue" d="M323.5,-235.475C323.5,-228.471 323.5,-218.192 323.5,-208.696"/>
<polygon fill="midnightblue" stroke="midnightblue" points="327,-208.523 323.5,-198.523 320,-208.523 327,-208.523"/>
</g>
<!-- Node30&#45;&gt;Node18 -->
<g id="edge42" class="edge"><title>Node30&#45;&gt;Node18</title>
<path fill="none" stroke="midnightblue" d="M294.825,-168.399C274.976,-158.639 248.739,-145.737 229.308,-136.183"/>
<polygon fill="midnightblue" stroke="midnightblue" points="230.625,-132.93 220.107,-131.658 227.536,-139.211 230.625,-132.93"/>
</g>
<!-- Node30&#45;&gt;Node20 -->
<g id="edge40" class="edge"><title>Node30&#45;&gt;Node20</title>
<path fill="none" stroke="midnightblue" d="M398.376,-170.058C402.815,-169.352 407.215,-168.662 411.5,-168 499.365,-154.426 601.358,-139.958 664.164,-131.197"/>
<polygon fill="midnightblue" stroke="midnightblue" points="664.858,-134.634 674.28,-129.788 663.893,-127.701 664.858,-134.634"/>
</g>
<!-- Node31 -->
<g id="node31" class="node"><title>Node31</title>
<polygon fill="white" stroke="#bfbfbf" points="277,-112.5 277,-131.5 370,-131.5 370,-112.5 277,-112.5"/>
<text text-anchor="middle" x="323.5" y="-119.5" font-family="Helvetica,sans-Serif" font-size="10.00">Eigen/StdVector</text>
</g>
<!-- Node30&#45;&gt;Node31 -->
<g id="edge41" class="edge"><title>Node30&#45;&gt;Node31</title>
<path fill="none" stroke="midnightblue" d="M323.5,-168.399C323.5,-160.466 323.5,-150.458 323.5,-141.858"/>
<polygon fill="midnightblue" stroke="midnightblue" points="327,-141.658 323.5,-131.658 320,-141.658 327,-141.658"/>
</g>
<!-- Node32&#45;&gt;Node19 -->
<g id="edge52" class="edge"><title>Node32&#45;&gt;Node19</title>
<path fill="none" stroke="midnightblue" d="M636.121,-347.488C706.173,-331.548 847.2,-295.162 875.5,-255 886.053,-240.024 884.608,-218.461 881.587,-203.132"/>
<polygon fill="midnightblue" stroke="midnightblue" points="884.96,-202.186 879.258,-193.256 878.147,-203.793 884.96,-202.186"/>
</g>
<!-- Node32&#45;&gt;Node20 -->
<g id="edge51" class="edge"><title>Node32&#45;&gt;Node20</title>
<path fill="none" stroke="midnightblue" d="M619.954,-347.408C635.661,-340.28 655.119,-328.458 664.5,-311 680.577,-281.082 643.952,-266.561 656.5,-235 664.631,-214.549 678.38,-217.37 690.5,-199 702.472,-180.855 711.809,-157.648 717.451,-141.679"/>
<polygon fill="midnightblue" stroke="midnightblue" points="720.859,-142.525 720.752,-131.93 714.229,-140.279 720.859,-142.525"/>
</g>
<!-- Node32&#45;&gt;Node24 -->
<g id="edge60" class="edge"><title>Node32&#45;&gt;Node24</title>
<path fill="none" stroke="midnightblue" d="M668.977,-347.473C757.218,-337.092 904.96,-319.711 989.945,-309.712"/>
<polygon fill="midnightblue" stroke="midnightblue" points="990.467,-313.175 999.99,-308.531 989.649,-306.223 990.467,-313.175"/>
</g>
<!-- Node32&#45;&gt;Node29 -->
<g id="edge47" class="edge"><title>Node32&#45;&gt;Node29</title>
<path fill="none" stroke="midnightblue" d="M508.184,-350.35C444.496,-344.485 365.661,-332.958 341.5,-311 328.656,-299.327 324.651,-279.382 323.555,-264.656"/>
<polygon fill="midnightblue" stroke="midnightblue" points="327.052,-264.501 323.186,-254.636 320.057,-264.758 327.052,-264.501"/>
</g>
<!-- Node33 -->
<g id="node33" class="node"><title>Node33</title>
<g id="a_node33"><a xlink:href="AbstractGeometry_8hpp.html" target="_top" xlink:title="Core/Geometry/AbstractGeometry.hpp">
<polygon fill="white" stroke="black" points="666,-235.5 666,-254.5 867,-254.5 867,-235.5 666,-235.5"/>
<text text-anchor="middle" x="766.5" y="-242.5" font-family="Helvetica,sans-Serif" font-size="10.00">Core/Geometry/AbstractGeometry.hpp</text>
</a>
</g>
</g>
<!-- Node32&#45;&gt;Node33 -->
<g id="edge48" class="edge"><title>Node32&#45;&gt;Node33</title>
<path fill="none" stroke="midnightblue" d="M622.496,-347.386C643.903,-339.64 674.523,-327.025 698.5,-311 719.385,-297.042 739.721,-276.392 752.628,-262.13"/>
<polygon fill="midnightblue" stroke="midnightblue" points="755.312,-264.379 759.318,-254.57 750.07,-259.74 755.312,-264.379"/>
</g>
<!-- Node34 -->
<g id="node34" class="node"><title>Node34</title>
<g id="a_node34"><a xlink:href="Attribs_8hpp.html" target="_top" xlink:title="Core/Utils/Attribs.hpp">
<polygon fill="white" stroke="black" points="537,-291.5 537,-310.5 656,-310.5 656,-291.5 537,-291.5"/>
<text text-anchor="middle" x="596.5" y="-298.5" font-family="Helvetica,sans-Serif" font-size="10.00">Core/Utils/Attribs.hpp</text>
</a>
</g>
</g>
<!-- Node32&#45;&gt;Node34 -->
<g id="edge53" class="edge"><title>Node32&#45;&gt;Node34</title>
<path fill="none" stroke="midnightblue" d="M596.5,-347.083C596.5,-340.006 596.5,-329.861 596.5,-320.986"/>
<polygon fill="midnightblue" stroke="midnightblue" points="600,-320.751 596.5,-310.751 593,-320.751 600,-320.751"/>
</g>
<!-- Node38 -->
<g id="node38" class="node"><title>Node38</title>
<g id="a_node38"><a xlink:href="TriangleMesh_8inl.html" target="_top" xlink:title="Core/Geometry/TriangleMesh.inl">
<polygon fill="white" stroke="black" points="350.5,-291.5 350.5,-310.5 518.5,-310.5 518.5,-291.5 350.5,-291.5"/>
<text text-anchor="middle" x="434.5" y="-298.5" font-family="Helvetica,sans-Serif" font-size="10.00">Core/Geometry/TriangleMesh.inl</text>
</a>
</g>
</g>
<!-- Node32&#45;&gt;Node38 -->
<g id="edge61" class="edge"><title>Node32&#45;&gt;Node38</title>
<path fill="none" stroke="midnightblue" d="M565.742,-347.444C536.623,-338.399 493.412,-324.064 464.538,-313.916"/>
<polygon fill="midnightblue" stroke="midnightblue" points="465.564,-310.566 454.969,-310.516 463.221,-317.162 465.564,-310.566"/>
</g>
<!-- Node33&#45;&gt;Node19 -->
<g id="edge50" class="edge"><title>Node33&#45;&gt;Node19</title>
<path fill="none" stroke="midnightblue" d="M782.26,-235.475C800.476,-225.622 830.673,-209.288 851.968,-197.77"/>
<polygon fill="midnightblue" stroke="midnightblue" points="853.638,-200.845 860.769,-193.009 850.308,-194.688 853.638,-200.845"/>
</g>
<!-- Node33&#45;&gt;Node20 -->
<g id="edge49" class="edge"><title>Node33&#45;&gt;Node20</title>
<path fill="none" stroke="midnightblue" d="M763.408,-235.298C756.434,-215.676 739.363,-167.638 729.965,-141.193"/>
<polygon fill="midnightblue" stroke="midnightblue" points="733.211,-139.874 726.564,-131.623 726.615,-142.218 733.211,-139.874"/>
</g>
<!-- Node34&#45;&gt;Node20 -->
<g id="edge55" class="edge"><title>Node34&#45;&gt;Node20</title>
<path fill="none" stroke="midnightblue" d="M598.772,-291.417C602.493,-278.395 610.768,-253.235 623.5,-235 637.004,-215.659 646.406,-216.246 662.5,-199 680.448,-179.768 699.096,-155.862 710.973,-140.054"/>
<polygon fill="midnightblue" stroke="midnightblue" points="713.968,-141.892 717.128,-131.779 708.351,-137.714 713.968,-141.892"/>
</g>
<!-- Node34&#45;&gt;Node29 -->
<g id="edge54" class="edge"><title>Node34&#45;&gt;Node29</title>
<path fill="none" stroke="midnightblue" d="M553.242,-291.444C505.319,-281.964 428.022,-266.675 376.5,-256.483"/>
<polygon fill="midnightblue" stroke="midnightblue" points="377.044,-253.023 366.555,-254.516 375.686,-259.89 377.044,-253.023"/>
</g>
<!-- Node35 -->
<g id="node35" class="node"><title>Node35</title>
<g id="a_node35"><a xlink:href="Index_8hpp.html" target="_top" xlink:title="Core/Utils/Index.hpp">
<polygon fill="white" stroke="black" points="458,-235.5 458,-254.5 571,-254.5 571,-235.5 458,-235.5"/>
<text text-anchor="middle" x="514.5" y="-242.5" font-family="Helvetica,sans-Serif" font-size="10.00">Core/Utils/Index.hpp</text>
</a>
</g>
</g>
<!-- Node34&#45;&gt;Node35 -->
<g id="edge56" class="edge"><title>Node34&#45;&gt;Node35</title>
<path fill="none" stroke="midnightblue" d="M583.325,-291.324C570.653,-282.979 551.267,-270.212 536.294,-260.352"/>
<polygon fill="midnightblue" stroke="midnightblue" points="537.919,-257.231 527.642,-254.655 534.069,-263.078 537.919,-257.231"/>
</g>
<!-- Node35&#45;&gt;Node20 -->
<g id="edge57" class="edge"><title>Node35&#45;&gt;Node20</title>
<path fill="none" stroke="midnightblue" d="M542.474,-235.4C565.998,-227.581 600.08,-214.857 627.5,-199 643.643,-189.664 682.752,-157.426 705.764,-138.064"/>
<polygon fill="midnightblue" stroke="midnightblue" points="708.06,-140.706 713.441,-131.579 703.543,-135.358 708.06,-140.706"/>
</g>
<!-- Node36 -->
<g id="node36" class="node"><title>Node36</title>
<polygon fill="white" stroke="#bfbfbf" points="453.5,-174 453.5,-193 495.5,-193 495.5,-174 453.5,-174"/>
<text text-anchor="middle" x="474.5" y="-181" font-family="Helvetica,sans-Serif" font-size="10.00">limits</text>
</g>
<!-- Node35&#45;&gt;Node36 -->
<g id="edge58" class="edge"><title>Node35&#45;&gt;Node36</title>
<path fill="none" stroke="midnightblue" d="M508.769,-235.475C502.828,-226.638 493.383,-212.589 485.912,-201.475"/>
<polygon fill="midnightblue" stroke="midnightblue" points="488.704,-199.355 480.22,-193.009 482.895,-203.261 488.704,-199.355"/>
</g>
<!-- Node37 -->
<g id="node37" class="node"><title>Node37</title>
<g id="a_node37"><a xlink:href="Index_8inl.html" target="_top" xlink:title="Core/Utils/Index.inl">
<polygon fill="white" stroke="black" points="514,-174 514,-193 619,-193 619,-174 514,-174"/>
<text text-anchor="middle" x="566.5" y="-181" font-family="Helvetica,sans-Serif" font-size="10.00">Core/Utils/Index.inl</text>
</a>
</g>
</g>
<!-- Node35&#45;&gt;Node37 -->
<g id="edge59" class="edge"><title>Node35&#45;&gt;Node37</title>
<path fill="none" stroke="midnightblue" d="M521.95,-235.475C529.828,-226.462 542.445,-212.025 552.244,-200.812"/>
<polygon fill="midnightblue" stroke="midnightblue" points="555.118,-202.842 559.063,-193.009 549.847,-198.236 555.118,-202.842"/>
</g>
<!-- Node38&#45;&gt;Node32 -->
<g id="edge62" class="edge"><title>Node38&#45;&gt;Node32</title>
<path fill="none" stroke="midnightblue" d="M465.129,-310.516C494.206,-319.546 537.417,-333.879 566.334,-344.039"/>
<polygon fill="midnightblue" stroke="midnightblue" points="565.325,-347.395 575.919,-347.444 567.667,-340.799 565.325,-347.395"/>
</g>
</g>
</svg>
