<?xml version="1.0" encoding="UTF-8" standalone="no"?>
<!DOCTYPE svg PUBLIC "-//W3C//DTD SVG 1.1//EN"
 "http://www.w3.org/Graphics/SVG/1.1/DTD/svg11.dtd">
<!-- Generated by graphviz version 2.38.0 (20140413.2041)
 -->
<!-- Title: /home/travis/build/STORM&#45;IRIT/Radium&#45;Engine/Plugins/MeshFeatureTracking/src/UI/MeshFeatureTrackingUI.h Pages: 1 -->
<svg width="1154pt" height="643pt"
 viewBox="0.00 0.00 1154.00 643.00" xmlns="http://www.w3.org/2000/svg" xmlns:xlink="http://www.w3.org/1999/xlink">
<g id="graph0" class="graph" transform="scale(1 1) rotate(0) translate(4 639)">
<title>/home/travis/build/STORM&#45;IRIT/Radium&#45;Engine/Plugins/MeshFeatureTracking/src/UI/MeshFeatureTrackingUI.h</title>
<polygon fill="white" stroke="none" points="-4,4 -4,-639 1150,-639 1150,4 -4,4"/>
<!-- Node1 -->
<g id="node1" class="node"><title>Node1</title>
<polygon fill="#bfbfbf" stroke="black" points="513,-582.5 513,-634.5 681,-634.5 681,-582.5 513,-582.5"/>
<text text-anchor="start" x="521" y="-622.5" font-family="Helvetica,sans-Serif" font-size="10.00">/home/travis/build</text>
<text text-anchor="start" x="521" y="-611.5" font-family="Helvetica,sans-Serif" font-size="10.00">/STORM&#45;IRIT/Radium&#45;Engine</text>
<text text-anchor="start" x="521" y="-600.5" font-family="Helvetica,sans-Serif" font-size="10.00">/Plugins/MeshFeatureTracking</text>
<text text-anchor="middle" x="597" y="-589.5" font-family="Helvetica,sans-Serif" font-size="10.00">/src/UI/MeshFeatureTrackingUI.h</text>
</g>
<!-- Node2 -->
<g id="node2" class="node"><title>Node2</title>
<polygon fill="white" stroke="#bfbfbf" points="503,-526.5 503,-545.5 557,-545.5 557,-526.5 503,-526.5"/>
<text text-anchor="middle" x="530" y="-533.5" font-family="Helvetica,sans-Serif" font-size="10.00">QFrame</text>
</g>
<!-- Node1&#45;&gt;Node2 -->
<g id="edge1" class="edge"><title>Node1&#45;&gt;Node2</title>
<path fill="none" stroke="midnightblue" d="M573.19,-582.446C563.859,-572.628 553.432,-561.656 545.16,-552.952"/>
<polygon fill="midnightblue" stroke="midnightblue" points="547.69,-550.533 538.264,-545.695 542.616,-555.355 547.69,-550.533"/>
</g>
<!-- Node3 -->
<g id="node3" class="node"><title>Node3</title>
<g id="a_node3"><a xlink:href="PickingManager_8hpp.html" target="_top" xlink:title="GuiBase/Utils/PickingManager.hpp">
<polygon fill="white" stroke="black" points="575.5,-526.5 575.5,-545.5 754.5,-545.5 754.5,-526.5 575.5,-526.5"/>
<text text-anchor="middle" x="665" y="-533.5" font-family="Helvetica,sans-Serif" font-size="10.00">GuiBase/Utils/PickingManager.hpp</text>
</a>
</g>
</g>
<!-- Node1&#45;&gt;Node3 -->
<g id="edge2" class="edge"><title>Node1&#45;&gt;Node3</title>
<path fill="none" stroke="midnightblue" d="M621.166,-582.446C630.635,-572.628 641.218,-561.656 649.613,-552.952"/>
<polygon fill="midnightblue" stroke="midnightblue" points="652.19,-555.323 656.613,-545.695 647.151,-550.463 652.19,-555.323"/>
</g>
<!-- Node4 -->
<g id="node4" class="node"><title>Node4</title>
<g id="a_node4"><a xlink:href="RaGuiBase_8hpp.html" target="_top" xlink:title="GuiBase/RaGuiBase.hpp">
<polygon fill="white" stroke="black" points="776,-470.5 776,-489.5 908,-489.5 908,-470.5 776,-470.5"/>
<text text-anchor="middle" x="842" y="-477.5" font-family="Helvetica,sans-Serif" font-size="10.00">GuiBase/RaGuiBase.hpp</text>
</a>
</g>
</g>
<!-- Node3&#45;&gt;Node4 -->
<g id="edge3" class="edge"><title>Node3&#45;&gt;Node4</title>
<path fill="none" stroke="midnightblue" d="M693.046,-526.444C723.082,-517.28 770.913,-502.688 804.243,-492.519"/>
<polygon fill="midnightblue" stroke="midnightblue" points="805.542,-495.782 814.085,-489.516 803.499,-489.087 805.542,-495.782"/>
</g>
<!-- Node11 -->
<g id="node11" class="node"><title>Node11</title>
<g id="a_node11"><a xlink:href="Renderer_8hpp.html" target="_top" xlink:title="Engine/Renderer/Renderer.hpp">
<polygon fill="white" stroke="black" points="406.5,-470.5 406.5,-489.5 567.5,-489.5 567.5,-470.5 406.5,-470.5"/>
<text text-anchor="middle" x="487" y="-477.5" font-family="Helvetica,sans-Serif" font-size="10.00">Engine/Renderer/Renderer.hpp</text>
</a>
</g>
</g>
<!-- Node3&#45;&gt;Node11 -->
<g id="edge10" class="edge"><title>Node3&#45;&gt;Node11</title>
<path fill="none" stroke="midnightblue" d="M636.795,-526.444C606.59,-517.28 558.489,-502.688 524.971,-492.519"/>
<polygon fill="midnightblue" stroke="midnightblue" points="525.658,-489.07 515.073,-489.516 523.626,-495.769 525.658,-489.07"/>
</g>
<!-- Node5 -->
<g id="node5" class="node"><title>Node5</title>
<g id="a_node5"><a xlink:href="CoreMacros_8hpp.html" target="_top" xlink:title="Core/CoreMacros.hpp">
<polygon fill="white" stroke="black" points="916,-56.5 916,-75.5 1036,-75.5 1036,-56.5 916,-56.5"/>
<text text-anchor="middle" x="976" y="-63.5" font-family="Helvetica,sans-Serif" font-size="10.00">Core/CoreMacros.hpp</text>
</a>
</g>
</g>
<!-- Node4&#45;&gt;Node5 -->
<g id="edge4" class="edge"><title>Node4&#45;&gt;Node5</title>
<path fill="none" stroke="midnightblue" d="M889.705,-470.39C946.278,-457.111 1033,-425.713 1033,-358 1033,-358 1033,-358 1033,-182.5 1033,-143.783 1006.93,-104.604 990.048,-83.2979"/>
<polygon fill="midnightblue" stroke="midnightblue" points="992.74,-81.0616 983.687,-75.5574 987.332,-85.5057 992.74,-81.0616"/>
</g>
<!-- Node6 -->
<g id="node6" class="node"><title>Node6</title>
<polygon fill="white" stroke="#bfbfbf" points="813,-0.5 813,-19.5 865,-19.5 865,-0.5 813,-0.5"/>
<text text-anchor="middle" x="839" y="-7.5" font-family="Helvetica,sans-Serif" font-size="10.00">cassert</text>
</g>
<!-- Node5&#45;&gt;Node6 -->
<g id="edge5" class="edge"><title>Node5&#45;&gt;Node6</title>
<path fill="none" stroke="midnightblue" d="M954.292,-56.4435C931.645,-47.5171 895.928,-33.4387 870.248,-23.3168"/>
<polygon fill="midnightblue" stroke="midnightblue" points="871.193,-19.9273 860.606,-19.5164 868.626,-26.4397 871.193,-19.9273"/>
</g>
<!-- Node7 -->
<g id="node7" class="node"><title>Node7</title>
<polygon fill="white" stroke="#bfbfbf" points="883.5,-0.5 883.5,-19.5 928.5,-19.5 928.5,-0.5 883.5,-0.5"/>
<text text-anchor="middle" x="906" y="-7.5" font-family="Helvetica,sans-Serif" font-size="10.00">cstdio</text>
</g>
<!-- Node5&#45;&gt;Node7 -->
<g id="edge6" class="edge"><title>Node5&#45;&gt;Node7</title>
<path fill="none" stroke="midnightblue" d="M964.753,-56.324C954.203,-48.1849 938.199,-35.8395 925.558,-26.0874"/>
<polygon fill="midnightblue" stroke="midnightblue" points="927.507,-23.1707 917.451,-19.8339 923.231,-28.7132 927.507,-23.1707"/>
</g>
<!-- Node8 -->
<g id="node8" class="node"><title>Node8</title>
<polygon fill="white" stroke="#bfbfbf" points="946.5,-0.5 946.5,-19.5 1005.5,-19.5 1005.5,-0.5 946.5,-0.5"/>
<text text-anchor="middle" x="976" y="-7.5" font-family="Helvetica,sans-Serif" font-size="10.00">iostream</text>
</g>
<!-- Node5&#45;&gt;Node8 -->
<g id="edge7" class="edge"><title>Node5&#45;&gt;Node8</title>
<path fill="none" stroke="midnightblue" d="M976,-56.083C976,-49.0059 976,-38.8611 976,-29.9865"/>
<polygon fill="midnightblue" stroke="midnightblue" points="979.5,-29.751 976,-19.7511 972.5,-29.7511 979.5,-29.751"/>
</g>
<!-- Node9 -->
<g id="node9" class="node"><title>Node9</title>
<polygon fill="white" stroke="#bfbfbf" points="1024,-0.5 1024,-19.5 1080,-19.5 1080,-0.5 1024,-0.5"/>
<text text-anchor="middle" x="1052" y="-7.5" font-family="Helvetica,sans-Serif" font-size="10.00">sstream</text>
</g>
<!-- Node5&#45;&gt;Node9 -->
<g id="edge8" class="edge"><title>Node5&#45;&gt;Node9</title>
<path fill="none" stroke="midnightblue" d="M988.211,-56.324C999.776,-48.1066 1017.38,-35.6017 1031.16,-25.8069"/>
<polygon fill="midnightblue" stroke="midnightblue" points="1033.44,-28.4791 1039.57,-19.8339 1029.39,-22.7729 1033.44,-28.4791"/>
</g>
<!-- Node10 -->
<g id="node10" class="node"><title>Node10</title>
<polygon fill="white" stroke="#bfbfbf" points="1098,-0.5 1098,-19.5 1146,-19.5 1146,-0.5 1098,-0.5"/>
<text text-anchor="middle" x="1122" y="-7.5" font-family="Helvetica,sans-Serif" font-size="10.00">thread</text>
</g>
<!-- Node5&#45;&gt;Node10 -->
<g id="edge9" class="edge"><title>Node5&#45;&gt;Node10</title>
<path fill="none" stroke="midnightblue" d="M999.134,-56.4435C1023.48,-47.4381 1062.01,-33.1891 1089.42,-23.049"/>
<polygon fill="midnightblue" stroke="midnightblue" points="1090.81,-26.2681 1098.97,-19.5164 1088.38,-19.7028 1090.81,-26.2681"/>
</g>
<!-- Node12 -->
<g id="node12" class="node"><title>Node12</title>
<g id="a_node12"><a xlink:href="RaEngine_8hpp.html" target="_top" xlink:title="Engine/RaEngine.hpp">
<polygon fill="white" stroke="black" points="875.5,-347.5 875.5,-366.5 992.5,-366.5 992.5,-347.5 875.5,-347.5"/>
<text text-anchor="middle" x="934" y="-354.5" font-family="Helvetica,sans-Serif" font-size="10.00">Engine/RaEngine.hpp</text>
</a>
</g>
</g>
<!-- Node11&#45;&gt;Node12 -->
<g id="edge11" class="edge"><title>Node11&#45;&gt;Node12</title>
<path fill="none" stroke="midnightblue" d="M567.592,-475.621C661.776,-470.582 811.108,-458.883 861,-434 887.768,-420.65 910.121,-393.352 922.78,-375.368"/>
<polygon fill="midnightblue" stroke="midnightblue" points="925.78,-377.179 928.488,-366.935 919.984,-373.255 925.78,-377.179"/>
</g>
<!-- Node13 -->
<g id="node13" class="node"><title>Node13</title>
<polygon fill="white" stroke="#bfbfbf" points="287.5,-347.5 287.5,-366.5 328.5,-366.5 328.5,-347.5 287.5,-347.5"/>
<text text-anchor="middle" x="308" y="-354.5" font-family="Helvetica,sans-Serif" font-size="10.00">array</text>
</g>
<!-- Node11&#45;&gt;Node13 -->
<g id="edge13" class="edge"><title>Node11&#45;&gt;Node13</title>
<path fill="none" stroke="midnightblue" d="M406.276,-472.499C378.193,-466.379 348.6,-454.984 328,-434 313.167,-418.891 308.968,-394.171 307.961,-377.046"/>
<polygon fill="midnightblue" stroke="midnightblue" points="311.448,-376.517 307.683,-366.614 304.451,-376.704 311.448,-376.517"/>
</g>
<!-- Node14 -->
<g id="node14" class="node"><title>Node14</title>
<polygon fill="white" stroke="#bfbfbf" points="189,-347.5 189,-366.5 239,-366.5 239,-347.5 189,-347.5"/>
<text text-anchor="middle" x="214" y="-354.5" font-family="Helvetica,sans-Serif" font-size="10.00">chrono</text>
</g>
<!-- Node11&#45;&gt;Node14 -->
<g id="edge14" class="edge"><title>Node11&#45;&gt;Node14</title>
<path fill="none" stroke="midnightblue" d="M426.268,-470.475C390.495,-463.835 345.125,-452.537 308,-434 276.901,-418.472 246.695,-391.223 229.244,-373.92"/>
<polygon fill="midnightblue" stroke="midnightblue" points="231.682,-371.407 222.167,-366.748 226.7,-376.324 231.682,-371.407"/>
</g>
<!-- Node15 -->
<g id="node15" class="node"><title>Node15</title>
<polygon fill="white" stroke="#bfbfbf" points="336.5,-409 336.5,-428 393.5,-428 393.5,-409 336.5,-409"/>
<text text-anchor="middle" x="365" y="-416" font-family="Helvetica,sans-Serif" font-size="10.00">memory</text>
</g>
<!-- Node11&#45;&gt;Node15 -->
<g id="edge15" class="edge"><title>Node11&#45;&gt;Node15</title>
<path fill="none" stroke="midnightblue" d="M469.52,-470.475C449.137,-460.534 415.225,-443.995 391.575,-432.461"/>
<polygon fill="midnightblue" stroke="midnightblue" points="392.969,-429.247 382.447,-428.009 389.901,-435.538 392.969,-429.247"/>
</g>
<!-- Node16 -->
<g id="node16" class="node"><title>Node16</title>
<polygon fill="white" stroke="#bfbfbf" points="411.5,-409 411.5,-428 458.5,-428 458.5,-409 411.5,-409"/>
<text text-anchor="middle" x="435" y="-416" font-family="Helvetica,sans-Serif" font-size="10.00">mutex</text>
</g>
<!-- Node11&#45;&gt;Node16 -->
<g id="edge16" class="edge"><title>Node11&#45;&gt;Node16</title>
<path fill="none" stroke="midnightblue" d="M479.55,-470.475C471.672,-461.462 459.055,-447.025 449.256,-435.812"/>
<polygon fill="midnightblue" stroke="midnightblue" points="451.653,-433.236 442.437,-428.009 446.382,-437.842 451.653,-433.236"/>
</g>
<!-- Node17 -->
<g id="node17" class="node"><title>Node17</title>
<polygon fill="white" stroke="#bfbfbf" points="569.5,-112.5 569.5,-131.5 616.5,-131.5 616.5,-112.5 569.5,-112.5"/>
<text text-anchor="middle" x="593" y="-119.5" font-family="Helvetica,sans-Serif" font-size="10.00">vector</text>
</g>
<!-- Node11&#45;&gt;Node17 -->
<g id="edge17" class="edge"><title>Node11&#45;&gt;Node17</title>
<path fill="none" stroke="midnightblue" d="M487.2,-470.376C487.096,-455.016 484.736,-422.689 468,-403 427.255,-355.067 396.475,-370.204 338,-347 294.482,-329.731 265.86,-349.348 239,-311 233.9,-303.719 237.02,-299.666 239,-291 245.155,-264.063 243.539,-251.092 266,-235 373.012,-158.33 454.528,-277.774 560,-199 578.238,-185.378 586.538,-159.556 590.218,-141.822"/>
<polygon fill="midnightblue" stroke="midnightblue" points="593.699,-142.233 591.993,-131.776 586.806,-141.015 593.699,-142.233"/>
</g>
<!-- Node18 -->
<g id="node18" class="node"><title>Node18</title>
<g id="a_node18"><a xlink:href="Types_8hpp.html" target="_top" xlink:title="Core/Types.hpp">
<polygon fill="white" stroke="black" points="648.5,-174 648.5,-193 737.5,-193 737.5,-174 648.5,-174"/>
<text text-anchor="middle" x="693" y="-181" font-family="Helvetica,sans-Serif" font-size="10.00">Core/Types.hpp</text>
</a>
</g>
</g>
<!-- Node11&#45;&gt;Node18 -->
<g id="edge18" class="edge"><title>Node11&#45;&gt;Node18</title>
<path fill="none" stroke="midnightblue" d="M565.281,-470.496C621.175,-463.138 690.465,-450.991 714,-434 748.211,-409.303 759.311,-388.556 752,-347 742.367,-292.24 715.78,-231.64 701.821,-202.327"/>
<polygon fill="midnightblue" stroke="midnightblue" points="704.816,-200.483 697.304,-193.012 698.518,-203.537 704.816,-200.483"/>
</g>
<!-- Node23 -->
<g id="node23" class="node"><title>Node23</title>
<g id="a_node23"><a xlink:href="Color_8hpp.html" target="_top" xlink:title="Core/Utils/Color.hpp">
<polygon fill="white" stroke="black" points="799.5,-291.5 799.5,-310.5 910.5,-310.5 910.5,-291.5 799.5,-291.5"/>
<text text-anchor="middle" x="855" y="-298.5" font-family="Helvetica,sans-Serif" font-size="10.00">Core/Utils/Color.hpp</text>
</a>
</g>
</g>
<!-- Node11&#45;&gt;Node23 -->
<g id="edge24" class="edge"><title>Node11&#45;&gt;Node23</title>
<path fill="none" stroke="midnightblue" d="M567.596,-474.923C643.654,-469.658 750.955,-458.127 785,-434 824.222,-406.204 843.341,-349.476 850.908,-320.272"/>
<polygon fill="midnightblue" stroke="midnightblue" points="854.312,-321.087 853.261,-310.544 847.508,-319.441 854.312,-321.087"/>
</g>
<!-- Node25 -->
<g id="node25" class="node"><title>Node25</title>
<g id="a_node25"><a xlink:href="Timer_8hpp.html" target="_top" xlink:title="Core/Utils/Timer.hpp">
<polygon fill="white" stroke="black" points="128.5,-409 128.5,-428 241.5,-428 241.5,-409 128.5,-409"/>
<text text-anchor="middle" x="185" y="-416" font-family="Helvetica,sans-Serif" font-size="10.00">Core/Utils/Timer.hpp</text>
</a>
</g>
</g>
<!-- Node11&#45;&gt;Node25 -->
<g id="edge29" class="edge"><title>Node11&#45;&gt;Node25</title>
<path fill="none" stroke="midnightblue" d="M442.692,-470.492C396.173,-461.531 320.911,-446.95 256,-434 249.766,-432.756 243.226,-431.438 236.745,-430.124"/>
<polygon fill="midnightblue" stroke="midnightblue" points="237.157,-426.637 226.66,-428.074 235.762,-433.496 237.157,-426.637"/>
</g>
<!-- Node26 -->
<g id="node26" class="node"><title>Node26</title>
<g id="a_node26"><a xlink:href="DisplayableObject_8hpp.html" target="_top" xlink:title="Engine/Renderer/Displayable\l/DisplayableObject.hpp">
<polygon fill="white" stroke="black" points="553,-403.5 553,-433.5 705,-433.5 705,-403.5 553,-403.5"/>
<text text-anchor="start" x="561" y="-421.5" font-family="Helvetica,sans-Serif" font-size="10.00">Engine/Renderer/Displayable</text>
<text text-anchor="middle" x="629" y="-410.5" font-family="Helvetica,sans-Serif" font-size="10.00">/DisplayableObject.hpp</text>
</a>
</g>
</g>
<!-- Node11&#45;&gt;Node26 -->
<g id="edge32" class="edge"><title>Node11&#45;&gt;Node26</title>
<path fill="none" stroke="midnightblue" d="M507.345,-470.475C527.835,-461.889 560.07,-448.383 586.211,-437.429"/>
<polygon fill="midnightblue" stroke="midnightblue" points="587.663,-440.616 595.533,-433.523 584.958,-434.16 587.663,-440.616"/>
</g>
<!-- Node12&#45;&gt;Node5 -->
<g id="edge12" class="edge"><title>Node12&#45;&gt;Node5</title>
<path fill="none" stroke="midnightblue" d="M942.74,-347.493C959.607,-330.117 995,-288.582 995,-246 995,-246 995,-246 995,-182.5 995,-147.905 986.598,-108.245 980.968,-85.5547"/>
<polygon fill="midnightblue" stroke="midnightblue" points="984.291,-84.4237 978.406,-75.6136 977.513,-86.1707 984.291,-84.4237"/>
</g>
<!-- Node19 -->
<g id="node19" class="node"><title>Node19</title>
<g id="a_node19"><a xlink:href="RaCore_8hpp.html" target="_top" xlink:title="Core/RaCore.hpp">
<polygon fill="white" stroke="black" points="287,-112.5 287,-131.5 385,-131.5 385,-112.5 287,-112.5"/>
<text text-anchor="middle" x="336" y="-119.5" font-family="Helvetica,sans-Serif" font-size="10.00">Core/RaCore.hpp</text>
</a>
</g>
</g>
<!-- Node18&#45;&gt;Node19 -->
<g id="edge19" class="edge"><title>Node18&#45;&gt;Node19</title>
<path fill="none" stroke="midnightblue" d="M648.147,-175.025C584.158,-164.36 466.551,-144.759 395.393,-132.899"/>
<polygon fill="midnightblue" stroke="midnightblue" points="395.683,-129.399 385.244,-131.207 394.532,-136.304 395.683,-129.399"/>
</g>
<!-- Node20 -->
<g id="node20" class="node"><title>Node20</title>
<polygon fill="white" stroke="#bfbfbf" points="749,-112.5 749,-131.5 817,-131.5 817,-112.5 749,-112.5"/>
<text text-anchor="middle" x="783" y="-119.5" font-family="Helvetica,sans-Serif" font-size="10.00">Eigen/Core</text>
</g>
<!-- Node18&#45;&gt;Node20 -->
<g id="edge21" class="edge"><title>Node18&#45;&gt;Node20</title>
<path fill="none" stroke="midnightblue" d="M705.895,-173.975C720.464,-164.343 744.402,-148.517 761.745,-137.052"/>
<polygon fill="midnightblue" stroke="midnightblue" points="763.717,-139.944 770.129,-131.509 759.857,-134.104 763.717,-139.944"/>
</g>
<!-- Node21 -->
<g id="node21" class="node"><title>Node21</title>
<polygon fill="white" stroke="#bfbfbf" points="835,-112.5 835,-131.5 929,-131.5 929,-112.5 835,-112.5"/>
<text text-anchor="middle" x="882" y="-119.5" font-family="Helvetica,sans-Serif" font-size="10.00">Eigen/Geometry</text>
</g>
<!-- Node18&#45;&gt;Node21 -->
<g id="edge22" class="edge"><title>Node18&#45;&gt;Node21</title>
<path fill="none" stroke="midnightblue" d="M720.079,-173.975C752.92,-163.636 808.43,-146.161 845.148,-134.602"/>
<polygon fill="midnightblue" stroke="midnightblue" points="846.484,-137.85 854.971,-131.509 844.382,-131.174 846.484,-137.85"/>
</g>
<!-- Node22 -->
<g id="node22" class="node"><title>Node22</title>
<polygon fill="white" stroke="#bfbfbf" points="651,-112.5 651,-131.5 731,-131.5 731,-112.5 651,-112.5"/>
<text text-anchor="middle" x="691" y="-119.5" font-family="Helvetica,sans-Serif" font-size="10.00">Eigen/Sparse</text>
</g>
<!-- Node18&#45;&gt;Node22 -->
<g id="edge23" class="edge"><title>Node18&#45;&gt;Node22</title>
<path fill="none" stroke="midnightblue" d="M692.713,-173.975C692.431,-165.58 691.991,-152.481 691.627,-141.663"/>
<polygon fill="midnightblue" stroke="midnightblue" points="695.12,-141.386 691.286,-131.509 688.124,-141.621 695.12,-141.386"/>
</g>
<!-- Node19&#45;&gt;Node5 -->
<g id="edge20" class="edge"><title>Node19&#45;&gt;Node5</title>
<path fill="none" stroke="midnightblue" d="M385.421,-115.56C397.083,-114.333 409.475,-113.077 421,-112 594.956,-95.7408 799.911,-80.0105 905.393,-72.1661"/>
<polygon fill="midnightblue" stroke="midnightblue" points="905.882,-75.6396 915.595,-71.4089 905.363,-68.6588 905.882,-75.6396"/>
</g>
<!-- Node23&#45;&gt;Node5 -->
<g id="edge25" class="edge"><title>Node23&#45;&gt;Node5</title>
<path fill="none" stroke="midnightblue" d="M869.814,-291.429C882.391,-283.46 900.087,-270.502 911,-255 949.387,-200.47 966.847,-121.237 973.109,-85.5947"/>
<polygon fill="midnightblue" stroke="midnightblue" points="976.576,-86.0788 974.761,-75.6406 969.67,-84.9326 976.576,-86.0788"/>
</g>
<!-- Node23&#45;&gt;Node20 -->
<g id="edge26" class="edge"><title>Node23&#45;&gt;Node20</title>
<path fill="none" stroke="midnightblue" d="M858.118,-291.364C862.207,-278.698 868.177,-254.474 862,-235 849.67,-196.127 818.441,-159.105 799.145,-138.878"/>
<polygon fill="midnightblue" stroke="midnightblue" points="801.428,-136.207 791.929,-131.513 796.427,-141.106 801.428,-136.207"/>
</g>
<!-- Node23&#45;&gt;Node21 -->
<g id="edge27" class="edge"><title>Node23&#45;&gt;Node21</title>
<path fill="none" stroke="midnightblue" d="M866.266,-291.427C875.966,-283.275 889.279,-270.046 895,-255 909.608,-216.579 897.524,-167.562 888.869,-141.404"/>
<polygon fill="midnightblue" stroke="midnightblue" points="892.074,-139.966 885.458,-131.691 885.469,-142.286 892.074,-139.966"/>
</g>
<!-- Node24 -->
<g id="node24" class="node"><title>Node24</title>
<polygon fill="white" stroke="#bfbfbf" points="799,-235.5 799,-254.5 853,-254.5 853,-235.5 799,-235.5"/>
<text text-anchor="middle" x="826" y="-242.5" font-family="Helvetica,sans-Serif" font-size="10.00">random</text>
</g>
<!-- Node23&#45;&gt;Node24 -->
<g id="edge28" class="edge"><title>Node23&#45;&gt;Node24</title>
<path fill="none" stroke="midnightblue" d="M850.211,-291.083C846.242,-283.691 840.475,-272.953 835.565,-263.811"/>
<polygon fill="midnightblue" stroke="midnightblue" points="838.514,-261.905 830.7,-254.751 832.347,-265.217 838.514,-261.905"/>
</g>
<!-- Node25&#45;&gt;Node14 -->
<g id="edge31" class="edge"><title>Node25&#45;&gt;Node14</title>
<path fill="none" stroke="midnightblue" d="M189.155,-408.975C193.376,-400.315 200.037,-386.649 205.4,-375.645"/>
<polygon fill="midnightblue" stroke="midnightblue" points="208.618,-377.032 209.853,-366.509 202.325,-373.965 208.618,-377.032"/>
</g>
<!-- Node25&#45;&gt;Node19 -->
<g id="edge30" class="edge"><title>Node25&#45;&gt;Node19</title>
<path fill="none" stroke="midnightblue" d="M136.393,-408.946C81.5811,-396.18 0,-366.368 0,-302 0,-302 0,-302 0,-244 0,-195.916 34.2488,-190.01 77,-168 140.089,-135.52 222.081,-125.894 276.743,-123.342"/>
<polygon fill="midnightblue" stroke="midnightblue" points="277.107,-126.831 286.959,-122.933 276.827,-119.836 277.107,-126.831"/>
</g>
<!-- Node26&#45;&gt;Node12 -->
<g id="edge33" class="edge"><title>Node26&#45;&gt;Node12</title>
<path fill="none" stroke="midnightblue" d="M700.895,-403.475C755.926,-392.739 830.61,-378.17 880.461,-368.445"/>
<polygon fill="midnightblue" stroke="midnightblue" points="881.251,-371.856 890.396,-366.506 879.911,-364.986 881.251,-371.856"/>
</g>
<!-- Node26&#45;&gt;Node13 -->
<g id="edge34" class="edge"><title>Node26&#45;&gt;Node13</title>
<path fill="none" stroke="midnightblue" d="M553.334,-403.475C484.951,-390.799 387.736,-372.78 338.745,-363.699"/>
<polygon fill="midnightblue" stroke="midnightblue" points="339.24,-360.231 328.77,-361.85 337.965,-367.114 339.24,-360.231"/>
</g>
<!-- Node26&#45;&gt;Node17 -->
<g id="edge36" class="edge"><title>Node26&#45;&gt;Node17</title>
<path fill="none" stroke="midnightblue" d="M639.728,-403.197C674.15,-356.496 777.824,-209.12 747,-168 739.634,-158.173 669.329,-140.529 626.299,-130.502"/>
<polygon fill="midnightblue" stroke="midnightblue" points="627.054,-127.085 616.523,-128.246 625.479,-133.905 627.054,-127.085"/>
</g>
<!-- Node26&#45;&gt;Node23 -->
<g id="edge62" class="edge"><title>Node26&#45;&gt;Node23</title>
<path fill="none" stroke="midnightblue" d="M668.002,-403.477C692.582,-394.156 724.715,-381.076 752,-367 781.822,-351.616 814.251,-330.327 834.595,-316.366"/>
<polygon fill="midnightblue" stroke="midnightblue" points="836.813,-319.087 843.039,-310.514 832.826,-313.333 836.813,-319.087"/>
</g>
<!-- Node27 -->
<g id="node27" class="node"><title>Node27</title>
<polygon fill="white" stroke="#bfbfbf" points="705,-347.5 705,-366.5 743,-366.5 743,-347.5 705,-347.5"/>
<text text-anchor="middle" x="724" y="-354.5" font-family="Helvetica,sans-Serif" font-size="10.00">map</text>
</g>
<!-- Node26&#45;&gt;Node27 -->
<g id="edge35" class="edge"><title>Node26&#45;&gt;Node27</title>
<path fill="none" stroke="midnightblue" d="M651.514,-403.399C666.599,-393.951 686.385,-381.559 701.473,-372.109"/>
<polygon fill="midnightblue" stroke="midnightblue" points="703.559,-374.932 710.177,-366.658 699.844,-369 703.559,-374.932"/>
</g>
<!-- Node28 -->
<g id="node28" class="node"><title>Node28</title>
<g id="a_node28"><a xlink:href="VectorArray_8hpp.html" target="_top" xlink:title="Core/Containers/VectorArray.hpp">
<polygon fill="white" stroke="black" points="274.5,-235.5 274.5,-254.5 447.5,-254.5 447.5,-235.5 274.5,-235.5"/>
<text text-anchor="middle" x="361" y="-242.5" font-family="Helvetica,sans-Serif" font-size="10.00">Core/Containers/VectorArray.hpp</text>
</a>
</g>
</g>
<!-- Node26&#45;&gt;Node28 -->
<g id="edge37" class="edge"><title>Node26&#45;&gt;Node28</title>
<path fill="none" stroke="midnightblue" d="M552.774,-403.764C523.39,-396.092 490.539,-384.437 464,-367 422.089,-339.464 387.765,-290.025 371.385,-263.672"/>
<polygon fill="midnightblue" stroke="midnightblue" points="374.183,-261.535 366.007,-254.796 368.196,-265.162 374.183,-261.535"/>
</g>
<!-- Node31 -->
<g id="node31" class="node"><title>Node31</title>
<g id="a_node31"><a xlink:href="TriangleMesh_8hpp.html" target="_top" xlink:title="Core/Geometry/TriangleMesh.hpp">
<polygon fill="white" stroke="black" points="473,-347.5 473,-366.5 649,-366.5 649,-347.5 473,-347.5"/>
<text text-anchor="middle" x="561" y="-354.5" font-family="Helvetica,sans-Serif" font-size="10.00">Core/Geometry/TriangleMesh.hpp</text>
</a>
</g>
</g>
<!-- Node26&#45;&gt;Node31 -->
<g id="edge45" class="edge"><title>Node26&#45;&gt;Node31</title>
<path fill="none" stroke="midnightblue" d="M612.885,-403.399C602.596,-394.397 589.253,-382.721 578.674,-373.465"/>
<polygon fill="midnightblue" stroke="midnightblue" points="580.725,-370.609 570.895,-366.658 576.116,-375.877 580.725,-370.609"/>
</g>
<!-- Node28&#45;&gt;Node17 -->
<g id="edge44" class="edge"><title>Node28&#45;&gt;Node17</title>
<path fill="none" stroke="midnightblue" d="M426.677,-235.475C491.152,-226.438 581.361,-211.74 592,-199 605.183,-183.214 602.684,-158.479 598.712,-141.543"/>
<polygon fill="midnightblue" stroke="midnightblue" points="602.041,-140.444 596.039,-131.713 595.286,-142.281 602.041,-140.444"/>
</g>
<!-- Node28&#45;&gt;Node18 -->
<g id="edge43" class="edge"><title>Node28&#45;&gt;Node18</title>
<path fill="none" stroke="midnightblue" d="M418.12,-235.47C472.698,-227.078 557.199,-213.453 630,-199 635.783,-197.852 641.845,-196.564 647.829,-195.243"/>
<polygon fill="midnightblue" stroke="midnightblue" points="648.775,-198.618 657.761,-193.006 647.237,-191.789 648.775,-198.618"/>
</g>
<!-- Node28&#45;&gt;Node19 -->
<g id="edge42" class="edge"><title>Node28&#45;&gt;Node19</title>
<path fill="none" stroke="midnightblue" d="M359.202,-235.298C355.166,-215.763 345.311,-168.065 339.832,-141.547"/>
<polygon fill="midnightblue" stroke="midnightblue" points="343.233,-140.708 337.782,-131.623 336.377,-142.125 343.233,-140.708"/>
</g>
<!-- Node29 -->
<g id="node29" class="node"><title>Node29</title>
<g id="a_node29"><a xlink:href="AlignedStdVector_8hpp.html" target="_top" xlink:title="Core/Containers/AlignedStd\lVector.hpp">
<polygon fill="white" stroke="black" points="401.5,-168.5 401.5,-198.5 550.5,-198.5 550.5,-168.5 401.5,-168.5"/>
<text text-anchor="start" x="409.5" y="-186.5" font-family="Helvetica,sans-Serif" font-size="10.00">Core/Containers/AlignedStd</text>
<text text-anchor="middle" x="476" y="-175.5" font-family="Helvetica,sans-Serif" font-size="10.00">Vector.hpp</text>
</a>
</g>
</g>
<!-- Node28&#45;&gt;Node29 -->
<g id="edge38" class="edge"><title>Node28&#45;&gt;Node29</title>
<path fill="none" stroke="midnightblue" d="M377.477,-235.475C393.707,-227.078 419.036,-213.973 439.947,-203.153"/>
<polygon fill="midnightblue" stroke="midnightblue" points="441.623,-206.227 448.897,-198.523 438.407,-200.01 441.623,-206.227"/>
</g>
<!-- Node29&#45;&gt;Node17 -->
<g id="edge41" class="edge"><title>Node29&#45;&gt;Node17</title>
<path fill="none" stroke="midnightblue" d="M503.727,-168.399C522.832,-158.684 548.058,-145.855 566.82,-136.314"/>
<polygon fill="midnightblue" stroke="midnightblue" points="568.648,-139.311 575.975,-131.658 565.475,-133.071 568.648,-139.311"/>
</g>
<!-- Node29&#45;&gt;Node19 -->
<g id="edge39" class="edge"><title>Node29&#45;&gt;Node19</title>
<path fill="none" stroke="midnightblue" d="M442.822,-168.399C419.437,-158.461 388.388,-145.265 365.794,-135.662"/>
<polygon fill="midnightblue" stroke="midnightblue" points="366.944,-132.348 356.371,-131.658 364.206,-138.79 366.944,-132.348"/>
</g>
<!-- Node30 -->
<g id="node30" class="node"><title>Node30</title>
<polygon fill="white" stroke="#bfbfbf" points="429.5,-112.5 429.5,-131.5 522.5,-131.5 522.5,-112.5 429.5,-112.5"/>
<text text-anchor="middle" x="476" y="-119.5" font-family="Helvetica,sans-Serif" font-size="10.00">Eigen/StdVector</text>
</g>
<!-- Node29&#45;&gt;Node30 -->
<g id="edge40" class="edge"><title>Node29&#45;&gt;Node30</title>
<path fill="none" stroke="midnightblue" d="M476,-168.399C476,-160.466 476,-150.458 476,-141.858"/>
<polygon fill="midnightblue" stroke="midnightblue" points="479.5,-141.658 476,-131.658 472.5,-141.658 479.5,-141.658"/>
</g>
<!-- Node31&#45;&gt;Node18 -->
<g id="edge51" class="edge"><title>Node31&#45;&gt;Node18</title>
<path fill="none" stroke="midnightblue" d="M614.259,-347.483C636.664,-341.152 660.971,-330.138 676,-311 700.549,-279.739 699.042,-230.18 695.941,-203.313"/>
<polygon fill="midnightblue" stroke="midnightblue" points="699.396,-202.747 694.585,-193.307 692.459,-203.687 699.396,-202.747"/>
</g>
<!-- Node31&#45;&gt;Node19 -->
<g id="edge50" class="edge"><title>Node31&#45;&gt;Node19</title>
<path fill="none" stroke="midnightblue" d="M472.789,-351.001C348.483,-341.789 132.064,-317.044 89,-255 75.9803,-236.242 69.5464,-198.64 99,-168 122.988,-143.046 214.809,-131.556 276.862,-126.546"/>
<polygon fill="midnightblue" stroke="midnightblue" points="277.232,-130.028 286.932,-125.769 276.693,-123.049 277.232,-130.028"/>
</g>
<!-- Node31&#45;&gt;Node23 -->
<g id="edge59" class="edge"><title>Node31&#45;&gt;Node23</title>
<path fill="none" stroke="midnightblue" d="M607.585,-347.444C659.41,-337.925 743.132,-322.547 798.615,-312.356"/>
<polygon fill="midnightblue" stroke="midnightblue" points="799.43,-315.765 808.633,-310.516 798.165,-308.881 799.43,-315.765"/>
</g>
<!-- Node31&#45;&gt;Node28 -->
<g id="edge46" class="edge"><title>Node31&#45;&gt;Node28</title>
<path fill="none" stroke="midnightblue" d="M545.306,-347.368C510.621,-328.292 427.222,-282.422 385.555,-259.505"/>
<polygon fill="midnightblue" stroke="midnightblue" points="387.07,-256.344 376.621,-254.591 383.696,-262.477 387.07,-256.344"/>
</g>
<!-- Node32 -->
<g id="node32" class="node"><title>Node32</title>
<g id="a_node32"><a xlink:href="AbstractGeometry_8hpp.html" target="_top" xlink:title="Core/Geometry/AbstractGeometry.hpp">
<polygon fill="white" stroke="black" points="465.5,-235.5 465.5,-254.5 666.5,-254.5 666.5,-235.5 465.5,-235.5"/>
<text text-anchor="middle" x="566" y="-242.5" font-family="Helvetica,sans-Serif" font-size="10.00">Core/Geometry/AbstractGeometry.hpp</text>
</a>
</g>
</g>
<!-- Node31&#45;&gt;Node32 -->
<g id="edge47" class="edge"><title>Node31&#45;&gt;Node32</title>
<path fill="none" stroke="midnightblue" d="M538.035,-347.472C512.281,-336.488 475.848,-315.827 490,-291 498.41,-276.247 513.765,-265.838 528.484,-258.774"/>
<polygon fill="midnightblue" stroke="midnightblue" points="530.235,-261.827 537.985,-254.603 527.421,-255.418 530.235,-261.827"/>
</g>
<!-- Node33 -->
<g id="node33" class="node"><title>Node33</title>
<g id="a_node33"><a xlink:href="Attribs_8hpp.html" target="_top" xlink:title="Core/Utils/Attribs.hpp">
<polygon fill="white" stroke="black" points="247.5,-291.5 247.5,-310.5 366.5,-310.5 366.5,-291.5 247.5,-291.5"/>
<text text-anchor="middle" x="307" y="-298.5" font-family="Helvetica,sans-Serif" font-size="10.00">Core/Utils/Attribs.hpp</text>
</a>
</g>
</g>
<!-- Node31&#45;&gt;Node33 -->
<g id="edge52" class="edge"><title>Node31&#45;&gt;Node33</title>
<path fill="none" stroke="midnightblue" d="M520.753,-347.444C476.35,-338.004 404.847,-322.802 356.912,-312.611"/>
<polygon fill="midnightblue" stroke="midnightblue" points="357.568,-309.173 347.059,-310.516 356.112,-316.02 357.568,-309.173"/>
</g>
<!-- Node37 -->
<g id="node37" class="node"><title>Node37</title>
<g id="a_node37"><a xlink:href="TriangleMesh_8inl.html" target="_top" xlink:title="Core/Geometry/TriangleMesh.inl">
<polygon fill="white" stroke="black" points="499,-291.5 499,-310.5 667,-310.5 667,-291.5 499,-291.5"/>
<text text-anchor="middle" x="583" y="-298.5" font-family="Helvetica,sans-Serif" font-size="10.00">Core/Geometry/TriangleMesh.inl</text>
</a>
</g>
</g>
<!-- Node31&#45;&gt;Node37 -->
<g id="edge60" class="edge"><title>Node31&#45;&gt;Node37</title>
<path fill="none" stroke="midnightblue" d="M559.467,-347.083C560.934,-339.613 564.97,-328.724 569.497,-319.52"/>
<polygon fill="midnightblue" stroke="midnightblue" points="572.566,-321.202 574.304,-310.751 566.427,-317.837 572.566,-321.202"/>
</g>
<!-- Node32&#45;&gt;Node18 -->
<g id="edge49" class="edge"><title>Node32&#45;&gt;Node18</title>
<path fill="none" stroke="midnightblue" d="M584.196,-235.475C605.509,-225.49 641.031,-208.848 665.663,-197.307"/>
<polygon fill="midnightblue" stroke="midnightblue" points="667.267,-200.421 674.838,-193.009 664.297,-194.082 667.267,-200.421"/>
</g>
<!-- Node32&#45;&gt;Node19 -->
<g id="edge48" class="edge"><title>Node32&#45;&gt;Node19</title>
<path fill="none" stroke="midnightblue" d="M489.47,-235.428C457.604,-229.1 421.478,-218.104 393,-199 371.017,-184.253 354.194,-158.124 344.701,-140.682"/>
<polygon fill="midnightblue" stroke="midnightblue" points="347.686,-138.834 339.975,-131.567 341.471,-142.056 347.686,-138.834"/>
</g>
<!-- Node33&#45;&gt;Node19 -->
<g id="edge54" class="edge"><title>Node33&#45;&gt;Node19</title>
<path fill="none" stroke="midnightblue" d="M248.844,-291.471C189.498,-282.176 104.739,-267.024 95,-255 89.4051,-248.093 93.1971,-243.704 95,-235 101.581,-203.227 98.8871,-188.547 124,-168 146.98,-149.198 222.205,-136.475 276.52,-129.482"/>
<polygon fill="midnightblue" stroke="midnightblue" points="277.254,-132.918 286.741,-128.202 276.384,-125.972 277.254,-132.918"/>
</g>
<!-- Node33&#45;&gt;Node28 -->
<g id="edge53" class="edge"><title>Node33&#45;&gt;Node28</title>
<path fill="none" stroke="midnightblue" d="M315.917,-291.083C323.78,-283.22 335.431,-271.569 344.919,-262.081"/>
<polygon fill="midnightblue" stroke="midnightblue" points="347.653,-264.297 352.249,-254.751 342.703,-259.347 347.653,-264.297"/>
</g>
<!-- Node34 -->
<g id="node34" class="node"><title>Node34</title>
<g id="a_node34"><a xlink:href="Index_8hpp.html" target="_top" xlink:title="Core/Utils/Index.hpp">
<polygon fill="white" stroke="black" points="104.5,-235.5 104.5,-254.5 217.5,-254.5 217.5,-235.5 104.5,-235.5"/>
<text text-anchor="middle" x="161" y="-242.5" font-family="Helvetica,sans-Serif" font-size="10.00">Core/Utils/Index.hpp</text>
</a>
</g>
</g>
<!-- Node33&#45;&gt;Node34 -->
<g id="edge55" class="edge"><title>Node33&#45;&gt;Node34</title>
<path fill="none" stroke="midnightblue" d="M283.866,-291.444C259.518,-282.438 220.993,-268.189 193.577,-258.049"/>
<polygon fill="midnightblue" stroke="midnightblue" points="194.619,-254.703 184.026,-254.516 192.191,-261.268 194.619,-254.703"/>
</g>
<!-- Node34&#45;&gt;Node19 -->
<g id="edge56" class="edge"><title>Node34&#45;&gt;Node19</title>
<path fill="none" stroke="midnightblue" d="M152.62,-235.126C139.31,-219.94 116.453,-188.616 133,-168 150.778,-145.85 223.4,-133.928 276.726,-128.029"/>
<polygon fill="midnightblue" stroke="midnightblue" points="277.202,-131.498 286.777,-126.962 276.463,-124.537 277.202,-131.498"/>
</g>
<!-- Node35 -->
<g id="node35" class="node"><title>Node35</title>
<polygon fill="white" stroke="#bfbfbf" points="142,-174 142,-193 184,-193 184,-174 142,-174"/>
<text text-anchor="middle" x="163" y="-181" font-family="Helvetica,sans-Serif" font-size="10.00">limits</text>
</g>
<!-- Node34&#45;&gt;Node35 -->
<g id="edge57" class="edge"><title>Node34&#45;&gt;Node35</title>
<path fill="none" stroke="midnightblue" d="M161.287,-235.475C161.569,-227.08 162.009,-213.981 162.373,-203.163"/>
<polygon fill="midnightblue" stroke="midnightblue" points="165.876,-203.121 162.714,-193.009 158.88,-202.886 165.876,-203.121"/>
</g>
<!-- Node36 -->
<g id="node36" class="node"><title>Node36</title>
<g id="a_node36"><a xlink:href="Index_8inl.html" target="_top" xlink:title="Core/Utils/Index.inl">
<polygon fill="white" stroke="black" points="202.5,-174 202.5,-193 307.5,-193 307.5,-174 202.5,-174"/>
<text text-anchor="middle" x="255" y="-181" font-family="Helvetica,sans-Serif" font-size="10.00">Core/Utils/Index.inl</text>
</a>
</g>
</g>
<!-- Node34&#45;&gt;Node36 -->
<g id="edge58" class="edge"><title>Node34&#45;&gt;Node36</title>
<path fill="none" stroke="midnightblue" d="M174.468,-235.475C189.685,-225.843 214.687,-210.017 232.801,-198.552"/>
<polygon fill="midnightblue" stroke="midnightblue" points="234.979,-201.315 241.557,-193.009 231.236,-195.4 234.979,-201.315"/>
</g>
<!-- Node37&#45;&gt;Node31 -->
<g id="edge61" class="edge"><title>Node37&#45;&gt;Node31</title>
<path fill="none" stroke="midnightblue" d="M584.566,-310.751C583.136,-318.17 579.123,-329.045 574.604,-338.275"/>
<polygon fill="midnightblue" stroke="midnightblue" points="571.516,-336.628 569.799,-347.083 577.661,-339.98 571.516,-336.628"/>
</g>
</g>
</svg>
