<?xml version="1.0" encoding="UTF-8" standalone="no"?>
<!DOCTYPE svg PUBLIC "-//W3C//DTD SVG 1.1//EN"
 "http://www.w3.org/Graphics/SVG/1.1/DTD/svg11.dtd">
<!-- Generated by graphviz version 2.38.0 (20140413.2041)
 -->
<!-- Title: /home/travis/build/STORM&#45;IRIT/Radium&#45;Engine/src/Core/Geometry/MeshPrimitives.hpp Pages: 1 -->
<svg width="1667pt" height="453pt"
 viewBox="0.00 0.00 1667.00 453.00" xmlns="http://www.w3.org/2000/svg" xmlns:xlink="http://www.w3.org/1999/xlink">
<g id="graph0" class="graph" transform="scale(1 1) rotate(0) translate(4 449)">
<title>/home/travis/build/STORM&#45;IRIT/Radium&#45;Engine/src/Core/Geometry/MeshPrimitives.hpp</title>
<polygon fill="white" stroke="none" points="-4,4 -4,-449 1663,-449 1663,4 -4,4"/>
<!-- Node1 -->
<g id="node1" class="node"><title>Node1</title>
<polygon fill="#bfbfbf" stroke="black" points="882.5,-403.5 882.5,-444.5 1088.5,-444.5 1088.5,-403.5 882.5,-403.5"/>
<text text-anchor="start" x="890.5" y="-432.5" font-family="Helvetica,sans-Serif" font-size="10.00">/home/travis/build</text>
<text text-anchor="start" x="890.5" y="-421.5" font-family="Helvetica,sans-Serif" font-size="10.00">/STORM&#45;IRIT/Radium&#45;Engine</text>
<text text-anchor="middle" x="985.5" y="-410.5" font-family="Helvetica,sans-Serif" font-size="10.00">/src/Core/Geometry/MeshPrimitives.hpp</text>
</g>
<!-- Node2 -->
<g id="node2" class="node"><title>Node2</title>
<g id="a_node2"><a xlink:href="TriangleMesh_8hpp.html" target="_top" xlink:title="Core/Geometry/TriangleMesh.hpp">
<polygon fill="white" stroke="black" points="650.5,-347.5 650.5,-366.5 826.5,-366.5 826.5,-347.5 650.5,-347.5"/>
<text text-anchor="middle" x="738.5" y="-354.5" font-family="Helvetica,sans-Serif" font-size="10.00">Core/Geometry/TriangleMesh.hpp</text>
</a>
</g>
</g>
<!-- Node1&#45;&gt;Node2 -->
<g id="edge1" class="edge"><title>Node1&#45;&gt;Node2</title>
<path fill="none" stroke="midnightblue" d="M911.392,-403.498C868.841,-392.3 816.925,-378.638 781.152,-369.224"/>
<polygon fill="midnightblue" stroke="midnightblue" points="781.616,-365.727 771.055,-366.567 779.835,-372.497 781.616,-365.727"/>
</g>
<!-- Node5 -->
<g id="node5" class="node"><title>Node5</title>
<g id="a_node5"><a xlink:href="RaCore_8hpp.html" target="_top" xlink:title="Core/RaCore.hpp">
<polygon fill="white" stroke="black" points="539.5,-112.5 539.5,-131.5 637.5,-131.5 637.5,-112.5 539.5,-112.5"/>
<text text-anchor="middle" x="588.5" y="-119.5" font-family="Helvetica,sans-Serif" font-size="10.00">Core/RaCore.hpp</text>
</a>
</g>
</g>
<!-- Node1&#45;&gt;Node5 -->
<g id="edge39" class="edge"><title>Node1&#45;&gt;Node5</title>
<path fill="none" stroke="midnightblue" d="M882.243,-417.271C689.101,-404.053 285.665,-363.762 208.5,-255 171.906,-203.421 216.707,-201.522 294.5,-168 371.043,-135.017 467.943,-125.737 529.099,-123.382"/>
<polygon fill="midnightblue" stroke="midnightblue" points="529.466,-126.872 539.343,-123.039 529.232,-119.876 529.466,-126.872"/>
</g>
<!-- Node23 -->
<g id="node23" class="node"><title>Node23</title>
<g id="a_node23"><a xlink:href="Color_8hpp.html" target="_top" xlink:title="Core/Utils/Color.hpp">
<polygon fill="white" stroke="black" points="693,-174 693,-193 804,-193 804,-174 693,-174"/>
<text text-anchor="middle" x="748.5" y="-181" font-family="Helvetica,sans-Serif" font-size="10.00">Core/Utils/Color.hpp</text>
</a>
</g>
</g>
<!-- Node1&#45;&gt;Node23 -->
<g id="edge40" class="edge"><title>Node1&#45;&gt;Node23</title>
<path fill="none" stroke="midnightblue" d="M970.903,-403.279C963.17,-392.655 953.619,-379.249 945.5,-367 907.473,-309.626 916.451,-280.153 864.5,-235 843.539,-216.782 814.987,-204.241 791.455,-196.213"/>
<polygon fill="midnightblue" stroke="midnightblue" points="792.306,-192.81 781.714,-193.046 790.142,-199.467 792.306,-192.81"/>
</g>
<!-- Node26 -->
<g id="node26" class="node"><title>Node26</title>
<g id="a_node26"><a xlink:href="StdOptional_8hpp.html" target="_top" xlink:title="Core/Utils/StdOptional.hpp">
<polygon fill="white" stroke="black" points="1152,-347.5 1152,-366.5 1295,-366.5 1295,-347.5 1152,-347.5"/>
<text text-anchor="middle" x="1223.5" y="-354.5" font-family="Helvetica,sans-Serif" font-size="10.00">Core/Utils/StdOptional.hpp</text>
</a>
</g>
</g>
<!-- Node1&#45;&gt;Node26 -->
<g id="edge41" class="edge"><title>Node1&#45;&gt;Node26</title>
<path fill="none" stroke="midnightblue" d="M1056.91,-403.498C1097.91,-392.3 1147.93,-378.638 1182.4,-369.224"/>
<polygon fill="midnightblue" stroke="midnightblue" points="1183.41,-372.578 1192.13,-366.567 1181.56,-365.825 1183.41,-372.578"/>
</g>
<!-- Node27 -->
<g id="node27" class="node"><title>Node27</title>
<g id="a_node27"><a xlink:href="MeshPrimitives_8inl.html" target="_top" xlink:title="Core/Geometry/MeshPrimitives.inl">
<polygon fill="white" stroke="black" points="955,-347.5 955,-366.5 1134,-366.5 1134,-347.5 955,-347.5"/>
<text text-anchor="middle" x="1044.5" y="-354.5" font-family="Helvetica,sans-Serif" font-size="10.00">Core/Geometry/MeshPrimitives.inl</text>
</a>
</g>
</g>
<!-- Node1&#45;&gt;Node27 -->
<g id="edge42" class="edge"><title>Node1&#45;&gt;Node27</title>
<path fill="none" stroke="midnightblue" d="M996.957,-403.498C1004.87,-393.915 1015.34,-382.528 1024.54,-373.543"/>
<polygon fill="midnightblue" stroke="midnightblue" points="1026.98,-376.047 1031.88,-366.652 1022.19,-370.941 1026.98,-376.047"/>
</g>
<!-- Node3 -->
<g id="node3" class="node"><title>Node3</title>
<g id="a_node3"><a xlink:href="VectorArray_8hpp.html" target="_top" xlink:title="Core/Containers/VectorArray.hpp">
<polygon fill="white" stroke="black" points="218,-235.5 218,-254.5 391,-254.5 391,-235.5 218,-235.5"/>
<text text-anchor="middle" x="304.5" y="-242.5" font-family="Helvetica,sans-Serif" font-size="10.00">Core/Containers/VectorArray.hpp</text>
</a>
</g>
</g>
<!-- Node2&#45;&gt;Node3 -->
<g id="edge2" class="edge"><title>Node2&#45;&gt;Node3</title>
<path fill="none" stroke="midnightblue" d="M650.403,-353.277C583.728,-348.977 490.759,-338.125 413.5,-311 379.484,-299.057 344.422,-275.827 323.548,-260.617"/>
<polygon fill="midnightblue" stroke="midnightblue" points="325.628,-257.803 315.515,-254.646 321.452,-263.421 325.628,-257.803"/>
</g>
<!-- Node2&#45;&gt;Node5 -->
<g id="edge23" class="edge"><title>Node2&#45;&gt;Node5</title>
<path fill="none" stroke="midnightblue" d="M695.484,-347.496C673.627,-341.028 648.399,-329.891 632.5,-311 590.625,-261.245 586.949,-178.932 587.624,-141.983"/>
<polygon fill="midnightblue" stroke="midnightblue" points="591.132,-141.786 587.953,-131.679 584.136,-141.562 591.132,-141.786"/>
</g>
<!-- Node14 -->
<g id="node14" class="node"><title>Node14</title>
<g id="a_node14"><a xlink:href="Types_8hpp.html" target="_top" xlink:title="Core/Types.hpp">
<polygon fill="white" stroke="black" points="822,-174 822,-193 911,-193 911,-174 822,-174"/>
<text text-anchor="middle" x="866.5" y="-181" font-family="Helvetica,sans-Serif" font-size="10.00">Core/Types.hpp</text>
</a>
</g>
</g>
<!-- Node2&#45;&gt;Node14 -->
<g id="edge24" class="edge"><title>Node2&#45;&gt;Node14</title>
<path fill="none" stroke="midnightblue" d="M781.946,-347.439C804.332,-340.944 830.439,-329.798 847.5,-311 874.403,-281.358 872.841,-230.744 869.56,-203.387"/>
<polygon fill="midnightblue" stroke="midnightblue" points="872.988,-202.629 868.127,-193.215 866.057,-203.605 872.988,-202.629"/>
</g>
<!-- Node18 -->
<g id="node18" class="node"><title>Node18</title>
<g id="a_node18"><a xlink:href="AbstractGeometry_8hpp.html" target="_top" xlink:title="Core/Geometry/AbstractGeometry.hpp">
<polygon fill="white" stroke="black" points="655,-235.5 655,-254.5 856,-254.5 856,-235.5 655,-235.5"/>
<text text-anchor="middle" x="755.5" y="-242.5" font-family="Helvetica,sans-Serif" font-size="10.00">Core/Geometry/AbstractGeometry.hpp</text>
</a>
</g>
</g>
<!-- Node2&#45;&gt;Node18 -->
<g id="edge20" class="edge"><title>Node2&#45;&gt;Node18</title>
<path fill="none" stroke="midnightblue" d="M777.755,-347.475C797.496,-340.99 819.684,-329.843 831.5,-311 845.465,-288.729 816.327,-270.065 790.186,-258.532"/>
<polygon fill="midnightblue" stroke="midnightblue" points="791.354,-255.227 780.777,-254.612 788.662,-261.688 791.354,-255.227"/>
</g>
<!-- Node19 -->
<g id="node19" class="node"><title>Node19</title>
<g id="a_node19"><a xlink:href="Attribs_8hpp.html" target="_top" xlink:title="Core/Utils/Attribs.hpp">
<polygon fill="white" stroke="black" points="423,-291.5 423,-310.5 542,-310.5 542,-291.5 423,-291.5"/>
<text text-anchor="middle" x="482.5" y="-298.5" font-family="Helvetica,sans-Serif" font-size="10.00">Core/Utils/Attribs.hpp</text>
</a>
</g>
</g>
<!-- Node2&#45;&gt;Node19 -->
<g id="edge25" class="edge"><title>Node2&#45;&gt;Node19</title>
<path fill="none" stroke="midnightblue" d="M697.936,-347.444C653.184,-338.004 581.117,-322.802 532.805,-312.611"/>
<polygon fill="midnightblue" stroke="midnightblue" points="533.381,-309.156 522.874,-310.516 531.936,-316.005 533.381,-309.156"/>
</g>
<!-- Node2&#45;&gt;Node23 -->
<g id="edge32" class="edge"><title>Node2&#45;&gt;Node23</title>
<path fill="none" stroke="midnightblue" d="M699.245,-347.475C679.504,-340.99 657.316,-329.843 645.5,-311 627.556,-282.383 627.63,-263.664 645.5,-235 657.415,-215.888 678.904,-203.806 699.182,-196.274"/>
<polygon fill="midnightblue" stroke="midnightblue" points="700.351,-199.573 708.682,-193.027 698.088,-192.949 700.351,-199.573"/>
</g>
<!-- Node25 -->
<g id="node25" class="node"><title>Node25</title>
<g id="a_node25"><a xlink:href="TriangleMesh_8inl.html" target="_top" xlink:title="Core/Geometry/TriangleMesh.inl">
<polygon fill="white" stroke="black" points="654.5,-291.5 654.5,-310.5 822.5,-310.5 822.5,-291.5 654.5,-291.5"/>
<text text-anchor="middle" x="738.5" y="-298.5" font-family="Helvetica,sans-Serif" font-size="10.00">Core/Geometry/TriangleMesh.inl</text>
</a>
</g>
</g>
<!-- Node2&#45;&gt;Node25 -->
<g id="edge37" class="edge"><title>Node2&#45;&gt;Node25</title>
<path fill="none" stroke="midnightblue" d="M733.334,-347.083C731.824,-339.927 731.394,-329.635 732.042,-320.691"/>
<polygon fill="midnightblue" stroke="midnightblue" points="735.515,-321.126 733.369,-310.751 728.577,-320.2 735.515,-321.126"/>
</g>
<!-- Node4 -->
<g id="node4" class="node"><title>Node4</title>
<g id="a_node4"><a xlink:href="AlignedStdVector_8hpp.html" target="_top" xlink:title="Core/Containers/AlignedStd\lVector.hpp">
<polygon fill="white" stroke="black" points="44,-168.5 44,-198.5 193,-198.5 193,-168.5 44,-168.5"/>
<text text-anchor="start" x="52" y="-186.5" font-family="Helvetica,sans-Serif" font-size="10.00">Core/Containers/AlignedStd</text>
<text text-anchor="middle" x="118.5" y="-175.5" font-family="Helvetica,sans-Serif" font-size="10.00">Vector.hpp</text>
</a>
</g>
</g>
<!-- Node3&#45;&gt;Node4 -->
<g id="edge3" class="edge"><title>Node3&#45;&gt;Node4</title>
<path fill="none" stroke="midnightblue" d="M277.851,-235.475C250.305,-226.664 206.556,-212.668 171.861,-201.57"/>
<polygon fill="midnightblue" stroke="midnightblue" points="172.927,-198.236 162.337,-198.523 170.795,-204.903 172.927,-198.236"/>
</g>
<!-- Node3&#45;&gt;Node5 -->
<g id="edge13" class="edge"><title>Node3&#45;&gt;Node5</title>
<path fill="none" stroke="midnightblue" d="M302.016,-235.402C298.085,-219.792 292.502,-186.68 309.5,-168 338.16,-136.504 456.231,-127.031 529.282,-124.196"/>
<polygon fill="midnightblue" stroke="midnightblue" points="529.408,-127.694 539.277,-123.838 529.158,-120.698 529.408,-127.694"/>
</g>
<!-- Node13 -->
<g id="node13" class="node"><title>Node13</title>
<polygon fill="white" stroke="#bfbfbf" points="0,-112.5 0,-131.5 47,-131.5 47,-112.5 0,-112.5"/>
<text text-anchor="middle" x="23.5" y="-119.5" font-family="Helvetica,sans-Serif" font-size="10.00">vector</text>
</g>
<!-- Node3&#45;&gt;Node13 -->
<g id="edge19" class="edge"><title>Node3&#45;&gt;Node13</title>
<path fill="none" stroke="midnightblue" d="M217.818,-240.416C148.729,-235.653 59.5556,-224.598 34.5,-199 19.8886,-184.072 19.0421,-158.949 20.5845,-141.702"/>
<polygon fill="midnightblue" stroke="midnightblue" points="24.0686,-142.045 21.8224,-131.691 17.1215,-141.186 24.0686,-142.045"/>
</g>
<!-- Node3&#45;&gt;Node14 -->
<g id="edge14" class="edge"><title>Node3&#45;&gt;Node14</title>
<path fill="none" stroke="midnightblue" d="M391.219,-235.757C394.012,-235.501 396.778,-235.248 399.5,-235 582.994,-218.311 631.051,-231.014 812.5,-199 817.685,-198.085 823.096,-196.907 828.405,-195.619"/>
<polygon fill="midnightblue" stroke="midnightblue" points="829.592,-198.927 838.404,-193.045 827.847,-192.148 829.592,-198.927"/>
</g>
<!-- Node4&#45;&gt;Node5 -->
<g id="edge4" class="edge"><title>Node4&#45;&gt;Node5</title>
<path fill="none" stroke="midnightblue" d="M193.357,-169.925C197.801,-169.253 202.207,-168.606 206.5,-168 320.331,-151.926 453.813,-137.121 529.04,-129.147"/>
<polygon fill="midnightblue" stroke="midnightblue" points="529.683,-132.598 539.26,-128.068 528.948,-125.637 529.683,-132.598"/>
</g>
<!-- Node12 -->
<g id="node12" class="node"><title>Node12</title>
<polygon fill="white" stroke="#bfbfbf" points="72,-112.5 72,-131.5 165,-131.5 165,-112.5 72,-112.5"/>
<text text-anchor="middle" x="118.5" y="-119.5" font-family="Helvetica,sans-Serif" font-size="10.00">Eigen/StdVector</text>
</g>
<!-- Node4&#45;&gt;Node12 -->
<g id="edge11" class="edge"><title>Node4&#45;&gt;Node12</title>
<path fill="none" stroke="midnightblue" d="M118.5,-168.399C118.5,-160.466 118.5,-150.458 118.5,-141.858"/>
<polygon fill="midnightblue" stroke="midnightblue" points="122,-141.658 118.5,-131.658 115,-141.658 122,-141.658"/>
</g>
<!-- Node4&#45;&gt;Node13 -->
<g id="edge12" class="edge"><title>Node4&#45;&gt;Node13</title>
<path fill="none" stroke="midnightblue" d="M95.9863,-168.399C80.9009,-158.951 61.115,-146.559 46.0268,-137.109"/>
<polygon fill="midnightblue" stroke="midnightblue" points="47.6561,-134 37.3233,-131.658 43.9405,-139.932 47.6561,-134"/>
</g>
<!-- Node6 -->
<g id="node6" class="node"><title>Node6</title>
<g id="a_node6"><a xlink:href="CoreMacros_8hpp.html" target="_top" xlink:title="Core/CoreMacros.hpp">
<polygon fill="white" stroke="black" points="573.5,-56.5 573.5,-75.5 693.5,-75.5 693.5,-56.5 573.5,-56.5"/>
<text text-anchor="middle" x="633.5" y="-63.5" font-family="Helvetica,sans-Serif" font-size="10.00">Core/CoreMacros.hpp</text>
</a>
</g>
</g>
<!-- Node5&#45;&gt;Node6 -->
<g id="edge5" class="edge"><title>Node5&#45;&gt;Node6</title>
<path fill="none" stroke="midnightblue" d="M595.931,-112.083C602.353,-104.377 611.806,-93.0333 619.622,-83.6531"/>
<polygon fill="midnightblue" stroke="midnightblue" points="622.494,-85.674 626.207,-75.7511 617.117,-81.1927 622.494,-85.674"/>
</g>
<!-- Node7 -->
<g id="node7" class="node"><title>Node7</title>
<polygon fill="white" stroke="#bfbfbf" points="470.5,-0.5 470.5,-19.5 522.5,-19.5 522.5,-0.5 470.5,-0.5"/>
<text text-anchor="middle" x="496.5" y="-7.5" font-family="Helvetica,sans-Serif" font-size="10.00">cassert</text>
</g>
<!-- Node6&#45;&gt;Node7 -->
<g id="edge6" class="edge"><title>Node6&#45;&gt;Node7</title>
<path fill="none" stroke="midnightblue" d="M611.792,-56.4435C589.145,-47.5171 553.428,-33.4387 527.748,-23.3168"/>
<polygon fill="midnightblue" stroke="midnightblue" points="528.693,-19.9273 518.106,-19.5164 526.126,-26.4397 528.693,-19.9273"/>
</g>
<!-- Node8 -->
<g id="node8" class="node"><title>Node8</title>
<polygon fill="white" stroke="#bfbfbf" points="541,-0.5 541,-19.5 586,-19.5 586,-0.5 541,-0.5"/>
<text text-anchor="middle" x="563.5" y="-7.5" font-family="Helvetica,sans-Serif" font-size="10.00">cstdio</text>
</g>
<!-- Node6&#45;&gt;Node8 -->
<g id="edge7" class="edge"><title>Node6&#45;&gt;Node8</title>
<path fill="none" stroke="midnightblue" d="M622.253,-56.324C611.703,-48.1849 595.699,-35.8395 583.058,-26.0874"/>
<polygon fill="midnightblue" stroke="midnightblue" points="585.007,-23.1707 574.951,-19.8339 580.731,-28.7132 585.007,-23.1707"/>
</g>
<!-- Node9 -->
<g id="node9" class="node"><title>Node9</title>
<polygon fill="white" stroke="#bfbfbf" points="604,-0.5 604,-19.5 663,-19.5 663,-0.5 604,-0.5"/>
<text text-anchor="middle" x="633.5" y="-7.5" font-family="Helvetica,sans-Serif" font-size="10.00">iostream</text>
</g>
<!-- Node6&#45;&gt;Node9 -->
<g id="edge8" class="edge"><title>Node6&#45;&gt;Node9</title>
<path fill="none" stroke="midnightblue" d="M633.5,-56.083C633.5,-49.0059 633.5,-38.8611 633.5,-29.9865"/>
<polygon fill="midnightblue" stroke="midnightblue" points="637,-29.751 633.5,-19.7511 630,-29.7511 637,-29.751"/>
</g>
<!-- Node10 -->
<g id="node10" class="node"><title>Node10</title>
<polygon fill="white" stroke="#bfbfbf" points="681.5,-0.5 681.5,-19.5 737.5,-19.5 737.5,-0.5 681.5,-0.5"/>
<text text-anchor="middle" x="709.5" y="-7.5" font-family="Helvetica,sans-Serif" font-size="10.00">sstream</text>
</g>
<!-- Node6&#45;&gt;Node10 -->
<g id="edge9" class="edge"><title>Node6&#45;&gt;Node10</title>
<path fill="none" stroke="midnightblue" d="M645.711,-56.324C657.276,-48.1066 674.875,-35.6017 688.661,-25.8069"/>
<polygon fill="midnightblue" stroke="midnightblue" points="690.943,-28.4791 697.067,-19.8339 686.888,-22.7729 690.943,-28.4791"/>
</g>
<!-- Node11 -->
<g id="node11" class="node"><title>Node11</title>
<polygon fill="white" stroke="#bfbfbf" points="755.5,-0.5 755.5,-19.5 803.5,-19.5 803.5,-0.5 755.5,-0.5"/>
<text text-anchor="middle" x="779.5" y="-7.5" font-family="Helvetica,sans-Serif" font-size="10.00">thread</text>
</g>
<!-- Node6&#45;&gt;Node11 -->
<g id="edge10" class="edge"><title>Node6&#45;&gt;Node11</title>
<path fill="none" stroke="midnightblue" d="M656.634,-56.4435C680.982,-47.4381 719.507,-33.1891 746.923,-23.049"/>
<polygon fill="midnightblue" stroke="midnightblue" points="748.309,-26.2681 756.474,-19.5164 745.881,-19.7028 748.309,-26.2681"/>
</g>
<!-- Node14&#45;&gt;Node5 -->
<g id="edge15" class="edge"><title>Node14&#45;&gt;Node5</title>
<path fill="none" stroke="midnightblue" d="M836.029,-173.952C828.372,-171.905 820.155,-169.795 812.5,-168 755.952,-154.742 690.809,-141.929 645.404,-133.389"/>
<polygon fill="midnightblue" stroke="midnightblue" points="645.926,-129.926 635.453,-131.526 644.638,-136.806 645.926,-129.926"/>
</g>
<!-- Node15 -->
<g id="node15" class="node"><title>Node15</title>
<polygon fill="white" stroke="#bfbfbf" points="813.5,-112.5 813.5,-131.5 881.5,-131.5 881.5,-112.5 813.5,-112.5"/>
<text text-anchor="middle" x="847.5" y="-119.5" font-family="Helvetica,sans-Serif" font-size="10.00">Eigen/Core</text>
</g>
<!-- Node14&#45;&gt;Node15 -->
<g id="edge16" class="edge"><title>Node14&#45;&gt;Node15</title>
<path fill="none" stroke="midnightblue" d="M863.778,-173.975C861.069,-165.492 856.826,-152.204 853.351,-141.322"/>
<polygon fill="midnightblue" stroke="midnightblue" points="856.593,-139.97 850.217,-131.509 849.925,-142.1 856.593,-139.97"/>
</g>
<!-- Node16 -->
<g id="node16" class="node"><title>Node16</title>
<polygon fill="white" stroke="#bfbfbf" points="899.5,-112.5 899.5,-131.5 993.5,-131.5 993.5,-112.5 899.5,-112.5"/>
<text text-anchor="middle" x="946.5" y="-119.5" font-family="Helvetica,sans-Serif" font-size="10.00">Eigen/Geometry</text>
</g>
<!-- Node14&#45;&gt;Node16 -->
<g id="edge17" class="edge"><title>Node14&#45;&gt;Node16</title>
<path fill="none" stroke="midnightblue" d="M877.962,-173.975C890.675,-164.52 911.413,-149.096 926.753,-137.687"/>
<polygon fill="midnightblue" stroke="midnightblue" points="929.124,-140.285 935.059,-131.509 924.946,-134.669 929.124,-140.285"/>
</g>
<!-- Node17 -->
<g id="node17" class="node"><title>Node17</title>
<polygon fill="white" stroke="#bfbfbf" points="1185.5,-112.5 1185.5,-131.5 1265.5,-131.5 1265.5,-112.5 1185.5,-112.5"/>
<text text-anchor="middle" x="1225.5" y="-119.5" font-family="Helvetica,sans-Serif" font-size="10.00">Eigen/Sparse</text>
</g>
<!-- Node14&#45;&gt;Node17 -->
<g id="edge18" class="edge"><title>Node14&#45;&gt;Node17</title>
<path fill="none" stroke="midnightblue" d="M911.242,-175.085C978.513,-163.935 1105.29,-142.923 1175.51,-131.285"/>
<polygon fill="midnightblue" stroke="midnightblue" points="1176.16,-134.726 1185.45,-129.638 1175.01,-127.82 1176.16,-134.726"/>
</g>
<!-- Node18&#45;&gt;Node5 -->
<g id="edge21" class="edge"><title>Node18&#45;&gt;Node5</title>
<path fill="none" stroke="midnightblue" d="M725.426,-235.413C703.26,-228.108 673.151,-216.066 650.5,-199 628.899,-182.725 610.237,-157.391 599.181,-140.503"/>
<polygon fill="midnightblue" stroke="midnightblue" points="601.893,-138.243 593.586,-131.668 595.979,-141.989 601.893,-138.243"/>
</g>
<!-- Node18&#45;&gt;Node14 -->
<g id="edge22" class="edge"><title>Node18&#45;&gt;Node14</title>
<path fill="none" stroke="midnightblue" d="M771.404,-235.475C789.785,-225.622 820.256,-209.288 841.745,-197.77"/>
<polygon fill="midnightblue" stroke="midnightblue" points="843.466,-200.818 850.626,-193.009 840.159,-194.649 843.466,-200.818"/>
</g>
<!-- Node19&#45;&gt;Node3 -->
<g id="edge26" class="edge"><title>Node19&#45;&gt;Node3</title>
<path fill="none" stroke="midnightblue" d="M454.295,-291.444C424.09,-282.28 375.989,-267.688 342.471,-257.519"/>
<polygon fill="midnightblue" stroke="midnightblue" points="343.158,-254.07 332.573,-254.516 341.126,-260.769 343.158,-254.07"/>
</g>
<!-- Node19&#45;&gt;Node5 -->
<g id="edge27" class="edge"><title>Node19&#45;&gt;Node5</title>
<path fill="none" stroke="midnightblue" d="M494.039,-291.424C504.634,-283.074 520.207,-269.546 530.5,-255 556.436,-218.348 574.501,-168.253 582.993,-141.547"/>
<polygon fill="midnightblue" stroke="midnightblue" points="586.445,-142.229 586.041,-131.642 579.754,-140.17 586.445,-142.229"/>
</g>
<!-- Node20 -->
<g id="node20" class="node"><title>Node20</title>
<g id="a_node20"><a xlink:href="Index_8hpp.html" target="_top" xlink:title="Core/Utils/Index.hpp">
<polygon fill="white" stroke="black" points="409,-235.5 409,-254.5 522,-254.5 522,-235.5 409,-235.5"/>
<text text-anchor="middle" x="465.5" y="-242.5" font-family="Helvetica,sans-Serif" font-size="10.00">Core/Utils/Index.hpp</text>
</a>
</g>
</g>
<!-- Node19&#45;&gt;Node20 -->
<g id="edge28" class="edge"><title>Node19&#45;&gt;Node20</title>
<path fill="none" stroke="midnightblue" d="M479.693,-291.083C477.415,-283.849 474.129,-273.409 471.292,-264.397"/>
<polygon fill="midnightblue" stroke="midnightblue" points="474.596,-263.239 468.255,-254.751 467.919,-265.341 474.596,-263.239"/>
</g>
<!-- Node20&#45;&gt;Node5 -->
<g id="edge29" class="edge"><title>Node20&#45;&gt;Node5</title>
<path fill="none" stroke="midnightblue" d="M473.095,-235.285C485.788,-220.858 512.305,-191.292 536.5,-168 547.251,-157.65 559.901,-146.679 570.032,-138.16"/>
<polygon fill="midnightblue" stroke="midnightblue" points="572.407,-140.737 577.853,-131.649 567.928,-135.358 572.407,-140.737"/>
</g>
<!-- Node21 -->
<g id="node21" class="node"><title>Node21</title>
<polygon fill="white" stroke="#bfbfbf" points="442.5,-174 442.5,-193 484.5,-193 484.5,-174 442.5,-174"/>
<text text-anchor="middle" x="463.5" y="-181" font-family="Helvetica,sans-Serif" font-size="10.00">limits</text>
</g>
<!-- Node20&#45;&gt;Node21 -->
<g id="edge30" class="edge"><title>Node20&#45;&gt;Node21</title>
<path fill="none" stroke="midnightblue" d="M465.213,-235.475C464.931,-227.08 464.491,-213.981 464.127,-203.163"/>
<polygon fill="midnightblue" stroke="midnightblue" points="467.62,-202.886 463.786,-193.009 460.624,-203.121 467.62,-202.886"/>
</g>
<!-- Node22 -->
<g id="node22" class="node"><title>Node22</title>
<g id="a_node22"><a xlink:href="Index_8inl.html" target="_top" xlink:title="Core/Utils/Index.inl">
<polygon fill="white" stroke="black" points="319,-174 319,-193 424,-193 424,-174 319,-174"/>
<text text-anchor="middle" x="371.5" y="-181" font-family="Helvetica,sans-Serif" font-size="10.00">Core/Utils/Index.inl</text>
</a>
</g>
</g>
<!-- Node20&#45;&gt;Node22 -->
<g id="edge31" class="edge"><title>Node20&#45;&gt;Node22</title>
<path fill="none" stroke="midnightblue" d="M452.032,-235.475C436.815,-225.843 411.813,-210.017 393.699,-198.552"/>
<polygon fill="midnightblue" stroke="midnightblue" points="395.264,-195.4 384.943,-193.009 391.521,-201.315 395.264,-195.4"/>
</g>
<!-- Node23&#45;&gt;Node6 -->
<g id="edge33" class="edge"><title>Node23&#45;&gt;Node6</title>
<path fill="none" stroke="midnightblue" d="M739.856,-173.819C720.625,-154.504 674.06,-107.737 649.414,-82.9827"/>
<polygon fill="midnightblue" stroke="midnightblue" points="651.78,-80.3989 642.244,-75.782 646.819,-85.3379 651.78,-80.3989"/>
</g>
<!-- Node23&#45;&gt;Node15 -->
<g id="edge34" class="edge"><title>Node23&#45;&gt;Node15</title>
<path fill="none" stroke="midnightblue" d="M762.684,-173.975C778.858,-164.255 805.526,-148.227 824.643,-136.737"/>
<polygon fill="midnightblue" stroke="midnightblue" points="826.574,-139.66 833.342,-131.509 822.968,-133.661 826.574,-139.66"/>
</g>
<!-- Node23&#45;&gt;Node16 -->
<g id="edge35" class="edge"><title>Node23&#45;&gt;Node16</title>
<path fill="none" stroke="midnightblue" d="M776.869,-173.975C811.421,-163.592 869.924,-146.012 908.385,-134.454"/>
<polygon fill="midnightblue" stroke="midnightblue" points="909.614,-137.739 918.184,-131.509 907.6,-131.035 909.614,-137.739"/>
</g>
<!-- Node24 -->
<g id="node24" class="node"><title>Node24</title>
<polygon fill="white" stroke="#bfbfbf" points="721.5,-112.5 721.5,-131.5 775.5,-131.5 775.5,-112.5 721.5,-112.5"/>
<text text-anchor="middle" x="748.5" y="-119.5" font-family="Helvetica,sans-Serif" font-size="10.00">random</text>
</g>
<!-- Node23&#45;&gt;Node24 -->
<g id="edge36" class="edge"><title>Node23&#45;&gt;Node24</title>
<path fill="none" stroke="midnightblue" d="M748.5,-173.975C748.5,-165.58 748.5,-152.481 748.5,-141.663"/>
<polygon fill="midnightblue" stroke="midnightblue" points="752,-141.509 748.5,-131.509 745,-141.509 752,-141.509"/>
</g>
<!-- Node25&#45;&gt;Node2 -->
<g id="edge38" class="edge"><title>Node25&#45;&gt;Node2</title>
<path fill="none" stroke="midnightblue" d="M743.631,-310.751C745.157,-317.858 745.604,-328.136 744.972,-337.101"/>
<polygon fill="midnightblue" stroke="midnightblue" points="741.493,-336.713 743.666,-347.083 748.434,-337.622 741.493,-336.713"/>
</g>
<!-- Node27&#45;&gt;Node1 -->
<g id="edge43" class="edge"><title>Node27&#45;&gt;Node1</title>
<path fill="none" stroke="midnightblue" d="M1041.41,-366.652C1036.18,-374.182 1026.53,-385.51 1016.64,-396.038"/>
<polygon fill="midnightblue" stroke="midnightblue" points="1013.87,-393.868 1009.45,-403.498 1018.91,-398.725 1013.87,-393.868"/>
</g>
<!-- Node28 -->
<g id="node28" class="node"><title>Node28</title>
<g id="a_node28"><a xlink:href="LinearAlgebra_8hpp.html" target="_top" xlink:title="Core/Math/LinearAlgebra.hpp">
<polygon fill="white" stroke="black" points="1043.5,-235.5 1043.5,-254.5 1199.5,-254.5 1199.5,-235.5 1043.5,-235.5"/>
<text text-anchor="middle" x="1121.5" y="-242.5" font-family="Helvetica,sans-Serif" font-size="10.00">Core/Math/LinearAlgebra.hpp</text>
</a>
</g>
</g>
<!-- Node27&#45;&gt;Node28 -->
<g id="edge44" class="edge"><title>Node27&#45;&gt;Node28</title>
<path fill="none" stroke="midnightblue" d="M1050.54,-347.368C1063.25,-329.215 1092.94,-286.802 1109.61,-262.99"/>
<polygon fill="midnightblue" stroke="midnightblue" points="1112.62,-264.791 1115.49,-254.591 1106.88,-260.777 1112.62,-264.791"/>
</g>
<!-- Node28&#45;&gt;Node5 -->
<g id="edge45" class="edge"><title>Node28&#45;&gt;Node5</title>
<path fill="none" stroke="midnightblue" d="M1043.41,-241.821C935.207,-237.814 745.946,-226.949 683.5,-199 664.835,-190.646 665.305,-180.976 649.5,-168 636.532,-157.353 621.35,-146.149 609.376,-137.584"/>
<polygon fill="midnightblue" stroke="midnightblue" points="611.118,-134.528 600.935,-131.601 607.07,-140.239 611.118,-134.528"/>
</g>
<!-- Node28&#45;&gt;Node14 -->
<g id="edge57" class="edge"><title>Node28&#45;&gt;Node14</title>
<path fill="none" stroke="midnightblue" d="M1083.52,-235.461C1044,-226.535 980.357,-212.037 925.5,-199 920.747,-197.87 915.783,-196.675 910.84,-195.475"/>
<polygon fill="midnightblue" stroke="midnightblue" points="911.341,-191.994 900.797,-193.023 909.681,-198.795 911.341,-191.994"/>
</g>
<!-- Node28&#45;&gt;Node15 -->
<g id="edge46" class="edge"><title>Node28&#45;&gt;Node15</title>
<path fill="none" stroke="midnightblue" d="M1070.72,-235.461C1037.54,-228.583 993.957,-217.033 958.5,-199 938.764,-188.963 937.584,-180.777 919.5,-168 903.798,-156.906 885.406,-145.435 871.141,-136.852"/>
<polygon fill="midnightblue" stroke="midnightblue" points="872.815,-133.775 862.433,-131.661 869.231,-139.787 872.815,-133.775"/>
</g>
<!-- Node28&#45;&gt;Node16 -->
<g id="edge47" class="edge"><title>Node28&#45;&gt;Node16</title>
<path fill="none" stroke="midnightblue" d="M1199.54,-243.547C1290.69,-240.405 1422.79,-226.135 1370.5,-168 1346.43,-141.242 1114.24,-129.169 1004.03,-124.912"/>
<polygon fill="midnightblue" stroke="midnightblue" points="1003.88,-121.404 993.751,-124.524 1003.61,-128.399 1003.88,-121.404"/>
</g>
<!-- Node28&#45;&gt;Node17 -->
<g id="edge48" class="edge"><title>Node28&#45;&gt;Node17</title>
<path fill="none" stroke="midnightblue" d="M1199.59,-242.45C1273.5,-239.136 1376.86,-229.077 1402.5,-199 1441.06,-153.768 1340.75,-134.709 1275.82,-127.284"/>
<polygon fill="midnightblue" stroke="midnightblue" points="1276.05,-123.788 1265.73,-126.19 1275.29,-130.747 1276.05,-123.788"/>
</g>
<!-- Node29 -->
<g id="node29" class="node"><title>Node29</title>
<polygon fill="white" stroke="#bfbfbf" points="968,-174 968,-193 1031,-193 1031,-174 968,-174"/>
<text text-anchor="middle" x="999.5" y="-181" font-family="Helvetica,sans-Serif" font-size="10.00">functional</text>
</g>
<!-- Node28&#45;&gt;Node29 -->
<g id="edge49" class="edge"><title>Node28&#45;&gt;Node29</title>
<path fill="none" stroke="midnightblue" d="M1104.02,-235.475C1083.64,-225.534 1049.72,-208.995 1026.08,-197.461"/>
<polygon fill="midnightblue" stroke="midnightblue" points="1027.47,-194.247 1016.95,-193.009 1024.4,-200.538 1027.47,-194.247"/>
</g>
<!-- Node30 -->
<g id="node30" class="node"><title>Node30</title>
<polygon fill="white" stroke="#bfbfbf" points="1049,-168.5 1049,-198.5 1194,-198.5 1194,-168.5 1049,-168.5"/>
<text text-anchor="start" x="1057" y="-186.5" font-family="Helvetica,sans-Serif" font-size="10.00">unsupported/Eigen/Aligned</text>
<text text-anchor="middle" x="1121.5" y="-175.5" font-family="Helvetica,sans-Serif" font-size="10.00">Vector3</text>
</g>
<!-- Node28&#45;&gt;Node30 -->
<g id="edge50" class="edge"><title>Node28&#45;&gt;Node30</title>
<path fill="none" stroke="midnightblue" d="M1121.5,-235.475C1121.5,-228.471 1121.5,-218.192 1121.5,-208.696"/>
<polygon fill="midnightblue" stroke="midnightblue" points="1125,-208.523 1121.5,-198.523 1118,-208.523 1125,-208.523"/>
</g>
<!-- Node31 -->
<g id="node31" class="node"><title>Node31</title>
<g id="a_node31"><a xlink:href="Math_8hpp.html" target="_top" xlink:title="Core/Math/Math.hpp">
<polygon fill="white" stroke="black" points="1454.5,-174 1454.5,-193 1568.5,-193 1568.5,-174 1454.5,-174"/>
<text text-anchor="middle" x="1511.5" y="-181" font-family="Helvetica,sans-Serif" font-size="10.00">Core/Math/Math.hpp</text>
</a>
</g>
</g>
<!-- Node28&#45;&gt;Node31 -->
<g id="edge51" class="edge"><title>Node28&#45;&gt;Node31</title>
<path fill="none" stroke="midnightblue" d="M1190.76,-235.474C1255.51,-227.21 1354.79,-213.782 1440.5,-199 1447.33,-197.822 1454.51,-196.479 1461.57,-195.098"/>
<polygon fill="midnightblue" stroke="midnightblue" points="1462.66,-198.45 1471.78,-193.06 1461.28,-191.586 1462.66,-198.45"/>
</g>
<!-- Node35 -->
<g id="node35" class="node"><title>Node35</title>
<g id="a_node35"><a xlink:href="LinearAlgebra_8inl.html" target="_top" xlink:title="Core/Math/LinearAlgebra.inl">
<polygon fill="white" stroke="black" points="1212,-174 1212,-193 1361,-193 1361,-174 1212,-174"/>
<text text-anchor="middle" x="1286.5" y="-181" font-family="Helvetica,sans-Serif" font-size="10.00">Core/Math/LinearAlgebra.inl</text>
</a>
</g>
</g>
<!-- Node28&#45;&gt;Node35 -->
<g id="edge58" class="edge"><title>Node28&#45;&gt;Node35</title>
<path fill="none" stroke="midnightblue" d="M1140.24,-235.475C1166.54,-225.18 1214.51,-207.81 1248.41,-196.25"/>
<polygon fill="midnightblue" stroke="midnightblue" points="1249.65,-199.526 1258.01,-193.009 1247.41,-192.894 1249.65,-199.526"/>
</g>
<!-- Node31&#45;&gt;Node5 -->
<g id="edge52" class="edge"><title>Node31&#45;&gt;Node5</title>
<path fill="none" stroke="midnightblue" d="M1454.27,-175.988C1428.67,-173.236 1398.1,-170.173 1370.5,-168 1078.52,-145.013 1004.79,-150.602 712.5,-132 691.401,-130.657 668.294,-129.024 647.805,-127.52"/>
<polygon fill="midnightblue" stroke="midnightblue" points="647.897,-124.017 637.666,-126.771 647.381,-130.998 647.897,-124.017"/>
</g>
<!-- Node32 -->
<g id="node32" class="node"><title>Node32</title>
<polygon fill="white" stroke="#bfbfbf" points="1531.5,-112.5 1531.5,-131.5 1593.5,-131.5 1593.5,-112.5 1531.5,-112.5"/>
<text text-anchor="middle" x="1562.5" y="-119.5" font-family="Helvetica,sans-Serif" font-size="10.00">algorithm</text>
</g>
<!-- Node31&#45;&gt;Node32 -->
<g id="edge53" class="edge"><title>Node31&#45;&gt;Node32</title>
<path fill="none" stroke="midnightblue" d="M1518.81,-173.975C1526.53,-164.962 1538.91,-150.525 1548.52,-139.312"/>
<polygon fill="midnightblue" stroke="midnightblue" points="1551.36,-141.379 1555.21,-131.509 1546.04,-136.824 1551.36,-141.379"/>
</g>
<!-- Node33 -->
<g id="node33" class="node"><title>Node33</title>
<polygon fill="white" stroke="#bfbfbf" points="1612,-112.5 1612,-131.5 1659,-131.5 1659,-112.5 1612,-112.5"/>
<text text-anchor="middle" x="1635.5" y="-119.5" font-family="Helvetica,sans-Serif" font-size="10.00">cmath</text>
</g>
<!-- Node31&#45;&gt;Node33 -->
<g id="edge54" class="edge"><title>Node31&#45;&gt;Node33</title>
<path fill="none" stroke="midnightblue" d="M1529.27,-173.975C1549.98,-164.034 1584.45,-147.495 1608.49,-135.961"/>
<polygon fill="midnightblue" stroke="midnightblue" points="1610.27,-138.991 1617.77,-131.509 1607.24,-132.68 1610.27,-138.991"/>
</g>
<!-- Node34 -->
<g id="node34" class="node"><title>Node34</title>
<g id="a_node34"><a xlink:href="Math_8inl.html" target="_top" xlink:title="Core/Math/Math.inl">
<polygon fill="white" stroke="black" points="1407,-112.5 1407,-131.5 1514,-131.5 1514,-112.5 1407,-112.5"/>
<text text-anchor="middle" x="1460.5" y="-119.5" font-family="Helvetica,sans-Serif" font-size="10.00">Core/Math/Math.inl</text>
</a>
</g>
</g>
<!-- Node31&#45;&gt;Node34 -->
<g id="edge55" class="edge"><title>Node31&#45;&gt;Node34</title>
<path fill="none" stroke="midnightblue" d="M1499.29,-173.975C1489.79,-165.138 1477.33,-151.089 1468.89,-139.975"/>
<polygon fill="midnightblue" stroke="midnightblue" points="1471.53,-137.651 1462.9,-131.509 1465.82,-141.694 1471.53,-137.651"/>
</g>
<!-- Node34&#45;&gt;Node31 -->
<g id="edge56" class="edge"><title>Node34&#45;&gt;Node31</title>
<path fill="none" stroke="midnightblue" d="M1472.69,-131.509C1482.19,-140.34 1494.65,-154.388 1503.1,-165.505"/>
<polygon fill="midnightblue" stroke="midnightblue" points="1500.46,-167.835 1509.09,-173.975 1506.17,-163.791 1500.46,-167.835"/>
</g>
<!-- Node35&#45;&gt;Node28 -->
<g id="edge59" class="edge"><title>Node35&#45;&gt;Node28</title>
<path fill="none" stroke="midnightblue" d="M1267.8,-193.009C1241.52,-203.297 1193.56,-220.666 1159.64,-232.232"/>
<polygon fill="midnightblue" stroke="midnightblue" points="1158.39,-228.958 1150.04,-235.475 1160.64,-235.59 1158.39,-228.958"/>
</g>
</g>
</svg>
