<?xml version="1.0" encoding="UTF-8" standalone="no"?>
<!DOCTYPE svg PUBLIC "-//W3C//DTD SVG 1.1//EN"
 "http://www.w3.org/Graphics/SVG/1.1/DTD/svg11.dtd">
<!-- Generated by graphviz version 2.38.0 (20140413.2041)
 -->
<!-- Title: Ra::Core::Animation::findCorrectionData Pages: 1 -->
<svg width="443pt" height="161pt"
 viewBox="0.00 0.00 443.00 161.00" xmlns="http://www.w3.org/2000/svg" xmlns:xlink="http://www.w3.org/1999/xlink">
<g id="graph0" class="graph" transform="scale(1 1) rotate(0) translate(4 157)">
<title>Ra::Core::Animation::findCorrectionData</title>
<polygon fill="white" stroke="none" points="-4,4 -4,-157 439,-157 439,4 -4,4"/>
<!-- Node1 -->
<g id="node1" class="node"><title>Node1</title>
<polygon fill="#bfbfbf" stroke="black" points="0,-63 0,-93 113,-93 113,-63 0,-63"/>
<text text-anchor="start" x="8" y="-81" font-family="Helvetica,sans-Serif" font-size="10.00">Ra::Core::Animation</text>
<text text-anchor="middle" x="56.5" y="-70" font-family="Helvetica,sans-Serif" font-size="10.00">::findCorrectionData</text>
</g>
<!-- Node2 -->
<g id="node2" class="node"><title>Node2</title>
<g id="a_node2"><a xlink:href="structRa_1_1Core_1_1Animation_1_1BulgeCorrectionData.html#ab192f6c21547063af4d7b704f2c18433" target="_top" xlink:title="Ra::Core::Animation\l::BulgeCorrectionData\l::resize">
<polygon fill="white" stroke="black" points="152,-111.5 152,-152.5 274,-152.5 274,-111.5 152,-111.5"/>
<text text-anchor="start" x="160" y="-140.5" font-family="Helvetica,sans-Serif" font-size="10.00">Ra::Core::Animation</text>
<text text-anchor="start" x="160" y="-129.5" font-family="Helvetica,sans-Serif" font-size="10.00">::BulgeCorrectionData</text>
<text text-anchor="middle" x="213" y="-118.5" font-family="Helvetica,sans-Serif" font-size="10.00">::resize</text>
</a>
</g>
</g>
<!-- Node1&#45;&gt;Node2 -->
<g id="edge1" class="edge"><title>Node1&#45;&gt;Node2</title>
<path fill="none" stroke="midnightblue" d="M100.537,-93.042C113.94,-97.7268 129.066,-103.013 143.752,-108.146"/>
<polygon fill="midnightblue" stroke="midnightblue" points="142.722,-111.494 153.317,-111.489 145.031,-104.886 142.722,-111.494"/>
</g>
<!-- Node3 -->
<g id="node3" class="node"><title>Node3</title>
<g id="a_node3"><a xlink:href="classRa_1_1Core_1_1AdjacencyList.html#a23393ccd75883f2eb35196d7c82ee94f" target="_top" xlink:title="Ra::Core::AdjacencyList\l::children">
<polygon fill="white" stroke="black" points="149,-63 149,-93 277,-93 277,-63 149,-63"/>
<text text-anchor="start" x="157" y="-81" font-family="Helvetica,sans-Serif" font-size="10.00">Ra::Core::AdjacencyList</text>
<text text-anchor="middle" x="213" y="-70" font-family="Helvetica,sans-Serif" font-size="10.00">::children</text>
</a>
</g>
</g>
<!-- Node1&#45;&gt;Node3 -->
<g id="edge2" class="edge"><title>Node1&#45;&gt;Node3</title>
<path fill="none" stroke="midnightblue" d="M113.278,-78C121.603,-78 130.289,-78 138.906,-78"/>
<polygon fill="midnightblue" stroke="midnightblue" points="138.964,-81.5001 148.964,-78 138.964,-74.5001 138.964,-81.5001"/>
</g>
<!-- Node4 -->
<g id="node4" class="node"><title>Node4</title>
<g id="a_node4"><a xlink:href="namespaceRa_1_1Core_1_1Geometry.html#a749ee9e81862ef200b0b7540cc1f16bc" target="_top" xlink:title="Project point Q on segment AB defined by point A and vector AB = (B &#45;A). ">
<polygon fill="white" stroke="black" points="156.5,-14 156.5,-44 269.5,-44 269.5,-14 156.5,-14"/>
<text text-anchor="start" x="164.5" y="-32" font-family="Helvetica,sans-Serif" font-size="10.00">Ra::Core::Geometry</text>
<text text-anchor="middle" x="213" y="-21" font-family="Helvetica,sans-Serif" font-size="10.00">::projectOnSegment</text>
</a>
</g>
</g>
<!-- Node1&#45;&gt;Node4 -->
<g id="edge3" class="edge"><title>Node1&#45;&gt;Node4</title>
<path fill="none" stroke="midnightblue" d="M105.116,-62.8986C120.755,-57.9385 138.305,-52.3726 154.592,-47.2071"/>
<polygon fill="midnightblue" stroke="midnightblue" points="156.067,-50.411 164.541,-44.0516 153.951,-43.7385 156.067,-50.411"/>
</g>
<!-- Node5 -->
<g id="node5" class="node"><title>Node5</title>
<g id="a_node5"><a xlink:href="namespaceRa_1_1Core_1_1Math.html#acc9f6f3b880b60bf0ee7723afabaf180" target="_top" xlink:title="Component&#45;wise clamp() function on a floating&#45;point vector. ">
<polygon fill="white" stroke="black" points="313,-38.5 313,-57.5 435,-57.5 435,-38.5 313,-38.5"/>
<text text-anchor="middle" x="374" y="-45.5" font-family="Helvetica,sans-Serif" font-size="10.00">Ra::Core::Math::clamp</text>
</a>
</g>
</g>
<!-- Node4&#45;&gt;Node5 -->
<g id="edge4" class="edge"><title>Node4&#45;&gt;Node5</title>
<path fill="none" stroke="midnightblue" d="M269.61,-35.6453C280.306,-36.9234 291.638,-38.2775 302.728,-39.6027"/>
<polygon fill="midnightblue" stroke="midnightblue" points="302.473,-43.0971 312.818,-40.8085 303.304,-36.1466 302.473,-43.0971"/>
</g>
<!-- Node6 -->
<g id="node6" class="node"><title>Node6</title>
<g id="a_node6"><a xlink:href="namespaceOpenMesh.html#a575b338f0fc9ecb5393d23e977e6ac38" target="_top" xlink:title="OpenMesh::dot">
<polygon fill="white" stroke="black" points="329.5,-0.5 329.5,-19.5 418.5,-19.5 418.5,-0.5 329.5,-0.5"/>
<text text-anchor="middle" x="374" y="-7.5" font-family="Helvetica,sans-Serif" font-size="10.00">OpenMesh::dot</text>
</a>
</g>
</g>
<!-- Node4&#45;&gt;Node6 -->
<g id="edge5" class="edge"><title>Node4&#45;&gt;Node6</title>
<path fill="none" stroke="midnightblue" d="M269.61,-22.3547C285.698,-20.4323 303.225,-18.3378 319.201,-16.4288"/>
<polygon fill="midnightblue" stroke="midnightblue" points="319.93,-19.8667 329.444,-15.2048 319.099,-12.9161 319.93,-19.8667"/>
</g>
</g>
</svg>
