<?xml version="1.0" encoding="UTF-8" standalone="no"?>
<!DOCTYPE svg PUBLIC "-//W3C//DTD SVG 1.1//EN"
 "http://www.w3.org/Graphics/SVG/1.1/DTD/svg11.dtd">
<!-- Generated by graphviz version 2.38.0 (20140413.2041)
 -->
<!-- Title: Ra::Core::Geometry::addAttribPairToTopo Pages: 1 -->
<svg width="326pt" height="186pt"
 viewBox="0.00 0.00 326.00 186.00" xmlns="http://www.w3.org/2000/svg" xmlns:xlink="http://www.w3.org/1999/xlink">
<g id="graph0" class="graph" transform="scale(1 1) rotate(0) translate(4 182)">
<title>Ra::Core::Geometry::addAttribPairToTopo</title>
<polygon fill="white" stroke="none" points="-4,4 -4,-182 322,-182 322,4 -4,4"/>
<!-- Node1 -->
<g id="node1" class="node"><title>Node1</title>
<polygon fill="#bfbfbf" stroke="black" points="0,-73.5 0,-103.5 116,-103.5 116,-73.5 0,-73.5"/>
<text text-anchor="start" x="8" y="-91.5" font-family="Helvetica,sans-Serif" font-size="10.00">Ra::Core::Geometry</text>
<text text-anchor="middle" x="58" y="-80.5" font-family="Helvetica,sans-Serif" font-size="10.00">::addAttribPairToTopo</text>
</g>
<!-- Node2 -->
<g id="node2" class="node"><title>Node2</title>
<g id="a_node2"><a xlink:href="classRa_1_1Core_1_1Geometry_1_1TriangleMesh.html#a316e86eab4e624183f1bfe5c25f8592c" target="_top" xlink:title="Return the Handle to the attribute with the given name if it exists, an invalid handle otherwise...">
<polygon fill="white" stroke="black" points="152,-147.5 152,-177.5 318,-177.5 318,-147.5 152,-147.5"/>
<text text-anchor="start" x="160" y="-165.5" font-family="Helvetica,sans-Serif" font-size="10.00">Ra::Core::Geometry</text>
<text text-anchor="middle" x="235" y="-154.5" font-family="Helvetica,sans-Serif" font-size="10.00">::TriangleMesh::getAttribHandle</text>
</a>
</g>
</g>
<!-- Node1&#45;&gt;Node2 -->
<g id="edge1" class="edge"><title>Node1&#45;&gt;Node2</title>
<path fill="none" stroke="midnightblue" d="M83.5727,-103.541C101.935,-114.323 127.914,-128.627 152,-138.5 156.975,-140.539 162.186,-142.482 167.465,-144.316"/>
<polygon fill="midnightblue" stroke="midnightblue" points="166.413,-147.654 177.006,-147.494 168.625,-141.013 166.413,-147.654"/>
</g>
<!-- Node3 -->
<g id="node3" class="node"><title>Node3</title>
<g id="a_node3"><a xlink:href="classRa_1_1Core_1_1Utils_1_1AttribBase.html#a199a249dfb217c274268c016504b46cc" target="_top" xlink:title="Return the attribute&#39;s name. ">
<polygon fill="white" stroke="black" points="165,-98.5 165,-128.5 305,-128.5 305,-98.5 165,-98.5"/>
<text text-anchor="start" x="173" y="-116.5" font-family="Helvetica,sans-Serif" font-size="10.00">Ra::Core::Utils::AttribBase</text>
<text text-anchor="middle" x="235" y="-105.5" font-family="Helvetica,sans-Serif" font-size="10.00">::getName</text>
</a>
</g>
</g>
<!-- Node1&#45;&gt;Node3 -->
<g id="edge2" class="edge"><title>Node1&#45;&gt;Node3</title>
<path fill="none" stroke="midnightblue" d="M116.302,-96.6859C128.693,-98.4562 142.006,-100.358 155.062,-102.223"/>
<polygon fill="midnightblue" stroke="midnightblue" points="154.582,-105.69 164.977,-103.64 155.572,-98.7604 154.582,-105.69"/>
</g>
<!-- Node4 -->
<g id="node4" class="node"><title>Node4</title>
<g id="a_node4"><a xlink:href="classRa_1_1Core_1_1Utils_1_1AttribBase.html#ae94c4736816374aa285ebb42ef9bdc09" target="_top" xlink:title="Return the number of elements in the attribute content. ">
<polygon fill="white" stroke="black" points="165,-49.5 165,-79.5 305,-79.5 305,-49.5 165,-49.5"/>
<text text-anchor="start" x="173" y="-67.5" font-family="Helvetica,sans-Serif" font-size="10.00">Ra::Core::Utils::AttribBase</text>
<text text-anchor="middle" x="235" y="-56.5" font-family="Helvetica,sans-Serif" font-size="10.00">::getSize</text>
</a>
</g>
</g>
<!-- Node1&#45;&gt;Node4 -->
<g id="edge3" class="edge"><title>Node1&#45;&gt;Node4</title>
<path fill="none" stroke="midnightblue" d="M116.302,-80.6415C128.693,-78.9421 142.006,-77.1163 155.062,-75.3258"/>
<polygon fill="midnightblue" stroke="midnightblue" points="155.545,-78.7924 164.977,-73.9661 154.594,-71.8573 155.545,-78.7924"/>
</g>
<!-- Node5 -->
<g id="node5" class="node"><title>Node5</title>
<g id="a_node5"><a xlink:href="classRa_1_1Core_1_1Geometry_1_1TriangleMesh.html#a6ef9dbd18c0501f2ffd1316be6be56ce" target="_top" xlink:title="Access the vertices positions. ">
<polygon fill="white" stroke="black" points="171,-0.5 171,-30.5 299,-30.5 299,-0.5 171,-0.5"/>
<text text-anchor="start" x="179" y="-18.5" font-family="Helvetica,sans-Serif" font-size="10.00">Ra::Core::Geometry</text>
<text text-anchor="middle" x="235" y="-7.5" font-family="Helvetica,sans-Serif" font-size="10.00">::TriangleMesh::vertices</text>
</a>
</g>
</g>
<!-- Node1&#45;&gt;Node5 -->
<g id="edge4" class="edge"><title>Node1&#45;&gt;Node5</title>
<path fill="none" stroke="midnightblue" d="M85.2571,-73.3266C103.563,-63.1549 128.773,-49.9446 152,-40.5 157.79,-38.1455 163.888,-35.8906 170.036,-33.7661"/>
<polygon fill="midnightblue" stroke="midnightblue" points="171.325,-37.0258 179.702,-30.5393 169.109,-30.386 171.325,-37.0258"/>
</g>
</g>
</svg>
