<?xml version="1.0" encoding="UTF-8" standalone="no"?>
<!DOCTYPE svg PUBLIC "-//W3C//DTD SVG 1.1//EN"
 "http://www.w3.org/Graphics/SVG/1.1/DTD/svg11.dtd">
<!-- Generated by graphviz version 2.38.0 (20140413.2041)
 -->
<!-- Title: Ra::Core::Geometry::pointToSegmentSq Pages: 1 -->
<svg width="435pt" height="91pt"
 viewBox="0.00 0.00 435.00 91.00" xmlns="http://www.w3.org/2000/svg" xmlns:xlink="http://www.w3.org/1999/xlink">
<g id="graph0" class="graph" transform="scale(1 1) rotate(0) translate(4 87)">
<title>Ra::Core::Geometry::pointToSegmentSq</title>
<polygon fill="white" stroke="none" points="-4,4 -4,-87 431,-87 431,4 -4,4"/>
<!-- Node1 -->
<g id="node1" class="node"><title>Node1</title>
<polygon fill="#bfbfbf" stroke="black" points="0,-36 0,-66 113,-66 113,-36 0,-36"/>
<text text-anchor="start" x="8" y="-54" font-family="Helvetica,sans-Serif" font-size="10.00">Ra::Core::Geometry</text>
<text text-anchor="middle" x="56.5" y="-43" font-family="Helvetica,sans-Serif" font-size="10.00">::pointToSegmentSq</text>
</g>
<!-- Node2 -->
<g id="node2" class="node"><title>Node2</title>
<g id="a_node2"><a xlink:href="namespaceRa_1_1Core_1_1Geometry.html#aa04e6052d8911b1df1bd881474debb45" target="_top" xlink:title="Ra::Core::Geometry::t">
<polygon fill="white" stroke="black" points="149,-63.5 149,-82.5 269,-82.5 269,-63.5 149,-63.5"/>
<text text-anchor="middle" x="209" y="-70.5" font-family="Helvetica,sans-Serif" font-size="10.00">Ra::Core::Geometry::t</text>
</a>
</g>
</g>
<!-- Node1&#45;&gt;Node2 -->
<g id="edge1" class="edge"><title>Node1&#45;&gt;Node2</title>
<path fill="none" stroke="midnightblue" d="M113.113,-59.1295C121.479,-60.3524 130.192,-61.6261 138.8,-62.8843"/>
<polygon fill="midnightblue" stroke="midnightblue" points="138.427,-66.367 148.828,-64.3503 139.44,-59.4406 138.427,-66.367"/>
</g>
<!-- Node3 -->
<g id="node3" class="node"><title>Node3</title>
<g id="a_node3"><a xlink:href="namespaceRa_1_1Core_1_1Geometry.html#a749ee9e81862ef200b0b7540cc1f16bc" target="_top" xlink:title="Project point Q on segment AB defined by point A and vector AB = (B &#45;A). ">
<polygon fill="white" stroke="black" points="152.5,-14 152.5,-44 265.5,-44 265.5,-14 152.5,-14"/>
<text text-anchor="start" x="160.5" y="-32" font-family="Helvetica,sans-Serif" font-size="10.00">Ra::Core::Geometry</text>
<text text-anchor="middle" x="209" y="-21" font-family="Helvetica,sans-Serif" font-size="10.00">::projectOnSegment</text>
</a>
</g>
</g>
<!-- Node1&#45;&gt;Node3 -->
<g id="edge2" class="edge"><title>Node1&#45;&gt;Node3</title>
<path fill="none" stroke="midnightblue" d="M113.113,-42.8705C122.621,-41.4806 132.58,-40.0249 142.32,-38.601"/>
<polygon fill="midnightblue" stroke="midnightblue" points="142.976,-42.0425 152.364,-37.1328 141.963,-35.1161 142.976,-42.0425"/>
</g>
<!-- Node4 -->
<g id="node4" class="node"><title>Node4</title>
<g id="a_node4"><a xlink:href="namespaceRa_1_1Core_1_1Math.html#acc9f6f3b880b60bf0ee7723afabaf180" target="_top" xlink:title="Component&#45;wise clamp() function on a floating&#45;point vector. ">
<polygon fill="white" stroke="black" points="305,-38.5 305,-57.5 427,-57.5 427,-38.5 305,-38.5"/>
<text text-anchor="middle" x="366" y="-45.5" font-family="Helvetica,sans-Serif" font-size="10.00">Ra::Core::Math::clamp</text>
</a>
</g>
</g>
<!-- Node3&#45;&gt;Node4 -->
<g id="edge3" class="edge"><title>Node3&#45;&gt;Node4</title>
<path fill="none" stroke="midnightblue" d="M265.521,-35.8058C274.998,-36.9675 284.953,-38.1878 294.753,-39.389"/>
<polygon fill="midnightblue" stroke="midnightblue" points="294.53,-42.8878 304.881,-40.6306 295.382,-35.9398 294.53,-42.8878"/>
</g>
<!-- Node5 -->
<g id="node5" class="node"><title>Node5</title>
<g id="a_node5"><a xlink:href="namespaceOpenMesh.html#a575b338f0fc9ecb5393d23e977e6ac38" target="_top" xlink:title="OpenMesh::dot">
<polygon fill="white" stroke="black" points="321.5,-0.5 321.5,-19.5 410.5,-19.5 410.5,-0.5 321.5,-0.5"/>
<text text-anchor="middle" x="366" y="-7.5" font-family="Helvetica,sans-Serif" font-size="10.00">OpenMesh::dot</text>
</a>
</g>
</g>
<!-- Node3&#45;&gt;Node5 -->
<g id="edge4" class="edge"><title>Node3&#45;&gt;Node5</title>
<path fill="none" stroke="midnightblue" d="M265.521,-22.1942C280.342,-20.3774 296.333,-18.4172 311.068,-16.611"/>
<polygon fill="midnightblue" stroke="midnightblue" points="311.538,-20.0796 321.038,-15.3889 310.687,-13.1316 311.538,-20.0796"/>
</g>
</g>
</svg>
