<?xml version="1.0" encoding="UTF-8" standalone="no"?>
<!DOCTYPE svg PUBLIC "-//W3C//DTD SVG 1.1//EN"
 "http://www.w3.org/Graphics/SVG/1.1/DTD/svg11.dtd">
<!-- Generated by graphviz version 2.38.0 (20140413.2041)
 -->
<!-- Title: Ra::Engine::DrawPrimitives::Sphere Pages: 1 -->
<svg width="830pt" height="244pt"
 viewBox="0.00 0.00 830.00 243.93" xmlns="http://www.w3.org/2000/svg" xmlns:xlink="http://www.w3.org/1999/xlink">
<g id="graph0" class="graph" transform="scale(1 1) rotate(0) translate(4 239.926)">
<title>Ra::Engine::DrawPrimitives::Sphere</title>
<polygon fill="white" stroke="none" points="-4,4 -4,-239.926 826,-239.926 826,4 -4,4"/>
<!-- Node1 -->
<g id="node1" class="node"><title>Node1</title>
<polygon fill="#bfbfbf" stroke="black" points="0,-44.4264 0,-74.4264 143,-74.4264 143,-44.4264 0,-44.4264"/>
<text text-anchor="start" x="8" y="-62.4264" font-family="Helvetica,sans-Serif" font-size="10.00">Ra::Engine::DrawPrimitives</text>
<text text-anchor="middle" x="71.5" y="-51.4264" font-family="Helvetica,sans-Serif" font-size="10.00">::Sphere</text>
</g>
<!-- Node2 -->
<g id="node2" class="node"><title>Node2</title>
<g id="a_node2"><a xlink:href="namespaceRa_1_1Core_1_1Geometry.html#a9f1b964d3d8b54b91ca8ba0f788c66e7" target="_top" xlink:title="Create a spherical mesh by subdivision of an icosahedron. ">
<polygon fill="white" stroke="black" points="179,-98.4264 179,-128.426 307,-128.426 307,-98.4264 179,-98.4264"/>
<text text-anchor="start" x="187" y="-116.426" font-family="Helvetica,sans-Serif" font-size="10.00">Ra::Core::Geometry</text>
<text text-anchor="middle" x="243" y="-105.426" font-family="Helvetica,sans-Serif" font-size="10.00">::makeGeodesicSphere</text>
</a>
</g>
</g>
<!-- Node1&#45;&gt;Node2 -->
<g id="edge1" class="edge"><title>Node1&#45;&gt;Node2</title>
<path fill="none" stroke="midnightblue" d="M119.715,-74.4684C140.017,-80.9364 163.921,-88.5517 185.183,-95.3255"/>
<polygon fill="midnightblue" stroke="midnightblue" points="184.154,-98.6708 194.744,-98.3715 186.279,-92.0011 184.154,-98.6708"/>
</g>
<!-- Node3 -->
<g id="node3" class="node"><title>Node3</title>
<g id="a_node3"><a xlink:href="classRa_1_1Core_1_1Geometry_1_1TriangleMesh.html#a6ef9dbd18c0501f2ffd1316be6be56ce" target="_top" xlink:title="Access the vertices positions. ">
<polygon fill="white" stroke="black" points="557,-68.4264 557,-98.4264 685,-98.4264 685,-68.4264 557,-68.4264"/>
<text text-anchor="start" x="565" y="-86.4264" font-family="Helvetica,sans-Serif" font-size="10.00">Ra::Core::Geometry</text>
<text text-anchor="middle" x="621" y="-75.4264" font-family="Helvetica,sans-Serif" font-size="10.00">::TriangleMesh::vertices</text>
</a>
</g>
</g>
<!-- Node1&#45;&gt;Node3 -->
<g id="edge15" class="edge"><title>Node1&#45;&gt;Node3</title>
<path fill="none" stroke="midnightblue" d="M114.908,-44.38C196.396,-17.9793 379.165,28.9671 519,-25.4264 539.229,-33.295 536.548,-46.9972 555,-58.4264 558.167,-60.3881 561.513,-62.2397 564.95,-63.9794"/>
<polygon fill="midnightblue" stroke="midnightblue" points="563.657,-67.2389 574.196,-68.3215 566.633,-60.9027 563.657,-67.2389"/>
</g>
<!-- Node2&#45;&gt;Node3 -->
<g id="edge2" class="edge"><title>Node2&#45;&gt;Node3</title>
<path fill="none" stroke="midnightblue" d="M307.173,-118.563C363.153,-121.896 446.949,-123.901 519,-113.426 535.789,-110.986 553.671,-106.376 569.649,-101.488"/>
<polygon fill="midnightblue" stroke="midnightblue" points="570.847,-104.78 579.325,-98.4266 568.735,-98.1066 570.847,-104.78"/>
</g>
<!-- Node4 -->
<g id="node4" class="node"><title>Node4</title>
<g id="a_node4"><a xlink:href="classRa_1_1Core_1_1Geometry_1_1TriangleMesh.html#ad7d3f6272b902171740e50232ba56114" target="_top" xlink:title="Access the vertices normals. ">
<polygon fill="white" stroke="black" points="556.5,-205.426 556.5,-235.426 685.5,-235.426 685.5,-205.426 556.5,-205.426"/>
<text text-anchor="start" x="564.5" y="-223.426" font-family="Helvetica,sans-Serif" font-size="10.00">Ra::Core::Geometry</text>
<text text-anchor="middle" x="621" y="-212.426" font-family="Helvetica,sans-Serif" font-size="10.00">::TriangleMesh::normals</text>
</a>
</g>
</g>
<!-- Node2&#45;&gt;Node4 -->
<g id="edge3" class="edge"><title>Node2&#45;&gt;Node4</title>
<path fill="none" stroke="midnightblue" d="M255.792,-128.699C272.617,-149.183 305.643,-184.785 343,-200.426 407.821,-227.567 488.619,-230.286 546.191,-227.595"/>
<polygon fill="midnightblue" stroke="midnightblue" points="546.502,-231.083 556.301,-227.056 546.129,-224.093 546.502,-231.083"/>
</g>
<!-- Node5 -->
<g id="node5" class="node"><title>Node5</title>
<g id="a_node5"><a xlink:href="namespaceRa_1_1Core_1_1Math.html#a4f441ac6a56092d52849a4f48e274aa8" target="_top" xlink:title="Get the cosine of the angle between two vectors. ">
<polygon fill="white" stroke="black" points="376,-84.9264 376,-103.926 486,-103.926 486,-84.9264 376,-84.9264"/>
<text text-anchor="middle" x="431" y="-91.9264" font-family="Helvetica,sans-Serif" font-size="10.00">Ra::Core::Math::cos</text>
</a>
</g>
</g>
<!-- Node2&#45;&gt;Node5 -->
<g id="edge4" class="edge"><title>Node2&#45;&gt;Node5</title>
<path fill="none" stroke="midnightblue" d="M307.231,-106.967C326.156,-105.034 346.921,-102.913 365.901,-100.974"/>
<polygon fill="midnightblue" stroke="midnightblue" points="366.349,-104.447 375.941,-99.9485 365.638,-97.4829 366.349,-104.447"/>
</g>
<!-- Node6 -->
<g id="node6" class="node"><title>Node6</title>
<g id="a_node6"><a xlink:href="classRa_1_1Core_1_1Geometry_1_1TriangleMesh.html#a51b5e7d49d82ffa036306e28a42cd92b" target="_top" xlink:title="Utility function colorzing the mesh with a given color. Add the color attribute if needed...">
<polygon fill="white" stroke="black" points="367.5,-35.4264 367.5,-65.4264 494.5,-65.4264 494.5,-35.4264 367.5,-35.4264"/>
<text text-anchor="start" x="375.5" y="-53.4264" font-family="Helvetica,sans-Serif" font-size="10.00">Ra::Core::Geometry</text>
<text text-anchor="middle" x="431" y="-42.4264" font-family="Helvetica,sans-Serif" font-size="10.00">::TriangleMesh::colorize</text>
</a>
</g>
</g>
<!-- Node2&#45;&gt;Node6 -->
<g id="edge5" class="edge"><title>Node2&#45;&gt;Node6</title>
<path fill="none" stroke="midnightblue" d="M280.864,-98.4032C299.373,-91.0838 322.226,-82.3836 343,-75.4264 350.149,-73.0321 357.675,-70.6571 365.184,-68.3784"/>
<polygon fill="midnightblue" stroke="midnightblue" points="366.432,-71.6585 375.013,-65.4447 364.43,-64.9509 366.432,-71.6585"/>
</g>
<!-- Node8 -->
<g id="node8" class="node"><title>Node8</title>
<g id="a_node8"><a xlink:href="classRa_1_1Core_1_1Geometry_1_1TriangleMesh.html#a0b294c697e094dcc62b3adb3c0ac16af" target="_top" xlink:title="Check that the mesh is well built, asserting when it is not. ">
<polygon fill="white" stroke="black" points="343,-161.426 343,-191.426 519,-191.426 519,-161.426 343,-161.426"/>
<text text-anchor="start" x="351" y="-179.426" font-family="Helvetica,sans-Serif" font-size="10.00">Ra::Core::Geometry</text>
<text text-anchor="middle" x="431" y="-168.426" font-family="Helvetica,sans-Serif" font-size="10.00">::TriangleMesh::checkConsistency</text>
</a>
</g>
</g>
<!-- Node2&#45;&gt;Node8 -->
<g id="edge8" class="edge"><title>Node2&#45;&gt;Node8</title>
<path fill="none" stroke="midnightblue" d="M288.552,-128.516C314.797,-137.406 348.186,-148.715 375.932,-158.113"/>
<polygon fill="midnightblue" stroke="midnightblue" points="374.896,-161.457 385.49,-161.35 377.141,-154.827 374.896,-161.457"/>
</g>
<!-- Node6&#45;&gt;Node3 -->
<g id="edge7" class="edge"><title>Node6&#45;&gt;Node3</title>
<path fill="none" stroke="midnightblue" d="M494.601,-61.4149C511.299,-64.3458 529.489,-67.5389 546.705,-70.5608"/>
<polygon fill="midnightblue" stroke="midnightblue" points="546.255,-74.0353 556.71,-72.317 547.466,-67.1407 546.255,-74.0353"/>
</g>
<!-- Node7 -->
<g id="node7" class="node"><title>Node7</title>
<g id="a_node7"><a xlink:href="classRa_1_1Core_1_1Geometry_1_1TriangleMesh.html#a209037ce5a11ec8539a9ada7ba763e8c" target="_top" xlink:title="Get attribute by handle. ">
<polygon fill="white" stroke="black" points="555,-19.4264 555,-49.4264 687,-49.4264 687,-19.4264 555,-19.4264"/>
<text text-anchor="start" x="563" y="-37.4264" font-family="Helvetica,sans-Serif" font-size="10.00">Ra::Core::Geometry</text>
<text text-anchor="middle" x="621" y="-26.4264" font-family="Helvetica,sans-Serif" font-size="10.00">::TriangleMesh::getAttrib</text>
</a>
</g>
</g>
<!-- Node6&#45;&gt;Node7 -->
<g id="edge6" class="edge"><title>Node6&#45;&gt;Node7</title>
<path fill="none" stroke="midnightblue" d="M494.601,-45.0986C510.612,-43.736 527.995,-42.2566 544.576,-40.8455"/>
<polygon fill="midnightblue" stroke="midnightblue" points="545.109,-44.3128 554.776,-39.9773 544.516,-37.338 545.109,-44.3128"/>
</g>
<!-- Node8&#45;&gt;Node3 -->
<g id="edge9" class="edge"><title>Node8&#45;&gt;Node3</title>
<path fill="none" stroke="midnightblue" d="M489.13,-161.266C499.503,-157.271 509.905,-152.369 519,-146.426 538.748,-133.524 535.393,-120.541 555,-107.426 557.265,-105.911 559.639,-104.476 562.084,-103.119"/>
<polygon fill="midnightblue" stroke="midnightblue" points="563.822,-106.163 571.182,-98.5414 560.676,-99.9094 563.822,-106.163"/>
</g>
<!-- Node8&#45;&gt;Node4 -->
<g id="edge14" class="edge"><title>Node8&#45;&gt;Node4</title>
<path fill="none" stroke="midnightblue" d="M496.173,-191.446C512.293,-195.218 529.719,-199.297 546.266,-203.169"/>
<polygon fill="midnightblue" stroke="midnightblue" points="545.9,-206.678 556.435,-205.549 547.495,-199.863 545.9,-206.678"/>
</g>
<!-- Node9 -->
<g id="node9" class="node"><title>Node9</title>
<g id="a_node9"><a xlink:href="namespaceRa_1_1Core_1_1Geometry.html#aa04e6052d8911b1df1bd881474debb45" target="_top" xlink:title="Ra::Core::Geometry::t">
<polygon fill="white" stroke="black" points="561,-166.926 561,-185.926 681,-185.926 681,-166.926 561,-166.926"/>
<text text-anchor="middle" x="621" y="-173.926" font-family="Helvetica,sans-Serif" font-size="10.00">Ra::Core::Geometry::t</text>
</a>
</g>
</g>
<!-- Node8&#45;&gt;Node9 -->
<g id="edge10" class="edge"><title>Node8&#45;&gt;Node9</title>
<path fill="none" stroke="midnightblue" d="M519.121,-176.426C529.71,-176.426 540.417,-176.426 550.699,-176.426"/>
<polygon fill="midnightblue" stroke="midnightblue" points="550.82,-179.927 560.82,-176.426 550.819,-172.927 550.82,-179.927"/>
</g>
<!-- Node10 -->
<g id="node10" class="node"><title>Node10</title>
<g id="a_node10"><a xlink:href="namespaceRa_1_1Core_1_1Geometry.html#a178f2b7309fe2ea5bc31a3abcb25368e" target="_top" xlink:title="Ra::Core::Geometry\l::triangleArea">
<polygon fill="white" stroke="black" points="565.5,-117.426 565.5,-147.426 676.5,-147.426 676.5,-117.426 565.5,-117.426"/>
<text text-anchor="start" x="573.5" y="-135.426" font-family="Helvetica,sans-Serif" font-size="10.00">Ra::Core::Geometry</text>
<text text-anchor="middle" x="621" y="-124.426" font-family="Helvetica,sans-Serif" font-size="10.00">::triangleArea</text>
</a>
</g>
</g>
<!-- Node8&#45;&gt;Node10 -->
<g id="edge11" class="edge"><title>Node8&#45;&gt;Node10</title>
<path fill="none" stroke="midnightblue" d="M496.173,-161.407C515.286,-156.934 536.234,-152.031 555.375,-147.551"/>
<polygon fill="midnightblue" stroke="midnightblue" points="556.262,-150.938 565.201,-145.252 554.667,-144.123 556.262,-150.938"/>
</g>
<!-- Node11 -->
<g id="node11" class="node"><title>Node11</title>
<g id="a_node11"><a xlink:href="namespaceOpenMesh.html#a71e7f1dd3eac016d2b8245ac408a291c" target="_top" xlink:title="OpenMesh::cross">
<polygon fill="white" stroke="black" points="723,-141.926 723,-160.926 822,-160.926 822,-141.926 723,-141.926"/>
<text text-anchor="middle" x="772.5" y="-148.926" font-family="Helvetica,sans-Serif" font-size="10.00">OpenMesh::cross</text>
</a>
</g>
</g>
<!-- Node10&#45;&gt;Node11 -->
<g id="edge12" class="edge"><title>Node10&#45;&gt;Node11</title>
<path fill="none" stroke="midnightblue" d="M676.819,-139.393C688.421,-140.868 700.714,-142.43 712.464,-143.924"/>
<polygon fill="midnightblue" stroke="midnightblue" points="712.258,-147.425 722.619,-145.214 713.14,-140.481 712.258,-147.425"/>
</g>
<!-- Node12 -->
<g id="node12" class="node"><title>Node12</title>
<g id="a_node12"><a xlink:href="namespaceOpenMesh.html#a8205f789ce08919bc11c58383574596c" target="_top" xlink:title="OpenMesh::norm">
<polygon fill="white" stroke="black" points="723,-103.926 723,-122.926 822,-122.926 822,-103.926 723,-103.926"/>
<text text-anchor="middle" x="772.5" y="-110.926" font-family="Helvetica,sans-Serif" font-size="10.00">OpenMesh::norm</text>
</a>
</g>
</g>
<!-- Node10&#45;&gt;Node12 -->
<g id="edge13" class="edge"><title>Node10&#45;&gt;Node12</title>
<path fill="none" stroke="midnightblue" d="M676.819,-125.459C688.421,-123.985 700.714,-122.423 712.464,-120.929"/>
<polygon fill="midnightblue" stroke="midnightblue" points="713.14,-124.372 722.619,-119.639 712.258,-117.427 713.14,-124.372"/>
</g>
</g>
</svg>
