<?xml version="1.0" encoding="UTF-8" standalone="no"?>
<!DOCTYPE svg PUBLIC "-//W3C//DTD SVG 1.1//EN"
 "http://www.w3.org/Graphics/SVG/1.1/DTD/svg11.dtd">
<!-- Generated by graphviz version 2.38.0 (20140413.2041)
 -->
<!-- Title: Ra::Core::Geometry::voronoiArea Pages: 1 -->
<svg width="443pt" height="127pt"
 viewBox="0.00 0.00 443.00 126.50" xmlns="http://www.w3.org/2000/svg" xmlns:xlink="http://www.w3.org/1999/xlink">
<g id="graph0" class="graph" transform="scale(1 1) rotate(0) translate(4 122.5)">
<title>Ra::Core::Geometry::voronoiArea</title>
<polygon fill="white" stroke="none" points="-4,4 -4,-122.5 439,-122.5 439,4 -4,4"/>
<!-- Node1 -->
<g id="node1" class="node"><title>Node1</title>
<polygon fill="#bfbfbf" stroke="black" points="0,-39 0,-69 111,-69 111,-39 0,-39"/>
<text text-anchor="start" x="8" y="-57" font-family="Helvetica,sans-Serif" font-size="10.00">Ra::Core::Geometry</text>
<text text-anchor="middle" x="55.5" y="-46" font-family="Helvetica,sans-Serif" font-size="10.00">::voronoiArea</text>
</g>
<!-- Node2 -->
<g id="node2" class="node"><title>Node2</title>
<g id="a_node2"><a xlink:href="classRa_1_1Core_1_1Utils_1_1CircularIndex.html#a9d8cf684f128b57aa26197f31afb23c0" target="_top" xlink:title="Ra::Core::Utils::Circular\lIndex::setSize">
<polygon fill="white" stroke="black" points="147,-88 147,-118 273,-118 273,-88 147,-88"/>
<text text-anchor="start" x="155" y="-106" font-family="Helvetica,sans-Serif" font-size="10.00">Ra::Core::Utils::Circular</text>
<text text-anchor="middle" x="210" y="-95" font-family="Helvetica,sans-Serif" font-size="10.00">Index::setSize</text>
</a>
</g>
</g>
<!-- Node1&#45;&gt;Node2 -->
<g id="edge1" class="edge"><title>Node1&#45;&gt;Node2</title>
<path fill="none" stroke="midnightblue" d="M103.499,-69.1014C118.936,-74.0615 136.259,-79.6274 152.335,-84.7929"/>
<polygon fill="midnightblue" stroke="midnightblue" points="151.564,-88.2215 162.156,-87.9484 153.706,-81.5571 151.564,-88.2215"/>
</g>
<!-- Node4 -->
<g id="node4" class="node"><title>Node4</title>
<g id="a_node4"><a xlink:href="classRa_1_1Core_1_1Utils_1_1CircularIndex.html#a2499a4fd3344499031a9830f9baeec21" target="_top" xlink:title="Ra::Core::Utils::Circular\lIndex::setValue">
<polygon fill="white" stroke="black" points="147,-39 147,-69 273,-69 273,-39 147,-39"/>
<text text-anchor="start" x="155" y="-57" font-family="Helvetica,sans-Serif" font-size="10.00">Ra::Core::Utils::Circular</text>
<text text-anchor="middle" x="210" y="-46" font-family="Helvetica,sans-Serif" font-size="10.00">Index::setValue</text>
</a>
</g>
</g>
<!-- Node1&#45;&gt;Node4 -->
<g id="edge3" class="edge"><title>Node1&#45;&gt;Node4</title>
<path fill="none" stroke="midnightblue" d="M111.125,-54C119.479,-54 128.211,-54 136.872,-54"/>
<polygon fill="midnightblue" stroke="midnightblue" points="136.979,-57.5001 146.979,-54 136.979,-50.5001 136.979,-57.5001"/>
</g>
<!-- Node5 -->
<g id="node5" class="node"><title>Node5</title>
<g id="a_node5"><a xlink:href="namespaceRa_1_1Core_1_1Math.html#a8667e211f2182821346ba4bcfe07b053" target="_top" xlink:title="Get the cotangent of the angle between two vectors. ">
<polygon fill="white" stroke="black" points="150,-0.5 150,-19.5 270,-19.5 270,-0.5 150,-0.5"/>
<text text-anchor="middle" x="210" y="-7.5" font-family="Helvetica,sans-Serif" font-size="10.00">Ra::Core::Math::cotan</text>
</a>
</g>
</g>
<!-- Node1&#45;&gt;Node5 -->
<g id="edge4" class="edge"><title>Node1&#45;&gt;Node5</title>
<path fill="none" stroke="midnightblue" d="M108.555,-38.9808C127.165,-33.6115 147.919,-27.6234 165.709,-22.4905"/>
<polygon fill="midnightblue" stroke="midnightblue" points="167.165,-25.7133 175.803,-19.5783 165.224,-18.9877 167.165,-25.7133"/>
</g>
<!-- Node3 -->
<g id="node3" class="node"><title>Node3</title>
<g id="a_node3"><a xlink:href="classRa_1_1Core_1_1Utils_1_1CircularIndex.html#abcf96670a4e6bd604cb7385c51a94991" target="_top" xlink:title="DIMENSION. ">
<polygon fill="white" stroke="black" points="309,-88 309,-118 435,-118 435,-88 309,-88"/>
<text text-anchor="start" x="317" y="-106" font-family="Helvetica,sans-Serif" font-size="10.00">Ra::Core::Utils::Circular</text>
<text text-anchor="middle" x="372" y="-95" font-family="Helvetica,sans-Serif" font-size="10.00">Index::size</text>
</a>
</g>
</g>
<!-- Node2&#45;&gt;Node3 -->
<g id="edge2" class="edge"><title>Node2&#45;&gt;Node3</title>
<path fill="none" stroke="midnightblue" d="M273.318,-103C281.615,-103 290.179,-103 298.628,-103"/>
<polygon fill="midnightblue" stroke="midnightblue" points="298.852,-106.5 308.852,-103 298.852,-99.5001 298.852,-106.5"/>
</g>
</g>
</svg>
