<?xml version="1.0" encoding="UTF-8" standalone="no"?>
<!DOCTYPE svg PUBLIC "-//W3C//DTD SVG 1.1//EN"
 "http://www.w3.org/Graphics/SVG/1.1/DTD/svg11.dtd">
<!-- Generated by graphviz version 2.38.0 (20140413.2041)
 -->
<!-- Title: Ra::Core::Geometry::mixedArea Pages: 1 -->
<svg width="410pt" height="217pt"
 viewBox="0.00 0.00 410.00 217.00" xmlns="http://www.w3.org/2000/svg" xmlns:xlink="http://www.w3.org/1999/xlink">
<g id="graph0" class="graph" transform="scale(1 1) rotate(0) translate(4 213)">
<title>Ra::Core::Geometry::mixedArea</title>
<polygon fill="white" stroke="none" points="-4,4 -4,-213 406,-213 406,4 -4,4"/>
<!-- Node1 -->
<g id="node1" class="node"><title>Node1</title>
<polygon fill="#bfbfbf" stroke="black" points="0,-96 0,-126 111,-126 111,-96 0,-96"/>
<text text-anchor="start" x="8" y="-114" font-family="Helvetica,sans-Serif" font-size="10.00">Ra::Core::Geometry</text>
<text text-anchor="middle" x="55.5" y="-103" font-family="Helvetica,sans-Serif" font-size="10.00">::mixedArea</text>
</g>
<!-- Node2 -->
<g id="node2" class="node"><title>Node2</title>
<g id="a_node2"><a xlink:href="namespaceRa_1_1Core_1_1Geometry.html#aa04e6052d8911b1df1bd881474debb45" target="_top" xlink:title="Ra::Core::Geometry::t">
<polygon fill="white" stroke="black" points="147,-189.5 147,-208.5 267,-208.5 267,-189.5 147,-189.5"/>
<text text-anchor="middle" x="207" y="-196.5" font-family="Helvetica,sans-Serif" font-size="10.00">Ra::Core::Geometry::t</text>
</a>
</g>
</g>
<!-- Node1&#45;&gt;Node2 -->
<g id="edge1" class="edge"><title>Node1&#45;&gt;Node2</title>
<path fill="none" stroke="midnightblue" d="M72.6703,-126.082C89.9261,-141.484 118.632,-165.178 147,-180 151.191,-182.19 155.681,-184.187 160.244,-185.994"/>
<polygon fill="midnightblue" stroke="midnightblue" points="159.048,-189.283 169.641,-189.437 161.455,-182.711 159.048,-189.283"/>
</g>
<!-- Node3 -->
<g id="node3" class="node"><title>Node3</title>
<g id="a_node3"><a xlink:href="namespaceRa_1_1Core_1_1Geometry.html#a80e2472f741c08ef62e73b2b5ce8f371" target="_top" xlink:title="Ra::Core::Geometry\l::isTriangleObtuse">
<polygon fill="white" stroke="black" points="151.5,-140 151.5,-170 262.5,-170 262.5,-140 151.5,-140"/>
<text text-anchor="start" x="159.5" y="-158" font-family="Helvetica,sans-Serif" font-size="10.00">Ra::Core::Geometry</text>
<text text-anchor="middle" x="207" y="-147" font-family="Helvetica,sans-Serif" font-size="10.00">::isTriangleObtuse</text>
</a>
</g>
</g>
<!-- Node1&#45;&gt;Node3 -->
<g id="edge2" class="edge"><title>Node1&#45;&gt;Node3</title>
<path fill="none" stroke="midnightblue" d="M107.531,-126.019C119.612,-129.575 132.615,-133.402 145.086,-137.072"/>
<polygon fill="midnightblue" stroke="midnightblue" points="144.364,-140.508 154.945,-139.974 146.34,-133.793 144.364,-140.508"/>
</g>
<!-- Node4 -->
<g id="node4" class="node"><title>Node4</title>
<g id="a_node4"><a xlink:href="namespaceOpenMesh.html#a575b338f0fc9ecb5393d23e977e6ac38" target="_top" xlink:title="OpenMesh::dot">
<polygon fill="white" stroke="black" points="308,-123.5 308,-142.5 397,-142.5 397,-123.5 308,-123.5"/>
<text text-anchor="middle" x="352.5" y="-130.5" font-family="Helvetica,sans-Serif" font-size="10.00">OpenMesh::dot</text>
</a>
</g>
</g>
<!-- Node1&#45;&gt;Node4 -->
<g id="edge8" class="edge"><title>Node1&#45;&gt;Node4</title>
<path fill="none" stroke="midnightblue" d="M111.296,-115.086C164.407,-119.047 244.487,-125.019 297.371,-128.963"/>
<polygon fill="midnightblue" stroke="midnightblue" points="297.337,-132.47 307.57,-129.724 297.858,-125.49 297.337,-132.47"/>
</g>
<!-- Node5 -->
<g id="node5" class="node"><title>Node5</title>
<g id="a_node5"><a xlink:href="namespaceRa_1_1Core_1_1Math.html#a8667e211f2182821346ba4bcfe07b053" target="_top" xlink:title="Get the cotangent of the angle between two vectors. ">
<polygon fill="white" stroke="black" points="147,-63.5 147,-82.5 267,-82.5 267,-63.5 147,-63.5"/>
<text text-anchor="middle" x="207" y="-70.5" font-family="Helvetica,sans-Serif" font-size="10.00">Ra::Core::Math::cotan</text>
</a>
</g>
</g>
<!-- Node1&#45;&gt;Node5 -->
<g id="edge4" class="edge"><title>Node1&#45;&gt;Node5</title>
<path fill="none" stroke="midnightblue" d="M111.319,-97.066C126.757,-93.142 143.418,-88.9071 158.397,-85.0998"/>
<polygon fill="midnightblue" stroke="midnightblue" points="159.632,-88.3972 168.462,-82.5415 157.908,-81.6129 159.632,-88.3972"/>
</g>
<!-- Node6 -->
<g id="node6" class="node"><title>Node6</title>
<g id="a_node6"><a xlink:href="namespaceRa_1_1Core_1_1Geometry.html#a178f2b7309fe2ea5bc31a3abcb25368e" target="_top" xlink:title="Ra::Core::Geometry\l::triangleArea">
<polygon fill="white" stroke="black" points="151.5,-14 151.5,-44 262.5,-44 262.5,-14 151.5,-14"/>
<text text-anchor="start" x="159.5" y="-32" font-family="Helvetica,sans-Serif" font-size="10.00">Ra::Core::Geometry</text>
<text text-anchor="middle" x="207" y="-21" font-family="Helvetica,sans-Serif" font-size="10.00">::triangleArea</text>
</a>
</g>
</g>
<!-- Node1&#45;&gt;Node6 -->
<g id="edge5" class="edge"><title>Node1&#45;&gt;Node6</title>
<path fill="none" stroke="midnightblue" d="M78.2254,-95.9198C96.2006,-83.7879 122.642,-66.7252 147,-54 150.716,-52.0586 154.617,-50.147 158.567,-48.2985"/>
<polygon fill="midnightblue" stroke="midnightblue" points="160.143,-51.4269 167.811,-44.1155 157.257,-45.0495 160.143,-51.4269"/>
</g>
<!-- Node3&#45;&gt;Node4 -->
<g id="edge3" class="edge"><title>Node3&#45;&gt;Node4</title>
<path fill="none" stroke="midnightblue" d="M262.661,-146.62C274.177,-144.854 286.318,-142.993 297.799,-141.233"/>
<polygon fill="midnightblue" stroke="midnightblue" points="298.333,-144.692 307.687,-139.717 297.272,-137.773 298.333,-144.692"/>
</g>
<!-- Node7 -->
<g id="node7" class="node"><title>Node7</title>
<g id="a_node7"><a xlink:href="namespaceOpenMesh.html#a71e7f1dd3eac016d2b8245ac408a291c" target="_top" xlink:title="OpenMesh::cross">
<polygon fill="white" stroke="black" points="303,-38.5 303,-57.5 402,-57.5 402,-38.5 303,-38.5"/>
<text text-anchor="middle" x="352.5" y="-45.5" font-family="Helvetica,sans-Serif" font-size="10.00">OpenMesh::cross</text>
</a>
</g>
</g>
<!-- Node6&#45;&gt;Node7 -->
<g id="edge6" class="edge"><title>Node6&#45;&gt;Node7</title>
<path fill="none" stroke="midnightblue" d="M262.661,-36.2373C272.419,-37.5293 282.625,-38.8807 292.498,-40.1879"/>
<polygon fill="midnightblue" stroke="midnightblue" points="292.261,-43.687 302.634,-41.53 293.18,-36.7476 292.261,-43.687"/>
</g>
<!-- Node8 -->
<g id="node8" class="node"><title>Node8</title>
<g id="a_node8"><a xlink:href="namespaceOpenMesh.html#a8205f789ce08919bc11c58383574596c" target="_top" xlink:title="OpenMesh::norm">
<polygon fill="white" stroke="black" points="303,-0.5 303,-19.5 402,-19.5 402,-0.5 303,-0.5"/>
<text text-anchor="middle" x="352.5" y="-7.5" font-family="Helvetica,sans-Serif" font-size="10.00">OpenMesh::norm</text>
</a>
</g>
</g>
<!-- Node6&#45;&gt;Node8 -->
<g id="edge7" class="edge"><title>Node6&#45;&gt;Node8</title>
<path fill="none" stroke="midnightblue" d="M262.661,-21.7627C272.419,-20.4707 282.625,-19.1193 292.498,-17.8121"/>
<polygon fill="midnightblue" stroke="midnightblue" points="293.18,-21.2524 302.634,-16.47 292.261,-14.313 293.18,-21.2524"/>
</g>
</g>
</svg>
