<?xml version="1.0" encoding="UTF-8" standalone="no"?>
<!DOCTYPE svg PUBLIC "-//W3C//DTD SVG 1.1//EN"
 "http://www.w3.org/Graphics/SVG/1.1/DTD/svg11.dtd">
<!-- Generated by graphviz version 2.38.0 (20140413.2041)
 -->
<!-- Title: Ra::Core::Geometry::makeGeodesicSphere Pages: 1 -->
<svg width="651pt" height="225pt"
 viewBox="0.00 0.00 651.00 224.50" xmlns="http://www.w3.org/2000/svg" xmlns:xlink="http://www.w3.org/1999/xlink">
<g id="graph0" class="graph" transform="scale(1 1) rotate(0) translate(4 220.5)">
<title>Ra::Core::Geometry::makeGeodesicSphere</title>
<polygon fill="white" stroke="none" points="-4,4 -4,-220.5 647,-220.5 647,4 -4,4"/>
<!-- Node1 -->
<g id="node1" class="node"><title>Node1</title>
<polygon fill="#bfbfbf" stroke="black" points="0,-93 0,-123 128,-123 128,-93 0,-93"/>
<text text-anchor="start" x="8" y="-111" font-family="Helvetica,sans-Serif" font-size="10.00">Ra::Core::Geometry</text>
<text text-anchor="middle" x="64" y="-100" font-family="Helvetica,sans-Serif" font-size="10.00">::makeGeodesicSphere</text>
</g>
<!-- Node2 -->
<g id="node2" class="node"><title>Node2</title>
<g id="a_node2"><a xlink:href="classRa_1_1Core_1_1Geometry_1_1TriangleMesh.html#a6ef9dbd18c0501f2ffd1316be6be56ce" target="_top" xlink:title="Access the vertices positions. ">
<polygon fill="white" stroke="black" points="378,-137 378,-167 506,-167 506,-137 378,-137"/>
<text text-anchor="start" x="386" y="-155" font-family="Helvetica,sans-Serif" font-size="10.00">Ra::Core::Geometry</text>
<text text-anchor="middle" x="442" y="-144" font-family="Helvetica,sans-Serif" font-size="10.00">::TriangleMesh::vertices</text>
</a>
</g>
</g>
<!-- Node1&#45;&gt;Node2 -->
<g id="edge1" class="edge"><title>Node1&#45;&gt;Node2</title>
<path fill="none" stroke="midnightblue" d="M128.105,-115.703C140.026,-117.143 152.395,-118.626 164,-120 233.018,-128.169 311.741,-137.24 367.578,-143.632"/>
<polygon fill="midnightblue" stroke="midnightblue" points="367.397,-147.134 377.73,-144.793 368.192,-140.179 367.397,-147.134"/>
</g>
<!-- Node3 -->
<g id="node3" class="node"><title>Node3</title>
<g id="a_node3"><a xlink:href="classRa_1_1Core_1_1Geometry_1_1TriangleMesh.html#ad7d3f6272b902171740e50232ba56114" target="_top" xlink:title="Access the vertices normals. ">
<polygon fill="white" stroke="black" points="377.5,-88 377.5,-118 506.5,-118 506.5,-88 377.5,-88"/>
<text text-anchor="start" x="385.5" y="-106" font-family="Helvetica,sans-Serif" font-size="10.00">Ra::Core::Geometry</text>
<text text-anchor="middle" x="442" y="-95" font-family="Helvetica,sans-Serif" font-size="10.00">::TriangleMesh::normals</text>
</a>
</g>
</g>
<!-- Node1&#45;&gt;Node3 -->
<g id="edge2" class="edge"><title>Node1&#45;&gt;Node3</title>
<path fill="none" stroke="midnightblue" d="M128.358,-107.157C194.386,-106.279 297.747,-104.905 367.364,-103.979"/>
<polygon fill="midnightblue" stroke="midnightblue" points="367.43,-107.479 377.382,-103.846 367.336,-100.479 367.43,-107.479"/>
</g>
<!-- Node4 -->
<g id="node4" class="node"><title>Node4</title>
<g id="a_node4"><a xlink:href="namespaceRa_1_1Core_1_1Math.html#a4f441ac6a56092d52849a4f48e274aa8" target="_top" xlink:title="Get the cosine of the angle between two vectors. ">
<polygon fill="white" stroke="black" points="197,-10.5 197,-29.5 307,-29.5 307,-10.5 197,-10.5"/>
<text text-anchor="middle" x="252" y="-17.5" font-family="Helvetica,sans-Serif" font-size="10.00">Ra::Core::Math::cos</text>
</a>
</g>
</g>
<!-- Node1&#45;&gt;Node4 -->
<g id="edge3" class="edge"><title>Node1&#45;&gt;Node4</title>
<path fill="none" stroke="midnightblue" d="M81.9688,-92.9999C100.74,-77.2032 132.515,-52.7539 164,-39 171.172,-35.8669 178.91,-33.23 186.709,-31.0154"/>
<polygon fill="midnightblue" stroke="midnightblue" points="187.796,-34.3491 196.583,-28.4308 186.023,-27.5773 187.796,-34.3491"/>
</g>
<!-- Node5 -->
<g id="node5" class="node"><title>Node5</title>
<g id="a_node5"><a xlink:href="classRa_1_1Core_1_1Geometry_1_1TriangleMesh.html#a51b5e7d49d82ffa036306e28a42cd92b" target="_top" xlink:title="Utility function colorzing the mesh with a given color. Add the color attribute if needed...">
<polygon fill="white" stroke="black" points="188.5,-175 188.5,-205 315.5,-205 315.5,-175 188.5,-175"/>
<text text-anchor="start" x="196.5" y="-193" font-family="Helvetica,sans-Serif" font-size="10.00">Ra::Core::Geometry</text>
<text text-anchor="middle" x="252" y="-182" font-family="Helvetica,sans-Serif" font-size="10.00">::TriangleMesh::colorize</text>
</a>
</g>
</g>
<!-- Node1&#45;&gt;Node5 -->
<g id="edge4" class="edge"><title>Node1&#45;&gt;Node5</title>
<path fill="none" stroke="midnightblue" d="M90.9422,-123.014C110.611,-134.053 138.515,-148.988 164,-160 173.447,-164.082 183.648,-168.009 193.626,-171.601"/>
<polygon fill="midnightblue" stroke="midnightblue" points="192.497,-174.914 203.092,-174.936 194.823,-168.312 192.497,-174.914"/>
</g>
<!-- Node7 -->
<g id="node7" class="node"><title>Node7</title>
<g id="a_node7"><a xlink:href="classRa_1_1Core_1_1Geometry_1_1TriangleMesh.html#a0b294c697e094dcc62b3adb3c0ac16af" target="_top" xlink:title="Check that the mesh is well built, asserting when it is not. ">
<polygon fill="white" stroke="black" points="164,-49 164,-79 340,-79 340,-49 164,-49"/>
<text text-anchor="start" x="172" y="-67" font-family="Helvetica,sans-Serif" font-size="10.00">Ra::Core::Geometry</text>
<text text-anchor="middle" x="252" y="-56" font-family="Helvetica,sans-Serif" font-size="10.00">::TriangleMesh::checkConsistency</text>
</a>
</g>
</g>
<!-- Node1&#45;&gt;Node7 -->
<g id="edge7" class="edge"><title>Node1&#45;&gt;Node7</title>
<path fill="none" stroke="midnightblue" d="M128.231,-93.0422C144.017,-89.3079 161.082,-85.271 177.324,-81.4287"/>
<polygon fill="midnightblue" stroke="midnightblue" points="178.386,-84.7741 187.312,-79.066 176.775,-77.9621 178.386,-84.7741"/>
</g>
<!-- Node5&#45;&gt;Node2 -->
<g id="edge6" class="edge"><title>Node5&#45;&gt;Node2</title>
<path fill="none" stroke="midnightblue" d="M315.601,-177.347C332.299,-173.972 350.489,-170.295 367.705,-166.815"/>
<polygon fill="midnightblue" stroke="midnightblue" points="368.602,-170.205 377.71,-164.793 367.215,-163.343 368.602,-170.205"/>
</g>
<!-- Node6 -->
<g id="node6" class="node"><title>Node6</title>
<g id="a_node6"><a xlink:href="classRa_1_1Core_1_1Geometry_1_1TriangleMesh.html#a209037ce5a11ec8539a9ada7ba763e8c" target="_top" xlink:title="Get attribute by handle. ">
<polygon fill="white" stroke="black" points="376,-186 376,-216 508,-216 508,-186 376,-186"/>
<text text-anchor="start" x="384" y="-204" font-family="Helvetica,sans-Serif" font-size="10.00">Ra::Core::Geometry</text>
<text text-anchor="middle" x="442" y="-193" font-family="Helvetica,sans-Serif" font-size="10.00">::TriangleMesh::getAttrib</text>
</a>
</g>
</g>
<!-- Node5&#45;&gt;Node6 -->
<g id="edge5" class="edge"><title>Node5&#45;&gt;Node6</title>
<path fill="none" stroke="midnightblue" d="M315.601,-193.663C331.612,-194.6 348.995,-195.617 365.576,-196.587"/>
<polygon fill="midnightblue" stroke="midnightblue" points="365.589,-200.094 375.776,-197.184 365.998,-193.106 365.589,-200.094"/>
</g>
<!-- Node7&#45;&gt;Node2 -->
<g id="edge8" class="edge"><title>Node7&#45;&gt;Node2</title>
<path fill="none" stroke="midnightblue" d="M280.436,-79.1154C305.097,-92.445 342.486,-112.023 376,-127 380.641,-129.074 385.512,-131.141 390.41,-133.148"/>
<polygon fill="midnightblue" stroke="midnightblue" points="389.229,-136.445 399.813,-136.918 391.834,-129.948 389.229,-136.445"/>
</g>
<!-- Node7&#45;&gt;Node3 -->
<g id="edge13" class="edge"><title>Node7&#45;&gt;Node3</title>
<path fill="none" stroke="midnightblue" d="M325.417,-79.0226C339.151,-81.8717 353.534,-84.8555 367.307,-87.7126"/>
<polygon fill="midnightblue" stroke="midnightblue" points="366.707,-91.1627 377.21,-89.7669 368.129,-84.3086 366.707,-91.1627"/>
</g>
<!-- Node8 -->
<g id="node8" class="node"><title>Node8</title>
<g id="a_node8"><a xlink:href="namespaceRa_1_1Core_1_1Geometry.html#aa04e6052d8911b1df1bd881474debb45" target="_top" xlink:title="Ra::Core::Geometry::t">
<polygon fill="white" stroke="black" points="382,-0.5 382,-19.5 502,-19.5 502,-0.5 382,-0.5"/>
<text text-anchor="middle" x="442" y="-7.5" font-family="Helvetica,sans-Serif" font-size="10.00">Ra::Core::Geometry::t</text>
</a>
</g>
</g>
<!-- Node7&#45;&gt;Node8 -->
<g id="edge9" class="edge"><title>Node7&#45;&gt;Node8</title>
<path fill="none" stroke="midnightblue" d="M305.368,-48.958C334.591,-40.5642 370.541,-30.2381 398.086,-22.3264"/>
<polygon fill="midnightblue" stroke="midnightblue" points="399.18,-25.6536 407.826,-19.5288 397.248,-18.9256 399.18,-25.6536"/>
</g>
<!-- Node9 -->
<g id="node9" class="node"><title>Node9</title>
<g id="a_node9"><a xlink:href="namespaceRa_1_1Core_1_1Geometry.html#a178f2b7309fe2ea5bc31a3abcb25368e" target="_top" xlink:title="Ra::Core::Geometry\l::triangleArea">
<polygon fill="white" stroke="black" points="386.5,-39 386.5,-69 497.5,-69 497.5,-39 386.5,-39"/>
<text text-anchor="start" x="394.5" y="-57" font-family="Helvetica,sans-Serif" font-size="10.00">Ra::Core::Geometry</text>
<text text-anchor="middle" x="442" y="-46" font-family="Helvetica,sans-Serif" font-size="10.00">::triangleArea</text>
</a>
</g>
</g>
<!-- Node7&#45;&gt;Node9 -->
<g id="edge10" class="edge"><title>Node7&#45;&gt;Node9</title>
<path fill="none" stroke="midnightblue" d="M340.121,-59.3659C352.304,-58.7179 364.642,-58.0616 376.311,-57.4409"/>
<polygon fill="midnightblue" stroke="midnightblue" points="376.572,-60.9321 386.372,-56.9057 376.2,-53.9419 376.572,-60.9321"/>
</g>
<!-- Node10 -->
<g id="node10" class="node"><title>Node10</title>
<g id="a_node10"><a xlink:href="namespaceOpenMesh.html#a71e7f1dd3eac016d2b8245ac408a291c" target="_top" xlink:title="OpenMesh::cross">
<polygon fill="white" stroke="black" points="544,-63.5 544,-82.5 643,-82.5 643,-63.5 544,-63.5"/>
<text text-anchor="middle" x="593.5" y="-70.5" font-family="Helvetica,sans-Serif" font-size="10.00">OpenMesh::cross</text>
</a>
</g>
</g>
<!-- Node9&#45;&gt;Node10 -->
<g id="edge11" class="edge"><title>Node9&#45;&gt;Node10</title>
<path fill="none" stroke="midnightblue" d="M497.819,-60.967C509.421,-62.4415 521.714,-64.0038 533.464,-65.4971"/>
<polygon fill="midnightblue" stroke="midnightblue" points="533.258,-68.999 543.619,-66.7877 534.14,-62.0548 533.258,-68.999"/>
</g>
<!-- Node11 -->
<g id="node11" class="node"><title>Node11</title>
<g id="a_node11"><a xlink:href="namespaceOpenMesh.html#a8205f789ce08919bc11c58383574596c" target="_top" xlink:title="OpenMesh::norm">
<polygon fill="white" stroke="black" points="544,-25.5 544,-44.5 643,-44.5 643,-25.5 544,-25.5"/>
<text text-anchor="middle" x="593.5" y="-32.5" font-family="Helvetica,sans-Serif" font-size="10.00">OpenMesh::norm</text>
</a>
</g>
</g>
<!-- Node9&#45;&gt;Node11 -->
<g id="edge12" class="edge"><title>Node9&#45;&gt;Node11</title>
<path fill="none" stroke="midnightblue" d="M497.819,-47.033C509.421,-45.5585 521.714,-43.9962 533.464,-42.5029"/>
<polygon fill="midnightblue" stroke="midnightblue" points="534.14,-45.9452 543.619,-41.2123 533.258,-39.001 534.14,-45.9452"/>
</g>
</g>
</svg>
