<?xml version="1.0" encoding="UTF-8" standalone="no"?>
<!DOCTYPE svg PUBLIC "-//W3C//DTD SVG 1.1//EN"
 "http://www.w3.org/Graphics/SVG/1.1/DTD/svg11.dtd">
<!-- Generated by graphviz version 2.38.0 (20140413.2041)
 -->
<!-- Title: Ra::Core::Geometry::makeParametricTorus Pages: 1 -->
<svg width="649pt" height="225pt"
 viewBox="0.00 0.00 649.00 224.50" xmlns="http://www.w3.org/2000/svg" xmlns:xlink="http://www.w3.org/1999/xlink">
<g id="graph0" class="graph" transform="scale(1 1) rotate(0) translate(4 220.5)">
<title>Ra::Core::Geometry::makeParametricTorus</title>
<polygon fill="white" stroke="none" points="-4,4 -4,-220.5 645,-220.5 645,4 -4,4"/>
<!-- Node1 -->
<g id="node1" class="node"><title>Node1</title>
<polygon fill="#bfbfbf" stroke="black" points="0,-93 0,-123 126,-123 126,-93 0,-93"/>
<text text-anchor="start" x="8" y="-111" font-family="Helvetica,sans-Serif" font-size="10.00">Ra::Core::Geometry</text>
<text text-anchor="middle" x="63" y="-100" font-family="Helvetica,sans-Serif" font-size="10.00">::makeParametricTorus</text>
</g>
<!-- Node2 -->
<g id="node2" class="node"><title>Node2</title>
<g id="a_node2"><a xlink:href="classRa_1_1Core_1_1Geometry_1_1TriangleMesh.html#a6ef9dbd18c0501f2ffd1316be6be56ce" target="_top" xlink:title="Access the vertices positions. ">
<polygon fill="white" stroke="black" points="376,-137 376,-167 504,-167 504,-137 376,-137"/>
<text text-anchor="start" x="384" y="-155" font-family="Helvetica,sans-Serif" font-size="10.00">Ra::Core::Geometry</text>
<text text-anchor="middle" x="440" y="-144" font-family="Helvetica,sans-Serif" font-size="10.00">::TriangleMesh::vertices</text>
</a>
</g>
</g>
<!-- Node1&#45;&gt;Node2 -->
<g id="edge1" class="edge"><title>Node1&#45;&gt;Node2</title>
<path fill="none" stroke="midnightblue" d="M126.204,-115.682C138.086,-117.131 150.426,-118.623 162,-120 231.013,-128.211 309.736,-137.277 365.575,-143.656"/>
<polygon fill="midnightblue" stroke="midnightblue" points="365.395,-147.158 375.727,-144.815 366.189,-140.203 365.395,-147.158"/>
</g>
<!-- Node3 -->
<g id="node3" class="node"><title>Node3</title>
<g id="a_node3"><a xlink:href="classRa_1_1Core_1_1Geometry_1_1TriangleMesh.html#ad7d3f6272b902171740e50232ba56114" target="_top" xlink:title="Access the vertices normals. ">
<polygon fill="white" stroke="black" points="375.5,-88 375.5,-118 504.5,-118 504.5,-88 375.5,-88"/>
<text text-anchor="start" x="383.5" y="-106" font-family="Helvetica,sans-Serif" font-size="10.00">Ra::Core::Geometry</text>
<text text-anchor="middle" x="440" y="-95" font-family="Helvetica,sans-Serif" font-size="10.00">::TriangleMesh::normals</text>
</a>
</g>
</g>
<!-- Node1&#45;&gt;Node3 -->
<g id="edge2" class="edge"><title>Node1&#45;&gt;Node3</title>
<path fill="none" stroke="midnightblue" d="M126.345,-107.169C192.05,-106.293 295.491,-104.913 365.217,-103.984"/>
<polygon fill="midnightblue" stroke="midnightblue" points="365.299,-107.483 375.251,-103.85 365.205,-100.484 365.299,-107.483"/>
</g>
<!-- Node4 -->
<g id="node4" class="node"><title>Node4</title>
<g id="a_node4"><a xlink:href="namespaceRa_1_1Core_1_1Math.html#a4f441ac6a56092d52849a4f48e274aa8" target="_top" xlink:title="Get the cosine of the angle between two vectors. ">
<polygon fill="white" stroke="black" points="195,-10.5 195,-29.5 305,-29.5 305,-10.5 195,-10.5"/>
<text text-anchor="middle" x="250" y="-17.5" font-family="Helvetica,sans-Serif" font-size="10.00">Ra::Core::Math::cos</text>
</a>
</g>
</g>
<!-- Node1&#45;&gt;Node4 -->
<g id="edge3" class="edge"><title>Node1&#45;&gt;Node4</title>
<path fill="none" stroke="midnightblue" d="M80.7696,-92.9926C99.3278,-77.1897 130.761,-52.7351 162,-39 169.165,-35.8498 176.898,-33.2025 184.695,-30.9824"/>
<polygon fill="midnightblue" stroke="midnightblue" points="185.782,-34.3158 194.567,-28.3931 184.006,-27.5448 185.782,-34.3158"/>
</g>
<!-- Node5 -->
<g id="node5" class="node"><title>Node5</title>
<g id="a_node5"><a xlink:href="classRa_1_1Core_1_1Geometry_1_1TriangleMesh.html#a51b5e7d49d82ffa036306e28a42cd92b" target="_top" xlink:title="Utility function colorzing the mesh with a given color. Add the color attribute if needed...">
<polygon fill="white" stroke="black" points="186.5,-175 186.5,-205 313.5,-205 313.5,-175 186.5,-175"/>
<text text-anchor="start" x="194.5" y="-193" font-family="Helvetica,sans-Serif" font-size="10.00">Ra::Core::Geometry</text>
<text text-anchor="middle" x="250" y="-182" font-family="Helvetica,sans-Serif" font-size="10.00">::TriangleMesh::colorize</text>
</a>
</g>
</g>
<!-- Node1&#45;&gt;Node5 -->
<g id="edge4" class="edge"><title>Node1&#45;&gt;Node5</title>
<path fill="none" stroke="midnightblue" d="M89.6609,-123.034C109.121,-134.084 136.739,-149.023 162,-160 171.439,-164.102 181.636,-168.039 191.612,-171.634"/>
<polygon fill="midnightblue" stroke="midnightblue" points="190.482,-174.947 201.076,-174.971 192.809,-168.345 190.482,-174.947"/>
</g>
<!-- Node7 -->
<g id="node7" class="node"><title>Node7</title>
<g id="a_node7"><a xlink:href="classRa_1_1Core_1_1Geometry_1_1TriangleMesh.html#a0b294c697e094dcc62b3adb3c0ac16af" target="_top" xlink:title="Check that the mesh is well built, asserting when it is not. ">
<polygon fill="white" stroke="black" points="162,-49 162,-79 338,-79 338,-49 162,-49"/>
<text text-anchor="start" x="170" y="-67" font-family="Helvetica,sans-Serif" font-size="10.00">Ra::Core::Geometry</text>
<text text-anchor="middle" x="250" y="-56" font-family="Helvetica,sans-Serif" font-size="10.00">::TriangleMesh::checkConsistency</text>
</a>
</g>
</g>
<!-- Node1&#45;&gt;Node7 -->
<g id="edge7" class="edge"><title>Node1&#45;&gt;Node7</title>
<path fill="none" stroke="midnightblue" d="M126.117,-93.2262C142.025,-89.4428 159.281,-85.3385 175.694,-81.4348"/>
<polygon fill="midnightblue" stroke="midnightblue" points="176.867,-84.7538 185.785,-79.0349 175.247,-77.9437 176.867,-84.7538"/>
</g>
<!-- Node5&#45;&gt;Node2 -->
<g id="edge6" class="edge"><title>Node5&#45;&gt;Node2</title>
<path fill="none" stroke="midnightblue" d="M313.601,-177.347C330.299,-173.972 348.489,-170.295 365.705,-166.815"/>
<polygon fill="midnightblue" stroke="midnightblue" points="366.602,-170.205 375.71,-164.793 365.215,-163.343 366.602,-170.205"/>
</g>
<!-- Node6 -->
<g id="node6" class="node"><title>Node6</title>
<g id="a_node6"><a xlink:href="classRa_1_1Core_1_1Geometry_1_1TriangleMesh.html#a209037ce5a11ec8539a9ada7ba763e8c" target="_top" xlink:title="Get attribute by handle. ">
<polygon fill="white" stroke="black" points="374,-186 374,-216 506,-216 506,-186 374,-186"/>
<text text-anchor="start" x="382" y="-204" font-family="Helvetica,sans-Serif" font-size="10.00">Ra::Core::Geometry</text>
<text text-anchor="middle" x="440" y="-193" font-family="Helvetica,sans-Serif" font-size="10.00">::TriangleMesh::getAttrib</text>
</a>
</g>
</g>
<!-- Node5&#45;&gt;Node6 -->
<g id="edge5" class="edge"><title>Node5&#45;&gt;Node6</title>
<path fill="none" stroke="midnightblue" d="M313.601,-193.663C329.612,-194.6 346.995,-195.617 363.576,-196.587"/>
<polygon fill="midnightblue" stroke="midnightblue" points="363.589,-200.094 373.776,-197.184 363.998,-193.106 363.589,-200.094"/>
</g>
<!-- Node7&#45;&gt;Node2 -->
<g id="edge8" class="edge"><title>Node7&#45;&gt;Node2</title>
<path fill="none" stroke="midnightblue" d="M278.436,-79.1154C303.097,-92.445 340.486,-112.023 374,-127 378.641,-129.074 383.512,-131.141 388.41,-133.148"/>
<polygon fill="midnightblue" stroke="midnightblue" points="387.229,-136.445 397.813,-136.918 389.834,-129.948 387.229,-136.445"/>
</g>
<!-- Node7&#45;&gt;Node3 -->
<g id="edge13" class="edge"><title>Node7&#45;&gt;Node3</title>
<path fill="none" stroke="midnightblue" d="M323.417,-79.0226C337.151,-81.8717 351.534,-84.8555 365.307,-87.7126"/>
<polygon fill="midnightblue" stroke="midnightblue" points="364.707,-91.1627 375.21,-89.7669 366.129,-84.3086 364.707,-91.1627"/>
</g>
<!-- Node8 -->
<g id="node8" class="node"><title>Node8</title>
<g id="a_node8"><a xlink:href="namespaceRa_1_1Core_1_1Geometry.html#aa04e6052d8911b1df1bd881474debb45" target="_top" xlink:title="Ra::Core::Geometry::t">
<polygon fill="white" stroke="black" points="380,-0.5 380,-19.5 500,-19.5 500,-0.5 380,-0.5"/>
<text text-anchor="middle" x="440" y="-7.5" font-family="Helvetica,sans-Serif" font-size="10.00">Ra::Core::Geometry::t</text>
</a>
</g>
</g>
<!-- Node7&#45;&gt;Node8 -->
<g id="edge9" class="edge"><title>Node7&#45;&gt;Node8</title>
<path fill="none" stroke="midnightblue" d="M303.368,-48.958C332.591,-40.5642 368.541,-30.2381 396.086,-22.3264"/>
<polygon fill="midnightblue" stroke="midnightblue" points="397.18,-25.6536 405.826,-19.5288 395.248,-18.9256 397.18,-25.6536"/>
</g>
<!-- Node9 -->
<g id="node9" class="node"><title>Node9</title>
<g id="a_node9"><a xlink:href="namespaceRa_1_1Core_1_1Geometry.html#a178f2b7309fe2ea5bc31a3abcb25368e" target="_top" xlink:title="Ra::Core::Geometry\l::triangleArea">
<polygon fill="white" stroke="black" points="384.5,-39 384.5,-69 495.5,-69 495.5,-39 384.5,-39"/>
<text text-anchor="start" x="392.5" y="-57" font-family="Helvetica,sans-Serif" font-size="10.00">Ra::Core::Geometry</text>
<text text-anchor="middle" x="440" y="-46" font-family="Helvetica,sans-Serif" font-size="10.00">::triangleArea</text>
</a>
</g>
</g>
<!-- Node7&#45;&gt;Node9 -->
<g id="edge10" class="edge"><title>Node7&#45;&gt;Node9</title>
<path fill="none" stroke="midnightblue" d="M338.121,-59.3659C350.304,-58.7179 362.642,-58.0616 374.311,-57.4409"/>
<polygon fill="midnightblue" stroke="midnightblue" points="374.572,-60.9321 384.372,-56.9057 374.2,-53.9419 374.572,-60.9321"/>
</g>
<!-- Node10 -->
<g id="node10" class="node"><title>Node10</title>
<g id="a_node10"><a xlink:href="namespaceOpenMesh.html#a71e7f1dd3eac016d2b8245ac408a291c" target="_top" xlink:title="OpenMesh::cross">
<polygon fill="white" stroke="black" points="542,-63.5 542,-82.5 641,-82.5 641,-63.5 542,-63.5"/>
<text text-anchor="middle" x="591.5" y="-70.5" font-family="Helvetica,sans-Serif" font-size="10.00">OpenMesh::cross</text>
</a>
</g>
</g>
<!-- Node9&#45;&gt;Node10 -->
<g id="edge11" class="edge"><title>Node9&#45;&gt;Node10</title>
<path fill="none" stroke="midnightblue" d="M495.819,-60.967C507.421,-62.4415 519.714,-64.0038 531.464,-65.4971"/>
<polygon fill="midnightblue" stroke="midnightblue" points="531.258,-68.999 541.619,-66.7877 532.14,-62.0548 531.258,-68.999"/>
</g>
<!-- Node11 -->
<g id="node11" class="node"><title>Node11</title>
<g id="a_node11"><a xlink:href="namespaceOpenMesh.html#a8205f789ce08919bc11c58383574596c" target="_top" xlink:title="OpenMesh::norm">
<polygon fill="white" stroke="black" points="542,-25.5 542,-44.5 641,-44.5 641,-25.5 542,-25.5"/>
<text text-anchor="middle" x="591.5" y="-32.5" font-family="Helvetica,sans-Serif" font-size="10.00">OpenMesh::norm</text>
</a>
</g>
</g>
<!-- Node9&#45;&gt;Node11 -->
<g id="edge12" class="edge"><title>Node9&#45;&gt;Node11</title>
<path fill="none" stroke="midnightblue" d="M495.819,-47.033C507.421,-45.5585 519.714,-43.9962 531.464,-42.5029"/>
<polygon fill="midnightblue" stroke="midnightblue" points="532.14,-45.9452 541.619,-41.2123 531.258,-39.001 532.14,-45.9452"/>
</g>
</g>
</svg>
