<?xml version="1.0" encoding="UTF-8" standalone="no"?>
<!DOCTYPE svg PUBLIC "-//W3C//DTD SVG 1.1//EN"
 "http://www.w3.org/Graphics/SVG/1.1/DTD/svg11.dtd">
<!-- Generated by graphviz version 2.38.0 (20140413.2041)
 -->
<!-- Title: Ra::Engine::DrawPrimitives::Capsule Pages: 1 -->
<svg width="813pt" height="292pt"
 viewBox="0.00 0.00 813.00 292.00" xmlns="http://www.w3.org/2000/svg" xmlns:xlink="http://www.w3.org/1999/xlink">
<g id="graph0" class="graph" transform="scale(1 1) rotate(0) translate(4 287.998)">
<title>Ra::Engine::DrawPrimitives::Capsule</title>
<polygon fill="white" stroke="none" points="-4,4 -4,-287.998 809,-287.998 809,4 -4,4"/>
<!-- Node1 -->
<g id="node1" class="node"><title>Node1</title>
<polygon fill="#bfbfbf" stroke="black" points="0,-203 0,-233 143,-233 143,-203 0,-203"/>
<text text-anchor="start" x="8" y="-221" font-family="Helvetica,sans-Serif" font-size="10.00">Ra::Engine::DrawPrimitives</text>
<text text-anchor="middle" x="71.5" y="-210" font-family="Helvetica,sans-Serif" font-size="10.00">::Capsule</text>
</g>
<!-- Node2 -->
<g id="node2" class="node"><title>Node2</title>
<g id="a_node2"><a xlink:href="namespaceOpenMesh.html#a8205f789ce08919bc11c58383574596c" target="_top" xlink:title="OpenMesh::norm">
<polygon fill="white" stroke="black" points="706,-188.5 706,-207.5 805,-207.5 805,-188.5 706,-188.5"/>
<text text-anchor="middle" x="755.5" y="-195.5" font-family="Helvetica,sans-Serif" font-size="10.00">OpenMesh::norm</text>
</a>
</g>
</g>
<!-- Node1&#45;&gt;Node2 -->
<g id="edge1" class="edge"><title>Node1&#45;&gt;Node2</title>
<path fill="none" stroke="midnightblue" d="M100.489,-233.174C121.442,-243.692 151.165,-256.866 179,-263 319.209,-293.896 359.553,-285.941 502,-268 581.849,-257.943 671.925,-228.355 719.958,-211.034"/>
<polygon fill="midnightblue" stroke="midnightblue" points="721.356,-214.25 729.551,-207.536 718.957,-207.674 721.356,-214.25"/>
</g>
<!-- Node3 -->
<g id="node3" class="node"><title>Node3</title>
<g id="a_node3"><a xlink:href="namespaceRa_1_1Core_1_1Geometry.html#ab8891eb859ec20df78a252a89870c04a" target="_top" xlink:title="Create a capsule with given cylinder length and radius. ">
<polygon fill="white" stroke="black" points="179,-154 179,-184 290,-184 290,-154 179,-154"/>
<text text-anchor="start" x="187" y="-172" font-family="Helvetica,sans-Serif" font-size="10.00">Ra::Core::Geometry</text>
<text text-anchor="middle" x="234.5" y="-161" font-family="Helvetica,sans-Serif" font-size="10.00">::makeCapsule</text>
</a>
</g>
</g>
<!-- Node1&#45;&gt;Node3 -->
<g id="edge2" class="edge"><title>Node1&#45;&gt;Node3</title>
<path fill="none" stroke="midnightblue" d="M122.119,-202.899C138.57,-197.892 157.049,-192.268 174.157,-187.061"/>
<polygon fill="midnightblue" stroke="midnightblue" points="175.497,-190.312 184.045,-184.052 173.459,-183.615 175.497,-190.312"/>
</g>
<!-- Node4 -->
<g id="node4" class="node"><title>Node4</title>
<g id="a_node4"><a xlink:href="classRa_1_1Core_1_1Geometry_1_1TriangleMesh.html#a6ef9dbd18c0501f2ffd1316be6be56ce" target="_top" xlink:title="Access the vertices positions. ">
<polygon fill="white" stroke="black" points="540,-186 540,-216 668,-216 668,-186 540,-186"/>
<text text-anchor="start" x="548" y="-204" font-family="Helvetica,sans-Serif" font-size="10.00">Ra::Core::Geometry</text>
<text text-anchor="middle" x="604" y="-193" font-family="Helvetica,sans-Serif" font-size="10.00">::TriangleMesh::vertices</text>
</a>
</g>
</g>
<!-- Node1&#45;&gt;Node4 -->
<g id="edge17" class="edge"><title>Node1&#45;&gt;Node4</title>
<path fill="none" stroke="midnightblue" d="M133.411,-233.052C217.394,-251.372 373.004,-276.544 502,-248 525.693,-242.757 550.423,-231.364 569.482,-221.108"/>
<polygon fill="midnightblue" stroke="midnightblue" points="571.299,-224.102 578.353,-216.197 567.909,-217.978 571.299,-224.102"/>
</g>
<!-- Node10 -->
<g id="node10" class="node"><title>Node10</title>
<g id="a_node10"><a xlink:href="namespaceRa_1_1Core_1_1Geometry.html#aa04e6052d8911b1df1bd881474debb45" target="_top" xlink:title="Ra::Core::Geometry::t">
<polygon fill="white" stroke="black" points="544,-0.5 544,-19.5 664,-19.5 664,-0.5 544,-0.5"/>
<text text-anchor="middle" x="604" y="-7.5" font-family="Helvetica,sans-Serif" font-size="10.00">Ra::Core::Geometry::t</text>
</a>
</g>
</g>
<!-- Node1&#45;&gt;Node10 -->
<g id="edge16" class="edge"><title>Node1&#45;&gt;Node10</title>
<path fill="none" stroke="midnightblue" d="M87.0296,-202.84C123.287,-166.138 222.316,-72.6889 326,-34 393.514,-8.8075 476.484,-4.8355 533.925,-5.90158"/>
<polygon fill="midnightblue" stroke="midnightblue" points="533.905,-9.40201 543.987,-6.14459 534.074,-2.40406 533.905,-9.40201"/>
</g>
<!-- Node3&#45;&gt;Node4 -->
<g id="edge3" class="edge"><title>Node3&#45;&gt;Node4</title>
<path fill="none" stroke="midnightblue" d="M290.122,-173.756C353.679,-179.29 458.914,-188.454 529.579,-194.607"/>
<polygon fill="midnightblue" stroke="midnightblue" points="529.479,-198.111 539.745,-195.492 530.086,-191.138 529.479,-198.111"/>
</g>
<!-- Node5 -->
<g id="node5" class="node"><title>Node5</title>
<g id="a_node5"><a xlink:href="classRa_1_1Core_1_1Geometry_1_1TriangleMesh.html#ad7d3f6272b902171740e50232ba56114" target="_top" xlink:title="Access the vertices normals. ">
<polygon fill="white" stroke="black" points="539.5,-88 539.5,-118 668.5,-118 668.5,-88 539.5,-88"/>
<text text-anchor="start" x="547.5" y="-106" font-family="Helvetica,sans-Serif" font-size="10.00">Ra::Core::Geometry</text>
<text text-anchor="middle" x="604" y="-95" font-family="Helvetica,sans-Serif" font-size="10.00">::TriangleMesh::normals</text>
</a>
</g>
</g>
<!-- Node3&#45;&gt;Node5 -->
<g id="edge4" class="edge"><title>Node3&#45;&gt;Node5</title>
<path fill="none" stroke="midnightblue" d="M258.216,-153.841C275.888,-142.902 301.455,-128.892 326,-122 392.954,-103.2 472.417,-99.5555 529.026,-99.9552"/>
<polygon fill="midnightblue" stroke="midnightblue" points="529.282,-103.458 539.322,-100.074 529.363,-96.4588 529.282,-103.458"/>
</g>
<!-- Node6 -->
<g id="node6" class="node"><title>Node6</title>
<g id="a_node6"><a xlink:href="namespaceRa_1_1Core_1_1Math.html#a4f441ac6a56092d52849a4f48e274aa8" target="_top" xlink:title="Get the cosine of the angle between two vectors. ">
<polygon fill="white" stroke="black" points="359,-219.5 359,-238.5 469,-238.5 469,-219.5 359,-219.5"/>
<text text-anchor="middle" x="414" y="-226.5" font-family="Helvetica,sans-Serif" font-size="10.00">Ra::Core::Math::cos</text>
</a>
</g>
</g>
<!-- Node3&#45;&gt;Node6 -->
<g id="edge5" class="edge"><title>Node3&#45;&gt;Node6</title>
<path fill="none" stroke="midnightblue" d="M270.843,-184.101C287.43,-190.918 307.565,-198.811 326,-205 338.541,-209.21 352.273,-213.254 365.046,-216.783"/>
<polygon fill="midnightblue" stroke="midnightblue" points="364.476,-220.254 375.043,-219.496 366.309,-213.499 364.476,-220.254"/>
</g>
<!-- Node7 -->
<g id="node7" class="node"><title>Node7</title>
<g id="a_node7"><a xlink:href="classRa_1_1Core_1_1Geometry_1_1TriangleMesh.html#a51b5e7d49d82ffa036306e28a42cd92b" target="_top" xlink:title="Utility function colorzing the mesh with a given color. Add the color attribute if needed...">
<polygon fill="white" stroke="black" points="350.5,-132 350.5,-162 477.5,-162 477.5,-132 350.5,-132"/>
<text text-anchor="start" x="358.5" y="-150" font-family="Helvetica,sans-Serif" font-size="10.00">Ra::Core::Geometry</text>
<text text-anchor="middle" x="414" y="-139" font-family="Helvetica,sans-Serif" font-size="10.00">::TriangleMesh::colorize</text>
</a>
</g>
</g>
<!-- Node3&#45;&gt;Node7 -->
<g id="edge6" class="edge"><title>Node3&#45;&gt;Node7</title>
<path fill="none" stroke="midnightblue" d="M290.204,-162.22C305.979,-160.265 323.444,-158.1 340.135,-156.031"/>
<polygon fill="midnightblue" stroke="midnightblue" points="340.912,-159.462 350.406,-154.758 340.051,-152.515 340.912,-159.462"/>
</g>
<!-- Node9 -->
<g id="node9" class="node"><title>Node9</title>
<g id="a_node9"><a xlink:href="classRa_1_1Core_1_1Geometry_1_1TriangleMesh.html#a0b294c697e094dcc62b3adb3c0ac16af" target="_top" xlink:title="Check that the mesh is well built, asserting when it is not. ">
<polygon fill="white" stroke="black" points="326,-44 326,-74 502,-74 502,-44 326,-44"/>
<text text-anchor="start" x="334" y="-62" font-family="Helvetica,sans-Serif" font-size="10.00">Ra::Core::Geometry</text>
<text text-anchor="middle" x="414" y="-51" font-family="Helvetica,sans-Serif" font-size="10.00">::TriangleMesh::checkConsistency</text>
</a>
</g>
</g>
<!-- Node3&#45;&gt;Node9 -->
<g id="edge9" class="edge"><title>Node3&#45;&gt;Node9</title>
<path fill="none" stroke="midnightblue" d="M249.145,-153.748C265.751,-136 295.386,-106.854 326,-89 333.241,-84.7768 341.169,-81.0246 349.197,-77.7276"/>
<polygon fill="midnightblue" stroke="midnightblue" points="350.577,-80.9465 358.633,-74.0654 348.045,-74.4208 350.577,-80.9465"/>
</g>
<!-- Node7&#45;&gt;Node4 -->
<g id="edge8" class="edge"><title>Node7&#45;&gt;Node4</title>
<path fill="none" stroke="midnightblue" d="M467.368,-162.042C490.191,-168.597 517.116,-176.331 540.937,-183.173"/>
<polygon fill="midnightblue" stroke="midnightblue" points="540.009,-186.548 550.587,-185.945 541.942,-179.82 540.009,-186.548"/>
</g>
<!-- Node8 -->
<g id="node8" class="node"><title>Node8</title>
<g id="a_node8"><a xlink:href="classRa_1_1Core_1_1Geometry_1_1TriangleMesh.html#a209037ce5a11ec8539a9ada7ba763e8c" target="_top" xlink:title="Get attribute by handle. ">
<polygon fill="white" stroke="black" points="538,-137 538,-167 670,-167 670,-137 538,-137"/>
<text text-anchor="start" x="546" y="-155" font-family="Helvetica,sans-Serif" font-size="10.00">Ra::Core::Geometry</text>
<text text-anchor="middle" x="604" y="-144" font-family="Helvetica,sans-Serif" font-size="10.00">::TriangleMesh::getAttrib</text>
</a>
</g>
</g>
<!-- Node7&#45;&gt;Node8 -->
<g id="edge7" class="edge"><title>Node7&#45;&gt;Node8</title>
<path fill="none" stroke="midnightblue" d="M477.601,-148.665C493.612,-149.091 510.995,-149.553 527.576,-149.994"/>
<polygon fill="midnightblue" stroke="midnightblue" points="527.687,-153.498 537.776,-150.265 527.873,-146.501 527.687,-153.498"/>
</g>
<!-- Node9&#45;&gt;Node4 -->
<g id="edge10" class="edge"><title>Node9&#45;&gt;Node4</title>
<path fill="none" stroke="midnightblue" d="M440.86,-74.2458C459.23,-85.8634 483.771,-103.05 502,-122 521.997,-142.787 515.481,-157.976 538,-176 540.257,-177.806 542.659,-179.493 545.159,-181.067"/>
<polygon fill="midnightblue" stroke="midnightblue" points="543.536,-184.169 553.972,-185.994 546.951,-178.059 543.536,-184.169"/>
</g>
<!-- Node9&#45;&gt;Node5 -->
<g id="edge15" class="edge"><title>Node9&#45;&gt;Node5</title>
<path fill="none" stroke="midnightblue" d="M479.173,-74.0192C495.293,-77.7921 512.719,-81.8705 529.266,-85.743"/>
<polygon fill="midnightblue" stroke="midnightblue" points="528.9,-89.252 539.435,-88.123 530.495,-82.4362 528.9,-89.252"/>
</g>
<!-- Node9&#45;&gt;Node10 -->
<g id="edge11" class="edge"><title>Node9&#45;&gt;Node10</title>
<path fill="none" stroke="midnightblue" d="M472.684,-43.9654C499.65,-36.9369 531.329,-28.6803 556.7,-22.0677"/>
<polygon fill="midnightblue" stroke="midnightblue" points="557.65,-25.437 566.444,-19.528 555.884,-18.6633 557.65,-25.437"/>
</g>
<!-- Node11 -->
<g id="node11" class="node"><title>Node11</title>
<g id="a_node11"><a xlink:href="namespaceRa_1_1Core_1_1Geometry.html#a178f2b7309fe2ea5bc31a3abcb25368e" target="_top" xlink:title="Ra::Core::Geometry\l::triangleArea">
<polygon fill="white" stroke="black" points="548.5,-39 548.5,-69 659.5,-69 659.5,-39 548.5,-39"/>
<text text-anchor="start" x="556.5" y="-57" font-family="Helvetica,sans-Serif" font-size="10.00">Ra::Core::Geometry</text>
<text text-anchor="middle" x="604" y="-46" font-family="Helvetica,sans-Serif" font-size="10.00">::triangleArea</text>
</a>
</g>
</g>
<!-- Node9&#45;&gt;Node11 -->
<g id="edge12" class="edge"><title>Node9&#45;&gt;Node11</title>
<path fill="none" stroke="midnightblue" d="M502.121,-56.683C514.304,-56.3589 526.642,-56.0308 538.311,-55.7205"/>
<polygon fill="midnightblue" stroke="midnightblue" points="538.469,-59.2176 548.372,-55.4529 538.282,-52.2201 538.469,-59.2176"/>
</g>
<!-- Node11&#45;&gt;Node2 -->
<g id="edge14" class="edge"><title>Node11&#45;&gt;Node2</title>
<path fill="none" stroke="midnightblue" d="M655.603,-69.1447C660.704,-71.6914 665.613,-74.6271 670,-78 706.021,-105.697 732.861,-153.036 745.832,-179.212"/>
<polygon fill="midnightblue" stroke="midnightblue" points="742.77,-180.922 750.253,-188.422 749.081,-177.893 742.77,-180.922"/>
</g>
<!-- Node12 -->
<g id="node12" class="node"><title>Node12</title>
<g id="a_node12"><a xlink:href="namespaceOpenMesh.html#a71e7f1dd3eac016d2b8245ac408a291c" target="_top" xlink:title="OpenMesh::cross">
<polygon fill="white" stroke="black" points="706,-44.5 706,-63.5 805,-63.5 805,-44.5 706,-44.5"/>
<text text-anchor="middle" x="755.5" y="-51.5" font-family="Helvetica,sans-Serif" font-size="10.00">OpenMesh::cross</text>
</a>
</g>
</g>
<!-- Node11&#45;&gt;Node12 -->
<g id="edge13" class="edge"><title>Node11&#45;&gt;Node12</title>
<path fill="none" stroke="midnightblue" d="M659.819,-54C671.421,-54 683.714,-54 695.464,-54"/>
<polygon fill="midnightblue" stroke="midnightblue" points="695.619,-57.5001 705.619,-54 695.619,-50.5001 695.619,-57.5001"/>
</g>
</g>
</svg>
