<?xml version="1.0" encoding="UTF-8" standalone="no"?>
<!DOCTYPE svg PUBLIC "-//W3C//DTD SVG 1.1//EN"
 "http://www.w3.org/Graphics/SVG/1.1/DTD/svg11.dtd">
<!-- Generated by graphviz version 2.38.0 (20140413.2041)
 -->
<!-- Title: Ra::Core::Animation::checkWeightMatrix Pages: 1 -->
<svg width="833pt" height="694pt"
 viewBox="0.00 0.00 833.00 693.50" xmlns="http://www.w3.org/2000/svg" xmlns:xlink="http://www.w3.org/1999/xlink">
<g id="graph0" class="graph" transform="scale(1 1) rotate(0) translate(4 689.5)">
<title>Ra::Core::Animation::checkWeightMatrix</title>
<polygon fill="white" stroke="none" points="-4,4 -4,-689.5 829,-689.5 829,4 -4,4"/>
<!-- Node1 -->
<g id="node1" class="node"><title>Node1</title>
<polygon fill="#bfbfbf" stroke="black" points="0,-302 0,-332 112,-332 112,-302 0,-302"/>
<text text-anchor="start" x="8" y="-320" font-family="Helvetica,sans-Serif" font-size="10.00">Ra::Core::Animation</text>
<text text-anchor="middle" x="56" y="-309" font-family="Helvetica,sans-Serif" font-size="10.00">::checkWeightMatrix</text>
</g>
<!-- Node2 -->
<g id="node2" class="node"><title>Node2</title>
<g id="a_node2"><a xlink:href="namespaceRa_1_1Core_1_1Math.html#ae18c7b57c072ca801413a45e8944b15d" target="_top" xlink:title="Call std::isnormal on quaternion entries. ">
<polygon fill="white" stroke="black" points="148,-327 148,-357 299,-357 299,-327 148,-327"/>
<text text-anchor="start" x="156" y="-345" font-family="Helvetica,sans-Serif" font-size="10.00">Ra::Core::Math::checkInvalid</text>
<text text-anchor="middle" x="223.5" y="-334" font-family="Helvetica,sans-Serif" font-size="10.00">Numbers</text>
</a>
</g>
</g>
<!-- Node1&#45;&gt;Node2 -->
<g id="edge1" class="edge"><title>Node1&#45;&gt;Node2</title>
<path fill="none" stroke="midnightblue" d="M112.109,-325.325C120.444,-326.584 129.202,-327.907 137.986,-329.234"/>
<polygon fill="midnightblue" stroke="midnightblue" points="137.483,-332.697 147.894,-330.73 138.529,-325.776 137.483,-332.697"/>
</g>
<!-- Node25 -->
<g id="node25" class="node"><title>Node25</title>
<g id="a_node25"><a xlink:href="namespaceRa_1_1Core_1_1Animation.html#a5f77b87a09e5e7bd707190d70e4f4b64" target="_top" xlink:title="Ra::Core::Animation\l::checkNoWeightVertex">
<polygon fill="white" stroke="black" points="160.5,-278 160.5,-308 286.5,-308 286.5,-278 160.5,-278"/>
<text text-anchor="start" x="168.5" y="-296" font-family="Helvetica,sans-Serif" font-size="10.00">Ra::Core::Animation</text>
<text text-anchor="middle" x="223.5" y="-285" font-family="Helvetica,sans-Serif" font-size="10.00">::checkNoWeightVertex</text>
</a>
</g>
</g>
<!-- Node1&#45;&gt;Node25 -->
<g id="edge30" class="edge"><title>Node1&#45;&gt;Node25</title>
<path fill="none" stroke="midnightblue" d="M112.109,-309.008C124.352,-307.233 137.506,-305.325 150.317,-303.468"/>
<polygon fill="midnightblue" stroke="midnightblue" points="151.099,-306.891 160.493,-301.992 150.094,-299.963 151.099,-306.891"/>
</g>
<!-- Node3 -->
<g id="node3" class="node"><title>Node3</title>
<g id="a_node3"><a xlink:href="namespaceRa_1_1Core_1_1Math.html#a5f25a31a29b0688e349dc35a353b9766" target="_top" xlink:title="Get two vectors orthogonal to a given vector. ">
<polygon fill="white" stroke="black" points="335,-655 335,-685 497,-685 497,-655 335,-655"/>
<text text-anchor="start" x="343" y="-673" font-family="Helvetica,sans-Serif" font-size="10.00">Ra::Core::Math::getOrthogonal</text>
<text text-anchor="middle" x="416" y="-662" font-family="Helvetica,sans-Serif" font-size="10.00">Vectors</text>
</a>
</g>
</g>
<!-- Node2&#45;&gt;Node3 -->
<g id="edge2" class="edge"><title>Node2&#45;&gt;Node3</title>
<path fill="none" stroke="midnightblue" d="M225.447,-357.111C229.339,-406.123 248.311,-562.277 335,-645 336.5,-646.432 338.081,-647.781 339.729,-649.053"/>
<polygon fill="midnightblue" stroke="midnightblue" points="338.188,-652.228 348.467,-654.794 342.031,-646.378 338.188,-652.228"/>
</g>
<!-- Node6 -->
<g id="node6" class="node"><title>Node6</title>
<g id="a_node6"><a xlink:href="namespaceRa_1_1Core_1_1Math.html#a5306cf8ea65c31d4bbe0560ec7bb6bb4" target="_top" xlink:title="Get the angle between two vectors. ">
<polygon fill="white" stroke="black" points="537.5,-553.5 537.5,-572.5 656.5,-572.5 656.5,-553.5 537.5,-553.5"/>
<text text-anchor="middle" x="597" y="-560.5" font-family="Helvetica,sans-Serif" font-size="10.00">Ra::Core::Math::angle</text>
</a>
</g>
</g>
<!-- Node2&#45;&gt;Node6 -->
<g id="edge5" class="edge"><title>Node2&#45;&gt;Node6</title>
<path fill="none" stroke="midnightblue" d="M226.452,-357.233C232.831,-399.864 257.332,-520.426 335,-569 404.315,-612.35 505.525,-591.633 559.273,-575.61"/>
<polygon fill="midnightblue" stroke="midnightblue" points="560.531,-578.885 569.053,-572.589 558.465,-572.197 560.531,-578.885"/>
</g>
<!-- Node7 -->
<g id="node7" class="node"><title>Node7</title>
<g id="a_node7"><a xlink:href="namespaceRa_1_1Core_1_1Math.html#a5130d4a8434d4ccc82fa04bcba73d2f0" target="_top" xlink:title="Get the spherical linear interpolation between two unit non&#45;colinear vectors. ">
<polygon fill="white" stroke="black" points="358,-490.5 358,-509.5 474,-509.5 474,-490.5 358,-490.5"/>
<text text-anchor="middle" x="416" y="-497.5" font-family="Helvetica,sans-Serif" font-size="10.00">Ra::Core::Math::slerp</text>
</a>
</g>
</g>
<!-- Node2&#45;&gt;Node7 -->
<g id="edge6" class="edge"><title>Node2&#45;&gt;Node7</title>
<path fill="none" stroke="midnightblue" d="M232.975,-357.366C249.128,-385.226 287.026,-444.133 335,-476 341.698,-480.449 349.248,-484.097 356.966,-487.082"/>
<polygon fill="midnightblue" stroke="midnightblue" points="355.824,-490.39 366.419,-490.403 358.145,-483.786 355.824,-490.39"/>
</g>
<!-- Node9 -->
<g id="node9" class="node"><title>Node9</title>
<g id="a_node9"><a xlink:href="namespaceRa_1_1Core_1_1Math.html#a4f441ac6a56092d52849a4f48e274aa8" target="_top" xlink:title="Get the cosine of the angle between two vectors. ">
<polygon fill="white" stroke="black" points="542,-458.5 542,-477.5 652,-477.5 652,-458.5 542,-458.5"/>
<text text-anchor="middle" x="597" y="-465.5" font-family="Helvetica,sans-Serif" font-size="10.00">Ra::Core::Math::cos</text>
</a>
</g>
</g>
<!-- Node2&#45;&gt;Node9 -->
<g id="edge14" class="edge"><title>Node2&#45;&gt;Node9</title>
<path fill="none" stroke="midnightblue" d="M235.728,-357.245C253.744,-380.378 291.533,-423.693 335,-443 397.629,-470.818 476.859,-474.564 531.506,-472.929"/>
<polygon fill="midnightblue" stroke="midnightblue" points="531.89,-476.418 541.754,-472.551 531.632,-469.423 531.89,-476.418"/>
</g>
<!-- Node10 -->
<g id="node10" class="node"><title>Node10</title>
<g id="a_node10"><a xlink:href="namespaceRa_1_1Core_1_1Geometry.html#aa04e6052d8911b1df1bd881474debb45" target="_top" xlink:title="Ra::Core::Geometry::t">
<polygon fill="white" stroke="black" points="356,-414.5 356,-433.5 476,-433.5 476,-414.5 356,-414.5"/>
<text text-anchor="middle" x="416" y="-421.5" font-family="Helvetica,sans-Serif" font-size="10.00">Ra::Core::Geometry::t</text>
</a>
</g>
</g>
<!-- Node2&#45;&gt;Node10 -->
<g id="edge10" class="edge"><title>Node2&#45;&gt;Node10</title>
<path fill="none" stroke="midnightblue" d="M246.412,-357.001C268.058,-371.201 302.542,-392.198 335,-405 341.335,-407.498 348.087,-409.726 354.88,-411.696"/>
<polygon fill="midnightblue" stroke="midnightblue" points="354.251,-415.152 364.819,-414.4 356.089,-408.397 354.251,-415.152"/>
</g>
<!-- Node11 -->
<g id="node11" class="node"><title>Node11</title>
<g id="a_node11"><a xlink:href="namespaceRa_1_1Core_1_1Math.html#ab5addcd796ee2477977a4e219145ea85" target="_top" xlink:title="Ra::Core::Math::projectOn\lPlane">
<polygon fill="white" stroke="black" points="346,-529 346,-559 486,-559 486,-529 346,-529"/>
<text text-anchor="start" x="354" y="-547" font-family="Helvetica,sans-Serif" font-size="10.00">Ra::Core::Math::projectOn</text>
<text text-anchor="middle" x="416" y="-536" font-family="Helvetica,sans-Serif" font-size="10.00">Plane</text>
</a>
</g>
</g>
<!-- Node2&#45;&gt;Node11 -->
<g id="edge11" class="edge"><title>Node2&#45;&gt;Node11</title>
<path fill="none" stroke="midnightblue" d="M229.724,-357.089C242.297,-391.173 277.523,-474.594 335,-519 337.321,-520.793 339.772,-522.459 342.319,-524.006"/>
<polygon fill="midnightblue" stroke="midnightblue" points="340.83,-527.179 351.296,-528.824 344.14,-521.011 340.83,-527.179"/>
</g>
<!-- Node12 -->
<g id="node12" class="node"><title>Node12</title>
<g id="a_node12"><a xlink:href="namespaceRa_1_1Core_1_1Math.html#a8667e211f2182821346ba4bcfe07b053" target="_top" xlink:title="Get the cotangent of the angle between two vectors. ">
<polygon fill="white" stroke="black" points="356,-376.5 356,-395.5 476,-395.5 476,-376.5 356,-376.5"/>
<text text-anchor="middle" x="416" y="-383.5" font-family="Helvetica,sans-Serif" font-size="10.00">Ra::Core::Math::cotan</text>
</a>
</g>
</g>
<!-- Node2&#45;&gt;Node12 -->
<g id="edge13" class="edge"><title>Node2&#45;&gt;Node12</title>
<path fill="none" stroke="midnightblue" d="M289.526,-357.019C313.844,-362.636 341.095,-368.93 363.971,-374.214"/>
<polygon fill="midnightblue" stroke="midnightblue" points="363.284,-377.647 373.816,-376.488 364.86,-370.827 363.284,-377.647"/>
</g>
<!-- Node13 -->
<g id="node13" class="node"><title>Node13</title>
<g id="a_node13"><a xlink:href="namespaceRa_1_1Core_1_1Math.html#a19a397c8570c4f1df64d6c055d215659" target="_top" xlink:title="Normalize a vector and returns its norm before normalization. ">
<polygon fill="white" stroke="black" points="338.5,-327 338.5,-357 493.5,-357 493.5,-327 338.5,-327"/>
<text text-anchor="start" x="346.5" y="-345" font-family="Helvetica,sans-Serif" font-size="10.00">Ra::Core::Math::getNormAnd</text>
<text text-anchor="middle" x="416" y="-334" font-family="Helvetica,sans-Serif" font-size="10.00">Normalize</text>
</a>
</g>
</g>
<!-- Node2&#45;&gt;Node13 -->
<g id="edge15" class="edge"><title>Node2&#45;&gt;Node13</title>
<path fill="none" stroke="midnightblue" d="M299.244,-342C308.76,-342 318.562,-342 328.246,-342"/>
<polygon fill="midnightblue" stroke="midnightblue" points="328.279,-345.5 338.279,-342 328.279,-338.5 328.279,-345.5"/>
</g>
<!-- Node15 -->
<g id="node15" class="node"><title>Node15</title>
<g id="a_node15"><a xlink:href="namespaceRa_1_1Core_1_1Math.html#add677f0ab64a79b894bd36d7aa6987f1" target="_top" xlink:title="Normalize a vector and returns its norm before normalization. ">
<polygon fill="white" stroke="black" points="338.5,-278 338.5,-308 493.5,-308 493.5,-278 338.5,-278"/>
<text text-anchor="start" x="346.5" y="-296" font-family="Helvetica,sans-Serif" font-size="10.00">Ra::Core::Math::getNormAnd</text>
<text text-anchor="middle" x="416" y="-285" font-family="Helvetica,sans-Serif" font-size="10.00">NormalizeSafe</text>
</a>
</g>
</g>
<!-- Node2&#45;&gt;Node15 -->
<g id="edge17" class="edge"><title>Node2&#45;&gt;Node15</title>
<path fill="none" stroke="midnightblue" d="M282.951,-326.965C303.156,-321.768 325.973,-315.899 346.885,-310.52"/>
<polygon fill="midnightblue" stroke="midnightblue" points="347.847,-313.887 356.66,-308.006 346.103,-307.108 347.847,-313.887"/>
</g>
<!-- Node16 -->
<g id="node16" class="node"><title>Node16</title>
<g id="a_node16"><a xlink:href="namespaceRa_1_1Core_1_1Math.html#a15598e77958bb1790082f621851bddef" target="_top" xlink:title="Transform a ray, direction is only transformed by linear part of the transformation, while origin is fully transformed corresponds to t*r. ">
<polygon fill="white" stroke="black" points="337,-190.5 337,-209.5 495,-209.5 495,-190.5 337,-190.5"/>
<text text-anchor="middle" x="416" y="-197.5" font-family="Helvetica,sans-Serif" font-size="10.00">Ra::Core::Math::transformRay</text>
</a>
</g>
</g>
<!-- Node2&#45;&gt;Node16 -->
<g id="edge19" class="edge"><title>Node2&#45;&gt;Node16</title>
<path fill="none" stroke="midnightblue" d="M287.19,-326.811C291.472,-324.309 295.477,-321.394 299,-318 332.715,-285.514 300.037,-250.138 335,-219 336.732,-217.457 338.567,-216.034 340.484,-214.721"/>
<polygon fill="midnightblue" stroke="midnightblue" points="342.416,-217.648 349.356,-209.643 338.939,-211.573 342.416,-217.648"/>
</g>
<!-- Node17 -->
<g id="node17" class="node"><title>Node17</title>
<g id="a_node17"><a xlink:href="namespaceRa_1_1Core_1_1Math.html#ad79b708fb40ed130ff8031d709b78504" target="_top" xlink:title="Ra::Core::Math::lookAt">
<polygon fill="white" stroke="black" points="354.5,-152.5 354.5,-171.5 477.5,-171.5 477.5,-152.5 354.5,-152.5"/>
<text text-anchor="middle" x="416" y="-159.5" font-family="Helvetica,sans-Serif" font-size="10.00">Ra::Core::Math::lookAt</text>
</a>
</g>
</g>
<!-- Node2&#45;&gt;Node17 -->
<g id="edge20" class="edge"><title>Node2&#45;&gt;Node17</title>
<path fill="none" stroke="midnightblue" d="M287.893,-326.945C291.962,-324.412 295.73,-321.454 299,-318 342.283,-272.283 289.957,-224.984 335,-181 338.102,-177.971 341.595,-175.393 345.341,-173.202"/>
<polygon fill="midnightblue" stroke="midnightblue" points="347.014,-176.28 354.479,-168.761 343.955,-169.984 347.014,-176.28"/>
</g>
<!-- Node18 -->
<g id="node18" class="node"><title>Node18</title>
<g id="a_node18"><a xlink:href="namespaceRa_1_1Core_1_1Math.html#ab5436769ec59975b2a35b83a86defd2c" target="_top" xlink:title="Ra::Core::Math::perspective">
<polygon fill="white" stroke="black" points="341.5,-114.5 341.5,-133.5 490.5,-133.5 490.5,-114.5 341.5,-114.5"/>
<text text-anchor="middle" x="416" y="-121.5" font-family="Helvetica,sans-Serif" font-size="10.00">Ra::Core::Math::perspective</text>
</a>
</g>
</g>
<!-- Node2&#45;&gt;Node18 -->
<g id="edge21" class="edge"><title>Node2&#45;&gt;Node18</title>
<path fill="none" stroke="midnightblue" d="M288.448,-326.918C292.336,-324.389 295.915,-321.44 299,-318 352.014,-258.882 279.708,-199.993 335,-143 336.264,-141.697 337.6,-140.476 338.998,-139.333"/>
<polygon fill="midnightblue" stroke="midnightblue" points="341.222,-142.057 347.605,-133.601 337.342,-136.231 341.222,-142.057"/>
</g>
<!-- Node19 -->
<g id="node19" class="node"><title>Node19</title>
<g id="a_node19"><a xlink:href="namespaceRa_1_1Core_1_1Math.html#a8b773ee57d017ddd6a3d2612dd426f71" target="_top" xlink:title="Ra::Core::Math::orthographic">
<polygon fill="white" stroke="black" points="339,-76.5 339,-95.5 493,-95.5 493,-76.5 339,-76.5"/>
<text text-anchor="middle" x="416" y="-83.5" font-family="Helvetica,sans-Serif" font-size="10.00">Ra::Core::Math::orthographic</text>
</a>
</g>
</g>
<!-- Node2&#45;&gt;Node19 -->
<g id="edge22" class="edge"><title>Node2&#45;&gt;Node19</title>
<path fill="none" stroke="midnightblue" d="M288.926,-326.813C292.65,-324.307 296.066,-321.391 299,-318 361.821,-245.396 269.379,-175.083 335,-105 336.207,-103.71 337.485,-102.501 338.823,-101.367"/>
<polygon fill="midnightblue" stroke="midnightblue" points="340.841,-104.228 347.083,-95.6671 336.865,-98.4664 340.841,-104.228"/>
</g>
<!-- Node20 -->
<g id="node20" class="node"><title>Node20</title>
<g id="a_node20"><a xlink:href="namespaceRa_1_1Core_1_1Math.html#a941baf20065c77d494ca251e6e104f31" target="_top" xlink:title="Returns the quaternion q multipled by a scalar factor of k. ">
<polygon fill="white" stroke="black" points="357,-38.5 357,-57.5 475,-57.5 475,-38.5 357,-38.5"/>
<text text-anchor="middle" x="416" y="-45.5" font-family="Helvetica,sans-Serif" font-size="10.00">Ra::Core::Math::scale</text>
</a>
</g>
</g>
<!-- Node2&#45;&gt;Node20 -->
<g id="edge23" class="edge"><title>Node2&#45;&gt;Node20</title>
<path fill="none" stroke="midnightblue" d="M289.023,-326.896C292.724,-324.37 296.108,-321.427 299,-318 371.67,-231.863 259.007,-150.221 335,-67 338.578,-63.0815 342.804,-59.9004 347.414,-57.3252"/>
<polygon fill="midnightblue" stroke="midnightblue" points="349.045,-60.4277 356.683,-53.0849 346.133,-54.0622 349.045,-60.4277"/>
</g>
<!-- Node21 -->
<g id="node21" class="node"><title>Node21</title>
<g id="a_node21"><a xlink:href="namespaceRa_1_1Core_1_1Math.html#a0523a53d2d94a623e194830837863c4c" target="_top" xlink:title="Returns the sum of two quaternions. ">
<polygon fill="white" stroke="black" points="360.5,-0.5 360.5,-19.5 471.5,-19.5 471.5,-0.5 360.5,-0.5"/>
<text text-anchor="middle" x="416" y="-7.5" font-family="Helvetica,sans-Serif" font-size="10.00">Ra::Core::Math::add</text>
</a>
</g>
</g>
<!-- Node2&#45;&gt;Node21 -->
<g id="edge24" class="edge"><title>Node2&#45;&gt;Node21</title>
<path fill="none" stroke="midnightblue" d="M289.095,-326.956C292.78,-324.416 296.14,-321.454 299,-318 381.545,-218.299 248.608,-125.387 335,-29 339.377,-24.1168 344.759,-20.3743 350.645,-17.5203"/>
<polygon fill="midnightblue" stroke="midnightblue" points="352.221,-20.6606 360.236,-13.7308 349.649,-14.1504 352.221,-20.6606"/>
</g>
<!-- Node22 -->
<g id="node22" class="node"><title>Node22</title>
<g id="a_node22"><a xlink:href="namespaceRa_1_1Core_1_1Math.html#aa5c9bddd5fdbbdbcdb661348982ff204" target="_top" xlink:title="Returns the sum of two quaternions, resolving antipodality by flipping the sign of q2 if q1...">
<polygon fill="white" stroke="black" points="347.5,-616.5 347.5,-635.5 484.5,-635.5 484.5,-616.5 347.5,-616.5"/>
<text text-anchor="middle" x="416" y="-623.5" font-family="Helvetica,sans-Serif" font-size="10.00">Ra::Core::Math::addQlerp</text>
</a>
</g>
</g>
<!-- Node2&#45;&gt;Node22 -->
<g id="edge25" class="edge"><title>Node2&#45;&gt;Node22</title>
<path fill="none" stroke="midnightblue" d="M226.441,-357.194C232.946,-401.73 258.079,-533.136 335,-602 339.499,-606.027 344.65,-609.38 350.124,-612.17"/>
<polygon fill="midnightblue" stroke="midnightblue" points="349.019,-615.508 359.58,-616.355 351.852,-609.107 349.019,-615.508"/>
</g>
<!-- Node24 -->
<g id="node24" class="node"><title>Node24</title>
<g id="a_node24"><a xlink:href="namespaceRa_1_1Core_1_1Math.html#aa5414be6d83af5b67fb48c22e4f49679" target="_top" xlink:title="Decompose a given rotation Qin into a swing rotation and a twist rotation. ">
<polygon fill="white" stroke="black" points="347.5,-229 347.5,-259 484.5,-259 484.5,-229 347.5,-229"/>
<text text-anchor="start" x="355.5" y="-247" font-family="Helvetica,sans-Serif" font-size="10.00">Ra::Core::Math::getSwing</text>
<text text-anchor="middle" x="416" y="-236" font-family="Helvetica,sans-Serif" font-size="10.00">Twist</text>
</a>
</g>
</g>
<!-- Node2&#45;&gt;Node24 -->
<g id="edge28" class="edge"><title>Node2&#45;&gt;Node24</title>
<path fill="none" stroke="midnightblue" d="M283.555,-326.898C289.009,-324.362 294.259,-321.416 299,-318 320.924,-302.202 313.007,-284.702 335,-269 337.724,-267.055 340.604,-265.258 343.59,-263.598"/>
<polygon fill="midnightblue" stroke="midnightblue" points="345.418,-266.599 352.818,-259.017 342.305,-260.329 345.418,-266.599"/>
</g>
<!-- Node4 -->
<g id="node4" class="node"><title>Node4</title>
<g id="a_node4"><a xlink:href="namespaceRa_1_1Core_1_1Math.html#a90f0fe9079f5bb86c721ea4b61738470" target="_top" xlink:title="Returns the sign of any numeric type as { &#45;1, 0, 1}. ">
<polygon fill="white" stroke="black" points="540.5,-657.5 540.5,-676.5 653.5,-676.5 653.5,-657.5 540.5,-657.5"/>
<text text-anchor="middle" x="597" y="-664.5" font-family="Helvetica,sans-Serif" font-size="10.00">Ra::Core::Math::sign</text>
</a>
</g>
</g>
<!-- Node3&#45;&gt;Node4 -->
<g id="edge3" class="edge"><title>Node3&#45;&gt;Node4</title>
<path fill="none" stroke="midnightblue" d="M497.076,-668.658C508.151,-668.472 519.421,-668.283 530.196,-668.103"/>
<polygon fill="midnightblue" stroke="midnightblue" points="530.414,-671.6 540.354,-667.933 530.297,-664.601 530.414,-671.6"/>
</g>
<!-- Node5 -->
<g id="node5" class="node"><title>Node5</title>
<g id="a_node5"><a xlink:href="namespaceRa_1_1Core_1_1Math.html#ae4e681e0738fe7e5bfd028c6270b597a" target="_top" xlink:title="Ra::Core::Math::signum">
<polygon fill="white" stroke="black" points="697,-657.5 697,-676.5 825,-676.5 825,-657.5 697,-657.5"/>
<text text-anchor="middle" x="761" y="-664.5" font-family="Helvetica,sans-Serif" font-size="10.00">Ra::Core::Math::signum</text>
</a>
</g>
</g>
<!-- Node4&#45;&gt;Node5 -->
<g id="edge4" class="edge"><title>Node4&#45;&gt;Node5</title>
<path fill="none" stroke="midnightblue" d="M653.751,-667C664.402,-667 675.701,-667 686.802,-667"/>
<polygon fill="midnightblue" stroke="midnightblue" points="686.917,-670.5 696.917,-667 686.917,-663.5 686.917,-670.5"/>
</g>
<!-- Node7&#45;&gt;Node6 -->
<g id="edge8" class="edge"><title>Node7&#45;&gt;Node6</title>
<path fill="none" stroke="midnightblue" d="M460.558,-509.508C472.488,-512.485 485.342,-516.041 497,-520 521.287,-528.247 547.904,-539.968 567.416,-549.09"/>
<polygon fill="midnightblue" stroke="midnightblue" points="566.117,-552.347 576.653,-553.462 569.111,-546.02 566.117,-552.347"/>
</g>
<!-- Node8 -->
<g id="node8" class="node"><title>Node8</title>
<g id="a_node8"><a xlink:href="namespaceOpenMesh.html#a575b338f0fc9ecb5393d23e977e6ac38" target="_top" xlink:title="OpenMesh::dot">
<polygon fill="white" stroke="black" points="552.5,-502.5 552.5,-521.5 641.5,-521.5 641.5,-502.5 552.5,-502.5"/>
<text text-anchor="middle" x="597" y="-509.5" font-family="Helvetica,sans-Serif" font-size="10.00">OpenMesh::dot</text>
</a>
</g>
</g>
<!-- Node7&#45;&gt;Node8 -->
<g id="edge7" class="edge"><title>Node7&#45;&gt;Node8</title>
<path fill="none" stroke="midnightblue" d="M474.129,-503.83C495.935,-505.292 520.704,-506.952 542.191,-508.393"/>
<polygon fill="midnightblue" stroke="midnightblue" points="542.236,-511.903 552.448,-509.08 542.704,-504.919 542.236,-511.903"/>
</g>
<!-- Node7&#45;&gt;Node9 -->
<g id="edge9" class="edge"><title>Node7&#45;&gt;Node9</title>
<path fill="none" stroke="midnightblue" d="M470.221,-490.486C489.882,-486.971 512.355,-482.953 532.814,-479.296"/>
<polygon fill="midnightblue" stroke="midnightblue" points="533.447,-482.738 542.675,-477.533 532.215,-475.848 533.447,-482.738"/>
</g>
<!-- Node11&#45;&gt;Node8 -->
<g id="edge12" class="edge"><title>Node11&#45;&gt;Node8</title>
<path fill="none" stroke="midnightblue" d="M486.206,-531.628C504.792,-528.305 524.611,-524.762 542.222,-521.614"/>
<polygon fill="midnightblue" stroke="midnightblue" points="543.082,-525.016 552.31,-519.81 541.85,-518.125 543.082,-525.016"/>
</g>
<!-- Node14 -->
<g id="node14" class="node"><title>Node14</title>
<g id="a_node14"><a xlink:href="namespaceOpenMesh.html#a8205f789ce08919bc11c58383574596c" target="_top" xlink:title="OpenMesh::norm">
<polygon fill="white" stroke="black" points="547.5,-283.5 547.5,-302.5 646.5,-302.5 646.5,-283.5 547.5,-283.5"/>
<text text-anchor="middle" x="597" y="-290.5" font-family="Helvetica,sans-Serif" font-size="10.00">OpenMesh::norm</text>
</a>
</g>
</g>
<!-- Node13&#45;&gt;Node14 -->
<g id="edge16" class="edge"><title>Node13&#45;&gt;Node14</title>
<path fill="none" stroke="midnightblue" d="M472.166,-326.899C497.603,-319.935 527.401,-311.778 551.392,-305.211"/>
<polygon fill="midnightblue" stroke="midnightblue" points="552.568,-308.518 561.289,-302.502 550.72,-301.766 552.568,-308.518"/>
</g>
<!-- Node15&#45;&gt;Node14 -->
<g id="edge18" class="edge"><title>Node15&#45;&gt;Node14</title>
<path fill="none" stroke="midnightblue" d="M493.691,-293C508.209,-293 523.187,-293 537.052,-293"/>
<polygon fill="midnightblue" stroke="midnightblue" points="537.413,-296.5 547.412,-293 537.412,-289.5 537.413,-296.5"/>
</g>
<!-- Node22&#45;&gt;Node4 -->
<g id="edge26" class="edge"><title>Node22&#45;&gt;Node4</title>
<path fill="none" stroke="midnightblue" d="M458.516,-635.509C484.179,-641.387 517.315,-648.977 544.626,-655.233"/>
<polygon fill="midnightblue" stroke="midnightblue" points="543.87,-658.65 554.399,-657.471 545.433,-651.827 543.87,-658.65"/>
</g>
<!-- Node23 -->
<g id="node23" class="node"><title>Node23</title>
<g id="a_node23"><a xlink:href="namespaceRa_1_1Core_1_1Math.html#a810d6d50b61cc01cda1d54527de864d0" target="_top" xlink:title="Returns the sign of any numeric type as { &#45;1, 1} Note: signNZ(0) returns 1 for any integral type but ...">
<polygon fill="white" stroke="black" points="533,-616.5 533,-635.5 661,-635.5 661,-616.5 533,-616.5"/>
<text text-anchor="middle" x="597" y="-623.5" font-family="Helvetica,sans-Serif" font-size="10.00">Ra::Core::Math::signNZ</text>
</a>
</g>
</g>
<!-- Node22&#45;&gt;Node23 -->
<g id="edge27" class="edge"><title>Node22&#45;&gt;Node23</title>
<path fill="none" stroke="midnightblue" d="M484.672,-626C497.171,-626 510.275,-626 522.926,-626"/>
<polygon fill="midnightblue" stroke="midnightblue" points="522.954,-629.5 532.954,-626 522.954,-622.5 522.954,-629.5"/>
</g>
<!-- Node24&#45;&gt;Node14 -->
<g id="edge29" class="edge"><title>Node24&#45;&gt;Node14</title>
<path fill="none" stroke="midnightblue" d="M472.166,-259.101C497.603,-266.065 527.401,-274.222 551.392,-280.789"/>
<polygon fill="midnightblue" stroke="midnightblue" points="550.72,-284.234 561.289,-283.498 552.568,-277.482 550.72,-284.234"/>
</g>
</g>
</svg>
