<?xml version="1.0" encoding="UTF-8" standalone="no"?>
<!DOCTYPE svg PUBLIC "-//W3C//DTD SVG 1.1//EN"
 "http://www.w3.org/Graphics/SVG/1.1/DTD/svg11.dtd">
<!-- Generated by graphviz version 2.38.0 (20140413.2041)
 -->
<!-- Title: Ra::Core::Geometry::makeZNormalQuad Pages: 1 -->
<svg width="788pt" height="225pt"
 viewBox="0.00 0.00 788.00 224.50" xmlns="http://www.w3.org/2000/svg" xmlns:xlink="http://www.w3.org/1999/xlink">
<g id="graph0" class="graph" transform="scale(1 1) rotate(0) translate(4 220.5)">
<title>Ra::Core::Geometry::makeZNormalQuad</title>
<polygon fill="white" stroke="none" points="-4,4 -4,-220.5 784,-220.5 784,4 -4,4"/>
<!-- Node1 -->
<g id="node1" class="node"><title>Node1</title>
<polygon fill="#bfbfbf" stroke="black" points="0,-93 0,-123 118,-123 118,-93 0,-93"/>
<text text-anchor="start" x="8" y="-111" font-family="Helvetica,sans-Serif" font-size="10.00">Ra::Core::Geometry</text>
<text text-anchor="middle" x="59" y="-100" font-family="Helvetica,sans-Serif" font-size="10.00">::makeZNormalQuad</text>
</g>
<!-- Node2 -->
<g id="node2" class="node"><title>Node2</title>
<g id="a_node2"><a xlink:href="namespaceRa_1_1Core_1_1Geometry.html#a9f66e13e9a53313225543f2f1abcda8e" target="_top" xlink:title="Create a 2D grid mesh with given number of row and columns. ">
<polygon fill="white" stroke="black" points="154,-93 154,-123 265,-123 265,-93 154,-93"/>
<text text-anchor="start" x="162" y="-111" font-family="Helvetica,sans-Serif" font-size="10.00">Ra::Core::Geometry</text>
<text text-anchor="middle" x="209.5" y="-100" font-family="Helvetica,sans-Serif" font-size="10.00">::makePlaneGrid</text>
</a>
</g>
</g>
<!-- Node1&#45;&gt;Node2 -->
<g id="edge1" class="edge"><title>Node1&#45;&gt;Node2</title>
<path fill="none" stroke="midnightblue" d="M118.265,-108C126.584,-108 135.183,-108 143.619,-108"/>
<polygon fill="midnightblue" stroke="midnightblue" points="143.797,-111.5 153.797,-108 143.797,-104.5 143.797,-111.5"/>
</g>
<!-- Node3 -->
<g id="node3" class="node"><title>Node3</title>
<g id="a_node3"><a xlink:href="classRa_1_1Core_1_1Geometry_1_1TriangleMesh.html#a6ef9dbd18c0501f2ffd1316be6be56ce" target="_top" xlink:title="Access the vertices positions. ">
<polygon fill="white" stroke="black" points="515,-137 515,-167 643,-167 643,-137 515,-137"/>
<text text-anchor="start" x="523" y="-155" font-family="Helvetica,sans-Serif" font-size="10.00">Ra::Core::Geometry</text>
<text text-anchor="middle" x="579" y="-144" font-family="Helvetica,sans-Serif" font-size="10.00">::TriangleMesh::vertices</text>
</a>
</g>
</g>
<!-- Node2&#45;&gt;Node3 -->
<g id="edge2" class="edge"><title>Node2&#45;&gt;Node3</title>
<path fill="none" stroke="midnightblue" d="M265.037,-115.382C276.888,-116.944 289.361,-118.556 301,-120 370.084,-128.57 448.958,-137.609 504.825,-143.886"/>
<polygon fill="midnightblue" stroke="midnightblue" points="504.653,-147.389 514.981,-145.025 505.434,-140.432 504.653,-147.389"/>
</g>
<!-- Node4 -->
<g id="node4" class="node"><title>Node4</title>
<g id="a_node4"><a xlink:href="classRa_1_1Core_1_1Geometry_1_1TriangleMesh.html#ad7d3f6272b902171740e50232ba56114" target="_top" xlink:title="Access the vertices normals. ">
<polygon fill="white" stroke="black" points="514.5,-88 514.5,-118 643.5,-118 643.5,-88 514.5,-88"/>
<text text-anchor="start" x="522.5" y="-106" font-family="Helvetica,sans-Serif" font-size="10.00">Ra::Core::Geometry</text>
<text text-anchor="middle" x="579" y="-95" font-family="Helvetica,sans-Serif" font-size="10.00">::TriangleMesh::normals</text>
</a>
</g>
</g>
<!-- Node2&#45;&gt;Node4 -->
<g id="edge3" class="edge"><title>Node2&#45;&gt;Node4</title>
<path fill="none" stroke="midnightblue" d="M265.122,-107.257C328.584,-106.393 433.598,-104.965 504.261,-104.003"/>
<polygon fill="midnightblue" stroke="midnightblue" points="504.477,-107.501 514.428,-103.865 504.381,-100.501 504.477,-107.501"/>
</g>
<!-- Node5 -->
<g id="node5" class="node"><title>Node5</title>
<g id="a_node5"><a xlink:href="classRa_1_1Core_1_1Grid.html#ae9c02e6ec89130899fd0645dbfa4ece7" target="_top" xlink:title="Access an element with a D&#45;dimensional index. ">
<polygon fill="white" stroke="black" points="340,-10.5 340,-29.5 438,-29.5 438,-10.5 340,-10.5"/>
<text text-anchor="middle" x="389" y="-17.5" font-family="Helvetica,sans-Serif" font-size="10.00">Ra::Core::Grid::at</text>
</a>
</g>
</g>
<!-- Node2&#45;&gt;Node5 -->
<g id="edge4" class="edge"><title>Node2&#45;&gt;Node5</title>
<path fill="none" stroke="midnightblue" d="M225.769,-92.9411C242.721,-77.0942 271.591,-52.6022 301,-39 310.051,-34.814 320.063,-31.5312 329.979,-28.9622"/>
<polygon fill="midnightblue" stroke="midnightblue" points="330.902,-32.3403 339.823,-26.6241 329.285,-25.5298 330.902,-32.3403"/>
</g>
<!-- Node6 -->
<g id="node6" class="node"><title>Node6</title>
<g id="a_node6"><a xlink:href="classRa_1_1Core_1_1Geometry_1_1TriangleMesh.html#a51b5e7d49d82ffa036306e28a42cd92b" target="_top" xlink:title="Utility function colorzing the mesh with a given color. Add the color attribute if needed...">
<polygon fill="white" stroke="black" points="325.5,-175 325.5,-205 452.5,-205 452.5,-175 325.5,-175"/>
<text text-anchor="start" x="333.5" y="-193" font-family="Helvetica,sans-Serif" font-size="10.00">Ra::Core::Geometry</text>
<text text-anchor="middle" x="389" y="-182" font-family="Helvetica,sans-Serif" font-size="10.00">::TriangleMesh::colorize</text>
</a>
</g>
</g>
<!-- Node2&#45;&gt;Node6 -->
<g id="edge5" class="edge"><title>Node2&#45;&gt;Node6</title>
<path fill="none" stroke="midnightblue" d="M234.045,-123.181C251.938,-134.305 277.412,-149.273 301,-160 310.054,-164.117 319.848,-168.006 329.488,-171.534"/>
<polygon fill="midnightblue" stroke="midnightblue" points="328.449,-174.879 339.044,-174.936 330.798,-168.284 328.449,-174.879"/>
</g>
<!-- Node8 -->
<g id="node8" class="node"><title>Node8</title>
<g id="a_node8"><a xlink:href="classRa_1_1Core_1_1Geometry_1_1TriangleMesh.html#a0b294c697e094dcc62b3adb3c0ac16af" target="_top" xlink:title="Check that the mesh is well built, asserting when it is not. ">
<polygon fill="white" stroke="black" points="301,-49 301,-79 477,-79 477,-49 301,-49"/>
<text text-anchor="start" x="309" y="-67" font-family="Helvetica,sans-Serif" font-size="10.00">Ra::Core::Geometry</text>
<text text-anchor="middle" x="389" y="-56" font-family="Helvetica,sans-Serif" font-size="10.00">::TriangleMesh::checkConsistency</text>
</a>
</g>
</g>
<!-- Node2&#45;&gt;Node8 -->
<g id="edge8" class="edge"><title>Node2&#45;&gt;Node8</title>
<path fill="none" stroke="midnightblue" d="M265.204,-94.4395C281.638,-90.3657 299.908,-85.8368 317.225,-81.5442"/>
<polygon fill="midnightblue" stroke="midnightblue" points="318.426,-84.8526 327.29,-79.0493 316.742,-78.0582 318.426,-84.8526"/>
</g>
<!-- Node6&#45;&gt;Node3 -->
<g id="edge7" class="edge"><title>Node6&#45;&gt;Node3</title>
<path fill="none" stroke="midnightblue" d="M452.601,-177.347C469.299,-173.972 487.489,-170.295 504.705,-166.815"/>
<polygon fill="midnightblue" stroke="midnightblue" points="505.602,-170.205 514.71,-164.793 504.215,-163.343 505.602,-170.205"/>
</g>
<!-- Node7 -->
<g id="node7" class="node"><title>Node7</title>
<g id="a_node7"><a xlink:href="classRa_1_1Core_1_1Geometry_1_1TriangleMesh.html#a209037ce5a11ec8539a9ada7ba763e8c" target="_top" xlink:title="Get attribute by handle. ">
<polygon fill="white" stroke="black" points="513,-186 513,-216 645,-216 645,-186 513,-186"/>
<text text-anchor="start" x="521" y="-204" font-family="Helvetica,sans-Serif" font-size="10.00">Ra::Core::Geometry</text>
<text text-anchor="middle" x="579" y="-193" font-family="Helvetica,sans-Serif" font-size="10.00">::TriangleMesh::getAttrib</text>
</a>
</g>
</g>
<!-- Node6&#45;&gt;Node7 -->
<g id="edge6" class="edge"><title>Node6&#45;&gt;Node7</title>
<path fill="none" stroke="midnightblue" d="M452.601,-193.663C468.612,-194.6 485.995,-195.617 502.576,-196.587"/>
<polygon fill="midnightblue" stroke="midnightblue" points="502.589,-200.094 512.776,-197.184 502.998,-193.106 502.589,-200.094"/>
</g>
<!-- Node8&#45;&gt;Node3 -->
<g id="edge9" class="edge"><title>Node8&#45;&gt;Node3</title>
<path fill="none" stroke="midnightblue" d="M417.436,-79.1154C442.097,-92.445 479.486,-112.023 513,-127 517.641,-129.074 522.512,-131.141 527.41,-133.148"/>
<polygon fill="midnightblue" stroke="midnightblue" points="526.229,-136.445 536.813,-136.918 528.834,-129.948 526.229,-136.445"/>
</g>
<!-- Node8&#45;&gt;Node4 -->
<g id="edge14" class="edge"><title>Node8&#45;&gt;Node4</title>
<path fill="none" stroke="midnightblue" d="M462.417,-79.0226C476.151,-81.8717 490.534,-84.8555 504.307,-87.7126"/>
<polygon fill="midnightblue" stroke="midnightblue" points="503.707,-91.1627 514.21,-89.7669 505.129,-84.3086 503.707,-91.1627"/>
</g>
<!-- Node9 -->
<g id="node9" class="node"><title>Node9</title>
<g id="a_node9"><a xlink:href="namespaceRa_1_1Core_1_1Geometry.html#aa04e6052d8911b1df1bd881474debb45" target="_top" xlink:title="Ra::Core::Geometry::t">
<polygon fill="white" stroke="black" points="519,-0.5 519,-19.5 639,-19.5 639,-0.5 519,-0.5"/>
<text text-anchor="middle" x="579" y="-7.5" font-family="Helvetica,sans-Serif" font-size="10.00">Ra::Core::Geometry::t</text>
</a>
</g>
</g>
<!-- Node8&#45;&gt;Node9 -->
<g id="edge10" class="edge"><title>Node8&#45;&gt;Node9</title>
<path fill="none" stroke="midnightblue" d="M442.368,-48.958C471.591,-40.5642 507.541,-30.2381 535.086,-22.3264"/>
<polygon fill="midnightblue" stroke="midnightblue" points="536.18,-25.6536 544.826,-19.5288 534.248,-18.9256 536.18,-25.6536"/>
</g>
<!-- Node10 -->
<g id="node10" class="node"><title>Node10</title>
<g id="a_node10"><a xlink:href="namespaceRa_1_1Core_1_1Geometry.html#a178f2b7309fe2ea5bc31a3abcb25368e" target="_top" xlink:title="Ra::Core::Geometry\l::triangleArea">
<polygon fill="white" stroke="black" points="523.5,-39 523.5,-69 634.5,-69 634.5,-39 523.5,-39"/>
<text text-anchor="start" x="531.5" y="-57" font-family="Helvetica,sans-Serif" font-size="10.00">Ra::Core::Geometry</text>
<text text-anchor="middle" x="579" y="-46" font-family="Helvetica,sans-Serif" font-size="10.00">::triangleArea</text>
</a>
</g>
</g>
<!-- Node8&#45;&gt;Node10 -->
<g id="edge11" class="edge"><title>Node8&#45;&gt;Node10</title>
<path fill="none" stroke="midnightblue" d="M477.121,-59.3659C489.304,-58.7179 501.642,-58.0616 513.311,-57.4409"/>
<polygon fill="midnightblue" stroke="midnightblue" points="513.572,-60.9321 523.372,-56.9057 513.2,-53.9419 513.572,-60.9321"/>
</g>
<!-- Node11 -->
<g id="node11" class="node"><title>Node11</title>
<g id="a_node11"><a xlink:href="namespaceOpenMesh.html#a71e7f1dd3eac016d2b8245ac408a291c" target="_top" xlink:title="OpenMesh::cross">
<polygon fill="white" stroke="black" points="681,-63.5 681,-82.5 780,-82.5 780,-63.5 681,-63.5"/>
<text text-anchor="middle" x="730.5" y="-70.5" font-family="Helvetica,sans-Serif" font-size="10.00">OpenMesh::cross</text>
</a>
</g>
</g>
<!-- Node10&#45;&gt;Node11 -->
<g id="edge12" class="edge"><title>Node10&#45;&gt;Node11</title>
<path fill="none" stroke="midnightblue" d="M634.819,-60.967C646.421,-62.4415 658.714,-64.0038 670.464,-65.4971"/>
<polygon fill="midnightblue" stroke="midnightblue" points="670.258,-68.999 680.619,-66.7877 671.14,-62.0548 670.258,-68.999"/>
</g>
<!-- Node12 -->
<g id="node12" class="node"><title>Node12</title>
<g id="a_node12"><a xlink:href="namespaceOpenMesh.html#a8205f789ce08919bc11c58383574596c" target="_top" xlink:title="OpenMesh::norm">
<polygon fill="white" stroke="black" points="681,-25.5 681,-44.5 780,-44.5 780,-25.5 681,-25.5"/>
<text text-anchor="middle" x="730.5" y="-32.5" font-family="Helvetica,sans-Serif" font-size="10.00">OpenMesh::norm</text>
</a>
</g>
</g>
<!-- Node10&#45;&gt;Node12 -->
<g id="edge13" class="edge"><title>Node10&#45;&gt;Node12</title>
<path fill="none" stroke="midnightblue" d="M634.819,-47.033C646.421,-45.5585 658.714,-43.9962 670.464,-42.5029"/>
<polygon fill="midnightblue" stroke="midnightblue" points="671.14,-45.9452 680.619,-41.2123 670.258,-39.001 671.14,-45.9452"/>
</g>
</g>
</svg>
