<?xml version="1.0" encoding="UTF-8" standalone="no"?>
<!DOCTYPE svg PUBLIC "-//W3C//DTD SVG 1.1//EN"
 "http://www.w3.org/Graphics/SVG/1.1/DTD/svg11.dtd">
<!-- Generated by graphviz version 2.38.0 (20140413.2041)
 -->
<!-- Title: Ra::Engine::sendGLData Pages: 1 -->
<svg width="830pt" height="39pt"
 viewBox="0.00 0.00 830.00 39.00" xmlns="http://www.w3.org/2000/svg" xmlns:xlink="http://www.w3.org/1999/xlink">
<g id="graph0" class="graph" transform="scale(1 1) rotate(0) translate(4 35)">
<title>Ra::Engine::sendGLData</title>
<polygon fill="white" stroke="none" points="-4,4 -4,-35 826,-35 826,4 -4,4"/>
<!-- Node1 -->
<g id="node1" class="node"><title>Node1</title>
<polygon fill="#bfbfbf" stroke="black" points="0,-6 0,-25 132,-25 132,-6 0,-6"/>
<text text-anchor="middle" x="66" y="-13" font-family="Helvetica,sans-Serif" font-size="10.00">Ra::Engine::sendGLData</text>
</g>
<!-- Node2 -->
<g id="node2" class="node"><title>Node2</title>
<g id="a_node2"><a xlink:href="namespaceRa_1_1Engine_1_1DrawPrimitives.html#ae5ee79fb923c94ae9382e98ce4516730" target="_top" xlink:title="Displays given vector shown as an arrow originating from &#39;start&#39;. ">
<polygon fill="white" stroke="black" points="168,-0.5 168,-30.5 311,-30.5 311,-0.5 168,-0.5"/>
<text text-anchor="start" x="176" y="-18.5" font-family="Helvetica,sans-Serif" font-size="10.00">Ra::Engine::DrawPrimitives</text>
<text text-anchor="middle" x="239.5" y="-7.5" font-family="Helvetica,sans-Serif" font-size="10.00">::Vector</text>
</a>
</g>
</g>
<!-- Node1&#45;&gt;Node2 -->
<g id="edge1" class="edge"><title>Node1&#45;&gt;Node2</title>
<path fill="none" stroke="midnightblue" d="M132.326,-15.5C140.695,-15.5 149.339,-15.5 157.914,-15.5"/>
<polygon fill="midnightblue" stroke="midnightblue" points="157.927,-19.0001 167.927,-15.5 157.927,-12.0001 157.927,-19.0001"/>
</g>
<!-- Node3 -->
<g id="node3" class="node"><title>Node3</title>
<g id="a_node3"><a xlink:href="namespaceRa_1_1Core_1_1Math.html#a5f25a31a29b0688e349dc35a353b9766" target="_top" xlink:title="Get two vectors orthogonal to a given vector. ">
<polygon fill="white" stroke="black" points="347,-0.5 347,-30.5 509,-30.5 509,-0.5 347,-0.5"/>
<text text-anchor="start" x="355" y="-18.5" font-family="Helvetica,sans-Serif" font-size="10.00">Ra::Core::Math::getOrthogonal</text>
<text text-anchor="middle" x="428" y="-7.5" font-family="Helvetica,sans-Serif" font-size="10.00">Vectors</text>
</a>
</g>
</g>
<!-- Node2&#45;&gt;Node3 -->
<g id="edge2" class="edge"><title>Node2&#45;&gt;Node3</title>
<path fill="none" stroke="midnightblue" d="M311.008,-15.5C319.385,-15.5 328.024,-15.5 336.63,-15.5"/>
<polygon fill="midnightblue" stroke="midnightblue" points="336.7,-19.0001 346.7,-15.5 336.7,-12.0001 336.7,-19.0001"/>
</g>
<!-- Node4 -->
<g id="node4" class="node"><title>Node4</title>
<g id="a_node4"><a xlink:href="namespaceRa_1_1Core_1_1Math.html#a90f0fe9079f5bb86c721ea4b61738470" target="_top" xlink:title="Returns the sign of any numeric type as { &#45;1, 0, 1}. ">
<polygon fill="white" stroke="black" points="545,-6 545,-25 658,-25 658,-6 545,-6"/>
<text text-anchor="middle" x="601.5" y="-13" font-family="Helvetica,sans-Serif" font-size="10.00">Ra::Core::Math::sign</text>
</a>
</g>
</g>
<!-- Node3&#45;&gt;Node4 -->
<g id="edge3" class="edge"><title>Node3&#45;&gt;Node4</title>
<path fill="none" stroke="midnightblue" d="M509.227,-15.5C517.779,-15.5 526.406,-15.5 534.764,-15.5"/>
<polygon fill="midnightblue" stroke="midnightblue" points="534.802,-19.0001 544.802,-15.5 534.802,-12.0001 534.802,-19.0001"/>
</g>
<!-- Node5 -->
<g id="node5" class="node"><title>Node5</title>
<g id="a_node5"><a xlink:href="namespaceRa_1_1Core_1_1Math.html#ae4e681e0738fe7e5bfd028c6270b597a" target="_top" xlink:title="Ra::Core::Math::signum">
<polygon fill="white" stroke="black" points="694,-6 694,-25 822,-25 822,-6 694,-6"/>
<text text-anchor="middle" x="758" y="-13" font-family="Helvetica,sans-Serif" font-size="10.00">Ra::Core::Math::signum</text>
</a>
</g>
</g>
<!-- Node4&#45;&gt;Node5 -->
<g id="edge4" class="edge"><title>Node4&#45;&gt;Node5</title>
<path fill="none" stroke="midnightblue" d="M658.278,-15.5C666.603,-15.5 675.289,-15.5 683.906,-15.5"/>
<polygon fill="midnightblue" stroke="midnightblue" points="683.964,-19.0001 693.964,-15.5 683.964,-12.0001 683.964,-19.0001"/>
</g>
</g>
</svg>
