<?xml version="1.0" encoding="UTF-8" standalone="no"?>
<!DOCTYPE svg PUBLIC "-//W3C//DTD SVG 1.1//EN"
 "http://www.w3.org/Graphics/SVG/1.1/DTD/svg11.dtd">
<!-- Generated by graphviz version 2.38.0 (20140413.2041)
 -->
<!-- Title: Ra::Core::Geometry::makeParametricSphere Pages: 1 -->
<svg width="659pt" height="225pt"
 viewBox="0.00 0.00 659.00 224.50" xmlns="http://www.w3.org/2000/svg" xmlns:xlink="http://www.w3.org/1999/xlink">
<g id="graph0" class="graph" transform="scale(1 1) rotate(0) translate(4 220.5)">
<title>Ra::Core::Geometry::makeParametricSphere</title>
<polygon fill="white" stroke="none" points="-4,4 -4,-220.5 655,-220.5 655,4 -4,4"/>
<!-- Node1 -->
<g id="node1" class="node"><title>Node1</title>
<polygon fill="#bfbfbf" stroke="black" points="0,-93 0,-123 136,-123 136,-93 0,-93"/>
<text text-anchor="start" x="8" y="-111" font-family="Helvetica,sans-Serif" font-size="10.00">Ra::Core::Geometry</text>
<text text-anchor="middle" x="68" y="-100" font-family="Helvetica,sans-Serif" font-size="10.00">::makeParametricSphere</text>
</g>
<!-- Node2 -->
<g id="node2" class="node"><title>Node2</title>
<g id="a_node2"><a xlink:href="classRa_1_1Core_1_1Geometry_1_1TriangleMesh.html#a6ef9dbd18c0501f2ffd1316be6be56ce" target="_top" xlink:title="Access the vertices positions. ">
<polygon fill="white" stroke="black" points="386,-137 386,-167 514,-167 514,-137 386,-137"/>
<text text-anchor="start" x="394" y="-155" font-family="Helvetica,sans-Serif" font-size="10.00">Ra::Core::Geometry</text>
<text text-anchor="middle" x="450" y="-144" font-family="Helvetica,sans-Serif" font-size="10.00">::TriangleMesh::vertices</text>
</a>
</g>
</g>
<!-- Node1&#45;&gt;Node2 -->
<g id="edge1" class="edge"><title>Node1&#45;&gt;Node2</title>
<path fill="none" stroke="midnightblue" d="M136.04,-115.82C148.015,-117.214 160.376,-118.651 172,-120 241.037,-128.009 319.757,-137.099 375.588,-143.539"/>
<polygon fill="midnightblue" stroke="midnightblue" points="375.404,-147.041 385.739,-144.71 376.206,-140.087 375.404,-147.041"/>
</g>
<!-- Node3 -->
<g id="node3" class="node"><title>Node3</title>
<g id="a_node3"><a xlink:href="classRa_1_1Core_1_1Geometry_1_1TriangleMesh.html#ad7d3f6272b902171740e50232ba56114" target="_top" xlink:title="Access the vertices normals. ">
<polygon fill="white" stroke="black" points="385.5,-88 385.5,-118 514.5,-118 514.5,-88 385.5,-88"/>
<text text-anchor="start" x="393.5" y="-106" font-family="Helvetica,sans-Serif" font-size="10.00">Ra::Core::Geometry</text>
<text text-anchor="middle" x="450" y="-95" font-family="Helvetica,sans-Serif" font-size="10.00">::TriangleMesh::normals</text>
</a>
</g>
</g>
<!-- Node1&#45;&gt;Node3 -->
<g id="edge2" class="edge"><title>Node1&#45;&gt;Node3</title>
<path fill="none" stroke="midnightblue" d="M136.062,-107.118C203.042,-106.236 305.744,-104.885 375.052,-103.973"/>
<polygon fill="midnightblue" stroke="midnightblue" points="375.5,-107.468 385.453,-103.836 375.407,-100.468 375.5,-107.468"/>
</g>
<!-- Node4 -->
<g id="node4" class="node"><title>Node4</title>
<g id="a_node4"><a xlink:href="namespaceRa_1_1Core_1_1Math.html#a4f441ac6a56092d52849a4f48e274aa8" target="_top" xlink:title="Get the cosine of the angle between two vectors. ">
<polygon fill="white" stroke="black" points="205,-10.5 205,-29.5 315,-29.5 315,-10.5 205,-10.5"/>
<text text-anchor="middle" x="260" y="-17.5" font-family="Helvetica,sans-Serif" font-size="10.00">Ra::Core::Math::cos</text>
</a>
</g>
</g>
<!-- Node1&#45;&gt;Node4 -->
<g id="edge3" class="edge"><title>Node1&#45;&gt;Node4</title>
<path fill="none" stroke="midnightblue" d="M87.1239,-92.7404C106.791,-76.9614 139.722,-52.747 172,-39 179.201,-35.9332 186.956,-33.3363 194.765,-31.1434"/>
<polygon fill="midnightblue" stroke="midnightblue" points="195.847,-34.4784 204.646,-28.5769 194.088,-27.7032 195.847,-34.4784"/>
</g>
<!-- Node5 -->
<g id="node5" class="node"><title>Node5</title>
<g id="a_node5"><a xlink:href="classRa_1_1Core_1_1Geometry_1_1TriangleMesh.html#a51b5e7d49d82ffa036306e28a42cd92b" target="_top" xlink:title="Utility function colorzing the mesh with a given color. Add the color attribute if needed...">
<polygon fill="white" stroke="black" points="196.5,-175 196.5,-205 323.5,-205 323.5,-175 196.5,-175"/>
<text text-anchor="start" x="204.5" y="-193" font-family="Helvetica,sans-Serif" font-size="10.00">Ra::Core::Geometry</text>
<text text-anchor="middle" x="260" y="-182" font-family="Helvetica,sans-Serif" font-size="10.00">::TriangleMesh::colorize</text>
</a>
</g>
</g>
<!-- Node1&#45;&gt;Node5 -->
<g id="edge4" class="edge"><title>Node1&#45;&gt;Node5</title>
<path fill="none" stroke="midnightblue" d="M96.4968,-123.165C116.973,-134.14 145.798,-148.929 172,-160 181.591,-164.053 191.938,-167.986 202.033,-171.599"/>
<polygon fill="midnightblue" stroke="midnightblue" points="201.007,-174.948 211.602,-174.957 203.326,-168.343 201.007,-174.948"/>
</g>
<!-- Node7 -->
<g id="node7" class="node"><title>Node7</title>
<g id="a_node7"><a xlink:href="classRa_1_1Core_1_1Geometry_1_1TriangleMesh.html#a0b294c697e094dcc62b3adb3c0ac16af" target="_top" xlink:title="Check that the mesh is well built, asserting when it is not. ">
<polygon fill="white" stroke="black" points="172,-49 172,-79 348,-79 348,-49 172,-49"/>
<text text-anchor="start" x="180" y="-67" font-family="Helvetica,sans-Serif" font-size="10.00">Ra::Core::Geometry</text>
<text text-anchor="middle" x="260" y="-56" font-family="Helvetica,sans-Serif" font-size="10.00">::TriangleMesh::checkConsistency</text>
</a>
</g>
</g>
<!-- Node1&#45;&gt;Node7 -->
<g id="edge7" class="edge"><title>Node1&#45;&gt;Node7</title>
<path fill="none" stroke="midnightblue" d="M133.856,-92.9808C149.97,-89.2492 167.374,-85.2186 183.933,-81.384"/>
<polygon fill="midnightblue" stroke="midnightblue" points="185.162,-84.6921 194.114,-79.0262 183.582,-77.8726 185.162,-84.6921"/>
</g>
<!-- Node5&#45;&gt;Node2 -->
<g id="edge6" class="edge"><title>Node5&#45;&gt;Node2</title>
<path fill="none" stroke="midnightblue" d="M323.601,-177.347C340.299,-173.972 358.489,-170.295 375.705,-166.815"/>
<polygon fill="midnightblue" stroke="midnightblue" points="376.602,-170.205 385.71,-164.793 375.215,-163.343 376.602,-170.205"/>
</g>
<!-- Node6 -->
<g id="node6" class="node"><title>Node6</title>
<g id="a_node6"><a xlink:href="classRa_1_1Core_1_1Geometry_1_1TriangleMesh.html#a209037ce5a11ec8539a9ada7ba763e8c" target="_top" xlink:title="Get attribute by handle. ">
<polygon fill="white" stroke="black" points="384,-186 384,-216 516,-216 516,-186 384,-186"/>
<text text-anchor="start" x="392" y="-204" font-family="Helvetica,sans-Serif" font-size="10.00">Ra::Core::Geometry</text>
<text text-anchor="middle" x="450" y="-193" font-family="Helvetica,sans-Serif" font-size="10.00">::TriangleMesh::getAttrib</text>
</a>
</g>
</g>
<!-- Node5&#45;&gt;Node6 -->
<g id="edge5" class="edge"><title>Node5&#45;&gt;Node6</title>
<path fill="none" stroke="midnightblue" d="M323.601,-193.663C339.612,-194.6 356.995,-195.617 373.576,-196.587"/>
<polygon fill="midnightblue" stroke="midnightblue" points="373.589,-200.094 383.776,-197.184 373.998,-193.106 373.589,-200.094"/>
</g>
<!-- Node7&#45;&gt;Node2 -->
<g id="edge8" class="edge"><title>Node7&#45;&gt;Node2</title>
<path fill="none" stroke="midnightblue" d="M288.436,-79.1154C313.097,-92.445 350.486,-112.023 384,-127 388.641,-129.074 393.512,-131.141 398.41,-133.148"/>
<polygon fill="midnightblue" stroke="midnightblue" points="397.229,-136.445 407.813,-136.918 399.834,-129.948 397.229,-136.445"/>
</g>
<!-- Node7&#45;&gt;Node3 -->
<g id="edge13" class="edge"><title>Node7&#45;&gt;Node3</title>
<path fill="none" stroke="midnightblue" d="M333.417,-79.0226C347.151,-81.8717 361.534,-84.8555 375.307,-87.7126"/>
<polygon fill="midnightblue" stroke="midnightblue" points="374.707,-91.1627 385.21,-89.7669 376.129,-84.3086 374.707,-91.1627"/>
</g>
<!-- Node8 -->
<g id="node8" class="node"><title>Node8</title>
<g id="a_node8"><a xlink:href="namespaceRa_1_1Core_1_1Geometry.html#aa04e6052d8911b1df1bd881474debb45" target="_top" xlink:title="Ra::Core::Geometry::t">
<polygon fill="white" stroke="black" points="390,-0.5 390,-19.5 510,-19.5 510,-0.5 390,-0.5"/>
<text text-anchor="middle" x="450" y="-7.5" font-family="Helvetica,sans-Serif" font-size="10.00">Ra::Core::Geometry::t</text>
</a>
</g>
</g>
<!-- Node7&#45;&gt;Node8 -->
<g id="edge9" class="edge"><title>Node7&#45;&gt;Node8</title>
<path fill="none" stroke="midnightblue" d="M313.368,-48.958C342.591,-40.5642 378.541,-30.2381 406.086,-22.3264"/>
<polygon fill="midnightblue" stroke="midnightblue" points="407.18,-25.6536 415.826,-19.5288 405.248,-18.9256 407.18,-25.6536"/>
</g>
<!-- Node9 -->
<g id="node9" class="node"><title>Node9</title>
<g id="a_node9"><a xlink:href="namespaceRa_1_1Core_1_1Geometry.html#a178f2b7309fe2ea5bc31a3abcb25368e" target="_top" xlink:title="Ra::Core::Geometry\l::triangleArea">
<polygon fill="white" stroke="black" points="394.5,-39 394.5,-69 505.5,-69 505.5,-39 394.5,-39"/>
<text text-anchor="start" x="402.5" y="-57" font-family="Helvetica,sans-Serif" font-size="10.00">Ra::Core::Geometry</text>
<text text-anchor="middle" x="450" y="-46" font-family="Helvetica,sans-Serif" font-size="10.00">::triangleArea</text>
</a>
</g>
</g>
<!-- Node7&#45;&gt;Node9 -->
<g id="edge10" class="edge"><title>Node7&#45;&gt;Node9</title>
<path fill="none" stroke="midnightblue" d="M348.121,-59.3659C360.304,-58.7179 372.642,-58.0616 384.311,-57.4409"/>
<polygon fill="midnightblue" stroke="midnightblue" points="384.572,-60.9321 394.372,-56.9057 384.2,-53.9419 384.572,-60.9321"/>
</g>
<!-- Node10 -->
<g id="node10" class="node"><title>Node10</title>
<g id="a_node10"><a xlink:href="namespaceOpenMesh.html#a71e7f1dd3eac016d2b8245ac408a291c" target="_top" xlink:title="OpenMesh::cross">
<polygon fill="white" stroke="black" points="552,-63.5 552,-82.5 651,-82.5 651,-63.5 552,-63.5"/>
<text text-anchor="middle" x="601.5" y="-70.5" font-family="Helvetica,sans-Serif" font-size="10.00">OpenMesh::cross</text>
</a>
</g>
</g>
<!-- Node9&#45;&gt;Node10 -->
<g id="edge11" class="edge"><title>Node9&#45;&gt;Node10</title>
<path fill="none" stroke="midnightblue" d="M505.819,-60.967C517.421,-62.4415 529.714,-64.0038 541.464,-65.4971"/>
<polygon fill="midnightblue" stroke="midnightblue" points="541.258,-68.999 551.619,-66.7877 542.14,-62.0548 541.258,-68.999"/>
</g>
<!-- Node11 -->
<g id="node11" class="node"><title>Node11</title>
<g id="a_node11"><a xlink:href="namespaceOpenMesh.html#a8205f789ce08919bc11c58383574596c" target="_top" xlink:title="OpenMesh::norm">
<polygon fill="white" stroke="black" points="552,-25.5 552,-44.5 651,-44.5 651,-25.5 552,-25.5"/>
<text text-anchor="middle" x="601.5" y="-32.5" font-family="Helvetica,sans-Serif" font-size="10.00">OpenMesh::norm</text>
</a>
</g>
</g>
<!-- Node9&#45;&gt;Node11 -->
<g id="edge12" class="edge"><title>Node9&#45;&gt;Node11</title>
<path fill="none" stroke="midnightblue" d="M505.819,-47.033C517.421,-45.5585 529.714,-43.9962 541.464,-42.5029"/>
<polygon fill="midnightblue" stroke="midnightblue" points="542.14,-45.9452 551.619,-41.2123 541.258,-39.001 542.14,-45.9452"/>
</g>
</g>
</svg>
