<?xml version="1.0" encoding="UTF-8" standalone="no"?>
<!DOCTYPE svg PUBLIC "-//W3C//DTD SVG 1.1//EN"
 "http://www.w3.org/Graphics/SVG/1.1/DTD/svg11.dtd">
<!-- Generated by graphviz version 2.38.0 (20140413.2041)
 -->
<!-- Title: /home/travis/build/STORM&#45;IRIT/Radium&#45;Engine/src/Core/Geometry/Obb.hpp Pages: 1 -->
<svg width="2420pt" height="317pt"
 viewBox="0.00 0.00 2419.50 317.00" xmlns="http://www.w3.org/2000/svg" xmlns:xlink="http://www.w3.org/1999/xlink">
<g id="graph0" class="graph" transform="scale(1 1) rotate(0) translate(4 313)">
<title>/home/travis/build/STORM&#45;IRIT/Radium&#45;Engine/src/Core/Geometry/Obb.hpp</title>
<polygon fill="white" stroke="none" points="-4,4 -4,-313 2415.5,-313 2415.5,4 -4,4"/>
<!-- Node1 -->
<g id="node1" class="node"><title>Node1</title>
<polygon fill="#bfbfbf" stroke="black" points="1423.5,-267.5 1423.5,-308.5 1577.5,-308.5 1577.5,-267.5 1423.5,-267.5"/>
<text text-anchor="start" x="1431.5" y="-296.5" font-family="Helvetica,sans-Serif" font-size="10.00">/home/travis/build</text>
<text text-anchor="start" x="1431.5" y="-285.5" font-family="Helvetica,sans-Serif" font-size="10.00">/STORM&#45;IRIT/Radium&#45;Engine</text>
<text text-anchor="middle" x="1500.5" y="-274.5" font-family="Helvetica,sans-Serif" font-size="10.00">/src/Core/Geometry/Obb.hpp</text>
</g>
<!-- Node2 -->
<g id="node2" class="node"><title>Node2</title>
<g id="a_node2"><a xlink:href="DrawPrimitives_8hpp.html" target="_top" xlink:title="/home/travis/build\l/STORM&#45;IRIT/Radium&#45;Engine\l/src/Engine/Renderer/RenderObject\l/Primitives/DrawPrimitives.hpp">
<polygon fill="white" stroke="black" points="1409.5,-178.5 1409.5,-230.5 1591.5,-230.5 1591.5,-178.5 1409.5,-178.5"/>
<text text-anchor="start" x="1417.5" y="-218.5" font-family="Helvetica,sans-Serif" font-size="10.00">/home/travis/build</text>
<text text-anchor="start" x="1417.5" y="-207.5" font-family="Helvetica,sans-Serif" font-size="10.00">/STORM&#45;IRIT/Radium&#45;Engine</text>
<text text-anchor="start" x="1417.5" y="-196.5" font-family="Helvetica,sans-Serif" font-size="10.00">/src/Engine/Renderer/RenderObject</text>
<text text-anchor="middle" x="1500.5" y="-185.5" font-family="Helvetica,sans-Serif" font-size="10.00">/Primitives/DrawPrimitives.hpp</text>
</a>
</g>
</g>
<!-- Node1&#45;&gt;Node2 -->
<g id="edge1" class="edge"><title>Node1&#45;&gt;Node2</title>
<path fill="none" stroke="midnightblue" d="M1500.5,-257.121C1500.5,-248.413 1500.5,-238.989 1500.5,-230.607"/>
<polygon fill="midnightblue" stroke="midnightblue" points="1497,-257.271 1500.5,-267.271 1504,-257.271 1497,-257.271"/>
</g>
<!-- Node3 -->
<g id="node3" class="node"><title>Node3</title>
<g id="a_node3"><a xlink:href="GeometryComponent_8cpp.html" target="_top" xlink:title="/home/travis/build\l/STORM&#45;IRIT/Radium&#45;Engine\l/src/Engine/Component/GeometryComponent.cpp">
<polygon fill="white" stroke="black" points="835.5,-95 835.5,-136 1091.5,-136 1091.5,-95 835.5,-95"/>
<text text-anchor="start" x="843.5" y="-124" font-family="Helvetica,sans-Serif" font-size="10.00">/home/travis/build</text>
<text text-anchor="start" x="843.5" y="-113" font-family="Helvetica,sans-Serif" font-size="10.00">/STORM&#45;IRIT/Radium&#45;Engine</text>
<text text-anchor="middle" x="963.5" y="-102" font-family="Helvetica,sans-Serif" font-size="10.00">/src/Engine/Component/GeometryComponent.cpp</text>
</a>
</g>
</g>
<!-- Node2&#45;&gt;Node3 -->
<g id="edge2" class="edge"><title>Node2&#45;&gt;Node3</title>
<path fill="none" stroke="midnightblue" d="M1399.23,-188.829C1318.28,-176.886 1201.97,-159.239 1100.5,-142 1089.53,-140.136 1078.08,-138.118 1066.67,-136.063"/>
<polygon fill="midnightblue" stroke="midnightblue" points="1399.02,-192.335 1409.42,-190.33 1400.04,-185.41 1399.02,-192.335"/>
</g>
<!-- Node4 -->
<g id="node4" class="node"><title>Node4</title>
<g id="a_node4"><a xlink:href="SystemDisplay_8hpp.html" target="_top" xlink:title="/home/travis/build\l/STORM&#45;IRIT/Radium&#45;Engine\l/src/Engine/Managers/SystemDisplay\l/SystemDisplay.hpp">
<polygon fill="white" stroke="black" points="1109.5,-89.5 1109.5,-141.5 1303.5,-141.5 1303.5,-89.5 1109.5,-89.5"/>
<text text-anchor="start" x="1117.5" y="-129.5" font-family="Helvetica,sans-Serif" font-size="10.00">/home/travis/build</text>
<text text-anchor="start" x="1117.5" y="-118.5" font-family="Helvetica,sans-Serif" font-size="10.00">/STORM&#45;IRIT/Radium&#45;Engine</text>
<text text-anchor="start" x="1117.5" y="-107.5" font-family="Helvetica,sans-Serif" font-size="10.00">/src/Engine/Managers/SystemDisplay</text>
<text text-anchor="middle" x="1206.5" y="-96.5" font-family="Helvetica,sans-Serif" font-size="10.00">/SystemDisplay.hpp</text>
</a>
</g>
</g>
<!-- Node2&#45;&gt;Node4 -->
<g id="edge3" class="edge"><title>Node2&#45;&gt;Node4</title>
<path fill="none" stroke="midnightblue" d="M1406.08,-175.558C1369.1,-164.617 1327.02,-152.163 1291.05,-141.521"/>
<polygon fill="midnightblue" stroke="midnightblue" points="1405.28,-178.971 1415.86,-178.453 1407.26,-172.259 1405.28,-178.971"/>
</g>
<!-- Node17 -->
<g id="node17" class="node"><title>Node17</title>
<g id="a_node17"><a xlink:href="DebugRender_8cpp.html" target="_top" xlink:title="/home/travis/build\l/STORM&#45;IRIT/Radium&#45;Engine\l/src/Engine/Renderer/Renderers\l/DebugRender.cpp">
<polygon fill="white" stroke="black" points="1321.5,-89.5 1321.5,-141.5 1487.5,-141.5 1487.5,-89.5 1321.5,-89.5"/>
<text text-anchor="start" x="1329.5" y="-129.5" font-family="Helvetica,sans-Serif" font-size="10.00">/home/travis/build</text>
<text text-anchor="start" x="1329.5" y="-118.5" font-family="Helvetica,sans-Serif" font-size="10.00">/STORM&#45;IRIT/Radium&#45;Engine</text>
<text text-anchor="start" x="1329.5" y="-107.5" font-family="Helvetica,sans-Serif" font-size="10.00">/src/Engine/Renderer/Renderers</text>
<text text-anchor="middle" x="1404.5" y="-96.5" font-family="Helvetica,sans-Serif" font-size="10.00">/DebugRender.cpp</text>
</a>
</g>
</g>
<!-- Node2&#45;&gt;Node17 -->
<g id="edge16" class="edge"><title>Node2&#45;&gt;Node17</title>
<path fill="none" stroke="midnightblue" d="M1465.04,-171.363C1454.2,-161.542 1442.45,-150.89 1432.2,-141.607"/>
<polygon fill="midnightblue" stroke="midnightblue" points="1462.97,-174.214 1472.73,-178.336 1467.67,-169.027 1462.97,-174.214"/>
</g>
<!-- Node18 -->
<g id="node18" class="node"><title>Node18</title>
<g id="a_node18"><a xlink:href="DrawPrimitives_8cpp.html" target="_top" xlink:title="/home/travis/build\l/STORM&#45;IRIT/Radium&#45;Engine\l/src/Engine/Renderer/RenderObject\l/Primitives/DrawPrimitives.cpp">
<polygon fill="white" stroke="black" points="1505.5,-89.5 1505.5,-141.5 1687.5,-141.5 1687.5,-89.5 1505.5,-89.5"/>
<text text-anchor="start" x="1513.5" y="-129.5" font-family="Helvetica,sans-Serif" font-size="10.00">/home/travis/build</text>
<text text-anchor="start" x="1513.5" y="-118.5" font-family="Helvetica,sans-Serif" font-size="10.00">/STORM&#45;IRIT/Radium&#45;Engine</text>
<text text-anchor="start" x="1513.5" y="-107.5" font-family="Helvetica,sans-Serif" font-size="10.00">/src/Engine/Renderer/RenderObject</text>
<text text-anchor="middle" x="1596.5" y="-96.5" font-family="Helvetica,sans-Serif" font-size="10.00">/Primitives/DrawPrimitives.cpp</text>
</a>
</g>
</g>
<!-- Node2&#45;&gt;Node18 -->
<g id="edge17" class="edge"><title>Node2&#45;&gt;Node18</title>
<path fill="none" stroke="midnightblue" d="M1535.96,-171.363C1546.8,-161.542 1558.55,-150.89 1568.8,-141.607"/>
<polygon fill="midnightblue" stroke="midnightblue" points="1533.33,-169.027 1528.27,-178.336 1538.03,-174.214 1533.33,-169.027"/>
</g>
<!-- Node19 -->
<g id="node19" class="node"><title>Node19</title>
<g id="a_node19"><a xlink:href="SkeletonBoneDrawable_8cpp.html" target="_top" xlink:title="/home/travis/build\l/STORM&#45;IRIT/Radium&#45;Engine\l/Plugins/Animation/src/Drawing\l/SkeletonBoneDrawable.cpp">
<polygon fill="white" stroke="black" points="1705.5,-89.5 1705.5,-141.5 1869.5,-141.5 1869.5,-89.5 1705.5,-89.5"/>
<text text-anchor="start" x="1713.5" y="-129.5" font-family="Helvetica,sans-Serif" font-size="10.00">/home/travis/build</text>
<text text-anchor="start" x="1713.5" y="-118.5" font-family="Helvetica,sans-Serif" font-size="10.00">/STORM&#45;IRIT/Radium&#45;Engine</text>
<text text-anchor="start" x="1713.5" y="-107.5" font-family="Helvetica,sans-Serif" font-size="10.00">/Plugins/Animation/src/Drawing</text>
<text text-anchor="middle" x="1787.5" y="-96.5" font-family="Helvetica,sans-Serif" font-size="10.00">/SkeletonBoneDrawable.cpp</text>
</a>
</g>
</g>
<!-- Node2&#45;&gt;Node19 -->
<g id="edge18" class="edge"><title>Node2&#45;&gt;Node19</title>
<path fill="none" stroke="midnightblue" d="M1592.72,-175.545C1628.97,-164.555 1670.26,-152.041 1705.46,-141.371"/>
<polygon fill="midnightblue" stroke="midnightblue" points="1591.68,-172.202 1583.13,-178.453 1593.71,-178.901 1591.68,-172.202"/>
</g>
<!-- Node20 -->
<g id="node20" class="node"><title>Node20</title>
<g id="a_node20"><a xlink:href="DummyComponent_8cpp.html" target="_top" xlink:title="/home/travis/build\l/STORM&#45;IRIT/Radium&#45;Engine\l/Plugins/Dummy/src/DummyComponent.cpp">
<polygon fill="white" stroke="black" points="1887.5,-95 1887.5,-136 2117.5,-136 2117.5,-95 1887.5,-95"/>
<text text-anchor="start" x="1895.5" y="-124" font-family="Helvetica,sans-Serif" font-size="10.00">/home/travis/build</text>
<text text-anchor="start" x="1895.5" y="-113" font-family="Helvetica,sans-Serif" font-size="10.00">/STORM&#45;IRIT/Radium&#45;Engine</text>
<text text-anchor="middle" x="2002.5" y="-102" font-family="Helvetica,sans-Serif" font-size="10.00">/Plugins/Dummy/src/DummyComponent.cpp</text>
</a>
</g>
</g>
<!-- Node2&#45;&gt;Node20 -->
<g id="edge19" class="edge"><title>Node2&#45;&gt;Node20</title>
<path fill="none" stroke="midnightblue" d="M1601.65,-188.211C1677.89,-176.404 1784.94,-159.223 1878.5,-142 1888.55,-140.15 1899.04,-138.13 1909.48,-136.064"/>
<polygon fill="midnightblue" stroke="midnightblue" points="1600.92,-184.782 1591.57,-189.768 1601.99,-191.7 1600.92,-184.782"/>
</g>
<!-- Node5 -->
<g id="node5" class="node"><title>Node5</title>
<g id="a_node5"><a xlink:href="ItemEntry_8cpp.html" target="_top" xlink:title="/home/travis/build\l/STORM&#45;IRIT/Radium&#45;Engine\l/src/Engine/ItemModel/ItemEntry.cpp">
<polygon fill="white" stroke="black" points="0,-6 0,-47 191,-47 191,-6 0,-6"/>
<text text-anchor="start" x="8" y="-35" font-family="Helvetica,sans-Serif" font-size="10.00">/home/travis/build</text>
<text text-anchor="start" x="8" y="-24" font-family="Helvetica,sans-Serif" font-size="10.00">/STORM&#45;IRIT/Radium&#45;Engine</text>
<text text-anchor="middle" x="95.5" y="-13" font-family="Helvetica,sans-Serif" font-size="10.00">/src/Engine/ItemModel/ItemEntry.cpp</text>
</a>
</g>
</g>
<!-- Node4&#45;&gt;Node5 -->
<g id="edge4" class="edge"><title>Node4&#45;&gt;Node5</title>
<path fill="none" stroke="midnightblue" d="M1099.27,-88.9585C701.747,-35.1054 593.038,-108.535 199.5,-53 188.915,-51.5063 177.839,-49.3972 167.025,-47.0244"/>
<polygon fill="midnightblue" stroke="midnightblue" points="1098.93,-92.4446 1109.31,-90.3377 1099.88,-85.5097 1098.93,-92.4446"/>
</g>
<!-- Node6 -->
<g id="node6" class="node"><title>Node6</title>
<g id="a_node6"><a xlink:href="EntityManager_8cpp.html" target="_top" xlink:title="/home/travis/build\l/STORM&#45;IRIT/Radium&#45;Engine\l/src/Engine/Managers/EntityManager\l/EntityManager.cpp">
<polygon fill="white" stroke="black" points="209,-0.5 209,-52.5 400,-52.5 400,-0.5 209,-0.5"/>
<text text-anchor="start" x="217" y="-40.5" font-family="Helvetica,sans-Serif" font-size="10.00">/home/travis/build</text>
<text text-anchor="start" x="217" y="-29.5" font-family="Helvetica,sans-Serif" font-size="10.00">/STORM&#45;IRIT/Radium&#45;Engine</text>
<text text-anchor="start" x="217" y="-18.5" font-family="Helvetica,sans-Serif" font-size="10.00">/src/Engine/Managers/EntityManager</text>
<text text-anchor="middle" x="304.5" y="-7.5" font-family="Helvetica,sans-Serif" font-size="10.00">/EntityManager.cpp</text>
</a>
</g>
</g>
<!-- Node4&#45;&gt;Node6 -->
<g id="edge5" class="edge"><title>Node4&#45;&gt;Node6</title>
<path fill="none" stroke="midnightblue" d="M1099.29,-88.9506C794.363,-45.9685 710.525,-97.0026 409.5,-53 406.437,-52.5523 403.333,-52.0564 400.206,-51.5203"/>
<polygon fill="midnightblue" stroke="midnightblue" points="1098.91,-92.4314 1109.31,-90.3843 1099.9,-85.5021 1098.91,-92.4314"/>
</g>
<!-- Node7 -->
<g id="node7" class="node"><title>Node7</title>
<g id="a_node7"><a xlink:href="LightManager_8cpp.html" target="_top" xlink:title="/home/travis/build\l/STORM&#45;IRIT/Radium&#45;Engine\l/src/Engine/Managers/LightManager\l/LightManager.cpp">
<polygon fill="white" stroke="black" points="418.5,-0.5 418.5,-52.5 606.5,-52.5 606.5,-0.5 418.5,-0.5"/>
<text text-anchor="start" x="426.5" y="-40.5" font-family="Helvetica,sans-Serif" font-size="10.00">/home/travis/build</text>
<text text-anchor="start" x="426.5" y="-29.5" font-family="Helvetica,sans-Serif" font-size="10.00">/STORM&#45;IRIT/Radium&#45;Engine</text>
<text text-anchor="start" x="426.5" y="-18.5" font-family="Helvetica,sans-Serif" font-size="10.00">/src/Engine/Managers/LightManager</text>
<text text-anchor="middle" x="512.5" y="-7.5" font-family="Helvetica,sans-Serif" font-size="10.00">/LightManager.cpp</text>
</a>
</g>
</g>
<!-- Node4&#45;&gt;Node7 -->
<g id="edge6" class="edge"><title>Node4&#45;&gt;Node7</title>
<path fill="none" stroke="midnightblue" d="M1099.31,-88.9313C885.154,-56.5507 825.712,-86.5772 615.5,-53 612.589,-52.5351 609.64,-52.0287 606.669,-51.4878"/>
<polygon fill="midnightblue" stroke="midnightblue" points="1098.88,-92.4061 1109.29,-90.469 1099.94,-85.4876 1098.88,-92.4061"/>
</g>
<!-- Node8 -->
<g id="node8" class="node"><title>Node8</title>
<g id="a_node8"><a xlink:href="SystemDisplay_8cpp.html" target="_top" xlink:title="/home/travis/build\l/STORM&#45;IRIT/Radium&#45;Engine\l/src/Engine/Managers/SystemDisplay\l/SystemDisplay.cpp">
<polygon fill="white" stroke="black" points="624.5,-0.5 624.5,-52.5 818.5,-52.5 818.5,-0.5 624.5,-0.5"/>
<text text-anchor="start" x="632.5" y="-40.5" font-family="Helvetica,sans-Serif" font-size="10.00">/home/travis/build</text>
<text text-anchor="start" x="632.5" y="-29.5" font-family="Helvetica,sans-Serif" font-size="10.00">/STORM&#45;IRIT/Radium&#45;Engine</text>
<text text-anchor="start" x="632.5" y="-18.5" font-family="Helvetica,sans-Serif" font-size="10.00">/src/Engine/Managers/SystemDisplay</text>
<text text-anchor="middle" x="721.5" y="-7.5" font-family="Helvetica,sans-Serif" font-size="10.00">/SystemDisplay.cpp</text>
</a>
</g>
</g>
<!-- Node4&#45;&gt;Node8 -->
<g id="edge7" class="edge"><title>Node4&#45;&gt;Node8</title>
<path fill="none" stroke="midnightblue" d="M1099.24,-88.8535C978.406,-67.0934 944.654,-74.754 827.5,-53 824.615,-52.4644 821.692,-51.9002 818.744,-51.3127"/>
<polygon fill="midnightblue" stroke="midnightblue" points="1098.79,-92.3284 1109.26,-90.6873 1100.05,-85.4429 1098.79,-92.3284"/>
</g>
<!-- Node9 -->
<g id="node9" class="node"><title>Node9</title>
<g id="a_node9"><a xlink:href="RadiumEngine_8cpp.html" target="_top" xlink:title="/home/travis/build\l/STORM&#45;IRIT/Radium&#45;Engine\l/src/Engine/RadiumEngine.cpp">
<polygon fill="white" stroke="black" points="837,-6 837,-47 998,-47 998,-6 837,-6"/>
<text text-anchor="start" x="845" y="-35" font-family="Helvetica,sans-Serif" font-size="10.00">/home/travis/build</text>
<text text-anchor="start" x="845" y="-24" font-family="Helvetica,sans-Serif" font-size="10.00">/STORM&#45;IRIT/Radium&#45;Engine</text>
<text text-anchor="middle" x="917.5" y="-13" font-family="Helvetica,sans-Serif" font-size="10.00">/src/Engine/RadiumEngine.cpp</text>
</a>
</g>
</g>
<!-- Node4&#45;&gt;Node9 -->
<g id="edge8" class="edge"><title>Node4&#45;&gt;Node9</title>
<path fill="none" stroke="midnightblue" d="M1113.47,-86.4934C1070.83,-73.6574 1021.31,-58.751 982.72,-47.1338"/>
<polygon fill="midnightblue" stroke="midnightblue" points="1112.71,-89.9215 1123.3,-89.4527 1114.73,-83.2186 1112.71,-89.9215"/>
</g>
<!-- Node10 -->
<g id="node10" class="node"><title>Node10</title>
<g id="a_node10"><a xlink:href="RenderObjectManager_8cpp.html" target="_top" xlink:title="/home/travis/build\l/STORM&#45;IRIT/Radium&#45;Engine\l/src/Engine/Renderer/RenderObject\l/RenderObjectManager.cpp">
<polygon fill="white" stroke="black" points="1016.5,-0.5 1016.5,-52.5 1198.5,-52.5 1198.5,-0.5 1016.5,-0.5"/>
<text text-anchor="start" x="1024.5" y="-40.5" font-family="Helvetica,sans-Serif" font-size="10.00">/home/travis/build</text>
<text text-anchor="start" x="1024.5" y="-29.5" font-family="Helvetica,sans-Serif" font-size="10.00">/STORM&#45;IRIT/Radium&#45;Engine</text>
<text text-anchor="start" x="1024.5" y="-18.5" font-family="Helvetica,sans-Serif" font-size="10.00">/src/Engine/Renderer/RenderObject</text>
<text text-anchor="middle" x="1107.5" y="-7.5" font-family="Helvetica,sans-Serif" font-size="10.00">/RenderObjectManager.cpp</text>
</a>
</g>
</g>
<!-- Node4&#45;&gt;Node10 -->
<g id="edge9" class="edge"><title>Node4&#45;&gt;Node10</title>
<path fill="none" stroke="midnightblue" d="M1170.26,-82.6489C1158.99,-72.749 1146.74,-61.9801 1136.07,-52.6075"/>
<polygon fill="midnightblue" stroke="midnightblue" points="1168.04,-85.3639 1177.87,-89.336 1172.66,-80.1057 1168.04,-85.3639"/>
</g>
<!-- Node11 -->
<g id="node11" class="node"><title>Node11</title>
<g id="a_node11"><a xlink:href="BaseApplication_8cpp.html" target="_top" xlink:title="/home/travis/build\l/STORM&#45;IRIT/Radium&#45;Engine\l/src/GuiBase/BaseApplication.cpp">
<polygon fill="white" stroke="black" points="1216.5,-6 1216.5,-47 1392.5,-47 1392.5,-6 1216.5,-6"/>
<text text-anchor="start" x="1224.5" y="-35" font-family="Helvetica,sans-Serif" font-size="10.00">/home/travis/build</text>
<text text-anchor="start" x="1224.5" y="-24" font-family="Helvetica,sans-Serif" font-size="10.00">/STORM&#45;IRIT/Radium&#45;Engine</text>
<text text-anchor="middle" x="1304.5" y="-13" font-family="Helvetica,sans-Serif" font-size="10.00">/src/GuiBase/BaseApplication.cpp</text>
</a>
</g>
</g>
<!-- Node4&#45;&gt;Node11 -->
<g id="edge10" class="edge"><title>Node4&#45;&gt;Node11</title>
<path fill="none" stroke="midnightblue" d="M1242.53,-82.5147C1255.91,-70.6371 1270.68,-57.5252 1282.44,-47.0821"/>
<polygon fill="midnightblue" stroke="midnightblue" points="1240,-80.0796 1234.85,-89.336 1244.65,-85.3145 1240,-80.0796"/>
</g>
<!-- Node12 -->
<g id="node12" class="node"><title>Node12</title>
<g id="a_node12"><a xlink:href="CameraManipulator_8cpp.html" target="_top" xlink:title="/home/travis/build\l/STORM&#45;IRIT/Radium&#45;Engine\l/src/GuiBase/Viewer/CameraManipulator.cpp">
<polygon fill="white" stroke="black" points="1410.5,-6 1410.5,-47 1638.5,-47 1638.5,-6 1410.5,-6"/>
<text text-anchor="start" x="1418.5" y="-35" font-family="Helvetica,sans-Serif" font-size="10.00">/home/travis/build</text>
<text text-anchor="start" x="1418.5" y="-24" font-family="Helvetica,sans-Serif" font-size="10.00">/STORM&#45;IRIT/Radium&#45;Engine</text>
<text text-anchor="middle" x="1524.5" y="-13" font-family="Helvetica,sans-Serif" font-size="10.00">/src/GuiBase/Viewer/CameraManipulator.cpp</text>
</a>
</g>
</g>
<!-- Node4&#45;&gt;Node12 -->
<g id="edge11" class="edge"><title>Node4&#45;&gt;Node12</title>
<path fill="none" stroke="midnightblue" d="M1307.7,-86.8122C1354.98,-73.879 1410.14,-58.7873 1452.99,-47.0638"/>
<polygon fill="midnightblue" stroke="midnightblue" points="1306.77,-83.4378 1298.05,-89.4527 1308.62,-90.1897 1306.77,-83.4378"/>
</g>
<!-- Node13 -->
<g id="node13" class="node"><title>Node13</title>
<g id="a_node13"><a xlink:href="GizmoManager_8cpp.html" target="_top" xlink:title="/home/travis/build\l/STORM&#45;IRIT/Radium&#45;Engine\l/src/GuiBase/Viewer/Gizmo\l/GizmoManager.cpp">
<polygon fill="white" stroke="black" points="1656.5,-0.5 1656.5,-52.5 1804.5,-52.5 1804.5,-0.5 1656.5,-0.5"/>
<text text-anchor="start" x="1664.5" y="-40.5" font-family="Helvetica,sans-Serif" font-size="10.00">/home/travis/build</text>
<text text-anchor="start" x="1664.5" y="-29.5" font-family="Helvetica,sans-Serif" font-size="10.00">/STORM&#45;IRIT/Radium&#45;Engine</text>
<text text-anchor="start" x="1664.5" y="-18.5" font-family="Helvetica,sans-Serif" font-size="10.00">/src/GuiBase/Viewer/Gizmo</text>
<text text-anchor="middle" x="1730.5" y="-7.5" font-family="Helvetica,sans-Serif" font-size="10.00">/GizmoManager.cpp</text>
</a>
</g>
</g>
<!-- Node4&#45;&gt;Node13 -->
<g id="edge12" class="edge"><title>Node4&#45;&gt;Node13</title>
<path fill="none" stroke="midnightblue" d="M1313.64,-88.9086C1461.85,-64.2576 1503.97,-82.4789 1647.5,-53 1650.45,-52.3935 1653.45,-51.7261 1656.47,-51.011"/>
<polygon fill="midnightblue" stroke="midnightblue" points="1313,-85.4681 1303.73,-90.5953 1314.17,-92.369 1313,-85.4681"/>
</g>
<!-- Node14 -->
<g id="node14" class="node"><title>Node14</title>
<g id="a_node14"><a xlink:href="Viewer_8cpp.html" target="_top" xlink:title="/home/travis/build\l/STORM&#45;IRIT/Radium&#45;Engine\l/src/GuiBase/Viewer/Viewer.cpp">
<polygon fill="white" stroke="black" points="1823,-6 1823,-47 1988,-47 1988,-6 1823,-6"/>
<text text-anchor="start" x="1831" y="-35" font-family="Helvetica,sans-Serif" font-size="10.00">/home/travis/build</text>
<text text-anchor="start" x="1831" y="-24" font-family="Helvetica,sans-Serif" font-size="10.00">/STORM&#45;IRIT/Radium&#45;Engine</text>
<text text-anchor="middle" x="1905.5" y="-13" font-family="Helvetica,sans-Serif" font-size="10.00">/src/GuiBase/Viewer/Viewer.cpp</text>
</a>
</g>
</g>
<!-- Node4&#45;&gt;Node14 -->
<g id="edge13" class="edge"><title>Node4&#45;&gt;Node14</title>
<path fill="none" stroke="midnightblue" d="M1313.68,-88.9377C1534.91,-55.8226 1596.74,-90.4448 1813.5,-53 1822.56,-51.4341 1832.02,-49.3487 1841.28,-47.0425"/>
<polygon fill="midnightblue" stroke="midnightblue" points="1313.06,-85.491 1303.71,-90.4599 1314.12,-92.4109 1313.06,-85.491"/>
</g>
<!-- Node15 -->
<g id="node15" class="node"><title>Node15</title>
<g id="a_node15"><a xlink:href="MeshFeatureTrackingComponent_8cpp.html" target="_top" xlink:title="/home/travis/build\l/STORM&#45;IRIT/Radium&#45;Engine\l/Plugins/MeshFeatureTracking\l/src/MeshFeatureTrackingComponent.cpp">
<polygon fill="white" stroke="black" points="2006,-0.5 2006,-52.5 2219,-52.5 2219,-0.5 2006,-0.5"/>
<text text-anchor="start" x="2014" y="-40.5" font-family="Helvetica,sans-Serif" font-size="10.00">/home/travis/build</text>
<text text-anchor="start" x="2014" y="-29.5" font-family="Helvetica,sans-Serif" font-size="10.00">/STORM&#45;IRIT/Radium&#45;Engine</text>
<text text-anchor="start" x="2014" y="-18.5" font-family="Helvetica,sans-Serif" font-size="10.00">/Plugins/MeshFeatureTracking</text>
<text text-anchor="middle" x="2112.5" y="-7.5" font-family="Helvetica,sans-Serif" font-size="10.00">/src/MeshFeatureTrackingComponent.cpp</text>
</a>
</g>
</g>
<!-- Node4&#45;&gt;Node15 -->
<g id="edge14" class="edge"><title>Node4&#45;&gt;Node15</title>
<path fill="none" stroke="midnightblue" d="M1313.62,-88.9611C1615.97,-46.2044 1698.67,-93.6979 1997.5,-53 2000.24,-52.6274 2003,-52.2233 2005.79,-51.7919"/>
<polygon fill="midnightblue" stroke="midnightblue" points="1313.1,-85.5007 1303.69,-90.3861 1314.09,-92.4297 1313.1,-85.5007"/>
</g>
<!-- Node16 -->
<g id="node16" class="node"><title>Node16</title>
<g id="a_node16"><a xlink:href="MeshPaintPlugin_8cpp.html" target="_top" xlink:title="/home/travis/build\l/STORM&#45;IRIT/Radium&#45;Engine\l/Plugins/MeshPaint/src/MeshPaint\lPlugin.cpp">
<polygon fill="white" stroke="black" points="2237.5,-0.5 2237.5,-52.5 2411.5,-52.5 2411.5,-0.5 2237.5,-0.5"/>
<text text-anchor="start" x="2245.5" y="-40.5" font-family="Helvetica,sans-Serif" font-size="10.00">/home/travis/build</text>
<text text-anchor="start" x="2245.5" y="-29.5" font-family="Helvetica,sans-Serif" font-size="10.00">/STORM&#45;IRIT/Radium&#45;Engine</text>
<text text-anchor="start" x="2245.5" y="-18.5" font-family="Helvetica,sans-Serif" font-size="10.00">/Plugins/MeshPaint/src/MeshPaint</text>
<text text-anchor="middle" x="2324.5" y="-7.5" font-family="Helvetica,sans-Serif" font-size="10.00">Plugin.cpp</text>
</a>
</g>
</g>
<!-- Node4&#45;&gt;Node16 -->
<g id="edge15" class="edge"><title>Node4&#45;&gt;Node16</title>
<path fill="none" stroke="midnightblue" d="M1313.6,-88.9781C1717.85,-34.3718 1828.86,-113.177 2228.5,-53 2231.4,-52.5635 2234.34,-52.0725 2237.29,-51.5362"/>
<polygon fill="midnightblue" stroke="midnightblue" points="1313.12,-85.5106 1303.69,-90.3352 1314.07,-92.4458 1313.12,-85.5106"/>
</g>
</g>
</svg>
