<?xml version="1.0" encoding="UTF-8" standalone="no"?>
<!DOCTYPE svg PUBLIC "-//W3C//DTD SVG 1.1//EN"
 "http://www.w3.org/Graphics/SVG/1.1/DTD/svg11.dtd">
<!-- Generated by graphviz version 2.38.0 (20140413.2041)
 -->
<!-- Title: /home/travis/build/STORM&#45;IRIT/Radium&#45;Engine/src/Core/Utils/Observable.hpp Pages: 1 -->
<svg width="539pt" height="274pt"
 viewBox="0.00 0.00 539.00 274.00" xmlns="http://www.w3.org/2000/svg" xmlns:xlink="http://www.w3.org/1999/xlink">
<g id="graph0" class="graph" transform="scale(1 1) rotate(0) translate(4 270)">
<title>/home/travis/build/STORM&#45;IRIT/Radium&#45;Engine/src/Core/Utils/Observable.hpp</title>
<polygon fill="white" stroke="none" points="-4,4 -4,-270 535,-270 535,4 -4,4"/>
<!-- Node1 -->
<g id="node1" class="node"><title>Node1</title>
<polygon fill="#bfbfbf" stroke="black" points="362.5,-224.5 362.5,-265.5 523.5,-265.5 523.5,-224.5 362.5,-224.5"/>
<text text-anchor="start" x="370.5" y="-253.5" font-family="Helvetica,sans-Serif" font-size="10.00">/home/travis/build</text>
<text text-anchor="start" x="370.5" y="-242.5" font-family="Helvetica,sans-Serif" font-size="10.00">/STORM&#45;IRIT/Radium&#45;Engine</text>
<text text-anchor="middle" x="443" y="-231.5" font-family="Helvetica,sans-Serif" font-size="10.00">/src/Core/Utils/Observable.hpp</text>
</g>
<!-- Node2 -->
<g id="node2" class="node"><title>Node2</title>
<g id="a_node2"><a xlink:href="Log_8hpp.html" target="_top" xlink:title="Core/Utils/Log.hpp">
<polygon fill="white" stroke="black" points="289,-168.5 289,-187.5 393,-187.5 393,-168.5 289,-168.5"/>
<text text-anchor="middle" x="341" y="-175.5" font-family="Helvetica,sans-Serif" font-size="10.00">Core/Utils/Log.hpp</text>
</a>
</g>
</g>
<!-- Node1&#45;&gt;Node2 -->
<g id="edge1" class="edge"><title>Node1&#45;&gt;Node2</title>
<path fill="none" stroke="midnightblue" d="M412.397,-224.498C396.608,-214.436 377.696,-202.385 363.304,-193.214"/>
<polygon fill="midnightblue" stroke="midnightblue" points="364.892,-190.075 354.578,-187.652 361.13,-195.978 364.892,-190.075"/>
</g>
<!-- Node13 -->
<g id="node13" class="node"><title>Node13</title>
<polygon fill="white" stroke="#bfbfbf" points="411.5,-168.5 411.5,-187.5 474.5,-187.5 474.5,-168.5 411.5,-168.5"/>
<text text-anchor="middle" x="443" y="-175.5" font-family="Helvetica,sans-Serif" font-size="10.00">functional</text>
</g>
<!-- Node1&#45;&gt;Node13 -->
<g id="edge13" class="edge"><title>Node1&#45;&gt;Node13</title>
<path fill="none" stroke="midnightblue" d="M443,-224.498C443,-216.065 443,-206.235 443,-197.874"/>
<polygon fill="midnightblue" stroke="midnightblue" points="446.5,-197.652 443,-187.652 439.5,-197.653 446.5,-197.652"/>
</g>
<!-- Node14 -->
<g id="node14" class="node"><title>Node14</title>
<polygon fill="white" stroke="#bfbfbf" points="493,-168.5 493,-187.5 531,-187.5 531,-168.5 493,-168.5"/>
<text text-anchor="middle" x="512" y="-175.5" font-family="Helvetica,sans-Serif" font-size="10.00">map</text>
</g>
<!-- Node1&#45;&gt;Node14 -->
<g id="edge14" class="edge"><title>Node1&#45;&gt;Node14</title>
<path fill="none" stroke="midnightblue" d="M463.702,-224.498C473.874,-214.915 485.962,-203.528 495.501,-194.543"/>
<polygon fill="midnightblue" stroke="midnightblue" points="497.936,-197.057 502.815,-187.652 493.136,-191.962 497.936,-197.057"/>
</g>
<!-- Node3 -->
<g id="node3" class="node"><title>Node3</title>
<g id="a_node3"><a xlink:href="RaCore_8hpp.html" target="_top" xlink:title="Core/RaCore.hpp">
<polygon fill="white" stroke="black" points="132,-112.5 132,-131.5 230,-131.5 230,-112.5 132,-112.5"/>
<text text-anchor="middle" x="181" y="-119.5" font-family="Helvetica,sans-Serif" font-size="10.00">Core/RaCore.hpp</text>
</a>
</g>
</g>
<!-- Node2&#45;&gt;Node3 -->
<g id="edge2" class="edge"><title>Node2&#45;&gt;Node3</title>
<path fill="none" stroke="midnightblue" d="M315.648,-168.444C288.731,-159.359 246.004,-144.939 215.913,-134.783"/>
<polygon fill="midnightblue" stroke="midnightblue" points="216.828,-131.398 206.234,-131.516 214.59,-138.031 216.828,-131.398"/>
</g>
<!-- Node8 -->
<g id="node8" class="node"><title>Node8</title>
<polygon fill="white" stroke="#bfbfbf" points="277,-0.5 277,-19.5 333,-19.5 333,-0.5 277,-0.5"/>
<text text-anchor="middle" x="305" y="-7.5" font-family="Helvetica,sans-Serif" font-size="10.00">sstream</text>
</g>
<!-- Node2&#45;&gt;Node8 -->
<g id="edge10" class="edge"><title>Node2&#45;&gt;Node8</title>
<path fill="none" stroke="midnightblue" d="M332.65,-168.191C325.173,-159.677 314.687,-146.038 310,-132 298.388,-97.2237 300.276,-53.6802 302.66,-29.4502"/>
<polygon fill="midnightblue" stroke="midnightblue" points="306.139,-29.8314 303.778,-19.503 299.183,-29.0493 306.139,-29.8314"/>
</g>
<!-- Node10 -->
<g id="node10" class="node"><title>Node10</title>
<polygon fill="white" stroke="#bfbfbf" points="319,-112.5 319,-131.5 363,-131.5 363,-112.5 319,-112.5"/>
<text text-anchor="middle" x="341" y="-119.5" font-family="Helvetica,sans-Serif" font-size="10.00">ctime</text>
</g>
<!-- Node2&#45;&gt;Node10 -->
<g id="edge9" class="edge"><title>Node2&#45;&gt;Node10</title>
<path fill="none" stroke="midnightblue" d="M341,-168.083C341,-161.006 341,-150.861 341,-141.986"/>
<polygon fill="midnightblue" stroke="midnightblue" points="344.5,-141.751 341,-131.751 337.5,-141.751 344.5,-141.751"/>
</g>
<!-- Node11 -->
<g id="node11" class="node"><title>Node11</title>
<polygon fill="white" stroke="#bfbfbf" points="381.5,-112.5 381.5,-131.5 430.5,-131.5 430.5,-112.5 381.5,-112.5"/>
<text text-anchor="middle" x="406" y="-119.5" font-family="Helvetica,sans-Serif" font-size="10.00">stdio.h</text>
</g>
<!-- Node2&#45;&gt;Node11 -->
<g id="edge11" class="edge"><title>Node2&#45;&gt;Node11</title>
<path fill="none" stroke="midnightblue" d="M351.443,-168.324C361.146,-160.263 375.815,-148.077 387.5,-138.369"/>
<polygon fill="midnightblue" stroke="midnightblue" points="389.911,-140.916 395.367,-131.834 385.438,-135.532 389.911,-140.916"/>
</g>
<!-- Node12 -->
<g id="node12" class="node"><title>Node12</title>
<polygon fill="white" stroke="#bfbfbf" points="449,-112.5 449,-131.5 493,-131.5 493,-112.5 449,-112.5"/>
<text text-anchor="middle" x="471" y="-119.5" font-family="Helvetica,sans-Serif" font-size="10.00">string</text>
</g>
<!-- Node2&#45;&gt;Node12 -->
<g id="edge12" class="edge"><title>Node2&#45;&gt;Node12</title>
<path fill="none" stroke="midnightblue" d="M361.599,-168.444C382.993,-159.557 416.681,-145.563 441.024,-135.451"/>
<polygon fill="midnightblue" stroke="midnightblue" points="442.605,-138.585 450.497,-131.516 439.92,-132.12 442.605,-138.585"/>
</g>
<!-- Node4 -->
<g id="node4" class="node"><title>Node4</title>
<g id="a_node4"><a xlink:href="CoreMacros_8hpp.html" target="_top" xlink:title="Core/CoreMacros.hpp">
<polygon fill="white" stroke="black" points="116,-56.5 116,-75.5 236,-75.5 236,-56.5 116,-56.5"/>
<text text-anchor="middle" x="176" y="-63.5" font-family="Helvetica,sans-Serif" font-size="10.00">Core/CoreMacros.hpp</text>
</a>
</g>
</g>
<!-- Node3&#45;&gt;Node4 -->
<g id="edge3" class="edge"><title>Node3&#45;&gt;Node4</title>
<path fill="none" stroke="midnightblue" d="M180.174,-112.083C179.519,-105.006 178.58,-94.8611 177.758,-85.9865"/>
<polygon fill="midnightblue" stroke="midnightblue" points="181.217,-85.3858 176.81,-75.7511 174.247,-86.0312 181.217,-85.3858"/>
</g>
<!-- Node5 -->
<g id="node5" class="node"><title>Node5</title>
<polygon fill="white" stroke="#bfbfbf" points="0,-0.5 0,-19.5 52,-19.5 52,-0.5 0,-0.5"/>
<text text-anchor="middle" x="26" y="-7.5" font-family="Helvetica,sans-Serif" font-size="10.00">cassert</text>
</g>
<!-- Node4&#45;&gt;Node5 -->
<g id="edge4" class="edge"><title>Node4&#45;&gt;Node5</title>
<path fill="none" stroke="midnightblue" d="M152.232,-56.4435C127.107,-47.3986 87.289,-33.064 59.0996,-22.9158"/>
<polygon fill="midnightblue" stroke="midnightblue" points="60.2512,-19.6106 49.6567,-19.5164 57.8801,-26.1968 60.2512,-19.6106"/>
</g>
<!-- Node6 -->
<g id="node6" class="node"><title>Node6</title>
<polygon fill="white" stroke="#bfbfbf" points="70.5,-0.5 70.5,-19.5 115.5,-19.5 115.5,-0.5 70.5,-0.5"/>
<text text-anchor="middle" x="93" y="-7.5" font-family="Helvetica,sans-Serif" font-size="10.00">cstdio</text>
</g>
<!-- Node4&#45;&gt;Node6 -->
<g id="edge5" class="edge"><title>Node4&#45;&gt;Node6</title>
<path fill="none" stroke="midnightblue" d="M162.665,-56.324C149.838,-47.979 130.215,-35.2122 115.06,-25.3524"/>
<polygon fill="midnightblue" stroke="midnightblue" points="116.593,-22.1742 106.302,-19.6545 112.776,-28.0417 116.593,-22.1742"/>
</g>
<!-- Node7 -->
<g id="node7" class="node"><title>Node7</title>
<polygon fill="white" stroke="#bfbfbf" points="133.5,-0.5 133.5,-19.5 192.5,-19.5 192.5,-0.5 133.5,-0.5"/>
<text text-anchor="middle" x="163" y="-7.5" font-family="Helvetica,sans-Serif" font-size="10.00">iostream</text>
</g>
<!-- Node4&#45;&gt;Node7 -->
<g id="edge6" class="edge"><title>Node4&#45;&gt;Node7</title>
<path fill="none" stroke="midnightblue" d="M173.853,-56.083C172.131,-48.9272 169.653,-38.6353 167.5,-29.6911"/>
<polygon fill="midnightblue" stroke="midnightblue" points="170.85,-28.6541 165.107,-19.7511 164.045,-30.2925 170.85,-28.6541"/>
</g>
<!-- Node4&#45;&gt;Node8 -->
<g id="edge7" class="edge"><title>Node4&#45;&gt;Node8</title>
<path fill="none" stroke="midnightblue" d="M196.44,-56.4435C217.67,-47.5566 251.099,-33.5632 275.255,-23.4514"/>
<polygon fill="midnightblue" stroke="midnightblue" points="276.782,-26.6064 284.655,-19.5164 274.079,-20.1493 276.782,-26.6064"/>
</g>
<!-- Node9 -->
<g id="node9" class="node"><title>Node9</title>
<polygon fill="white" stroke="#bfbfbf" points="211,-0.5 211,-19.5 259,-19.5 259,-0.5 211,-0.5"/>
<text text-anchor="middle" x="235" y="-7.5" font-family="Helvetica,sans-Serif" font-size="10.00">thread</text>
</g>
<!-- Node4&#45;&gt;Node9 -->
<g id="edge8" class="edge"><title>Node4&#45;&gt;Node9</title>
<path fill="none" stroke="midnightblue" d="M185.479,-56.324C194.201,-48.3414 207.343,-36.3128 217.898,-26.6529"/>
<polygon fill="midnightblue" stroke="midnightblue" points="220.334,-29.1674 225.348,-19.8339 215.608,-24.0036 220.334,-29.1674"/>
</g>
</g>
</svg>
