<?xml version="1.0" encoding="UTF-8" standalone="no"?>
<!DOCTYPE svg PUBLIC "-//W3C//DTD SVG 1.1//EN"
 "http://www.w3.org/Graphics/SVG/1.1/DTD/svg11.dtd">
<!-- Generated by graphviz version 2.38.0 (20140413.2041)
 -->
<!-- Title: /home/travis/build/STORM&#45;IRIT/Radium&#45;Engine/src/GuiBase/Utils/PickingManager.cpp Pages: 1 -->
<svg width="1234pt" height="632pt"
 viewBox="0.00 0.00 1234.45 632.00" xmlns="http://www.w3.org/2000/svg" xmlns:xlink="http://www.w3.org/1999/xlink">
<g id="graph0" class="graph" transform="scale(1 1) rotate(0) translate(4 628)">
<title>/home/travis/build/STORM&#45;IRIT/Radium&#45;Engine/src/GuiBase/Utils/PickingManager.cpp</title>
<polygon fill="white" stroke="none" points="-4,4 -4,-628 1230.45,-628 1230.45,4 -4,4"/>
<!-- Node1 -->
<g id="node1" class="node"><title>Node1</title>
<polygon fill="#bfbfbf" stroke="black" points="312.453,-582.5 312.453,-623.5 510.453,-623.5 510.453,-582.5 312.453,-582.5"/>
<text text-anchor="start" x="320.453" y="-611.5" font-family="Helvetica,sans-Serif" font-size="10.00">/home/travis/build</text>
<text text-anchor="start" x="320.453" y="-600.5" font-family="Helvetica,sans-Serif" font-size="10.00">/STORM&#45;IRIT/Radium&#45;Engine</text>
<text text-anchor="middle" x="411.453" y="-589.5" font-family="Helvetica,sans-Serif" font-size="10.00">/src/GuiBase/Utils/PickingManager.cpp</text>
</g>
<!-- Node2 -->
<g id="node2" class="node"><title>Node2</title>
<g id="a_node2"><a xlink:href="PickingManager_8hpp.html" target="_top" xlink:title="GuiBase/Utils/PickingManager.hpp">
<polygon fill="white" stroke="black" points="571.953,-526.5 571.953,-545.5 750.953,-545.5 750.953,-526.5 571.953,-526.5"/>
<text text-anchor="middle" x="661.453" y="-533.5" font-family="Helvetica,sans-Serif" font-size="10.00">GuiBase/Utils/PickingManager.hpp</text>
</a>
</g>
</g>
<!-- Node1&#45;&gt;Node2 -->
<g id="edge1" class="edge"><title>Node1&#45;&gt;Node2</title>
<path fill="none" stroke="midnightblue" d="M486.461,-582.498C529.714,-571.252 582.527,-557.521 618.748,-548.103"/>
<polygon fill="midnightblue" stroke="midnightblue" points="619.705,-551.471 628.503,-545.567 617.944,-544.696 619.705,-551.471"/>
</g>
<!-- Node33 -->
<g id="node33" class="node"><title>Node33</title>
<g id="a_node33"><a xlink:href="Index_8hpp.html" target="_top" xlink:title="Core/Utils/Index.hpp">
<polygon fill="white" stroke="black" points="72.953,-235.5 72.953,-254.5 185.953,-254.5 185.953,-235.5 72.953,-235.5"/>
<text text-anchor="middle" x="129.453" y="-242.5" font-family="Helvetica,sans-Serif" font-size="10.00">Core/Utils/Index.hpp</text>
</a>
</g>
</g>
<!-- Node1&#45;&gt;Node33 -->
<g id="edge62" class="edge"><title>Node1&#45;&gt;Node33</title>
<path fill="none" stroke="midnightblue" d="M312.326,-592.918C242.888,-580.458 162.453,-550.932 162.453,-481 162.453,-481 162.453,-481 162.453,-356 162.453,-322.245 148.021,-285.028 138.245,-263.691"/>
<polygon fill="midnightblue" stroke="midnightblue" points="141.364,-262.099 133.904,-254.576 135.044,-265.11 141.364,-262.099"/>
</g>
<!-- Node3 -->
<g id="node3" class="node"><title>Node3</title>
<g id="a_node3"><a xlink:href="RaGuiBase_8hpp.html" target="_top" xlink:title="GuiBase/RaGuiBase.hpp">
<polygon fill="white" stroke="black" points="977.453,-470.5 977.453,-489.5 1109.45,-489.5 1109.45,-470.5 977.453,-470.5"/>
<text text-anchor="middle" x="1043.45" y="-477.5" font-family="Helvetica,sans-Serif" font-size="10.00">GuiBase/RaGuiBase.hpp</text>
</a>
</g>
</g>
<!-- Node2&#45;&gt;Node3 -->
<g id="edge2" class="edge"><title>Node2&#45;&gt;Node3</title>
<path fill="none" stroke="midnightblue" d="M721.982,-526.444C790.158,-516.806 900.815,-501.163 972.866,-490.978"/>
<polygon fill="midnightblue" stroke="midnightblue" points="973.796,-494.382 983.207,-489.516 972.816,-487.451 973.796,-494.382"/>
</g>
<!-- Node10 -->
<g id="node10" class="node"><title>Node10</title>
<g id="a_node10"><a xlink:href="Renderer_8hpp.html" target="_top" xlink:title="Engine/Renderer/Renderer.hpp">
<polygon fill="white" stroke="black" points="580.953,-470.5 580.953,-489.5 741.953,-489.5 741.953,-470.5 580.953,-470.5"/>
<text text-anchor="middle" x="661.453" y="-477.5" font-family="Helvetica,sans-Serif" font-size="10.00">Engine/Renderer/Renderer.hpp</text>
</a>
</g>
</g>
<!-- Node2&#45;&gt;Node10 -->
<g id="edge9" class="edge"><title>Node2&#45;&gt;Node10</title>
<path fill="none" stroke="midnightblue" d="M661.453,-526.083C661.453,-519.006 661.453,-508.861 661.453,-499.986"/>
<polygon fill="midnightblue" stroke="midnightblue" points="664.953,-499.751 661.453,-489.751 657.953,-499.751 664.953,-499.751"/>
</g>
<!-- Node4 -->
<g id="node4" class="node"><title>Node4</title>
<g id="a_node4"><a xlink:href="CoreMacros_8hpp.html" target="_top" xlink:title="Core/CoreMacros.hpp">
<polygon fill="white" stroke="black" points="845.453,-56.5 845.453,-75.5 965.453,-75.5 965.453,-56.5 845.453,-56.5"/>
<text text-anchor="middle" x="905.453" y="-63.5" font-family="Helvetica,sans-Serif" font-size="10.00">Core/CoreMacros.hpp</text>
</a>
</g>
</g>
<!-- Node3&#45;&gt;Node4 -->
<g id="edge3" class="edge"><title>Node3&#45;&gt;Node4</title>
<path fill="none" stroke="midnightblue" d="M1086.36,-470.46C1140.45,-456.906 1226.45,-424.844 1226.45,-358 1226.45,-358 1226.45,-358 1226.45,-182.5 1226.45,-128.998 1066.58,-93.4867 972.484,-77.2198"/>
<polygon fill="midnightblue" stroke="midnightblue" points="972.917,-73.7432 962.472,-75.5183 971.744,-80.6442 972.917,-73.7432"/>
</g>
<!-- Node5 -->
<g id="node5" class="node"><title>Node5</title>
<polygon fill="white" stroke="#bfbfbf" points="742.453,-0.5 742.453,-19.5 794.453,-19.5 794.453,-0.5 742.453,-0.5"/>
<text text-anchor="middle" x="768.453" y="-7.5" font-family="Helvetica,sans-Serif" font-size="10.00">cassert</text>
</g>
<!-- Node4&#45;&gt;Node5 -->
<g id="edge4" class="edge"><title>Node4&#45;&gt;Node5</title>
<path fill="none" stroke="midnightblue" d="M883.745,-56.4435C861.098,-47.5171 825.381,-33.4387 799.701,-23.3168"/>
<polygon fill="midnightblue" stroke="midnightblue" points="800.646,-19.9273 790.06,-19.5164 798.079,-26.4397 800.646,-19.9273"/>
</g>
<!-- Node6 -->
<g id="node6" class="node"><title>Node6</title>
<polygon fill="white" stroke="#bfbfbf" points="812.953,-0.5 812.953,-19.5 857.953,-19.5 857.953,-0.5 812.953,-0.5"/>
<text text-anchor="middle" x="835.453" y="-7.5" font-family="Helvetica,sans-Serif" font-size="10.00">cstdio</text>
</g>
<!-- Node4&#45;&gt;Node6 -->
<g id="edge5" class="edge"><title>Node4&#45;&gt;Node6</title>
<path fill="none" stroke="midnightblue" d="M894.206,-56.324C883.656,-48.1849 867.652,-35.8395 855.011,-26.0874"/>
<polygon fill="midnightblue" stroke="midnightblue" points="856.96,-23.1707 846.904,-19.8339 852.684,-28.7132 856.96,-23.1707"/>
</g>
<!-- Node7 -->
<g id="node7" class="node"><title>Node7</title>
<polygon fill="white" stroke="#bfbfbf" points="875.953,-0.5 875.953,-19.5 934.953,-19.5 934.953,-0.5 875.953,-0.5"/>
<text text-anchor="middle" x="905.453" y="-7.5" font-family="Helvetica,sans-Serif" font-size="10.00">iostream</text>
</g>
<!-- Node4&#45;&gt;Node7 -->
<g id="edge6" class="edge"><title>Node4&#45;&gt;Node7</title>
<path fill="none" stroke="midnightblue" d="M905.453,-56.083C905.453,-49.0059 905.453,-38.8611 905.453,-29.9865"/>
<polygon fill="midnightblue" stroke="midnightblue" points="908.953,-29.751 905.453,-19.7511 901.953,-29.7511 908.953,-29.751"/>
</g>
<!-- Node8 -->
<g id="node8" class="node"><title>Node8</title>
<polygon fill="white" stroke="#bfbfbf" points="953.453,-0.5 953.453,-19.5 1009.45,-19.5 1009.45,-0.5 953.453,-0.5"/>
<text text-anchor="middle" x="981.453" y="-7.5" font-family="Helvetica,sans-Serif" font-size="10.00">sstream</text>
</g>
<!-- Node4&#45;&gt;Node8 -->
<g id="edge7" class="edge"><title>Node4&#45;&gt;Node8</title>
<path fill="none" stroke="midnightblue" d="M917.664,-56.324C929.229,-48.1066 946.828,-35.6017 960.614,-25.8069"/>
<polygon fill="midnightblue" stroke="midnightblue" points="962.896,-28.4791 969.02,-19.8339 958.841,-22.7729 962.896,-28.4791"/>
</g>
<!-- Node9 -->
<g id="node9" class="node"><title>Node9</title>
<polygon fill="white" stroke="#bfbfbf" points="1027.45,-0.5 1027.45,-19.5 1075.45,-19.5 1075.45,-0.5 1027.45,-0.5"/>
<text text-anchor="middle" x="1051.45" y="-7.5" font-family="Helvetica,sans-Serif" font-size="10.00">thread</text>
</g>
<!-- Node4&#45;&gt;Node9 -->
<g id="edge8" class="edge"><title>Node4&#45;&gt;Node9</title>
<path fill="none" stroke="midnightblue" d="M928.587,-56.4435C952.935,-47.4381 991.46,-33.1891 1018.88,-23.049"/>
<polygon fill="midnightblue" stroke="midnightblue" points="1020.26,-26.2681 1028.43,-19.5164 1017.83,-19.7028 1020.26,-26.2681"/>
</g>
<!-- Node11 -->
<g id="node11" class="node"><title>Node11</title>
<g id="a_node11"><a xlink:href="RaEngine_8hpp.html" target="_top" xlink:title="Engine/RaEngine.hpp">
<polygon fill="white" stroke="black" points="1080.95,-347.5 1080.95,-366.5 1197.95,-366.5 1197.95,-347.5 1080.95,-347.5"/>
<text text-anchor="middle" x="1139.45" y="-354.5" font-family="Helvetica,sans-Serif" font-size="10.00">Engine/RaEngine.hpp</text>
</a>
</g>
</g>
<!-- Node10&#45;&gt;Node11 -->
<g id="edge10" class="edge"><title>Node10&#45;&gt;Node11</title>
<path fill="none" stroke="midnightblue" d="M742.064,-476.503C843.508,-472.258 1011.17,-461.258 1066.45,-434 1093.28,-420.771 1115.62,-393.44 1128.26,-375.415"/>
<polygon fill="midnightblue" stroke="midnightblue" points="1131.27,-377.211 1133.95,-366.962 1125.46,-373.298 1131.27,-377.211"/>
</g>
<!-- Node12 -->
<g id="node12" class="node"><title>Node12</title>
<polygon fill="white" stroke="#bfbfbf" points="580.953,-347.5 580.953,-366.5 621.953,-366.5 621.953,-347.5 580.953,-347.5"/>
<text text-anchor="middle" x="601.453" y="-354.5" font-family="Helvetica,sans-Serif" font-size="10.00">array</text>
</g>
<!-- Node10&#45;&gt;Node12 -->
<g id="edge12" class="edge"><title>Node10&#45;&gt;Node12</title>
<path fill="none" stroke="midnightblue" d="M684.241,-470.471C699.779,-463.316 719.16,-451.435 728.453,-434 734.933,-421.841 736.404,-414.252 728.453,-403 722.663,-394.806 667.594,-377.384 631.897,-366.783"/>
<polygon fill="midnightblue" stroke="midnightblue" points="632.54,-363.323 621.958,-363.858 630.564,-370.039 632.54,-363.323"/>
</g>
<!-- Node13 -->
<g id="node13" class="node"><title>Node13</title>
<polygon fill="white" stroke="#bfbfbf" points="428.453,-347.5 428.453,-366.5 478.453,-366.5 478.453,-347.5 428.453,-347.5"/>
<text text-anchor="middle" x="453.453" y="-354.5" font-family="Helvetica,sans-Serif" font-size="10.00">chrono</text>
</g>
<!-- Node10&#45;&gt;Node13 -->
<g id="edge13" class="edge"><title>Node10&#45;&gt;Node13</title>
<path fill="none" stroke="midnightblue" d="M580.879,-471.19C531.021,-464.549 473.547,-452.986 457.453,-434 444.137,-418.291 445.553,-393.539 448.698,-376.579"/>
<polygon fill="midnightblue" stroke="midnightblue" points="452.133,-377.251 450.877,-366.731 445.299,-375.739 452.133,-377.251"/>
</g>
<!-- Node14 -->
<g id="node14" class="node"><title>Node14</title>
<polygon fill="white" stroke="#bfbfbf" points="597.953,-409 597.953,-428 654.953,-428 654.953,-409 597.953,-409"/>
<text text-anchor="middle" x="626.453" y="-416" font-family="Helvetica,sans-Serif" font-size="10.00">memory</text>
</g>
<!-- Node10&#45;&gt;Node14 -->
<g id="edge14" class="edge"><title>Node10&#45;&gt;Node14</title>
<path fill="none" stroke="midnightblue" d="M656.438,-470.475C651.292,-461.727 643.141,-447.869 636.635,-436.809"/>
<polygon fill="midnightblue" stroke="midnightblue" points="639.545,-434.854 631.458,-428.009 633.512,-438.403 639.545,-434.854"/>
</g>
<!-- Node15 -->
<g id="node15" class="node"><title>Node15</title>
<polygon fill="white" stroke="#bfbfbf" points="672.953,-409 672.953,-428 719.953,-428 719.953,-409 672.953,-409"/>
<text text-anchor="middle" x="696.453" y="-416" font-family="Helvetica,sans-Serif" font-size="10.00">mutex</text>
</g>
<!-- Node10&#45;&gt;Node15 -->
<g id="edge15" class="edge"><title>Node10&#45;&gt;Node15</title>
<path fill="none" stroke="midnightblue" d="M666.468,-470.475C671.614,-461.727 679.765,-447.869 686.271,-436.809"/>
<polygon fill="midnightblue" stroke="midnightblue" points="689.394,-438.403 691.448,-428.009 683.361,-434.854 689.394,-438.403"/>
</g>
<!-- Node16 -->
<g id="node16" class="node"><title>Node16</title>
<polygon fill="white" stroke="#bfbfbf" points="971.953,-112.5 971.953,-131.5 1018.95,-131.5 1018.95,-112.5 971.953,-112.5"/>
<text text-anchor="middle" x="995.453" y="-119.5" font-family="Helvetica,sans-Serif" font-size="10.00">vector</text>
</g>
<!-- Node10&#45;&gt;Node16 -->
<g id="edge16" class="edge"><title>Node10&#45;&gt;Node16</title>
<path fill="none" stroke="midnightblue" d="M742.161,-477.793C803.259,-474.289 888.048,-463.772 956.453,-434 1006.35,-412.283 1052.45,-412.419 1052.45,-358 1052.45,-358 1052.45,-358 1052.45,-244 1052.45,-203.59 1026.11,-162.206 1009.24,-139.845"/>
<polygon fill="midnightblue" stroke="midnightblue" points="1011.82,-137.46 1002.9,-131.738 1006.31,-141.772 1011.82,-137.46"/>
</g>
<!-- Node17 -->
<g id="node17" class="node"><title>Node17</title>
<g id="a_node17"><a xlink:href="Types_8hpp.html" target="_top" xlink:title="Core/Types.hpp">
<polygon fill="white" stroke="black" points="393.953,-174 393.953,-193 482.953,-193 482.953,-174 393.953,-174"/>
<text text-anchor="middle" x="438.453" y="-181" font-family="Helvetica,sans-Serif" font-size="10.00">Core/Types.hpp</text>
</a>
</g>
</g>
<!-- Node10&#45;&gt;Node17 -->
<g id="edge17" class="edge"><title>Node10&#45;&gt;Node17</title>
<path fill="none" stroke="midnightblue" d="M588.476,-470.494C534.417,-462.999 466.331,-450.671 443.453,-434 412.088,-411.144 400.453,-396.809 400.453,-358 400.453,-358 400.453,-358 400.453,-300 400.453,-263.754 417.548,-224.171 428.806,-202.033"/>
<polygon fill="midnightblue" stroke="midnightblue" points="431.914,-203.641 433.485,-193.163 425.723,-200.375 431.914,-203.641"/>
</g>
<!-- Node22 -->
<g id="node22" class="node"><title>Node22</title>
<g id="a_node22"><a xlink:href="Color_8hpp.html" target="_top" xlink:title="Core/Utils/Color.hpp">
<polygon fill="white" stroke="black" points="222.953,-291.5 222.953,-310.5 333.953,-310.5 333.953,-291.5 222.953,-291.5"/>
<text text-anchor="middle" x="278.453" y="-298.5" font-family="Helvetica,sans-Serif" font-size="10.00">Core/Utils/Color.hpp</text>
</a>
</g>
</g>
<!-- Node10&#45;&gt;Node22 -->
<g id="edge23" class="edge"><title>Node10&#45;&gt;Node22</title>
<path fill="none" stroke="midnightblue" d="M580.635,-472.132C511.676,-465.128 418.713,-452.627 386.453,-434 338.513,-406.32 302.994,-348.668 287.322,-319.585"/>
<polygon fill="midnightblue" stroke="midnightblue" points="290.352,-317.827 282.618,-310.585 284.148,-321.069 290.352,-317.827"/>
</g>
<!-- Node24 -->
<g id="node24" class="node"><title>Node24</title>
<g id="a_node24"><a xlink:href="Timer_8hpp.html" target="_top" xlink:title="Core/Utils/Timer.hpp">
<polygon fill="white" stroke="black" points="466.953,-409 466.953,-428 579.953,-428 579.953,-409 466.953,-409"/>
<text text-anchor="middle" x="523.453" y="-416" font-family="Helvetica,sans-Serif" font-size="10.00">Core/Utils/Timer.hpp</text>
</a>
</g>
</g>
<!-- Node10&#45;&gt;Node24 -->
<g id="edge28" class="edge"><title>Node10&#45;&gt;Node24</title>
<path fill="none" stroke="midnightblue" d="M641.681,-470.475C618.317,-460.401 579.239,-443.553 552.45,-432.002"/>
<polygon fill="midnightblue" stroke="midnightblue" points="553.757,-428.754 543.188,-428.009 550.985,-435.182 553.757,-428.754"/>
</g>
<!-- Node25 -->
<g id="node25" class="node"><title>Node25</title>
<g id="a_node25"><a xlink:href="DisplayableObject_8hpp.html" target="_top" xlink:title="Engine/Renderer/Displayable\l/DisplayableObject.hpp">
<polygon fill="white" stroke="black" points="795.453,-403.5 795.453,-433.5 947.453,-433.5 947.453,-403.5 795.453,-403.5"/>
<text text-anchor="start" x="803.453" y="-421.5" font-family="Helvetica,sans-Serif" font-size="10.00">Engine/Renderer/Displayable</text>
<text text-anchor="middle" x="871.453" y="-410.5" font-family="Helvetica,sans-Serif" font-size="10.00">/DisplayableObject.hpp</text>
</a>
</g>
</g>
<!-- Node10&#45;&gt;Node25 -->
<g id="edge31" class="edge"><title>Node10&#45;&gt;Node25</title>
<path fill="none" stroke="midnightblue" d="M691.541,-470.475C722.906,-461.588 772.881,-447.429 812.209,-436.286"/>
<polygon fill="midnightblue" stroke="midnightblue" points="813.293,-439.617 821.96,-433.523 811.385,-432.882 813.293,-439.617"/>
</g>
<!-- Node11&#45;&gt;Node4 -->
<g id="edge11" class="edge"><title>Node11&#45;&gt;Node4</title>
<path fill="none" stroke="midnightblue" d="M1136.08,-347.313C1129.26,-328.923 1114.45,-284.581 1114.45,-246 1114.45,-246 1114.45,-246 1114.45,-182.5 1114.45,-117.605 1036.31,-88.888 975.587,-76.3692"/>
<polygon fill="midnightblue" stroke="midnightblue" points="976.109,-72.9052 965.624,-74.4255 974.769,-79.7756 976.109,-72.9052"/>
</g>
<!-- Node18 -->
<g id="node18" class="node"><title>Node18</title>
<g id="a_node18"><a xlink:href="RaCore_8hpp.html" target="_top" xlink:title="Core/RaCore.hpp">
<polygon fill="white" stroke="black" points="647.453,-112.5 647.453,-131.5 745.453,-131.5 745.453,-112.5 647.453,-112.5"/>
<text text-anchor="middle" x="696.453" y="-119.5" font-family="Helvetica,sans-Serif" font-size="10.00">Core/RaCore.hpp</text>
</a>
</g>
</g>
<!-- Node17&#45;&gt;Node18 -->
<g id="edge18" class="edge"><title>Node17&#45;&gt;Node18</title>
<path fill="none" stroke="midnightblue" d="M475.418,-173.975C521.303,-163.393 599.603,-145.336 649.638,-133.797"/>
<polygon fill="midnightblue" stroke="midnightblue" points="650.599,-137.167 659.556,-131.509 649.026,-130.346 650.599,-137.167"/>
</g>
<!-- Node19 -->
<g id="node19" class="node"><title>Node19</title>
<polygon fill="white" stroke="#bfbfbf" points="185.453,-112.5 185.453,-131.5 253.453,-131.5 253.453,-112.5 185.453,-112.5"/>
<text text-anchor="middle" x="219.453" y="-119.5" font-family="Helvetica,sans-Serif" font-size="10.00">Eigen/Core</text>
</g>
<!-- Node17&#45;&gt;Node19 -->
<g id="edge20" class="edge"><title>Node17&#45;&gt;Node19</title>
<path fill="none" stroke="midnightblue" d="M407.076,-173.975C368.534,-163.504 303.048,-145.712 260.53,-134.16"/>
<polygon fill="midnightblue" stroke="midnightblue" points="261.34,-130.753 250.772,-131.509 259.505,-137.509 261.34,-130.753"/>
</g>
<!-- Node20 -->
<g id="node20" class="node"><title>Node20</title>
<polygon fill="white" stroke="#bfbfbf" points="276.453,-112.5 276.453,-131.5 370.453,-131.5 370.453,-112.5 276.453,-112.5"/>
<text text-anchor="middle" x="323.453" y="-119.5" font-family="Helvetica,sans-Serif" font-size="10.00">Eigen/Geometry</text>
</g>
<!-- Node17&#45;&gt;Node20 -->
<g id="edge21" class="edge"><title>Node17&#45;&gt;Node20</title>
<path fill="none" stroke="midnightblue" d="M421.976,-173.975C402.848,-164.078 371.08,-147.642 348.801,-136.115"/>
<polygon fill="midnightblue" stroke="midnightblue" points="350.389,-132.996 339.899,-131.509 347.172,-139.213 350.389,-132.996"/>
</g>
<!-- Node21 -->
<g id="node21" class="node"><title>Node21</title>
<polygon fill="white" stroke="#bfbfbf" points="398.453,-112.5 398.453,-131.5 478.453,-131.5 478.453,-112.5 398.453,-112.5"/>
<text text-anchor="middle" x="438.453" y="-119.5" font-family="Helvetica,sans-Serif" font-size="10.00">Eigen/Sparse</text>
</g>
<!-- Node17&#45;&gt;Node21 -->
<g id="edge22" class="edge"><title>Node17&#45;&gt;Node21</title>
<path fill="none" stroke="midnightblue" d="M438.453,-173.975C438.453,-165.58 438.453,-152.481 438.453,-141.663"/>
<polygon fill="midnightblue" stroke="midnightblue" points="441.953,-141.509 438.453,-131.509 434.953,-141.509 441.953,-141.509"/>
</g>
<!-- Node18&#45;&gt;Node4 -->
<g id="edge19" class="edge"><title>Node18&#45;&gt;Node4</title>
<path fill="none" stroke="midnightblue" d="M729.57,-112.444C765.571,-103.142 823.223,-88.246 862.639,-78.062"/>
<polygon fill="midnightblue" stroke="midnightblue" points="863.685,-81.4068 872.491,-75.5164 861.934,-74.6294 863.685,-81.4068"/>
</g>
<!-- Node22&#45;&gt;Node4 -->
<g id="edge24" class="edge"><title>Node22&#45;&gt;Node4</title>
<path fill="none" stroke="midnightblue" d="M222.952,-294.127C129.019,-281.889 -45.7765,-247.859 11.453,-168 56.5629,-105.053 100.47,-126.962 176.453,-112 301.238,-87.4286 678.066,-73.7347 835.33,-68.9582"/>
<polygon fill="midnightblue" stroke="midnightblue" points="835.476,-72.4555 845.367,-68.6565 835.266,-65.4587 835.476,-72.4555"/>
</g>
<!-- Node22&#45;&gt;Node19 -->
<g id="edge25" class="edge"><title>Node22&#45;&gt;Node19</title>
<path fill="none" stroke="midnightblue" d="M275.607,-291.463C266.557,-264.311 238.291,-179.512 225.659,-141.618"/>
<polygon fill="midnightblue" stroke="midnightblue" points="228.892,-140.248 222.409,-131.868 222.251,-142.462 228.892,-140.248"/>
</g>
<!-- Node22&#45;&gt;Node20 -->
<g id="edge26" class="edge"><title>Node22&#45;&gt;Node20</title>
<path fill="none" stroke="midnightblue" d="M275.804,-291.49C272.298,-278.98 267.048,-254.949 271.453,-235 279.35,-199.238 299.864,-161.329 312.639,-140.065"/>
<polygon fill="midnightblue" stroke="midnightblue" points="315.629,-141.884 317.891,-131.533 309.668,-138.214 315.629,-141.884"/>
</g>
<!-- Node23 -->
<g id="node23" class="node"><title>Node23</title>
<polygon fill="white" stroke="#bfbfbf" points="280.453,-235.5 280.453,-254.5 334.453,-254.5 334.453,-235.5 280.453,-235.5"/>
<text text-anchor="middle" x="307.453" y="-242.5" font-family="Helvetica,sans-Serif" font-size="10.00">random</text>
</g>
<!-- Node22&#45;&gt;Node23 -->
<g id="edge27" class="edge"><title>Node22&#45;&gt;Node23</title>
<path fill="none" stroke="midnightblue" d="M283.242,-291.083C287.211,-283.691 292.978,-272.953 297.888,-263.811"/>
<polygon fill="midnightblue" stroke="midnightblue" points="301.106,-265.217 302.753,-254.751 294.939,-261.905 301.106,-265.217"/>
</g>
<!-- Node24&#45;&gt;Node13 -->
<g id="edge30" class="edge"><title>Node24&#45;&gt;Node13</title>
<path fill="none" stroke="midnightblue" d="M513.424,-408.975C502.404,-399.608 484.493,-384.384 471.11,-373.008"/>
<polygon fill="midnightblue" stroke="midnightblue" points="473.35,-370.319 463.464,-366.509 468.816,-375.652 473.35,-370.319"/>
</g>
<!-- Node24&#45;&gt;Node18 -->
<g id="edge29" class="edge"><title>Node24&#45;&gt;Node18</title>
<path fill="none" stroke="midnightblue" d="M519.392,-408.611C513.084,-395.035 500.314,-368.452 487.453,-347 440.258,-268.277 324.361,-237.381 384.453,-168 416.494,-131.007 556.049,-123.739 637.254,-122.718"/>
<polygon fill="midnightblue" stroke="midnightblue" points="637.374,-126.217 647.34,-122.62 637.306,-119.218 637.374,-126.217"/>
</g>
<!-- Node25&#45;&gt;Node11 -->
<g id="edge32" class="edge"><title>Node25&#45;&gt;Node11</title>
<path fill="none" stroke="midnightblue" d="M934.626,-403.475C982.578,-392.829 1047.51,-378.413 1091.31,-368.689"/>
<polygon fill="midnightblue" stroke="midnightblue" points="1092.13,-372.091 1101.14,-366.506 1090.62,-365.257 1092.13,-372.091"/>
</g>
<!-- Node25&#45;&gt;Node12 -->
<g id="edge33" class="edge"><title>Node25&#45;&gt;Node12</title>
<path fill="none" stroke="midnightblue" d="M802.652,-403.472C755.717,-393.716 692.197,-380.151 636.453,-367 635.003,-366.658 633.52,-366.302 632.024,-365.937"/>
<polygon fill="midnightblue" stroke="midnightblue" points="632.698,-362.498 622.147,-363.467 631,-369.289 632.698,-362.498"/>
</g>
<!-- Node25&#45;&gt;Node16 -->
<g id="edge35" class="edge"><title>Node25&#45;&gt;Node16</title>
<path fill="none" stroke="midnightblue" d="M914.358,-403.441C956.479,-386.619 1014.45,-354.018 1014.45,-302 1014.45,-302 1014.45,-302 1014.45,-244 1014.45,-207.286 1005.81,-165.056 1000.18,-141.45"/>
<polygon fill="midnightblue" stroke="midnightblue" points="1003.58,-140.601 997.783,-131.732 996.783,-142.279 1003.58,-140.601"/>
</g>
<!-- Node25&#45;&gt;Node22 -->
<g id="edge61" class="edge"><title>Node25&#45;&gt;Node22</title>
<path fill="none" stroke="midnightblue" d="M798.241,-403.435C759.333,-394.908 711.075,-382.639 669.453,-367 651.218,-360.148 649.06,-352.766 630.453,-347 578.517,-330.906 430.857,-315.612 344.167,-307.666"/>
<polygon fill="midnightblue" stroke="midnightblue" points="344.442,-304.177 334.166,-306.757 343.809,-311.148 344.442,-304.177"/>
</g>
<!-- Node26 -->
<g id="node26" class="node"><title>Node26</title>
<polygon fill="white" stroke="#bfbfbf" points="872.453,-347.5 872.453,-366.5 910.453,-366.5 910.453,-347.5 872.453,-347.5"/>
<text text-anchor="middle" x="891.453" y="-354.5" font-family="Helvetica,sans-Serif" font-size="10.00">map</text>
</g>
<!-- Node25&#45;&gt;Node26 -->
<g id="edge34" class="edge"><title>Node25&#45;&gt;Node26</title>
<path fill="none" stroke="midnightblue" d="M876.193,-403.399C878.919,-395.288 882.375,-385.007 885.308,-376.281"/>
<polygon fill="midnightblue" stroke="midnightblue" points="888.674,-377.252 888.543,-366.658 882.039,-375.021 888.674,-377.252"/>
</g>
<!-- Node27 -->
<g id="node27" class="node"><title>Node27</title>
<g id="a_node27"><a xlink:href="VectorArray_8hpp.html" target="_top" xlink:title="Core/Containers/VectorArray.hpp">
<polygon fill="white" stroke="black" points="787.953,-235.5 787.953,-254.5 960.953,-254.5 960.953,-235.5 787.953,-235.5"/>
<text text-anchor="middle" x="874.453" y="-242.5" font-family="Helvetica,sans-Serif" font-size="10.00">Core/Containers/VectorArray.hpp</text>
</a>
</g>
</g>
<!-- Node25&#45;&gt;Node27 -->
<g id="edge36" class="edge"><title>Node25&#45;&gt;Node27</title>
<path fill="none" stroke="midnightblue" d="M888.673,-403.144C898.907,-393.792 911.418,-380.797 919.453,-367 932.543,-344.524 932.634,-336.729 936.453,-311 937.758,-302.207 940.49,-298.919 936.453,-291 929.453,-277.27 916.087,-266.75 903.553,-259.346"/>
<polygon fill="midnightblue" stroke="midnightblue" points="905.131,-256.22 894.676,-254.505 901.779,-262.366 905.131,-256.22"/>
</g>
<!-- Node30 -->
<g id="node30" class="node"><title>Node30</title>
<g id="a_node30"><a xlink:href="TriangleMesh_8hpp.html" target="_top" xlink:title="Core/Geometry/TriangleMesh.hpp">
<polygon fill="white" stroke="black" points="678.453,-347.5 678.453,-366.5 854.453,-366.5 854.453,-347.5 678.453,-347.5"/>
<text text-anchor="middle" x="766.453" y="-354.5" font-family="Helvetica,sans-Serif" font-size="10.00">Core/Geometry/TriangleMesh.hpp</text>
</a>
</g>
</g>
<!-- Node25&#45;&gt;Node30 -->
<g id="edge44" class="edge"><title>Node25&#45;&gt;Node30</title>
<path fill="none" stroke="midnightblue" d="M846.569,-403.399C829.739,-393.862 807.614,-381.325 790.88,-371.842"/>
<polygon fill="midnightblue" stroke="midnightblue" points="792.157,-368.543 781.731,-366.658 788.706,-374.633 792.157,-368.543"/>
</g>
<!-- Node27&#45;&gt;Node16 -->
<g id="edge43" class="edge"><title>Node27&#45;&gt;Node16</title>
<path fill="none" stroke="midnightblue" d="M898.789,-235.438C916.832,-228.082 941.042,-215.965 957.453,-199 973.439,-182.475 984.045,-157.901 989.897,-141.204"/>
<polygon fill="midnightblue" stroke="midnightblue" points="993.278,-142.126 993.064,-131.533 986.625,-139.947 993.278,-142.126"/>
</g>
<!-- Node27&#45;&gt;Node17 -->
<g id="edge42" class="edge"><title>Node27&#45;&gt;Node17</title>
<path fill="none" stroke="midnightblue" d="M811.985,-235.475C726.517,-223.811 574.498,-203.066 493.244,-191.977"/>
<polygon fill="midnightblue" stroke="midnightblue" points="493.599,-188.493 483.218,-190.609 492.653,-195.429 493.599,-188.493"/>
</g>
<!-- Node27&#45;&gt;Node18 -->
<g id="edge41" class="edge"><title>Node27&#45;&gt;Node18</title>
<path fill="none" stroke="midnightblue" d="M856.192,-235.459C838.786,-227.033 812.096,-213.362 790.453,-199 761.945,-180.083 731.624,-154.437 713.361,-138.305"/>
<polygon fill="midnightblue" stroke="midnightblue" points="715.66,-135.666 705.868,-131.621 711,-140.889 715.66,-135.666"/>
</g>
<!-- Node28 -->
<g id="node28" class="node"><title>Node28</title>
<g id="a_node28"><a xlink:href="AlignedStdVector_8hpp.html" target="_top" xlink:title="Core/Containers/AlignedStd\lVector.hpp">
<polygon fill="white" stroke="black" points="799.953,-168.5 799.953,-198.5 948.953,-198.5 948.953,-168.5 799.953,-168.5"/>
<text text-anchor="start" x="807.953" y="-186.5" font-family="Helvetica,sans-Serif" font-size="10.00">Core/Containers/AlignedStd</text>
<text text-anchor="middle" x="874.453" y="-175.5" font-family="Helvetica,sans-Serif" font-size="10.00">Vector.hpp</text>
</a>
</g>
</g>
<!-- Node27&#45;&gt;Node28 -->
<g id="edge37" class="edge"><title>Node27&#45;&gt;Node28</title>
<path fill="none" stroke="midnightblue" d="M874.453,-235.475C874.453,-228.471 874.453,-218.192 874.453,-208.696"/>
<polygon fill="midnightblue" stroke="midnightblue" points="877.953,-208.523 874.453,-198.523 870.953,-208.523 877.953,-208.523"/>
</g>
<!-- Node28&#45;&gt;Node16 -->
<g id="edge40" class="edge"><title>Node28&#45;&gt;Node16</title>
<path fill="none" stroke="midnightblue" d="M903.128,-168.399C922.977,-158.639 949.214,-145.737 968.645,-136.183"/>
<polygon fill="midnightblue" stroke="midnightblue" points="970.417,-139.211 977.846,-131.658 967.328,-132.93 970.417,-139.211"/>
</g>
<!-- Node28&#45;&gt;Node18 -->
<g id="edge38" class="edge"><title>Node28&#45;&gt;Node18</title>
<path fill="none" stroke="midnightblue" d="M832.27,-168.399C801.646,-158.163 760.683,-144.47 731.778,-134.808"/>
<polygon fill="midnightblue" stroke="midnightblue" points="732.688,-131.422 722.094,-131.571 730.468,-138.061 732.688,-131.422"/>
</g>
<!-- Node29 -->
<g id="node29" class="node"><title>Node29</title>
<polygon fill="white" stroke="#bfbfbf" points="827.953,-112.5 827.953,-131.5 920.953,-131.5 920.953,-112.5 827.953,-112.5"/>
<text text-anchor="middle" x="874.453" y="-119.5" font-family="Helvetica,sans-Serif" font-size="10.00">Eigen/StdVector</text>
</g>
<!-- Node28&#45;&gt;Node29 -->
<g id="edge39" class="edge"><title>Node28&#45;&gt;Node29</title>
<path fill="none" stroke="midnightblue" d="M874.453,-168.399C874.453,-160.466 874.453,-150.458 874.453,-141.858"/>
<polygon fill="midnightblue" stroke="midnightblue" points="877.953,-141.658 874.453,-131.658 870.953,-141.658 877.953,-141.658"/>
</g>
<!-- Node30&#45;&gt;Node17 -->
<g id="edge50" class="edge"><title>Node30&#45;&gt;Node17</title>
<path fill="none" stroke="midnightblue" d="M692.573,-347.464C649.205,-340.837 593.96,-329.555 547.453,-311 503.696,-293.542 485.539,-292.824 457.453,-255 446.252,-239.915 441.652,-218.665 439.764,-203.446"/>
<polygon fill="midnightblue" stroke="midnightblue" points="443.219,-202.807 438.785,-193.185 436.251,-203.472 443.219,-202.807"/>
</g>
<!-- Node30&#45;&gt;Node18 -->
<g id="edge49" class="edge"><title>Node30&#45;&gt;Node18</title>
<path fill="none" stroke="midnightblue" d="M758.244,-347.474C750.545,-338.953 739.359,-325.122 733.453,-311 708.616,-251.612 725.163,-230.669 710.453,-168 708.347,-159.028 705.384,-149.239 702.726,-141.089"/>
<polygon fill="midnightblue" stroke="midnightblue" points="706.014,-139.886 699.504,-131.527 699.38,-142.121 706.014,-139.886"/>
</g>
<!-- Node30&#45;&gt;Node22 -->
<g id="edge58" class="edge"><title>Node30&#45;&gt;Node22</title>
<path fill="none" stroke="midnightblue" d="M689.397,-347.473C594.226,-336.942 433.956,-319.207 344.278,-309.284"/>
<polygon fill="midnightblue" stroke="midnightblue" points="344.557,-305.793 334.232,-308.172 343.787,-312.751 344.557,-305.793"/>
</g>
<!-- Node30&#45;&gt;Node27 -->
<g id="edge45" class="edge"><title>Node30&#45;&gt;Node27</title>
<path fill="none" stroke="midnightblue" d="M818.615,-347.49C857.959,-339.882 907.178,-327.405 919.453,-311 932.173,-294.001 913.09,-273.813 895.995,-260.496"/>
<polygon fill="midnightblue" stroke="midnightblue" points="898.041,-257.656 887.91,-254.555 893.895,-263.297 898.041,-257.656"/>
</g>
<!-- Node31 -->
<g id="node31" class="node"><title>Node31</title>
<g id="a_node31"><a xlink:href="AbstractGeometry_8hpp.html" target="_top" xlink:title="Core/Geometry/AbstractGeometry.hpp">
<polygon fill="white" stroke="black" points="466.953,-235.5 466.953,-254.5 667.953,-254.5 667.953,-235.5 466.953,-235.5"/>
<text text-anchor="middle" x="567.453" y="-242.5" font-family="Helvetica,sans-Serif" font-size="10.00">Core/Geometry/AbstractGeometry.hpp</text>
</a>
</g>
</g>
<!-- Node30&#45;&gt;Node31 -->
<g id="edge46" class="edge"><title>Node30&#45;&gt;Node31</title>
<path fill="none" stroke="midnightblue" d="M678.248,-348.042C628.348,-341.512 572.903,-330.13 557.453,-311 546.832,-297.848 551.842,-278.166 557.954,-263.908"/>
<polygon fill="midnightblue" stroke="midnightblue" points="561.224,-265.184 562.393,-254.654 554.912,-262.157 561.224,-265.184"/>
</g>
<!-- Node32 -->
<g id="node32" class="node"><title>Node32</title>
<g id="a_node32"><a xlink:href="Attribs_8hpp.html" target="_top" xlink:title="Core/Utils/Attribs.hpp">
<polygon fill="white" stroke="black" points="566.953,-291.5 566.953,-310.5 685.953,-310.5 685.953,-291.5 566.953,-291.5"/>
<text text-anchor="middle" x="626.453" y="-298.5" font-family="Helvetica,sans-Serif" font-size="10.00">Core/Utils/Attribs.hpp</text>
</a>
</g>
</g>
<!-- Node30&#45;&gt;Node32 -->
<g id="edge51" class="edge"><title>Node30&#45;&gt;Node32</title>
<path fill="none" stroke="midnightblue" d="M744.27,-347.444C721.025,-338.478 684.304,-324.314 658.038,-314.183"/>
<polygon fill="midnightblue" stroke="midnightblue" points="659.122,-310.85 648.533,-310.516 656.603,-317.381 659.122,-310.85"/>
</g>
<!-- Node36 -->
<g id="node36" class="node"><title>Node36</title>
<g id="a_node36"><a xlink:href="TriangleMesh_8inl.html" target="_top" xlink:title="Core/Geometry/TriangleMesh.inl">
<polygon fill="white" stroke="black" points="742.453,-291.5 742.453,-310.5 910.453,-310.5 910.453,-291.5 742.453,-291.5"/>
<text text-anchor="middle" x="826.453" y="-298.5" font-family="Helvetica,sans-Serif" font-size="10.00">Core/Geometry/TriangleMesh.inl</text>
</a>
</g>
</g>
<!-- Node30&#45;&gt;Node36 -->
<g id="edge59" class="edge"><title>Node30&#45;&gt;Node36</title>
<path fill="none" stroke="midnightblue" d="M771.194,-347.083C778.556,-338.905 791.878,-326.631 803.725,-316.954"/>
<polygon fill="midnightblue" stroke="midnightblue" points="805.909,-319.688 811.599,-310.751 801.577,-314.19 805.909,-319.688"/>
</g>
<!-- Node31&#45;&gt;Node17 -->
<g id="edge48" class="edge"><title>Node31&#45;&gt;Node17</title>
<path fill="none" stroke="midnightblue" d="M548.97,-235.475C527.321,-225.49 491.24,-208.848 466.221,-197.307"/>
<polygon fill="midnightblue" stroke="midnightblue" points="467.448,-194.019 456.901,-193.009 464.516,-200.376 467.448,-194.019"/>
</g>
<!-- Node31&#45;&gt;Node18 -->
<g id="edge47" class="edge"><title>Node31&#45;&gt;Node18</title>
<path fill="none" stroke="midnightblue" d="M576.73,-235.298C598.3,-215.066 652.08,-164.622 679.62,-138.789"/>
<polygon fill="midnightblue" stroke="midnightblue" points="682.361,-141.017 687.26,-131.623 677.572,-135.912 682.361,-141.017"/>
</g>
<!-- Node32&#45;&gt;Node18 -->
<g id="edge53" class="edge"><title>Node32&#45;&gt;Node18</title>
<path fill="none" stroke="midnightblue" d="M640.336,-291.491C651.985,-283.562 668.033,-270.628 676.453,-255 696.085,-218.562 698.06,-168.73 697.459,-141.92"/>
<polygon fill="midnightblue" stroke="midnightblue" points="700.946,-141.51 697.071,-131.649 693.951,-141.773 700.946,-141.51"/>
</g>
<!-- Node32&#45;&gt;Node27 -->
<g id="edge52" class="edge"><title>Node32&#45;&gt;Node27</title>
<path fill="none" stroke="midnightblue" d="M665.749,-291.444C709.012,-282.023 778.626,-266.866 825.426,-256.675"/>
<polygon fill="midnightblue" stroke="midnightblue" points="826.314,-260.064 835.341,-254.516 824.825,-253.224 826.314,-260.064"/>
</g>
<!-- Node32&#45;&gt;Node33 -->
<g id="edge54" class="edge"><title>Node32&#45;&gt;Node33</title>
<path fill="none" stroke="midnightblue" d="M566.503,-293.486C473.121,-283.34 293.561,-263.831 196.187,-253.251"/>
<polygon fill="midnightblue" stroke="midnightblue" points="196.485,-249.763 186.165,-252.162 195.729,-256.722 196.485,-249.763"/>
</g>
<!-- Node33&#45;&gt;Node18 -->
<g id="edge55" class="edge"><title>Node33&#45;&gt;Node18</title>
<path fill="none" stroke="midnightblue" d="M149.569,-235.447C187.659,-219.607 273.24,-185.715 348.453,-168 448.143,-144.52 566.981,-132.472 636.824,-126.967"/>
<polygon fill="midnightblue" stroke="midnightblue" points="637.481,-130.427 647.183,-126.17 636.944,-123.448 637.481,-130.427"/>
</g>
<!-- Node34 -->
<g id="node34" class="node"><title>Node34</title>
<polygon fill="white" stroke="#bfbfbf" points="20.453,-174 20.453,-193 62.453,-193 62.453,-174 20.453,-174"/>
<text text-anchor="middle" x="41.453" y="-181" font-family="Helvetica,sans-Serif" font-size="10.00">limits</text>
</g>
<!-- Node33&#45;&gt;Node34 -->
<g id="edge56" class="edge"><title>Node33&#45;&gt;Node34</title>
<path fill="none" stroke="midnightblue" d="M116.845,-235.475C102.73,-225.931 79.6218,-210.307 62.7037,-198.868"/>
<polygon fill="midnightblue" stroke="midnightblue" points="64.2825,-195.711 54.0379,-193.009 60.3616,-201.51 64.2825,-195.711"/>
</g>
<!-- Node35 -->
<g id="node35" class="node"><title>Node35</title>
<g id="a_node35"><a xlink:href="Index_8inl.html" target="_top" xlink:title="Core/Utils/Index.inl">
<polygon fill="white" stroke="black" points="80.953,-174 80.953,-193 185.953,-193 185.953,-174 80.953,-174"/>
<text text-anchor="middle" x="133.453" y="-181" font-family="Helvetica,sans-Serif" font-size="10.00">Core/Utils/Index.inl</text>
</a>
</g>
</g>
<!-- Node33&#45;&gt;Node35 -->
<g id="edge57" class="edge"><title>Node33&#45;&gt;Node35</title>
<path fill="none" stroke="midnightblue" d="M130.026,-235.475C130.59,-227.08 131.471,-213.981 132.198,-203.163"/>
<polygon fill="midnightblue" stroke="midnightblue" points="135.702,-203.221 132.881,-193.009 128.718,-202.752 135.702,-203.221"/>
</g>
<!-- Node36&#45;&gt;Node30 -->
<g id="edge60" class="edge"><title>Node36&#45;&gt;Node30</title>
<path fill="none" stroke="midnightblue" d="M821.786,-310.834C814.427,-319.027 801.018,-331.382 789.115,-341.101"/>
<polygon fill="midnightblue" stroke="midnightblue" points="786.901,-338.389 781.208,-347.324 791.231,-343.89 786.901,-338.389"/>
</g>
</g>
</svg>
