<?xml version="1.0" encoding="UTF-8" standalone="no"?>
<!DOCTYPE svg PUBLIC "-//W3C//DTD SVG 1.1//EN"
 "http://www.w3.org/Graphics/SVG/1.1/DTD/svg11.dtd">
<!-- Generated by graphviz version 2.38.0 (20140413.2041)
 -->
<!-- Title: /home/travis/build/STORM&#45;IRIT/Radium&#45;Engine/src/Engine/Renderer/Light/PointLight.hpp Pages: 1 -->
<svg width="867pt" height="419pt"
 viewBox="0.00 0.00 866.50 419.00" xmlns="http://www.w3.org/2000/svg" xmlns:xlink="http://www.w3.org/1999/xlink">
<g id="graph0" class="graph" transform="scale(1 1) rotate(0) translate(4 415)">
<title>/home/travis/build/STORM&#45;IRIT/Radium&#45;Engine/src/Engine/Renderer/Light/PointLight.hpp</title>
<polygon fill="white" stroke="none" points="-4,4 -4,-415 862.5,-415 862.5,4 -4,4"/>
<!-- Node1 -->
<g id="node1" class="node"><title>Node1</title>
<polygon fill="#bfbfbf" stroke="black" points="635,-358.5 635,-410.5 783,-410.5 783,-358.5 635,-358.5"/>
<text text-anchor="start" x="643" y="-398.5" font-family="Helvetica,sans-Serif" font-size="10.00">/home/travis/build</text>
<text text-anchor="start" x="643" y="-387.5" font-family="Helvetica,sans-Serif" font-size="10.00">/STORM&#45;IRIT/Radium&#45;Engine</text>
<text text-anchor="start" x="643" y="-376.5" font-family="Helvetica,sans-Serif" font-size="10.00">/src/Engine/Renderer/Light</text>
<text text-anchor="middle" x="709" y="-365.5" font-family="Helvetica,sans-Serif" font-size="10.00">/PointLight.hpp</text>
</g>
<!-- Node2 -->
<g id="node2" class="node"><title>Node2</title>
<g id="a_node2"><a xlink:href="RaEngine_8hpp.html" target="_top" xlink:title="Engine/RaEngine.hpp">
<polygon fill="white" stroke="black" points="712.5,-168.5 712.5,-187.5 829.5,-187.5 829.5,-168.5 712.5,-168.5"/>
<text text-anchor="middle" x="771" y="-175.5" font-family="Helvetica,sans-Serif" font-size="10.00">Engine/RaEngine.hpp</text>
</a>
</g>
</g>
<!-- Node1&#45;&gt;Node2 -->
<g id="edge1" class="edge"><title>Node1&#45;&gt;Node2</title>
<path fill="none" stroke="midnightblue" d="M713.452,-358.124C716.987,-339.396 722.421,-313.384 729,-291 738.964,-257.098 754.238,-218.783 763.36,-196.899"/>
<polygon fill="midnightblue" stroke="midnightblue" points="766.635,-198.141 767.295,-187.567 760.185,-195.422 766.635,-198.141"/>
</g>
<!-- Node9 -->
<g id="node9" class="node"><title>Node9</title>
<g id="a_node9"><a xlink:href="Light_8hpp.html" target="_top" xlink:title="Engine/Renderer/Light\l/Light.hpp">
<polygon fill="white" stroke="black" points="305.5,-291.5 305.5,-321.5 426.5,-321.5 426.5,-291.5 305.5,-291.5"/>
<text text-anchor="start" x="313.5" y="-309.5" font-family="Helvetica,sans-Serif" font-size="10.00">Engine/Renderer/Light</text>
<text text-anchor="middle" x="366" y="-298.5" font-family="Helvetica,sans-Serif" font-size="10.00">/Light.hpp</text>
</a>
</g>
</g>
<!-- Node1&#45;&gt;Node9 -->
<g id="edge8" class="edge"><title>Node1&#45;&gt;Node9</title>
<path fill="none" stroke="midnightblue" d="M634.996,-367.103C576.167,-354.068 494.419,-335.954 436.52,-323.125"/>
<polygon fill="midnightblue" stroke="midnightblue" points="437.24,-319.7 426.72,-320.954 435.726,-326.534 437.24,-319.7"/>
</g>
<!-- Node24 -->
<g id="node24" class="node"><title>Node24</title>
<g id="a_node24"><a xlink:href="PointLight_8inl.html" target="_top" xlink:title="Engine/Renderer/Light\l/PointLight.inl">
<polygon fill="white" stroke="black" points="737.5,-291.5 737.5,-321.5 858.5,-321.5 858.5,-291.5 737.5,-291.5"/>
<text text-anchor="start" x="745.5" y="-309.5" font-family="Helvetica,sans-Serif" font-size="10.00">Engine/Renderer/Light</text>
<text text-anchor="middle" x="798" y="-298.5" font-family="Helvetica,sans-Serif" font-size="10.00">/PointLight.inl</text>
</a>
</g>
</g>
<!-- Node1&#45;&gt;Node24 -->
<g id="edge33" class="edge"><title>Node1&#45;&gt;Node24</title>
<path fill="none" stroke="midnightblue" d="M738.636,-358.193C749.999,-348.49 762.823,-337.539 773.637,-328.304"/>
<polygon fill="midnightblue" stroke="midnightblue" points="776.125,-330.782 781.457,-321.627 771.579,-325.459 776.125,-330.782"/>
</g>
<!-- Node3 -->
<g id="node3" class="node"><title>Node3</title>
<g id="a_node3"><a xlink:href="CoreMacros_8hpp.html" target="_top" xlink:title="Core/CoreMacros.hpp">
<polygon fill="white" stroke="black" points="458,-56.5 458,-75.5 578,-75.5 578,-56.5 458,-56.5"/>
<text text-anchor="middle" x="518" y="-63.5" font-family="Helvetica,sans-Serif" font-size="10.00">Core/CoreMacros.hpp</text>
</a>
</g>
</g>
<!-- Node2&#45;&gt;Node3 -->
<g id="edge2" class="edge"><title>Node2&#45;&gt;Node3</title>
<path fill="none" stroke="midnightblue" d="M772.331,-168.482C773.972,-154.612 774.93,-127.174 760,-112 736.506,-88.1224 651.031,-76.6136 588.3,-71.2792"/>
<polygon fill="midnightblue" stroke="midnightblue" points="588.3,-67.7677 578.049,-70.4446 587.732,-74.7447 588.3,-67.7677"/>
</g>
<!-- Node4 -->
<g id="node4" class="node"><title>Node4</title>
<polygon fill="white" stroke="#bfbfbf" points="355,-0.5 355,-19.5 407,-19.5 407,-0.5 355,-0.5"/>
<text text-anchor="middle" x="381" y="-7.5" font-family="Helvetica,sans-Serif" font-size="10.00">cassert</text>
</g>
<!-- Node3&#45;&gt;Node4 -->
<g id="edge3" class="edge"><title>Node3&#45;&gt;Node4</title>
<path fill="none" stroke="midnightblue" d="M496.292,-56.4435C473.645,-47.5171 437.928,-33.4387 412.248,-23.3168"/>
<polygon fill="midnightblue" stroke="midnightblue" points="413.193,-19.9273 402.606,-19.5164 410.626,-26.4397 413.193,-19.9273"/>
</g>
<!-- Node5 -->
<g id="node5" class="node"><title>Node5</title>
<polygon fill="white" stroke="#bfbfbf" points="425.5,-0.5 425.5,-19.5 470.5,-19.5 470.5,-0.5 425.5,-0.5"/>
<text text-anchor="middle" x="448" y="-7.5" font-family="Helvetica,sans-Serif" font-size="10.00">cstdio</text>
</g>
<!-- Node3&#45;&gt;Node5 -->
<g id="edge4" class="edge"><title>Node3&#45;&gt;Node5</title>
<path fill="none" stroke="midnightblue" d="M506.753,-56.324C496.203,-48.1849 480.199,-35.8395 467.558,-26.0874"/>
<polygon fill="midnightblue" stroke="midnightblue" points="469.507,-23.1707 459.451,-19.8339 465.231,-28.7132 469.507,-23.1707"/>
</g>
<!-- Node6 -->
<g id="node6" class="node"><title>Node6</title>
<polygon fill="white" stroke="#bfbfbf" points="488.5,-0.5 488.5,-19.5 547.5,-19.5 547.5,-0.5 488.5,-0.5"/>
<text text-anchor="middle" x="518" y="-7.5" font-family="Helvetica,sans-Serif" font-size="10.00">iostream</text>
</g>
<!-- Node3&#45;&gt;Node6 -->
<g id="edge5" class="edge"><title>Node3&#45;&gt;Node6</title>
<path fill="none" stroke="midnightblue" d="M518,-56.083C518,-49.0059 518,-38.8611 518,-29.9865"/>
<polygon fill="midnightblue" stroke="midnightblue" points="521.5,-29.751 518,-19.7511 514.5,-29.7511 521.5,-29.751"/>
</g>
<!-- Node7 -->
<g id="node7" class="node"><title>Node7</title>
<polygon fill="white" stroke="#bfbfbf" points="566,-0.5 566,-19.5 622,-19.5 622,-0.5 566,-0.5"/>
<text text-anchor="middle" x="594" y="-7.5" font-family="Helvetica,sans-Serif" font-size="10.00">sstream</text>
</g>
<!-- Node3&#45;&gt;Node7 -->
<g id="edge6" class="edge"><title>Node3&#45;&gt;Node7</title>
<path fill="none" stroke="midnightblue" d="M530.211,-56.324C541.776,-48.1066 559.375,-35.6017 573.161,-25.8069"/>
<polygon fill="midnightblue" stroke="midnightblue" points="575.443,-28.4791 581.567,-19.8339 571.388,-22.7729 575.443,-28.4791"/>
</g>
<!-- Node8 -->
<g id="node8" class="node"><title>Node8</title>
<polygon fill="white" stroke="#bfbfbf" points="640,-0.5 640,-19.5 688,-19.5 688,-0.5 640,-0.5"/>
<text text-anchor="middle" x="664" y="-7.5" font-family="Helvetica,sans-Serif" font-size="10.00">thread</text>
</g>
<!-- Node3&#45;&gt;Node8 -->
<g id="edge7" class="edge"><title>Node3&#45;&gt;Node8</title>
<path fill="none" stroke="midnightblue" d="M541.134,-56.4435C565.482,-47.4381 604.007,-33.1891 631.423,-23.049"/>
<polygon fill="midnightblue" stroke="midnightblue" points="632.809,-26.2681 640.974,-19.5164 630.381,-19.7028 632.809,-26.2681"/>
</g>
<!-- Node9&#45;&gt;Node2 -->
<g id="edge31" class="edge"><title>Node9&#45;&gt;Node2</title>
<path fill="none" stroke="midnightblue" d="M410.89,-291.479C491.438,-266.32 659.055,-213.966 733.721,-190.644"/>
<polygon fill="midnightblue" stroke="midnightblue" points="735.119,-193.874 743.621,-187.552 733.032,-187.192 735.119,-193.874"/>
</g>
<!-- Node10 -->
<g id="node10" class="node"><title>Node10</title>
<g id="a_node10"><a xlink:href="Color_8hpp.html" target="_top" xlink:title="Core/Utils/Color.hpp">
<polygon fill="white" stroke="black" points="4.5,-168.5 4.5,-187.5 115.5,-187.5 115.5,-168.5 4.5,-168.5"/>
<text text-anchor="middle" x="60" y="-175.5" font-family="Helvetica,sans-Serif" font-size="10.00">Core/Utils/Color.hpp</text>
</a>
</g>
</g>
<!-- Node9&#45;&gt;Node10 -->
<g id="edge9" class="edge"><title>Node9&#45;&gt;Node10</title>
<path fill="none" stroke="midnightblue" d="M305.287,-303.934C253.52,-300.13 178.839,-288.607 123,-255 99.2119,-240.683 80.3022,-214.052 69.6226,-196.425"/>
<polygon fill="midnightblue" stroke="midnightblue" points="72.603,-194.587 64.5575,-187.693 66.548,-198.1 72.603,-194.587"/>
</g>
<!-- Node14 -->
<g id="node14" class="node"><title>Node14</title>
<g id="a_node14"><a xlink:href="Component_8hpp.html" target="_top" xlink:title="Engine/Component/Component.hpp">
<polygon fill="white" stroke="black" points="272,-230 272,-249 460,-249 460,-230 272,-230"/>
<text text-anchor="middle" x="366" y="-237" font-family="Helvetica,sans-Serif" font-size="10.00">Engine/Component/Component.hpp</text>
</a>
</g>
</g>
<!-- Node9&#45;&gt;Node14 -->
<g id="edge14" class="edge"><title>Node9&#45;&gt;Node14</title>
<path fill="none" stroke="midnightblue" d="M366,-291.396C366,-282.064 366,-269.714 366,-259.517"/>
<polygon fill="midnightblue" stroke="midnightblue" points="369.5,-259.195 366,-249.195 362.5,-259.195 369.5,-259.195"/>
</g>
<!-- Node23 -->
<g id="node23" class="node"><title>Node23</title>
<g id="a_node23"><a xlink:href="Light_8inl.html" target="_top" xlink:title="Engine/Renderer/Light\l/Light.inl">
<polygon fill="white" stroke="black" points="132.5,-224.5 132.5,-254.5 253.5,-254.5 253.5,-224.5 132.5,-224.5"/>
<text text-anchor="start" x="140.5" y="-242.5" font-family="Helvetica,sans-Serif" font-size="10.00">Engine/Renderer/Light</text>
<text text-anchor="middle" x="193" y="-231.5" font-family="Helvetica,sans-Serif" font-size="10.00">/Light.inl</text>
</a>
</g>
</g>
<!-- Node9&#45;&gt;Node23 -->
<g id="edge32" class="edge"><title>Node9&#45;&gt;Node23</title>
<path fill="none" stroke="midnightblue" d="M328.462,-291.396C302.504,-281.643 267.776,-268.595 239.981,-258.152"/>
<polygon fill="midnightblue" stroke="midnightblue" points="241.057,-254.817 230.465,-254.577 238.595,-261.37 241.057,-254.817"/>
</g>
<!-- Node10&#45;&gt;Node3 -->
<g id="edge10" class="edge"><title>Node10&#45;&gt;Node3</title>
<path fill="none" stroke="midnightblue" d="M62.637,-168.488C67.5827,-154.108 79.7186,-125.277 101,-112 157.201,-76.9383 344.147,-68.9841 447.607,-67.3162"/>
<polygon fill="midnightblue" stroke="midnightblue" points="447.709,-70.8152 457.656,-67.1698 447.606,-63.816 447.709,-70.8152"/>
</g>
<!-- Node11 -->
<g id="node11" class="node"><title>Node11</title>
<polygon fill="white" stroke="#bfbfbf" points="110,-112.5 110,-131.5 178,-131.5 178,-112.5 110,-112.5"/>
<text text-anchor="middle" x="144" y="-119.5" font-family="Helvetica,sans-Serif" font-size="10.00">Eigen/Core</text>
</g>
<!-- Node10&#45;&gt;Node11 -->
<g id="edge11" class="edge"><title>Node10&#45;&gt;Node11</title>
<path fill="none" stroke="midnightblue" d="M73.4961,-168.324C86.5996,-159.9 106.712,-146.971 122.107,-137.074"/>
<polygon fill="midnightblue" stroke="midnightblue" points="124.018,-140.006 130.537,-131.655 120.233,-134.118 124.018,-140.006"/>
</g>
<!-- Node12 -->
<g id="node12" class="node"><title>Node12</title>
<polygon fill="white" stroke="#bfbfbf" points="196,-112.5 196,-131.5 290,-131.5 290,-112.5 196,-112.5"/>
<text text-anchor="middle" x="243" y="-119.5" font-family="Helvetica,sans-Serif" font-size="10.00">Eigen/Geometry</text>
</g>
<!-- Node10&#45;&gt;Node12 -->
<g id="edge12" class="edge"><title>Node10&#45;&gt;Node12</title>
<path fill="none" stroke="midnightblue" d="M88.9969,-168.444C120.185,-159.241 169.93,-144.562 204.408,-134.388"/>
<polygon fill="midnightblue" stroke="midnightblue" points="205.538,-137.704 214.139,-131.516 203.557,-130.99 205.538,-137.704"/>
</g>
<!-- Node13 -->
<g id="node13" class="node"><title>Node13</title>
<polygon fill="white" stroke="#bfbfbf" points="0,-112.5 0,-131.5 54,-131.5 54,-112.5 0,-112.5"/>
<text text-anchor="middle" x="27" y="-119.5" font-family="Helvetica,sans-Serif" font-size="10.00">random</text>
</g>
<!-- Node10&#45;&gt;Node13 -->
<g id="edge13" class="edge"><title>Node10&#45;&gt;Node13</title>
<path fill="none" stroke="midnightblue" d="M54.5507,-168.083C49.9855,-160.613 43.3316,-149.724 37.7066,-140.52"/>
<polygon fill="midnightblue" stroke="midnightblue" points="40.5489,-138.459 32.3479,-131.751 34.5759,-142.109 40.5489,-138.459"/>
</g>
<!-- Node14&#45;&gt;Node2 -->
<g id="edge22" class="edge"><title>Node14&#45;&gt;Node2</title>
<path fill="none" stroke="midnightblue" d="M424.027,-229.975C497.709,-219.15 624.64,-200.502 702.85,-189.012"/>
<polygon fill="midnightblue" stroke="midnightblue" points="703.696,-192.426 713.081,-187.509 702.678,-185.5 703.696,-192.426"/>
</g>
<!-- Node14&#45;&gt;Node11 -->
<g id="edge20" class="edge"><title>Node14&#45;&gt;Node11</title>
<path fill="none" stroke="midnightblue" d="M302.568,-229.99C267.854,-222.987 225.438,-210.404 193,-188 175.427,-175.863 161.526,-155.404 153.085,-140.678"/>
<polygon fill="midnightblue" stroke="midnightblue" points="155.986,-138.686 148.136,-131.571 149.836,-142.029 155.986,-138.686"/>
</g>
<!-- Node14&#45;&gt;Node12 -->
<g id="edge21" class="edge"><title>Node14&#45;&gt;Node12</title>
<path fill="none" stroke="midnightblue" d="M316.082,-229.92C272.754,-221.335 214.852,-206.725 201,-188 188.753,-171.443 206.229,-151.411 222.225,-138"/>
<polygon fill="midnightblue" stroke="midnightblue" points="224.602,-140.583 230.29,-131.644 220.27,-135.085 224.602,-140.583"/>
</g>
<!-- Node15 -->
<g id="node15" class="node"><title>Node15</title>
<g id="a_node15"><a xlink:href="Index_8hpp.html" target="_top" xlink:title="Core/Utils/Index.hpp">
<polygon fill="white" stroke="black" points="581.5,-168.5 581.5,-187.5 694.5,-187.5 694.5,-168.5 581.5,-168.5"/>
<text text-anchor="middle" x="638" y="-175.5" font-family="Helvetica,sans-Serif" font-size="10.00">Core/Utils/Index.hpp</text>
</a>
</g>
</g>
<!-- Node14&#45;&gt;Node15 -->
<g id="edge15" class="edge"><title>Node14&#45;&gt;Node15</title>
<path fill="none" stroke="midnightblue" d="M404.971,-229.975C453.547,-219.349 536.584,-201.185 589.303,-189.652"/>
<polygon fill="midnightblue" stroke="midnightblue" points="590.08,-193.065 599.101,-187.509 588.584,-186.227 590.08,-193.065"/>
</g>
<!-- Node19 -->
<g id="node19" class="node"><title>Node19</title>
<polygon fill="white" stroke="#bfbfbf" points="210.5,-168.5 210.5,-187.5 257.5,-187.5 257.5,-168.5 210.5,-168.5"/>
<text text-anchor="middle" x="234" y="-175.5" font-family="Helvetica,sans-Serif" font-size="10.00">vector</text>
</g>
<!-- Node14&#45;&gt;Node19 -->
<g id="edge23" class="edge"><title>Node14&#45;&gt;Node19</title>
<path fill="none" stroke="midnightblue" d="M347.088,-229.975C324.837,-219.945 287.688,-203.2 262.074,-191.655"/>
<polygon fill="midnightblue" stroke="midnightblue" points="263.432,-188.428 252.877,-187.509 260.556,-194.809 263.432,-188.428"/>
</g>
<!-- Node20 -->
<g id="node20" class="node"><title>Node20</title>
<g id="a_node20"><a xlink:href="Types_8hpp.html" target="_top" xlink:title="Core/Types.hpp">
<polygon fill="white" stroke="black" points="474.5,-168.5 474.5,-187.5 563.5,-187.5 563.5,-168.5 474.5,-168.5"/>
<text text-anchor="middle" x="519" y="-175.5" font-family="Helvetica,sans-Serif" font-size="10.00">Core/Types.hpp</text>
</a>
</g>
</g>
<!-- Node14&#45;&gt;Node20 -->
<g id="edge24" class="edge"><title>Node14&#45;&gt;Node20</title>
<path fill="none" stroke="midnightblue" d="M387.921,-229.975C414.052,-219.813 457.912,-202.756 487.63,-191.2"/>
<polygon fill="midnightblue" stroke="midnightblue" points="489.068,-194.396 497.119,-187.509 486.531,-187.872 489.068,-194.396"/>
</g>
<!-- Node22 -->
<g id="node22" class="node"><title>Node22</title>
<g id="a_node22"><a xlink:href="Component_8inl.html" target="_top" xlink:title="Engine/Component/Component.inl">
<polygon fill="white" stroke="black" points="275.5,-168.5 275.5,-187.5 456.5,-187.5 456.5,-168.5 275.5,-168.5"/>
<text text-anchor="middle" x="366" y="-175.5" font-family="Helvetica,sans-Serif" font-size="10.00">Engine/Component/Component.inl</text>
</a>
</g>
</g>
<!-- Node14&#45;&gt;Node22 -->
<g id="edge29" class="edge"><title>Node14&#45;&gt;Node22</title>
<path fill="none" stroke="midnightblue" d="M361.099,-229.975C359.268,-221.58 358.797,-208.481 359.685,-197.663"/>
<polygon fill="midnightblue" stroke="midnightblue" points="363.186,-197.897 361.103,-187.509 356.254,-196.929 363.186,-197.897"/>
</g>
<!-- Node16 -->
<g id="node16" class="node"><title>Node16</title>
<g id="a_node16"><a xlink:href="RaCore_8hpp.html" target="_top" xlink:title="Core/RaCore.hpp">
<polygon fill="white" stroke="black" points="469,-112.5 469,-131.5 567,-131.5 567,-112.5 469,-112.5"/>
<text text-anchor="middle" x="518" y="-119.5" font-family="Helvetica,sans-Serif" font-size="10.00">Core/RaCore.hpp</text>
</a>
</g>
</g>
<!-- Node15&#45;&gt;Node16 -->
<g id="edge16" class="edge"><title>Node15&#45;&gt;Node16</title>
<path fill="none" stroke="midnightblue" d="M618.986,-168.444C599.412,-159.636 568.692,-145.812 546.271,-135.722"/>
<polygon fill="midnightblue" stroke="midnightblue" points="547.481,-132.428 536.925,-131.516 544.608,-138.812 547.481,-132.428"/>
</g>
<!-- Node17 -->
<g id="node17" class="node"><title>Node17</title>
<polygon fill="white" stroke="#bfbfbf" points="709,-112.5 709,-131.5 751,-131.5 751,-112.5 709,-112.5"/>
<text text-anchor="middle" x="730" y="-119.5" font-family="Helvetica,sans-Serif" font-size="10.00">limits</text>
</g>
<!-- Node15&#45;&gt;Node17 -->
<g id="edge18" class="edge"><title>Node15&#45;&gt;Node17</title>
<path fill="none" stroke="midnightblue" d="M652.781,-168.324C667.267,-159.822 689.573,-146.729 706.493,-136.797"/>
<polygon fill="midnightblue" stroke="midnightblue" points="708.403,-139.735 715.255,-131.655 704.859,-133.698 708.403,-139.735"/>
</g>
<!-- Node18 -->
<g id="node18" class="node"><title>Node18</title>
<g id="a_node18"><a xlink:href="Index_8inl.html" target="_top" xlink:title="Core/Utils/Index.inl">
<polygon fill="white" stroke="black" points="585.5,-112.5 585.5,-131.5 690.5,-131.5 690.5,-112.5 585.5,-112.5"/>
<text text-anchor="middle" x="638" y="-119.5" font-family="Helvetica,sans-Serif" font-size="10.00">Core/Utils/Index.inl</text>
</a>
</g>
</g>
<!-- Node15&#45;&gt;Node18 -->
<g id="edge19" class="edge"><title>Node15&#45;&gt;Node18</title>
<path fill="none" stroke="midnightblue" d="M638,-168.083C638,-161.006 638,-150.861 638,-141.986"/>
<polygon fill="midnightblue" stroke="midnightblue" points="641.5,-141.751 638,-131.751 634.5,-141.751 641.5,-141.751"/>
</g>
<!-- Node16&#45;&gt;Node3 -->
<g id="edge17" class="edge"><title>Node16&#45;&gt;Node3</title>
<path fill="none" stroke="midnightblue" d="M518,-112.083C518,-105.006 518,-94.8611 518,-85.9865"/>
<polygon fill="midnightblue" stroke="midnightblue" points="521.5,-85.751 518,-75.7511 514.5,-85.7511 521.5,-85.751"/>
</g>
<!-- Node20&#45;&gt;Node11 -->
<g id="edge26" class="edge"><title>Node20&#45;&gt;Node11</title>
<path fill="none" stroke="midnightblue" d="M474.231,-169.41C471.109,-168.92 468.009,-168.445 465,-168 345.005,-150.237 311.589,-152.633 188.429,-132.129"/>
<polygon fill="midnightblue" stroke="midnightblue" points="188.664,-128.62 178.222,-130.412 187.503,-135.523 188.664,-128.62"/>
</g>
<!-- Node20&#45;&gt;Node12 -->
<g id="edge27" class="edge"><title>Node20&#45;&gt;Node12</title>
<path fill="none" stroke="midnightblue" d="M475.267,-168.444C426.817,-158.964 348.671,-143.675 296.582,-133.483"/>
<polygon fill="midnightblue" stroke="midnightblue" points="297.014,-130.002 286.528,-131.516 295.67,-136.871 297.014,-130.002"/>
</g>
<!-- Node20&#45;&gt;Node16 -->
<g id="edge25" class="edge"><title>Node20&#45;&gt;Node16</title>
<path fill="none" stroke="midnightblue" d="M518.835,-168.083C518.704,-161.006 518.516,-150.861 518.352,-141.986"/>
<polygon fill="midnightblue" stroke="midnightblue" points="521.847,-141.685 518.162,-131.751 514.848,-141.814 521.847,-141.685"/>
</g>
<!-- Node21 -->
<g id="node21" class="node"><title>Node21</title>
<polygon fill="white" stroke="#bfbfbf" points="371,-112.5 371,-131.5 451,-131.5 451,-112.5 371,-112.5"/>
<text text-anchor="middle" x="411" y="-119.5" font-family="Helvetica,sans-Serif" font-size="10.00">Eigen/Sparse</text>
</g>
<!-- Node20&#45;&gt;Node21 -->
<g id="edge28" class="edge"><title>Node20&#45;&gt;Node21</title>
<path fill="none" stroke="midnightblue" d="M501.648,-168.324C484.328,-159.664 457.485,-146.242 437.498,-136.249"/>
<polygon fill="midnightblue" stroke="midnightblue" points="438.819,-132.996 428.309,-131.655 435.688,-139.257 438.819,-132.996"/>
</g>
<!-- Node22&#45;&gt;Node14 -->
<g id="edge30" class="edge"><title>Node22&#45;&gt;Node14</title>
<path fill="none" stroke="midnightblue" d="M370.897,-187.509C372.73,-195.898 373.203,-208.996 372.317,-219.817"/>
<polygon fill="midnightblue" stroke="midnightblue" points="368.815,-219.588 370.901,-229.975 375.748,-220.554 368.815,-219.588"/>
</g>
</g>
</svg>
