<?xml version="1.0" encoding="UTF-8" standalone="no"?>
<!DOCTYPE svg PUBLIC "-//W3C//DTD SVG 1.1//EN"
 "http://www.w3.org/Graphics/SVG/1.1/DTD/svg11.dtd">
<!-- Generated by graphviz version 2.38.0 (20140413.2041)
 -->
<!-- Title: /home/travis/build/STORM&#45;IRIT/Radium&#45;Engine/src/Core/Geometry/PolyLine.inl Pages: 1 -->
<svg width="1606pt" height="565pt"
 viewBox="0.00 0.00 1605.50 565.00" xmlns="http://www.w3.org/2000/svg" xmlns:xlink="http://www.w3.org/1999/xlink">
<g id="graph0" class="graph" transform="scale(1 1) rotate(0) translate(4 561)">
<title>/home/travis/build/STORM&#45;IRIT/Radium&#45;Engine/src/Core/Geometry/PolyLine.inl</title>
<polygon fill="white" stroke="none" points="-4,4 -4,-561 1601.5,-561 1601.5,4 -4,4"/>
<!-- Node1 -->
<g id="node1" class="node"><title>Node1</title>
<polygon fill="#bfbfbf" stroke="black" points="606,-515.5 606,-556.5 772,-556.5 772,-515.5 606,-515.5"/>
<text text-anchor="start" x="614" y="-544.5" font-family="Helvetica,sans-Serif" font-size="10.00">/home/travis/build</text>
<text text-anchor="start" x="614" y="-533.5" font-family="Helvetica,sans-Serif" font-size="10.00">/STORM&#45;IRIT/Radium&#45;Engine</text>
<text text-anchor="middle" x="689" y="-522.5" font-family="Helvetica,sans-Serif" font-size="10.00">/src/Core/Geometry/PolyLine.inl</text>
</g>
<!-- Node2 -->
<g id="node2" class="node"><title>Node2</title>
<g id="a_node2"><a xlink:href="PolyLine_8hpp.html" target="_top" xlink:title="Core/Geometry/PolyLine.hpp">
<polygon fill="white" stroke="black" points="612.5,-459.5 612.5,-478.5 765.5,-478.5 765.5,-459.5 612.5,-459.5"/>
<text text-anchor="middle" x="689" y="-466.5" font-family="Helvetica,sans-Serif" font-size="10.00">Core/Geometry/PolyLine.hpp</text>
</a>
</g>
</g>
<!-- Node1&#45;&gt;Node2 -->
<g id="edge1" class="edge"><title>Node1&#45;&gt;Node2</title>
<path fill="none" stroke="midnightblue" d="M682.755,-515.498C682.057,-506.969 682.083,-497.011 682.833,-488.59"/>
<polygon fill="midnightblue" stroke="midnightblue" points="686.303,-489.044 684.236,-478.652 679.372,-488.065 686.303,-489.044"/>
</g>
<!-- Node30 -->
<g id="node30" class="node"><title>Node30</title>
<g id="a_node30"><a xlink:href="LinearAlgebra_8hpp.html" target="_top" xlink:title="Core/Math/LinearAlgebra.hpp">
<polygon fill="white" stroke="black" points="1028,-235.5 1028,-254.5 1184,-254.5 1184,-235.5 1028,-235.5"/>
<text text-anchor="middle" x="1106" y="-242.5" font-family="Helvetica,sans-Serif" font-size="10.00">Core/Math/LinearAlgebra.hpp</text>
</a>
</g>
</g>
<!-- Node1&#45;&gt;Node30 -->
<g id="edge51" class="edge"><title>Node1&#45;&gt;Node30</title>
<path fill="none" stroke="midnightblue" d="M772.051,-524.464C880.036,-508.398 1055,-473.228 1055,-414 1055,-414 1055,-414 1055,-356 1055,-320.244 1077.45,-283.508 1092.56,-262.836"/>
<polygon fill="midnightblue" stroke="midnightblue" points="1095.43,-264.849 1098.69,-254.769 1089.86,-260.614 1095.43,-264.849"/>
</g>
<!-- Node2&#45;&gt;Node1 -->
<g id="edge50" class="edge"><title>Node2&#45;&gt;Node1</title>
<path fill="none" stroke="midnightblue" d="M693.764,-478.652C695.227,-485.524 695.881,-495.559 695.728,-505.263"/>
<polygon fill="midnightblue" stroke="midnightblue" points="692.221,-505.344 695.245,-515.498 699.213,-505.674 692.221,-505.344"/>
</g>
<!-- Node3 -->
<g id="node3" class="node"><title>Node3</title>
<g id="a_node3"><a xlink:href="VectorArray_8hpp.html" target="_top" xlink:title="Core/Containers/VectorArray.hpp">
<polygon fill="white" stroke="black" points="560.5,-235.5 560.5,-254.5 733.5,-254.5 733.5,-235.5 560.5,-235.5"/>
<text text-anchor="middle" x="647" y="-242.5" font-family="Helvetica,sans-Serif" font-size="10.00">Core/Containers/VectorArray.hpp</text>
</a>
</g>
</g>
<!-- Node2&#45;&gt;Node3 -->
<g id="edge2" class="edge"><title>Node2&#45;&gt;Node3</title>
<path fill="none" stroke="midnightblue" d="M687.354,-459.297C681.174,-426.633 659.272,-310.866 650.587,-264.957"/>
<polygon fill="midnightblue" stroke="midnightblue" points="653.979,-264.059 648.681,-254.884 647.101,-265.36 653.979,-264.059"/>
</g>
<!-- Node5 -->
<g id="node5" class="node"><title>Node5</title>
<g id="a_node5"><a xlink:href="RaCore_8hpp.html" target="_top" xlink:title="Core/RaCore.hpp">
<polygon fill="white" stroke="black" points="344,-112.5 344,-131.5 442,-131.5 442,-112.5 344,-112.5"/>
<text text-anchor="middle" x="393" y="-119.5" font-family="Helvetica,sans-Serif" font-size="10.00">Core/RaCore.hpp</text>
</a>
</g>
</g>
<!-- Node2&#45;&gt;Node5 -->
<g id="edge48" class="edge"><title>Node2&#45;&gt;Node5</title>
<path fill="none" stroke="midnightblue" d="M612.301,-463.692C432.709,-452.582 0,-419.437 0,-358 0,-358 0,-358 0,-244 0,-204.285 13.6313,-189.536 47,-168 93.1565,-138.21 247.593,-128.044 333.707,-124.648"/>
<polygon fill="midnightblue" stroke="midnightblue" points="333.996,-128.14 343.858,-124.267 333.733,-121.145 333.996,-128.14"/>
</g>
<!-- Node14 -->
<g id="node14" class="node"><title>Node14</title>
<g id="a_node14"><a xlink:href="Types_8hpp.html" target="_top" xlink:title="Core/Types.hpp">
<polygon fill="white" stroke="black" points="811.5,-174 811.5,-193 900.5,-193 900.5,-174 811.5,-174"/>
<text text-anchor="middle" x="856" y="-181" font-family="Helvetica,sans-Serif" font-size="10.00">Core/Types.hpp</text>
</a>
</g>
</g>
<!-- Node2&#45;&gt;Node14 -->
<g id="edge49" class="edge"><title>Node2&#45;&gt;Node14</title>
<path fill="none" stroke="midnightblue" d="M765.652,-460.933C826.344,-450.847 907.426,-426.373 948,-367 987.458,-309.261 911.626,-232.253 874.639,-199.87"/>
<polygon fill="midnightblue" stroke="midnightblue" points="876.854,-197.159 866.98,-193.316 872.303,-202.478 876.854,-197.159"/>
</g>
<!-- Node18 -->
<g id="node18" class="node"><title>Node18</title>
<g id="a_node18"><a xlink:href="DistanceQueries_8hpp.html" target="_top" xlink:title="Core/Geometry/DistanceQueries.hpp">
<polygon fill="white" stroke="black" points="467.5,-403.5 467.5,-422.5 660.5,-422.5 660.5,-403.5 467.5,-403.5"/>
<text text-anchor="middle" x="564" y="-410.5" font-family="Helvetica,sans-Serif" font-size="10.00">Core/Geometry/DistanceQueries.hpp</text>
</a>
</g>
</g>
<!-- Node2&#45;&gt;Node18 -->
<g id="edge20" class="edge"><title>Node2&#45;&gt;Node18</title>
<path fill="none" stroke="midnightblue" d="M669.193,-459.444C648.713,-450.596 616.517,-436.687 593.135,-426.586"/>
<polygon fill="midnightblue" stroke="midnightblue" points="594.282,-423.269 583.714,-422.516 591.506,-429.695 594.282,-423.269"/>
</g>
<!-- Node4 -->
<g id="node4" class="node"><title>Node4</title>
<g id="a_node4"><a xlink:href="AlignedStdVector_8hpp.html" target="_top" xlink:title="Core/Containers/AlignedStd\lVector.hpp">
<polygon fill="white" stroke="black" points="477.5,-168.5 477.5,-198.5 626.5,-198.5 626.5,-168.5 477.5,-168.5"/>
<text text-anchor="start" x="485.5" y="-186.5" font-family="Helvetica,sans-Serif" font-size="10.00">Core/Containers/AlignedStd</text>
<text text-anchor="middle" x="552" y="-175.5" font-family="Helvetica,sans-Serif" font-size="10.00">Vector.hpp</text>
</a>
</g>
</g>
<!-- Node3&#45;&gt;Node4 -->
<g id="edge3" class="edge"><title>Node3&#45;&gt;Node4</title>
<path fill="none" stroke="midnightblue" d="M633.389,-235.475C620.282,-227.266 599.992,-214.558 582.95,-203.885"/>
<polygon fill="midnightblue" stroke="midnightblue" points="584.722,-200.865 574.39,-198.523 581.007,-206.797 584.722,-200.865"/>
</g>
<!-- Node3&#45;&gt;Node5 -->
<g id="edge13" class="edge"><title>Node3&#45;&gt;Node5</title>
<path fill="none" stroke="midnightblue" d="M577.957,-235.485C525.377,-227.875 458.347,-215.397 436,-199 416.566,-184.74 404.685,-158.876 398.472,-141.323"/>
<polygon fill="midnightblue" stroke="midnightblue" points="401.745,-140.07 395.319,-131.646 395.089,-142.239 401.745,-140.07"/>
</g>
<!-- Node13 -->
<g id="node13" class="node"><title>Node13</title>
<polygon fill="white" stroke="#bfbfbf" points="607.5,-112.5 607.5,-131.5 654.5,-131.5 654.5,-112.5 607.5,-112.5"/>
<text text-anchor="middle" x="631" y="-119.5" font-family="Helvetica,sans-Serif" font-size="10.00">vector</text>
</g>
<!-- Node3&#45;&gt;Node13 -->
<g id="edge19" class="edge"><title>Node3&#45;&gt;Node13</title>
<path fill="none" stroke="midnightblue" d="M645.849,-235.298C643.266,-215.763 636.959,-168.065 633.453,-141.547"/>
<polygon fill="midnightblue" stroke="midnightblue" points="636.921,-141.078 632.14,-131.623 629.981,-141.996 636.921,-141.078"/>
</g>
<!-- Node3&#45;&gt;Node14 -->
<g id="edge14" class="edge"><title>Node3&#45;&gt;Node14</title>
<path fill="none" stroke="midnightblue" d="M676.945,-235.475C713.572,-225.048 775.695,-207.362 816.284,-195.807"/>
<polygon fill="midnightblue" stroke="midnightblue" points="817.451,-199.113 826.111,-193.009 815.535,-192.381 817.451,-199.113"/>
</g>
<!-- Node4&#45;&gt;Node5 -->
<g id="edge4" class="edge"><title>Node4&#45;&gt;Node5</title>
<path fill="none" stroke="midnightblue" d="M514.319,-168.399C487.404,-158.327 451.548,-144.909 425.807,-135.277"/>
<polygon fill="midnightblue" stroke="midnightblue" points="426.728,-131.885 416.136,-131.658 424.275,-138.441 426.728,-131.885"/>
</g>
<!-- Node12 -->
<g id="node12" class="node"><title>Node12</title>
<polygon fill="white" stroke="#bfbfbf" points="496.5,-112.5 496.5,-131.5 589.5,-131.5 589.5,-112.5 496.5,-112.5"/>
<text text-anchor="middle" x="543" y="-119.5" font-family="Helvetica,sans-Serif" font-size="10.00">Eigen/StdVector</text>
</g>
<!-- Node4&#45;&gt;Node12 -->
<g id="edge11" class="edge"><title>Node4&#45;&gt;Node12</title>
<path fill="none" stroke="midnightblue" d="M549.867,-168.399C548.654,-160.377 547.119,-150.233 545.809,-141.569"/>
<polygon fill="midnightblue" stroke="midnightblue" points="549.266,-141.022 544.31,-131.658 542.345,-142.069 549.266,-141.022"/>
</g>
<!-- Node4&#45;&gt;Node13 -->
<g id="edge12" class="edge"><title>Node4&#45;&gt;Node13</title>
<path fill="none" stroke="midnightblue" d="M570.722,-168.399C582.912,-159.218 598.792,-147.258 611.193,-137.918"/>
<polygon fill="midnightblue" stroke="midnightblue" points="613.623,-140.47 619.505,-131.658 609.411,-134.878 613.623,-140.47"/>
</g>
<!-- Node6 -->
<g id="node6" class="node"><title>Node6</title>
<g id="a_node6"><a xlink:href="CoreMacros_8hpp.html" target="_top" xlink:title="Core/CoreMacros.hpp">
<polygon fill="white" stroke="black" points="487,-56.5 487,-75.5 607,-75.5 607,-56.5 487,-56.5"/>
<text text-anchor="middle" x="547" y="-63.5" font-family="Helvetica,sans-Serif" font-size="10.00">Core/CoreMacros.hpp</text>
</a>
</g>
</g>
<!-- Node5&#45;&gt;Node6 -->
<g id="edge5" class="edge"><title>Node5&#45;&gt;Node6</title>
<path fill="none" stroke="midnightblue" d="M417.402,-112.444C443.197,-103.399 484.077,-89.064 513.018,-78.9158"/>
<polygon fill="midnightblue" stroke="midnightblue" points="514.434,-82.1283 522.712,-75.5164 512.118,-75.5226 514.434,-82.1283"/>
</g>
<!-- Node7 -->
<g id="node7" class="node"><title>Node7</title>
<polygon fill="white" stroke="#bfbfbf" points="384,-0.5 384,-19.5 436,-19.5 436,-0.5 384,-0.5"/>
<text text-anchor="middle" x="410" y="-7.5" font-family="Helvetica,sans-Serif" font-size="10.00">cassert</text>
</g>
<!-- Node6&#45;&gt;Node7 -->
<g id="edge6" class="edge"><title>Node6&#45;&gt;Node7</title>
<path fill="none" stroke="midnightblue" d="M525.292,-56.4435C502.645,-47.5171 466.928,-33.4387 441.248,-23.3168"/>
<polygon fill="midnightblue" stroke="midnightblue" points="442.193,-19.9273 431.606,-19.5164 439.626,-26.4397 442.193,-19.9273"/>
</g>
<!-- Node8 -->
<g id="node8" class="node"><title>Node8</title>
<polygon fill="white" stroke="#bfbfbf" points="454.5,-0.5 454.5,-19.5 499.5,-19.5 499.5,-0.5 454.5,-0.5"/>
<text text-anchor="middle" x="477" y="-7.5" font-family="Helvetica,sans-Serif" font-size="10.00">cstdio</text>
</g>
<!-- Node6&#45;&gt;Node8 -->
<g id="edge7" class="edge"><title>Node6&#45;&gt;Node8</title>
<path fill="none" stroke="midnightblue" d="M535.753,-56.324C525.203,-48.1849 509.199,-35.8395 496.558,-26.0874"/>
<polygon fill="midnightblue" stroke="midnightblue" points="498.507,-23.1707 488.451,-19.8339 494.231,-28.7132 498.507,-23.1707"/>
</g>
<!-- Node9 -->
<g id="node9" class="node"><title>Node9</title>
<polygon fill="white" stroke="#bfbfbf" points="517.5,-0.5 517.5,-19.5 576.5,-19.5 576.5,-0.5 517.5,-0.5"/>
<text text-anchor="middle" x="547" y="-7.5" font-family="Helvetica,sans-Serif" font-size="10.00">iostream</text>
</g>
<!-- Node6&#45;&gt;Node9 -->
<g id="edge8" class="edge"><title>Node6&#45;&gt;Node9</title>
<path fill="none" stroke="midnightblue" d="M547,-56.083C547,-49.0059 547,-38.8611 547,-29.9865"/>
<polygon fill="midnightblue" stroke="midnightblue" points="550.5,-29.751 547,-19.7511 543.5,-29.7511 550.5,-29.751"/>
</g>
<!-- Node10 -->
<g id="node10" class="node"><title>Node10</title>
<polygon fill="white" stroke="#bfbfbf" points="595,-0.5 595,-19.5 651,-19.5 651,-0.5 595,-0.5"/>
<text text-anchor="middle" x="623" y="-7.5" font-family="Helvetica,sans-Serif" font-size="10.00">sstream</text>
</g>
<!-- Node6&#45;&gt;Node10 -->
<g id="edge9" class="edge"><title>Node6&#45;&gt;Node10</title>
<path fill="none" stroke="midnightblue" d="M559.211,-56.324C570.776,-48.1066 588.375,-35.6017 602.161,-25.8069"/>
<polygon fill="midnightblue" stroke="midnightblue" points="604.443,-28.4791 610.567,-19.8339 600.388,-22.7729 604.443,-28.4791"/>
</g>
<!-- Node11 -->
<g id="node11" class="node"><title>Node11</title>
<polygon fill="white" stroke="#bfbfbf" points="669,-0.5 669,-19.5 717,-19.5 717,-0.5 669,-0.5"/>
<text text-anchor="middle" x="693" y="-7.5" font-family="Helvetica,sans-Serif" font-size="10.00">thread</text>
</g>
<!-- Node6&#45;&gt;Node11 -->
<g id="edge10" class="edge"><title>Node6&#45;&gt;Node11</title>
<path fill="none" stroke="midnightblue" d="M570.134,-56.4435C594.482,-47.4381 633.007,-33.1891 660.423,-23.049"/>
<polygon fill="midnightblue" stroke="midnightblue" points="661.809,-26.2681 669.974,-19.5164 659.381,-19.7028 661.809,-26.2681"/>
</g>
<!-- Node14&#45;&gt;Node5 -->
<g id="edge15" class="edge"><title>Node14&#45;&gt;Node5</title>
<path fill="none" stroke="midnightblue" d="M827.322,-173.927C819.195,-171.736 810.3,-169.561 802,-168 768.496,-161.697 557.541,-139.772 452.406,-129.028"/>
<polygon fill="midnightblue" stroke="midnightblue" points="452.569,-125.527 442.265,-127.993 451.858,-132.491 452.569,-125.527"/>
</g>
<!-- Node15 -->
<g id="node15" class="node"><title>Node15</title>
<polygon fill="white" stroke="#bfbfbf" points="895,-112.5 895,-131.5 963,-131.5 963,-112.5 895,-112.5"/>
<text text-anchor="middle" x="929" y="-119.5" font-family="Helvetica,sans-Serif" font-size="10.00">Eigen/Core</text>
</g>
<!-- Node14&#45;&gt;Node15 -->
<g id="edge16" class="edge"><title>Node14&#45;&gt;Node15</title>
<path fill="none" stroke="midnightblue" d="M866.459,-173.975C877.951,-164.608 896.63,-149.384 910.587,-138.008"/>
<polygon fill="midnightblue" stroke="midnightblue" points="913.02,-140.54 918.56,-131.509 908.598,-135.114 913.02,-140.54"/>
</g>
<!-- Node16 -->
<g id="node16" class="node"><title>Node16</title>
<polygon fill="white" stroke="#bfbfbf" points="783,-112.5 783,-131.5 877,-131.5 877,-112.5 783,-112.5"/>
<text text-anchor="middle" x="830" y="-119.5" font-family="Helvetica,sans-Serif" font-size="10.00">Eigen/Geometry</text>
</g>
<!-- Node14&#45;&gt;Node16 -->
<g id="edge17" class="edge"><title>Node14&#45;&gt;Node16</title>
<path fill="none" stroke="midnightblue" d="M852.275,-173.975C848.529,-165.404 842.64,-151.927 837.858,-140.983"/>
<polygon fill="midnightblue" stroke="midnightblue" points="840.93,-139.271 833.718,-131.509 834.515,-142.074 840.93,-139.271"/>
</g>
<!-- Node17 -->
<g id="node17" class="node"><title>Node17</title>
<polygon fill="white" stroke="#bfbfbf" points="981,-112.5 981,-131.5 1061,-131.5 1061,-112.5 981,-112.5"/>
<text text-anchor="middle" x="1021" y="-119.5" font-family="Helvetica,sans-Serif" font-size="10.00">Eigen/Sparse</text>
</g>
<!-- Node14&#45;&gt;Node17 -->
<g id="edge18" class="edge"><title>Node14&#45;&gt;Node17</title>
<path fill="none" stroke="midnightblue" d="M879.64,-173.975C907.944,-163.769 955.533,-146.608 987.586,-135.049"/>
<polygon fill="midnightblue" stroke="midnightblue" points="989.184,-138.194 997.403,-131.509 986.809,-131.609 989.184,-138.194"/>
</g>
<!-- Node18&#45;&gt;Node5 -->
<g id="edge42" class="edge"><title>Node18&#45;&gt;Node5</title>
<path fill="none" stroke="midnightblue" d="M467.217,-411.278C315.299,-407.492 38,-388.706 38,-302 38,-302 38,-302 38,-244 38,-204.049 52.5067,-189.777 86,-168 125.817,-142.111 256.437,-130.537 333.879,-125.84"/>
<polygon fill="midnightblue" stroke="midnightblue" points="334.197,-129.327 343.975,-125.248 333.787,-122.339 334.197,-129.327"/>
</g>
<!-- Node18&#45;&gt;Node14 -->
<g id="edge43" class="edge"><title>Node18&#45;&gt;Node14</title>
<path fill="none" stroke="midnightblue" d="M586.178,-403.458C634.048,-384.005 748.121,-332.049 815,-255 828.876,-239.015 840.527,-217.656 847.821,-202.652"/>
<polygon fill="midnightblue" stroke="midnightblue" points="851.071,-203.964 852.147,-193.424 844.733,-200.993 851.071,-203.964"/>
</g>
<!-- Node19 -->
<g id="node19" class="node"><title>Node19</title>
<g id="a_node19"><a xlink:href="TriangleMesh_8hpp.html" target="_top" xlink:title="Core/Geometry/TriangleMesh.hpp">
<polygon fill="white" stroke="black" points="451,-347.5 451,-366.5 627,-366.5 627,-347.5 451,-347.5"/>
<text text-anchor="middle" x="539" y="-354.5" font-family="Helvetica,sans-Serif" font-size="10.00">Core/Geometry/TriangleMesh.hpp</text>
</a>
</g>
</g>
<!-- Node18&#45;&gt;Node19 -->
<g id="edge21" class="edge"><title>Node18&#45;&gt;Node19</title>
<path fill="none" stroke="midnightblue" d="M559.872,-403.083C556.486,-395.77 551.584,-385.181 547.381,-376.103"/>
<polygon fill="midnightblue" stroke="midnightblue" points="550.429,-374.355 543.051,-366.751 544.077,-377.296 550.429,-374.355"/>
</g>
<!-- Node23 -->
<g id="node23" class="node"><title>Node23</title>
<polygon fill="white" stroke="#bfbfbf" points="104,-174 104,-193 146,-193 146,-174 104,-174"/>
<text text-anchor="middle" x="125" y="-181" font-family="Helvetica,sans-Serif" font-size="10.00">limits</text>
</g>
<!-- Node18&#45;&gt;Node23 -->
<g id="edge44" class="edge"><title>Node18&#45;&gt;Node23</title>
<path fill="none" stroke="midnightblue" d="M487.534,-403.464C395.439,-389.091 242.266,-351.438 155,-255 141.642,-240.238 133.649,-218.639 129.314,-203.243"/>
<polygon fill="midnightblue" stroke="midnightblue" points="132.644,-202.139 126.779,-193.316 125.862,-203.871 132.644,-202.139"/>
</g>
<!-- Node28 -->
<g id="node28" class="node"><title>Node28</title>
<g id="a_node28"><a xlink:href="DistanceQueries_8inl.html" target="_top" xlink:title="Core/Geometry/DistanceQueries.inl">
<polygon fill="white" stroke="black" points="754.5,-347.5 754.5,-366.5 939.5,-366.5 939.5,-347.5 754.5,-347.5"/>
<text text-anchor="middle" x="847" y="-354.5" font-family="Helvetica,sans-Serif" font-size="10.00">Core/Geometry/DistanceQueries.inl</text>
</a>
</g>
</g>
<!-- Node18&#45;&gt;Node28 -->
<g id="edge45" class="edge"><title>Node18&#45;&gt;Node28</title>
<path fill="none" stroke="midnightblue" d="M603.753,-403.444C651.552,-393.925 732.021,-378.547 787.277,-368.356"/>
<polygon fill="midnightblue" stroke="midnightblue" points="788.085,-371.767 797.288,-366.516 786.82,-364.882 788.085,-371.767"/>
</g>
<!-- Node19&#45;&gt;Node3 -->
<g id="edge22" class="edge"><title>Node19&#45;&gt;Node3</title>
<path fill="none" stroke="midnightblue" d="M573.383,-347.428C593.336,-340.72 617.345,-329.367 632,-311 642.487,-297.857 645.904,-278.714 646.897,-264.605"/>
<polygon fill="midnightblue" stroke="midnightblue" points="650.395,-264.701 647.262,-254.58 643.4,-264.446 650.395,-264.701"/>
</g>
<!-- Node19&#45;&gt;Node5 -->
<g id="edge26" class="edge"><title>Node19&#45;&gt;Node5</title>
<path fill="none" stroke="midnightblue" d="M450.726,-349.755C394.164,-343.858 319.846,-332.538 257,-311 174.196,-282.622 129.886,-279.28 95,-199 89.5089,-186.364 86.0144,-178.444 95,-168 125.168,-132.935 255.817,-124.841 333.758,-123.188"/>
<polygon fill="midnightblue" stroke="midnightblue" points="333.989,-126.684 343.923,-123.003 333.861,-119.686 333.989,-126.684"/>
</g>
<!-- Node19&#45;&gt;Node14 -->
<g id="edge27" class="edge"><title>Node19&#45;&gt;Node14</title>
<path fill="none" stroke="midnightblue" d="M601.154,-347.434C635.84,-340.873 678.981,-329.666 714,-311 768.422,-281.992 819.023,-227.971 842.407,-200.88"/>
<polygon fill="midnightblue" stroke="midnightblue" points="845.211,-202.985 849.013,-193.096 839.874,-198.456 845.211,-202.985"/>
</g>
<!-- Node20 -->
<g id="node20" class="node"><title>Node20</title>
<g id="a_node20"><a xlink:href="AbstractGeometry_8hpp.html" target="_top" xlink:title="Core/Geometry/AbstractGeometry.hpp">
<polygon fill="white" stroke="black" points="341.5,-235.5 341.5,-254.5 542.5,-254.5 542.5,-235.5 341.5,-235.5"/>
<text text-anchor="middle" x="442" y="-242.5" font-family="Helvetica,sans-Serif" font-size="10.00">Core/Geometry/AbstractGeometry.hpp</text>
</a>
</g>
</g>
<!-- Node19&#45;&gt;Node20 -->
<g id="edge23" class="edge"><title>Node19&#45;&gt;Node20</title>
<path fill="none" stroke="midnightblue" d="M501.149,-347.493C481.315,-340.964 458.589,-329.769 446,-311 436.956,-297.516 436.8,-278.705 438.406,-264.787"/>
<polygon fill="midnightblue" stroke="midnightblue" points="441.871,-265.287 439.936,-254.87 434.952,-264.219 441.871,-265.287"/>
</g>
<!-- Node21 -->
<g id="node21" class="node"><title>Node21</title>
<g id="a_node21"><a xlink:href="Attribs_8hpp.html" target="_top" xlink:title="Core/Utils/Attribs.hpp">
<polygon fill="white" stroke="black" points="266.5,-291.5 266.5,-310.5 385.5,-310.5 385.5,-291.5 266.5,-291.5"/>
<text text-anchor="middle" x="326" y="-298.5" font-family="Helvetica,sans-Serif" font-size="10.00">Core/Utils/Attribs.hpp</text>
</a>
</g>
</g>
<!-- Node19&#45;&gt;Node21 -->
<g id="edge28" class="edge"><title>Node19&#45;&gt;Node21</title>
<path fill="none" stroke="midnightblue" d="M505.25,-347.444C468.482,-338.122 409.554,-323.183 369.378,-312.997"/>
<polygon fill="midnightblue" stroke="midnightblue" points="370.146,-309.581 359.593,-310.516 368.426,-316.367 370.146,-309.581"/>
</g>
<!-- Node25 -->
<g id="node25" class="node"><title>Node25</title>
<g id="a_node25"><a xlink:href="Color_8hpp.html" target="_top" xlink:title="Core/Utils/Color.hpp">
<polygon fill="white" stroke="black" points="682.5,-174 682.5,-193 793.5,-193 793.5,-174 682.5,-174"/>
<text text-anchor="middle" x="738" y="-181" font-family="Helvetica,sans-Serif" font-size="10.00">Core/Utils/Color.hpp</text>
</a>
</g>
</g>
<!-- Node19&#45;&gt;Node25 -->
<g id="edge35" class="edge"><title>Node19&#45;&gt;Node25</title>
<path fill="none" stroke="midnightblue" d="M589.346,-347.453C638.764,-336.009 711.085,-310.325 742,-255 750.854,-239.155 748.128,-218.055 744.256,-203.08"/>
<polygon fill="midnightblue" stroke="midnightblue" points="747.588,-202.007 741.382,-193.42 740.879,-204.003 747.588,-202.007"/>
</g>
<!-- Node27 -->
<g id="node27" class="node"><title>Node27</title>
<g id="a_node27"><a xlink:href="TriangleMesh_8inl.html" target="_top" xlink:title="Core/Geometry/TriangleMesh.inl">
<polygon fill="white" stroke="black" points="455,-291.5 455,-310.5 623,-310.5 623,-291.5 455,-291.5"/>
<text text-anchor="middle" x="539" y="-298.5" font-family="Helvetica,sans-Serif" font-size="10.00">Core/Geometry/TriangleMesh.inl</text>
</a>
</g>
</g>
<!-- Node19&#45;&gt;Node27 -->
<g id="edge40" class="edge"><title>Node19&#45;&gt;Node27</title>
<path fill="none" stroke="midnightblue" d="M533.834,-347.083C532.324,-339.927 531.894,-329.635 532.542,-320.691"/>
<polygon fill="midnightblue" stroke="midnightblue" points="536.015,-321.126 533.869,-310.751 529.077,-320.2 536.015,-321.126"/>
</g>
<!-- Node20&#45;&gt;Node5 -->
<g id="edge24" class="edge"><title>Node20&#45;&gt;Node5</title>
<path fill="none" stroke="midnightblue" d="M429.467,-235.263C419.013,-227.186 404.771,-214.165 398,-199 389.931,-180.928 389.588,-158.01 390.695,-142.089"/>
<polygon fill="midnightblue" stroke="midnightblue" points="394.202,-142.19 391.668,-131.902 387.233,-141.524 394.202,-142.19"/>
</g>
<!-- Node20&#45;&gt;Node14 -->
<g id="edge25" class="edge"><title>Node20&#45;&gt;Node14</title>
<path fill="none" stroke="midnightblue" d="M539.602,-235.477C612.349,-228.235 713.917,-216.246 802,-199 806.992,-198.023 812.204,-196.838 817.335,-195.571"/>
<polygon fill="midnightblue" stroke="midnightblue" points="818.219,-198.958 827.026,-193.068 816.469,-192.18 818.219,-198.958"/>
</g>
<!-- Node21&#45;&gt;Node3 -->
<g id="edge29" class="edge"><title>Node21&#45;&gt;Node3</title>
<path fill="none" stroke="midnightblue" d="M376.863,-291.444C433.683,-281.885 525.617,-266.419 586.19,-256.23"/>
<polygon fill="midnightblue" stroke="midnightblue" points="587.094,-259.627 596.375,-254.516 585.932,-252.724 587.094,-259.627"/>
</g>
<!-- Node21&#45;&gt;Node5 -->
<g id="edge30" class="edge"><title>Node21&#45;&gt;Node5</title>
<path fill="none" stroke="midnightblue" d="M325.702,-291.375C325.508,-278.722 326.062,-254.515 332,-235 343.005,-198.834 366.463,-161.091 380.869,-139.961"/>
<polygon fill="midnightblue" stroke="midnightblue" points="383.758,-141.938 386.6,-131.731 378.013,-137.938 383.758,-141.938"/>
</g>
<!-- Node22 -->
<g id="node22" class="node"><title>Node22</title>
<g id="a_node22"><a xlink:href="Index_8hpp.html" target="_top" xlink:title="Core/Utils/Index.hpp">
<polygon fill="white" stroke="black" points="164.5,-235.5 164.5,-254.5 277.5,-254.5 277.5,-235.5 164.5,-235.5"/>
<text text-anchor="middle" x="221" y="-242.5" font-family="Helvetica,sans-Serif" font-size="10.00">Core/Utils/Index.hpp</text>
</a>
</g>
</g>
<!-- Node21&#45;&gt;Node22 -->
<g id="edge31" class="edge"><title>Node21&#45;&gt;Node22</title>
<path fill="none" stroke="midnightblue" d="M309.13,-291.324C292.291,-282.664 266.193,-269.242 246.762,-259.249"/>
<polygon fill="midnightblue" stroke="midnightblue" points="248.322,-256.116 237.828,-254.655 245.12,-262.341 248.322,-256.116"/>
</g>
<!-- Node22&#45;&gt;Node5 -->
<g id="edge32" class="edge"><title>Node22&#45;&gt;Node5</title>
<path fill="none" stroke="midnightblue" d="M231.701,-235.499C249.913,-221.134 288.248,-191.34 322,-168 337.754,-157.106 356.017,-145.554 370.075,-136.882"/>
<polygon fill="midnightblue" stroke="midnightblue" points="371.94,-139.845 378.637,-131.636 368.282,-133.876 371.94,-139.845"/>
</g>
<!-- Node22&#45;&gt;Node23 -->
<g id="edge33" class="edge"><title>Node22&#45;&gt;Node23</title>
<path fill="none" stroke="midnightblue" d="M207.246,-235.475C191.634,-225.799 165.937,-209.872 147.417,-198.394"/>
<polygon fill="midnightblue" stroke="midnightblue" points="149.073,-195.302 138.729,-193.009 145.385,-201.252 149.073,-195.302"/>
</g>
<!-- Node24 -->
<g id="node24" class="node"><title>Node24</title>
<g id="a_node24"><a xlink:href="Index_8inl.html" target="_top" xlink:title="Core/Utils/Index.inl">
<polygon fill="white" stroke="black" points="164.5,-174 164.5,-193 269.5,-193 269.5,-174 164.5,-174"/>
<text text-anchor="middle" x="217" y="-181" font-family="Helvetica,sans-Serif" font-size="10.00">Core/Utils/Index.inl</text>
</a>
</g>
</g>
<!-- Node22&#45;&gt;Node24 -->
<g id="edge34" class="edge"><title>Node22&#45;&gt;Node24</title>
<path fill="none" stroke="midnightblue" d="M220.427,-235.475C219.863,-227.08 218.982,-213.981 218.255,-203.163"/>
<polygon fill="midnightblue" stroke="midnightblue" points="221.735,-202.752 217.572,-193.009 214.751,-203.221 221.735,-202.752"/>
</g>
<!-- Node25&#45;&gt;Node6 -->
<g id="edge36" class="edge"><title>Node25&#45;&gt;Node6</title>
<path fill="none" stroke="midnightblue" d="M730.552,-173.544C717.971,-158.907 691.122,-129.72 663,-112 639.837,-97.4045 611.176,-86.2309 588.139,-78.6686"/>
<polygon fill="midnightblue" stroke="midnightblue" points="588.907,-75.2405 578.317,-75.5492 586.788,-81.9121 588.907,-75.2405"/>
</g>
<!-- Node25&#45;&gt;Node15 -->
<g id="edge37" class="edge"><title>Node25&#45;&gt;Node15</title>
<path fill="none" stroke="midnightblue" d="M765.366,-173.975C798.554,-163.636 854.651,-146.161 891.758,-134.602"/>
<polygon fill="midnightblue" stroke="midnightblue" points="893.179,-137.825 901.685,-131.509 891.097,-131.142 893.179,-137.825"/>
</g>
<!-- Node25&#45;&gt;Node16 -->
<g id="edge38" class="edge"><title>Node25&#45;&gt;Node16</title>
<path fill="none" stroke="midnightblue" d="M751.181,-173.975C766.074,-164.343 790.544,-148.517 808.273,-137.052"/>
<polygon fill="midnightblue" stroke="midnightblue" points="810.347,-139.879 816.843,-131.509 806.545,-134.001 810.347,-139.879"/>
</g>
<!-- Node26 -->
<g id="node26" class="node"><title>Node26</title>
<polygon fill="white" stroke="#bfbfbf" points="711,-112.5 711,-131.5 765,-131.5 765,-112.5 711,-112.5"/>
<text text-anchor="middle" x="738" y="-119.5" font-family="Helvetica,sans-Serif" font-size="10.00">random</text>
</g>
<!-- Node25&#45;&gt;Node26 -->
<g id="edge39" class="edge"><title>Node25&#45;&gt;Node26</title>
<path fill="none" stroke="midnightblue" d="M738,-173.975C738,-165.58 738,-152.481 738,-141.663"/>
<polygon fill="midnightblue" stroke="midnightblue" points="741.5,-141.509 738,-131.509 734.5,-141.509 741.5,-141.509"/>
</g>
<!-- Node27&#45;&gt;Node19 -->
<g id="edge41" class="edge"><title>Node27&#45;&gt;Node19</title>
<path fill="none" stroke="midnightblue" d="M544.131,-310.751C545.657,-317.858 546.104,-328.136 545.472,-337.101"/>
<polygon fill="midnightblue" stroke="midnightblue" points="541.993,-336.713 544.166,-347.083 548.934,-337.622 541.993,-336.713"/>
</g>
<!-- Node28&#45;&gt;Node18 -->
<g id="edge46" class="edge"><title>Node28&#45;&gt;Node18</title>
<path fill="none" stroke="midnightblue" d="M807.448,-366.516C759.741,-376.019 679.282,-391.395 623.956,-401.601"/>
<polygon fill="midnightblue" stroke="midnightblue" points="623.133,-398.193 613.931,-403.444 624.399,-405.078 623.133,-398.193"/>
</g>
<!-- Node29 -->
<g id="node29" class="node"><title>Node29</title>
<polygon fill="white" stroke="#bfbfbf" points="1079,-112.5 1079,-131.5 1141,-131.5 1141,-112.5 1079,-112.5"/>
<text text-anchor="middle" x="1110" y="-119.5" font-family="Helvetica,sans-Serif" font-size="10.00">algorithm</text>
</g>
<!-- Node28&#45;&gt;Node29 -->
<g id="edge47" class="edge"><title>Node28&#45;&gt;Node29</title>
<path fill="none" stroke="midnightblue" d="M853.557,-347.16C875.232,-318.393 947.56,-225.966 1024,-168 1041.06,-155.063 1062.37,-143.882 1079.51,-135.901"/>
<polygon fill="midnightblue" stroke="midnightblue" points="1081.39,-138.894 1089.06,-131.583 1078.5,-132.516 1081.39,-138.894"/>
</g>
<!-- Node30&#45;&gt;Node5 -->
<g id="edge52" class="edge"><title>Node30&#45;&gt;Node5</title>
<path fill="none" stroke="midnightblue" d="M1027.87,-241.573C868.709,-236.184 517.681,-221.858 468,-199 464.232,-197.266 429.059,-160.794 408.246,-139.015"/>
<polygon fill="midnightblue" stroke="midnightblue" points="410.747,-136.566 401.312,-131.747 405.683,-141.398 410.747,-136.566"/>
</g>
<!-- Node30&#45;&gt;Node14 -->
<g id="edge64" class="edge"><title>Node30&#45;&gt;Node14</title>
<path fill="none" stroke="midnightblue" d="M1070.18,-235.475C1025.81,-224.915 950.164,-206.911 901.668,-195.369"/>
<polygon fill="midnightblue" stroke="midnightblue" points="902.291,-191.92 891.752,-193.009 900.67,-198.729 902.291,-191.92"/>
</g>
<!-- Node30&#45;&gt;Node15 -->
<g id="edge53" class="edge"><title>Node30&#45;&gt;Node15</title>
<path fill="none" stroke="midnightblue" d="M1088.21,-235.364C1071.24,-226.868 1045.21,-213.149 1024,-199 995.355,-179.89 964.666,-154.297 946.153,-138.229"/>
<polygon fill="midnightblue" stroke="midnightblue" points="948.384,-135.53 938.556,-131.574 943.772,-140.796 948.384,-135.53"/>
</g>
<!-- Node30&#45;&gt;Node16 -->
<g id="edge54" class="edge"><title>Node30&#45;&gt;Node16</title>
<path fill="none" stroke="midnightblue" d="M1079.3,-235.431C1053.75,-226.984 1014.27,-213.299 981,-199 935.457,-179.426 884.278,-152.597 854.726,-136.607"/>
<polygon fill="midnightblue" stroke="midnightblue" points="856.029,-133.332 845.572,-131.627 852.683,-139.481 856.029,-133.332"/>
</g>
<!-- Node30&#45;&gt;Node17 -->
<g id="edge55" class="edge"><title>Node30&#45;&gt;Node17</title>
<path fill="none" stroke="midnightblue" d="M1184.18,-240.233C1289.81,-234.329 1467.25,-221.216 1487,-199 1496.15,-188.702 1496.31,-178.153 1487,-168 1457.1,-135.404 1148.51,-137.863 1071.09,-131.703"/>
<polygon fill="midnightblue" stroke="midnightblue" points="1071.37,-128.213 1061.06,-130.68 1070.65,-135.177 1071.37,-128.213"/>
</g>
<!-- Node31 -->
<g id="node31" class="node"><title>Node31</title>
<polygon fill="white" stroke="#bfbfbf" points="1534.5,-174 1534.5,-193 1597.5,-193 1597.5,-174 1534.5,-174"/>
<text text-anchor="middle" x="1566" y="-181" font-family="Helvetica,sans-Serif" font-size="10.00">functional</text>
</g>
<!-- Node30&#45;&gt;Node31 -->
<g id="edge56" class="edge"><title>Node30&#45;&gt;Node31</title>
<path fill="none" stroke="midnightblue" d="M1184.16,-240.103C1267.94,-234.861 1404.49,-223.236 1520,-199 1523.94,-198.173 1528.03,-197.144 1532.07,-196.019"/>
<polygon fill="midnightblue" stroke="midnightblue" points="1533.31,-199.301 1541.89,-193.083 1531.3,-192.594 1533.31,-199.301"/>
</g>
<!-- Node32 -->
<g id="node32" class="node"><title>Node32</title>
<polygon fill="white" stroke="#bfbfbf" points="1033.5,-168.5 1033.5,-198.5 1178.5,-198.5 1178.5,-168.5 1033.5,-168.5"/>
<text text-anchor="start" x="1041.5" y="-186.5" font-family="Helvetica,sans-Serif" font-size="10.00">unsupported/Eigen/Aligned</text>
<text text-anchor="middle" x="1106" y="-175.5" font-family="Helvetica,sans-Serif" font-size="10.00">Vector3</text>
</g>
<!-- Node30&#45;&gt;Node32 -->
<g id="edge57" class="edge"><title>Node30&#45;&gt;Node32</title>
<path fill="none" stroke="midnightblue" d="M1106,-235.475C1106,-228.471 1106,-218.192 1106,-208.696"/>
<polygon fill="midnightblue" stroke="midnightblue" points="1109.5,-208.523 1106,-198.523 1102.5,-208.523 1109.5,-208.523"/>
</g>
<!-- Node33 -->
<g id="node33" class="node"><title>Node33</title>
<g id="a_node33"><a xlink:href="Math_8hpp.html" target="_top" xlink:title="Core/Math/Math.hpp">
<polygon fill="white" stroke="black" points="1197,-174 1197,-193 1311,-193 1311,-174 1197,-174"/>
<text text-anchor="middle" x="1254" y="-181" font-family="Helvetica,sans-Serif" font-size="10.00">Core/Math/Math.hpp</text>
</a>
</g>
</g>
<!-- Node30&#45;&gt;Node33 -->
<g id="edge58" class="edge"><title>Node30&#45;&gt;Node33</title>
<path fill="none" stroke="midnightblue" d="M1127.2,-235.475C1152.37,-225.357 1194.54,-208.405 1223.28,-196.851"/>
<polygon fill="midnightblue" stroke="midnightblue" points="1224.86,-199.987 1232.83,-193.009 1222.25,-193.492 1224.86,-199.987"/>
</g>
<!-- Node36 -->
<g id="node36" class="node"><title>Node36</title>
<g id="a_node36"><a xlink:href="LinearAlgebra_8inl.html" target="_top" xlink:title="Core/Math/LinearAlgebra.inl">
<polygon fill="white" stroke="black" points="1329.5,-174 1329.5,-193 1478.5,-193 1478.5,-174 1329.5,-174"/>
<text text-anchor="middle" x="1404" y="-181" font-family="Helvetica,sans-Serif" font-size="10.00">Core/Math/LinearAlgebra.inl</text>
</a>
</g>
</g>
<!-- Node30&#45;&gt;Node36 -->
<g id="edge65" class="edge"><title>Node30&#45;&gt;Node36</title>
<path fill="none" stroke="midnightblue" d="M1143.8,-235.475C1195.02,-224.783 1286.67,-206.458 1346.45,-194.937"/>
<polygon fill="midnightblue" stroke="midnightblue" points="1347.33,-198.332 1356.49,-193.009 1346.01,-191.458 1347.33,-198.332"/>
</g>
<!-- Node33&#45;&gt;Node5 -->
<g id="edge59" class="edge"><title>Node33&#45;&gt;Node5</title>
<path fill="none" stroke="midnightblue" d="M1219.76,-173.974C1209.3,-171.673 1197.74,-169.428 1187,-168 878.198,-126.919 797.683,-154.851 487,-132 475.745,-131.172 463.747,-130.139 452.218,-129.07"/>
<polygon fill="midnightblue" stroke="midnightblue" points="452.524,-125.584 442.239,-128.127 451.865,-132.553 452.524,-125.584"/>
</g>
<!-- Node33&#45;&gt;Node29 -->
<g id="edge60" class="edge"><title>Node33&#45;&gt;Node29</title>
<path fill="none" stroke="midnightblue" d="M1233.37,-173.975C1208.88,-163.857 1167.85,-146.905 1139.89,-135.351"/>
<polygon fill="midnightblue" stroke="midnightblue" points="1141.17,-132.093 1130.59,-131.509 1138.5,-138.563 1141.17,-132.093"/>
</g>
<!-- Node34 -->
<g id="node34" class="node"><title>Node34</title>
<polygon fill="white" stroke="#bfbfbf" points="1159.5,-112.5 1159.5,-131.5 1206.5,-131.5 1206.5,-112.5 1159.5,-112.5"/>
<text text-anchor="middle" x="1183" y="-119.5" font-family="Helvetica,sans-Serif" font-size="10.00">cmath</text>
</g>
<!-- Node33&#45;&gt;Node34 -->
<g id="edge61" class="edge"><title>Node33&#45;&gt;Node34</title>
<path fill="none" stroke="midnightblue" d="M1243.83,-173.975C1232.65,-164.608 1214.48,-149.384 1200.91,-138.008"/>
<polygon fill="midnightblue" stroke="midnightblue" points="1203.07,-135.25 1193.15,-131.509 1198.57,-140.615 1203.07,-135.25"/>
</g>
<!-- Node35 -->
<g id="node35" class="node"><title>Node35</title>
<g id="a_node35"><a xlink:href="Math_8inl.html" target="_top" xlink:title="Core/Math/Math.inl">
<polygon fill="white" stroke="black" points="1224.5,-112.5 1224.5,-131.5 1331.5,-131.5 1331.5,-112.5 1224.5,-112.5"/>
<text text-anchor="middle" x="1278" y="-119.5" font-family="Helvetica,sans-Serif" font-size="10.00">Core/Math/Math.inl</text>
</a>
</g>
</g>
<!-- Node33&#45;&gt;Node35 -->
<g id="edge62" class="edge"><title>Node33&#45;&gt;Node35</title>
<path fill="none" stroke="midnightblue" d="M1252.54,-173.975C1254.16,-165.227 1259.32,-151.369 1264.82,-140.309"/>
<polygon fill="midnightblue" stroke="midnightblue" points="1267.91,-141.957 1269.67,-131.509 1261.78,-138.579 1267.91,-141.957"/>
</g>
<!-- Node35&#45;&gt;Node33 -->
<g id="edge63" class="edge"><title>Node35&#45;&gt;Node33</title>
<path fill="none" stroke="midnightblue" d="M1279.46,-131.509C1277.85,-140.251 1272.69,-154.108 1267.19,-165.171"/>
<polygon fill="midnightblue" stroke="midnightblue" points="1264.1,-163.527 1262.34,-173.975 1270.23,-166.904 1264.1,-163.527"/>
</g>
<!-- Node36&#45;&gt;Node30 -->
<g id="edge66" class="edge"><title>Node36&#45;&gt;Node30</title>
<path fill="none" stroke="midnightblue" d="M1366.28,-193.009C1315.1,-203.694 1223.45,-222.018 1163.64,-233.546"/>
<polygon fill="midnightblue" stroke="midnightblue" points="1162.76,-230.152 1153.6,-235.475 1164.08,-237.026 1162.76,-230.152"/>
</g>
</g>
</svg>
