<?xml version="1.0" encoding="UTF-8" standalone="no"?>
<!DOCTYPE svg PUBLIC "-//W3C//DTD SVG 1.1//EN"
 "http://www.w3.org/Graphics/SVG/1.1/DTD/svg11.dtd">
<!-- Generated by graphviz version 2.38.0 (20140413.2041)
 -->
<!-- Title: /home/travis/build/STORM&#45;IRIT/Radium&#45;Engine/src/Core/Animation/PoseOperation.cpp Pages: 1 -->
<svg width="507pt" height="397pt"
 viewBox="0.00 0.00 506.50 397.00" xmlns="http://www.w3.org/2000/svg" xmlns:xlink="http://www.w3.org/1999/xlink">
<g id="graph0" class="graph" transform="scale(1 1) rotate(0) translate(4 393)">
<title>/home/travis/build/STORM&#45;IRIT/Radium&#45;Engine/src/Core/Animation/PoseOperation.cpp</title>
<polygon fill="white" stroke="none" points="-4,4 -4,-393 502.5,-393 502.5,4 -4,4"/>
<!-- Node1 -->
<g id="node1" class="node"><title>Node1</title>
<polygon fill="#bfbfbf" stroke="black" points="89.5,-347.5 89.5,-388.5 294.5,-388.5 294.5,-347.5 89.5,-347.5"/>
<text text-anchor="start" x="97.5" y="-376.5" font-family="Helvetica,sans-Serif" font-size="10.00">/home/travis/build</text>
<text text-anchor="start" x="97.5" y="-365.5" font-family="Helvetica,sans-Serif" font-size="10.00">/STORM&#45;IRIT/Radium&#45;Engine</text>
<text text-anchor="middle" x="192" y="-354.5" font-family="Helvetica,sans-Serif" font-size="10.00">/src/Core/Animation/PoseOperation.cpp</text>
</g>
<!-- Node2 -->
<g id="node2" class="node"><title>Node2</title>
<g id="a_node2"><a xlink:href="Interpolation_8hpp.html" target="_top" xlink:title="Core/Animation/Interpolation.hpp">
<polygon fill="white" stroke="black" points="104.5,-291.5 104.5,-310.5 279.5,-310.5 279.5,-291.5 104.5,-291.5"/>
<text text-anchor="middle" x="192" y="-298.5" font-family="Helvetica,sans-Serif" font-size="10.00">Core/Animation/Interpolation.hpp</text>
</a>
</g>
</g>
<!-- Node1&#45;&gt;Node2 -->
<g id="edge1" class="edge"><title>Node1&#45;&gt;Node2</title>
<path fill="none" stroke="midnightblue" d="M192,-347.498C192,-339.065 192,-329.235 192,-320.874"/>
<polygon fill="midnightblue" stroke="midnightblue" points="195.5,-320.652 192,-310.652 188.5,-320.653 195.5,-320.652"/>
</g>
<!-- Node12 -->
<g id="node12" class="node"><title>Node12</title>
<polygon fill="white" stroke="#bfbfbf" points="0,-174 0,-193 94,-193 94,-174 0,-174"/>
<text text-anchor="middle" x="47" y="-181" font-family="Helvetica,sans-Serif" font-size="10.00">Eigen/Geometry</text>
</g>
<!-- Node1&#45;&gt;Node12 -->
<g id="edge20" class="edge"><title>Node1&#45;&gt;Node12</title>
<path fill="none" stroke="midnightblue" d="M143.629,-347.378C126.393,-338.416 108.041,-326.329 95,-311 67.6972,-278.908 55.0897,-229.683 49.9885,-203.09"/>
<polygon fill="midnightblue" stroke="midnightblue" points="53.4268,-202.433 48.2409,-193.194 46.5335,-203.651 53.4268,-202.433"/>
</g>
<!-- Node14 -->
<g id="node14" class="node"><title>Node14</title>
<g id="a_node14"><a xlink:href="PoseOperation_8hpp.html" target="_top" xlink:title="Core/Animation/PoseOperation.hpp">
<polygon fill="white" stroke="black" points="297.5,-291.5 297.5,-310.5 482.5,-310.5 482.5,-291.5 297.5,-291.5"/>
<text text-anchor="middle" x="390" y="-298.5" font-family="Helvetica,sans-Serif" font-size="10.00">Core/Animation/PoseOperation.hpp</text>
</a>
</g>
</g>
<!-- Node1&#45;&gt;Node14 -->
<g id="edge13" class="edge"><title>Node1&#45;&gt;Node14</title>
<path fill="none" stroke="midnightblue" d="M251.407,-347.498C284.93,-336.493 325.706,-323.106 354.321,-313.713"/>
<polygon fill="midnightblue" stroke="midnightblue" points="355.494,-317.012 363.903,-310.567 353.311,-310.361 355.494,-317.012"/>
</g>
<!-- Node3 -->
<g id="node3" class="node"><title>Node3</title>
<g id="a_node3"><a xlink:href="Types_8hpp.html" target="_top" xlink:title="Core/Types.hpp">
<polygon fill="white" stroke="black" points="164.5,-235.5 164.5,-254.5 253.5,-254.5 253.5,-235.5 164.5,-235.5"/>
<text text-anchor="middle" x="209" y="-242.5" font-family="Helvetica,sans-Serif" font-size="10.00">Core/Types.hpp</text>
</a>
</g>
</g>
<!-- Node2&#45;&gt;Node3 -->
<g id="edge2" class="edge"><title>Node2&#45;&gt;Node3</title>
<path fill="none" stroke="midnightblue" d="M194.807,-291.083C197.085,-283.849 200.371,-273.409 203.208,-264.397"/>
<polygon fill="midnightblue" stroke="midnightblue" points="206.581,-265.341 206.245,-254.751 199.904,-263.239 206.581,-265.341"/>
</g>
<!-- Node4 -->
<g id="node4" class="node"><title>Node4</title>
<g id="a_node4"><a xlink:href="RaCore_8hpp.html" target="_top" xlink:title="Core/RaCore.hpp">
<polygon fill="white" stroke="black" points="220,-112.5 220,-131.5 318,-131.5 318,-112.5 220,-112.5"/>
<text text-anchor="middle" x="269" y="-119.5" font-family="Helvetica,sans-Serif" font-size="10.00">Core/RaCore.hpp</text>
</a>
</g>
</g>
<!-- Node3&#45;&gt;Node4 -->
<g id="edge3" class="edge"><title>Node3&#45;&gt;Node4</title>
<path fill="none" stroke="midnightblue" d="M211.759,-235.304C216.475,-220.905 226.77,-191.379 239,-168 244.06,-158.328 250.71,-148.161 256.464,-139.943"/>
<polygon fill="midnightblue" stroke="midnightblue" points="259.45,-141.785 262.446,-131.622 253.766,-137.699 259.45,-141.785"/>
</g>
<!-- Node11 -->
<g id="node11" class="node"><title>Node11</title>
<polygon fill="white" stroke="#bfbfbf" points="248,-174 248,-193 316,-193 316,-174 248,-174"/>
<text text-anchor="middle" x="282" y="-181" font-family="Helvetica,sans-Serif" font-size="10.00">Eigen/Core</text>
</g>
<!-- Node3&#45;&gt;Node11 -->
<g id="edge10" class="edge"><title>Node3&#45;&gt;Node11</title>
<path fill="none" stroke="midnightblue" d="M219.459,-235.475C230.951,-226.108 249.63,-210.884 263.587,-199.508"/>
<polygon fill="midnightblue" stroke="midnightblue" points="266.02,-202.04 271.56,-193.009 261.598,-196.614 266.02,-202.04"/>
</g>
<!-- Node3&#45;&gt;Node12 -->
<g id="edge11" class="edge"><title>Node3&#45;&gt;Node12</title>
<path fill="none" stroke="midnightblue" d="M185.789,-235.475C158.001,-225.269 111.277,-208.108 79.8062,-196.549"/>
<polygon fill="midnightblue" stroke="midnightblue" points="80.7612,-193.171 70.1676,-193.009 78.3478,-199.742 80.7612,-193.171"/>
</g>
<!-- Node13 -->
<g id="node13" class="node"><title>Node13</title>
<polygon fill="white" stroke="#bfbfbf" points="112,-174 112,-193 192,-193 192,-174 112,-174"/>
<text text-anchor="middle" x="152" y="-181" font-family="Helvetica,sans-Serif" font-size="10.00">Eigen/Sparse</text>
</g>
<!-- Node3&#45;&gt;Node13 -->
<g id="edge12" class="edge"><title>Node3&#45;&gt;Node13</title>
<path fill="none" stroke="midnightblue" d="M200.833,-235.475C192.114,-226.373 178.096,-211.741 167.311,-200.483"/>
<polygon fill="midnightblue" stroke="midnightblue" points="169.597,-197.809 160.152,-193.009 164.542,-202.651 169.597,-197.809"/>
</g>
<!-- Node5 -->
<g id="node5" class="node"><title>Node5</title>
<g id="a_node5"><a xlink:href="CoreMacros_8hpp.html" target="_top" xlink:title="Core/CoreMacros.hpp">
<polygon fill="white" stroke="black" points="209,-56.5 209,-75.5 329,-75.5 329,-56.5 209,-56.5"/>
<text text-anchor="middle" x="269" y="-63.5" font-family="Helvetica,sans-Serif" font-size="10.00">Core/CoreMacros.hpp</text>
</a>
</g>
</g>
<!-- Node4&#45;&gt;Node5 -->
<g id="edge4" class="edge"><title>Node4&#45;&gt;Node5</title>
<path fill="none" stroke="midnightblue" d="M269,-112.083C269,-105.006 269,-94.8611 269,-85.9865"/>
<polygon fill="midnightblue" stroke="midnightblue" points="272.5,-85.751 269,-75.7511 265.5,-85.7511 272.5,-85.751"/>
</g>
<!-- Node6 -->
<g id="node6" class="node"><title>Node6</title>
<polygon fill="white" stroke="#bfbfbf" points="106,-0.5 106,-19.5 158,-19.5 158,-0.5 106,-0.5"/>
<text text-anchor="middle" x="132" y="-7.5" font-family="Helvetica,sans-Serif" font-size="10.00">cassert</text>
</g>
<!-- Node5&#45;&gt;Node6 -->
<g id="edge5" class="edge"><title>Node5&#45;&gt;Node6</title>
<path fill="none" stroke="midnightblue" d="M247.292,-56.4435C224.645,-47.5171 188.928,-33.4387 163.248,-23.3168"/>
<polygon fill="midnightblue" stroke="midnightblue" points="164.193,-19.9273 153.606,-19.5164 161.626,-26.4397 164.193,-19.9273"/>
</g>
<!-- Node7 -->
<g id="node7" class="node"><title>Node7</title>
<polygon fill="white" stroke="#bfbfbf" points="176.5,-0.5 176.5,-19.5 221.5,-19.5 221.5,-0.5 176.5,-0.5"/>
<text text-anchor="middle" x="199" y="-7.5" font-family="Helvetica,sans-Serif" font-size="10.00">cstdio</text>
</g>
<!-- Node5&#45;&gt;Node7 -->
<g id="edge6" class="edge"><title>Node5&#45;&gt;Node7</title>
<path fill="none" stroke="midnightblue" d="M257.753,-56.324C247.203,-48.1849 231.199,-35.8395 218.558,-26.0874"/>
<polygon fill="midnightblue" stroke="midnightblue" points="220.507,-23.1707 210.451,-19.8339 216.231,-28.7132 220.507,-23.1707"/>
</g>
<!-- Node8 -->
<g id="node8" class="node"><title>Node8</title>
<polygon fill="white" stroke="#bfbfbf" points="239.5,-0.5 239.5,-19.5 298.5,-19.5 298.5,-0.5 239.5,-0.5"/>
<text text-anchor="middle" x="269" y="-7.5" font-family="Helvetica,sans-Serif" font-size="10.00">iostream</text>
</g>
<!-- Node5&#45;&gt;Node8 -->
<g id="edge7" class="edge"><title>Node5&#45;&gt;Node8</title>
<path fill="none" stroke="midnightblue" d="M269,-56.083C269,-49.0059 269,-38.8611 269,-29.9865"/>
<polygon fill="midnightblue" stroke="midnightblue" points="272.5,-29.751 269,-19.7511 265.5,-29.7511 272.5,-29.751"/>
</g>
<!-- Node9 -->
<g id="node9" class="node"><title>Node9</title>
<polygon fill="white" stroke="#bfbfbf" points="317,-0.5 317,-19.5 373,-19.5 373,-0.5 317,-0.5"/>
<text text-anchor="middle" x="345" y="-7.5" font-family="Helvetica,sans-Serif" font-size="10.00">sstream</text>
</g>
<!-- Node5&#45;&gt;Node9 -->
<g id="edge8" class="edge"><title>Node5&#45;&gt;Node9</title>
<path fill="none" stroke="midnightblue" d="M281.211,-56.324C292.776,-48.1066 310.375,-35.6017 324.161,-25.8069"/>
<polygon fill="midnightblue" stroke="midnightblue" points="326.443,-28.4791 332.567,-19.8339 322.388,-22.7729 326.443,-28.4791"/>
</g>
<!-- Node10 -->
<g id="node10" class="node"><title>Node10</title>
<polygon fill="white" stroke="#bfbfbf" points="391,-0.5 391,-19.5 439,-19.5 439,-0.5 391,-0.5"/>
<text text-anchor="middle" x="415" y="-7.5" font-family="Helvetica,sans-Serif" font-size="10.00">thread</text>
</g>
<!-- Node5&#45;&gt;Node10 -->
<g id="edge9" class="edge"><title>Node5&#45;&gt;Node10</title>
<path fill="none" stroke="midnightblue" d="M292.134,-56.4435C316.482,-47.4381 355.007,-33.1891 382.423,-23.049"/>
<polygon fill="midnightblue" stroke="midnightblue" points="383.809,-26.2681 391.974,-19.5164 381.381,-19.7028 383.809,-26.2681"/>
</g>
<!-- Node14&#45;&gt;Node3 -->
<g id="edge19" class="edge"><title>Node14&#45;&gt;Node3</title>
<path fill="none" stroke="midnightblue" d="M361.32,-291.444C330.473,-282.241 281.272,-267.562 247.171,-257.388"/>
<polygon fill="midnightblue" stroke="midnightblue" points="248.129,-254.021 237.546,-254.516 246.128,-260.729 248.129,-254.021"/>
</g>
<!-- Node15 -->
<g id="node15" class="node"><title>Node15</title>
<g id="a_node15"><a xlink:href="Pose_8hpp.html" target="_top" xlink:title="Core/Animation/Pose.hpp">
<polygon fill="white" stroke="black" points="333,-235.5 333,-254.5 471,-254.5 471,-235.5 333,-235.5"/>
<text text-anchor="middle" x="402" y="-242.5" font-family="Helvetica,sans-Serif" font-size="10.00">Core/Animation/Pose.hpp</text>
</a>
</g>
</g>
<!-- Node14&#45;&gt;Node15 -->
<g id="edge14" class="edge"><title>Node14&#45;&gt;Node15</title>
<path fill="none" stroke="midnightblue" d="M391.982,-291.083C393.572,-283.927 395.859,-273.635 397.846,-264.691"/>
<polygon fill="midnightblue" stroke="midnightblue" points="401.303,-265.272 400.055,-254.751 394.469,-263.754 401.303,-265.272"/>
</g>
<!-- Node16 -->
<g id="node16" class="node"><title>Node16</title>
<g id="a_node16"><a xlink:href="AlignedStdVector_8hpp.html" target="_top" xlink:title="Core/Containers/AlignedStd\lVector.hpp">
<polygon fill="white" stroke="black" points="333.5,-168.5 333.5,-198.5 482.5,-198.5 482.5,-168.5 333.5,-168.5"/>
<text text-anchor="start" x="341.5" y="-186.5" font-family="Helvetica,sans-Serif" font-size="10.00">Core/Containers/AlignedStd</text>
<text text-anchor="middle" x="408" y="-175.5" font-family="Helvetica,sans-Serif" font-size="10.00">Vector.hpp</text>
</a>
</g>
</g>
<!-- Node15&#45;&gt;Node16 -->
<g id="edge15" class="edge"><title>Node15&#45;&gt;Node16</title>
<path fill="none" stroke="midnightblue" d="M402.86,-235.475C403.566,-228.471 404.602,-218.192 405.56,-208.696"/>
<polygon fill="midnightblue" stroke="midnightblue" points="409.065,-208.824 406.586,-198.523 402.1,-208.121 409.065,-208.824"/>
</g>
<!-- Node16&#45;&gt;Node4 -->
<g id="edge16" class="edge"><title>Node16&#45;&gt;Node4</title>
<path fill="none" stroke="midnightblue" d="M375.059,-168.399C351.841,-158.461 321.014,-145.265 298.581,-135.662"/>
<polygon fill="midnightblue" stroke="midnightblue" points="299.796,-132.375 289.226,-131.658 297.042,-138.811 299.796,-132.375"/>
</g>
<!-- Node17 -->
<g id="node17" class="node"><title>Node17</title>
<polygon fill="white" stroke="#bfbfbf" points="405.5,-112.5 405.5,-131.5 498.5,-131.5 498.5,-112.5 405.5,-112.5"/>
<text text-anchor="middle" x="452" y="-119.5" font-family="Helvetica,sans-Serif" font-size="10.00">Eigen/StdVector</text>
</g>
<!-- Node16&#45;&gt;Node17 -->
<g id="edge17" class="edge"><title>Node16&#45;&gt;Node17</title>
<path fill="none" stroke="midnightblue" d="M418.427,-168.399C424.755,-159.842 432.869,-148.871 439.534,-139.857"/>
<polygon fill="midnightblue" stroke="midnightblue" points="442.466,-141.779 445.598,-131.658 436.838,-137.617 442.466,-141.779"/>
</g>
<!-- Node18 -->
<g id="node18" class="node"><title>Node18</title>
<polygon fill="white" stroke="#bfbfbf" points="340.5,-112.5 340.5,-131.5 387.5,-131.5 387.5,-112.5 340.5,-112.5"/>
<text text-anchor="middle" x="364" y="-119.5" font-family="Helvetica,sans-Serif" font-size="10.00">vector</text>
</g>
<!-- Node16&#45;&gt;Node18 -->
<g id="edge18" class="edge"><title>Node16&#45;&gt;Node18</title>
<path fill="none" stroke="midnightblue" d="M397.573,-168.399C391.245,-159.842 383.131,-148.871 376.466,-139.857"/>
<polygon fill="midnightblue" stroke="midnightblue" points="379.162,-137.617 370.402,-131.658 373.534,-141.779 379.162,-137.617"/>
</g>
</g>
</svg>
