<?xml version="1.0" encoding="UTF-8" standalone="no"?>
<!DOCTYPE svg PUBLIC "-//W3C//DTD SVG 1.1//EN"
 "http://www.w3.org/Graphics/SVG/1.1/DTD/svg11.dtd">
<!-- Generated by graphviz version 2.38.0 (20140413.2041)
 -->
<!-- Title: /home/travis/build/STORM&#45;IRIT/Radium&#45;Engine/src/Engine/Renderer/Renderer.hpp Pages: 1 -->
<svg width="2790pt" height="406pt"
 viewBox="0.00 0.00 2790.00 406.00" xmlns="http://www.w3.org/2000/svg" xmlns:xlink="http://www.w3.org/1999/xlink">
<g id="graph0" class="graph" transform="scale(1 1) rotate(0) translate(4 402)">
<title>/home/travis/build/STORM&#45;IRIT/Radium&#45;Engine/src/Engine/Renderer/Renderer.hpp</title>
<polygon fill="white" stroke="none" points="-4,4 -4,-402 2786,-402 2786,4 -4,4"/>
<!-- Node1 -->
<g id="node1" class="node"><title>Node1</title>
<polygon fill="#bfbfbf" stroke="black" points="564.5,-356.5 564.5,-397.5 745.5,-397.5 745.5,-356.5 564.5,-356.5"/>
<text text-anchor="start" x="572.5" y="-385.5" font-family="Helvetica,sans-Serif" font-size="10.00">/home/travis/build</text>
<text text-anchor="start" x="572.5" y="-374.5" font-family="Helvetica,sans-Serif" font-size="10.00">/STORM&#45;IRIT/Radium&#45;Engine</text>
<text text-anchor="middle" x="655" y="-363.5" font-family="Helvetica,sans-Serif" font-size="10.00">/src/Engine/Renderer/Renderer.hpp</text>
</g>
<!-- Node2 -->
<g id="node2" class="node"><title>Node2</title>
<g id="a_node2"><a xlink:href="Renderer_8cpp.html" target="_top" xlink:title="/home/travis/build\l/STORM&#45;IRIT/Radium&#45;Engine\l/src/Engine/Renderer/Renderer.cpp">
<polygon fill="white" stroke="black" points="0,-273 0,-314 180,-314 180,-273 0,-273"/>
<text text-anchor="start" x="8" y="-302" font-family="Helvetica,sans-Serif" font-size="10.00">/home/travis/build</text>
<text text-anchor="start" x="8" y="-291" font-family="Helvetica,sans-Serif" font-size="10.00">/STORM&#45;IRIT/Radium&#45;Engine</text>
<text text-anchor="middle" x="90" y="-280" font-family="Helvetica,sans-Serif" font-size="10.00">/src/Engine/Renderer/Renderer.cpp</text>
</a>
</g>
</g>
<!-- Node1&#45;&gt;Node2 -->
<g id="edge1" class="edge"><title>Node1&#45;&gt;Node2</title>
<path fill="none" stroke="midnightblue" d="M554.097,-367.764C459.311,-359.11 313.785,-343.462 189,-320 179.93,-318.295 170.46,-316.23 161.126,-314.022"/>
<polygon fill="midnightblue" stroke="midnightblue" points="553.978,-371.267 564.252,-368.682 554.608,-364.295 553.978,-371.267"/>
</g>
<!-- Node3 -->
<g id="node3" class="node"><title>Node3</title>
<g id="a_node3"><a xlink:href="ForwardRenderer_8hpp.html" target="_top" xlink:title="/home/travis/build\l/STORM&#45;IRIT/Radium&#45;Engine\l/src/Engine/Renderer/Renderers\l/ForwardRenderer.hpp">
<polygon fill="white" stroke="black" points="198,-267.5 198,-319.5 364,-319.5 364,-267.5 198,-267.5"/>
<text text-anchor="start" x="206" y="-307.5" font-family="Helvetica,sans-Serif" font-size="10.00">/home/travis/build</text>
<text text-anchor="start" x="206" y="-296.5" font-family="Helvetica,sans-Serif" font-size="10.00">/STORM&#45;IRIT/Radium&#45;Engine</text>
<text text-anchor="start" x="206" y="-285.5" font-family="Helvetica,sans-Serif" font-size="10.00">/src/Engine/Renderer/Renderers</text>
<text text-anchor="middle" x="281" y="-274.5" font-family="Helvetica,sans-Serif" font-size="10.00">/ForwardRenderer.hpp</text>
</a>
</g>
</g>
<!-- Node1&#45;&gt;Node3 -->
<g id="edge2" class="edge"><title>Node1&#45;&gt;Node3</title>
<path fill="none" stroke="midnightblue" d="M554.294,-355.855C503.705,-345.528 441.514,-332.516 386,-320 378.863,-318.391 371.464,-316.68 364.048,-314.936"/>
<polygon fill="midnightblue" stroke="midnightblue" points="553.754,-359.317 564.251,-357.884 555.151,-352.458 553.754,-359.317"/>
</g>
<!-- Node5 -->
<g id="node5" class="node"><title>Node5</title>
<g id="a_node5"><a xlink:href="Viewer_8cpp.html" target="_top" xlink:title="/home/travis/build\l/STORM&#45;IRIT/Radium&#45;Engine\l/src/GuiBase/Viewer/Viewer.cpp">
<polygon fill="white" stroke="black" points="190.5,-184 190.5,-225 355.5,-225 355.5,-184 190.5,-184"/>
<text text-anchor="start" x="198.5" y="-213" font-family="Helvetica,sans-Serif" font-size="10.00">/home/travis/build</text>
<text text-anchor="start" x="198.5" y="-202" font-family="Helvetica,sans-Serif" font-size="10.00">/STORM&#45;IRIT/Radium&#45;Engine</text>
<text text-anchor="middle" x="273" y="-191" font-family="Helvetica,sans-Serif" font-size="10.00">/src/GuiBase/Viewer/Viewer.cpp</text>
</a>
</g>
</g>
<!-- Node1&#45;&gt;Node5 -->
<g id="edge33" class="edge"><title>Node1&#45;&gt;Node5</title>
<path fill="none" stroke="midnightblue" d="M554.604,-360.878C515.474,-352.385 471.186,-339.442 434,-320 402.173,-303.359 401.949,-288.256 373,-267 352.3,-251.801 327.752,-236.665 308.158,-225.212"/>
<polygon fill="midnightblue" stroke="midnightblue" points="553.928,-364.312 564.434,-362.943 555.367,-357.462 553.928,-364.312"/>
</g>
<!-- Node6 -->
<g id="node6" class="node"><title>Node6</title>
<g id="a_node6"><a xlink:href="FrameTimerData_8hpp.html" target="_top" xlink:title="/home/travis/build\l/STORM&#45;IRIT/Radium&#45;Engine\l/src/GuiBase/TimerData/FrameTimer\lData.hpp">
<polygon fill="white" stroke="black" points="689,-267.5 689,-319.5 879,-319.5 879,-267.5 689,-267.5"/>
<text text-anchor="start" x="697" y="-307.5" font-family="Helvetica,sans-Serif" font-size="10.00">/home/travis/build</text>
<text text-anchor="start" x="697" y="-296.5" font-family="Helvetica,sans-Serif" font-size="10.00">/STORM&#45;IRIT/Radium&#45;Engine</text>
<text text-anchor="start" x="697" y="-285.5" font-family="Helvetica,sans-Serif" font-size="10.00">/src/GuiBase/TimerData/FrameTimer</text>
<text text-anchor="middle" x="784" y="-274.5" font-family="Helvetica,sans-Serif" font-size="10.00">Data.hpp</text>
</a>
</g>
</g>
<!-- Node1&#45;&gt;Node6 -->
<g id="edge5" class="edge"><title>Node1&#45;&gt;Node6</title>
<path fill="none" stroke="midnightblue" d="M694.378,-351.122C710.133,-341.168 728.258,-329.717 744.068,-319.728"/>
<polygon fill="midnightblue" stroke="midnightblue" points="692.483,-348.179 685.899,-356.479 696.222,-354.096 692.483,-348.179"/>
</g>
<!-- Node10 -->
<g id="node10" class="node"><title>Node10</title>
<g id="a_node10"><a xlink:href="PickingManager_8hpp.html" target="_top" xlink:title="/home/travis/build\l/STORM&#45;IRIT/Radium&#45;Engine\l/src/GuiBase/Utils/PickingManager.hpp">
<polygon fill="white" stroke="black" points="1445.5,-273 1445.5,-314 1644.5,-314 1644.5,-273 1445.5,-273"/>
<text text-anchor="start" x="1453.5" y="-302" font-family="Helvetica,sans-Serif" font-size="10.00">/home/travis/build</text>
<text text-anchor="start" x="1453.5" y="-291" font-family="Helvetica,sans-Serif" font-size="10.00">/STORM&#45;IRIT/Radium&#45;Engine</text>
<text text-anchor="middle" x="1545" y="-280" font-family="Helvetica,sans-Serif" font-size="10.00">/src/GuiBase/Utils/PickingManager.hpp</text>
</a>
</g>
</g>
<!-- Node1&#45;&gt;Node10 -->
<g id="edge9" class="edge"><title>Node1&#45;&gt;Node10</title>
<path fill="none" stroke="midnightblue" d="M755.696,-366.779C927.364,-351.059 1274.65,-319.257 1445.5,-303.612"/>
<polygon fill="midnightblue" stroke="midnightblue" points="755.288,-363.302 745.649,-367.699 755.927,-370.272 755.288,-363.302"/>
</g>
<!-- Node26 -->
<g id="node26" class="node"><title>Node26</title>
<g id="a_node26"><a xlink:href="Viewer_8hpp.html" target="_top" xlink:title="/home/travis/build\l/STORM&#45;IRIT/Radium&#45;Engine\l/src/GuiBase/Viewer/Viewer.hpp">
<polygon fill="white" stroke="black" points="443,-273 443,-314 609,-314 609,-273 443,-273"/>
<text text-anchor="start" x="451" y="-302" font-family="Helvetica,sans-Serif" font-size="10.00">/home/travis/build</text>
<text text-anchor="start" x="451" y="-291" font-family="Helvetica,sans-Serif" font-size="10.00">/STORM&#45;IRIT/Radium&#45;Engine</text>
<text text-anchor="middle" x="526" y="-280" font-family="Helvetica,sans-Serif" font-size="10.00">/src/GuiBase/Viewer/Viewer.hpp</text>
</a>
</g>
</g>
<!-- Node1&#45;&gt;Node26 -->
<g id="edge34" class="edge"><title>Node1&#45;&gt;Node26</title>
<path fill="none" stroke="midnightblue" d="M615.472,-351.027C596.717,-339.178 574.63,-325.224 557.094,-314.144"/>
<polygon fill="midnightblue" stroke="midnightblue" points="613.778,-354.096 624.101,-356.479 617.517,-348.179 613.778,-354.096"/>
</g>
<!-- Node28 -->
<g id="node28" class="node"><title>Node28</title>
<g id="a_node28"><a xlink:href="MeshPaintComponent_8hpp.html" target="_top" xlink:title="/home/travis/build\l/STORM&#45;IRIT/Radium&#45;Engine\l/Plugins/MeshPaint/src/MeshPaint\lComponent.hpp">
<polygon fill="white" stroke="black" points="2455,-267.5 2455,-319.5 2629,-319.5 2629,-267.5 2455,-267.5"/>
<text text-anchor="start" x="2463" y="-307.5" font-family="Helvetica,sans-Serif" font-size="10.00">/home/travis/build</text>
<text text-anchor="start" x="2463" y="-296.5" font-family="Helvetica,sans-Serif" font-size="10.00">/STORM&#45;IRIT/Radium&#45;Engine</text>
<text text-anchor="start" x="2463" y="-285.5" font-family="Helvetica,sans-Serif" font-size="10.00">/Plugins/MeshPaint/src/MeshPaint</text>
<text text-anchor="middle" x="2542" y="-274.5" font-family="Helvetica,sans-Serif" font-size="10.00">Component.hpp</text>
</a>
</g>
</g>
<!-- Node1&#45;&gt;Node28 -->
<g id="edge39" class="edge"><title>Node1&#45;&gt;Node28</title>
<path fill="none" stroke="midnightblue" d="M756.122,-375.871C1084.12,-374.977 2116.29,-368.296 2446,-320 2448.9,-319.575 2451.84,-319.094 2454.8,-318.567"/>
<polygon fill="midnightblue" stroke="midnightblue" points="755.679,-372.372 745.688,-375.898 755.697,-379.372 755.679,-372.372"/>
</g>
<!-- Node31 -->
<g id="node31" class="node"><title>Node31</title>
<g id="a_node31"><a xlink:href="MeshPaintSystem_8hpp.html" target="_top" xlink:title="/home/travis/build\l/STORM&#45;IRIT/Radium&#45;Engine\l/Plugins/MeshPaint/src/MeshPaint\lSystem.hpp">
<polygon fill="white" stroke="black" points="2263,-267.5 2263,-319.5 2437,-319.5 2437,-267.5 2263,-267.5"/>
<text text-anchor="start" x="2271" y="-307.5" font-family="Helvetica,sans-Serif" font-size="10.00">/home/travis/build</text>
<text text-anchor="start" x="2271" y="-296.5" font-family="Helvetica,sans-Serif" font-size="10.00">/STORM&#45;IRIT/Radium&#45;Engine</text>
<text text-anchor="start" x="2271" y="-285.5" font-family="Helvetica,sans-Serif" font-size="10.00">/Plugins/MeshPaint/src/MeshPaint</text>
<text text-anchor="middle" x="2350" y="-274.5" font-family="Helvetica,sans-Serif" font-size="10.00">System.hpp</text>
</a>
</g>
</g>
<!-- Node1&#45;&gt;Node31 -->
<g id="edge42" class="edge"><title>Node1&#45;&gt;Node31</title>
<path fill="none" stroke="midnightblue" d="M755.715,-371.157C1061.55,-356.452 1976.05,-312.48 2262.92,-298.687"/>
<polygon fill="midnightblue" stroke="midnightblue" points="755.352,-367.671 745.531,-371.647 755.688,-374.663 755.352,-367.671"/>
</g>
<!-- Node4 -->
<g id="node4" class="node"><title>Node4</title>
<g id="a_node4"><a xlink:href="ForwardRenderer_8cpp.html" target="_top" xlink:title="/home/travis/build\l/STORM&#45;IRIT/Radium&#45;Engine\l/src/Engine/Renderer/Renderers\l/ForwardRenderer.cpp">
<polygon fill="white" stroke="black" points="6,-178.5 6,-230.5 172,-230.5 172,-178.5 6,-178.5"/>
<text text-anchor="start" x="14" y="-218.5" font-family="Helvetica,sans-Serif" font-size="10.00">/home/travis/build</text>
<text text-anchor="start" x="14" y="-207.5" font-family="Helvetica,sans-Serif" font-size="10.00">/STORM&#45;IRIT/Radium&#45;Engine</text>
<text text-anchor="start" x="14" y="-196.5" font-family="Helvetica,sans-Serif" font-size="10.00">/src/Engine/Renderer/Renderers</text>
<text text-anchor="middle" x="89" y="-185.5" font-family="Helvetica,sans-Serif" font-size="10.00">/ForwardRenderer.cpp</text>
</a>
</g>
</g>
<!-- Node3&#45;&gt;Node4 -->
<g id="edge3" class="edge"><title>Node3&#45;&gt;Node4</title>
<path fill="none" stroke="midnightblue" d="M216.547,-263.295C193.089,-252.665 166.804,-240.755 144.219,-230.521"/>
<polygon fill="midnightblue" stroke="midnightblue" points="215.17,-266.513 225.723,-267.453 218.059,-260.137 215.17,-266.513"/>
</g>
<!-- Node3&#45;&gt;Node5 -->
<g id="edge4" class="edge"><title>Node3&#45;&gt;Node5</title>
<path fill="none" stroke="midnightblue" d="M277.75,-257.155C276.743,-246.21 275.671,-234.549 274.801,-225.082"/>
<polygon fill="midnightblue" stroke="midnightblue" points="274.285,-257.699 278.686,-267.336 281.256,-257.057 274.285,-257.699"/>
</g>
<!-- Node7 -->
<g id="node7" class="node"><title>Node7</title>
<g id="a_node7"><a xlink:href="BaseApplication_8hpp.html" target="_top" xlink:title="/home/travis/build\l/STORM&#45;IRIT/Radium&#45;Engine\l/src/GuiBase/BaseApplication.hpp">
<polygon fill="white" stroke="black" points="695.5,-184 695.5,-225 872.5,-225 872.5,-184 695.5,-184"/>
<text text-anchor="start" x="703.5" y="-213" font-family="Helvetica,sans-Serif" font-size="10.00">/home/travis/build</text>
<text text-anchor="start" x="703.5" y="-202" font-family="Helvetica,sans-Serif" font-size="10.00">/STORM&#45;IRIT/Radium&#45;Engine</text>
<text text-anchor="middle" x="784" y="-191" font-family="Helvetica,sans-Serif" font-size="10.00">/src/GuiBase/BaseApplication.hpp</text>
</a>
</g>
</g>
<!-- Node6&#45;&gt;Node7 -->
<g id="edge6" class="edge"><title>Node6&#45;&gt;Node7</title>
<path fill="none" stroke="midnightblue" d="M784,-257.155C784,-246.21 784,-234.549 784,-225.082"/>
<polygon fill="midnightblue" stroke="midnightblue" points="780.5,-257.336 784,-267.336 787.5,-257.336 780.5,-257.336"/>
</g>
<!-- Node9 -->
<g id="node9" class="node"><title>Node9</title>
<g id="a_node9"><a xlink:href="FrameTimerData_8cpp.html" target="_top" xlink:title="/home/travis/build\l/STORM&#45;IRIT/Radium&#45;Engine\l/src/GuiBase/TimerData/FrameTimer\lData.cpp">
<polygon fill="white" stroke="black" points="891,-178.5 891,-230.5 1081,-230.5 1081,-178.5 891,-178.5"/>
<text text-anchor="start" x="899" y="-218.5" font-family="Helvetica,sans-Serif" font-size="10.00">/home/travis/build</text>
<text text-anchor="start" x="899" y="-207.5" font-family="Helvetica,sans-Serif" font-size="10.00">/STORM&#45;IRIT/Radium&#45;Engine</text>
<text text-anchor="start" x="899" y="-196.5" font-family="Helvetica,sans-Serif" font-size="10.00">/src/GuiBase/TimerData/FrameTimer</text>
<text text-anchor="middle" x="986" y="-185.5" font-family="Helvetica,sans-Serif" font-size="10.00">Data.cpp</text>
</a>
</g>
</g>
<!-- Node6&#45;&gt;Node9 -->
<g id="edge8" class="edge"><title>Node6&#45;&gt;Node9</title>
<path fill="none" stroke="midnightblue" d="M851.483,-263.436C876.245,-252.771 904.038,-240.8 927.905,-230.521"/>
<polygon fill="midnightblue" stroke="midnightblue" points="849.956,-260.282 842.156,-267.453 852.725,-266.712 849.956,-260.282"/>
</g>
<!-- Node8 -->
<g id="node8" class="node"><title>Node8</title>
<g id="a_node8"><a xlink:href="BaseApplication_8cpp.html" target="_top" xlink:title="/home/travis/build\l/STORM&#45;IRIT/Radium&#45;Engine\l/src/GuiBase/BaseApplication.cpp">
<polygon fill="white" stroke="black" points="610,-95 610,-136 786,-136 786,-95 610,-95"/>
<text text-anchor="start" x="618" y="-124" font-family="Helvetica,sans-Serif" font-size="10.00">/home/travis/build</text>
<text text-anchor="start" x="618" y="-113" font-family="Helvetica,sans-Serif" font-size="10.00">/STORM&#45;IRIT/Radium&#45;Engine</text>
<text text-anchor="middle" x="698" y="-102" font-family="Helvetica,sans-Serif" font-size="10.00">/src/GuiBase/BaseApplication.cpp</text>
</a>
</g>
</g>
<!-- Node7&#45;&gt;Node8 -->
<g id="edge7" class="edge"><title>Node7&#45;&gt;Node8</title>
<path fill="none" stroke="midnightblue" d="M757.21,-176.398C744.335,-163.373 729.188,-148.051 717.438,-136.164"/>
<polygon fill="midnightblue" stroke="midnightblue" points="754.966,-179.107 764.485,-183.758 759.944,-174.186 754.966,-179.107"/>
</g>
<!-- Node10&#45;&gt;Node5 -->
<g id="edge11" class="edge"><title>Node10&#45;&gt;Node5</title>
<path fill="none" stroke="midnightblue" d="M1435.45,-288.559C1189.71,-279.4 600.619,-255.58 403,-231 387.594,-229.084 371.274,-226.405 355.594,-223.5"/>
<polygon fill="midnightblue" stroke="midnightblue" points="1435.34,-292.057 1445.47,-288.931 1435.6,-285.062 1435.34,-292.057"/>
</g>
<!-- Node11 -->
<g id="node11" class="node"><title>Node11</title>
<g id="a_node11"><a xlink:href="PickingManager_8cpp.html" target="_top" xlink:title="/home/travis/build\l/STORM&#45;IRIT/Radium&#45;Engine\l/src/GuiBase/Utils/PickingManager.cpp">
<polygon fill="white" stroke="black" points="2162,-184 2162,-225 2360,-225 2360,-184 2162,-184"/>
<text text-anchor="start" x="2170" y="-213" font-family="Helvetica,sans-Serif" font-size="10.00">/home/travis/build</text>
<text text-anchor="start" x="2170" y="-202" font-family="Helvetica,sans-Serif" font-size="10.00">/STORM&#45;IRIT/Radium&#45;Engine</text>
<text text-anchor="middle" x="2261" y="-191" font-family="Helvetica,sans-Serif" font-size="10.00">/src/GuiBase/Utils/PickingManager.cpp</text>
</a>
</g>
</g>
<!-- Node10&#45;&gt;Node11 -->
<g id="edge10" class="edge"><title>Node10&#45;&gt;Node11</title>
<path fill="none" stroke="midnightblue" d="M1654.75,-285.292C1776,-276.405 1976.78,-258.947 2148,-231 2158.32,-229.315 2169.11,-227.263 2179.76,-225.062"/>
<polygon fill="midnightblue" stroke="midnightblue" points="1654.44,-281.806 1644.72,-286.022 1654.94,-288.788 1654.44,-281.806"/>
</g>
<!-- Node12 -->
<g id="node12" class="node"><title>Node12</title>
<g id="a_node12"><a xlink:href="CameraManipUI_8h.html" target="_top" xlink:title="/home/travis/build\l/STORM&#45;IRIT/Radium&#45;Engine\l/Plugins/CameraManip/src\l/UI/CameraManipUI.h">
<polygon fill="white" stroke="black" points="1099,-178.5 1099,-230.5 1247,-230.5 1247,-178.5 1099,-178.5"/>
<text text-anchor="start" x="1107" y="-218.5" font-family="Helvetica,sans-Serif" font-size="10.00">/home/travis/build</text>
<text text-anchor="start" x="1107" y="-207.5" font-family="Helvetica,sans-Serif" font-size="10.00">/STORM&#45;IRIT/Radium&#45;Engine</text>
<text text-anchor="start" x="1107" y="-196.5" font-family="Helvetica,sans-Serif" font-size="10.00">/Plugins/CameraManip/src</text>
<text text-anchor="middle" x="1173" y="-185.5" font-family="Helvetica,sans-Serif" font-size="10.00">/UI/CameraManipUI.h</text>
</a>
</g>
</g>
<!-- Node10&#45;&gt;Node12 -->
<g id="edge12" class="edge"><title>Node10&#45;&gt;Node12</title>
<path fill="none" stroke="midnightblue" d="M1436.57,-270.847C1383.45,-259.775 1318.66,-245.58 1261,-231 1256.53,-229.869 1251.94,-228.667 1247.32,-227.425"/>
<polygon fill="midnightblue" stroke="midnightblue" points="1436.19,-274.342 1446.69,-272.948 1437.61,-267.488 1436.19,-274.342"/>
</g>
<!-- Node16 -->
<g id="node16" class="node"><title>Node16</title>
<g id="a_node16"><a xlink:href="MeshFeatureTrackingComponent_8hpp.html" target="_top" xlink:title="/home/travis/build\l/STORM&#45;IRIT/Radium&#45;Engine\l/Plugins/MeshFeatureTracking\l/src/MeshFeatureTrackingComponent.hpp">
<polygon fill="white" stroke="black" points="1712,-89.5 1712,-141.5 1926,-141.5 1926,-89.5 1712,-89.5"/>
<text text-anchor="start" x="1720" y="-129.5" font-family="Helvetica,sans-Serif" font-size="10.00">/home/travis/build</text>
<text text-anchor="start" x="1720" y="-118.5" font-family="Helvetica,sans-Serif" font-size="10.00">/STORM&#45;IRIT/Radium&#45;Engine</text>
<text text-anchor="start" x="1720" y="-107.5" font-family="Helvetica,sans-Serif" font-size="10.00">/Plugins/MeshFeatureTracking</text>
<text text-anchor="middle" x="1819" y="-96.5" font-family="Helvetica,sans-Serif" font-size="10.00">/src/MeshFeatureTrackingComponent.hpp</text>
</a>
</g>
</g>
<!-- Node10&#45;&gt;Node16 -->
<g id="edge17" class="edge"><title>Node10&#45;&gt;Node16</title>
<path fill="none" stroke="midnightblue" d="M1583.98,-267.461C1635.97,-234.064 1727.51,-175.269 1779.67,-141.76"/>
<polygon fill="midnightblue" stroke="midnightblue" points="1581.89,-264.643 1575.37,-272.992 1585.68,-270.533 1581.89,-264.643"/>
</g>
<!-- Node18 -->
<g id="node18" class="node"><title>Node18</title>
<g id="a_node18"><a xlink:href="MeshFeatureTrackingPlugin_8cpp.html" target="_top" xlink:title="/home/travis/build\l/STORM&#45;IRIT/Radium&#45;Engine\l/Plugins/MeshFeatureTracking\l/src/MeshFeatureTrackingPlugin.cpp">
<polygon fill="white" stroke="black" points="1332.5,-0.5 1332.5,-52.5 1517.5,-52.5 1517.5,-0.5 1332.5,-0.5"/>
<text text-anchor="start" x="1340.5" y="-40.5" font-family="Helvetica,sans-Serif" font-size="10.00">/home/travis/build</text>
<text text-anchor="start" x="1340.5" y="-29.5" font-family="Helvetica,sans-Serif" font-size="10.00">/STORM&#45;IRIT/Radium&#45;Engine</text>
<text text-anchor="start" x="1340.5" y="-18.5" font-family="Helvetica,sans-Serif" font-size="10.00">/Plugins/MeshFeatureTracking</text>
<text text-anchor="middle" x="1425" y="-7.5" font-family="Helvetica,sans-Serif" font-size="10.00">/src/MeshFeatureTrackingPlugin.cpp</text>
</a>
</g>
</g>
<!-- Node10&#45;&gt;Node18 -->
<g id="edge20" class="edge"><title>Node10&#45;&gt;Node18</title>
<path fill="none" stroke="midnightblue" d="M1451.43,-269.839C1386.1,-248.602 1303.59,-209.673 1263,-142 1250.88,-121.8 1249.62,-108.388 1263,-89 1279.15,-65.6008 1305.45,-51.0965 1332.2,-42.1087"/>
<polygon fill="midnightblue" stroke="midnightblue" points="1450.76,-273.297 1461.35,-272.971 1452.87,-266.622 1450.76,-273.297"/>
</g>
<!-- Node19 -->
<g id="node19" class="node"><title>Node19</title>
<g id="a_node19"><a xlink:href="MeshFeatureTrackingUI_8h.html" target="_top" xlink:title="/home/travis/build\l/STORM&#45;IRIT/Radium&#45;Engine\l/Plugins/MeshFeatureTracking\l/src/UI/MeshFeatureTrackingUI.h">
<polygon fill="white" stroke="black" points="1461,-178.5 1461,-230.5 1629,-230.5 1629,-178.5 1461,-178.5"/>
<text text-anchor="start" x="1469" y="-218.5" font-family="Helvetica,sans-Serif" font-size="10.00">/home/travis/build</text>
<text text-anchor="start" x="1469" y="-207.5" font-family="Helvetica,sans-Serif" font-size="10.00">/STORM&#45;IRIT/Radium&#45;Engine</text>
<text text-anchor="start" x="1469" y="-196.5" font-family="Helvetica,sans-Serif" font-size="10.00">/Plugins/MeshFeatureTracking</text>
<text text-anchor="middle" x="1545" y="-185.5" font-family="Helvetica,sans-Serif" font-size="10.00">/src/UI/MeshFeatureTrackingUI.h</text>
</a>
</g>
</g>
<!-- Node10&#45;&gt;Node19 -->
<g id="edge21" class="edge"><title>Node10&#45;&gt;Node19</title>
<path fill="none" stroke="midnightblue" d="M1545,-262.509C1545,-252.174 1545,-240.71 1545,-230.788"/>
<polygon fill="midnightblue" stroke="midnightblue" points="1541.5,-262.758 1545,-272.758 1548.5,-262.758 1541.5,-262.758"/>
</g>
<!-- Node22 -->
<g id="node22" class="node"><title>Node22</title>
<g id="a_node22"><a xlink:href="MeshPaintPlugin_8cpp.html" target="_top" xlink:title="/home/travis/build\l/STORM&#45;IRIT/Radium&#45;Engine\l/Plugins/MeshPaint/src/MeshPaint\lPlugin.cpp">
<polygon fill="white" stroke="black" points="2205,-0.5 2205,-52.5 2379,-52.5 2379,-0.5 2205,-0.5"/>
<text text-anchor="start" x="2213" y="-40.5" font-family="Helvetica,sans-Serif" font-size="10.00">/home/travis/build</text>
<text text-anchor="start" x="2213" y="-29.5" font-family="Helvetica,sans-Serif" font-size="10.00">/STORM&#45;IRIT/Radium&#45;Engine</text>
<text text-anchor="start" x="2213" y="-18.5" font-family="Helvetica,sans-Serif" font-size="10.00">/Plugins/MeshPaint/src/MeshPaint</text>
<text text-anchor="middle" x="2292" y="-7.5" font-family="Helvetica,sans-Serif" font-size="10.00">Plugin.cpp</text>
</a>
</g>
</g>
<!-- Node10&#45;&gt;Node22 -->
<g id="edge27" class="edge"><title>Node10&#45;&gt;Node22</title>
<path fill="none" stroke="midnightblue" d="M1655.02,-290.056C1796.17,-285.295 2031.9,-271.38 2108,-231 2135.3,-216.517 2126.39,-193.707 2153,-178 2222.51,-136.974 2279.9,-204.474 2331,-142 2352.27,-115.993 2331.72,-77.768 2313.31,-52.7567"/>
<polygon fill="midnightblue" stroke="midnightblue" points="1654.48,-286.572 1644.6,-290.397 1654.71,-293.568 1654.48,-286.572"/>
</g>
<!-- Node23 -->
<g id="node23" class="node"><title>Node23</title>
<g id="a_node23"><a xlink:href="MeshPaintUI_8h.html" target="_top" xlink:title="/home/travis/build\l/STORM&#45;IRIT/Radium&#45;Engine\l/Plugins/MeshPaint/src/UI\l/MeshPaintUI.h">
<polygon fill="white" stroke="black" points="1951,-178.5 1951,-230.5 2099,-230.5 2099,-178.5 1951,-178.5"/>
<text text-anchor="start" x="1959" y="-218.5" font-family="Helvetica,sans-Serif" font-size="10.00">/home/travis/build</text>
<text text-anchor="start" x="1959" y="-207.5" font-family="Helvetica,sans-Serif" font-size="10.00">/STORM&#45;IRIT/Radium&#45;Engine</text>
<text text-anchor="start" x="1959" y="-196.5" font-family="Helvetica,sans-Serif" font-size="10.00">/Plugins/MeshPaint/src/UI</text>
<text text-anchor="middle" x="2025" y="-185.5" font-family="Helvetica,sans-Serif" font-size="10.00">/MeshPaintUI.h</text>
</a>
</g>
</g>
<!-- Node10&#45;&gt;Node23 -->
<g id="edge28" class="edge"><title>Node10&#45;&gt;Node23</title>
<path fill="none" stroke="midnightblue" d="M1654.79,-272.6C1745.47,-256.164 1871.72,-233.282 1950.87,-218.937"/>
<polygon fill="midnightblue" stroke="midnightblue" points="1653.96,-269.193 1644.75,-274.421 1655.21,-276.081 1653.96,-269.193"/>
</g>
<!-- Node13 -->
<g id="node13" class="node"><title>Node13</title>
<g id="a_node13"><a xlink:href="CameraManipPlugin_8cpp.html" target="_top" xlink:title="/home/travis/build\l/STORM&#45;IRIT/Radium&#45;Engine\l/Plugins/CameraManip/src\l/CameraManipPlugin.cpp">
<polygon fill="white" stroke="black" points="864,-0.5 864,-52.5 1012,-52.5 1012,-0.5 864,-0.5"/>
<text text-anchor="start" x="872" y="-40.5" font-family="Helvetica,sans-Serif" font-size="10.00">/home/travis/build</text>
<text text-anchor="start" x="872" y="-29.5" font-family="Helvetica,sans-Serif" font-size="10.00">/STORM&#45;IRIT/Radium&#45;Engine</text>
<text text-anchor="start" x="872" y="-18.5" font-family="Helvetica,sans-Serif" font-size="10.00">/Plugins/CameraManip/src</text>
<text text-anchor="middle" x="938" y="-7.5" font-family="Helvetica,sans-Serif" font-size="10.00">/CameraManipPlugin.cpp</text>
</a>
</g>
</g>
<!-- Node12&#45;&gt;Node13 -->
<g id="edge13" class="edge"><title>Node12&#45;&gt;Node13</title>
<path fill="none" stroke="midnightblue" d="M1105.69,-173.722C1089.45,-164.831 1072.82,-154.16 1059,-142 1037.24,-122.85 1041.33,-109.655 1021,-89 1007.91,-75.7084 991.763,-63.0663 977.196,-52.7396"/>
<polygon fill="midnightblue" stroke="midnightblue" points="1104.17,-176.88 1114.65,-178.476 1107.45,-170.697 1104.17,-176.88"/>
</g>
<!-- Node14 -->
<g id="node14" class="node"><title>Node14</title>
<g id="a_node14"><a xlink:href="CameraManipPlugin_8hpp.html" target="_top" xlink:title="/home/travis/build\l/STORM&#45;IRIT/Radium&#45;Engine\l/Plugins/CameraManip/src\l/CameraManipPlugin.hpp">
<polygon fill="white" stroke="black" points="864,-89.5 864,-141.5 1012,-141.5 1012,-89.5 864,-89.5"/>
<text text-anchor="start" x="872" y="-129.5" font-family="Helvetica,sans-Serif" font-size="10.00">/home/travis/build</text>
<text text-anchor="start" x="872" y="-118.5" font-family="Helvetica,sans-Serif" font-size="10.00">/STORM&#45;IRIT/Radium&#45;Engine</text>
<text text-anchor="start" x="872" y="-107.5" font-family="Helvetica,sans-Serif" font-size="10.00">/Plugins/CameraManip/src</text>
<text text-anchor="middle" x="938" y="-96.5" font-family="Helvetica,sans-Serif" font-size="10.00">/CameraManipPlugin.hpp</text>
</a>
</g>
</g>
<!-- Node12&#45;&gt;Node14 -->
<g id="edge14" class="edge"><title>Node12&#45;&gt;Node14</title>
<path fill="none" stroke="midnightblue" d="M1095.63,-174.858C1066.54,-164.087 1033.72,-151.936 1005.59,-141.521"/>
<polygon fill="midnightblue" stroke="midnightblue" points="1094.75,-178.263 1105.34,-178.453 1097.18,-171.699 1094.75,-178.263"/>
</g>
<!-- Node15 -->
<g id="node15" class="node"><title>Node15</title>
<g id="a_node15"><a xlink:href="CameraManipUI_8cpp.html" target="_top" xlink:title="/home/travis/build\l/STORM&#45;IRIT/Radium&#45;Engine\l/Plugins/CameraManip/src\l/UI/CameraManipUI.cpp">
<polygon fill="white" stroke="black" points="1068,-89.5 1068,-141.5 1216,-141.5 1216,-89.5 1068,-89.5"/>
<text text-anchor="start" x="1076" y="-129.5" font-family="Helvetica,sans-Serif" font-size="10.00">/home/travis/build</text>
<text text-anchor="start" x="1076" y="-118.5" font-family="Helvetica,sans-Serif" font-size="10.00">/STORM&#45;IRIT/Radium&#45;Engine</text>
<text text-anchor="start" x="1076" y="-107.5" font-family="Helvetica,sans-Serif" font-size="10.00">/Plugins/CameraManip/src</text>
<text text-anchor="middle" x="1142" y="-96.5" font-family="Helvetica,sans-Serif" font-size="10.00">/UI/CameraManipUI.cpp</text>
</a>
</g>
</g>
<!-- Node12&#45;&gt;Node15 -->
<g id="edge16" class="edge"><title>Node12&#45;&gt;Node15</title>
<path fill="none" stroke="midnightblue" d="M1160.63,-168.771C1157.39,-159.691 1153.96,-150.079 1150.95,-141.607"/>
<polygon fill="midnightblue" stroke="midnightblue" points="1157.38,-170.091 1164.03,-178.336 1163.97,-167.741 1157.38,-170.091"/>
</g>
<!-- Node14&#45;&gt;Node13 -->
<g id="edge15" class="edge"><title>Node14&#45;&gt;Node13</title>
<path fill="none" stroke="midnightblue" d="M938,-79.1908C938,-70.2824 938,-60.8986 938,-52.6075"/>
<polygon fill="midnightblue" stroke="midnightblue" points="934.5,-79.336 938,-89.336 941.5,-79.336 934.5,-79.336"/>
</g>
<!-- Node17 -->
<g id="node17" class="node"><title>Node17</title>
<g id="a_node17"><a xlink:href="MeshFeatureTrackingComponent_8cpp.html" target="_top" xlink:title="/home/travis/build\l/STORM&#45;IRIT/Radium&#45;Engine\l/Plugins/MeshFeatureTracking\l/src/MeshFeatureTrackingComponent.cpp">
<polygon fill="white" stroke="black" points="1712.5,-0.5 1712.5,-52.5 1925.5,-52.5 1925.5,-0.5 1712.5,-0.5"/>
<text text-anchor="start" x="1720.5" y="-40.5" font-family="Helvetica,sans-Serif" font-size="10.00">/home/travis/build</text>
<text text-anchor="start" x="1720.5" y="-29.5" font-family="Helvetica,sans-Serif" font-size="10.00">/STORM&#45;IRIT/Radium&#45;Engine</text>
<text text-anchor="start" x="1720.5" y="-18.5" font-family="Helvetica,sans-Serif" font-size="10.00">/Plugins/MeshFeatureTracking</text>
<text text-anchor="middle" x="1819" y="-7.5" font-family="Helvetica,sans-Serif" font-size="10.00">/src/MeshFeatureTrackingComponent.cpp</text>
</a>
</g>
</g>
<!-- Node16&#45;&gt;Node17 -->
<g id="edge18" class="edge"><title>Node16&#45;&gt;Node17</title>
<path fill="none" stroke="midnightblue" d="M1819,-79.1908C1819,-70.2824 1819,-60.8986 1819,-52.6075"/>
<polygon fill="midnightblue" stroke="midnightblue" points="1815.5,-79.336 1819,-89.336 1822.5,-79.336 1815.5,-79.336"/>
</g>
<!-- Node16&#45;&gt;Node18 -->
<g id="edge19" class="edge"><title>Node16&#45;&gt;Node18</title>
<path fill="none" stroke="midnightblue" d="M1701.77,-88.6142C1642.95,-75.6267 1572.72,-60.1186 1517.72,-47.9744"/>
<polygon fill="midnightblue" stroke="midnightblue" points="1701.34,-92.1032 1711.86,-90.8418 1702.85,-85.2679 1701.34,-92.1032"/>
</g>
<!-- Node19&#45;&gt;Node16 -->
<g id="edge22" class="edge"><title>Node19&#45;&gt;Node16</title>
<path fill="none" stroke="midnightblue" d="M1633.44,-175.418C1667.79,-164.511 1706.83,-152.117 1740.2,-141.521"/>
<polygon fill="midnightblue" stroke="midnightblue" points="1632.36,-172.09 1623.88,-178.453 1634.47,-178.762 1632.36,-172.09"/>
</g>
<!-- Node19&#45;&gt;Node18 -->
<g id="edge23" class="edge"><title>Node19&#45;&gt;Node18</title>
<path fill="none" stroke="midnightblue" d="M1522.29,-170.145C1506.74,-147.3 1485.63,-116.31 1467,-89 1458.84,-77.0369 1449.78,-63.7701 1442.17,-52.63"/>
<polygon fill="midnightblue" stroke="midnightblue" points="1519.45,-172.182 1527.97,-178.478 1525.23,-168.242 1519.45,-172.182"/>
</g>
<!-- Node20 -->
<g id="node20" class="node"><title>Node20</title>
<g id="a_node20"><a xlink:href="MeshFeatureTrackingPlugin_8hpp.html" target="_top" xlink:title="/home/travis/build\l/STORM&#45;IRIT/Radium&#45;Engine\l/Plugins/MeshFeatureTracking\l/src/MeshFeatureTrackingPlugin.hpp">
<polygon fill="white" stroke="black" points="1272,-89.5 1272,-141.5 1458,-141.5 1458,-89.5 1272,-89.5"/>
<text text-anchor="start" x="1280" y="-129.5" font-family="Helvetica,sans-Serif" font-size="10.00">/home/travis/build</text>
<text text-anchor="start" x="1280" y="-118.5" font-family="Helvetica,sans-Serif" font-size="10.00">/STORM&#45;IRIT/Radium&#45;Engine</text>
<text text-anchor="start" x="1280" y="-107.5" font-family="Helvetica,sans-Serif" font-size="10.00">/Plugins/MeshFeatureTracking</text>
<text text-anchor="middle" x="1365" y="-96.5" font-family="Helvetica,sans-Serif" font-size="10.00">/src/MeshFeatureTrackingPlugin.hpp</text>
</a>
</g>
</g>
<!-- Node19&#45;&gt;Node20 -->
<g id="edge24" class="edge"><title>Node19&#45;&gt;Node20</title>
<path fill="none" stroke="midnightblue" d="M1483.79,-173.917C1462.06,-163.414 1437.83,-151.701 1416.95,-141.607"/>
<polygon fill="midnightblue" stroke="midnightblue" points="1482.41,-177.135 1492.94,-178.336 1485.46,-170.833 1482.41,-177.135"/>
</g>
<!-- Node21 -->
<g id="node21" class="node"><title>Node21</title>
<g id="a_node21"><a xlink:href="MeshFeatureTrackingUI_8cpp.html" target="_top" xlink:title="/home/travis/build\l/STORM&#45;IRIT/Radium&#45;Engine\l/Plugins/MeshFeatureTracking\l/src/UI/MeshFeatureTrackingUI.cpp">
<polygon fill="white" stroke="black" points="1514.5,-89.5 1514.5,-141.5 1693.5,-141.5 1693.5,-89.5 1514.5,-89.5"/>
<text text-anchor="start" x="1522.5" y="-129.5" font-family="Helvetica,sans-Serif" font-size="10.00">/home/travis/build</text>
<text text-anchor="start" x="1522.5" y="-118.5" font-family="Helvetica,sans-Serif" font-size="10.00">/STORM&#45;IRIT/Radium&#45;Engine</text>
<text text-anchor="start" x="1522.5" y="-107.5" font-family="Helvetica,sans-Serif" font-size="10.00">/Plugins/MeshFeatureTracking</text>
<text text-anchor="middle" x="1604" y="-96.5" font-family="Helvetica,sans-Serif" font-size="10.00">/src/UI/MeshFeatureTrackingUI.cpp</text>
</a>
</g>
</g>
<!-- Node19&#45;&gt;Node21 -->
<g id="edge26" class="edge"><title>Node19&#45;&gt;Node21</title>
<path fill="none" stroke="midnightblue" d="M1567.77,-169.927C1574.15,-160.511 1580.98,-150.439 1586.97,-141.607"/>
<polygon fill="midnightblue" stroke="midnightblue" points="1564.78,-168.095 1562.07,-178.336 1570.57,-172.024 1564.78,-168.095"/>
</g>
<!-- Node20&#45;&gt;Node18 -->
<g id="edge25" class="edge"><title>Node20&#45;&gt;Node18</title>
<path fill="none" stroke="midnightblue" d="M1388.15,-80.9272C1394.65,-71.511 1401.59,-61.4393 1407.68,-52.6075"/>
<polygon fill="midnightblue" stroke="midnightblue" points="1385.15,-79.1168 1382.35,-89.336 1390.91,-83.0909 1385.15,-79.1168"/>
</g>
<!-- Node23&#45;&gt;Node22 -->
<g id="edge29" class="edge"><title>Node23&#45;&gt;Node22</title>
<path fill="none" stroke="midnightblue" d="M2068.06,-171.981C2079.31,-162.872 2091.07,-152.531 2101,-142 2120.89,-120.916 2116.2,-106.896 2139,-89 2158.48,-73.7102 2182.26,-61.7316 2205.22,-52.572"/>
<polygon fill="midnightblue" stroke="midnightblue" points="2065.65,-169.426 2059.98,-178.38 2070,-174.912 2065.65,-169.426"/>
</g>
<!-- Node24 -->
<g id="node24" class="node"><title>Node24</title>
<g id="a_node24"><a xlink:href="MeshPaintPlugin_8hpp.html" target="_top" xlink:title="/home/travis/build\l/STORM&#45;IRIT/Radium&#45;Engine\l/Plugins/MeshPaint/src/MeshPaint\lPlugin.hpp">
<polygon fill="white" stroke="black" points="2148,-89.5 2148,-141.5 2322,-141.5 2322,-89.5 2148,-89.5"/>
<text text-anchor="start" x="2156" y="-129.5" font-family="Helvetica,sans-Serif" font-size="10.00">/home/travis/build</text>
<text text-anchor="start" x="2156" y="-118.5" font-family="Helvetica,sans-Serif" font-size="10.00">/STORM&#45;IRIT/Radium&#45;Engine</text>
<text text-anchor="start" x="2156" y="-107.5" font-family="Helvetica,sans-Serif" font-size="10.00">/Plugins/MeshPaint/src/MeshPaint</text>
<text text-anchor="middle" x="2235" y="-96.5" font-family="Helvetica,sans-Serif" font-size="10.00">Plugin.hpp</text>
</a>
</g>
</g>
<!-- Node23&#45;&gt;Node24 -->
<g id="edge30" class="edge"><title>Node23&#45;&gt;Node24</title>
<path fill="none" stroke="midnightblue" d="M2094.82,-174.576C2120.64,-163.876 2149.68,-151.846 2174.6,-141.521"/>
<polygon fill="midnightblue" stroke="midnightblue" points="2093.36,-171.392 2085.46,-178.453 2096.04,-177.859 2093.36,-171.392"/>
</g>
<!-- Node25 -->
<g id="node25" class="node"><title>Node25</title>
<g id="a_node25"><a xlink:href="MeshPaintUI_8cpp.html" target="_top" xlink:title="/home/travis/build\l/STORM&#45;IRIT/Radium&#45;Engine\l/Plugins/MeshPaint/src/UI\l/MeshPaintUI.cpp">
<polygon fill="white" stroke="black" points="1944,-89.5 1944,-141.5 2092,-141.5 2092,-89.5 1944,-89.5"/>
<text text-anchor="start" x="1952" y="-129.5" font-family="Helvetica,sans-Serif" font-size="10.00">/home/travis/build</text>
<text text-anchor="start" x="1952" y="-118.5" font-family="Helvetica,sans-Serif" font-size="10.00">/STORM&#45;IRIT/Radium&#45;Engine</text>
<text text-anchor="start" x="1952" y="-107.5" font-family="Helvetica,sans-Serif" font-size="10.00">/Plugins/MeshPaint/src/UI</text>
<text text-anchor="middle" x="2018" y="-96.5" font-family="Helvetica,sans-Serif" font-size="10.00">/MeshPaintUI.cpp</text>
</a>
</g>
</g>
<!-- Node23&#45;&gt;Node25 -->
<g id="edge32" class="edge"><title>Node23&#45;&gt;Node25</title>
<path fill="none" stroke="midnightblue" d="M2022.16,-168.191C2021.44,-159.282 2020.69,-149.899 2020.02,-141.607"/>
<polygon fill="midnightblue" stroke="midnightblue" points="2018.68,-168.649 2022.98,-178.336 2025.66,-168.087 2018.68,-168.649"/>
</g>
<!-- Node24&#45;&gt;Node22 -->
<g id="edge31" class="edge"><title>Node24&#45;&gt;Node22</title>
<path fill="none" stroke="midnightblue" d="M2257,-80.9272C2263.17,-71.511 2269.76,-61.4393 2275.55,-52.6075"/>
<polygon fill="midnightblue" stroke="midnightblue" points="2254.04,-79.0533 2251.49,-89.336 2259.89,-82.8895 2254.04,-79.0533"/>
</g>
<!-- Node26&#45;&gt;Node5 -->
<g id="edge37" class="edge"><title>Node26&#45;&gt;Node5</title>
<path fill="none" stroke="midnightblue" d="M459.748,-269.718C419.454,-255.862 368.519,-238.346 330.026,-225.11"/>
<polygon fill="midnightblue" stroke="midnightblue" points="458.627,-273.033 469.222,-272.976 460.904,-266.414 458.627,-273.033"/>
</g>
<!-- Node26&#45;&gt;Node8 -->
<g id="edge35" class="edge"><title>Node26&#45;&gt;Node8</title>
<path fill="none" stroke="midnightblue" d="M594.529,-268.649C614.029,-259.29 634.016,-246.899 649,-231 674.655,-203.777 688.013,-161.058 693.978,-136.219"/>
<polygon fill="midnightblue" stroke="midnightblue" points="592.954,-265.521 585.323,-272.87 595.871,-271.884 592.954,-265.521"/>
</g>
<!-- Node26&#45;&gt;Node13 -->
<g id="edge38" class="edge"><title>Node26&#45;&gt;Node13</title>
<path fill="none" stroke="midnightblue" d="M446.067,-268.46C429.005,-259.489 413.101,-247.343 403,-231 390.616,-210.962 390.206,-197.778 403,-178 453.31,-100.226 729.093,-54.457 863.839,-36.4331"/>
<polygon fill="midnightblue" stroke="midnightblue" points="444.549,-271.614 455.07,-272.868 447.627,-265.327 444.549,-271.614"/>
</g>
<!-- Node27 -->
<g id="node27" class="node"><title>Node27</title>
<g id="a_node27"><a xlink:href="CameraManipulator_8cpp.html" target="_top" xlink:title="/home/travis/build\l/STORM&#45;IRIT/Radium&#45;Engine\l/src/GuiBase/Viewer/CameraManipulator.cpp">
<polygon fill="white" stroke="black" points="412,-184 412,-225 640,-225 640,-184 412,-184"/>
<text text-anchor="start" x="420" y="-213" font-family="Helvetica,sans-Serif" font-size="10.00">/home/travis/build</text>
<text text-anchor="start" x="420" y="-202" font-family="Helvetica,sans-Serif" font-size="10.00">/STORM&#45;IRIT/Radium&#45;Engine</text>
<text text-anchor="middle" x="526" y="-191" font-family="Helvetica,sans-Serif" font-size="10.00">/src/GuiBase/Viewer/CameraManipulator.cpp</text>
</a>
</g>
</g>
<!-- Node26&#45;&gt;Node27 -->
<g id="edge36" class="edge"><title>Node26&#45;&gt;Node27</title>
<path fill="none" stroke="midnightblue" d="M526,-262.441C526,-250.101 526,-236.162 526,-225.164"/>
<polygon fill="midnightblue" stroke="midnightblue" points="522.5,-262.758 526,-272.758 529.5,-262.758 522.5,-262.758"/>
</g>
<!-- Node29 -->
<g id="node29" class="node"><title>Node29</title>
<g id="a_node29"><a xlink:href="MeshPaintComponent_8cpp.html" target="_top" xlink:title="/home/travis/build\l/STORM&#45;IRIT/Radium&#45;Engine\l/Plugins/MeshPaint/src/MeshPaint\lComponent.cpp">
<polygon fill="white" stroke="black" points="2608,-178.5 2608,-230.5 2782,-230.5 2782,-178.5 2608,-178.5"/>
<text text-anchor="start" x="2616" y="-218.5" font-family="Helvetica,sans-Serif" font-size="10.00">/home/travis/build</text>
<text text-anchor="start" x="2616" y="-207.5" font-family="Helvetica,sans-Serif" font-size="10.00">/STORM&#45;IRIT/Radium&#45;Engine</text>
<text text-anchor="start" x="2616" y="-196.5" font-family="Helvetica,sans-Serif" font-size="10.00">/Plugins/MeshPaint/src/MeshPaint</text>
<text text-anchor="middle" x="2695" y="-185.5" font-family="Helvetica,sans-Serif" font-size="10.00">Component.cpp</text>
</a>
</g>
</g>
<!-- Node28&#45;&gt;Node29 -->
<g id="edge40" class="edge"><title>Node28&#45;&gt;Node29</title>
<path fill="none" stroke="midnightblue" d="M2595.02,-262.353C2613.23,-251.996 2633.41,-240.521 2650.85,-230.607"/>
<polygon fill="midnightblue" stroke="midnightblue" points="2593.22,-259.35 2586.25,-267.336 2596.68,-265.435 2593.22,-259.35"/>
</g>
<!-- Node30 -->
<g id="node30" class="node"><title>Node30</title>
<g id="a_node30"><a xlink:href="MeshPaintSystem_8cpp.html" target="_top" xlink:title="/home/travis/build\l/STORM&#45;IRIT/Radium&#45;Engine\l/Plugins/MeshPaint/src/MeshPaint\lSystem.cpp">
<polygon fill="white" stroke="black" points="2416,-178.5 2416,-230.5 2590,-230.5 2590,-178.5 2416,-178.5"/>
<text text-anchor="start" x="2424" y="-218.5" font-family="Helvetica,sans-Serif" font-size="10.00">/home/travis/build</text>
<text text-anchor="start" x="2424" y="-207.5" font-family="Helvetica,sans-Serif" font-size="10.00">/STORM&#45;IRIT/Radium&#45;Engine</text>
<text text-anchor="start" x="2424" y="-196.5" font-family="Helvetica,sans-Serif" font-size="10.00">/Plugins/MeshPaint/src/MeshPaint</text>
<text text-anchor="middle" x="2503" y="-185.5" font-family="Helvetica,sans-Serif" font-size="10.00">System.cpp</text>
</a>
</g>
</g>
<!-- Node28&#45;&gt;Node30 -->
<g id="edge41" class="edge"><title>Node28&#45;&gt;Node30</title>
<path fill="none" stroke="midnightblue" d="M2526.56,-258.061C2522.45,-248.896 2518.09,-239.169 2514.26,-230.607"/>
<polygon fill="midnightblue" stroke="midnightblue" points="2523.44,-259.643 2530.72,-267.336 2529.82,-256.779 2523.44,-259.643"/>
</g>
<!-- Node31&#45;&gt;Node22 -->
<g id="edge43" class="edge"><title>Node31&#45;&gt;Node22</title>
<path fill="none" stroke="midnightblue" d="M2362.54,-257.897C2375.64,-215.667 2390.85,-143.201 2364,-89 2356.92,-74.7115 2344.87,-62.4214 2332.63,-52.6668"/>
<polygon fill="midnightblue" stroke="midnightblue" points="2359.2,-256.853 2359.45,-267.445 2365.86,-259.007 2359.2,-256.853"/>
</g>
<!-- Node31&#45;&gt;Node30 -->
<g id="edge44" class="edge"><title>Node31&#45;&gt;Node30</title>
<path fill="none" stroke="midnightblue" d="M2403.02,-262.353C2421.23,-251.996 2441.41,-240.521 2458.85,-230.607"/>
<polygon fill="midnightblue" stroke="midnightblue" points="2401.22,-259.35 2394.25,-267.336 2404.68,-265.435 2401.22,-259.35"/>
</g>
</g>
</svg>
