<?xml version="1.0" encoding="UTF-8" standalone="no"?>
<!DOCTYPE svg PUBLIC "-//W3C//DTD SVG 1.1//EN"
 "http://www.w3.org/Graphics/SVG/1.1/DTD/svg11.dtd">
<!-- Generated by graphviz version 2.38.0 (20140413.2041)
 -->
<!-- Title: /home/travis/build/STORM&#45;IRIT/Radium&#45;Engine/src/Engine/Renderer/RenderObject/RenderObjectManager.hpp Pages: 1 -->
<svg width="3459pt" height="328pt"
 viewBox="0.00 0.00 3459.00 328.00" xmlns="http://www.w3.org/2000/svg" xmlns:xlink="http://www.w3.org/1999/xlink">
<g id="graph0" class="graph" transform="scale(1 1) rotate(0) translate(4 324)">
<title>/home/travis/build/STORM&#45;IRIT/Radium&#45;Engine/src/Engine/Renderer/RenderObject/RenderObjectManager.hpp</title>
<polygon fill="white" stroke="none" points="-4,4 -4,-324 3455,-324 3455,4 -4,4"/>
<!-- Node1 -->
<g id="node1" class="node"><title>Node1</title>
<polygon fill="#bfbfbf" stroke="black" points="1785,-267.5 1785,-319.5 1967,-319.5 1967,-267.5 1785,-267.5"/>
<text text-anchor="start" x="1793" y="-307.5" font-family="Helvetica,sans-Serif" font-size="10.00">/home/travis/build</text>
<text text-anchor="start" x="1793" y="-296.5" font-family="Helvetica,sans-Serif" font-size="10.00">/STORM&#45;IRIT/Radium&#45;Engine</text>
<text text-anchor="start" x="1793" y="-285.5" font-family="Helvetica,sans-Serif" font-size="10.00">/src/Engine/Renderer/RenderObject</text>
<text text-anchor="middle" x="1876" y="-274.5" font-family="Helvetica,sans-Serif" font-size="10.00">/RenderObjectManager.hpp</text>
</g>
<!-- Node2 -->
<g id="node2" class="node"><title>Node2</title>
<g id="a_node2"><a xlink:href="Component_8cpp.html" target="_top" xlink:title="/home/travis/build\l/STORM&#45;IRIT/Radium&#45;Engine\l/src/Engine/Component/Component.cpp">
<polygon fill="white" stroke="black" points="0,-184 0,-225 208,-225 208,-184 0,-184"/>
<text text-anchor="start" x="8" y="-213" font-family="Helvetica,sans-Serif" font-size="10.00">/home/travis/build</text>
<text text-anchor="start" x="8" y="-202" font-family="Helvetica,sans-Serif" font-size="10.00">/STORM&#45;IRIT/Radium&#45;Engine</text>
<text text-anchor="middle" x="104" y="-191" font-family="Helvetica,sans-Serif" font-size="10.00">/src/Engine/Component/Component.cpp</text>
</a>
</g>
</g>
<!-- Node1&#45;&gt;Node2 -->
<g id="edge1" class="edge"><title>Node1&#45;&gt;Node2</title>
<path fill="none" stroke="midnightblue" d="M1774.44,-291.196C1462.41,-286.8 520.525,-270.528 217,-231 205.533,-229.507 193.516,-227.398 181.775,-225.025"/>
<polygon fill="midnightblue" stroke="midnightblue" points="1774.78,-294.701 1784.83,-291.341 1774.88,-287.701 1774.78,-294.701"/>
</g>
<!-- Node3 -->
<g id="node3" class="node"><title>Node3</title>
<g id="a_node3"><a xlink:href="GeometryComponent_8cpp.html" target="_top" xlink:title="/home/travis/build\l/STORM&#45;IRIT/Radium&#45;Engine\l/src/Engine/Component/GeometryComponent.cpp">
<polygon fill="white" stroke="black" points="226,-184 226,-225 482,-225 482,-184 226,-184"/>
<text text-anchor="start" x="234" y="-213" font-family="Helvetica,sans-Serif" font-size="10.00">/home/travis/build</text>
<text text-anchor="start" x="234" y="-202" font-family="Helvetica,sans-Serif" font-size="10.00">/STORM&#45;IRIT/Radium&#45;Engine</text>
<text text-anchor="middle" x="354" y="-191" font-family="Helvetica,sans-Serif" font-size="10.00">/src/Engine/Component/GeometryComponent.cpp</text>
</a>
</g>
</g>
<!-- Node1&#45;&gt;Node3 -->
<g id="edge2" class="edge"><title>Node1&#45;&gt;Node3</title>
<path fill="none" stroke="midnightblue" d="M1774.65,-292.784C1545.4,-292.38 969.757,-285.491 492,-231 478.444,-229.454 464.215,-227.364 450.257,-225.042"/>
<polygon fill="midnightblue" stroke="midnightblue" points="1774.97,-296.284 1784.98,-292.798 1774.98,-289.284 1774.97,-296.284"/>
</g>
<!-- Node4 -->
<g id="node4" class="node"><title>Node4</title>
<g id="a_node4"><a xlink:href="ItemEntry_8cpp.html" target="_top" xlink:title="/home/travis/build\l/STORM&#45;IRIT/Radium&#45;Engine\l/src/Engine/ItemModel/ItemEntry.cpp">
<polygon fill="white" stroke="black" points="500.5,-184 500.5,-225 691.5,-225 691.5,-184 500.5,-184"/>
<text text-anchor="start" x="508.5" y="-213" font-family="Helvetica,sans-Serif" font-size="10.00">/home/travis/build</text>
<text text-anchor="start" x="508.5" y="-202" font-family="Helvetica,sans-Serif" font-size="10.00">/STORM&#45;IRIT/Radium&#45;Engine</text>
<text text-anchor="middle" x="596" y="-191" font-family="Helvetica,sans-Serif" font-size="10.00">/src/Engine/ItemModel/ItemEntry.cpp</text>
</a>
</g>
</g>
<!-- Node1&#45;&gt;Node4 -->
<g id="edge3" class="edge"><title>Node1&#45;&gt;Node4</title>
<path fill="none" stroke="midnightblue" d="M1774.61,-289.617C1528.91,-282.239 906.836,-261.114 701,-231 690.513,-229.466 679.54,-227.367 668.807,-225.027"/>
<polygon fill="midnightblue" stroke="midnightblue" points="1774.5,-293.115 1784.6,-289.916 1774.71,-286.118 1774.5,-293.115"/>
</g>
<!-- Node5 -->
<g id="node5" class="node"><title>Node5</title>
<g id="a_node5"><a xlink:href="SystemDisplay_8cpp.html" target="_top" xlink:title="/home/travis/build\l/STORM&#45;IRIT/Radium&#45;Engine\l/src/Engine/Managers/SystemDisplay\l/SystemDisplay.cpp">
<polygon fill="white" stroke="black" points="710,-178.5 710,-230.5 904,-230.5 904,-178.5 710,-178.5"/>
<text text-anchor="start" x="718" y="-218.5" font-family="Helvetica,sans-Serif" font-size="10.00">/home/travis/build</text>
<text text-anchor="start" x="718" y="-207.5" font-family="Helvetica,sans-Serif" font-size="10.00">/STORM&#45;IRIT/Radium&#45;Engine</text>
<text text-anchor="start" x="718" y="-196.5" font-family="Helvetica,sans-Serif" font-size="10.00">/src/Engine/Managers/SystemDisplay</text>
<text text-anchor="middle" x="807" y="-185.5" font-family="Helvetica,sans-Serif" font-size="10.00">/SystemDisplay.cpp</text>
</a>
</g>
</g>
<!-- Node1&#45;&gt;Node5 -->
<g id="edge4" class="edge"><title>Node1&#45;&gt;Node5</title>
<path fill="none" stroke="midnightblue" d="M1774.91,-291.677C1598.99,-288.99 1225.51,-277.729 914,-231 910.789,-230.518 907.534,-229.988 904.252,-229.418"/>
<polygon fill="midnightblue" stroke="midnightblue" points="1774.88,-295.176 1784.93,-291.824 1774.99,-288.177 1774.88,-295.176"/>
</g>
<!-- Node6 -->
<g id="node6" class="node"><title>Node6</title>
<g id="a_node6"><a xlink:href="RadiumEngine_8cpp.html" target="_top" xlink:title="/home/travis/build\l/STORM&#45;IRIT/Radium&#45;Engine\l/src/Engine/RadiumEngine.cpp">
<polygon fill="white" stroke="black" points="922.5,-184 922.5,-225 1083.5,-225 1083.5,-184 922.5,-184"/>
<text text-anchor="start" x="930.5" y="-213" font-family="Helvetica,sans-Serif" font-size="10.00">/home/travis/build</text>
<text text-anchor="start" x="930.5" y="-202" font-family="Helvetica,sans-Serif" font-size="10.00">/STORM&#45;IRIT/Radium&#45;Engine</text>
<text text-anchor="middle" x="1003" y="-191" font-family="Helvetica,sans-Serif" font-size="10.00">/src/Engine/RadiumEngine.cpp</text>
</a>
</g>
</g>
<!-- Node1&#45;&gt;Node6 -->
<g id="edge5" class="edge"><title>Node1&#45;&gt;Node6</title>
<path fill="none" stroke="midnightblue" d="M1774.71,-290.922C1624.69,-287.15 1335.07,-274.36 1093,-231 1084.21,-229.425 1075.04,-227.35 1066.06,-225.062"/>
<polygon fill="midnightblue" stroke="midnightblue" points="1774.75,-294.424 1784.83,-291.168 1774.92,-287.426 1774.75,-294.424"/>
</g>
<!-- Node7 -->
<g id="node7" class="node"><title>Node7</title>
<g id="a_node7"><a xlink:href="Renderer_8cpp.html" target="_top" xlink:title="/home/travis/build\l/STORM&#45;IRIT/Radium&#45;Engine\l/src/Engine/Renderer/Renderer.cpp">
<polygon fill="white" stroke="black" points="1102,-184 1102,-225 1282,-225 1282,-184 1102,-184"/>
<text text-anchor="start" x="1110" y="-213" font-family="Helvetica,sans-Serif" font-size="10.00">/home/travis/build</text>
<text text-anchor="start" x="1110" y="-202" font-family="Helvetica,sans-Serif" font-size="10.00">/STORM&#45;IRIT/Radium&#45;Engine</text>
<text text-anchor="middle" x="1192" y="-191" font-family="Helvetica,sans-Serif" font-size="10.00">/src/Engine/Renderer/Renderer.cpp</text>
</a>
</g>
</g>
<!-- Node1&#45;&gt;Node7 -->
<g id="edge6" class="edge"><title>Node1&#45;&gt;Node7</title>
<path fill="none" stroke="midnightblue" d="M1774.94,-286.415C1657.82,-278.317 1459.33,-261.357 1291,-231 1281.74,-229.331 1272.08,-227.259 1262.56,-225.024"/>
<polygon fill="midnightblue" stroke="midnightblue" points="1774.75,-289.911 1784.97,-287.101 1775.23,-282.927 1774.75,-289.911"/>
</g>
<!-- Node8 -->
<g id="node8" class="node"><title>Node8</title>
<g id="a_node8"><a xlink:href="RenderObject_8cpp.html" target="_top" xlink:title="/home/travis/build\l/STORM&#45;IRIT/Radium&#45;Engine\l/src/Engine/Renderer/RenderObject\l/RenderObject.cpp">
<polygon fill="white" stroke="black" points="1300,-178.5 1300,-230.5 1482,-230.5 1482,-178.5 1300,-178.5"/>
<text text-anchor="start" x="1308" y="-218.5" font-family="Helvetica,sans-Serif" font-size="10.00">/home/travis/build</text>
<text text-anchor="start" x="1308" y="-207.5" font-family="Helvetica,sans-Serif" font-size="10.00">/STORM&#45;IRIT/Radium&#45;Engine</text>
<text text-anchor="start" x="1308" y="-196.5" font-family="Helvetica,sans-Serif" font-size="10.00">/src/Engine/Renderer/RenderObject</text>
<text text-anchor="middle" x="1391" y="-185.5" font-family="Helvetica,sans-Serif" font-size="10.00">/RenderObject.cpp</text>
</a>
</g>
</g>
<!-- Node1&#45;&gt;Node8 -->
<g id="edge7" class="edge"><title>Node1&#45;&gt;Node8</title>
<path fill="none" stroke="midnightblue" d="M1774.66,-278.889C1696.75,-267.805 1586.63,-250.788 1491,-231 1488.11,-230.401 1485.17,-229.773 1482.21,-229.123"/>
<polygon fill="midnightblue" stroke="midnightblue" points="1774.56,-282.41 1784.95,-280.346 1775.54,-275.479 1774.56,-282.41"/>
</g>
<!-- Node9 -->
<g id="node9" class="node"><title>Node9</title>
<g id="a_node9"><a xlink:href="RenderObjectManager_8cpp.html" target="_top" xlink:title="/home/travis/build\l/STORM&#45;IRIT/Radium&#45;Engine\l/src/Engine/Renderer/RenderObject\l/RenderObjectManager.cpp">
<polygon fill="white" stroke="black" points="1500,-178.5 1500,-230.5 1682,-230.5 1682,-178.5 1500,-178.5"/>
<text text-anchor="start" x="1508" y="-218.5" font-family="Helvetica,sans-Serif" font-size="10.00">/home/travis/build</text>
<text text-anchor="start" x="1508" y="-207.5" font-family="Helvetica,sans-Serif" font-size="10.00">/STORM&#45;IRIT/Radium&#45;Engine</text>
<text text-anchor="start" x="1508" y="-196.5" font-family="Helvetica,sans-Serif" font-size="10.00">/src/Engine/Renderer/RenderObject</text>
<text text-anchor="middle" x="1591" y="-185.5" font-family="Helvetica,sans-Serif" font-size="10.00">/RenderObjectManager.cpp</text>
</a>
</g>
</g>
<!-- Node1&#45;&gt;Node9 -->
<g id="edge8" class="edge"><title>Node1&#45;&gt;Node9</title>
<path fill="none" stroke="midnightblue" d="M1784.01,-264.418C1748.28,-253.511 1707.68,-241.117 1672.97,-230.521"/>
<polygon fill="midnightblue" stroke="midnightblue" points="1783.36,-267.881 1793.95,-267.453 1785.41,-261.186 1783.36,-267.881"/>
</g>
<!-- Node10 -->
<g id="node10" class="node"><title>Node10</title>
<g id="a_node10"><a xlink:href="Gizmo_8hpp.html" target="_top" xlink:title="/home/travis/build\l/STORM&#45;IRIT/Radium&#45;Engine\l/src/GuiBase/Viewer/Gizmo\l/Gizmo.hpp">
<polygon fill="white" stroke="black" points="1700,-178.5 1700,-230.5 1848,-230.5 1848,-178.5 1700,-178.5"/>
<text text-anchor="start" x="1708" y="-218.5" font-family="Helvetica,sans-Serif" font-size="10.00">/home/travis/build</text>
<text text-anchor="start" x="1708" y="-207.5" font-family="Helvetica,sans-Serif" font-size="10.00">/STORM&#45;IRIT/Radium&#45;Engine</text>
<text text-anchor="start" x="1708" y="-196.5" font-family="Helvetica,sans-Serif" font-size="10.00">/src/GuiBase/Viewer/Gizmo</text>
<text text-anchor="middle" x="1774" y="-185.5" font-family="Helvetica,sans-Serif" font-size="10.00">/Gizmo.hpp</text>
</a>
</g>
</g>
<!-- Node1&#45;&gt;Node10 -->
<g id="edge9" class="edge"><title>Node1&#45;&gt;Node10</title>
<path fill="none" stroke="midnightblue" d="M1838.66,-260.649C1827.05,-250.749 1814.42,-239.98 1803.44,-230.607"/>
<polygon fill="midnightblue" stroke="midnightblue" points="1836.62,-263.509 1846.5,-267.336 1841.16,-258.184 1836.62,-263.509"/>
</g>
<!-- Node16 -->
<g id="node16" class="node"><title>Node16</title>
<g id="a_node16"><a xlink:href="RotateGizmo_8cpp.html" target="_top" xlink:title="/home/travis/build\l/STORM&#45;IRIT/Radium&#45;Engine\l/src/GuiBase/Viewer/Gizmo\l/RotateGizmo.cpp">
<polygon fill="white" stroke="black" points="1545,-0.5 1545,-52.5 1693,-52.5 1693,-0.5 1545,-0.5"/>
<text text-anchor="start" x="1553" y="-40.5" font-family="Helvetica,sans-Serif" font-size="10.00">/home/travis/build</text>
<text text-anchor="start" x="1553" y="-29.5" font-family="Helvetica,sans-Serif" font-size="10.00">/STORM&#45;IRIT/Radium&#45;Engine</text>
<text text-anchor="start" x="1553" y="-18.5" font-family="Helvetica,sans-Serif" font-size="10.00">/src/GuiBase/Viewer/Gizmo</text>
<text text-anchor="middle" x="1619" y="-7.5" font-family="Helvetica,sans-Serif" font-size="10.00">/RotateGizmo.cpp</text>
</a>
</g>
</g>
<!-- Node1&#45;&gt;Node16 -->
<g id="edge23" class="edge"><title>Node1&#45;&gt;Node16</title>
<path fill="none" stroke="midnightblue" d="M1883.91,-257.514C1891.8,-212.76 1897.6,-135.492 1857,-89 1810.48,-35.7298 1770.29,-71.3962 1702,-53 1699.09,-52.2158 1696.13,-51.3984 1693.14,-50.558"/>
<polygon fill="midnightblue" stroke="midnightblue" points="1880.47,-256.874 1882.05,-267.351 1887.34,-258.176 1880.47,-256.874"/>
</g>
<!-- Node18 -->
<g id="node18" class="node"><title>Node18</title>
<g id="a_node18"><a xlink:href="ScaleGizmo_8cpp.html" target="_top" xlink:title="/home/travis/build\l/STORM&#45;IRIT/Radium&#45;Engine\l/src/GuiBase/Viewer/Gizmo\l/ScaleGizmo.cpp">
<polygon fill="white" stroke="black" points="1877,-0.5 1877,-52.5 2025,-52.5 2025,-0.5 1877,-0.5"/>
<text text-anchor="start" x="1885" y="-40.5" font-family="Helvetica,sans-Serif" font-size="10.00">/home/travis/build</text>
<text text-anchor="start" x="1885" y="-29.5" font-family="Helvetica,sans-Serif" font-size="10.00">/STORM&#45;IRIT/Radium&#45;Engine</text>
<text text-anchor="start" x="1885" y="-18.5" font-family="Helvetica,sans-Serif" font-size="10.00">/src/GuiBase/Viewer/Gizmo</text>
<text text-anchor="middle" x="1951" y="-7.5" font-family="Helvetica,sans-Serif" font-size="10.00">/ScaleGizmo.cpp</text>
</a>
</g>
</g>
<!-- Node1&#45;&gt;Node18 -->
<g id="edge24" class="edge"><title>Node1&#45;&gt;Node18</title>
<path fill="none" stroke="midnightblue" d="M1909.76,-259.706C1916.89,-251.036 1923.59,-241.223 1928,-231 1953.84,-171.092 1954.45,-92.51 1952.73,-52.8054"/>
<polygon fill="midnightblue" stroke="midnightblue" points="1907.05,-257.481 1903.14,-267.325 1912.34,-262.073 1907.05,-257.481"/>
</g>
<!-- Node20 -->
<g id="node20" class="node"><title>Node20</title>
<g id="a_node20"><a xlink:href="TranslateGizmo_8cpp.html" target="_top" xlink:title="/home/travis/build\l/STORM&#45;IRIT/Radium&#45;Engine\l/src/GuiBase/Viewer/Gizmo\l/TranslateGizmo.cpp">
<polygon fill="white" stroke="black" points="1711,-0.5 1711,-52.5 1859,-52.5 1859,-0.5 1711,-0.5"/>
<text text-anchor="start" x="1719" y="-40.5" font-family="Helvetica,sans-Serif" font-size="10.00">/home/travis/build</text>
<text text-anchor="start" x="1719" y="-29.5" font-family="Helvetica,sans-Serif" font-size="10.00">/STORM&#45;IRIT/Radium&#45;Engine</text>
<text text-anchor="start" x="1719" y="-18.5" font-family="Helvetica,sans-Serif" font-size="10.00">/src/GuiBase/Viewer/Gizmo</text>
<text text-anchor="middle" x="1785" y="-7.5" font-family="Helvetica,sans-Serif" font-size="10.00">/TranslateGizmo.cpp</text>
</a>
</g>
</g>
<!-- Node1&#45;&gt;Node20 -->
<g id="edge25" class="edge"><title>Node1&#45;&gt;Node20</title>
<path fill="none" stroke="midnightblue" d="M1889.5,-257.672C1903.7,-214.917 1920.16,-141.621 1890,-89 1881.18,-73.6041 1866.84,-61.6903 1851.55,-52.6311"/>
<polygon fill="midnightblue" stroke="midnightblue" points="1886.12,-256.745 1886.15,-267.339 1892.73,-259.035 1886.12,-256.745"/>
</g>
<!-- Node21 -->
<g id="node21" class="node"><title>Node21</title>
<g id="a_node21"><a xlink:href="AnimationComponent_8cpp.html" target="_top" xlink:title="/home/travis/build\l/STORM&#45;IRIT/Radium&#45;Engine\l/Plugins/Animation/src/Animation\lComponent.cpp">
<polygon fill="white" stroke="black" points="1980,-178.5 1980,-230.5 2154,-230.5 2154,-178.5 1980,-178.5"/>
<text text-anchor="start" x="1988" y="-218.5" font-family="Helvetica,sans-Serif" font-size="10.00">/home/travis/build</text>
<text text-anchor="start" x="1988" y="-207.5" font-family="Helvetica,sans-Serif" font-size="10.00">/STORM&#45;IRIT/Radium&#45;Engine</text>
<text text-anchor="start" x="1988" y="-196.5" font-family="Helvetica,sans-Serif" font-size="10.00">/Plugins/Animation/src/Animation</text>
<text text-anchor="middle" x="2067" y="-185.5" font-family="Helvetica,sans-Serif" font-size="10.00">Component.cpp</text>
</a>
</g>
</g>
<!-- Node1&#45;&gt;Node21 -->
<g id="edge26" class="edge"><title>Node1&#45;&gt;Node21</title>
<path fill="none" stroke="midnightblue" d="M1940.12,-263.295C1963.45,-252.665 1989.6,-240.755 2012.07,-230.521"/>
<polygon fill="midnightblue" stroke="midnightblue" points="1938.64,-260.122 1930.99,-267.453 1941.54,-266.493 1938.64,-260.122"/>
</g>
<!-- Node22 -->
<g id="node22" class="node"><title>Node22</title>
<g id="a_node22"><a xlink:href="SkeletonBoneDrawable_8cpp.html" target="_top" xlink:title="/home/travis/build\l/STORM&#45;IRIT/Radium&#45;Engine\l/Plugins/Animation/src/Drawing\l/SkeletonBoneDrawable.cpp">
<polygon fill="white" stroke="black" points="2172,-178.5 2172,-230.5 2336,-230.5 2336,-178.5 2172,-178.5"/>
<text text-anchor="start" x="2180" y="-218.5" font-family="Helvetica,sans-Serif" font-size="10.00">/home/travis/build</text>
<text text-anchor="start" x="2180" y="-207.5" font-family="Helvetica,sans-Serif" font-size="10.00">/STORM&#45;IRIT/Radium&#45;Engine</text>
<text text-anchor="start" x="2180" y="-196.5" font-family="Helvetica,sans-Serif" font-size="10.00">/Plugins/Animation/src/Drawing</text>
<text text-anchor="middle" x="2254" y="-185.5" font-family="Helvetica,sans-Serif" font-size="10.00">/SkeletonBoneDrawable.cpp</text>
</a>
</g>
</g>
<!-- Node1&#45;&gt;Node22 -->
<g id="edge27" class="edge"><title>Node1&#45;&gt;Node22</title>
<path fill="none" stroke="midnightblue" d="M1977.26,-272.403C2032.37,-261.062 2101.64,-246.156 2163,-231 2165.87,-230.292 2168.78,-229.557 2171.72,-228.803"/>
<polygon fill="midnightblue" stroke="midnightblue" points="1976.23,-269.041 1967.13,-274.478 1977.63,-275.898 1976.23,-269.041"/>
</g>
<!-- Node23 -->
<g id="node23" class="node"><title>Node23</title>
<g id="a_node23"><a xlink:href="DummyComponent_8cpp.html" target="_top" xlink:title="/home/travis/build\l/STORM&#45;IRIT/Radium&#45;Engine\l/Plugins/Dummy/src/DummyComponent.cpp">
<polygon fill="white" stroke="black" points="2354,-184 2354,-225 2584,-225 2584,-184 2354,-184"/>
<text text-anchor="start" x="2362" y="-213" font-family="Helvetica,sans-Serif" font-size="10.00">/home/travis/build</text>
<text text-anchor="start" x="2362" y="-202" font-family="Helvetica,sans-Serif" font-size="10.00">/STORM&#45;IRIT/Radium&#45;Engine</text>
<text text-anchor="middle" x="2469" y="-191" font-family="Helvetica,sans-Serif" font-size="10.00">/Plugins/Dummy/src/DummyComponent.cpp</text>
</a>
</g>
</g>
<!-- Node1&#45;&gt;Node23 -->
<g id="edge28" class="edge"><title>Node1&#45;&gt;Node23</title>
<path fill="none" stroke="midnightblue" d="M1977.28,-281.366C2072.48,-270.393 2218.81,-252.22 2345,-231 2355.62,-229.214 2366.72,-227.178 2377.72,-225.052"/>
<polygon fill="midnightblue" stroke="midnightblue" points="1976.61,-277.919 1967.08,-282.537 1977.41,-284.874 1976.61,-277.919"/>
</g>
<!-- Node24 -->
<g id="node24" class="node"><title>Node24</title>
<g id="a_node24"><a xlink:href="MeshFeatureTrackingComponent_8cpp.html" target="_top" xlink:title="/home/travis/build\l/STORM&#45;IRIT/Radium&#45;Engine\l/Plugins/MeshFeatureTracking\l/src/MeshFeatureTrackingComponent.cpp">
<polygon fill="white" stroke="black" points="2601.5,-178.5 2601.5,-230.5 2814.5,-230.5 2814.5,-178.5 2601.5,-178.5"/>
<text text-anchor="start" x="2609.5" y="-218.5" font-family="Helvetica,sans-Serif" font-size="10.00">/home/travis/build</text>
<text text-anchor="start" x="2609.5" y="-207.5" font-family="Helvetica,sans-Serif" font-size="10.00">/STORM&#45;IRIT/Radium&#45;Engine</text>
<text text-anchor="start" x="2609.5" y="-196.5" font-family="Helvetica,sans-Serif" font-size="10.00">/Plugins/MeshFeatureTracking</text>
<text text-anchor="middle" x="2708" y="-185.5" font-family="Helvetica,sans-Serif" font-size="10.00">/src/MeshFeatureTrackingComponent.cpp</text>
</a>
</g>
</g>
<!-- Node1&#45;&gt;Node24 -->
<g id="edge29" class="edge"><title>Node1&#45;&gt;Node24</title>
<path fill="none" stroke="midnightblue" d="M1977.24,-288.053C2116.56,-280.971 2374.93,-264.38 2593,-231 2595.73,-230.582 2598.49,-230.138 2601.27,-229.67"/>
<polygon fill="midnightblue" stroke="midnightblue" points="1976.82,-284.57 1967.01,-288.567 1977.17,-291.561 1976.82,-284.57"/>
</g>
<!-- Node25 -->
<g id="node25" class="node"><title>Node25</title>
<g id="a_node25"><a xlink:href="MeshPaintComponent_8cpp.html" target="_top" xlink:title="/home/travis/build\l/STORM&#45;IRIT/Radium&#45;Engine\l/Plugins/MeshPaint/src/MeshPaint\lComponent.cpp">
<polygon fill="white" stroke="black" points="2833,-178.5 2833,-230.5 3007,-230.5 3007,-178.5 2833,-178.5"/>
<text text-anchor="start" x="2841" y="-218.5" font-family="Helvetica,sans-Serif" font-size="10.00">/home/travis/build</text>
<text text-anchor="start" x="2841" y="-207.5" font-family="Helvetica,sans-Serif" font-size="10.00">/STORM&#45;IRIT/Radium&#45;Engine</text>
<text text-anchor="start" x="2841" y="-196.5" font-family="Helvetica,sans-Serif" font-size="10.00">/Plugins/MeshPaint/src/MeshPaint</text>
<text text-anchor="middle" x="2920" y="-185.5" font-family="Helvetica,sans-Serif" font-size="10.00">Component.cpp</text>
</a>
</g>
</g>
<!-- Node1&#45;&gt;Node25 -->
<g id="edge30" class="edge"><title>Node1&#45;&gt;Node25</title>
<path fill="none" stroke="midnightblue" d="M1977.37,-292.377C2151.6,-290.732 2518.59,-280.978 2824,-231 2826.89,-230.527 2829.83,-230.004 2832.78,-229.44"/>
<polygon fill="midnightblue" stroke="midnightblue" points="1977.16,-288.879 1967.19,-292.466 1977.22,-295.879 1977.16,-288.879"/>
</g>
<!-- Node26 -->
<g id="node26" class="node"><title>Node26</title>
<g id="a_node26"><a xlink:href="MeshPaintPlugin_8cpp.html" target="_top" xlink:title="/home/travis/build\l/STORM&#45;IRIT/Radium&#45;Engine\l/Plugins/MeshPaint/src/MeshPaint\lPlugin.cpp">
<polygon fill="white" stroke="black" points="3025,-178.5 3025,-230.5 3199,-230.5 3199,-178.5 3025,-178.5"/>
<text text-anchor="start" x="3033" y="-218.5" font-family="Helvetica,sans-Serif" font-size="10.00">/home/travis/build</text>
<text text-anchor="start" x="3033" y="-207.5" font-family="Helvetica,sans-Serif" font-size="10.00">/STORM&#45;IRIT/Radium&#45;Engine</text>
<text text-anchor="start" x="3033" y="-196.5" font-family="Helvetica,sans-Serif" font-size="10.00">/Plugins/MeshPaint/src/MeshPaint</text>
<text text-anchor="middle" x="3112" y="-185.5" font-family="Helvetica,sans-Serif" font-size="10.00">Plugin.cpp</text>
</a>
</g>
</g>
<!-- Node1&#45;&gt;Node26 -->
<g id="edge31" class="edge"><title>Node1&#45;&gt;Node26</title>
<path fill="none" stroke="midnightblue" d="M1977.38,-289.705C2217.86,-282.643 2817.45,-262.383 3016,-231 3018.9,-230.542 3021.83,-230.033 3024.79,-229.481"/>
<polygon fill="midnightblue" stroke="midnightblue" points="1977.14,-286.211 1967.25,-290.001 1977.35,-293.208 1977.14,-286.211"/>
</g>
<!-- Node27 -->
<g id="node27" class="node"><title>Node27</title>
<g id="a_node27"><a xlink:href="SkinningComponent_8cpp.html" target="_top" xlink:title="/home/travis/build\l/STORM&#45;IRIT/Radium&#45;Engine\l/Plugins/Skinning/src/SkinningComponent.cpp">
<polygon fill="white" stroke="black" points="3217,-184 3217,-225 3451,-225 3451,-184 3217,-184"/>
<text text-anchor="start" x="3225" y="-213" font-family="Helvetica,sans-Serif" font-size="10.00">/home/travis/build</text>
<text text-anchor="start" x="3225" y="-202" font-family="Helvetica,sans-Serif" font-size="10.00">/STORM&#45;IRIT/Radium&#45;Engine</text>
<text text-anchor="middle" x="3334" y="-191" font-family="Helvetica,sans-Serif" font-size="10.00">/Plugins/Skinning/src/SkinningComponent.cpp</text>
</a>
</g>
</g>
<!-- Node1&#45;&gt;Node27 -->
<g id="edge32" class="edge"><title>Node1&#45;&gt;Node27</title>
<path fill="none" stroke="midnightblue" d="M1977.31,-293.112C2200.52,-293.303 2751.21,-287.429 3208,-231 3220.51,-229.454 3233.64,-227.348 3246.5,-225.005"/>
<polygon fill="midnightblue" stroke="midnightblue" points="1977.25,-289.612 1967.25,-293.099 1977.25,-296.612 1977.25,-289.612"/>
</g>
<!-- Node11 -->
<g id="node11" class="node"><title>Node11</title>
<g id="a_node11"><a xlink:href="Gizmo_8cpp.html" target="_top" xlink:title="/home/travis/build\l/STORM&#45;IRIT/Radium&#45;Engine\l/src/GuiBase/Viewer/Gizmo\l/Gizmo.cpp">
<polygon fill="white" stroke="black" points="1036,-89.5 1036,-141.5 1184,-141.5 1184,-89.5 1036,-89.5"/>
<text text-anchor="start" x="1044" y="-129.5" font-family="Helvetica,sans-Serif" font-size="10.00">/home/travis/build</text>
<text text-anchor="start" x="1044" y="-118.5" font-family="Helvetica,sans-Serif" font-size="10.00">/STORM&#45;IRIT/Radium&#45;Engine</text>
<text text-anchor="start" x="1044" y="-107.5" font-family="Helvetica,sans-Serif" font-size="10.00">/src/GuiBase/Viewer/Gizmo</text>
<text text-anchor="middle" x="1110" y="-96.5" font-family="Helvetica,sans-Serif" font-size="10.00">/Gizmo.cpp</text>
</a>
</g>
</g>
<!-- Node10&#45;&gt;Node11 -->
<g id="edge10" class="edge"><title>Node10&#45;&gt;Node11</title>
<path fill="none" stroke="midnightblue" d="M1690.12,-178.037C1471.04,-138.474 1407.92,-182.247 1193,-142 1190.04,-141.445 1187.03,-140.821 1184,-140.143"/>
<polygon fill="midnightblue" stroke="midnightblue" points="1689.53,-181.487 1700,-179.857 1690.8,-174.603 1689.53,-181.487"/>
</g>
<!-- Node12 -->
<g id="node12" class="node"><title>Node12</title>
<g id="a_node12"><a xlink:href="GizmoManager_8hpp.html" target="_top" xlink:title="/home/travis/build\l/STORM&#45;IRIT/Radium&#45;Engine\l/src/GuiBase/Viewer/Gizmo\l/GizmoManager.hpp">
<polygon fill="white" stroke="black" points="1202,-89.5 1202,-141.5 1350,-141.5 1350,-89.5 1202,-89.5"/>
<text text-anchor="start" x="1210" y="-129.5" font-family="Helvetica,sans-Serif" font-size="10.00">/home/travis/build</text>
<text text-anchor="start" x="1210" y="-118.5" font-family="Helvetica,sans-Serif" font-size="10.00">/STORM&#45;IRIT/Radium&#45;Engine</text>
<text text-anchor="start" x="1210" y="-107.5" font-family="Helvetica,sans-Serif" font-size="10.00">/src/GuiBase/Viewer/Gizmo</text>
<text text-anchor="middle" x="1276" y="-96.5" font-family="Helvetica,sans-Serif" font-size="10.00">/GizmoManager.hpp</text>
</a>
</g>
</g>
<!-- Node10&#45;&gt;Node12 -->
<g id="edge11" class="edge"><title>Node10&#45;&gt;Node12</title>
<path fill="none" stroke="midnightblue" d="M1689.74,-177.925C1543.72,-149.115 1501.11,-171.257 1359,-142 1356.05,-141.392 1353.05,-140.723 1350.03,-140.007"/>
<polygon fill="midnightblue" stroke="midnightblue" points="1689.47,-181.442 1699.97,-179.993 1690.86,-174.581 1689.47,-181.442"/>
</g>
<!-- Node15 -->
<g id="node15" class="node"><title>Node15</title>
<g id="a_node15"><a xlink:href="RotateGizmo_8hpp.html" target="_top" xlink:title="/home/travis/build\l/STORM&#45;IRIT/Radium&#45;Engine\l/src/GuiBase/Viewer/Gizmo\l/RotateGizmo.hpp">
<polygon fill="white" stroke="black" points="1368,-89.5 1368,-141.5 1516,-141.5 1516,-89.5 1368,-89.5"/>
<text text-anchor="start" x="1376" y="-129.5" font-family="Helvetica,sans-Serif" font-size="10.00">/home/travis/build</text>
<text text-anchor="start" x="1376" y="-118.5" font-family="Helvetica,sans-Serif" font-size="10.00">/STORM&#45;IRIT/Radium&#45;Engine</text>
<text text-anchor="start" x="1376" y="-107.5" font-family="Helvetica,sans-Serif" font-size="10.00">/src/GuiBase/Viewer/Gizmo</text>
<text text-anchor="middle" x="1442" y="-96.5" font-family="Helvetica,sans-Serif" font-size="10.00">/RotateGizmo.hpp</text>
</a>
</g>
</g>
<!-- Node10&#45;&gt;Node15 -->
<g id="edge14" class="edge"><title>Node10&#45;&gt;Node15</title>
<path fill="none" stroke="midnightblue" d="M1690.1,-177.86C1616.24,-159.043 1595.04,-160.319 1525,-142 1522.08,-141.237 1519.12,-140.438 1516.12,-139.612"/>
<polygon fill="midnightblue" stroke="midnightblue" points="1689.32,-181.272 1699.88,-180.388 1691.07,-174.495 1689.32,-181.272"/>
</g>
<!-- Node17 -->
<g id="node17" class="node"><title>Node17</title>
<g id="a_node17"><a xlink:href="ScaleGizmo_8hpp.html" target="_top" xlink:title="/home/travis/build\l/STORM&#45;IRIT/Radium&#45;Engine\l/src/GuiBase/Viewer/Gizmo\l/ScaleGizmo.hpp">
<polygon fill="white" stroke="black" points="1700,-89.5 1700,-141.5 1848,-141.5 1848,-89.5 1700,-89.5"/>
<text text-anchor="start" x="1708" y="-129.5" font-family="Helvetica,sans-Serif" font-size="10.00">/home/travis/build</text>
<text text-anchor="start" x="1708" y="-118.5" font-family="Helvetica,sans-Serif" font-size="10.00">/STORM&#45;IRIT/Radium&#45;Engine</text>
<text text-anchor="start" x="1708" y="-107.5" font-family="Helvetica,sans-Serif" font-size="10.00">/src/GuiBase/Viewer/Gizmo</text>
<text text-anchor="middle" x="1774" y="-96.5" font-family="Helvetica,sans-Serif" font-size="10.00">/ScaleGizmo.hpp</text>
</a>
</g>
</g>
<!-- Node10&#45;&gt;Node17 -->
<g id="edge17" class="edge"><title>Node10&#45;&gt;Node17</title>
<path fill="none" stroke="midnightblue" d="M1774,-168.191C1774,-159.282 1774,-149.899 1774,-141.607"/>
<polygon fill="midnightblue" stroke="midnightblue" points="1770.5,-168.336 1774,-178.336 1777.5,-168.336 1770.5,-168.336"/>
</g>
<!-- Node19 -->
<g id="node19" class="node"><title>Node19</title>
<g id="a_node19"><a xlink:href="TranslateGizmo_8hpp.html" target="_top" xlink:title="/home/travis/build\l/STORM&#45;IRIT/Radium&#45;Engine\l/src/GuiBase/Viewer/Gizmo\l/TranslateGizmo.hpp">
<polygon fill="white" stroke="black" points="1534,-89.5 1534,-141.5 1682,-141.5 1682,-89.5 1534,-89.5"/>
<text text-anchor="start" x="1542" y="-129.5" font-family="Helvetica,sans-Serif" font-size="10.00">/home/travis/build</text>
<text text-anchor="start" x="1542" y="-118.5" font-family="Helvetica,sans-Serif" font-size="10.00">/STORM&#45;IRIT/Radium&#45;Engine</text>
<text text-anchor="start" x="1542" y="-107.5" font-family="Helvetica,sans-Serif" font-size="10.00">/src/GuiBase/Viewer/Gizmo</text>
<text text-anchor="middle" x="1608" y="-96.5" font-family="Helvetica,sans-Serif" font-size="10.00">/TranslateGizmo.hpp</text>
</a>
</g>
</g>
<!-- Node10&#45;&gt;Node19 -->
<g id="edge20" class="edge"><title>Node10&#45;&gt;Node19</title>
<path fill="none" stroke="midnightblue" d="M1717.02,-173.635C1697.12,-163.205 1674.99,-151.611 1655.91,-141.607"/>
<polygon fill="midnightblue" stroke="midnightblue" points="1715.5,-176.794 1725.99,-178.336 1718.75,-170.594 1715.5,-176.794"/>
</g>
<!-- Node13 -->
<g id="node13" class="node"><title>Node13</title>
<g id="a_node13"><a xlink:href="GizmoManager_8cpp.html" target="_top" xlink:title="/home/travis/build\l/STORM&#45;IRIT/Radium&#45;Engine\l/src/GuiBase/Viewer/Gizmo\l/GizmoManager.cpp">
<polygon fill="white" stroke="black" points="1378,-0.5 1378,-52.5 1526,-52.5 1526,-0.5 1378,-0.5"/>
<text text-anchor="start" x="1386" y="-40.5" font-family="Helvetica,sans-Serif" font-size="10.00">/home/travis/build</text>
<text text-anchor="start" x="1386" y="-29.5" font-family="Helvetica,sans-Serif" font-size="10.00">/STORM&#45;IRIT/Radium&#45;Engine</text>
<text text-anchor="start" x="1386" y="-18.5" font-family="Helvetica,sans-Serif" font-size="10.00">/src/GuiBase/Viewer/Gizmo</text>
<text text-anchor="middle" x="1452" y="-7.5" font-family="Helvetica,sans-Serif" font-size="10.00">/GizmoManager.cpp</text>
</a>
</g>
</g>
<!-- Node12&#45;&gt;Node13 -->
<g id="edge12" class="edge"><title>Node12&#45;&gt;Node13</title>
<path fill="none" stroke="midnightblue" d="M1336.13,-84.7763C1357.31,-74.3094 1380.88,-62.656 1401.21,-52.6075"/>
<polygon fill="midnightblue" stroke="midnightblue" points="1334.32,-81.767 1326.91,-89.336 1337.42,-88.0422 1334.32,-81.767"/>
</g>
<!-- Node14 -->
<g id="node14" class="node"><title>Node14</title>
<g id="a_node14"><a xlink:href="Viewer_8cpp.html" target="_top" xlink:title="/home/travis/build\l/STORM&#45;IRIT/Radium&#45;Engine\l/src/GuiBase/Viewer/Viewer.cpp">
<polygon fill="white" stroke="black" points="1193.5,-6 1193.5,-47 1358.5,-47 1358.5,-6 1193.5,-6"/>
<text text-anchor="start" x="1201.5" y="-35" font-family="Helvetica,sans-Serif" font-size="10.00">/home/travis/build</text>
<text text-anchor="start" x="1201.5" y="-24" font-family="Helvetica,sans-Serif" font-size="10.00">/STORM&#45;IRIT/Radium&#45;Engine</text>
<text text-anchor="middle" x="1276" y="-13" font-family="Helvetica,sans-Serif" font-size="10.00">/src/GuiBase/Viewer/Viewer.cpp</text>
</a>
</g>
</g>
<!-- Node12&#45;&gt;Node14 -->
<g id="edge13" class="edge"><title>Node12&#45;&gt;Node14</title>
<path fill="none" stroke="midnightblue" d="M1276,-79.1554C1276,-68.2096 1276,-56.5492 1276,-47.0821"/>
<polygon fill="midnightblue" stroke="midnightblue" points="1272.5,-79.336 1276,-89.336 1279.5,-79.336 1272.5,-79.336"/>
</g>
<!-- Node15&#45;&gt;Node13 -->
<g id="edge15" class="edge"><title>Node15&#45;&gt;Node13</title>
<path fill="none" stroke="midnightblue" d="M1446.06,-79.1908C1447.08,-70.2824 1448.16,-60.8986 1449.11,-52.6075"/>
<polygon fill="midnightblue" stroke="midnightblue" points="1442.56,-79.0017 1444.89,-89.336 1449.51,-79.8011 1442.56,-79.0017"/>
</g>
<!-- Node15&#45;&gt;Node16 -->
<g id="edge16" class="edge"><title>Node15&#45;&gt;Node16</title>
<path fill="none" stroke="midnightblue" d="M1502.19,-84.917C1523.55,-74.414 1547.38,-62.701 1567.92,-52.6075"/>
<polygon fill="midnightblue" stroke="midnightblue" points="1500.63,-81.7837 1493.2,-89.336 1503.71,-88.0658 1500.63,-81.7837"/>
</g>
<!-- Node17&#45;&gt;Node13 -->
<g id="edge18" class="edge"><title>Node17&#45;&gt;Node13</title>
<path fill="none" stroke="midnightblue" d="M1689.81,-88.7603C1620.96,-70.6265 1601.25,-70.4607 1536,-53 1532.76,-52.1333 1529.46,-51.2272 1526.13,-50.2949"/>
<polygon fill="midnightblue" stroke="midnightblue" points="1689.3,-92.2459 1699.86,-91.442 1691.1,-85.4824 1689.3,-92.2459"/>
</g>
<!-- Node17&#45;&gt;Node18 -->
<g id="edge19" class="edge"><title>Node17&#45;&gt;Node18</title>
<path fill="none" stroke="midnightblue" d="M1834.19,-84.917C1855.55,-74.414 1879.38,-62.701 1899.92,-52.6075"/>
<polygon fill="midnightblue" stroke="midnightblue" points="1832.63,-81.7837 1825.2,-89.336 1835.71,-88.0658 1832.63,-81.7837"/>
</g>
<!-- Node19&#45;&gt;Node13 -->
<g id="edge21" class="edge"><title>Node19&#45;&gt;Node13</title>
<path fill="none" stroke="midnightblue" d="M1553.94,-84.3532C1535.37,-73.9962 1514.8,-62.5208 1497.02,-52.6075"/>
<polygon fill="midnightblue" stroke="midnightblue" points="1552.44,-87.522 1562.88,-89.336 1555.85,-81.4085 1552.44,-87.522"/>
</g>
<!-- Node19&#45;&gt;Node20 -->
<g id="edge22" class="edge"><title>Node19&#45;&gt;Node20</title>
<path fill="none" stroke="midnightblue" d="M1668.19,-84.917C1689.55,-74.414 1713.38,-62.701 1733.92,-52.6075"/>
<polygon fill="midnightblue" stroke="midnightblue" points="1666.63,-81.7837 1659.2,-89.336 1669.71,-88.0658 1666.63,-81.7837"/>
</g>
</g>
</svg>
