<?xml version="1.0" encoding="UTF-8" standalone="no"?>
<!DOCTYPE svg PUBLIC "-//W3C//DTD SVG 1.1//EN"
 "http://www.w3.org/Graphics/SVG/1.1/DTD/svg11.dtd">
<!-- Generated by graphviz version 2.38.0 (20140413.2041)
 -->
<!-- Title: /home/travis/build/STORM&#45;IRIT/Radium&#45;Engine/src/Engine/Renderer/RenderTechnique/RenderTechnique.cpp Pages: 1 -->
<svg width="1625pt" height="441pt"
 viewBox="0.00 0.00 1625.00 441.00" xmlns="http://www.w3.org/2000/svg" xmlns:xlink="http://www.w3.org/1999/xlink">
<g id="graph0" class="graph" transform="scale(1 1) rotate(0) translate(4 437)">
<title>/home/travis/build/STORM&#45;IRIT/Radium&#45;Engine/src/Engine/Renderer/RenderTechnique/RenderTechnique.cpp</title>
<polygon fill="white" stroke="none" points="-4,4 -4,-437 1621,-437 1621,4 -4,4"/>
<!-- Node1 -->
<g id="node1" class="node"><title>Node1</title>
<polygon fill="#bfbfbf" stroke="black" points="888,-380.5 888,-432.5 1086,-432.5 1086,-380.5 888,-380.5"/>
<text text-anchor="start" x="896" y="-420.5" font-family="Helvetica,sans-Serif" font-size="10.00">/home/travis/build</text>
<text text-anchor="start" x="896" y="-409.5" font-family="Helvetica,sans-Serif" font-size="10.00">/STORM&#45;IRIT/Radium&#45;Engine</text>
<text text-anchor="start" x="896" y="-398.5" font-family="Helvetica,sans-Serif" font-size="10.00">/src/Engine/Renderer/RenderTechnique</text>
<text text-anchor="middle" x="987" y="-387.5" font-family="Helvetica,sans-Serif" font-size="10.00">/RenderTechnique.cpp</text>
</g>
<!-- Node2 -->
<g id="node2" class="node"><title>Node2</title>
<g id="a_node2"><a xlink:href="BlinnPhongMaterial_8hpp.html" target="_top" xlink:title="Engine/Renderer/Material\l/BlinnPhongMaterial.hpp">
<polygon fill="white" stroke="black" points="399,-313.5 399,-343.5 535,-343.5 535,-313.5 399,-313.5"/>
<text text-anchor="start" x="407" y="-331.5" font-family="Helvetica,sans-Serif" font-size="10.00">Engine/Renderer/Material</text>
<text text-anchor="middle" x="467" y="-320.5" font-family="Helvetica,sans-Serif" font-size="10.00">/BlinnPhongMaterial.hpp</text>
</a>
</g>
</g>
<!-- Node1&#45;&gt;Node2 -->
<g id="edge1" class="edge"><title>Node1&#45;&gt;Node2</title>
<path fill="none" stroke="midnightblue" d="M887.968,-391.026C788.275,-376.456 636.526,-354.277 545.045,-340.907"/>
<polygon fill="midnightblue" stroke="midnightblue" points="545.417,-337.424 535.016,-339.441 544.405,-344.35 545.417,-337.424"/>
</g>
<!-- Node28 -->
<g id="node28" class="node"><title>Node28</title>
<g id="a_node28"><a xlink:href="RenderTechnique_8hpp.html" target="_top" xlink:title="Engine/Renderer/RenderTechnique\l/RenderTechnique.hpp">
<polygon fill="white" stroke="black" points="729,-313.5 729,-343.5 907,-343.5 907,-313.5 729,-313.5"/>
<text text-anchor="start" x="737" y="-331.5" font-family="Helvetica,sans-Serif" font-size="10.00">Engine/Renderer/RenderTechnique</text>
<text text-anchor="middle" x="818" y="-320.5" font-family="Helvetica,sans-Serif" font-size="10.00">/RenderTechnique.hpp</text>
</a>
</g>
</g>
<!-- Node1&#45;&gt;Node28 -->
<g id="edge37" class="edge"><title>Node1&#45;&gt;Node28</title>
<path fill="none" stroke="midnightblue" d="M931.195,-380.404C907.577,-369.783 880.566,-357.636 858.854,-347.872"/>
<polygon fill="midnightblue" stroke="midnightblue" points="860.147,-344.616 849.591,-343.707 857.276,-351 860.147,-344.616"/>
</g>
<!-- Node35 -->
<g id="node35" class="node"><title>Node35</title>
<g id="a_node35"><a xlink:href="ShaderConfigFactory_8hpp.html" target="_top" xlink:title="Engine/Renderer/RenderTechnique\l/ShaderConfigFactory.hpp">
<polygon fill="white" stroke="black" points="1015,-313.5 1015,-343.5 1193,-343.5 1193,-313.5 1015,-313.5"/>
<text text-anchor="start" x="1023" y="-331.5" font-family="Helvetica,sans-Serif" font-size="10.00">Engine/Renderer/RenderTechnique</text>
<text text-anchor="middle" x="1104" y="-320.5" font-family="Helvetica,sans-Serif" font-size="10.00">/ShaderConfigFactory.hpp</text>
</a>
</g>
</g>
<!-- Node1&#45;&gt;Node35 -->
<g id="edge49" class="edge"><title>Node1&#45;&gt;Node35</title>
<path fill="none" stroke="midnightblue" d="M1025.63,-380.404C1041.18,-370.307 1058.85,-358.831 1073.47,-349.334"/>
<polygon fill="midnightblue" stroke="midnightblue" points="1075.65,-352.089 1082.13,-343.707 1071.84,-346.219 1075.65,-352.089"/>
</g>
<!-- Node36 -->
<g id="node36" class="node"><title>Node36</title>
<g id="a_node36"><a xlink:href="ShaderProgramManager_8hpp.html" target="_top" xlink:title="Engine/Renderer/RenderTechnique\l/ShaderProgramManager.hpp">
<polygon fill="white" stroke="black" points="898,-246.5 898,-276.5 1076,-276.5 1076,-246.5 898,-246.5"/>
<text text-anchor="start" x="906" y="-264.5" font-family="Helvetica,sans-Serif" font-size="10.00">Engine/Renderer/RenderTechnique</text>
<text text-anchor="middle" x="987" y="-253.5" font-family="Helvetica,sans-Serif" font-size="10.00">/ShaderProgramManager.hpp</text>
</a>
</g>
</g>
<!-- Node1&#45;&gt;Node36 -->
<g id="edge52" class="edge"><title>Node1&#45;&gt;Node36</title>
<path fill="none" stroke="midnightblue" d="M987,-380.264C987,-353.884 987,-312.781 987,-286.769"/>
<polygon fill="midnightblue" stroke="midnightblue" points="990.5,-286.631 987,-276.631 983.5,-286.631 990.5,-286.631"/>
</g>
<!-- Node39 -->
<g id="node39" class="node"><title>Node39</title>
<g id="a_node39"><a xlink:href="Log_8hpp.html" target="_top" xlink:title="Core/Utils/Log.hpp">
<polygon fill="white" stroke="black" points="1414,-252 1414,-271 1518,-271 1518,-252 1414,-252"/>
<text text-anchor="middle" x="1466" y="-259" font-family="Helvetica,sans-Serif" font-size="10.00">Core/Utils/Log.hpp</text>
</a>
</g>
</g>
<!-- Node1&#45;&gt;Node39 -->
<g id="edge61" class="edge"><title>Node1&#45;&gt;Node39</title>
<path fill="none" stroke="midnightblue" d="M1076.03,-380.481C1114.79,-369.476 1160.69,-356.282 1202,-344 1283.47,-319.776 1378.63,-290.042 1429.51,-274.03"/>
<polygon fill="midnightblue" stroke="midnightblue" points="1430.59,-277.359 1439.07,-271.016 1428.48,-270.682 1430.59,-277.359"/>
</g>
<!-- Node3 -->
<g id="node3" class="node"><title>Node3</title>
<g id="a_node3"><a xlink:href="RaEngine_8hpp.html" target="_top" xlink:title="Engine/RaEngine.hpp">
<polygon fill="white" stroke="black" points="621.5,-185 621.5,-204 738.5,-204 738.5,-185 621.5,-185"/>
<text text-anchor="middle" x="680" y="-192" font-family="Helvetica,sans-Serif" font-size="10.00">Engine/RaEngine.hpp</text>
</a>
</g>
</g>
<!-- Node2&#45;&gt;Node3 -->
<g id="edge2" class="edge"><title>Node2&#45;&gt;Node3</title>
<path fill="none" stroke="midnightblue" d="M476.997,-313.198C490.219,-295.235 515.128,-264.53 543,-246 570.543,-227.688 605.598,-214.924 633.353,-206.81"/>
<polygon fill="midnightblue" stroke="midnightblue" points="634.546,-210.11 643.221,-204.029 632.647,-203.373 634.546,-210.11"/>
</g>
<!-- Node10 -->
<g id="node10" class="node"><title>Node10</title>
<polygon fill="white" stroke="#bfbfbf" points="411,-185 411,-204 449,-204 449,-185 411,-185"/>
<text text-anchor="middle" x="430" y="-192" font-family="Helvetica,sans-Serif" font-size="10.00">map</text>
</g>
<!-- Node2&#45;&gt;Node10 -->
<g id="edge9" class="edge"><title>Node2&#45;&gt;Node10</title>
<path fill="none" stroke="midnightblue" d="M463.04,-313.374C456.32,-289.397 442.683,-240.748 435.201,-214.056"/>
<polygon fill="midnightblue" stroke="midnightblue" points="438.479,-212.781 432.41,-204.097 431.739,-214.671 438.479,-212.781"/>
</g>
<!-- Node11 -->
<g id="node11" class="node"><title>Node11</title>
<polygon fill="white" stroke="#bfbfbf" points="832,-185 832,-204 876,-204 876,-185 832,-185"/>
<text text-anchor="middle" x="854" y="-192" font-family="Helvetica,sans-Serif" font-size="10.00">string</text>
</g>
<!-- Node2&#45;&gt;Node11 -->
<g id="edge10" class="edge"><title>Node2&#45;&gt;Node11</title>
<path fill="none" stroke="midnightblue" d="M535.492,-316.777C580.964,-308.551 641.53,-295.452 693,-277 744.359,-258.588 800.349,-227.51 830.901,-209.519"/>
<polygon fill="midnightblue" stroke="midnightblue" points="833.085,-212.293 839.889,-204.171 829.505,-206.277 833.085,-212.293"/>
</g>
<!-- Node12 -->
<g id="node12" class="node"><title>Node12</title>
<g id="a_node12"><a xlink:href="Color_8hpp.html" target="_top" xlink:title="Core/Utils/Color.hpp">
<polygon fill="white" stroke="black" points="154.5,-185 154.5,-204 265.5,-204 265.5,-185 154.5,-185"/>
<text text-anchor="middle" x="210" y="-192" font-family="Helvetica,sans-Serif" font-size="10.00">Core/Utils/Color.hpp</text>
</a>
</g>
</g>
<!-- Node2&#45;&gt;Node12 -->
<g id="edge11" class="edge"><title>Node2&#45;&gt;Node12</title>
<path fill="none" stroke="midnightblue" d="M398.909,-327.657C308.52,-326.248 156.189,-317.697 121,-277 97.8277,-250.2 144.102,-223.245 178.187,-208.033"/>
<polygon fill="midnightblue" stroke="midnightblue" points="179.608,-211.232 187.41,-204.064 176.841,-204.802 179.608,-211.232"/>
</g>
<!-- Node16 -->
<g id="node16" class="node"><title>Node16</title>
<g id="a_node16"><a xlink:href="Material_8hpp.html" target="_top" xlink:title="Engine/Renderer/Material\l/Material.hpp">
<polygon fill="white" stroke="black" points="284,-246.5 284,-276.5 420,-276.5 420,-246.5 284,-246.5"/>
<text text-anchor="start" x="292" y="-264.5" font-family="Helvetica,sans-Serif" font-size="10.00">Engine/Renderer/Material</text>
<text text-anchor="middle" x="352" y="-253.5" font-family="Helvetica,sans-Serif" font-size="10.00">/Material.hpp</text>
</a>
</g>
</g>
<!-- Node2&#45;&gt;Node16 -->
<g id="edge16" class="edge"><title>Node2&#45;&gt;Node16</title>
<path fill="none" stroke="midnightblue" d="M442.047,-313.396C425.621,-304.112 403.911,-291.841 385.924,-281.674"/>
<polygon fill="midnightblue" stroke="midnightblue" points="387.332,-278.45 376.905,-276.577 383.888,-284.544 387.332,-278.45"/>
</g>
<!-- Node21 -->
<g id="node21" class="node"><title>Node21</title>
<g id="a_node21"><a xlink:href="Texture_8hpp.html" target="_top" xlink:title="Engine/Renderer/Texture\l/Texture.hpp">
<polygon fill="white" stroke="black" points="552,-246.5 552,-276.5 684,-276.5 684,-246.5 552,-246.5"/>
<text text-anchor="start" x="560" y="-264.5" font-family="Helvetica,sans-Serif" font-size="10.00">Engine/Renderer/Texture</text>
<text text-anchor="middle" x="618" y="-253.5" font-family="Helvetica,sans-Serif" font-size="10.00">/Texture.hpp</text>
</a>
</g>
</g>
<!-- Node2&#45;&gt;Node21 -->
<g id="edge27" class="edge"><title>Node2&#45;&gt;Node21</title>
<path fill="none" stroke="midnightblue" d="M499.765,-313.396C522.124,-303.771 551.94,-290.936 576.037,-280.564"/>
<polygon fill="midnightblue" stroke="midnightblue" points="577.498,-283.745 585.299,-276.577 574.73,-277.316 577.498,-283.745"/>
</g>
<!-- Node27 -->
<g id="node27" class="node"><title>Node27</title>
<g id="a_node27"><a xlink:href="BlinnPhongMaterial_8inl.html" target="_top" xlink:title="Engine/Renderer/Material\l/BlinnPhongMaterial.inl">
<polygon fill="white" stroke="black" points="130,-246.5 130,-276.5 266,-276.5 266,-246.5 130,-246.5"/>
<text text-anchor="start" x="138" y="-264.5" font-family="Helvetica,sans-Serif" font-size="10.00">Engine/Renderer/Material</text>
<text text-anchor="middle" x="198" y="-253.5" font-family="Helvetica,sans-Serif" font-size="10.00">/BlinnPhongMaterial.inl</text>
</a>
</g>
</g>
<!-- Node2&#45;&gt;Node27 -->
<g id="edge36" class="edge"><title>Node2&#45;&gt;Node27</title>
<path fill="none" stroke="midnightblue" d="M408.962,-313.476C367.034,-303.345 310.26,-289.626 266.171,-278.973"/>
<polygon fill="midnightblue" stroke="midnightblue" points="266.94,-275.558 256.397,-276.611 265.296,-282.362 266.94,-275.558"/>
</g>
<!-- Node4 -->
<g id="node4" class="node"><title>Node4</title>
<g id="a_node4"><a xlink:href="CoreMacros_8hpp.html" target="_top" xlink:title="Core/CoreMacros.hpp">
<polygon fill="white" stroke="black" points="866,-56.5 866,-75.5 986,-75.5 986,-56.5 866,-56.5"/>
<text text-anchor="middle" x="926" y="-63.5" font-family="Helvetica,sans-Serif" font-size="10.00">Core/CoreMacros.hpp</text>
</a>
</g>
</g>
<!-- Node3&#45;&gt;Node4 -->
<g id="edge3" class="edge"><title>Node3&#45;&gt;Node4</title>
<path fill="none" stroke="midnightblue" d="M717.162,-184.952C768.532,-172.928 856.371,-151.533 869,-143 890.934,-128.18 907.77,-102.07 917.279,-84.6512"/>
<polygon fill="midnightblue" stroke="midnightblue" points="920.503,-86.0375 922.014,-75.5509 914.293,-82.8065 920.503,-86.0375"/>
</g>
<!-- Node5 -->
<g id="node5" class="node"><title>Node5</title>
<polygon fill="white" stroke="#bfbfbf" points="798,-0.5 798,-19.5 850,-19.5 850,-0.5 798,-0.5"/>
<text text-anchor="middle" x="824" y="-7.5" font-family="Helvetica,sans-Serif" font-size="10.00">cassert</text>
</g>
<!-- Node4&#45;&gt;Node5 -->
<g id="edge4" class="edge"><title>Node4&#45;&gt;Node5</title>
<path fill="none" stroke="midnightblue" d="M909.612,-56.324C893.329,-47.7034 868.133,-34.3643 849.284,-24.3855"/>
<polygon fill="midnightblue" stroke="midnightblue" points="850.823,-21.2402 840.347,-19.6545 847.548,-27.4267 850.823,-21.2402"/>
</g>
<!-- Node6 -->
<g id="node6" class="node"><title>Node6</title>
<polygon fill="white" stroke="#bfbfbf" points="868.5,-0.5 868.5,-19.5 913.5,-19.5 913.5,-0.5 868.5,-0.5"/>
<text text-anchor="middle" x="891" y="-7.5" font-family="Helvetica,sans-Serif" font-size="10.00">cstdio</text>
</g>
<!-- Node4&#45;&gt;Node6 -->
<g id="edge5" class="edge"><title>Node4&#45;&gt;Node6</title>
<path fill="none" stroke="midnightblue" d="M920.22,-56.083C915.328,-48.5341 908.173,-37.4948 902.167,-28.2298"/>
<polygon fill="midnightblue" stroke="midnightblue" points="905.048,-26.239 896.672,-19.7511 899.174,-30.0463 905.048,-26.239"/>
</g>
<!-- Node7 -->
<g id="node7" class="node"><title>Node7</title>
<polygon fill="white" stroke="#bfbfbf" points="931.5,-0.5 931.5,-19.5 990.5,-19.5 990.5,-0.5 931.5,-0.5"/>
<text text-anchor="middle" x="961" y="-7.5" font-family="Helvetica,sans-Serif" font-size="10.00">iostream</text>
</g>
<!-- Node4&#45;&gt;Node7 -->
<g id="edge6" class="edge"><title>Node4&#45;&gt;Node7</title>
<path fill="none" stroke="midnightblue" d="M931.78,-56.083C936.672,-48.5341 943.827,-37.4948 949.833,-28.2298"/>
<polygon fill="midnightblue" stroke="midnightblue" points="952.826,-30.0463 955.328,-19.7511 946.952,-26.239 952.826,-30.0463"/>
</g>
<!-- Node8 -->
<g id="node8" class="node"><title>Node8</title>
<polygon fill="white" stroke="#bfbfbf" points="1278,-0.5 1278,-19.5 1334,-19.5 1334,-0.5 1278,-0.5"/>
<text text-anchor="middle" x="1306" y="-7.5" font-family="Helvetica,sans-Serif" font-size="10.00">sstream</text>
</g>
<!-- Node4&#45;&gt;Node8 -->
<g id="edge7" class="edge"><title>Node4&#45;&gt;Node8</title>
<path fill="none" stroke="midnightblue" d="M986.212,-56.4435C1065.27,-45.2083 1201.77,-25.8116 1267.9,-16.4146"/>
<polygon fill="midnightblue" stroke="midnightblue" points="1268.48,-19.8673 1277.89,-14.9951 1267.49,-12.9369 1268.48,-19.8673"/>
</g>
<!-- Node9 -->
<g id="node9" class="node"><title>Node9</title>
<polygon fill="white" stroke="#bfbfbf" points="1009,-0.5 1009,-19.5 1057,-19.5 1057,-0.5 1009,-0.5"/>
<text text-anchor="middle" x="1033" y="-7.5" font-family="Helvetica,sans-Serif" font-size="10.00">thread</text>
</g>
<!-- Node4&#45;&gt;Node9 -->
<g id="edge8" class="edge"><title>Node4&#45;&gt;Node9</title>
<path fill="none" stroke="midnightblue" d="M943.191,-56.324C960.351,-47.6641 986.946,-34.2424 1006.75,-24.249"/>
<polygon fill="midnightblue" stroke="midnightblue" points="1008.5,-27.2847 1015.85,-19.6545 1005.35,-21.0354 1008.5,-27.2847"/>
</g>
<!-- Node12&#45;&gt;Node4 -->
<g id="edge12" class="edge"><title>Node12&#45;&gt;Node4</title>
<path fill="none" stroke="midnightblue" d="M199.331,-184.957C180.654,-169.02 145.933,-134.353 167,-112 190.422,-87.1485 672.045,-73.0678 855.698,-68.5853"/>
<polygon fill="midnightblue" stroke="midnightblue" points="855.877,-72.0821 865.79,-68.3414 855.708,-65.0842 855.877,-72.0821"/>
</g>
<!-- Node13 -->
<g id="node13" class="node"><title>Node13</title>
<polygon fill="white" stroke="#bfbfbf" points="176,-118 176,-137 244,-137 244,-118 176,-118"/>
<text text-anchor="middle" x="210" y="-125" font-family="Helvetica,sans-Serif" font-size="10.00">Eigen/Core</text>
</g>
<!-- Node12&#45;&gt;Node13 -->
<g id="edge13" class="edge"><title>Node12&#45;&gt;Node13</title>
<path fill="none" stroke="midnightblue" d="M210,-184.734C210,-175.183 210,-159.618 210,-147.283"/>
<polygon fill="midnightblue" stroke="midnightblue" points="213.5,-147.127 210,-137.127 206.5,-147.127 213.5,-147.127"/>
</g>
<!-- Node14 -->
<g id="node14" class="node"><title>Node14</title>
<polygon fill="white" stroke="#bfbfbf" points="262,-118 262,-137 356,-137 356,-118 262,-118"/>
<text text-anchor="middle" x="309" y="-125" font-family="Helvetica,sans-Serif" font-size="10.00">Eigen/Geometry</text>
</g>
<!-- Node12&#45;&gt;Node14 -->
<g id="edge14" class="edge"><title>Node12&#45;&gt;Node14</title>
<path fill="none" stroke="midnightblue" d="M223.352,-184.734C239.754,-173.964 267.801,-155.55 287.312,-142.739"/>
<polygon fill="midnightblue" stroke="midnightblue" points="289.422,-145.542 295.86,-137.127 285.58,-139.69 289.422,-145.542"/>
</g>
<!-- Node15 -->
<g id="node15" class="node"><title>Node15</title>
<polygon fill="white" stroke="#bfbfbf" points="66,-118 66,-137 120,-137 120,-118 66,-118"/>
<text text-anchor="middle" x="93" y="-125" font-family="Helvetica,sans-Serif" font-size="10.00">random</text>
</g>
<!-- Node12&#45;&gt;Node15 -->
<g id="edge15" class="edge"><title>Node12&#45;&gt;Node15</title>
<path fill="none" stroke="midnightblue" d="M194.221,-184.734C174.485,-173.769 140.486,-154.881 117.389,-142.049"/>
<polygon fill="midnightblue" stroke="midnightblue" points="118.97,-138.924 108.529,-137.127 115.571,-145.043 118.97,-138.924"/>
</g>
<!-- Node16&#45;&gt;Node3 -->
<g id="edge17" class="edge"><title>Node16&#45;&gt;Node3</title>
<path fill="none" stroke="midnightblue" d="M420.222,-247.602C472.705,-237.594 547.005,-223.24 612,-210 617.91,-208.796 624.104,-207.51 630.246,-206.219"/>
<polygon fill="midnightblue" stroke="midnightblue" points="631.413,-209.549 640.472,-204.056 629.965,-202.701 631.413,-209.549"/>
</g>
<!-- Node16&#45;&gt;Node10 -->
<g id="edge18" class="edge"><title>Node16&#45;&gt;Node10</title>
<path fill="none" stroke="midnightblue" d="M368.925,-246.396C381.568,-235.86 398.827,-221.477 411.774,-210.689"/>
<polygon fill="midnightblue" stroke="midnightblue" points="414.125,-213.285 419.567,-204.195 409.644,-207.908 414.125,-213.285"/>
</g>
<!-- Node16&#45;&gt;Node11 -->
<g id="edge19" class="edge"><title>Node16&#45;&gt;Node11</title>
<path fill="none" stroke="midnightblue" d="M420.202,-254.38C541.173,-243.347 784.194,-220.31 822,-210 824.151,-209.413 826.341,-208.698 828.514,-207.904"/>
<polygon fill="midnightblue" stroke="midnightblue" points="829.872,-211.13 837.765,-204.062 827.187,-204.665 829.872,-211.13"/>
</g>
<!-- Node17 -->
<g id="node17" class="node"><title>Node17</title>
<g id="a_node17"><a xlink:href="Types_8hpp.html" target="_top" xlink:title="Core/Types.hpp">
<polygon fill="white" stroke="black" points="303.5,-185 303.5,-204 392.5,-204 392.5,-185 303.5,-185"/>
<text text-anchor="middle" x="348" y="-192" font-family="Helvetica,sans-Serif" font-size="10.00">Core/Types.hpp</text>
</a>
</g>
</g>
<!-- Node16&#45;&gt;Node17 -->
<g id="edge20" class="edge"><title>Node16&#45;&gt;Node17</title>
<path fill="none" stroke="midnightblue" d="M351.132,-246.396C350.552,-236.963 349.781,-224.448 349.15,-214.189"/>
<polygon fill="midnightblue" stroke="midnightblue" points="352.643,-213.961 348.535,-204.195 345.656,-214.391 352.643,-213.961"/>
</g>
<!-- Node20 -->
<g id="node20" class="node"><title>Node20</title>
<g id="a_node20"><a xlink:href="Material_8inl.html" target="_top" xlink:title="Engine/Renderer/Material\l/Material.inl">
<polygon fill="white" stroke="black" points="0,-179.5 0,-209.5 136,-209.5 136,-179.5 0,-179.5"/>
<text text-anchor="start" x="8" y="-197.5" font-family="Helvetica,sans-Serif" font-size="10.00">Engine/Renderer/Material</text>
<text text-anchor="middle" x="68" y="-186.5" font-family="Helvetica,sans-Serif" font-size="10.00">/Material.inl</text>
</a>
</g>
</g>
<!-- Node16&#45;&gt;Node20 -->
<g id="edge26" class="edge"><title>Node16&#45;&gt;Node20</title>
<path fill="none" stroke="midnightblue" d="M290.726,-246.476C246.366,-236.323 186.268,-222.568 139.68,-211.906"/>
<polygon fill="midnightblue" stroke="midnightblue" points="140.183,-208.43 129.654,-209.611 138.621,-215.254 140.183,-208.43"/>
</g>
<!-- Node17&#45;&gt;Node13 -->
<g id="edge23" class="edge"><title>Node17&#45;&gt;Node13</title>
<path fill="none" stroke="midnightblue" d="M329.675,-184.869C306.064,-173.748 264.811,-154.317 237.448,-141.429"/>
<polygon fill="midnightblue" stroke="midnightblue" points="238.939,-138.262 228.401,-137.167 235.956,-144.595 238.939,-138.262"/>
</g>
<!-- Node17&#45;&gt;Node14 -->
<g id="edge24" class="edge"><title>Node17&#45;&gt;Node14</title>
<path fill="none" stroke="midnightblue" d="M342.74,-184.734C336.776,-174.793 326.903,-158.338 319.374,-145.789"/>
<polygon fill="midnightblue" stroke="midnightblue" points="322.323,-143.901 314.176,-137.127 316.32,-147.503 322.323,-143.901"/>
</g>
<!-- Node18 -->
<g id="node18" class="node"><title>Node18</title>
<g id="a_node18"><a xlink:href="RaCore_8hpp.html" target="_top" xlink:title="Core/RaCore.hpp">
<polygon fill="white" stroke="black" points="916,-118 916,-137 1014,-137 1014,-118 916,-118"/>
<text text-anchor="middle" x="965" y="-125" font-family="Helvetica,sans-Serif" font-size="10.00">Core/RaCore.hpp</text>
</a>
</g>
</g>
<!-- Node17&#45;&gt;Node18 -->
<g id="edge21" class="edge"><title>Node17&#45;&gt;Node18</title>
<path fill="none" stroke="midnightblue" d="M375.808,-184.977C384.158,-182.705 393.389,-180.475 402,-179 607.183,-143.856 662.166,-166.561 869,-143 880.906,-141.644 893.603,-139.922 905.734,-138.144"/>
<polygon fill="midnightblue" stroke="midnightblue" points="906.389,-141.585 915.76,-136.642 905.352,-134.662 906.389,-141.585"/>
</g>
<!-- Node19 -->
<g id="node19" class="node"><title>Node19</title>
<polygon fill="white" stroke="#bfbfbf" points="374,-118 374,-137 454,-137 454,-118 374,-118"/>
<text text-anchor="middle" x="414" y="-125" font-family="Helvetica,sans-Serif" font-size="10.00">Eigen/Sparse</text>
</g>
<!-- Node17&#45;&gt;Node19 -->
<g id="edge25" class="edge"><title>Node17&#45;&gt;Node19</title>
<path fill="none" stroke="midnightblue" d="M356.901,-184.734C367.391,-174.403 385.024,-157.037 397.925,-144.332"/>
<polygon fill="midnightblue" stroke="midnightblue" points="400.571,-146.638 405.24,-137.127 395.659,-141.651 400.571,-146.638"/>
</g>
<!-- Node18&#45;&gt;Node4 -->
<g id="edge22" class="edge"><title>Node18&#45;&gt;Node4</title>
<path fill="none" stroke="midnightblue" d="M959.412,-117.975C953.62,-109.138 944.411,-95.0886 937.126,-83.975"/>
<polygon fill="midnightblue" stroke="midnightblue" points="939.987,-81.9539 931.577,-75.5091 934.132,-85.7913 939.987,-81.9539"/>
</g>
<!-- Node21&#45;&gt;Node3 -->
<g id="edge28" class="edge"><title>Node21&#45;&gt;Node3</title>
<path fill="none" stroke="midnightblue" d="M631.453,-246.396C641.216,-236.161 654.441,-222.296 664.622,-211.622"/>
<polygon fill="midnightblue" stroke="midnightblue" points="667.337,-213.846 671.707,-204.195 662.272,-209.015 667.337,-213.846"/>
</g>
<!-- Node21&#45;&gt;Node11 -->
<g id="edge30" class="edge"><title>Node21&#45;&gt;Node11</title>
<path fill="none" stroke="midnightblue" d="M684.118,-247.347C724.486,-238.528 776.846,-225.672 822,-210 823.664,-209.423 825.359,-208.791 827.058,-208.125"/>
<polygon fill="midnightblue" stroke="midnightblue" points="828.79,-211.192 836.63,-204.066 826.057,-204.748 828.79,-211.192"/>
</g>
<!-- Node21&#45;&gt;Node12 -->
<g id="edge35" class="edge"><title>Node21&#45;&gt;Node12</title>
<path fill="none" stroke="midnightblue" d="M551.863,-250.515C486.349,-240.547 383.18,-224.646 294,-210 285.813,-208.655 277.183,-207.204 268.697,-205.758"/>
<polygon fill="midnightblue" stroke="midnightblue" points="269.284,-202.308 258.837,-204.069 268.102,-209.207 269.284,-202.308"/>
</g>
<!-- Node22 -->
<g id="node22" class="node"><title>Node22</title>
<polygon fill="white" stroke="#bfbfbf" points="756.5,-185 756.5,-204 813.5,-204 813.5,-185 756.5,-185"/>
<text text-anchor="middle" x="785" y="-192" font-family="Helvetica,sans-Serif" font-size="10.00">memory</text>
</g>
<!-- Node21&#45;&gt;Node22 -->
<g id="edge29" class="edge"><title>Node21&#45;&gt;Node22</title>
<path fill="none" stroke="midnightblue" d="M654.237,-246.396C683.928,-234.84 725.506,-218.656 753.751,-207.663"/>
<polygon fill="midnightblue" stroke="midnightblue" points="755.094,-210.896 763.144,-204.007 752.555,-204.373 755.094,-210.896"/>
</g>
<!-- Node23 -->
<g id="node23" class="node"><title>Node23</title>
<g id="a_node23"><a xlink:href="OpenGL_8hpp.html" target="_top" xlink:title="Engine/Renderer/OpenGL\l/OpenGL.hpp">
<polygon fill="white" stroke="black" points="467,-179.5 467,-209.5 603,-209.5 603,-179.5 467,-179.5"/>
<text text-anchor="start" x="475" y="-197.5" font-family="Helvetica,sans-Serif" font-size="10.00">Engine/Renderer/OpenGL</text>
<text text-anchor="middle" x="535" y="-186.5" font-family="Helvetica,sans-Serif" font-size="10.00">/OpenGL.hpp</text>
</a>
</g>
</g>
<!-- Node21&#45;&gt;Node23 -->
<g id="edge31" class="edge"><title>Node21&#45;&gt;Node23</title>
<path fill="none" stroke="midnightblue" d="M599.99,-246.396C588.57,-237.452 573.611,-225.737 560.924,-215.802"/>
<polygon fill="midnightblue" stroke="midnightblue" points="563.006,-212.987 552.975,-209.577 558.69,-218.498 563.006,-212.987"/>
</g>
<!-- Node24 -->
<g id="node24" class="node"><title>Node24</title>
<polygon fill="white" stroke="#bfbfbf" points="736,-118 736,-137 860,-137 860,-118 736,-118"/>
<text text-anchor="middle" x="798" y="-125" font-family="Helvetica,sans-Serif" font-size="10.00">glbinding/gl45core/gl.h</text>
</g>
<!-- Node23&#45;&gt;Node24 -->
<g id="edge32" class="edge"><title>Node23&#45;&gt;Node24</title>
<path fill="none" stroke="midnightblue" d="M591.743,-179.476C640.215,-167.496 708.98,-150.501 753.54,-139.488"/>
<polygon fill="midnightblue" stroke="midnightblue" points="754.624,-142.826 763.492,-137.029 752.944,-136.03 754.624,-142.826"/>
</g>
<!-- Node25 -->
<g id="node25" class="node"><title>Node25</title>
<polygon fill="white" stroke="#bfbfbf" points="472,-118 472,-137 590,-137 590,-118 472,-118"/>
<text text-anchor="middle" x="531" y="-125" font-family="Helvetica,sans-Serif" font-size="10.00">glbinding/gl45ext/gl.h</text>
</g>
<!-- Node23&#45;&gt;Node25 -->
<g id="edge33" class="edge"><title>Node23&#45;&gt;Node25</title>
<path fill="none" stroke="midnightblue" d="M534.132,-179.396C533.552,-169.963 532.781,-157.448 532.15,-147.189"/>
<polygon fill="midnightblue" stroke="midnightblue" points="535.643,-146.961 531.535,-137.195 528.656,-147.391 535.643,-146.961"/>
</g>
<!-- Node26 -->
<g id="node26" class="node"><title>Node26</title>
<polygon fill="white" stroke="#bfbfbf" points="608,-112.5 608,-142.5 718,-142.5 718,-112.5 608,-112.5"/>
<text text-anchor="start" x="616" y="-130.5" font-family="Helvetica,sans-Serif" font-size="10.00">glbinding&#45;aux/types</text>
<text text-anchor="middle" x="663" y="-119.5" font-family="Helvetica,sans-Serif" font-size="10.00">_to_string.h</text>
</g>
<!-- Node23&#45;&gt;Node26 -->
<g id="edge34" class="edge"><title>Node23&#45;&gt;Node26</title>
<path fill="none" stroke="midnightblue" d="M562.774,-179.396C581.393,-169.941 606.11,-157.39 626.339,-147.117"/>
<polygon fill="midnightblue" stroke="midnightblue" points="627.949,-150.225 635.28,-142.577 624.779,-143.984 627.949,-150.225"/>
</g>
<!-- Node28&#45;&gt;Node3 -->
<g id="edge38" class="edge"><title>Node28&#45;&gt;Node3</title>
<path fill="none" stroke="midnightblue" d="M803.232,-313.374C777.27,-288.541 723.638,-237.241 696.5,-211.282"/>
<polygon fill="midnightblue" stroke="midnightblue" points="698.634,-208.48 688.988,-204.097 693.795,-213.539 698.634,-208.48"/>
</g>
<!-- Node28&#45;&gt;Node10 -->
<g id="edge47" class="edge"><title>Node28&#45;&gt;Node10</title>
<path fill="none" stroke="midnightblue" d="M728.739,-321.166C673.478,-314.831 602.047,-302.19 543,-277 504.869,-260.733 467.147,-229.719 446.377,-210.994"/>
<polygon fill="midnightblue" stroke="midnightblue" points="448.53,-208.218 438.8,-204.024 443.791,-213.37 448.53,-208.218"/>
</g>
<!-- Node28&#45;&gt;Node22 -->
<g id="edge48" class="edge"><title>Node28&#45;&gt;Node22</title>
<path fill="none" stroke="midnightblue" d="M814.468,-313.374C808.474,-289.397 796.312,-240.748 789.639,-214.056"/>
<polygon fill="midnightblue" stroke="midnightblue" points="792.97,-212.95 787.149,-204.097 786.179,-214.648 792.97,-212.95"/>
</g>
<!-- Node29 -->
<g id="node29" class="node"><title>Node29</title>
<g id="a_node29"><a xlink:href="ShaderConfiguration_8hpp.html" target="_top" xlink:title="Engine/Renderer/RenderTechnique\l/ShaderConfiguration.hpp">
<polygon fill="white" stroke="black" points="1137,-246.5 1137,-276.5 1315,-276.5 1315,-246.5 1137,-246.5"/>
<text text-anchor="start" x="1145" y="-264.5" font-family="Helvetica,sans-Serif" font-size="10.00">Engine/Renderer/RenderTechnique</text>
<text text-anchor="middle" x="1226" y="-253.5" font-family="Helvetica,sans-Serif" font-size="10.00">/ShaderConfiguration.hpp</text>
</a>
</g>
</g>
<!-- Node28&#45;&gt;Node29 -->
<g id="edge39" class="edge"><title>Node28&#45;&gt;Node29</title>
<path fill="none" stroke="midnightblue" d="M906.028,-313.476C971.203,-303.093 1060.03,-288.942 1127.55,-278.184"/>
<polygon fill="midnightblue" stroke="midnightblue" points="1128.45,-281.585 1137.78,-276.555 1127.35,-274.672 1128.45,-281.585"/>
</g>
<!-- Node34 -->
<g id="node34" class="node"><title>Node34</title>
<polygon fill="white" stroke="#bfbfbf" points="816.5,-252 816.5,-271 879.5,-271 879.5,-252 816.5,-252"/>
<text text-anchor="middle" x="848" y="-259" font-family="Helvetica,sans-Serif" font-size="10.00">functional</text>
</g>
<!-- Node28&#45;&gt;Node34 -->
<g id="edge46" class="edge"><title>Node28&#45;&gt;Node34</title>
<path fill="none" stroke="midnightblue" d="M824.51,-313.396C828.956,-303.763 834.886,-290.914 839.675,-280.537"/>
<polygon fill="midnightblue" stroke="midnightblue" points="842.974,-281.741 843.987,-271.195 836.619,-278.807 842.974,-281.741"/>
</g>
<!-- Node29&#45;&gt;Node3 -->
<g id="edge40" class="edge"><title>Node29&#45;&gt;Node3</title>
<path fill="none" stroke="midnightblue" d="M1136.73,-251.211C1000.79,-237.049 756.514,-211.526 747,-210 740.21,-208.911 733.072,-207.574 726.089,-206.158"/>
<polygon fill="midnightblue" stroke="midnightblue" points="726.533,-202.675 716.027,-204.045 725.094,-209.526 726.533,-202.675"/>
</g>
<!-- Node29&#45;&gt;Node11 -->
<g id="edge44" class="edge"><title>Node29&#45;&gt;Node11</title>
<path fill="none" stroke="midnightblue" d="M1136.65,-247.923C1039.7,-234.177 897.017,-213.616 885,-210 883.122,-209.435 881.214,-208.775 879.313,-208.053"/>
<polygon fill="midnightblue" stroke="midnightblue" points="880.631,-204.81 870.06,-204.091 877.875,-211.245 880.631,-204.81"/>
</g>
<!-- Node30 -->
<g id="node30" class="node"><title>Node30</title>
<polygon fill="white" stroke="#bfbfbf" points="1369.5,-185 1369.5,-204 1410.5,-204 1410.5,-185 1369.5,-185"/>
<text text-anchor="middle" x="1390" y="-192" font-family="Helvetica,sans-Serif" font-size="10.00">array</text>
</g>
<!-- Node29&#45;&gt;Node30 -->
<g id="edge41" class="edge"><title>Node29&#45;&gt;Node30</title>
<path fill="none" stroke="midnightblue" d="M1266.25,-246.402C1293.05,-236.751 1328.93,-223.332 1360,-210 1361.2,-209.487 1362.41,-208.952 1363.64,-208.403"/>
<polygon fill="midnightblue" stroke="midnightblue" points="1365.4,-211.444 1372.99,-204.049 1362.45,-205.098 1365.4,-211.444"/>
</g>
<!-- Node31 -->
<g id="node31" class="node"><title>Node31</title>
<polygon fill="white" stroke="#bfbfbf" points="1271,-185 1271,-204 1301,-204 1301,-185 1271,-185"/>
<text text-anchor="middle" x="1286" y="-192" font-family="Helvetica,sans-Serif" font-size="10.00">list</text>
</g>
<!-- Node29&#45;&gt;Node31 -->
<g id="edge42" class="edge"><title>Node29&#45;&gt;Node31</title>
<path fill="none" stroke="midnightblue" d="M1239.02,-246.396C1248.47,-236.161 1261.27,-222.296 1271.12,-211.622"/>
<polygon fill="midnightblue" stroke="midnightblue" points="1273.76,-213.917 1277.97,-204.195 1268.62,-209.169 1273.76,-213.917"/>
</g>
<!-- Node32 -->
<g id="node32" class="node"><title>Node32</title>
<polygon fill="white" stroke="#bfbfbf" points="1319,-185 1319,-204 1351,-204 1351,-185 1319,-185"/>
<text text-anchor="middle" x="1335" y="-192" font-family="Helvetica,sans-Serif" font-size="10.00">set</text>
</g>
<!-- Node29&#45;&gt;Node32 -->
<g id="edge43" class="edge"><title>Node29&#45;&gt;Node32</title>
<path fill="none" stroke="midnightblue" d="M1249.65,-246.396C1268.18,-235.344 1293.81,-220.061 1312.14,-209.132"/>
<polygon fill="midnightblue" stroke="midnightblue" points="1313.94,-212.135 1320.73,-204.007 1310.35,-206.123 1313.94,-212.135"/>
</g>
<!-- Node33 -->
<g id="node33" class="node"><title>Node33</title>
<polygon fill="white" stroke="#bfbfbf" points="1205.5,-185 1205.5,-204 1252.5,-204 1252.5,-185 1205.5,-185"/>
<text text-anchor="middle" x="1229" y="-192" font-family="Helvetica,sans-Serif" font-size="10.00">vector</text>
</g>
<!-- Node29&#45;&gt;Node33 -->
<g id="edge45" class="edge"><title>Node29&#45;&gt;Node33</title>
<path fill="none" stroke="midnightblue" d="M1226.65,-246.396C1227.09,-236.963 1227.66,-224.448 1228.14,-214.189"/>
<polygon fill="midnightblue" stroke="midnightblue" points="1231.63,-214.345 1228.6,-204.195 1224.64,-214.023 1231.63,-214.345"/>
</g>
<!-- Node35&#45;&gt;Node11 -->
<g id="edge50" class="edge"><title>Node35&#45;&gt;Node11</title>
<path fill="none" stroke="midnightblue" d="M1105.03,-313.446C1105.54,-295.168 1103.43,-263.515 1085,-246 1019.53,-183.783 971.073,-237.363 885,-210 883.326,-209.468 881.625,-208.865 879.926,-208.216"/>
<polygon fill="midnightblue" stroke="midnightblue" points="880.983,-204.861 870.413,-204.142 878.228,-211.296 880.983,-204.861"/>
</g>
<!-- Node35&#45;&gt;Node29 -->
<g id="edge51" class="edge"><title>Node35&#45;&gt;Node29</title>
<path fill="none" stroke="midnightblue" d="M1130.47,-313.396C1148.06,-304.026 1171.35,-291.615 1190.54,-281.395"/>
<polygon fill="midnightblue" stroke="midnightblue" points="1192.4,-284.368 1199.58,-276.577 1189.11,-278.19 1192.4,-284.368"/>
</g>
<!-- Node36&#45;&gt;Node3 -->
<g id="edge53" class="edge"><title>Node36&#45;&gt;Node3</title>
<path fill="none" stroke="midnightblue" d="M919.735,-246.454C871.61,-236.378 805.298,-222.442 747,-210 741.259,-208.775 735.242,-207.483 729.27,-206.197"/>
<polygon fill="midnightblue" stroke="midnightblue" points="729.83,-202.737 719.317,-204.048 728.354,-209.579 729.83,-202.737"/>
</g>
<!-- Node36&#45;&gt;Node10 -->
<g id="edge54" class="edge"><title>Node36&#45;&gt;Node10</title>
<path fill="none" stroke="midnightblue" d="M897.986,-247.197C894.616,-246.778 891.279,-246.377 888,-246 697.476,-224.093 642.275,-263.124 458,-210 456.337,-209.52 454.657,-208.938 452.99,-208.286"/>
<polygon fill="midnightblue" stroke="midnightblue" points="454.336,-205.052 443.792,-204.01 451.385,-211.399 454.336,-205.052"/>
</g>
<!-- Node36&#45;&gt;Node11 -->
<g id="edge56" class="edge"><title>Node36&#45;&gt;Node11</title>
<path fill="none" stroke="midnightblue" d="M958.141,-246.396C935.114,-235.142 903.11,-219.501 880.677,-208.538"/>
<polygon fill="midnightblue" stroke="midnightblue" points="881.928,-205.253 871.407,-204.007 878.854,-211.543 881.928,-205.253"/>
</g>
<!-- Node36&#45;&gt;Node22 -->
<g id="edge55" class="edge"><title>Node36&#45;&gt;Node22</title>
<path fill="none" stroke="midnightblue" d="M938.291,-246.416C905.523,-236.718 861.45,-223.24 823,-210 820.747,-209.224 818.427,-208.401 816.098,-207.556"/>
<polygon fill="midnightblue" stroke="midnightblue" points="817.206,-204.234 806.613,-204.029 814.766,-210.795 817.206,-204.234"/>
</g>
<!-- Node36&#45;&gt;Node33 -->
<g id="edge57" class="edge"><title>Node36&#45;&gt;Node33</title>
<path fill="none" stroke="midnightblue" d="M1058.99,-246.4C1099.7,-237.61 1151.26,-225.102 1196,-210 1197.87,-209.37 1199.78,-208.675 1201.68,-207.941"/>
<polygon fill="midnightblue" stroke="midnightblue" points="1203.17,-211.116 1211.07,-204.064 1200.49,-204.646 1203.17,-211.116"/>
</g>
<!-- Node37 -->
<g id="node37" class="node"><title>Node37</title>
<g id="a_node37"><a xlink:href="Singleton_8hpp.html" target="_top" xlink:title="Core/Utils/Singleton.hpp">
<polygon fill="white" stroke="black" points="894,-185 894,-204 1026,-204 1026,-185 894,-185"/>
<text text-anchor="middle" x="960" y="-192" font-family="Helvetica,sans-Serif" font-size="10.00">Core/Utils/Singleton.hpp</text>
</a>
</g>
</g>
<!-- Node36&#45;&gt;Node37 -->
<g id="edge58" class="edge"><title>Node36&#45;&gt;Node37</title>
<path fill="none" stroke="midnightblue" d="M981.141,-246.396C977.14,-236.763 971.803,-223.914 967.492,-213.537"/>
<polygon fill="midnightblue" stroke="midnightblue" points="970.68,-212.087 963.612,-204.195 964.215,-214.772 970.68,-212.087"/>
</g>
<!-- Node38 -->
<g id="node38" class="node"><title>Node38</title>
<g id="a_node38"><a xlink:href="StdOptional_8hpp.html" target="_top" xlink:title="Core/Utils/StdOptional.hpp">
<polygon fill="white" stroke="black" points="1044.5,-185 1044.5,-204 1187.5,-204 1187.5,-185 1044.5,-185"/>
<text text-anchor="middle" x="1116" y="-192" font-family="Helvetica,sans-Serif" font-size="10.00">Core/Utils/StdOptional.hpp</text>
</a>
</g>
</g>
<!-- Node36&#45;&gt;Node38 -->
<g id="edge60" class="edge"><title>Node36&#45;&gt;Node38</title>
<path fill="none" stroke="midnightblue" d="M1014.99,-246.396C1037.33,-235.142 1068.37,-219.501 1090.13,-208.538"/>
<polygon fill="midnightblue" stroke="midnightblue" points="1091.76,-211.633 1099.12,-204.007 1088.61,-205.381 1091.76,-211.633"/>
</g>
<!-- Node37&#45;&gt;Node18 -->
<g id="edge59" class="edge"><title>Node37&#45;&gt;Node18</title>
<path fill="none" stroke="midnightblue" d="M960.674,-184.734C961.409,-175.183 962.606,-159.618 963.555,-147.283"/>
<polygon fill="midnightblue" stroke="midnightblue" points="967.059,-147.366 964.336,-137.127 960.08,-146.829 967.059,-147.366"/>
</g>
<!-- Node39&#45;&gt;Node8 -->
<g id="edge64" class="edge"><title>Node39&#45;&gt;Node8</title>
<path fill="none" stroke="midnightblue" d="M1482.22,-251.985C1496.48,-243.492 1516.26,-228.983 1525,-210 1530.76,-197.485 1531.09,-191.357 1525,-179 1485.45,-98.8223 1387.24,-46.2819 1336.87,-23.6785"/>
<polygon fill="midnightblue" stroke="midnightblue" points="1338.03,-20.3653 1327.46,-19.5577 1335.22,-26.7769 1338.03,-20.3653"/>
</g>
<!-- Node39&#45;&gt;Node11 -->
<g id="edge66" class="edge"><title>Node39&#45;&gt;Node11</title>
<path fill="none" stroke="midnightblue" d="M1413.76,-254.914C1386.94,-252.11 1353.74,-248.737 1324,-246 1129.06,-228.056 1074.2,-260.264 885,-210 883.062,-209.485 881.096,-208.854 879.143,-208.146"/>
<polygon fill="midnightblue" stroke="midnightblue" points="880.254,-204.816 869.68,-204.152 877.532,-211.265 880.254,-204.816"/>
</g>
<!-- Node39&#45;&gt;Node18 -->
<g id="edge62" class="edge"><title>Node39&#45;&gt;Node18</title>
<path fill="none" stroke="midnightblue" d="M1463.81,-251.793C1458.97,-234.596 1445.65,-196.434 1419,-179 1355.35,-137.366 1132.2,-129.771 1024.31,-128.58"/>
<polygon fill="midnightblue" stroke="midnightblue" points="1024.27,-125.08 1014.23,-128.484 1024.2,-132.079 1024.27,-125.08"/>
</g>
<!-- Node40 -->
<g id="node40" class="node"><title>Node40</title>
<polygon fill="white" stroke="#bfbfbf" points="1573,-185 1573,-204 1617,-204 1617,-185 1573,-185"/>
<text text-anchor="middle" x="1595" y="-192" font-family="Helvetica,sans-Serif" font-size="10.00">ctime</text>
</g>
<!-- Node39&#45;&gt;Node40 -->
<g id="edge63" class="edge"><title>Node39&#45;&gt;Node40</title>
<path fill="none" stroke="midnightblue" d="M1483.13,-251.869C1505.01,-240.845 1543.09,-221.655 1568.67,-208.768"/>
<polygon fill="midnightblue" stroke="midnightblue" points="1570.44,-211.793 1577.8,-204.167 1567.29,-205.541 1570.44,-211.793"/>
</g>
<!-- Node41 -->
<g id="node41" class="node"><title>Node41</title>
<polygon fill="white" stroke="#bfbfbf" points="1467.5,-185 1467.5,-204 1516.5,-204 1516.5,-185 1467.5,-185"/>
<text text-anchor="middle" x="1492" y="-192" font-family="Helvetica,sans-Serif" font-size="10.00">stdio.h</text>
</g>
<!-- Node39&#45;&gt;Node41 -->
<g id="edge65" class="edge"><title>Node39&#45;&gt;Node41</title>
<path fill="none" stroke="midnightblue" d="M1469.51,-251.734C1473.4,-241.988 1479.81,-225.981 1484.79,-213.532"/>
<polygon fill="midnightblue" stroke="midnightblue" points="1488.08,-214.712 1488.55,-204.127 1481.59,-212.112 1488.08,-214.712"/>
</g>
</g>
</svg>
