<?xml version="1.0" encoding="UTF-8" standalone="no"?>
<!DOCTYPE svg PUBLIC "-//W3C//DTD SVG 1.1//EN"
 "http://www.w3.org/Graphics/SVG/1.1/DTD/svg11.dtd">
<!-- Generated by graphviz version 2.38.0 (20140413.2041)
 -->
<!-- Title: /home/travis/build/STORM&#45;IRIT/Radium&#45;Engine/src/Engine/Renderer/RenderObject/RenderObject.hpp Pages: 1 -->
<svg width="3790pt" height="328pt"
 viewBox="0.00 0.00 3790.00 328.00" xmlns="http://www.w3.org/2000/svg" xmlns:xlink="http://www.w3.org/1999/xlink">
<g id="graph0" class="graph" transform="scale(1 1) rotate(0) translate(4 324)">
<title>/home/travis/build/STORM&#45;IRIT/Radium&#45;Engine/src/Engine/Renderer/RenderObject/RenderObject.hpp</title>
<polygon fill="white" stroke="none" points="-4,4 -4,-324 3786,-324 3786,4 -4,4"/>
<!-- Node1 -->
<g id="node1" class="node"><title>Node1</title>
<polygon fill="#bfbfbf" stroke="black" points="2100,-267.5 2100,-319.5 2282,-319.5 2282,-267.5 2100,-267.5"/>
<text text-anchor="start" x="2108" y="-307.5" font-family="Helvetica,sans-Serif" font-size="10.00">/home/travis/build</text>
<text text-anchor="start" x="2108" y="-296.5" font-family="Helvetica,sans-Serif" font-size="10.00">/STORM&#45;IRIT/Radium&#45;Engine</text>
<text text-anchor="start" x="2108" y="-285.5" font-family="Helvetica,sans-Serif" font-size="10.00">/src/Engine/Renderer/RenderObject</text>
<text text-anchor="middle" x="2191" y="-274.5" font-family="Helvetica,sans-Serif" font-size="10.00">/RenderObject.hpp</text>
</g>
<!-- Node2 -->
<g id="node2" class="node"><title>Node2</title>
<g id="a_node2"><a xlink:href="Component_8cpp.html" target="_top" xlink:title="/home/travis/build\l/STORM&#45;IRIT/Radium&#45;Engine\l/src/Engine/Component/Component.cpp">
<polygon fill="white" stroke="black" points="0,-184 0,-225 208,-225 208,-184 0,-184"/>
<text text-anchor="start" x="8" y="-213" font-family="Helvetica,sans-Serif" font-size="10.00">/home/travis/build</text>
<text text-anchor="start" x="8" y="-202" font-family="Helvetica,sans-Serif" font-size="10.00">/STORM&#45;IRIT/Radium&#45;Engine</text>
<text text-anchor="middle" x="104" y="-191" font-family="Helvetica,sans-Serif" font-size="10.00">/src/Engine/Component/Component.cpp</text>
</a>
</g>
</g>
<!-- Node1&#45;&gt;Node2 -->
<g id="edge1" class="edge"><title>Node1&#45;&gt;Node2</title>
<path fill="none" stroke="midnightblue" d="M2089.87,-291.898C1740.36,-289.42 584.861,-277.801 217,-231 205.429,-229.528 193.3,-227.414 181.461,-225.024"/>
<polygon fill="midnightblue" stroke="midnightblue" points="2089.94,-295.399 2099.97,-291.969 2089.99,-288.399 2089.94,-295.399"/>
</g>
<!-- Node3 -->
<g id="node3" class="node"><title>Node3</title>
<g id="a_node3"><a xlink:href="GeometryComponent_8cpp.html" target="_top" xlink:title="/home/travis/build\l/STORM&#45;IRIT/Radium&#45;Engine\l/src/Engine/Component/GeometryComponent.cpp">
<polygon fill="white" stroke="black" points="226,-184 226,-225 482,-225 482,-184 226,-184"/>
<text text-anchor="start" x="234" y="-213" font-family="Helvetica,sans-Serif" font-size="10.00">/home/travis/build</text>
<text text-anchor="start" x="234" y="-202" font-family="Helvetica,sans-Serif" font-size="10.00">/STORM&#45;IRIT/Radium&#45;Engine</text>
<text text-anchor="middle" x="354" y="-191" font-family="Helvetica,sans-Serif" font-size="10.00">/src/Engine/Component/GeometryComponent.cpp</text>
</a>
</g>
</g>
<!-- Node1&#45;&gt;Node3 -->
<g id="edge2" class="edge"><title>Node1&#45;&gt;Node3</title>
<path fill="none" stroke="midnightblue" d="M2089.68,-290.802C1772.89,-285.184 803.624,-265.557 491,-231 477.293,-229.485 462.899,-227.38 448.802,-225.024"/>
<polygon fill="midnightblue" stroke="midnightblue" points="2089.71,-294.303 2099.77,-290.981 2089.83,-287.304 2089.71,-294.303"/>
</g>
<!-- Node4 -->
<g id="node4" class="node"><title>Node4</title>
<g id="a_node4"><a xlink:href="ItemEntry_8cpp.html" target="_top" xlink:title="/home/travis/build\l/STORM&#45;IRIT/Radium&#45;Engine\l/src/Engine/ItemModel/ItemEntry.cpp">
<polygon fill="white" stroke="black" points="500.5,-184 500.5,-225 691.5,-225 691.5,-184 500.5,-184"/>
<text text-anchor="start" x="508.5" y="-213" font-family="Helvetica,sans-Serif" font-size="10.00">/home/travis/build</text>
<text text-anchor="start" x="508.5" y="-202" font-family="Helvetica,sans-Serif" font-size="10.00">/STORM&#45;IRIT/Radium&#45;Engine</text>
<text text-anchor="middle" x="596" y="-191" font-family="Helvetica,sans-Serif" font-size="10.00">/src/Engine/ItemModel/ItemEntry.cpp</text>
</a>
</g>
</g>
<!-- Node1&#45;&gt;Node4 -->
<g id="edge3" class="edge"><title>Node1&#45;&gt;Node4</title>
<path fill="none" stroke="midnightblue" d="M2089.5,-290.947C1799.2,-286.088 969.189,-269.164 700,-231 689.416,-229.5 678.34,-227.387 667.527,-225.012"/>
<polygon fill="midnightblue" stroke="midnightblue" points="2089.54,-294.448 2099.59,-291.115 2089.65,-287.449 2089.54,-294.448"/>
</g>
<!-- Node5 -->
<g id="node5" class="node"><title>Node5</title>
<g id="a_node5"><a xlink:href="RadiumEngine_8cpp.html" target="_top" xlink:title="/home/travis/build\l/STORM&#45;IRIT/Radium&#45;Engine\l/src/Engine/RadiumEngine.cpp">
<polygon fill="white" stroke="black" points="709.5,-184 709.5,-225 870.5,-225 870.5,-184 709.5,-184"/>
<text text-anchor="start" x="717.5" y="-213" font-family="Helvetica,sans-Serif" font-size="10.00">/home/travis/build</text>
<text text-anchor="start" x="717.5" y="-202" font-family="Helvetica,sans-Serif" font-size="10.00">/STORM&#45;IRIT/Radium&#45;Engine</text>
<text text-anchor="middle" x="790" y="-191" font-family="Helvetica,sans-Serif" font-size="10.00">/src/Engine/RadiumEngine.cpp</text>
</a>
</g>
</g>
<!-- Node1&#45;&gt;Node5 -->
<g id="edge4" class="edge"><title>Node1&#45;&gt;Node5</title>
<path fill="none" stroke="midnightblue" d="M2089.79,-290.75C1824.32,-285.68 1112.44,-268.866 880,-231 870.864,-229.512 861.334,-227.422 852.039,-225.072"/>
<polygon fill="midnightblue" stroke="midnightblue" points="2089.74,-294.25 2099.81,-290.94 2089.88,-287.251 2089.74,-294.25"/>
</g>
<!-- Node6 -->
<g id="node6" class="node"><title>Node6</title>
<g id="a_node6"><a xlink:href="Camera_8cpp.html" target="_top" xlink:title="/home/travis/build\l/STORM&#45;IRIT/Radium&#45;Engine\l/src/Engine/Renderer/Camera\l/Camera.cpp">
<polygon fill="white" stroke="black" points="889,-178.5 889,-230.5 1045,-230.5 1045,-178.5 889,-178.5"/>
<text text-anchor="start" x="897" y="-218.5" font-family="Helvetica,sans-Serif" font-size="10.00">/home/travis/build</text>
<text text-anchor="start" x="897" y="-207.5" font-family="Helvetica,sans-Serif" font-size="10.00">/STORM&#45;IRIT/Radium&#45;Engine</text>
<text text-anchor="start" x="897" y="-196.5" font-family="Helvetica,sans-Serif" font-size="10.00">/src/Engine/Renderer/Camera</text>
<text text-anchor="middle" x="967" y="-185.5" font-family="Helvetica,sans-Serif" font-size="10.00">/Camera.cpp</text>
</a>
</g>
</g>
<!-- Node1&#45;&gt;Node6 -->
<g id="edge5" class="edge"><title>Node1&#45;&gt;Node6</title>
<path fill="none" stroke="midnightblue" d="M2089.83,-290.022C1849.87,-283.662 1251.61,-264.836 1054,-231 1051.05,-230.495 1048.06,-229.925 1045.05,-229.302"/>
<polygon fill="midnightblue" stroke="midnightblue" points="2089.86,-293.524 2099.94,-290.289 2090.04,-286.527 2089.86,-293.524"/>
</g>
<!-- Node7 -->
<g id="node7" class="node"><title>Node7</title>
<g id="a_node7"><a xlink:href="Renderer_8cpp.html" target="_top" xlink:title="/home/travis/build\l/STORM&#45;IRIT/Radium&#45;Engine\l/src/Engine/Renderer/Renderer.cpp">
<polygon fill="white" stroke="black" points="1063,-184 1063,-225 1243,-225 1243,-184 1063,-184"/>
<text text-anchor="start" x="1071" y="-213" font-family="Helvetica,sans-Serif" font-size="10.00">/home/travis/build</text>
<text text-anchor="start" x="1071" y="-202" font-family="Helvetica,sans-Serif" font-size="10.00">/STORM&#45;IRIT/Radium&#45;Engine</text>
<text text-anchor="middle" x="1153" y="-191" font-family="Helvetica,sans-Serif" font-size="10.00">/src/Engine/Renderer/Renderer.cpp</text>
</a>
</g>
</g>
<!-- Node1&#45;&gt;Node7 -->
<g id="edge6" class="edge"><title>Node1&#45;&gt;Node7</title>
<path fill="none" stroke="midnightblue" d="M2089.62,-292.04C1916.69,-289.88 1554.1,-279.364 1252,-231 1242.27,-229.443 1232.11,-227.362 1222.16,-225.059"/>
<polygon fill="midnightblue" stroke="midnightblue" points="2089.68,-295.541 2099.72,-292.159 2089.77,-288.541 2089.68,-295.541"/>
</g>
<!-- Node8 -->
<g id="node8" class="node"><title>Node8</title>
<g id="a_node8"><a xlink:href="ForwardRenderer_8cpp.html" target="_top" xlink:title="/home/travis/build\l/STORM&#45;IRIT/Radium&#45;Engine\l/src/Engine/Renderer/Renderers\l/ForwardRenderer.cpp">
<polygon fill="white" stroke="black" points="1261,-178.5 1261,-230.5 1427,-230.5 1427,-178.5 1261,-178.5"/>
<text text-anchor="start" x="1269" y="-218.5" font-family="Helvetica,sans-Serif" font-size="10.00">/home/travis/build</text>
<text text-anchor="start" x="1269" y="-207.5" font-family="Helvetica,sans-Serif" font-size="10.00">/STORM&#45;IRIT/Radium&#45;Engine</text>
<text text-anchor="start" x="1269" y="-196.5" font-family="Helvetica,sans-Serif" font-size="10.00">/src/Engine/Renderer/Renderers</text>
<text text-anchor="middle" x="1344" y="-185.5" font-family="Helvetica,sans-Serif" font-size="10.00">/ForwardRenderer.cpp</text>
</a>
</g>
</g>
<!-- Node1&#45;&gt;Node8 -->
<g id="edge7" class="edge"><title>Node1&#45;&gt;Node8</title>
<path fill="none" stroke="midnightblue" d="M2089.67,-290.319C1944.03,-285.814 1667.56,-272.14 1436,-231 1433.06,-230.478 1430.08,-229.904 1427.08,-229.286"/>
<polygon fill="midnightblue" stroke="midnightblue" points="2089.83,-293.825 2099.93,-290.628 2090.04,-286.828 2089.83,-293.825"/>
</g>
<!-- Node9 -->
<g id="node9" class="node"><title>Node9</title>
<g id="a_node9"><a xlink:href="DrawPrimitives_8cpp.html" target="_top" xlink:title="/home/travis/build\l/STORM&#45;IRIT/Radium&#45;Engine\l/src/Engine/Renderer/RenderObject\l/Primitives/DrawPrimitives.cpp">
<polygon fill="white" stroke="black" points="1445,-178.5 1445,-230.5 1627,-230.5 1627,-178.5 1445,-178.5"/>
<text text-anchor="start" x="1453" y="-218.5" font-family="Helvetica,sans-Serif" font-size="10.00">/home/travis/build</text>
<text text-anchor="start" x="1453" y="-207.5" font-family="Helvetica,sans-Serif" font-size="10.00">/STORM&#45;IRIT/Radium&#45;Engine</text>
<text text-anchor="start" x="1453" y="-196.5" font-family="Helvetica,sans-Serif" font-size="10.00">/src/Engine/Renderer/RenderObject</text>
<text text-anchor="middle" x="1536" y="-185.5" font-family="Helvetica,sans-Serif" font-size="10.00">/Primitives/DrawPrimitives.cpp</text>
</a>
</g>
</g>
<!-- Node1&#45;&gt;Node9 -->
<g id="edge8" class="edge"><title>Node1&#45;&gt;Node9</title>
<path fill="none" stroke="midnightblue" d="M2089.34,-285.507C1977.57,-276.828 1793,-259.573 1636,-231 1633.09,-230.471 1630.14,-229.904 1627.17,-229.306"/>
<polygon fill="midnightblue" stroke="midnightblue" points="2089.35,-289.018 2099.59,-286.295 2089.89,-282.039 2089.35,-289.018"/>
</g>
<!-- Node10 -->
<g id="node10" class="node"><title>Node10</title>
<g id="a_node10"><a xlink:href="RenderObject_8cpp.html" target="_top" xlink:title="/home/travis/build\l/STORM&#45;IRIT/Radium&#45;Engine\l/src/Engine/Renderer/RenderObject\l/RenderObject.cpp">
<polygon fill="white" stroke="black" points="1645,-178.5 1645,-230.5 1827,-230.5 1827,-178.5 1645,-178.5"/>
<text text-anchor="start" x="1653" y="-218.5" font-family="Helvetica,sans-Serif" font-size="10.00">/home/travis/build</text>
<text text-anchor="start" x="1653" y="-207.5" font-family="Helvetica,sans-Serif" font-size="10.00">/STORM&#45;IRIT/Radium&#45;Engine</text>
<text text-anchor="start" x="1653" y="-196.5" font-family="Helvetica,sans-Serif" font-size="10.00">/src/Engine/Renderer/RenderObject</text>
<text text-anchor="middle" x="1736" y="-185.5" font-family="Helvetica,sans-Serif" font-size="10.00">/RenderObject.cpp</text>
</a>
</g>
</g>
<!-- Node1&#45;&gt;Node10 -->
<g id="edge9" class="edge"><title>Node1&#45;&gt;Node10</title>
<path fill="none" stroke="midnightblue" d="M2089.48,-277.074C2018.26,-265.726 1920.97,-249.165 1836,-231 1833.11,-230.382 1830.18,-229.738 1827.22,-229.073"/>
<polygon fill="midnightblue" stroke="midnightblue" points="2089.37,-280.6 2099.79,-278.71 2090.46,-273.686 2089.37,-280.6"/>
</g>
<!-- Node11 -->
<g id="node11" class="node"><title>Node11</title>
<g id="a_node11"><a xlink:href="RenderObjectManager_8cpp.html" target="_top" xlink:title="/home/travis/build\l/STORM&#45;IRIT/Radium&#45;Engine\l/src/Engine/Renderer/RenderObject\l/RenderObjectManager.cpp">
<polygon fill="white" stroke="black" points="1845,-178.5 1845,-230.5 2027,-230.5 2027,-178.5 1845,-178.5"/>
<text text-anchor="start" x="1853" y="-218.5" font-family="Helvetica,sans-Serif" font-size="10.00">/home/travis/build</text>
<text text-anchor="start" x="1853" y="-207.5" font-family="Helvetica,sans-Serif" font-size="10.00">/STORM&#45;IRIT/Radium&#45;Engine</text>
<text text-anchor="start" x="1853" y="-196.5" font-family="Helvetica,sans-Serif" font-size="10.00">/src/Engine/Renderer/RenderObject</text>
<text text-anchor="middle" x="1936" y="-185.5" font-family="Helvetica,sans-Serif" font-size="10.00">/RenderObjectManager.cpp</text>
</a>
</g>
</g>
<!-- Node1&#45;&gt;Node11 -->
<g id="edge10" class="edge"><title>Node1&#45;&gt;Node11</title>
<path fill="none" stroke="midnightblue" d="M2107.87,-264.138C2076.1,-253.299 2040.13,-241.027 2009.34,-230.521"/>
<polygon fill="midnightblue" stroke="midnightblue" points="2106.99,-267.536 2117.59,-267.453 2109.25,-260.911 2106.99,-267.536"/>
</g>
<!-- Node12 -->
<g id="node12" class="node"><title>Node12</title>
<g id="a_node12"><a xlink:href="BaseApplication_8cpp.html" target="_top" xlink:title="/home/travis/build\l/STORM&#45;IRIT/Radium&#45;Engine\l/src/GuiBase/BaseApplication.cpp">
<polygon fill="white" stroke="black" points="2045,-184 2045,-225 2221,-225 2221,-184 2045,-184"/>
<text text-anchor="start" x="2053" y="-213" font-family="Helvetica,sans-Serif" font-size="10.00">/home/travis/build</text>
<text text-anchor="start" x="2053" y="-202" font-family="Helvetica,sans-Serif" font-size="10.00">/STORM&#45;IRIT/Radium&#45;Engine</text>
<text text-anchor="middle" x="2133" y="-191" font-family="Helvetica,sans-Serif" font-size="10.00">/src/GuiBase/BaseApplication.cpp</text>
</a>
</g>
</g>
<!-- Node1&#45;&gt;Node12 -->
<g id="edge11" class="edge"><title>Node1&#45;&gt;Node12</title>
<path fill="none" stroke="midnightblue" d="M2168.56,-258.842C2160.94,-247.417 2152.69,-235.037 2146.05,-225.082"/>
<polygon fill="midnightblue" stroke="midnightblue" points="2165.76,-260.957 2174.22,-267.336 2171.59,-257.074 2165.76,-260.957"/>
</g>
<!-- Node13 -->
<g id="node13" class="node"><title>Node13</title>
<g id="a_node13"><a xlink:href="Gizmo_8hpp.html" target="_top" xlink:title="/home/travis/build\l/STORM&#45;IRIT/Radium&#45;Engine\l/src/GuiBase/Viewer/Gizmo\l/Gizmo.hpp">
<polygon fill="white" stroke="black" points="2277,-178.5 2277,-230.5 2425,-230.5 2425,-178.5 2277,-178.5"/>
<text text-anchor="start" x="2285" y="-218.5" font-family="Helvetica,sans-Serif" font-size="10.00">/home/travis/build</text>
<text text-anchor="start" x="2285" y="-207.5" font-family="Helvetica,sans-Serif" font-size="10.00">/STORM&#45;IRIT/Radium&#45;Engine</text>
<text text-anchor="start" x="2285" y="-196.5" font-family="Helvetica,sans-Serif" font-size="10.00">/src/GuiBase/Viewer/Gizmo</text>
<text text-anchor="middle" x="2351" y="-185.5" font-family="Helvetica,sans-Serif" font-size="10.00">/Gizmo.hpp</text>
</a>
</g>
</g>
<!-- Node1&#45;&gt;Node13 -->
<g id="edge12" class="edge"><title>Node1&#45;&gt;Node13</title>
<path fill="none" stroke="midnightblue" d="M2246.18,-262.494C2265.3,-252.101 2286.51,-240.566 2304.83,-230.607"/>
<polygon fill="midnightblue" stroke="midnightblue" points="2244.39,-259.484 2237.28,-267.336 2247.74,-265.634 2244.39,-259.484"/>
</g>
<!-- Node19 -->
<g id="node19" class="node"><title>Node19</title>
<g id="a_node19"><a xlink:href="RotateGizmo_8cpp.html" target="_top" xlink:title="/home/travis/build\l/STORM&#45;IRIT/Radium&#45;Engine\l/src/GuiBase/Viewer/Gizmo\l/RotateGizmo.cpp">
<polygon fill="white" stroke="black" points="2347,-0.5 2347,-52.5 2495,-52.5 2495,-0.5 2347,-0.5"/>
<text text-anchor="start" x="2355" y="-40.5" font-family="Helvetica,sans-Serif" font-size="10.00">/home/travis/build</text>
<text text-anchor="start" x="2355" y="-29.5" font-family="Helvetica,sans-Serif" font-size="10.00">/STORM&#45;IRIT/Radium&#45;Engine</text>
<text text-anchor="start" x="2355" y="-18.5" font-family="Helvetica,sans-Serif" font-size="10.00">/src/GuiBase/Viewer/Gizmo</text>
<text text-anchor="middle" x="2421" y="-7.5" font-family="Helvetica,sans-Serif" font-size="10.00">/RotateGizmo.cpp</text>
</a>
</g>
</g>
<!-- Node1&#45;&gt;Node19 -->
<g id="edge26" class="edge"><title>Node1&#45;&gt;Node19</title>
<path fill="none" stroke="midnightblue" d="M2292.35,-282.505C2359.82,-273.516 2439.82,-257.541 2461,-231 2500.36,-181.666 2478.95,-149.506 2461,-89 2457.16,-76.0563 2449.64,-63.2876 2442.15,-52.7681"/>
<polygon fill="midnightblue" stroke="midnightblue" points="2291.54,-279.081 2282.07,-283.835 2292.44,-286.024 2291.54,-279.081"/>
</g>
<!-- Node21 -->
<g id="node21" class="node"><title>Node21</title>
<g id="a_node21"><a xlink:href="ScaleGizmo_8cpp.html" target="_top" xlink:title="/home/travis/build\l/STORM&#45;IRIT/Radium&#45;Engine\l/src/GuiBase/Viewer/Gizmo\l/ScaleGizmo.cpp">
<polygon fill="white" stroke="black" points="1553,-0.5 1553,-52.5 1701,-52.5 1701,-0.5 1553,-0.5"/>
<text text-anchor="start" x="1561" y="-40.5" font-family="Helvetica,sans-Serif" font-size="10.00">/home/travis/build</text>
<text text-anchor="start" x="1561" y="-29.5" font-family="Helvetica,sans-Serif" font-size="10.00">/STORM&#45;IRIT/Radium&#45;Engine</text>
<text text-anchor="start" x="1561" y="-18.5" font-family="Helvetica,sans-Serif" font-size="10.00">/src/GuiBase/Viewer/Gizmo</text>
<text text-anchor="middle" x="1627" y="-7.5" font-family="Helvetica,sans-Serif" font-size="10.00">/ScaleGizmo.cpp</text>
</a>
</g>
</g>
<!-- Node1&#45;&gt;Node21 -->
<g id="edge27" class="edge"><title>Node1&#45;&gt;Node21</title>
<path fill="none" stroke="midnightblue" d="M2218.55,-258.893C2235.69,-233.77 2250.85,-200.087 2230,-178 2134.34,-76.6821 1699.66,-243.318 1604,-142 1581.45,-118.117 1596.65,-78.609 1610.85,-52.8156"/>
<polygon fill="midnightblue" stroke="midnightblue" points="2215.69,-256.886 2212.72,-267.056 2221.38,-260.958 2215.69,-256.886"/>
</g>
<!-- Node23 -->
<g id="node23" class="node"><title>Node23</title>
<g id="a_node23"><a xlink:href="TranslateGizmo_8cpp.html" target="_top" xlink:title="/home/travis/build\l/STORM&#45;IRIT/Radium&#45;Engine\l/src/GuiBase/Viewer/Gizmo\l/TranslateGizmo.cpp">
<polygon fill="white" stroke="black" points="2111,-0.5 2111,-52.5 2259,-52.5 2259,-0.5 2111,-0.5"/>
<text text-anchor="start" x="2119" y="-40.5" font-family="Helvetica,sans-Serif" font-size="10.00">/home/travis/build</text>
<text text-anchor="start" x="2119" y="-29.5" font-family="Helvetica,sans-Serif" font-size="10.00">/STORM&#45;IRIT/Radium&#45;Engine</text>
<text text-anchor="start" x="2119" y="-18.5" font-family="Helvetica,sans-Serif" font-size="10.00">/src/GuiBase/Viewer/Gizmo</text>
<text text-anchor="middle" x="2185" y="-7.5" font-family="Helvetica,sans-Serif" font-size="10.00">/TranslateGizmo.cpp</text>
</a>
</g>
</g>
<!-- Node1&#45;&gt;Node23 -->
<g id="edge28" class="edge"><title>Node1&#45;&gt;Node23</title>
<path fill="none" stroke="midnightblue" d="M2292.38,-279.482C2350.82,-269.667 2416.15,-253.926 2434,-231 2472.77,-181.199 2472.91,-138.689 2434,-89 2423.02,-74.9766 2328.5,-54.459 2259.15,-41.0429"/>
<polygon fill="midnightblue" stroke="midnightblue" points="2291.63,-276.059 2282.32,-281.126 2292.76,-282.967 2291.63,-276.059"/>
</g>
<!-- Node24 -->
<g id="node24" class="node"><title>Node24</title>
<g id="a_node24"><a xlink:href="SkeletonBoneDrawable_8hpp.html" target="_top" xlink:title="/home/travis/build\l/STORM&#45;IRIT/Radium&#45;Engine\l/Plugins/Animation/src/Drawing\l/SkeletonBoneDrawable.hpp">
<polygon fill="white" stroke="black" points="2522,-178.5 2522,-230.5 2686,-230.5 2686,-178.5 2522,-178.5"/>
<text text-anchor="start" x="2530" y="-218.5" font-family="Helvetica,sans-Serif" font-size="10.00">/home/travis/build</text>
<text text-anchor="start" x="2530" y="-207.5" font-family="Helvetica,sans-Serif" font-size="10.00">/STORM&#45;IRIT/Radium&#45;Engine</text>
<text text-anchor="start" x="2530" y="-196.5" font-family="Helvetica,sans-Serif" font-size="10.00">/Plugins/Animation/src/Drawing</text>
<text text-anchor="middle" x="2604" y="-185.5" font-family="Helvetica,sans-Serif" font-size="10.00">/SkeletonBoneDrawable.hpp</text>
</a>
</g>
</g>
<!-- Node1&#45;&gt;Node24 -->
<g id="edge29" class="edge"><title>Node1&#45;&gt;Node24</title>
<path fill="none" stroke="midnightblue" d="M2292.45,-274.193C2354.1,-262.68 2434.31,-247.013 2505,-231 2510.54,-229.745 2516.24,-228.406 2521.98,-227.022"/>
<polygon fill="midnightblue" stroke="midnightblue" points="2291.52,-270.806 2282.33,-276.077 2292.8,-277.688 2291.52,-270.806"/>
</g>
<!-- Node28 -->
<g id="node28" class="node"><title>Node28</title>
<g id="a_node28"><a xlink:href="MeshFeatureTrackingComponent_8cpp.html" target="_top" xlink:title="/home/travis/build\l/STORM&#45;IRIT/Radium&#45;Engine\l/Plugins/MeshFeatureTracking\l/src/MeshFeatureTrackingComponent.cpp">
<polygon fill="white" stroke="black" points="2704.5,-178.5 2704.5,-230.5 2917.5,-230.5 2917.5,-178.5 2704.5,-178.5"/>
<text text-anchor="start" x="2712.5" y="-218.5" font-family="Helvetica,sans-Serif" font-size="10.00">/home/travis/build</text>
<text text-anchor="start" x="2712.5" y="-207.5" font-family="Helvetica,sans-Serif" font-size="10.00">/STORM&#45;IRIT/Radium&#45;Engine</text>
<text text-anchor="start" x="2712.5" y="-196.5" font-family="Helvetica,sans-Serif" font-size="10.00">/Plugins/MeshFeatureTracking</text>
<text text-anchor="middle" x="2811" y="-185.5" font-family="Helvetica,sans-Serif" font-size="10.00">/src/MeshFeatureTrackingComponent.cpp</text>
</a>
</g>
</g>
<!-- Node1&#45;&gt;Node28 -->
<g id="edge33" class="edge"><title>Node1&#45;&gt;Node28</title>
<path fill="none" stroke="midnightblue" d="M2292.42,-282.982C2394.49,-272.733 2556.24,-254.662 2695,-231 2698.05,-230.48 2701.14,-229.934 2704.25,-229.365"/>
<polygon fill="midnightblue" stroke="midnightblue" points="2292.03,-279.504 2282.43,-283.98 2292.73,-286.469 2292.03,-279.504"/>
</g>
<!-- Node29 -->
<g id="node29" class="node"><title>Node29</title>
<g id="a_node29"><a xlink:href="MeshPaintComponent_8cpp.html" target="_top" xlink:title="/home/travis/build\l/STORM&#45;IRIT/Radium&#45;Engine\l/Plugins/MeshPaint/src/MeshPaint\lComponent.cpp">
<polygon fill="white" stroke="black" points="3085,-89.5 3085,-141.5 3259,-141.5 3259,-89.5 3085,-89.5"/>
<text text-anchor="start" x="3093" y="-129.5" font-family="Helvetica,sans-Serif" font-size="10.00">/home/travis/build</text>
<text text-anchor="start" x="3093" y="-118.5" font-family="Helvetica,sans-Serif" font-size="10.00">/STORM&#45;IRIT/Radium&#45;Engine</text>
<text text-anchor="start" x="3093" y="-107.5" font-family="Helvetica,sans-Serif" font-size="10.00">/Plugins/MeshPaint/src/MeshPaint</text>
<text text-anchor="middle" x="3172" y="-96.5" font-family="Helvetica,sans-Serif" font-size="10.00">Component.cpp</text>
</a>
</g>
</g>
<!-- Node1&#45;&gt;Node29 -->
<g id="edge34" class="edge"><title>Node1&#45;&gt;Node29</title>
<path fill="none" stroke="midnightblue" d="M2292.43,-288.73C2481.4,-281.021 2873.14,-261.56 2927,-231 2952.21,-216.697 2941.39,-194.812 2965,-178 2970.3,-174.228 3030.66,-156.479 3084.84,-141.012"/>
<polygon fill="midnightblue" stroke="midnightblue" points="2292.06,-285.242 2282.21,-289.143 2292.34,-292.236 2292.06,-285.242"/>
</g>
<!-- Node30 -->
<g id="node30" class="node"><title>Node30</title>
<g id="a_node30"><a xlink:href="MeshPaintComponent_8hpp.html" target="_top" xlink:title="/home/travis/build\l/STORM&#45;IRIT/Radium&#45;Engine\l/Plugins/MeshPaint/src/MeshPaint\lComponent.hpp">
<polygon fill="white" stroke="black" points="2974,-178.5 2974,-230.5 3148,-230.5 3148,-178.5 2974,-178.5"/>
<text text-anchor="start" x="2982" y="-218.5" font-family="Helvetica,sans-Serif" font-size="10.00">/home/travis/build</text>
<text text-anchor="start" x="2982" y="-207.5" font-family="Helvetica,sans-Serif" font-size="10.00">/STORM&#45;IRIT/Radium&#45;Engine</text>
<text text-anchor="start" x="2982" y="-196.5" font-family="Helvetica,sans-Serif" font-size="10.00">/Plugins/MeshPaint/src/MeshPaint</text>
<text text-anchor="middle" x="3061" y="-185.5" font-family="Helvetica,sans-Serif" font-size="10.00">Component.hpp</text>
</a>
</g>
</g>
<!-- Node1&#45;&gt;Node30 -->
<g id="edge35" class="edge"><title>Node1&#45;&gt;Node30</title>
<path fill="none" stroke="midnightblue" d="M2292.56,-289.789C2440.34,-284.622 2722.87,-270.133 2960,-231 2964.55,-230.249 2969.2,-229.395 2973.87,-228.465"/>
<polygon fill="midnightblue" stroke="midnightblue" points="2292.03,-286.305 2282.16,-290.145 2292.27,-293.301 2292.03,-286.305"/>
</g>
<!-- Node32 -->
<g id="node32" class="node"><title>Node32</title>
<g id="a_node32"><a xlink:href="MeshPaintPlugin_8cpp.html" target="_top" xlink:title="/home/travis/build\l/STORM&#45;IRIT/Radium&#45;Engine\l/Plugins/MeshPaint/src/MeshPaint\lPlugin.cpp">
<polygon fill="white" stroke="black" points="3166,-178.5 3166,-230.5 3340,-230.5 3340,-178.5 3166,-178.5"/>
<text text-anchor="start" x="3174" y="-218.5" font-family="Helvetica,sans-Serif" font-size="10.00">/home/travis/build</text>
<text text-anchor="start" x="3174" y="-207.5" font-family="Helvetica,sans-Serif" font-size="10.00">/STORM&#45;IRIT/Radium&#45;Engine</text>
<text text-anchor="start" x="3174" y="-196.5" font-family="Helvetica,sans-Serif" font-size="10.00">/Plugins/MeshPaint/src/MeshPaint</text>
<text text-anchor="middle" x="3253" y="-185.5" font-family="Helvetica,sans-Serif" font-size="10.00">Plugin.cpp</text>
</a>
</g>
</g>
<!-- Node1&#45;&gt;Node32 -->
<g id="edge38" class="edge"><title>Node1&#45;&gt;Node32</title>
<path fill="none" stroke="midnightblue" d="M2292.29,-292.555C2469.01,-291.207 2844.62,-281.927 3157,-231 3159.89,-230.528 3162.83,-230.007 3165.78,-229.444"/>
<polygon fill="midnightblue" stroke="midnightblue" points="2292.2,-289.055 2282.23,-292.625 2292.25,-296.055 2292.2,-289.055"/>
</g>
<!-- Node33 -->
<g id="node33" class="node"><title>Node33</title>
<g id="a_node33"><a xlink:href="SkinningDisplayComponent_8hpp.html" target="_top" xlink:title="/home/travis/build\l/STORM&#45;IRIT/Radium&#45;Engine\l/Plugins/Skinning/src/Display\l/SkinningDisplayComponent.hpp">
<polygon fill="white" stroke="black" points="3358,-178.5 3358,-230.5 3530,-230.5 3530,-178.5 3358,-178.5"/>
<text text-anchor="start" x="3366" y="-218.5" font-family="Helvetica,sans-Serif" font-size="10.00">/home/travis/build</text>
<text text-anchor="start" x="3366" y="-207.5" font-family="Helvetica,sans-Serif" font-size="10.00">/STORM&#45;IRIT/Radium&#45;Engine</text>
<text text-anchor="start" x="3366" y="-196.5" font-family="Helvetica,sans-Serif" font-size="10.00">/Plugins/Skinning/src/Display</text>
<text text-anchor="middle" x="3444" y="-185.5" font-family="Helvetica,sans-Serif" font-size="10.00">/SkinningDisplayComponent.hpp</text>
</a>
</g>
</g>
<!-- Node1&#45;&gt;Node33 -->
<g id="edge39" class="edge"><title>Node1&#45;&gt;Node33</title>
<path fill="none" stroke="midnightblue" d="M2292.66,-289.83C2536.05,-282.995 3146.98,-263.114 3349,-231 3351.95,-230.531 3354.94,-230.007 3357.96,-229.437"/>
<polygon fill="midnightblue" stroke="midnightblue" points="2292.3,-286.338 2282.4,-290.116 2292.49,-293.335 2292.3,-286.338"/>
</g>
<!-- Node36 -->
<g id="node36" class="node"><title>Node36</title>
<g id="a_node36"><a xlink:href="SkinningComponent_8cpp.html" target="_top" xlink:title="/home/travis/build\l/STORM&#45;IRIT/Radium&#45;Engine\l/Plugins/Skinning/src/SkinningComponent.cpp">
<polygon fill="white" stroke="black" points="3548,-184 3548,-225 3782,-225 3782,-184 3548,-184"/>
<text text-anchor="start" x="3556" y="-213" font-family="Helvetica,sans-Serif" font-size="10.00">/home/travis/build</text>
<text text-anchor="start" x="3556" y="-202" font-family="Helvetica,sans-Serif" font-size="10.00">/STORM&#45;IRIT/Radium&#45;Engine</text>
<text text-anchor="middle" x="3665" y="-191" font-family="Helvetica,sans-Serif" font-size="10.00">/Plugins/Skinning/src/SkinningComponent.cpp</text>
</a>
</g>
</g>
<!-- Node1&#45;&gt;Node36 -->
<g id="edge42" class="edge"><title>Node1&#45;&gt;Node36</title>
<path fill="none" stroke="midnightblue" d="M2292.27,-293.192C2517.35,-293.569 3075.86,-288.085 3539,-231 3551.52,-229.457 3564.64,-227.354 3577.5,-225.012"/>
<polygon fill="midnightblue" stroke="midnightblue" points="2292.14,-289.692 2282.13,-293.171 2292.12,-296.692 2292.14,-289.692"/>
</g>
<!-- Node14 -->
<g id="node14" class="node"><title>Node14</title>
<g id="a_node14"><a xlink:href="Gizmo_8cpp.html" target="_top" xlink:title="/home/travis/build\l/STORM&#45;IRIT/Radium&#45;Engine\l/src/GuiBase/Viewer/Gizmo\l/Gizmo.cpp">
<polygon fill="white" stroke="black" points="2111,-89.5 2111,-141.5 2259,-141.5 2259,-89.5 2111,-89.5"/>
<text text-anchor="start" x="2119" y="-129.5" font-family="Helvetica,sans-Serif" font-size="10.00">/home/travis/build</text>
<text text-anchor="start" x="2119" y="-118.5" font-family="Helvetica,sans-Serif" font-size="10.00">/STORM&#45;IRIT/Radium&#45;Engine</text>
<text text-anchor="start" x="2119" y="-107.5" font-family="Helvetica,sans-Serif" font-size="10.00">/src/GuiBase/Viewer/Gizmo</text>
<text text-anchor="middle" x="2185" y="-96.5" font-family="Helvetica,sans-Serif" font-size="10.00">/Gizmo.cpp</text>
</a>
</g>
</g>
<!-- Node13&#45;&gt;Node14 -->
<g id="edge13" class="edge"><title>Node13&#45;&gt;Node14</title>
<path fill="none" stroke="midnightblue" d="M2294.02,-173.635C2274.12,-163.205 2251.99,-151.611 2232.91,-141.607"/>
<polygon fill="midnightblue" stroke="midnightblue" points="2292.5,-176.794 2302.99,-178.336 2295.75,-170.594 2292.5,-176.794"/>
</g>
<!-- Node15 -->
<g id="node15" class="node"><title>Node15</title>
<g id="a_node15"><a xlink:href="GizmoManager_8hpp.html" target="_top" xlink:title="/home/travis/build\l/STORM&#45;IRIT/Radium&#45;Engine\l/src/GuiBase/Viewer/Gizmo\l/GizmoManager.hpp">
<polygon fill="white" stroke="black" points="1779,-89.5 1779,-141.5 1927,-141.5 1927,-89.5 1779,-89.5"/>
<text text-anchor="start" x="1787" y="-129.5" font-family="Helvetica,sans-Serif" font-size="10.00">/home/travis/build</text>
<text text-anchor="start" x="1787" y="-118.5" font-family="Helvetica,sans-Serif" font-size="10.00">/STORM&#45;IRIT/Radium&#45;Engine</text>
<text text-anchor="start" x="1787" y="-107.5" font-family="Helvetica,sans-Serif" font-size="10.00">/src/GuiBase/Viewer/Gizmo</text>
<text text-anchor="middle" x="1853" y="-96.5" font-family="Helvetica,sans-Serif" font-size="10.00">/GizmoManager.hpp</text>
</a>
</g>
</g>
<!-- Node13&#45;&gt;Node15 -->
<g id="edge14" class="edge"><title>Node13&#45;&gt;Node15</title>
<path fill="none" stroke="midnightblue" d="M2266.84,-178.786C2265.55,-178.515 2264.27,-178.252 2263,-178 2119.58,-149.547 2079.18,-171.601 1936,-142 1933.05,-141.39 1930.05,-140.719 1927.03,-140.001"/>
<polygon fill="midnightblue" stroke="midnightblue" points="2266.28,-182.247 2276.8,-181.025 2267.82,-175.418 2266.28,-182.247"/>
</g>
<!-- Node18 -->
<g id="node18" class="node"><title>Node18</title>
<g id="a_node18"><a xlink:href="RotateGizmo_8hpp.html" target="_top" xlink:title="/home/travis/build\l/STORM&#45;IRIT/Radium&#45;Engine\l/src/GuiBase/Viewer/Gizmo\l/RotateGizmo.hpp">
<polygon fill="white" stroke="black" points="2277,-89.5 2277,-141.5 2425,-141.5 2425,-89.5 2277,-89.5"/>
<text text-anchor="start" x="2285" y="-129.5" font-family="Helvetica,sans-Serif" font-size="10.00">/home/travis/build</text>
<text text-anchor="start" x="2285" y="-118.5" font-family="Helvetica,sans-Serif" font-size="10.00">/STORM&#45;IRIT/Radium&#45;Engine</text>
<text text-anchor="start" x="2285" y="-107.5" font-family="Helvetica,sans-Serif" font-size="10.00">/src/GuiBase/Viewer/Gizmo</text>
<text text-anchor="middle" x="2351" y="-96.5" font-family="Helvetica,sans-Serif" font-size="10.00">/RotateGizmo.hpp</text>
</a>
</g>
</g>
<!-- Node13&#45;&gt;Node18 -->
<g id="edge17" class="edge"><title>Node13&#45;&gt;Node18</title>
<path fill="none" stroke="midnightblue" d="M2351,-168.191C2351,-159.282 2351,-149.899 2351,-141.607"/>
<polygon fill="midnightblue" stroke="midnightblue" points="2347.5,-168.336 2351,-178.336 2354.5,-168.336 2347.5,-168.336"/>
</g>
<!-- Node20 -->
<g id="node20" class="node"><title>Node20</title>
<g id="a_node20"><a xlink:href="ScaleGizmo_8hpp.html" target="_top" xlink:title="/home/travis/build\l/STORM&#45;IRIT/Radium&#45;Engine\l/src/GuiBase/Viewer/Gizmo\l/ScaleGizmo.hpp">
<polygon fill="white" stroke="black" points="1613,-89.5 1613,-141.5 1761,-141.5 1761,-89.5 1613,-89.5"/>
<text text-anchor="start" x="1621" y="-129.5" font-family="Helvetica,sans-Serif" font-size="10.00">/home/travis/build</text>
<text text-anchor="start" x="1621" y="-118.5" font-family="Helvetica,sans-Serif" font-size="10.00">/STORM&#45;IRIT/Radium&#45;Engine</text>
<text text-anchor="start" x="1621" y="-107.5" font-family="Helvetica,sans-Serif" font-size="10.00">/src/GuiBase/Viewer/Gizmo</text>
<text text-anchor="middle" x="1687" y="-96.5" font-family="Helvetica,sans-Serif" font-size="10.00">/ScaleGizmo.hpp</text>
</a>
</g>
</g>
<!-- Node13&#45;&gt;Node20 -->
<g id="edge20" class="edge"><title>Node13&#45;&gt;Node20</title>
<path fill="none" stroke="midnightblue" d="M2266.85,-178.72C2265.56,-178.469 2264.28,-178.229 2263,-178 2046.76,-139.215 1985.93,-182.517 1770,-142 1767.04,-141.444 1764.03,-140.819 1761,-140.14"/>
<polygon fill="midnightblue" stroke="midnightblue" points="2266.33,-182.188 2276.84,-180.828 2267.78,-175.339 2266.33,-182.188"/>
</g>
<!-- Node22 -->
<g id="node22" class="node"><title>Node22</title>
<g id="a_node22"><a xlink:href="TranslateGizmo_8hpp.html" target="_top" xlink:title="/home/travis/build\l/STORM&#45;IRIT/Radium&#45;Engine\l/src/GuiBase/Viewer/Gizmo\l/TranslateGizmo.hpp">
<polygon fill="white" stroke="black" points="1945,-89.5 1945,-141.5 2093,-141.5 2093,-89.5 1945,-89.5"/>
<text text-anchor="start" x="1953" y="-129.5" font-family="Helvetica,sans-Serif" font-size="10.00">/home/travis/build</text>
<text text-anchor="start" x="1953" y="-118.5" font-family="Helvetica,sans-Serif" font-size="10.00">/STORM&#45;IRIT/Radium&#45;Engine</text>
<text text-anchor="start" x="1953" y="-107.5" font-family="Helvetica,sans-Serif" font-size="10.00">/src/GuiBase/Viewer/Gizmo</text>
<text text-anchor="middle" x="2019" y="-96.5" font-family="Helvetica,sans-Serif" font-size="10.00">/TranslateGizmo.hpp</text>
</a>
</g>
</g>
<!-- Node13&#45;&gt;Node22 -->
<g id="edge23" class="edge"><title>Node13&#45;&gt;Node22</title>
<path fill="none" stroke="midnightblue" d="M2266.8,-178.982C2265.52,-178.65 2264.26,-178.322 2263,-178 2191.98,-159.788 2172.88,-160.781 2102,-142 2099.09,-141.228 2096.12,-140.421 2093.13,-139.589"/>
<polygon fill="midnightblue" stroke="midnightblue" points="2266.11,-182.421 2276.67,-181.61 2267.91,-175.656 2266.11,-182.421"/>
</g>
<!-- Node16 -->
<g id="node16" class="node"><title>Node16</title>
<g id="a_node16"><a xlink:href="GizmoManager_8cpp.html" target="_top" xlink:title="/home/travis/build\l/STORM&#45;IRIT/Radium&#45;Engine\l/src/GuiBase/Viewer/Gizmo\l/GizmoManager.cpp">
<polygon fill="white" stroke="black" points="1945,-0.5 1945,-52.5 2093,-52.5 2093,-0.5 1945,-0.5"/>
<text text-anchor="start" x="1953" y="-40.5" font-family="Helvetica,sans-Serif" font-size="10.00">/home/travis/build</text>
<text text-anchor="start" x="1953" y="-29.5" font-family="Helvetica,sans-Serif" font-size="10.00">/STORM&#45;IRIT/Radium&#45;Engine</text>
<text text-anchor="start" x="1953" y="-18.5" font-family="Helvetica,sans-Serif" font-size="10.00">/src/GuiBase/Viewer/Gizmo</text>
<text text-anchor="middle" x="2019" y="-7.5" font-family="Helvetica,sans-Serif" font-size="10.00">/GizmoManager.cpp</text>
</a>
</g>
</g>
<!-- Node15&#45;&gt;Node16 -->
<g id="edge15" class="edge"><title>Node15&#45;&gt;Node16</title>
<path fill="none" stroke="midnightblue" d="M1909.98,-84.6354C1929.88,-74.2049 1952.01,-62.6109 1971.09,-52.6075"/>
<polygon fill="midnightblue" stroke="midnightblue" points="1908.25,-81.5938 1901.01,-89.336 1911.5,-87.7939 1908.25,-81.5938"/>
</g>
<!-- Node17 -->
<g id="node17" class="node"><title>Node17</title>
<g id="a_node17"><a xlink:href="Viewer_8cpp.html" target="_top" xlink:title="/home/travis/build\l/STORM&#45;IRIT/Radium&#45;Engine\l/src/GuiBase/Viewer/Viewer.cpp">
<polygon fill="white" stroke="black" points="1761.5,-6 1761.5,-47 1926.5,-47 1926.5,-6 1761.5,-6"/>
<text text-anchor="start" x="1769.5" y="-35" font-family="Helvetica,sans-Serif" font-size="10.00">/home/travis/build</text>
<text text-anchor="start" x="1769.5" y="-24" font-family="Helvetica,sans-Serif" font-size="10.00">/STORM&#45;IRIT/Radium&#45;Engine</text>
<text text-anchor="middle" x="1844" y="-13" font-family="Helvetica,sans-Serif" font-size="10.00">/src/GuiBase/Viewer/Viewer.cpp</text>
</a>
</g>
</g>
<!-- Node15&#45;&gt;Node17 -->
<g id="edge16" class="edge"><title>Node15&#45;&gt;Node17</title>
<path fill="none" stroke="midnightblue" d="M1849.34,-79.1554C1848.21,-68.2096 1847.01,-56.5492 1846.03,-47.0821"/>
<polygon fill="midnightblue" stroke="midnightblue" points="1845.89,-79.7493 1850.4,-89.336 1852.85,-79.0289 1845.89,-79.7493"/>
</g>
<!-- Node18&#45;&gt;Node16 -->
<g id="edge18" class="edge"><title>Node18&#45;&gt;Node16</title>
<path fill="none" stroke="midnightblue" d="M2267.1,-88.8598C2193.24,-70.0426 2172.04,-71.319 2102,-53 2099.08,-52.2371 2096.12,-51.4378 2093.12,-50.6124"/>
<polygon fill="midnightblue" stroke="midnightblue" points="2266.32,-92.2722 2276.88,-91.3876 2268.07,-85.4952 2266.32,-92.2722"/>
</g>
<!-- Node18&#45;&gt;Node19 -->
<g id="edge19" class="edge"><title>Node18&#45;&gt;Node19</title>
<path fill="none" stroke="midnightblue" d="M2377.55,-81.5029C2385.26,-71.9226 2393.55,-61.6196 2400.8,-52.6075"/>
<polygon fill="midnightblue" stroke="midnightblue" points="2374.79,-79.3507 2371.25,-89.336 2380.24,-83.7389 2374.79,-79.3507"/>
</g>
<!-- Node20&#45;&gt;Node16 -->
<g id="edge21" class="edge"><title>Node20&#45;&gt;Node16</title>
<path fill="none" stroke="midnightblue" d="M1770.9,-88.8598C1844.76,-70.0426 1865.96,-71.319 1936,-53 1938.92,-52.2371 1941.88,-51.4378 1944.88,-50.6124"/>
<polygon fill="midnightblue" stroke="midnightblue" points="1769.93,-85.4952 1761.12,-91.3876 1771.68,-92.2722 1769.93,-85.4952"/>
</g>
<!-- Node20&#45;&gt;Node21 -->
<g id="edge22" class="edge"><title>Node20&#45;&gt;Node21</title>
<path fill="none" stroke="midnightblue" d="M1663.85,-80.9272C1657.35,-71.511 1650.41,-61.4393 1644.32,-52.6075"/>
<polygon fill="midnightblue" stroke="midnightblue" points="1661.09,-83.0909 1669.65,-89.336 1666.85,-79.1168 1661.09,-83.0909"/>
</g>
<!-- Node22&#45;&gt;Node16 -->
<g id="edge24" class="edge"><title>Node22&#45;&gt;Node16</title>
<path fill="none" stroke="midnightblue" d="M2019,-79.1908C2019,-70.2824 2019,-60.8986 2019,-52.6075"/>
<polygon fill="midnightblue" stroke="midnightblue" points="2015.5,-79.336 2019,-89.336 2022.5,-79.336 2015.5,-79.336"/>
</g>
<!-- Node22&#45;&gt;Node23 -->
<g id="edge25" class="edge"><title>Node22&#45;&gt;Node23</title>
<path fill="none" stroke="midnightblue" d="M2075.98,-84.6354C2095.88,-74.2049 2118.01,-62.6109 2137.09,-52.6075"/>
<polygon fill="midnightblue" stroke="midnightblue" points="2074.25,-81.5938 2067.01,-89.336 2077.5,-87.7939 2074.25,-81.5938"/>
</g>
<!-- Node25 -->
<g id="node25" class="node"><title>Node25</title>
<g id="a_node25"><a xlink:href="AnimationComponent_8cpp.html" target="_top" xlink:title="/home/travis/build\l/STORM&#45;IRIT/Radium&#45;Engine\l/Plugins/Animation/src/Animation\lComponent.cpp">
<polygon fill="white" stroke="black" points="2893,-89.5 2893,-141.5 3067,-141.5 3067,-89.5 2893,-89.5"/>
<text text-anchor="start" x="2901" y="-129.5" font-family="Helvetica,sans-Serif" font-size="10.00">/home/travis/build</text>
<text text-anchor="start" x="2901" y="-118.5" font-family="Helvetica,sans-Serif" font-size="10.00">/STORM&#45;IRIT/Radium&#45;Engine</text>
<text text-anchor="start" x="2901" y="-107.5" font-family="Helvetica,sans-Serif" font-size="10.00">/Plugins/Animation/src/Animation</text>
<text text-anchor="middle" x="2980" y="-96.5" font-family="Helvetica,sans-Serif" font-size="10.00">Component.cpp</text>
</a>
</g>
</g>
<!-- Node24&#45;&gt;Node25 -->
<g id="edge30" class="edge"><title>Node24&#45;&gt;Node25</title>
<path fill="none" stroke="midnightblue" d="M2695.7,-178.071C2695.8,-178.047 2695.9,-178.024 2696,-178 2778.84,-158.622 2801.06,-160.932 2884,-142 2886.94,-141.328 2889.93,-140.63 2892.95,-139.91"/>
<polygon fill="midnightblue" stroke="midnightblue" points="2695.07,-174.621 2686.17,-180.368 2696.72,-181.426 2695.07,-174.621"/>
</g>
<!-- Node26 -->
<g id="node26" class="node"><title>Node26</title>
<g id="a_node26"><a xlink:href="AnimationSystem_8cpp.html" target="_top" xlink:title="/home/travis/build\l/STORM&#45;IRIT/Radium&#45;Engine\l/Plugins/Animation/src/Animation\lSystem.cpp">
<polygon fill="white" stroke="black" points="2519,-89.5 2519,-141.5 2693,-141.5 2693,-89.5 2519,-89.5"/>
<text text-anchor="start" x="2527" y="-129.5" font-family="Helvetica,sans-Serif" font-size="10.00">/home/travis/build</text>
<text text-anchor="start" x="2527" y="-118.5" font-family="Helvetica,sans-Serif" font-size="10.00">/STORM&#45;IRIT/Radium&#45;Engine</text>
<text text-anchor="start" x="2527" y="-107.5" font-family="Helvetica,sans-Serif" font-size="10.00">/Plugins/Animation/src/Animation</text>
<text text-anchor="middle" x="2606" y="-96.5" font-family="Helvetica,sans-Serif" font-size="10.00">System.cpp</text>
</a>
</g>
</g>
<!-- Node24&#45;&gt;Node26 -->
<g id="edge31" class="edge"><title>Node24&#45;&gt;Node26</title>
<path fill="none" stroke="midnightblue" d="M2604.81,-168.191C2605.02,-159.282 2605.23,-149.899 2605.42,-141.607"/>
<polygon fill="midnightblue" stroke="midnightblue" points="2601.31,-168.258 2604.58,-178.336 2608.31,-168.419 2601.31,-168.258"/>
</g>
<!-- Node27 -->
<g id="node27" class="node"><title>Node27</title>
<g id="a_node27"><a xlink:href="SkeletonBoneDrawable_8cpp.html" target="_top" xlink:title="/home/travis/build\l/STORM&#45;IRIT/Radium&#45;Engine\l/Plugins/Animation/src/Drawing\l/SkeletonBoneDrawable.cpp">
<polygon fill="white" stroke="black" points="2711,-89.5 2711,-141.5 2875,-141.5 2875,-89.5 2711,-89.5"/>
<text text-anchor="start" x="2719" y="-129.5" font-family="Helvetica,sans-Serif" font-size="10.00">/home/travis/build</text>
<text text-anchor="start" x="2719" y="-118.5" font-family="Helvetica,sans-Serif" font-size="10.00">/STORM&#45;IRIT/Radium&#45;Engine</text>
<text text-anchor="start" x="2719" y="-107.5" font-family="Helvetica,sans-Serif" font-size="10.00">/Plugins/Animation/src/Drawing</text>
<text text-anchor="middle" x="2793" y="-96.5" font-family="Helvetica,sans-Serif" font-size="10.00">/SkeletonBoneDrawable.cpp</text>
</a>
</g>
</g>
<!-- Node24&#45;&gt;Node27 -->
<g id="edge32" class="edge"><title>Node24&#45;&gt;Node27</title>
<path fill="none" stroke="midnightblue" d="M2667.75,-174.153C2690.77,-163.56 2716.51,-151.71 2738.64,-141.521"/>
<polygon fill="midnightblue" stroke="midnightblue" points="2666.03,-171.092 2658.41,-178.453 2668.96,-177.451 2666.03,-171.092"/>
</g>
<!-- Node30&#45;&gt;Node29 -->
<g id="edge36" class="edge"><title>Node30&#45;&gt;Node29</title>
<path fill="none" stroke="midnightblue" d="M3101.27,-171.934C3114,-161.956 3127.89,-151.07 3139.97,-141.607"/>
<polygon fill="midnightblue" stroke="midnightblue" points="3098.82,-169.412 3093.11,-178.336 3103.14,-174.922 3098.82,-169.412"/>
</g>
<!-- Node31 -->
<g id="node31" class="node"><title>Node31</title>
<g id="a_node31"><a xlink:href="MeshPaintSystem_8cpp.html" target="_top" xlink:title="/home/travis/build\l/STORM&#45;IRIT/Radium&#45;Engine\l/Plugins/MeshPaint/src/MeshPaint\lSystem.cpp">
<polygon fill="white" stroke="black" points="3277,-89.5 3277,-141.5 3451,-141.5 3451,-89.5 3277,-89.5"/>
<text text-anchor="start" x="3285" y="-129.5" font-family="Helvetica,sans-Serif" font-size="10.00">/home/travis/build</text>
<text text-anchor="start" x="3285" y="-118.5" font-family="Helvetica,sans-Serif" font-size="10.00">/STORM&#45;IRIT/Radium&#45;Engine</text>
<text text-anchor="start" x="3285" y="-107.5" font-family="Helvetica,sans-Serif" font-size="10.00">/Plugins/MeshPaint/src/MeshPaint</text>
<text text-anchor="middle" x="3364" y="-96.5" font-family="Helvetica,sans-Serif" font-size="10.00">System.cpp</text>
</a>
</g>
</g>
<!-- Node30&#45;&gt;Node31 -->
<g id="edge37" class="edge"><title>Node30&#45;&gt;Node31</title>
<path fill="none" stroke="midnightblue" d="M3158.31,-175.558C3196.42,-164.617 3239.8,-152.163 3276.86,-141.521"/>
<polygon fill="midnightblue" stroke="midnightblue" points="3156.88,-172.329 3148.23,-178.453 3158.81,-179.057 3156.88,-172.329"/>
</g>
<!-- Node34 -->
<g id="node34" class="node"><title>Node34</title>
<g id="a_node34"><a xlink:href="SkinningSystem_8hpp.html" target="_top" xlink:title="/home/travis/build\l/STORM&#45;IRIT/Radium&#45;Engine\l/Plugins/Skinning/src/SkinningSystem.hpp">
<polygon fill="white" stroke="black" points="3469.5,-95 3469.5,-136 3684.5,-136 3684.5,-95 3469.5,-95"/>
<text text-anchor="start" x="3477.5" y="-124" font-family="Helvetica,sans-Serif" font-size="10.00">/home/travis/build</text>
<text text-anchor="start" x="3477.5" y="-113" font-family="Helvetica,sans-Serif" font-size="10.00">/STORM&#45;IRIT/Radium&#45;Engine</text>
<text text-anchor="middle" x="3577" y="-102" font-family="Helvetica,sans-Serif" font-size="10.00">/Plugins/Skinning/src/SkinningSystem.hpp</text>
</a>
</g>
</g>
<!-- Node33&#45;&gt;Node34 -->
<g id="edge40" class="edge"><title>Node33&#45;&gt;Node34</title>
<path fill="none" stroke="midnightblue" d="M3490.87,-172.841C3509.55,-160.621 3530.5,-146.916 3547.06,-136.082"/>
<polygon fill="midnightblue" stroke="midnightblue" points="3488.92,-169.933 3482.47,-178.336 3492.75,-175.791 3488.92,-169.933"/>
</g>
<!-- Node35 -->
<g id="node35" class="node"><title>Node35</title>
<g id="a_node35"><a xlink:href="SkinningPlugin_8cpp.html" target="_top" xlink:title="/home/travis/build\l/STORM&#45;IRIT/Radium&#45;Engine\l/Plugins/Skinning/src/SkinningPlugin.cpp">
<polygon fill="white" stroke="black" points="3474,-6 3474,-47 3680,-47 3680,-6 3474,-6"/>
<text text-anchor="start" x="3482" y="-35" font-family="Helvetica,sans-Serif" font-size="10.00">/home/travis/build</text>
<text text-anchor="start" x="3482" y="-24" font-family="Helvetica,sans-Serif" font-size="10.00">/STORM&#45;IRIT/Radium&#45;Engine</text>
<text text-anchor="middle" x="3577" y="-13" font-family="Helvetica,sans-Serif" font-size="10.00">/Plugins/Skinning/src/SkinningPlugin.cpp</text>
</a>
</g>
</g>
<!-- Node34&#45;&gt;Node35 -->
<g id="edge41" class="edge"><title>Node34&#45;&gt;Node35</title>
<path fill="none" stroke="midnightblue" d="M3577,-84.4407C3577,-72.1014 3577,-58.1619 3577,-47.1635"/>
<polygon fill="midnightblue" stroke="midnightblue" points="3573.5,-84.7583 3577,-94.7584 3580.5,-84.7584 3573.5,-84.7583"/>
</g>
</g>
</svg>
