<?xml version="1.0" encoding="UTF-8" standalone="no"?>
<!DOCTYPE svg PUBLIC "-//W3C//DTD SVG 1.1//EN"
 "http://www.w3.org/Graphics/SVG/1.1/DTD/svg11.dtd">
<!-- Generated by graphviz version 2.38.0 (20140413.2041)
 -->
<!-- Title: /home/travis/build/STORM&#45;IRIT/Radium&#45;Engine/src/Core/Resources/Resources.hpp Pages: 1 -->
<svg width="2112pt" height="139pt"
 viewBox="0.00 0.00 2111.50 139.00" xmlns="http://www.w3.org/2000/svg" xmlns:xlink="http://www.w3.org/1999/xlink">
<g id="graph0" class="graph" transform="scale(1 1) rotate(0) translate(4 135)">
<title>/home/travis/build/STORM&#45;IRIT/Radium&#45;Engine/src/Core/Resources/Resources.hpp</title>
<polygon fill="white" stroke="none" points="-4,4 -4,-135 2107.5,-135 2107.5,4 -4,4"/>
<!-- Node1 -->
<g id="node1" class="node"><title>Node1</title>
<polygon fill="#bfbfbf" stroke="black" points="922.5,-89.5 922.5,-130.5 1106.5,-130.5 1106.5,-89.5 922.5,-89.5"/>
<text text-anchor="start" x="930.5" y="-118.5" font-family="Helvetica,sans-Serif" font-size="10.00">/home/travis/build</text>
<text text-anchor="start" x="930.5" y="-107.5" font-family="Helvetica,sans-Serif" font-size="10.00">/STORM&#45;IRIT/Radium&#45;Engine</text>
<text text-anchor="middle" x="1014.5" y="-96.5" font-family="Helvetica,sans-Serif" font-size="10.00">/src/Core/Resources/Resources.hpp</text>
</g>
<!-- Node2 -->
<g id="node2" class="node"><title>Node2</title>
<g id="a_node2"><a xlink:href="Resources_8cpp.html" target="_top" xlink:title="/home/travis/build\l/STORM&#45;IRIT/Radium&#45;Engine\l/src/Core/Resources/Resources.cpp">
<polygon fill="white" stroke="black" points="0,-6 0,-47 183,-47 183,-6 0,-6"/>
<text text-anchor="start" x="8" y="-35" font-family="Helvetica,sans-Serif" font-size="10.00">/home/travis/build</text>
<text text-anchor="start" x="8" y="-24" font-family="Helvetica,sans-Serif" font-size="10.00">/STORM&#45;IRIT/Radium&#45;Engine</text>
<text text-anchor="middle" x="91.5" y="-13" font-family="Helvetica,sans-Serif" font-size="10.00">/src/Core/Resources/Resources.cpp</text>
</a>
</g>
</g>
<!-- Node1&#45;&gt;Node2 -->
<g id="edge1" class="edge"><title>Node1&#45;&gt;Node2</title>
<path fill="none" stroke="midnightblue" d="M912.3,-107.908C756.203,-104.921 449.435,-93.8485 192.5,-53 182.587,-51.424 172.226,-49.3329 162.076,-47.024"/>
<polygon fill="midnightblue" stroke="midnightblue" points="912.299,-111.408 922.361,-108.093 912.427,-104.41 912.299,-111.408"/>
</g>
<!-- Node3 -->
<g id="node3" class="node"><title>Node3</title>
<g id="a_node3"><a xlink:href="GeometryComponent_8cpp.html" target="_top" xlink:title="/home/travis/build\l/STORM&#45;IRIT/Radium&#45;Engine\l/src/Engine/Component/GeometryComponent.cpp">
<polygon fill="white" stroke="black" points="201.5,-6 201.5,-47 457.5,-47 457.5,-6 201.5,-6"/>
<text text-anchor="start" x="209.5" y="-35" font-family="Helvetica,sans-Serif" font-size="10.00">/home/travis/build</text>
<text text-anchor="start" x="209.5" y="-24" font-family="Helvetica,sans-Serif" font-size="10.00">/STORM&#45;IRIT/Radium&#45;Engine</text>
<text text-anchor="middle" x="329.5" y="-13" font-family="Helvetica,sans-Serif" font-size="10.00">/src/Engine/Component/GeometryComponent.cpp</text>
</a>
</g>
</g>
<!-- Node1&#45;&gt;Node3 -->
<g id="edge2" class="edge"><title>Node1&#45;&gt;Node3</title>
<path fill="none" stroke="midnightblue" d="M911.979,-101.057C801.651,-91.9176 621.172,-75.2592 466.5,-53 454.407,-51.2597 441.754,-49.2137 429.232,-47.0503"/>
<polygon fill="midnightblue" stroke="midnightblue" points="911.851,-104.558 922.104,-101.89 912.425,-97.5813 911.851,-104.558"/>
</g>
<!-- Node4 -->
<g id="node4" class="node"><title>Node4</title>
<g id="a_node4"><a xlink:href="RadiumEngine_8cpp.html" target="_top" xlink:title="/home/travis/build\l/STORM&#45;IRIT/Radium&#45;Engine\l/src/Engine/RadiumEngine.cpp">
<polygon fill="white" stroke="black" points="476,-6 476,-47 637,-47 637,-6 476,-6"/>
<text text-anchor="start" x="484" y="-35" font-family="Helvetica,sans-Serif" font-size="10.00">/home/travis/build</text>
<text text-anchor="start" x="484" y="-24" font-family="Helvetica,sans-Serif" font-size="10.00">/STORM&#45;IRIT/Radium&#45;Engine</text>
<text text-anchor="middle" x="556.5" y="-13" font-family="Helvetica,sans-Serif" font-size="10.00">/src/Engine/RadiumEngine.cpp</text>
</a>
</g>
</g>
<!-- Node1&#45;&gt;Node4 -->
<g id="edge3" class="edge"><title>Node1&#45;&gt;Node4</title>
<path fill="none" stroke="midnightblue" d="M912.146,-96.9164C837.959,-87.3117 735.471,-72.2945 646.5,-53 638.564,-51.2791 630.295,-49.2576 622.126,-47.1187"/>
<polygon fill="midnightblue" stroke="midnightblue" points="912.058,-100.434 922.422,-98.2356 912.949,-93.4907 912.058,-100.434"/>
</g>
<!-- Node5 -->
<g id="node5" class="node"><title>Node5</title>
<g id="a_node5"><a xlink:href="BlinnPhongMaterial_8cpp.html" target="_top" xlink:title="/home/travis/build\l/STORM&#45;IRIT/Radium&#45;Engine\l/src/Engine/Renderer/Material\l/BlinnPhongMaterial.cpp">
<polygon fill="white" stroke="black" points="655.5,-0.5 655.5,-52.5 811.5,-52.5 811.5,-0.5 655.5,-0.5"/>
<text text-anchor="start" x="663.5" y="-40.5" font-family="Helvetica,sans-Serif" font-size="10.00">/home/travis/build</text>
<text text-anchor="start" x="663.5" y="-29.5" font-family="Helvetica,sans-Serif" font-size="10.00">/STORM&#45;IRIT/Radium&#45;Engine</text>
<text text-anchor="start" x="663.5" y="-18.5" font-family="Helvetica,sans-Serif" font-size="10.00">/src/Engine/Renderer/Material</text>
<text text-anchor="middle" x="733.5" y="-7.5" font-family="Helvetica,sans-Serif" font-size="10.00">/BlinnPhongMaterial.cpp</text>
</a>
</g>
</g>
<!-- Node1&#45;&gt;Node5 -->
<g id="edge4" class="edge"><title>Node1&#45;&gt;Node5</title>
<path fill="none" stroke="midnightblue" d="M936.455,-86.5504C901.05,-76.3459 858.652,-64.0977 820.5,-53 817.628,-52.1647 814.704,-51.313 811.75,-50.4518"/>
<polygon fill="midnightblue" stroke="midnightblue" points="935.668,-89.966 946.246,-89.3717 937.606,-83.2397 935.668,-89.966"/>
</g>
<!-- Node6 -->
<g id="node6" class="node"><title>Node6</title>
<g id="a_node6"><a xlink:href="Renderer_8cpp.html" target="_top" xlink:title="/home/travis/build\l/STORM&#45;IRIT/Radium&#45;Engine\l/src/Engine/Renderer/Renderer.cpp">
<polygon fill="white" stroke="black" points="829.5,-6 829.5,-47 1009.5,-47 1009.5,-6 829.5,-6"/>
<text text-anchor="start" x="837.5" y="-35" font-family="Helvetica,sans-Serif" font-size="10.00">/home/travis/build</text>
<text text-anchor="start" x="837.5" y="-24" font-family="Helvetica,sans-Serif" font-size="10.00">/STORM&#45;IRIT/Radium&#45;Engine</text>
<text text-anchor="middle" x="919.5" y="-13" font-family="Helvetica,sans-Serif" font-size="10.00">/src/Engine/Renderer/Renderer.cpp</text>
</a>
</g>
</g>
<!-- Node1&#45;&gt;Node6 -->
<g id="edge5" class="edge"><title>Node1&#45;&gt;Node6</title>
<path fill="none" stroke="midnightblue" d="M983.832,-82.6898C970.326,-71.1035 954.736,-57.7284 942.285,-47.0472"/>
<polygon fill="midnightblue" stroke="midnightblue" points="981.634,-85.4163 991.503,-89.2711 986.192,-80.1035 981.634,-85.4163"/>
</g>
<!-- Node7 -->
<g id="node7" class="node"><title>Node7</title>
<g id="a_node7"><a xlink:href="ForwardRenderer_8cpp.html" target="_top" xlink:title="/home/travis/build\l/STORM&#45;IRIT/Radium&#45;Engine\l/src/Engine/Renderer/Renderers\l/ForwardRenderer.cpp">
<polygon fill="white" stroke="black" points="1027.5,-0.5 1027.5,-52.5 1193.5,-52.5 1193.5,-0.5 1027.5,-0.5"/>
<text text-anchor="start" x="1035.5" y="-40.5" font-family="Helvetica,sans-Serif" font-size="10.00">/home/travis/build</text>
<text text-anchor="start" x="1035.5" y="-29.5" font-family="Helvetica,sans-Serif" font-size="10.00">/STORM&#45;IRIT/Radium&#45;Engine</text>
<text text-anchor="start" x="1035.5" y="-18.5" font-family="Helvetica,sans-Serif" font-size="10.00">/src/Engine/Renderer/Renderers</text>
<text text-anchor="middle" x="1110.5" y="-7.5" font-family="Helvetica,sans-Serif" font-size="10.00">/ForwardRenderer.cpp</text>
</a>
</g>
</g>
<!-- Node1&#45;&gt;Node7 -->
<g id="edge6" class="edge"><title>Node1&#45;&gt;Node7</title>
<path fill="none" stroke="midnightblue" d="M1045.69,-82.5249C1057,-72.9159 1069.75,-62.0947 1080.93,-52.6073"/>
<polygon fill="midnightblue" stroke="midnightblue" points="1043.1,-80.1311 1037.74,-89.2711 1047.63,-85.4674 1043.1,-80.1311"/>
</g>
<!-- Node8 -->
<g id="node8" class="node"><title>Node8</title>
<g id="a_node8"><a xlink:href="BaseApplication_8cpp.html" target="_top" xlink:title="/home/travis/build\l/STORM&#45;IRIT/Radium&#45;Engine\l/src/GuiBase/BaseApplication.cpp">
<polygon fill="white" stroke="black" points="1211.5,-6 1211.5,-47 1387.5,-47 1387.5,-6 1211.5,-6"/>
<text text-anchor="start" x="1219.5" y="-35" font-family="Helvetica,sans-Serif" font-size="10.00">/home/travis/build</text>
<text text-anchor="start" x="1219.5" y="-24" font-family="Helvetica,sans-Serif" font-size="10.00">/STORM&#45;IRIT/Radium&#45;Engine</text>
<text text-anchor="middle" x="1299.5" y="-13" font-family="Helvetica,sans-Serif" font-size="10.00">/src/GuiBase/BaseApplication.cpp</text>
</a>
</g>
</g>
<!-- Node1&#45;&gt;Node8 -->
<g id="edge7" class="edge"><title>Node1&#45;&gt;Node8</title>
<path fill="none" stroke="midnightblue" d="M1092.44,-86.7116C1135.9,-74.2841 1189.52,-58.9518 1231.3,-47.0031"/>
<polygon fill="midnightblue" stroke="midnightblue" points="1091.42,-83.3641 1082.76,-89.4787 1093.34,-90.0943 1091.42,-83.3641"/>
</g>
<!-- Node9 -->
<g id="node9" class="node"><title>Node9</title>
<g id="a_node9"><a xlink:href="KeyMappingManager_8cpp.html" target="_top" xlink:title="/home/travis/build\l/STORM&#45;IRIT/Radium&#45;Engine\l/src/GuiBase/Utils/KeyMappingManager.cpp">
<polygon fill="white" stroke="black" points="1405.5,-6 1405.5,-47 1627.5,-47 1627.5,-6 1405.5,-6"/>
<text text-anchor="start" x="1413.5" y="-35" font-family="Helvetica,sans-Serif" font-size="10.00">/home/travis/build</text>
<text text-anchor="start" x="1413.5" y="-24" font-family="Helvetica,sans-Serif" font-size="10.00">/STORM&#45;IRIT/Radium&#45;Engine</text>
<text text-anchor="middle" x="1516.5" y="-13" font-family="Helvetica,sans-Serif" font-size="10.00">/src/GuiBase/Utils/KeyMappingManager.cpp</text>
</a>
</g>
</g>
<!-- Node1&#45;&gt;Node9 -->
<g id="edge8" class="edge"><title>Node1&#45;&gt;Node9</title>
<path fill="none" stroke="midnightblue" d="M1116.81,-95.807C1193.9,-85.4287 1302.1,-69.9307 1396.5,-53 1406.67,-51.1764 1417.29,-49.1284 1427.83,-47.0067"/>
<polygon fill="midnightblue" stroke="midnightblue" points="1116.06,-92.3755 1106.62,-97.1736 1116.99,-99.3134 1116.06,-92.3755"/>
</g>
<!-- Node10 -->
<g id="node10" class="node"><title>Node10</title>
<g id="a_node10"><a xlink:href="SkinningComponent_8cpp.html" target="_top" xlink:title="/home/travis/build\l/STORM&#45;IRIT/Radium&#45;Engine\l/Plugins/Skinning/src/SkinningComponent.cpp">
<polygon fill="white" stroke="black" points="1645.5,-6 1645.5,-47 1879.5,-47 1879.5,-6 1645.5,-6"/>
<text text-anchor="start" x="1653.5" y="-35" font-family="Helvetica,sans-Serif" font-size="10.00">/home/travis/build</text>
<text text-anchor="start" x="1653.5" y="-24" font-family="Helvetica,sans-Serif" font-size="10.00">/STORM&#45;IRIT/Radium&#45;Engine</text>
<text text-anchor="middle" x="1762.5" y="-13" font-family="Helvetica,sans-Serif" font-size="10.00">/Plugins/Skinning/src/SkinningComponent.cpp</text>
</a>
</g>
</g>
<!-- Node1&#45;&gt;Node10 -->
<g id="edge9" class="edge"><title>Node1&#45;&gt;Node10</title>
<path fill="none" stroke="midnightblue" d="M1116.76,-103.25C1240.35,-95.5054 1454.4,-79.5423 1636.5,-53 1648.09,-51.31 1660.23,-49.2407 1672.2,-47.0188"/>
<polygon fill="midnightblue" stroke="midnightblue" points="1116.32,-99.7707 1106.56,-103.884 1116.76,-106.757 1116.32,-99.7707"/>
</g>
<!-- Node11 -->
<g id="node11" class="node"><title>Node11</title>
<g id="a_node11"><a xlink:href="SkinningPlugin_8cpp.html" target="_top" xlink:title="/home/travis/build\l/STORM&#45;IRIT/Radium&#45;Engine\l/Plugins/Skinning/src/SkinningPlugin.cpp">
<polygon fill="white" stroke="black" points="1897.5,-6 1897.5,-47 2103.5,-47 2103.5,-6 1897.5,-6"/>
<text text-anchor="start" x="1905.5" y="-35" font-family="Helvetica,sans-Serif" font-size="10.00">/home/travis/build</text>
<text text-anchor="start" x="1905.5" y="-24" font-family="Helvetica,sans-Serif" font-size="10.00">/STORM&#45;IRIT/Radium&#45;Engine</text>
<text text-anchor="middle" x="2000.5" y="-13" font-family="Helvetica,sans-Serif" font-size="10.00">/Plugins/Skinning/src/SkinningPlugin.cpp</text>
</a>
</g>
</g>
<!-- Node1&#45;&gt;Node11 -->
<g id="edge10" class="edge"><title>Node1&#45;&gt;Node11</title>
<path fill="none" stroke="midnightblue" d="M1116.6,-107.739C1280.29,-104.534 1611.22,-93.1846 1888.5,-53 1899.45,-51.4126 1910.92,-49.3149 1922.17,-47.0029"/>
<polygon fill="midnightblue" stroke="midnightblue" points="1116.47,-104.24 1106.54,-107.93 1116.6,-111.239 1116.47,-104.24"/>
</g>
</g>
</svg>
