<?xml version="1.0" encoding="UTF-8" standalone="no"?>
<!DOCTYPE svg PUBLIC "-//W3C//DTD SVG 1.1//EN"
 "http://www.w3.org/Graphics/SVG/1.1/DTD/svg11.dtd">
<!-- Generated by graphviz version 2.38.0 (20140413.2041)
 -->
<!-- Title: /home/travis/build/STORM&#45;IRIT/Radium&#45;Engine/src/Engine/Renderer/RenderTechnique/ShaderConfigFactory.hpp Pages: 1 -->
<svg width="3130pt" height="306pt"
 viewBox="0.00 0.00 3130.00 306.00" xmlns="http://www.w3.org/2000/svg" xmlns:xlink="http://www.w3.org/1999/xlink">
<g id="graph0" class="graph" transform="scale(1 1) rotate(0) translate(4 302)">
<title>/home/travis/build/STORM&#45;IRIT/Radium&#45;Engine/src/Engine/Renderer/RenderTechnique/ShaderConfigFactory.hpp</title>
<polygon fill="white" stroke="none" points="-4,4 -4,-302 3126,-302 3126,4 -4,4"/>
<!-- Node1 -->
<g id="node1" class="node"><title>Node1</title>
<polygon fill="#bfbfbf" stroke="black" points="1518,-245.5 1518,-297.5 1716,-297.5 1716,-245.5 1518,-245.5"/>
<text text-anchor="start" x="1526" y="-285.5" font-family="Helvetica,sans-Serif" font-size="10.00">/home/travis/build</text>
<text text-anchor="start" x="1526" y="-274.5" font-family="Helvetica,sans-Serif" font-size="10.00">/STORM&#45;IRIT/Radium&#45;Engine</text>
<text text-anchor="start" x="1526" y="-263.5" font-family="Helvetica,sans-Serif" font-size="10.00">/src/Engine/Renderer/RenderTechnique</text>
<text text-anchor="middle" x="1617" y="-252.5" font-family="Helvetica,sans-Serif" font-size="10.00">/ShaderConfigFactory.hpp</text>
</g>
<!-- Node2 -->
<g id="node2" class="node"><title>Node2</title>
<g id="a_node2"><a xlink:href="GeometryComponent_8cpp.html" target="_top" xlink:title="/home/travis/build\l/STORM&#45;IRIT/Radium&#45;Engine\l/src/Engine/Component/GeometryComponent.cpp">
<polygon fill="white" stroke="black" points="0,-162 0,-203 256,-203 256,-162 0,-162"/>
<text text-anchor="start" x="8" y="-191" font-family="Helvetica,sans-Serif" font-size="10.00">/home/travis/build</text>
<text text-anchor="start" x="8" y="-180" font-family="Helvetica,sans-Serif" font-size="10.00">/STORM&#45;IRIT/Radium&#45;Engine</text>
<text text-anchor="middle" x="128" y="-169" font-family="Helvetica,sans-Serif" font-size="10.00">/src/Engine/Component/GeometryComponent.cpp</text>
</a>
</g>
</g>
<!-- Node1&#45;&gt;Node2 -->
<g id="edge1" class="edge"><title>Node1&#45;&gt;Node2</title>
<path fill="none" stroke="midnightblue" d="M1507.84,-270.597C1277.55,-269.689 725.408,-261.65 266,-209 252.445,-207.447 238.217,-205.352 224.258,-203.029"/>
<polygon fill="midnightblue" stroke="midnightblue" points="1507.88,-274.097 1517.89,-270.633 1507.91,-267.097 1507.88,-274.097"/>
</g>
<!-- Node3 -->
<g id="node3" class="node"><title>Node3</title>
<g id="a_node3"><a xlink:href="RadiumEngine_8cpp.html" target="_top" xlink:title="/home/travis/build\l/STORM&#45;IRIT/Radium&#45;Engine\l/src/Engine/RadiumEngine.cpp">
<polygon fill="white" stroke="black" points="274.5,-162 274.5,-203 435.5,-203 435.5,-162 274.5,-162"/>
<text text-anchor="start" x="282.5" y="-191" font-family="Helvetica,sans-Serif" font-size="10.00">/home/travis/build</text>
<text text-anchor="start" x="282.5" y="-180" font-family="Helvetica,sans-Serif" font-size="10.00">/STORM&#45;IRIT/Radium&#45;Engine</text>
<text text-anchor="middle" x="355" y="-169" font-family="Helvetica,sans-Serif" font-size="10.00">/src/Engine/RadiumEngine.cpp</text>
</a>
</g>
</g>
<!-- Node1&#45;&gt;Node3 -->
<g id="edge2" class="edge"><title>Node1&#45;&gt;Node3</title>
<path fill="none" stroke="midnightblue" d="M1507.64,-267.885C1257.07,-261.387 647.474,-242.561 445,-209 435.868,-207.486 426.34,-205.382 417.047,-203.026"/>
<polygon fill="midnightblue" stroke="midnightblue" points="1507.76,-271.389 1517.85,-268.148 1507.94,-264.391 1507.76,-271.389"/>
</g>
<!-- Node4 -->
<g id="node4" class="node"><title>Node4</title>
<g id="a_node4"><a xlink:href="Camera_8cpp.html" target="_top" xlink:title="/home/travis/build\l/STORM&#45;IRIT/Radium&#45;Engine\l/src/Engine/Renderer/Camera\l/Camera.cpp">
<polygon fill="white" stroke="black" points="454,-156.5 454,-208.5 610,-208.5 610,-156.5 454,-156.5"/>
<text text-anchor="start" x="462" y="-196.5" font-family="Helvetica,sans-Serif" font-size="10.00">/home/travis/build</text>
<text text-anchor="start" x="462" y="-185.5" font-family="Helvetica,sans-Serif" font-size="10.00">/STORM&#45;IRIT/Radium&#45;Engine</text>
<text text-anchor="start" x="462" y="-174.5" font-family="Helvetica,sans-Serif" font-size="10.00">/src/Engine/Renderer/Camera</text>
<text text-anchor="middle" x="532" y="-163.5" font-family="Helvetica,sans-Serif" font-size="10.00">/Camera.cpp</text>
</a>
</g>
</g>
<!-- Node1&#45;&gt;Node4 -->
<g id="edge3" class="edge"><title>Node1&#45;&gt;Node4</title>
<path fill="none" stroke="midnightblue" d="M1507.9,-266.857C1285.62,-258.929 787.087,-238.43 619,-209 616.054,-208.484 613.067,-207.905 610.059,-207.273"/>
<polygon fill="midnightblue" stroke="midnightblue" points="1507.83,-270.357 1517.95,-267.214 1508.08,-263.361 1507.83,-270.357"/>
</g>
<!-- Node5 -->
<g id="node5" class="node"><title>Node5</title>
<g id="a_node5"><a xlink:href="BlinnPhongMaterial_8cpp.html" target="_top" xlink:title="/home/travis/build\l/STORM&#45;IRIT/Radium&#45;Engine\l/src/Engine/Renderer/Material\l/BlinnPhongMaterial.cpp">
<polygon fill="white" stroke="black" points="628,-156.5 628,-208.5 784,-208.5 784,-156.5 628,-156.5"/>
<text text-anchor="start" x="636" y="-196.5" font-family="Helvetica,sans-Serif" font-size="10.00">/home/travis/build</text>
<text text-anchor="start" x="636" y="-185.5" font-family="Helvetica,sans-Serif" font-size="10.00">/STORM&#45;IRIT/Radium&#45;Engine</text>
<text text-anchor="start" x="636" y="-174.5" font-family="Helvetica,sans-Serif" font-size="10.00">/src/Engine/Renderer/Material</text>
<text text-anchor="middle" x="706" y="-163.5" font-family="Helvetica,sans-Serif" font-size="10.00">/BlinnPhongMaterial.cpp</text>
</a>
</g>
</g>
<!-- Node1&#45;&gt;Node5 -->
<g id="edge4" class="edge"><title>Node1&#45;&gt;Node5</title>
<path fill="none" stroke="midnightblue" d="M1507.61,-269.635C1348.9,-266.734 1046.08,-255.003 793,-209 790.058,-208.465 787.073,-207.869 784.068,-207.224"/>
<polygon fill="midnightblue" stroke="midnightblue" points="1507.79,-273.138 1517.85,-269.813 1507.91,-266.139 1507.79,-273.138"/>
</g>
<!-- Node6 -->
<g id="node6" class="node"><title>Node6</title>
<g id="a_node6"><a xlink:href="Renderer_8cpp.html" target="_top" xlink:title="/home/travis/build\l/STORM&#45;IRIT/Radium&#45;Engine\l/src/Engine/Renderer/Renderer.cpp">
<polygon fill="white" stroke="black" points="802,-162 802,-203 982,-203 982,-162 802,-162"/>
<text text-anchor="start" x="810" y="-191" font-family="Helvetica,sans-Serif" font-size="10.00">/home/travis/build</text>
<text text-anchor="start" x="810" y="-180" font-family="Helvetica,sans-Serif" font-size="10.00">/STORM&#45;IRIT/Radium&#45;Engine</text>
<text text-anchor="middle" x="892" y="-169" font-family="Helvetica,sans-Serif" font-size="10.00">/src/Engine/Renderer/Renderer.cpp</text>
</a>
</g>
</g>
<!-- Node1&#45;&gt;Node6 -->
<g id="edge5" class="edge"><title>Node1&#45;&gt;Node6</title>
<path fill="none" stroke="midnightblue" d="M1507.97,-264.896C1382.52,-257.27 1170.69,-240.773 991,-209 981.65,-207.347 971.884,-205.271 962.284,-203.021"/>
<polygon fill="midnightblue" stroke="midnightblue" points="1507.77,-268.391 1517.96,-265.497 1508.19,-261.404 1507.77,-268.391"/>
</g>
<!-- Node7 -->
<g id="node7" class="node"><title>Node7</title>
<g id="a_node7"><a xlink:href="DrawPrimitives_8cpp.html" target="_top" xlink:title="/home/travis/build\l/STORM&#45;IRIT/Radium&#45;Engine\l/src/Engine/Renderer/RenderObject\l/Primitives/DrawPrimitives.cpp">
<polygon fill="white" stroke="black" points="1000,-156.5 1000,-208.5 1182,-208.5 1182,-156.5 1000,-156.5"/>
<text text-anchor="start" x="1008" y="-196.5" font-family="Helvetica,sans-Serif" font-size="10.00">/home/travis/build</text>
<text text-anchor="start" x="1008" y="-185.5" font-family="Helvetica,sans-Serif" font-size="10.00">/STORM&#45;IRIT/Radium&#45;Engine</text>
<text text-anchor="start" x="1008" y="-174.5" font-family="Helvetica,sans-Serif" font-size="10.00">/src/Engine/Renderer/RenderObject</text>
<text text-anchor="middle" x="1091" y="-163.5" font-family="Helvetica,sans-Serif" font-size="10.00">/Primitives/DrawPrimitives.cpp</text>
</a>
</g>
</g>
<!-- Node1&#45;&gt;Node7 -->
<g id="edge6" class="edge"><title>Node1&#45;&gt;Node7</title>
<path fill="none" stroke="midnightblue" d="M1507.85,-257.987C1421.46,-247.304 1297.98,-230.299 1191,-209 1188.1,-208.423 1185.16,-207.814 1182.19,-207.18"/>
<polygon fill="midnightblue" stroke="midnightblue" points="1507.58,-261.48 1517.93,-259.226 1508.43,-254.532 1507.58,-261.48"/>
</g>
<!-- Node8 -->
<g id="node8" class="node"><title>Node8</title>
<g id="a_node8"><a xlink:href="RenderTechnique_8cpp.html" target="_top" xlink:title="/home/travis/build\l/STORM&#45;IRIT/Radium&#45;Engine\l/src/Engine/Renderer/RenderTechnique\l/RenderTechnique.cpp">
<polygon fill="white" stroke="black" points="1200,-156.5 1200,-208.5 1398,-208.5 1398,-156.5 1200,-156.5"/>
<text text-anchor="start" x="1208" y="-196.5" font-family="Helvetica,sans-Serif" font-size="10.00">/home/travis/build</text>
<text text-anchor="start" x="1208" y="-185.5" font-family="Helvetica,sans-Serif" font-size="10.00">/STORM&#45;IRIT/Radium&#45;Engine</text>
<text text-anchor="start" x="1208" y="-174.5" font-family="Helvetica,sans-Serif" font-size="10.00">/src/Engine/Renderer/RenderTechnique</text>
<text text-anchor="middle" x="1299" y="-163.5" font-family="Helvetica,sans-Serif" font-size="10.00">/RenderTechnique.cpp</text>
</a>
</g>
</g>
<!-- Node1&#45;&gt;Node8 -->
<g id="edge7" class="edge"><title>Node1&#45;&gt;Node8</title>
<path fill="none" stroke="midnightblue" d="M1515.63,-242.767C1475.46,-231.776 1429.6,-219.231 1390.46,-208.521"/>
<polygon fill="midnightblue" stroke="midnightblue" points="1514.88,-246.19 1525.45,-245.453 1516.73,-239.438 1514.88,-246.19"/>
</g>
<!-- Node9 -->
<g id="node9" class="node"><title>Node9</title>
<g id="a_node9"><a xlink:href="ShaderConfigFactory_8cpp.html" target="_top" xlink:title="/home/travis/build\l/STORM&#45;IRIT/Radium&#45;Engine\l/src/Engine/Renderer/RenderTechnique\l/ShaderConfigFactory.cpp">
<polygon fill="white" stroke="black" points="1416,-156.5 1416,-208.5 1614,-208.5 1614,-156.5 1416,-156.5"/>
<text text-anchor="start" x="1424" y="-196.5" font-family="Helvetica,sans-Serif" font-size="10.00">/home/travis/build</text>
<text text-anchor="start" x="1424" y="-185.5" font-family="Helvetica,sans-Serif" font-size="10.00">/STORM&#45;IRIT/Radium&#45;Engine</text>
<text text-anchor="start" x="1424" y="-174.5" font-family="Helvetica,sans-Serif" font-size="10.00">/src/Engine/Renderer/RenderTechnique</text>
<text text-anchor="middle" x="1515" y="-163.5" font-family="Helvetica,sans-Serif" font-size="10.00">/ShaderConfigFactory.cpp</text>
</a>
</g>
</g>
<!-- Node1&#45;&gt;Node9 -->
<g id="edge8" class="edge"><title>Node1&#45;&gt;Node9</title>
<path fill="none" stroke="midnightblue" d="M1579.66,-238.649C1568.05,-228.749 1555.42,-217.98 1544.44,-208.607"/>
<polygon fill="midnightblue" stroke="midnightblue" points="1577.62,-241.509 1587.5,-245.336 1582.16,-236.184 1577.62,-241.509"/>
</g>
<!-- Node10 -->
<g id="node10" class="node"><title>Node10</title>
<g id="a_node10"><a xlink:href="BaseApplication_8cpp.html" target="_top" xlink:title="/home/travis/build\l/STORM&#45;IRIT/Radium&#45;Engine\l/src/GuiBase/BaseApplication.cpp">
<polygon fill="white" stroke="black" points="1632,-162 1632,-203 1808,-203 1808,-162 1632,-162"/>
<text text-anchor="start" x="1640" y="-191" font-family="Helvetica,sans-Serif" font-size="10.00">/home/travis/build</text>
<text text-anchor="start" x="1640" y="-180" font-family="Helvetica,sans-Serif" font-size="10.00">/STORM&#45;IRIT/Radium&#45;Engine</text>
<text text-anchor="middle" x="1720" y="-169" font-family="Helvetica,sans-Serif" font-size="10.00">/src/GuiBase/BaseApplication.cpp</text>
</a>
</g>
</g>
<!-- Node1&#45;&gt;Node10 -->
<g id="edge9" class="edge"><title>Node1&#45;&gt;Node10</title>
<path fill="none" stroke="midnightblue" d="M1654.47,-238.847C1668.64,-226.882 1684.34,-213.623 1696.82,-203.082"/>
<polygon fill="midnightblue" stroke="midnightblue" points="1652.17,-236.209 1646.79,-245.336 1656.69,-241.557 1652.17,-236.209"/>
</g>
<!-- Node11 -->
<g id="node11" class="node"><title>Node11</title>
<g id="a_node11"><a xlink:href="RotateGizmo_8cpp.html" target="_top" xlink:title="/home/travis/build\l/STORM&#45;IRIT/Radium&#45;Engine\l/src/GuiBase/Viewer/Gizmo\l/RotateGizmo.cpp">
<polygon fill="white" stroke="black" points="1826,-156.5 1826,-208.5 1974,-208.5 1974,-156.5 1826,-156.5"/>
<text text-anchor="start" x="1834" y="-196.5" font-family="Helvetica,sans-Serif" font-size="10.00">/home/travis/build</text>
<text text-anchor="start" x="1834" y="-185.5" font-family="Helvetica,sans-Serif" font-size="10.00">/STORM&#45;IRIT/Radium&#45;Engine</text>
<text text-anchor="start" x="1834" y="-174.5" font-family="Helvetica,sans-Serif" font-size="10.00">/src/GuiBase/Viewer/Gizmo</text>
<text text-anchor="middle" x="1900" y="-163.5" font-family="Helvetica,sans-Serif" font-size="10.00">/RotateGizmo.cpp</text>
</a>
</g>
</g>
<!-- Node1&#45;&gt;Node11 -->
<g id="edge10" class="edge"><title>Node1&#45;&gt;Node11</title>
<path fill="none" stroke="midnightblue" d="M1708.51,-242.367C1746.47,-230.697 1789.95,-217.333 1825.86,-206.291"/>
<polygon fill="midnightblue" stroke="midnightblue" points="1707.01,-239.169 1698.48,-245.453 1709.06,-245.86 1707.01,-239.169"/>
</g>
<!-- Node12 -->
<g id="node12" class="node"><title>Node12</title>
<g id="a_node12"><a xlink:href="ScaleGizmo_8cpp.html" target="_top" xlink:title="/home/travis/build\l/STORM&#45;IRIT/Radium&#45;Engine\l/src/GuiBase/Viewer/Gizmo\l/ScaleGizmo.cpp">
<polygon fill="white" stroke="black" points="1992,-156.5 1992,-208.5 2140,-208.5 2140,-156.5 1992,-156.5"/>
<text text-anchor="start" x="2000" y="-196.5" font-family="Helvetica,sans-Serif" font-size="10.00">/home/travis/build</text>
<text text-anchor="start" x="2000" y="-185.5" font-family="Helvetica,sans-Serif" font-size="10.00">/STORM&#45;IRIT/Radium&#45;Engine</text>
<text text-anchor="start" x="2000" y="-174.5" font-family="Helvetica,sans-Serif" font-size="10.00">/src/GuiBase/Viewer/Gizmo</text>
<text text-anchor="middle" x="2066" y="-163.5" font-family="Helvetica,sans-Serif" font-size="10.00">/ScaleGizmo.cpp</text>
</a>
</g>
</g>
<!-- Node1&#45;&gt;Node12 -->
<g id="edge11" class="edge"><title>Node1&#45;&gt;Node12</title>
<path fill="none" stroke="midnightblue" d="M1726.5,-255.949C1799.62,-245.291 1897.66,-229.186 1983,-209 1985.93,-208.306 1988.92,-207.565 1991.92,-206.788"/>
<polygon fill="midnightblue" stroke="midnightblue" points="1725.74,-252.521 1716.35,-257.416 1726.75,-259.449 1725.74,-252.521"/>
</g>
<!-- Node13 -->
<g id="node13" class="node"><title>Node13</title>
<g id="a_node13"><a xlink:href="TranslateGizmo_8cpp.html" target="_top" xlink:title="/home/travis/build\l/STORM&#45;IRIT/Radium&#45;Engine\l/src/GuiBase/Viewer/Gizmo\l/TranslateGizmo.cpp">
<polygon fill="white" stroke="black" points="2158,-156.5 2158,-208.5 2306,-208.5 2306,-156.5 2158,-156.5"/>
<text text-anchor="start" x="2166" y="-196.5" font-family="Helvetica,sans-Serif" font-size="10.00">/home/travis/build</text>
<text text-anchor="start" x="2166" y="-185.5" font-family="Helvetica,sans-Serif" font-size="10.00">/STORM&#45;IRIT/Radium&#45;Engine</text>
<text text-anchor="start" x="2166" y="-174.5" font-family="Helvetica,sans-Serif" font-size="10.00">/src/GuiBase/Viewer/Gizmo</text>
<text text-anchor="middle" x="2232" y="-163.5" font-family="Helvetica,sans-Serif" font-size="10.00">/TranslateGizmo.cpp</text>
</a>
</g>
</g>
<!-- Node1&#45;&gt;Node13 -->
<g id="edge12" class="edge"><title>Node1&#45;&gt;Node13</title>
<path fill="none" stroke="midnightblue" d="M1726.69,-263.707C1834.92,-255.627 2004.65,-239.253 2149,-209 2151.95,-208.382 2154.95,-207.704 2157.96,-206.981"/>
<polygon fill="midnightblue" stroke="midnightblue" points="1726.13,-260.239 1716.41,-264.463 1726.64,-267.22 1726.13,-260.239"/>
</g>
<!-- Node14 -->
<g id="node14" class="node"><title>Node14</title>
<g id="a_node14"><a xlink:href="SkeletonBoneDrawable_8cpp.html" target="_top" xlink:title="/home/travis/build\l/STORM&#45;IRIT/Radium&#45;Engine\l/Plugins/Animation/src/Drawing\l/SkeletonBoneDrawable.cpp">
<polygon fill="white" stroke="black" points="2324,-156.5 2324,-208.5 2488,-208.5 2488,-156.5 2324,-156.5"/>
<text text-anchor="start" x="2332" y="-196.5" font-family="Helvetica,sans-Serif" font-size="10.00">/home/travis/build</text>
<text text-anchor="start" x="2332" y="-185.5" font-family="Helvetica,sans-Serif" font-size="10.00">/STORM&#45;IRIT/Radium&#45;Engine</text>
<text text-anchor="start" x="2332" y="-174.5" font-family="Helvetica,sans-Serif" font-size="10.00">/Plugins/Animation/src/Drawing</text>
<text text-anchor="middle" x="2406" y="-163.5" font-family="Helvetica,sans-Serif" font-size="10.00">/SkeletonBoneDrawable.cpp</text>
</a>
</g>
</g>
<!-- Node1&#45;&gt;Node14 -->
<g id="edge13" class="edge"><title>Node1&#45;&gt;Node14</title>
<path fill="none" stroke="midnightblue" d="M1726.19,-267.136C1864.29,-261.452 2108.93,-246.614 2315,-209 2317.91,-208.47 2320.85,-207.888 2323.82,-207.264"/>
<polygon fill="midnightblue" stroke="midnightblue" points="1725.88,-263.645 1716.02,-267.545 1726.16,-270.64 1725.88,-263.645"/>
</g>
<!-- Node15 -->
<g id="node15" class="node"><title>Node15</title>
<g id="a_node15"><a xlink:href="MeshPaintComponent_8cpp.html" target="_top" xlink:title="/home/travis/build\l/STORM&#45;IRIT/Radium&#45;Engine\l/Plugins/MeshPaint/src/MeshPaint\lComponent.cpp">
<polygon fill="white" stroke="black" points="2506,-156.5 2506,-208.5 2680,-208.5 2680,-156.5 2506,-156.5"/>
<text text-anchor="start" x="2514" y="-196.5" font-family="Helvetica,sans-Serif" font-size="10.00">/home/travis/build</text>
<text text-anchor="start" x="2514" y="-185.5" font-family="Helvetica,sans-Serif" font-size="10.00">/STORM&#45;IRIT/Radium&#45;Engine</text>
<text text-anchor="start" x="2514" y="-174.5" font-family="Helvetica,sans-Serif" font-size="10.00">/Plugins/MeshPaint/src/MeshPaint</text>
<text text-anchor="middle" x="2593" y="-163.5" font-family="Helvetica,sans-Serif" font-size="10.00">Component.cpp</text>
</a>
</g>
</g>
<!-- Node1&#45;&gt;Node15 -->
<g id="edge14" class="edge"><title>Node1&#45;&gt;Node15</title>
<path fill="none" stroke="midnightblue" d="M1726.07,-269.512C1893.14,-266.509 2221.99,-254.708 2497,-209 2499.89,-208.519 2502.82,-207.99 2505.78,-207.421"/>
<polygon fill="midnightblue" stroke="midnightblue" points="1725.97,-266.013 1716.03,-269.685 1726.09,-273.012 1725.97,-266.013"/>
</g>
<!-- Node16 -->
<g id="node16" class="node"><title>Node16</title>
<g id="a_node16"><a xlink:href="SkinningDisplayComponent_8hpp.html" target="_top" xlink:title="/home/travis/build\l/STORM&#45;IRIT/Radium&#45;Engine\l/Plugins/Skinning/src/Display\l/SkinningDisplayComponent.hpp">
<polygon fill="white" stroke="black" points="2698,-156.5 2698,-208.5 2870,-208.5 2870,-156.5 2698,-156.5"/>
<text text-anchor="start" x="2706" y="-196.5" font-family="Helvetica,sans-Serif" font-size="10.00">/home/travis/build</text>
<text text-anchor="start" x="2706" y="-185.5" font-family="Helvetica,sans-Serif" font-size="10.00">/STORM&#45;IRIT/Radium&#45;Engine</text>
<text text-anchor="start" x="2706" y="-174.5" font-family="Helvetica,sans-Serif" font-size="10.00">/Plugins/Skinning/src/Display</text>
<text text-anchor="middle" x="2784" y="-163.5" font-family="Helvetica,sans-Serif" font-size="10.00">/SkinningDisplayComponent.hpp</text>
</a>
</g>
</g>
<!-- Node1&#45;&gt;Node16 -->
<g id="edge15" class="edge"><title>Node1&#45;&gt;Node16</title>
<path fill="none" stroke="midnightblue" d="M1726.26,-267.076C1960.81,-259.26 2506.07,-238.479 2689,-209 2691.95,-208.525 2694.94,-207.995 2697.95,-207.421"/>
<polygon fill="midnightblue" stroke="midnightblue" points="1725.89,-263.586 1716.01,-267.416 1726.12,-270.582 1725.89,-263.586"/>
</g>
<!-- Node19 -->
<g id="node19" class="node"><title>Node19</title>
<g id="a_node19"><a xlink:href="SkinningComponent_8cpp.html" target="_top" xlink:title="/home/travis/build\l/STORM&#45;IRIT/Radium&#45;Engine\l/Plugins/Skinning/src/SkinningComponent.cpp">
<polygon fill="white" stroke="black" points="2888,-162 2888,-203 3122,-203 3122,-162 2888,-162"/>
<text text-anchor="start" x="2896" y="-191" font-family="Helvetica,sans-Serif" font-size="10.00">/home/travis/build</text>
<text text-anchor="start" x="2896" y="-180" font-family="Helvetica,sans-Serif" font-size="10.00">/STORM&#45;IRIT/Radium&#45;Engine</text>
<text text-anchor="middle" x="3005" y="-169" font-family="Helvetica,sans-Serif" font-size="10.00">/Plugins/Skinning/src/SkinningComponent.cpp</text>
</a>
</g>
</g>
<!-- Node1&#45;&gt;Node19 -->
<g id="edge18" class="edge"><title>Node1&#45;&gt;Node19</title>
<path fill="none" stroke="midnightblue" d="M1726.25,-270.711C1945.62,-269.916 2455.02,-261.926 2879,-209 2891.4,-207.452 2904.41,-205.361 2917.16,-203.038"/>
<polygon fill="midnightblue" stroke="midnightblue" points="1726.01,-267.212 1716.02,-270.744 1726.03,-274.212 1726.01,-267.212"/>
</g>
<!-- Node17 -->
<g id="node17" class="node"><title>Node17</title>
<g id="a_node17"><a xlink:href="SkinningSystem_8hpp.html" target="_top" xlink:title="/home/travis/build\l/STORM&#45;IRIT/Radium&#45;Engine\l/Plugins/Skinning/src/SkinningSystem.hpp">
<polygon fill="white" stroke="black" points="2676.5,-78.5 2676.5,-119.5 2891.5,-119.5 2891.5,-78.5 2676.5,-78.5"/>
<text text-anchor="start" x="2684.5" y="-107.5" font-family="Helvetica,sans-Serif" font-size="10.00">/home/travis/build</text>
<text text-anchor="start" x="2684.5" y="-96.5" font-family="Helvetica,sans-Serif" font-size="10.00">/STORM&#45;IRIT/Radium&#45;Engine</text>
<text text-anchor="middle" x="2784" y="-85.5" font-family="Helvetica,sans-Serif" font-size="10.00">/Plugins/Skinning/src/SkinningSystem.hpp</text>
</a>
</g>
</g>
<!-- Node16&#45;&gt;Node17 -->
<g id="edge16" class="edge"><title>Node16&#45;&gt;Node17</title>
<path fill="none" stroke="midnightblue" d="M2784,-146.147C2784,-137.055 2784,-127.597 2784,-119.628"/>
<polygon fill="midnightblue" stroke="midnightblue" points="2780.5,-146.16 2784,-156.16 2787.5,-146.16 2780.5,-146.16"/>
</g>
<!-- Node18 -->
<g id="node18" class="node"><title>Node18</title>
<g id="a_node18"><a xlink:href="SkinningPlugin_8cpp.html" target="_top" xlink:title="/home/travis/build\l/STORM&#45;IRIT/Radium&#45;Engine\l/Plugins/Skinning/src/SkinningPlugin.cpp">
<polygon fill="white" stroke="black" points="2681,-0.5 2681,-41.5 2887,-41.5 2887,-0.5 2681,-0.5"/>
<text text-anchor="start" x="2689" y="-29.5" font-family="Helvetica,sans-Serif" font-size="10.00">/home/travis/build</text>
<text text-anchor="start" x="2689" y="-18.5" font-family="Helvetica,sans-Serif" font-size="10.00">/STORM&#45;IRIT/Radium&#45;Engine</text>
<text text-anchor="middle" x="2784" y="-7.5" font-family="Helvetica,sans-Serif" font-size="10.00">/Plugins/Skinning/src/SkinningPlugin.cpp</text>
</a>
</g>
</g>
<!-- Node17&#45;&gt;Node18 -->
<g id="edge17" class="edge"><title>Node17&#45;&gt;Node18</title>
<path fill="none" stroke="midnightblue" d="M2784,-68.2965C2784,-59.3009 2784,-49.6532 2784,-41.5056"/>
<polygon fill="midnightblue" stroke="midnightblue" points="2780.5,-68.4281 2784,-78.4281 2787.5,-68.4281 2780.5,-68.4281"/>
</g>
</g>
</svg>
