<?xml version="1.0" encoding="UTF-8" standalone="no"?>
<!DOCTYPE svg PUBLIC "-//W3C//DTD SVG 1.1//EN"
 "http://www.w3.org/Graphics/SVG/1.1/DTD/svg11.dtd">
<!-- Generated by graphviz version 2.38.0 (20140413.2041)
 -->
<!-- Title: /home/travis/build/STORM&#45;IRIT/Radium&#45;Engine/src/Engine/Renderer/RenderTechnique/ShaderProgramManager.hpp Pages: 1 -->
<svg width="591pt" height="285pt"
 viewBox="0.00 0.00 591.00 285.00" xmlns="http://www.w3.org/2000/svg" xmlns:xlink="http://www.w3.org/1999/xlink">
<g id="graph0" class="graph" transform="scale(1 1) rotate(0) translate(4 281)">
<title>/home/travis/build/STORM&#45;IRIT/Radium&#45;Engine/src/Engine/Renderer/RenderTechnique/ShaderProgramManager.hpp</title>
<polygon fill="white" stroke="none" points="-4,4 -4,-281 587,-281 587,4 -4,4"/>
<!-- Node1 -->
<g id="node1" class="node"><title>Node1</title>
<polygon fill="#bfbfbf" stroke="black" points="84.5,-224.5 84.5,-276.5 282.5,-276.5 282.5,-224.5 84.5,-224.5"/>
<text text-anchor="start" x="92.5" y="-264.5" font-family="Helvetica,sans-Serif" font-size="10.00">/home/travis/build</text>
<text text-anchor="start" x="92.5" y="-253.5" font-family="Helvetica,sans-Serif" font-size="10.00">/STORM&#45;IRIT/Radium&#45;Engine</text>
<text text-anchor="start" x="92.5" y="-242.5" font-family="Helvetica,sans-Serif" font-size="10.00">/src/Engine/Renderer/RenderTechnique</text>
<text text-anchor="middle" x="183.5" y="-231.5" font-family="Helvetica,sans-Serif" font-size="10.00">/ShaderProgramManager.hpp</text>
</g>
<!-- Node2 -->
<g id="node2" class="node"><title>Node2</title>
<g id="a_node2"><a xlink:href="RaEngine_8hpp.html" target="_top" xlink:title="Engine/RaEngine.hpp">
<polygon fill="white" stroke="black" points="0,-112.5 0,-131.5 117,-131.5 117,-112.5 0,-112.5"/>
<text text-anchor="middle" x="58.5" y="-119.5" font-family="Helvetica,sans-Serif" font-size="10.00">Engine/RaEngine.hpp</text>
</a>
</g>
</g>
<!-- Node1&#45;&gt;Node2 -->
<g id="edge1" class="edge"><title>Node1&#45;&gt;Node2</title>
<path fill="none" stroke="midnightblue" d="M84.1737,-232.934C59.3577,-223.84 35.5525,-209.768 20.5,-188 9.20852,-171.671 24.6891,-151.84 39.1502,-138.408"/>
<polygon fill="midnightblue" stroke="midnightblue" points="41.6527,-140.871 46.9028,-131.668 37.0598,-135.588 41.6527,-140.871"/>
</g>
<!-- Node9 -->
<g id="node9" class="node"><title>Node9</title>
<polygon fill="white" stroke="#bfbfbf" points="29.5,-168.5 29.5,-187.5 67.5,-187.5 67.5,-168.5 29.5,-168.5"/>
<text text-anchor="middle" x="48.5" y="-175.5" font-family="Helvetica,sans-Serif" font-size="10.00">map</text>
</g>
<!-- Node1&#45;&gt;Node9 -->
<g id="edge8" class="edge"><title>Node1&#45;&gt;Node9</title>
<path fill="none" stroke="midnightblue" d="M135.524,-224.446C114.678,-213.56 91.1134,-201.254 73.768,-192.196"/>
<polygon fill="midnightblue" stroke="midnightblue" points="75.3125,-189.054 64.8282,-187.527 72.0722,-195.258 75.3125,-189.054"/>
</g>
<!-- Node10 -->
<g id="node10" class="node"><title>Node10</title>
<polygon fill="white" stroke="#bfbfbf" points="86,-168.5 86,-187.5 143,-187.5 143,-168.5 86,-168.5"/>
<text text-anchor="middle" x="114.5" y="-175.5" font-family="Helvetica,sans-Serif" font-size="10.00">memory</text>
</g>
<!-- Node1&#45;&gt;Node10 -->
<g id="edge9" class="edge"><title>Node1&#45;&gt;Node10</title>
<path fill="none" stroke="midnightblue" d="M158.979,-224.446C149.37,-214.628 138.631,-203.656 130.113,-194.952"/>
<polygon fill="midnightblue" stroke="midnightblue" points="132.506,-192.394 123.01,-187.695 127.504,-197.29 132.506,-192.394"/>
</g>
<!-- Node11 -->
<g id="node11" class="node"><title>Node11</title>
<polygon fill="white" stroke="#bfbfbf" points="161.5,-168.5 161.5,-187.5 205.5,-187.5 205.5,-168.5 161.5,-168.5"/>
<text text-anchor="middle" x="183.5" y="-175.5" font-family="Helvetica,sans-Serif" font-size="10.00">string</text>
</g>
<!-- Node1&#45;&gt;Node11 -->
<g id="edge10" class="edge"><title>Node1&#45;&gt;Node11</title>
<path fill="none" stroke="midnightblue" d="M183.5,-224.446C183.5,-215.73 183.5,-206.104 183.5,-197.964"/>
<polygon fill="midnightblue" stroke="midnightblue" points="187,-197.695 183.5,-187.695 180,-197.696 187,-197.695"/>
</g>
<!-- Node12 -->
<g id="node12" class="node"><title>Node12</title>
<polygon fill="white" stroke="#bfbfbf" points="224,-168.5 224,-187.5 271,-187.5 271,-168.5 224,-168.5"/>
<text text-anchor="middle" x="247.5" y="-175.5" font-family="Helvetica,sans-Serif" font-size="10.00">vector</text>
</g>
<!-- Node1&#45;&gt;Node12 -->
<g id="edge11" class="edge"><title>Node1&#45;&gt;Node12</title>
<path fill="none" stroke="midnightblue" d="M206.244,-224.446C215.066,-214.728 224.914,-203.88 232.776,-195.22"/>
<polygon fill="midnightblue" stroke="midnightblue" points="235.476,-197.452 239.606,-187.695 230.293,-192.747 235.476,-197.452"/>
</g>
<!-- Node13 -->
<g id="node13" class="node"><title>Node13</title>
<g id="a_node13"><a xlink:href="Singleton_8hpp.html" target="_top" xlink:title="Core/Utils/Singleton.hpp">
<polygon fill="white" stroke="black" points="289.5,-168.5 289.5,-187.5 421.5,-187.5 421.5,-168.5 289.5,-168.5"/>
<text text-anchor="middle" x="355.5" y="-175.5" font-family="Helvetica,sans-Serif" font-size="10.00">Core/Utils/Singleton.hpp</text>
</a>
</g>
</g>
<!-- Node1&#45;&gt;Node13 -->
<g id="edge12" class="edge"><title>Node1&#45;&gt;Node13</title>
<path fill="none" stroke="midnightblue" d="M244.625,-224.446C272.045,-213.207 303.157,-200.455 325.43,-191.325"/>
<polygon fill="midnightblue" stroke="midnightblue" points="326.771,-194.558 334.697,-187.527 324.116,-188.081 326.771,-194.558"/>
</g>
<!-- Node15 -->
<g id="node15" class="node"><title>Node15</title>
<g id="a_node15"><a xlink:href="StdOptional_8hpp.html" target="_top" xlink:title="Core/Utils/StdOptional.hpp">
<polygon fill="white" stroke="black" points="440,-168.5 440,-187.5 583,-187.5 583,-168.5 440,-168.5"/>
<text text-anchor="middle" x="511.5" y="-175.5" font-family="Helvetica,sans-Serif" font-size="10.00">Core/Utils/StdOptional.hpp</text>
</a>
</g>
</g>
<!-- Node1&#45;&gt;Node15 -->
<g id="edge15" class="edge"><title>Node1&#45;&gt;Node15</title>
<path fill="none" stroke="midnightblue" d="M282.801,-228.156C341.999,-215.432 414.592,-199.829 461.893,-189.663"/>
<polygon fill="midnightblue" stroke="midnightblue" points="462.84,-193.039 471.881,-187.516 461.368,-186.195 462.84,-193.039"/>
</g>
<!-- Node3 -->
<g id="node3" class="node"><title>Node3</title>
<g id="a_node3"><a xlink:href="CoreMacros_8hpp.html" target="_top" xlink:title="Core/CoreMacros.hpp">
<polygon fill="white" stroke="black" points="118.5,-56.5 118.5,-75.5 238.5,-75.5 238.5,-56.5 118.5,-56.5"/>
<text text-anchor="middle" x="178.5" y="-63.5" font-family="Helvetica,sans-Serif" font-size="10.00">Core/CoreMacros.hpp</text>
</a>
</g>
</g>
<!-- Node2&#45;&gt;Node3 -->
<g id="edge2" class="edge"><title>Node2&#45;&gt;Node3</title>
<path fill="none" stroke="midnightblue" d="M77.5144,-112.444C97.0876,-103.636 127.808,-89.8116 150.229,-79.722"/>
<polygon fill="midnightblue" stroke="midnightblue" points="151.892,-82.8119 159.575,-75.5164 149.019,-76.4284 151.892,-82.8119"/>
</g>
<!-- Node4 -->
<g id="node4" class="node"><title>Node4</title>
<polygon fill="white" stroke="#bfbfbf" points="15.5,-0.5 15.5,-19.5 67.5,-19.5 67.5,-0.5 15.5,-0.5"/>
<text text-anchor="middle" x="41.5" y="-7.5" font-family="Helvetica,sans-Serif" font-size="10.00">cassert</text>
</g>
<!-- Node3&#45;&gt;Node4 -->
<g id="edge3" class="edge"><title>Node3&#45;&gt;Node4</title>
<path fill="none" stroke="midnightblue" d="M156.792,-56.4435C134.145,-47.5171 98.4279,-33.4387 72.7482,-23.3168"/>
<polygon fill="midnightblue" stroke="midnightblue" points="73.6934,-19.9273 63.1065,-19.5164 71.1264,-26.4397 73.6934,-19.9273"/>
</g>
<!-- Node5 -->
<g id="node5" class="node"><title>Node5</title>
<polygon fill="white" stroke="#bfbfbf" points="86,-0.5 86,-19.5 131,-19.5 131,-0.5 86,-0.5"/>
<text text-anchor="middle" x="108.5" y="-7.5" font-family="Helvetica,sans-Serif" font-size="10.00">cstdio</text>
</g>
<!-- Node3&#45;&gt;Node5 -->
<g id="edge4" class="edge"><title>Node3&#45;&gt;Node5</title>
<path fill="none" stroke="midnightblue" d="M167.253,-56.324C156.703,-48.1849 140.699,-35.8395 128.058,-26.0874"/>
<polygon fill="midnightblue" stroke="midnightblue" points="130.007,-23.1707 119.951,-19.8339 125.731,-28.7132 130.007,-23.1707"/>
</g>
<!-- Node6 -->
<g id="node6" class="node"><title>Node6</title>
<polygon fill="white" stroke="#bfbfbf" points="149,-0.5 149,-19.5 208,-19.5 208,-0.5 149,-0.5"/>
<text text-anchor="middle" x="178.5" y="-7.5" font-family="Helvetica,sans-Serif" font-size="10.00">iostream</text>
</g>
<!-- Node3&#45;&gt;Node6 -->
<g id="edge5" class="edge"><title>Node3&#45;&gt;Node6</title>
<path fill="none" stroke="midnightblue" d="M178.5,-56.083C178.5,-49.0059 178.5,-38.8611 178.5,-29.9865"/>
<polygon fill="midnightblue" stroke="midnightblue" points="182,-29.751 178.5,-19.7511 175,-29.7511 182,-29.751"/>
</g>
<!-- Node7 -->
<g id="node7" class="node"><title>Node7</title>
<polygon fill="white" stroke="#bfbfbf" points="226.5,-0.5 226.5,-19.5 282.5,-19.5 282.5,-0.5 226.5,-0.5"/>
<text text-anchor="middle" x="254.5" y="-7.5" font-family="Helvetica,sans-Serif" font-size="10.00">sstream</text>
</g>
<!-- Node3&#45;&gt;Node7 -->
<g id="edge6" class="edge"><title>Node3&#45;&gt;Node7</title>
<path fill="none" stroke="midnightblue" d="M190.711,-56.324C202.276,-48.1066 219.875,-35.6017 233.661,-25.8069"/>
<polygon fill="midnightblue" stroke="midnightblue" points="235.943,-28.4791 242.067,-19.8339 231.888,-22.7729 235.943,-28.4791"/>
</g>
<!-- Node8 -->
<g id="node8" class="node"><title>Node8</title>
<polygon fill="white" stroke="#bfbfbf" points="300.5,-0.5 300.5,-19.5 348.5,-19.5 348.5,-0.5 300.5,-0.5"/>
<text text-anchor="middle" x="324.5" y="-7.5" font-family="Helvetica,sans-Serif" font-size="10.00">thread</text>
</g>
<!-- Node3&#45;&gt;Node8 -->
<g id="edge7" class="edge"><title>Node3&#45;&gt;Node8</title>
<path fill="none" stroke="midnightblue" d="M201.634,-56.4435C225.982,-47.4381 264.507,-33.1891 291.923,-23.049"/>
<polygon fill="midnightblue" stroke="midnightblue" points="293.309,-26.2681 301.474,-19.5164 290.881,-19.7028 293.309,-26.2681"/>
</g>
<!-- Node14 -->
<g id="node14" class="node"><title>Node14</title>
<g id="a_node14"><a xlink:href="RaCore_8hpp.html" target="_top" xlink:title="Core/RaCore.hpp">
<polygon fill="white" stroke="black" points="249.5,-112.5 249.5,-131.5 347.5,-131.5 347.5,-112.5 249.5,-112.5"/>
<text text-anchor="middle" x="298.5" y="-119.5" font-family="Helvetica,sans-Serif" font-size="10.00">Core/RaCore.hpp</text>
</a>
</g>
</g>
<!-- Node13&#45;&gt;Node14 -->
<g id="edge13" class="edge"><title>Node13&#45;&gt;Node14</title>
<path fill="none" stroke="midnightblue" d="M346.342,-168.324C337.999,-160.42 325.468,-148.548 315.323,-138.938"/>
<polygon fill="midnightblue" stroke="midnightblue" points="317.491,-136.171 307.825,-131.834 312.677,-141.252 317.491,-136.171"/>
</g>
<!-- Node14&#45;&gt;Node3 -->
<g id="edge14" class="edge"><title>Node14&#45;&gt;Node3</title>
<path fill="none" stroke="midnightblue" d="M279.486,-112.444C259.912,-103.636 229.192,-89.8116 206.771,-79.722"/>
<polygon fill="midnightblue" stroke="midnightblue" points="207.981,-76.4284 197.425,-75.5164 205.108,-82.8119 207.981,-76.4284"/>
</g>
</g>
</svg>
