<?xml version="1.0" encoding="UTF-8" standalone="no"?>
<!DOCTYPE svg PUBLIC "-//W3C//DTD SVG 1.1//EN"
 "http://www.w3.org/Graphics/SVG/1.1/DTD/svg11.dtd">
<!-- Generated by graphviz version 2.38.0 (20140413.2041)
 -->
<!-- Title: /home/travis/build/STORM&#45;IRIT/Radium&#45;Engine/src/Engine/Renderer/RenderTechnique/ShaderProgramManager.cpp Pages: 1 -->
<svg width="1744pt" height="374pt"
 viewBox="0.00 0.00 1743.50 374.00" xmlns="http://www.w3.org/2000/svg" xmlns:xlink="http://www.w3.org/1999/xlink">
<g id="graph0" class="graph" transform="scale(1 1) rotate(0) translate(4 370)">
<title>/home/travis/build/STORM&#45;IRIT/Radium&#45;Engine/src/Engine/Renderer/RenderTechnique/ShaderProgramManager.cpp</title>
<polygon fill="white" stroke="none" points="-4,4 -4,-370 1739.5,-370 1739.5,4 -4,4"/>
<!-- Node1 -->
<g id="node1" class="node"><title>Node1</title>
<polygon fill="#bfbfbf" stroke="black" points="1136,-313.5 1136,-365.5 1334,-365.5 1334,-313.5 1136,-313.5"/>
<text text-anchor="start" x="1144" y="-353.5" font-family="Helvetica,sans-Serif" font-size="10.00">/home/travis/build</text>
<text text-anchor="start" x="1144" y="-342.5" font-family="Helvetica,sans-Serif" font-size="10.00">/STORM&#45;IRIT/Radium&#45;Engine</text>
<text text-anchor="start" x="1144" y="-331.5" font-family="Helvetica,sans-Serif" font-size="10.00">/src/Engine/Renderer/RenderTechnique</text>
<text text-anchor="middle" x="1235" y="-320.5" font-family="Helvetica,sans-Serif" font-size="10.00">/ShaderProgramManager.cpp</text>
</g>
<!-- Node2 -->
<g id="node2" class="node"><title>Node2</title>
<g id="a_node2"><a xlink:href="ShaderProgram_8hpp.html" target="_top" xlink:title="Engine/Renderer/RenderTechnique\l/ShaderProgram.hpp">
<polygon fill="white" stroke="black" points="570,-246.5 570,-276.5 748,-276.5 748,-246.5 570,-246.5"/>
<text text-anchor="start" x="578" y="-264.5" font-family="Helvetica,sans-Serif" font-size="10.00">Engine/Renderer/RenderTechnique</text>
<text text-anchor="middle" x="659" y="-253.5" font-family="Helvetica,sans-Serif" font-size="10.00">/ShaderProgram.hpp</text>
</a>
</g>
</g>
<!-- Node1&#45;&gt;Node2 -->
<g id="edge1" class="edge"><title>Node1&#45;&gt;Node2</title>
<path fill="none" stroke="midnightblue" d="M1135.98,-325.435C1030.35,-311.497 863.987,-289.547 758.261,-275.597"/>
<polygon fill="midnightblue" stroke="midnightblue" points="758.595,-272.111 748.223,-274.272 757.679,-279.051 758.595,-272.111"/>
</g>
<!-- Node26 -->
<g id="node26" class="node"><title>Node26</title>
<g id="a_node26"><a xlink:href="ShaderProgramManager_8hpp.html" target="_top" xlink:title="Engine/Renderer/RenderTechnique\l/ShaderProgramManager.hpp">
<polygon fill="white" stroke="black" points="981,-246.5 981,-276.5 1159,-276.5 1159,-246.5 981,-246.5"/>
<text text-anchor="start" x="989" y="-264.5" font-family="Helvetica,sans-Serif" font-size="10.00">Engine/Renderer/RenderTechnique</text>
<text text-anchor="middle" x="1070" y="-253.5" font-family="Helvetica,sans-Serif" font-size="10.00">/ShaderProgramManager.hpp</text>
</a>
</g>
</g>
<!-- Node1&#45;&gt;Node26 -->
<g id="edge29" class="edge"><title>Node1&#45;&gt;Node26</title>
<path fill="none" stroke="midnightblue" d="M1180.52,-313.404C1157.56,-302.831 1131.32,-290.745 1110.17,-281.004"/>
<polygon fill="midnightblue" stroke="midnightblue" points="1111.39,-277.711 1100.84,-276.707 1108.46,-284.069 1111.39,-277.711"/>
</g>
<!-- Node30 -->
<g id="node30" class="node"><title>Node30</title>
<g id="a_node30"><a xlink:href="MakeShared_8hpp.html" target="_top" xlink:title="Core/Containers/MakeShared.hpp">
<polygon fill="white" stroke="black" points="785,-252 785,-271 963,-271 963,-252 785,-252"/>
<text text-anchor="middle" x="874" y="-259" font-family="Helvetica,sans-Serif" font-size="10.00">Core/Containers/MakeShared.hpp</text>
</a>
</g>
</g>
<!-- Node1&#45;&gt;Node30 -->
<g id="edge38" class="edge"><title>Node1&#45;&gt;Node30</title>
<path fill="none" stroke="midnightblue" d="M1135.88,-317.632C1067.44,-303.224 979.265,-284.661 924.694,-273.173"/>
<polygon fill="midnightblue" stroke="midnightblue" points="925.083,-269.678 914.576,-271.042 923.641,-276.528 925.083,-269.678"/>
</g>
<!-- Node31 -->
<g id="node31" class="node"><title>Node31</title>
<g id="a_node31"><a xlink:href="Log_8hpp.html" target="_top" xlink:title="Core/Utils/Log.hpp">
<polygon fill="white" stroke="black" points="1382,-185 1382,-204 1486,-204 1486,-185 1382,-185"/>
<text text-anchor="middle" x="1434" y="-192" font-family="Helvetica,sans-Serif" font-size="10.00">Core/Utils/Log.hpp</text>
</a>
</g>
</g>
<!-- Node1&#45;&gt;Node31 -->
<g id="edge40" class="edge"><title>Node1&#45;&gt;Node31</title>
<path fill="none" stroke="midnightblue" d="M1215.52,-313.354C1202.5,-293.276 1190.36,-265.389 1206,-246 1253.39,-187.233 1298.35,-226.596 1372,-210 1377.13,-208.845 1382.49,-207.619 1387.82,-206.388"/>
<polygon fill="midnightblue" stroke="midnightblue" points="1389.01,-209.704 1397.96,-204.033 1387.43,-202.885 1389.01,-209.704"/>
</g>
<!-- Node34 -->
<g id="node34" class="node"><title>Node34</title>
<polygon fill="white" stroke="#bfbfbf" points="1215.5,-252 1215.5,-271 1350.5,-271 1350.5,-252 1215.5,-252"/>
<text text-anchor="middle" x="1283" y="-259" font-family="Helvetica,sans-Serif" font-size="10.00">globjects/NamedString.h</text>
</g>
<!-- Node1&#45;&gt;Node34 -->
<g id="edge46" class="edge"><title>Node1&#45;&gt;Node34</title>
<path fill="none" stroke="midnightblue" d="M1250.98,-313.193C1257.93,-302.198 1265.88,-289.602 1272.13,-279.716"/>
<polygon fill="midnightblue" stroke="midnightblue" points="1275.12,-281.533 1277.5,-271.209 1269.2,-277.795 1275.12,-281.533"/>
</g>
<!-- Node35 -->
<g id="node35" class="node"><title>Node35</title>
<polygon fill="white" stroke="#bfbfbf" points="1368.5,-252 1368.5,-271 1481.5,-271 1481.5,-252 1368.5,-252"/>
<text text-anchor="middle" x="1425" y="-259" font-family="Helvetica,sans-Serif" font-size="10.00">globjects/Program.h</text>
</g>
<!-- Node1&#45;&gt;Node35 -->
<g id="edge47" class="edge"><title>Node1&#45;&gt;Node35</title>
<path fill="none" stroke="midnightblue" d="M1297.74,-313.404C1330.14,-300.446 1368.21,-285.215 1394.22,-274.813"/>
<polygon fill="midnightblue" stroke="midnightblue" points="1395.57,-278.042 1403.56,-271.078 1392.97,-271.542 1395.57,-278.042"/>
</g>
<!-- Node36 -->
<g id="node36" class="node"><title>Node36</title>
<polygon fill="white" stroke="#bfbfbf" points="1499.5,-252 1499.5,-271 1604.5,-271 1604.5,-252 1499.5,-252"/>
<text text-anchor="middle" x="1552" y="-259" font-family="Helvetica,sans-Serif" font-size="10.00">globjects/Shader.h</text>
</g>
<!-- Node1&#45;&gt;Node36 -->
<g id="edge48" class="edge"><title>Node1&#45;&gt;Node36</title>
<path fill="none" stroke="midnightblue" d="M1334.43,-314.662C1392.04,-300.85 1461.8,-284.125 1506.53,-273.401"/>
<polygon fill="midnightblue" stroke="midnightblue" points="1507.6,-276.744 1516.51,-271.009 1505.97,-269.937 1507.6,-276.744"/>
</g>
<!-- Node37 -->
<g id="node37" class="node"><title>Node37</title>
<polygon fill="white" stroke="#bfbfbf" points="1622.5,-252 1622.5,-271 1735.5,-271 1735.5,-252 1622.5,-252"/>
<text text-anchor="middle" x="1679" y="-259" font-family="Helvetica,sans-Serif" font-size="10.00">globjects/base/File.h</text>
</g>
<!-- Node1&#45;&gt;Node37 -->
<g id="edge49" class="edge"><title>Node1&#45;&gt;Node37</title>
<path fill="none" stroke="midnightblue" d="M1334.23,-324.025C1410.85,-312.455 1519.41,-295.208 1614,-277 1620.11,-275.824 1626.52,-274.502 1632.84,-273.146"/>
<polygon fill="midnightblue" stroke="midnightblue" points="1633.62,-276.56 1642.64,-271.006 1632.12,-269.721 1633.62,-276.56"/>
</g>
<!-- Node3 -->
<g id="node3" class="node"><title>Node3</title>
<g id="a_node3"><a xlink:href="RaEngine_8hpp.html" target="_top" xlink:title="Engine/RaEngine.hpp">
<polygon fill="white" stroke="black" points="564.5,-118 564.5,-137 681.5,-137 681.5,-118 564.5,-118"/>
<text text-anchor="middle" x="623" y="-125" font-family="Helvetica,sans-Serif" font-size="10.00">Engine/RaEngine.hpp</text>
</a>
</g>
</g>
<!-- Node2&#45;&gt;Node3 -->
<g id="edge2" class="edge"><title>Node2&#45;&gt;Node3</title>
<path fill="none" stroke="midnightblue" d="M655.147,-246.374C648.608,-222.397 635.34,-173.748 628.061,-147.056"/>
<polygon fill="midnightblue" stroke="midnightblue" points="631.353,-145.824 625.345,-137.097 624.599,-147.666 631.353,-145.824"/>
</g>
<!-- Node10 -->
<g id="node10" class="node"><title>Node10</title>
<g id="a_node10"><a xlink:href="Types_8hpp.html" target="_top" xlink:title="Core/Types.hpp">
<polygon fill="white" stroke="black" points="754.5,-185 754.5,-204 843.5,-204 843.5,-185 754.5,-185"/>
<text text-anchor="middle" x="799" y="-192" font-family="Helvetica,sans-Serif" font-size="10.00">Core/Types.hpp</text>
</a>
</g>
</g>
<!-- Node2&#45;&gt;Node10 -->
<g id="edge9" class="edge"><title>Node2&#45;&gt;Node10</title>
<path fill="none" stroke="midnightblue" d="M689.378,-246.396C713.834,-235.041 747.911,-219.22 771.552,-208.244"/>
<polygon fill="midnightblue" stroke="midnightblue" points="773.081,-211.393 780.677,-204.007 770.133,-205.044 773.081,-211.393"/>
</g>
<!-- Node15 -->
<g id="node15" class="node"><title>Node15</title>
<g id="a_node15"><a xlink:href="OpenGL_8hpp.html" target="_top" xlink:title="Engine/Renderer/OpenGL\l/OpenGL.hpp">
<polygon fill="white" stroke="black" points="193,-179.5 193,-209.5 329,-209.5 329,-179.5 193,-179.5"/>
<text text-anchor="start" x="201" y="-197.5" font-family="Helvetica,sans-Serif" font-size="10.00">Engine/Renderer/OpenGL</text>
<text text-anchor="middle" x="261" y="-186.5" font-family="Helvetica,sans-Serif" font-size="10.00">/OpenGL.hpp</text>
</a>
</g>
</g>
<!-- Node2&#45;&gt;Node15 -->
<g id="edge15" class="edge"><title>Node2&#45;&gt;Node15</title>
<path fill="none" stroke="midnightblue" d="M573.13,-246.476C503.684,-235.134 406.712,-219.297 339.357,-208.297"/>
<polygon fill="midnightblue" stroke="midnightblue" points="339.66,-204.8 329.226,-206.643 338.531,-211.709 339.66,-204.8"/>
</g>
<!-- Node19 -->
<g id="node19" class="node"><title>Node19</title>
<g id="a_node19"><a xlink:href="ShaderConfiguration_8hpp.html" target="_top" xlink:title="Engine/Renderer/RenderTechnique\l/ShaderConfiguration.hpp">
<polygon fill="white" stroke="black" points="444,-179.5 444,-209.5 622,-209.5 622,-179.5 444,-179.5"/>
<text text-anchor="start" x="452" y="-197.5" font-family="Helvetica,sans-Serif" font-size="10.00">Engine/Renderer/RenderTechnique</text>
<text text-anchor="middle" x="533" y="-186.5" font-family="Helvetica,sans-Serif" font-size="10.00">/ShaderConfiguration.hpp</text>
</a>
</g>
</g>
<!-- Node2&#45;&gt;Node19 -->
<g id="edge19" class="edge"><title>Node2&#45;&gt;Node19</title>
<path fill="none" stroke="midnightblue" d="M631.66,-246.396C613.415,-236.984 589.22,-224.503 569.357,-214.256"/>
<polygon fill="midnightblue" stroke="midnightblue" points="570.779,-211.051 560.287,-209.577 567.569,-217.272 570.779,-211.051"/>
</g>
<!-- Node20 -->
<g id="node20" class="node"><title>Node20</title>
<polygon fill="white" stroke="#bfbfbf" points="406.5,-118 406.5,-137 447.5,-137 447.5,-118 406.5,-118"/>
<text text-anchor="middle" x="427" y="-125" font-family="Helvetica,sans-Serif" font-size="10.00">array</text>
</g>
<!-- Node2&#45;&gt;Node20 -->
<g id="edge26" class="edge"><title>Node2&#45;&gt;Node20</title>
<path fill="none" stroke="midnightblue" d="M569.914,-251.092C515.499,-243.396 453.011,-230.393 435,-210 420.036,-193.057 420.574,-165.721 423.13,-147.438"/>
<polygon fill="midnightblue" stroke="midnightblue" points="426.611,-147.848 424.862,-137.398 419.713,-146.658 426.611,-147.848"/>
</g>
<!-- Node23 -->
<g id="node23" class="node"><title>Node23</title>
<polygon fill="white" stroke="#bfbfbf" points="1061,-118 1061,-137 1105,-137 1105,-118 1061,-118"/>
<text text-anchor="middle" x="1083" y="-125" font-family="Helvetica,sans-Serif" font-size="10.00">string</text>
</g>
<!-- Node2&#45;&gt;Node23 -->
<g id="edge28" class="edge"><title>Node2&#45;&gt;Node23</title>
<path fill="none" stroke="midnightblue" d="M742.951,-246.481C777.867,-238.656 818.081,-226.965 852,-210 871.803,-200.095 871.022,-188.547 891,-179 957.157,-147.385 982.604,-166.673 1052,-143 1053.66,-142.433 1055.35,-141.803 1057.05,-141.134"/>
<polygon fill="midnightblue" stroke="midnightblue" points="1058.77,-144.203 1066.54,-137.008 1055.98,-137.783 1058.77,-144.203"/>
</g>
<!-- Node25 -->
<g id="node25" class="node"><title>Node25</title>
<polygon fill="white" stroke="#bfbfbf" points="900.5,-185 900.5,-204 957.5,-204 957.5,-185 900.5,-185"/>
<text text-anchor="middle" x="929" y="-192" font-family="Helvetica,sans-Serif" font-size="10.00">memory</text>
</g>
<!-- Node2&#45;&gt;Node25 -->
<g id="edge27" class="edge"><title>Node2&#45;&gt;Node25</title>
<path fill="none" stroke="midnightblue" d="M731.306,-246.461C776.142,-237.251 834.765,-224.294 886,-210 889.014,-209.159 892.128,-208.23 895.238,-207.261"/>
<polygon fill="midnightblue" stroke="midnightblue" points="896.601,-210.498 905.033,-204.084 894.441,-203.84 896.601,-210.498"/>
</g>
<!-- Node4 -->
<g id="node4" class="node"><title>Node4</title>
<g id="a_node4"><a xlink:href="CoreMacros_8hpp.html" target="_top" xlink:title="Core/CoreMacros.hpp">
<polygon fill="white" stroke="black" points="1112,-56.5 1112,-75.5 1232,-75.5 1232,-56.5 1112,-56.5"/>
<text text-anchor="middle" x="1172" y="-63.5" font-family="Helvetica,sans-Serif" font-size="10.00">Core/CoreMacros.hpp</text>
</a>
</g>
</g>
<!-- Node3&#45;&gt;Node4 -->
<g id="edge3" class="edge"><title>Node3&#45;&gt;Node4</title>
<path fill="none" stroke="midnightblue" d="M658.666,-117.95C668.751,-115.76 679.767,-113.579 690,-112 835.509,-89.5452 1007.58,-76.7499 1101.72,-70.9091"/>
<polygon fill="midnightblue" stroke="midnightblue" points="1102.21,-74.3859 1111.98,-70.2814 1101.78,-67.399 1102.21,-74.3859"/>
</g>
<!-- Node5 -->
<g id="node5" class="node"><title>Node5</title>
<polygon fill="white" stroke="#bfbfbf" points="1268,-0.5 1268,-19.5 1320,-19.5 1320,-0.5 1268,-0.5"/>
<text text-anchor="middle" x="1294" y="-7.5" font-family="Helvetica,sans-Serif" font-size="10.00">cassert</text>
</g>
<!-- Node4&#45;&gt;Node5 -->
<g id="edge4" class="edge"><title>Node4&#45;&gt;Node5</title>
<path fill="none" stroke="midnightblue" d="M1191.33,-56.4435C1211.32,-47.5961 1242.74,-33.6875 1265.56,-23.5865"/>
<polygon fill="midnightblue" stroke="midnightblue" points="1267.03,-26.7645 1274.76,-19.5164 1264.2,-20.3635 1267.03,-26.7645"/>
</g>
<!-- Node6 -->
<g id="node6" class="node"><title>Node6</title>
<polygon fill="white" stroke="#bfbfbf" points="1061.5,-0.5 1061.5,-19.5 1106.5,-19.5 1106.5,-0.5 1061.5,-0.5"/>
<text text-anchor="middle" x="1084" y="-7.5" font-family="Helvetica,sans-Serif" font-size="10.00">cstdio</text>
</g>
<!-- Node4&#45;&gt;Node6 -->
<g id="edge5" class="edge"><title>Node4&#45;&gt;Node6</title>
<path fill="none" stroke="midnightblue" d="M1157.86,-56.324C1144.13,-47.9002 1123.06,-34.9709 1106.94,-25.0741"/>
<polygon fill="midnightblue" stroke="midnightblue" points="1108.46,-21.9016 1098.1,-19.6545 1104.8,-27.8678 1108.46,-21.9016"/>
</g>
<!-- Node7 -->
<g id="node7" class="node"><title>Node7</title>
<polygon fill="white" stroke="#bfbfbf" points="1124.5,-0.5 1124.5,-19.5 1183.5,-19.5 1183.5,-0.5 1124.5,-0.5"/>
<text text-anchor="middle" x="1154" y="-7.5" font-family="Helvetica,sans-Serif" font-size="10.00">iostream</text>
</g>
<!-- Node4&#45;&gt;Node7 -->
<g id="edge6" class="edge"><title>Node4&#45;&gt;Node7</title>
<path fill="none" stroke="midnightblue" d="M1169.03,-56.083C1166.62,-48.8486 1163.14,-38.4087 1160.13,-29.3968"/>
<polygon fill="midnightblue" stroke="midnightblue" points="1163.4,-28.1311 1156.92,-19.7511 1156.76,-30.3447 1163.4,-28.1311"/>
</g>
<!-- Node8 -->
<g id="node8" class="node"><title>Node8</title>
<polygon fill="white" stroke="#bfbfbf" points="1350,-0.5 1350,-19.5 1406,-19.5 1406,-0.5 1350,-0.5"/>
<text text-anchor="middle" x="1378" y="-7.5" font-family="Helvetica,sans-Serif" font-size="10.00">sstream</text>
</g>
<!-- Node4&#45;&gt;Node8 -->
<g id="edge7" class="edge"><title>Node4&#45;&gt;Node8</title>
<path fill="none" stroke="midnightblue" d="M1204.64,-56.4435C1241.4,-46.8067 1301.07,-31.1653 1339.93,-20.98"/>
<polygon fill="midnightblue" stroke="midnightblue" points="1341.03,-24.3098 1349.81,-18.3884 1339.25,-17.5386 1341.03,-24.3098"/>
</g>
<!-- Node9 -->
<g id="node9" class="node"><title>Node9</title>
<polygon fill="white" stroke="#bfbfbf" points="1202,-0.5 1202,-19.5 1250,-19.5 1250,-0.5 1202,-0.5"/>
<text text-anchor="middle" x="1226" y="-7.5" font-family="Helvetica,sans-Serif" font-size="10.00">thread</text>
</g>
<!-- Node4&#45;&gt;Node9 -->
<g id="edge8" class="edge"><title>Node4&#45;&gt;Node9</title>
<path fill="none" stroke="midnightblue" d="M1180.92,-56.083C1188.78,-48.2195 1200.43,-36.5688 1209.92,-27.0813"/>
<polygon fill="midnightblue" stroke="midnightblue" points="1212.65,-29.2971 1217.25,-19.7511 1207.7,-24.3473 1212.65,-29.2971"/>
</g>
<!-- Node11 -->
<g id="node11" class="node"><title>Node11</title>
<g id="a_node11"><a xlink:href="RaCore_8hpp.html" target="_top" xlink:title="Core/RaCore.hpp">
<polygon fill="white" stroke="black" points="1123,-118 1123,-137 1221,-137 1221,-118 1123,-118"/>
<text text-anchor="middle" x="1172" y="-125" font-family="Helvetica,sans-Serif" font-size="10.00">Core/RaCore.hpp</text>
</a>
</g>
</g>
<!-- Node10&#45;&gt;Node11 -->
<g id="edge10" class="edge"><title>Node10&#45;&gt;Node11</title>
<path fill="none" stroke="midnightblue" d="M843.812,-186.42C927.625,-173.164 1100.88,-145.687 1114,-143 1119.14,-141.947 1124.52,-140.744 1129.83,-139.491"/>
<polygon fill="midnightblue" stroke="midnightblue" points="1131.01,-142.808 1139.9,-137.048 1129.36,-136.005 1131.01,-142.808"/>
</g>
<!-- Node12 -->
<g id="node12" class="node"><title>Node12</title>
<polygon fill="white" stroke="#bfbfbf" points="765,-118 765,-137 833,-137 833,-118 765,-118"/>
<text text-anchor="middle" x="799" y="-125" font-family="Helvetica,sans-Serif" font-size="10.00">Eigen/Core</text>
</g>
<!-- Node10&#45;&gt;Node12 -->
<g id="edge12" class="edge"><title>Node10&#45;&gt;Node12</title>
<path fill="none" stroke="midnightblue" d="M799,-184.734C799,-175.183 799,-159.618 799,-147.283"/>
<polygon fill="midnightblue" stroke="midnightblue" points="802.5,-147.127 799,-137.127 795.5,-147.127 802.5,-147.127"/>
</g>
<!-- Node13 -->
<g id="node13" class="node"><title>Node13</title>
<polygon fill="white" stroke="#bfbfbf" points="851,-118 851,-137 945,-137 945,-118 851,-118"/>
<text text-anchor="middle" x="898" y="-125" font-family="Helvetica,sans-Serif" font-size="10.00">Eigen/Geometry</text>
</g>
<!-- Node10&#45;&gt;Node13 -->
<g id="edge13" class="edge"><title>Node10&#45;&gt;Node13</title>
<path fill="none" stroke="midnightblue" d="M812.352,-184.734C828.754,-173.964 856.801,-155.55 876.312,-142.739"/>
<polygon fill="midnightblue" stroke="midnightblue" points="878.422,-145.542 884.86,-137.127 874.58,-139.69 878.422,-145.542"/>
</g>
<!-- Node14 -->
<g id="node14" class="node"><title>Node14</title>
<polygon fill="white" stroke="#bfbfbf" points="963,-118 963,-137 1043,-137 1043,-118 963,-118"/>
<text text-anchor="middle" x="1003" y="-125" font-family="Helvetica,sans-Serif" font-size="10.00">Eigen/Sparse</text>
</g>
<!-- Node10&#45;&gt;Node14 -->
<g id="edge14" class="edge"><title>Node10&#45;&gt;Node14</title>
<path fill="none" stroke="midnightblue" d="M826.09,-184.869C862.159,-173.376 926.082,-153.008 966.41,-140.159"/>
<polygon fill="midnightblue" stroke="midnightblue" points="967.658,-143.434 976.123,-137.064 965.533,-136.765 967.658,-143.434"/>
</g>
<!-- Node11&#45;&gt;Node4 -->
<g id="edge11" class="edge"><title>Node11&#45;&gt;Node4</title>
<path fill="none" stroke="midnightblue" d="M1172,-117.975C1172,-109.58 1172,-96.4806 1172,-85.6631"/>
<polygon fill="midnightblue" stroke="midnightblue" points="1175.5,-85.5091 1172,-75.5091 1168.5,-85.5091 1175.5,-85.5091"/>
</g>
<!-- Node16 -->
<g id="node16" class="node"><title>Node16</title>
<polygon fill="white" stroke="#bfbfbf" points="0,-118 0,-137 124,-137 124,-118 0,-118"/>
<text text-anchor="middle" x="62" y="-125" font-family="Helvetica,sans-Serif" font-size="10.00">glbinding/gl45core/gl.h</text>
</g>
<!-- Node15&#45;&gt;Node16 -->
<g id="edge16" class="edge"><title>Node15&#45;&gt;Node16</title>
<path fill="none" stroke="midnightblue" d="M217.82,-179.396C181.976,-167.688 131.593,-151.231 97.9227,-140.234"/>
<polygon fill="midnightblue" stroke="midnightblue" points="98.637,-136.785 88.0445,-137.007 96.4635,-143.439 98.637,-136.785"/>
</g>
<!-- Node17 -->
<g id="node17" class="node"><title>Node17</title>
<polygon fill="white" stroke="#bfbfbf" points="142,-118 142,-137 260,-137 260,-118 142,-118"/>
<text text-anchor="middle" x="201" y="-125" font-family="Helvetica,sans-Serif" font-size="10.00">glbinding/gl45ext/gl.h</text>
</g>
<!-- Node15&#45;&gt;Node17 -->
<g id="edge17" class="edge"><title>Node15&#45;&gt;Node17</title>
<path fill="none" stroke="midnightblue" d="M247.981,-179.396C238.533,-169.161 225.735,-155.296 215.882,-144.622"/>
<polygon fill="midnightblue" stroke="midnightblue" points="218.38,-142.169 209.026,-137.195 213.237,-146.917 218.38,-142.169"/>
</g>
<!-- Node18 -->
<g id="node18" class="node"><title>Node18</title>
<polygon fill="white" stroke="#bfbfbf" points="278,-112.5 278,-142.5 388,-142.5 388,-112.5 278,-112.5"/>
<text text-anchor="start" x="286" y="-130.5" font-family="Helvetica,sans-Serif" font-size="10.00">glbinding&#45;aux/types</text>
<text text-anchor="middle" x="333" y="-119.5" font-family="Helvetica,sans-Serif" font-size="10.00">_to_string.h</text>
</g>
<!-- Node15&#45;&gt;Node18 -->
<g id="edge18" class="edge"><title>Node15&#45;&gt;Node18</title>
<path fill="none" stroke="midnightblue" d="M276.623,-179.396C286.341,-170.623 299.013,-159.183 309.881,-149.371"/>
<polygon fill="midnightblue" stroke="midnightblue" points="312.33,-151.876 317.408,-142.577 307.639,-146.68 312.33,-151.876"/>
</g>
<!-- Node19&#45;&gt;Node3 -->
<g id="edge20" class="edge"><title>Node19&#45;&gt;Node3</title>
<path fill="none" stroke="midnightblue" d="M552.529,-179.396C567.482,-168.597 588.03,-153.756 603.079,-142.887"/>
<polygon fill="midnightblue" stroke="midnightblue" points="605.163,-145.699 611.221,-137.007 601.065,-140.025 605.163,-145.699"/>
</g>
<!-- Node19&#45;&gt;Node20 -->
<g id="edge21" class="edge"><title>Node19&#45;&gt;Node20</title>
<path fill="none" stroke="midnightblue" d="M510,-179.396C492.059,-168.395 467.28,-153.2 449.475,-142.282"/>
<polygon fill="midnightblue" stroke="midnightblue" points="451.227,-139.251 440.873,-137.007 447.568,-145.218 451.227,-139.251"/>
</g>
<!-- Node21 -->
<g id="node21" class="node"><title>Node21</title>
<polygon fill="white" stroke="#bfbfbf" points="516,-118 516,-137 546,-137 546,-118 516,-118"/>
<text text-anchor="middle" x="531" y="-125" font-family="Helvetica,sans-Serif" font-size="10.00">list</text>
</g>
<!-- Node19&#45;&gt;Node21 -->
<g id="edge22" class="edge"><title>Node19&#45;&gt;Node21</title>
<path fill="none" stroke="midnightblue" d="M532.566,-179.396C532.279,-170.064 531.899,-157.714 531.585,-147.517"/>
<polygon fill="midnightblue" stroke="midnightblue" points="535.074,-147.082 531.268,-137.195 528.077,-147.297 535.074,-147.082"/>
</g>
<!-- Node22 -->
<g id="node22" class="node"><title>Node22</title>
<polygon fill="white" stroke="#bfbfbf" points="466,-118 466,-137 498,-137 498,-118 466,-118"/>
<text text-anchor="middle" x="482" y="-125" font-family="Helvetica,sans-Serif" font-size="10.00">set</text>
</g>
<!-- Node19&#45;&gt;Node22 -->
<g id="edge23" class="edge"><title>Node19&#45;&gt;Node22</title>
<path fill="none" stroke="midnightblue" d="M521.934,-179.396C514.06,-169.361 503.45,-155.838 495.145,-145.253"/>
<polygon fill="midnightblue" stroke="midnightblue" points="497.748,-142.901 488.822,-137.195 492.241,-147.222 497.748,-142.901"/>
</g>
<!-- Node19&#45;&gt;Node23 -->
<g id="edge24" class="edge"><title>Node19&#45;&gt;Node23</title>
<path fill="none" stroke="midnightblue" d="M622.137,-186.486C759.586,-175.419 1011.7,-154.035 1052,-143 1053.93,-142.47 1055.9,-141.828 1057.85,-141.113"/>
<polygon fill="midnightblue" stroke="midnightblue" points="1059.47,-144.228 1067.31,-137.102 1056.73,-137.784 1059.47,-144.228"/>
</g>
<!-- Node24 -->
<g id="node24" class="node"><title>Node24</title>
<polygon fill="white" stroke="#bfbfbf" points="699.5,-118 699.5,-137 746.5,-137 746.5,-118 699.5,-118"/>
<text text-anchor="middle" x="723" y="-125" font-family="Helvetica,sans-Serif" font-size="10.00">vector</text>
</g>
<!-- Node19&#45;&gt;Node24 -->
<g id="edge25" class="edge"><title>Node19&#45;&gt;Node24</title>
<path fill="none" stroke="midnightblue" d="M581.194,-179.403C612.485,-169.906 653.994,-156.66 690,-143 691.609,-142.39 693.253,-141.743 694.906,-141.075"/>
<polygon fill="midnightblue" stroke="midnightblue" points="696.436,-144.229 704.291,-137.119 693.717,-137.778 696.436,-144.229"/>
</g>
<!-- Node26&#45;&gt;Node3 -->
<g id="edge30" class="edge"><title>Node26&#45;&gt;Node3</title>
<path fill="none" stroke="midnightblue" d="M980.804,-247.292C977.834,-246.856 974.893,-246.424 972,-246 861.8,-229.849 826.077,-254.555 724,-210 688.766,-194.621 655.632,-163.538 637.451,-144.516"/>
<polygon fill="midnightblue" stroke="midnightblue" points="639.992,-142.109 630.612,-137.183 634.873,-146.883 639.992,-142.109"/>
</g>
<!-- Node26&#45;&gt;Node23 -->
<g id="edge33" class="edge"><title>Node26&#45;&gt;Node23</title>
<path fill="none" stroke="midnightblue" d="M1041.52,-246.347C1027.79,-237.862 1012.66,-225.659 1005,-210 998.943,-197.625 998.417,-191.104 1005,-179 1010.78,-168.37 1036.57,-152.855 1056.94,-141.832"/>
<polygon fill="midnightblue" stroke="midnightblue" points="1058.63,-144.897 1065.82,-137.117 1055.35,-138.714 1058.63,-144.897"/>
</g>
<!-- Node26&#45;&gt;Node24 -->
<g id="edge34" class="edge"><title>Node26&#45;&gt;Node24</title>
<path fill="none" stroke="midnightblue" d="M980.702,-247.218C885.26,-232.936 747.223,-211.992 745,-210 727.382,-194.213 723.235,-165.933 722.575,-147.19"/>
<polygon fill="midnightblue" stroke="midnightblue" points="726.075,-147.167 722.52,-137.187 719.075,-147.206 726.075,-147.167"/>
</g>
<!-- Node26&#45;&gt;Node25 -->
<g id="edge32" class="edge"><title>Node26&#45;&gt;Node25</title>
<path fill="none" stroke="midnightblue" d="M1039.41,-246.396C1014.77,-235.041 980.454,-219.22 956.644,-208.244"/>
<polygon fill="midnightblue" stroke="midnightblue" points="958,-205.015 947.454,-204.007 955.07,-211.372 958,-205.015"/>
</g>
<!-- Node27 -->
<g id="node27" class="node"><title>Node27</title>
<polygon fill="white" stroke="#bfbfbf" points="1164,-185 1164,-204 1202,-204 1202,-185 1164,-185"/>
<text text-anchor="middle" x="1183" y="-192" font-family="Helvetica,sans-Serif" font-size="10.00">map</text>
</g>
<!-- Node26&#45;&gt;Node27 -->
<g id="edge31" class="edge"><title>Node26&#45;&gt;Node27</title>
<path fill="none" stroke="midnightblue" d="M1094.52,-246.396C1113.73,-235.344 1140.3,-220.061 1159.3,-209.132"/>
<polygon fill="midnightblue" stroke="midnightblue" points="1161.29,-212.027 1168.21,-204.007 1157.8,-205.959 1161.29,-212.027"/>
</g>
<!-- Node28 -->
<g id="node28" class="node"><title>Node28</title>
<g id="a_node28"><a xlink:href="Singleton_8hpp.html" target="_top" xlink:title="Core/Utils/Singleton.hpp">
<polygon fill="white" stroke="black" points="1014,-185 1014,-204 1146,-204 1146,-185 1014,-185"/>
<text text-anchor="middle" x="1080" y="-192" font-family="Helvetica,sans-Serif" font-size="10.00">Core/Utils/Singleton.hpp</text>
</a>
</g>
</g>
<!-- Node26&#45;&gt;Node28 -->
<g id="edge35" class="edge"><title>Node26&#45;&gt;Node28</title>
<path fill="none" stroke="midnightblue" d="M1072.17,-246.396C1073.62,-236.963 1075.55,-224.448 1077.12,-214.189"/>
<polygon fill="midnightblue" stroke="midnightblue" points="1080.6,-214.61 1078.66,-204.195 1073.68,-213.546 1080.6,-214.61"/>
</g>
<!-- Node29 -->
<g id="node29" class="node"><title>Node29</title>
<g id="a_node29"><a xlink:href="StdOptional_8hpp.html" target="_top" xlink:title="Core/Utils/StdOptional.hpp">
<polygon fill="white" stroke="black" points="1220.5,-185 1220.5,-204 1363.5,-204 1363.5,-185 1220.5,-185"/>
<text text-anchor="middle" x="1292" y="-192" font-family="Helvetica,sans-Serif" font-size="10.00">Core/Utils/StdOptional.hpp</text>
</a>
</g>
</g>
<!-- Node26&#45;&gt;Node29 -->
<g id="edge37" class="edge"><title>Node26&#45;&gt;Node29</title>
<path fill="none" stroke="midnightblue" d="M1117.9,-246.476C1158.21,-234.673 1215.15,-218.001 1252.8,-206.979"/>
<polygon fill="midnightblue" stroke="midnightblue" points="1254.26,-210.198 1262.87,-204.029 1252.29,-203.48 1254.26,-210.198"/>
</g>
<!-- Node28&#45;&gt;Node11 -->
<g id="edge36" class="edge"><title>Node28&#45;&gt;Node11</title>
<path fill="none" stroke="midnightblue" d="M1092.41,-184.734C1107.58,-174.013 1133.48,-155.716 1151.6,-142.914"/>
<polygon fill="midnightblue" stroke="midnightblue" points="1153.64,-145.756 1159.79,-137.127 1149.6,-140.039 1153.64,-145.756"/>
</g>
<!-- Node30&#45;&gt;Node25 -->
<g id="edge39" class="edge"><title>Node30&#45;&gt;Node25</title>
<path fill="none" stroke="midnightblue" d="M881.418,-251.734C889.994,-241.598 904.301,-224.69 914.991,-212.056"/>
<polygon fill="midnightblue" stroke="midnightblue" points="917.912,-214.022 921.7,-204.127 912.569,-209.5 917.912,-214.022"/>
</g>
<!-- Node31&#45;&gt;Node8 -->
<g id="edge43" class="edge"><title>Node31&#45;&gt;Node8</title>
<path fill="none" stroke="midnightblue" d="M1431.3,-184.698C1422.67,-156.573 1395.63,-68.4576 1383.73,-29.6575"/>
<polygon fill="midnightblue" stroke="midnightblue" points="1386.95,-28.2473 1380.67,-19.714 1380.26,-30.3008 1386.95,-28.2473"/>
</g>
<!-- Node31&#45;&gt;Node11 -->
<g id="edge41" class="edge"><title>Node31&#45;&gt;Node11</title>
<path fill="none" stroke="midnightblue" d="M1399.48,-184.936C1352.45,-173.268 1268.2,-152.367 1216.49,-139.537"/>
<polygon fill="midnightblue" stroke="midnightblue" points="1217.15,-136.094 1206.6,-137.083 1215.46,-142.888 1217.15,-136.094"/>
</g>
<!-- Node31&#45;&gt;Node23 -->
<g id="edge45" class="edge"><title>Node31&#45;&gt;Node23</title>
<path fill="none" stroke="midnightblue" d="M1400.01,-184.962C1390.94,-182.846 1381.13,-180.701 1372,-179 1258.18,-157.795 1225.01,-175.893 1114,-143 1112.12,-142.443 1110.21,-141.789 1108.31,-141.071"/>
<polygon fill="midnightblue" stroke="midnightblue" points="1109.62,-137.827 1099.05,-137.119 1106.87,-144.265 1109.62,-137.827"/>
</g>
<!-- Node32 -->
<g id="node32" class="node"><title>Node32</title>
<polygon fill="white" stroke="#bfbfbf" points="1431,-118 1431,-137 1475,-137 1475,-118 1431,-118"/>
<text text-anchor="middle" x="1453" y="-125" font-family="Helvetica,sans-Serif" font-size="10.00">ctime</text>
</g>
<!-- Node31&#45;&gt;Node32 -->
<g id="edge42" class="edge"><title>Node31&#45;&gt;Node32</title>
<path fill="none" stroke="midnightblue" d="M1436.56,-184.734C1439.38,-175.085 1444,-159.3 1447.62,-146.906"/>
<polygon fill="midnightblue" stroke="midnightblue" points="1451.03,-147.708 1450.48,-137.127 1444.31,-145.744 1451.03,-147.708"/>
</g>
<!-- Node33 -->
<g id="node33" class="node"><title>Node33</title>
<polygon fill="white" stroke="#bfbfbf" points="1325.5,-118 1325.5,-137 1374.5,-137 1374.5,-118 1325.5,-118"/>
<text text-anchor="middle" x="1350" y="-125" font-family="Helvetica,sans-Serif" font-size="10.00">stdio.h</text>
</g>
<!-- Node31&#45;&gt;Node33 -->
<g id="edge44" class="edge"><title>Node31&#45;&gt;Node33</title>
<path fill="none" stroke="midnightblue" d="M1422.67,-184.734C1408.94,-174.111 1385.6,-156.049 1369.08,-143.264"/>
<polygon fill="midnightblue" stroke="midnightblue" points="1371.2,-140.479 1361.15,-137.127 1366.92,-146.015 1371.2,-140.479"/>
</g>
</g>
</svg>
