<?xml version="1.0" encoding="UTF-8" standalone="no"?>
<!DOCTYPE svg PUBLIC "-//W3C//DTD SVG 1.1//EN"
 "http://www.w3.org/Graphics/SVG/1.1/DTD/svg11.dtd">
<!-- Generated by graphviz version 2.38.0 (20140413.2041)
 -->
<!-- Title: /home/travis/build/STORM&#45;IRIT/Radium&#45;Engine/src/Engine/Managers/SignalManager/SignalManager.cpp Pages: 1 -->
<svg width="650pt" height="408pt"
 viewBox="0.00 0.00 649.50 408.00" xmlns="http://www.w3.org/2000/svg" xmlns:xlink="http://www.w3.org/1999/xlink">
<g id="graph0" class="graph" transform="scale(1 1) rotate(0) translate(4 404)">
<title>/home/travis/build/STORM&#45;IRIT/Radium&#45;Engine/src/Engine/Managers/SignalManager/SignalManager.cpp</title>
<polygon fill="white" stroke="none" points="-4,4 -4,-404 645.5,-404 645.5,4 -4,4"/>
<!-- Node1 -->
<g id="node1" class="node"><title>Node1</title>
<polygon fill="#bfbfbf" stroke="black" points="388,-347.5 388,-399.5 582,-399.5 582,-347.5 388,-347.5"/>
<text text-anchor="start" x="396" y="-387.5" font-family="Helvetica,sans-Serif" font-size="10.00">/home/travis/build</text>
<text text-anchor="start" x="396" y="-376.5" font-family="Helvetica,sans-Serif" font-size="10.00">/STORM&#45;IRIT/Radium&#45;Engine</text>
<text text-anchor="start" x="396" y="-365.5" font-family="Helvetica,sans-Serif" font-size="10.00">/src/Engine/Managers/SignalManager</text>
<text text-anchor="middle" x="485" y="-354.5" font-family="Helvetica,sans-Serif" font-size="10.00">/SignalManager.cpp</text>
</g>
<!-- Node2 -->
<g id="node2" class="node"><title>Node2</title>
<g id="a_node2"><a xlink:href="SignalManager_8hpp.html" target="_top" xlink:title="Engine/Managers/SignalManager\l/SignalManager.hpp">
<polygon fill="white" stroke="black" points="398.5,-280.5 398.5,-310.5 571.5,-310.5 571.5,-280.5 398.5,-280.5"/>
<text text-anchor="start" x="406.5" y="-298.5" font-family="Helvetica,sans-Serif" font-size="10.00">Engine/Managers/SignalManager</text>
<text text-anchor="middle" x="485" y="-287.5" font-family="Helvetica,sans-Serif" font-size="10.00">/SignalManager.hpp</text>
</a>
</g>
</g>
<!-- Node1&#45;&gt;Node2 -->
<g id="edge1" class="edge"><title>Node1&#45;&gt;Node2</title>
<path fill="none" stroke="midnightblue" d="M485,-347.193C485,-338.786 485,-329.443 485,-321.091"/>
<polygon fill="midnightblue" stroke="midnightblue" points="488.5,-320.845 485,-310.845 481.5,-320.845 488.5,-320.845"/>
</g>
<!-- Node3 -->
<g id="node3" class="node"><title>Node3</title>
<g id="a_node3"><a xlink:href="RaEngine_8hpp.html" target="_top" xlink:title="Engine/RaEngine.hpp">
<polygon fill="white" stroke="black" points="82.5,-168.5 82.5,-187.5 199.5,-187.5 199.5,-168.5 82.5,-168.5"/>
<text text-anchor="middle" x="141" y="-175.5" font-family="Helvetica,sans-Serif" font-size="10.00">Engine/RaEngine.hpp</text>
</a>
</g>
</g>
<!-- Node2&#45;&gt;Node3 -->
<g id="edge2" class="edge"><title>Node2&#45;&gt;Node3</title>
<path fill="none" stroke="midnightblue" d="M410.373,-280.48C369.991,-271.898 319.593,-259.563 276,-244 235.853,-229.667 191.786,-207.049 165.268,-192.626"/>
<polygon fill="midnightblue" stroke="midnightblue" points="166.782,-189.464 156.332,-187.714 163.409,-195.598 166.782,-189.464"/>
</g>
<!-- Node10 -->
<g id="node10" class="node"><title>Node10</title>
<polygon fill="white" stroke="#bfbfbf" points="513.5,-224.5 513.5,-243.5 576.5,-243.5 576.5,-224.5 513.5,-224.5"/>
<text text-anchor="middle" x="545" y="-231.5" font-family="Helvetica,sans-Serif" font-size="10.00">functional</text>
</g>
<!-- Node2&#45;&gt;Node10 -->
<g id="edge9" class="edge"><title>Node2&#45;&gt;Node10</title>
<path fill="none" stroke="midnightblue" d="M499.219,-280.399C508.208,-271.486 519.838,-259.952 529.127,-250.741"/>
<polygon fill="midnightblue" stroke="midnightblue" points="531.633,-253.184 536.269,-243.658 526.704,-248.214 531.633,-253.184"/>
</g>
<!-- Node11 -->
<g id="node11" class="node"><title>Node11</title>
<polygon fill="white" stroke="#bfbfbf" points="594.5,-224.5 594.5,-243.5 641.5,-243.5 641.5,-224.5 594.5,-224.5"/>
<text text-anchor="middle" x="618" y="-231.5" font-family="Helvetica,sans-Serif" font-size="10.00">mutex</text>
</g>
<!-- Node2&#45;&gt;Node11 -->
<g id="edge10" class="edge"><title>Node2&#45;&gt;Node11</title>
<path fill="none" stroke="midnightblue" d="M516.519,-280.399C538.635,-270.505 567.967,-257.383 589.406,-247.792"/>
<polygon fill="midnightblue" stroke="midnightblue" points="590.948,-250.936 598.647,-243.658 588.09,-244.547 590.948,-250.936"/>
</g>
<!-- Node12 -->
<g id="node12" class="node"><title>Node12</title>
<polygon fill="white" stroke="#bfbfbf" points="593.5,-168.5 593.5,-187.5 640.5,-187.5 640.5,-168.5 593.5,-168.5"/>
<text text-anchor="middle" x="617" y="-175.5" font-family="Helvetica,sans-Serif" font-size="10.00">vector</text>
</g>
<!-- Node2&#45;&gt;Node12 -->
<g id="edge11" class="edge"><title>Node2&#45;&gt;Node12</title>
<path fill="none" stroke="midnightblue" d="M485.44,-280.308C486.659,-264.683 490.875,-239.701 505,-224 515.876,-211.911 554.729,-197.94 583.64,-188.813"/>
<polygon fill="midnightblue" stroke="midnightblue" points="584.87,-192.096 593.39,-185.797 582.802,-185.409 584.87,-192.096"/>
</g>
<!-- Node13 -->
<g id="node13" class="node"><title>Node13</title>
<g id="a_node13"><a xlink:href="ItemEntry_8hpp.html" target="_top" xlink:title="Engine/ItemModel/ItemEntry.hpp">
<polygon fill="white" stroke="black" points="285.5,-224.5 285.5,-243.5 456.5,-243.5 456.5,-224.5 285.5,-224.5"/>
<text text-anchor="middle" x="371" y="-231.5" font-family="Helvetica,sans-Serif" font-size="10.00">Engine/ItemModel/ItemEntry.hpp</text>
</a>
</g>
</g>
<!-- Node2&#45;&gt;Node13 -->
<g id="edge12" class="edge"><title>Node2&#45;&gt;Node13</title>
<path fill="none" stroke="midnightblue" d="M457.984,-280.399C439.369,-270.684 414.79,-257.855 396.509,-248.314"/>
<polygon fill="midnightblue" stroke="midnightblue" points="398.073,-245.182 387.588,-243.658 394.834,-251.388 398.073,-245.182"/>
</g>
<!-- Node4 -->
<g id="node4" class="node"><title>Node4</title>
<g id="a_node4"><a xlink:href="CoreMacros_8hpp.html" target="_top" xlink:title="Core/CoreMacros.hpp">
<polygon fill="white" stroke="black" points="103,-56.5 103,-75.5 223,-75.5 223,-56.5 103,-56.5"/>
<text text-anchor="middle" x="163" y="-63.5" font-family="Helvetica,sans-Serif" font-size="10.00">Core/CoreMacros.hpp</text>
</a>
</g>
</g>
<!-- Node3&#45;&gt;Node4 -->
<g id="edge3" class="edge"><title>Node3&#45;&gt;Node4</title>
<path fill="none" stroke="midnightblue" d="M140.448,-168.459C139.849,-155.91 139.507,-131.831 144,-112 146.108,-102.695 150.033,-92.8784 153.77,-84.7961"/>
<polygon fill="midnightblue" stroke="midnightblue" points="156.992,-86.1751 158.253,-75.6556 150.707,-83.0926 156.992,-86.1751"/>
</g>
<!-- Node5 -->
<g id="node5" class="node"><title>Node5</title>
<polygon fill="white" stroke="#bfbfbf" points="0,-0.5 0,-19.5 52,-19.5 52,-0.5 0,-0.5"/>
<text text-anchor="middle" x="26" y="-7.5" font-family="Helvetica,sans-Serif" font-size="10.00">cassert</text>
</g>
<!-- Node4&#45;&gt;Node5 -->
<g id="edge4" class="edge"><title>Node4&#45;&gt;Node5</title>
<path fill="none" stroke="midnightblue" d="M141.292,-56.4435C118.645,-47.5171 82.9279,-33.4387 57.2482,-23.3168"/>
<polygon fill="midnightblue" stroke="midnightblue" points="58.1934,-19.9273 47.6065,-19.5164 55.6264,-26.4397 58.1934,-19.9273"/>
</g>
<!-- Node6 -->
<g id="node6" class="node"><title>Node6</title>
<polygon fill="white" stroke="#bfbfbf" points="70.5,-0.5 70.5,-19.5 115.5,-19.5 115.5,-0.5 70.5,-0.5"/>
<text text-anchor="middle" x="93" y="-7.5" font-family="Helvetica,sans-Serif" font-size="10.00">cstdio</text>
</g>
<!-- Node4&#45;&gt;Node6 -->
<g id="edge5" class="edge"><title>Node4&#45;&gt;Node6</title>
<path fill="none" stroke="midnightblue" d="M151.753,-56.324C141.203,-48.1849 125.199,-35.8395 112.558,-26.0874"/>
<polygon fill="midnightblue" stroke="midnightblue" points="114.507,-23.1707 104.451,-19.8339 110.231,-28.7132 114.507,-23.1707"/>
</g>
<!-- Node7 -->
<g id="node7" class="node"><title>Node7</title>
<polygon fill="white" stroke="#bfbfbf" points="133.5,-0.5 133.5,-19.5 192.5,-19.5 192.5,-0.5 133.5,-0.5"/>
<text text-anchor="middle" x="163" y="-7.5" font-family="Helvetica,sans-Serif" font-size="10.00">iostream</text>
</g>
<!-- Node4&#45;&gt;Node7 -->
<g id="edge6" class="edge"><title>Node4&#45;&gt;Node7</title>
<path fill="none" stroke="midnightblue" d="M163,-56.083C163,-49.0059 163,-38.8611 163,-29.9865"/>
<polygon fill="midnightblue" stroke="midnightblue" points="166.5,-29.751 163,-19.7511 159.5,-29.7511 166.5,-29.751"/>
</g>
<!-- Node8 -->
<g id="node8" class="node"><title>Node8</title>
<polygon fill="white" stroke="#bfbfbf" points="211,-0.5 211,-19.5 267,-19.5 267,-0.5 211,-0.5"/>
<text text-anchor="middle" x="239" y="-7.5" font-family="Helvetica,sans-Serif" font-size="10.00">sstream</text>
</g>
<!-- Node4&#45;&gt;Node8 -->
<g id="edge7" class="edge"><title>Node4&#45;&gt;Node8</title>
<path fill="none" stroke="midnightblue" d="M175.211,-56.324C186.776,-48.1066 204.375,-35.6017 218.161,-25.8069"/>
<polygon fill="midnightblue" stroke="midnightblue" points="220.443,-28.4791 226.567,-19.8339 216.388,-22.7729 220.443,-28.4791"/>
</g>
<!-- Node9 -->
<g id="node9" class="node"><title>Node9</title>
<polygon fill="white" stroke="#bfbfbf" points="285,-0.5 285,-19.5 333,-19.5 333,-0.5 285,-0.5"/>
<text text-anchor="middle" x="309" y="-7.5" font-family="Helvetica,sans-Serif" font-size="10.00">thread</text>
</g>
<!-- Node4&#45;&gt;Node9 -->
<g id="edge8" class="edge"><title>Node4&#45;&gt;Node9</title>
<path fill="none" stroke="midnightblue" d="M186.134,-56.4435C210.482,-47.4381 249.007,-33.1891 276.423,-23.049"/>
<polygon fill="midnightblue" stroke="midnightblue" points="277.809,-26.2681 285.974,-19.5164 275.381,-19.7028 277.809,-26.2681"/>
</g>
<!-- Node13&#45;&gt;Node3 -->
<g id="edge13" class="edge"><title>Node13&#45;&gt;Node3</title>
<path fill="none" stroke="midnightblue" d="M334.556,-224.444C294.601,-215.063 230.413,-199.993 187.015,-189.804"/>
<polygon fill="midnightblue" stroke="midnightblue" points="187.809,-186.395 177.274,-187.516 186.209,-193.21 187.809,-186.395"/>
</g>
<!-- Node13&#45;&gt;Node12 -->
<g id="edge20" class="edge"><title>Node13&#45;&gt;Node12</title>
<path fill="none" stroke="midnightblue" d="M415.226,-224.435C456.315,-216.304 519.419,-203.374 583.393,-188.035"/>
<polygon fill="midnightblue" stroke="midnightblue" points="584.351,-191.405 593.25,-185.654 582.707,-184.6 584.351,-191.405"/>
</g>
<!-- Node14 -->
<g id="node14" class="node"><title>Node14</title>
<g id="a_node14"><a xlink:href="Index_8hpp.html" target="_top" xlink:title="Core/Utils/Index.hpp">
<polygon fill="white" stroke="black" points="217.5,-168.5 217.5,-187.5 330.5,-187.5 330.5,-168.5 217.5,-168.5"/>
<text text-anchor="middle" x="274" y="-175.5" font-family="Helvetica,sans-Serif" font-size="10.00">Core/Utils/Index.hpp</text>
</a>
</g>
</g>
<!-- Node13&#45;&gt;Node14 -->
<g id="edge14" class="edge"><title>Node13&#45;&gt;Node14</title>
<path fill="none" stroke="midnightblue" d="M355.415,-224.324C340.001,-215.743 316.188,-202.486 298.29,-192.522"/>
<polygon fill="midnightblue" stroke="midnightblue" points="299.986,-189.461 289.546,-187.655 296.581,-195.577 299.986,-189.461"/>
</g>
<!-- Node18 -->
<g id="node18" class="node"><title>Node18</title>
<polygon fill="white" stroke="#bfbfbf" points="349,-168.5 349,-187.5 393,-187.5 393,-168.5 349,-168.5"/>
<text text-anchor="middle" x="371" y="-175.5" font-family="Helvetica,sans-Serif" font-size="10.00">string</text>
</g>
<!-- Node13&#45;&gt;Node18 -->
<g id="edge19" class="edge"><title>Node13&#45;&gt;Node18</title>
<path fill="none" stroke="midnightblue" d="M371,-224.083C371,-217.006 371,-206.861 371,-197.986"/>
<polygon fill="midnightblue" stroke="midnightblue" points="374.5,-197.751 371,-187.751 367.5,-197.751 374.5,-197.751"/>
</g>
<!-- Node19 -->
<g id="node19" class="node"><title>Node19</title>
<g id="a_node19"><a xlink:href="ItemEntry_8inl.html" target="_top" xlink:title="Engine/ItemModel/ItemEntry.inl">
<polygon fill="white" stroke="black" points="411,-168.5 411,-187.5 575,-187.5 575,-168.5 411,-168.5"/>
<text text-anchor="middle" x="493" y="-175.5" font-family="Helvetica,sans-Serif" font-size="10.00">Engine/ItemModel/ItemEntry.inl</text>
</a>
</g>
</g>
<!-- Node13&#45;&gt;Node19 -->
<g id="edge21" class="edge"><title>Node13&#45;&gt;Node19</title>
<path fill="none" stroke="midnightblue" d="M390.331,-224.444C410.32,-215.596 441.743,-201.687 464.564,-191.586"/>
<polygon fill="midnightblue" stroke="midnightblue" points="466.032,-194.764 473.759,-187.516 463.198,-188.363 466.032,-194.764"/>
</g>
<!-- Node15 -->
<g id="node15" class="node"><title>Node15</title>
<g id="a_node15"><a xlink:href="RaCore_8hpp.html" target="_top" xlink:title="Core/RaCore.hpp">
<polygon fill="white" stroke="black" points="153,-112.5 153,-131.5 251,-131.5 251,-112.5 153,-112.5"/>
<text text-anchor="middle" x="202" y="-119.5" font-family="Helvetica,sans-Serif" font-size="10.00">Core/RaCore.hpp</text>
</a>
</g>
</g>
<!-- Node14&#45;&gt;Node15 -->
<g id="edge15" class="edge"><title>Node14&#45;&gt;Node15</title>
<path fill="none" stroke="midnightblue" d="M262.432,-168.324C251.58,-160.185 235.119,-147.839 222.117,-138.087"/>
<polygon fill="midnightblue" stroke="midnightblue" points="223.879,-135.034 213.779,-131.834 219.679,-140.634 223.879,-135.034"/>
</g>
<!-- Node16 -->
<g id="node16" class="node"><title>Node16</title>
<polygon fill="white" stroke="#bfbfbf" points="269,-112.5 269,-131.5 311,-131.5 311,-112.5 269,-112.5"/>
<text text-anchor="middle" x="290" y="-119.5" font-family="Helvetica,sans-Serif" font-size="10.00">limits</text>
</g>
<!-- Node14&#45;&gt;Node16 -->
<g id="edge17" class="edge"><title>Node14&#45;&gt;Node16</title>
<path fill="none" stroke="midnightblue" d="M276.642,-168.083C278.786,-160.849 281.879,-150.409 284.549,-141.397"/>
<polygon fill="midnightblue" stroke="midnightblue" points="287.922,-142.333 287.407,-131.751 281.21,-140.345 287.922,-142.333"/>
</g>
<!-- Node17 -->
<g id="node17" class="node"><title>Node17</title>
<g id="a_node17"><a xlink:href="Index_8inl.html" target="_top" xlink:title="Core/Utils/Index.inl">
<polygon fill="white" stroke="black" points="329.5,-112.5 329.5,-131.5 434.5,-131.5 434.5,-112.5 329.5,-112.5"/>
<text text-anchor="middle" x="382" y="-119.5" font-family="Helvetica,sans-Serif" font-size="10.00">Core/Utils/Index.inl</text>
</a>
</g>
</g>
<!-- Node14&#45;&gt;Node17 -->
<g id="edge18" class="edge"><title>Node14&#45;&gt;Node17</title>
<path fill="none" stroke="midnightblue" d="M291.352,-168.324C308.672,-159.664 335.515,-146.242 355.502,-136.249"/>
<polygon fill="midnightblue" stroke="midnightblue" points="357.312,-139.257 364.691,-131.655 354.181,-132.996 357.312,-139.257"/>
</g>
<!-- Node15&#45;&gt;Node4 -->
<g id="edge16" class="edge"><title>Node15&#45;&gt;Node4</title>
<path fill="none" stroke="midnightblue" d="M195.56,-112.083C190.051,-104.455 181.969,-93.2645 175.235,-83.9408"/>
<polygon fill="midnightblue" stroke="midnightblue" points="178.013,-81.8087 169.32,-75.7511 172.338,-85.9071 178.013,-81.8087"/>
</g>
</g>
</svg>
