<?xml version="1.0" encoding="UTF-8" standalone="no"?>
<!DOCTYPE svg PUBLIC "-//W3C//DTD SVG 1.1//EN"
 "http://www.w3.org/Graphics/SVG/1.1/DTD/svg11.dtd">
<!-- Generated by graphviz version 2.38.0 (20140413.2041)
 -->
<!-- Title: /home/travis/build/STORM&#45;IRIT/Radium&#45;Engine/src/Core/Animation/Skeleton.cpp Pages: 1 -->
<svg width="1480pt" height="475pt"
 viewBox="0.00 0.00 1479.50 475.00" xmlns="http://www.w3.org/2000/svg" xmlns:xlink="http://www.w3.org/1999/xlink">
<g id="graph0" class="graph" transform="scale(1 1) rotate(0) translate(4 471)">
<title>/home/travis/build/STORM&#45;IRIT/Radium&#45;Engine/src/Core/Animation/Skeleton.cpp</title>
<polygon fill="white" stroke="none" points="-4,4 -4,-471 1475.5,-471 1475.5,4 -4,4"/>
<!-- Node1 -->
<g id="node1" class="node"><title>Node1</title>
<polygon fill="#bfbfbf" stroke="black" points="1187.5,-425.5 1187.5,-466.5 1363.5,-466.5 1363.5,-425.5 1187.5,-425.5"/>
<text text-anchor="start" x="1195.5" y="-454.5" font-family="Helvetica,sans-Serif" font-size="10.00">/home/travis/build</text>
<text text-anchor="start" x="1195.5" y="-443.5" font-family="Helvetica,sans-Serif" font-size="10.00">/STORM&#45;IRIT/Radium&#45;Engine</text>
<text text-anchor="middle" x="1275.5" y="-432.5" font-family="Helvetica,sans-Serif" font-size="10.00">/src/Core/Animation/Skeleton.cpp</text>
</g>
<!-- Node2 -->
<g id="node2" class="node"><title>Node2</title>
<g id="a_node2"><a xlink:href="Skeleton_8hpp.html" target="_top" xlink:title="Core/Animation/Skeleton.hpp">
<polygon fill="white" stroke="black" points="496,-369.5 496,-388.5 653,-388.5 653,-369.5 496,-369.5"/>
<text text-anchor="middle" x="574.5" y="-376.5" font-family="Helvetica,sans-Serif" font-size="10.00">Core/Animation/Skeleton.hpp</text>
</a>
</g>
</g>
<!-- Node1&#45;&gt;Node2 -->
<g id="edge1" class="edge"><title>Node1&#45;&gt;Node2</title>
<path fill="none" stroke="midnightblue" d="M1187.43,-436.834C1053.03,-424.372 798.192,-400.742 663.34,-388.238"/>
<polygon fill="midnightblue" stroke="midnightblue" points="663.329,-384.722 653.049,-387.283 662.683,-391.692 663.329,-384.722"/>
</g>
<!-- Node23 -->
<g id="node23" class="node"><title>Node23</title>
<g id="a_node23"><a xlink:href="LinearAlgebra_8hpp.html" target="_top" xlink:title="Core/Math/LinearAlgebra.hpp">
<polygon fill="white" stroke="black" points="861.5,-241 861.5,-260 1017.5,-260 1017.5,-241 861.5,-241"/>
<text text-anchor="middle" x="939.5" y="-248" font-family="Helvetica,sans-Serif" font-size="10.00">Core/Math/LinearAlgebra.hpp</text>
</a>
</g>
</g>
<!-- Node1&#45;&gt;Node23 -->
<g id="edge33" class="edge"><title>Node1&#45;&gt;Node23</title>
<path fill="none" stroke="midnightblue" d="M1241.43,-425.381C1173.32,-386.154 1021.85,-298.924 963.27,-265.189"/>
<polygon fill="midnightblue" stroke="midnightblue" points="964.793,-262.027 954.38,-260.07 961.299,-268.093 964.793,-262.027"/>
</g>
<!-- Node27 -->
<g id="node27" class="node"><title>Node27</title>
<polygon fill="white" stroke="#bfbfbf" points="1295.5,-112.5 1295.5,-131.5 1357.5,-131.5 1357.5,-112.5 1295.5,-112.5"/>
<text text-anchor="middle" x="1326.5" y="-119.5" font-family="Helvetica,sans-Serif" font-size="10.00">algorithm</text>
</g>
<!-- Node1&#45;&gt;Node27 -->
<g id="edge49" class="edge"><title>Node1&#45;&gt;Node27</title>
<path fill="none" stroke="midnightblue" d="M1316.41,-425.309C1353.2,-404.416 1401.5,-367.631 1401.5,-318.5 1401.5,-318.5 1401.5,-318.5 1401.5,-249.5 1401.5,-212.405 1403.2,-199.43 1383.5,-168 1375.57,-155.356 1362.79,-144.785 1351.34,-137.072"/>
<polygon fill="midnightblue" stroke="midnightblue" points="1352.88,-133.905 1342.56,-131.515 1349.14,-139.82 1352.88,-133.905"/>
</g>
<!-- Node31 -->
<g id="node31" class="node"><title>Node31</title>
<polygon fill="white" stroke="#bfbfbf" points="1429.5,-369.5 1429.5,-388.5 1471.5,-388.5 1471.5,-369.5 1429.5,-369.5"/>
<text text-anchor="middle" x="1450.5" y="-376.5" font-family="Helvetica,sans-Serif" font-size="10.00">stack</text>
</g>
<!-- Node1&#45;&gt;Node31 -->
<g id="edge50" class="edge"><title>Node1&#45;&gt;Node31</title>
<path fill="none" stroke="midnightblue" d="M1328.01,-425.498C1358.05,-414.34 1394.68,-400.734 1420.01,-391.323"/>
<polygon fill="midnightblue" stroke="midnightblue" points="1421.31,-394.576 1429.46,-387.813 1418.87,-388.014 1421.31,-394.576"/>
</g>
<!-- Node3 -->
<g id="node3" class="node"><title>Node3</title>
<g id="a_node3"><a xlink:href="Handle_8hpp.html" target="_top" xlink:title="Core/Animation/Handle.hpp">
<polygon fill="white" stroke="black" points="240,-308 240,-327 389,-327 389,-308 240,-308"/>
<text text-anchor="middle" x="314.5" y="-315" font-family="Helvetica,sans-Serif" font-size="10.00">Core/Animation/Handle.hpp</text>
</a>
</g>
</g>
<!-- Node2&#45;&gt;Node3 -->
<g id="edge2" class="edge"><title>Node2&#45;&gt;Node3</title>
<path fill="none" stroke="midnightblue" d="M537.248,-369.475C491.008,-358.893 412.101,-340.836 361.678,-329.297"/>
<polygon fill="midnightblue" stroke="midnightblue" points="362.211,-325.828 351.683,-327.009 360.65,-332.652 362.211,-325.828"/>
</g>
<!-- Node20 -->
<g id="node20" class="node"><title>Node20</title>
<g id="a_node20"><a xlink:href="AdjacencyList_8hpp.html" target="_top" xlink:title="Core/Containers/Adjacency\lList.hpp">
<polygon fill="white" stroke="black" points="501.5,-302.5 501.5,-332.5 647.5,-332.5 647.5,-302.5 501.5,-302.5"/>
<text text-anchor="start" x="509.5" y="-320.5" font-family="Helvetica,sans-Serif" font-size="10.00">Core/Containers/Adjacency</text>
<text text-anchor="middle" x="574.5" y="-309.5" font-family="Helvetica,sans-Serif" font-size="10.00">List.hpp</text>
</a>
</g>
</g>
<!-- Node2&#45;&gt;Node20 -->
<g id="edge22" class="edge"><title>Node2&#45;&gt;Node20</title>
<path fill="none" stroke="midnightblue" d="M574.5,-369.475C574.5,-362.471 574.5,-352.192 574.5,-342.696"/>
<polygon fill="midnightblue" stroke="midnightblue" points="578,-342.523 574.5,-332.523 571,-342.523 578,-342.523"/>
</g>
<!-- Node4 -->
<g id="node4" class="node"><title>Node4</title>
<g id="a_node4"><a xlink:href="Pose_8hpp.html" target="_top" xlink:title="Core/Animation/Pose.hpp">
<polygon fill="white" stroke="black" points="197.5,-241 197.5,-260 335.5,-260 335.5,-241 197.5,-241"/>
<text text-anchor="middle" x="266.5" y="-248" font-family="Helvetica,sans-Serif" font-size="10.00">Core/Animation/Pose.hpp</text>
</a>
</g>
</g>
<!-- Node3&#45;&gt;Node4 -->
<g id="edge3" class="edge"><title>Node3&#45;&gt;Node4</title>
<path fill="none" stroke="midnightblue" d="M308.027,-307.734C300.613,-297.695 288.295,-281.014 278.996,-268.421"/>
<polygon fill="midnightblue" stroke="midnightblue" points="281.627,-266.092 272.871,-260.127 275.996,-270.251 281.627,-266.092"/>
</g>
<!-- Node6 -->
<g id="node6" class="node"><title>Node6</title>
<g id="a_node6"><a xlink:href="RaCore_8hpp.html" target="_top" xlink:title="Core/RaCore.hpp">
<polygon fill="white" stroke="black" points="466.5,-112.5 466.5,-131.5 564.5,-131.5 564.5,-112.5 466.5,-112.5"/>
<text text-anchor="middle" x="515.5" y="-119.5" font-family="Helvetica,sans-Serif" font-size="10.00">Core/RaCore.hpp</text>
</a>
</g>
</g>
<!-- Node3&#45;&gt;Node6 -->
<g id="edge14" class="edge"><title>Node3&#45;&gt;Node6</title>
<path fill="none" stroke="midnightblue" d="M323.396,-307.936C354.451,-278.04 458.358,-178.01 499.003,-138.882"/>
<polygon fill="midnightblue" stroke="midnightblue" points="501.471,-141.364 506.248,-131.907 496.616,-136.321 501.471,-141.364"/>
</g>
<!-- Node15 -->
<g id="node15" class="node"><title>Node15</title>
<g id="a_node15"><a xlink:href="Types_8hpp.html" target="_top" xlink:title="Core/Types.hpp">
<polygon fill="white" stroke="black" points="626,-174 626,-193 715,-193 715,-174 626,-174"/>
<text text-anchor="middle" x="670.5" y="-181" font-family="Helvetica,sans-Serif" font-size="10.00">Core/Types.hpp</text>
</a>
</g>
</g>
<!-- Node3&#45;&gt;Node15 -->
<g id="edge15" class="edge"><title>Node3&#45;&gt;Node15</title>
<path fill="none" stroke="midnightblue" d="M389.278,-310.26C464.792,-302.828 575.301,-288.509 611.5,-266 636.019,-250.753 653.472,-221.218 662.762,-202.203"/>
<polygon fill="midnightblue" stroke="midnightblue" points="665.945,-203.658 666.974,-193.113 659.594,-200.715 665.945,-203.658"/>
</g>
<!-- Node19 -->
<g id="node19" class="node"><title>Node19</title>
<g id="a_node19"><a xlink:href="Handle_8inl.html" target="_top" xlink:title="Core/Animation/Handle.inl">
<polygon fill="white" stroke="black" points="0,-241 0,-260 141,-260 141,-241 0,-241"/>
<text text-anchor="middle" x="70.5" y="-248" font-family="Helvetica,sans-Serif" font-size="10.00">Core/Animation/Handle.inl</text>
</a>
</g>
</g>
<!-- Node3&#45;&gt;Node19 -->
<g id="edge20" class="edge"><title>Node3&#45;&gt;Node19</title>
<path fill="none" stroke="midnightblue" d="M277.605,-307.936C231.69,-296.366 153.993,-275.715 107.867,-262.859"/>
<polygon fill="midnightblue" stroke="midnightblue" points="108.545,-259.414 97.9711,-260.083 106.654,-266.154 108.545,-259.414"/>
</g>
<!-- Node5 -->
<g id="node5" class="node"><title>Node5</title>
<g id="a_node5"><a xlink:href="AlignedStdVector_8hpp.html" target="_top" xlink:title="Core/Containers/AlignedStd\lVector.hpp">
<polygon fill="white" stroke="black" points="226,-168.5 226,-198.5 375,-198.5 375,-168.5 226,-168.5"/>
<text text-anchor="start" x="234" y="-186.5" font-family="Helvetica,sans-Serif" font-size="10.00">Core/Containers/AlignedStd</text>
<text text-anchor="middle" x="300.5" y="-175.5" font-family="Helvetica,sans-Serif" font-size="10.00">Vector.hpp</text>
</a>
</g>
</g>
<!-- Node4&#45;&gt;Node5 -->
<g id="edge4" class="edge"><title>Node4&#45;&gt;Node5</title>
<path fill="none" stroke="midnightblue" d="M271.085,-240.734C275.504,-232.287 282.382,-219.138 288.376,-207.678"/>
<polygon fill="midnightblue" stroke="midnightblue" points="291.597,-209.072 293.13,-198.589 285.394,-205.828 291.597,-209.072"/>
</g>
<!-- Node5&#45;&gt;Node6 -->
<g id="edge5" class="edge"><title>Node5&#45;&gt;Node6</title>
<path fill="none" stroke="midnightblue" d="M351.18,-168.475C388.92,-158.03 439.771,-143.958 474.86,-134.247"/>
<polygon fill="midnightblue" stroke="midnightblue" points="476.058,-137.547 484.763,-131.506 474.191,-130.8 476.058,-137.547"/>
</g>
<!-- Node13 -->
<g id="node13" class="node"><title>Node13</title>
<polygon fill="white" stroke="#bfbfbf" points="254,-112.5 254,-131.5 347,-131.5 347,-112.5 254,-112.5"/>
<text text-anchor="middle" x="300.5" y="-119.5" font-family="Helvetica,sans-Serif" font-size="10.00">Eigen/StdVector</text>
</g>
<!-- Node5&#45;&gt;Node13 -->
<g id="edge12" class="edge"><title>Node5&#45;&gt;Node13</title>
<path fill="none" stroke="midnightblue" d="M300.5,-168.399C300.5,-160.466 300.5,-150.458 300.5,-141.858"/>
<polygon fill="midnightblue" stroke="midnightblue" points="304,-141.658 300.5,-131.658 297,-141.658 304,-141.658"/>
</g>
<!-- Node14 -->
<g id="node14" class="node"><title>Node14</title>
<polygon fill="white" stroke="#bfbfbf" points="372,-112.5 372,-131.5 419,-131.5 419,-112.5 372,-112.5"/>
<text text-anchor="middle" x="395.5" y="-119.5" font-family="Helvetica,sans-Serif" font-size="10.00">vector</text>
</g>
<!-- Node5&#45;&gt;Node14 -->
<g id="edge13" class="edge"><title>Node5&#45;&gt;Node14</title>
<path fill="none" stroke="midnightblue" d="M323.014,-168.399C338.099,-158.951 357.885,-146.559 372.973,-137.109"/>
<polygon fill="midnightblue" stroke="midnightblue" points="375.059,-139.932 381.677,-131.658 371.344,-134 375.059,-139.932"/>
</g>
<!-- Node7 -->
<g id="node7" class="node"><title>Node7</title>
<g id="a_node7"><a xlink:href="CoreMacros_8hpp.html" target="_top" xlink:title="Core/CoreMacros.hpp">
<polygon fill="white" stroke="black" points="412.5,-56.5 412.5,-75.5 532.5,-75.5 532.5,-56.5 412.5,-56.5"/>
<text text-anchor="middle" x="472.5" y="-63.5" font-family="Helvetica,sans-Serif" font-size="10.00">Core/CoreMacros.hpp</text>
</a>
</g>
</g>
<!-- Node6&#45;&gt;Node7 -->
<g id="edge6" class="edge"><title>Node6&#45;&gt;Node7</title>
<path fill="none" stroke="midnightblue" d="M508.399,-112.083C502.263,-104.377 493.23,-93.0333 485.761,-83.6531"/>
<polygon fill="midnightblue" stroke="midnightblue" points="488.436,-81.3936 479.468,-75.7511 482.96,-85.7542 488.436,-81.3936"/>
</g>
<!-- Node8 -->
<g id="node8" class="node"><title>Node8</title>
<polygon fill="white" stroke="#bfbfbf" points="549.5,-0.5 549.5,-19.5 601.5,-19.5 601.5,-0.5 549.5,-0.5"/>
<text text-anchor="middle" x="575.5" y="-7.5" font-family="Helvetica,sans-Serif" font-size="10.00">cassert</text>
</g>
<!-- Node7&#45;&gt;Node8 -->
<g id="edge7" class="edge"><title>Node7&#45;&gt;Node8</title>
<path fill="none" stroke="midnightblue" d="M489.049,-56.324C505.492,-47.7034 530.935,-34.3643 549.968,-24.3855"/>
<polygon fill="midnightblue" stroke="midnightblue" points="551.761,-27.3977 558.992,-19.6545 548.511,-21.198 551.761,-27.3977"/>
</g>
<!-- Node9 -->
<g id="node9" class="node"><title>Node9</title>
<polygon fill="white" stroke="#bfbfbf" points="346,-0.5 346,-19.5 391,-19.5 391,-0.5 346,-0.5"/>
<text text-anchor="middle" x="368.5" y="-7.5" font-family="Helvetica,sans-Serif" font-size="10.00">cstdio</text>
</g>
<!-- Node7&#45;&gt;Node9 -->
<g id="edge8" class="edge"><title>Node7&#45;&gt;Node9</title>
<path fill="none" stroke="midnightblue" d="M455.791,-56.324C439.188,-47.7034 413.498,-34.3643 394.28,-24.3855"/>
<polygon fill="midnightblue" stroke="midnightblue" points="395.656,-21.1565 385.168,-19.6545 392.43,-27.3689 395.656,-21.1565"/>
</g>
<!-- Node10 -->
<g id="node10" class="node"><title>Node10</title>
<polygon fill="white" stroke="#bfbfbf" points="226,-0.5 226,-19.5 285,-19.5 285,-0.5 226,-0.5"/>
<text text-anchor="middle" x="255.5" y="-7.5" font-family="Helvetica,sans-Serif" font-size="10.00">iostream</text>
</g>
<!-- Node7&#45;&gt;Node10 -->
<g id="edge9" class="edge"><title>Node7&#45;&gt;Node10</title>
<path fill="none" stroke="midnightblue" d="M438.116,-56.4435C399.225,-46.7657 335.999,-31.0321 295.084,-20.8503"/>
<polygon fill="midnightblue" stroke="midnightblue" points="295.74,-17.4069 285.19,-18.3884 294.049,-24.1997 295.74,-17.4069"/>
</g>
<!-- Node11 -->
<g id="node11" class="node"><title>Node11</title>
<polygon fill="white" stroke="#bfbfbf" points="409.5,-0.5 409.5,-19.5 465.5,-19.5 465.5,-0.5 409.5,-0.5"/>
<text text-anchor="middle" x="437.5" y="-7.5" font-family="Helvetica,sans-Serif" font-size="10.00">sstream</text>
</g>
<!-- Node7&#45;&gt;Node11 -->
<g id="edge10" class="edge"><title>Node7&#45;&gt;Node11</title>
<path fill="none" stroke="midnightblue" d="M466.72,-56.083C461.828,-48.5341 454.673,-37.4948 448.667,-28.2298"/>
<polygon fill="midnightblue" stroke="midnightblue" points="451.548,-26.239 443.172,-19.7511 445.674,-30.0463 451.548,-26.239"/>
</g>
<!-- Node12 -->
<g id="node12" class="node"><title>Node12</title>
<polygon fill="white" stroke="#bfbfbf" points="483.5,-0.5 483.5,-19.5 531.5,-19.5 531.5,-0.5 483.5,-0.5"/>
<text text-anchor="middle" x="507.5" y="-7.5" font-family="Helvetica,sans-Serif" font-size="10.00">thread</text>
</g>
<!-- Node7&#45;&gt;Node12 -->
<g id="edge11" class="edge"><title>Node7&#45;&gt;Node12</title>
<path fill="none" stroke="midnightblue" d="M478.28,-56.083C483.172,-48.5341 490.327,-37.4948 496.333,-28.2298"/>
<polygon fill="midnightblue" stroke="midnightblue" points="499.326,-30.0463 501.828,-19.7511 493.452,-26.239 499.326,-30.0463"/>
</g>
<!-- Node15&#45;&gt;Node6 -->
<g id="edge16" class="edge"><title>Node15&#45;&gt;Node6</title>
<path fill="none" stroke="midnightblue" d="M648.292,-173.975C621.819,-163.813 577.386,-146.756 547.28,-135.2"/>
<polygon fill="midnightblue" stroke="midnightblue" points="548.257,-131.825 537.667,-131.509 545.748,-138.36 548.257,-131.825"/>
</g>
<!-- Node16 -->
<g id="node16" class="node"><title>Node16</title>
<polygon fill="white" stroke="#bfbfbf" points="582.5,-112.5 582.5,-131.5 650.5,-131.5 650.5,-112.5 582.5,-112.5"/>
<text text-anchor="middle" x="616.5" y="-119.5" font-family="Helvetica,sans-Serif" font-size="10.00">Eigen/Core</text>
</g>
<!-- Node15&#45;&gt;Node16 -->
<g id="edge17" class="edge"><title>Node15&#45;&gt;Node16</title>
<path fill="none" stroke="midnightblue" d="M662.763,-173.975C654.503,-164.873 641.223,-150.241 631.006,-138.983"/>
<polygon fill="midnightblue" stroke="midnightblue" points="633.535,-136.562 624.223,-131.509 628.351,-141.266 633.535,-136.562"/>
</g>
<!-- Node17 -->
<g id="node17" class="node"><title>Node17</title>
<polygon fill="white" stroke="#bfbfbf" points="668.5,-112.5 668.5,-131.5 762.5,-131.5 762.5,-112.5 668.5,-112.5"/>
<text text-anchor="middle" x="715.5" y="-119.5" font-family="Helvetica,sans-Serif" font-size="10.00">Eigen/Geometry</text>
</g>
<!-- Node15&#45;&gt;Node17 -->
<g id="edge18" class="edge"><title>Node15&#45;&gt;Node17</title>
<path fill="none" stroke="midnightblue" d="M676.947,-173.975C683.697,-165.05 694.469,-150.807 702.913,-139.643"/>
<polygon fill="midnightblue" stroke="midnightblue" points="705.824,-141.596 709.065,-131.509 700.241,-137.374 705.824,-141.596"/>
</g>
<!-- Node18 -->
<g id="node18" class="node"><title>Node18</title>
<polygon fill="white" stroke="#bfbfbf" points="780.5,-112.5 780.5,-131.5 860.5,-131.5 860.5,-112.5 780.5,-112.5"/>
<text text-anchor="middle" x="820.5" y="-119.5" font-family="Helvetica,sans-Serif" font-size="10.00">Eigen/Sparse</text>
</g>
<!-- Node15&#45;&gt;Node18 -->
<g id="edge19" class="edge"><title>Node15&#45;&gt;Node18</title>
<path fill="none" stroke="midnightblue" d="M691.991,-173.975C717.61,-163.813 760.61,-146.756 789.745,-135.2"/>
<polygon fill="midnightblue" stroke="midnightblue" points="791.044,-138.45 799.049,-131.509 788.463,-131.943 791.044,-138.45"/>
</g>
<!-- Node19&#45;&gt;Node3 -->
<g id="edge21" class="edge"><title>Node19&#45;&gt;Node3</title>
<path fill="none" stroke="midnightblue" d="M107.392,-260.064C153.247,-271.618 230.806,-292.232 276.954,-305.091"/>
<polygon fill="midnightblue" stroke="midnightblue" points="276.285,-308.538 286.859,-307.869 278.175,-301.798 276.285,-308.538"/>
</g>
<!-- Node20&#45;&gt;Node5 -->
<g id="edge23" class="edge"><title>Node20&#45;&gt;Node5</title>
<path fill="none" stroke="midnightblue" d="M519.229,-302.444C489.223,-293.816 451.94,-281.449 420.5,-266 385.675,-248.887 349.3,-222.851 325.857,-204.831"/>
<polygon fill="midnightblue" stroke="midnightblue" points="327.874,-201.966 317.832,-198.587 323.575,-207.49 327.874,-201.966"/>
</g>
<!-- Node20&#45;&gt;Node10 -->
<g id="edge30" class="edge"><title>Node20&#45;&gt;Node10</title>
<path fill="none" stroke="midnightblue" d="M501.479,-309.101C392.808,-297.783 199.975,-276.392 188.5,-266 160.932,-241.033 169.5,-221.694 169.5,-184.5 169.5,-184.5 169.5,-184.5 169.5,-121 169.5,-79.583 207.807,-44.4526 233.288,-25.6658"/>
<polygon fill="midnightblue" stroke="midnightblue" points="235.546,-28.3555 241.683,-19.7187 231.5,-22.6436 235.546,-28.3555"/>
</g>
<!-- Node20&#45;&gt;Node16 -->
<g id="edge29" class="edge"><title>Node20&#45;&gt;Node16</title>
<path fill="none" stroke="midnightblue" d="M588.451,-302.4C596.817,-292.952 606.731,-279.761 611.5,-266 615.446,-254.616 616.283,-178.361 616.457,-142.095"/>
<polygon fill="midnightblue" stroke="midnightblue" points="619.957,-141.871 616.493,-131.858 612.957,-141.846 619.957,-141.871"/>
</g>
<!-- Node21 -->
<g id="node21" class="node"><title>Node21</title>
<g id="a_node21"><a xlink:href="VectorArray_8hpp.html" target="_top" xlink:title="Core/Containers/VectorArray.hpp">
<polygon fill="white" stroke="black" points="430,-241 430,-260 603,-260 603,-241 430,-241"/>
<text text-anchor="middle" x="516.5" y="-248" font-family="Helvetica,sans-Serif" font-size="10.00">Core/Containers/VectorArray.hpp</text>
</a>
</g>
</g>
<!-- Node20&#45;&gt;Node21 -->
<g id="edge24" class="edge"><title>Node20&#45;&gt;Node21</title>
<path fill="none" stroke="midnightblue" d="M561.915,-302.396C552.871,-292.261 540.652,-278.567 531.167,-267.937"/>
<polygon fill="midnightblue" stroke="midnightblue" points="533.528,-265.326 524.258,-260.195 528.305,-269.986 533.528,-265.326"/>
</g>
<!-- Node22 -->
<g id="node22" class="node"><title>Node22</title>
<g id="a_node22"><a xlink:href="AdjacencyList_8inl.html" target="_top" xlink:title="Core/Containers/Adjacency\lList.inl">
<polygon fill="white" stroke="black" points="697.5,-235.5 697.5,-265.5 843.5,-265.5 843.5,-235.5 697.5,-235.5"/>
<text text-anchor="start" x="705.5" y="-253.5" font-family="Helvetica,sans-Serif" font-size="10.00">Core/Containers/Adjacency</text>
<text text-anchor="middle" x="770.5" y="-242.5" font-family="Helvetica,sans-Serif" font-size="10.00">List.inl</text>
</a>
</g>
</g>
<!-- Node20&#45;&gt;Node22 -->
<g id="edge31" class="edge"><title>Node20&#45;&gt;Node22</title>
<path fill="none" stroke="midnightblue" d="M611.351,-302.396C639.848,-292.515 679.721,-279.252 712.466,-268.743"/>
<polygon fill="midnightblue" stroke="midnightblue" points="713.918,-271.953 722.379,-265.577 711.788,-265.285 713.918,-271.953"/>
</g>
<!-- Node21&#45;&gt;Node5 -->
<g id="edge25" class="edge"><title>Node21&#45;&gt;Node5</title>
<path fill="none" stroke="midnightblue" d="M487.817,-240.869C454.563,-230.862 398.951,-214.127 356.94,-201.484"/>
<polygon fill="midnightblue" stroke="midnightblue" points="357.701,-198.058 347.116,-198.528 355.684,-204.761 357.701,-198.058"/>
</g>
<!-- Node21&#45;&gt;Node6 -->
<g id="edge26" class="edge"><title>Node21&#45;&gt;Node6</title>
<path fill="none" stroke="midnightblue" d="M516.431,-240.805C516.271,-220.494 515.868,-169.553 515.648,-141.777"/>
<polygon fill="midnightblue" stroke="midnightblue" points="519.148,-141.728 515.569,-131.756 512.148,-141.783 519.148,-141.728"/>
</g>
<!-- Node21&#45;&gt;Node14 -->
<g id="edge28" class="edge"><title>Node21&#45;&gt;Node14</title>
<path fill="none" stroke="midnightblue" d="M508.183,-240.805C488.151,-219.862 436.969,-166.354 411.047,-139.253"/>
<polygon fill="midnightblue" stroke="midnightblue" points="413.317,-136.563 403.875,-131.756 408.258,-141.401 413.317,-136.563"/>
</g>
<!-- Node21&#45;&gt;Node15 -->
<g id="edge27" class="edge"><title>Node21&#45;&gt;Node15</title>
<path fill="none" stroke="midnightblue" d="M536.95,-240.869C563.528,-229.65 610.14,-209.977 640.666,-197.092"/>
<polygon fill="midnightblue" stroke="midnightblue" points="642.113,-200.28 649.965,-193.167 639.391,-193.831 642.113,-200.28"/>
</g>
<!-- Node22&#45;&gt;Node20 -->
<g id="edge32" class="edge"><title>Node22&#45;&gt;Node20</title>
<path fill="none" stroke="midnightblue" d="M733.629,-265.611C705.087,-275.507 665.142,-288.793 632.374,-299.308"/>
<polygon fill="midnightblue" stroke="midnightblue" points="630.917,-296.1 622.456,-302.476 633.046,-302.768 630.917,-296.1"/>
</g>
<!-- Node23&#45;&gt;Node6 -->
<g id="edge34" class="edge"><title>Node23&#45;&gt;Node6</title>
<path fill="none" stroke="midnightblue" d="M888.914,-240.954C876.977,-238.969 864.294,-236.886 852.5,-235 748.163,-218.314 714.978,-239.775 617.5,-199 583.426,-184.747 550.338,-156.679 531.492,-138.93"/>
<polygon fill="midnightblue" stroke="midnightblue" points="533.732,-136.228 524.103,-131.807 528.873,-141.267 533.732,-136.228"/>
</g>
<!-- Node23&#45;&gt;Node15 -->
<g id="edge46" class="edge"><title>Node23&#45;&gt;Node15</title>
<path fill="none" stroke="midnightblue" d="M903.816,-240.976C862.023,-230.98 790.713,-213.882 729.5,-199 724.814,-197.861 719.92,-196.666 715.042,-195.472"/>
<polygon fill="midnightblue" stroke="midnightblue" points="715.668,-192.022 705.123,-193.04 714.001,-198.82 715.668,-192.022"/>
</g>
<!-- Node23&#45;&gt;Node16 -->
<g id="edge35" class="edge"><title>Node23&#45;&gt;Node16</title>
<path fill="none" stroke="midnightblue" d="M896.614,-240.933C861.138,-232.894 810.022,-219.081 768.5,-199 746.965,-188.585 745.444,-179.558 724.5,-168 700.75,-154.893 672.388,-143.215 650.69,-135.042"/>
<polygon fill="midnightblue" stroke="midnightblue" points="651.823,-131.729 641.23,-131.54 649.393,-138.294 651.823,-131.729"/>
</g>
<!-- Node23&#45;&gt;Node17 -->
<g id="edge36" class="edge"><title>Node23&#45;&gt;Node17</title>
<path fill="none" stroke="midnightblue" d="M915.04,-240.969C890.437,-231.966 851.77,-216.653 820.5,-199 788.093,-180.705 753.738,-154.331 733.475,-137.951"/>
<polygon fill="midnightblue" stroke="midnightblue" points="735.659,-135.215 725.701,-131.596 731.228,-140.635 735.659,-135.215"/>
</g>
<!-- Node23&#45;&gt;Node18 -->
<g id="edge37" class="edge"><title>Node23&#45;&gt;Node18</title>
<path fill="none" stroke="midnightblue" d="M906.979,-240.894C884.809,-233.382 856.496,-220.274 839.5,-199 826.395,-182.596 822.186,-158.339 820.91,-141.666"/>
<polygon fill="midnightblue" stroke="midnightblue" points="824.398,-141.344 820.421,-131.524 817.407,-141.681 824.398,-141.344"/>
</g>
<!-- Node24 -->
<g id="node24" class="node"><title>Node24</title>
<polygon fill="white" stroke="#bfbfbf" points="848,-174 848,-193 911,-193 911,-174 848,-174"/>
<text text-anchor="middle" x="879.5" y="-181" font-family="Helvetica,sans-Serif" font-size="10.00">functional</text>
</g>
<!-- Node23&#45;&gt;Node24 -->
<g id="edge38" class="edge"><title>Node23&#45;&gt;Node24</title>
<path fill="none" stroke="midnightblue" d="M931.408,-240.734C921.962,-230.5 906.144,-213.364 894.447,-200.692"/>
<polygon fill="midnightblue" stroke="midnightblue" points="896.818,-198.101 887.464,-193.127 891.675,-202.849 896.818,-198.101"/>
</g>
<!-- Node25 -->
<g id="node25" class="node"><title>Node25</title>
<polygon fill="white" stroke="#bfbfbf" points="929,-168.5 929,-198.5 1074,-198.5 1074,-168.5 929,-168.5"/>
<text text-anchor="start" x="937" y="-186.5" font-family="Helvetica,sans-Serif" font-size="10.00">unsupported/Eigen/Aligned</text>
<text text-anchor="middle" x="1001.5" y="-175.5" font-family="Helvetica,sans-Serif" font-size="10.00">Vector3</text>
</g>
<!-- Node23&#45;&gt;Node25 -->
<g id="edge39" class="edge"><title>Node23&#45;&gt;Node25</title>
<path fill="none" stroke="midnightblue" d="M947.862,-240.734C956.321,-231.865 969.726,-217.811 981.019,-205.972"/>
<polygon fill="midnightblue" stroke="midnightblue" points="983.692,-208.241 988.061,-198.589 978.626,-203.409 983.692,-208.241"/>
</g>
<!-- Node26 -->
<g id="node26" class="node"><title>Node26</title>
<g id="a_node26"><a xlink:href="Math_8hpp.html" target="_top" xlink:title="Core/Math/Math.hpp">
<polygon fill="white" stroke="black" points="1092.5,-174 1092.5,-193 1206.5,-193 1206.5,-174 1092.5,-174"/>
<text text-anchor="middle" x="1149.5" y="-181" font-family="Helvetica,sans-Serif" font-size="10.00">Core/Math/Math.hpp</text>
</a>
</g>
</g>
<!-- Node23&#45;&gt;Node26 -->
<g id="edge40" class="edge"><title>Node23&#45;&gt;Node26</title>
<path fill="none" stroke="midnightblue" d="M967.386,-240.869C1004.6,-229.351 1070.6,-208.922 1112.1,-196.077"/>
<polygon fill="midnightblue" stroke="midnightblue" points="1113.31,-199.364 1121.83,-193.064 1111.24,-192.677 1113.31,-199.364"/>
</g>
<!-- Node30 -->
<g id="node30" class="node"><title>Node30</title>
<g id="a_node30"><a xlink:href="LinearAlgebra_8inl.html" target="_top" xlink:title="Core/Math/LinearAlgebra.inl">
<polygon fill="white" stroke="black" points="1225,-174 1225,-193 1374,-193 1374,-174 1225,-174"/>
<text text-anchor="middle" x="1299.5" y="-181" font-family="Helvetica,sans-Serif" font-size="10.00">Core/Math/LinearAlgebra.inl</text>
</a>
</g>
</g>
<!-- Node23&#45;&gt;Node30 -->
<g id="edge47" class="edge"><title>Node23&#45;&gt;Node30</title>
<path fill="none" stroke="midnightblue" d="M982.188,-240.936C1045.55,-229.033 1164.59,-207.52 1237.53,-194.771"/>
<polygon fill="midnightblue" stroke="midnightblue" points="1238.26,-198.197 1247.51,-193.032 1237.06,-191.301 1238.26,-198.197"/>
</g>
<!-- Node26&#45;&gt;Node6 -->
<g id="edge41" class="edge"><title>Node26&#45;&gt;Node6</title>
<path fill="none" stroke="midnightblue" d="M1115.08,-173.944C1104.96,-171.699 1093.83,-169.492 1083.5,-168 861.895,-136.01 801.074,-156.813 574.715,-132.035"/>
<polygon fill="midnightblue" stroke="midnightblue" points="574.835,-128.527 564.509,-130.899 574.061,-135.484 574.835,-128.527"/>
</g>
<!-- Node26&#45;&gt;Node27 -->
<g id="edge42" class="edge"><title>Node26&#45;&gt;Node27</title>
<path fill="none" stroke="midnightblue" d="M1174.86,-173.975C1205.48,-163.68 1257.16,-146.31 1291.55,-134.75"/>
<polygon fill="midnightblue" stroke="midnightblue" points="1292.82,-138.013 1301.19,-131.509 1290.59,-131.378 1292.82,-138.013"/>
</g>
<!-- Node28 -->
<g id="node28" class="node"><title>Node28</title>
<polygon fill="white" stroke="#bfbfbf" points="1031,-112.5 1031,-131.5 1078,-131.5 1078,-112.5 1031,-112.5"/>
<text text-anchor="middle" x="1054.5" y="-119.5" font-family="Helvetica,sans-Serif" font-size="10.00">cmath</text>
</g>
<!-- Node26&#45;&gt;Node28 -->
<g id="edge43" class="edge"><title>Node26&#45;&gt;Node28</title>
<path fill="none" stroke="midnightblue" d="M1135.89,-173.975C1120.44,-164.299 1095.01,-148.372 1076.68,-136.894"/>
<polygon fill="midnightblue" stroke="midnightblue" points="1078.42,-133.851 1068.09,-131.509 1074.7,-139.783 1078.42,-133.851"/>
</g>
<!-- Node29 -->
<g id="node29" class="node"><title>Node29</title>
<g id="a_node29"><a xlink:href="Math_8inl.html" target="_top" xlink:title="Core/Math/Math.inl">
<polygon fill="white" stroke="black" points="1096,-112.5 1096,-131.5 1203,-131.5 1203,-112.5 1096,-112.5"/>
<text text-anchor="middle" x="1149.5" y="-119.5" font-family="Helvetica,sans-Serif" font-size="10.00">Core/Math/Math.inl</text>
</a>
</g>
</g>
<!-- Node26&#45;&gt;Node29 -->
<g id="edge44" class="edge"><title>Node26&#45;&gt;Node29</title>
<path fill="none" stroke="midnightblue" d="M1144.6,-173.975C1142.77,-165.58 1142.3,-152.481 1143.19,-141.663"/>
<polygon fill="midnightblue" stroke="midnightblue" points="1146.69,-141.897 1144.6,-131.509 1139.75,-140.929 1146.69,-141.897"/>
</g>
<!-- Node29&#45;&gt;Node26 -->
<g id="edge45" class="edge"><title>Node29&#45;&gt;Node26</title>
<path fill="none" stroke="midnightblue" d="M1154.4,-131.509C1156.23,-139.898 1156.7,-152.996 1155.82,-163.817"/>
<polygon fill="midnightblue" stroke="midnightblue" points="1152.31,-163.588 1154.4,-173.975 1159.25,-164.554 1152.31,-163.588"/>
</g>
<!-- Node30&#45;&gt;Node23 -->
<g id="edge48" class="edge"><title>Node30&#45;&gt;Node23</title>
<path fill="none" stroke="midnightblue" d="M1256.99,-193.032C1193.72,-204.916 1074.7,-226.429 1001.67,-239.194"/>
<polygon fill="midnightblue" stroke="midnightblue" points="1000.93,-235.77 991.68,-240.936 1002.13,-242.666 1000.93,-235.77"/>
</g>
</g>
</svg>
