<?xml version="1.0" encoding="UTF-8" standalone="no"?>
<!DOCTYPE svg PUBLIC "-//W3C//DTD SVG 1.1//EN"
 "http://www.w3.org/Graphics/SVG/1.1/DTD/svg11.dtd">
<!-- Generated by graphviz version 2.38.0 (20140413.2041)
 -->
<!-- Title: /home/travis/build/STORM&#45;IRIT/Radium&#45;Engine/src/Core/Animation/Skeleton.hpp Pages: 1 -->
<svg width="1452pt" height="395pt"
 viewBox="0.00 0.00 1452.00 395.00" xmlns="http://www.w3.org/2000/svg" xmlns:xlink="http://www.w3.org/1999/xlink">
<g id="graph0" class="graph" transform="scale(1 1) rotate(0) translate(4 391)">
<title>/home/travis/build/STORM&#45;IRIT/Radium&#45;Engine/src/Core/Animation/Skeleton.hpp</title>
<polygon fill="white" stroke="none" points="-4,4 -4,-391 1448,-391 1448,4 -4,4"/>
<!-- Node1 -->
<g id="node1" class="node"><title>Node1</title>
<polygon fill="#bfbfbf" stroke="black" points="668.5,-345.5 668.5,-386.5 845.5,-386.5 845.5,-345.5 668.5,-345.5"/>
<text text-anchor="start" x="676.5" y="-374.5" font-family="Helvetica,sans-Serif" font-size="10.00">/home/travis/build</text>
<text text-anchor="start" x="676.5" y="-363.5" font-family="Helvetica,sans-Serif" font-size="10.00">/STORM&#45;IRIT/Radium&#45;Engine</text>
<text text-anchor="middle" x="757" y="-352.5" font-family="Helvetica,sans-Serif" font-size="10.00">/src/Core/Animation/Skeleton.hpp</text>
</g>
<!-- Node2 -->
<g id="node2" class="node"><title>Node2</title>
<g id="a_node2"><a xlink:href="Skeleton_8cpp.html" target="_top" xlink:title="/home/travis/build\l/STORM&#45;IRIT/Radium&#45;Engine\l/src/Core/Animation/Skeleton.cpp">
<polygon fill="white" stroke="black" points="159,-262 159,-303 335,-303 335,-262 159,-262"/>
<text text-anchor="start" x="167" y="-291" font-family="Helvetica,sans-Serif" font-size="10.00">/home/travis/build</text>
<text text-anchor="start" x="167" y="-280" font-family="Helvetica,sans-Serif" font-size="10.00">/STORM&#45;IRIT/Radium&#45;Engine</text>
<text text-anchor="middle" x="247" y="-269" font-family="Helvetica,sans-Serif" font-size="10.00">/src/Core/Animation/Skeleton.cpp</text>
</a>
</g>
</g>
<!-- Node1&#45;&gt;Node2 -->
<g id="edge1" class="edge"><title>Node1&#45;&gt;Node2</title>
<path fill="none" stroke="midnightblue" d="M658.217,-355.042C574.196,-345.754 450.564,-330.149 344,-309 335.29,-307.271 326.2,-305.219 317.228,-303.041"/>
<polygon fill="midnightblue" stroke="midnightblue" points="657.941,-358.533 668.263,-356.144 658.704,-351.575 657.941,-358.533"/>
</g>
<!-- Node3 -->
<g id="node3" class="node"><title>Node3</title>
<g id="a_node3"><a xlink:href="SkinningData_8hpp.html" target="_top" xlink:title="/home/travis/build\l/STORM&#45;IRIT/Radium&#45;Engine\l/src/Core/Animation/SkinningData.hpp">
<polygon fill="white" stroke="black" points="353.5,-262 353.5,-303 552.5,-303 552.5,-262 353.5,-262"/>
<text text-anchor="start" x="361.5" y="-291" font-family="Helvetica,sans-Serif" font-size="10.00">/home/travis/build</text>
<text text-anchor="start" x="361.5" y="-280" font-family="Helvetica,sans-Serif" font-size="10.00">/STORM&#45;IRIT/Radium&#45;Engine</text>
<text text-anchor="middle" x="453" y="-269" font-family="Helvetica,sans-Serif" font-size="10.00">/src/Core/Animation/SkinningData.hpp</text>
</a>
</g>
</g>
<!-- Node1&#45;&gt;Node3 -->
<g id="edge2" class="edge"><title>Node1&#45;&gt;Node3</title>
<path fill="none" stroke="midnightblue" d="M674.447,-342.868C627.988,-330.413 570.504,-315.002 525.748,-303.003"/>
<polygon fill="midnightblue" stroke="midnightblue" points="673.619,-346.27 684.184,-345.479 675.432,-339.509 673.619,-346.27"/>
</g>
<!-- Node11 -->
<g id="node11" class="node"><title>Node11</title>
<g id="a_node11"><a xlink:href="StretchableTwistableBoneSkinning_8hpp.html" target="_top" xlink:title="/home/travis/build\l/STORM&#45;IRIT/Radium&#45;Engine\l/src/Core/Animation/Stretchable\lTwistableBoneSkinning.hpp">
<polygon fill="white" stroke="black" points="571,-256.5 571,-308.5 741,-308.5 741,-256.5 571,-256.5"/>
<text text-anchor="start" x="579" y="-296.5" font-family="Helvetica,sans-Serif" font-size="10.00">/home/travis/build</text>
<text text-anchor="start" x="579" y="-285.5" font-family="Helvetica,sans-Serif" font-size="10.00">/STORM&#45;IRIT/Radium&#45;Engine</text>
<text text-anchor="start" x="579" y="-274.5" font-family="Helvetica,sans-Serif" font-size="10.00">/src/Core/Animation/Stretchable</text>
<text text-anchor="middle" x="656" y="-263.5" font-family="Helvetica,sans-Serif" font-size="10.00">TwistableBoneSkinning.hpp</text>
</a>
</g>
</g>
<!-- Node1&#45;&gt;Node11 -->
<g id="edge12" class="edge"><title>Node1&#45;&gt;Node11</title>
<path fill="none" stroke="midnightblue" d="M724.791,-339.01C712.785,-329.322 699.184,-318.347 687.264,-308.728"/>
<polygon fill="midnightblue" stroke="midnightblue" points="722.828,-341.923 732.808,-345.479 727.224,-336.475 722.828,-341.923"/>
</g>
<!-- Node13 -->
<g id="node13" class="node"><title>Node13</title>
<g id="a_node13"><a xlink:href="HandleToSkeleton_8cpp.html" target="_top" xlink:title="/home/travis/build\l/STORM&#45;IRIT/Radium&#45;Engine\l/src/Core/Asset/HandleToSkeleton.cpp">
<polygon fill="white" stroke="black" points="759,-262 759,-303 957,-303 957,-262 759,-262"/>
<text text-anchor="start" x="767" y="-291" font-family="Helvetica,sans-Serif" font-size="10.00">/home/travis/build</text>
<text text-anchor="start" x="767" y="-280" font-family="Helvetica,sans-Serif" font-size="10.00">/STORM&#45;IRIT/Radium&#45;Engine</text>
<text text-anchor="middle" x="858" y="-269" font-family="Helvetica,sans-Serif" font-size="10.00">/src/Core/Asset/HandleToSkeleton.cpp</text>
</a>
</g>
</g>
<!-- Node1&#45;&gt;Node13 -->
<g id="edge15" class="edge"><title>Node1&#45;&gt;Node13</title>
<path fill="none" stroke="midnightblue" d="M789.351,-338.895C803.724,-327.297 820.36,-313.873 833.655,-303.144"/>
<polygon fill="midnightblue" stroke="midnightblue" points="786.776,-336.475 781.192,-345.479 791.172,-341.923 786.776,-336.475"/>
</g>
<!-- Node14 -->
<g id="node14" class="node"><title>Node14</title>
<g id="a_node14"><a xlink:href="AnimationComponent_8hpp.html" target="_top" xlink:title="/home/travis/build\l/STORM&#45;IRIT/Radium&#45;Engine\l/Plugins/Animation/src/Animation\lComponent.hpp">
<polygon fill="white" stroke="black" points="975,-256.5 975,-308.5 1149,-308.5 1149,-256.5 975,-256.5"/>
<text text-anchor="start" x="983" y="-296.5" font-family="Helvetica,sans-Serif" font-size="10.00">/home/travis/build</text>
<text text-anchor="start" x="983" y="-285.5" font-family="Helvetica,sans-Serif" font-size="10.00">/STORM&#45;IRIT/Radium&#45;Engine</text>
<text text-anchor="start" x="983" y="-274.5" font-family="Helvetica,sans-Serif" font-size="10.00">/Plugins/Animation/src/Animation</text>
<text text-anchor="middle" x="1062" y="-263.5" font-family="Helvetica,sans-Serif" font-size="10.00">Component.hpp</text>
</a>
</g>
</g>
<!-- Node1&#45;&gt;Node14 -->
<g id="edge16" class="edge"><title>Node1&#45;&gt;Node14</title>
<path fill="none" stroke="midnightblue" d="M839.936,-342.838C881.771,-331.659 932.495,-318.105 974.897,-306.775"/>
<polygon fill="midnightblue" stroke="midnightblue" points="838.813,-339.516 830.055,-345.479 840.62,-346.278 838.813,-339.516"/>
</g>
<!-- Node17 -->
<g id="node17" class="node"><title>Node17</title>
<g id="a_node17"><a xlink:href="SkeletonBoneDrawable_8hpp.html" target="_top" xlink:title="/home/travis/build\l/STORM&#45;IRIT/Radium&#45;Engine\l/Plugins/Animation/src/Drawing\l/SkeletonBoneDrawable.hpp">
<polygon fill="white" stroke="black" points="1093,-167.5 1093,-219.5 1257,-219.5 1257,-167.5 1093,-167.5"/>
<text text-anchor="start" x="1101" y="-207.5" font-family="Helvetica,sans-Serif" font-size="10.00">/home/travis/build</text>
<text text-anchor="start" x="1101" y="-196.5" font-family="Helvetica,sans-Serif" font-size="10.00">/STORM&#45;IRIT/Radium&#45;Engine</text>
<text text-anchor="start" x="1101" y="-185.5" font-family="Helvetica,sans-Serif" font-size="10.00">/Plugins/Animation/src/Drawing</text>
<text text-anchor="middle" x="1175" y="-174.5" font-family="Helvetica,sans-Serif" font-size="10.00">/SkeletonBoneDrawable.hpp</text>
</a>
</g>
</g>
<!-- Node1&#45;&gt;Node17 -->
<g id="edge23" class="edge"><title>Node1&#45;&gt;Node17</title>
<path fill="none" stroke="midnightblue" d="M855.984,-364.319C960.764,-361.392 1116.63,-350.01 1158,-309 1181.26,-285.938 1181.79,-245.824 1179.11,-219.723"/>
<polygon fill="midnightblue" stroke="midnightblue" points="855.6,-360.828 845.693,-364.584 855.78,-367.825 855.6,-360.828"/>
</g>
<!-- Node4 -->
<g id="node4" class="node"><title>Node4</title>
<g id="a_node4"><a xlink:href="RotationCenterSkinning_8hpp.html" target="_top" xlink:title="/home/travis/build\l/STORM&#45;IRIT/Radium&#45;Engine\l/src/Core/Animation/RotationCenter\lSkinning.hpp">
<polygon fill="white" stroke="black" points="443.5,-167.5 443.5,-219.5 628.5,-219.5 628.5,-167.5 443.5,-167.5"/>
<text text-anchor="start" x="451.5" y="-207.5" font-family="Helvetica,sans-Serif" font-size="10.00">/home/travis/build</text>
<text text-anchor="start" x="451.5" y="-196.5" font-family="Helvetica,sans-Serif" font-size="10.00">/STORM&#45;IRIT/Radium&#45;Engine</text>
<text text-anchor="start" x="451.5" y="-185.5" font-family="Helvetica,sans-Serif" font-size="10.00">/src/Core/Animation/RotationCenter</text>
<text text-anchor="middle" x="536" y="-174.5" font-family="Helvetica,sans-Serif" font-size="10.00">Skinning.hpp</text>
</a>
</g>
</g>
<!-- Node3&#45;&gt;Node4 -->
<g id="edge3" class="edge"><title>Node3&#45;&gt;Node4</title>
<path fill="none" stroke="midnightblue" d="M478.841,-254.414C489.386,-243.36 501.512,-230.65 511.874,-219.788"/>
<polygon fill="midnightblue" stroke="midnightblue" points="476.204,-252.107 471.834,-261.758 481.269,-256.939 476.204,-252.107"/>
</g>
<!-- Node7 -->
<g id="node7" class="node"><title>Node7</title>
<g id="a_node7"><a xlink:href="SkinningDisplayComponent_8hpp.html" target="_top" xlink:title="/home/travis/build\l/STORM&#45;IRIT/Radium&#45;Engine\l/Plugins/Skinning/src/Display\l/SkinningDisplayComponent.hpp">
<polygon fill="white" stroke="black" points="0,-167.5 0,-219.5 172,-219.5 172,-167.5 0,-167.5"/>
<text text-anchor="start" x="8" y="-207.5" font-family="Helvetica,sans-Serif" font-size="10.00">/home/travis/build</text>
<text text-anchor="start" x="8" y="-196.5" font-family="Helvetica,sans-Serif" font-size="10.00">/STORM&#45;IRIT/Radium&#45;Engine</text>
<text text-anchor="start" x="8" y="-185.5" font-family="Helvetica,sans-Serif" font-size="10.00">/Plugins/Skinning/src/Display</text>
<text text-anchor="middle" x="86" y="-174.5" font-family="Helvetica,sans-Serif" font-size="10.00">/SkinningDisplayComponent.hpp</text>
</a>
</g>
</g>
<!-- Node3&#45;&gt;Node7 -->
<g id="edge6" class="edge"><title>Node3&#45;&gt;Node7</title>
<path fill="none" stroke="midnightblue" d="M360.143,-259.694C354.683,-258.438 349.271,-257.199 344,-256 271.656,-239.55 253.067,-237.621 181,-220 178.097,-219.29 175.147,-218.558 172.17,-217.811"/>
<polygon fill="midnightblue" stroke="midnightblue" points="359.473,-263.132 370.004,-261.97 361.047,-256.311 359.473,-263.132"/>
</g>
<!-- Node10 -->
<g id="node10" class="node"><title>Node10</title>
<g id="a_node10"><a xlink:href="SkinningComponent_8hpp.html" target="_top" xlink:title="/home/travis/build\l/STORM&#45;IRIT/Radium&#45;Engine\l/Plugins/Skinning/src/SkinningComponent.hpp">
<polygon fill="white" stroke="black" points="190.5,-173 190.5,-214 425.5,-214 425.5,-173 190.5,-173"/>
<text text-anchor="start" x="198.5" y="-202" font-family="Helvetica,sans-Serif" font-size="10.00">/home/travis/build</text>
<text text-anchor="start" x="198.5" y="-191" font-family="Helvetica,sans-Serif" font-size="10.00">/STORM&#45;IRIT/Radium&#45;Engine</text>
<text text-anchor="middle" x="308" y="-180" font-family="Helvetica,sans-Serif" font-size="10.00">/Plugins/Skinning/src/SkinningComponent.hpp</text>
</a>
</g>
</g>
<!-- Node3&#45;&gt;Node10 -->
<g id="edge9" class="edge"><title>Node3&#45;&gt;Node10</title>
<path fill="none" stroke="midnightblue" d="M411.776,-256.765C389.242,-243.245 361.72,-226.732 340.683,-214.11"/>
<polygon fill="midnightblue" stroke="midnightblue" points="410.083,-259.832 420.459,-261.976 413.685,-253.829 410.083,-259.832"/>
</g>
<!-- Node5 -->
<g id="node5" class="node"><title>Node5</title>
<g id="a_node5"><a xlink:href="RotationCenterSkinning_8cpp.html" target="_top" xlink:title="/home/travis/build\l/STORM&#45;IRIT/Radium&#45;Engine\l/src/Core/Animation/RotationCenter\lSkinning.cpp">
<polygon fill="white" stroke="black" points="568.5,-78.5 568.5,-130.5 753.5,-130.5 753.5,-78.5 568.5,-78.5"/>
<text text-anchor="start" x="576.5" y="-118.5" font-family="Helvetica,sans-Serif" font-size="10.00">/home/travis/build</text>
<text text-anchor="start" x="576.5" y="-107.5" font-family="Helvetica,sans-Serif" font-size="10.00">/STORM&#45;IRIT/Radium&#45;Engine</text>
<text text-anchor="start" x="576.5" y="-96.5" font-family="Helvetica,sans-Serif" font-size="10.00">/src/Core/Animation/RotationCenter</text>
<text text-anchor="middle" x="661" y="-85.5" font-family="Helvetica,sans-Serif" font-size="10.00">Skinning.cpp</text>
</a>
</g>
</g>
<!-- Node4&#45;&gt;Node5 -->
<g id="edge4" class="edge"><title>Node4&#45;&gt;Node5</title>
<path fill="none" stroke="midnightblue" d="M580.535,-161.503C595.093,-151.371 611.071,-140.25 624.926,-130.607"/>
<polygon fill="midnightblue" stroke="midnightblue" points="578.363,-158.751 572.155,-167.336 582.362,-164.496 578.363,-158.751"/>
</g>
<!-- Node6 -->
<g id="node6" class="node"><title>Node6</title>
<g id="a_node6"><a xlink:href="SkinningComponent_8cpp.html" target="_top" xlink:title="/home/travis/build\l/STORM&#45;IRIT/Radium&#45;Engine\l/Plugins/Skinning/src/SkinningComponent.cpp">
<polygon fill="white" stroke="black" points="316,-84 316,-125 550,-125 550,-84 316,-84"/>
<text text-anchor="start" x="324" y="-113" font-family="Helvetica,sans-Serif" font-size="10.00">/home/travis/build</text>
<text text-anchor="start" x="324" y="-102" font-family="Helvetica,sans-Serif" font-size="10.00">/STORM&#45;IRIT/Radium&#45;Engine</text>
<text text-anchor="middle" x="433" y="-91" font-family="Helvetica,sans-Serif" font-size="10.00">/Plugins/Skinning/src/SkinningComponent.cpp</text>
</a>
</g>
</g>
<!-- Node4&#45;&gt;Node6 -->
<g id="edge5" class="edge"><title>Node4&#45;&gt;Node6</title>
<path fill="none" stroke="midnightblue" d="M498.526,-160.847C484.361,-148.882 468.663,-135.623 456.183,-125.082"/>
<polygon fill="midnightblue" stroke="midnightblue" points="496.31,-163.557 506.208,-167.336 500.827,-158.209 496.31,-163.557"/>
</g>
<!-- Node8 -->
<g id="node8" class="node"><title>Node8</title>
<g id="a_node8"><a xlink:href="SkinningSystem_8hpp.html" target="_top" xlink:title="/home/travis/build\l/STORM&#45;IRIT/Radium&#45;Engine\l/Plugins/Skinning/src/SkinningSystem.hpp">
<polygon fill="white" stroke="black" points="30.5,-84 30.5,-125 245.5,-125 245.5,-84 30.5,-84"/>
<text text-anchor="start" x="38.5" y="-113" font-family="Helvetica,sans-Serif" font-size="10.00">/home/travis/build</text>
<text text-anchor="start" x="38.5" y="-102" font-family="Helvetica,sans-Serif" font-size="10.00">/STORM&#45;IRIT/Radium&#45;Engine</text>
<text text-anchor="middle" x="138" y="-91" font-family="Helvetica,sans-Serif" font-size="10.00">/Plugins/Skinning/src/SkinningSystem.hpp</text>
</a>
</g>
</g>
<!-- Node7&#45;&gt;Node8 -->
<g id="edge7" class="edge"><title>Node7&#45;&gt;Node8</title>
<path fill="none" stroke="midnightblue" d="M106.318,-158.506C113.091,-147.175 120.404,-134.94 126.296,-125.082"/>
<polygon fill="midnightblue" stroke="midnightblue" points="103.167,-156.957 101.041,-167.336 109.175,-160.548 103.167,-156.957"/>
</g>
<!-- Node9 -->
<g id="node9" class="node"><title>Node9</title>
<g id="a_node9"><a xlink:href="SkinningPlugin_8cpp.html" target="_top" xlink:title="/home/travis/build\l/STORM&#45;IRIT/Radium&#45;Engine\l/Plugins/Skinning/src/SkinningPlugin.cpp">
<polygon fill="white" stroke="black" points="35,-0.5 35,-41.5 241,-41.5 241,-0.5 35,-0.5"/>
<text text-anchor="start" x="43" y="-29.5" font-family="Helvetica,sans-Serif" font-size="10.00">/home/travis/build</text>
<text text-anchor="start" x="43" y="-18.5" font-family="Helvetica,sans-Serif" font-size="10.00">/STORM&#45;IRIT/Radium&#45;Engine</text>
<text text-anchor="middle" x="138" y="-7.5" font-family="Helvetica,sans-Serif" font-size="10.00">/Plugins/Skinning/src/SkinningPlugin.cpp</text>
</a>
</g>
</g>
<!-- Node8&#45;&gt;Node9 -->
<g id="edge8" class="edge"><title>Node8&#45;&gt;Node9</title>
<path fill="none" stroke="midnightblue" d="M138,-73.5646C138,-62.8819 138,-51.1303 138,-41.5472"/>
<polygon fill="midnightblue" stroke="midnightblue" points="134.5,-73.7711 138,-83.7711 141.5,-73.7712 134.5,-73.7711"/>
</g>
<!-- Node10&#45;&gt;Node6 -->
<g id="edge10" class="edge"><title>Node10&#45;&gt;Node6</title>
<path fill="none" stroke="midnightblue" d="M344.284,-167.246C363.491,-153.878 386.733,-137.702 404.609,-125.26"/>
<polygon fill="midnightblue" stroke="midnightblue" points="342.261,-164.39 336.052,-172.976 346.26,-170.136 342.261,-164.39"/>
</g>
<!-- Node10&#45;&gt;Node8 -->
<g id="edge11" class="edge"><title>Node10&#45;&gt;Node8</title>
<path fill="none" stroke="midnightblue" d="M260.717,-168.302C234.107,-154.684 201.31,-137.9 176.318,-125.11"/>
<polygon fill="midnightblue" stroke="midnightblue" points="259.352,-171.535 269.849,-172.976 262.541,-165.304 259.352,-171.535"/>
</g>
<!-- Node11&#45;&gt;Node6 -->
<g id="edge14" class="edge"><title>Node11&#45;&gt;Node6</title>
<path fill="none" stroke="midnightblue" d="M659.294,-246.257C659.659,-221.252 655.86,-188.451 637,-167 622.345,-150.332 576.605,-135.777 532.142,-125.016"/>
<polygon fill="midnightblue" stroke="midnightblue" points="655.79,-246.317 658.914,-256.44 662.785,-246.577 655.79,-246.317"/>
</g>
<!-- Node12 -->
<g id="node12" class="node"><title>Node12</title>
<g id="a_node12"><a xlink:href="StretchableTwistableBoneSkinning_8cpp.html" target="_top" xlink:title="/home/travis/build\l/STORM&#45;IRIT/Radium&#45;Engine\l/src/Core/Animation/Stretchable\lTwistableBoneSkinning.cpp">
<polygon fill="white" stroke="black" points="684,-167.5 684,-219.5 854,-219.5 854,-167.5 684,-167.5"/>
<text text-anchor="start" x="692" y="-207.5" font-family="Helvetica,sans-Serif" font-size="10.00">/home/travis/build</text>
<text text-anchor="start" x="692" y="-196.5" font-family="Helvetica,sans-Serif" font-size="10.00">/STORM&#45;IRIT/Radium&#45;Engine</text>
<text text-anchor="start" x="692" y="-185.5" font-family="Helvetica,sans-Serif" font-size="10.00">/src/Core/Animation/Stretchable</text>
<text text-anchor="middle" x="769" y="-174.5" font-family="Helvetica,sans-Serif" font-size="10.00">TwistableBoneSkinning.cpp</text>
</a>
</g>
</g>
<!-- Node11&#45;&gt;Node12 -->
<g id="edge13" class="edge"><title>Node11&#45;&gt;Node12</title>
<path fill="none" stroke="midnightblue" d="M696.629,-250.219C709.69,-240.164 723.981,-229.16 736.389,-219.607"/>
<polygon fill="midnightblue" stroke="midnightblue" points="694.473,-247.462 688.684,-256.336 698.743,-253.009 694.473,-247.462"/>
</g>
<!-- Node15 -->
<g id="node15" class="node"><title>Node15</title>
<g id="a_node15"><a xlink:href="AnimationComponent_8cpp.html" target="_top" xlink:title="/home/travis/build\l/STORM&#45;IRIT/Radium&#45;Engine\l/Plugins/Animation/src/Animation\lComponent.cpp">
<polygon fill="white" stroke="black" points="896,-78.5 896,-130.5 1070,-130.5 1070,-78.5 896,-78.5"/>
<text text-anchor="start" x="904" y="-118.5" font-family="Helvetica,sans-Serif" font-size="10.00">/home/travis/build</text>
<text text-anchor="start" x="904" y="-107.5" font-family="Helvetica,sans-Serif" font-size="10.00">/STORM&#45;IRIT/Radium&#45;Engine</text>
<text text-anchor="start" x="904" y="-96.5" font-family="Helvetica,sans-Serif" font-size="10.00">/Plugins/Animation/src/Animation</text>
<text text-anchor="middle" x="983" y="-85.5" font-family="Helvetica,sans-Serif" font-size="10.00">Component.cpp</text>
</a>
</g>
</g>
<!-- Node14&#45;&gt;Node15 -->
<g id="edge17" class="edge"><title>Node14&#45;&gt;Node15</title>
<path fill="none" stroke="midnightblue" d="M1046.57,-247.13C1031.22,-212.92 1008.02,-161.231 994.298,-130.67"/>
<polygon fill="midnightblue" stroke="midnightblue" points="1043.39,-248.594 1050.68,-256.283 1049.78,-245.727 1043.39,-248.594"/>
</g>
<!-- Node16 -->
<g id="node16" class="node"><title>Node16</title>
<g id="a_node16"><a xlink:href="AnimationSystem_8cpp.html" target="_top" xlink:title="/home/travis/build\l/STORM&#45;IRIT/Radium&#45;Engine\l/Plugins/Animation/src/Animation\lSystem.cpp">
<polygon fill="white" stroke="black" points="1088,-78.5 1088,-130.5 1262,-130.5 1262,-78.5 1088,-78.5"/>
<text text-anchor="start" x="1096" y="-118.5" font-family="Helvetica,sans-Serif" font-size="10.00">/home/travis/build</text>
<text text-anchor="start" x="1096" y="-107.5" font-family="Helvetica,sans-Serif" font-size="10.00">/STORM&#45;IRIT/Radium&#45;Engine</text>
<text text-anchor="start" x="1096" y="-96.5" font-family="Helvetica,sans-Serif" font-size="10.00">/Plugins/Animation/src/Animation</text>
<text text-anchor="middle" x="1175" y="-85.5" font-family="Helvetica,sans-Serif" font-size="10.00">System.cpp</text>
</a>
</g>
</g>
<!-- Node14&#45;&gt;Node16 -->
<g id="edge18" class="edge"><title>Node14&#45;&gt;Node16</title>
<path fill="none" stroke="midnightblue" d="M1061.89,-246.071C1063.39,-221.998 1068.56,-190.403 1084,-167 1093.77,-152.197 1108.44,-140.033 1123.18,-130.545"/>
<polygon fill="midnightblue" stroke="midnightblue" points="1058.39,-246.069 1061.45,-256.213 1065.38,-246.375 1058.39,-246.069"/>
</g>
<!-- Node14&#45;&gt;Node17 -->
<g id="edge19" class="edge"><title>Node14&#45;&gt;Node17</title>
<path fill="none" stroke="midnightblue" d="M1102.63,-250.219C1115.69,-240.164 1129.98,-229.16 1142.39,-219.607"/>
<polygon fill="midnightblue" stroke="midnightblue" points="1100.47,-247.462 1094.68,-256.336 1104.74,-253.009 1100.47,-247.462"/>
</g>
<!-- Node17&#45;&gt;Node15 -->
<g id="edge20" class="edge"><title>Node17&#45;&gt;Node15</title>
<path fill="none" stroke="midnightblue" d="M1110.55,-163.295C1087.09,-152.665 1060.8,-140.755 1038.22,-130.521"/>
<polygon fill="midnightblue" stroke="midnightblue" points="1109.17,-166.513 1119.72,-167.453 1112.06,-160.137 1109.17,-166.513"/>
</g>
<!-- Node17&#45;&gt;Node16 -->
<g id="edge21" class="edge"><title>Node17&#45;&gt;Node16</title>
<path fill="none" stroke="midnightblue" d="M1175,-157.191C1175,-148.282 1175,-138.899 1175,-130.607"/>
<polygon fill="midnightblue" stroke="midnightblue" points="1171.5,-157.336 1175,-167.336 1178.5,-157.336 1171.5,-157.336"/>
</g>
<!-- Node18 -->
<g id="node18" class="node"><title>Node18</title>
<g id="a_node18"><a xlink:href="SkeletonBoneDrawable_8cpp.html" target="_top" xlink:title="/home/travis/build\l/STORM&#45;IRIT/Radium&#45;Engine\l/Plugins/Animation/src/Drawing\l/SkeletonBoneDrawable.cpp">
<polygon fill="white" stroke="black" points="1280,-78.5 1280,-130.5 1444,-130.5 1444,-78.5 1280,-78.5"/>
<text text-anchor="start" x="1288" y="-118.5" font-family="Helvetica,sans-Serif" font-size="10.00">/home/travis/build</text>
<text text-anchor="start" x="1288" y="-107.5" font-family="Helvetica,sans-Serif" font-size="10.00">/STORM&#45;IRIT/Radium&#45;Engine</text>
<text text-anchor="start" x="1288" y="-96.5" font-family="Helvetica,sans-Serif" font-size="10.00">/Plugins/Animation/src/Drawing</text>
<text text-anchor="middle" x="1362" y="-85.5" font-family="Helvetica,sans-Serif" font-size="10.00">/SkeletonBoneDrawable.cpp</text>
</a>
</g>
</g>
<!-- Node17&#45;&gt;Node18 -->
<g id="edge22" class="edge"><title>Node17&#45;&gt;Node18</title>
<path fill="none" stroke="midnightblue" d="M1238.08,-163.153C1260.85,-152.56 1286.32,-140.71 1308.22,-130.521"/>
<polygon fill="midnightblue" stroke="midnightblue" points="1236.43,-160.061 1228.84,-167.453 1239.38,-166.408 1236.43,-160.061"/>
</g>
</g>
</svg>
