<?xml version="1.0" encoding="UTF-8" standalone="no"?>
<!DOCTYPE svg PUBLIC "-//W3C//DTD SVG 1.1//EN"
 "http://www.w3.org/Graphics/SVG/1.1/DTD/svg11.dtd">
<!-- Generated by graphviz version 2.38.0 (20140413.2041)
 -->
<!-- Title: /home/travis/build/STORM&#45;IRIT/Radium&#45;Engine/src/Core/Animation/SkinningData.hpp Pages: 1 -->
<svg width="1573pt" height="475pt"
 viewBox="0.00 0.00 1573.14 475.00" xmlns="http://www.w3.org/2000/svg" xmlns:xlink="http://www.w3.org/1999/xlink">
<g id="graph0" class="graph" transform="scale(1 1) rotate(0) translate(4 471)">
<title>/home/travis/build/STORM&#45;IRIT/Radium&#45;Engine/src/Core/Animation/SkinningData.hpp</title>
<polygon fill="white" stroke="none" points="-4,4 -4,-471 1569.14,-471 1569.14,4 -4,4"/>
<!-- Node1 -->
<g id="node1" class="node"><title>Node1</title>
<polygon fill="#bfbfbf" stroke="black" points="589.637,-425.5 589.637,-466.5 788.637,-466.5 788.637,-425.5 589.637,-425.5"/>
<text text-anchor="start" x="597.637" y="-454.5" font-family="Helvetica,sans-Serif" font-size="10.00">/home/travis/build</text>
<text text-anchor="start" x="597.637" y="-443.5" font-family="Helvetica,sans-Serif" font-size="10.00">/STORM&#45;IRIT/Radium&#45;Engine</text>
<text text-anchor="middle" x="689.137" y="-432.5" font-family="Helvetica,sans-Serif" font-size="10.00">/src/Core/Animation/SkinningData.hpp</text>
</g>
<!-- Node2 -->
<g id="node2" class="node"><title>Node2</title>
<g id="a_node2"><a xlink:href="HandleWeight_8hpp.html" target="_top" xlink:title="Core/Animation/HandleWeight.hpp">
<polygon fill="white" stroke="black" points="30.1368,-241 30.1368,-260 210.137,-260 210.137,-241 30.1368,-241"/>
<text text-anchor="middle" x="120.137" y="-248" font-family="Helvetica,sans-Serif" font-size="10.00">Core/Animation/HandleWeight.hpp</text>
</a>
</g>
</g>
<!-- Node1&#45;&gt;Node2 -->
<g id="edge1" class="edge"><title>Node1&#45;&gt;Node2</title>
<path fill="none" stroke="midnightblue" d="M617.765,-425.451C542.97,-404.474 422.355,-369.253 320.137,-333 258.34,-311.083 187.645,-281.079 149.045,-264.264"/>
<polygon fill="midnightblue" stroke="midnightblue" points="150.059,-260.887 139.495,-260.087 147.254,-267.301 150.059,-260.887"/>
</g>
<!-- Node4 -->
<g id="node4" class="node"><title>Node4</title>
<g id="a_node4"><a xlink:href="RaCore_8hpp.html" target="_top" xlink:title="Core/RaCore.hpp">
<polygon fill="white" stroke="black" points="1119.14,-112.5 1119.14,-131.5 1217.14,-131.5 1217.14,-112.5 1119.14,-112.5"/>
<text text-anchor="middle" x="1168.14" y="-119.5" font-family="Helvetica,sans-Serif" font-size="10.00">Core/RaCore.hpp</text>
</a>
</g>
</g>
<!-- Node1&#45;&gt;Node4 -->
<g id="edge59" class="edge"><title>Node1&#45;&gt;Node4</title>
<path fill="none" stroke="midnightblue" d="M788.772,-440.887C1018.37,-430.082 1565.14,-396.195 1565.14,-318.5 1565.14,-318.5 1565.14,-318.5 1565.14,-249.5 1565.14,-210.252 1562.39,-191.735 1531.14,-168 1484.69,-132.732 1318.03,-124.907 1227.57,-123.301"/>
<polygon fill="midnightblue" stroke="midnightblue" points="1227.52,-119.8 1217.46,-123.141 1227.41,-126.799 1227.52,-119.8"/>
</g>
<!-- Node18 -->
<g id="node18" class="node"><title>Node18</title>
<g id="a_node18"><a xlink:href="Pose_8hpp.html" target="_top" xlink:title="Core/Animation/Pose.hpp">
<polygon fill="white" stroke="black" points="468.137,-241 468.137,-260 606.137,-260 606.137,-241 468.137,-241"/>
<text text-anchor="middle" x="537.137" y="-248" font-family="Helvetica,sans-Serif" font-size="10.00">Core/Animation/Pose.hpp</text>
</a>
</g>
</g>
<!-- Node1&#45;&gt;Node18 -->
<g id="edge18" class="edge"><title>Node1&#45;&gt;Node18</title>
<path fill="none" stroke="midnightblue" d="M648.284,-425.492C632.035,-416.197 614.15,-403.842 601.137,-389 569.414,-352.82 550.369,-298.229 542.067,-269.947"/>
<polygon fill="midnightblue" stroke="midnightblue" points="545.397,-268.861 539.324,-260.18 538.658,-270.754 545.397,-268.861"/>
</g>
<!-- Node19 -->
<g id="node19" class="node"><title>Node19</title>
<g id="a_node19"><a xlink:href="Skeleton_8hpp.html" target="_top" xlink:title="Core/Animation/Skeleton.hpp">
<polygon fill="white" stroke="black" points="610.637,-369.5 610.637,-388.5 767.637,-388.5 767.637,-369.5 610.637,-369.5"/>
<text text-anchor="middle" x="689.137" y="-376.5" font-family="Helvetica,sans-Serif" font-size="10.00">Core/Animation/Skeleton.hpp</text>
</a>
</g>
</g>
<!-- Node1&#45;&gt;Node19 -->
<g id="edge20" class="edge"><title>Node1&#45;&gt;Node19</title>
<path fill="none" stroke="midnightblue" d="M689.137,-425.498C689.137,-417.065 689.137,-407.235 689.137,-398.874"/>
<polygon fill="midnightblue" stroke="midnightblue" points="692.637,-398.652 689.137,-388.652 685.637,-398.653 692.637,-398.652"/>
</g>
<!-- Node25 -->
<g id="node25" class="node"><title>Node25</title>
<g id="a_node25"><a xlink:href="TriangleMesh_8hpp.html" target="_top" xlink:title="Core/Geometry/TriangleMesh.hpp">
<polygon fill="white" stroke="black" points="935.137,-369.5 935.137,-388.5 1111.14,-388.5 1111.14,-369.5 935.137,-369.5"/>
<text text-anchor="middle" x="1023.14" y="-376.5" font-family="Helvetica,sans-Serif" font-size="10.00">Core/Geometry/TriangleMesh.hpp</text>
</a>
</g>
</g>
<!-- Node1&#45;&gt;Node25 -->
<g id="edge38" class="edge"><title>Node1&#45;&gt;Node25</title>
<path fill="none" stroke="midnightblue" d="M788.895,-425.586C848.117,-414.061 920.882,-399.9 969.448,-390.448"/>
<polygon fill="midnightblue" stroke="midnightblue" points="970.283,-393.852 979.431,-388.506 968.946,-386.98 970.283,-393.852"/>
</g>
<!-- Node3 -->
<g id="node3" class="node"><title>Node3</title>
<g id="a_node3"><a xlink:href="AlignedStdVector_8hpp.html" target="_top" xlink:title="Core/Containers/AlignedStd\lVector.hpp">
<polygon fill="white" stroke="black" points="327.637,-168.5 327.637,-198.5 476.637,-198.5 476.637,-168.5 327.637,-168.5"/>
<text text-anchor="start" x="335.637" y="-186.5" font-family="Helvetica,sans-Serif" font-size="10.00">Core/Containers/AlignedStd</text>
<text text-anchor="middle" x="402.137" y="-175.5" font-family="Helvetica,sans-Serif" font-size="10.00">Vector.hpp</text>
</a>
</g>
</g>
<!-- Node2&#45;&gt;Node3 -->
<g id="edge2" class="edge"><title>Node2&#45;&gt;Node3</title>
<path fill="none" stroke="midnightblue" d="M157.293,-240.936C201.363,-230.778 275.802,-213.62 331.059,-200.883"/>
<polygon fill="midnightblue" stroke="midnightblue" points="332.183,-204.216 341.142,-198.559 330.611,-197.395 332.183,-204.216"/>
</g>
<!-- Node13 -->
<g id="node13" class="node"><title>Node13</title>
<g id="a_node13"><a xlink:href="Types_8hpp.html" target="_top" xlink:title="Core/Types.hpp">
<polygon fill="white" stroke="black" points="814.637,-174 814.637,-193 903.637,-193 903.637,-174 814.637,-174"/>
<text text-anchor="middle" x="859.137" y="-181" font-family="Helvetica,sans-Serif" font-size="10.00">Core/Types.hpp</text>
</a>
</g>
</g>
<!-- Node2&#45;&gt;Node13 -->
<g id="edge12" class="edge"><title>Node2&#45;&gt;Node13</title>
<path fill="none" stroke="midnightblue" d="M173.744,-240.983C188.434,-238.83 204.378,-236.661 219.137,-235 435.07,-210.695 693.297,-194.121 804.162,-187.599"/>
<polygon fill="midnightblue" stroke="midnightblue" points="804.646,-191.076 814.424,-186.999 804.237,-184.088 804.646,-191.076"/>
</g>
<!-- Node17 -->
<g id="node17" class="node"><title>Node17</title>
<polygon fill="white" stroke="#bfbfbf" points="101.137,-174 101.137,-193 139.137,-193 139.137,-174 101.137,-174"/>
<text text-anchor="middle" x="120.137" y="-181" font-family="Helvetica,sans-Serif" font-size="10.00">map</text>
</g>
<!-- Node2&#45;&gt;Node17 -->
<g id="edge17" class="edge"><title>Node2&#45;&gt;Node17</title>
<path fill="none" stroke="midnightblue" d="M120.137,-240.734C120.137,-231.183 120.137,-215.618 120.137,-203.283"/>
<polygon fill="midnightblue" stroke="midnightblue" points="123.637,-203.127 120.137,-193.127 116.637,-203.127 123.637,-203.127"/>
</g>
<!-- Node3&#45;&gt;Node4 -->
<g id="edge3" class="edge"><title>Node3&#45;&gt;Node4</title>
<path fill="none" stroke="midnightblue" d="M476.704,-178.343C603.929,-170.966 871.026,-154.245 1096.14,-132 1100.3,-131.589 1104.59,-131.133 1108.91,-130.651"/>
<polygon fill="midnightblue" stroke="midnightblue" points="1109.45,-134.111 1118.99,-129.488 1108.65,-127.158 1109.45,-134.111"/>
</g>
<!-- Node11 -->
<g id="node11" class="node"><title>Node11</title>
<polygon fill="white" stroke="#bfbfbf" points="355.637,-112.5 355.637,-131.5 448.637,-131.5 448.637,-112.5 355.637,-112.5"/>
<text text-anchor="middle" x="402.137" y="-119.5" font-family="Helvetica,sans-Serif" font-size="10.00">Eigen/StdVector</text>
</g>
<!-- Node3&#45;&gt;Node11 -->
<g id="edge10" class="edge"><title>Node3&#45;&gt;Node11</title>
<path fill="none" stroke="midnightblue" d="M402.137,-168.399C402.137,-160.466 402.137,-150.458 402.137,-141.858"/>
<polygon fill="midnightblue" stroke="midnightblue" points="405.637,-141.658 402.137,-131.658 398.637,-141.658 405.637,-141.658"/>
</g>
<!-- Node12 -->
<g id="node12" class="node"><title>Node12</title>
<polygon fill="white" stroke="#bfbfbf" points="550.637,-112.5 550.637,-131.5 597.637,-131.5 597.637,-112.5 550.637,-112.5"/>
<text text-anchor="middle" x="574.137" y="-119.5" font-family="Helvetica,sans-Serif" font-size="10.00">vector</text>
</g>
<!-- Node3&#45;&gt;Node12 -->
<g id="edge11" class="edge"><title>Node3&#45;&gt;Node12</title>
<path fill="none" stroke="midnightblue" d="M442.898,-168.399C472.803,-158.054 512.91,-144.18 540.885,-134.503"/>
<polygon fill="midnightblue" stroke="midnightblue" points="542.295,-137.719 550.601,-131.142 540.006,-131.103 542.295,-137.719"/>
</g>
<!-- Node5 -->
<g id="node5" class="node"><title>Node5</title>
<g id="a_node5"><a xlink:href="CoreMacros_8hpp.html" target="_top" xlink:title="Core/CoreMacros.hpp">
<polygon fill="white" stroke="black" points="945.137,-56.5 945.137,-75.5 1065.14,-75.5 1065.14,-56.5 945.137,-56.5"/>
<text text-anchor="middle" x="1005.14" y="-63.5" font-family="Helvetica,sans-Serif" font-size="10.00">Core/CoreMacros.hpp</text>
</a>
</g>
</g>
<!-- Node4&#45;&gt;Node5 -->
<g id="edge4" class="edge"><title>Node4&#45;&gt;Node5</title>
<path fill="none" stroke="midnightblue" d="M1142.31,-112.444C1114.89,-103.359 1071.36,-88.9388 1040.7,-78.7831"/>
<polygon fill="midnightblue" stroke="midnightblue" points="1041.44,-75.3389 1030.84,-75.5164 1039.24,-81.9837 1041.44,-75.3389"/>
</g>
<!-- Node6 -->
<g id="node6" class="node"><title>Node6</title>
<polygon fill="white" stroke="#bfbfbf" points="877.137,-0.5 877.137,-19.5 929.137,-19.5 929.137,-0.5 877.137,-0.5"/>
<text text-anchor="middle" x="903.137" y="-7.5" font-family="Helvetica,sans-Serif" font-size="10.00">cassert</text>
</g>
<!-- Node5&#45;&gt;Node6 -->
<g id="edge5" class="edge"><title>Node5&#45;&gt;Node6</title>
<path fill="none" stroke="midnightblue" d="M988.749,-56.324C972.465,-47.7034 947.269,-34.3643 928.421,-24.3855"/>
<polygon fill="midnightblue" stroke="midnightblue" points="929.96,-21.2402 919.484,-19.6545 926.684,-27.4267 929.96,-21.2402"/>
</g>
<!-- Node7 -->
<g id="node7" class="node"><title>Node7</title>
<polygon fill="white" stroke="#bfbfbf" points="947.637,-0.5 947.637,-19.5 992.637,-19.5 992.637,-0.5 947.637,-0.5"/>
<text text-anchor="middle" x="970.137" y="-7.5" font-family="Helvetica,sans-Serif" font-size="10.00">cstdio</text>
</g>
<!-- Node5&#45;&gt;Node7 -->
<g id="edge6" class="edge"><title>Node5&#45;&gt;Node7</title>
<path fill="none" stroke="midnightblue" d="M999.357,-56.083C994.464,-48.5341 987.309,-37.4948 981.304,-28.2298"/>
<polygon fill="midnightblue" stroke="midnightblue" points="984.185,-26.239 975.809,-19.7511 978.311,-30.0463 984.185,-26.239"/>
</g>
<!-- Node8 -->
<g id="node8" class="node"><title>Node8</title>
<polygon fill="white" stroke="#bfbfbf" points="386.637,-0.5 386.637,-19.5 445.637,-19.5 445.637,-0.5 386.637,-0.5"/>
<text text-anchor="middle" x="416.137" y="-7.5" font-family="Helvetica,sans-Serif" font-size="10.00">iostream</text>
</g>
<!-- Node5&#45;&gt;Node8 -->
<g id="edge7" class="edge"><title>Node5&#45;&gt;Node8</title>
<path fill="none" stroke="midnightblue" d="M944.871,-59.4748C824.522,-48.4411 557.307,-23.9426 456.065,-14.6607"/>
<polygon fill="midnightblue" stroke="midnightblue" points="456.232,-11.1614 445.954,-13.7337 455.593,-18.1321 456.232,-11.1614"/>
</g>
<!-- Node9 -->
<g id="node9" class="node"><title>Node9</title>
<polygon fill="white" stroke="#bfbfbf" points="1011.14,-0.5 1011.14,-19.5 1067.14,-19.5 1067.14,-0.5 1011.14,-0.5"/>
<text text-anchor="middle" x="1039.14" y="-7.5" font-family="Helvetica,sans-Serif" font-size="10.00">sstream</text>
</g>
<!-- Node5&#45;&gt;Node9 -->
<g id="edge8" class="edge"><title>Node5&#45;&gt;Node9</title>
<path fill="none" stroke="midnightblue" d="M1010.75,-56.083C1015.5,-48.5341 1022.45,-37.4948 1028.29,-28.2298"/>
<polygon fill="midnightblue" stroke="midnightblue" points="1031.26,-30.0783 1033.63,-19.7511 1025.34,-26.3486 1031.26,-30.0783"/>
</g>
<!-- Node10 -->
<g id="node10" class="node"><title>Node10</title>
<polygon fill="white" stroke="#bfbfbf" points="1085.14,-0.5 1085.14,-19.5 1133.14,-19.5 1133.14,-0.5 1085.14,-0.5"/>
<text text-anchor="middle" x="1109.14" y="-7.5" font-family="Helvetica,sans-Serif" font-size="10.00">thread</text>
</g>
<!-- Node5&#45;&gt;Node10 -->
<g id="edge9" class="edge"><title>Node5&#45;&gt;Node10</title>
<path fill="none" stroke="midnightblue" d="M1021.85,-56.324C1038.45,-47.7034 1064.14,-34.3643 1083.36,-24.3855"/>
<polygon fill="midnightblue" stroke="midnightblue" points="1085.21,-27.3689 1092.47,-19.6545 1081.98,-21.1565 1085.21,-27.3689"/>
</g>
<!-- Node13&#45;&gt;Node4 -->
<g id="edge13" class="edge"><title>Node13&#45;&gt;Node4</title>
<path fill="none" stroke="midnightblue" d="M888.451,-173.957C896.123,-171.865 904.411,-169.732 912.137,-168 979.012,-153.008 1056.64,-139.967 1108.72,-131.837"/>
<polygon fill="midnightblue" stroke="midnightblue" points="1109.44,-135.268 1118.79,-130.278 1108.37,-128.35 1109.44,-135.268"/>
</g>
<!-- Node14 -->
<g id="node14" class="node"><title>Node14</title>
<polygon fill="white" stroke="#bfbfbf" points="699.137,-112.5 699.137,-131.5 767.137,-131.5 767.137,-112.5 699.137,-112.5"/>
<text text-anchor="middle" x="733.137" y="-119.5" font-family="Helvetica,sans-Serif" font-size="10.00">Eigen/Core</text>
</g>
<!-- Node13&#45;&gt;Node14 -->
<g id="edge14" class="edge"><title>Node13&#45;&gt;Node14</title>
<path fill="none" stroke="midnightblue" d="M841.084,-173.975C819.938,-163.99 784.696,-147.348 760.259,-135.807"/>
<polygon fill="midnightblue" stroke="midnightblue" points="761.693,-132.614 751.156,-131.509 758.704,-138.944 761.693,-132.614"/>
</g>
<!-- Node15 -->
<g id="node15" class="node"><title>Node15</title>
<polygon fill="white" stroke="#bfbfbf" points="883.137,-112.5 883.137,-131.5 977.137,-131.5 977.137,-112.5 883.137,-112.5"/>
<text text-anchor="middle" x="930.137" y="-119.5" font-family="Helvetica,sans-Serif" font-size="10.00">Eigen/Geometry</text>
</g>
<!-- Node13&#45;&gt;Node15 -->
<g id="edge15" class="edge"><title>Node13&#45;&gt;Node15</title>
<path fill="none" stroke="midnightblue" d="M869.309,-173.975C880.487,-164.608 898.653,-149.384 912.228,-138.008"/>
<polygon fill="midnightblue" stroke="midnightblue" points="914.567,-140.615 919.983,-131.509 910.07,-135.25 914.567,-140.615"/>
</g>
<!-- Node16 -->
<g id="node16" class="node"><title>Node16</title>
<polygon fill="white" stroke="#bfbfbf" points="785.137,-112.5 785.137,-131.5 865.137,-131.5 865.137,-112.5 785.137,-112.5"/>
<text text-anchor="middle" x="825.137" y="-119.5" font-family="Helvetica,sans-Serif" font-size="10.00">Eigen/Sparse</text>
</g>
<!-- Node13&#45;&gt;Node16 -->
<g id="edge16" class="edge"><title>Node13&#45;&gt;Node16</title>
<path fill="none" stroke="midnightblue" d="M854.265,-173.975C849.266,-165.227 841.348,-151.369 835.028,-140.309"/>
<polygon fill="midnightblue" stroke="midnightblue" points="837.999,-138.455 829.999,-131.509 831.922,-141.928 837.999,-138.455"/>
</g>
<!-- Node18&#45;&gt;Node3 -->
<g id="edge19" class="edge"><title>Node18&#45;&gt;Node3</title>
<path fill="none" stroke="midnightblue" d="M519.21,-240.869C499.216,-231.242 466.288,-215.388 440.438,-202.942"/>
<polygon fill="midnightblue" stroke="midnightblue" points="441.8,-199.713 431.272,-198.528 438.764,-206.02 441.8,-199.713"/>
</g>
<!-- Node20 -->
<g id="node20" class="node"><title>Node20</title>
<g id="a_node20"><a xlink:href="Handle_8hpp.html" target="_top" xlink:title="Core/Animation/Handle.hpp">
<polygon fill="white" stroke="black" points="660.637,-308 660.637,-327 809.637,-327 809.637,-308 660.637,-308"/>
<text text-anchor="middle" x="735.137" y="-315" font-family="Helvetica,sans-Serif" font-size="10.00">Core/Animation/Handle.hpp</text>
</a>
</g>
</g>
<!-- Node19&#45;&gt;Node20 -->
<g id="edge21" class="edge"><title>Node19&#45;&gt;Node20</title>
<path fill="none" stroke="midnightblue" d="M695.727,-369.475C702.627,-360.55 713.639,-346.307 722.27,-335.143"/>
<polygon fill="midnightblue" stroke="midnightblue" points="725.211,-337.061 728.558,-327.009 719.673,-332.78 725.211,-337.061"/>
</g>
<!-- Node22 -->
<g id="node22" class="node"><title>Node22</title>
<g id="a_node22"><a xlink:href="AdjacencyList_8hpp.html" target="_top" xlink:title="Core/Containers/Adjacency\lList.hpp">
<polygon fill="white" stroke="black" points="329.137,-302.5 329.137,-332.5 475.137,-332.5 475.137,-302.5 329.137,-302.5"/>
<text text-anchor="start" x="337.137" y="-320.5" font-family="Helvetica,sans-Serif" font-size="10.00">Core/Containers/Adjacency</text>
<text text-anchor="middle" x="402.137" y="-309.5" font-family="Helvetica,sans-Serif" font-size="10.00">List.hpp</text>
</a>
</g>
</g>
<!-- Node19&#45;&gt;Node22 -->
<g id="edge27" class="edge"><title>Node19&#45;&gt;Node22</title>
<path fill="none" stroke="midnightblue" d="M648.017,-369.475C604.242,-360.4 533.947,-345.826 479.708,-334.582"/>
<polygon fill="midnightblue" stroke="midnightblue" points="480.279,-331.126 469.777,-332.523 478.858,-337.98 480.279,-331.126"/>
</g>
<!-- Node20&#45;&gt;Node4 -->
<g id="edge23" class="edge"><title>Node20&#45;&gt;Node4</title>
<path fill="none" stroke="midnightblue" d="M782.381,-307.976C849.122,-295.768 964.953,-273.905 983.137,-266 1054.94,-234.787 1123.56,-169.439 1153.03,-139.106"/>
<polygon fill="midnightblue" stroke="midnightblue" points="1155.89,-141.181 1160.28,-131.537 1150.84,-136.34 1155.89,-141.181"/>
</g>
<!-- Node20&#45;&gt;Node13 -->
<g id="edge24" class="edge"><title>Node20&#45;&gt;Node13</title>
<path fill="none" stroke="midnightblue" d="M780.759,-307.995C846.142,-295.591 959.324,-273.228 965.137,-266 989.345,-235.9 937.299,-210.497 897.9,-196.401"/>
<polygon fill="midnightblue" stroke="midnightblue" points="898.805,-193.011 888.21,-193.065 896.526,-199.63 898.805,-193.011"/>
</g>
<!-- Node20&#45;&gt;Node18 -->
<g id="edge22" class="edge"><title>Node20&#45;&gt;Node18</title>
<path fill="none" stroke="midnightblue" d="M708.844,-307.869C673.909,-296.4 612.055,-276.094 572.9,-263.24"/>
<polygon fill="midnightblue" stroke="midnightblue" points="573.816,-259.857 563.223,-260.064 571.632,-266.508 573.816,-259.857"/>
</g>
<!-- Node21 -->
<g id="node21" class="node"><title>Node21</title>
<g id="a_node21"><a xlink:href="Handle_8inl.html" target="_top" xlink:title="Core/Animation/Handle.inl">
<polygon fill="white" stroke="black" points="815.637,-241 815.637,-260 956.637,-260 956.637,-241 815.637,-241"/>
<text text-anchor="middle" x="886.137" y="-248" font-family="Helvetica,sans-Serif" font-size="10.00">Core/Animation/Handle.inl</text>
</a>
</g>
</g>
<!-- Node20&#45;&gt;Node21 -->
<g id="edge25" class="edge"><title>Node20&#45;&gt;Node21</title>
<path fill="none" stroke="midnightblue" d="M750.428,-307.869C774.265,-296.571 820.214,-276.696 852.095,-263.818"/>
<polygon fill="midnightblue" stroke="midnightblue" points="853.508,-267.023 861.497,-260.064 850.912,-260.522 853.508,-267.023"/>
</g>
<!-- Node21&#45;&gt;Node20 -->
<g id="edge26" class="edge"><title>Node21&#45;&gt;Node20</title>
<path fill="none" stroke="midnightblue" d="M870.77,-260.167C846.952,-271.452 801.184,-291.249 769.343,-304.115"/>
<polygon fill="midnightblue" stroke="midnightblue" points="767.936,-300.908 759.948,-307.869 770.533,-307.409 767.936,-300.908"/>
</g>
<!-- Node22&#45;&gt;Node3 -->
<g id="edge28" class="edge"><title>Node22&#45;&gt;Node3</title>
<path fill="none" stroke="midnightblue" d="M402.137,-302.374C402.137,-280.044 402.137,-236.313 402.137,-208.851"/>
<polygon fill="midnightblue" stroke="midnightblue" points="405.637,-208.525 402.137,-198.525 398.637,-208.525 405.637,-208.525"/>
</g>
<!-- Node22&#45;&gt;Node8 -->
<g id="edge35" class="edge"><title>Node22&#45;&gt;Node8</title>
<path fill="none" stroke="midnightblue" d="M329.005,-316.391C231.2,-314.679 64.9961,-305.788 21.1368,-266 -6.41037,-241.01 2.13679,-221.694 2.13679,-184.5 2.13679,-184.5 2.13679,-184.5 2.13679,-121 2.13679,-44.0675 272.544,-19.6385 376.282,-13.0974"/>
<polygon fill="midnightblue" stroke="midnightblue" points="376.593,-16.585 386.363,-12.4853 376.169,-9.59787 376.593,-16.585"/>
</g>
<!-- Node22&#45;&gt;Node14 -->
<g id="edge34" class="edge"><title>Node22&#45;&gt;Node14</title>
<path fill="none" stroke="midnightblue" d="M408.868,-302.235C417.975,-284.312 435.802,-253.649 459.137,-235 529.197,-179.007 631.075,-147.306 688.828,-132.798"/>
<polygon fill="midnightblue" stroke="midnightblue" points="689.858,-136.15 698.737,-130.37 688.192,-129.351 689.858,-136.15"/>
</g>
<!-- Node23 -->
<g id="node23" class="node"><title>Node23</title>
<g id="a_node23"><a xlink:href="VectorArray_8hpp.html" target="_top" xlink:title="Core/Containers/VectorArray.hpp">
<polygon fill="white" stroke="black" points="624.637,-241 624.637,-260 797.637,-260 797.637,-241 624.637,-241"/>
<text text-anchor="middle" x="711.137" y="-248" font-family="Helvetica,sans-Serif" font-size="10.00">Core/Containers/VectorArray.hpp</text>
</a>
</g>
</g>
<!-- Node22&#45;&gt;Node23 -->
<g id="edge29" class="edge"><title>Node22&#45;&gt;Node23</title>
<path fill="none" stroke="midnightblue" d="M468.805,-302.476C526.354,-290.37 608.251,-273.143 660.545,-262.142"/>
<polygon fill="midnightblue" stroke="midnightblue" points="661.528,-265.512 670.593,-260.029 660.087,-258.662 661.528,-265.512"/>
</g>
<!-- Node24 -->
<g id="node24" class="node"><title>Node24</title>
<g id="a_node24"><a xlink:href="AdjacencyList_8inl.html" target="_top" xlink:title="Core/Containers/Adjacency\lList.inl">
<polygon fill="white" stroke="black" points="228.137,-235.5 228.137,-265.5 374.137,-265.5 374.137,-235.5 228.137,-235.5"/>
<text text-anchor="start" x="236.137" y="-253.5" font-family="Helvetica,sans-Serif" font-size="10.00">Core/Containers/Adjacency</text>
<text text-anchor="middle" x="301.137" y="-242.5" font-family="Helvetica,sans-Serif" font-size="10.00">List.inl</text>
</a>
</g>
</g>
<!-- Node22&#45;&gt;Node24 -->
<g id="edge36" class="edge"><title>Node22&#45;&gt;Node24</title>
<path fill="none" stroke="midnightblue" d="M374.543,-302.396C359.329,-293.367 340.709,-281.514 325.956,-271.518"/>
<polygon fill="midnightblue" stroke="midnightblue" points="327.555,-268.37 317.335,-265.577 323.582,-274.133 327.555,-268.37"/>
</g>
<!-- Node23&#45;&gt;Node3 -->
<g id="edge30" class="edge"><title>Node23&#45;&gt;Node3</title>
<path fill="none" stroke="midnightblue" d="M670.423,-240.936C621.833,-230.714 539.551,-213.406 478.892,-200.646"/>
<polygon fill="midnightblue" stroke="midnightblue" points="479.478,-197.193 468.972,-198.559 478.037,-204.043 479.478,-197.193"/>
</g>
<!-- Node23&#45;&gt;Node4 -->
<g id="edge31" class="edge"><title>Node23&#45;&gt;Node4</title>
<path fill="none" stroke="midnightblue" d="M767.035,-240.966C861.059,-226.609 1040.74,-199.16 1041.14,-199 1063.33,-190.065 1064.81,-180.611 1085.14,-168 1103.65,-156.514 1125.31,-144.825 1141.86,-136.239"/>
<polygon fill="midnightblue" stroke="midnightblue" points="1143.66,-139.251 1150.96,-131.568 1140.46,-133.025 1143.66,-139.251"/>
</g>
<!-- Node23&#45;&gt;Node12 -->
<g id="edge33" class="edge"><title>Node23&#45;&gt;Node12</title>
<path fill="none" stroke="midnightblue" d="M701.72,-240.805C678.843,-219.682 620.087,-165.429 590.986,-138.558"/>
<polygon fill="midnightblue" stroke="midnightblue" points="593.341,-135.968 583.619,-131.756 588.592,-141.111 593.341,-135.968"/>
</g>
<!-- Node23&#45;&gt;Node13 -->
<g id="edge32" class="edge"><title>Node23&#45;&gt;Node13</title>
<path fill="none" stroke="midnightblue" d="M730.79,-240.869C756.222,-229.699 800.741,-210.147 830.083,-197.26"/>
<polygon fill="midnightblue" stroke="midnightblue" points="831.654,-200.393 839.402,-193.167 828.839,-193.984 831.654,-200.393"/>
</g>
<!-- Node24&#45;&gt;Node22 -->
<g id="edge37" class="edge"><title>Node24&#45;&gt;Node22</title>
<path fill="none" stroke="midnightblue" d="M328.684,-265.577C343.891,-274.6 362.512,-286.452 377.273,-296.451"/>
<polygon fill="midnightblue" stroke="midnightblue" points="375.679,-299.604 385.9,-302.396 379.651,-293.84 375.679,-299.604"/>
</g>
<!-- Node25&#45;&gt;Node4 -->
<g id="edge43" class="edge"><title>Node25&#45;&gt;Node4</title>
<path fill="none" stroke="midnightblue" d="M1111.14,-374.841C1182.97,-370.338 1286.4,-359.427 1373.14,-333 1436.83,-313.593 1471.71,-322.378 1507.14,-266 1530.31,-229.119 1536.85,-200.758 1508.14,-168 1489.96,-147.255 1319.95,-132.965 1227.44,-126.654"/>
<polygon fill="midnightblue" stroke="midnightblue" points="1227.59,-123.156 1217.38,-125.978 1227.12,-130.14 1227.59,-123.156"/>
</g>
<!-- Node25&#45;&gt;Node13 -->
<g id="edge44" class="edge"><title>Node25&#45;&gt;Node13</title>
<path fill="none" stroke="midnightblue" d="M1023.28,-369.319C1023.19,-344.87 1019.62,-274.646 983.137,-235 971.135,-221.958 929.431,-206.535 897.67,-196.194"/>
<polygon fill="midnightblue" stroke="midnightblue" points="898.349,-192.737 887.758,-193.025 896.217,-199.404 898.349,-192.737"/>
</g>
<!-- Node25&#45;&gt;Node23 -->
<g id="edge39" class="edge"><title>Node25&#45;&gt;Node23</title>
<path fill="none" stroke="midnightblue" d="M934.805,-373.379C830.771,-367.014 669.664,-353.904 651.137,-333 631.52,-310.867 663.641,-282.604 687.943,-265.841"/>
<polygon fill="midnightblue" stroke="midnightblue" points="690.028,-268.659 696.432,-260.219 686.163,-262.823 690.028,-268.659"/>
</g>
<!-- Node26 -->
<g id="node26" class="node"><title>Node26</title>
<g id="a_node26"><a xlink:href="AbstractGeometry_8hpp.html" target="_top" xlink:title="Core/Geometry/AbstractGeometry.hpp">
<polygon fill="white" stroke="black" points="1127.64,-241 1127.64,-260 1328.64,-260 1328.64,-241 1127.64,-241"/>
<text text-anchor="middle" x="1228.14" y="-248" font-family="Helvetica,sans-Serif" font-size="10.00">Core/Geometry/AbstractGeometry.hpp</text>
</a>
</g>
</g>
<!-- Node25&#45;&gt;Node26 -->
<g id="edge40" class="edge"><title>Node25&#45;&gt;Node26</title>
<path fill="none" stroke="midnightblue" d="M1037.23,-369.305C1072.2,-347.723 1163.22,-291.56 1205.69,-265.349"/>
<polygon fill="midnightblue" stroke="midnightblue" points="1207.55,-268.318 1214.22,-260.088 1203.87,-262.361 1207.55,-268.318"/>
</g>
<!-- Node27 -->
<g id="node27" class="node"><title>Node27</title>
<g id="a_node27"><a xlink:href="Attribs_8hpp.html" target="_top" xlink:title="Core/Utils/Attribs.hpp">
<polygon fill="white" stroke="black" points="1245.64,-308 1245.64,-327 1364.64,-327 1364.64,-308 1245.64,-308"/>
<text text-anchor="middle" x="1305.14" y="-315" font-family="Helvetica,sans-Serif" font-size="10.00">Core/Utils/Attribs.hpp</text>
</a>
</g>
</g>
<!-- Node25&#45;&gt;Node27 -->
<g id="edge45" class="edge"><title>Node25&#45;&gt;Node27</title>
<path fill="none" stroke="midnightblue" d="M1063.54,-369.475C1114.01,-358.827 1200.35,-340.609 1254.99,-329.081"/>
<polygon fill="midnightblue" stroke="midnightblue" points="1255.75,-332.498 1264.81,-327.009 1254.3,-325.649 1255.75,-332.498"/>
</g>
<!-- Node31 -->
<g id="node31" class="node"><title>Node31</title>
<g id="a_node31"><a xlink:href="Color_8hpp.html" target="_top" xlink:title="Core/Utils/Color.hpp">
<polygon fill="white" stroke="black" points="921.637,-174 921.637,-193 1032.64,-193 1032.64,-174 921.637,-174"/>
<text text-anchor="middle" x="977.137" y="-181" font-family="Helvetica,sans-Serif" font-size="10.00">Core/Utils/Color.hpp</text>
</a>
</g>
</g>
<!-- Node25&#45;&gt;Node31 -->
<g id="edge52" class="edge"><title>Node25&#45;&gt;Node31</title>
<path fill="none" stroke="midnightblue" d="M1026.87,-369.434C1036.32,-346.418 1058.92,-281.815 1037.14,-235 1029.95,-219.555 1015.45,-207.144 1002.51,-198.49"/>
<polygon fill="midnightblue" stroke="midnightblue" points="1004.24,-195.445 993.908,-193.109 1000.53,-201.38 1004.24,-195.445"/>
</g>
<!-- Node33 -->
<g id="node33" class="node"><title>Node33</title>
<g id="a_node33"><a xlink:href="TriangleMesh_8inl.html" target="_top" xlink:title="Core/Geometry/TriangleMesh.inl">
<polygon fill="white" stroke="black" points="827.137,-308 827.137,-327 995.137,-327 995.137,-308 827.137,-308"/>
<text text-anchor="middle" x="911.137" y="-315" font-family="Helvetica,sans-Serif" font-size="10.00">Core/Geometry/TriangleMesh.inl</text>
</a>
</g>
</g>
<!-- Node25&#45;&gt;Node33 -->
<g id="edge57" class="edge"><title>Node25&#45;&gt;Node33</title>
<path fill="none" stroke="midnightblue" d="M1002.19,-369.475C981.679,-359.711 951.027,-343.581 930.929,-332.081"/>
<polygon fill="midnightblue" stroke="midnightblue" points="932.656,-329.036 922.257,-327.009 929.122,-335.079 932.656,-329.036"/>
</g>
<!-- Node26&#45;&gt;Node4 -->
<g id="edge41" class="edge"><title>Node26&#45;&gt;Node4</title>
<path fill="none" stroke="midnightblue" d="M1224.01,-240.805C1214.29,-220.313 1189.79,-168.645 1176.69,-141.042"/>
<polygon fill="midnightblue" stroke="midnightblue" points="1179.74,-139.291 1172.29,-131.756 1173.41,-142.291 1179.74,-139.291"/>
</g>
<!-- Node26&#45;&gt;Node13 -->
<g id="edge42" class="edge"><title>Node26&#45;&gt;Node13</title>
<path fill="none" stroke="midnightblue" d="M1161.47,-240.989C1097.25,-232.286 997.531,-217.448 912.137,-199 907.486,-197.995 902.636,-196.832 897.841,-195.609"/>
<polygon fill="midnightblue" stroke="midnightblue" points="898.718,-192.221 888.155,-193.05 896.929,-198.989 898.718,-192.221"/>
</g>
<!-- Node27&#45;&gt;Node4 -->
<g id="edge47" class="edge"><title>Node27&#45;&gt;Node4</title>
<path fill="none" stroke="midnightblue" d="M1313.61,-307.613C1327.15,-292.279 1350.83,-260.083 1337.14,-235 1322.96,-209.03 1305.86,-215.257 1281.14,-199 1248.84,-177.764 1211.71,-152.658 1189.09,-137.285"/>
<polygon fill="midnightblue" stroke="midnightblue" points="1190.86,-134.251 1180.62,-131.52 1186.92,-140.039 1190.86,-134.251"/>
</g>
<!-- Node27&#45;&gt;Node23 -->
<g id="edge46" class="edge"><title>Node27&#45;&gt;Node23</title>
<path fill="none" stroke="midnightblue" d="M1245.5,-311.447C1151.79,-303.287 964.433,-286.077 806.137,-266 795.726,-264.68 784.696,-263.133 773.98,-261.55"/>
<polygon fill="midnightblue" stroke="midnightblue" points="774.241,-258.05 763.832,-260.029 773.203,-264.973 774.241,-258.05"/>
</g>
<!-- Node28 -->
<g id="node28" class="node"><title>Node28</title>
<g id="a_node28"><a xlink:href="Index_8hpp.html" target="_top" xlink:title="Core/Utils/Index.hpp">
<polygon fill="white" stroke="black" points="1385.64,-241 1385.64,-260 1498.64,-260 1498.64,-241 1385.64,-241"/>
<text text-anchor="middle" x="1442.14" y="-248" font-family="Helvetica,sans-Serif" font-size="10.00">Core/Utils/Index.hpp</text>
</a>
</g>
</g>
<!-- Node27&#45;&gt;Node28 -->
<g id="edge48" class="edge"><title>Node27&#45;&gt;Node28</title>
<path fill="none" stroke="midnightblue" d="M1323.33,-307.869C1346.67,-296.796 1387.37,-277.486 1414.53,-264.598"/>
<polygon fill="midnightblue" stroke="midnightblue" points="1416.33,-267.616 1423.87,-260.167 1413.33,-261.292 1416.33,-267.616"/>
</g>
<!-- Node28&#45;&gt;Node4 -->
<g id="edge49" class="edge"><title>Node28&#45;&gt;Node4</title>
<path fill="none" stroke="midnightblue" d="M1417.89,-240.923C1393.51,-231.885 1355.17,-216.545 1324.14,-199 1303.63,-187.406 1301.79,-179.332 1281.14,-168 1256.62,-154.551 1227.24,-142.976 1204.58,-134.935"/>
<polygon fill="midnightblue" stroke="midnightblue" points="1205.59,-131.582 1195,-131.602 1203.29,-138.193 1205.59,-131.582"/>
</g>
<!-- Node29 -->
<g id="node29" class="node"><title>Node29</title>
<polygon fill="white" stroke="#bfbfbf" points="1457.14,-174 1457.14,-193 1499.14,-193 1499.14,-174 1457.14,-174"/>
<text text-anchor="middle" x="1478.14" y="-181" font-family="Helvetica,sans-Serif" font-size="10.00">limits</text>
</g>
<!-- Node28&#45;&gt;Node29 -->
<g id="edge50" class="edge"><title>Node28&#45;&gt;Node29</title>
<path fill="none" stroke="midnightblue" d="M1446.99,-240.734C1452.44,-230.89 1461.43,-214.66 1468.36,-202.159"/>
<polygon fill="midnightblue" stroke="midnightblue" points="1471.58,-203.571 1473.36,-193.127 1465.45,-200.179 1471.58,-203.571"/>
</g>
<!-- Node30 -->
<g id="node30" class="node"><title>Node30</title>
<g id="a_node30"><a xlink:href="Index_8inl.html" target="_top" xlink:title="Core/Utils/Index.inl">
<polygon fill="white" stroke="black" points="1333.64,-174 1333.64,-193 1438.64,-193 1438.64,-174 1333.64,-174"/>
<text text-anchor="middle" x="1386.14" y="-181" font-family="Helvetica,sans-Serif" font-size="10.00">Core/Utils/Index.inl</text>
</a>
</g>
</g>
<!-- Node28&#45;&gt;Node30 -->
<g id="edge51" class="edge"><title>Node28&#45;&gt;Node30</title>
<path fill="none" stroke="midnightblue" d="M1434.58,-240.734C1425.85,-230.598 1411.29,-213.69 1400.4,-201.056"/>
<polygon fill="midnightblue" stroke="midnightblue" points="1402.75,-198.419 1393.57,-193.127 1397.45,-202.988 1402.75,-198.419"/>
</g>
<!-- Node31&#45;&gt;Node5 -->
<g id="edge53" class="edge"><title>Node31&#45;&gt;Node5</title>
<path fill="none" stroke="midnightblue" d="M979.241,-173.819C983.761,-155.173 994.484,-110.943 1000.62,-85.6317"/>
<polygon fill="midnightblue" stroke="midnightblue" points="1004.05,-86.3251 1003.01,-75.782 997.25,-84.6759 1004.05,-86.3251"/>
</g>
<!-- Node31&#45;&gt;Node14 -->
<g id="edge54" class="edge"><title>Node31&#45;&gt;Node14</title>
<path fill="none" stroke="midnightblue" d="M942.178,-173.975C898.718,-163.377 824.512,-145.282 777.202,-133.745"/>
<polygon fill="midnightblue" stroke="midnightblue" points="777.789,-130.286 767.245,-131.317 776.131,-137.087 777.789,-130.286"/>
</g>
<!-- Node31&#45;&gt;Node15 -->
<g id="edge55" class="edge"><title>Node31&#45;&gt;Node15</title>
<path fill="none" stroke="midnightblue" d="M970.403,-173.975C963.353,-165.05 952.102,-150.807 943.283,-139.643"/>
<polygon fill="midnightblue" stroke="midnightblue" points="945.803,-137.187 936.858,-131.509 940.31,-141.526 945.803,-137.187"/>
</g>
<!-- Node32 -->
<g id="node32" class="node"><title>Node32</title>
<polygon fill="white" stroke="#bfbfbf" points="1033.14,-112.5 1033.14,-131.5 1087.14,-131.5 1087.14,-112.5 1033.14,-112.5"/>
<text text-anchor="middle" x="1060.14" y="-119.5" font-family="Helvetica,sans-Serif" font-size="10.00">random</text>
</g>
<!-- Node31&#45;&gt;Node32 -->
<g id="edge56" class="edge"><title>Node31&#45;&gt;Node32</title>
<path fill="none" stroke="midnightblue" d="M989.029,-173.975C1002.34,-164.431 1024.14,-148.807 1040.09,-137.368"/>
<polygon fill="midnightblue" stroke="midnightblue" points="1042.18,-140.18 1048.27,-131.509 1038.1,-134.491 1042.18,-140.18"/>
</g>
<!-- Node33&#45;&gt;Node25 -->
<g id="edge58" class="edge"><title>Node33&#45;&gt;Node25</title>
<path fill="none" stroke="midnightblue" d="M932.051,-327.009C952.55,-336.767 983.203,-352.896 1003.31,-364.401"/>
<polygon fill="midnightblue" stroke="midnightblue" points="1001.59,-367.449 1011.99,-369.475 1005.12,-361.406 1001.59,-367.449"/>
</g>
</g>
</svg>
