<?xml version="1.0" encoding="UTF-8" standalone="no"?>
<!DOCTYPE svg PUBLIC "-//W3C//DTD SVG 1.1//EN"
 "http://www.w3.org/Graphics/SVG/1.1/DTD/svg11.dtd">
<!-- Generated by graphviz version 2.38.0 (20140413.2041)
 -->
<!-- Title: /home/travis/build/STORM&#45;IRIT/Radium&#45;Engine/src/Core/Geometry/Spline.hpp Pages: 1 -->
<svg width="849pt" height="341pt"
 viewBox="0.00 0.00 849.00 341.00" xmlns="http://www.w3.org/2000/svg" xmlns:xlink="http://www.w3.org/1999/xlink">
<g id="graph0" class="graph" transform="scale(1 1) rotate(0) translate(4 337)">
<title>/home/travis/build/STORM&#45;IRIT/Radium&#45;Engine/src/Core/Geometry/Spline.hpp</title>
<polygon fill="white" stroke="none" points="-4,4 -4,-337 845,-337 845,4 -4,4"/>
<!-- Node1 -->
<g id="node1" class="node"><title>Node1</title>
<polygon fill="#bfbfbf" stroke="black" points="504,-291.5 504,-332.5 668,-332.5 668,-291.5 504,-291.5"/>
<text text-anchor="start" x="512" y="-320.5" font-family="Helvetica,sans-Serif" font-size="10.00">/home/travis/build</text>
<text text-anchor="start" x="512" y="-309.5" font-family="Helvetica,sans-Serif" font-size="10.00">/STORM&#45;IRIT/Radium&#45;Engine</text>
<text text-anchor="middle" x="586" y="-298.5" font-family="Helvetica,sans-Serif" font-size="10.00">/src/Core/Geometry/Spline.hpp</text>
</g>
<!-- Node2 -->
<g id="node2" class="node"><title>Node2</title>
<g id="a_node2"><a xlink:href="VectorArray_8hpp.html" target="_top" xlink:title="Core/Containers/VectorArray.hpp">
<polygon fill="white" stroke="black" points="359.5,-235.5 359.5,-254.5 532.5,-254.5 532.5,-235.5 359.5,-235.5"/>
<text text-anchor="middle" x="446" y="-242.5" font-family="Helvetica,sans-Serif" font-size="10.00">Core/Containers/VectorArray.hpp</text>
</a>
</g>
</g>
<!-- Node1&#45;&gt;Node2 -->
<g id="edge1" class="edge"><title>Node1&#45;&gt;Node2</title>
<path fill="none" stroke="midnightblue" d="M543.995,-291.498C521.292,-280.957 493.886,-268.233 473.835,-258.923"/>
<polygon fill="midnightblue" stroke="midnightblue" points="475.18,-255.689 464.636,-254.652 472.232,-262.038 475.18,-255.689"/>
</g>
<!-- Node4 -->
<g id="node4" class="node"><title>Node4</title>
<g id="a_node4"><a xlink:href="RaCore_8hpp.html" target="_top" xlink:title="Core/RaCore.hpp">
<polygon fill="white" stroke="black" points="296,-112.5 296,-131.5 394,-131.5 394,-112.5 296,-112.5"/>
<text text-anchor="middle" x="345" y="-119.5" font-family="Helvetica,sans-Serif" font-size="10.00">Core/RaCore.hpp</text>
</a>
</g>
</g>
<!-- Node1&#45;&gt;Node4 -->
<g id="edge19" class="edge"><title>Node1&#45;&gt;Node4</title>
<path fill="none" stroke="midnightblue" d="M503.869,-301.742C444.049,-293.189 370.117,-278.243 350,-255 322.574,-223.312 331.755,-169.602 339.256,-141.457"/>
<polygon fill="midnightblue" stroke="midnightblue" points="342.659,-142.29 342.065,-131.712 335.932,-140.351 342.659,-142.29"/>
</g>
<!-- Node12 -->
<g id="node12" class="node"><title>Node12</title>
<polygon fill="white" stroke="#bfbfbf" points="523.5,-112.5 523.5,-131.5 570.5,-131.5 570.5,-112.5 523.5,-112.5"/>
<text text-anchor="middle" x="547" y="-119.5" font-family="Helvetica,sans-Serif" font-size="10.00">vector</text>
</g>
<!-- Node1&#45;&gt;Node12 -->
<g id="edge20" class="edge"><title>Node1&#45;&gt;Node12</title>
<path fill="none" stroke="midnightblue" d="M581.9,-291.236C574.347,-254.827 558.331,-177.623 550.917,-141.883"/>
<polygon fill="midnightblue" stroke="midnightblue" points="554.292,-140.922 548.834,-131.841 547.438,-142.343 554.292,-140.922"/>
</g>
<!-- Node17 -->
<g id="node17" class="node"><title>Node17</title>
<g id="a_node17"><a xlink:href="Spline_8inl.html" target="_top" xlink:title="Core/Geometry/Spline.inl">
<polygon fill="white" stroke="black" points="614,-235.5 614,-254.5 750,-254.5 750,-235.5 614,-235.5"/>
<text text-anchor="middle" x="682" y="-242.5" font-family="Helvetica,sans-Serif" font-size="10.00">Core/Geometry/Spline.inl</text>
</a>
</g>
</g>
<!-- Node1&#45;&gt;Node17 -->
<g id="edge21" class="edge"><title>Node1&#45;&gt;Node17</title>
<path fill="none" stroke="midnightblue" d="M608.558,-291.498C622.728,-281.34 640.921,-269.155 655.735,-259.952"/>
<polygon fill="midnightblue" stroke="midnightblue" points="657.728,-262.837 664.456,-254.652 654.093,-256.855 657.728,-262.837"/>
</g>
<!-- Node3 -->
<g id="node3" class="node"><title>Node3</title>
<g id="a_node3"><a xlink:href="AlignedStdVector_8hpp.html" target="_top" xlink:title="Core/Containers/AlignedStd\lVector.hpp">
<polygon fill="white" stroke="black" points="371.5,-168.5 371.5,-198.5 520.5,-198.5 520.5,-168.5 371.5,-168.5"/>
<text text-anchor="start" x="379.5" y="-186.5" font-family="Helvetica,sans-Serif" font-size="10.00">Core/Containers/AlignedStd</text>
<text text-anchor="middle" x="446" y="-175.5" font-family="Helvetica,sans-Serif" font-size="10.00">Vector.hpp</text>
</a>
</g>
</g>
<!-- Node2&#45;&gt;Node3 -->
<g id="edge2" class="edge"><title>Node2&#45;&gt;Node3</title>
<path fill="none" stroke="midnightblue" d="M446,-235.475C446,-228.471 446,-218.192 446,-208.696"/>
<polygon fill="midnightblue" stroke="midnightblue" points="449.5,-208.523 446,-198.523 442.5,-208.523 449.5,-208.523"/>
</g>
<!-- Node2&#45;&gt;Node4 -->
<g id="edge12" class="edge"><title>Node2&#45;&gt;Node4</title>
<path fill="none" stroke="midnightblue" d="M416.903,-235.418C398.465,-228.499 375.608,-216.918 362,-199 349.509,-182.553 345.872,-158.675 344.97,-142.09"/>
<polygon fill="midnightblue" stroke="midnightblue" points="348.465,-141.859 344.707,-131.953 341.467,-142.041 348.465,-141.859"/>
</g>
<!-- Node2&#45;&gt;Node12 -->
<g id="edge18" class="edge"><title>Node2&#45;&gt;Node12</title>
<path fill="none" stroke="midnightblue" d="M474.283,-235.429C492.541,-228.466 515.351,-216.832 529,-199 541.589,-182.553 545.563,-158.675 546.721,-142.089"/>
<polygon fill="midnightblue" stroke="midnightblue" points="550.224,-142.091 547.144,-131.953 543.23,-141.799 550.224,-142.091"/>
</g>
<!-- Node13 -->
<g id="node13" class="node"><title>Node13</title>
<g id="a_node13"><a xlink:href="Types_8hpp.html" target="_top" xlink:title="Core/Types.hpp">
<polygon fill="white" stroke="black" points="186.5,-174 186.5,-193 275.5,-193 275.5,-174 186.5,-174"/>
<text text-anchor="middle" x="231" y="-181" font-family="Helvetica,sans-Serif" font-size="10.00">Core/Types.hpp</text>
</a>
</g>
</g>
<!-- Node2&#45;&gt;Node13 -->
<g id="edge13" class="edge"><title>Node2&#45;&gt;Node13</title>
<path fill="none" stroke="midnightblue" d="M415.196,-235.475C377.438,-225.026 313.339,-207.287 271.591,-195.733"/>
<polygon fill="midnightblue" stroke="midnightblue" points="272.318,-192.303 261.747,-193.009 270.451,-199.05 272.318,-192.303"/>
</g>
<!-- Node3&#45;&gt;Node4 -->
<g id="edge3" class="edge"><title>Node3&#45;&gt;Node4</title>
<path fill="none" stroke="midnightblue" d="M422.064,-168.399C405.875,-158.862 384.593,-146.325 368.497,-136.842"/>
<polygon fill="midnightblue" stroke="midnightblue" points="370.089,-133.718 359.696,-131.658 366.536,-139.749 370.089,-133.718"/>
</g>
<!-- Node11 -->
<g id="node11" class="node"><title>Node11</title>
<polygon fill="white" stroke="#bfbfbf" points="411.5,-112.5 411.5,-131.5 504.5,-131.5 504.5,-112.5 411.5,-112.5"/>
<text text-anchor="middle" x="458" y="-119.5" font-family="Helvetica,sans-Serif" font-size="10.00">Eigen/StdVector</text>
</g>
<!-- Node3&#45;&gt;Node11 -->
<g id="edge10" class="edge"><title>Node3&#45;&gt;Node11</title>
<path fill="none" stroke="midnightblue" d="M448.844,-168.399C450.462,-160.377 452.508,-150.233 454.255,-141.569"/>
<polygon fill="midnightblue" stroke="midnightblue" points="457.708,-142.152 456.254,-131.658 450.846,-140.768 457.708,-142.152"/>
</g>
<!-- Node3&#45;&gt;Node12 -->
<g id="edge11" class="edge"><title>Node3&#45;&gt;Node12</title>
<path fill="none" stroke="midnightblue" d="M469.936,-168.399C486.125,-158.862 507.407,-146.325 523.503,-136.842"/>
<polygon fill="midnightblue" stroke="midnightblue" points="525.464,-139.749 532.304,-131.658 521.911,-133.718 525.464,-139.749"/>
</g>
<!-- Node5 -->
<g id="node5" class="node"><title>Node5</title>
<g id="a_node5"><a xlink:href="CoreMacros_8hpp.html" target="_top" xlink:title="Core/CoreMacros.hpp">
<polygon fill="white" stroke="black" points="285,-56.5 285,-75.5 405,-75.5 405,-56.5 285,-56.5"/>
<text text-anchor="middle" x="345" y="-63.5" font-family="Helvetica,sans-Serif" font-size="10.00">Core/CoreMacros.hpp</text>
</a>
</g>
</g>
<!-- Node4&#45;&gt;Node5 -->
<g id="edge4" class="edge"><title>Node4&#45;&gt;Node5</title>
<path fill="none" stroke="midnightblue" d="M345,-112.083C345,-105.006 345,-94.8611 345,-85.9865"/>
<polygon fill="midnightblue" stroke="midnightblue" points="348.5,-85.751 345,-75.7511 341.5,-85.7511 348.5,-85.751"/>
</g>
<!-- Node6 -->
<g id="node6" class="node"><title>Node6</title>
<polygon fill="white" stroke="#bfbfbf" points="182,-0.5 182,-19.5 234,-19.5 234,-0.5 182,-0.5"/>
<text text-anchor="middle" x="208" y="-7.5" font-family="Helvetica,sans-Serif" font-size="10.00">cassert</text>
</g>
<!-- Node5&#45;&gt;Node6 -->
<g id="edge5" class="edge"><title>Node5&#45;&gt;Node6</title>
<path fill="none" stroke="midnightblue" d="M323.292,-56.4435C300.645,-47.5171 264.928,-33.4387 239.248,-23.3168"/>
<polygon fill="midnightblue" stroke="midnightblue" points="240.193,-19.9273 229.606,-19.5164 237.626,-26.4397 240.193,-19.9273"/>
</g>
<!-- Node7 -->
<g id="node7" class="node"><title>Node7</title>
<polygon fill="white" stroke="#bfbfbf" points="252.5,-0.5 252.5,-19.5 297.5,-19.5 297.5,-0.5 252.5,-0.5"/>
<text text-anchor="middle" x="275" y="-7.5" font-family="Helvetica,sans-Serif" font-size="10.00">cstdio</text>
</g>
<!-- Node5&#45;&gt;Node7 -->
<g id="edge6" class="edge"><title>Node5&#45;&gt;Node7</title>
<path fill="none" stroke="midnightblue" d="M333.753,-56.324C323.203,-48.1849 307.199,-35.8395 294.558,-26.0874"/>
<polygon fill="midnightblue" stroke="midnightblue" points="296.507,-23.1707 286.451,-19.8339 292.231,-28.7132 296.507,-23.1707"/>
</g>
<!-- Node8 -->
<g id="node8" class="node"><title>Node8</title>
<polygon fill="white" stroke="#bfbfbf" points="315.5,-0.5 315.5,-19.5 374.5,-19.5 374.5,-0.5 315.5,-0.5"/>
<text text-anchor="middle" x="345" y="-7.5" font-family="Helvetica,sans-Serif" font-size="10.00">iostream</text>
</g>
<!-- Node5&#45;&gt;Node8 -->
<g id="edge7" class="edge"><title>Node5&#45;&gt;Node8</title>
<path fill="none" stroke="midnightblue" d="M345,-56.083C345,-49.0059 345,-38.8611 345,-29.9865"/>
<polygon fill="midnightblue" stroke="midnightblue" points="348.5,-29.751 345,-19.7511 341.5,-29.7511 348.5,-29.751"/>
</g>
<!-- Node9 -->
<g id="node9" class="node"><title>Node9</title>
<polygon fill="white" stroke="#bfbfbf" points="393,-0.5 393,-19.5 449,-19.5 449,-0.5 393,-0.5"/>
<text text-anchor="middle" x="421" y="-7.5" font-family="Helvetica,sans-Serif" font-size="10.00">sstream</text>
</g>
<!-- Node5&#45;&gt;Node9 -->
<g id="edge8" class="edge"><title>Node5&#45;&gt;Node9</title>
<path fill="none" stroke="midnightblue" d="M357.211,-56.324C368.776,-48.1066 386.375,-35.6017 400.161,-25.8069"/>
<polygon fill="midnightblue" stroke="midnightblue" points="402.443,-28.4791 408.567,-19.8339 398.388,-22.7729 402.443,-28.4791"/>
</g>
<!-- Node10 -->
<g id="node10" class="node"><title>Node10</title>
<polygon fill="white" stroke="#bfbfbf" points="467,-0.5 467,-19.5 515,-19.5 515,-0.5 467,-0.5"/>
<text text-anchor="middle" x="491" y="-7.5" font-family="Helvetica,sans-Serif" font-size="10.00">thread</text>
</g>
<!-- Node5&#45;&gt;Node10 -->
<g id="edge9" class="edge"><title>Node5&#45;&gt;Node10</title>
<path fill="none" stroke="midnightblue" d="M368.134,-56.4435C392.482,-47.4381 431.007,-33.1891 458.423,-23.049"/>
<polygon fill="midnightblue" stroke="midnightblue" points="459.809,-26.2681 467.974,-19.5164 457.381,-19.7028 459.809,-26.2681"/>
</g>
<!-- Node13&#45;&gt;Node4 -->
<g id="edge14" class="edge"><title>Node13&#45;&gt;Node4</title>
<path fill="none" stroke="midnightblue" d="M247.333,-173.975C266.211,-164.122 297.507,-147.788 319.576,-136.27"/>
<polygon fill="midnightblue" stroke="midnightblue" points="321.451,-139.239 328.697,-131.509 318.212,-133.033 321.451,-139.239"/>
</g>
<!-- Node14 -->
<g id="node14" class="node"><title>Node14</title>
<polygon fill="white" stroke="#bfbfbf" points="98,-112.5 98,-131.5 166,-131.5 166,-112.5 98,-112.5"/>
<text text-anchor="middle" x="132" y="-119.5" font-family="Helvetica,sans-Serif" font-size="10.00">Eigen/Core</text>
</g>
<!-- Node13&#45;&gt;Node14 -->
<g id="edge15" class="edge"><title>Node13&#45;&gt;Node14</title>
<path fill="none" stroke="midnightblue" d="M216.816,-173.975C200.642,-164.255 173.974,-148.227 154.857,-136.737"/>
<polygon fill="midnightblue" stroke="midnightblue" points="156.532,-133.661 146.158,-131.509 152.926,-139.66 156.532,-133.661"/>
</g>
<!-- Node15 -->
<g id="node15" class="node"><title>Node15</title>
<polygon fill="white" stroke="#bfbfbf" points="184,-112.5 184,-131.5 278,-131.5 278,-112.5 184,-112.5"/>
<text text-anchor="middle" x="231" y="-119.5" font-family="Helvetica,sans-Serif" font-size="10.00">Eigen/Geometry</text>
</g>
<!-- Node13&#45;&gt;Node15 -->
<g id="edge16" class="edge"><title>Node13&#45;&gt;Node15</title>
<path fill="none" stroke="midnightblue" d="M231,-173.975C231,-165.58 231,-152.481 231,-141.663"/>
<polygon fill="midnightblue" stroke="midnightblue" points="234.5,-141.509 231,-131.509 227.5,-141.509 234.5,-141.509"/>
</g>
<!-- Node16 -->
<g id="node16" class="node"><title>Node16</title>
<polygon fill="white" stroke="#bfbfbf" points="0,-112.5 0,-131.5 80,-131.5 80,-112.5 0,-112.5"/>
<text text-anchor="middle" x="40" y="-119.5" font-family="Helvetica,sans-Serif" font-size="10.00">Eigen/Sparse</text>
</g>
<!-- Node13&#45;&gt;Node16 -->
<g id="edge17" class="edge"><title>Node13&#45;&gt;Node16</title>
<path fill="none" stroke="midnightblue" d="M203.634,-173.975C170.446,-163.636 114.349,-146.161 77.2424,-134.602"/>
<polygon fill="midnightblue" stroke="midnightblue" points="77.9033,-131.142 67.3149,-131.509 75.8214,-137.825 77.9033,-131.142"/>
</g>
<!-- Node17&#45;&gt;Node1 -->
<g id="edge22" class="edge"><title>Node17&#45;&gt;Node1</title>
<path fill="none" stroke="midnightblue" d="M673.985,-254.652C663.912,-262.621 646.472,-274.842 629.71,-285.869"/>
<polygon fill="midnightblue" stroke="midnightblue" points="627.526,-283.114 621.048,-291.498 631.341,-288.983 627.526,-283.114"/>
</g>
<!-- Node18 -->
<g id="node18" class="node"><title>Node18</title>
<g id="a_node18"><a xlink:href="Math_8hpp.html" target="_top" xlink:title="Core/Math/Math.hpp">
<polygon fill="white" stroke="black" points="620,-174 620,-193 734,-193 734,-174 620,-174"/>
<text text-anchor="middle" x="677" y="-181" font-family="Helvetica,sans-Serif" font-size="10.00">Core/Math/Math.hpp</text>
</a>
</g>
</g>
<!-- Node17&#45;&gt;Node18 -->
<g id="edge23" class="edge"><title>Node17&#45;&gt;Node18</title>
<path fill="none" stroke="midnightblue" d="M681.284,-235.475C680.578,-227.08 679.477,-213.981 678.568,-203.163"/>
<polygon fill="midnightblue" stroke="midnightblue" points="682.04,-202.681 677.715,-193.009 675.065,-203.267 682.04,-202.681"/>
</g>
<!-- Node19 -->
<g id="node19" class="node"><title>Node19</title>
<polygon fill="white" stroke="#bfbfbf" points="779,-112.5 779,-131.5 841,-131.5 841,-112.5 779,-112.5"/>
<text text-anchor="middle" x="810" y="-119.5" font-family="Helvetica,sans-Serif" font-size="10.00">algorithm</text>
</g>
<!-- Node17&#45;&gt;Node19 -->
<g id="edge29" class="edge"><title>Node17&#45;&gt;Node19</title>
<path fill="none" stroke="midnightblue" d="M695.235,-235.442C708.028,-226.898 727.672,-213.05 743,-199 763.568,-180.147 784.371,-155.478 797.221,-139.439"/>
<polygon fill="midnightblue" stroke="midnightblue" points="800.034,-141.524 803.489,-131.509 794.543,-137.184 800.034,-141.524"/>
</g>
<!-- Node18&#45;&gt;Node4 -->
<g id="edge24" class="edge"><title>Node18&#45;&gt;Node4</title>
<path fill="none" stroke="midnightblue" d="M629.432,-173.975C569.524,-163.239 466.675,-144.806 402.444,-133.295"/>
<polygon fill="midnightblue" stroke="midnightblue" points="402.94,-129.828 392.479,-131.509 401.705,-136.718 402.94,-129.828"/>
</g>
<!-- Node18&#45;&gt;Node19 -->
<g id="edge25" class="edge"><title>Node18&#45;&gt;Node19</title>
<path fill="none" stroke="midnightblue" d="M696.056,-173.975C718.475,-163.945 755.905,-147.2 781.713,-135.655"/>
<polygon fill="midnightblue" stroke="midnightblue" points="783.281,-138.788 790.98,-131.509 780.422,-132.398 783.281,-138.788"/>
</g>
<!-- Node20 -->
<g id="node20" class="node"><title>Node20</title>
<polygon fill="white" stroke="#bfbfbf" points="713.5,-112.5 713.5,-131.5 760.5,-131.5 760.5,-112.5 713.5,-112.5"/>
<text text-anchor="middle" x="737" y="-119.5" font-family="Helvetica,sans-Serif" font-size="10.00">cmath</text>
</g>
<!-- Node18&#45;&gt;Node20 -->
<g id="edge26" class="edge"><title>Node18&#45;&gt;Node20</title>
<path fill="none" stroke="midnightblue" d="M685.597,-173.975C694.864,-164.785 709.817,-149.956 721.212,-138.656"/>
<polygon fill="midnightblue" stroke="midnightblue" points="723.783,-141.036 728.419,-131.509 718.854,-136.065 723.783,-141.036"/>
</g>
<!-- Node21 -->
<g id="node21" class="node"><title>Node21</title>
<g id="a_node21"><a xlink:href="Math_8inl.html" target="_top" xlink:title="Core/Math/Math.inl">
<polygon fill="white" stroke="black" points="588.5,-112.5 588.5,-131.5 695.5,-131.5 695.5,-112.5 588.5,-112.5"/>
<text text-anchor="middle" x="642" y="-119.5" font-family="Helvetica,sans-Serif" font-size="10.00">Core/Math/Math.inl</text>
</a>
</g>
</g>
<!-- Node18&#45;&gt;Node21 -->
<g id="edge27" class="edge"><title>Node18&#45;&gt;Node21</title>
<path fill="none" stroke="midnightblue" d="M667.085,-173.975C660.173,-165.404 651.794,-151.927 646.321,-140.983"/>
<polygon fill="midnightblue" stroke="midnightblue" points="649.37,-139.224 642.108,-131.509 642.974,-142.069 649.37,-139.224"/>
</g>
<!-- Node21&#45;&gt;Node18 -->
<g id="edge28" class="edge"><title>Node21&#45;&gt;Node18</title>
<path fill="none" stroke="midnightblue" d="M651.902,-131.509C658.812,-140.075 667.193,-153.55 672.669,-164.497"/>
<polygon fill="midnightblue" stroke="midnightblue" points="669.623,-166.262 676.886,-173.975 676.018,-163.416 669.623,-166.262"/>
</g>
</g>
</svg>
