<?xml version="1.0" encoding="UTF-8" standalone="no"?>
<!DOCTYPE svg PUBLIC "-//W3C//DTD SVG 1.1//EN"
 "http://www.w3.org/Graphics/SVG/1.1/DTD/svg11.dtd">
<!-- Generated by graphviz version 2.38.0 (20140413.2041)
 -->
<!-- Title: /home/travis/build/STORM&#45;IRIT/Radium&#45;Engine/src/Engine/Renderer/Light/SpotLight.hpp Pages: 1 -->
<svg width="1089pt" height="419pt"
 viewBox="0.00 0.00 1089.00 419.00" xmlns="http://www.w3.org/2000/svg" xmlns:xlink="http://www.w3.org/1999/xlink">
<g id="graph0" class="graph" transform="scale(1 1) rotate(0) translate(4 415)">
<title>/home/travis/build/STORM&#45;IRIT/Radium&#45;Engine/src/Engine/Renderer/Light/SpotLight.hpp</title>
<polygon fill="white" stroke="none" points="-4,4 -4,-415 1085,-415 1085,4 -4,4"/>
<!-- Node1 -->
<g id="node1" class="node"><title>Node1</title>
<polygon fill="#bfbfbf" stroke="black" points="776.5,-358.5 776.5,-410.5 924.5,-410.5 924.5,-358.5 776.5,-358.5"/>
<text text-anchor="start" x="784.5" y="-398.5" font-family="Helvetica,sans-Serif" font-size="10.00">/home/travis/build</text>
<text text-anchor="start" x="784.5" y="-387.5" font-family="Helvetica,sans-Serif" font-size="10.00">/STORM&#45;IRIT/Radium&#45;Engine</text>
<text text-anchor="start" x="784.5" y="-376.5" font-family="Helvetica,sans-Serif" font-size="10.00">/src/Engine/Renderer/Light</text>
<text text-anchor="middle" x="850.5" y="-365.5" font-family="Helvetica,sans-Serif" font-size="10.00">/SpotLight.hpp</text>
</g>
<!-- Node2 -->
<g id="node2" class="node"><title>Node2</title>
<g id="a_node2"><a xlink:href="RaEngine_8hpp.html" target="_top" xlink:title="Engine/RaEngine.hpp">
<polygon fill="white" stroke="black" points="787,-168.5 787,-187.5 904,-187.5 904,-168.5 787,-168.5"/>
<text text-anchor="middle" x="845.5" y="-175.5" font-family="Helvetica,sans-Serif" font-size="10.00">Engine/RaEngine.hpp</text>
</a>
</g>
</g>
<!-- Node1&#45;&gt;Node2 -->
<g id="edge1" class="edge"><title>Node1&#45;&gt;Node2</title>
<path fill="none" stroke="midnightblue" d="M873.449,-358.377C899.861,-326.252 936.674,-269.357 912.5,-224 904.95,-209.834 890.739,-199.335 877.342,-192.058"/>
<polygon fill="midnightblue" stroke="midnightblue" points="878.798,-188.872 868.288,-187.529 875.666,-195.133 878.798,-188.872"/>
</g>
<!-- Node9 -->
<g id="node9" class="node"><title>Node9</title>
<g id="a_node9"><a xlink:href="Math_8hpp.html" target="_top" xlink:title="Core/Math/Math.hpp">
<polygon fill="white" stroke="black" points="713.5,-297 713.5,-316 827.5,-316 827.5,-297 713.5,-297"/>
<text text-anchor="middle" x="770.5" y="-304" font-family="Helvetica,sans-Serif" font-size="10.00">Core/Math/Math.hpp</text>
</a>
</g>
</g>
<!-- Node1&#45;&gt;Node9 -->
<g id="edge8" class="edge"><title>Node1&#45;&gt;Node9</title>
<path fill="none" stroke="midnightblue" d="M823.861,-358.193C811.691,-346.632 797.657,-333.299 787.036,-323.209"/>
<polygon fill="midnightblue" stroke="midnightblue" points="789.328,-320.559 779.667,-316.209 784.507,-325.634 789.328,-320.559"/>
</g>
<!-- Node14 -->
<g id="node14" class="node"><title>Node14</title>
<g id="a_node14"><a xlink:href="Light_8hpp.html" target="_top" xlink:title="Engine/Renderer/Light\l/Light.hpp">
<polygon fill="white" stroke="black" points="436,-291.5 436,-321.5 557,-321.5 557,-291.5 436,-291.5"/>
<text text-anchor="start" x="444" y="-309.5" font-family="Helvetica,sans-Serif" font-size="10.00">Engine/Renderer/Light</text>
<text text-anchor="middle" x="496.5" y="-298.5" font-family="Helvetica,sans-Serif" font-size="10.00">/Light.hpp</text>
</a>
</g>
</g>
<!-- Node1&#45;&gt;Node14 -->
<g id="edge15" class="edge"><title>Node1&#45;&gt;Node14</title>
<path fill="none" stroke="midnightblue" d="M776.29,-367.568C714.642,-354.333 627.534,-335.632 566.952,-322.625"/>
<polygon fill="midnightblue" stroke="midnightblue" points="567.601,-319.185 557.089,-320.508 566.132,-326.029 567.601,-319.185"/>
</g>
<!-- Node28 -->
<g id="node28" class="node"><title>Node28</title>
<g id="a_node28"><a xlink:href="SpotLight_8inl.html" target="_top" xlink:title="Engine/Renderer/Light\l/SpotLight.inl">
<polygon fill="white" stroke="black" points="960,-291.5 960,-321.5 1081,-321.5 1081,-291.5 960,-291.5"/>
<text text-anchor="start" x="968" y="-309.5" font-family="Helvetica,sans-Serif" font-size="10.00">Engine/Renderer/Light</text>
<text text-anchor="middle" x="1020.5" y="-298.5" font-family="Helvetica,sans-Serif" font-size="10.00">/SpotLight.inl</text>
</a>
</g>
</g>
<!-- Node1&#45;&gt;Node28 -->
<g id="edge39" class="edge"><title>Node1&#45;&gt;Node28</title>
<path fill="none" stroke="midnightblue" d="M906.635,-358.404C930.393,-347.783 957.564,-335.636 979.405,-325.872"/>
<polygon fill="midnightblue" stroke="midnightblue" points="981.021,-328.983 988.722,-321.707 978.164,-322.593 981.021,-328.983"/>
</g>
<!-- Node3 -->
<g id="node3" class="node"><title>Node3</title>
<g id="a_node3"><a xlink:href="CoreMacros_8hpp.html" target="_top" xlink:title="Core/CoreMacros.hpp">
<polygon fill="white" stroke="black" points="528.5,-56.5 528.5,-75.5 648.5,-75.5 648.5,-56.5 528.5,-56.5"/>
<text text-anchor="middle" x="588.5" y="-63.5" font-family="Helvetica,sans-Serif" font-size="10.00">Core/CoreMacros.hpp</text>
</a>
</g>
</g>
<!-- Node2&#45;&gt;Node3 -->
<g id="edge2" class="edge"><title>Node2&#45;&gt;Node3</title>
<path fill="none" stroke="midnightblue" d="M846.238,-168.42C846.925,-154.462 846.056,-126.901 830.5,-112 806.347,-88.8627 721.25,-77.1956 658.769,-71.6223"/>
<polygon fill="midnightblue" stroke="midnightblue" points="658.822,-68.1141 648.559,-70.7473 658.224,-75.0885 658.822,-68.1141"/>
</g>
<!-- Node4 -->
<g id="node4" class="node"><title>Node4</title>
<polygon fill="white" stroke="#bfbfbf" points="425.5,-0.5 425.5,-19.5 477.5,-19.5 477.5,-0.5 425.5,-0.5"/>
<text text-anchor="middle" x="451.5" y="-7.5" font-family="Helvetica,sans-Serif" font-size="10.00">cassert</text>
</g>
<!-- Node3&#45;&gt;Node4 -->
<g id="edge3" class="edge"><title>Node3&#45;&gt;Node4</title>
<path fill="none" stroke="midnightblue" d="M566.792,-56.4435C544.145,-47.5171 508.428,-33.4387 482.748,-23.3168"/>
<polygon fill="midnightblue" stroke="midnightblue" points="483.693,-19.9273 473.106,-19.5164 481.126,-26.4397 483.693,-19.9273"/>
</g>
<!-- Node5 -->
<g id="node5" class="node"><title>Node5</title>
<polygon fill="white" stroke="#bfbfbf" points="496,-0.5 496,-19.5 541,-19.5 541,-0.5 496,-0.5"/>
<text text-anchor="middle" x="518.5" y="-7.5" font-family="Helvetica,sans-Serif" font-size="10.00">cstdio</text>
</g>
<!-- Node3&#45;&gt;Node5 -->
<g id="edge4" class="edge"><title>Node3&#45;&gt;Node5</title>
<path fill="none" stroke="midnightblue" d="M577.253,-56.324C566.703,-48.1849 550.699,-35.8395 538.058,-26.0874"/>
<polygon fill="midnightblue" stroke="midnightblue" points="540.007,-23.1707 529.951,-19.8339 535.731,-28.7132 540.007,-23.1707"/>
</g>
<!-- Node6 -->
<g id="node6" class="node"><title>Node6</title>
<polygon fill="white" stroke="#bfbfbf" points="559,-0.5 559,-19.5 618,-19.5 618,-0.5 559,-0.5"/>
<text text-anchor="middle" x="588.5" y="-7.5" font-family="Helvetica,sans-Serif" font-size="10.00">iostream</text>
</g>
<!-- Node3&#45;&gt;Node6 -->
<g id="edge5" class="edge"><title>Node3&#45;&gt;Node6</title>
<path fill="none" stroke="midnightblue" d="M588.5,-56.083C588.5,-49.0059 588.5,-38.8611 588.5,-29.9865"/>
<polygon fill="midnightblue" stroke="midnightblue" points="592,-29.751 588.5,-19.7511 585,-29.7511 592,-29.751"/>
</g>
<!-- Node7 -->
<g id="node7" class="node"><title>Node7</title>
<polygon fill="white" stroke="#bfbfbf" points="636.5,-0.5 636.5,-19.5 692.5,-19.5 692.5,-0.5 636.5,-0.5"/>
<text text-anchor="middle" x="664.5" y="-7.5" font-family="Helvetica,sans-Serif" font-size="10.00">sstream</text>
</g>
<!-- Node3&#45;&gt;Node7 -->
<g id="edge6" class="edge"><title>Node3&#45;&gt;Node7</title>
<path fill="none" stroke="midnightblue" d="M600.711,-56.324C612.276,-48.1066 629.875,-35.6017 643.661,-25.8069"/>
<polygon fill="midnightblue" stroke="midnightblue" points="645.943,-28.4791 652.067,-19.8339 641.888,-22.7729 645.943,-28.4791"/>
</g>
<!-- Node8 -->
<g id="node8" class="node"><title>Node8</title>
<polygon fill="white" stroke="#bfbfbf" points="710.5,-0.5 710.5,-19.5 758.5,-19.5 758.5,-0.5 710.5,-0.5"/>
<text text-anchor="middle" x="734.5" y="-7.5" font-family="Helvetica,sans-Serif" font-size="10.00">thread</text>
</g>
<!-- Node3&#45;&gt;Node8 -->
<g id="edge7" class="edge"><title>Node3&#45;&gt;Node8</title>
<path fill="none" stroke="midnightblue" d="M611.634,-56.4435C635.982,-47.4381 674.507,-33.1891 701.923,-23.049"/>
<polygon fill="midnightblue" stroke="midnightblue" points="703.309,-26.2681 711.474,-19.5164 700.881,-19.7028 703.309,-26.2681"/>
</g>
<!-- Node10 -->
<g id="node10" class="node"><title>Node10</title>
<g id="a_node10"><a xlink:href="RaCore_8hpp.html" target="_top" xlink:title="Core/RaCore.hpp">
<polygon fill="white" stroke="black" points="539.5,-112.5 539.5,-131.5 637.5,-131.5 637.5,-112.5 539.5,-112.5"/>
<text text-anchor="middle" x="588.5" y="-119.5" font-family="Helvetica,sans-Serif" font-size="10.00">Core/RaCore.hpp</text>
</a>
</g>
</g>
<!-- Node9&#45;&gt;Node10 -->
<g id="edge9" class="edge"><title>Node9&#45;&gt;Node10</title>
<path fill="none" stroke="midnightblue" d="M724.984,-296.948C698.015,-289.795 664.852,-277.074 642.5,-255 610.448,-223.347 596.68,-170.016 591.396,-141.806"/>
<polygon fill="midnightblue" stroke="midnightblue" points="594.803,-140.966 589.67,-131.698 587.903,-142.145 594.803,-140.966"/>
</g>
<!-- Node11 -->
<g id="node11" class="node"><title>Node11</title>
<polygon fill="white" stroke="#bfbfbf" points="841.5,-230 841.5,-249 903.5,-249 903.5,-230 841.5,-230"/>
<text text-anchor="middle" x="872.5" y="-237" font-family="Helvetica,sans-Serif" font-size="10.00">algorithm</text>
</g>
<!-- Node9&#45;&gt;Node11 -->
<g id="edge11" class="edge"><title>Node9&#45;&gt;Node11</title>
<path fill="none" stroke="midnightblue" d="M784.256,-296.734C801.232,-285.916 830.314,-267.383 850.427,-254.566"/>
<polygon fill="midnightblue" stroke="midnightblue" points="852.41,-257.453 858.962,-249.127 848.648,-251.55 852.41,-257.453"/>
</g>
<!-- Node12 -->
<g id="node12" class="node"><title>Node12</title>
<polygon fill="white" stroke="#bfbfbf" points="652,-230 652,-249 699,-249 699,-230 652,-230"/>
<text text-anchor="middle" x="675.5" y="-237" font-family="Helvetica,sans-Serif" font-size="10.00">cmath</text>
</g>
<!-- Node9&#45;&gt;Node12 -->
<g id="edge12" class="edge"><title>Node9&#45;&gt;Node12</title>
<path fill="none" stroke="midnightblue" d="M757.688,-296.734C742.019,-286.013 715.278,-267.716 696.566,-254.914"/>
<polygon fill="midnightblue" stroke="midnightblue" points="698.339,-251.886 688.109,-249.127 694.386,-257.663 698.339,-251.886"/>
</g>
<!-- Node13 -->
<g id="node13" class="node"><title>Node13</title>
<g id="a_node13"><a xlink:href="Math_8inl.html" target="_top" xlink:title="Core/Math/Math.inl">
<polygon fill="white" stroke="black" points="717,-230 717,-249 824,-249 824,-230 717,-230"/>
<text text-anchor="middle" x="770.5" y="-237" font-family="Helvetica,sans-Serif" font-size="10.00">Core/Math/Math.inl</text>
</a>
</g>
</g>
<!-- Node9&#45;&gt;Node13 -->
<g id="edge13" class="edge"><title>Node9&#45;&gt;Node13</title>
<path fill="none" stroke="midnightblue" d="M765.711,-296.734C763.702,-287.183 763.236,-271.618 764.316,-259.283"/>
<polygon fill="midnightblue" stroke="midnightblue" points="767.817,-259.517 765.741,-249.127 760.885,-258.544 767.817,-259.517"/>
</g>
<!-- Node10&#45;&gt;Node3 -->
<g id="edge10" class="edge"><title>Node10&#45;&gt;Node3</title>
<path fill="none" stroke="midnightblue" d="M588.5,-112.083C588.5,-105.006 588.5,-94.8611 588.5,-85.9865"/>
<polygon fill="midnightblue" stroke="midnightblue" points="592,-85.751 588.5,-75.7511 585,-85.7511 592,-85.751"/>
</g>
<!-- Node13&#45;&gt;Node9 -->
<g id="edge14" class="edge"><title>Node13&#45;&gt;Node9</title>
<path fill="none" stroke="midnightblue" d="M775.259,-249.127C777.284,-258.62 777.764,-274.17 776.7,-286.537"/>
<polygon fill="midnightblue" stroke="midnightblue" points="773.193,-286.348 775.289,-296.734 780.127,-287.308 773.193,-286.348"/>
</g>
<!-- Node14&#45;&gt;Node2 -->
<g id="edge37" class="edge"><title>Node14&#45;&gt;Node2</title>
<path fill="none" stroke="midnightblue" d="M517.312,-291.301C544.809,-273.16 595.292,-241.965 642.5,-224 685.888,-207.488 736.912,-196.21 776.951,-189.074"/>
<polygon fill="midnightblue" stroke="midnightblue" points="777.629,-192.508 786.883,-187.348 776.431,-185.612 777.629,-192.508"/>
</g>
<!-- Node15 -->
<g id="node15" class="node"><title>Node15</title>
<g id="a_node15"><a xlink:href="Color_8hpp.html" target="_top" xlink:title="Core/Utils/Color.hpp">
<polygon fill="white" stroke="black" points="0,-168.5 0,-187.5 111,-187.5 111,-168.5 0,-168.5"/>
<text text-anchor="middle" x="55.5" y="-175.5" font-family="Helvetica,sans-Serif" font-size="10.00">Core/Utils/Color.hpp</text>
</a>
</g>
</g>
<!-- Node14&#45;&gt;Node15 -->
<g id="edge16" class="edge"><title>Node14&#45;&gt;Node15</title>
<path fill="none" stroke="midnightblue" d="M435.953,-298.857C379.316,-291.61 292.838,-277.877 220.5,-255 168.45,-238.539 111.353,-209.593 79.83,-192.571"/>
<polygon fill="midnightblue" stroke="midnightblue" points="81.3565,-189.416 70.9019,-187.698 78.0028,-195.561 81.3565,-189.416"/>
</g>
<!-- Node19 -->
<g id="node19" class="node"><title>Node19</title>
<g id="a_node19"><a xlink:href="Component_8hpp.html" target="_top" xlink:title="Engine/Component/Component.hpp">
<polygon fill="white" stroke="black" points="229.5,-230 229.5,-249 417.5,-249 417.5,-230 229.5,-230"/>
<text text-anchor="middle" x="323.5" y="-237" font-family="Helvetica,sans-Serif" font-size="10.00">Engine/Component/Component.hpp</text>
</a>
</g>
</g>
<!-- Node14&#45;&gt;Node19 -->
<g id="edge21" class="edge"><title>Node14&#45;&gt;Node19</title>
<path fill="none" stroke="midnightblue" d="M458.962,-291.396C428.204,-279.84 385.131,-263.656 355.872,-252.663"/>
<polygon fill="midnightblue" stroke="midnightblue" points="356.734,-249.248 346.142,-249.007 354.272,-255.801 356.734,-249.248"/>
</g>
<!-- Node27 -->
<g id="node27" class="node"><title>Node27</title>
<g id="a_node27"><a xlink:href="Light_8inl.html" target="_top" xlink:title="Engine/Renderer/Light\l/Light.inl">
<polygon fill="white" stroke="black" points="436,-224.5 436,-254.5 557,-254.5 557,-224.5 436,-224.5"/>
<text text-anchor="start" x="444" y="-242.5" font-family="Helvetica,sans-Serif" font-size="10.00">Engine/Renderer/Light</text>
<text text-anchor="middle" x="496.5" y="-231.5" font-family="Helvetica,sans-Serif" font-size="10.00">/Light.inl</text>
</a>
</g>
</g>
<!-- Node14&#45;&gt;Node27 -->
<g id="edge38" class="edge"><title>Node14&#45;&gt;Node27</title>
<path fill="none" stroke="midnightblue" d="M496.5,-291.396C496.5,-283.645 496.5,-273.812 496.5,-264.86"/>
<polygon fill="midnightblue" stroke="midnightblue" points="500,-264.576 496.5,-254.577 493,-264.577 500,-264.576"/>
</g>
<!-- Node15&#45;&gt;Node3 -->
<g id="edge17" class="edge"><title>Node15&#45;&gt;Node3</title>
<path fill="none" stroke="midnightblue" d="M59.3724,-168.411C66.4185,-153.914 82.8259,-124.912 106.5,-112 175.616,-74.3048 401.711,-67.6816 518.008,-66.8402"/>
<polygon fill="midnightblue" stroke="midnightblue" points="518.252,-70.3389 528.231,-66.7791 518.21,-63.339 518.252,-70.3389"/>
</g>
<!-- Node16 -->
<g id="node16" class="node"><title>Node16</title>
<polygon fill="white" stroke="#bfbfbf" points="355.5,-112.5 355.5,-131.5 423.5,-131.5 423.5,-112.5 355.5,-112.5"/>
<text text-anchor="middle" x="389.5" y="-119.5" font-family="Helvetica,sans-Serif" font-size="10.00">Eigen/Core</text>
</g>
<!-- Node15&#45;&gt;Node16 -->
<g id="edge18" class="edge"><title>Node15&#45;&gt;Node16</title>
<path fill="none" stroke="midnightblue" d="M108.423,-168.444C173.804,-157.873 283.868,-140.078 345.067,-130.184"/>
<polygon fill="midnightblue" stroke="midnightblue" points="345.867,-133.6 355.18,-128.549 344.749,-126.69 345.867,-133.6"/>
</g>
<!-- Node17 -->
<g id="node17" class="node"><title>Node17</title>
<polygon fill="white" stroke="#bfbfbf" points="115.5,-112.5 115.5,-131.5 209.5,-131.5 209.5,-112.5 115.5,-112.5"/>
<text text-anchor="middle" x="162.5" y="-119.5" font-family="Helvetica,sans-Serif" font-size="10.00">Eigen/Geometry</text>
</g>
<!-- Node15&#45;&gt;Node17 -->
<g id="edge19" class="edge"><title>Node15&#45;&gt;Node17</title>
<path fill="none" stroke="midnightblue" d="M72.6914,-168.324C89.8509,-159.664 116.446,-146.242 136.247,-136.249"/>
<polygon fill="midnightblue" stroke="midnightblue" points="138.001,-139.285 145.351,-131.655 134.847,-133.035 138.001,-139.285"/>
</g>
<!-- Node18 -->
<g id="node18" class="node"><title>Node18</title>
<polygon fill="white" stroke="#bfbfbf" points="5.5,-112.5 5.5,-131.5 59.5,-131.5 59.5,-112.5 5.5,-112.5"/>
<text text-anchor="middle" x="32.5" y="-119.5" font-family="Helvetica,sans-Serif" font-size="10.00">random</text>
</g>
<!-- Node15&#45;&gt;Node18 -->
<g id="edge20" class="edge"><title>Node15&#45;&gt;Node18</title>
<path fill="none" stroke="midnightblue" d="M51.702,-168.083C48.5872,-160.77 44.0772,-150.181 40.2107,-141.103"/>
<polygon fill="midnightblue" stroke="midnightblue" points="43.3661,-139.58 36.2273,-131.751 36.9259,-142.323 43.3661,-139.58"/>
</g>
<!-- Node19&#45;&gt;Node2 -->
<g id="edge28" class="edge"><title>Node19&#45;&gt;Node2</title>
<path fill="none" stroke="midnightblue" d="M381.196,-230C395.952,-227.93 411.802,-225.796 426.5,-224 580.405,-205.19 619.454,-205.617 773.5,-188 774.595,-187.875 775.699,-187.748 776.811,-187.619"/>
<polygon fill="midnightblue" stroke="midnightblue" points="777.442,-191.069 786.963,-186.421 776.622,-184.117 777.442,-191.069"/>
</g>
<!-- Node19&#45;&gt;Node16 -->
<g id="edge26" class="edge"><title>Node19&#45;&gt;Node16</title>
<path fill="none" stroke="midnightblue" d="M360.819,-229.884C382.899,-222.659 409.097,-209.883 422.5,-188 432.446,-171.761 419.3,-152.156 406.771,-138.752"/>
<polygon fill="midnightblue" stroke="midnightblue" points="409.198,-136.229 399.644,-131.648 404.256,-141.187 409.198,-136.229"/>
</g>
<!-- Node19&#45;&gt;Node17 -->
<g id="edge27" class="edge"><title>Node19&#45;&gt;Node17</title>
<path fill="none" stroke="midnightblue" d="M229.453,-230.738C202.226,-223.598 175.336,-210.76 158.5,-188 148.641,-174.673 151.388,-155.289 155.535,-141.158"/>
<polygon fill="midnightblue" stroke="midnightblue" points="158.891,-142.158 158.793,-131.564 152.263,-139.907 158.891,-142.158"/>
</g>
<!-- Node20 -->
<g id="node20" class="node"><title>Node20</title>
<g id="a_node20"><a xlink:href="Index_8hpp.html" target="_top" xlink:title="Core/Utils/Index.hpp">
<polygon fill="white" stroke="black" points="652,-168.5 652,-187.5 765,-187.5 765,-168.5 652,-168.5"/>
<text text-anchor="middle" x="708.5" y="-175.5" font-family="Helvetica,sans-Serif" font-size="10.00">Core/Utils/Index.hpp</text>
</a>
</g>
</g>
<!-- Node19&#45;&gt;Node20 -->
<g id="edge22" class="edge"><title>Node19&#45;&gt;Node20</title>
<path fill="none" stroke="midnightblue" d="M378.661,-229.975C448.562,-219.172 568.875,-200.578 643.26,-189.083"/>
<polygon fill="midnightblue" stroke="midnightblue" points="644.093,-192.495 653.441,-187.509 643.024,-185.578 644.093,-192.495"/>
</g>
<!-- Node23 -->
<g id="node23" class="node"><title>Node23</title>
<polygon fill="white" stroke="#bfbfbf" points="168,-168.5 168,-187.5 215,-187.5 215,-168.5 168,-168.5"/>
<text text-anchor="middle" x="191.5" y="-175.5" font-family="Helvetica,sans-Serif" font-size="10.00">vector</text>
</g>
<!-- Node19&#45;&gt;Node23 -->
<g id="edge29" class="edge"><title>Node19&#45;&gt;Node23</title>
<path fill="none" stroke="midnightblue" d="M304.588,-229.975C282.337,-219.945 245.188,-203.2 219.574,-191.655"/>
<polygon fill="midnightblue" stroke="midnightblue" points="220.932,-188.428 210.377,-187.509 218.056,-194.809 220.932,-188.428"/>
</g>
<!-- Node24 -->
<g id="node24" class="node"><title>Node24</title>
<g id="a_node24"><a xlink:href="Types_8hpp.html" target="_top" xlink:title="Core/Types.hpp">
<polygon fill="white" stroke="black" points="471,-168.5 471,-187.5 560,-187.5 560,-168.5 471,-168.5"/>
<text text-anchor="middle" x="515.5" y="-175.5" font-family="Helvetica,sans-Serif" font-size="10.00">Core/Types.hpp</text>
</a>
</g>
</g>
<!-- Node19&#45;&gt;Node24 -->
<g id="edge30" class="edge"><title>Node19&#45;&gt;Node24</title>
<path fill="none" stroke="midnightblue" d="M351.009,-229.975C384.371,-219.636 440.762,-202.161 478.063,-190.602"/>
<polygon fill="midnightblue" stroke="midnightblue" points="479.526,-193.812 488.042,-187.509 477.454,-187.126 479.526,-193.812"/>
</g>
<!-- Node26 -->
<g id="node26" class="node"><title>Node26</title>
<g id="a_node26"><a xlink:href="Component_8inl.html" target="_top" xlink:title="Engine/Component/Component.inl">
<polygon fill="white" stroke="black" points="233,-168.5 233,-187.5 414,-187.5 414,-168.5 233,-168.5"/>
<text text-anchor="middle" x="323.5" y="-175.5" font-family="Helvetica,sans-Serif" font-size="10.00">Engine/Component/Component.inl</text>
</a>
</g>
</g>
<!-- Node19&#45;&gt;Node26 -->
<g id="edge35" class="edge"><title>Node19&#45;&gt;Node26</title>
<path fill="none" stroke="midnightblue" d="M318.599,-229.975C316.768,-221.58 316.297,-208.481 317.185,-197.663"/>
<polygon fill="midnightblue" stroke="midnightblue" points="320.686,-197.897 318.603,-187.509 313.754,-196.929 320.686,-197.897"/>
</g>
<!-- Node20&#45;&gt;Node10 -->
<g id="edge23" class="edge"><title>Node20&#45;&gt;Node10</title>
<path fill="none" stroke="midnightblue" d="M689.486,-168.444C669.912,-159.636 639.192,-145.812 616.771,-135.722"/>
<polygon fill="midnightblue" stroke="midnightblue" points="617.981,-132.428 607.425,-131.516 615.108,-138.812 617.981,-132.428"/>
</g>
<!-- Node21 -->
<g id="node21" class="node"><title>Node21</title>
<polygon fill="white" stroke="#bfbfbf" points="779.5,-112.5 779.5,-131.5 821.5,-131.5 821.5,-112.5 779.5,-112.5"/>
<text text-anchor="middle" x="800.5" y="-119.5" font-family="Helvetica,sans-Serif" font-size="10.00">limits</text>
</g>
<!-- Node20&#45;&gt;Node21 -->
<g id="edge24" class="edge"><title>Node20&#45;&gt;Node21</title>
<path fill="none" stroke="midnightblue" d="M723.281,-168.324C737.767,-159.822 760.073,-146.729 776.993,-136.797"/>
<polygon fill="midnightblue" stroke="midnightblue" points="778.903,-139.735 785.755,-131.655 775.359,-133.698 778.903,-139.735"/>
</g>
<!-- Node22 -->
<g id="node22" class="node"><title>Node22</title>
<g id="a_node22"><a xlink:href="Index_8inl.html" target="_top" xlink:title="Core/Utils/Index.inl">
<polygon fill="white" stroke="black" points="656,-112.5 656,-131.5 761,-131.5 761,-112.5 656,-112.5"/>
<text text-anchor="middle" x="708.5" y="-119.5" font-family="Helvetica,sans-Serif" font-size="10.00">Core/Utils/Index.inl</text>
</a>
</g>
</g>
<!-- Node20&#45;&gt;Node22 -->
<g id="edge25" class="edge"><title>Node20&#45;&gt;Node22</title>
<path fill="none" stroke="midnightblue" d="M708.5,-168.083C708.5,-161.006 708.5,-150.861 708.5,-141.986"/>
<polygon fill="midnightblue" stroke="midnightblue" points="712,-141.751 708.5,-131.751 705,-141.751 712,-141.751"/>
</g>
<!-- Node24&#45;&gt;Node10 -->
<g id="edge31" class="edge"><title>Node24&#45;&gt;Node10</title>
<path fill="none" stroke="midnightblue" d="M527.229,-168.324C538.337,-160.107 555.242,-147.602 568.483,-137.807"/>
<polygon fill="midnightblue" stroke="midnightblue" points="570.6,-140.595 576.558,-131.834 566.437,-134.967 570.6,-140.595"/>
</g>
<!-- Node24&#45;&gt;Node16 -->
<g id="edge32" class="edge"><title>Node24&#45;&gt;Node16</title>
<path fill="none" stroke="midnightblue" d="M495.535,-168.444C474.891,-159.596 442.437,-145.687 418.868,-135.586"/>
<polygon fill="midnightblue" stroke="midnightblue" points="419.942,-132.239 409.372,-131.516 417.184,-138.673 419.942,-132.239"/>
</g>
<!-- Node24&#45;&gt;Node17 -->
<g id="edge33" class="edge"><title>Node24&#45;&gt;Node17</title>
<path fill="none" stroke="midnightblue" d="M470.792,-170.161C406.958,-160.396 289.689,-142.457 219.634,-131.74"/>
<polygon fill="midnightblue" stroke="midnightblue" points="220.067,-128.266 209.652,-130.213 219.008,-135.185 220.067,-128.266"/>
</g>
<!-- Node25 -->
<g id="node25" class="node"><title>Node25</title>
<polygon fill="white" stroke="#bfbfbf" points="441.5,-112.5 441.5,-131.5 521.5,-131.5 521.5,-112.5 441.5,-112.5"/>
<text text-anchor="middle" x="481.5" y="-119.5" font-family="Helvetica,sans-Serif" font-size="10.00">Eigen/Sparse</text>
</g>
<!-- Node24&#45;&gt;Node25 -->
<g id="edge34" class="edge"><title>Node24&#45;&gt;Node25</title>
<path fill="none" stroke="midnightblue" d="M509.886,-168.083C505.133,-160.534 498.182,-149.495 492.348,-140.23"/>
<polygon fill="midnightblue" stroke="midnightblue" points="495.3,-138.349 487.01,-131.751 489.376,-142.078 495.3,-138.349"/>
</g>
<!-- Node26&#45;&gt;Node19 -->
<g id="edge36" class="edge"><title>Node26&#45;&gt;Node19</title>
<path fill="none" stroke="midnightblue" d="M328.397,-187.509C330.23,-195.898 330.703,-208.996 329.817,-219.817"/>
<polygon fill="midnightblue" stroke="midnightblue" points="326.315,-219.588 328.401,-229.975 333.248,-220.554 326.315,-219.588"/>
</g>
</g>
</svg>
