<?xml version="1.0" encoding="UTF-8" standalone="no"?>
<!DOCTYPE svg PUBLIC "-//W3C//DTD SVG 1.1//EN"
 "http://www.w3.org/Graphics/SVG/1.1/DTD/svg11.dtd">
<!-- Generated by graphviz version 2.38.0 (20140413.2041)
 -->
<!-- Title: /home/travis/build/STORM&#45;IRIT/Radium&#45;Engine/src/Core/Animation/StretchableTwistableBoneSkinning.hpp Pages: 1 -->
<svg width="430pt" height="150pt"
 viewBox="0.00 0.00 430.00 150.00" xmlns="http://www.w3.org/2000/svg" xmlns:xlink="http://www.w3.org/1999/xlink">
<g id="graph0" class="graph" transform="scale(1 1) rotate(0) translate(4 146)">
<title>/home/travis/build/STORM&#45;IRIT/Radium&#45;Engine/src/Core/Animation/StretchableTwistableBoneSkinning.hpp</title>
<polygon fill="white" stroke="none" points="-4,4 -4,-146 426,-146 426,4 -4,4"/>
<!-- Node1 -->
<g id="node1" class="node"><title>Node1</title>
<polygon fill="#bfbfbf" stroke="black" points="110,-89.5 110,-141.5 280,-141.5 280,-89.5 110,-89.5"/>
<text text-anchor="start" x="118" y="-129.5" font-family="Helvetica,sans-Serif" font-size="10.00">/home/travis/build</text>
<text text-anchor="start" x="118" y="-118.5" font-family="Helvetica,sans-Serif" font-size="10.00">/STORM&#45;IRIT/Radium&#45;Engine</text>
<text text-anchor="start" x="118" y="-107.5" font-family="Helvetica,sans-Serif" font-size="10.00">/src/Core/Animation/Stretchable</text>
<text text-anchor="middle" x="195" y="-96.5" font-family="Helvetica,sans-Serif" font-size="10.00">TwistableBoneSkinning.hpp</text>
</g>
<!-- Node2 -->
<g id="node2" class="node"><title>Node2</title>
<g id="a_node2"><a xlink:href="StretchableTwistableBoneSkinning_8cpp.html" target="_top" xlink:title="/home/travis/build\l/STORM&#45;IRIT/Radium&#45;Engine\l/src/Core/Animation/Stretchable\lTwistableBoneSkinning.cpp">
<polygon fill="white" stroke="black" points="0,-0.5 0,-52.5 170,-52.5 170,-0.5 0,-0.5"/>
<text text-anchor="start" x="8" y="-40.5" font-family="Helvetica,sans-Serif" font-size="10.00">/home/travis/build</text>
<text text-anchor="start" x="8" y="-29.5" font-family="Helvetica,sans-Serif" font-size="10.00">/STORM&#45;IRIT/Radium&#45;Engine</text>
<text text-anchor="start" x="8" y="-18.5" font-family="Helvetica,sans-Serif" font-size="10.00">/src/Core/Animation/Stretchable</text>
<text text-anchor="middle" x="85" y="-7.5" font-family="Helvetica,sans-Serif" font-size="10.00">TwistableBoneSkinning.cpp</text>
</a>
</g>
</g>
<!-- Node1&#45;&gt;Node2 -->
<g id="edge1" class="edge"><title>Node1&#45;&gt;Node2</title>
<path fill="none" stroke="midnightblue" d="M155.089,-82.9342C142.473,-72.9562 128.709,-62.0702 116.745,-52.6075"/>
<polygon fill="midnightblue" stroke="midnightblue" points="153.169,-85.8778 163.183,-89.336 157.511,-80.3874 153.169,-85.8778"/>
</g>
<!-- Node3 -->
<g id="node3" class="node"><title>Node3</title>
<g id="a_node3"><a xlink:href="SkinningComponent_8cpp.html" target="_top" xlink:title="/home/travis/build\l/STORM&#45;IRIT/Radium&#45;Engine\l/Plugins/Skinning/src/SkinningComponent.cpp">
<polygon fill="white" stroke="black" points="188,-6 188,-47 422,-47 422,-6 188,-6"/>
<text text-anchor="start" x="196" y="-35" font-family="Helvetica,sans-Serif" font-size="10.00">/home/travis/build</text>
<text text-anchor="start" x="196" y="-24" font-family="Helvetica,sans-Serif" font-size="10.00">/STORM&#45;IRIT/Radium&#45;Engine</text>
<text text-anchor="middle" x="305" y="-13" font-family="Helvetica,sans-Serif" font-size="10.00">/Plugins/Skinning/src/SkinningComponent.cpp</text>
</a>
</g>
</g>
<!-- Node1&#45;&gt;Node3 -->
<g id="edge2" class="edge"><title>Node1&#45;&gt;Node3</title>
<path fill="none" stroke="midnightblue" d="M235.021,-82.8474C250.149,-70.8824 266.914,-57.6228 280.241,-47.0821"/>
<polygon fill="midnightblue" stroke="midnightblue" points="232.489,-80.3874 226.817,-89.336 236.831,-85.8778 232.489,-80.3874"/>
</g>
</g>
</svg>
