<?xml version="1.0" encoding="UTF-8" standalone="no"?>
<!DOCTYPE svg PUBLIC "-//W3C//DTD SVG 1.1//EN"
 "http://www.w3.org/Graphics/SVG/1.1/DTD/svg11.dtd">
<!-- Generated by graphviz version 2.38.0 (20140413.2041)
 -->
<!-- Title: /home/travis/build/STORM&#45;IRIT/Radium&#45;Engine/src/Core/Animation/StretchableTwistableBoneSkinning.cpp Pages: 1 -->
<svg width="1853pt" height="553pt"
 viewBox="0.00 0.00 1853.06 553.00" xmlns="http://www.w3.org/2000/svg" xmlns:xlink="http://www.w3.org/1999/xlink">
<g id="graph0" class="graph" transform="scale(1 1) rotate(0) translate(4 549)">
<title>/home/travis/build/STORM&#45;IRIT/Radium&#45;Engine/src/Core/Animation/StretchableTwistableBoneSkinning.cpp</title>
<polygon fill="white" stroke="none" points="-4,4 -4,-549 1849.06,-549 1849.06,4 -4,4"/>
<!-- Node1 -->
<g id="node1" class="node"><title>Node1</title>
<polygon fill="#bfbfbf" stroke="black" points="501.056,-492.5 501.056,-544.5 671.056,-544.5 671.056,-492.5 501.056,-492.5"/>
<text text-anchor="start" x="509.056" y="-532.5" font-family="Helvetica,sans-Serif" font-size="10.00">/home/travis/build</text>
<text text-anchor="start" x="509.056" y="-521.5" font-family="Helvetica,sans-Serif" font-size="10.00">/STORM&#45;IRIT/Radium&#45;Engine</text>
<text text-anchor="start" x="509.056" y="-510.5" font-family="Helvetica,sans-Serif" font-size="10.00">/src/Core/Animation/Stretchable</text>
<text text-anchor="middle" x="586.056" y="-499.5" font-family="Helvetica,sans-Serif" font-size="10.00">TwistableBoneSkinning.cpp</text>
</g>
<!-- Node2 -->
<g id="node2" class="node"><title>Node2</title>
<g id="a_node2"><a xlink:href="StretchableTwistableBoneSkinning_8hpp.html" target="_top" xlink:title="Core/Animation/Stretchable\lTwistableBoneSkinning.hpp">
<polygon fill="white" stroke="black" points="511.556,-425.5 511.556,-455.5 660.556,-455.5 660.556,-425.5 511.556,-425.5"/>
<text text-anchor="start" x="519.556" y="-443.5" font-family="Helvetica,sans-Serif" font-size="10.00">Core/Animation/Stretchable</text>
<text text-anchor="middle" x="586.056" y="-432.5" font-family="Helvetica,sans-Serif" font-size="10.00">TwistableBoneSkinning.hpp</text>
</a>
</g>
</g>
<!-- Node1&#45;&gt;Node2 -->
<g id="edge1" class="edge"><title>Node1&#45;&gt;Node2</title>
<path fill="none" stroke="midnightblue" d="M586.056,-492.193C586.056,-483.786 586.056,-474.443 586.056,-466.091"/>
<polygon fill="midnightblue" stroke="midnightblue" points="589.556,-465.845 586.056,-455.845 582.556,-465.845 589.556,-465.845"/>
</g>
<!-- Node3 -->
<g id="node3" class="node"><title>Node3</title>
<g id="a_node3"><a xlink:href="HandleWeight_8hpp.html" target="_top" xlink:title="Core/Animation/HandleWeight.hpp">
<polygon fill="white" stroke="black" points="30.0559,-241 30.0559,-260 210.056,-260 210.056,-241 30.0559,-241"/>
<text text-anchor="middle" x="120.056" y="-248" font-family="Helvetica,sans-Serif" font-size="10.00">Core/Animation/HandleWeight.hpp</text>
</a>
</g>
</g>
<!-- Node2&#45;&gt;Node3 -->
<g id="edge2" class="edge"><title>Node2&#45;&gt;Node3</title>
<path fill="none" stroke="midnightblue" d="M529.919,-425.45C463.267,-407.839 349.497,-374.821 257.056,-333 213.75,-313.408 166.887,-283.421 140.733,-265.805"/>
<polygon fill="midnightblue" stroke="midnightblue" points="142.622,-262.857 132.385,-260.128 138.685,-268.646 142.622,-262.857"/>
</g>
<!-- Node4 -->
<g id="node4" class="node"><title>Node4</title>
<g id="a_node4"><a xlink:href="AlignedStdVector_8hpp.html" target="_top" xlink:title="Core/Containers/AlignedStd\lVector.hpp">
<polygon fill="white" stroke="black" points="424.556,-168.5 424.556,-198.5 573.556,-198.5 573.556,-168.5 424.556,-168.5"/>
<text text-anchor="start" x="432.556" y="-186.5" font-family="Helvetica,sans-Serif" font-size="10.00">Core/Containers/AlignedStd</text>
<text text-anchor="middle" x="499.056" y="-175.5" font-family="Helvetica,sans-Serif" font-size="10.00">Vector.hpp</text>
</a>
</g>
</g>
<!-- Node2&#45;&gt;Node4 -->
<g id="edge39" class="edge"><title>Node2&#45;&gt;Node4</title>
<path fill="none" stroke="midnightblue" d="M511.517,-428.16C371.289,-405.088 77.244,-347.845 21.0559,-266 13.258,-254.641 11.8395,-245.241 21.0559,-235 46.8038,-206.389 283.726,-192.787 414.055,-187.422"/>
<polygon fill="midnightblue" stroke="midnightblue" points="414.552,-190.905 424.403,-187.004 414.27,-183.91 414.552,-190.905"/>
</g>
<!-- Node14 -->
<g id="node14" class="node"><title>Node14</title>
<g id="a_node14"><a xlink:href="Types_8hpp.html" target="_top" xlink:title="Core/Types.hpp">
<polygon fill="white" stroke="black" points="983.556,-174 983.556,-193 1072.56,-193 1072.56,-174 983.556,-174"/>
<text text-anchor="middle" x="1028.06" y="-181" font-family="Helvetica,sans-Serif" font-size="10.00">Core/Types.hpp</text>
</a>
</g>
</g>
<!-- Node2&#45;&gt;Node14 -->
<g id="edge62" class="edge"><title>Node2&#45;&gt;Node14</title>
<path fill="none" stroke="midnightblue" d="M660.59,-428.968C738.601,-415.54 862.639,-387.251 957.056,-333 994.396,-311.545 1009.9,-305.5 1027.06,-266 1035.76,-245.964 1034.33,-220.456 1031.82,-203.361"/>
<polygon fill="midnightblue" stroke="midnightblue" points="1035.19,-202.293 1030.03,-193.041 1028.29,-203.493 1035.19,-202.293"/>
</g>
<!-- Node19 -->
<g id="node19" class="node"><title>Node19</title>
<g id="a_node19"><a xlink:href="Pose_8hpp.html" target="_top" xlink:title="Core/Animation/Pose.hpp">
<polygon fill="white" stroke="black" points="430.056,-241 430.056,-260 568.056,-260 568.056,-241 430.056,-241"/>
<text text-anchor="middle" x="499.056" y="-248" font-family="Helvetica,sans-Serif" font-size="10.00">Core/Animation/Pose.hpp</text>
</a>
</g>
</g>
<!-- Node2&#45;&gt;Node19 -->
<g id="edge19" class="edge"><title>Node2&#45;&gt;Node19</title>
<path fill="none" stroke="midnightblue" d="M542.311,-425.32C525.379,-417.449 507.766,-405.768 498.056,-389 476.3,-351.431 485.959,-297.85 493.378,-269.965"/>
<polygon fill="midnightblue" stroke="midnightblue" points="496.753,-270.893 496.136,-260.317 490.023,-268.97 496.753,-270.893"/>
</g>
<!-- Node20 -->
<g id="node20" class="node"><title>Node20</title>
<g id="a_node20"><a xlink:href="Skeleton_8hpp.html" target="_top" xlink:title="Core/Animation/Skeleton.hpp">
<polygon fill="white" stroke="black" points="507.556,-369.5 507.556,-388.5 664.556,-388.5 664.556,-369.5 507.556,-369.5"/>
<text text-anchor="middle" x="586.056" y="-376.5" font-family="Helvetica,sans-Serif" font-size="10.00">Core/Animation/Skeleton.hpp</text>
</a>
</g>
</g>
<!-- Node2&#45;&gt;Node20 -->
<g id="edge21" class="edge"><title>Node2&#45;&gt;Node20</title>
<path fill="none" stroke="midnightblue" d="M586.056,-425.399C586.056,-417.466 586.056,-407.458 586.056,-398.858"/>
<polygon fill="midnightblue" stroke="midnightblue" points="589.556,-398.658 586.056,-388.658 582.556,-398.658 589.556,-398.658"/>
</g>
<!-- Node24 -->
<g id="node24" class="node"><title>Node24</title>
<g id="a_node24"><a xlink:href="VectorArray_8hpp.html" target="_top" xlink:title="Core/Containers/VectorArray.hpp">
<polygon fill="white" stroke="black" points="586.556,-241 586.556,-260 759.556,-260 759.556,-241 586.556,-241"/>
<text text-anchor="middle" x="673.056" y="-248" font-family="Helvetica,sans-Serif" font-size="10.00">Core/Containers/VectorArray.hpp</text>
</a>
</g>
</g>
<!-- Node2&#45;&gt;Node24 -->
<g id="edge40" class="edge"><title>Node2&#45;&gt;Node24</title>
<path fill="none" stroke="midnightblue" d="M628.861,-425.418C645.742,-417.525 663.383,-405.8 673.056,-389 694.623,-351.545 685.683,-298.293 678.601,-270.323"/>
<polygon fill="midnightblue" stroke="midnightblue" points="681.877,-269.033 675.864,-260.31 675.125,-270.879 681.877,-269.033"/>
</g>
<!-- Node26 -->
<g id="node26" class="node"><title>Node26</title>
<g id="a_node26"><a xlink:href="DualQuaternion_8hpp.html" target="_top" xlink:title="Core/Math/DualQuaternion.hpp">
<polygon fill="white" stroke="black" points="1128.56,-369.5 1128.56,-388.5 1293.56,-388.5 1293.56,-369.5 1128.56,-369.5"/>
<text text-anchor="middle" x="1211.06" y="-376.5" font-family="Helvetica,sans-Serif" font-size="10.00">Core/Math/DualQuaternion.hpp</text>
</a>
</g>
</g>
<!-- Node2&#45;&gt;Node26 -->
<g id="edge41" class="edge"><title>Node2&#45;&gt;Node26</title>
<path fill="none" stroke="midnightblue" d="M660.825,-432.382C775.304,-421.484 993.806,-400.682 1118.25,-388.835"/>
<polygon fill="midnightblue" stroke="midnightblue" points="1118.89,-392.29 1128.52,-387.858 1118.23,-385.321 1118.89,-392.29"/>
</g>
<!-- Node3&#45;&gt;Node4 -->
<g id="edge3" class="edge"><title>Node3&#45;&gt;Node4</title>
<path fill="none" stroke="midnightblue" d="M169.993,-240.936C232.225,-230.263 339.515,-211.862 414.617,-198.982"/>
<polygon fill="midnightblue" stroke="midnightblue" points="415.267,-202.421 424.532,-197.281 414.084,-195.522 415.267,-202.421"/>
</g>
<!-- Node3&#45;&gt;Node14 -->
<g id="edge13" class="edge"><title>Node3&#45;&gt;Node14</title>
<path fill="none" stroke="midnightblue" d="M195.376,-240.98C215.407,-238.865 237.038,-236.714 257.056,-235 525.175,-212.04 846.537,-194.053 973.049,-187.345"/>
<polygon fill="midnightblue" stroke="midnightblue" points="973.45,-190.829 983.251,-186.806 973.08,-183.838 973.45,-190.829"/>
</g>
<!-- Node18 -->
<g id="node18" class="node"><title>Node18</title>
<polygon fill="white" stroke="#bfbfbf" points="101.056,-174 101.056,-193 139.056,-193 139.056,-174 101.056,-174"/>
<text text-anchor="middle" x="120.056" y="-181" font-family="Helvetica,sans-Serif" font-size="10.00">map</text>
</g>
<!-- Node3&#45;&gt;Node18 -->
<g id="edge18" class="edge"><title>Node3&#45;&gt;Node18</title>
<path fill="none" stroke="midnightblue" d="M120.056,-240.734C120.056,-231.183 120.056,-215.618 120.056,-203.283"/>
<polygon fill="midnightblue" stroke="midnightblue" points="123.556,-203.127 120.056,-193.127 116.556,-203.127 123.556,-203.127"/>
</g>
<!-- Node5 -->
<g id="node5" class="node"><title>Node5</title>
<g id="a_node5"><a xlink:href="RaCore_8hpp.html" target="_top" xlink:title="Core/RaCore.hpp">
<polygon fill="white" stroke="black" points="819.056,-112.5 819.056,-131.5 917.056,-131.5 917.056,-112.5 819.056,-112.5"/>
<text text-anchor="middle" x="868.056" y="-119.5" font-family="Helvetica,sans-Serif" font-size="10.00">Core/RaCore.hpp</text>
</a>
</g>
</g>
<!-- Node4&#45;&gt;Node5 -->
<g id="edge4" class="edge"><title>Node4&#45;&gt;Node5</title>
<path fill="none" stroke="midnightblue" d="M573.729,-170.459C643.093,-159.275 745.02,-142.839 808.907,-132.538"/>
<polygon fill="midnightblue" stroke="midnightblue" points="809.508,-135.986 818.823,-130.939 808.393,-129.075 809.508,-135.986"/>
</g>
<!-- Node12 -->
<g id="node12" class="node"><title>Node12</title>
<polygon fill="white" stroke="#bfbfbf" points="452.556,-112.5 452.556,-131.5 545.556,-131.5 545.556,-112.5 452.556,-112.5"/>
<text text-anchor="middle" x="499.056" y="-119.5" font-family="Helvetica,sans-Serif" font-size="10.00">Eigen/StdVector</text>
</g>
<!-- Node4&#45;&gt;Node12 -->
<g id="edge11" class="edge"><title>Node4&#45;&gt;Node12</title>
<path fill="none" stroke="midnightblue" d="M499.056,-168.399C499.056,-160.466 499.056,-150.458 499.056,-141.858"/>
<polygon fill="midnightblue" stroke="midnightblue" points="502.556,-141.658 499.056,-131.658 495.556,-141.658 502.556,-141.658"/>
</g>
<!-- Node13 -->
<g id="node13" class="node"><title>Node13</title>
<polygon fill="white" stroke="#bfbfbf" points="588.556,-112.5 588.556,-131.5 635.556,-131.5 635.556,-112.5 588.556,-112.5"/>
<text text-anchor="middle" x="612.056" y="-119.5" font-family="Helvetica,sans-Serif" font-size="10.00">vector</text>
</g>
<!-- Node4&#45;&gt;Node13 -->
<g id="edge12" class="edge"><title>Node4&#45;&gt;Node13</title>
<path fill="none" stroke="midnightblue" d="M525.835,-168.399C544.118,-158.773 568.204,-146.09 586.271,-136.577"/>
<polygon fill="midnightblue" stroke="midnightblue" points="588.396,-139.414 595.613,-131.658 585.134,-133.22 588.396,-139.414"/>
</g>
<!-- Node6 -->
<g id="node6" class="node"><title>Node6</title>
<g id="a_node6"><a xlink:href="CoreMacros_8hpp.html" target="_top" xlink:title="Core/CoreMacros.hpp">
<polygon fill="white" stroke="black" points="635.056,-56.5 635.056,-75.5 755.056,-75.5 755.056,-56.5 635.056,-56.5"/>
<text text-anchor="middle" x="695.056" y="-63.5" font-family="Helvetica,sans-Serif" font-size="10.00">Core/CoreMacros.hpp</text>
</a>
</g>
</g>
<!-- Node5&#45;&gt;Node6 -->
<g id="edge5" class="edge"><title>Node5&#45;&gt;Node6</title>
<path fill="none" stroke="midnightblue" d="M840.644,-112.444C811.287,-103.28 764.536,-88.6876 731.96,-78.5192"/>
<polygon fill="midnightblue" stroke="midnightblue" points="732.929,-75.1551 722.34,-75.5164 730.843,-81.8371 732.929,-75.1551"/>
</g>
<!-- Node7 -->
<g id="node7" class="node"><title>Node7</title>
<polygon fill="white" stroke="#bfbfbf" points="772.056,-0.5 772.056,-19.5 824.056,-19.5 824.056,-0.5 772.056,-0.5"/>
<text text-anchor="middle" x="798.056" y="-7.5" font-family="Helvetica,sans-Serif" font-size="10.00">cassert</text>
</g>
<!-- Node6&#45;&gt;Node7 -->
<g id="edge6" class="edge"><title>Node6&#45;&gt;Node7</title>
<path fill="none" stroke="midnightblue" d="M711.605,-56.324C728.048,-47.7034 753.491,-34.3643 772.524,-24.3855"/>
<polygon fill="midnightblue" stroke="midnightblue" points="774.317,-27.3977 781.548,-19.6545 771.066,-21.198 774.317,-27.3977"/>
</g>
<!-- Node8 -->
<g id="node8" class="node"><title>Node8</title>
<polygon fill="white" stroke="#bfbfbf" points="568.556,-0.5 568.556,-19.5 613.556,-19.5 613.556,-0.5 568.556,-0.5"/>
<text text-anchor="middle" x="591.056" y="-7.5" font-family="Helvetica,sans-Serif" font-size="10.00">cstdio</text>
</g>
<!-- Node6&#45;&gt;Node8 -->
<g id="edge7" class="edge"><title>Node6&#45;&gt;Node8</title>
<path fill="none" stroke="midnightblue" d="M678.347,-56.324C661.744,-47.7034 636.054,-34.3643 616.835,-24.3855"/>
<polygon fill="midnightblue" stroke="midnightblue" points="618.212,-21.1565 607.724,-19.6545 614.986,-27.3689 618.212,-21.1565"/>
</g>
<!-- Node9 -->
<g id="node9" class="node"><title>Node9</title>
<polygon fill="white" stroke="#bfbfbf" points="318.556,-0.5 318.556,-19.5 377.556,-19.5 377.556,-0.5 318.556,-0.5"/>
<text text-anchor="middle" x="348.056" y="-7.5" font-family="Helvetica,sans-Serif" font-size="10.00">iostream</text>
</g>
<!-- Node6&#45;&gt;Node9 -->
<g id="edge8" class="edge"><title>Node6&#45;&gt;Node9</title>
<path fill="none" stroke="midnightblue" d="M640.073,-56.4435C569.799,-45.5076 449.837,-26.8391 387.809,-17.1864"/>
<polygon fill="midnightblue" stroke="midnightblue" points="388.066,-13.6843 377.647,-15.6049 386.99,-20.6011 388.066,-13.6843"/>
</g>
<!-- Node10 -->
<g id="node10" class="node"><title>Node10</title>
<polygon fill="white" stroke="#bfbfbf" points="632.056,-0.5 632.056,-19.5 688.056,-19.5 688.056,-0.5 632.056,-0.5"/>
<text text-anchor="middle" x="660.056" y="-7.5" font-family="Helvetica,sans-Serif" font-size="10.00">sstream</text>
</g>
<!-- Node6&#45;&gt;Node10 -->
<g id="edge9" class="edge"><title>Node6&#45;&gt;Node10</title>
<path fill="none" stroke="midnightblue" d="M689.276,-56.083C684.384,-48.5341 677.228,-37.4948 671.223,-28.2298"/>
<polygon fill="midnightblue" stroke="midnightblue" points="674.104,-26.239 665.728,-19.7511 668.23,-30.0463 674.104,-26.239"/>
</g>
<!-- Node11 -->
<g id="node11" class="node"><title>Node11</title>
<polygon fill="white" stroke="#bfbfbf" points="706.056,-0.5 706.056,-19.5 754.056,-19.5 754.056,-0.5 706.056,-0.5"/>
<text text-anchor="middle" x="730.056" y="-7.5" font-family="Helvetica,sans-Serif" font-size="10.00">thread</text>
</g>
<!-- Node6&#45;&gt;Node11 -->
<g id="edge10" class="edge"><title>Node6&#45;&gt;Node11</title>
<path fill="none" stroke="midnightblue" d="M700.835,-56.083C705.728,-48.5341 712.883,-37.4948 718.888,-28.2298"/>
<polygon fill="midnightblue" stroke="midnightblue" points="721.882,-30.0463 724.384,-19.7511 716.008,-26.239 721.882,-30.0463"/>
</g>
<!-- Node14&#45;&gt;Node5 -->
<g id="edge14" class="edge"><title>Node14&#45;&gt;Node5</title>
<path fill="none" stroke="midnightblue" d="M1005.13,-173.975C977.686,-163.769 931.54,-146.608 900.457,-135.049"/>
<polygon fill="midnightblue" stroke="midnightblue" points="901.53,-131.714 890.937,-131.509 899.09,-138.275 901.53,-131.714"/>
</g>
<!-- Node15 -->
<g id="node15" class="node"><title>Node15</title>
<polygon fill="white" stroke="#bfbfbf" points="977.056,-112.5 977.056,-131.5 1045.06,-131.5 1045.06,-112.5 977.056,-112.5"/>
<text text-anchor="middle" x="1011.06" y="-119.5" font-family="Helvetica,sans-Serif" font-size="10.00">Eigen/Core</text>
</g>
<!-- Node14&#45;&gt;Node15 -->
<g id="edge15" class="edge"><title>Node14&#45;&gt;Node15</title>
<path fill="none" stroke="midnightblue" d="M1025.62,-173.975C1023.2,-165.492 1019.4,-152.204 1016.29,-141.322"/>
<polygon fill="midnightblue" stroke="midnightblue" points="1019.6,-140.163 1013.49,-131.509 1012.87,-142.086 1019.6,-140.163"/>
</g>
<!-- Node16 -->
<g id="node16" class="node"><title>Node16</title>
<polygon fill="white" stroke="#bfbfbf" points="1063.06,-112.5 1063.06,-131.5 1157.06,-131.5 1157.06,-112.5 1063.06,-112.5"/>
<text text-anchor="middle" x="1110.06" y="-119.5" font-family="Helvetica,sans-Serif" font-size="10.00">Eigen/Geometry</text>
</g>
<!-- Node14&#45;&gt;Node16 -->
<g id="edge16" class="edge"><title>Node14&#45;&gt;Node16</title>
<path fill="none" stroke="midnightblue" d="M1039.8,-173.975C1052.84,-164.52 1074.09,-149.096 1089.81,-137.687"/>
<polygon fill="midnightblue" stroke="midnightblue" points="1092.29,-140.215 1098.33,-131.509 1088.18,-134.549 1092.29,-140.215"/>
</g>
<!-- Node17 -->
<g id="node17" class="node"><title>Node17</title>
<polygon fill="white" stroke="#bfbfbf" points="1175.06,-112.5 1175.06,-131.5 1255.06,-131.5 1255.06,-112.5 1175.06,-112.5"/>
<text text-anchor="middle" x="1215.06" y="-119.5" font-family="Helvetica,sans-Serif" font-size="10.00">Eigen/Sparse</text>
</g>
<!-- Node14&#45;&gt;Node17 -->
<g id="edge17" class="edge"><title>Node14&#45;&gt;Node17</title>
<path fill="none" stroke="midnightblue" d="M1054.85,-173.975C1087.34,-163.636 1142.26,-146.161 1178.59,-134.602"/>
<polygon fill="midnightblue" stroke="midnightblue" points="1179.85,-137.876 1188.31,-131.509 1177.72,-131.206 1179.85,-137.876"/>
</g>
<!-- Node19&#45;&gt;Node4 -->
<g id="edge20" class="edge"><title>Node19&#45;&gt;Node4</title>
<path fill="none" stroke="midnightblue" d="M499.056,-240.734C499.056,-232.541 499.056,-219.923 499.056,-208.714"/>
<polygon fill="midnightblue" stroke="midnightblue" points="502.556,-208.589 499.056,-198.589 495.556,-208.589 502.556,-208.589"/>
</g>
<!-- Node21 -->
<g id="node21" class="node"><title>Node21</title>
<g id="a_node21"><a xlink:href="Handle_8hpp.html" target="_top" xlink:title="Core/Animation/Handle.hpp">
<polygon fill="white" stroke="black" points="799.556,-308 799.556,-327 948.556,-327 948.556,-308 799.556,-308"/>
<text text-anchor="middle" x="874.056" y="-315" font-family="Helvetica,sans-Serif" font-size="10.00">Core/Animation/Handle.hpp</text>
</a>
</g>
</g>
<!-- Node20&#45;&gt;Node21 -->
<g id="edge22" class="edge"><title>Node20&#45;&gt;Node21</title>
<path fill="none" stroke="midnightblue" d="M627.319,-369.475C678.86,-358.827 767.04,-340.609 822.842,-329.081"/>
<polygon fill="midnightblue" stroke="midnightblue" points="823.784,-332.46 832.869,-327.009 822.368,-325.605 823.784,-332.46"/>
</g>
<!-- Node23 -->
<g id="node23" class="node"><title>Node23</title>
<g id="a_node23"><a xlink:href="AdjacencyList_8hpp.html" target="_top" xlink:title="Core/Containers/Adjacency\lList.hpp">
<polygon fill="white" stroke="black" points="266.056,-302.5 266.056,-332.5 412.056,-332.5 412.056,-302.5 266.056,-302.5"/>
<text text-anchor="start" x="274.056" y="-320.5" font-family="Helvetica,sans-Serif" font-size="10.00">Core/Containers/Adjacency</text>
<text text-anchor="middle" x="339.056" y="-309.5" font-family="Helvetica,sans-Serif" font-size="10.00">List.hpp</text>
</a>
</g>
</g>
<!-- Node20&#45;&gt;Node23 -->
<g id="edge28" class="edge"><title>Node20&#45;&gt;Node23</title>
<path fill="none" stroke="midnightblue" d="M550.667,-369.475C513.384,-360.494 453.748,-346.128 407.273,-334.933"/>
<polygon fill="midnightblue" stroke="midnightblue" points="407.811,-331.462 397.269,-332.523 406.171,-338.268 407.811,-331.462"/>
</g>
<!-- Node21&#45;&gt;Node5 -->
<g id="edge24" class="edge"><title>Node21&#45;&gt;Node5</title>
<path fill="none" stroke="midnightblue" d="M867.167,-307.829C860.029,-298.24 849.329,-282.021 845.056,-266 833.272,-221.815 849.837,-168.242 860.421,-140.917"/>
<polygon fill="midnightblue" stroke="midnightblue" points="863.722,-142.089 864.239,-131.506 857.236,-139.457 863.722,-142.089"/>
</g>
<!-- Node21&#45;&gt;Node14 -->
<g id="edge25" class="edge"><title>Node21&#45;&gt;Node14</title>
<path fill="none" stroke="midnightblue" d="M924.929,-307.951C951.847,-300.945 983.492,-288.371 1004.06,-266 1019.93,-248.734 1025.34,-221.476 1027.17,-203.299"/>
<polygon fill="midnightblue" stroke="midnightblue" points="1030.66,-203.555 1027.9,-193.325 1023.68,-203.041 1030.66,-203.555"/>
</g>
<!-- Node21&#45;&gt;Node19 -->
<g id="edge23" class="edge"><title>Node21&#45;&gt;Node19</title>
<path fill="none" stroke="midnightblue" d="M822.506,-307.982C763.238,-298.131 663.05,-281.303 577.056,-266 569.701,-264.691 561.962,-263.286 554.332,-261.884"/>
<polygon fill="midnightblue" stroke="midnightblue" points="554.873,-258.425 544.404,-260.052 553.603,-265.309 554.873,-258.425"/>
</g>
<!-- Node22 -->
<g id="node22" class="node"><title>Node22</title>
<g id="a_node22"><a xlink:href="Handle_8inl.html" target="_top" xlink:title="Core/Animation/Handle.inl">
<polygon fill="white" stroke="black" points="854.556,-241 854.556,-260 995.556,-260 995.556,-241 854.556,-241"/>
<text text-anchor="middle" x="925.056" y="-248" font-family="Helvetica,sans-Serif" font-size="10.00">Core/Animation/Handle.inl</text>
</a>
</g>
</g>
<!-- Node21&#45;&gt;Node22 -->
<g id="edge26" class="edge"><title>Node21&#45;&gt;Node22</title>
<path fill="none" stroke="midnightblue" d="M876.145,-307.734C882.021,-297.5 895.086,-280.364 906.422,-267.692"/>
<polygon fill="midnightblue" stroke="midnightblue" points="909.232,-269.812 913.528,-260.127 904.13,-265.02 909.232,-269.812"/>
</g>
<!-- Node22&#45;&gt;Node21 -->
<g id="edge27" class="edge"><title>Node22&#45;&gt;Node21</title>
<path fill="none" stroke="midnightblue" d="M923.046,-260.127C917.235,-270.298 904.195,-287.423 892.845,-300.135"/>
<polygon fill="midnightblue" stroke="midnightblue" points="890.007,-298.044 885.723,-307.734 895.115,-302.831 890.007,-298.044"/>
</g>
<!-- Node23&#45;&gt;Node4 -->
<g id="edge29" class="edge"><title>Node23&#45;&gt;Node4</title>
<path fill="none" stroke="midnightblue" d="M299.935,-302.483C283.628,-294.474 266.351,-282.64 257.056,-266 250.337,-253.971 248.365,-245.691 257.056,-235 276.802,-210.708 352.625,-197.703 414.204,-191.009"/>
<polygon fill="midnightblue" stroke="midnightblue" points="414.762,-194.47 424.344,-189.949 414.034,-187.508 414.762,-194.47"/>
</g>
<!-- Node23&#45;&gt;Node9 -->
<g id="edge36" class="edge"><title>Node23&#45;&gt;Node9</title>
<path fill="none" stroke="midnightblue" d="M265.817,-314.118C183.142,-309.884 55.6298,-298.185 21.0559,-266 -6.16771,-240.658 2.0559,-221.694 2.0559,-184.5 2.0559,-184.5 2.0559,-184.5 2.0559,-121 2.0559,-57.3482 217.41,-25.6648 308.32,-15.1258"/>
<polygon fill="midnightblue" stroke="midnightblue" points="308.714,-18.6036 318.257,-14.0009 307.926,-11.648 308.714,-18.6036"/>
</g>
<!-- Node23&#45;&gt;Node15 -->
<g id="edge35" class="edge"><title>Node23&#45;&gt;Node15</title>
<path fill="none" stroke="midnightblue" d="M412.4,-316.969C499.449,-315.477 647.933,-306.414 768.056,-266 858.684,-235.51 952.489,-168.29 991.856,-138.146"/>
<polygon fill="midnightblue" stroke="midnightblue" points="994.482,-140.54 1000.24,-131.649 990.195,-135.005 994.482,-140.54"/>
</g>
<!-- Node23&#45;&gt;Node24 -->
<g id="edge30" class="edge"><title>Node23&#45;&gt;Node24</title>
<path fill="none" stroke="midnightblue" d="M411.118,-302.476C473.583,-290.32 562.584,-272.999 619.075,-262.005"/>
<polygon fill="midnightblue" stroke="midnightblue" points="620.084,-265.375 629.232,-260.029 618.747,-258.503 620.084,-265.375"/>
</g>
<!-- Node25 -->
<g id="node25" class="node"><title>Node25</title>
<g id="a_node25"><a xlink:href="AdjacencyList_8inl.html" target="_top" xlink:title="Core/Containers/Adjacency\lList.inl">
<polygon fill="white" stroke="black" points="266.056,-235.5 266.056,-265.5 412.056,-265.5 412.056,-235.5 266.056,-235.5"/>
<text text-anchor="start" x="274.056" y="-253.5" font-family="Helvetica,sans-Serif" font-size="10.00">Core/Containers/Adjacency</text>
<text text-anchor="middle" x="339.056" y="-242.5" font-family="Helvetica,sans-Serif" font-size="10.00">List.inl</text>
</a>
</g>
</g>
<!-- Node23&#45;&gt;Node25 -->
<g id="edge37" class="edge"><title>Node23&#45;&gt;Node25</title>
<path fill="none" stroke="midnightblue" d="M333.377,-302.396C332.35,-294.56 332.061,-284.596 332.512,-275.565"/>
<polygon fill="midnightblue" stroke="midnightblue" points="336.001,-275.842 333.381,-265.577 329.028,-275.236 336.001,-275.842"/>
</g>
<!-- Node24&#45;&gt;Node4 -->
<g id="edge31" class="edge"><title>Node24&#45;&gt;Node4</title>
<path fill="none" stroke="midnightblue" d="M649.95,-240.869C623.615,-231.031 579.871,-214.689 546.244,-202.128"/>
<polygon fill="midnightblue" stroke="midnightblue" points="547.2,-198.749 536.608,-198.528 544.751,-205.306 547.2,-198.749"/>
</g>
<!-- Node24&#45;&gt;Node5 -->
<g id="edge32" class="edge"><title>Node24&#45;&gt;Node5</title>
<path fill="none" stroke="midnightblue" d="M682.243,-240.846C699.35,-225.026 737.656,-190.959 774.056,-168 794.255,-155.26 818.614,-143.694 837.473,-135.479"/>
<polygon fill="midnightblue" stroke="midnightblue" points="838.963,-138.649 846.783,-131.5 836.212,-132.212 838.963,-138.649"/>
</g>
<!-- Node24&#45;&gt;Node13 -->
<g id="edge34" class="edge"><title>Node24&#45;&gt;Node13</title>
<path fill="none" stroke="midnightblue" d="M668.863,-240.805C658.982,-220.313 634.067,-168.645 620.756,-141.042"/>
<polygon fill="midnightblue" stroke="midnightblue" points="623.774,-139.243 616.278,-131.756 617.469,-142.283 623.774,-139.243"/>
</g>
<!-- Node24&#45;&gt;Node14 -->
<g id="edge33" class="edge"><title>Node24&#45;&gt;Node14</title>
<path fill="none" stroke="midnightblue" d="M719.831,-240.936C785.331,-228.943 904.123,-207.192 973.545,-194.481"/>
<polygon fill="midnightblue" stroke="midnightblue" points="974.211,-197.917 983.417,-192.673 972.95,-191.032 974.211,-197.917"/>
</g>
<!-- Node25&#45;&gt;Node23 -->
<g id="edge38" class="edge"><title>Node25&#45;&gt;Node23</title>
<path fill="none" stroke="midnightblue" d="M344.731,-265.577C345.76,-273.408 346.05,-283.37 345.601,-292.403"/>
<polygon fill="midnightblue" stroke="midnightblue" points="342.112,-292.131 344.734,-302.396 349.086,-292.736 342.112,-292.131"/>
</g>
<!-- Node26&#45;&gt;Node5 -->
<g id="edge42" class="edge"><title>Node26&#45;&gt;Node5</title>
<path fill="none" stroke="midnightblue" d="M1196.21,-369.492C1181.25,-360.765 1157.63,-346.582 1138.06,-333 1039.7,-264.735 928.803,-173.747 886.121,-138.165"/>
<polygon fill="midnightblue" stroke="midnightblue" points="888.214,-135.354 878.297,-131.626 883.725,-140.725 888.214,-135.354"/>
</g>
<!-- Node26&#45;&gt;Node14 -->
<g id="edge43" class="edge"><title>Node26&#45;&gt;Node14</title>
<path fill="none" stroke="midnightblue" d="M1197.55,-369.415C1185.6,-361.254 1168.35,-348.02 1157.06,-333 1128.47,-294.985 1145.66,-270.549 1114.06,-235 1099.4,-218.513 1078.03,-205.928 1060.26,-197.445"/>
<polygon fill="midnightblue" stroke="midnightblue" points="1061.38,-194.108 1050.82,-193.156 1058.48,-200.48 1061.38,-194.108"/>
</g>
<!-- Node27 -->
<g id="node27" class="node"><title>Node27</title>
<g id="a_node27"><a xlink:href="DualQuaternion_8inl.html" target="_top" xlink:title="Core/Math/DualQuaternion.inl">
<polygon fill="white" stroke="black" points="1166.06,-308 1166.06,-327 1324.06,-327 1324.06,-308 1166.06,-308"/>
<text text-anchor="middle" x="1245.06" y="-315" font-family="Helvetica,sans-Serif" font-size="10.00">Core/Math/DualQuaternion.inl</text>
</a>
</g>
</g>
<!-- Node26&#45;&gt;Node27 -->
<g id="edge44" class="edge"><title>Node26&#45;&gt;Node27</title>
<path fill="none" stroke="midnightblue" d="M1211.03,-369.475C1214.18,-360.55 1221.91,-346.307 1229.42,-335.143"/>
<polygon fill="midnightblue" stroke="midnightblue" points="1232.27,-337.163 1235.3,-327.009 1226.6,-333.062 1232.27,-337.163"/>
</g>
<!-- Node27&#45;&gt;Node26 -->
<g id="edge45" class="edge"><title>Node27&#45;&gt;Node26</title>
<path fill="none" stroke="midnightblue" d="M1245.09,-327.009C1241.94,-335.928 1234.22,-350.169 1226.71,-361.338"/>
<polygon fill="midnightblue" stroke="midnightblue" points="1223.85,-359.32 1220.83,-369.475 1229.52,-363.421 1223.85,-359.32"/>
</g>
<!-- Node28 -->
<g id="node28" class="node"><title>Node28</title>
<g id="a_node28"><a xlink:href="LinearAlgebra_8hpp.html" target="_top" xlink:title="Core/Math/LinearAlgebra.hpp">
<polygon fill="white" stroke="black" points="1167.06,-241 1167.06,-260 1323.06,-260 1323.06,-241 1167.06,-241"/>
<text text-anchor="middle" x="1245.06" y="-248" font-family="Helvetica,sans-Serif" font-size="10.00">Core/Math/LinearAlgebra.hpp</text>
</a>
</g>
</g>
<!-- Node27&#45;&gt;Node28 -->
<g id="edge46" class="edge"><title>Node27&#45;&gt;Node28</title>
<path fill="none" stroke="midnightblue" d="M1245.06,-307.734C1245.06,-298.183 1245.06,-282.618 1245.06,-270.283"/>
<polygon fill="midnightblue" stroke="midnightblue" points="1248.56,-270.127 1245.06,-260.127 1241.56,-270.127 1248.56,-270.127"/>
</g>
<!-- Node28&#45;&gt;Node5 -->
<g id="edge47" class="edge"><title>Node28&#45;&gt;Node5</title>
<path fill="none" stroke="midnightblue" d="M1213.88,-240.95C1186.56,-232.651 1146.44,-218.454 1115.06,-199 1097.67,-188.226 1099.25,-177.329 1081.06,-168 1032.85,-143.285 971.85,-132.139 927.497,-127.115"/>
<polygon fill="midnightblue" stroke="midnightblue" points="927.763,-123.624 917.45,-126.049 927.024,-130.585 927.763,-123.624"/>
</g>
<!-- Node28&#45;&gt;Node14 -->
<g id="edge59" class="edge"><title>Node28&#45;&gt;Node14</title>
<path fill="none" stroke="midnightblue" d="M1216.24,-240.869C1177.71,-229.327 1109.3,-208.835 1066.43,-195.996"/>
<polygon fill="midnightblue" stroke="midnightblue" points="1067.23,-192.58 1056.65,-193.064 1065.22,-199.286 1067.23,-192.58"/>
</g>
<!-- Node28&#45;&gt;Node15 -->
<g id="edge48" class="edge"><title>Node28&#45;&gt;Node15</title>
<path fill="none" stroke="midnightblue" d="M1229.06,-240.836C1211.39,-231.125 1182.23,-214.678 1158.06,-199 1138.29,-186.182 1135.54,-179.635 1115.06,-168 1092.31,-155.084 1065.14,-143.447 1044.28,-135.244"/>
<polygon fill="midnightblue" stroke="midnightblue" points="1045.47,-131.953 1034.88,-131.613 1042.95,-138.482 1045.47,-131.953"/>
</g>
<!-- Node28&#45;&gt;Node16 -->
<g id="edge49" class="edge"><title>Node28&#45;&gt;Node16</title>
<path fill="none" stroke="midnightblue" d="M1235.78,-240.805C1213.33,-219.772 1155.83,-165.892 1127.03,-138.904"/>
<polygon fill="midnightblue" stroke="midnightblue" points="1129.09,-136.039 1119.4,-131.756 1124.3,-141.147 1129.09,-136.039"/>
</g>
<!-- Node28&#45;&gt;Node17 -->
<g id="edge50" class="edge"><title>Node28&#45;&gt;Node17</title>
<path fill="none" stroke="midnightblue" d="M1242.99,-240.805C1238.18,-220.494 1226.1,-169.553 1219.51,-141.777"/>
<polygon fill="midnightblue" stroke="midnightblue" points="1222.85,-140.678 1217.13,-131.756 1216.03,-142.293 1222.85,-140.678"/>
</g>
<!-- Node29 -->
<g id="node29" class="node"><title>Node29</title>
<polygon fill="white" stroke="#bfbfbf" points="1243.56,-174 1243.56,-193 1306.56,-193 1306.56,-174 1243.56,-174"/>
<text text-anchor="middle" x="1275.06" y="-181" font-family="Helvetica,sans-Serif" font-size="10.00">functional</text>
</g>
<!-- Node28&#45;&gt;Node29 -->
<g id="edge51" class="edge"><title>Node28&#45;&gt;Node29</title>
<path fill="none" stroke="midnightblue" d="M1249.1,-240.734C1253.6,-230.988 1260.99,-214.981 1266.73,-202.532"/>
<polygon fill="midnightblue" stroke="midnightblue" points="1270.06,-203.674 1271.07,-193.127 1263.71,-200.74 1270.06,-203.674"/>
</g>
<!-- Node30 -->
<g id="node30" class="node"><title>Node30</title>
<polygon fill="white" stroke="#bfbfbf" points="1324.56,-168.5 1324.56,-198.5 1469.56,-198.5 1469.56,-168.5 1324.56,-168.5"/>
<text text-anchor="start" x="1332.56" y="-186.5" font-family="Helvetica,sans-Serif" font-size="10.00">unsupported/Eigen/Aligned</text>
<text text-anchor="middle" x="1397.06" y="-175.5" font-family="Helvetica,sans-Serif" font-size="10.00">Vector3</text>
</g>
<!-- Node28&#45;&gt;Node30 -->
<g id="edge52" class="edge"><title>Node28&#45;&gt;Node30</title>
<path fill="none" stroke="midnightblue" d="M1265.24,-240.869C1287.95,-231.157 1325.48,-215.109 1354.7,-202.615"/>
<polygon fill="midnightblue" stroke="midnightblue" points="1356.43,-205.678 1364.25,-198.528 1353.68,-199.242 1356.43,-205.678"/>
</g>
<!-- Node31 -->
<g id="node31" class="node"><title>Node31</title>
<g id="a_node31"><a xlink:href="Math_8hpp.html" target="_top" xlink:title="Core/Math/Math.hpp">
<polygon fill="white" stroke="black" points="1655.06,-174 1655.06,-193 1769.06,-193 1769.06,-174 1655.06,-174"/>
<text text-anchor="middle" x="1712.06" y="-181" font-family="Helvetica,sans-Serif" font-size="10.00">Core/Math/Math.hpp</text>
</a>
</g>
</g>
<!-- Node28&#45;&gt;Node31 -->
<g id="edge53" class="edge"><title>Node28&#45;&gt;Node31</title>
<path fill="none" stroke="midnightblue" d="M1323.37,-241.769C1404.42,-233.269 1534.56,-218.228 1646.06,-199 1652.43,-197.901 1659.12,-196.603 1665.69,-195.243"/>
<polygon fill="midnightblue" stroke="midnightblue" points="1666.81,-198.582 1675.86,-193.073 1665.35,-191.736 1666.81,-198.582"/>
</g>
<!-- Node35 -->
<g id="node35" class="node"><title>Node35</title>
<g id="a_node35"><a xlink:href="LinearAlgebra_8inl.html" target="_top" xlink:title="Core/Math/LinearAlgebra.inl">
<polygon fill="white" stroke="black" points="1487.56,-174 1487.56,-193 1636.56,-193 1636.56,-174 1487.56,-174"/>
<text text-anchor="middle" x="1562.06" y="-181" font-family="Helvetica,sans-Serif" font-size="10.00">Core/Math/LinearAlgebra.inl</text>
</a>
</g>
</g>
<!-- Node28&#45;&gt;Node35 -->
<g id="edge60" class="edge"><title>Node28&#45;&gt;Node35</title>
<path fill="none" stroke="midnightblue" d="M1282.08,-240.936C1337.23,-229.106 1441.09,-207.784 1505.69,-195.006"/>
<polygon fill="midnightblue" stroke="midnightblue" points="1506.57,-198.4 1515.71,-193.032 1505.22,-191.532 1506.57,-198.4"/>
</g>
<!-- Node31&#45;&gt;Node5 -->
<g id="edge54" class="edge"><title>Node31&#45;&gt;Node5</title>
<path fill="none" stroke="midnightblue" d="M1678.33,-173.98C1668.03,-171.68 1656.64,-169.433 1646.06,-168 1347.03,-127.49 1269.04,-153.528 968.056,-132 954.824,-131.054 940.622,-129.875 927.196,-128.685"/>
<polygon fill="midnightblue" stroke="midnightblue" points="927.383,-125.188 917.109,-127.777 926.755,-132.159 927.383,-125.188"/>
</g>
<!-- Node32 -->
<g id="node32" class="node"><title>Node32</title>
<polygon fill="white" stroke="#bfbfbf" points="1783.06,-112.5 1783.06,-131.5 1845.06,-131.5 1845.06,-112.5 1783.06,-112.5"/>
<text text-anchor="middle" x="1814.06" y="-119.5" font-family="Helvetica,sans-Serif" font-size="10.00">algorithm</text>
</g>
<!-- Node31&#45;&gt;Node32 -->
<g id="edge55" class="edge"><title>Node31&#45;&gt;Node32</title>
<path fill="none" stroke="midnightblue" d="M1726.67,-173.975C1743.41,-164.211 1771.06,-148.081 1790.77,-136.581"/>
<polygon fill="midnightblue" stroke="midnightblue" points="1792.59,-139.571 1799.47,-131.509 1789.07,-133.525 1792.59,-139.571"/>
</g>
<!-- Node33 -->
<g id="node33" class="node"><title>Node33</title>
<polygon fill="white" stroke="#bfbfbf" points="1593.56,-112.5 1593.56,-131.5 1640.56,-131.5 1640.56,-112.5 1593.56,-112.5"/>
<text text-anchor="middle" x="1617.06" y="-119.5" font-family="Helvetica,sans-Serif" font-size="10.00">cmath</text>
</g>
<!-- Node31&#45;&gt;Node33 -->
<g id="edge56" class="edge"><title>Node31&#45;&gt;Node33</title>
<path fill="none" stroke="midnightblue" d="M1698.44,-173.975C1683,-164.299 1657.57,-148.372 1639.24,-136.894"/>
<polygon fill="midnightblue" stroke="midnightblue" points="1640.97,-133.851 1630.64,-131.509 1637.26,-139.783 1640.97,-133.851"/>
</g>
<!-- Node34 -->
<g id="node34" class="node"><title>Node34</title>
<g id="a_node34"><a xlink:href="Math_8inl.html" target="_top" xlink:title="Core/Math/Math.inl">
<polygon fill="white" stroke="black" points="1658.56,-112.5 1658.56,-131.5 1765.56,-131.5 1765.56,-112.5 1658.56,-112.5"/>
<text text-anchor="middle" x="1712.06" y="-119.5" font-family="Helvetica,sans-Serif" font-size="10.00">Core/Math/Math.inl</text>
</a>
</g>
</g>
<!-- Node31&#45;&gt;Node34 -->
<g id="edge57" class="edge"><title>Node31&#45;&gt;Node34</title>
<path fill="none" stroke="midnightblue" d="M1707.16,-173.975C1705.32,-165.58 1704.85,-152.481 1705.74,-141.663"/>
<polygon fill="midnightblue" stroke="midnightblue" points="1709.24,-141.897 1707.16,-131.509 1702.31,-140.929 1709.24,-141.897"/>
</g>
<!-- Node34&#45;&gt;Node31 -->
<g id="edge58" class="edge"><title>Node34&#45;&gt;Node31</title>
<path fill="none" stroke="midnightblue" d="M1716.95,-131.509C1718.79,-139.898 1719.26,-152.996 1718.37,-163.817"/>
<polygon fill="midnightblue" stroke="midnightblue" points="1714.87,-163.588 1716.96,-173.975 1721.8,-164.554 1714.87,-163.588"/>
</g>
<!-- Node35&#45;&gt;Node28 -->
<g id="edge61" class="edge"><title>Node35&#45;&gt;Node28</title>
<path fill="none" stroke="midnightblue" d="M1524.94,-193.083C1469.82,-204.906 1366.16,-226.187 1301.59,-238.961"/>
<polygon fill="midnightblue" stroke="midnightblue" points="1300.7,-235.567 1291.57,-240.936 1302.06,-242.435 1300.7,-235.567"/>
</g>
</g>
</svg>
