<?xml version="1.0" encoding="UTF-8" standalone="no"?>
<!DOCTYPE svg PUBLIC "-//W3C//DTD SVG 1.1//EN"
 "http://www.w3.org/Graphics/SVG/1.1/DTD/svg11.dtd">
<!-- Generated by graphviz version 2.38.0 (20140413.2041)
 -->
<!-- Title: Ra::Core::Asset::HandleComponentData Pages: 1 -->
<svg width="483pt" height="552pt"
 viewBox="0.00 0.00 482.50 552.00" xmlns="http://www.w3.org/2000/svg" xmlns:xlink="http://www.w3.org/1999/xlink">
<g id="graph0" class="graph" transform="scale(1 1) rotate(0) translate(4 548)">
<title>Ra::Core::Asset::HandleComponentData</title>
<polygon fill="white" stroke="none" points="-4,4 -4,-548 478.5,-548 478.5,4 -4,4"/>
<!-- Node1 -->
<g id="node1" class="node"><title>Node1</title>
<polygon fill="#bfbfbf" stroke="black" points="116,-0.5 116,-57.5 325,-57.5 325,-0.5 116,-0.5"/>
<text text-anchor="middle" x="220.5" y="-45.5" font-family="Helvetica,sans-Serif" font-size="10.00">Ra::Core::Asset::HandleComponentData</text>
<polyline fill="none" stroke="black" points="116,-38.5 325,-38.5 "/>
<text text-anchor="middle" x="220.5" y="-26.5" font-family="Helvetica,sans-Serif" font-size="10.00"> </text>
<polyline fill="none" stroke="black" points="116,-19.5 325,-19.5 "/>
<text text-anchor="start" x="124" y="-7.5" font-family="Helvetica,sans-Serif" font-size="10.00">+ HandleComponentData()</text>
</g>
<!-- Node2 -->
<g id="node2" class="node"><title>Node2</title>
<polygon fill="white" stroke="#bfbfbf" points="159.5,-116.5 159.5,-195.5 281.5,-195.5 281.5,-116.5 159.5,-116.5"/>
<text text-anchor="start" x="167.5" y="-183.5" font-family="Helvetica,sans-Serif" font-size="10.00">std::map&lt; std::string,</text>
<text text-anchor="start" x="167.5" y="-172.5" font-family="Helvetica,sans-Serif" font-size="10.00"> std::vector&lt; std::pair</text>
<text text-anchor="middle" x="220.5" y="-161.5" font-family="Helvetica,sans-Serif" font-size="10.00">&lt; uint, Scalar &gt; &gt; &gt;</text>
<polyline fill="none" stroke="#bfbfbf" points="159.5,-154.5 281.5,-154.5 "/>
<text text-anchor="middle" x="220.5" y="-142.5" font-family="Helvetica,sans-Serif" font-size="10.00"> </text>
<polyline fill="none" stroke="#bfbfbf" points="159.5,-135.5 281.5,-135.5 "/>
<text text-anchor="middle" x="220.5" y="-123.5" font-family="Helvetica,sans-Serif" font-size="10.00"> </text>
</g>
<!-- Node2&#45;&gt;Node1 -->
<g id="edge1" class="edge"><title>Node2&#45;&gt;Node1</title>
<path fill="none" stroke="#404040" d="M220.5,-116.476C220.5,-101.829 220.5,-85.1107 220.5,-70.3031"/>
<polygon fill="none" stroke="#404040" points="220.5,-69.8823 216.5,-63.8823 220.5,-57.8823 224.5,-63.8823 220.5,-69.8823"/>
<text text-anchor="middle" x="249.5" y="-84.5" font-family="Helvetica,sans-Serif" font-size="10.00"> +m_weight</text>
</g>
<!-- Node3 -->
<g id="node3" class="node"><title>Node3</title>
<g id="a_node3"><a xlink:title="STL class. ">
<polygon fill="white" stroke="#bfbfbf" points="54,-249 54,-306 119,-306 119,-249 54,-249"/>
<text text-anchor="middle" x="86.5" y="-294" font-family="Helvetica,sans-Serif" font-size="10.00">std::string</text>
<polyline fill="none" stroke="#bfbfbf" points="54,-287 119,-287 "/>
<text text-anchor="middle" x="86.5" y="-275" font-family="Helvetica,sans-Serif" font-size="10.00"> </text>
<polyline fill="none" stroke="#bfbfbf" points="54,-268 119,-268 "/>
<text text-anchor="middle" x="86.5" y="-256" font-family="Helvetica,sans-Serif" font-size="10.00"> </text>
</a>
</g>
</g>
<!-- Node3&#45;&gt;Node1 -->
<g id="edge11" class="edge"><title>Node3&#45;&gt;Node1</title>
<path fill="none" stroke="#404040" d="M81.0837,-248.926C75.9556,-215.238 72.1155,-157.601 95.5,-116 107.591,-94.4903 127.57,-77.2071 148.045,-63.9375"/>
<polygon fill="none" stroke="#404040" points="148.207,-63.8382 151.224,-57.2886 158.43,-57.5545 155.413,-64.1041 148.207,-63.8382"/>
<text text-anchor="middle" x="123" y="-153.5" font-family="Helvetica,sans-Serif" font-size="10.00"> +m_name</text>
</g>
<!-- Node3&#45;&gt;Node2 -->
<g id="edge2" class="edge"><title>Node3&#45;&gt;Node2</title>
<path fill="none" stroke="#404040" d="M117.579,-248.784C132.518,-235.462 150.839,-219.123 167.862,-203.942"/>
<polygon fill="none" stroke="#404040" points="168.2,-203.641 170.016,-196.662 177.156,-195.654 175.34,-202.633 168.2,-203.641"/>
<text text-anchor="middle" x="170.5" y="-217" font-family="Helvetica,sans-Serif" font-size="10.00"> +keys</text>
</g>
<!-- Node4 -->
<g id="node4" class="node"><title>Node4</title>
<g id="a_node4"><a xlink:title="STL class. ">
<polygon fill="white" stroke="#bfbfbf" points="0,-370.5 0,-438.5 103,-438.5 103,-370.5 0,-370.5"/>
<text text-anchor="start" x="8" y="-426.5" font-family="Helvetica,sans-Serif" font-size="10.00">std::basic_string&lt;</text>
<text text-anchor="middle" x="51.5" y="-415.5" font-family="Helvetica,sans-Serif" font-size="10.00"> char &gt;</text>
<polyline fill="none" stroke="#bfbfbf" points="0,-408.5 103,-408.5 "/>
<text text-anchor="middle" x="51.5" y="-396.5" font-family="Helvetica,sans-Serif" font-size="10.00"> </text>
<polyline fill="none" stroke="#bfbfbf" points="0,-389.5 103,-389.5 "/>
<text text-anchor="middle" x="51.5" y="-377.5" font-family="Helvetica,sans-Serif" font-size="10.00"> </text>
</a>
</g>
</g>
<!-- Node4&#45;&gt;Node3 -->
<g id="edge3" class="edge"><title>Node4&#45;&gt;Node3</title>
<path fill="none" stroke="midnightblue" d="M63.5013,-360.638C68.533,-342.668 74.2398,-322.286 78.71,-306.322"/>
<polygon fill="none" stroke="midnightblue" points="60.1135,-359.757 60.7875,-370.33 66.8542,-361.645 60.1135,-359.757"/>
</g>
<!-- Node5 -->
<g id="node5" class="node"><title>Node5</title>
<polygon fill="white" stroke="#bfbfbf" points="161.5,-243.5 161.5,-311.5 279.5,-311.5 279.5,-243.5 161.5,-243.5"/>
<text text-anchor="start" x="169.5" y="-299.5" font-family="Helvetica,sans-Serif" font-size="10.00">std::vector&lt; std::pair</text>
<text text-anchor="middle" x="220.5" y="-288.5" font-family="Helvetica,sans-Serif" font-size="10.00">&lt; uint, Scalar &gt; &gt;</text>
<polyline fill="none" stroke="#bfbfbf" points="161.5,-281.5 279.5,-281.5 "/>
<text text-anchor="middle" x="220.5" y="-269.5" font-family="Helvetica,sans-Serif" font-size="10.00"> </text>
<polyline fill="none" stroke="#bfbfbf" points="161.5,-262.5 279.5,-262.5 "/>
<text text-anchor="middle" x="220.5" y="-250.5" font-family="Helvetica,sans-Serif" font-size="10.00"> </text>
</g>
<!-- Node5&#45;&gt;Node2 -->
<g id="edge4" class="edge"><title>Node5&#45;&gt;Node2</title>
<path fill="none" stroke="#404040" d="M220.5,-243.213C220.5,-232.244 220.5,-219.784 220.5,-207.814"/>
<polygon fill="none" stroke="#404040" points="220.5,-207.6 216.5,-201.6 220.5,-195.6 224.5,-201.6 220.5,-207.6"/>
<text text-anchor="middle" x="249" y="-217" font-family="Helvetica,sans-Serif" font-size="10.00"> +elements</text>
</g>
<!-- Node6 -->
<g id="node6" class="node"><title>Node6</title>
<polygon fill="white" stroke="#bfbfbf" points="121,-376 121,-433 232,-433 232,-376 121,-376"/>
<text text-anchor="middle" x="176.5" y="-421" font-family="Helvetica,sans-Serif" font-size="10.00">pair&lt; uint, Scalar &gt;</text>
<polyline fill="none" stroke="#bfbfbf" points="121,-414 232,-414 "/>
<text text-anchor="middle" x="176.5" y="-402" font-family="Helvetica,sans-Serif" font-size="10.00"> </text>
<polyline fill="none" stroke="#bfbfbf" points="121,-395 232,-395 "/>
<text text-anchor="middle" x="176.5" y="-383" font-family="Helvetica,sans-Serif" font-size="10.00"> </text>
</g>
<!-- Node6&#45;&gt;Node5 -->
<g id="edge5" class="edge"><title>Node6&#45;&gt;Node5</title>
<path fill="none" stroke="#404040" d="M183.37,-375.979C187.097,-362.049 192.052,-344.964 197.5,-330 198.351,-327.664 199.259,-325.284 200.205,-322.893"/>
<polygon fill="none" stroke="#404040" points="200.234,-322.822 198.838,-315.747 204.832,-311.738 206.228,-318.813 200.234,-322.822"/>
<text text-anchor="middle" x="226" y="-338.5" font-family="Helvetica,sans-Serif" font-size="10.00"> +elements</text>
</g>
<!-- Node7 -->
<g id="node7" class="node"><title>Node7</title>
<g id="a_node7"><a xlink:title="STL class. ">
<polygon fill="white" stroke="#bfbfbf" points="250,-376 250,-433 345,-433 345,-376 250,-376"/>
<text text-anchor="middle" x="297.5" y="-421" font-family="Helvetica,sans-Serif" font-size="10.00">std::vector&lt; T &gt;</text>
<polyline fill="none" stroke="#bfbfbf" points="250,-414 345,-414 "/>
<text text-anchor="middle" x="297.5" y="-402" font-family="Helvetica,sans-Serif" font-size="10.00"> </text>
<polyline fill="none" stroke="#bfbfbf" points="250,-395 345,-395 "/>
<text text-anchor="middle" x="297.5" y="-383" font-family="Helvetica,sans-Serif" font-size="10.00"> </text>
</a>
</g>
</g>
<!-- Node7&#45;&gt;Node5 -->
<g id="edge6" class="edge"><title>Node7&#45;&gt;Node5</title>
<path fill="none" stroke="orange" d="M276.634,-366.939C269.723,-355.075 261.904,-341.904 254.5,-330 250.765,-323.996 246.697,-317.664 242.714,-311.573"/>
<polygon fill="orange" stroke="orange" points="273.677,-368.818 281.719,-375.715 279.734,-365.308 273.677,-368.818"/>
<text text-anchor="start" x="267.5" y="-344" font-family="Helvetica,sans-Serif" font-size="10.00"> &lt; std::pair&lt; uint,</text>
<text text-anchor="middle" x="310.5" y="-333" font-family="Helvetica,sans-Serif" font-size="10.00"> Scalar &gt; &gt;</text>
</g>
<!-- Node8 -->
<g id="node8" class="node"><title>Node8</title>
<polygon fill="white" stroke="#bfbfbf" points="323,-486.5 323,-543.5 352,-543.5 352,-486.5 323,-486.5"/>
<text text-anchor="middle" x="337.5" y="-531.5" font-family="Helvetica,sans-Serif" font-size="10.00">T</text>
<polyline fill="none" stroke="#bfbfbf" points="323,-524.5 352,-524.5 "/>
<text text-anchor="middle" x="337.5" y="-512.5" font-family="Helvetica,sans-Serif" font-size="10.00"> </text>
<polyline fill="none" stroke="#bfbfbf" points="323,-505.5 352,-505.5 "/>
<text text-anchor="middle" x="337.5" y="-493.5" font-family="Helvetica,sans-Serif" font-size="10.00"> </text>
</g>
<!-- Node8&#45;&gt;Node7 -->
<g id="edge7" class="edge"><title>Node8&#45;&gt;Node7</title>
<path fill="none" stroke="#404040" d="M322.734,-501.564C313.891,-493.12 303.437,-481.132 298.5,-468 295.826,-460.886 294.539,-452.987 294.082,-445.265"/>
<polygon fill="none" stroke="#404040" points="294.08,-445.014 290.031,-439.048 293.981,-433.015 298.03,-438.981 294.08,-445.014"/>
<text text-anchor="middle" x="327" y="-460" font-family="Helvetica,sans-Serif" font-size="10.00"> +elements</text>
</g>
<!-- Node9 -->
<g id="node9" class="node"><title>Node9</title>
<g id="a_node9"><a xlink:title="STL class. ">
<polygon fill="white" stroke="#bfbfbf" points="363,-376 363,-433 462,-433 462,-376 363,-376"/>
<text text-anchor="middle" x="412.5" y="-421" font-family="Helvetica,sans-Serif" font-size="10.00">std::map&lt; K, T &gt;</text>
<polyline fill="none" stroke="#bfbfbf" points="363,-414 462,-414 "/>
<text text-anchor="middle" x="412.5" y="-402" font-family="Helvetica,sans-Serif" font-size="10.00"> </text>
<polyline fill="none" stroke="#bfbfbf" points="363,-395 462,-395 "/>
<text text-anchor="middle" x="412.5" y="-383" font-family="Helvetica,sans-Serif" font-size="10.00"> </text>
</a>
</g>
</g>
<!-- Node8&#45;&gt;Node9 -->
<g id="edge10" class="edge"><title>Node8&#45;&gt;Node9</title>
<path fill="none" stroke="#404040" d="M352.132,-490.772C358.811,-480.35 366.91,-467.96 374.5,-457 377.645,-452.458 381.002,-447.738 384.37,-443.08"/>
<polygon fill="none" stroke="#404040" points="384.601,-442.765 384.912,-435.56 391.682,-433.076 391.371,-440.281 384.601,-442.765"/>
<text text-anchor="middle" x="403" y="-460" font-family="Helvetica,sans-Serif" font-size="10.00"> +elements</text>
</g>
<!-- Node9&#45;&gt;Node2 -->
<g id="edge8" class="edge"><title>Node9&#45;&gt;Node2</title>
<path fill="none" stroke="orange" d="M390.448,-366.808C365.997,-327.353 324.322,-263.612 281.5,-214 276.196,-207.856 270.294,-201.672 264.309,-195.76"/>
<polygon fill="orange" stroke="orange" points="387.766,-369.128 395.989,-375.81 393.728,-365.459 387.766,-369.128"/>
<text text-anchor="start" x="355.5" y="-286" font-family="Helvetica,sans-Serif" font-size="10.00"> &lt; std::string, std</text>
<text text-anchor="start" x="355.5" y="-275" font-family="Helvetica,sans-Serif" font-size="10.00">::vector&lt; std::pair</text>
<text text-anchor="middle" x="405.5" y="-264" font-family="Helvetica,sans-Serif" font-size="10.00">&lt; uint, Scalar &gt; &gt; &gt;</text>
</g>
<!-- Node10 -->
<g id="node10" class="node"><title>Node10</title>
<polygon fill="white" stroke="#bfbfbf" points="443,-486.5 443,-543.5 472,-543.5 472,-486.5 443,-486.5"/>
<text text-anchor="middle" x="457.5" y="-531.5" font-family="Helvetica,sans-Serif" font-size="10.00">K</text>
<polyline fill="none" stroke="#bfbfbf" points="443,-524.5 472,-524.5 "/>
<text text-anchor="middle" x="457.5" y="-512.5" font-family="Helvetica,sans-Serif" font-size="10.00"> </text>
<polyline fill="none" stroke="#bfbfbf" points="443,-505.5 472,-505.5 "/>
<text text-anchor="middle" x="457.5" y="-493.5" font-family="Helvetica,sans-Serif" font-size="10.00"> </text>
</g>
<!-- Node10&#45;&gt;Node9 -->
<g id="edge9" class="edge"><title>Node10&#45;&gt;Node9</title>
<path fill="none" stroke="#404040" d="M447.155,-486.343C443.567,-476.984 439.452,-466.5 435.5,-457 433.782,-452.869 431.944,-448.573 430.085,-444.301"/>
<polygon fill="none" stroke="#404040" points="430.023,-444.161 423.941,-440.287 425.178,-433.183 431.26,-437.057 430.023,-444.161"/>
<text text-anchor="middle" x="457.5" y="-460" font-family="Helvetica,sans-Serif" font-size="10.00"> +keys</text>
</g>
<!-- Node11 -->
<g id="node11" class="node"><title>Node11</title>
<polygon fill="white" stroke="#bfbfbf" points="299.5,-122 299.5,-190 407.5,-190 407.5,-122 299.5,-122"/>
<text text-anchor="start" x="307.5" y="-178" font-family="Helvetica,sans-Serif" font-size="10.00">Transform&lt; Scalar,</text>
<text text-anchor="middle" x="353.5" y="-167" font-family="Helvetica,sans-Serif" font-size="10.00"> 3, Eigen::Affine &gt;</text>
<polyline fill="none" stroke="#bfbfbf" points="299.5,-160 407.5,-160 "/>
<text text-anchor="middle" x="353.5" y="-148" font-family="Helvetica,sans-Serif" font-size="10.00"> </text>
<polyline fill="none" stroke="#bfbfbf" points="299.5,-141 407.5,-141 "/>
<text text-anchor="middle" x="353.5" y="-129" font-family="Helvetica,sans-Serif" font-size="10.00"> </text>
</g>
<!-- Node11&#45;&gt;Node1 -->
<g id="edge12" class="edge"><title>Node11&#45;&gt;Node1</title>
<path fill="none" stroke="#404040" d="M326.212,-121.719C313.548,-107.064 297.909,-90.0275 282.5,-76 278.489,-72.3487 274.197,-68.7022 269.813,-65.1504"/>
<polygon fill="none" stroke="#404040" points="269.581,-64.9689 262.392,-64.4115 260.141,-57.5607 267.33,-58.118 269.581,-64.9689"/>
<text text-anchor="middle" x="331" y="-90" font-family="Helvetica,sans-Serif" font-size="10.00"> +m_frame</text>
<text text-anchor="middle" x="331" y="-79" font-family="Helvetica,sans-Serif" font-size="10.00">+m_offset</text>
</g>
</g>
</svg>
