<?xml version="1.0" encoding="UTF-8" standalone="no"?>
<!DOCTYPE svg PUBLIC "-//W3C//DTD SVG 1.1//EN"
 "http://www.w3.org/Graphics/SVG/1.1/DTD/svg11.dtd">
<!-- Generated by graphviz version 2.38.0 (20140413.2041)
 -->
<!-- Title: Ra::Engine::Renderer::PickingQuery Pages: 1 -->
<svg width="332pt" height="182pt"
 viewBox="0.00 0.00 332.00 182.00" xmlns="http://www.w3.org/2000/svg" xmlns:xlink="http://www.w3.org/1999/xlink">
<g id="graph0" class="graph" transform="scale(1 1) rotate(0) translate(4 178)">
<title>Ra::Engine::Renderer::PickingQuery</title>
<polygon fill="white" stroke="none" points="-4,4 -4,-178 328,-178 328,4 -4,4"/>
<!-- Node1 -->
<g id="node1" class="node"><title>Node1</title>
<polygon fill="#bfbfbf" stroke="black" points="81,-0.5 81,-68.5 197,-68.5 197,-0.5 81,-0.5"/>
<text text-anchor="start" x="89" y="-56.5" font-family="Helvetica,sans-Serif" font-size="10.00">Ra::Engine::Renderer</text>
<text text-anchor="middle" x="139" y="-45.5" font-family="Helvetica,sans-Serif" font-size="10.00">::PickingQuery</text>
<polyline fill="none" stroke="black" points="81,-38.5 197,-38.5 "/>
<text text-anchor="middle" x="139" y="-26.5" font-family="Helvetica,sans-Serif" font-size="10.00"> </text>
<polyline fill="none" stroke="black" points="81,-19.5 197,-19.5 "/>
<text text-anchor="middle" x="139" y="-7.5" font-family="Helvetica,sans-Serif" font-size="10.00"> </text>
</g>
<!-- Node2 -->
<g id="node2" class="node"><title>Node2</title>
<polygon fill="white" stroke="#bfbfbf" points="0,-116.5 0,-173.5 76,-173.5 76,-116.5 0,-116.5"/>
<text text-anchor="middle" x="38" y="-161.5" font-family="Helvetica,sans-Serif" font-size="10.00">PickingMode</text>
<polyline fill="none" stroke="#bfbfbf" points="0,-154.5 76,-154.5 "/>
<text text-anchor="middle" x="38" y="-142.5" font-family="Helvetica,sans-Serif" font-size="10.00"> </text>
<polyline fill="none" stroke="#bfbfbf" points="0,-135.5 76,-135.5 "/>
<text text-anchor="middle" x="38" y="-123.5" font-family="Helvetica,sans-Serif" font-size="10.00"> </text>
</g>
<!-- Node2&#45;&gt;Node1 -->
<g id="edge1" class="edge"><title>Node2&#45;&gt;Node1</title>
<path fill="none" stroke="#404040" d="M56.5059,-116.372C63.4446,-106.719 71.6745,-96.0433 80,-87 83.0332,-83.7053 86.2625,-80.4059 89.5874,-77.1575"/>
<polygon fill="none" stroke="#404040" points="89.8102,-76.9475 91.4325,-69.9212 98.5423,-68.7164 96.9199,-75.7426 89.8102,-76.9475"/>
<text text-anchor="middle" x="107.5" y="-90" font-family="Helvetica,sans-Serif" font-size="10.00"> +m_mode</text>
</g>
<!-- Node3 -->
<g id="node3" class="node"><title>Node3</title>
<polygon fill="white" stroke="#bfbfbf" points="94.5,-116.5 94.5,-173.5 183.5,-173.5 183.5,-116.5 94.5,-116.5"/>
<text text-anchor="middle" x="139" y="-161.5" font-family="Helvetica,sans-Serif" font-size="10.00">PickingPurpose</text>
<polyline fill="none" stroke="#bfbfbf" points="94.5,-154.5 183.5,-154.5 "/>
<text text-anchor="middle" x="139" y="-142.5" font-family="Helvetica,sans-Serif" font-size="10.00"> </text>
<polyline fill="none" stroke="#bfbfbf" points="94.5,-135.5 183.5,-135.5 "/>
<text text-anchor="middle" x="139" y="-123.5" font-family="Helvetica,sans-Serif" font-size="10.00"> </text>
</g>
<!-- Node3&#45;&gt;Node1 -->
<g id="edge2" class="edge"><title>Node3&#45;&gt;Node1</title>
<path fill="none" stroke="#404040" d="M139,-116.34C139,-105.529 139,-92.847 139,-80.7745"/>
<polygon fill="none" stroke="#404040" points="139,-80.5186 135,-74.5186 139,-68.5186 143,-74.5185 139,-80.5186"/>
<text text-anchor="middle" x="172" y="-90" font-family="Helvetica,sans-Serif" font-size="10.00"> +m_purpose</text>
</g>
<!-- Node4 -->
<g id="node4" class="node"><title>Node4</title>
<polygon fill="white" stroke="#bfbfbf" points="202,-116.5 202,-173.5 324,-173.5 324,-116.5 202,-116.5"/>
<text text-anchor="middle" x="263" y="-161.5" font-family="Helvetica,sans-Serif" font-size="10.00">Matrix&lt; Scalar, 2, 1 &gt;</text>
<polyline fill="none" stroke="#bfbfbf" points="202,-154.5 324,-154.5 "/>
<text text-anchor="middle" x="263" y="-142.5" font-family="Helvetica,sans-Serif" font-size="10.00"> </text>
<polyline fill="none" stroke="#bfbfbf" points="202,-135.5 324,-135.5 "/>
<text text-anchor="middle" x="263" y="-123.5" font-family="Helvetica,sans-Serif" font-size="10.00"> </text>
</g>
<!-- Node4&#45;&gt;Node1 -->
<g id="edge3" class="edge"><title>Node4&#45;&gt;Node1</title>
<path fill="none" stroke="#404040" d="M238.665,-116.349C229.693,-106.694 219.218,-96.0228 209,-87 204.946,-83.4205 200.655,-79.8337 196.273,-76.3119"/>
<polygon fill="none" stroke="#404040" points="196.041,-76.13 188.851,-75.5818 186.591,-68.7339 193.781,-69.282 196.041,-76.13"/>
<text text-anchor="middle" x="267.5" y="-90" font-family="Helvetica,sans-Serif" font-size="10.00"> +m_screenCoords</text>
</g>
</g>
</svg>
