<?xml version="1.0" encoding="UTF-8" standalone="no"?>
<!DOCTYPE svg PUBLIC "-//W3C//DTD SVG 1.1//EN"
 "http://www.w3.org/Graphics/SVG/1.1/DTD/svg11.dtd">
<!-- Generated by graphviz version 2.38.0 (20140413.2041)
 -->
<!-- Title: Ra::FrameTimerData Pages: 1 -->
<svg width="510pt" height="458pt"
 viewBox="0.00 0.00 509.50 458.00" xmlns="http://www.w3.org/2000/svg" xmlns:xlink="http://www.w3.org/1999/xlink">
<g id="graph0" class="graph" transform="scale(1 1) rotate(0) translate(4 454)">
<title>Ra::FrameTimerData</title>
<polygon fill="white" stroke="none" points="-4,4 -4,-454 505.5,-454 505.5,4 -4,4"/>
<!-- Node1 -->
<g id="node1" class="node"><title>Node1</title>
<polygon fill="#bfbfbf" stroke="black" points="176,-0.5 176,-57.5 291,-57.5 291,-0.5 176,-0.5"/>
<text text-anchor="middle" x="233.5" y="-45.5" font-family="Helvetica,sans-Serif" font-size="10.00">Ra::FrameTimerData</text>
<polyline fill="none" stroke="black" points="176,-38.5 291,-38.5 "/>
<text text-anchor="middle" x="233.5" y="-26.5" font-family="Helvetica,sans-Serif" font-size="10.00"> </text>
<polyline fill="none" stroke="black" points="176,-19.5 291,-19.5 "/>
<text text-anchor="start" x="184" y="-7.5" font-family="Helvetica,sans-Serif" font-size="10.00">+ print()</text>
</g>
<!-- Node2 -->
<g id="node2" class="node"><title>Node2</title>
<g id="a_node2"><a xlink:href="classint.html" target="_top" xlink:title="{int\n||}">
<polygon fill="white" stroke="black" points="40,-116.5 40,-173.5 69,-173.5 69,-116.5 40,-116.5"/>
<text text-anchor="middle" x="54.5" y="-161.5" font-family="Helvetica,sans-Serif" font-size="10.00">int</text>
<polyline fill="none" stroke="black" points="40,-154.5 69,-154.5 "/>
<text text-anchor="middle" x="54.5" y="-142.5" font-family="Helvetica,sans-Serif" font-size="10.00"> </text>
<polyline fill="none" stroke="black" points="40,-135.5 69,-135.5 "/>
<text text-anchor="middle" x="54.5" y="-123.5" font-family="Helvetica,sans-Serif" font-size="10.00"> </text>
</a>
</g>
</g>
<!-- Node2&#45;&gt;Node1 -->
<g id="edge1" class="edge"><title>Node2&#45;&gt;Node1</title>
<path fill="none" stroke="#404040" d="M68.5854,-116.432C71.2589,-112.375 74.2493,-108.417 77.5,-105 101.1,-80.1916 134.597,-62.6093 164.504,-50.7351"/>
<polygon fill="none" stroke="#404040" points="164.544,-50.72 168.734,-44.8508 175.763,-46.4606 171.573,-52.3299 164.544,-50.72"/>
<text text-anchor="middle" x="142.5" y="-79" font-family="Helvetica,sans-Serif" font-size="10.00"> +numFrame</text>
</g>
<!-- Node3 -->
<g id="node3" class="node"><title>Node3</title>
<polygon fill="white" stroke="#bfbfbf" points="87,-105.5 87,-184.5 202,-184.5 202,-105.5 87,-105.5"/>
<text text-anchor="start" x="95" y="-172.5" font-family="Helvetica,sans-Serif" font-size="10.00">std::vector&lt; Core::</text>
<text text-anchor="start" x="95" y="-161.5" font-family="Helvetica,sans-Serif" font-size="10.00">Ra::Core::TaskQueue</text>
<text text-anchor="middle" x="144.5" y="-150.5" font-family="Helvetica,sans-Serif" font-size="10.00">::TimerData &gt;</text>
<polyline fill="none" stroke="#bfbfbf" points="87,-143.5 202,-143.5 "/>
<text text-anchor="middle" x="144.5" y="-131.5" font-family="Helvetica,sans-Serif" font-size="10.00"> </text>
<polyline fill="none" stroke="#bfbfbf" points="87,-124.5 202,-124.5 "/>
<text text-anchor="middle" x="144.5" y="-112.5" font-family="Helvetica,sans-Serif" font-size="10.00"> </text>
</g>
<!-- Node3&#45;&gt;Node1 -->
<g id="edge2" class="edge"><title>Node3&#45;&gt;Node1</title>
<path fill="none" stroke="#404040" d="M174.631,-105.405C184.261,-93.0703 194.896,-79.4478 204.447,-67.2136"/>
<polygon fill="none" stroke="#404040" points="204.45,-67.2097 204.99,-60.0188 211.835,-57.7509 211.296,-64.9418 204.45,-67.2097"/>
<text text-anchor="middle" x="225" y="-79" font-family="Helvetica,sans-Serif" font-size="10.00"> +taskData</text>
</g>
<!-- Node4 -->
<g id="node4" class="node"><title>Node4</title>
<polygon fill="white" stroke="#bfbfbf" points="0,-287.5 0,-344.5 67,-344.5 67,-287.5 0,-287.5"/>
<text text-anchor="middle" x="33.5" y="-332.5" font-family="Helvetica,sans-Serif" font-size="10.00">TimerData</text>
<polyline fill="none" stroke="#bfbfbf" points="0,-325.5 67,-325.5 "/>
<text text-anchor="middle" x="33.5" y="-313.5" font-family="Helvetica,sans-Serif" font-size="10.00"> </text>
<polyline fill="none" stroke="#bfbfbf" points="0,-306.5 67,-306.5 "/>
<text text-anchor="middle" x="33.5" y="-294.5" font-family="Helvetica,sans-Serif" font-size="10.00"> </text>
</g>
<!-- Node4&#45;&gt;Node3 -->
<g id="edge3" class="edge"><title>Node4&#45;&gt;Node3</title>
<path fill="none" stroke="#404040" d="M34.315,-287.405C36.2534,-263.232 42.1522,-228.136 59.5,-203 62.5466,-198.586 68.884,-193.083 76.7904,-187.251"/>
<polygon fill="none" stroke="#404040" points="76.8693,-187.196 79.4805,-180.474 86.6895,-180.299 84.0783,-187.021 76.8693,-187.196"/>
<text text-anchor="middle" x="88" y="-233.5" font-family="Helvetica,sans-Serif" font-size="10.00"> +elements</text>
</g>
<!-- Node5 -->
<g id="node5" class="node"><title>Node5</title>
<g id="a_node5"><a xlink:title="STL class. ">
<polygon fill="white" stroke="#bfbfbf" points="85,-287.5 85,-344.5 180,-344.5 180,-287.5 85,-287.5"/>
<text text-anchor="middle" x="132.5" y="-332.5" font-family="Helvetica,sans-Serif" font-size="10.00">std::vector&lt; T &gt;</text>
<polyline fill="none" stroke="#bfbfbf" points="85,-325.5 180,-325.5 "/>
<text text-anchor="middle" x="132.5" y="-313.5" font-family="Helvetica,sans-Serif" font-size="10.00"> </text>
<polyline fill="none" stroke="#bfbfbf" points="85,-306.5 180,-306.5 "/>
<text text-anchor="middle" x="132.5" y="-294.5" font-family="Helvetica,sans-Serif" font-size="10.00"> </text>
</a>
</g>
</g>
<!-- Node5&#45;&gt;Node3 -->
<g id="edge4" class="edge"><title>Node5&#45;&gt;Node3</title>
<path fill="none" stroke="orange" d="M124.519,-277.314C124.112,-274.51 123.763,-271.716 123.5,-269 120.671,-239.803 118.35,-231.878 123.5,-203 124.574,-196.978 126.239,-190.759 128.173,-184.742"/>
<polygon fill="orange" stroke="orange" points="121.103,-278.11 126.202,-287.397 128.008,-276.957 121.103,-278.11"/>
<text text-anchor="start" x="123.5" y="-239" font-family="Helvetica,sans-Serif" font-size="10.00"> &lt; Core::Ra::Core::TaskQueue</text>
<text text-anchor="middle" x="194.5" y="-228" font-family="Helvetica,sans-Serif" font-size="10.00">::TimerData &gt;</text>
</g>
<!-- Node6 -->
<g id="node6" class="node"><title>Node6</title>
<polygon fill="white" stroke="#bfbfbf" points="118,-392.5 118,-449.5 147,-449.5 147,-392.5 118,-392.5"/>
<text text-anchor="middle" x="132.5" y="-437.5" font-family="Helvetica,sans-Serif" font-size="10.00">T</text>
<polyline fill="none" stroke="#bfbfbf" points="118,-430.5 147,-430.5 "/>
<text text-anchor="middle" x="132.5" y="-418.5" font-family="Helvetica,sans-Serif" font-size="10.00"> </text>
<polyline fill="none" stroke="#bfbfbf" points="118,-411.5 147,-411.5 "/>
<text text-anchor="middle" x="132.5" y="-399.5" font-family="Helvetica,sans-Serif" font-size="10.00"> </text>
</g>
<!-- Node6&#45;&gt;Node5 -->
<g id="edge5" class="edge"><title>Node6&#45;&gt;Node5</title>
<path fill="none" stroke="#404040" d="M132.5,-392.398C132.5,-381.545 132.5,-368.873 132.5,-357.049"/>
<polygon fill="none" stroke="#404040" points="132.5,-356.678 128.5,-350.678 132.5,-344.678 136.5,-350.678 132.5,-356.678"/>
<text text-anchor="middle" x="161" y="-366" font-family="Helvetica,sans-Serif" font-size="10.00"> +elements</text>
</g>
<!-- Node7 -->
<g id="node7" class="node"><title>Node7</title>
<g id="a_node7"><a xlink:href="structRa_1_1Engine_1_1Renderer_1_1TimerData.html" target="_top" xlink:title="Instrumentation structure that allow to extract timings from the rendering. ">
<polygon fill="white" stroke="black" points="358.5,-111 358.5,-179 474.5,-179 474.5,-111 358.5,-111"/>
<text text-anchor="start" x="366.5" y="-167" font-family="Helvetica,sans-Serif" font-size="10.00">Ra::Engine::Renderer</text>
<text text-anchor="middle" x="416.5" y="-156" font-family="Helvetica,sans-Serif" font-size="10.00">::TimerData</text>
<polyline fill="none" stroke="black" points="358.5,-149 474.5,-149 "/>
<text text-anchor="middle" x="416.5" y="-137" font-family="Helvetica,sans-Serif" font-size="10.00"> </text>
<polyline fill="none" stroke="black" points="358.5,-130 474.5,-130 "/>
<text text-anchor="middle" x="416.5" y="-118" font-family="Helvetica,sans-Serif" font-size="10.00"> </text>
</a>
</g>
</g>
<!-- Node7&#45;&gt;Node1 -->
<g id="edge6" class="edge"><title>Node7&#45;&gt;Node1</title>
<path fill="none" stroke="#404040" d="M363.077,-110.72C339.459,-96.0072 311.722,-78.7282 287.982,-63.9399"/>
<polygon fill="none" stroke="#404040" points="287.918,-63.8998 280.71,-64.1224 277.733,-57.5548 284.94,-57.3321 287.918,-63.8998"/>
<text text-anchor="middle" x="359" y="-79" font-family="Helvetica,sans-Serif" font-size="10.00"> +renderData</text>
</g>
<!-- Node8 -->
<g id="node8" class="node"><title>Node8</title>
<polygon fill="white" stroke="#bfbfbf" points="263.5,-287.5 263.5,-344.5 379.5,-344.5 379.5,-287.5 263.5,-287.5"/>
<text text-anchor="middle" x="321.5" y="-332.5" font-family="Helvetica,sans-Serif" font-size="10.00">time_point&lt; Clock &gt;</text>
<polyline fill="none" stroke="#bfbfbf" points="263.5,-325.5 379.5,-325.5 "/>
<text text-anchor="middle" x="321.5" y="-313.5" font-family="Helvetica,sans-Serif" font-size="10.00"> </text>
<polyline fill="none" stroke="#bfbfbf" points="263.5,-306.5 379.5,-306.5 "/>
<text text-anchor="middle" x="321.5" y="-294.5" font-family="Helvetica,sans-Serif" font-size="10.00"> </text>
</g>
<!-- Node8&#45;&gt;Node1 -->
<g id="edge8" class="edge"><title>Node8&#45;&gt;Node1</title>
<path fill="none" stroke="#404040" d="M314.287,-287.262C298.998,-228.65 264.109,-95.9362 256.5,-76 255.605,-73.6539 254.628,-71.268 253.6,-68.8795"/>
<polygon fill="none" stroke="#404040" points="253.528,-68.7241 247.387,-64.9451 248.513,-57.8224 254.654,-61.6014 253.528,-68.7241"/>
<text text-anchor="middle" x="318" y="-159" font-family="Helvetica,sans-Serif" font-size="10.00"> +tasksStart</text>
<text text-anchor="middle" x="318" y="-148" font-family="Helvetica,sans-Serif" font-size="10.00">+frameStart</text>
<text text-anchor="middle" x="318" y="-137" font-family="Helvetica,sans-Serif" font-size="10.00">+tasksEnd</text>
<text text-anchor="middle" x="318" y="-126" font-family="Helvetica,sans-Serif" font-size="10.00">+frameEnd</text>
</g>
<!-- Node8&#45;&gt;Node7 -->
<g id="edge7" class="edge"><title>Node8&#45;&gt;Node7</title>
<path fill="none" stroke="#404040" d="M336.975,-287.471C351.884,-260.949 374.672,-220.41 392.038,-189.516"/>
<polygon fill="none" stroke="#404040" points="392.053,-189.49 391.506,-182.299 397.933,-179.029 398.48,-186.22 392.053,-189.49"/>
<text text-anchor="middle" x="442.5" y="-261" font-family="Helvetica,sans-Serif" font-size="10.00"> +renderStart</text>
<text text-anchor="middle" x="442.5" y="-250" font-family="Helvetica,sans-Serif" font-size="10.00">+mainRenderEnd</text>
<text text-anchor="middle" x="442.5" y="-239" font-family="Helvetica,sans-Serif" font-size="10.00">+renderEnd</text>
<text text-anchor="middle" x="442.5" y="-228" font-family="Helvetica,sans-Serif" font-size="10.00">+feedRenderQueuesEnd</text>
<text text-anchor="middle" x="442.5" y="-217" font-family="Helvetica,sans-Serif" font-size="10.00">+postProcessEnd</text>
<text text-anchor="middle" x="442.5" y="-206" font-family="Helvetica,sans-Serif" font-size="10.00">+updateEnd</text>
</g>
</g>
</svg>
