<?xml version="1.0" encoding="UTF-8" standalone="no"?>
<!DOCTYPE svg PUBLIC "-//W3C//DTD SVG 1.1//EN"
 "http://www.w3.org/Graphics/SVG/1.1/DTD/svg11.dtd">
<!-- Generated by graphviz version 2.38.0 (20140413.2041)
 -->
<!-- Title: Ra::Engine::ComponentMessenger::CallbackTypes&lt; T &gt; Pages: 1 -->
<svg width="790pt" height="215pt"
 viewBox="0.00 0.00 790.00 215.00" xmlns="http://www.w3.org/2000/svg" xmlns:xlink="http://www.w3.org/1999/xlink">
<g id="graph0" class="graph" transform="scale(1 1) rotate(0) translate(4 211)">
<title>Ra::Engine::ComponentMessenger::CallbackTypes&lt; T &gt;</title>
<polygon fill="white" stroke="none" points="-4,4 -4,-211 786,-211 786,4 -4,4"/>
<!-- Node1 -->
<g id="node1" class="node"><title>Node1</title>
<polygon fill="#bfbfbf" stroke="black" points="300,-138.5 300,-206.5 482,-206.5 482,-138.5 300,-138.5"/>
<text text-anchor="start" x="308" y="-194.5" font-family="Helvetica,sans-Serif" font-size="10.00">Ra::Engine::ComponentMessenger</text>
<text text-anchor="middle" x="391" y="-183.5" font-family="Helvetica,sans-Serif" font-size="10.00">::CallbackTypes&lt; T &gt;</text>
<polyline fill="none" stroke="black" points="300,-176.5 482,-176.5 "/>
<text text-anchor="middle" x="391" y="-164.5" font-family="Helvetica,sans-Serif" font-size="10.00"> </text>
<polyline fill="none" stroke="black" points="300,-157.5 482,-157.5 "/>
<text text-anchor="start" x="308" y="-145.5" font-family="Helvetica,sans-Serif" font-size="10.00">+ getHelper()</text>
</g>
<!-- Node2 -->
<g id="node2" class="node"><title>Node2</title>
<g id="a_node2"><a xlink:href="structRa_1_1Engine_1_1ComponentMessenger_1_1CallbackTypes.html" target="_top" xlink:title="{Ra::Engine::ComponentMessenger\l::CallbackTypes\&lt; Ra::Core\l::Utils::Index \&gt;\n||+ getHelper()\l}">
<polygon fill="white" stroke="black" points="0,-0.5 0,-79.5 182,-79.5 182,-0.5 0,-0.5"/>
<text text-anchor="start" x="8" y="-67.5" font-family="Helvetica,sans-Serif" font-size="10.00">Ra::Engine::ComponentMessenger</text>
<text text-anchor="start" x="8" y="-56.5" font-family="Helvetica,sans-Serif" font-size="10.00">::CallbackTypes&lt; Ra::Core</text>
<text text-anchor="middle" x="91" y="-45.5" font-family="Helvetica,sans-Serif" font-size="10.00">::Utils::Index &gt;</text>
<polyline fill="none" stroke="black" points="0,-38.5 182,-38.5 "/>
<text text-anchor="middle" x="91" y="-26.5" font-family="Helvetica,sans-Serif" font-size="10.00"> </text>
<polyline fill="none" stroke="black" points="0,-19.5 182,-19.5 "/>
<text text-anchor="start" x="8" y="-7.5" font-family="Helvetica,sans-Serif" font-size="10.00">+ getHelper()</text>
</a>
</g>
</g>
<!-- Node1&#45;&gt;Node2 -->
<g id="edge1" class="edge"><title>Node1&#45;&gt;Node2</title>
<path fill="none" stroke="orange" d="M289.812,-143.292C269.058,-136.464 247.581,-128.616 228,-120 201.99,-108.554 174.618,-93.4507 151.237,-79.5175"/>
<polygon fill="orange" stroke="orange" points="289.015,-146.713 299.607,-146.458 291.168,-140.052 289.015,-146.713"/>
<text text-anchor="start" x="228" y="-112" font-family="Helvetica,sans-Serif" font-size="10.00"> &lt; Ra::Core::Utils::</text>
<text text-anchor="middle" x="272" y="-101" font-family="Helvetica,sans-Serif" font-size="10.00">Index &gt;</text>
</g>
<!-- Node3 -->
<g id="node3" class="node"><title>Node3</title>
<g id="a_node3"><a xlink:href="structRa_1_1Engine_1_1ComponentMessenger_1_1CallbackTypes.html" target="_top" xlink:title="{Ra::Engine::ComponentMessenger\l::CallbackTypes\&lt; Ra::Core\l::Vector3Array \&gt;\n||+ getHelper()\l}">
<polygon fill="white" stroke="black" points="200,-0.5 200,-79.5 382,-79.5 382,-0.5 200,-0.5"/>
<text text-anchor="start" x="208" y="-67.5" font-family="Helvetica,sans-Serif" font-size="10.00">Ra::Engine::ComponentMessenger</text>
<text text-anchor="start" x="208" y="-56.5" font-family="Helvetica,sans-Serif" font-size="10.00">::CallbackTypes&lt; Ra::Core</text>
<text text-anchor="middle" x="291" y="-45.5" font-family="Helvetica,sans-Serif" font-size="10.00">::Vector3Array &gt;</text>
<polyline fill="none" stroke="black" points="200,-38.5 382,-38.5 "/>
<text text-anchor="middle" x="291" y="-26.5" font-family="Helvetica,sans-Serif" font-size="10.00"> </text>
<polyline fill="none" stroke="black" points="200,-19.5 382,-19.5 "/>
<text text-anchor="start" x="208" y="-7.5" font-family="Helvetica,sans-Serif" font-size="10.00">+ getHelper()</text>
</a>
</g>
</g>
<!-- Node1&#45;&gt;Node3 -->
<g id="edge2" class="edge"><title>Node1&#45;&gt;Node3</title>
<path fill="none" stroke="orange" d="M343.541,-131.012C340.166,-127.423 336.94,-123.732 334,-120 324.337,-107.734 315.662,-92.9961 308.677,-79.5894"/>
<polygon fill="orange" stroke="orange" points="341.123,-133.545 350.634,-138.215 346.111,-128.634 341.123,-133.545"/>
<text text-anchor="middle" x="401.5" y="-106.5" font-family="Helvetica,sans-Serif" font-size="10.00"> &lt; Ra::Core::Vector3Array &gt;</text>
</g>
<!-- Node4 -->
<g id="node4" class="node"><title>Node4</title>
<g id="a_node4"><a xlink:href="structRa_1_1Engine_1_1ComponentMessenger_1_1CallbackTypes.html" target="_top" xlink:title="{Ra::Engine::ComponentMessenger\l::CallbackTypes\&lt; Ra::Core\l::Animation::Skeleton \&gt;\n||+ getHelper()\l}">
<polygon fill="white" stroke="black" points="400,-0.5 400,-79.5 582,-79.5 582,-0.5 400,-0.5"/>
<text text-anchor="start" x="408" y="-67.5" font-family="Helvetica,sans-Serif" font-size="10.00">Ra::Engine::ComponentMessenger</text>
<text text-anchor="start" x="408" y="-56.5" font-family="Helvetica,sans-Serif" font-size="10.00">::CallbackTypes&lt; Ra::Core</text>
<text text-anchor="middle" x="491" y="-45.5" font-family="Helvetica,sans-Serif" font-size="10.00">::Animation::Skeleton &gt;</text>
<polyline fill="none" stroke="black" points="400,-38.5 582,-38.5 "/>
<text text-anchor="middle" x="491" y="-26.5" font-family="Helvetica,sans-Serif" font-size="10.00"> </text>
<polyline fill="none" stroke="black" points="400,-19.5 582,-19.5 "/>
<text text-anchor="start" x="408" y="-7.5" font-family="Helvetica,sans-Serif" font-size="10.00">+ getHelper()</text>
</a>
</g>
</g>
<!-- Node1&#45;&gt;Node4 -->
<g id="edge3" class="edge"><title>Node1&#45;&gt;Node4</title>
<path fill="none" stroke="orange" d="M459.238,-131.255C462.808,-127.725 466.107,-123.972 469,-120 477.549,-108.261 482.778,-93.335 485.975,-79.6253"/>
<polygon fill="orange" stroke="orange" points="456.643,-128.883 451.574,-138.187 461.338,-134.075 456.643,-128.883"/>
<text text-anchor="start" x="480" y="-112" font-family="Helvetica,sans-Serif" font-size="10.00"> &lt; Ra::Core::Animation</text>
<text text-anchor="middle" x="535" y="-101" font-family="Helvetica,sans-Serif" font-size="10.00">::Skeleton &gt;</text>
</g>
<!-- Node5 -->
<g id="node5" class="node"><title>Node5</title>
<g id="a_node5"><a xlink:href="structRa_1_1Engine_1_1ComponentMessenger_1_1CallbackTypes.html" target="_top" xlink:title="{Ra::Engine::ComponentMessenger\l::CallbackTypes\&lt; Ra::Core\l::Geometry::TriangleMesh \&gt;\n||+ getHelper()\l}">
<polygon fill="white" stroke="black" points="600,-0.5 600,-79.5 782,-79.5 782,-0.5 600,-0.5"/>
<text text-anchor="start" x="608" y="-67.5" font-family="Helvetica,sans-Serif" font-size="10.00">Ra::Engine::ComponentMessenger</text>
<text text-anchor="start" x="608" y="-56.5" font-family="Helvetica,sans-Serif" font-size="10.00">::CallbackTypes&lt; Ra::Core</text>
<text text-anchor="middle" x="691" y="-45.5" font-family="Helvetica,sans-Serif" font-size="10.00">::Geometry::TriangleMesh &gt;</text>
<polyline fill="none" stroke="black" points="600,-38.5 782,-38.5 "/>
<text text-anchor="middle" x="691" y="-26.5" font-family="Helvetica,sans-Serif" font-size="10.00"> </text>
<polyline fill="none" stroke="black" points="600,-19.5 782,-19.5 "/>
<text text-anchor="start" x="608" y="-7.5" font-family="Helvetica,sans-Serif" font-size="10.00">+ getHelper()</text>
</a>
</g>
</g>
<!-- Node1&#45;&gt;Node5 -->
<g id="edge4" class="edge"><title>Node1&#45;&gt;Node5</title>
<path fill="none" stroke="orange" d="M492.023,-154.955C525.595,-147.114 562.44,-135.872 594,-120 614.761,-109.559 635.113,-94.0449 651.771,-79.5225"/>
<polygon fill="orange" stroke="orange" points="491.167,-151.56 482.185,-157.178 492.711,-158.388 491.167,-151.56"/>
<text text-anchor="start" x="628" y="-112" font-family="Helvetica,sans-Serif" font-size="10.00"> &lt; Ra::Core::Geometry</text>
<text text-anchor="middle" x="682.5" y="-101" font-family="Helvetica,sans-Serif" font-size="10.00">::TriangleMesh &gt;</text>
</g>
</g>
</svg>
