<?xml version="1.0" encoding="UTF-8" standalone="no"?>
<!DOCTYPE svg PUBLIC "-//W3C//DTD SVG 1.1//EN"
 "http://www.w3.org/Graphics/SVG/1.1/DTD/svg11.dtd">
<!-- Generated by graphviz version 2.38.0 (20140413.2041)
 -->
<!-- Title: /home/travis/build/STORM&#45;IRIT/Radium&#45;Engine/src/Engine/System/System.cpp Pages: 1 -->
<svg width="1140pt" height="386pt"
 viewBox="0.00 0.00 1140.32 386.00" xmlns="http://www.w3.org/2000/svg" xmlns:xlink="http://www.w3.org/1999/xlink">
<g id="graph0" class="graph" transform="scale(1 1) rotate(0) translate(4 382)">
<title>/home/travis/build/STORM&#45;IRIT/Radium&#45;Engine/src/Engine/System/System.cpp</title>
<polygon fill="white" stroke="none" points="-4,4 -4,-382 1136.32,-382 1136.32,4 -4,4"/>
<!-- Node1 -->
<g id="node1" class="node"><title>Node1</title>
<polygon fill="#bfbfbf" stroke="black" points="477.317,-336.5 477.317,-377.5 646.317,-377.5 646.317,-336.5 477.317,-336.5"/>
<text text-anchor="start" x="485.317" y="-365.5" font-family="Helvetica,sans-Serif" font-size="10.00">/home/travis/build</text>
<text text-anchor="start" x="485.317" y="-354.5" font-family="Helvetica,sans-Serif" font-size="10.00">/STORM&#45;IRIT/Radium&#45;Engine</text>
<text text-anchor="middle" x="561.817" y="-343.5" font-family="Helvetica,sans-Serif" font-size="10.00">/src/Engine/System/System.cpp</text>
</g>
<!-- Node2 -->
<g id="node2" class="node"><title>Node2</title>
<g id="a_node2"><a xlink:href="System_8hpp.html" target="_top" xlink:title="Engine/System/System.hpp">
<polygon fill="white" stroke="black" points="487.317,-280.5 487.317,-299.5 636.317,-299.5 636.317,-280.5 487.317,-280.5"/>
<text text-anchor="middle" x="561.817" y="-287.5" font-family="Helvetica,sans-Serif" font-size="10.00">Engine/System/System.hpp</text>
</a>
</g>
</g>
<!-- Node1&#45;&gt;Node2 -->
<g id="edge1" class="edge"><title>Node1&#45;&gt;Node2</title>
<path fill="none" stroke="midnightblue" d="M561.817,-336.498C561.817,-328.065 561.817,-318.235 561.817,-309.874"/>
<polygon fill="midnightblue" stroke="midnightblue" points="565.317,-309.652 561.817,-299.652 558.317,-309.653 565.317,-309.652"/>
</g>
<!-- Node12 -->
<g id="node12" class="node"><title>Node12</title>
<g id="a_node12"><a xlink:href="Component_8hpp.html" target="_top" xlink:title="Engine/Component/Component.hpp">
<polygon fill="white" stroke="black" points="202.817,-280.5 202.817,-299.5 390.817,-299.5 390.817,-280.5 202.817,-280.5"/>
<text text-anchor="middle" x="296.817" y="-287.5" font-family="Helvetica,sans-Serif" font-size="10.00">Engine/Component/Component.hpp</text>
</a>
</g>
</g>
<!-- Node1&#45;&gt;Node12 -->
<g id="edge11" class="edge"><title>Node1&#45;&gt;Node12</title>
<path fill="none" stroke="midnightblue" d="M482.308,-336.498C436.264,-325.204 380,-311.403 341.592,-301.983"/>
<polygon fill="midnightblue" stroke="midnightblue" points="342.29,-298.55 331.744,-299.567 340.622,-305.349 342.29,-298.55"/>
</g>
<!-- Node22 -->
<g id="node22" class="node"><title>Node22</title>
<g id="a_node22"><a xlink:href="Entity_8hpp.html" target="_top" xlink:title="Engine/Entity/Entity.hpp">
<polygon fill="white" stroke="black" points="745.817,-280.5 745.817,-299.5 873.817,-299.5 873.817,-280.5 745.817,-280.5"/>
<text text-anchor="middle" x="809.817" y="-287.5" font-family="Helvetica,sans-Serif" font-size="10.00">Engine/Entity/Entity.hpp</text>
</a>
</g>
</g>
<!-- Node1&#45;&gt;Node22 -->
<g id="edge28" class="edge"><title>Node1&#45;&gt;Node22</title>
<path fill="none" stroke="midnightblue" d="M636.225,-336.498C679.131,-325.252 731.522,-311.521 767.453,-302.103"/>
<polygon fill="midnightblue" stroke="midnightblue" points="768.344,-305.488 777.13,-299.567 766.569,-298.717 768.344,-305.488"/>
</g>
<!-- Node3 -->
<g id="node3" class="node"><title>Node3</title>
<g id="a_node3"><a xlink:href="RaEngine_8hpp.html" target="_top" xlink:title="Engine/RaEngine.hpp">
<polygon fill="white" stroke="black" points="398.317,-224.5 398.317,-243.5 515.317,-243.5 515.317,-224.5 398.317,-224.5"/>
<text text-anchor="middle" x="456.817" y="-231.5" font-family="Helvetica,sans-Serif" font-size="10.00">Engine/RaEngine.hpp</text>
</a>
</g>
</g>
<!-- Node2&#45;&gt;Node3 -->
<g id="edge2" class="edge"><title>Node2&#45;&gt;Node3</title>
<path fill="none" stroke="midnightblue" d="M544.947,-280.324C528.108,-271.664 502.01,-258.242 482.579,-248.249"/>
<polygon fill="midnightblue" stroke="midnightblue" points="484.138,-245.116 473.645,-243.655 480.937,-251.341 484.138,-245.116"/>
</g>
<!-- Node10 -->
<g id="node10" class="node"><title>Node10</title>
<polygon fill="white" stroke="#bfbfbf" points="533.317,-224.5 533.317,-243.5 590.317,-243.5 590.317,-224.5 533.317,-224.5"/>
<text text-anchor="middle" x="561.817" y="-231.5" font-family="Helvetica,sans-Serif" font-size="10.00">memory</text>
</g>
<!-- Node2&#45;&gt;Node10 -->
<g id="edge9" class="edge"><title>Node2&#45;&gt;Node10</title>
<path fill="none" stroke="midnightblue" d="M561.817,-280.083C561.817,-273.006 561.817,-262.861 561.817,-253.986"/>
<polygon fill="midnightblue" stroke="midnightblue" points="565.317,-253.751 561.817,-243.751 558.317,-253.751 565.317,-253.751"/>
</g>
<!-- Node11 -->
<g id="node11" class="node"><title>Node11</title>
<polygon fill="white" stroke="#bfbfbf" points="608.317,-224.5 608.317,-243.5 655.317,-243.5 655.317,-224.5 608.317,-224.5"/>
<text text-anchor="middle" x="631.817" y="-231.5" font-family="Helvetica,sans-Serif" font-size="10.00">vector</text>
</g>
<!-- Node2&#45;&gt;Node11 -->
<g id="edge10" class="edge"><title>Node2&#45;&gt;Node11</title>
<path fill="none" stroke="midnightblue" d="M573.063,-280.324C583.614,-272.185 599.617,-259.839 612.259,-250.087"/>
<polygon fill="midnightblue" stroke="midnightblue" points="614.585,-252.713 620.365,-243.834 610.31,-247.171 614.585,-252.713"/>
</g>
<!-- Node4 -->
<g id="node4" class="node"><title>Node4</title>
<g id="a_node4"><a xlink:href="CoreMacros_8hpp.html" target="_top" xlink:title="Core/CoreMacros.hpp">
<polygon fill="white" stroke="black" points="638.817,-56.5 638.817,-75.5 758.817,-75.5 758.817,-56.5 638.817,-56.5"/>
<text text-anchor="middle" x="698.817" y="-63.5" font-family="Helvetica,sans-Serif" font-size="10.00">Core/CoreMacros.hpp</text>
</a>
</g>
</g>
<!-- Node3&#45;&gt;Node4 -->
<g id="edge3" class="edge"><title>Node3&#45;&gt;Node4</title>
<path fill="none" stroke="midnightblue" d="M501.496,-224.422C551.822,-212.434 632.598,-185.797 678.817,-132 689.987,-118.998 694.92,-99.8365 697.098,-85.6845"/>
<polygon fill="midnightblue" stroke="midnightblue" points="700.589,-85.9713 698.32,-75.6223 693.64,-85.1273 700.589,-85.9713"/>
</g>
<!-- Node5 -->
<g id="node5" class="node"><title>Node5</title>
<polygon fill="white" stroke="#bfbfbf" points="594.817,-0.5 594.817,-19.5 646.817,-19.5 646.817,-0.5 594.817,-0.5"/>
<text text-anchor="middle" x="620.817" y="-7.5" font-family="Helvetica,sans-Serif" font-size="10.00">cassert</text>
</g>
<!-- Node4&#45;&gt;Node5 -->
<g id="edge4" class="edge"><title>Node4&#45;&gt;Node5</title>
<path fill="none" stroke="midnightblue" d="M686.285,-56.324C674.231,-47.979 655.79,-35.2122 641.548,-25.3524"/>
<polygon fill="midnightblue" stroke="midnightblue" points="643.532,-22.469 633.318,-19.6545 639.547,-28.2243 643.532,-22.469"/>
</g>
<!-- Node6 -->
<g id="node6" class="node"><title>Node6</title>
<polygon fill="white" stroke="#bfbfbf" points="665.317,-0.5 665.317,-19.5 710.317,-19.5 710.317,-0.5 665.317,-0.5"/>
<text text-anchor="middle" x="687.817" y="-7.5" font-family="Helvetica,sans-Serif" font-size="10.00">cstdio</text>
</g>
<!-- Node4&#45;&gt;Node6 -->
<g id="edge5" class="edge"><title>Node4&#45;&gt;Node6</title>
<path fill="none" stroke="midnightblue" d="M697,-56.083C695.543,-48.9272 693.446,-38.6353 691.624,-29.6911"/>
<polygon fill="midnightblue" stroke="midnightblue" points="695.025,-28.8512 689.599,-19.7511 688.166,-30.2485 695.025,-28.8512"/>
</g>
<!-- Node7 -->
<g id="node7" class="node"><title>Node7</title>
<polygon fill="white" stroke="#bfbfbf" points="728.317,-0.5 728.317,-19.5 787.317,-19.5 787.317,-0.5 728.317,-0.5"/>
<text text-anchor="middle" x="757.817" y="-7.5" font-family="Helvetica,sans-Serif" font-size="10.00">iostream</text>
</g>
<!-- Node4&#45;&gt;Node7 -->
<g id="edge6" class="edge"><title>Node4&#45;&gt;Node7</title>
<path fill="none" stroke="midnightblue" d="M708.296,-56.324C717.018,-48.3414 730.16,-36.3128 740.714,-26.6529"/>
<polygon fill="midnightblue" stroke="midnightblue" points="743.151,-29.1674 748.165,-19.8339 738.425,-24.0036 743.151,-29.1674"/>
</g>
<!-- Node8 -->
<g id="node8" class="node"><title>Node8</title>
<polygon fill="white" stroke="#bfbfbf" points="805.817,-0.5 805.817,-19.5 861.817,-19.5 861.817,-0.5 805.817,-0.5"/>
<text text-anchor="middle" x="833.817" y="-7.5" font-family="Helvetica,sans-Serif" font-size="10.00">sstream</text>
</g>
<!-- Node4&#45;&gt;Node8 -->
<g id="edge7" class="edge"><title>Node4&#45;&gt;Node8</title>
<path fill="none" stroke="midnightblue" d="M720.208,-56.4435C742.524,-47.5171 777.72,-33.4387 803.025,-23.3168"/>
<polygon fill="midnightblue" stroke="midnightblue" points="804.541,-26.4801 812.526,-19.5164 801.941,-19.9807 804.541,-26.4801"/>
</g>
<!-- Node9 -->
<g id="node9" class="node"><title>Node9</title>
<polygon fill="white" stroke="#bfbfbf" points="885.817,-0.5 885.817,-19.5 933.817,-19.5 933.817,-0.5 885.817,-0.5"/>
<text text-anchor="middle" x="909.817" y="-7.5" font-family="Helvetica,sans-Serif" font-size="10.00">thread</text>
</g>
<!-- Node4&#45;&gt;Node9 -->
<g id="edge8" class="edge"><title>Node4&#45;&gt;Node9</title>
<path fill="none" stroke="midnightblue" d="M732.25,-56.4435C771.589,-46.3758 836.535,-29.7547 876.027,-19.6476"/>
<polygon fill="midnightblue" stroke="midnightblue" points="876.908,-23.035 885.728,-17.1649 875.172,-16.2536 876.908,-23.035"/>
</g>
<!-- Node12&#45;&gt;Node3 -->
<g id="edge19" class="edge"><title>Node12&#45;&gt;Node3</title>
<path fill="none" stroke="midnightblue" d="M322.169,-280.444C349.086,-271.359 391.813,-256.939 421.904,-246.783"/>
<polygon fill="midnightblue" stroke="midnightblue" points="423.227,-250.031 431.583,-243.516 420.989,-243.398 423.227,-250.031"/>
</g>
<!-- Node12&#45;&gt;Node11 -->
<g id="edge20" class="edge"><title>Node12&#45;&gt;Node11</title>
<path fill="none" stroke="midnightblue" d="M370.479,-280.499C429.557,-273.112 514.734,-261.191 598.201,-243.906"/>
<polygon fill="midnightblue" stroke="midnightblue" points="599.037,-247.307 608.105,-241.827 597.6,-240.456 599.037,-247.307"/>
</g>
<!-- Node13 -->
<g id="node13" class="node"><title>Node13</title>
<g id="a_node13"><a xlink:href="Index_8hpp.html" target="_top" xlink:title="Core/Utils/Index.hpp">
<polygon fill="white" stroke="black" points="441.317,-168.5 441.317,-187.5 554.317,-187.5 554.317,-168.5 441.317,-168.5"/>
<text text-anchor="middle" x="497.817" y="-175.5" font-family="Helvetica,sans-Serif" font-size="10.00">Core/Utils/Index.hpp</text>
</a>
</g>
</g>
<!-- Node12&#45;&gt;Node13 -->
<g id="edge12" class="edge"><title>Node12&#45;&gt;Node13</title>
<path fill="none" stroke="midnightblue" d="M307.345,-280.369C323.925,-267.06 357.466,-241.262 388.817,-224 412.611,-210.898 441.02,-199.29 462.869,-191.146"/>
<polygon fill="midnightblue" stroke="midnightblue" points="464.218,-194.379 472.406,-187.655 461.812,-187.806 464.218,-194.379"/>
</g>
<!-- Node17 -->
<g id="node17" class="node"><title>Node17</title>
<polygon fill="white" stroke="#bfbfbf" points="194.817,-168.5 194.817,-187.5 262.817,-187.5 262.817,-168.5 194.817,-168.5"/>
<text text-anchor="middle" x="228.817" y="-175.5" font-family="Helvetica,sans-Serif" font-size="10.00">Eigen/Core</text>
</g>
<!-- Node12&#45;&gt;Node17 -->
<g id="edge17" class="edge"><title>Node12&#45;&gt;Node17</title>
<path fill="none" stroke="midnightblue" d="M281.583,-280.299C269.203,-272.42 252.292,-259.662 242.817,-244 234.32,-229.957 230.943,-211.461 229.62,-197.792"/>
<polygon fill="midnightblue" stroke="midnightblue" points="233.1,-197.385 228.924,-187.648 226.116,-197.864 233.1,-197.385"/>
</g>
<!-- Node18 -->
<g id="node18" class="node"><title>Node18</title>
<polygon fill="white" stroke="#bfbfbf" points="7.81665,-168.5 7.81665,-187.5 101.817,-187.5 101.817,-168.5 7.81665,-168.5"/>
<text text-anchor="middle" x="54.8166" y="-175.5" font-family="Helvetica,sans-Serif" font-size="10.00">Eigen/Geometry</text>
</g>
<!-- Node12&#45;&gt;Node18 -->
<g id="edge18" class="edge"><title>Node12&#45;&gt;Node18</title>
<path fill="none" stroke="midnightblue" d="M202.469,-287.334C127.09,-283.769 30.0287,-273.395 4.81665,-244 -9.65148,-227.131 12.1132,-206.668 31.3045,-193.265"/>
<polygon fill="midnightblue" stroke="midnightblue" points="33.3938,-196.079 39.8016,-187.642 29.5307,-190.242 33.3938,-196.079"/>
</g>
<!-- Node19 -->
<g id="node19" class="node"><title>Node19</title>
<g id="a_node19"><a xlink:href="Types_8hpp.html" target="_top" xlink:title="Core/Types.hpp">
<polygon fill="white" stroke="black" points="252.317,-224.5 252.317,-243.5 341.317,-243.5 341.317,-224.5 252.317,-224.5"/>
<text text-anchor="middle" x="296.817" y="-231.5" font-family="Helvetica,sans-Serif" font-size="10.00">Core/Types.hpp</text>
</a>
</g>
</g>
<!-- Node12&#45;&gt;Node19 -->
<g id="edge21" class="edge"><title>Node12&#45;&gt;Node19</title>
<path fill="none" stroke="midnightblue" d="M296.817,-280.083C296.817,-273.006 296.817,-262.861 296.817,-253.986"/>
<polygon fill="midnightblue" stroke="midnightblue" points="300.317,-253.751 296.817,-243.751 293.317,-253.751 300.317,-253.751"/>
</g>
<!-- Node21 -->
<g id="node21" class="node"><title>Node21</title>
<g id="a_node21"><a xlink:href="Component_8inl.html" target="_top" xlink:title="Engine/Component/Component.inl">
<polygon fill="white" stroke="black" points="14.3166,-224.5 14.3166,-243.5 195.317,-243.5 195.317,-224.5 14.3166,-224.5"/>
<text text-anchor="middle" x="104.817" y="-231.5" font-family="Helvetica,sans-Serif" font-size="10.00">Engine/Component/Component.inl</text>
</a>
</g>
</g>
<!-- Node12&#45;&gt;Node21 -->
<g id="edge26" class="edge"><title>Node12&#45;&gt;Node21</title>
<path fill="none" stroke="midnightblue" d="M261.305,-280.444C226.565,-271.241 174.194,-256.562 139.682,-246.388"/>
<polygon fill="midnightblue" stroke="midnightblue" points="140.6,-243.01 130.017,-243.516 138.606,-249.72 140.6,-243.01"/>
</g>
<!-- Node14 -->
<g id="node14" class="node"><title>Node14</title>
<g id="a_node14"><a xlink:href="RaCore_8hpp.html" target="_top" xlink:title="Core/RaCore.hpp">
<polygon fill="white" stroke="black" points="448.817,-112.5 448.817,-131.5 546.817,-131.5 546.817,-112.5 448.817,-112.5"/>
<text text-anchor="middle" x="497.817" y="-119.5" font-family="Helvetica,sans-Serif" font-size="10.00">Core/RaCore.hpp</text>
</a>
</g>
</g>
<!-- Node13&#45;&gt;Node14 -->
<g id="edge13" class="edge"><title>Node13&#45;&gt;Node14</title>
<path fill="none" stroke="midnightblue" d="M497.817,-168.083C497.817,-161.006 497.817,-150.861 497.817,-141.986"/>
<polygon fill="midnightblue" stroke="midnightblue" points="501.317,-141.751 497.817,-131.751 494.317,-141.751 501.317,-141.751"/>
</g>
<!-- Node15 -->
<g id="node15" class="node"><title>Node15</title>
<polygon fill="white" stroke="#bfbfbf" points="388.817,-112.5 388.817,-131.5 430.817,-131.5 430.817,-112.5 388.817,-112.5"/>
<text text-anchor="middle" x="409.817" y="-119.5" font-family="Helvetica,sans-Serif" font-size="10.00">limits</text>
</g>
<!-- Node13&#45;&gt;Node15 -->
<g id="edge15" class="edge"><title>Node13&#45;&gt;Node15</title>
<path fill="none" stroke="midnightblue" d="M483.678,-168.324C469.95,-159.9 448.88,-146.971 432.752,-137.074"/>
<polygon fill="midnightblue" stroke="midnightblue" points="434.274,-133.902 423.92,-131.655 430.613,-139.868 434.274,-133.902"/>
</g>
<!-- Node16 -->
<g id="node16" class="node"><title>Node16</title>
<g id="a_node16"><a xlink:href="Index_8inl.html" target="_top" xlink:title="Core/Utils/Index.inl">
<polygon fill="white" stroke="black" points="565.317,-112.5 565.317,-131.5 670.317,-131.5 670.317,-112.5 565.317,-112.5"/>
<text text-anchor="middle" x="617.817" y="-119.5" font-family="Helvetica,sans-Serif" font-size="10.00">Core/Utils/Index.inl</text>
</a>
</g>
</g>
<!-- Node13&#45;&gt;Node16 -->
<g id="edge16" class="edge"><title>Node13&#45;&gt;Node16</title>
<path fill="none" stroke="midnightblue" d="M516.831,-168.444C536.404,-159.636 567.124,-145.812 589.546,-135.722"/>
<polygon fill="midnightblue" stroke="midnightblue" points="591.208,-138.812 598.891,-131.516 588.336,-132.428 591.208,-138.812"/>
</g>
<!-- Node14&#45;&gt;Node4 -->
<g id="edge14" class="edge"><title>Node14&#45;&gt;Node4</title>
<path fill="none" stroke="midnightblue" d="M529.666,-112.444C564.215,-103.162 619.499,-88.3093 657.4,-78.127"/>
<polygon fill="midnightblue" stroke="midnightblue" points="658.367,-81.4912 667.117,-75.5164 656.551,-74.7309 658.367,-81.4912"/>
</g>
<!-- Node19&#45;&gt;Node14 -->
<g id="edge22" class="edge"><title>Node19&#45;&gt;Node14</title>
<path fill="none" stroke="midnightblue" d="M296.761,-224.473C297.155,-210.59 300.032,-183.135 315.817,-168 325.158,-159.043 393.138,-143.847 443.292,-133.621"/>
<polygon fill="midnightblue" stroke="midnightblue" points="444.271,-136.994 453.379,-131.582 442.883,-130.133 444.271,-136.994"/>
</g>
<!-- Node19&#45;&gt;Node17 -->
<g id="edge23" class="edge"><title>Node19&#45;&gt;Node17</title>
<path fill="none" stroke="midnightblue" d="M285.891,-224.324C275.642,-216.185 260.096,-203.839 247.816,-194.087"/>
<polygon fill="midnightblue" stroke="midnightblue" points="249.949,-191.312 239.941,-187.834 245.595,-196.794 249.949,-191.312"/>
</g>
<!-- Node19&#45;&gt;Node18 -->
<g id="edge24" class="edge"><title>Node19&#45;&gt;Node18</title>
<path fill="none" stroke="midnightblue" d="M258.471,-224.444C216.343,-215.043 148.61,-199.929 102.945,-189.739"/>
<polygon fill="midnightblue" stroke="midnightblue" points="103.505,-186.278 92.9829,-187.516 101.981,-193.11 103.505,-186.278"/>
</g>
<!-- Node20 -->
<g id="node20" class="node"><title>Node20</title>
<polygon fill="white" stroke="#bfbfbf" points="324.817,-168.5 324.817,-187.5 404.817,-187.5 404.817,-168.5 324.817,-168.5"/>
<text text-anchor="middle" x="364.817" y="-175.5" font-family="Helvetica,sans-Serif" font-size="10.00">Eigen/Sparse</text>
</g>
<!-- Node19&#45;&gt;Node20 -->
<g id="edge25" class="edge"><title>Node19&#45;&gt;Node20</title>
<path fill="none" stroke="midnightblue" d="M307.742,-224.324C317.991,-216.185 333.537,-203.839 345.818,-194.087"/>
<polygon fill="midnightblue" stroke="midnightblue" points="348.038,-196.794 353.692,-187.834 343.685,-191.312 348.038,-196.794"/>
</g>
<!-- Node21&#45;&gt;Node12 -->
<g id="edge27" class="edge"><title>Node21&#45;&gt;Node12</title>
<path fill="none" stroke="midnightblue" d="M140.177,-243.516C174.866,-252.703 227.237,-267.381 261.801,-277.568"/>
<polygon fill="midnightblue" stroke="midnightblue" points="260.9,-280.951 271.482,-280.444 262.893,-274.241 260.9,-280.951"/>
</g>
<!-- Node22&#45;&gt;Node3 -->
<g id="edge29" class="edge"><title>Node22&#45;&gt;Node3</title>
<path fill="none" stroke="midnightblue" d="M753.883,-280.444C691.012,-270.826 589.045,-255.228 522.454,-245.041"/>
<polygon fill="midnightblue" stroke="midnightblue" points="522.903,-241.569 512.489,-243.516 521.845,-248.488 522.903,-241.569"/>
</g>
<!-- Node22&#45;&gt;Node9 -->
<g id="edge32" class="edge"><title>Node22&#45;&gt;Node9</title>
<path fill="none" stroke="midnightblue" d="M842.922,-280.43C862.907,-273.646 887.407,-262.211 902.817,-244 922.258,-221.024 921.817,-209.098 921.817,-179 921.817,-179 921.817,-179 921.817,-121 921.817,-88.7578 916.659,-51.5116 913.106,-29.6812"/>
<polygon fill="midnightblue" stroke="midnightblue" points="916.506,-28.7982 911.385,-19.5232 909.605,-29.9673 916.506,-28.7982"/>
</g>
<!-- Node22&#45;&gt;Node11 -->
<g id="edge33" class="edge"><title>Node22&#45;&gt;Node11</title>
<path fill="none" stroke="midnightblue" d="M781.612,-280.444C749.985,-270.849 698.738,-255.302 665.156,-245.114"/>
<polygon fill="midnightblue" stroke="midnightblue" points="665.927,-241.691 655.342,-242.137 663.895,-248.389 665.927,-241.691"/>
</g>
<!-- Node22&#45;&gt;Node19 -->
<g id="edge34" class="edge"><title>Node22&#45;&gt;Node19</title>
<path fill="none" stroke="midnightblue" d="M745.623,-282.243C643.81,-271.526 447.075,-250.817 351.536,-240.76"/>
<polygon fill="midnightblue" stroke="midnightblue" points="351.817,-237.27 341.505,-239.704 351.084,-244.232 351.817,-237.27"/>
</g>
<!-- Node23 -->
<g id="node23" class="node"><title>Node23</title>
<polygon fill="white" stroke="#bfbfbf" points="846.317,-224.5 846.317,-243.5 893.317,-243.5 893.317,-224.5 846.317,-224.5"/>
<text text-anchor="middle" x="869.817" y="-231.5" font-family="Helvetica,sans-Serif" font-size="10.00">mutex</text>
</g>
<!-- Node22&#45;&gt;Node23 -->
<g id="edge30" class="edge"><title>Node22&#45;&gt;Node23</title>
<path fill="none" stroke="midnightblue" d="M819.457,-280.324C828.326,-272.341 841.691,-260.313 852.425,-250.653"/>
<polygon fill="midnightblue" stroke="midnightblue" points="854.91,-253.125 860.001,-243.834 850.227,-247.922 854.91,-253.125"/>
</g>
<!-- Node24 -->
<g id="node24" class="node"><title>Node24</title>
<polygon fill="white" stroke="#bfbfbf" points="949.817,-224.5 949.817,-243.5 993.817,-243.5 993.817,-224.5 949.817,-224.5"/>
<text text-anchor="middle" x="971.817" y="-231.5" font-family="Helvetica,sans-Serif" font-size="10.00">string</text>
</g>
<!-- Node22&#45;&gt;Node24 -->
<g id="edge31" class="edge"><title>Node22&#45;&gt;Node24</title>
<path fill="none" stroke="midnightblue" d="M835.486,-280.444C863.781,-271.012 909.332,-255.828 939.904,-245.637"/>
<polygon fill="midnightblue" stroke="midnightblue" points="941.271,-248.871 949.651,-242.388 939.058,-242.23 941.271,-248.871"/>
</g>
<!-- Node25 -->
<g id="node25" class="node"><title>Node25</title>
<g id="a_node25"><a xlink:href="IndexedObject_8hpp.html" target="_top" xlink:title="Core/Utils/IndexedObject.hpp">
<polygon fill="white" stroke="black" points="673.317,-224.5 673.317,-243.5 828.317,-243.5 828.317,-224.5 673.317,-224.5"/>
<text text-anchor="middle" x="750.817" y="-231.5" font-family="Helvetica,sans-Serif" font-size="10.00">Core/Utils/IndexedObject.hpp</text>
</a>
</g>
</g>
<!-- Node22&#45;&gt;Node25 -->
<g id="edge35" class="edge"><title>Node22&#45;&gt;Node25</title>
<path fill="none" stroke="midnightblue" d="M800.337,-280.324C791.616,-272.341 778.473,-260.313 767.919,-250.653"/>
<polygon fill="midnightblue" stroke="midnightblue" points="770.208,-248.004 760.468,-243.834 765.482,-253.167 770.208,-248.004"/>
</g>
<!-- Node26 -->
<g id="node26" class="node"><title>Node26</title>
<g id="a_node26"><a xlink:href="Entity_8inl.html" target="_top" xlink:title="Engine/Entity/Entity.inl">
<polygon fill="white" stroke="black" points="1011.32,-224.5 1011.32,-243.5 1132.32,-243.5 1132.32,-224.5 1011.32,-224.5"/>
<text text-anchor="middle" x="1071.82" y="-231.5" font-family="Helvetica,sans-Serif" font-size="10.00">Engine/Entity/Entity.inl</text>
</a>
</g>
</g>
<!-- Node22&#45;&gt;Node26 -->
<g id="edge38" class="edge"><title>Node22&#45;&gt;Node26</title>
<path fill="none" stroke="midnightblue" d="M846.243,-280.444C890.156,-270.964 964.211,-255.675 1015.48,-245.483"/>
<polygon fill="midnightblue" stroke="midnightblue" points="1016.29,-248.892 1025.42,-243.516 1014.93,-242.025 1016.29,-248.892"/>
</g>
<!-- Node25&#45;&gt;Node13 -->
<g id="edge37" class="edge"><title>Node25&#45;&gt;Node13</title>
<path fill="none" stroke="midnightblue" d="M710.728,-224.444C666.5,-215.004 595.278,-199.802 547.532,-189.611"/>
<polygon fill="midnightblue" stroke="midnightblue" points="548.228,-186.181 537.718,-187.516 546.767,-193.027 548.228,-186.181"/>
</g>
<!-- Node25&#45;&gt;Node14 -->
<g id="edge36" class="edge"><title>Node25&#45;&gt;Node14</title>
<path fill="none" stroke="midnightblue" d="M730.964,-224.368C686.533,-205.051 578.913,-158.259 526.907,-135.648"/>
<polygon fill="midnightblue" stroke="midnightblue" points="528.143,-132.369 517.577,-131.591 525.352,-138.788 528.143,-132.369"/>
</g>
<!-- Node26&#45;&gt;Node22 -->
<g id="edge39" class="edge"><title>Node26&#45;&gt;Node22</title>
<path fill="none" stroke="midnightblue" d="M1035.58,-243.516C991.748,-252.979 917.704,-268.268 866.369,-278.473"/>
<polygon fill="midnightblue" stroke="midnightblue" points="865.55,-275.068 856.42,-280.444 866.91,-281.934 865.55,-275.068"/>
</g>
</g>
</svg>
