<?xml version="1.0" encoding="UTF-8" standalone="no"?>
<!DOCTYPE svg PUBLIC "-//W3C//DTD SVG 1.1//EN"
 "http://www.w3.org/Graphics/SVG/1.1/DTD/svg11.dtd">
<!-- Generated by graphviz version 2.38.0 (20140413.2041)
 -->
<!-- Title: /home/travis/build/STORM&#45;IRIT/Radium&#45;Engine/src/Engine/System/System.hpp Pages: 1 -->
<svg width="3124pt" height="406pt"
 viewBox="0.00 0.00 3123.50 406.00" xmlns="http://www.w3.org/2000/svg" xmlns:xlink="http://www.w3.org/1999/xlink">
<g id="graph0" class="graph" transform="scale(1 1) rotate(0) translate(4 402)">
<title>/home/travis/build/STORM&#45;IRIT/Radium&#45;Engine/src/Engine/System/System.hpp</title>
<polygon fill="white" stroke="none" points="-4,4 -4,-402 3119.5,-402 3119.5,4 -4,4"/>
<!-- Node1 -->
<g id="node1" class="node"><title>Node1</title>
<polygon fill="#bfbfbf" stroke="black" points="1349.5,-356.5 1349.5,-397.5 1519.5,-397.5 1519.5,-356.5 1349.5,-356.5"/>
<text text-anchor="start" x="1357.5" y="-385.5" font-family="Helvetica,sans-Serif" font-size="10.00">/home/travis/build</text>
<text text-anchor="start" x="1357.5" y="-374.5" font-family="Helvetica,sans-Serif" font-size="10.00">/STORM&#45;IRIT/Radium&#45;Engine</text>
<text text-anchor="middle" x="1434.5" y="-363.5" font-family="Helvetica,sans-Serif" font-size="10.00">/src/Engine/System/System.hpp</text>
</g>
<!-- Node2 -->
<g id="node2" class="node"><title>Node2</title>
<g id="a_node2"><a xlink:href="Component_8cpp.html" target="_top" xlink:title="/home/travis/build\l/STORM&#45;IRIT/Radium&#45;Engine\l/src/Engine/Component/Component.cpp">
<polygon fill="white" stroke="black" points="188.5,-273 188.5,-314 396.5,-314 396.5,-273 188.5,-273"/>
<text text-anchor="start" x="196.5" y="-302" font-family="Helvetica,sans-Serif" font-size="10.00">/home/travis/build</text>
<text text-anchor="start" x="196.5" y="-291" font-family="Helvetica,sans-Serif" font-size="10.00">/STORM&#45;IRIT/Radium&#45;Engine</text>
<text text-anchor="middle" x="292.5" y="-280" font-family="Helvetica,sans-Serif" font-size="10.00">/src/Engine/Component/Component.cpp</text>
</a>
</g>
</g>
<!-- Node1&#45;&gt;Node2 -->
<g id="edge1" class="edge"><title>Node1&#45;&gt;Node2</title>
<path fill="none" stroke="midnightblue" d="M1339.25,-376.129C1157.02,-375.203 746.813,-367.457 405.5,-320 394.345,-318.449 382.663,-316.356 371.218,-314.033"/>
<polygon fill="midnightblue" stroke="midnightblue" points="1339.32,-379.629 1349.34,-376.175 1339.35,-372.629 1339.32,-379.629"/>
</g>
<!-- Node3 -->
<g id="node3" class="node"><title>Node3</title>
<g id="a_node3"><a xlink:href="CameraManager_8hpp.html" target="_top" xlink:title="/home/travis/build\l/STORM&#45;IRIT/Radium&#45;Engine\l/src/Engine/Managers/CameraManager\l/CameraManager.hpp">
<polygon fill="white" stroke="black" points="415,-267.5 415,-319.5 618,-319.5 618,-267.5 415,-267.5"/>
<text text-anchor="start" x="423" y="-307.5" font-family="Helvetica,sans-Serif" font-size="10.00">/home/travis/build</text>
<text text-anchor="start" x="423" y="-296.5" font-family="Helvetica,sans-Serif" font-size="10.00">/STORM&#45;IRIT/Radium&#45;Engine</text>
<text text-anchor="start" x="423" y="-285.5" font-family="Helvetica,sans-Serif" font-size="10.00">/src/Engine/Managers/CameraManager</text>
<text text-anchor="middle" x="516.5" y="-274.5" font-family="Helvetica,sans-Serif" font-size="10.00">/CameraManager.hpp</text>
</a>
</g>
</g>
<!-- Node1&#45;&gt;Node3 -->
<g id="edge2" class="edge"><title>Node1&#45;&gt;Node3</title>
<path fill="none" stroke="midnightblue" d="M1339.2,-367.539C1165.06,-352.079 796.959,-319.399 618.192,-303.528"/>
<polygon fill="midnightblue" stroke="midnightblue" points="1339.1,-371.044 1349.37,-368.442 1339.72,-364.072 1339.1,-371.044"/>
</g>
<!-- Node9 -->
<g id="node9" class="node"><title>Node9</title>
<g id="a_node9"><a xlink:href="LightManager_8hpp.html" target="_top" xlink:title="/home/travis/build\l/STORM&#45;IRIT/Radium&#45;Engine\l/src/Engine/Managers/LightManager\l/LightManager.hpp">
<polygon fill="white" stroke="black" points="820.5,-267.5 820.5,-319.5 1008.5,-319.5 1008.5,-267.5 820.5,-267.5"/>
<text text-anchor="start" x="828.5" y="-307.5" font-family="Helvetica,sans-Serif" font-size="10.00">/home/travis/build</text>
<text text-anchor="start" x="828.5" y="-296.5" font-family="Helvetica,sans-Serif" font-size="10.00">/STORM&#45;IRIT/Radium&#45;Engine</text>
<text text-anchor="start" x="828.5" y="-285.5" font-family="Helvetica,sans-Serif" font-size="10.00">/src/Engine/Managers/LightManager</text>
<text text-anchor="middle" x="914.5" y="-274.5" font-family="Helvetica,sans-Serif" font-size="10.00">/LightManager.hpp</text>
</a>
</g>
</g>
<!-- Node1&#45;&gt;Node9 -->
<g id="edge8" class="edge"><title>Node1&#45;&gt;Node9</title>
<path fill="none" stroke="midnightblue" d="M1339.22,-365.409C1256.08,-355.583 1132.37,-339.551 1025.5,-320 1019.96,-318.986 1014.27,-317.882 1008.55,-316.72"/>
<polygon fill="midnightblue" stroke="midnightblue" points="1338.81,-368.885 1349.15,-366.576 1339.63,-361.933 1338.81,-368.885"/>
</g>
<!-- Node14 -->
<g id="node14" class="node"><title>Node14</title>
<g id="a_node14"><a xlink:href="RadiumEngine_8cpp.html" target="_top" xlink:title="/home/travis/build\l/STORM&#45;IRIT/Radium&#45;Engine\l/src/Engine/RadiumEngine.cpp">
<polygon fill="white" stroke="black" points="1034,-273 1034,-314 1195,-314 1195,-273 1034,-273"/>
<text text-anchor="start" x="1042" y="-302" font-family="Helvetica,sans-Serif" font-size="10.00">/home/travis/build</text>
<text text-anchor="start" x="1042" y="-291" font-family="Helvetica,sans-Serif" font-size="10.00">/STORM&#45;IRIT/Radium&#45;Engine</text>
<text text-anchor="middle" x="1114.5" y="-280" font-family="Helvetica,sans-Serif" font-size="10.00">/src/Engine/RadiumEngine.cpp</text>
</a>
</g>
</g>
<!-- Node1&#45;&gt;Node14 -->
<g id="edge14" class="edge"><title>Node1&#45;&gt;Node14</title>
<path fill="none" stroke="midnightblue" d="M1341.1,-354.093C1299.23,-344.059 1249.3,-331.795 1204.5,-320 1197.43,-318.139 1190.07,-316.145 1182.73,-314.121"/>
<polygon fill="midnightblue" stroke="midnightblue" points="1340.46,-357.541 1351,-356.462 1342.09,-350.732 1340.46,-357.541"/>
</g>
<!-- Node15 -->
<g id="node15" class="node"><title>Node15</title>
<g id="a_node15"><a xlink:href="CouplingSystem_8hpp.html" target="_top" xlink:title="/home/travis/build\l/STORM&#45;IRIT/Radium&#45;Engine\l/src/Engine/System/CouplingSystem.hpp">
<polygon fill="white" stroke="black" points="1213,-273 1213,-314 1424,-314 1424,-273 1213,-273"/>
<text text-anchor="start" x="1221" y="-302" font-family="Helvetica,sans-Serif" font-size="10.00">/home/travis/build</text>
<text text-anchor="start" x="1221" y="-291" font-family="Helvetica,sans-Serif" font-size="10.00">/STORM&#45;IRIT/Radium&#45;Engine</text>
<text text-anchor="middle" x="1318.5" y="-280" font-family="Helvetica,sans-Serif" font-size="10.00">/src/Engine/System/CouplingSystem.hpp</text>
</a>
</g>
</g>
<!-- Node1&#45;&gt;Node15 -->
<g id="edge15" class="edge"><title>Node1&#45;&gt;Node15</title>
<path fill="none" stroke="midnightblue" d="M1398.27,-350.543C1381.55,-338.799 1362.02,-325.073 1346.46,-314.144"/>
<polygon fill="midnightblue" stroke="midnightblue" points="1396.52,-353.594 1406.72,-356.479 1400.54,-347.866 1396.52,-353.594"/>
</g>
<!-- Node21 -->
<g id="node21" class="node"><title>Node21</title>
<g id="a_node21"><a xlink:href="GeometrySystem_8hpp.html" target="_top" xlink:title="/home/travis/build\l/STORM&#45;IRIT/Radium&#45;Engine\l/src/Engine/System/GeometrySystem.hpp">
<polygon fill="white" stroke="black" points="1442.5,-273 1442.5,-314 1660.5,-314 1660.5,-273 1442.5,-273"/>
<text text-anchor="start" x="1450.5" y="-302" font-family="Helvetica,sans-Serif" font-size="10.00">/home/travis/build</text>
<text text-anchor="start" x="1450.5" y="-291" font-family="Helvetica,sans-Serif" font-size="10.00">/STORM&#45;IRIT/Radium&#45;Engine</text>
<text text-anchor="middle" x="1551.5" y="-280" font-family="Helvetica,sans-Serif" font-size="10.00">/src/Engine/System/GeometrySystem.hpp</text>
</a>
</g>
</g>
<!-- Node1&#45;&gt;Node21 -->
<g id="edge21" class="edge"><title>Node1&#45;&gt;Node21</title>
<path fill="none" stroke="midnightblue" d="M1471.05,-350.543C1487.9,-338.799 1507.61,-325.073 1523.3,-314.144"/>
<polygon fill="midnightblue" stroke="midnightblue" points="1468.73,-347.891 1462.52,-356.479 1472.73,-353.635 1468.73,-347.891"/>
</g>
<!-- Node24 -->
<g id="node24" class="node"><title>Node24</title>
<g id="a_node24"><a xlink:href="System_8cpp.html" target="_top" xlink:title="/home/travis/build\l/STORM&#45;IRIT/Radium&#45;Engine\l/src/Engine/System/System.cpp">
<polygon fill="white" stroke="black" points="1679,-273 1679,-314 1848,-314 1848,-273 1679,-273"/>
<text text-anchor="start" x="1687" y="-302" font-family="Helvetica,sans-Serif" font-size="10.00">/home/travis/build</text>
<text text-anchor="start" x="1687" y="-291" font-family="Helvetica,sans-Serif" font-size="10.00">/STORM&#45;IRIT/Radium&#45;Engine</text>
<text text-anchor="middle" x="1763.5" y="-280" font-family="Helvetica,sans-Serif" font-size="10.00">/src/Engine/System/System.cpp</text>
</a>
</g>
</g>
<!-- Node1&#45;&gt;Node24 -->
<g id="edge24" class="edge"><title>Node1&#45;&gt;Node24</title>
<path fill="none" stroke="midnightblue" d="M1529.1,-354.162C1572.03,-344.071 1623.4,-331.742 1669.5,-320 1676.96,-318.101 1684.73,-316.071 1692.48,-314.018"/>
<polygon fill="midnightblue" stroke="midnightblue" points="1528.16,-350.787 1519.22,-356.479 1529.76,-357.602 1528.16,-350.787"/>
</g>
<!-- Node25 -->
<g id="node25" class="node"><title>Node25</title>
<g id="a_node25"><a xlink:href="DummySystem_8hpp.html" target="_top" xlink:title="/home/travis/build\l/STORM&#45;IRIT/Radium&#45;Engine\l/Plugins/Dummy/src/DummySystem.hpp">
<polygon fill="white" stroke="black" points="1975,-273 1975,-314 2186,-314 2186,-273 1975,-273"/>
<text text-anchor="start" x="1983" y="-302" font-family="Helvetica,sans-Serif" font-size="10.00">/home/travis/build</text>
<text text-anchor="start" x="1983" y="-291" font-family="Helvetica,sans-Serif" font-size="10.00">/STORM&#45;IRIT/Radium&#45;Engine</text>
<text text-anchor="middle" x="2080.5" y="-280" font-family="Helvetica,sans-Serif" font-size="10.00">/Plugins/Dummy/src/DummySystem.hpp</text>
</a>
</g>
</g>
<!-- Node1&#45;&gt;Node25 -->
<g id="edge25" class="edge"><title>Node1&#45;&gt;Node25</title>
<path fill="none" stroke="midnightblue" d="M1529.79,-363.978C1648.67,-348.98 1851.28,-323.418 1974.81,-307.834"/>
<polygon fill="midnightblue" stroke="midnightblue" points="1529.1,-360.537 1519.62,-365.261 1529.98,-367.482 1529.1,-360.537"/>
</g>
<!-- Node29 -->
<g id="node29" class="node"><title>Node29</title>
<g id="a_node29"><a xlink:href="MeshPaintSystem_8hpp.html" target="_top" xlink:title="/home/travis/build\l/STORM&#45;IRIT/Radium&#45;Engine\l/Plugins/MeshPaint/src/MeshPaint\lSystem.hpp">
<polygon fill="white" stroke="black" points="2525.5,-267.5 2525.5,-319.5 2699.5,-319.5 2699.5,-267.5 2525.5,-267.5"/>
<text text-anchor="start" x="2533.5" y="-307.5" font-family="Helvetica,sans-Serif" font-size="10.00">/home/travis/build</text>
<text text-anchor="start" x="2533.5" y="-296.5" font-family="Helvetica,sans-Serif" font-size="10.00">/STORM&#45;IRIT/Radium&#45;Engine</text>
<text text-anchor="start" x="2533.5" y="-285.5" font-family="Helvetica,sans-Serif" font-size="10.00">/Plugins/MeshPaint/src/MeshPaint</text>
<text text-anchor="middle" x="2612.5" y="-274.5" font-family="Helvetica,sans-Serif" font-size="10.00">System.hpp</text>
</a>
</g>
</g>
<!-- Node1&#45;&gt;Node29 -->
<g id="edge29" class="edge"><title>Node1&#45;&gt;Node29</title>
<path fill="none" stroke="midnightblue" d="M1529.77,-369.409C1753.57,-353.925 2310.1,-315.421 2525.47,-300.521"/>
<polygon fill="midnightblue" stroke="midnightblue" points="1529.43,-365.924 1519.69,-370.106 1529.91,-372.907 1529.43,-365.924"/>
</g>
<!-- Node32 -->
<g id="node32" class="node"><title>Node32</title>
<g id="a_node32"><a xlink:href="SkinningSystem_8hpp.html" target="_top" xlink:title="/home/travis/build\l/STORM&#45;IRIT/Radium&#45;Engine\l/Plugins/Skinning/src/SkinningSystem.hpp">
<polygon fill="white" stroke="black" points="2811,-273 2811,-314 3026,-314 3026,-273 2811,-273"/>
<text text-anchor="start" x="2819" y="-302" font-family="Helvetica,sans-Serif" font-size="10.00">/home/travis/build</text>
<text text-anchor="start" x="2819" y="-291" font-family="Helvetica,sans-Serif" font-size="10.00">/STORM&#45;IRIT/Radium&#45;Engine</text>
<text text-anchor="middle" x="2918.5" y="-280" font-family="Helvetica,sans-Serif" font-size="10.00">/Plugins/Skinning/src/SkinningSystem.hpp</text>
</a>
</g>
</g>
<!-- Node1&#45;&gt;Node32 -->
<g id="edge32" class="edge"><title>Node1&#45;&gt;Node32</title>
<path fill="none" stroke="midnightblue" d="M1529.79,-374.315C1741.89,-370.016 2268.9,-356.298 2708.5,-320 2741.81,-317.25 2777.97,-313.233 2810.75,-309.197"/>
<polygon fill="midnightblue" stroke="midnightblue" points="1529.55,-370.819 1519.63,-374.519 1529.69,-377.818 1529.55,-370.819"/>
</g>
<!-- Node4 -->
<g id="node4" class="node"><title>Node4</title>
<g id="a_node4"><a xlink:href="CameraManager_8cpp.html" target="_top" xlink:title="/home/travis/build\l/STORM&#45;IRIT/Radium&#45;Engine\l/src/Engine/Managers/CameraManager\l/CameraManager.cpp">
<polygon fill="white" stroke="black" points="0,-178.5 0,-230.5 203,-230.5 203,-178.5 0,-178.5"/>
<text text-anchor="start" x="8" y="-218.5" font-family="Helvetica,sans-Serif" font-size="10.00">/home/travis/build</text>
<text text-anchor="start" x="8" y="-207.5" font-family="Helvetica,sans-Serif" font-size="10.00">/STORM&#45;IRIT/Radium&#45;Engine</text>
<text text-anchor="start" x="8" y="-196.5" font-family="Helvetica,sans-Serif" font-size="10.00">/src/Engine/Managers/CameraManager</text>
<text text-anchor="middle" x="101.5" y="-185.5" font-family="Helvetica,sans-Serif" font-size="10.00">/CameraManager.cpp</text>
</a>
</g>
</g>
<!-- Node3&#45;&gt;Node4 -->
<g id="edge3" class="edge"><title>Node3&#45;&gt;Node4</title>
<path fill="none" stroke="midnightblue" d="M404.866,-266.91C317.942,-249.136 294.245,-248.259 211.5,-231 208.717,-230.42 205.897,-229.823 203.052,-229.214"/>
<polygon fill="midnightblue" stroke="midnightblue" points="404.413,-270.39 414.914,-268.982 405.827,-263.534 404.413,-270.39"/>
</g>
<!-- Node5 -->
<g id="node5" class="node"><title>Node5</title>
<g id="a_node5"><a xlink:href="DefaultCameraManager_8hpp.html" target="_top" xlink:title="/home/travis/build\l/STORM&#45;IRIT/Radium&#45;Engine\l/src/Engine/Managers/CameraManager\l/DefaultCameraManager.hpp">
<polygon fill="white" stroke="black" points="221,-178.5 221,-230.5 424,-230.5 424,-178.5 221,-178.5"/>
<text text-anchor="start" x="229" y="-218.5" font-family="Helvetica,sans-Serif" font-size="10.00">/home/travis/build</text>
<text text-anchor="start" x="229" y="-207.5" font-family="Helvetica,sans-Serif" font-size="10.00">/STORM&#45;IRIT/Radium&#45;Engine</text>
<text text-anchor="start" x="229" y="-196.5" font-family="Helvetica,sans-Serif" font-size="10.00">/src/Engine/Managers/CameraManager</text>
<text text-anchor="middle" x="322.5" y="-185.5" font-family="Helvetica,sans-Serif" font-size="10.00">/DefaultCameraManager.hpp</text>
</a>
</g>
</g>
<!-- Node3&#45;&gt;Node5 -->
<g id="edge4" class="edge"><title>Node3&#45;&gt;Node5</title>
<path fill="none" stroke="midnightblue" d="M451.375,-263.295C427.673,-252.665 401.115,-240.755 378.294,-230.521"/>
<polygon fill="midnightblue" stroke="midnightblue" points="450.091,-266.554 460.647,-267.453 452.955,-260.167 450.091,-266.554"/>
</g>
<!-- Node8 -->
<g id="node8" class="node"><title>Node8</title>
<g id="a_node8"><a xlink:href="CameraManipPlugin_8cpp.html" target="_top" xlink:title="/home/travis/build\l/STORM&#45;IRIT/Radium&#45;Engine\l/Plugins/CameraManip/src\l/CameraManipPlugin.cpp">
<polygon fill="white" stroke="black" points="442.5,-178.5 442.5,-230.5 590.5,-230.5 590.5,-178.5 442.5,-178.5"/>
<text text-anchor="start" x="450.5" y="-218.5" font-family="Helvetica,sans-Serif" font-size="10.00">/home/travis/build</text>
<text text-anchor="start" x="450.5" y="-207.5" font-family="Helvetica,sans-Serif" font-size="10.00">/STORM&#45;IRIT/Radium&#45;Engine</text>
<text text-anchor="start" x="450.5" y="-196.5" font-family="Helvetica,sans-Serif" font-size="10.00">/Plugins/CameraManip/src</text>
<text text-anchor="middle" x="516.5" y="-185.5" font-family="Helvetica,sans-Serif" font-size="10.00">/CameraManipPlugin.cpp</text>
</a>
</g>
</g>
<!-- Node3&#45;&gt;Node8 -->
<g id="edge7" class="edge"><title>Node3&#45;&gt;Node8</title>
<path fill="none" stroke="midnightblue" d="M516.5,-257.191C516.5,-248.282 516.5,-238.899 516.5,-230.607"/>
<polygon fill="midnightblue" stroke="midnightblue" points="513,-257.336 516.5,-267.336 520,-257.336 513,-257.336"/>
</g>
<!-- Node6 -->
<g id="node6" class="node"><title>Node6</title>
<g id="a_node6"><a xlink:href="DefaultCameraManager_8cpp.html" target="_top" xlink:title="/home/travis/build\l/STORM&#45;IRIT/Radium&#45;Engine\l/src/Engine/Managers/CameraManager\l/DefaultCameraManager.cpp">
<polygon fill="white" stroke="black" points="212,-89.5 212,-141.5 415,-141.5 415,-89.5 212,-89.5"/>
<text text-anchor="start" x="220" y="-129.5" font-family="Helvetica,sans-Serif" font-size="10.00">/home/travis/build</text>
<text text-anchor="start" x="220" y="-118.5" font-family="Helvetica,sans-Serif" font-size="10.00">/STORM&#45;IRIT/Radium&#45;Engine</text>
<text text-anchor="start" x="220" y="-107.5" font-family="Helvetica,sans-Serif" font-size="10.00">/src/Engine/Managers/CameraManager</text>
<text text-anchor="middle" x="313.5" y="-96.5" font-family="Helvetica,sans-Serif" font-size="10.00">/DefaultCameraManager.cpp</text>
</a>
</g>
</g>
<!-- Node5&#45;&gt;Node6 -->
<g id="edge5" class="edge"><title>Node5&#45;&gt;Node6</title>
<path fill="none" stroke="midnightblue" d="M318.847,-168.191C317.926,-159.282 316.955,-149.899 316.097,-141.607"/>
<polygon fill="midnightblue" stroke="midnightblue" points="315.386,-168.749 319.897,-178.336 322.349,-168.029 315.386,-168.749"/>
</g>
<!-- Node7 -->
<g id="node7" class="node"><title>Node7</title>
<g id="a_node7"><a xlink:href="ForwardRenderer_8cpp.html" target="_top" xlink:title="/home/travis/build\l/STORM&#45;IRIT/Radium&#45;Engine\l/src/Engine/Renderer/Renderers\l/ForwardRenderer.cpp">
<polygon fill="white" stroke="black" points="433.5,-89.5 433.5,-141.5 599.5,-141.5 599.5,-89.5 433.5,-89.5"/>
<text text-anchor="start" x="441.5" y="-129.5" font-family="Helvetica,sans-Serif" font-size="10.00">/home/travis/build</text>
<text text-anchor="start" x="441.5" y="-118.5" font-family="Helvetica,sans-Serif" font-size="10.00">/STORM&#45;IRIT/Radium&#45;Engine</text>
<text text-anchor="start" x="441.5" y="-107.5" font-family="Helvetica,sans-Serif" font-size="10.00">/src/Engine/Renderer/Renderers</text>
<text text-anchor="middle" x="516.5" y="-96.5" font-family="Helvetica,sans-Serif" font-size="10.00">/ForwardRenderer.cpp</text>
</a>
</g>
</g>
<!-- Node5&#45;&gt;Node7 -->
<g id="edge6" class="edge"><title>Node5&#45;&gt;Node7</title>
<path fill="none" stroke="midnightblue" d="M387.625,-174.295C411.327,-163.665 437.885,-151.755 460.706,-141.521"/>
<polygon fill="midnightblue" stroke="midnightblue" points="386.045,-171.167 378.353,-178.453 388.909,-177.554 386.045,-171.167"/>
</g>
<!-- Node10 -->
<g id="node10" class="node"><title>Node10</title>
<g id="a_node10"><a xlink:href="DefaultLightManager_8hpp.html" target="_top" xlink:title="/home/travis/build\l/STORM&#45;IRIT/Radium&#45;Engine\l/src/Engine/Managers/LightManager\l/DefaultLightManager.hpp">
<polygon fill="white" stroke="black" points="608.5,-178.5 608.5,-230.5 796.5,-230.5 796.5,-178.5 608.5,-178.5"/>
<text text-anchor="start" x="616.5" y="-218.5" font-family="Helvetica,sans-Serif" font-size="10.00">/home/travis/build</text>
<text text-anchor="start" x="616.5" y="-207.5" font-family="Helvetica,sans-Serif" font-size="10.00">/STORM&#45;IRIT/Radium&#45;Engine</text>
<text text-anchor="start" x="616.5" y="-196.5" font-family="Helvetica,sans-Serif" font-size="10.00">/src/Engine/Managers/LightManager</text>
<text text-anchor="middle" x="702.5" y="-185.5" font-family="Helvetica,sans-Serif" font-size="10.00">/DefaultLightManager.hpp</text>
</a>
</g>
</g>
<!-- Node9&#45;&gt;Node10 -->
<g id="edge9" class="edge"><title>Node9&#45;&gt;Node10</title>
<path fill="none" stroke="midnightblue" d="M844.019,-263.576C817.946,-252.876 788.63,-240.846 763.471,-230.521"/>
<polygon fill="midnightblue" stroke="midnightblue" points="842.885,-266.894 853.465,-267.453 845.543,-260.418 842.885,-266.894"/>
</g>
<!-- Node12 -->
<g id="node12" class="node"><title>Node12</title>
<g id="a_node12"><a xlink:href="LightManager_8cpp.html" target="_top" xlink:title="/home/travis/build\l/STORM&#45;IRIT/Radium&#45;Engine\l/src/Engine/Managers/LightManager\l/LightManager.cpp">
<polygon fill="white" stroke="black" points="814.5,-178.5 814.5,-230.5 1002.5,-230.5 1002.5,-178.5 814.5,-178.5"/>
<text text-anchor="start" x="822.5" y="-218.5" font-family="Helvetica,sans-Serif" font-size="10.00">/home/travis/build</text>
<text text-anchor="start" x="822.5" y="-207.5" font-family="Helvetica,sans-Serif" font-size="10.00">/STORM&#45;IRIT/Radium&#45;Engine</text>
<text text-anchor="start" x="822.5" y="-196.5" font-family="Helvetica,sans-Serif" font-size="10.00">/src/Engine/Managers/LightManager</text>
<text text-anchor="middle" x="908.5" y="-185.5" font-family="Helvetica,sans-Serif" font-size="10.00">/LightManager.cpp</text>
</a>
</g>
</g>
<!-- Node9&#45;&gt;Node12 -->
<g id="edge12" class="edge"><title>Node9&#45;&gt;Node12</title>
<path fill="none" stroke="midnightblue" d="M912.065,-257.191C911.451,-248.282 910.803,-238.899 910.232,-230.607"/>
<polygon fill="midnightblue" stroke="midnightblue" points="908.585,-257.601 912.765,-267.336 915.568,-257.119 908.585,-257.601"/>
</g>
<!-- Node13 -->
<g id="node13" class="node"><title>Node13</title>
<g id="a_node13"><a xlink:href="Renderer_8cpp.html" target="_top" xlink:title="/home/travis/build\l/STORM&#45;IRIT/Radium&#45;Engine\l/src/Engine/Renderer/Renderer.cpp">
<polygon fill="white" stroke="black" points="1020.5,-184 1020.5,-225 1200.5,-225 1200.5,-184 1020.5,-184"/>
<text text-anchor="start" x="1028.5" y="-213" font-family="Helvetica,sans-Serif" font-size="10.00">/home/travis/build</text>
<text text-anchor="start" x="1028.5" y="-202" font-family="Helvetica,sans-Serif" font-size="10.00">/STORM&#45;IRIT/Radium&#45;Engine</text>
<text text-anchor="middle" x="1110.5" y="-191" font-family="Helvetica,sans-Serif" font-size="10.00">/src/Engine/Renderer/Renderer.cpp</text>
</a>
</g>
</g>
<!-- Node9&#45;&gt;Node13 -->
<g id="edge13" class="edge"><title>Node9&#45;&gt;Node13</title>
<path fill="none" stroke="midnightblue" d="M980.349,-263.271C1008.63,-250.719 1040.92,-236.384 1066.27,-225.134"/>
<polygon fill="midnightblue" stroke="midnightblue" points="978.648,-260.197 970.928,-267.453 981.488,-266.595 978.648,-260.197"/>
</g>
<!-- Node10&#45;&gt;Node7 -->
<g id="edge11" class="edge"><title>Node10&#45;&gt;Node7</title>
<path fill="none" stroke="midnightblue" d="M639.554,-174.058C617.023,-163.519 591.854,-151.746 570.178,-141.607"/>
<polygon fill="midnightblue" stroke="midnightblue" points="638.16,-177.269 648.701,-178.336 641.126,-170.929 638.16,-177.269"/>
</g>
<!-- Node11 -->
<g id="node11" class="node"><title>Node11</title>
<g id="a_node11"><a xlink:href="DefaultLightManager_8cpp.html" target="_top" xlink:title="/home/travis/build\l/STORM&#45;IRIT/Radium&#45;Engine\l/src/Engine/Managers/LightManager\l/DefaultLightManager.cpp">
<polygon fill="white" stroke="black" points="617.5,-89.5 617.5,-141.5 805.5,-141.5 805.5,-89.5 617.5,-89.5"/>
<text text-anchor="start" x="625.5" y="-129.5" font-family="Helvetica,sans-Serif" font-size="10.00">/home/travis/build</text>
<text text-anchor="start" x="625.5" y="-118.5" font-family="Helvetica,sans-Serif" font-size="10.00">/STORM&#45;IRIT/Radium&#45;Engine</text>
<text text-anchor="start" x="625.5" y="-107.5" font-family="Helvetica,sans-Serif" font-size="10.00">/src/Engine/Managers/LightManager</text>
<text text-anchor="middle" x="711.5" y="-96.5" font-family="Helvetica,sans-Serif" font-size="10.00">/DefaultLightManager.cpp</text>
</a>
</g>
</g>
<!-- Node10&#45;&gt;Node11 -->
<g id="edge10" class="edge"><title>Node10&#45;&gt;Node11</title>
<path fill="none" stroke="midnightblue" d="M706.153,-168.191C707.074,-159.282 708.045,-149.899 708.903,-141.607"/>
<polygon fill="midnightblue" stroke="midnightblue" points="702.651,-168.029 705.103,-178.336 709.614,-168.749 702.651,-168.029"/>
</g>
<!-- Node16 -->
<g id="node16" class="node"><title>Node16</title>
<g id="a_node16"><a xlink:href="TimedSystem_8hpp.html" target="_top" xlink:title="/home/travis/build\l/STORM&#45;IRIT/Radium&#45;Engine\l/src/Engine/System/TimedSystem.hpp">
<polygon fill="white" stroke="black" points="1219,-184 1219,-225 1418,-225 1418,-184 1219,-184"/>
<text text-anchor="start" x="1227" y="-213" font-family="Helvetica,sans-Serif" font-size="10.00">/home/travis/build</text>
<text text-anchor="start" x="1227" y="-202" font-family="Helvetica,sans-Serif" font-size="10.00">/STORM&#45;IRIT/Radium&#45;Engine</text>
<text text-anchor="middle" x="1318.5" y="-191" font-family="Helvetica,sans-Serif" font-size="10.00">/src/Engine/System/TimedSystem.hpp</text>
</a>
</g>
</g>
<!-- Node15&#45;&gt;Node16 -->
<g id="edge16" class="edge"><title>Node15&#45;&gt;Node16</title>
<path fill="none" stroke="midnightblue" d="M1318.5,-262.441C1318.5,-250.101 1318.5,-236.162 1318.5,-225.164"/>
<polygon fill="midnightblue" stroke="midnightblue" points="1315,-262.758 1318.5,-272.758 1322,-262.758 1315,-262.758"/>
</g>
<!-- Node17 -->
<g id="node17" class="node"><title>Node17</title>
<g id="a_node17"><a xlink:href="TimedSystem_8cpp.html" target="_top" xlink:title="/home/travis/build\l/STORM&#45;IRIT/Radium&#45;Engine\l/src/Engine/System/TimedSystem.cpp">
<polygon fill="white" stroke="black" points="1117.5,-95 1117.5,-136 1315.5,-136 1315.5,-95 1117.5,-95"/>
<text text-anchor="start" x="1125.5" y="-124" font-family="Helvetica,sans-Serif" font-size="10.00">/home/travis/build</text>
<text text-anchor="start" x="1125.5" y="-113" font-family="Helvetica,sans-Serif" font-size="10.00">/STORM&#45;IRIT/Radium&#45;Engine</text>
<text text-anchor="middle" x="1216.5" y="-102" font-family="Helvetica,sans-Serif" font-size="10.00">/src/Engine/System/TimedSystem.cpp</text>
</a>
</g>
</g>
<!-- Node16&#45;&gt;Node17 -->
<g id="edge17" class="edge"><title>Node16&#45;&gt;Node17</title>
<path fill="none" stroke="midnightblue" d="M1287.83,-177.343C1272.37,-164.155 1253.93,-148.423 1239.67,-136.26"/>
<polygon fill="midnightblue" stroke="midnightblue" points="1285.73,-180.149 1295.61,-183.976 1290.27,-174.823 1285.73,-180.149"/>
</g>
<!-- Node18 -->
<g id="node18" class="node"><title>Node18</title>
<g id="a_node18"><a xlink:href="AnimationSystem_8hpp.html" target="_top" xlink:title="/home/travis/build\l/STORM&#45;IRIT/Radium&#45;Engine\l/Plugins/Animation/src/Animation\lSystem.hpp">
<polygon fill="white" stroke="black" points="1333.5,-89.5 1333.5,-141.5 1507.5,-141.5 1507.5,-89.5 1333.5,-89.5"/>
<text text-anchor="start" x="1341.5" y="-129.5" font-family="Helvetica,sans-Serif" font-size="10.00">/home/travis/build</text>
<text text-anchor="start" x="1341.5" y="-118.5" font-family="Helvetica,sans-Serif" font-size="10.00">/STORM&#45;IRIT/Radium&#45;Engine</text>
<text text-anchor="start" x="1341.5" y="-107.5" font-family="Helvetica,sans-Serif" font-size="10.00">/Plugins/Animation/src/Animation</text>
<text text-anchor="middle" x="1420.5" y="-96.5" font-family="Helvetica,sans-Serif" font-size="10.00">System.hpp</text>
</a>
</g>
</g>
<!-- Node16&#45;&gt;Node18 -->
<g id="edge18" class="edge"><title>Node16&#45;&gt;Node18</title>
<path fill="none" stroke="midnightblue" d="M1349.32,-177.21C1362.58,-165.905 1378,-152.752 1391.09,-141.585"/>
<polygon fill="midnightblue" stroke="midnightblue" points="1346.73,-174.823 1341.39,-183.976 1351.27,-180.149 1346.73,-174.823"/>
</g>
<!-- Node19 -->
<g id="node19" class="node"><title>Node19</title>
<g id="a_node19"><a xlink:href="AnimationPlugin_8cpp.html" target="_top" xlink:title="/home/travis/build\l/STORM&#45;IRIT/Radium&#45;Engine\l/Plugins/Animation/src/Animation\lPlugin.cpp">
<polygon fill="white" stroke="black" points="1237.5,-0.5 1237.5,-52.5 1411.5,-52.5 1411.5,-0.5 1237.5,-0.5"/>
<text text-anchor="start" x="1245.5" y="-40.5" font-family="Helvetica,sans-Serif" font-size="10.00">/home/travis/build</text>
<text text-anchor="start" x="1245.5" y="-29.5" font-family="Helvetica,sans-Serif" font-size="10.00">/STORM&#45;IRIT/Radium&#45;Engine</text>
<text text-anchor="start" x="1245.5" y="-18.5" font-family="Helvetica,sans-Serif" font-size="10.00">/Plugins/Animation/src/Animation</text>
<text text-anchor="middle" x="1324.5" y="-7.5" font-family="Helvetica,sans-Serif" font-size="10.00">Plugin.cpp</text>
</a>
</g>
</g>
<!-- Node18&#45;&gt;Node19 -->
<g id="edge19" class="edge"><title>Node18&#45;&gt;Node19</title>
<path fill="none" stroke="midnightblue" d="M1385.04,-82.3631C1374.2,-72.542 1362.45,-61.8899 1352.2,-52.6075"/>
<polygon fill="midnightblue" stroke="midnightblue" points="1382.97,-85.2142 1392.73,-89.336 1387.67,-80.0273 1382.97,-85.2142"/>
</g>
<!-- Node20 -->
<g id="node20" class="node"><title>Node20</title>
<g id="a_node20"><a xlink:href="AnimationSystem_8cpp.html" target="_top" xlink:title="/home/travis/build\l/STORM&#45;IRIT/Radium&#45;Engine\l/Plugins/Animation/src/Animation\lSystem.cpp">
<polygon fill="white" stroke="black" points="1429.5,-0.5 1429.5,-52.5 1603.5,-52.5 1603.5,-0.5 1429.5,-0.5"/>
<text text-anchor="start" x="1437.5" y="-40.5" font-family="Helvetica,sans-Serif" font-size="10.00">/home/travis/build</text>
<text text-anchor="start" x="1437.5" y="-29.5" font-family="Helvetica,sans-Serif" font-size="10.00">/STORM&#45;IRIT/Radium&#45;Engine</text>
<text text-anchor="start" x="1437.5" y="-18.5" font-family="Helvetica,sans-Serif" font-size="10.00">/Plugins/Animation/src/Animation</text>
<text text-anchor="middle" x="1516.5" y="-7.5" font-family="Helvetica,sans-Serif" font-size="10.00">System.cpp</text>
</a>
</g>
</g>
<!-- Node18&#45;&gt;Node20 -->
<g id="edge20" class="edge"><title>Node18&#45;&gt;Node20</title>
<path fill="none" stroke="midnightblue" d="M1455.96,-82.3631C1466.8,-72.542 1478.55,-61.8899 1488.8,-52.6075"/>
<polygon fill="midnightblue" stroke="midnightblue" points="1453.33,-80.0273 1448.27,-89.336 1458.03,-85.2142 1453.33,-80.0273"/>
</g>
<!-- Node22 -->
<g id="node22" class="node"><title>Node22</title>
<g id="a_node22"><a xlink:href="GeometrySystem_8cpp.html" target="_top" xlink:title="/home/travis/build\l/STORM&#45;IRIT/Radium&#45;Engine\l/src/Engine/System/GeometrySystem.cpp">
<polygon fill="white" stroke="black" points="1436,-184 1436,-225 1653,-225 1653,-184 1436,-184"/>
<text text-anchor="start" x="1444" y="-213" font-family="Helvetica,sans-Serif" font-size="10.00">/home/travis/build</text>
<text text-anchor="start" x="1444" y="-202" font-family="Helvetica,sans-Serif" font-size="10.00">/STORM&#45;IRIT/Radium&#45;Engine</text>
<text text-anchor="middle" x="1544.5" y="-191" font-family="Helvetica,sans-Serif" font-size="10.00">/src/Engine/System/GeometrySystem.cpp</text>
</a>
</g>
</g>
<!-- Node21&#45;&gt;Node22 -->
<g id="edge22" class="edge"><title>Node21&#45;&gt;Node22</title>
<path fill="none" stroke="midnightblue" d="M1549.08,-262.441C1548.09,-250.101 1546.97,-236.162 1546.08,-225.164"/>
<polygon fill="midnightblue" stroke="midnightblue" points="1545.62,-263.071 1549.91,-272.758 1552.6,-262.51 1545.62,-263.071"/>
</g>
<!-- Node23 -->
<g id="node23" class="node"><title>Node23</title>
<g id="a_node23"><a xlink:href="BaseApplication_8cpp.html" target="_top" xlink:title="/home/travis/build\l/STORM&#45;IRIT/Radium&#45;Engine\l/src/GuiBase/BaseApplication.cpp">
<polygon fill="white" stroke="black" points="1671.5,-184 1671.5,-225 1847.5,-225 1847.5,-184 1671.5,-184"/>
<text text-anchor="start" x="1679.5" y="-213" font-family="Helvetica,sans-Serif" font-size="10.00">/home/travis/build</text>
<text text-anchor="start" x="1679.5" y="-202" font-family="Helvetica,sans-Serif" font-size="10.00">/STORM&#45;IRIT/Radium&#45;Engine</text>
<text text-anchor="middle" x="1759.5" y="-191" font-family="Helvetica,sans-Serif" font-size="10.00">/src/GuiBase/BaseApplication.cpp</text>
</a>
</g>
</g>
<!-- Node21&#45;&gt;Node23 -->
<g id="edge23" class="edge"><title>Node21&#45;&gt;Node23</title>
<path fill="none" stroke="midnightblue" d="M1607.65,-269.013C1640.51,-255.272 1681.5,-238.123 1712.62,-225.11"/>
<polygon fill="midnightblue" stroke="midnightblue" points="1606.05,-265.888 1598.18,-272.976 1608.76,-272.346 1606.05,-265.888"/>
</g>
<!-- Node26 -->
<g id="node26" class="node"><title>Node26</title>
<g id="a_node26"><a xlink:href="DummyPlugin_8cpp.html" target="_top" xlink:title="/home/travis/build\l/STORM&#45;IRIT/Radium&#45;Engine\l/Plugins/Dummy/src/DummyPlugin.cpp">
<polygon fill="white" stroke="black" points="1865.5,-184 1865.5,-225 2067.5,-225 2067.5,-184 1865.5,-184"/>
<text text-anchor="start" x="1873.5" y="-213" font-family="Helvetica,sans-Serif" font-size="10.00">/home/travis/build</text>
<text text-anchor="start" x="1873.5" y="-202" font-family="Helvetica,sans-Serif" font-size="10.00">/STORM&#45;IRIT/Radium&#45;Engine</text>
<text text-anchor="middle" x="1966.5" y="-191" font-family="Helvetica,sans-Serif" font-size="10.00">/Plugins/Dummy/src/DummyPlugin.cpp</text>
</a>
</g>
</g>
<!-- Node25&#45;&gt;Node26 -->
<g id="edge26" class="edge"><title>Node25&#45;&gt;Node26</title>
<path fill="none" stroke="midnightblue" d="M2046.7,-266.705C2029.32,-253.444 2008.48,-237.534 1992.39,-225.26"/>
<polygon fill="midnightblue" stroke="midnightblue" points="2044.84,-269.691 2054.92,-272.976 2049.09,-264.126 2044.84,-269.691"/>
</g>
<!-- Node27 -->
<g id="node27" class="node"><title>Node27</title>
<g id="a_node27"><a xlink:href="DummySystem_8cpp.html" target="_top" xlink:title="/home/travis/build\l/STORM&#45;IRIT/Radium&#45;Engine\l/Plugins/Dummy/src/DummySystem.cpp">
<polygon fill="white" stroke="black" points="2085.5,-184 2085.5,-225 2295.5,-225 2295.5,-184 2085.5,-184"/>
<text text-anchor="start" x="2093.5" y="-213" font-family="Helvetica,sans-Serif" font-size="10.00">/home/travis/build</text>
<text text-anchor="start" x="2093.5" y="-202" font-family="Helvetica,sans-Serif" font-size="10.00">/STORM&#45;IRIT/Radium&#45;Engine</text>
<text text-anchor="middle" x="2190.5" y="-191" font-family="Helvetica,sans-Serif" font-size="10.00">/Plugins/Dummy/src/DummySystem.cpp</text>
</a>
</g>
</g>
<!-- Node25&#45;&gt;Node27 -->
<g id="edge27" class="edge"><title>Node25&#45;&gt;Node27</title>
<path fill="none" stroke="midnightblue" d="M2113.11,-266.705C2129.88,-253.444 2150,-237.534 2165.52,-225.26"/>
<polygon fill="midnightblue" stroke="midnightblue" points="2110.86,-264.027 2105.19,-272.976 2115.2,-269.517 2110.86,-264.027"/>
</g>
<!-- Node28 -->
<g id="node28" class="node"><title>Node28</title>
<g id="a_node28"><a xlink:href="DummyTask_8cpp.html" target="_top" xlink:title="/home/travis/build\l/STORM&#45;IRIT/Radium&#45;Engine\l/Plugins/Dummy/src/DummyTask.cpp">
<polygon fill="white" stroke="black" points="2313.5,-184 2313.5,-225 2507.5,-225 2507.5,-184 2313.5,-184"/>
<text text-anchor="start" x="2321.5" y="-213" font-family="Helvetica,sans-Serif" font-size="10.00">/home/travis/build</text>
<text text-anchor="start" x="2321.5" y="-202" font-family="Helvetica,sans-Serif" font-size="10.00">/STORM&#45;IRIT/Radium&#45;Engine</text>
<text text-anchor="middle" x="2410.5" y="-191" font-family="Helvetica,sans-Serif" font-size="10.00">/Plugins/Dummy/src/DummyTask.cpp</text>
</a>
</g>
</g>
<!-- Node25&#45;&gt;Node28 -->
<g id="edge28" class="edge"><title>Node25&#45;&gt;Node28</title>
<path fill="none" stroke="midnightblue" d="M2164.28,-270.411C2217.34,-256.424 2285.32,-238.502 2336.4,-225.034"/>
<polygon fill="midnightblue" stroke="midnightblue" points="2163.34,-267.042 2154.56,-272.976 2165.12,-273.811 2163.34,-267.042"/>
</g>
<!-- Node30 -->
<g id="node30" class="node"><title>Node30</title>
<g id="a_node30"><a xlink:href="MeshPaintPlugin_8cpp.html" target="_top" xlink:title="/home/travis/build\l/STORM&#45;IRIT/Radium&#45;Engine\l/Plugins/MeshPaint/src/MeshPaint\lPlugin.cpp">
<polygon fill="white" stroke="black" points="2525.5,-178.5 2525.5,-230.5 2699.5,-230.5 2699.5,-178.5 2525.5,-178.5"/>
<text text-anchor="start" x="2533.5" y="-218.5" font-family="Helvetica,sans-Serif" font-size="10.00">/home/travis/build</text>
<text text-anchor="start" x="2533.5" y="-207.5" font-family="Helvetica,sans-Serif" font-size="10.00">/STORM&#45;IRIT/Radium&#45;Engine</text>
<text text-anchor="start" x="2533.5" y="-196.5" font-family="Helvetica,sans-Serif" font-size="10.00">/Plugins/MeshPaint/src/MeshPaint</text>
<text text-anchor="middle" x="2612.5" y="-185.5" font-family="Helvetica,sans-Serif" font-size="10.00">Plugin.cpp</text>
</a>
</g>
</g>
<!-- Node29&#45;&gt;Node30 -->
<g id="edge30" class="edge"><title>Node29&#45;&gt;Node30</title>
<path fill="none" stroke="midnightblue" d="M2612.5,-257.191C2612.5,-248.282 2612.5,-238.899 2612.5,-230.607"/>
<polygon fill="midnightblue" stroke="midnightblue" points="2609,-257.336 2612.5,-267.336 2616,-257.336 2609,-257.336"/>
</g>
<!-- Node31 -->
<g id="node31" class="node"><title>Node31</title>
<g id="a_node31"><a xlink:href="MeshPaintSystem_8cpp.html" target="_top" xlink:title="/home/travis/build\l/STORM&#45;IRIT/Radium&#45;Engine\l/Plugins/MeshPaint/src/MeshPaint\lSystem.cpp">
<polygon fill="white" stroke="black" points="2717.5,-178.5 2717.5,-230.5 2891.5,-230.5 2891.5,-178.5 2717.5,-178.5"/>
<text text-anchor="start" x="2725.5" y="-218.5" font-family="Helvetica,sans-Serif" font-size="10.00">/home/travis/build</text>
<text text-anchor="start" x="2725.5" y="-207.5" font-family="Helvetica,sans-Serif" font-size="10.00">/STORM&#45;IRIT/Radium&#45;Engine</text>
<text text-anchor="start" x="2725.5" y="-196.5" font-family="Helvetica,sans-Serif" font-size="10.00">/Plugins/MeshPaint/src/MeshPaint</text>
<text text-anchor="middle" x="2804.5" y="-185.5" font-family="Helvetica,sans-Serif" font-size="10.00">System.cpp</text>
</a>
</g>
</g>
<!-- Node29&#45;&gt;Node31 -->
<g id="edge31" class="edge"><title>Node29&#45;&gt;Node31</title>
<path fill="none" stroke="midnightblue" d="M2676.95,-263.295C2700.41,-252.665 2726.7,-240.755 2749.28,-230.521"/>
<polygon fill="midnightblue" stroke="midnightblue" points="2675.44,-260.137 2667.78,-267.453 2678.33,-266.513 2675.44,-260.137"/>
</g>
<!-- Node33 -->
<g id="node33" class="node"><title>Node33</title>
<g id="a_node33"><a xlink:href="SkinningPlugin_8cpp.html" target="_top" xlink:title="/home/travis/build\l/STORM&#45;IRIT/Radium&#45;Engine\l/Plugins/Skinning/src/SkinningPlugin.cpp">
<polygon fill="white" stroke="black" points="2909.5,-184 2909.5,-225 3115.5,-225 3115.5,-184 2909.5,-184"/>
<text text-anchor="start" x="2917.5" y="-213" font-family="Helvetica,sans-Serif" font-size="10.00">/home/travis/build</text>
<text text-anchor="start" x="2917.5" y="-202" font-family="Helvetica,sans-Serif" font-size="10.00">/STORM&#45;IRIT/Radium&#45;Engine</text>
<text text-anchor="middle" x="3012.5" y="-191" font-family="Helvetica,sans-Serif" font-size="10.00">/Plugins/Skinning/src/SkinningPlugin.cpp</text>
</a>
</g>
</g>
<!-- Node32&#45;&gt;Node33 -->
<g id="edge33" class="edge"><title>Node32&#45;&gt;Node33</title>
<path fill="none" stroke="midnightblue" d="M2947.39,-265.763C2961.55,-252.66 2978.29,-237.162 2991.25,-225.164"/>
<polygon fill="midnightblue" stroke="midnightblue" points="2944.79,-263.397 2939.83,-272.758 2949.55,-268.534 2944.79,-263.397"/>
</g>
</g>
</svg>
