<?xml version="1.0" encoding="UTF-8" standalone="no"?>
<!DOCTYPE svg PUBLIC "-//W3C//DTD SVG 1.1//EN"
 "http://www.w3.org/Graphics/SVG/1.1/DTD/svg11.dtd">
<!-- Generated by graphviz version 2.38.0 (20140413.2041)
 -->
<!-- Title: /home/travis/build/STORM&#45;IRIT/Radium&#45;Engine/src/Core/Tasks/TaskQueue.cpp Pages: 1 -->
<svg width="933pt" height="330pt"
 viewBox="0.00 0.00 932.50 330.00" xmlns="http://www.w3.org/2000/svg" xmlns:xlink="http://www.w3.org/1999/xlink">
<g id="graph0" class="graph" transform="scale(1 1) rotate(0) translate(4 326)">
<title>/home/travis/build/STORM&#45;IRIT/Radium&#45;Engine/src/Core/Tasks/TaskQueue.cpp</title>
<polygon fill="white" stroke="none" points="-4,4 -4,-326 928.5,-326 928.5,4 -4,4"/>
<!-- Node1 -->
<g id="node1" class="node"><title>Node1</title>
<polygon fill="#bfbfbf" stroke="black" points="363.5,-280.5 363.5,-321.5 526.5,-321.5 526.5,-280.5 363.5,-280.5"/>
<text text-anchor="start" x="371.5" y="-309.5" font-family="Helvetica,sans-Serif" font-size="10.00">/home/travis/build</text>
<text text-anchor="start" x="371.5" y="-298.5" font-family="Helvetica,sans-Serif" font-size="10.00">/STORM&#45;IRIT/Radium&#45;Engine</text>
<text text-anchor="middle" x="445" y="-287.5" font-family="Helvetica,sans-Serif" font-size="10.00">/src/Core/Tasks/TaskQueue.cpp</text>
</g>
<!-- Node2 -->
<g id="node2" class="node"><title>Node2</title>
<g id="a_node2"><a xlink:href="Task_8hpp.html" target="_top" xlink:title="Core/Tasks/Task.hpp">
<polygon fill="white" stroke="black" points="160,-224.5 160,-243.5 272,-243.5 272,-224.5 160,-224.5"/>
<text text-anchor="middle" x="216" y="-231.5" font-family="Helvetica,sans-Serif" font-size="10.00">Core/Tasks/Task.hpp</text>
</a>
</g>
</g>
<!-- Node1&#45;&gt;Node2 -->
<g id="edge1" class="edge"><title>Node1&#45;&gt;Node2</title>
<path fill="none" stroke="midnightblue" d="M376.292,-280.498C337.012,-269.348 289.123,-255.755 255.972,-246.346"/>
<polygon fill="midnightblue" stroke="midnightblue" points="256.758,-242.931 246.182,-243.567 254.847,-249.665 256.758,-242.931"/>
</g>
<!-- Node7 -->
<g id="node7" class="node"><title>Node7</title>
<polygon fill="white" stroke="#bfbfbf" points="99.5,-0.5 99.5,-19.5 158.5,-19.5 158.5,-0.5 99.5,-0.5"/>
<text text-anchor="middle" x="129" y="-7.5" font-family="Helvetica,sans-Serif" font-size="10.00">iostream</text>
</g>
<!-- Node1&#45;&gt;Node7 -->
<g id="edge28" class="edge"><title>Node1&#45;&gt;Node7</title>
<path fill="none" stroke="midnightblue" d="M363.38,-294.508C234.912,-283.594 0,-253.458 0,-179 0,-179 0,-179 0,-121 0,-71.3463 56.0217,-39.3654 94.2288,-23.3281"/>
<polygon fill="midnightblue" stroke="midnightblue" points="95.5423,-26.5724 103.514,-19.5933 92.93,-20.0781 95.5423,-26.5724"/>
</g>
<!-- Node12 -->
<g id="node12" class="node"><title>Node12</title>
<g id="a_node12"><a xlink:href="TaskQueue_8hpp.html" target="_top" xlink:title="Core/Tasks/TaskQueue.hpp">
<polygon fill="white" stroke="black" points="373.5,-224.5 373.5,-243.5 516.5,-243.5 516.5,-224.5 373.5,-224.5"/>
<text text-anchor="middle" x="445" y="-231.5" font-family="Helvetica,sans-Serif" font-size="10.00">Core/Tasks/TaskQueue.hpp</text>
</a>
</g>
</g>
<!-- Node1&#45;&gt;Node12 -->
<g id="edge11" class="edge"><title>Node1&#45;&gt;Node12</title>
<path fill="none" stroke="midnightblue" d="M445,-280.498C445,-272.065 445,-262.235 445,-253.874"/>
<polygon fill="midnightblue" stroke="midnightblue" points="448.5,-253.652 445,-243.652 441.5,-253.653 448.5,-253.652"/>
</g>
<!-- Node23 -->
<g id="node23" class="node"><title>Node23</title>
<polygon fill="white" stroke="#bfbfbf" points="535,-224.5 535,-243.5 597,-243.5 597,-224.5 535,-224.5"/>
<text text-anchor="middle" x="566" y="-231.5" font-family="Helvetica,sans-Serif" font-size="10.00">algorithm</text>
</g>
<!-- Node1&#45;&gt;Node23 -->
<g id="edge27" class="edge"><title>Node1&#45;&gt;Node23</title>
<path fill="none" stroke="midnightblue" d="M481.304,-280.498C500.569,-270.149 523.753,-257.695 540.991,-248.435"/>
<polygon fill="midnightblue" stroke="midnightblue" points="542.74,-251.468 549.893,-243.652 539.427,-245.302 542.74,-251.468"/>
</g>
<!-- Node24 -->
<g id="node24" class="node"><title>Node24</title>
<polygon fill="white" stroke="#bfbfbf" points="615,-224.5 615,-243.5 657,-243.5 657,-224.5 615,-224.5"/>
<text text-anchor="middle" x="636" y="-231.5" font-family="Helvetica,sans-Serif" font-size="10.00">stack</text>
</g>
<!-- Node1&#45;&gt;Node24 -->
<g id="edge29" class="edge"><title>Node1&#45;&gt;Node24</title>
<path fill="none" stroke="midnightblue" d="M502.306,-280.498C536.168,-268.974 577.699,-254.841 605.401,-245.413"/>
<polygon fill="midnightblue" stroke="midnightblue" points="606.603,-248.702 614.942,-242.166 604.347,-242.075 606.603,-248.702"/>
</g>
<!-- Node3 -->
<g id="node3" class="node"><title>Node3</title>
<g id="a_node3"><a xlink:href="RaCore_8hpp.html" target="_top" xlink:title="Core/RaCore.hpp">
<polygon fill="white" stroke="black" points="348,-112.5 348,-131.5 446,-131.5 446,-112.5 348,-112.5"/>
<text text-anchor="middle" x="397" y="-119.5" font-family="Helvetica,sans-Serif" font-size="10.00">Core/RaCore.hpp</text>
</a>
</g>
</g>
<!-- Node2&#45;&gt;Node3 -->
<g id="edge2" class="edge"><title>Node2&#45;&gt;Node3</title>
<path fill="none" stroke="midnightblue" d="M231.35,-224.382C247.156,-215.453 272.452,-201.008 294,-188 322.256,-170.942 354.348,-150.52 375.093,-137.178"/>
<polygon fill="midnightblue" stroke="midnightblue" points="377.263,-139.944 383.772,-131.584 373.47,-134.06 377.263,-139.944"/>
</g>
<!-- Node10 -->
<g id="node10" class="node"><title>Node10</title>
<polygon fill="white" stroke="#bfbfbf" points="28.5,-168.5 28.5,-187.5 91.5,-187.5 91.5,-168.5 28.5,-168.5"/>
<text text-anchor="middle" x="60" y="-175.5" font-family="Helvetica,sans-Serif" font-size="10.00">functional</text>
</g>
<!-- Node2&#45;&gt;Node10 -->
<g id="edge9" class="edge"><title>Node2&#45;&gt;Node10</title>
<path fill="none" stroke="midnightblue" d="M191.281,-224.444C165.152,-215.399 123.741,-201.064 94.4236,-190.916"/>
<polygon fill="midnightblue" stroke="midnightblue" points="95.1978,-187.48 84.603,-187.516 92.908,-194.095 95.1978,-187.48"/>
</g>
<!-- Node11 -->
<g id="node11" class="node"><title>Node11</title>
<polygon fill="white" stroke="#bfbfbf" points="110,-168.5 110,-187.5 154,-187.5 154,-168.5 110,-168.5"/>
<text text-anchor="middle" x="132" y="-175.5" font-family="Helvetica,sans-Serif" font-size="10.00">string</text>
</g>
<!-- Node2&#45;&gt;Node11 -->
<g id="edge10" class="edge"><title>Node2&#45;&gt;Node11</title>
<path fill="none" stroke="midnightblue" d="M202.504,-224.324C189.4,-215.9 169.288,-202.971 153.893,-193.074"/>
<polygon fill="midnightblue" stroke="midnightblue" points="155.767,-190.118 145.463,-187.655 151.982,-196.006 155.767,-190.118"/>
</g>
<!-- Node4 -->
<g id="node4" class="node"><title>Node4</title>
<g id="a_node4"><a xlink:href="CoreMacros_8hpp.html" target="_top" xlink:title="Core/CoreMacros.hpp">
<polygon fill="white" stroke="black" points="337,-56.5 337,-75.5 457,-75.5 457,-56.5 337,-56.5"/>
<text text-anchor="middle" x="397" y="-63.5" font-family="Helvetica,sans-Serif" font-size="10.00">Core/CoreMacros.hpp</text>
</a>
</g>
</g>
<!-- Node3&#45;&gt;Node4 -->
<g id="edge3" class="edge"><title>Node3&#45;&gt;Node4</title>
<path fill="none" stroke="midnightblue" d="M397,-112.083C397,-105.006 397,-94.8611 397,-85.9865"/>
<polygon fill="midnightblue" stroke="midnightblue" points="400.5,-85.751 397,-75.7511 393.5,-85.7511 400.5,-85.751"/>
</g>
<!-- Node5 -->
<g id="node5" class="node"><title>Node5</title>
<polygon fill="white" stroke="#bfbfbf" points="443,-0.5 443,-19.5 495,-19.5 495,-0.5 443,-0.5"/>
<text text-anchor="middle" x="469" y="-7.5" font-family="Helvetica,sans-Serif" font-size="10.00">cassert</text>
</g>
<!-- Node4&#45;&gt;Node5 -->
<g id="edge4" class="edge"><title>Node4&#45;&gt;Node5</title>
<path fill="none" stroke="midnightblue" d="M408.568,-56.324C419.42,-48.1849 435.881,-35.8395 448.883,-26.0874"/>
<polygon fill="midnightblue" stroke="midnightblue" points="451.321,-28.6339 457.221,-19.8339 447.121,-23.0339 451.321,-28.6339"/>
</g>
<!-- Node6 -->
<g id="node6" class="node"><title>Node6</title>
<polygon fill="white" stroke="#bfbfbf" points="305.5,-0.5 305.5,-19.5 350.5,-19.5 350.5,-0.5 305.5,-0.5"/>
<text text-anchor="middle" x="328" y="-7.5" font-family="Helvetica,sans-Serif" font-size="10.00">cstdio</text>
</g>
<!-- Node4&#45;&gt;Node6 -->
<g id="edge5" class="edge"><title>Node4&#45;&gt;Node6</title>
<path fill="none" stroke="midnightblue" d="M385.914,-56.324C375.514,-48.1849 359.739,-35.8395 347.278,-26.0874"/>
<polygon fill="midnightblue" stroke="midnightblue" points="349.32,-23.2407 339.288,-19.8339 345.006,-28.7533 349.32,-23.2407"/>
</g>
<!-- Node4&#45;&gt;Node7 -->
<g id="edge6" class="edge"><title>Node4&#45;&gt;Node7</title>
<path fill="none" stroke="midnightblue" d="M354.535,-56.4435C303.551,-46.1707 218.703,-29.0745 168.892,-19.038"/>
<polygon fill="midnightblue" stroke="midnightblue" points="169.314,-15.5527 158.82,-17.0084 167.931,-22.4148 169.314,-15.5527"/>
</g>
<!-- Node8 -->
<g id="node8" class="node"><title>Node8</title>
<polygon fill="white" stroke="#bfbfbf" points="369,-0.5 369,-19.5 425,-19.5 425,-0.5 369,-0.5"/>
<text text-anchor="middle" x="397" y="-7.5" font-family="Helvetica,sans-Serif" font-size="10.00">sstream</text>
</g>
<!-- Node4&#45;&gt;Node8 -->
<g id="edge7" class="edge"><title>Node4&#45;&gt;Node8</title>
<path fill="none" stroke="midnightblue" d="M397,-56.083C397,-49.0059 397,-38.8611 397,-29.9865"/>
<polygon fill="midnightblue" stroke="midnightblue" points="400.5,-29.751 397,-19.7511 393.5,-29.7511 400.5,-29.751"/>
</g>
<!-- Node9 -->
<g id="node9" class="node"><title>Node9</title>
<polygon fill="white" stroke="#bfbfbf" points="571,-0.5 571,-19.5 619,-19.5 619,-0.5 571,-0.5"/>
<text text-anchor="middle" x="595" y="-7.5" font-family="Helvetica,sans-Serif" font-size="10.00">thread</text>
</g>
<!-- Node4&#45;&gt;Node9 -->
<g id="edge8" class="edge"><title>Node4&#45;&gt;Node9</title>
<path fill="none" stroke="midnightblue" d="M428.374,-56.4435C464.555,-46.5759 523.82,-30.4126 561.055,-20.2577"/>
<polygon fill="midnightblue" stroke="midnightblue" points="562.209,-23.571 570.935,-17.5631 560.367,-16.8176 562.209,-23.571"/>
</g>
<!-- Node12&#45;&gt;Node3 -->
<g id="edge12" class="edge"><title>Node12&#45;&gt;Node3</title>
<path fill="none" stroke="midnightblue" d="M451.421,-224.142C459.949,-211.199 472.848,-186.635 463,-168 455.576,-153.953 441.579,-143.467 428.379,-136.167"/>
<polygon fill="midnightblue" stroke="midnightblue" points="429.957,-133.043 419.459,-131.618 426.777,-139.279 429.957,-133.043"/>
</g>
<!-- Node12&#45;&gt;Node9 -->
<g id="edge18" class="edge"><title>Node12&#45;&gt;Node9</title>
<path fill="none" stroke="midnightblue" d="M516.732,-225.14C563.818,-218.333 619.313,-206.594 634,-188 671.973,-139.924 629.629,-62.5971 607.171,-28.3187"/>
<polygon fill="midnightblue" stroke="midnightblue" points="609.948,-26.1764 601.448,-19.8521 604.149,-30.0968 609.948,-26.1764"/>
</g>
<!-- Node12&#45;&gt;Node11 -->
<g id="edge17" class="edge"><title>Node12&#45;&gt;Node11</title>
<path fill="none" stroke="midnightblue" d="M376.455,-224.49C321.423,-217.102 242.04,-205.203 164.237,-188.053"/>
<polygon fill="midnightblue" stroke="midnightblue" points="164.788,-184.589 154.265,-185.823 163.261,-191.421 164.788,-184.589"/>
</g>
<!-- Node13 -->
<g id="node13" class="node"><title>Node13</title>
<polygon fill="white" stroke="#bfbfbf" points="681.5,-168.5 681.5,-187.5 784.5,-187.5 784.5,-168.5 681.5,-168.5"/>
<text text-anchor="middle" x="733" y="-175.5" font-family="Helvetica,sans-Serif" font-size="10.00">condition_variable</text>
</g>
<!-- Node12&#45;&gt;Node13 -->
<g id="edge13" class="edge"><title>Node12&#45;&gt;Node13</title>
<path fill="none" stroke="midnightblue" d="M490.634,-224.444C541.297,-214.944 623.075,-199.611 677.428,-189.42"/>
<polygon fill="midnightblue" stroke="midnightblue" points="678.395,-192.799 687.579,-187.516 677.105,-185.919 678.395,-192.799"/>
</g>
<!-- Node14 -->
<g id="node14" class="node"><title>Node14</title>
<polygon fill="white" stroke="#bfbfbf" points="802.5,-168.5 802.5,-187.5 849.5,-187.5 849.5,-168.5 802.5,-168.5"/>
<text text-anchor="middle" x="826" y="-175.5" font-family="Helvetica,sans-Serif" font-size="10.00">deque</text>
</g>
<!-- Node12&#45;&gt;Node14 -->
<g id="edge14" class="edge"><title>Node12&#45;&gt;Node14</title>
<path fill="none" stroke="midnightblue" d="M516.816,-224.993C598.53,-215.674 728.029,-200.224 792.233,-188.07"/>
<polygon fill="midnightblue" stroke="midnightblue" points="793.198,-191.447 802.329,-186.073 791.839,-184.58 793.198,-191.447"/>
</g>
<!-- Node15 -->
<g id="node15" class="node"><title>Node15</title>
<polygon fill="white" stroke="#bfbfbf" points="867.5,-168.5 867.5,-187.5 924.5,-187.5 924.5,-168.5 867.5,-168.5"/>
<text text-anchor="middle" x="896" y="-175.5" font-family="Helvetica,sans-Serif" font-size="10.00">memory</text>
</g>
<!-- Node12&#45;&gt;Node15 -->
<g id="edge15" class="edge"><title>Node12&#45;&gt;Node15</title>
<path fill="none" stroke="midnightblue" d="M516.552,-225.038C519.745,-224.686 522.906,-224.339 526,-224 670.652,-208.145 710.584,-213.394 857.122,-188.14"/>
<polygon fill="midnightblue" stroke="midnightblue" points="858.144,-191.514 867.395,-186.35 856.942,-184.618 858.144,-191.514"/>
</g>
<!-- Node16 -->
<g id="node16" class="node"><title>Node16</title>
<polygon fill="white" stroke="#bfbfbf" points="342.5,-168.5 342.5,-187.5 389.5,-187.5 389.5,-168.5 342.5,-168.5"/>
<text text-anchor="middle" x="366" y="-175.5" font-family="Helvetica,sans-Serif" font-size="10.00">mutex</text>
</g>
<!-- Node12&#45;&gt;Node16 -->
<g id="edge16" class="edge"><title>Node12&#45;&gt;Node16</title>
<path fill="none" stroke="midnightblue" d="M432.307,-224.324C420.099,-215.979 401.422,-203.212 386.997,-193.352"/>
<polygon fill="midnightblue" stroke="midnightblue" points="388.892,-190.408 378.661,-187.655 384.942,-196.187 388.892,-190.408"/>
</g>
<!-- Node17 -->
<g id="node17" class="node"><title>Node17</title>
<polygon fill="white" stroke="#bfbfbf" points="407.5,-168.5 407.5,-187.5 454.5,-187.5 454.5,-168.5 407.5,-168.5"/>
<text text-anchor="middle" x="431" y="-175.5" font-family="Helvetica,sans-Serif" font-size="10.00">vector</text>
</g>
<!-- Node12&#45;&gt;Node17 -->
<g id="edge19" class="edge"><title>Node12&#45;&gt;Node17</title>
<path fill="none" stroke="midnightblue" d="M442.688,-224.083C440.833,-216.927 438.165,-206.635 435.846,-197.691"/>
<polygon fill="midnightblue" stroke="midnightblue" points="439.166,-196.553 433.269,-187.751 432.391,-198.309 439.166,-196.553"/>
</g>
<!-- Node18 -->
<g id="node18" class="node"><title>Node18</title>
<g id="a_node18"><a xlink:href="Index_8hpp.html" target="_top" xlink:title="Core/Utils/Index.hpp">
<polygon fill="white" stroke="black" points="172.5,-168.5 172.5,-187.5 285.5,-187.5 285.5,-168.5 172.5,-168.5"/>
<text text-anchor="middle" x="229" y="-175.5" font-family="Helvetica,sans-Serif" font-size="10.00">Core/Utils/Index.hpp</text>
</a>
</g>
</g>
<!-- Node12&#45;&gt;Node18 -->
<g id="edge20" class="edge"><title>Node12&#45;&gt;Node18</title>
<path fill="none" stroke="midnightblue" d="M410.774,-224.444C373.488,-215.122 313.731,-200.183 272.989,-189.997"/>
<polygon fill="midnightblue" stroke="midnightblue" points="273.616,-186.546 263.066,-187.516 271.918,-193.337 273.616,-186.546"/>
</g>
<!-- Node21 -->
<g id="node21" class="node"><title>Node21</title>
<g id="a_node21"><a xlink:href="Timer_8hpp.html" target="_top" xlink:title="Core/Utils/Timer.hpp">
<polygon fill="white" stroke="black" points="511.5,-168.5 511.5,-187.5 624.5,-187.5 624.5,-168.5 511.5,-168.5"/>
<text text-anchor="middle" x="568" y="-175.5" font-family="Helvetica,sans-Serif" font-size="10.00">Core/Utils/Timer.hpp</text>
</a>
</g>
</g>
<!-- Node12&#45;&gt;Node21 -->
<g id="edge24" class="edge"><title>Node12&#45;&gt;Node21</title>
<path fill="none" stroke="midnightblue" d="M464.49,-224.444C484.642,-215.596 516.323,-201.687 539.331,-191.586"/>
<polygon fill="midnightblue" stroke="midnightblue" points="540.852,-194.741 548.601,-187.516 538.038,-188.332 540.852,-194.741"/>
</g>
<!-- Node18&#45;&gt;Node3 -->
<g id="edge21" class="edge"><title>Node18&#45;&gt;Node3</title>
<path fill="none" stroke="midnightblue" d="M255.62,-168.444C284.006,-159.32 329.137,-144.813 360.753,-134.651"/>
<polygon fill="midnightblue" stroke="midnightblue" points="362.055,-137.909 370.504,-131.516 359.913,-131.244 362.055,-137.909"/>
</g>
<!-- Node19 -->
<g id="node19" class="node"><title>Node19</title>
<polygon fill="white" stroke="#bfbfbf" points="248,-112.5 248,-131.5 290,-131.5 290,-112.5 248,-112.5"/>
<text text-anchor="middle" x="269" y="-119.5" font-family="Helvetica,sans-Serif" font-size="10.00">limits</text>
</g>
<!-- Node18&#45;&gt;Node19 -->
<g id="edge22" class="edge"><title>Node18&#45;&gt;Node19</title>
<path fill="none" stroke="midnightblue" d="M235.605,-168.083C241.255,-160.455 249.545,-149.264 256.451,-139.941"/>
<polygon fill="midnightblue" stroke="midnightblue" points="259.378,-141.87 262.518,-131.751 253.753,-137.703 259.378,-141.87"/>
</g>
<!-- Node20 -->
<g id="node20" class="node"><title>Node20</title>
<g id="a_node20"><a xlink:href="Index_8inl.html" target="_top" xlink:title="Core/Utils/Index.inl">
<polygon fill="white" stroke="black" points="124.5,-112.5 124.5,-131.5 229.5,-131.5 229.5,-112.5 124.5,-112.5"/>
<text text-anchor="middle" x="177" y="-119.5" font-family="Helvetica,sans-Serif" font-size="10.00">Core/Utils/Index.inl</text>
</a>
</g>
</g>
<!-- Node18&#45;&gt;Node20 -->
<g id="edge23" class="edge"><title>Node18&#45;&gt;Node20</title>
<path fill="none" stroke="midnightblue" d="M220.413,-168.083C212.841,-160.22 201.622,-148.569 192.486,-139.081"/>
<polygon fill="midnightblue" stroke="midnightblue" points="194.885,-136.527 185.427,-131.751 189.842,-141.382 194.885,-136.527"/>
</g>
<!-- Node21&#45;&gt;Node3 -->
<g id="edge25" class="edge"><title>Node21&#45;&gt;Node3</title>
<path fill="none" stroke="midnightblue" d="M540.905,-168.444C512.012,-159.32 466.075,-144.813 433.895,-134.651"/>
<polygon fill="midnightblue" stroke="midnightblue" points="434.559,-131.19 423.969,-131.516 432.451,-137.865 434.559,-131.19"/>
</g>
<!-- Node22 -->
<g id="node22" class="node"><title>Node22</title>
<polygon fill="white" stroke="#bfbfbf" points="543,-112.5 543,-131.5 593,-131.5 593,-112.5 543,-112.5"/>
<text text-anchor="middle" x="568" y="-119.5" font-family="Helvetica,sans-Serif" font-size="10.00">chrono</text>
</g>
<!-- Node21&#45;&gt;Node22 -->
<g id="edge26" class="edge"><title>Node21&#45;&gt;Node22</title>
<path fill="none" stroke="midnightblue" d="M568,-168.083C568,-161.006 568,-150.861 568,-141.986"/>
<polygon fill="midnightblue" stroke="midnightblue" points="571.5,-141.751 568,-131.751 564.5,-141.751 571.5,-141.751"/>
</g>
</g>
</svg>
