<?xml version="1.0" encoding="UTF-8" standalone="no"?>
<!DOCTYPE svg PUBLIC "-//W3C//DTD SVG 1.1//EN"
 "http://www.w3.org/Graphics/SVG/1.1/DTD/svg11.dtd">
<!-- Generated by graphviz version 2.38.0 (20140413.2041)
 -->
<!-- Title: /home/travis/build/STORM&#45;IRIT/Radium&#45;Engine/src/Core/Tasks/TaskQueue.hpp Pages: 1 -->
<svg width="872pt" height="274pt"
 viewBox="0.00 0.00 872.00 274.00" xmlns="http://www.w3.org/2000/svg" xmlns:xlink="http://www.w3.org/1999/xlink">
<g id="graph0" class="graph" transform="scale(1 1) rotate(0) translate(4 270)">
<title>/home/travis/build/STORM&#45;IRIT/Radium&#45;Engine/src/Core/Tasks/TaskQueue.hpp</title>
<polygon fill="white" stroke="none" points="-4,4 -4,-270 868,-270 868,4 -4,4"/>
<!-- Node1 -->
<g id="node1" class="node"><title>Node1</title>
<polygon fill="#bfbfbf" stroke="black" points="443.5,-224.5 443.5,-265.5 607.5,-265.5 607.5,-224.5 443.5,-224.5"/>
<text text-anchor="start" x="451.5" y="-253.5" font-family="Helvetica,sans-Serif" font-size="10.00">/home/travis/build</text>
<text text-anchor="start" x="451.5" y="-242.5" font-family="Helvetica,sans-Serif" font-size="10.00">/STORM&#45;IRIT/Radium&#45;Engine</text>
<text text-anchor="middle" x="525.5" y="-231.5" font-family="Helvetica,sans-Serif" font-size="10.00">/src/Core/Tasks/TaskQueue.hpp</text>
</g>
<!-- Node2 -->
<g id="node2" class="node"><title>Node2</title>
<g id="a_node2"><a xlink:href="RaCore_8hpp.html" target="_top" xlink:title="Core/RaCore.hpp">
<polygon fill="white" stroke="black" points="183.5,-112.5 183.5,-131.5 281.5,-131.5 281.5,-112.5 183.5,-112.5"/>
<text text-anchor="middle" x="232.5" y="-119.5" font-family="Helvetica,sans-Serif" font-size="10.00">Core/RaCore.hpp</text>
</a>
</g>
</g>
<!-- Node1&#45;&gt;Node2 -->
<g id="edge1" class="edge"><title>Node1&#45;&gt;Node2</title>
<path fill="none" stroke="midnightblue" d="M443.332,-237.055C372.01,-229.344 275.988,-214.361 248.5,-188 236.189,-176.194 232.735,-156.561 232.029,-141.956"/>
<polygon fill="midnightblue" stroke="midnightblue" points="235.526,-141.534 231.935,-131.566 228.526,-141.597 235.526,-141.534"/>
</g>
<!-- Node8 -->
<g id="node8" class="node"><title>Node8</title>
<polygon fill="white" stroke="#bfbfbf" points="368.5,-0.5 368.5,-19.5 416.5,-19.5 416.5,-0.5 368.5,-0.5"/>
<text text-anchor="middle" x="392.5" y="-7.5" font-family="Helvetica,sans-Serif" font-size="10.00">thread</text>
</g>
<!-- Node1&#45;&gt;Node8 -->
<g id="edge13" class="edge"><title>Node1&#45;&gt;Node8</title>
<path fill="none" stroke="midnightblue" d="M465.776,-224.397C448.324,-215.856 430.897,-204.03 419.5,-188 385.03,-139.519 387.007,-64.6126 390.203,-29.8793"/>
<polygon fill="midnightblue" stroke="midnightblue" points="393.704,-30.0507 391.282,-19.7365 386.743,-29.3099 393.704,-30.0507"/>
</g>
<!-- Node9 -->
<g id="node9" class="node"><title>Node9</title>
<polygon fill="white" stroke="#bfbfbf" points="428,-168.5 428,-187.5 531,-187.5 531,-168.5 428,-168.5"/>
<text text-anchor="middle" x="479.5" y="-175.5" font-family="Helvetica,sans-Serif" font-size="10.00">condition_variable</text>
</g>
<!-- Node1&#45;&gt;Node9 -->
<g id="edge8" class="edge"><title>Node1&#45;&gt;Node9</title>
<path fill="none" stroke="midnightblue" d="M511.698,-224.498C505.256,-215.395 497.661,-204.662 491.466,-195.908"/>
<polygon fill="midnightblue" stroke="midnightblue" points="494.257,-193.793 485.623,-187.652 488.543,-197.837 494.257,-193.793"/>
</g>
<!-- Node10 -->
<g id="node10" class="node"><title>Node10</title>
<polygon fill="white" stroke="#bfbfbf" points="549,-168.5 549,-187.5 596,-187.5 596,-168.5 549,-168.5"/>
<text text-anchor="middle" x="572.5" y="-175.5" font-family="Helvetica,sans-Serif" font-size="10.00">deque</text>
</g>
<!-- Node1&#45;&gt;Node10 -->
<g id="edge9" class="edge"><title>Node1&#45;&gt;Node10</title>
<path fill="none" stroke="midnightblue" d="M539.602,-224.498C546.184,-215.395 553.944,-204.662 560.274,-195.908"/>
<polygon fill="midnightblue" stroke="midnightblue" points="563.22,-197.807 566.244,-187.652 557.548,-193.705 563.22,-197.807"/>
</g>
<!-- Node11 -->
<g id="node11" class="node"><title>Node11</title>
<polygon fill="white" stroke="#bfbfbf" points="614,-168.5 614,-187.5 671,-187.5 671,-168.5 614,-168.5"/>
<text text-anchor="middle" x="642.5" y="-175.5" font-family="Helvetica,sans-Serif" font-size="10.00">memory</text>
</g>
<!-- Node1&#45;&gt;Node11 -->
<g id="edge10" class="edge"><title>Node1&#45;&gt;Node11</title>
<path fill="none" stroke="midnightblue" d="M560.604,-224.498C579.06,-214.245 601.235,-201.925 617.853,-192.693"/>
<polygon fill="midnightblue" stroke="midnightblue" points="619.884,-195.569 626.926,-187.652 616.484,-189.449 619.884,-195.569"/>
</g>
<!-- Node12 -->
<g id="node12" class="node"><title>Node12</title>
<polygon fill="white" stroke="#bfbfbf" points="689,-168.5 689,-187.5 736,-187.5 736,-168.5 689,-168.5"/>
<text text-anchor="middle" x="712.5" y="-175.5" font-family="Helvetica,sans-Serif" font-size="10.00">mutex</text>
</g>
<!-- Node1&#45;&gt;Node12 -->
<g id="edge11" class="edge"><title>Node1&#45;&gt;Node12</title>
<path fill="none" stroke="midnightblue" d="M581.606,-224.498C613.277,-213.489 651.802,-200.098 678.828,-190.704"/>
<polygon fill="midnightblue" stroke="midnightblue" points="680.288,-193.902 688.585,-187.313 677.99,-187.29 680.288,-193.902"/>
</g>
<!-- Node13 -->
<g id="node13" class="node"><title>Node13</title>
<polygon fill="white" stroke="#bfbfbf" points="754.5,-168.5 754.5,-187.5 798.5,-187.5 798.5,-168.5 754.5,-168.5"/>
<text text-anchor="middle" x="776.5" y="-175.5" font-family="Helvetica,sans-Serif" font-size="10.00">string</text>
</g>
<!-- Node1&#45;&gt;Node13 -->
<g id="edge12" class="edge"><title>Node1&#45;&gt;Node13</title>
<path fill="none" stroke="midnightblue" d="M604.838,-224.483C644.298,-214.615 692.923,-202.215 744.509,-188.211"/>
<polygon fill="midnightblue" stroke="midnightblue" points="745.446,-191.584 754.174,-185.578 743.606,-184.83 745.446,-191.584"/>
</g>
<!-- Node14 -->
<g id="node14" class="node"><title>Node14</title>
<polygon fill="white" stroke="#bfbfbf" points="817,-168.5 817,-187.5 864,-187.5 864,-168.5 817,-168.5"/>
<text text-anchor="middle" x="840.5" y="-175.5" font-family="Helvetica,sans-Serif" font-size="10.00">vector</text>
</g>
<!-- Node1&#45;&gt;Node14 -->
<g id="edge14" class="edge"><title>Node1&#45;&gt;Node14</title>
<path fill="none" stroke="midnightblue" d="M607.58,-229.275C661.595,-219.217 734.03,-205.033 806.937,-188.001"/>
<polygon fill="midnightblue" stroke="midnightblue" points="807.826,-191.387 816.758,-185.689 806.222,-184.573 807.826,-191.387"/>
</g>
<!-- Node15 -->
<g id="node15" class="node"><title>Node15</title>
<g id="a_node15"><a xlink:href="Index_8hpp.html" target="_top" xlink:title="Core/Utils/Index.hpp">
<polygon fill="white" stroke="black" points="88,-168.5 88,-187.5 201,-187.5 201,-168.5 88,-168.5"/>
<text text-anchor="middle" x="144.5" y="-175.5" font-family="Helvetica,sans-Serif" font-size="10.00">Core/Utils/Index.hpp</text>
</a>
</g>
</g>
<!-- Node1&#45;&gt;Node15 -->
<g id="edge15" class="edge"><title>Node1&#45;&gt;Node15</title>
<path fill="none" stroke="midnightblue" d="M443.298,-229.976C371.451,-217.719 268.831,-200.211 204.48,-189.233"/>
<polygon fill="midnightblue" stroke="midnightblue" points="204.937,-185.76 194.491,-187.529 203.76,-192.661 204.937,-185.76"/>
</g>
<!-- Node18 -->
<g id="node18" class="node"><title>Node18</title>
<g id="a_node18"><a xlink:href="Timer_8hpp.html" target="_top" xlink:title="Core/Utils/Timer.hpp">
<polygon fill="white" stroke="black" points="258,-168.5 258,-187.5 371,-187.5 371,-168.5 258,-168.5"/>
<text text-anchor="middle" x="314.5" y="-175.5" font-family="Helvetica,sans-Serif" font-size="10.00">Core/Utils/Timer.hpp</text>
</a>
</g>
</g>
<!-- Node1&#45;&gt;Node18 -->
<g id="edge19" class="edge"><title>Node1&#45;&gt;Node18</title>
<path fill="none" stroke="midnightblue" d="M462.193,-224.498C426.312,-213.444 382.635,-199.99 352.123,-190.59"/>
<polygon fill="midnightblue" stroke="midnightblue" points="352.897,-187.166 342.31,-187.567 350.836,-193.856 352.897,-187.166"/>
</g>
<!-- Node3 -->
<g id="node3" class="node"><title>Node3</title>
<g id="a_node3"><a xlink:href="CoreMacros_8hpp.html" target="_top" xlink:title="Core/CoreMacros.hpp">
<polygon fill="white" stroke="black" points="185.5,-56.5 185.5,-75.5 305.5,-75.5 305.5,-56.5 185.5,-56.5"/>
<text text-anchor="middle" x="245.5" y="-63.5" font-family="Helvetica,sans-Serif" font-size="10.00">Core/CoreMacros.hpp</text>
</a>
</g>
</g>
<!-- Node2&#45;&gt;Node3 -->
<g id="edge2" class="edge"><title>Node2&#45;&gt;Node3</title>
<path fill="none" stroke="midnightblue" d="M234.647,-112.083C236.369,-104.927 238.847,-94.6353 241,-85.6911"/>
<polygon fill="midnightblue" stroke="midnightblue" points="244.455,-86.2925 243.393,-75.7511 237.65,-84.6541 244.455,-86.2925"/>
</g>
<!-- Node4 -->
<g id="node4" class="node"><title>Node4</title>
<polygon fill="white" stroke="#bfbfbf" points="295.5,-0.5 295.5,-19.5 347.5,-19.5 347.5,-0.5 295.5,-0.5"/>
<text text-anchor="middle" x="321.5" y="-7.5" font-family="Helvetica,sans-Serif" font-size="10.00">cassert</text>
</g>
<!-- Node3&#45;&gt;Node4 -->
<g id="edge3" class="edge"><title>Node3&#45;&gt;Node4</title>
<path fill="none" stroke="midnightblue" d="M257.711,-56.324C269.276,-48.1066 286.875,-35.6017 300.661,-25.8069"/>
<polygon fill="midnightblue" stroke="midnightblue" points="302.943,-28.4791 309.067,-19.8339 298.888,-22.7729 302.943,-28.4791"/>
</g>
<!-- Node5 -->
<g id="node5" class="node"><title>Node5</title>
<polygon fill="white" stroke="#bfbfbf" points="81,-0.5 81,-19.5 126,-19.5 126,-0.5 81,-0.5"/>
<text text-anchor="middle" x="103.5" y="-7.5" font-family="Helvetica,sans-Serif" font-size="10.00">cstdio</text>
</g>
<!-- Node3&#45;&gt;Node5 -->
<g id="edge4" class="edge"><title>Node3&#45;&gt;Node5</title>
<path fill="none" stroke="midnightblue" d="M223,-56.4435C199.423,-47.4776 162.178,-33.314 135.536,-23.1827"/>
<polygon fill="midnightblue" stroke="midnightblue" points="136.486,-19.7995 125.895,-19.5164 133.998,-26.3424 136.486,-19.7995"/>
</g>
<!-- Node6 -->
<g id="node6" class="node"><title>Node6</title>
<polygon fill="white" stroke="#bfbfbf" points="144,-0.5 144,-19.5 203,-19.5 203,-0.5 144,-0.5"/>
<text text-anchor="middle" x="173.5" y="-7.5" font-family="Helvetica,sans-Serif" font-size="10.00">iostream</text>
</g>
<!-- Node3&#45;&gt;Node6 -->
<g id="edge5" class="edge"><title>Node3&#45;&gt;Node6</title>
<path fill="none" stroke="midnightblue" d="M233.932,-56.324C223.08,-48.1849 206.619,-35.8395 193.617,-26.0874"/>
<polygon fill="midnightblue" stroke="midnightblue" points="195.379,-23.0339 185.279,-19.8339 191.179,-28.6339 195.379,-23.0339"/>
</g>
<!-- Node7 -->
<g id="node7" class="node"><title>Node7</title>
<polygon fill="white" stroke="#bfbfbf" points="221.5,-0.5 221.5,-19.5 277.5,-19.5 277.5,-0.5 221.5,-0.5"/>
<text text-anchor="middle" x="249.5" y="-7.5" font-family="Helvetica,sans-Serif" font-size="10.00">sstream</text>
</g>
<!-- Node3&#45;&gt;Node7 -->
<g id="edge6" class="edge"><title>Node3&#45;&gt;Node7</title>
<path fill="none" stroke="midnightblue" d="M246.161,-56.083C246.685,-49.0059 247.436,-38.8611 248.094,-29.9865"/>
<polygon fill="midnightblue" stroke="midnightblue" points="251.603,-29.9823 248.852,-19.7511 244.623,-29.4652 251.603,-29.9823"/>
</g>
<!-- Node3&#45;&gt;Node8 -->
<g id="edge7" class="edge"><title>Node3&#45;&gt;Node8</title>
<path fill="none" stroke="midnightblue" d="M268.793,-56.4435C293.307,-47.4381 332.096,-33.1891 359.7,-23.049"/>
<polygon fill="midnightblue" stroke="midnightblue" points="361.137,-26.25 369.316,-19.5164 358.723,-19.6793 361.137,-26.25"/>
</g>
<!-- Node15&#45;&gt;Node2 -->
<g id="edge16" class="edge"><title>Node15&#45;&gt;Node2</title>
<path fill="none" stroke="midnightblue" d="M158.639,-168.324C172.366,-159.9 193.436,-146.971 209.564,-137.074"/>
<polygon fill="midnightblue" stroke="midnightblue" points="211.704,-139.868 218.396,-131.655 208.043,-133.902 211.704,-139.868"/>
</g>
<!-- Node16 -->
<g id="node16" class="node"><title>Node16</title>
<polygon fill="white" stroke="#bfbfbf" points="123.5,-112.5 123.5,-131.5 165.5,-131.5 165.5,-112.5 123.5,-112.5"/>
<text text-anchor="middle" x="144.5" y="-119.5" font-family="Helvetica,sans-Serif" font-size="10.00">limits</text>
</g>
<!-- Node15&#45;&gt;Node16 -->
<g id="edge17" class="edge"><title>Node15&#45;&gt;Node16</title>
<path fill="none" stroke="midnightblue" d="M144.5,-168.083C144.5,-161.006 144.5,-150.861 144.5,-141.986"/>
<polygon fill="midnightblue" stroke="midnightblue" points="148,-141.751 144.5,-131.751 141,-141.751 148,-141.751"/>
</g>
<!-- Node17 -->
<g id="node17" class="node"><title>Node17</title>
<g id="a_node17"><a xlink:href="Index_8inl.html" target="_top" xlink:title="Core/Utils/Index.inl">
<polygon fill="white" stroke="black" points="0,-112.5 0,-131.5 105,-131.5 105,-112.5 0,-112.5"/>
<text text-anchor="middle" x="52.5" y="-119.5" font-family="Helvetica,sans-Serif" font-size="10.00">Core/Utils/Index.inl</text>
</a>
</g>
</g>
<!-- Node15&#45;&gt;Node17 -->
<g id="edge18" class="edge"><title>Node15&#45;&gt;Node17</title>
<path fill="none" stroke="midnightblue" d="M129.719,-168.324C115.233,-159.822 92.9269,-146.729 76.0068,-136.797"/>
<polygon fill="midnightblue" stroke="midnightblue" points="77.6406,-133.698 67.2447,-131.655 74.0972,-139.735 77.6406,-133.698"/>
</g>
<!-- Node18&#45;&gt;Node2 -->
<g id="edge20" class="edge"><title>Node18&#45;&gt;Node2</title>
<path fill="none" stroke="midnightblue" d="M301.325,-168.324C288.653,-159.979 269.267,-147.212 254.294,-137.352"/>
<polygon fill="midnightblue" stroke="midnightblue" points="255.919,-134.231 245.642,-131.655 252.069,-140.078 255.919,-134.231"/>
</g>
<!-- Node19 -->
<g id="node19" class="node"><title>Node19</title>
<polygon fill="white" stroke="#bfbfbf" points="299.5,-112.5 299.5,-131.5 349.5,-131.5 349.5,-112.5 299.5,-112.5"/>
<text text-anchor="middle" x="324.5" y="-119.5" font-family="Helvetica,sans-Serif" font-size="10.00">chrono</text>
</g>
<!-- Node18&#45;&gt;Node19 -->
<g id="edge21" class="edge"><title>Node18&#45;&gt;Node19</title>
<path fill="none" stroke="midnightblue" d="M316.151,-168.083C317.476,-160.927 319.382,-150.635 321.039,-141.691"/>
<polygon fill="midnightblue" stroke="midnightblue" points="324.5,-142.221 322.879,-131.751 317.617,-140.947 324.5,-142.221"/>
</g>
</g>
</svg>
