<?xml version="1.0" encoding="UTF-8" standalone="no"?>
<!DOCTYPE svg PUBLIC "-//W3C//DTD SVG 1.1//EN"
 "http://www.w3.org/Graphics/SVG/1.1/DTD/svg11.dtd">
<!-- Generated by graphviz version 2.38.0 (20140413.2041)
 -->
<!-- Title: /home/travis/build/STORM&#45;IRIT/Radium&#45;Engine/src/Engine/Renderer/Texture/Texture.hpp Pages: 1 -->
<svg width="3127pt" height="395pt"
 viewBox="0.00 0.00 3127.00 395.00" xmlns="http://www.w3.org/2000/svg" xmlns:xlink="http://www.w3.org/1999/xlink">
<g id="graph0" class="graph" transform="scale(1 1) rotate(0) translate(4 391)">
<title>/home/travis/build/STORM&#45;IRIT/Radium&#45;Engine/src/Engine/Renderer/Texture/Texture.hpp</title>
<polygon fill="white" stroke="none" points="-4,4 -4,-391 3123,-391 3123,4 -4,4"/>
<!-- Node1 -->
<g id="node1" class="node"><title>Node1</title>
<polygon fill="#bfbfbf" stroke="black" points="2425,-334.5 2425,-386.5 2577,-386.5 2577,-334.5 2425,-334.5"/>
<text text-anchor="start" x="2433" y="-374.5" font-family="Helvetica,sans-Serif" font-size="10.00">/home/travis/build</text>
<text text-anchor="start" x="2433" y="-363.5" font-family="Helvetica,sans-Serif" font-size="10.00">/STORM&#45;IRIT/Radium&#45;Engine</text>
<text text-anchor="start" x="2433" y="-352.5" font-family="Helvetica,sans-Serif" font-size="10.00">/src/Engine/Renderer/Texture</text>
<text text-anchor="middle" x="2501" y="-341.5" font-family="Helvetica,sans-Serif" font-size="10.00">/Texture.hpp</text>
</g>
<!-- Node2 -->
<g id="node2" class="node"><title>Node2</title>
<g id="a_node2"><a xlink:href="BlinnPhongMaterial_8cpp.html" target="_top" xlink:title="/home/travis/build\l/STORM&#45;IRIT/Radium&#45;Engine\l/src/Engine/Renderer/Material\l/BlinnPhongMaterial.cpp">
<polygon fill="white" stroke="black" points="1972,-156.5 1972,-208.5 2128,-208.5 2128,-156.5 1972,-156.5"/>
<text text-anchor="start" x="1980" y="-196.5" font-family="Helvetica,sans-Serif" font-size="10.00">/home/travis/build</text>
<text text-anchor="start" x="1980" y="-185.5" font-family="Helvetica,sans-Serif" font-size="10.00">/STORM&#45;IRIT/Radium&#45;Engine</text>
<text text-anchor="start" x="1980" y="-174.5" font-family="Helvetica,sans-Serif" font-size="10.00">/src/Engine/Renderer/Material</text>
<text text-anchor="middle" x="2050" y="-163.5" font-family="Helvetica,sans-Serif" font-size="10.00">/BlinnPhongMaterial.cpp</text>
</a>
</g>
</g>
<!-- Node1&#45;&gt;Node2 -->
<g id="edge1" class="edge"><title>Node1&#45;&gt;Node2</title>
<path fill="none" stroke="midnightblue" d="M2415.02,-340.336C2372.53,-329.777 2320.87,-315.294 2276,-298 2209.92,-272.532 2137.57,-233.811 2092.97,-208.579"/>
<polygon fill="midnightblue" stroke="midnightblue" points="2414.23,-343.745 2424.77,-342.731 2415.9,-336.947 2414.23,-343.745"/>
</g>
<!-- Node3 -->
<g id="node3" class="node"><title>Node3</title>
<g id="a_node3"><a xlink:href="BlinnPhongMaterial_8hpp.html" target="_top" xlink:title="/home/travis/build\l/STORM&#45;IRIT/Radium&#45;Engine\l/src/Engine/Renderer/Material\l/BlinnPhongMaterial.hpp">
<polygon fill="white" stroke="black" points="1136,-245.5 1136,-297.5 1292,-297.5 1292,-245.5 1136,-245.5"/>
<text text-anchor="start" x="1144" y="-285.5" font-family="Helvetica,sans-Serif" font-size="10.00">/home/travis/build</text>
<text text-anchor="start" x="1144" y="-274.5" font-family="Helvetica,sans-Serif" font-size="10.00">/STORM&#45;IRIT/Radium&#45;Engine</text>
<text text-anchor="start" x="1144" y="-263.5" font-family="Helvetica,sans-Serif" font-size="10.00">/src/Engine/Renderer/Material</text>
<text text-anchor="middle" x="1214" y="-252.5" font-family="Helvetica,sans-Serif" font-size="10.00">/BlinnPhongMaterial.hpp</text>
</a>
</g>
</g>
<!-- Node1&#45;&gt;Node3 -->
<g id="edge2" class="edge"><title>Node1&#45;&gt;Node3</title>
<path fill="none" stroke="midnightblue" d="M2414.53,-353.655C2177.43,-337.627 1519.58,-293.157 1292.37,-277.798"/>
<polygon fill="midnightblue" stroke="midnightblue" points="2414.61,-357.168 2424.82,-354.35 2415.08,-350.184 2414.61,-357.168"/>
</g>
<!-- Node16 -->
<g id="node16" class="node"><title>Node16</title>
<g id="a_node16"><a xlink:href="SkinningComponent_8cpp.html" target="_top" xlink:title="/home/travis/build\l/STORM&#45;IRIT/Radium&#45;Engine\l/Plugins/Skinning/src/SkinningComponent.cpp">
<polygon fill="white" stroke="black" points="2146,-162 2146,-203 2380,-203 2380,-162 2146,-162"/>
<text text-anchor="start" x="2154" y="-191" font-family="Helvetica,sans-Serif" font-size="10.00">/home/travis/build</text>
<text text-anchor="start" x="2154" y="-180" font-family="Helvetica,sans-Serif" font-size="10.00">/STORM&#45;IRIT/Radium&#45;Engine</text>
<text text-anchor="middle" x="2263" y="-169" font-family="Helvetica,sans-Serif" font-size="10.00">/Plugins/Skinning/src/SkinningComponent.cpp</text>
</a>
</g>
</g>
<!-- Node1&#45;&gt;Node16 -->
<g id="edge28" class="edge"><title>Node1&#45;&gt;Node16</title>
<path fill="none" stroke="midnightblue" d="M2415.05,-347.544C2379.6,-338.851 2340.29,-323.854 2312,-298 2284.23,-272.617 2271.57,-228.843 2266.31,-203.404"/>
<polygon fill="midnightblue" stroke="midnightblue" points="2414.4,-350.987 2424.93,-349.833 2415.98,-344.167 2414.4,-350.987"/>
</g>
<!-- Node17 -->
<g id="node17" class="node"><title>Node17</title>
<g id="a_node17"><a xlink:href="Renderer_8cpp.html" target="_top" xlink:title="/home/travis/build\l/STORM&#45;IRIT/Radium&#45;Engine\l/src/Engine/Renderer/Renderer.cpp">
<polygon fill="white" stroke="black" points="2436,-162 2436,-203 2616,-203 2616,-162 2436,-162"/>
<text text-anchor="start" x="2444" y="-191" font-family="Helvetica,sans-Serif" font-size="10.00">/home/travis/build</text>
<text text-anchor="start" x="2444" y="-180" font-family="Helvetica,sans-Serif" font-size="10.00">/STORM&#45;IRIT/Radium&#45;Engine</text>
<text text-anchor="middle" x="2526" y="-169" font-family="Helvetica,sans-Serif" font-size="10.00">/src/Engine/Renderer/Renderer.cpp</text>
</a>
</g>
</g>
<!-- Node1&#45;&gt;Node17 -->
<g id="edge17" class="edge"><title>Node1&#45;&gt;Node17</title>
<path fill="none" stroke="midnightblue" d="M2506.03,-324.113C2511.19,-287.755 2519.05,-232.463 2523.2,-203.225"/>
<polygon fill="midnightblue" stroke="midnightblue" points="2502.52,-323.891 2504.58,-334.283 2509.45,-324.875 2502.52,-323.891"/>
</g>
<!-- Node18 -->
<g id="node18" class="node"><title>Node18</title>
<g id="a_node18"><a xlink:href="ForwardRenderer_8cpp.html" target="_top" xlink:title="/home/travis/build\l/STORM&#45;IRIT/Radium&#45;Engine\l/src/Engine/Renderer/Renderers\l/ForwardRenderer.cpp">
<polygon fill="white" stroke="black" points="2567,-245.5 2567,-297.5 2733,-297.5 2733,-245.5 2567,-245.5"/>
<text text-anchor="start" x="2575" y="-285.5" font-family="Helvetica,sans-Serif" font-size="10.00">/home/travis/build</text>
<text text-anchor="start" x="2575" y="-274.5" font-family="Helvetica,sans-Serif" font-size="10.00">/STORM&#45;IRIT/Radium&#45;Engine</text>
<text text-anchor="start" x="2575" y="-263.5" font-family="Helvetica,sans-Serif" font-size="10.00">/src/Engine/Renderer/Renderers</text>
<text text-anchor="middle" x="2650" y="-252.5" font-family="Helvetica,sans-Serif" font-size="10.00">/ForwardRenderer.cpp</text>
</a>
</g>
</g>
<!-- Node1&#45;&gt;Node18 -->
<g id="edge18" class="edge"><title>Node1&#45;&gt;Node18</title>
<path fill="none" stroke="midnightblue" d="M2553.11,-329.07C2570.73,-318.788 2590.18,-307.431 2607,-297.607"/>
<polygon fill="midnightblue" stroke="midnightblue" points="2550.97,-326.271 2544.1,-334.336 2554.5,-332.316 2550.97,-326.271"/>
</g>
<!-- Node19 -->
<g id="node19" class="node"><title>Node19</title>
<g id="a_node19"><a xlink:href="ShaderProgram_8cpp.html" target="_top" xlink:title="/home/travis/build\l/STORM&#45;IRIT/Radium&#45;Engine\l/src/Engine/Renderer/RenderTechnique\l/ShaderProgram.cpp">
<polygon fill="white" stroke="black" points="2751,-245.5 2751,-297.5 2949,-297.5 2949,-245.5 2751,-245.5"/>
<text text-anchor="start" x="2759" y="-285.5" font-family="Helvetica,sans-Serif" font-size="10.00">/home/travis/build</text>
<text text-anchor="start" x="2759" y="-274.5" font-family="Helvetica,sans-Serif" font-size="10.00">/STORM&#45;IRIT/Radium&#45;Engine</text>
<text text-anchor="start" x="2759" y="-263.5" font-family="Helvetica,sans-Serif" font-size="10.00">/src/Engine/Renderer/RenderTechnique</text>
<text text-anchor="middle" x="2850" y="-252.5" font-family="Helvetica,sans-Serif" font-size="10.00">/ShaderProgram.cpp</text>
</a>
</g>
</g>
<!-- Node1&#45;&gt;Node19 -->
<g id="edge19" class="edge"><title>Node1&#45;&gt;Node19</title>
<path fill="none" stroke="midnightblue" d="M2586.9,-338.087C2636.5,-325.723 2699.09,-310.118 2750.79,-297.232"/>
<polygon fill="midnightblue" stroke="midnightblue" points="2586.01,-334.7 2577.16,-340.515 2587.71,-341.492 2586.01,-334.7"/>
</g>
<!-- Node20 -->
<g id="node20" class="node"><title>Node20</title>
<g id="a_node20"><a xlink:href="Texture_8cpp.html" target="_top" xlink:title="/home/travis/build\l/STORM&#45;IRIT/Radium&#45;Engine\l/src/Engine/Renderer/Texture\l/Texture.cpp">
<polygon fill="white" stroke="black" points="2967,-245.5 2967,-297.5 3119,-297.5 3119,-245.5 2967,-245.5"/>
<text text-anchor="start" x="2975" y="-285.5" font-family="Helvetica,sans-Serif" font-size="10.00">/home/travis/build</text>
<text text-anchor="start" x="2975" y="-274.5" font-family="Helvetica,sans-Serif" font-size="10.00">/STORM&#45;IRIT/Radium&#45;Engine</text>
<text text-anchor="start" x="2975" y="-263.5" font-family="Helvetica,sans-Serif" font-size="10.00">/src/Engine/Renderer/Texture</text>
<text text-anchor="middle" x="3043" y="-252.5" font-family="Helvetica,sans-Serif" font-size="10.00">/Texture.cpp</text>
</a>
</g>
</g>
<!-- Node1&#45;&gt;Node20 -->
<g id="edge20" class="edge"><title>Node1&#45;&gt;Node20</title>
<path fill="none" stroke="midnightblue" d="M2587.39,-351.972C2679.8,-342.968 2830.34,-325.558 2958,-298 2960.86,-297.382 2963.77,-296.716 2966.69,-296.011"/>
<polygon fill="midnightblue" stroke="midnightblue" points="2586.86,-348.506 2577.24,-352.949 2587.53,-355.474 2586.86,-348.506"/>
</g>
<!-- Node21 -->
<g id="node21" class="node"><title>Node21</title>
<g id="a_node21"><a xlink:href="TextureManager_8cpp.html" target="_top" xlink:title="/home/travis/build\l/STORM&#45;IRIT/Radium&#45;Engine\l/src/Engine/Renderer/Texture\l/TextureManager.cpp">
<polygon fill="white" stroke="black" points="2634,-156.5 2634,-208.5 2786,-208.5 2786,-156.5 2634,-156.5"/>
<text text-anchor="start" x="2642" y="-196.5" font-family="Helvetica,sans-Serif" font-size="10.00">/home/travis/build</text>
<text text-anchor="start" x="2642" y="-185.5" font-family="Helvetica,sans-Serif" font-size="10.00">/STORM&#45;IRIT/Radium&#45;Engine</text>
<text text-anchor="start" x="2642" y="-174.5" font-family="Helvetica,sans-Serif" font-size="10.00">/src/Engine/Renderer/Texture</text>
<text text-anchor="middle" x="2710" y="-163.5" font-family="Helvetica,sans-Serif" font-size="10.00">/TextureManager.cpp</text>
</a>
</g>
</g>
<!-- Node1&#45;&gt;Node21 -->
<g id="edge21" class="edge"><title>Node1&#45;&gt;Node21</title>
<path fill="none" stroke="midnightblue" d="M2515.05,-324.775C2527.46,-295.503 2545.48,-256.586 2558,-245 2570.07,-233.834 2602.18,-220.225 2633.81,-208.65"/>
<polygon fill="midnightblue" stroke="midnightblue" points="2511.7,-323.702 2511.07,-334.278 2518.16,-326.405 2511.7,-323.702"/>
</g>
<!-- Node22 -->
<g id="node22" class="node"><title>Node22</title>
<g id="a_node22"><a xlink:href="TextureManager_8hpp.html" target="_top" xlink:title="/home/travis/build\l/STORM&#45;IRIT/Radium&#45;Engine\l/src/Engine/Renderer/Texture\l/TextureManager.hpp">
<polygon fill="white" stroke="black" points="2321,-245.5 2321,-297.5 2473,-297.5 2473,-245.5 2321,-245.5"/>
<text text-anchor="start" x="2329" y="-285.5" font-family="Helvetica,sans-Serif" font-size="10.00">/home/travis/build</text>
<text text-anchor="start" x="2329" y="-274.5" font-family="Helvetica,sans-Serif" font-size="10.00">/STORM&#45;IRIT/Radium&#45;Engine</text>
<text text-anchor="start" x="2329" y="-263.5" font-family="Helvetica,sans-Serif" font-size="10.00">/src/Engine/Renderer/Texture</text>
<text text-anchor="middle" x="2397" y="-252.5" font-family="Helvetica,sans-Serif" font-size="10.00">/TextureManager.hpp</text>
</a>
</g>
</g>
<!-- Node1&#45;&gt;Node22 -->
<g id="edge22" class="edge"><title>Node1&#45;&gt;Node22</title>
<path fill="none" stroke="midnightblue" d="M2462.93,-327.649C2451.09,-317.749 2438.22,-306.98 2427.01,-297.607"/>
<polygon fill="midnightblue" stroke="midnightblue" points="2461,-330.604 2470.92,-334.336 2465.49,-325.235 2461,-330.604"/>
</g>
<!-- Node3&#45;&gt;Node2 -->
<g id="edge5" class="edge"><title>Node3&#45;&gt;Node2</title>
<path fill="none" stroke="midnightblue" d="M1302.36,-269.04C1443.23,-265.417 1726.94,-252.816 1963,-209 1965.94,-208.454 1968.92,-207.849 1971.93,-207.196"/>
<polygon fill="midnightblue" stroke="midnightblue" points="1301.96,-265.549 1292.05,-269.295 1302.13,-272.546 1301.96,-265.549"/>
</g>
<!-- Node4 -->
<g id="node4" class="node"><title>Node4</title>
<g id="a_node4"><a xlink:href="GeometryComponent_8cpp.html" target="_top" xlink:title="/home/travis/build\l/STORM&#45;IRIT/Radium&#45;Engine\l/src/Engine/Component/GeometryComponent.cpp">
<polygon fill="white" stroke="black" points="1318,-162 1318,-203 1574,-203 1574,-162 1318,-162"/>
<text text-anchor="start" x="1326" y="-191" font-family="Helvetica,sans-Serif" font-size="10.00">/home/travis/build</text>
<text text-anchor="start" x="1326" y="-180" font-family="Helvetica,sans-Serif" font-size="10.00">/STORM&#45;IRIT/Radium&#45;Engine</text>
<text text-anchor="middle" x="1446" y="-169" font-family="Helvetica,sans-Serif" font-size="10.00">/src/Engine/Component/GeometryComponent.cpp</text>
</a>
</g>
</g>
<!-- Node3&#45;&gt;Node4 -->
<g id="edge3" class="edge"><title>Node3&#45;&gt;Node4</title>
<path fill="none" stroke="midnightblue" d="M1290.2,-241.925C1324.08,-229.219 1363.12,-214.58 1393.64,-203.134"/>
<polygon fill="midnightblue" stroke="midnightblue" points="1288.93,-238.664 1280.79,-245.453 1291.39,-245.219 1288.93,-238.664"/>
</g>
<!-- Node5 -->
<g id="node5" class="node"><title>Node5</title>
<g id="a_node5"><a xlink:href="RadiumEngine_8cpp.html" target="_top" xlink:title="/home/travis/build\l/STORM&#45;IRIT/Radium&#45;Engine\l/src/Engine/RadiumEngine.cpp">
<polygon fill="white" stroke="black" points="1592.5,-162 1592.5,-203 1753.5,-203 1753.5,-162 1592.5,-162"/>
<text text-anchor="start" x="1600.5" y="-191" font-family="Helvetica,sans-Serif" font-size="10.00">/home/travis/build</text>
<text text-anchor="start" x="1600.5" y="-180" font-family="Helvetica,sans-Serif" font-size="10.00">/STORM&#45;IRIT/Radium&#45;Engine</text>
<text text-anchor="middle" x="1673" y="-169" font-family="Helvetica,sans-Serif" font-size="10.00">/src/Engine/RadiumEngine.cpp</text>
</a>
</g>
</g>
<!-- Node3&#45;&gt;Node5 -->
<g id="edge4" class="edge"><title>Node3&#45;&gt;Node5</title>
<path fill="none" stroke="midnightblue" d="M1302.59,-258.554C1377.67,-247.757 1487.98,-230.311 1583,-209 1590.92,-207.223 1599.18,-205.167 1607.35,-203.01"/>
<polygon fill="midnightblue" stroke="midnightblue" points="1301.64,-255.154 1292.23,-260.033 1302.63,-262.083 1301.64,-255.154"/>
</g>
<!-- Node6 -->
<g id="node6" class="node"><title>Node6</title>
<g id="a_node6"><a xlink:href="DrawPrimitives_8cpp.html" target="_top" xlink:title="/home/travis/build\l/STORM&#45;IRIT/Radium&#45;Engine\l/src/Engine/Renderer/RenderObject\l/Primitives/DrawPrimitives.cpp">
<polygon fill="white" stroke="black" points="1772,-156.5 1772,-208.5 1954,-208.5 1954,-156.5 1772,-156.5"/>
<text text-anchor="start" x="1780" y="-196.5" font-family="Helvetica,sans-Serif" font-size="10.00">/home/travis/build</text>
<text text-anchor="start" x="1780" y="-185.5" font-family="Helvetica,sans-Serif" font-size="10.00">/STORM&#45;IRIT/Radium&#45;Engine</text>
<text text-anchor="start" x="1780" y="-174.5" font-family="Helvetica,sans-Serif" font-size="10.00">/src/Engine/Renderer/RenderObject</text>
<text text-anchor="middle" x="1863" y="-163.5" font-family="Helvetica,sans-Serif" font-size="10.00">/Primitives/DrawPrimitives.cpp</text>
</a>
</g>
</g>
<!-- Node3&#45;&gt;Node6 -->
<g id="edge6" class="edge"><title>Node3&#45;&gt;Node6</title>
<path fill="none" stroke="midnightblue" d="M1302.34,-264.292C1411.1,-255.8 1601.17,-238.189 1762,-209 1765.2,-208.419 1768.45,-207.793 1771.73,-207.132"/>
<polygon fill="midnightblue" stroke="midnightblue" points="1301.77,-260.826 1292.07,-265.086 1302.31,-267.805 1301.77,-260.826"/>
</g>
<!-- Node7 -->
<g id="node7" class="node"><title>Node7</title>
<g id="a_node7"><a xlink:href="RenderTechnique_8cpp.html" target="_top" xlink:title="/home/travis/build\l/STORM&#45;IRIT/Radium&#45;Engine\l/src/Engine/Renderer/RenderTechnique\l/RenderTechnique.cpp">
<polygon fill="white" stroke="black" points="0,-156.5 0,-208.5 198,-208.5 198,-156.5 0,-156.5"/>
<text text-anchor="start" x="8" y="-196.5" font-family="Helvetica,sans-Serif" font-size="10.00">/home/travis/build</text>
<text text-anchor="start" x="8" y="-185.5" font-family="Helvetica,sans-Serif" font-size="10.00">/STORM&#45;IRIT/Radium&#45;Engine</text>
<text text-anchor="start" x="8" y="-174.5" font-family="Helvetica,sans-Serif" font-size="10.00">/src/Engine/Renderer/RenderTechnique</text>
<text text-anchor="middle" x="99" y="-163.5" font-family="Helvetica,sans-Serif" font-size="10.00">/RenderTechnique.cpp</text>
</a>
</g>
</g>
<!-- Node3&#45;&gt;Node7 -->
<g id="edge7" class="edge"><title>Node3&#45;&gt;Node7</title>
<path fill="none" stroke="midnightblue" d="M1125.59,-270.16C949.705,-268.371 543.814,-258.675 207,-209 204.046,-208.564 201.053,-208.088 198.038,-207.577"/>
<polygon fill="midnightblue" stroke="midnightblue" points="1125.8,-273.662 1135.83,-270.258 1125.86,-266.662 1125.8,-273.662"/>
</g>
<!-- Node8 -->
<g id="node8" class="node"><title>Node8</title>
<g id="a_node8"><a xlink:href="RotateGizmo_8cpp.html" target="_top" xlink:title="/home/travis/build\l/STORM&#45;IRIT/Radium&#45;Engine\l/src/GuiBase/Viewer/Gizmo\l/RotateGizmo.cpp">
<polygon fill="white" stroke="black" points="216,-156.5 216,-208.5 364,-208.5 364,-156.5 216,-156.5"/>
<text text-anchor="start" x="224" y="-196.5" font-family="Helvetica,sans-Serif" font-size="10.00">/home/travis/build</text>
<text text-anchor="start" x="224" y="-185.5" font-family="Helvetica,sans-Serif" font-size="10.00">/STORM&#45;IRIT/Radium&#45;Engine</text>
<text text-anchor="start" x="224" y="-174.5" font-family="Helvetica,sans-Serif" font-size="10.00">/src/GuiBase/Viewer/Gizmo</text>
<text text-anchor="middle" x="290" y="-163.5" font-family="Helvetica,sans-Serif" font-size="10.00">/RotateGizmo.cpp</text>
</a>
</g>
</g>
<!-- Node3&#45;&gt;Node8 -->
<g id="edge8" class="edge"><title>Node3&#45;&gt;Node8</title>
<path fill="none" stroke="midnightblue" d="M1125.5,-270.541C971.299,-269.17 643.932,-259.853 373,-209 370.037,-208.444 367.03,-207.819 364.005,-207.139"/>
<polygon fill="midnightblue" stroke="midnightblue" points="1125.83,-274.044 1135.85,-270.623 1125.88,-267.044 1125.83,-274.044"/>
</g>
<!-- Node9 -->
<g id="node9" class="node"><title>Node9</title>
<g id="a_node9"><a xlink:href="ScaleGizmo_8cpp.html" target="_top" xlink:title="/home/travis/build\l/STORM&#45;IRIT/Radium&#45;Engine\l/src/GuiBase/Viewer/Gizmo\l/ScaleGizmo.cpp">
<polygon fill="white" stroke="black" points="382,-156.5 382,-208.5 530,-208.5 530,-156.5 382,-156.5"/>
<text text-anchor="start" x="390" y="-196.5" font-family="Helvetica,sans-Serif" font-size="10.00">/home/travis/build</text>
<text text-anchor="start" x="390" y="-185.5" font-family="Helvetica,sans-Serif" font-size="10.00">/STORM&#45;IRIT/Radium&#45;Engine</text>
<text text-anchor="start" x="390" y="-174.5" font-family="Helvetica,sans-Serif" font-size="10.00">/src/GuiBase/Viewer/Gizmo</text>
<text text-anchor="middle" x="456" y="-163.5" font-family="Helvetica,sans-Serif" font-size="10.00">/ScaleGizmo.cpp</text>
</a>
</g>
</g>
<!-- Node3&#45;&gt;Node9 -->
<g id="edge9" class="edge"><title>Node3&#45;&gt;Node9</title>
<path fill="none" stroke="midnightblue" d="M1125.54,-268.271C995.766,-263.689 746.679,-249.904 539,-209 536.042,-208.417 533.039,-207.77 530.018,-207.072"/>
<polygon fill="midnightblue" stroke="midnightblue" points="1125.7,-271.778 1135.81,-268.623 1125.94,-264.782 1125.7,-271.778"/>
</g>
<!-- Node10 -->
<g id="node10" class="node"><title>Node10</title>
<g id="a_node10"><a xlink:href="TranslateGizmo_8cpp.html" target="_top" xlink:title="/home/travis/build\l/STORM&#45;IRIT/Radium&#45;Engine\l/src/GuiBase/Viewer/Gizmo\l/TranslateGizmo.cpp">
<polygon fill="white" stroke="black" points="548,-156.5 548,-208.5 696,-208.5 696,-156.5 548,-156.5"/>
<text text-anchor="start" x="556" y="-196.5" font-family="Helvetica,sans-Serif" font-size="10.00">/home/travis/build</text>
<text text-anchor="start" x="556" y="-185.5" font-family="Helvetica,sans-Serif" font-size="10.00">/STORM&#45;IRIT/Radium&#45;Engine</text>
<text text-anchor="start" x="556" y="-174.5" font-family="Helvetica,sans-Serif" font-size="10.00">/src/GuiBase/Viewer/Gizmo</text>
<text text-anchor="middle" x="622" y="-163.5" font-family="Helvetica,sans-Serif" font-size="10.00">/TranslateGizmo.cpp</text>
</a>
</g>
</g>
<!-- Node3&#45;&gt;Node10 -->
<g id="edge10" class="edge"><title>Node3&#45;&gt;Node10</title>
<path fill="none" stroke="midnightblue" d="M1125.41,-264.597C1023.24,-256.684 850.631,-239.912 705,-209 702.051,-208.374 699.056,-207.69 696.04,-206.961"/>
<polygon fill="midnightblue" stroke="midnightblue" points="1125.44,-268.109 1135.68,-265.381 1125.98,-261.13 1125.44,-268.109"/>
</g>
<!-- Node11 -->
<g id="node11" class="node"><title>Node11</title>
<g id="a_node11"><a xlink:href="SkeletonBoneDrawable_8cpp.html" target="_top" xlink:title="/home/travis/build\l/STORM&#45;IRIT/Radium&#45;Engine\l/Plugins/Animation/src/Drawing\l/SkeletonBoneDrawable.cpp">
<polygon fill="white" stroke="black" points="714,-156.5 714,-208.5 878,-208.5 878,-156.5 714,-156.5"/>
<text text-anchor="start" x="722" y="-196.5" font-family="Helvetica,sans-Serif" font-size="10.00">/home/travis/build</text>
<text text-anchor="start" x="722" y="-185.5" font-family="Helvetica,sans-Serif" font-size="10.00">/STORM&#45;IRIT/Radium&#45;Engine</text>
<text text-anchor="start" x="722" y="-174.5" font-family="Helvetica,sans-Serif" font-size="10.00">/Plugins/Animation/src/Drawing</text>
<text text-anchor="middle" x="796" y="-163.5" font-family="Helvetica,sans-Serif" font-size="10.00">/SkeletonBoneDrawable.cpp</text>
</a>
</g>
</g>
<!-- Node3&#45;&gt;Node11 -->
<g id="edge11" class="edge"><title>Node3&#45;&gt;Node11</title>
<path fill="none" stroke="midnightblue" d="M1126.01,-256.097C1059.93,-244.763 967.39,-227.785 887,-209 884.124,-208.328 881.203,-207.624 878.257,-206.897"/>
<polygon fill="midnightblue" stroke="midnightblue" points="1125.52,-259.565 1135.97,-257.797 1126.7,-252.664 1125.52,-259.565"/>
</g>
<!-- Node12 -->
<g id="node12" class="node"><title>Node12</title>
<g id="a_node12"><a xlink:href="MeshFeatureTrackingComponent_8cpp.html" target="_top" xlink:title="/home/travis/build\l/STORM&#45;IRIT/Radium&#45;Engine\l/Plugins/MeshFeatureTracking\l/src/MeshFeatureTrackingComponent.cpp">
<polygon fill="white" stroke="black" points="896.5,-156.5 896.5,-208.5 1109.5,-208.5 1109.5,-156.5 896.5,-156.5"/>
<text text-anchor="start" x="904.5" y="-196.5" font-family="Helvetica,sans-Serif" font-size="10.00">/home/travis/build</text>
<text text-anchor="start" x="904.5" y="-185.5" font-family="Helvetica,sans-Serif" font-size="10.00">/STORM&#45;IRIT/Radium&#45;Engine</text>
<text text-anchor="start" x="904.5" y="-174.5" font-family="Helvetica,sans-Serif" font-size="10.00">/Plugins/MeshFeatureTracking</text>
<text text-anchor="middle" x="1003" y="-163.5" font-family="Helvetica,sans-Serif" font-size="10.00">/src/MeshFeatureTrackingComponent.cpp</text>
</a>
</g>
</g>
<!-- Node3&#45;&gt;Node12 -->
<g id="edge12" class="edge"><title>Node3&#45;&gt;Node12</title>
<path fill="none" stroke="midnightblue" d="M1143.85,-241.576C1117.9,-230.876 1088.72,-218.846 1063.68,-208.521"/>
<polygon fill="midnightblue" stroke="midnightblue" points="1142.67,-244.876 1153.25,-245.453 1145.34,-238.405 1142.67,-244.876"/>
</g>
<!-- Node13 -->
<g id="node13" class="node"><title>Node13</title>
<g id="a_node13"><a xlink:href="SkinningDisplayComponent_8hpp.html" target="_top" xlink:title="/home/travis/build\l/STORM&#45;IRIT/Radium&#45;Engine\l/Plugins/Skinning/src/Display\l/SkinningDisplayComponent.hpp">
<polygon fill="white" stroke="black" points="1128,-156.5 1128,-208.5 1300,-208.5 1300,-156.5 1128,-156.5"/>
<text text-anchor="start" x="1136" y="-196.5" font-family="Helvetica,sans-Serif" font-size="10.00">/home/travis/build</text>
<text text-anchor="start" x="1136" y="-185.5" font-family="Helvetica,sans-Serif" font-size="10.00">/STORM&#45;IRIT/Radium&#45;Engine</text>
<text text-anchor="start" x="1136" y="-174.5" font-family="Helvetica,sans-Serif" font-size="10.00">/Plugins/Skinning/src/Display</text>
<text text-anchor="middle" x="1214" y="-163.5" font-family="Helvetica,sans-Serif" font-size="10.00">/SkinningDisplayComponent.hpp</text>
</a>
</g>
</g>
<!-- Node3&#45;&gt;Node13 -->
<g id="edge13" class="edge"><title>Node3&#45;&gt;Node13</title>
<path fill="none" stroke="midnightblue" d="M1214,-235.191C1214,-226.282 1214,-216.899 1214,-208.607"/>
<polygon fill="midnightblue" stroke="midnightblue" points="1210.5,-235.336 1214,-245.336 1217.5,-235.336 1210.5,-235.336"/>
</g>
<!-- Node3&#45;&gt;Node16 -->
<g id="edge16" class="edge"><title>Node3&#45;&gt;Node16</title>
<path fill="none" stroke="midnightblue" d="M1302.22,-268.528C1466.95,-263.98 1832.19,-249.814 2137,-209 2149.06,-207.386 2161.69,-205.303 2174.11,-203.025"/>
<polygon fill="midnightblue" stroke="midnightblue" points="1302.05,-265.031 1292.14,-268.801 1302.24,-272.028 1302.05,-265.031"/>
</g>
<!-- Node14 -->
<g id="node14" class="node"><title>Node14</title>
<g id="a_node14"><a xlink:href="SkinningSystem_8hpp.html" target="_top" xlink:title="/home/travis/build\l/STORM&#45;IRIT/Radium&#45;Engine\l/Plugins/Skinning/src/SkinningSystem.hpp">
<polygon fill="white" stroke="black" points="1635.5,-78.5 1635.5,-119.5 1850.5,-119.5 1850.5,-78.5 1635.5,-78.5"/>
<text text-anchor="start" x="1643.5" y="-107.5" font-family="Helvetica,sans-Serif" font-size="10.00">/home/travis/build</text>
<text text-anchor="start" x="1643.5" y="-96.5" font-family="Helvetica,sans-Serif" font-size="10.00">/STORM&#45;IRIT/Radium&#45;Engine</text>
<text text-anchor="middle" x="1743" y="-85.5" font-family="Helvetica,sans-Serif" font-size="10.00">/Plugins/Skinning/src/SkinningSystem.hpp</text>
</a>
</g>
</g>
<!-- Node13&#45;&gt;Node14 -->
<g id="edge14" class="edge"><title>Node13&#45;&gt;Node14</title>
<path fill="none" stroke="midnightblue" d="M1310.24,-155.86C1426.51,-133.32 1549.62,-118.619 1635.34,-109.842"/>
<polygon fill="midnightblue" stroke="midnightblue" points="1309.23,-152.491 1300.1,-157.851 1310.58,-159.36 1309.23,-152.491"/>
</g>
<!-- Node15 -->
<g id="node15" class="node"><title>Node15</title>
<g id="a_node15"><a xlink:href="SkinningPlugin_8cpp.html" target="_top" xlink:title="/home/travis/build\l/STORM&#45;IRIT/Radium&#45;Engine\l/Plugins/Skinning/src/SkinningPlugin.cpp">
<polygon fill="white" stroke="black" points="1972,-0.5 1972,-41.5 2178,-41.5 2178,-0.5 1972,-0.5"/>
<text text-anchor="start" x="1980" y="-29.5" font-family="Helvetica,sans-Serif" font-size="10.00">/home/travis/build</text>
<text text-anchor="start" x="1980" y="-18.5" font-family="Helvetica,sans-Serif" font-size="10.00">/STORM&#45;IRIT/Radium&#45;Engine</text>
<text text-anchor="middle" x="2075" y="-7.5" font-family="Helvetica,sans-Serif" font-size="10.00">/Plugins/Skinning/src/SkinningPlugin.cpp</text>
</a>
</g>
</g>
<!-- Node14&#45;&gt;Node15 -->
<g id="edge15" class="edge"><title>Node14&#45;&gt;Node15</title>
<path fill="none" stroke="midnightblue" d="M1838.53,-76.131C1886.27,-65.2026 1943.56,-52.0886 1989.79,-41.5056"/>
<polygon fill="midnightblue" stroke="midnightblue" points="1837.47,-72.7848 1828.5,-78.4281 1839.03,-79.6083 1837.47,-72.7848"/>
</g>
<!-- Node22&#45;&gt;Node2 -->
<g id="edge23" class="edge"><title>Node22&#45;&gt;Node2</title>
<path fill="none" stroke="midnightblue" d="M2310.84,-251.323C2260.08,-239.725 2194.7,-224.268 2137,-209 2134.11,-208.235 2131.17,-207.443 2128.2,-206.632"/>
<polygon fill="midnightblue" stroke="midnightblue" points="2310.27,-254.782 2320.8,-253.59 2311.82,-247.957 2310.27,-254.782"/>
</g>
<!-- Node22&#45;&gt;Node15 -->
<g id="edge27" class="edge"><title>Node22&#45;&gt;Node15</title>
<path fill="none" stroke="midnightblue" d="M2403.53,-235.277C2406.05,-210.841 2405.18,-178.728 2389,-156 2340.37,-87.6738 2249.56,-53.9411 2178.07,-37.4345"/>
<polygon fill="midnightblue" stroke="midnightblue" points="2400.05,-234.87 2402.27,-245.23 2406.99,-235.747 2400.05,-234.87"/>
</g>
<!-- Node22&#45;&gt;Node16 -->
<g id="edge26" class="edge"><title>Node22&#45;&gt;Node16</title>
<path fill="none" stroke="midnightblue" d="M2349.78,-239.841C2330.96,-227.621 2309.85,-213.916 2293.16,-203.082"/>
<polygon fill="midnightblue" stroke="midnightblue" points="2347.95,-242.826 2358.24,-245.336 2351.76,-236.955 2347.95,-242.826"/>
</g>
<!-- Node22&#45;&gt;Node17 -->
<g id="edge24" class="edge"><title>Node22&#45;&gt;Node17</title>
<path fill="none" stroke="midnightblue" d="M2442.95,-239.511C2460.94,-227.374 2481.05,-213.818 2496.96,-203.082"/>
<polygon fill="midnightblue" stroke="midnightblue" points="2440.65,-236.843 2434.31,-245.336 2444.56,-242.646 2440.65,-236.843"/>
</g>
<!-- Node22&#45;&gt;Node21 -->
<g id="edge25" class="edge"><title>Node22&#45;&gt;Node21</title>
<path fill="none" stroke="midnightblue" d="M2482.96,-247.922C2525.73,-236.532 2578.18,-222.336 2625,-209 2627.82,-208.198 2630.68,-207.375 2633.57,-206.538"/>
<polygon fill="midnightblue" stroke="midnightblue" points="2481.91,-244.579 2473.15,-250.531 2483.71,-251.344 2481.91,-244.579"/>
</g>
</g>
</svg>
