<?xml version="1.0" encoding="UTF-8" standalone="no"?>
<!DOCTYPE svg PUBLIC "-//W3C//DTD SVG 1.1//EN"
 "http://www.w3.org/Graphics/SVG/1.1/DTD/svg11.dtd">
<!-- Generated by graphviz version 2.38.0 (20140413.2041)
 -->
<!-- Title: /home/travis/build/STORM&#45;IRIT/Radium&#45;Engine/src/Engine/Renderer/Texture/Texture.hpp Pages: 1 -->
<svg width="812pt" height="251pt"
 viewBox="0.00 0.00 812.00 251.00" xmlns="http://www.w3.org/2000/svg" xmlns:xlink="http://www.w3.org/1999/xlink">
<g id="graph0" class="graph" transform="scale(1 1) rotate(0) translate(4 247)">
<title>/home/travis/build/STORM&#45;IRIT/Radium&#45;Engine/src/Engine/Renderer/Texture/Texture.hpp</title>
<polygon fill="white" stroke="none" points="-4,4 -4,-247 808,-247 808,4 -4,4"/>
<!-- Node1 -->
<g id="node1" class="node"><title>Node1</title>
<polygon fill="#bfbfbf" stroke="black" points="299,-190.5 299,-242.5 451,-242.5 451,-190.5 299,-190.5"/>
<text text-anchor="start" x="307" y="-230.5" font-family="Helvetica,sans-Serif" font-size="10.00">/home/travis/build</text>
<text text-anchor="start" x="307" y="-219.5" font-family="Helvetica,sans-Serif" font-size="10.00">/STORM&#45;IRIT/Radium&#45;Engine</text>
<text text-anchor="start" x="307" y="-208.5" font-family="Helvetica,sans-Serif" font-size="10.00">/src/Engine/Renderer/Texture</text>
<text text-anchor="middle" x="375" y="-197.5" font-family="Helvetica,sans-Serif" font-size="10.00">/Texture.hpp</text>
</g>
<!-- Node2 -->
<g id="node2" class="node"><title>Node2</title>
<g id="a_node2"><a xlink:href="RaEngine_8hpp.html" target="_top" xlink:title="Engine/RaEngine.hpp">
<polygon fill="white" stroke="black" points="415.5,-129 415.5,-148 532.5,-148 532.5,-129 415.5,-129"/>
<text text-anchor="middle" x="474" y="-136" font-family="Helvetica,sans-Serif" font-size="10.00">Engine/RaEngine.hpp</text>
</a>
</g>
</g>
<!-- Node1&#45;&gt;Node2 -->
<g id="edge1" class="edge"><title>Node1&#45;&gt;Node2</title>
<path fill="none" stroke="midnightblue" d="M407.691,-190.404C423.214,-178.487 441.241,-164.649 454.576,-154.411"/>
<polygon fill="midnightblue" stroke="midnightblue" points="456.788,-157.126 462.589,-148.26 452.526,-151.573 456.788,-157.126"/>
</g>
<!-- Node9 -->
<g id="node9" class="node"><title>Node9</title>
<polygon fill="white" stroke="#bfbfbf" points="277.5,-129 277.5,-148 334.5,-148 334.5,-129 277.5,-129"/>
<text text-anchor="middle" x="306" y="-136" font-family="Helvetica,sans-Serif" font-size="10.00">memory</text>
</g>
<!-- Node1&#45;&gt;Node9 -->
<g id="edge8" class="edge"><title>Node1&#45;&gt;Node9</title>
<path fill="none" stroke="midnightblue" d="M352.024,-190.193C341.733,-178.858 329.897,-165.821 320.805,-155.806"/>
<polygon fill="midnightblue" stroke="midnightblue" points="323.22,-153.26 313.907,-148.209 318.037,-157.965 323.22,-153.26"/>
</g>
<!-- Node10 -->
<g id="node10" class="node"><title>Node10</title>
<polygon fill="white" stroke="#bfbfbf" points="353,-129 353,-148 397,-148 397,-129 353,-129"/>
<text text-anchor="middle" x="375" y="-136" font-family="Helvetica,sans-Serif" font-size="10.00">string</text>
</g>
<!-- Node1&#45;&gt;Node10 -->
<g id="edge9" class="edge"><title>Node1&#45;&gt;Node10</title>
<path fill="none" stroke="midnightblue" d="M375,-190.193C375,-179.765 375,-167.896 375,-158.266"/>
<polygon fill="midnightblue" stroke="midnightblue" points="378.5,-158.209 375,-148.209 371.5,-158.209 378.5,-158.209"/>
</g>
<!-- Node11 -->
<g id="node11" class="node"><title>Node11</title>
<g id="a_node11"><a xlink:href="OpenGL_8hpp.html" target="_top" xlink:title="Engine/Renderer/OpenGL\l/OpenGL.hpp">
<polygon fill="white" stroke="black" points="123,-123.5 123,-153.5 259,-153.5 259,-123.5 123,-123.5"/>
<text text-anchor="start" x="131" y="-141.5" font-family="Helvetica,sans-Serif" font-size="10.00">Engine/Renderer/OpenGL</text>
<text text-anchor="middle" x="191" y="-130.5" font-family="Helvetica,sans-Serif" font-size="10.00">/OpenGL.hpp</text>
</a>
</g>
</g>
<!-- Node1&#45;&gt;Node11 -->
<g id="edge10" class="edge"><title>Node1&#45;&gt;Node11</title>
<path fill="none" stroke="midnightblue" d="M314.242,-190.404C288.205,-179.65 258.38,-167.331 234.593,-157.506"/>
<polygon fill="midnightblue" stroke="midnightblue" points="235.709,-154.18 225.13,-153.597 233.036,-160.65 235.709,-154.18"/>
</g>
<!-- Node15 -->
<g id="node15" class="node"><title>Node15</title>
<g id="a_node15"><a xlink:href="Color_8hpp.html" target="_top" xlink:title="Core/Utils/Color.hpp">
<polygon fill="white" stroke="black" points="550.5,-129 550.5,-148 661.5,-148 661.5,-129 550.5,-129"/>
<text text-anchor="middle" x="606" y="-136" font-family="Helvetica,sans-Serif" font-size="10.00">Core/Utils/Color.hpp</text>
</a>
</g>
</g>
<!-- Node1&#45;&gt;Node15 -->
<g id="edge14" class="edge"><title>Node1&#45;&gt;Node15</title>
<path fill="none" stroke="midnightblue" d="M451.278,-190.404C491.359,-177.217 538.591,-161.678 570.231,-151.268"/>
<polygon fill="midnightblue" stroke="midnightblue" points="571.522,-154.528 579.928,-148.078 569.335,-147.879 571.522,-154.528"/>
</g>
<!-- Node3 -->
<g id="node3" class="node"><title>Node3</title>
<g id="a_node3"><a xlink:href="CoreMacros_8hpp.html" target="_top" xlink:title="Core/CoreMacros.hpp">
<polygon fill="white" stroke="black" points="414,-62 414,-81 534,-81 534,-62 414,-62"/>
<text text-anchor="middle" x="474" y="-69" font-family="Helvetica,sans-Serif" font-size="10.00">Core/CoreMacros.hpp</text>
</a>
</g>
</g>
<!-- Node2&#45;&gt;Node3 -->
<g id="edge2" class="edge"><title>Node2&#45;&gt;Node3</title>
<path fill="none" stroke="midnightblue" d="M474,-128.734C474,-119.183 474,-103.618 474,-91.2829"/>
<polygon fill="midnightblue" stroke="midnightblue" points="477.5,-91.1273 474,-81.1273 470.5,-91.1273 477.5,-91.1273"/>
</g>
<!-- Node4 -->
<g id="node4" class="node"><title>Node4</title>
<polygon fill="white" stroke="#bfbfbf" points="311,-0.5 311,-19.5 363,-19.5 363,-0.5 311,-0.5"/>
<text text-anchor="middle" x="337" y="-7.5" font-family="Helvetica,sans-Serif" font-size="10.00">cassert</text>
</g>
<!-- Node3&#45;&gt;Node4 -->
<g id="edge3" class="edge"><title>Node3&#45;&gt;Node4</title>
<path fill="none" stroke="midnightblue" d="M454.371,-61.9751C431.176,-51.9013 392.381,-35.0525 365.787,-23.5023"/>
<polygon fill="midnightblue" stroke="midnightblue" points="367.159,-20.2824 356.592,-19.5091 364.37,-26.703 367.159,-20.2824"/>
</g>
<!-- Node5 -->
<g id="node5" class="node"><title>Node5</title>
<polygon fill="white" stroke="#bfbfbf" points="381.5,-0.5 381.5,-19.5 426.5,-19.5 426.5,-0.5 381.5,-0.5"/>
<text text-anchor="middle" x="404" y="-7.5" font-family="Helvetica,sans-Serif" font-size="10.00">cstdio</text>
</g>
<!-- Node3&#45;&gt;Node5 -->
<g id="edge4" class="edge"><title>Node3&#45;&gt;Node5</title>
<path fill="none" stroke="midnightblue" d="M463.971,-61.9751C452.951,-52.6082 435.04,-37.3839 421.657,-26.0081"/>
<polygon fill="midnightblue" stroke="midnightblue" points="423.897,-23.3188 414.011,-19.5091 419.363,-28.6524 423.897,-23.3188"/>
</g>
<!-- Node6 -->
<g id="node6" class="node"><title>Node6</title>
<polygon fill="white" stroke="#bfbfbf" points="444.5,-0.5 444.5,-19.5 503.5,-19.5 503.5,-0.5 444.5,-0.5"/>
<text text-anchor="middle" x="474" y="-7.5" font-family="Helvetica,sans-Serif" font-size="10.00">iostream</text>
</g>
<!-- Node3&#45;&gt;Node6 -->
<g id="edge5" class="edge"><title>Node3&#45;&gt;Node6</title>
<path fill="none" stroke="midnightblue" d="M474,-61.9751C474,-53.5803 474,-40.4806 474,-29.6631"/>
<polygon fill="midnightblue" stroke="midnightblue" points="477.5,-29.5091 474,-19.5091 470.5,-29.5091 477.5,-29.5091"/>
</g>
<!-- Node7 -->
<g id="node7" class="node"><title>Node7</title>
<polygon fill="white" stroke="#bfbfbf" points="522,-0.5 522,-19.5 578,-19.5 578,-0.5 522,-0.5"/>
<text text-anchor="middle" x="550" y="-7.5" font-family="Helvetica,sans-Serif" font-size="10.00">sstream</text>
</g>
<!-- Node3&#45;&gt;Node7 -->
<g id="edge6" class="edge"><title>Node3&#45;&gt;Node7</title>
<path fill="none" stroke="midnightblue" d="M484.889,-61.9751C496.966,-52.5199 516.667,-37.0961 531.24,-25.6871"/>
<polygon fill="midnightblue" stroke="midnightblue" points="533.415,-28.4295 539.131,-19.5091 529.1,-22.9177 533.415,-28.4295"/>
</g>
<!-- Node8 -->
<g id="node8" class="node"><title>Node8</title>
<polygon fill="white" stroke="#bfbfbf" points="596,-0.5 596,-19.5 644,-19.5 644,-0.5 596,-0.5"/>
<text text-anchor="middle" x="620" y="-7.5" font-family="Helvetica,sans-Serif" font-size="10.00">thread</text>
</g>
<!-- Node3&#45;&gt;Node8 -->
<g id="edge7" class="edge"><title>Node3&#45;&gt;Node8</title>
<path fill="none" stroke="midnightblue" d="M494.918,-61.9751C519.746,-51.8571 561.343,-34.9046 589.694,-23.3507"/>
<polygon fill="midnightblue" stroke="midnightblue" points="591.181,-26.5243 599.121,-19.5091 588.539,-20.0419 591.181,-26.5243"/>
</g>
<!-- Node12 -->
<g id="node12" class="node"><title>Node12</title>
<polygon fill="white" stroke="#bfbfbf" points="264,-62 264,-81 388,-81 388,-62 264,-62"/>
<text text-anchor="middle" x="326" y="-69" font-family="Helvetica,sans-Serif" font-size="10.00">glbinding/gl45core/gl.h</text>
</g>
<!-- Node11&#45;&gt;Node12 -->
<g id="edge11" class="edge"><title>Node11&#45;&gt;Node12</title>
<path fill="none" stroke="midnightblue" d="M220.293,-123.396C243.771,-112.092 276.443,-96.3607 299.228,-85.3903"/>
<polygon fill="midnightblue" stroke="midnightblue" points="300.84,-88.4987 308.332,-81.007 297.803,-82.1917 300.84,-88.4987"/>
</g>
<!-- Node13 -->
<g id="node13" class="node"><title>Node13</title>
<polygon fill="white" stroke="#bfbfbf" points="0,-62 0,-81 118,-81 118,-62 0,-62"/>
<text text-anchor="middle" x="59" y="-69" font-family="Helvetica,sans-Serif" font-size="10.00">glbinding/gl45ext/gl.h</text>
</g>
<!-- Node11&#45;&gt;Node13 -->
<g id="edge12" class="edge"><title>Node11&#45;&gt;Node13</title>
<path fill="none" stroke="midnightblue" d="M162.358,-123.396C139.505,-112.142 107.741,-96.501 85.4762,-85.5375"/>
<polygon fill="midnightblue" stroke="midnightblue" points="86.7933,-82.2848 76.2758,-81.007 83.7009,-88.5647 86.7933,-82.2848"/>
</g>
<!-- Node14 -->
<g id="node14" class="node"><title>Node14</title>
<polygon fill="white" stroke="#bfbfbf" points="136,-56.5 136,-86.5 246,-86.5 246,-56.5 136,-56.5"/>
<text text-anchor="start" x="144" y="-74.5" font-family="Helvetica,sans-Serif" font-size="10.00">glbinding&#45;aux/types</text>
<text text-anchor="middle" x="191" y="-63.5" font-family="Helvetica,sans-Serif" font-size="10.00">_to_string.h</text>
</g>
<!-- Node11&#45;&gt;Node14 -->
<g id="edge13" class="edge"><title>Node11&#45;&gt;Node14</title>
<path fill="none" stroke="midnightblue" d="M191,-123.396C191,-115.645 191,-105.812 191,-96.8601"/>
<polygon fill="midnightblue" stroke="midnightblue" points="194.5,-96.5765 191,-86.5765 187.5,-96.5765 194.5,-96.5765"/>
</g>
<!-- Node15&#45;&gt;Node3 -->
<g id="edge15" class="edge"><title>Node15&#45;&gt;Node3</title>
<path fill="none" stroke="midnightblue" d="M588.471,-128.869C565.986,-117.796 526.772,-98.4862 500.599,-85.5978"/>
<polygon fill="midnightblue" stroke="midnightblue" points="502.119,-82.445 491.601,-81.1672 499.026,-88.7249 502.119,-82.445"/>
</g>
<!-- Node16 -->
<g id="node16" class="node"><title>Node16</title>
<polygon fill="white" stroke="#bfbfbf" points="736,-62 736,-81 804,-81 804,-62 736,-62"/>
<text text-anchor="middle" x="770" y="-69" font-family="Helvetica,sans-Serif" font-size="10.00">Eigen/Core</text>
</g>
<!-- Node15&#45;&gt;Node16 -->
<g id="edge16" class="edge"><title>Node15&#45;&gt;Node16</title>
<path fill="none" stroke="midnightblue" d="M627.778,-128.869C656.283,-117.571 706.428,-97.6961 738.92,-84.8183"/>
<polygon fill="midnightblue" stroke="midnightblue" points="740.386,-88.0021 748.393,-81.0637 737.807,-81.4945 740.386,-88.0021"/>
</g>
<!-- Node17 -->
<g id="node17" class="node"><title>Node17</title>
<polygon fill="white" stroke="#bfbfbf" points="552,-62 552,-81 646,-81 646,-62 552,-62"/>
<text text-anchor="middle" x="599" y="-69" font-family="Helvetica,sans-Serif" font-size="10.00">Eigen/Geometry</text>
</g>
<!-- Node15&#45;&gt;Node17 -->
<g id="edge17" class="edge"><title>Node15&#45;&gt;Node17</title>
<path fill="none" stroke="midnightblue" d="M605.056,-128.734C604.027,-119.183 602.351,-103.618 601.023,-91.2829"/>
<polygon fill="midnightblue" stroke="midnightblue" points="604.48,-90.695 599.929,-81.1273 597.52,-91.4446 604.48,-90.695"/>
</g>
<!-- Node18 -->
<g id="node18" class="node"><title>Node18</title>
<polygon fill="white" stroke="#bfbfbf" points="664,-62 664,-81 718,-81 718,-62 664,-62"/>
<text text-anchor="middle" x="691" y="-69" font-family="Helvetica,sans-Serif" font-size="10.00">random</text>
</g>
<!-- Node15&#45;&gt;Node18 -->
<g id="edge18" class="edge"><title>Node15&#45;&gt;Node18</title>
<path fill="none" stroke="midnightblue" d="M617.463,-128.734C631.355,-118.111 654.975,-100.049 671.693,-87.2642"/>
<polygon fill="midnightblue" stroke="midnightblue" points="673.901,-89.9821 679.718,-81.1273 669.648,-84.4216 673.901,-89.9821"/>
</g>
</g>
</svg>
