<?xml version="1.0" encoding="UTF-8" standalone="no"?>
<!DOCTYPE svg PUBLIC "-//W3C//DTD SVG 1.1//EN"
 "http://www.w3.org/Graphics/SVG/1.1/DTD/svg11.dtd">
<!-- Generated by graphviz version 2.38.0 (20140413.2041)
 -->
<!-- Title: /home/travis/build/STORM&#45;IRIT/Radium&#45;Engine/src/Core/Geometry/TopologicalMesh.cpp Pages: 1 -->
<svg width="1846pt" height="531pt"
 viewBox="0.00 0.00 1846.00 531.00" xmlns="http://www.w3.org/2000/svg" xmlns:xlink="http://www.w3.org/1999/xlink">
<g id="graph0" class="graph" transform="scale(1 1) rotate(0) translate(4 527)">
<title>/home/travis/build/STORM&#45;IRIT/Radium&#45;Engine/src/Core/Geometry/TopologicalMesh.cpp</title>
<polygon fill="white" stroke="none" points="-4,4 -4,-527 1842,-527 1842,4 -4,4"/>
<!-- Node1 -->
<g id="node1" class="node"><title>Node1</title>
<polygon fill="#bfbfbf" stroke="black" points="1513.5,-481.5 1513.5,-522.5 1724.5,-522.5 1724.5,-481.5 1513.5,-481.5"/>
<text text-anchor="start" x="1521.5" y="-510.5" font-family="Helvetica,sans-Serif" font-size="10.00">/home/travis/build</text>
<text text-anchor="start" x="1521.5" y="-499.5" font-family="Helvetica,sans-Serif" font-size="10.00">/STORM&#45;IRIT/Radium&#45;Engine</text>
<text text-anchor="middle" x="1619" y="-488.5" font-family="Helvetica,sans-Serif" font-size="10.00">/src/Core/Geometry/TopologicalMesh.cpp</text>
</g>
<!-- Node2 -->
<g id="node2" class="node"><title>Node2</title>
<g id="a_node2"><a xlink:href="TopologicalMesh_8hpp.html" target="_top" xlink:title="Core/Geometry/Topological\lMesh.hpp">
<polygon fill="white" stroke="black" points="877.5,-414.5 877.5,-444.5 1022.5,-444.5 1022.5,-414.5 877.5,-414.5"/>
<text text-anchor="start" x="885.5" y="-432.5" font-family="Helvetica,sans-Serif" font-size="10.00">Core/Geometry/Topological</text>
<text text-anchor="middle" x="950" y="-421.5" font-family="Helvetica,sans-Serif" font-size="10.00">Mesh.hpp</text>
</a>
</g>
</g>
<!-- Node1&#45;&gt;Node2 -->
<g id="edge1" class="edge"><title>Node1&#45;&gt;Node2</title>
<path fill="none" stroke="midnightblue" d="M1513.36,-489.868C1380.14,-475.828 1153.86,-451.983 1032.58,-439.202"/>
<polygon fill="midnightblue" stroke="midnightblue" points="1032.92,-435.719 1022.61,-438.151 1032.18,-442.68 1032.92,-435.719"/>
</g>
<!-- Node4 -->
<g id="node4" class="node"><title>Node4</title>
<g id="a_node4"><a xlink:href="RaCore_8hpp.html" target="_top" xlink:title="Core/RaCore.hpp">
<polygon fill="white" stroke="black" points="975,-112.5 975,-131.5 1073,-131.5 1073,-112.5 975,-112.5"/>
<text text-anchor="middle" x="1024" y="-119.5" font-family="Helvetica,sans-Serif" font-size="10.00">Core/RaCore.hpp</text>
</a>
</g>
</g>
<!-- Node1&#45;&gt;Node4 -->
<g id="edge58" class="edge"><title>Node1&#45;&gt;Node4</title>
<path fill="none" stroke="midnightblue" d="M1513.32,-497.943C1336.11,-492.011 986.756,-476.642 868,-445 801.345,-427.24 770.079,-432.66 728,-378 670.324,-303.08 631.824,-239.23 694,-168 696.216,-165.462 870.264,-142.749 964.663,-130.596"/>
<polygon fill="midnightblue" stroke="midnightblue" points="965.181,-134.059 974.652,-129.312 964.287,-127.116 965.181,-134.059"/>
</g>
<!-- Node20 -->
<g id="node20" class="node"><title>Node20</title>
<polygon fill="white" stroke="#bfbfbf" points="1492.5,-112.5 1492.5,-131.5 1585.5,-131.5 1585.5,-112.5 1492.5,-112.5"/>
<text text-anchor="middle" x="1539" y="-119.5" font-family="Helvetica,sans-Serif" font-size="10.00">Eigen/StdVector</text>
</g>
<!-- Node1&#45;&gt;Node20 -->
<g id="edge65" class="edge"><title>Node1&#45;&gt;Node20</title>
<path fill="none" stroke="midnightblue" d="M1628.01,-481.431C1639.24,-455.181 1657,-406.841 1657,-363.5 1657,-363.5 1657,-363.5 1657,-244 1657,-208.578 1656.23,-194.745 1633,-168 1619.69,-152.67 1599.98,-142.133 1582.05,-135.133"/>
<polygon fill="midnightblue" stroke="midnightblue" points="1582.91,-131.723 1572.32,-131.599 1580.52,-138.303 1582.91,-131.723"/>
</g>
<!-- Node21 -->
<g id="node21" class="node"><title>Node21</title>
<polygon fill="white" stroke="#bfbfbf" points="1309.5,-112.5 1309.5,-131.5 1356.5,-131.5 1356.5,-112.5 1309.5,-112.5"/>
<text text-anchor="middle" x="1333" y="-119.5" font-family="Helvetica,sans-Serif" font-size="10.00">vector</text>
</g>
<!-- Node1&#45;&gt;Node21 -->
<g id="edge68" class="edge"><title>Node1&#45;&gt;Node21</title>
<path fill="none" stroke="midnightblue" d="M1619,-481.418C1619,-454.749 1619,-405.514 1619,-363.5 1619,-363.5 1619,-363.5 1619,-244 1619,-209.183 1625.56,-191.641 1600,-168 1566.57,-137.085 1430.85,-127.19 1366.79,-124.205"/>
<polygon fill="midnightblue" stroke="midnightblue" points="1366.93,-120.708 1356.78,-123.768 1366.62,-127.701 1366.93,-120.708"/>
</g>
<!-- Node33 -->
<g id="node33" class="node"><title>Node33</title>
<g id="a_node33"><a xlink:href="Log_8hpp.html" target="_top" xlink:title="Core/Utils/Log.hpp">
<polygon fill="white" stroke="black" points="83,-174 83,-193 187,-193 187,-174 83,-174"/>
<text text-anchor="middle" x="135" y="-181" font-family="Helvetica,sans-Serif" font-size="10.00">Core/Utils/Log.hpp</text>
</a>
</g>
</g>
<!-- Node1&#45;&gt;Node33 -->
<g id="edge59" class="edge"><title>Node1&#45;&gt;Node33</title>
<path fill="none" stroke="midnightblue" d="M1513.3,-500.538C1224.91,-498.699 438.766,-489.606 331,-445 281.443,-424.487 242,-417.135 242,-363.5 242,-363.5 242,-363.5 242,-300 242,-252.731 193.175,-216.619 161.488,-198.16"/>
<polygon fill="midnightblue" stroke="midnightblue" points="163.103,-195.054 152.669,-193.216 159.68,-201.16 163.103,-195.054"/>
</g>
<!-- Node37 -->
<g id="node37" class="node"><title>Node37</title>
<polygon fill="white" stroke="#bfbfbf" points="1685.5,-420 1685.5,-439 1778.5,-439 1778.5,-420 1685.5,-420"/>
<text text-anchor="middle" x="1732" y="-427" font-family="Helvetica,sans-Serif" font-size="10.00">unordered_map</text>
</g>
<!-- Node1&#45;&gt;Node37 -->
<g id="edge66" class="edge"><title>Node1&#45;&gt;Node37</title>
<path fill="none" stroke="midnightblue" d="M1650.48,-481.362C1669.21,-469.674 1692.54,-455.116 1709.44,-444.573"/>
<polygon fill="midnightblue" stroke="midnightblue" points="1711.47,-447.436 1718.1,-439.173 1707.76,-441.497 1711.47,-447.436"/>
</g>
<!-- Node38 -->
<g id="node38" class="node"><title>Node38</title>
<polygon fill="white" stroke="#bfbfbf" points="1796,-420 1796,-439 1838,-439 1838,-420 1796,-420"/>
<text text-anchor="middle" x="1817" y="-427" font-family="Helvetica,sans-Serif" font-size="10.00">utility</text>
</g>
<!-- Node1&#45;&gt;Node38 -->
<g id="edge67" class="edge"><title>Node1&#45;&gt;Node38</title>
<path fill="none" stroke="midnightblue" d="M1685.21,-481.486C1716.73,-471.583 1754.72,-458.751 1788,-445 1789.2,-444.504 1790.42,-443.98 1791.64,-443.437"/>
<polygon fill="midnightblue" stroke="midnightblue" points="1793.39,-446.484 1800.93,-439.047 1790.4,-440.156 1793.39,-446.484"/>
</g>
<!-- Node3 -->
<g id="node3" class="node"><title>Node3</title>
<g id="a_node3"><a xlink:href="OpenMesh_8h.html" target="_top" xlink:title="Core/Geometry/OpenMesh.h">
<polygon fill="white" stroke="black" points="487.5,-235.5 487.5,-254.5 640.5,-254.5 640.5,-235.5 487.5,-235.5"/>
<text text-anchor="middle" x="564" y="-242.5" font-family="Helvetica,sans-Serif" font-size="10.00">Core/Geometry/OpenMesh.h</text>
</a>
</g>
</g>
<!-- Node2&#45;&gt;Node3 -->
<g id="edge2" class="edge"><title>Node2&#45;&gt;Node3</title>
<path fill="none" stroke="midnightblue" d="M877.422,-425.738C823.692,-421.049 750.205,-408.915 693,-378 640.32,-349.531 595.811,-292.287 575.614,-263.448"/>
<polygon fill="midnightblue" stroke="midnightblue" points="578.258,-261.114 569.721,-254.84 572.482,-265.068 578.258,-261.114"/>
</g>
<!-- Node2&#45;&gt;Node4 -->
<g id="edge47" class="edge"><title>Node2&#45;&gt;Node4</title>
<path fill="none" stroke="midnightblue" d="M1022.94,-425.867C1147.7,-420.607 1391.19,-406.749 1417,-378 1426.2,-367.747 1426.17,-357.281 1417,-347 1370.09,-294.428 1156.49,-355.667 1102,-311 1050.37,-268.674 1085.92,-227.684 1056,-168 1051.02,-158.056 1043.98,-147.882 1037.77,-139.729"/>
<polygon fill="midnightblue" stroke="midnightblue" points="1040.44,-137.462 1031.49,-131.782 1034.94,-141.8 1040.44,-137.462"/>
</g>
<!-- Node11 -->
<g id="node11" class="node"><title>Node11</title>
<polygon fill="white" stroke="#bfbfbf" points="237,-112.5 237,-131.5 305,-131.5 305,-112.5 237,-112.5"/>
<text text-anchor="middle" x="271" y="-119.5" font-family="Helvetica,sans-Serif" font-size="10.00">Eigen/Core</text>
</g>
<!-- Node2&#45;&gt;Node11 -->
<g id="edge54" class="edge"><title>Node2&#45;&gt;Node11</title>
<path fill="none" stroke="midnightblue" d="M877.425,-426.676C758.479,-422.766 527.871,-411.058 454,-378 346.318,-329.812 305.603,-306.942 258,-199 249.759,-180.312 255.959,-156.904 262.314,-141.04"/>
<polygon fill="midnightblue" stroke="midnightblue" points="265.542,-142.393 266.362,-131.83 259.134,-139.576 265.542,-142.393"/>
</g>
<!-- Node12 -->
<g id="node12" class="node"><title>Node12</title>
<polygon fill="white" stroke="#bfbfbf" points="495,-112.5 495,-131.5 589,-131.5 589,-112.5 495,-112.5"/>
<text text-anchor="middle" x="542" y="-119.5" font-family="Helvetica,sans-Serif" font-size="10.00">Eigen/Geometry</text>
</g>
<!-- Node2&#45;&gt;Node12 -->
<g id="edge55" class="edge"><title>Node2&#45;&gt;Node12</title>
<path fill="none" stroke="midnightblue" d="M877.277,-426.199C732.278,-419.626 421,-394.718 421,-302 421,-302 421,-302 421,-244 421,-209.183 417.566,-194.627 440,-168 453.434,-152.055 473.623,-141.561 492.503,-134.754"/>
<polygon fill="midnightblue" stroke="midnightblue" points="493.832,-138.001 502.214,-131.521 491.621,-131.359 493.832,-138.001"/>
</g>
<!-- Node13 -->
<g id="node13" class="node"><title>Node13</title>
<g id="a_node13"><a xlink:href="Types_8hpp.html" target="_top" xlink:title="Core/Types.hpp">
<polygon fill="white" stroke="black" points="855.5,-174 855.5,-193 944.5,-193 944.5,-174 855.5,-174"/>
<text text-anchor="middle" x="900" y="-181" font-family="Helvetica,sans-Serif" font-size="10.00">Core/Types.hpp</text>
</a>
</g>
</g>
<!-- Node2&#45;&gt;Node13 -->
<g id="edge48" class="edge"><title>Node2&#45;&gt;Node13</title>
<path fill="none" stroke="midnightblue" d="M877.313,-417.983C831.363,-409.678 778.075,-396.407 764,-378 739.326,-345.734 740.788,-297.151 792,-235 802.008,-222.854 838.236,-207.318 866.001,-196.706"/>
<polygon fill="midnightblue" stroke="midnightblue" points="867.281,-199.964 875.412,-193.171 864.82,-193.411 867.281,-199.964"/>
</g>
<!-- Node15 -->
<g id="node15" class="node"><title>Node15</title>
<polygon fill="white" stroke="#bfbfbf" points="449,-168.5 449,-198.5 571,-198.5 571,-168.5 449,-168.5"/>
<text text-anchor="start" x="457" y="-186.5" font-family="Helvetica,sans-Serif" font-size="10.00">OpenMesh/Core/Mesh</text>
<text text-anchor="middle" x="510" y="-175.5" font-family="Helvetica,sans-Serif" font-size="10.00">/Traits.hh</text>
</g>
<!-- Node2&#45;&gt;Node15 -->
<g id="edge51" class="edge"><title>Node2&#45;&gt;Node15</title>
<path fill="none" stroke="midnightblue" d="M877.26,-425.655C814.428,-421.049 722.302,-409.066 648,-378 561.959,-342.026 520.42,-338.052 478,-255 469.899,-239.139 478.756,-220.811 489.187,-206.818"/>
<polygon fill="midnightblue" stroke="midnightblue" points="492.168,-208.699 495.748,-198.727 486.731,-204.29 492.168,-208.699"/>
</g>
<!-- Node16 -->
<g id="node16" class="node"><title>Node16</title>
<polygon fill="white" stroke="#bfbfbf" points="703,-168.5 703,-198.5 837,-198.5 837,-168.5 703,-168.5"/>
<text text-anchor="start" x="711" y="-186.5" font-family="Helvetica,sans-Serif" font-size="10.00">OpenMesh/Core/Mesh</text>
<text text-anchor="middle" x="770" y="-175.5" font-family="Helvetica,sans-Serif" font-size="10.00">/TriMesh_ArrayKernelT.hh</text>
</g>
<!-- Node2&#45;&gt;Node16 -->
<g id="edge52" class="edge"><title>Node2&#45;&gt;Node16</title>
<path fill="none" stroke="midnightblue" d="M877.396,-420C825.584,-412.266 762.303,-398.831 746,-378 706.86,-327.99 737.974,-247.362 757.394,-207.848"/>
<polygon fill="midnightblue" stroke="midnightblue" points="760.617,-209.232 762.029,-198.732 754.377,-206.059 760.617,-209.232"/>
</g>
<!-- Node17 -->
<g id="node17" class="node"><title>Node17</title>
<g id="a_node17"><a xlink:href="TriangleMesh_8hpp.html" target="_top" xlink:title="Core/Geometry/TriangleMesh.hpp">
<polygon fill="white" stroke="black" points="773,-353 773,-372 949,-372 949,-353 773,-353"/>
<text text-anchor="middle" x="861" y="-360" font-family="Helvetica,sans-Serif" font-size="10.00">Core/Geometry/TriangleMesh.hpp</text>
</a>
</g>
</g>
<!-- Node2&#45;&gt;Node17 -->
<g id="edge19" class="edge"><title>Node2&#45;&gt;Node17</title>
<path fill="none" stroke="midnightblue" d="M930.688,-414.396C916.04,-403.697 895.961,-389.033 881.118,-378.193"/>
<polygon fill="midnightblue" stroke="midnightblue" points="882.788,-375.078 872.648,-372.007 878.659,-380.731 882.788,-375.078"/>
</g>
<!-- Node24 -->
<g id="node24" class="node"><title>Node24</title>
<g id="a_node24"><a xlink:href="Index_8hpp.html" target="_top" xlink:title="Core/Utils/Index.hpp">
<polygon fill="white" stroke="black" points="1418.5,-235.5 1418.5,-254.5 1531.5,-254.5 1531.5,-235.5 1418.5,-235.5"/>
<text text-anchor="middle" x="1475" y="-242.5" font-family="Helvetica,sans-Serif" font-size="10.00">Core/Utils/Index.hpp</text>
</a>
</g>
</g>
<!-- Node2&#45;&gt;Node24 -->
<g id="edge49" class="edge"><title>Node2&#45;&gt;Node24</title>
<path fill="none" stroke="midnightblue" d="M1022.5,-425.948C1153.77,-420.641 1420.17,-406.47 1451,-378 1482.42,-348.981 1481.11,-293.678 1477.86,-264.727"/>
<polygon fill="midnightblue" stroke="midnightblue" points="1481.32,-264.169 1476.54,-254.715 1474.38,-265.087 1481.32,-264.169"/>
</g>
<!-- Node30 -->
<g id="node30" class="node"><title>Node30</title>
<polygon fill="white" stroke="#bfbfbf" points="967.5,-347.5 967.5,-377.5 1110.5,-377.5 1110.5,-347.5 967.5,-347.5"/>
<text text-anchor="start" x="975.5" y="-365.5" font-family="Helvetica,sans-Serif" font-size="10.00">OpenMesh/Core/Mesh</text>
<text text-anchor="middle" x="1039" y="-354.5" font-family="Helvetica,sans-Serif" font-size="10.00">/PolyMesh_ArrayKernelT.hh</text>
</g>
<!-- Node2&#45;&gt;Node30 -->
<g id="edge50" class="edge"><title>Node2&#45;&gt;Node30</title>
<path fill="none" stroke="midnightblue" d="M969.312,-414.396C981.674,-405.367 997.904,-393.514 1011.59,-383.518"/>
<polygon fill="midnightblue" stroke="midnightblue" points="1013.71,-386.301 1019.73,-377.577 1009.59,-380.648 1013.71,-386.301"/>
</g>
<!-- Node31 -->
<g id="node31" class="node"><title>Node31</title>
<polygon fill="white" stroke="#bfbfbf" points="1128.5,-347.5 1128.5,-377.5 1245.5,-377.5 1245.5,-347.5 1128.5,-347.5"/>
<text text-anchor="start" x="1136.5" y="-365.5" font-family="Helvetica,sans-Serif" font-size="10.00">OpenMesh/Core/Utils</text>
<text text-anchor="middle" x="1187" y="-354.5" font-family="Helvetica,sans-Serif" font-size="10.00">/Property.hh</text>
</g>
<!-- Node2&#45;&gt;Node31 -->
<g id="edge53" class="edge"><title>Node2&#45;&gt;Node31</title>
<path fill="none" stroke="midnightblue" d="M1001.13,-414.476C1037.61,-404.472 1086.84,-390.971 1125.46,-380.377"/>
<polygon fill="midnightblue" stroke="midnightblue" points="1126.83,-383.631 1135.55,-377.611 1124.98,-376.881 1126.83,-383.631"/>
</g>
<!-- Node32 -->
<g id="node32" class="node"><title>Node32</title>
<g id="a_node32"><a xlink:href="TopologicalMesh_8inl.html" target="_top" xlink:title="Core/Geometry/Topological\lMesh.inl">
<polygon fill="white" stroke="black" points="1263.5,-347.5 1263.5,-377.5 1408.5,-377.5 1408.5,-347.5 1263.5,-347.5"/>
<text text-anchor="start" x="1271.5" y="-365.5" font-family="Helvetica,sans-Serif" font-size="10.00">Core/Geometry/Topological</text>
<text text-anchor="middle" x="1336" y="-354.5" font-family="Helvetica,sans-Serif" font-size="10.00">Mesh.inl</text>
</a>
</g>
</g>
<!-- Node2&#45;&gt;Node32 -->
<g id="edge56" class="edge"><title>Node2&#45;&gt;Node32</title>
<path fill="none" stroke="midnightblue" d="M1022.65,-415.436C1082.37,-405.371 1169.07,-391.02 1245,-378 1247.81,-377.519 1250.66,-377.026 1253.56,-376.526"/>
<polygon fill="midnightblue" stroke="midnightblue" points="1254.23,-379.962 1263.48,-374.806 1253.03,-373.065 1254.23,-379.962"/>
</g>
<!-- Node3&#45;&gt;Node4 -->
<g id="edge3" class="edge"><title>Node3&#45;&gt;Node4</title>
<path fill="none" stroke="midnightblue" d="M572.045,-235.081C587.473,-218.634 623.071,-183.767 661,-168 664.481,-166.553 862.7,-142.472 964.713,-130.147"/>
<polygon fill="midnightblue" stroke="midnightblue" points="965.363,-133.594 974.871,-128.92 964.524,-126.644 965.363,-133.594"/>
</g>
<!-- Node3&#45;&gt;Node11 -->
<g id="edge10" class="edge"><title>Node3&#45;&gt;Node11</title>
<path fill="none" stroke="midnightblue" d="M487.248,-242.99C410.305,-240.168 299.424,-230.551 272,-199 258.508,-183.477 261.074,-158.685 265.146,-141.664"/>
<polygon fill="midnightblue" stroke="midnightblue" points="268.588,-142.348 267.886,-131.777 261.842,-140.479 268.588,-142.348"/>
</g>
<!-- Node3&#45;&gt;Node12 -->
<g id="edge11" class="edge"><title>Node3&#45;&gt;Node12</title>
<path fill="none" stroke="midnightblue" d="M568.867,-235.344C576.265,-221.001 588.615,-191.554 580,-168 575.943,-156.908 567.812,-146.665 560.109,-138.763"/>
<polygon fill="midnightblue" stroke="midnightblue" points="562.362,-136.075 552.714,-131.695 557.525,-141.135 562.362,-136.075"/>
</g>
<!-- Node3&#45;&gt;Node13 -->
<g id="edge12" class="edge"><title>Node3&#45;&gt;Node13</title>
<path fill="none" stroke="midnightblue" d="M629.886,-235.464C687.267,-227.56 772.544,-214.678 846,-199 850.735,-197.989 855.674,-196.822 860.559,-195.598"/>
<polygon fill="midnightblue" stroke="midnightblue" points="861.626,-198.937 870.426,-193.036 859.867,-192.162 861.626,-198.937"/>
</g>
<!-- Node3&#45;&gt;Node15 -->
<g id="edge17" class="edge"><title>Node3&#45;&gt;Node15</title>
<path fill="none" stroke="midnightblue" d="M556.263,-235.475C549.291,-227.793 538.744,-216.172 529.48,-205.964"/>
<polygon fill="midnightblue" stroke="midnightblue" points="532.039,-203.576 522.727,-198.523 526.856,-208.28 532.039,-203.576"/>
</g>
<!-- Node3&#45;&gt;Node16 -->
<g id="edge18" class="edge"><title>Node3&#45;&gt;Node16</title>
<path fill="none" stroke="midnightblue" d="M593.515,-235.475C624.152,-226.626 672.89,-212.549 711.393,-201.428"/>
<polygon fill="midnightblue" stroke="midnightblue" points="712.814,-204.661 721.45,-198.523 710.871,-197.935 712.814,-204.661"/>
</g>
<!-- Node5 -->
<g id="node5" class="node"><title>Node5</title>
<g id="a_node5"><a xlink:href="CoreMacros_8hpp.html" target="_top" xlink:title="Core/CoreMacros.hpp">
<polygon fill="white" stroke="black" points="281,-56.5 281,-75.5 401,-75.5 401,-56.5 281,-56.5"/>
<text text-anchor="middle" x="341" y="-63.5" font-family="Helvetica,sans-Serif" font-size="10.00">Core/CoreMacros.hpp</text>
</a>
</g>
</g>
<!-- Node4&#45;&gt;Node5 -->
<g id="edge4" class="edge"><title>Node4&#45;&gt;Node5</title>
<path fill="none" stroke="midnightblue" d="M974.816,-114.773C966.218,-113.777 957.354,-112.81 949,-112 754.639,-93.1556 524.646,-78.101 411.322,-71.1609"/>
<polygon fill="midnightblue" stroke="midnightblue" points="411.249,-67.6501 401.054,-70.5348 410.823,-74.6371 411.249,-67.6501"/>
</g>
<!-- Node6 -->
<g id="node6" class="node"><title>Node6</title>
<polygon fill="white" stroke="#bfbfbf" points="455,-0.5 455,-19.5 507,-19.5 507,-0.5 455,-0.5"/>
<text text-anchor="middle" x="481" y="-7.5" font-family="Helvetica,sans-Serif" font-size="10.00">cassert</text>
</g>
<!-- Node5&#45;&gt;Node6 -->
<g id="edge5" class="edge"><title>Node5&#45;&gt;Node6</title>
<path fill="none" stroke="midnightblue" d="M363.183,-56.4435C386.428,-47.4776 423.149,-33.314 449.415,-23.1827"/>
<polygon fill="midnightblue" stroke="midnightblue" points="450.85,-26.3807 458.92,-19.5164 448.331,-19.8497 450.85,-26.3807"/>
</g>
<!-- Node7 -->
<g id="node7" class="node"><title>Node7</title>
<polygon fill="white" stroke="#bfbfbf" points="248.5,-0.5 248.5,-19.5 293.5,-19.5 293.5,-0.5 248.5,-0.5"/>
<text text-anchor="middle" x="271" y="-7.5" font-family="Helvetica,sans-Serif" font-size="10.00">cstdio</text>
</g>
<!-- Node5&#45;&gt;Node7 -->
<g id="edge6" class="edge"><title>Node5&#45;&gt;Node7</title>
<path fill="none" stroke="midnightblue" d="M329.753,-56.324C319.203,-48.1849 303.199,-35.8395 290.558,-26.0874"/>
<polygon fill="midnightblue" stroke="midnightblue" points="292.507,-23.1707 282.451,-19.8339 288.231,-28.7132 292.507,-23.1707"/>
</g>
<!-- Node8 -->
<g id="node8" class="node"><title>Node8</title>
<polygon fill="white" stroke="#bfbfbf" points="311.5,-0.5 311.5,-19.5 370.5,-19.5 370.5,-0.5 311.5,-0.5"/>
<text text-anchor="middle" x="341" y="-7.5" font-family="Helvetica,sans-Serif" font-size="10.00">iostream</text>
</g>
<!-- Node5&#45;&gt;Node8 -->
<g id="edge7" class="edge"><title>Node5&#45;&gt;Node8</title>
<path fill="none" stroke="midnightblue" d="M341,-56.083C341,-49.0059 341,-38.8611 341,-29.9865"/>
<polygon fill="midnightblue" stroke="midnightblue" points="344.5,-29.751 341,-19.7511 337.5,-29.7511 344.5,-29.751"/>
</g>
<!-- Node9 -->
<g id="node9" class="node"><title>Node9</title>
<polygon fill="white" stroke="#bfbfbf" points="174,-0.5 174,-19.5 230,-19.5 230,-0.5 174,-0.5"/>
<text text-anchor="middle" x="202" y="-7.5" font-family="Helvetica,sans-Serif" font-size="10.00">sstream</text>
</g>
<!-- Node5&#45;&gt;Node9 -->
<g id="edge8" class="edge"><title>Node5&#45;&gt;Node9</title>
<path fill="none" stroke="midnightblue" d="M318.975,-56.4435C295.896,-47.4776 259.438,-33.314 233.359,-23.1827"/>
<polygon fill="midnightblue" stroke="midnightblue" points="234.511,-19.8753 223.922,-19.5164 231.976,-26.4002 234.511,-19.8753"/>
</g>
<!-- Node10 -->
<g id="node10" class="node"><title>Node10</title>
<polygon fill="white" stroke="#bfbfbf" points="389,-0.5 389,-19.5 437,-19.5 437,-0.5 389,-0.5"/>
<text text-anchor="middle" x="413" y="-7.5" font-family="Helvetica,sans-Serif" font-size="10.00">thread</text>
</g>
<!-- Node5&#45;&gt;Node10 -->
<g id="edge9" class="edge"><title>Node5&#45;&gt;Node10</title>
<path fill="none" stroke="midnightblue" d="M352.568,-56.324C363.42,-48.1849 379.881,-35.8395 392.883,-26.0874"/>
<polygon fill="midnightblue" stroke="midnightblue" points="395.321,-28.6339 401.221,-19.8339 391.121,-23.0339 395.321,-28.6339"/>
</g>
<!-- Node13&#45;&gt;Node4 -->
<g id="edge13" class="edge"><title>Node13&#45;&gt;Node4</title>
<path fill="none" stroke="midnightblue" d="M917.766,-173.975C938.484,-164.034 972.952,-147.495 996.989,-135.961"/>
<polygon fill="midnightblue" stroke="midnightblue" points="998.765,-138.991 1006.27,-131.509 995.737,-132.68 998.765,-138.991"/>
</g>
<!-- Node13&#45;&gt;Node11 -->
<g id="edge14" class="edge"><title>Node13&#45;&gt;Node11</title>
<path fill="none" stroke="midnightblue" d="M872.195,-173.957C863.845,-171.685 854.614,-169.459 846,-168 630.704,-131.523 573.492,-151.499 356,-132 342.821,-130.819 328.512,-129.368 315.457,-127.98"/>
<polygon fill="midnightblue" stroke="midnightblue" points="315.62,-124.477 305.302,-126.886 314.87,-131.437 315.62,-124.477"/>
</g>
<!-- Node13&#45;&gt;Node12 -->
<g id="edge15" class="edge"><title>Node13&#45;&gt;Node12</title>
<path fill="none" stroke="midnightblue" d="M870.72,-173.979C862.746,-171.839 854.079,-169.677 846,-168 760.815,-150.32 660.807,-136.905 599.422,-129.495"/>
<polygon fill="midnightblue" stroke="midnightblue" points="599.512,-125.981 589.167,-128.27 598.681,-132.932 599.512,-125.981"/>
</g>
<!-- Node14 -->
<g id="node14" class="node"><title>Node14</title>
<polygon fill="white" stroke="#bfbfbf" points="860,-112.5 860,-131.5 940,-131.5 940,-112.5 860,-112.5"/>
<text text-anchor="middle" x="900" y="-119.5" font-family="Helvetica,sans-Serif" font-size="10.00">Eigen/Sparse</text>
</g>
<!-- Node13&#45;&gt;Node14 -->
<g id="edge16" class="edge"><title>Node13&#45;&gt;Node14</title>
<path fill="none" stroke="midnightblue" d="M900,-173.975C900,-165.58 900,-152.481 900,-141.663"/>
<polygon fill="midnightblue" stroke="midnightblue" points="903.5,-141.509 900,-131.509 896.5,-141.509 903.5,-141.509"/>
</g>
<!-- Node17&#45;&gt;Node4 -->
<g id="edge31" class="edge"><title>Node17&#45;&gt;Node4</title>
<path fill="none" stroke="midnightblue" d="M910.918,-352.92C954.246,-344.335 1012.15,-329.725 1026,-311 1063.82,-259.87 1042.91,-177.665 1030.76,-141.307"/>
<polygon fill="midnightblue" stroke="midnightblue" points="1033.96,-139.857 1027.35,-131.581 1027.36,-142.175 1033.96,-139.857"/>
</g>
<!-- Node17&#45;&gt;Node13 -->
<g id="edge32" class="edge"><title>Node17&#45;&gt;Node13</title>
<path fill="none" stroke="midnightblue" d="M851.168,-352.88C828.496,-331.935 776.393,-277.003 802,-235 813.473,-216.181 834.454,-204.074 854.068,-196.449"/>
<polygon fill="midnightblue" stroke="midnightblue" points="855.305,-199.723 863.539,-193.055 852.945,-193.133 855.305,-199.723"/>
</g>
<!-- Node18 -->
<g id="node18" class="node"><title>Node18</title>
<g id="a_node18"><a xlink:href="VectorArray_8hpp.html" target="_top" xlink:title="Core/Containers/VectorArray.hpp">
<polygon fill="white" stroke="black" points="1145.5,-235.5 1145.5,-254.5 1318.5,-254.5 1318.5,-235.5 1145.5,-235.5"/>
<text text-anchor="middle" x="1232" y="-242.5" font-family="Helvetica,sans-Serif" font-size="10.00">Core/Containers/VectorArray.hpp</text>
</a>
</g>
</g>
<!-- Node17&#45;&gt;Node18 -->
<g id="edge20" class="edge"><title>Node17&#45;&gt;Node18</title>
<path fill="none" stroke="midnightblue" d="M916.626,-352.98C930.157,-350.964 944.592,-348.861 958,-347 1020.36,-338.346 1197.41,-358.26 1239,-311 1250.1,-298.385 1246.02,-278.619 1240.6,-264.194"/>
<polygon fill="midnightblue" stroke="midnightblue" points="1243.75,-262.65 1236.62,-254.812 1237.31,-265.385 1243.75,-262.65"/>
</g>
<!-- Node22 -->
<g id="node22" class="node"><title>Node22</title>
<g id="a_node22"><a xlink:href="AbstractGeometry_8hpp.html" target="_top" xlink:title="Core/Geometry/AbstractGeometry.hpp">
<polygon fill="white" stroke="black" points="811.5,-235.5 811.5,-254.5 1012.5,-254.5 1012.5,-235.5 811.5,-235.5"/>
<text text-anchor="middle" x="912" y="-242.5" font-family="Helvetica,sans-Serif" font-size="10.00">Core/Geometry/AbstractGeometry.hpp</text>
</a>
</g>
</g>
<!-- Node17&#45;&gt;Node22 -->
<g id="edge28" class="edge"><title>Node17&#45;&gt;Node22</title>
<path fill="none" stroke="midnightblue" d="M854.248,-352.784C844.441,-338.981 828.609,-311.553 840,-291 848.089,-276.405 863.103,-265.918 877.336,-258.761"/>
<polygon fill="midnightblue" stroke="midnightblue" points="878.886,-261.9 886.496,-254.528 875.95,-255.546 878.886,-261.9"/>
</g>
<!-- Node23 -->
<g id="node23" class="node"><title>Node23</title>
<g id="a_node23"><a xlink:href="Attribs_8hpp.html" target="_top" xlink:title="Core/Utils/Attribs.hpp">
<polygon fill="white" stroke="black" points="1111.5,-291.5 1111.5,-310.5 1230.5,-310.5 1230.5,-291.5 1111.5,-291.5"/>
<text text-anchor="middle" x="1171" y="-298.5" font-family="Helvetica,sans-Serif" font-size="10.00">Core/Utils/Attribs.hpp</text>
</a>
</g>
</g>
<!-- Node17&#45;&gt;Node23 -->
<g id="edge33" class="edge"><title>Node17&#45;&gt;Node23</title>
<path fill="none" stroke="midnightblue" d="M905.415,-352.975C961.124,-342.283 1056.6,-323.958 1116.62,-312.437"/>
<polygon fill="midnightblue" stroke="midnightblue" points="1117.51,-315.831 1126.67,-310.509 1116.19,-308.957 1117.51,-315.831"/>
</g>
<!-- Node27 -->
<g id="node27" class="node"><title>Node27</title>
<g id="a_node27"><a xlink:href="Color_8hpp.html" target="_top" xlink:title="Core/Utils/Color.hpp">
<polygon fill="white" stroke="black" points="281.5,-174 281.5,-193 392.5,-193 392.5,-174 281.5,-174"/>
<text text-anchor="middle" x="337" y="-181" font-family="Helvetica,sans-Serif" font-size="10.00">Core/Utils/Color.hpp</text>
</a>
</g>
</g>
<!-- Node17&#45;&gt;Node27 -->
<g id="edge40" class="edge"><title>Node17&#45;&gt;Node27</title>
<path fill="none" stroke="midnightblue" d="M820.483,-352.939C749.68,-337.386 599.411,-301.733 478,-255 435.274,-238.554 388.183,-213.5 360.673,-198.108"/>
<polygon fill="midnightblue" stroke="midnightblue" points="362.227,-194.966 351.798,-193.097 358.785,-201.062 362.227,-194.966"/>
</g>
<!-- Node29 -->
<g id="node29" class="node"><title>Node29</title>
<g id="a_node29"><a xlink:href="TriangleMesh_8inl.html" target="_top" xlink:title="Core/Geometry/TriangleMesh.inl">
<polygon fill="white" stroke="black" points="849,-291.5 849,-310.5 1017,-310.5 1017,-291.5 849,-291.5"/>
<text text-anchor="middle" x="933" y="-298.5" font-family="Helvetica,sans-Serif" font-size="10.00">Core/Geometry/TriangleMesh.inl</text>
</a>
</g>
</g>
<!-- Node17&#45;&gt;Node29 -->
<g id="edge45" class="edge"><title>Node17&#45;&gt;Node29</title>
<path fill="none" stroke="midnightblue" d="M866.415,-352.975C875.795,-343.52 894.121,-328.096 909.314,-316.687"/>
<polygon fill="midnightblue" stroke="midnightblue" points="911.779,-319.222 917.806,-310.509 907.661,-313.562 911.779,-319.222"/>
</g>
<!-- Node18&#45;&gt;Node4 -->
<g id="edge25" class="edge"><title>Node18&#45;&gt;Node4</title>
<path fill="none" stroke="midnightblue" d="M1222.26,-235.354C1204.87,-220.242 1166.96,-188.665 1131,-168 1107.82,-154.677 1079.92,-143.077 1058.43,-134.992"/>
<polygon fill="midnightblue" stroke="midnightblue" points="1059.64,-131.707 1049.04,-131.531 1057.21,-138.275 1059.64,-131.707"/>
</g>
<!-- Node18&#45;&gt;Node13 -->
<g id="edge26" class="edge"><title>Node18&#45;&gt;Node13</title>
<path fill="none" stroke="midnightblue" d="M1184.43,-235.475C1123.59,-224.571 1018.45,-205.728 954.462,-194.26"/>
<polygon fill="midnightblue" stroke="midnightblue" points="955.019,-190.805 944.558,-192.486 953.784,-197.695 955.019,-190.805"/>
</g>
<!-- Node19 -->
<g id="node19" class="node"><title>Node19</title>
<g id="a_node19"><a xlink:href="AlignedStdVector_8hpp.html" target="_top" xlink:title="Core/Containers/AlignedStd\lVector.hpp">
<polygon fill="white" stroke="black" points="1258.5,-168.5 1258.5,-198.5 1407.5,-198.5 1407.5,-168.5 1258.5,-168.5"/>
<text text-anchor="start" x="1266.5" y="-186.5" font-family="Helvetica,sans-Serif" font-size="10.00">Core/Containers/AlignedStd</text>
<text text-anchor="middle" x="1333" y="-175.5" font-family="Helvetica,sans-Serif" font-size="10.00">Vector.hpp</text>
</a>
</g>
</g>
<!-- Node18&#45;&gt;Node19 -->
<g id="edge21" class="edge"><title>Node18&#45;&gt;Node19</title>
<path fill="none" stroke="midnightblue" d="M1246.47,-235.475C1260.41,-227.266 1281.98,-214.558 1300.1,-203.885"/>
<polygon fill="midnightblue" stroke="midnightblue" points="1302.36,-206.614 1309.2,-198.523 1298.8,-200.583 1302.36,-206.614"/>
</g>
<!-- Node18&#45;&gt;Node21 -->
<g id="edge27" class="edge"><title>Node18&#45;&gt;Node21</title>
<path fill="none" stroke="midnightblue" d="M1231.71,-235.047C1231.66,-219.741 1233.63,-188.243 1249,-168 1261.66,-151.325 1282.34,-140.139 1300,-133.09"/>
<polygon fill="midnightblue" stroke="midnightblue" points="1301.28,-136.35 1309.44,-129.591 1298.85,-129.786 1301.28,-136.35"/>
</g>
<!-- Node19&#45;&gt;Node4 -->
<g id="edge22" class="edge"><title>Node19&#45;&gt;Node4</title>
<path fill="none" stroke="midnightblue" d="M1260.16,-168.475C1204.41,-157.739 1128.75,-143.17 1078.24,-133.445"/>
<polygon fill="midnightblue" stroke="midnightblue" points="1078.66,-129.96 1068.18,-131.506 1077.33,-136.834 1078.66,-129.96"/>
</g>
<!-- Node19&#45;&gt;Node20 -->
<g id="edge23" class="edge"><title>Node19&#45;&gt;Node20</title>
<path fill="none" stroke="midnightblue" d="M1381.56,-168.475C1417.56,-158.075 1466.02,-144.078 1499.63,-134.372"/>
<polygon fill="midnightblue" stroke="midnightblue" points="1500.91,-137.644 1509.55,-131.506 1498.97,-130.919 1500.91,-137.644"/>
</g>
<!-- Node19&#45;&gt;Node21 -->
<g id="edge24" class="edge"><title>Node19&#45;&gt;Node21</title>
<path fill="none" stroke="midnightblue" d="M1333,-168.399C1333,-160.466 1333,-150.458 1333,-141.858"/>
<polygon fill="midnightblue" stroke="midnightblue" points="1336.5,-141.658 1333,-131.658 1329.5,-141.658 1336.5,-141.658"/>
</g>
<!-- Node22&#45;&gt;Node4 -->
<g id="edge29" class="edge"><title>Node22&#45;&gt;Node4</title>
<path fill="none" stroke="midnightblue" d="M920.055,-235.298C938.702,-215.153 985.072,-165.056 1009.07,-139.125"/>
<polygon fill="midnightblue" stroke="midnightblue" points="1011.79,-141.339 1016.02,-131.623 1006.66,-136.584 1011.79,-141.339"/>
</g>
<!-- Node22&#45;&gt;Node13 -->
<g id="edge30" class="edge"><title>Node22&#45;&gt;Node13</title>
<path fill="none" stroke="midnightblue" d="M910.281,-235.475C908.57,-226.992 905.89,-213.704 903.695,-202.822"/>
<polygon fill="midnightblue" stroke="midnightblue" points="907.124,-202.12 901.716,-193.009 900.262,-203.504 907.124,-202.12"/>
</g>
<!-- Node23&#45;&gt;Node4 -->
<g id="edge35" class="edge"><title>Node23&#45;&gt;Node4</title>
<path fill="none" stroke="midnightblue" d="M1163.47,-291.422C1155.98,-282.641 1144.41,-268.417 1136,-255 1113.09,-218.457 1121.63,-200.256 1093,-168 1081.43,-154.965 1065.24,-144.142 1051.45,-136.379"/>
<polygon fill="midnightblue" stroke="midnightblue" points="1052.83,-133.152 1042.37,-131.505 1049.52,-139.319 1052.83,-133.152"/>
</g>
<!-- Node23&#45;&gt;Node18 -->
<g id="edge34" class="edge"><title>Node23&#45;&gt;Node18</title>
<path fill="none" stroke="midnightblue" d="M1180.8,-291.324C1189.82,-283.341 1203.41,-271.313 1214.32,-261.653"/>
<polygon fill="midnightblue" stroke="midnightblue" points="1216.85,-264.083 1222.02,-254.834 1212.21,-258.842 1216.85,-264.083"/>
</g>
<!-- Node23&#45;&gt;Node24 -->
<g id="edge36" class="edge"><title>Node23&#45;&gt;Node24</title>
<path fill="none" stroke="midnightblue" d="M1219.17,-291.444C1272.87,-281.905 1359.69,-266.483 1417.05,-256.293"/>
<polygon fill="midnightblue" stroke="midnightblue" points="1417.82,-259.712 1427.06,-254.516 1416.6,-252.819 1417.82,-259.712"/>
</g>
<!-- Node24&#45;&gt;Node4 -->
<g id="edge37" class="edge"><title>Node24&#45;&gt;Node4</title>
<path fill="none" stroke="midnightblue" d="M1418.16,-235.485C1372.05,-227.912 1305.66,-215.484 1249,-199 1212.39,-188.348 1205.01,-180.547 1169,-168 1133.6,-155.664 1092.78,-143.145 1063.48,-134.454"/>
<polygon fill="midnightblue" stroke="midnightblue" points="1064.21,-131.02 1053.63,-131.546 1062.23,-137.734 1064.21,-131.02"/>
</g>
<!-- Node25 -->
<g id="node25" class="node"><title>Node25</title>
<polygon fill="white" stroke="#bfbfbf" points="1549,-174 1549,-193 1591,-193 1591,-174 1549,-174"/>
<text text-anchor="middle" x="1570" y="-181" font-family="Helvetica,sans-Serif" font-size="10.00">limits</text>
</g>
<!-- Node24&#45;&gt;Node25 -->
<g id="edge38" class="edge"><title>Node24&#45;&gt;Node25</title>
<path fill="none" stroke="midnightblue" d="M1488.61,-235.475C1504.06,-225.799 1529.49,-209.872 1547.82,-198.394"/>
<polygon fill="midnightblue" stroke="midnightblue" points="1549.8,-201.283 1556.41,-193.009 1546.08,-195.351 1549.8,-201.283"/>
</g>
<!-- Node26 -->
<g id="node26" class="node"><title>Node26</title>
<g id="a_node26"><a xlink:href="Index_8inl.html" target="_top" xlink:title="Core/Utils/Index.inl">
<polygon fill="white" stroke="black" points="1425.5,-174 1425.5,-193 1530.5,-193 1530.5,-174 1425.5,-174"/>
<text text-anchor="middle" x="1478" y="-181" font-family="Helvetica,sans-Serif" font-size="10.00">Core/Utils/Index.inl</text>
</a>
</g>
</g>
<!-- Node24&#45;&gt;Node26 -->
<g id="edge39" class="edge"><title>Node24&#45;&gt;Node26</title>
<path fill="none" stroke="midnightblue" d="M1475.43,-235.475C1475.85,-227.08 1476.51,-213.981 1477.06,-203.163"/>
<polygon fill="midnightblue" stroke="midnightblue" points="1480.56,-203.173 1477.57,-193.009 1473.57,-202.82 1480.56,-203.173"/>
</g>
<!-- Node27&#45;&gt;Node5 -->
<g id="edge41" class="edge"><title>Node27&#45;&gt;Node5</title>
<path fill="none" stroke="midnightblue" d="M337.301,-173.819C337.943,-155.257 339.464,-111.339 340.343,-85.9734"/>
<polygon fill="midnightblue" stroke="midnightblue" points="343.848,-85.8972 340.696,-75.782 336.852,-85.6548 343.848,-85.8972"/>
</g>
<!-- Node27&#45;&gt;Node11 -->
<g id="edge42" class="edge"><title>Node27&#45;&gt;Node11</title>
<path fill="none" stroke="midnightblue" d="M327.544,-173.975C317.252,-164.697 300.584,-149.671 288.006,-138.331"/>
<polygon fill="midnightblue" stroke="midnightblue" points="290.21,-135.605 280.439,-131.509 285.522,-140.805 290.21,-135.605"/>
</g>
<!-- Node27&#45;&gt;Node12 -->
<g id="edge43" class="edge"><title>Node27&#45;&gt;Node12</title>
<path fill="none" stroke="midnightblue" d="M366.372,-173.975C402.297,-163.548 463.232,-145.862 503.044,-134.307"/>
<polygon fill="midnightblue" stroke="midnightblue" points="504.055,-137.658 512.683,-131.509 502.104,-130.935 504.055,-137.658"/>
</g>
<!-- Node28 -->
<g id="node28" class="node"><title>Node28</title>
<polygon fill="white" stroke="#bfbfbf" points="365,-112.5 365,-131.5 419,-131.5 419,-112.5 365,-112.5"/>
<text text-anchor="middle" x="392" y="-119.5" font-family="Helvetica,sans-Serif" font-size="10.00">random</text>
</g>
<!-- Node27&#45;&gt;Node28 -->
<g id="edge44" class="edge"><title>Node27&#45;&gt;Node28</title>
<path fill="none" stroke="midnightblue" d="M344.88,-173.975C353.294,-164.873 366.819,-150.241 377.226,-138.983"/>
<polygon fill="midnightblue" stroke="midnightblue" points="379.917,-141.228 384.134,-131.509 374.776,-136.477 379.917,-141.228"/>
</g>
<!-- Node29&#45;&gt;Node17 -->
<g id="edge46" class="edge"><title>Node29&#45;&gt;Node17</title>
<path fill="none" stroke="midnightblue" d="M927.6,-310.509C918.231,-319.958 899.908,-335.38 884.711,-346.794"/>
<polygon fill="midnightblue" stroke="midnightblue" points="882.243,-344.261 876.216,-352.975 886.362,-349.921 882.243,-344.261"/>
</g>
<!-- Node32&#45;&gt;Node2 -->
<g id="edge57" class="edge"><title>Node32&#45;&gt;Node2</title>
<path fill="none" stroke="midnightblue" d="M1265.58,-377.557C1264.71,-377.706 1263.85,-377.853 1263,-378 1185.04,-391.367 1095.74,-406.138 1032.46,-416.232"/>
<polygon fill="midnightblue" stroke="midnightblue" points="1031.86,-412.784 1022.53,-417.811 1032.96,-419.697 1031.86,-412.784"/>
</g>
<!-- Node33&#45;&gt;Node4 -->
<g id="edge60" class="edge"><title>Node33&#45;&gt;Node4</title>
<path fill="none" stroke="midnightblue" d="M187.31,-176.314C212.826,-173.463 243.985,-170.226 272,-168 572.367,-144.135 648.807,-157.964 949,-132 954.096,-131.559 959.379,-131.044 964.675,-130.487"/>
<polygon fill="midnightblue" stroke="midnightblue" points="965.271,-133.943 974.829,-129.373 964.507,-126.985 965.271,-133.943"/>
</g>
<!-- Node33&#45;&gt;Node9 -->
<g id="edge62" class="edge"><title>Node33&#45;&gt;Node9</title>
<path fill="none" stroke="midnightblue" d="M146.578,-173.845C157.834,-164.746 174.445,-149.36 183,-132 199.392,-98.7385 202.268,-54.6461 202.436,-29.9121"/>
<polygon fill="midnightblue" stroke="midnightblue" points="205.935,-29.709 202.355,-19.7372 198.935,-29.7648 205.935,-29.709"/>
</g>
<!-- Node34 -->
<g id="node34" class="node"><title>Node34</title>
<polygon fill="white" stroke="#bfbfbf" points="0,-112.5 0,-131.5 44,-131.5 44,-112.5 0,-112.5"/>
<text text-anchor="middle" x="22" y="-119.5" font-family="Helvetica,sans-Serif" font-size="10.00">ctime</text>
</g>
<!-- Node33&#45;&gt;Node34 -->
<g id="edge61" class="edge"><title>Node33&#45;&gt;Node34</title>
<path fill="none" stroke="midnightblue" d="M118.81,-173.975C100.098,-164.122 69.0769,-147.788 47.2013,-136.27"/>
<polygon fill="midnightblue" stroke="midnightblue" points="48.6392,-133.071 38.1601,-131.509 45.3778,-139.265 48.6392,-133.071"/>
</g>
<!-- Node35 -->
<g id="node35" class="node"><title>Node35</title>
<polygon fill="white" stroke="#bfbfbf" points="62.5,-112.5 62.5,-131.5 111.5,-131.5 111.5,-112.5 62.5,-112.5"/>
<text text-anchor="middle" x="87" y="-119.5" font-family="Helvetica,sans-Serif" font-size="10.00">stdio.h</text>
</g>
<!-- Node33&#45;&gt;Node35 -->
<g id="edge63" class="edge"><title>Node33&#45;&gt;Node35</title>
<path fill="none" stroke="midnightblue" d="M128.123,-173.975C120.851,-164.962 109.205,-150.525 100.159,-139.312"/>
<polygon fill="midnightblue" stroke="midnightblue" points="102.867,-137.095 93.8645,-131.509 97.4192,-141.49 102.867,-137.095"/>
</g>
<!-- Node36 -->
<g id="node36" class="node"><title>Node36</title>
<polygon fill="white" stroke="#bfbfbf" points="130,-112.5 130,-131.5 174,-131.5 174,-112.5 130,-112.5"/>
<text text-anchor="middle" x="152" y="-119.5" font-family="Helvetica,sans-Serif" font-size="10.00">string</text>
</g>
<!-- Node33&#45;&gt;Node36 -->
<g id="edge64" class="edge"><title>Node33&#45;&gt;Node36</title>
<path fill="none" stroke="midnightblue" d="M137.436,-173.975C139.859,-165.492 143.656,-152.204 146.765,-141.322"/>
<polygon fill="midnightblue" stroke="midnightblue" points="150.187,-142.086 149.569,-131.509 143.456,-140.163 150.187,-142.086"/>
</g>
</g>
</svg>
