<?xml version="1.0" encoding="UTF-8" standalone="no"?>
<!DOCTYPE svg PUBLIC "-//W3C//DTD SVG 1.1//EN"
 "http://www.w3.org/Graphics/SVG/1.1/DTD/svg11.dtd">
<!-- Generated by graphviz version 2.38.0 (20140413.2041)
 -->
<!-- Title: /home/travis/build/STORM&#45;IRIT/Radium&#45;Engine/src/Core/Geometry/TriangleMesh.cpp Pages: 1 -->
<svg width="1107pt" height="453pt"
 viewBox="0.00 0.00 1107.12 453.00" xmlns="http://www.w3.org/2000/svg" xmlns:xlink="http://www.w3.org/1999/xlink">
<g id="graph0" class="graph" transform="scale(1 1) rotate(0) translate(4 449)">
<title>/home/travis/build/STORM&#45;IRIT/Radium&#45;Engine/src/Core/Geometry/TriangleMesh.cpp</title>
<polygon fill="white" stroke="none" points="-4,4 -4,-449 1103.12,-449 1103.12,4 -4,4"/>
<!-- Node1 -->
<g id="node1" class="node"><title>Node1</title>
<polygon fill="#bfbfbf" stroke="black" points="875.121,-403.5 875.121,-444.5 1070.12,-444.5 1070.12,-403.5 875.121,-403.5"/>
<text text-anchor="start" x="883.121" y="-432.5" font-family="Helvetica,sans-Serif" font-size="10.00">/home/travis/build</text>
<text text-anchor="start" x="883.121" y="-421.5" font-family="Helvetica,sans-Serif" font-size="10.00">/STORM&#45;IRIT/Radium&#45;Engine</text>
<text text-anchor="middle" x="972.621" y="-410.5" font-family="Helvetica,sans-Serif" font-size="10.00">/src/Core/Geometry/TriangleMesh.cpp</text>
</g>
<!-- Node2 -->
<g id="node2" class="node"><title>Node2</title>
<g id="a_node2"><a xlink:href="TriangleMesh_8hpp.html" target="_top" xlink:title="TriangleMesh.hpp">
<polygon fill="white" stroke="black" points="426.121,-347.5 426.121,-366.5 525.121,-366.5 525.121,-347.5 426.121,-347.5"/>
<text text-anchor="middle" x="475.621" y="-354.5" font-family="Helvetica,sans-Serif" font-size="10.00">TriangleMesh.hpp</text>
</a>
</g>
</g>
<!-- Node1&#45;&gt;Node2 -->
<g id="edge1" class="edge"><title>Node1&#45;&gt;Node2</title>
<path fill="none" stroke="midnightblue" d="M875.023,-410.236C774.071,-397.033 619.646,-376.836 535.449,-365.825"/>
<polygon fill="midnightblue" stroke="midnightblue" points="535.659,-362.322 525.289,-364.496 534.751,-369.263 535.659,-362.322"/>
</g>
<!-- Node13 -->
<g id="node13" class="node"><title>Node13</title>
<polygon fill="white" stroke="#bfbfbf" points="931.121,-112.5 931.121,-131.5 978.121,-131.5 978.121,-112.5 931.121,-112.5"/>
<text text-anchor="middle" x="954.621" y="-119.5" font-family="Helvetica,sans-Serif" font-size="10.00">vector</text>
</g>
<!-- Node1&#45;&gt;Node13 -->
<g id="edge48" class="edge"><title>Node1&#45;&gt;Node13</title>
<path fill="none" stroke="midnightblue" d="M988.499,-403.356C1005.36,-380.456 1029.62,-340.779 1029.62,-302 1029.62,-302 1029.62,-302 1029.62,-244 1029.62,-200.637 994.392,-159.876 972.223,-138.519"/>
<polygon fill="midnightblue" stroke="midnightblue" points="974.444,-135.805 964.736,-131.56 969.678,-140.932 974.444,-135.805"/>
</g>
<!-- Node14 -->
<g id="node14" class="node"><title>Node14</title>
<g id="a_node14"><a xlink:href="Types_8hpp.html" target="_top" xlink:title="Core/Types.hpp">
<polygon fill="white" stroke="black" points="736.121,-174 736.121,-193 825.121,-193 825.121,-174 736.121,-174"/>
<text text-anchor="middle" x="780.621" y="-181" font-family="Helvetica,sans-Serif" font-size="10.00">Core/Types.hpp</text>
</a>
</g>
</g>
<!-- Node1&#45;&gt;Node14 -->
<g id="edge46" class="edge"><title>Node1&#45;&gt;Node14</title>
<path fill="none" stroke="midnightblue" d="M972.085,-403.344C970.272,-374.981 962.875,-322.533 933.621,-291 902.913,-257.899 875.309,-281.319 838.621,-255 818.572,-240.617 801.457,-217.653 791.123,-201.866"/>
<polygon fill="midnightblue" stroke="midnightblue" points="793.893,-199.696 785.599,-193.104 787.972,-203.43 793.893,-199.696"/>
</g>
<!-- Node26 -->
<g id="node26" class="node"><title>Node26</title>
<g id="a_node26"><a xlink:href="RayCast_8hpp.html" target="_top" xlink:title="Core/Geometry/RayCast.hpp">
<polygon fill="white" stroke="black" points="848.121,-235.5 848.121,-254.5 1001.12,-254.5 1001.12,-235.5 848.121,-235.5"/>
<text text-anchor="middle" x="924.621" y="-242.5" font-family="Helvetica,sans-Serif" font-size="10.00">Core/Geometry/RayCast.hpp</text>
</a>
</g>
</g>
<!-- Node1&#45;&gt;Node26 -->
<g id="edge39" class="edge"><title>Node1&#45;&gt;Node26</title>
<path fill="none" stroke="midnightblue" d="M976.069,-403.275C979.814,-376.623 983.349,-328.172 967.621,-291 962.721,-279.419 953.39,-269.068 944.669,-261.221"/>
<polygon fill="midnightblue" stroke="midnightblue" points="946.884,-258.511 936.977,-254.757 942.38,-263.87 946.884,-258.511"/>
</g>
<!-- Node27 -->
<g id="node27" class="node"><title>Node27</title>
<g id="a_node27"><a xlink:href="TriangleOperation_8hpp.html" target="_top" xlink:title="Core/Geometry/TriangleOperation.hpp">
<polygon fill="white" stroke="black" points="728.121,-291.5 728.121,-310.5 925.121,-310.5 925.121,-291.5 728.121,-291.5"/>
<text text-anchor="middle" x="826.621" y="-298.5" font-family="Helvetica,sans-Serif" font-size="10.00">Core/Geometry/TriangleOperation.hpp</text>
</a>
</g>
</g>
<!-- Node1&#45;&gt;Node27 -->
<g id="edge44" class="edge"><title>Node1&#45;&gt;Node27</title>
<path fill="none" stroke="midnightblue" d="M948.839,-403.29C919.801,-379.224 871.314,-339.04 844.987,-317.22"/>
<polygon fill="midnightblue" stroke="midnightblue" points="846.901,-314.261 836.968,-310.575 842.434,-319.651 846.901,-314.261"/>
</g>
<!-- Node28 -->
<g id="node28" class="node"><title>Node28</title>
<polygon fill="white" stroke="#bfbfbf" points="1058.12,-347.5 1058.12,-366.5 1099.12,-366.5 1099.12,-347.5 1058.12,-347.5"/>
<text text-anchor="middle" x="1078.62" y="-354.5" font-family="Helvetica,sans-Serif" font-size="10.00">array</text>
</g>
<!-- Node1&#45;&gt;Node28 -->
<g id="edge47" class="edge"><title>Node1&#45;&gt;Node28</title>
<path fill="none" stroke="midnightblue" d="M1004.42,-403.498C1020.99,-393.34 1040.86,-381.155 1055.87,-371.952"/>
<polygon fill="midnightblue" stroke="midnightblue" points="1057.82,-374.864 1064.51,-366.652 1054.16,-368.896 1057.82,-374.864"/>
</g>
<!-- Node3 -->
<g id="node3" class="node"><title>Node3</title>
<g id="a_node3"><a xlink:href="VectorArray_8hpp.html" target="_top" xlink:title="Core/Containers/VectorArray.hpp">
<polygon fill="white" stroke="black" points="460.121,-235.5 460.121,-254.5 633.121,-254.5 633.121,-235.5 460.121,-235.5"/>
<text text-anchor="middle" x="546.621" y="-242.5" font-family="Helvetica,sans-Serif" font-size="10.00">Core/Containers/VectorArray.hpp</text>
</a>
</g>
</g>
<!-- Node2&#45;&gt;Node3 -->
<g id="edge2" class="edge"><title>Node2&#45;&gt;Node3</title>
<path fill="none" stroke="midnightblue" d="M470.072,-347.358C462.432,-334.259 450.785,-308.999 461.621,-291 470.909,-275.574 487.454,-265.16 503.495,-258.271"/>
<polygon fill="midnightblue" stroke="midnightblue" points="504.792,-261.522 512.822,-254.612 502.235,-255.006 504.792,-261.522"/>
</g>
<!-- Node5 -->
<g id="node5" class="node"><title>Node5</title>
<g id="a_node5"><a xlink:href="RaCore_8hpp.html" target="_top" xlink:title="Core/RaCore.hpp">
<polygon fill="white" stroke="black" points="297.621,-112.5 297.621,-131.5 395.621,-131.5 395.621,-112.5 297.621,-112.5"/>
<text text-anchor="middle" x="346.621" y="-119.5" font-family="Helvetica,sans-Serif" font-size="10.00">Core/RaCore.hpp</text>
</a>
</g>
</g>
<!-- Node2&#45;&gt;Node5 -->
<g id="edge23" class="edge"><title>Node2&#45;&gt;Node5</title>
<path fill="none" stroke="midnightblue" d="M425.885,-355.348C342.949,-351.93 174.397,-334.816 61.6214,-255 32.8908,-234.666 19.0911,-231.519 5.62136,-199 0.348832,-186.271 -3.46137,-178.36 5.62136,-168 23.8816,-147.172 194.803,-132.896 287.501,-126.616"/>
<polygon fill="midnightblue" stroke="midnightblue" points="287.839,-130.102 297.584,-125.944 287.373,-123.117 287.839,-130.102"/>
</g>
<!-- Node2&#45;&gt;Node14 -->
<g id="edge24" class="edge"><title>Node2&#45;&gt;Node14</title>
<path fill="none" stroke="midnightblue" d="M525.52,-354.366C569.364,-350.864 633.357,-340.565 680.621,-311 724.378,-283.629 756.974,-230.075 771.791,-202.245"/>
<polygon fill="midnightblue" stroke="midnightblue" points="774.956,-203.743 776.433,-193.252 768.736,-200.532 774.956,-203.743"/>
</g>
<!-- Node18 -->
<g id="node18" class="node"><title>Node18</title>
<g id="a_node18"><a xlink:href="AbstractGeometry_8hpp.html" target="_top" xlink:title="Core/Geometry/AbstractGeometry.hpp">
<polygon fill="white" stroke="black" points="241.121,-235.5 241.121,-254.5 442.121,-254.5 442.121,-235.5 241.121,-235.5"/>
<text text-anchor="middle" x="341.621" y="-242.5" font-family="Helvetica,sans-Serif" font-size="10.00">Core/Geometry/AbstractGeometry.hpp</text>
</a>
</g>
</g>
<!-- Node2&#45;&gt;Node18 -->
<g id="edge20" class="edge"><title>Node2&#45;&gt;Node18</title>
<path fill="none" stroke="midnightblue" d="M465.107,-347.368C442.406,-328.733 388.561,-284.532 360.057,-261.134"/>
<polygon fill="midnightblue" stroke="midnightblue" points="362.037,-258.231 352.087,-254.591 357.596,-263.642 362.037,-258.231"/>
</g>
<!-- Node19 -->
<g id="node19" class="node"><title>Node19</title>
<g id="a_node19"><a xlink:href="Attribs_8hpp.html" target="_top" xlink:title="Core/Utils/Attribs.hpp">
<polygon fill="white" stroke="black" points="188.121,-291.5 188.121,-310.5 307.121,-310.5 307.121,-291.5 188.121,-291.5"/>
<text text-anchor="middle" x="247.621" y="-298.5" font-family="Helvetica,sans-Serif" font-size="10.00">Core/Utils/Attribs.hpp</text>
</a>
</g>
</g>
<!-- Node2&#45;&gt;Node19 -->
<g id="edge25" class="edge"><title>Node2&#45;&gt;Node19</title>
<path fill="none" stroke="midnightblue" d="M439.494,-347.444C399.97,-338.083 336.525,-323.056 293.509,-312.868"/>
<polygon fill="midnightblue" stroke="midnightblue" points="294.117,-309.415 283.58,-310.516 292.504,-316.227 294.117,-309.415"/>
</g>
<!-- Node23 -->
<g id="node23" class="node"><title>Node23</title>
<g id="a_node23"><a xlink:href="Color_8hpp.html" target="_top" xlink:title="Core/Utils/Color.hpp">
<polygon fill="white" stroke="black" points="607.121,-174 607.121,-193 718.121,-193 718.121,-174 607.121,-174"/>
<text text-anchor="middle" x="662.621" y="-181" font-family="Helvetica,sans-Serif" font-size="10.00">Core/Utils/Color.hpp</text>
</a>
</g>
</g>
<!-- Node2&#45;&gt;Node23 -->
<g id="edge32" class="edge"><title>Node2&#45;&gt;Node23</title>
<path fill="none" stroke="midnightblue" d="M475.562,-347.469C475.95,-333.58 478.82,-306.117 494.621,-291 543.224,-244.5 592.9,-301.375 641.621,-255 655.616,-241.68 660.404,-219.483 661.979,-203.552"/>
<polygon fill="midnightblue" stroke="midnightblue" points="665.491,-203.482 662.645,-193.276 658.506,-203.029 665.491,-203.482"/>
</g>
<!-- Node25 -->
<g id="node25" class="node"><title>Node25</title>
<g id="a_node25"><a xlink:href="TriangleMesh_8inl.html" target="_top" xlink:title="Core/Geometry/TriangleMesh.inl">
<polygon fill="white" stroke="black" points="503.621,-291.5 503.621,-310.5 671.621,-310.5 671.621,-291.5 503.621,-291.5"/>
<text text-anchor="middle" x="587.621" y="-298.5" font-family="Helvetica,sans-Serif" font-size="10.00">Core/Geometry/TriangleMesh.inl</text>
</a>
</g>
</g>
<!-- Node2&#45;&gt;Node25 -->
<g id="edge37" class="edge"><title>Node2&#45;&gt;Node25</title>
<path fill="none" stroke="midnightblue" d="M488.501,-347.324C504.807,-338.546 532.917,-324.875 555.14,-314.842"/>
<polygon fill="midnightblue" stroke="midnightblue" points="556.845,-317.914 564.561,-310.655 554.002,-311.518 556.845,-317.914"/>
</g>
<!-- Node4 -->
<g id="node4" class="node"><title>Node4</title>
<g id="a_node4"><a xlink:href="AlignedStdVector_8hpp.html" target="_top" xlink:title="Core/Containers/AlignedStd\lVector.hpp">
<polygon fill="white" stroke="black" points="440.121,-168.5 440.121,-198.5 589.121,-198.5 589.121,-168.5 440.121,-168.5"/>
<text text-anchor="start" x="448.121" y="-186.5" font-family="Helvetica,sans-Serif" font-size="10.00">Core/Containers/AlignedStd</text>
<text text-anchor="middle" x="514.621" y="-175.5" font-family="Helvetica,sans-Serif" font-size="10.00">Vector.hpp</text>
</a>
</g>
</g>
<!-- Node3&#45;&gt;Node4 -->
<g id="edge3" class="edge"><title>Node3&#45;&gt;Node4</title>
<path fill="none" stroke="midnightblue" d="M542.037,-235.475C538.108,-228.17 532.263,-217.302 526.978,-207.475"/>
<polygon fill="midnightblue" stroke="midnightblue" points="529.982,-205.672 522.163,-198.523 523.817,-208.988 529.982,-205.672"/>
</g>
<!-- Node3&#45;&gt;Node5 -->
<g id="edge13" class="edge"><title>Node3&#45;&gt;Node5</title>
<path fill="none" stroke="midnightblue" d="M487.331,-235.454C458.465,-229.05 424.497,-217.984 398.621,-199 378.233,-184.042 363.188,-158.555 354.666,-141.26"/>
<polygon fill="midnightblue" stroke="midnightblue" points="357.614,-139.3 350.214,-131.717 351.271,-142.259 357.614,-139.3"/>
</g>
<!-- Node3&#45;&gt;Node13 -->
<g id="edge19" class="edge"><title>Node3&#45;&gt;Node13</title>
<path fill="none" stroke="midnightblue" d="M633.382,-239.543C691.549,-234.366 769.028,-223.179 833.621,-199 873.001,-184.259 913.278,-155.721 936.001,-138.118"/>
<polygon fill="midnightblue" stroke="midnightblue" points="938.397,-140.686 944.079,-131.744 934.06,-135.191 938.397,-140.686"/>
</g>
<!-- Node3&#45;&gt;Node14 -->
<g id="edge14" class="edge"><title>Node3&#45;&gt;Node14</title>
<path fill="none" stroke="midnightblue" d="M581.51,-235.468C617.806,-226.547 676.264,-212.055 726.621,-199 730.744,-197.931 735.04,-196.803 739.328,-195.667"/>
<polygon fill="midnightblue" stroke="midnightblue" points="740.475,-198.984 749.236,-193.026 738.672,-192.22 740.475,-198.984"/>
</g>
<!-- Node4&#45;&gt;Node5 -->
<g id="edge4" class="edge"><title>Node4&#45;&gt;Node5</title>
<path fill="none" stroke="midnightblue" d="M474.808,-168.399C446.117,-158.238 407.812,-144.672 380.566,-135.022"/>
<polygon fill="midnightblue" stroke="midnightblue" points="381.662,-131.697 371.067,-131.658 379.325,-138.296 381.662,-131.697"/>
</g>
<!-- Node12 -->
<g id="node12" class="node"><title>Node12</title>
<polygon fill="white" stroke="#bfbfbf" points="413.121,-112.5 413.121,-131.5 506.121,-131.5 506.121,-112.5 413.121,-112.5"/>
<text text-anchor="middle" x="459.621" y="-119.5" font-family="Helvetica,sans-Serif" font-size="10.00">Eigen/StdVector</text>
</g>
<!-- Node4&#45;&gt;Node12 -->
<g id="edge11" class="edge"><title>Node4&#45;&gt;Node12</title>
<path fill="none" stroke="midnightblue" d="M501.587,-168.399C493.43,-159.575 482.9,-148.183 474.428,-139.018"/>
<polygon fill="midnightblue" stroke="midnightblue" points="476.982,-136.625 467.624,-131.658 471.842,-141.377 476.982,-136.625"/>
</g>
<!-- Node4&#45;&gt;Node13 -->
<g id="edge12" class="edge"><title>Node4&#45;&gt;Node13</title>
<path fill="none" stroke="midnightblue" d="M589.243,-169.238C592.07,-168.807 594.87,-168.393 597.621,-168 737.832,-147.983 777.529,-158.637 920.883,-131.842"/>
<polygon fill="midnightblue" stroke="midnightblue" points="921.76,-135.238 930.931,-129.935 920.454,-128.361 921.76,-135.238"/>
</g>
<!-- Node6 -->
<g id="node6" class="node"><title>Node6</title>
<g id="a_node6"><a xlink:href="CoreMacros_8hpp.html" target="_top" xlink:title="Core/CoreMacros.hpp">
<polygon fill="white" stroke="black" points="416.621,-56.5 416.621,-75.5 536.621,-75.5 536.621,-56.5 416.621,-56.5"/>
<text text-anchor="middle" x="476.621" y="-63.5" font-family="Helvetica,sans-Serif" font-size="10.00">Core/CoreMacros.hpp</text>
</a>
</g>
</g>
<!-- Node5&#45;&gt;Node6 -->
<g id="edge5" class="edge"><title>Node5&#45;&gt;Node6</title>
<path fill="none" stroke="midnightblue" d="M367.22,-112.444C388.615,-103.557 422.303,-89.5632 446.646,-79.4514"/>
<polygon fill="midnightblue" stroke="midnightblue" points="448.227,-82.5848 456.119,-75.5164 445.541,-76.1203 448.227,-82.5848"/>
</g>
<!-- Node7 -->
<g id="node7" class="node"><title>Node7</title>
<polygon fill="white" stroke="#bfbfbf" points="313.621,-0.5 313.621,-19.5 365.621,-19.5 365.621,-0.5 313.621,-0.5"/>
<text text-anchor="middle" x="339.621" y="-7.5" font-family="Helvetica,sans-Serif" font-size="10.00">cassert</text>
</g>
<!-- Node6&#45;&gt;Node7 -->
<g id="edge6" class="edge"><title>Node6&#45;&gt;Node7</title>
<path fill="none" stroke="midnightblue" d="M454.913,-56.4435C432.267,-47.5171 396.549,-33.4387 370.87,-23.3168"/>
<polygon fill="midnightblue" stroke="midnightblue" points="371.815,-19.9273 361.228,-19.5164 369.248,-26.4397 371.815,-19.9273"/>
</g>
<!-- Node8 -->
<g id="node8" class="node"><title>Node8</title>
<polygon fill="white" stroke="#bfbfbf" points="384.121,-0.5 384.121,-19.5 429.121,-19.5 429.121,-0.5 384.121,-0.5"/>
<text text-anchor="middle" x="406.621" y="-7.5" font-family="Helvetica,sans-Serif" font-size="10.00">cstdio</text>
</g>
<!-- Node6&#45;&gt;Node8 -->
<g id="edge7" class="edge"><title>Node6&#45;&gt;Node8</title>
<path fill="none" stroke="midnightblue" d="M465.375,-56.324C454.824,-48.1849 438.821,-35.8395 426.179,-26.0874"/>
<polygon fill="midnightblue" stroke="midnightblue" points="428.128,-23.1707 418.073,-19.8339 423.853,-28.7132 428.128,-23.1707"/>
</g>
<!-- Node9 -->
<g id="node9" class="node"><title>Node9</title>
<polygon fill="white" stroke="#bfbfbf" points="447.121,-0.5 447.121,-19.5 506.121,-19.5 506.121,-0.5 447.121,-0.5"/>
<text text-anchor="middle" x="476.621" y="-7.5" font-family="Helvetica,sans-Serif" font-size="10.00">iostream</text>
</g>
<!-- Node6&#45;&gt;Node9 -->
<g id="edge8" class="edge"><title>Node6&#45;&gt;Node9</title>
<path fill="none" stroke="midnightblue" d="M476.621,-56.083C476.621,-49.0059 476.621,-38.8611 476.621,-29.9865"/>
<polygon fill="midnightblue" stroke="midnightblue" points="480.121,-29.751 476.621,-19.7511 473.121,-29.7511 480.121,-29.751"/>
</g>
<!-- Node10 -->
<g id="node10" class="node"><title>Node10</title>
<polygon fill="white" stroke="#bfbfbf" points="524.621,-0.5 524.621,-19.5 580.621,-19.5 580.621,-0.5 524.621,-0.5"/>
<text text-anchor="middle" x="552.621" y="-7.5" font-family="Helvetica,sans-Serif" font-size="10.00">sstream</text>
</g>
<!-- Node6&#45;&gt;Node10 -->
<g id="edge9" class="edge"><title>Node6&#45;&gt;Node10</title>
<path fill="none" stroke="midnightblue" d="M488.832,-56.324C500.397,-48.1066 517.997,-35.6017 531.782,-25.8069"/>
<polygon fill="midnightblue" stroke="midnightblue" points="534.064,-28.4791 540.188,-19.8339 530.009,-22.7729 534.064,-28.4791"/>
</g>
<!-- Node11 -->
<g id="node11" class="node"><title>Node11</title>
<polygon fill="white" stroke="#bfbfbf" points="598.621,-0.5 598.621,-19.5 646.621,-19.5 646.621,-0.5 598.621,-0.5"/>
<text text-anchor="middle" x="622.621" y="-7.5" font-family="Helvetica,sans-Serif" font-size="10.00">thread</text>
</g>
<!-- Node6&#45;&gt;Node11 -->
<g id="edge10" class="edge"><title>Node6&#45;&gt;Node11</title>
<path fill="none" stroke="midnightblue" d="M499.755,-56.4435C524.104,-47.4381 562.629,-33.1891 590.044,-23.049"/>
<polygon fill="midnightblue" stroke="midnightblue" points="591.431,-26.2681 599.595,-19.5164 589.002,-19.7028 591.431,-26.2681"/>
</g>
<!-- Node14&#45;&gt;Node5 -->
<g id="edge15" class="edge"><title>Node14&#45;&gt;Node5</title>
<path fill="none" stroke="midnightblue" d="M751.942,-173.935C743.815,-171.744 734.92,-169.567 726.621,-168 587.874,-141.796 548.53,-150.835 405.735,-132.226"/>
<polygon fill="midnightblue" stroke="midnightblue" points="406.099,-128.744 395.726,-130.899 405.179,-135.683 406.099,-128.744"/>
</g>
<!-- Node15 -->
<g id="node15" class="node"><title>Node15</title>
<polygon fill="white" stroke="#bfbfbf" points="746.621,-112.5 746.621,-131.5 814.621,-131.5 814.621,-112.5 746.621,-112.5"/>
<text text-anchor="middle" x="780.621" y="-119.5" font-family="Helvetica,sans-Serif" font-size="10.00">Eigen/Core</text>
</g>
<!-- Node14&#45;&gt;Node15 -->
<g id="edge16" class="edge"><title>Node14&#45;&gt;Node15</title>
<path fill="none" stroke="midnightblue" d="M780.621,-173.975C780.621,-165.58 780.621,-152.481 780.621,-141.663"/>
<polygon fill="midnightblue" stroke="midnightblue" points="784.121,-141.509 780.621,-131.509 777.121,-141.509 784.121,-141.509"/>
</g>
<!-- Node16 -->
<g id="node16" class="node"><title>Node16</title>
<polygon fill="white" stroke="#bfbfbf" points="634.621,-112.5 634.621,-131.5 728.621,-131.5 728.621,-112.5 634.621,-112.5"/>
<text text-anchor="middle" x="681.621" y="-119.5" font-family="Helvetica,sans-Serif" font-size="10.00">Eigen/Geometry</text>
</g>
<!-- Node14&#45;&gt;Node16 -->
<g id="edge17" class="edge"><title>Node14&#45;&gt;Node16</title>
<path fill="none" stroke="midnightblue" d="M766.437,-173.975C750.264,-164.255 723.595,-148.227 704.478,-136.737"/>
<polygon fill="midnightblue" stroke="midnightblue" points="706.153,-133.661 695.779,-131.509 702.547,-139.66 706.153,-133.661"/>
</g>
<!-- Node17 -->
<g id="node17" class="node"><title>Node17</title>
<polygon fill="white" stroke="#bfbfbf" points="832.621,-112.5 832.621,-131.5 912.621,-131.5 912.621,-112.5 832.621,-112.5"/>
<text text-anchor="middle" x="872.621" y="-119.5" font-family="Helvetica,sans-Serif" font-size="10.00">Eigen/Sparse</text>
</g>
<!-- Node14&#45;&gt;Node17 -->
<g id="edge18" class="edge"><title>Node14&#45;&gt;Node17</title>
<path fill="none" stroke="midnightblue" d="M793.803,-173.975C808.696,-164.343 833.166,-148.517 850.894,-137.052"/>
<polygon fill="midnightblue" stroke="midnightblue" points="852.968,-139.879 859.464,-131.509 849.167,-134.001 852.968,-139.879"/>
</g>
<!-- Node18&#45;&gt;Node5 -->
<g id="edge21" class="edge"><title>Node18&#45;&gt;Node5</title>
<path fill="none" stroke="midnightblue" d="M341.981,-235.298C342.785,-215.85 344.742,-168.49 345.84,-141.904"/>
<polygon fill="midnightblue" stroke="midnightblue" points="349.349,-141.759 346.265,-131.623 342.355,-141.47 349.349,-141.759"/>
</g>
<!-- Node18&#45;&gt;Node14 -->
<g id="edge22" class="edge"><title>Node18&#45;&gt;Node14</title>
<path fill="none" stroke="midnightblue" d="M427.144,-235.475C522.647,-225.694 671.104,-209.639 726.621,-199 731.676,-198.031 736.952,-196.842 742.143,-195.565"/>
<polygon fill="midnightblue" stroke="midnightblue" points="743.129,-198.925 751.936,-193.036 741.379,-192.148 743.129,-198.925"/>
</g>
<!-- Node19&#45;&gt;Node3 -->
<g id="edge26" class="edge"><title>Node19&#45;&gt;Node3</title>
<path fill="none" stroke="midnightblue" d="M294.999,-291.444C347.705,-281.925 432.851,-266.547 489.278,-256.356"/>
<polygon fill="midnightblue" stroke="midnightblue" points="490.247,-259.738 499.466,-254.516 489.003,-252.849 490.247,-259.738"/>
</g>
<!-- Node19&#45;&gt;Node5 -->
<g id="edge27" class="edge"><title>Node19&#45;&gt;Node5</title>
<path fill="none" stroke="midnightblue" d="M242.078,-291.311C234.703,-278.578 223.489,-254.273 231.621,-235 250.214,-190.938 295.554,-155.623 323.428,-137.126"/>
<polygon fill="midnightblue" stroke="midnightblue" points="325.635,-139.867 332.147,-131.51 321.845,-133.982 325.635,-139.867"/>
</g>
<!-- Node20 -->
<g id="node20" class="node"><title>Node20</title>
<g id="a_node20"><a xlink:href="Index_8hpp.html" target="_top" xlink:title="Core/Utils/Index.hpp">
<polygon fill="white" stroke="black" points="71.1214,-235.5 71.1214,-254.5 184.121,-254.5 184.121,-235.5 71.1214,-235.5"/>
<text text-anchor="middle" x="127.621" y="-242.5" font-family="Helvetica,sans-Serif" font-size="10.00">Core/Utils/Index.hpp</text>
</a>
</g>
</g>
<!-- Node19&#45;&gt;Node20 -->
<g id="edge28" class="edge"><title>Node19&#45;&gt;Node20</title>
<path fill="none" stroke="midnightblue" d="M228.607,-291.444C209.034,-282.636 178.314,-268.812 155.892,-258.722"/>
<polygon fill="midnightblue" stroke="midnightblue" points="157.102,-255.428 146.547,-254.516 154.23,-261.812 157.102,-255.428"/>
</g>
<!-- Node20&#45;&gt;Node5 -->
<g id="edge29" class="edge"><title>Node20&#45;&gt;Node5</title>
<path fill="none" stroke="midnightblue" d="M139.392,-235.36C165.761,-216.019 227.663,-170.717 232.621,-168 257.329,-154.462 286.974,-142.89 309.84,-134.872"/>
<polygon fill="midnightblue" stroke="midnightblue" points="311.188,-138.11 319.508,-131.551 308.913,-131.49 311.188,-138.11"/>
</g>
<!-- Node21 -->
<g id="node21" class="node"><title>Node21</title>
<polygon fill="white" stroke="#bfbfbf" points="14.6214,-174 14.6214,-193 56.6214,-193 56.6214,-174 14.6214,-174"/>
<text text-anchor="middle" x="35.6214" y="-181" font-family="Helvetica,sans-Serif" font-size="10.00">limits</text>
</g>
<!-- Node20&#45;&gt;Node21 -->
<g id="edge30" class="edge"><title>Node20&#45;&gt;Node21</title>
<path fill="none" stroke="midnightblue" d="M114.44,-235.475C99.5469,-225.843 75.0769,-210.017 57.3483,-198.552"/>
<polygon fill="midnightblue" stroke="midnightblue" points="59.0759,-195.501 48.7783,-193.009 55.2745,-201.379 59.0759,-195.501"/>
</g>
<!-- Node22 -->
<g id="node22" class="node"><title>Node22</title>
<g id="a_node22"><a xlink:href="Index_8inl.html" target="_top" xlink:title="Core/Utils/Index.inl">
<polygon fill="white" stroke="black" points="75.1214,-174 75.1214,-193 180.121,-193 180.121,-174 75.1214,-174"/>
<text text-anchor="middle" x="127.621" y="-181" font-family="Helvetica,sans-Serif" font-size="10.00">Core/Utils/Index.inl</text>
</a>
</g>
</g>
<!-- Node20&#45;&gt;Node22 -->
<g id="edge31" class="edge"><title>Node20&#45;&gt;Node22</title>
<path fill="none" stroke="midnightblue" d="M127.621,-235.475C127.621,-227.08 127.621,-213.981 127.621,-203.163"/>
<polygon fill="midnightblue" stroke="midnightblue" points="131.121,-203.009 127.621,-193.009 124.121,-203.009 131.121,-203.009"/>
</g>
<!-- Node23&#45;&gt;Node6 -->
<g id="edge33" class="edge"><title>Node23&#45;&gt;Node6</title>
<path fill="none" stroke="midnightblue" d="M655.143,-173.591C642.519,-159.023 615.608,-129.932 587.621,-112 565.302,-97.6996 537.687,-86.4829 515.585,-78.8248"/>
<polygon fill="midnightblue" stroke="midnightblue" points="516.451,-75.4235 505.857,-75.5583 514.222,-82.0594 516.451,-75.4235"/>
</g>
<!-- Node23&#45;&gt;Node15 -->
<g id="edge34" class="edge"><title>Node23&#45;&gt;Node15</title>
<path fill="none" stroke="midnightblue" d="M679.528,-173.975C699.156,-164.078 731.752,-147.642 754.612,-136.115"/>
<polygon fill="midnightblue" stroke="midnightblue" points="756.393,-139.137 763.746,-131.509 753.241,-132.886 756.393,-139.137"/>
</g>
<!-- Node23&#45;&gt;Node16 -->
<g id="edge35" class="edge"><title>Node23&#45;&gt;Node16</title>
<path fill="none" stroke="midnightblue" d="M665.344,-173.975C668.053,-165.492 672.296,-152.204 675.771,-141.322"/>
<polygon fill="midnightblue" stroke="midnightblue" points="679.196,-142.1 678.904,-131.509 672.528,-139.97 679.196,-142.1"/>
</g>
<!-- Node24 -->
<g id="node24" class="node"><title>Node24</title>
<polygon fill="white" stroke="#bfbfbf" points="524.621,-112.5 524.621,-131.5 578.621,-131.5 578.621,-112.5 524.621,-112.5"/>
<text text-anchor="middle" x="551.621" y="-119.5" font-family="Helvetica,sans-Serif" font-size="10.00">random</text>
</g>
<!-- Node23&#45;&gt;Node24 -->
<g id="edge36" class="edge"><title>Node23&#45;&gt;Node24</title>
<path fill="none" stroke="midnightblue" d="M646.718,-173.975C628.337,-164.122 597.865,-147.788 576.377,-136.27"/>
<polygon fill="midnightblue" stroke="midnightblue" points="577.963,-133.149 567.495,-131.509 574.656,-139.318 577.963,-133.149"/>
</g>
<!-- Node25&#45;&gt;Node2 -->
<g id="edge38" class="edge"><title>Node25&#45;&gt;Node2</title>
<path fill="none" stroke="midnightblue" d="M575.038,-310.516C558.665,-319.349 530.067,-333.255 507.638,-343.368"/>
<polygon fill="midnightblue" stroke="midnightblue" points="506.177,-340.187 498.457,-347.444 509.017,-346.585 506.177,-340.187"/>
</g>
<!-- Node26&#45;&gt;Node5 -->
<g id="edge40" class="edge"><title>Node26&#45;&gt;Node5</title>
<path fill="none" stroke="midnightblue" d="M847.926,-243.193C728.155,-240.904 502.926,-232.176 430.621,-199 412.624,-190.742 413.225,-181.373 398.621,-168 387.615,-157.921 374.96,-146.956 364.889,-138.373"/>
<polygon fill="midnightblue" stroke="midnightblue" points="367.022,-135.593 357.131,-131.796 362.495,-140.932 367.022,-135.593"/>
</g>
<!-- Node26&#45;&gt;Node13 -->
<g id="edge43" class="edge"><title>Node26&#45;&gt;Node13</title>
<path fill="none" stroke="midnightblue" d="M926.779,-235.298C931.622,-215.763 943.448,-168.065 950.023,-141.547"/>
<polygon fill="midnightblue" stroke="midnightblue" points="953.474,-142.172 952.483,-131.623 946.68,-140.487 953.474,-142.172"/>
</g>
<!-- Node26&#45;&gt;Node14 -->
<g id="edge41" class="edge"><title>Node26&#45;&gt;Node14</title>
<path fill="none" stroke="midnightblue" d="M903.99,-235.475C879.502,-225.357 838.475,-208.405 810.512,-196.851"/>
<polygon fill="midnightblue" stroke="midnightblue" points="811.794,-193.593 801.215,-193.009 809.12,-200.063 811.794,-193.593"/>
</g>
<!-- Node26&#45;&gt;Node15 -->
<g id="edge42" class="edge"><title>Node26&#45;&gt;Node15</title>
<path fill="none" stroke="midnightblue" d="M914.265,-235.298C889.979,-214.891 829.117,-163.75 798.623,-138.127"/>
<polygon fill="midnightblue" stroke="midnightblue" points="800.791,-135.377 790.884,-131.623 796.288,-140.736 800.791,-135.377"/>
</g>
<!-- Node27&#45;&gt;Node14 -->
<g id="edge45" class="edge"><title>Node27&#45;&gt;Node14</title>
<path fill="none" stroke="midnightblue" d="M822.348,-291.482C817.918,-282.512 810.914,-267.925 805.621,-255 798.483,-237.571 791.409,-217.263 786.618,-202.931"/>
<polygon fill="midnightblue" stroke="midnightblue" points="789.892,-201.684 783.435,-193.284 783.244,-203.877 789.892,-201.684"/>
</g>
</g>
</svg>
