<?xml version="1.0" encoding="UTF-8" standalone="no"?>
<!DOCTYPE svg PUBLIC "-//W3C//DTD SVG 1.1//EN"
 "http://www.w3.org/Graphics/SVG/1.1/DTD/svg11.dtd">
<!-- Generated by graphviz version 2.38.0 (20140413.2041)
 -->
<!-- Title: /home/travis/build/STORM&#45;IRIT/Radium&#45;Engine/src/GuiBase/Viewer/WindowQt.cpp Pages: 1 -->
<svg width="1061pt" height="274pt"
 viewBox="0.00 0.00 1061.00 274.00" xmlns="http://www.w3.org/2000/svg" xmlns:xlink="http://www.w3.org/1999/xlink">
<g id="graph0" class="graph" transform="scale(1 1) rotate(0) translate(4 270)">
<title>/home/travis/build/STORM&#45;IRIT/Radium&#45;Engine/src/GuiBase/Viewer/WindowQt.cpp</title>
<polygon fill="white" stroke="none" points="-4,4 -4,-270 1057,-270 1057,4 -4,4"/>
<!-- Node1 -->
<g id="node1" class="node"><title>Node1</title>
<polygon fill="#bfbfbf" stroke="black" points="487.5,-224.5 487.5,-265.5 668.5,-265.5 668.5,-224.5 487.5,-224.5"/>
<text text-anchor="start" x="495.5" y="-253.5" font-family="Helvetica,sans-Serif" font-size="10.00">/home/travis/build</text>
<text text-anchor="start" x="495.5" y="-242.5" font-family="Helvetica,sans-Serif" font-size="10.00">/STORM&#45;IRIT/Radium&#45;Engine</text>
<text text-anchor="middle" x="578" y="-231.5" font-family="Helvetica,sans-Serif" font-size="10.00">/src/GuiBase/Viewer/WindowQt.cpp</text>
</g>
<!-- Node2 -->
<g id="node2" class="node"><title>Node2</title>
<g id="a_node2"><a xlink:href="WindowQt_8hpp.html" target="_top" xlink:title="WindowQt.hpp">
<polygon fill="white" stroke="black" points="202,-168.5 202,-187.5 286,-187.5 286,-168.5 202,-168.5"/>
<text text-anchor="middle" x="244" y="-175.5" font-family="Helvetica,sans-Serif" font-size="10.00">WindowQt.hpp</text>
</a>
</g>
</g>
<!-- Node1&#45;&gt;Node2 -->
<g id="edge1" class="edge"><title>Node1&#45;&gt;Node2</title>
<path fill="none" stroke="midnightblue" d="M487.174,-226.324C425.91,-214.402 347.238,-199.091 296.232,-189.165"/>
<polygon fill="midnightblue" stroke="midnightblue" points="296.583,-185.668 286.098,-187.193 295.246,-192.539 296.583,-185.668"/>
</g>
<!-- Node14 -->
<g id="node14" class="node"><title>Node14</title>
<polygon fill="white" stroke="#bfbfbf" points="304.5,-168.5 304.5,-187.5 381.5,-187.5 381.5,-168.5 304.5,-168.5"/>
<text text-anchor="middle" x="343" y="-175.5" font-family="Helvetica,sans-Serif" font-size="10.00">QApplication</text>
</g>
<!-- Node1&#45;&gt;Node14 -->
<g id="edge13" class="edge"><title>Node1&#45;&gt;Node14</title>
<path fill="none" stroke="midnightblue" d="M507.492,-224.498C467.183,-213.348 418.039,-199.755 384.019,-190.346"/>
<polygon fill="midnightblue" stroke="midnightblue" points="384.544,-186.86 373.973,-187.567 382.678,-193.606 384.544,-186.86"/>
</g>
<!-- Node15 -->
<g id="node15" class="node"><title>Node15</title>
<polygon fill="white" stroke="#bfbfbf" points="400,-168.5 400,-187.5 456,-187.5 456,-168.5 400,-168.5"/>
<text text-anchor="middle" x="428" y="-175.5" font-family="Helvetica,sans-Serif" font-size="10.00">QDebug</text>
</g>
<!-- Node1&#45;&gt;Node15 -->
<g id="edge14" class="edge"><title>Node1&#45;&gt;Node15</title>
<path fill="none" stroke="midnightblue" d="M532.995,-224.498C508.449,-213.861 478.772,-201.001 457.24,-191.67"/>
<polygon fill="midnightblue" stroke="midnightblue" points="458.534,-188.417 447.967,-187.652 455.751,-194.84 458.534,-188.417"/>
</g>
<!-- Node16 -->
<g id="node16" class="node"><title>Node16</title>
<polygon fill="white" stroke="#bfbfbf" points="474,-168.5 474,-187.5 574,-187.5 574,-168.5 474,-168.5"/>
<text text-anchor="middle" x="524" y="-175.5" font-family="Helvetica,sans-Serif" font-size="10.00">QOpenGLContext</text>
</g>
<!-- Node1&#45;&gt;Node16 -->
<g id="edge15" class="edge"><title>Node1&#45;&gt;Node16</title>
<path fill="none" stroke="midnightblue" d="M561.798,-224.498C554.076,-215.203 544.943,-204.21 537.59,-195.358"/>
<polygon fill="midnightblue" stroke="midnightblue" points="540.271,-193.108 531.188,-187.652 534.886,-197.581 540.271,-193.108"/>
</g>
<!-- Node17 -->
<g id="node17" class="node"><title>Node17</title>
<polygon fill="white" stroke="#bfbfbf" points="592.5,-168.5 592.5,-187.5 673.5,-187.5 673.5,-168.5 592.5,-168.5"/>
<text text-anchor="middle" x="633" y="-175.5" font-family="Helvetica,sans-Serif" font-size="10.00">QResizeEvent</text>
</g>
<!-- Node1&#45;&gt;Node17 -->
<g id="edge16" class="edge"><title>Node1&#45;&gt;Node17</title>
<path fill="none" stroke="midnightblue" d="M594.502,-224.498C602.367,-215.203 611.669,-204.21 619.159,-195.358"/>
<polygon fill="midnightblue" stroke="midnightblue" points="621.891,-197.547 625.679,-187.652 616.547,-193.026 621.891,-197.547"/>
</g>
<!-- Node18 -->
<g id="node18" class="node"><title>Node18</title>
<polygon fill="white" stroke="#bfbfbf" points="692,-168.5 692,-187.5 750,-187.5 750,-168.5 692,-168.5"/>
<text text-anchor="middle" x="721" y="-175.5" font-family="Helvetica,sans-Serif" font-size="10.00">QScreen</text>
</g>
<!-- Node1&#45;&gt;Node18 -->
<g id="edge17" class="edge"><title>Node1&#45;&gt;Node18</title>
<path fill="none" stroke="midnightblue" d="M620.905,-224.498C644.2,-213.909 672.343,-201.117 692.847,-191.797"/>
<polygon fill="midnightblue" stroke="midnightblue" points="694.309,-194.977 701.965,-187.652 691.413,-188.604 694.309,-194.977"/>
</g>
<!-- Node19 -->
<g id="node19" class="node"><title>Node19</title>
<polygon fill="white" stroke="#bfbfbf" points="768.5,-168.5 768.5,-187.5 863.5,-187.5 863.5,-168.5 768.5,-168.5"/>
<text text-anchor="middle" x="816" y="-175.5" font-family="Helvetica,sans-Serif" font-size="10.00">QSurfaceFormat</text>
</g>
<!-- Node1&#45;&gt;Node19 -->
<g id="edge18" class="edge"><title>Node1&#45;&gt;Node19</title>
<path fill="none" stroke="midnightblue" d="M649.408,-224.498C690.408,-213.3 740.433,-199.638 774.902,-190.224"/>
<polygon fill="midnightblue" stroke="midnightblue" points="775.907,-193.578 784.631,-187.567 774.063,-186.825 775.907,-193.578"/>
</g>
<!-- Node20 -->
<g id="node20" class="node"><title>Node20</title>
<g id="a_node20"><a xlink:href="Log_8hpp.html" target="_top" xlink:title="Core/Utils/Log.hpp">
<polygon fill="white" stroke="black" points="882,-168.5 882,-187.5 986,-187.5 986,-168.5 882,-168.5"/>
<text text-anchor="middle" x="934" y="-175.5" font-family="Helvetica,sans-Serif" font-size="10.00">Core/Utils/Log.hpp</text>
</a>
</g>
</g>
<!-- Node1&#45;&gt;Node20 -->
<g id="edge19" class="edge"><title>Node1&#45;&gt;Node20</title>
<path fill="none" stroke="midnightblue" d="M668.755,-227.43C734.304,-215.461 820.825,-199.664 876.934,-189.419"/>
<polygon fill="midnightblue" stroke="midnightblue" points="877.836,-192.813 887.044,-187.573 876.578,-185.926 877.836,-192.813"/>
</g>
<!-- Node3 -->
<g id="node3" class="node"><title>Node3</title>
<g id="a_node3"><a xlink:href="RaGuiBase_8hpp.html" target="_top" xlink:title="GuiBase/RaGuiBase.hpp">
<polygon fill="white" stroke="black" points="0,-112.5 0,-131.5 132,-131.5 132,-112.5 0,-112.5"/>
<text text-anchor="middle" x="66" y="-119.5" font-family="Helvetica,sans-Serif" font-size="10.00">GuiBase/RaGuiBase.hpp</text>
</a>
</g>
</g>
<!-- Node2&#45;&gt;Node3 -->
<g id="edge2" class="edge"><title>Node2&#45;&gt;Node3</title>
<path fill="none" stroke="midnightblue" d="M215.795,-168.444C185.59,-159.28 137.489,-144.688 103.971,-134.519"/>
<polygon fill="midnightblue" stroke="midnightblue" points="104.658,-131.07 94.0727,-131.516 102.626,-137.769 104.658,-131.07"/>
</g>
<!-- Node10 -->
<g id="node10" class="node"><title>Node10</title>
<polygon fill="white" stroke="#bfbfbf" points="150,-112.5 150,-131.5 244,-131.5 244,-112.5 150,-112.5"/>
<text text-anchor="middle" x="197" y="-119.5" font-family="Helvetica,sans-Serif" font-size="10.00">QScopedPointer</text>
</g>
<!-- Node2&#45;&gt;Node10 -->
<g id="edge9" class="edge"><title>Node2&#45;&gt;Node10</title>
<path fill="none" stroke="midnightblue" d="M236.239,-168.083C229.463,-160.298 219.457,-148.801 211.245,-139.367"/>
<polygon fill="midnightblue" stroke="midnightblue" points="213.822,-136.996 204.617,-131.751 208.542,-141.592 213.822,-136.996"/>
</g>
<!-- Node11 -->
<g id="node11" class="node"><title>Node11</title>
<polygon fill="white" stroke="#bfbfbf" points="262.5,-112.5 262.5,-131.5 321.5,-131.5 321.5,-112.5 262.5,-112.5"/>
<text text-anchor="middle" x="292" y="-119.5" font-family="Helvetica,sans-Serif" font-size="10.00">QWindow</text>
</g>
<!-- Node2&#45;&gt;Node11 -->
<g id="edge10" class="edge"><title>Node2&#45;&gt;Node11</title>
<path fill="none" stroke="midnightblue" d="M251.926,-168.083C258.846,-160.298 269.065,-148.801 277.452,-139.367"/>
<polygon fill="midnightblue" stroke="midnightblue" points="280.194,-141.55 284.221,-131.751 274.962,-136.9 280.194,-141.55"/>
</g>
<!-- Node12 -->
<g id="node12" class="node"><title>Node12</title>
<polygon fill="white" stroke="#bfbfbf" points="339.5,-112.5 339.5,-131.5 470.5,-131.5 470.5,-112.5 339.5,-112.5"/>
<text text-anchor="middle" x="405" y="-119.5" font-family="Helvetica,sans-Serif" font-size="10.00">glbinding/ProcAddress.h</text>
</g>
<!-- Node2&#45;&gt;Node12 -->
<g id="edge11" class="edge"><title>Node2&#45;&gt;Node12</title>
<path fill="none" stroke="midnightblue" d="M269.511,-168.444C296.596,-159.359 339.59,-144.939 369.869,-134.783"/>
<polygon fill="midnightblue" stroke="midnightblue" points="371.24,-138.015 379.608,-131.516 369.014,-131.378 371.24,-138.015"/>
</g>
<!-- Node13 -->
<g id="node13" class="node"><title>Node13</title>
<polygon fill="white" stroke="#bfbfbf" points="489,-112.5 489,-131.5 539,-131.5 539,-112.5 489,-112.5"/>
<text text-anchor="middle" x="514" y="-119.5" font-family="Helvetica,sans-Serif" font-size="10.00">atomic</text>
</g>
<!-- Node2&#45;&gt;Node13 -->
<g id="edge12" class="edge"><title>Node2&#45;&gt;Node13</title>
<path fill="none" stroke="midnightblue" d="M286.107,-169.264C343.403,-158.682 442.924,-140.084 479,-132 479.099,-131.978 479.199,-131.955 479.299,-131.933"/>
<polygon fill="midnightblue" stroke="midnightblue" points="479.888,-135.39 488.81,-129.678 478.273,-128.579 479.888,-135.39"/>
</g>
<!-- Node4 -->
<g id="node4" class="node"><title>Node4</title>
<g id="a_node4"><a xlink:href="CoreMacros_8hpp.html" target="_top" xlink:title="Core/CoreMacros.hpp">
<polygon fill="white" stroke="black" points="649,-56.5 649,-75.5 769,-75.5 769,-56.5 649,-56.5"/>
<text text-anchor="middle" x="709" y="-63.5" font-family="Helvetica,sans-Serif" font-size="10.00">Core/CoreMacros.hpp</text>
</a>
</g>
</g>
<!-- Node3&#45;&gt;Node4 -->
<g id="edge3" class="edge"><title>Node3&#45;&gt;Node4</title>
<path fill="none" stroke="midnightblue" d="M132.237,-112.905C135.198,-112.589 138.129,-112.286 141,-112 320.033,-94.1733 531.383,-78.9625 638.757,-71.649"/>
<polygon fill="midnightblue" stroke="midnightblue" points="639.079,-75.1353 648.819,-70.9661 638.604,-68.1514 639.079,-75.1353"/>
</g>
<!-- Node5 -->
<g id="node5" class="node"><title>Node5</title>
<polygon fill="white" stroke="#bfbfbf" points="546,-0.5 546,-19.5 598,-19.5 598,-0.5 546,-0.5"/>
<text text-anchor="middle" x="572" y="-7.5" font-family="Helvetica,sans-Serif" font-size="10.00">cassert</text>
</g>
<!-- Node4&#45;&gt;Node5 -->
<g id="edge4" class="edge"><title>Node4&#45;&gt;Node5</title>
<path fill="none" stroke="midnightblue" d="M687.292,-56.4435C664.645,-47.5171 628.928,-33.4387 603.248,-23.3168"/>
<polygon fill="midnightblue" stroke="midnightblue" points="604.193,-19.9273 593.606,-19.5164 601.626,-26.4397 604.193,-19.9273"/>
</g>
<!-- Node6 -->
<g id="node6" class="node"><title>Node6</title>
<polygon fill="white" stroke="#bfbfbf" points="616.5,-0.5 616.5,-19.5 661.5,-19.5 661.5,-0.5 616.5,-0.5"/>
<text text-anchor="middle" x="639" y="-7.5" font-family="Helvetica,sans-Serif" font-size="10.00">cstdio</text>
</g>
<!-- Node4&#45;&gt;Node6 -->
<g id="edge5" class="edge"><title>Node4&#45;&gt;Node6</title>
<path fill="none" stroke="midnightblue" d="M697.753,-56.324C687.203,-48.1849 671.199,-35.8395 658.558,-26.0874"/>
<polygon fill="midnightblue" stroke="midnightblue" points="660.507,-23.1707 650.451,-19.8339 656.231,-28.7132 660.507,-23.1707"/>
</g>
<!-- Node7 -->
<g id="node7" class="node"><title>Node7</title>
<polygon fill="white" stroke="#bfbfbf" points="679.5,-0.5 679.5,-19.5 738.5,-19.5 738.5,-0.5 679.5,-0.5"/>
<text text-anchor="middle" x="709" y="-7.5" font-family="Helvetica,sans-Serif" font-size="10.00">iostream</text>
</g>
<!-- Node4&#45;&gt;Node7 -->
<g id="edge6" class="edge"><title>Node4&#45;&gt;Node7</title>
<path fill="none" stroke="midnightblue" d="M709,-56.083C709,-49.0059 709,-38.8611 709,-29.9865"/>
<polygon fill="midnightblue" stroke="midnightblue" points="712.5,-29.751 709,-19.7511 705.5,-29.7511 712.5,-29.751"/>
</g>
<!-- Node8 -->
<g id="node8" class="node"><title>Node8</title>
<polygon fill="white" stroke="#bfbfbf" points="823,-0.5 823,-19.5 879,-19.5 879,-0.5 823,-0.5"/>
<text text-anchor="middle" x="851" y="-7.5" font-family="Helvetica,sans-Serif" font-size="10.00">sstream</text>
</g>
<!-- Node4&#45;&gt;Node8 -->
<g id="edge7" class="edge"><title>Node4&#45;&gt;Node8</title>
<path fill="none" stroke="midnightblue" d="M731.5,-56.4435C755.077,-47.4776 792.322,-33.314 818.964,-23.1827"/>
<polygon fill="midnightblue" stroke="midnightblue" points="820.502,-26.3424 828.605,-19.5164 818.014,-19.7995 820.502,-26.3424"/>
</g>
<!-- Node9 -->
<g id="node9" class="node"><title>Node9</title>
<polygon fill="white" stroke="#bfbfbf" points="757,-0.5 757,-19.5 805,-19.5 805,-0.5 757,-0.5"/>
<text text-anchor="middle" x="781" y="-7.5" font-family="Helvetica,sans-Serif" font-size="10.00">thread</text>
</g>
<!-- Node4&#45;&gt;Node9 -->
<g id="edge8" class="edge"><title>Node4&#45;&gt;Node9</title>
<path fill="none" stroke="midnightblue" d="M720.568,-56.324C731.42,-48.1849 747.881,-35.8395 760.883,-26.0874"/>
<polygon fill="midnightblue" stroke="midnightblue" points="763.321,-28.6339 769.221,-19.8339 759.121,-23.0339 763.321,-28.6339"/>
</g>
<!-- Node20&#45;&gt;Node8 -->
<g id="edge23" class="edge"><title>Node20&#45;&gt;Node8</title>
<path fill="none" stroke="midnightblue" d="M914.209,-168.386C899.559,-160.936 880.409,-148.719 870,-132 850.215,-100.222 848.656,-54.9317 849.612,-29.7393"/>
<polygon fill="midnightblue" stroke="midnightblue" points="853.11,-29.8788 850.172,-19.6994 846.121,-29.489 853.11,-29.8788"/>
</g>
<!-- Node21 -->
<g id="node21" class="node"><title>Node21</title>
<g id="a_node21"><a xlink:href="RaCore_8hpp.html" target="_top" xlink:title="Core/RaCore.hpp">
<polygon fill="white" stroke="black" points="693,-112.5 693,-131.5 791,-131.5 791,-112.5 693,-112.5"/>
<text text-anchor="middle" x="742" y="-119.5" font-family="Helvetica,sans-Serif" font-size="10.00">Core/RaCore.hpp</text>
</a>
</g>
</g>
<!-- Node20&#45;&gt;Node21 -->
<g id="edge20" class="edge"><title>Node20&#45;&gt;Node21</title>
<path fill="none" stroke="midnightblue" d="M903.577,-168.444C870.715,-159.201 818.215,-144.436 782.026,-134.257"/>
<polygon fill="midnightblue" stroke="midnightblue" points="782.855,-130.855 772.281,-131.516 780.96,-137.593 782.855,-130.855"/>
</g>
<!-- Node22 -->
<g id="node22" class="node"><title>Node22</title>
<polygon fill="white" stroke="#bfbfbf" points="879,-112.5 879,-131.5 923,-131.5 923,-112.5 879,-112.5"/>
<text text-anchor="middle" x="901" y="-119.5" font-family="Helvetica,sans-Serif" font-size="10.00">ctime</text>
</g>
<!-- Node20&#45;&gt;Node22 -->
<g id="edge22" class="edge"><title>Node20&#45;&gt;Node22</title>
<path fill="none" stroke="midnightblue" d="M928.551,-168.083C923.986,-160.613 917.332,-149.724 911.707,-140.52"/>
<polygon fill="midnightblue" stroke="midnightblue" points="914.549,-138.459 906.348,-131.751 908.576,-142.109 914.549,-138.459"/>
</g>
<!-- Node23 -->
<g id="node23" class="node"><title>Node23</title>
<polygon fill="white" stroke="#bfbfbf" points="941.5,-112.5 941.5,-131.5 990.5,-131.5 990.5,-112.5 941.5,-112.5"/>
<text text-anchor="middle" x="966" y="-119.5" font-family="Helvetica,sans-Serif" font-size="10.00">stdio.h</text>
</g>
<!-- Node20&#45;&gt;Node23 -->
<g id="edge24" class="edge"><title>Node20&#45;&gt;Node23</title>
<path fill="none" stroke="midnightblue" d="M939.284,-168.083C943.711,-160.613 950.163,-149.724 955.618,-140.52"/>
<polygon fill="midnightblue" stroke="midnightblue" points="958.727,-142.138 960.814,-131.751 952.705,-138.57 958.727,-142.138"/>
</g>
<!-- Node24 -->
<g id="node24" class="node"><title>Node24</title>
<polygon fill="white" stroke="#bfbfbf" points="1009,-112.5 1009,-131.5 1053,-131.5 1053,-112.5 1009,-112.5"/>
<text text-anchor="middle" x="1031" y="-119.5" font-family="Helvetica,sans-Serif" font-size="10.00">string</text>
</g>
<!-- Node20&#45;&gt;Node24 -->
<g id="edge25" class="edge"><title>Node20&#45;&gt;Node24</title>
<path fill="none" stroke="midnightblue" d="M949.585,-168.324C964.999,-159.743 988.812,-146.486 1006.71,-136.522"/>
<polygon fill="midnightblue" stroke="midnightblue" points="1008.42,-139.577 1015.45,-131.655 1005.01,-133.461 1008.42,-139.577"/>
</g>
<!-- Node21&#45;&gt;Node4 -->
<g id="edge21" class="edge"><title>Node21&#45;&gt;Node4</title>
<path fill="none" stroke="midnightblue" d="M736.551,-112.083C731.986,-104.613 725.332,-93.7244 719.707,-84.5199"/>
<polygon fill="midnightblue" stroke="midnightblue" points="722.549,-82.4588 714.348,-75.7511 716.576,-86.109 722.549,-82.4588"/>
</g>
</g>
</svg>
